#VRML V2.0 utf8
# Project-owned nominal model; units 0.1 inch for KiCad.
Shape { appearance Appearance { material Material { diffuseColor 0.7 0.72 0.74 } } geometry IndexedFaceSet { solid FALSE coord Coordinate { point [ -1.771654 -0.708661 0.000000,
-1.771654 -0.708661 1.377953,
-1.771654 0.708661 0.000000,
-1.771654 0.708661 1.377953,
1.771654 -0.708661 1.377953,
1.771654 -0.708661 0.000000,
1.771654 0.708661 0.000000,
1.771654 0.708661 1.377953 ] } coordIndex [ 0 1 2 -1,
2 1 3 -1,
4 5 6 -1,
4 6 7 -1,
5 4 0 -1,
0 4 1 -1,
7 6 2 -1,
7 2 3 -1,
2 6 0 -1,
0 6 5 -1,
7 3 1 -1,
7 1 4 -1 ] } }
Shape { appearance Appearance { material Material { diffuseColor 0.055 0.06 0.065 } } geometry IndexedFaceSet { solid FALSE coord Coordinate { point [ -1.653543 -0.590551 1.200787,
-1.653543 -0.590551 1.358268,
-1.653543 0.590551 1.200787,
-1.653543 0.590551 1.358268,
1.653543 -0.590551 1.358268,
1.653543 -0.590551 1.200787,
1.653543 0.590551 1.200787,
1.653543 0.590551 1.358268 ] } coordIndex [ 0 1 2 -1,
2 1 3 -1,
4 5 6 -1,
4 6 7 -1,
0 5 1 -1,
5 4 1 -1,
6 2 3 -1,
7 6 3 -1,
2 6 0 -1,
0 6 5 -1,
7 3 1 -1,
7 1 4 -1 ] } }
Shape { appearance Appearance { material Material { diffuseColor 0.055 0.06 0.065 } } geometry IndexedFaceSet { solid FALSE coord Coordinate { point [ -0.787402 -1.496063 0.314961,
-0.787402 -1.496063 0.905512,
-0.787402 -0.708661 0.314961,
-0.787402 -0.708661 0.905512,
-0.196850 -1.496063 0.905512,
-0.196850 -1.496063 0.314961,
-0.196850 -0.708661 0.314961,
-0.196850 -0.708661 0.905512 ] } coordIndex [ 0 1 2 -1,
2 1 3 -1,
4 5 6 -1,
4 6 7 -1,
5 4 0 -1,
0 4 1 -1,
7 6 2 -1,
7 2 3 -1,
2 6 0 -1,
0 6 5 -1,
7 3 1 -1,
7 1 4 -1 ] } }
