%TF.GenerationSoftware,KiCad,Pcbnew,10.0.6*%
%TF.CreationDate,2026-09-12T03:45:26-05:00*%
%TF.ProjectId,KK_power_module,4b4b5f70-6f77-4657-925f-6d6f64756c65,P.3 flat stack engineering*%
%TF.SameCoordinates,Original*%
%TF.FileFunction,Soldermask,Top*%
%TF.FilePolarity,Negative*%
%FSLAX46Y46*%
G04 Gerber Fmt 4.6, Leading zero omitted, Abs format (unit mm)*
G04 Created by KiCad (PCBNEW 10.0.6) date 2026-09-12 03:45:26*
%MOMM*%
%LPD*%
G01*
G04 APERTURE LIST*
G04 Aperture macros list*
%AMRoundRect*
0 Rectangle with rounded corners*
0 $1 Rounding radius*
0 $2 $3 $4 $5 $6 $7 $8 $9 X,Y pos of 4 corners*
0 Add a 4 corners polygon primitive as box body*
4,1,4,$2,$3,$4,$5,$6,$7,$8,$9,$2,$3,0*
0 Add four circle primitives for the rounded corners*
1,1,$1+$1,$2,$3*
1,1,$1+$1,$4,$5*
1,1,$1+$1,$6,$7*
1,1,$1+$1,$8,$9*
0 Add four rect primitives between the rounded corners*
20,1,$1+$1,$2,$3,$4,$5,0*
20,1,$1+$1,$4,$5,$6,$7,0*
20,1,$1+$1,$6,$7,$8,$9,0*
20,1,$1+$1,$8,$9,$2,$3,0*%
G04 Aperture macros list end*
%ADD10RoundRect,0.150000X0.512500X0.150000X-0.512500X0.150000X-0.512500X-0.150000X0.512500X-0.150000X0*%
%ADD11RoundRect,0.250000X-0.475000X0.250000X-0.475000X-0.250000X0.475000X-0.250000X0.475000X0.250000X0*%
%ADD12RoundRect,0.200000X0.200000X0.275000X-0.200000X0.275000X-0.200000X-0.275000X0.200000X-0.275000X0*%
%ADD13R,0.280000X0.280000*%
%ADD14O,0.850000X0.280000*%
%ADD15R,0.230000X0.600000*%
%ADD16R,0.250000X0.700000*%
%ADD17R,0.650000X0.900000*%
%ADD18R,1.700000X2.150000*%
%ADD19RoundRect,0.150000X-0.150000X0.587500X-0.150000X-0.587500X0.150000X-0.587500X0.150000X0.587500X0*%
%ADD20RoundRect,0.249500X0.457500X0.147500X-0.457500X0.147500X-0.457500X-0.147500X0.457500X-0.147500X0*%
%ADD21RoundRect,0.250000X0.375000X0.625000X-0.375000X0.625000X-0.375000X-0.625000X0.375000X-0.625000X0*%
%ADD22RoundRect,0.250000X-0.350000X-0.625000X0.350000X-0.625000X0.350000X0.625000X-0.350000X0.625000X0*%
%ADD23O,1.200000X1.750000*%
%ADD24RoundRect,0.200000X0.275000X-0.200000X0.275000X0.200000X-0.275000X0.200000X-0.275000X-0.200000X0*%
%ADD25RoundRect,0.225000X0.225000X0.250000X-0.225000X0.250000X-0.225000X-0.250000X0.225000X-0.250000X0*%
%ADD26RoundRect,0.225000X0.250000X-0.225000X0.250000X0.225000X-0.250000X0.225000X-0.250000X-0.225000X0*%
%ADD27RoundRect,0.200000X-0.275000X0.200000X-0.275000X-0.200000X0.275000X-0.200000X0.275000X0.200000X0*%
%ADD28C,2.200000*%
%ADD29R,0.980000X3.400000*%
%ADD30RoundRect,0.225000X-0.250000X0.225000X-0.250000X-0.225000X0.250000X-0.225000X0.250000X0.225000X0*%
%ADD31C,0.900000*%
%ADD32RoundRect,0.250000X-1.000000X0.375000X-1.000000X-0.375000X1.000000X-0.375000X1.000000X0.375000X0*%
%ADD33C,0.300000*%
%ADD34RoundRect,0.225000X-0.225000X-0.250000X0.225000X-0.250000X0.225000X0.250000X-0.225000X0.250000X0*%
%ADD35RoundRect,0.250000X-0.250000X-0.475000X0.250000X-0.475000X0.250000X0.475000X-0.250000X0.475000X0*%
%ADD36RoundRect,0.062500X0.237500X0.062500X-0.237500X0.062500X-0.237500X-0.062500X0.237500X-0.062500X0*%
%ADD37R,0.900000X1.600000*%
%ADD38RoundRect,0.250000X0.250000X0.475000X-0.250000X0.475000X-0.250000X-0.475000X0.250000X-0.475000X0*%
%ADD39C,0.650000*%
%ADD40RoundRect,0.300000X-0.000010X-0.350000X0.000010X-0.350000X0.000010X0.350000X-0.000010X0.350000X0*%
%ADD41RoundRect,0.150000X-0.150000X-0.500000X0.150000X-0.500000X0.150000X0.500000X-0.150000X0.500000X0*%
%ADD42RoundRect,0.075000X-0.075000X-0.575000X0.075000X-0.575000X0.075000X0.575000X-0.075000X0.575000X0*%
%ADD43O,1.000000X2.100000*%
%ADD44O,1.000000X1.600000*%
%ADD45RoundRect,0.250000X-0.650000X1.000000X-0.650000X-1.000000X0.650000X-1.000000X0.650000X1.000000X0*%
%ADD46RoundRect,0.250001X-1.099999X-1.099999X1.099999X-1.099999X1.099999X1.099999X-1.099999X1.099999X0*%
%ADD47C,2.700000*%
%ADD48RoundRect,0.250000X-0.625000X0.375000X-0.625000X-0.375000X0.625000X-0.375000X0.625000X0.375000X0*%
%ADD49RoundRect,0.062500X0.375000X0.062500X-0.375000X0.062500X-0.375000X-0.062500X0.375000X-0.062500X0*%
%ADD50RoundRect,0.062500X0.062500X0.375000X-0.062500X0.375000X-0.062500X-0.375000X0.062500X-0.375000X0*%
%ADD51R,1.600000X1.600000*%
%ADD52RoundRect,0.062500X0.350000X0.062500X-0.350000X0.062500X-0.350000X-0.062500X0.350000X-0.062500X0*%
%ADD53RoundRect,0.062500X0.062500X0.350000X-0.062500X0.350000X-0.062500X-0.350000X0.062500X-0.350000X0*%
%ADD54R,2.700000X2.700000*%
%ADD55RoundRect,0.050000X0.375000X0.050000X-0.375000X0.050000X-0.375000X-0.050000X0.375000X-0.050000X0*%
%ADD56RoundRect,0.050000X0.050000X0.275000X-0.050000X0.275000X-0.050000X-0.275000X0.050000X-0.275000X0*%
%ADD57RoundRect,0.250000X-0.600000X-0.725000X0.600000X-0.725000X0.600000X0.725000X-0.600000X0.725000X0*%
%ADD58O,1.700000X1.950000*%
G04 APERTURE END LIST*
D10*
%TO.C,U11*%
X9137500Y-68950000D03*
X9137500Y-68000000D03*
X9137500Y-67050000D03*
X6862500Y-67050000D03*
X6862500Y-68950000D03*
%TD*%
D11*
%TO.C,C43*%
X7400000Y-82550000D03*
X7400000Y-84450000D03*
%TD*%
D12*
%TO.C,R2*%
X36825000Y-94750000D03*
X35175000Y-94750000D03*
%TD*%
D13*
%TO.C,U7*%
X14760000Y-82000000D03*
D14*
X14475000Y-82000000D03*
D13*
X14760000Y-81500000D03*
D14*
X14475000Y-81500000D03*
D13*
X14760000Y-81000000D03*
D14*
X14475000Y-81000000D03*
D13*
X14760000Y-80500000D03*
D14*
X14475000Y-80500000D03*
D13*
X14760000Y-80000000D03*
D14*
X14475000Y-80000000D03*
X11525000Y-80000000D03*
D13*
X11240000Y-80000000D03*
D14*
X11525000Y-80500000D03*
D13*
X11240000Y-80500000D03*
D14*
X11525000Y-81000000D03*
D13*
X11240000Y-81000000D03*
D14*
X11525000Y-81500000D03*
D13*
X11240000Y-81500000D03*
D14*
X11525000Y-82000000D03*
D13*
X11240000Y-82000000D03*
D15*
X13600000Y-82425000D03*
D16*
X13600000Y-82425000D03*
D15*
X13600000Y-79575000D03*
D16*
X13600000Y-79575000D03*
D17*
X13435000Y-81560000D03*
X13435000Y-80440000D03*
D15*
X13200000Y-82425000D03*
D16*
X13200000Y-82425000D03*
D15*
X13200000Y-79575000D03*
D16*
X13200000Y-79575000D03*
D18*
X13000000Y-81000000D03*
D15*
X12800000Y-82425000D03*
D16*
X12800000Y-82425000D03*
D15*
X12800000Y-79575000D03*
D16*
X12800000Y-79575000D03*
D17*
X12565000Y-81560000D03*
X12565000Y-80440000D03*
D15*
X12400000Y-82425000D03*
D16*
X12400000Y-82425000D03*
D15*
X12400000Y-79575000D03*
D16*
X12400000Y-79575000D03*
%TD*%
D12*
%TO.C,R14*%
X14825000Y-98500000D03*
X13175000Y-98500000D03*
%TD*%
D19*
%TO.C,Q4*%
X44450000Y-92062500D03*
X42550000Y-92062500D03*
X43500000Y-93937500D03*
%TD*%
D20*
%TO.C,Q1*%
X46755000Y-69450000D03*
X46755000Y-68500000D03*
X46755000Y-67550000D03*
X44245000Y-67550000D03*
X44245000Y-68500000D03*
X44245000Y-69450000D03*
%TD*%
D21*
%TO.C,F1*%
X39650000Y-73500000D03*
X36850000Y-73500000D03*
%TD*%
D22*
%TO.C,J4*%
X28000000Y-59450000D03*
D23*
X30000000Y-59450000D03*
%TD*%
D24*
%TO.C,R21*%
X35900000Y-79825000D03*
X35900000Y-78175000D03*
%TD*%
D11*
%TO.C,C44*%
X5200000Y-82550000D03*
X5200000Y-84450000D03*
%TD*%
D25*
%TO.C,C72*%
X31775000Y-94250000D03*
X30225000Y-94250000D03*
%TD*%
D12*
%TO.C,R1*%
X36825000Y-93000000D03*
X35175000Y-93000000D03*
%TD*%
%TO.C,R70*%
X31825000Y-92500000D03*
X30175000Y-92500000D03*
%TD*%
D26*
%TO.C,C48*%
X9500000Y-79775000D03*
X9500000Y-78225000D03*
%TD*%
D25*
%TO.C,C9*%
X19025000Y-91500000D03*
X17475000Y-91500000D03*
%TD*%
D27*
%TO.C,R9*%
X34750000Y-72925000D03*
X34750000Y-74575000D03*
%TD*%
D28*
%TO.C,H3*%
X4000000Y-101000000D03*
%TD*%
D12*
%TO.C,R61*%
X12825000Y-69500000D03*
X11175000Y-69500000D03*
%TD*%
%TO.C,R12*%
X12575000Y-96500000D03*
X10925000Y-96500000D03*
%TD*%
%TO.C,R64*%
X12825000Y-67750000D03*
X11175000Y-67750000D03*
%TD*%
D25*
%TO.C,C71*%
X26775000Y-92750000D03*
X25225000Y-92750000D03*
%TD*%
D12*
%TO.C,R53*%
X28075000Y-65000000D03*
X26425000Y-65000000D03*
%TD*%
D29*
%TO.C,L2*%
X29185000Y-85750000D03*
X26815000Y-85750000D03*
%TD*%
D12*
%TO.C,R6*%
X22825000Y-90250000D03*
X21175000Y-90250000D03*
%TD*%
%TO.C,R54*%
X21575000Y-65000000D03*
X19925000Y-65000000D03*
%TD*%
D19*
%TO.C,Q5*%
X11450000Y-99312500D03*
X9550000Y-99312500D03*
X10500000Y-101187500D03*
%TD*%
D27*
%TO.C,R20*%
X37700000Y-78175000D03*
X37700000Y-79825000D03*
%TD*%
D11*
%TO.C,C32*%
X24600000Y-82550000D03*
X24600000Y-84450000D03*
%TD*%
D30*
%TO.C,C60*%
X6250000Y-73225000D03*
X6250000Y-74775000D03*
%TD*%
D12*
%TO.C,R72*%
X31325000Y-90750000D03*
X29675000Y-90750000D03*
%TD*%
D31*
%TO.C,SW1*%
X4875000Y-89600000D03*
X4875000Y-96400000D03*
D32*
X7625000Y-90500000D03*
X7625000Y-93000000D03*
X7625000Y-95500000D03*
%TD*%
D20*
%TO.C,Q2*%
X41755000Y-69450000D03*
X41755000Y-68500000D03*
X41755000Y-67550000D03*
X39245000Y-67550000D03*
X39245000Y-68500000D03*
X39245000Y-69450000D03*
%TD*%
D11*
%TO.C,C22*%
X39600000Y-82550000D03*
X39600000Y-84450000D03*
%TD*%
D33*
%TO.C,U13*%
X28200000Y-99900000D03*
X27800000Y-99900000D03*
X28200000Y-99500000D03*
X27800000Y-99500000D03*
X28200000Y-99100000D03*
X27800000Y-99100000D03*
%TD*%
D10*
%TO.C,U9*%
X25137500Y-71950000D03*
X25137500Y-71000000D03*
X25137500Y-70050000D03*
X22862500Y-70050000D03*
X22862500Y-71000000D03*
X22862500Y-71950000D03*
%TD*%
D34*
%TO.C,C35*%
X27225000Y-77500000D03*
X28775000Y-77500000D03*
%TD*%
D35*
%TO.C,C40*%
X16300000Y-81500000D03*
X18200000Y-81500000D03*
%TD*%
D12*
%TO.C,R4*%
X22825000Y-93750000D03*
X21175000Y-93750000D03*
%TD*%
D27*
%TO.C,R63*%
X4500000Y-73175000D03*
X4500000Y-74825000D03*
%TD*%
D11*
%TO.C,C4*%
X26500000Y-94550000D03*
X26500000Y-96450000D03*
%TD*%
D27*
%TO.C,R62*%
X13750000Y-71175000D03*
X13750000Y-72825000D03*
%TD*%
D29*
%TO.C,L1*%
X44185000Y-85750000D03*
X41815000Y-85750000D03*
%TD*%
D11*
%TO.C,C42*%
X9600000Y-82550000D03*
X9600000Y-84450000D03*
%TD*%
D25*
%TO.C,C52*%
X24775000Y-66250000D03*
X23225000Y-66250000D03*
%TD*%
D12*
%TO.C,R66*%
X15325000Y-74500000D03*
X13675000Y-74500000D03*
%TD*%
D27*
%TO.C,R51*%
X19750000Y-67175000D03*
X19750000Y-68825000D03*
%TD*%
D30*
%TO.C,C54*%
X21500000Y-66725000D03*
X21500000Y-68275000D03*
%TD*%
D35*
%TO.C,C41*%
X16300000Y-84000000D03*
X18200000Y-84000000D03*
%TD*%
D36*
%TO.C,U4*%
X15950000Y-93750000D03*
X15950000Y-93250000D03*
X15950000Y-92750000D03*
X15950000Y-92250000D03*
X14050000Y-92250000D03*
X14050000Y-92750000D03*
X14050000Y-93250000D03*
X14050000Y-93750000D03*
D37*
X15000000Y-93000000D03*
%TD*%
D27*
%TO.C,R75*%
X14250000Y-100175000D03*
X14250000Y-101825000D03*
%TD*%
D11*
%TO.C,C5*%
X19500000Y-96050000D03*
X19500000Y-97950000D03*
%TD*%
D20*
%TO.C,Q3*%
X36755000Y-69450000D03*
X36755000Y-68500000D03*
X36755000Y-67550000D03*
X34245000Y-67550000D03*
X34245000Y-68500000D03*
X34245000Y-69450000D03*
%TD*%
D13*
%TO.C,U5*%
X44760000Y-82000000D03*
D14*
X44475000Y-82000000D03*
D13*
X44760000Y-81500000D03*
D14*
X44475000Y-81500000D03*
D13*
X44760000Y-81000000D03*
D14*
X44475000Y-81000000D03*
D13*
X44760000Y-80500000D03*
D14*
X44475000Y-80500000D03*
D13*
X44760000Y-80000000D03*
D14*
X44475000Y-80000000D03*
X41525000Y-80000000D03*
D13*
X41240000Y-80000000D03*
D14*
X41525000Y-80500000D03*
D13*
X41240000Y-80500000D03*
D14*
X41525000Y-81000000D03*
D13*
X41240000Y-81000000D03*
D14*
X41525000Y-81500000D03*
D13*
X41240000Y-81500000D03*
D14*
X41525000Y-82000000D03*
D13*
X41240000Y-82000000D03*
D15*
X43600000Y-82425000D03*
D16*
X43600000Y-82425000D03*
D15*
X43600000Y-79575000D03*
D16*
X43600000Y-79575000D03*
D17*
X43435000Y-81560000D03*
X43435000Y-80440000D03*
D15*
X43200000Y-82425000D03*
D16*
X43200000Y-82425000D03*
D15*
X43200000Y-79575000D03*
D16*
X43200000Y-79575000D03*
D18*
X43000000Y-81000000D03*
D15*
X42800000Y-82425000D03*
D16*
X42800000Y-82425000D03*
D15*
X42800000Y-79575000D03*
D16*
X42800000Y-79575000D03*
D17*
X42565000Y-81560000D03*
X42565000Y-80440000D03*
D15*
X42400000Y-82425000D03*
D16*
X42400000Y-82425000D03*
D15*
X42400000Y-79575000D03*
D16*
X42400000Y-79575000D03*
%TD*%
D11*
%TO.C,C24*%
X35200000Y-82550000D03*
X35200000Y-84450000D03*
%TD*%
D10*
%TO.C,U8*%
X30137500Y-71950000D03*
X30137500Y-71000000D03*
X30137500Y-70050000D03*
X27862500Y-70050000D03*
X27862500Y-71000000D03*
X27862500Y-71950000D03*
%TD*%
D27*
%TO.C,R11*%
X14250000Y-95175000D03*
X14250000Y-96825000D03*
%TD*%
D10*
%TO.C,U2*%
X44137500Y-73450000D03*
X44137500Y-72500000D03*
X44137500Y-71550000D03*
X41862500Y-71550000D03*
X41862500Y-72500000D03*
X41862500Y-73450000D03*
%TD*%
D28*
%TO.C,H4*%
X92000000Y-101000000D03*
%TD*%
D26*
%TO.C,C38*%
X24500000Y-79775000D03*
X24500000Y-78225000D03*
%TD*%
D38*
%TO.C,C3*%
X22950000Y-100500000D03*
X21050000Y-100500000D03*
%TD*%
D39*
%TO.C,J1*%
X36110000Y-98055000D03*
X41890000Y-98055000D03*
D40*
X35800000Y-96915000D03*
D41*
X36600000Y-96915000D03*
D42*
X37750000Y-96915000D03*
X38750000Y-96915000D03*
X39250000Y-96915000D03*
X40250000Y-96915000D03*
D41*
X41400000Y-96915000D03*
D40*
X42200000Y-96915000D03*
X42200000Y-96915000D03*
D41*
X41400000Y-96915000D03*
D42*
X40750000Y-96915000D03*
X39750000Y-96915000D03*
X38250000Y-96915000D03*
X37250000Y-96915000D03*
D41*
X36600000Y-96915000D03*
D40*
X35800000Y-96915000D03*
D43*
X34680000Y-97555000D03*
D44*
X34680000Y-101735000D03*
D43*
X43320000Y-97555000D03*
D44*
X43320000Y-101735000D03*
%TD*%
D24*
%TO.C,R41*%
X5900000Y-79825000D03*
X5900000Y-78175000D03*
%TD*%
D27*
%TO.C,R73*%
X25000000Y-100175000D03*
X25000000Y-101825000D03*
%TD*%
D29*
%TO.C,L3*%
X14185000Y-85750000D03*
X11815000Y-85750000D03*
%TD*%
D13*
%TO.C,U6*%
X29760000Y-82000000D03*
D14*
X29475000Y-82000000D03*
D13*
X29760000Y-81500000D03*
D14*
X29475000Y-81500000D03*
D13*
X29760000Y-81000000D03*
D14*
X29475000Y-81000000D03*
D13*
X29760000Y-80500000D03*
D14*
X29475000Y-80500000D03*
D13*
X29760000Y-80000000D03*
D14*
X29475000Y-80000000D03*
X26525000Y-80000000D03*
D13*
X26240000Y-80000000D03*
D14*
X26525000Y-80500000D03*
D13*
X26240000Y-80500000D03*
D14*
X26525000Y-81000000D03*
D13*
X26240000Y-81000000D03*
D14*
X26525000Y-81500000D03*
D13*
X26240000Y-81500000D03*
D14*
X26525000Y-82000000D03*
D13*
X26240000Y-82000000D03*
D15*
X28600000Y-82425000D03*
D16*
X28600000Y-82425000D03*
D15*
X28600000Y-79575000D03*
D16*
X28600000Y-79575000D03*
D17*
X28435000Y-81560000D03*
X28435000Y-80440000D03*
D15*
X28200000Y-82425000D03*
D16*
X28200000Y-82425000D03*
D15*
X28200000Y-79575000D03*
D16*
X28200000Y-79575000D03*
D18*
X28000000Y-81000000D03*
D15*
X27800000Y-82425000D03*
D16*
X27800000Y-82425000D03*
D15*
X27800000Y-79575000D03*
D16*
X27800000Y-79575000D03*
D17*
X27565000Y-81560000D03*
X27565000Y-80440000D03*
D15*
X27400000Y-82425000D03*
D16*
X27400000Y-82425000D03*
D15*
X27400000Y-79575000D03*
D16*
X27400000Y-79575000D03*
%TD*%
D10*
%TO.C,U10*%
X20137500Y-72950000D03*
X20137500Y-72000000D03*
X20137500Y-71050000D03*
X17862500Y-71050000D03*
X17862500Y-72000000D03*
X17862500Y-72950000D03*
%TD*%
D12*
%TO.C,R43*%
X5325000Y-76500000D03*
X3675000Y-76500000D03*
%TD*%
D26*
%TO.C,C28*%
X39500000Y-79775000D03*
X39500000Y-78225000D03*
%TD*%
D35*
%TO.C,C21*%
X46300000Y-84000000D03*
X48200000Y-84000000D03*
%TD*%
%TO.C,C30*%
X31300000Y-81500000D03*
X33200000Y-81500000D03*
%TD*%
D12*
%TO.C,R8*%
X36575000Y-71250000D03*
X34925000Y-71250000D03*
%TD*%
D27*
%TO.C,R65*%
X4750000Y-68175000D03*
X4750000Y-69825000D03*
%TD*%
D35*
%TO.C,C20*%
X46300000Y-81500000D03*
X48200000Y-81500000D03*
%TD*%
D45*
%TO.C,D1*%
X47250000Y-91000000D03*
X47250000Y-95000000D03*
%TD*%
D11*
%TO.C,C8*%
X12250000Y-92800000D03*
X12250000Y-94700000D03*
%TD*%
%TO.C,C23*%
X37400000Y-82550000D03*
X37400000Y-84450000D03*
%TD*%
D46*
%TO.C,J2*%
X38520000Y-60950000D03*
D47*
X42480000Y-60950000D03*
%TD*%
D24*
%TO.C,R31*%
X20900000Y-79825000D03*
X20900000Y-78175000D03*
%TD*%
D28*
%TO.C,H2*%
X92000000Y-4000000D03*
%TD*%
D10*
%TO.C,U14*%
X32137500Y-97950000D03*
X32137500Y-97000000D03*
X32137500Y-96050000D03*
X29862500Y-96050000D03*
X29862500Y-97950000D03*
%TD*%
D34*
%TO.C,C45*%
X12225000Y-77500000D03*
X13775000Y-77500000D03*
%TD*%
D12*
%TO.C,R60*%
X6325000Y-71500000D03*
X4675000Y-71500000D03*
%TD*%
D48*
%TO.C,LED1*%
X17000000Y-96850000D03*
X17000000Y-99650000D03*
%TD*%
D25*
%TO.C,C2*%
X40775000Y-90500000D03*
X39225000Y-90500000D03*
%TD*%
D11*
%TO.C,C33*%
X22400000Y-82550000D03*
X22400000Y-84450000D03*
%TD*%
D30*
%TO.C,C70*%
X28500000Y-92725000D03*
X28500000Y-94275000D03*
%TD*%
D28*
%TO.C,H1*%
X4000000Y-4000000D03*
%TD*%
D49*
%TO.C,U1*%
X24437500Y-97750000D03*
X24437500Y-97250000D03*
X24437500Y-96750000D03*
X24437500Y-96250000D03*
D50*
X23750000Y-95562500D03*
X23250000Y-95562500D03*
X22750000Y-95562500D03*
X22250000Y-95562500D03*
D49*
X21562500Y-96250000D03*
X21562500Y-96750000D03*
X21562500Y-97250000D03*
X21562500Y-97750000D03*
D50*
X22250000Y-98437500D03*
X22750000Y-98437500D03*
X23250000Y-98437500D03*
X23750000Y-98437500D03*
D51*
X23000000Y-97000000D03*
%TD*%
D52*
%TO.C,U12*%
X11962500Y-74200000D03*
X11962500Y-73700000D03*
X11962500Y-73200000D03*
X11962500Y-72700000D03*
X11962500Y-72200000D03*
D53*
X11000000Y-71237500D03*
X10500000Y-71237500D03*
X10000000Y-71237500D03*
X9500000Y-71237500D03*
X9000000Y-71237500D03*
D52*
X8037500Y-72200000D03*
X8037500Y-72700000D03*
X8037500Y-73200000D03*
X8037500Y-73700000D03*
X8037500Y-74200000D03*
D53*
X9000000Y-75162500D03*
X9500000Y-75162500D03*
X10000000Y-75162500D03*
X10500000Y-75162500D03*
X11000000Y-75162500D03*
D54*
X10000000Y-73200000D03*
%TD*%
D27*
%TO.C,R40*%
X7700000Y-78175000D03*
X7700000Y-79825000D03*
%TD*%
%TO.C,R52*%
X28250000Y-66675000D03*
X28250000Y-68325000D03*
%TD*%
D25*
%TO.C,C6*%
X39775000Y-71250000D03*
X38225000Y-71250000D03*
%TD*%
%TO.C,C51*%
X24775000Y-68000000D03*
X23225000Y-68000000D03*
%TD*%
D30*
%TO.C,C1*%
X33500000Y-92725000D03*
X33500000Y-94275000D03*
%TD*%
D12*
%TO.C,R74*%
X17575000Y-101750000D03*
X15925000Y-101750000D03*
%TD*%
D55*
%TO.C,U3*%
X40725000Y-93200000D03*
X40725000Y-92800000D03*
D56*
X40600000Y-92175000D03*
X40200000Y-92175000D03*
X39800000Y-92175000D03*
X39400000Y-92175000D03*
D55*
X39275000Y-92800000D03*
X39275000Y-93200000D03*
D56*
X39400000Y-93825000D03*
X39800000Y-93825000D03*
X40200000Y-93825000D03*
X40600000Y-93825000D03*
%TD*%
D27*
%TO.C,R7*%
X19250000Y-99675000D03*
X19250000Y-101325000D03*
%TD*%
D12*
%TO.C,R3*%
X36825000Y-91250000D03*
X35175000Y-91250000D03*
%TD*%
%TO.C,R71*%
X32325000Y-99750000D03*
X30675000Y-99750000D03*
%TD*%
%TO.C,R50*%
X24825000Y-64500000D03*
X23175000Y-64500000D03*
%TD*%
D30*
%TO.C,C7*%
X17500000Y-93225000D03*
X17500000Y-94775000D03*
%TD*%
D11*
%TO.C,C34*%
X20200000Y-82550000D03*
X20200000Y-84450000D03*
%TD*%
D35*
%TO.C,C31*%
X31300000Y-84000000D03*
X33200000Y-84000000D03*
%TD*%
D12*
%TO.C,R13*%
X19575000Y-89750000D03*
X17925000Y-89750000D03*
%TD*%
%TO.C,R5*%
X22825000Y-92000000D03*
X21175000Y-92000000D03*
%TD*%
D30*
%TO.C,C53*%
X26500000Y-66725000D03*
X26500000Y-68275000D03*
%TD*%
D27*
%TO.C,R30*%
X22700000Y-78175000D03*
X22700000Y-79825000D03*
%TD*%
D57*
%TO.C,J3*%
X11750000Y-59475000D03*
D58*
X14250000Y-59475000D03*
X16750000Y-59475000D03*
X19250000Y-59475000D03*
%TD*%
D34*
%TO.C,C25*%
X42225000Y-77500000D03*
X43775000Y-77500000D03*
%TD*%
D12*
%TO.C,R10*%
X16325000Y-89750000D03*
X14675000Y-89750000D03*
%TD*%
D21*
%TO.C,LED2*%
X27650000Y-90500000D03*
X24850000Y-90500000D03*
%TD*%
M02*
