#VRML V2.0 utf8
# Project-owned nominal model; units 0.1 inch for KiCad.
Shape { appearance Appearance { material Material { diffuseColor 0.025 0.12 0.34 } } geometry IndexedFaceSet { solid FALSE coord Coordinate { point [ 0.544155 -4.724409 0.197952,
0.500000 -4.724409 0.196850,
0.500000 -1.574803 0.196850,
0.544155 -1.574803 0.197952,
0.588200 -4.724409 0.201252,
0.588200 -1.574803 0.201252,
0.632026 -4.724409 0.206744,
0.632026 -1.574803 0.206744,
0.675523 -4.724409 0.214414,
0.675523 -1.574803 0.214414,
0.718584 -4.724409 0.224243,
0.718584 -1.574803 0.224243,
0.761102 -4.724409 0.236205,
0.761102 -1.574803 0.236205,
0.802971 -1.574803 0.250272,
0.802971 -4.724409 0.250272,
0.844086 -4.724409 0.266409,
0.844086 -1.574803 0.266409,
0.884346 -4.724409 0.284575,
0.884346 -1.574803 0.284575,
0.923650 -4.724409 0.304725,
0.923650 -1.574803 0.304725,
0.961901 -1.574803 0.326809,
0.961901 -4.724409 0.326809,
0.999004 -4.724409 0.350773,
0.999004 -1.574803 0.350773,
1.034866 -4.724409 0.376556,
1.034866 -1.574803 0.376556,
1.069398 -4.724409 0.404094,
1.069398 -1.574803 0.404094,
1.102515 -4.724409 0.433320,
1.102515 -1.574803 0.433320,
1.134134 -4.724409 0.464160,
1.134134 -1.574803 0.464160,
1.164176 -4.724409 0.496538,
1.164176 -1.574803 0.496538,
1.192567 -1.574803 0.530373,
1.192567 -4.724409 0.530373,
1.219236 -4.724409 0.565581,
1.219236 -1.574803 0.565581,
1.244117 -4.724409 0.602075,
1.244117 -1.574803 0.602075,
1.267148 -1.574803 0.639764,
1.267148 -4.724409 0.639764,
1.288272 -1.574803 0.678554,
1.288272 -4.724409 0.678554,
1.307436 -4.724409 0.718348,
1.307436 -1.574803 0.718348,
1.324593 -4.724409 0.759048,
1.324593 -1.574803 0.759048,
1.339699 -4.724409 0.800553,
1.339699 -1.574803 0.800553,
1.352718 -4.724409 0.842759,
1.352718 -1.574803 0.842759,
1.363617 -4.724409 0.885562,
1.363617 -1.574803 0.885562,
1.372369 -4.724409 0.928855,
1.372369 -1.574803 0.928855,
1.378952 -4.724409 0.972530,
1.378952 -1.574803 0.972530,
1.383350 -4.724409 1.016479,
1.383350 -1.574803 1.016479,
1.385551 -4.724409 1.060593,
1.385551 -1.574803 1.060593,
1.385551 -4.724409 1.104761,
1.385551 -1.574803 1.104761,
1.383350 -1.574803 1.148875,
1.383350 -4.724409 1.148875,
1.378952 -4.724409 1.192824,
1.378952 -1.574803 1.192824,
1.372369 -4.724409 1.236499,
1.372369 -1.574803 1.236499,
1.363617 -4.724409 1.279792,
1.363617 -1.574803 1.279792,
1.352718 -4.724409 1.322595,
1.352718 -1.574803 1.322595,
1.339699 -4.724409 1.364801,
1.339699 -1.574803 1.364801,
1.324593 -4.724409 1.406306,
1.324593 -1.574803 1.406306,
1.307436 -4.724409 1.447006,
1.307436 -1.574803 1.447006,
1.288272 -4.724409 1.486801,
1.288272 -1.574803 1.486801,
1.267148 -4.724409 1.525591,
1.267148 -1.574803 1.525591,
1.244117 -4.724409 1.563279,
1.244117 -1.574803 1.563279,
1.219236 -4.724409 1.599773,
1.219236 -1.574803 1.599773,
1.192567 -4.724409 1.634981,
1.192567 -1.574803 1.634981,
1.164176 -4.724409 1.668816,
1.164176 -1.574803 1.668816,
1.134134 -4.724409 1.701194,
1.134134 -1.574803 1.701194,
1.102515 -4.724409 1.732034,
1.102515 -1.574803 1.732034,
1.069398 -4.724409 1.761260,
1.069398 -1.574803 1.761260,
1.034866 -4.724409 1.788798,
1.034866 -1.574803 1.788798,
0.999004 -4.724409 1.814582,
0.999004 -1.574803 1.814582,
0.961901 -4.724409 1.838545,
0.961901 -1.574803 1.838545,
0.923650 -1.574803 1.860629,
0.923650 -4.724409 1.860629,
0.884346 -4.724409 1.880780,
0.884346 -1.574803 1.880780,
0.844086 -4.724409 1.898945,
0.844086 -1.574803 1.898945,
0.802971 -4.724409 1.915082,
0.802971 -1.574803 1.915082,
0.761102 -4.724409 1.929149,
0.761102 -1.574803 1.929149,
0.718584 -4.724409 1.941112,
0.718584 -1.574803 1.941112,
0.675523 -4.724409 1.950940,
0.675523 -1.574803 1.950940,
0.632026 -4.724409 1.958610,
0.632026 -1.574803 1.958610,
0.588200 -4.724409 1.964102,
0.588200 -1.574803 1.964102,
0.544155 -4.724409 1.967403,
0.544155 -1.574803 1.967403,
0.500000 -4.724409 1.968504,
0.500000 -1.574803 1.968504,
0.455845 -4.724409 1.967403,
0.455845 -1.574803 1.967403,
0.411800 -4.724409 1.964102,
0.411800 -1.574803 1.964102,
0.367974 -4.724409 1.958610,
0.367974 -1.574803 1.958610,
0.324477 -4.724409 1.950940,
0.324477 -1.574803 1.950940,
0.281416 -4.724409 1.941112,
0.281416 -1.574803 1.941112,
0.238898 -4.724409 1.929149,
0.238898 -1.574803 1.929149,
0.197029 -4.724409 1.915082,
0.197029 -1.574803 1.915082,
0.155914 -4.724409 1.898945,
0.155914 -1.574803 1.898945,
0.115654 -4.724409 1.880780,
0.115654 -1.574803 1.880780,
0.076350 -4.724409 1.860629,
0.076350 -1.574803 1.860629,
0.038099 -4.724409 1.838545,
0.038099 -1.574803 1.838545,
0.000996 -4.724409 1.814582,
0.000996 -1.574803 1.814582,
-0.034866 -4.724409 1.788798,
-0.034866 -1.574803 1.788798,
-0.069398 -4.724409 1.761260,
-0.069398 -1.574803 1.761260,
-0.102515 -4.724409 1.732034,
-0.102515 -1.574803 1.732034,
-0.134134 -4.724409 1.701194,
-0.134134 -1.574803 1.701194,
-0.164176 -4.724409 1.668816,
-0.164176 -1.574803 1.668816,
-0.192567 -4.724409 1.634981,
-0.192567 -1.574803 1.634981,
-0.219236 -4.724409 1.599773,
-0.219236 -1.574803 1.599773,
-0.244117 -4.724409 1.563279,
-0.244117 -1.574803 1.563279,
-0.267148 -4.724409 1.525591,
-0.267148 -1.574803 1.525591,
-0.288272 -4.724409 1.486801,
-0.288272 -1.574803 1.486801,
-0.307436 -4.724409 1.447006,
-0.307436 -1.574803 1.447006,
-0.324593 -4.724409 1.406306,
-0.324593 -1.574803 1.406306,
-0.339699 -4.724409 1.364801,
-0.339699 -1.574803 1.364801,
-0.352718 -4.724409 1.322595,
-0.352718 -1.574803 1.322595,
-0.363617 -4.724409 1.279792,
-0.363617 -1.574803 1.279792,
-0.372369 -4.724409 1.236499,
-0.372369 -1.574803 1.236499,
-0.378952 -4.724409 1.192824,
-0.378952 -1.574803 1.192824,
-0.383350 -4.724409 1.148875,
-0.383350 -1.574803 1.148875,
-0.385551 -4.724409 1.104761,
-0.385551 -1.574803 1.104761,
-0.385551 -4.724409 1.060593,
-0.385551 -1.574803 1.060593,
-0.383350 -4.724409 1.016479,
-0.383350 -1.574803 1.016479,
-0.378952 -4.724409 0.972530,
-0.378952 -1.574803 0.972530,
-0.372369 -4.724409 0.928855,
-0.372369 -1.574803 0.928855,
-0.363617 -4.724409 0.885562,
-0.363617 -1.574803 0.885562,
-0.352718 -4.724409 0.842759,
-0.352718 -1.574803 0.842759,
-0.339699 -4.724409 0.800553,
-0.339699 -1.574803 0.800553,
-0.324593 -4.724409 0.759048,
-0.324593 -1.574803 0.759048,
-0.307436 -4.724409 0.718348,
-0.307436 -1.574803 0.718348,
-0.288272 -4.724409 0.678554,
-0.288272 -1.574803 0.678554,
-0.267148 -4.724409 0.639764,
-0.267148 -1.574803 0.639764,
-0.244117 -4.724409 0.602075,
-0.244117 -1.574803 0.602075,
-0.219236 -4.724409 0.565581,
-0.219236 -1.574803 0.565581,
-0.192567 -4.724409 0.530373,
-0.192567 -1.574803 0.530373,
-0.164176 -4.724409 0.496538,
-0.164176 -1.574803 0.496538,
-0.134134 -4.724409 0.464160,
-0.134134 -1.574803 0.464160,
-0.102515 -4.724409 0.433320,
-0.102515 -1.574803 0.433320,
-0.069398 -4.724409 0.404094,
-0.069398 -1.574803 0.404094,
-0.034866 -4.724409 0.376556,
-0.034866 -1.574803 0.376556,
0.000996 -4.724409 0.350773,
0.000996 -1.574803 0.350773,
0.038099 -4.724409 0.326809,
0.038099 -1.574803 0.326809,
0.076350 -4.724409 0.304725,
0.076350 -1.574803 0.304725,
0.115654 -4.724409 0.284575,
0.115654 -1.574803 0.284575,
0.155914 -4.724409 0.266409,
0.155914 -1.574803 0.266409,
0.197029 -4.724409 0.250272,
0.197029 -1.574803 0.250272,
0.238898 -4.724409 0.236205,
0.238898 -1.574803 0.236205,
0.281416 -4.724409 0.224243,
0.281416 -1.574803 0.224243,
0.324477 -4.724409 0.214414,
0.324477 -1.574803 0.214414,
0.367974 -4.724409 0.206744,
0.367974 -1.574803 0.206744,
0.411800 -4.724409 0.201252,
0.411800 -1.574803 0.201252,
0.455845 -4.724409 0.197952,
0.455845 -1.574803 0.197952 ] } coordIndex [ 0 1 2 -1,
0 2 3 -1,
4 3 5 -1,
4 0 3 -1,
6 5 7 -1,
6 4 5 -1,
8 7 9 -1,
8 6 7 -1,
10 9 11 -1,
10 8 9 -1,
12 11 13 -1,
12 13 14 -1,
12 10 11 -1,
15 12 14 -1,
16 14 17 -1,
16 15 14 -1,
18 17 19 -1,
18 16 17 -1,
20 19 21 -1,
20 21 22 -1,
20 18 19 -1,
23 20 22 -1,
24 23 22 -1,
24 22 25 -1,
26 24 25 -1,
26 25 27 -1,
28 26 27 -1,
28 27 29 -1,
30 28 29 -1,
30 29 31 -1,
32 30 31 -1,
32 31 33 -1,
34 32 33 -1,
34 33 35 -1,
34 35 36 -1,
37 34 36 -1,
38 37 36 -1,
38 36 39 -1,
40 38 39 -1,
40 39 41 -1,
40 41 42 -1,
43 40 42 -1,
43 42 44 -1,
45 43 44 -1,
46 44 47 -1,
46 45 44 -1,
48 47 49 -1,
48 46 47 -1,
50 49 51 -1,
50 48 49 -1,
52 51 53 -1,
52 50 51 -1,
54 53 55 -1,
54 52 53 -1,
56 55 57 -1,
56 54 55 -1,
58 57 59 -1,
58 56 57 -1,
60 59 61 -1,
60 58 59 -1,
62 61 63 -1,
62 60 61 -1,
64 63 65 -1,
64 65 66 -1,
64 62 63 -1,
67 64 66 -1,
68 66 69 -1,
68 67 66 -1,
70 69 71 -1,
70 68 69 -1,
72 71 73 -1,
72 70 71 -1,
74 72 73 -1,
74 73 75 -1,
76 74 75 -1,
76 75 77 -1,
78 76 77 -1,
78 77 79 -1,
80 78 79 -1,
80 79 81 -1,
82 80 81 -1,
82 81 83 -1,
84 82 83 -1,
84 83 85 -1,
86 84 85 -1,
86 85 87 -1,
88 86 87 -1,
88 87 89 -1,
90 88 89 -1,
90 89 91 -1,
92 90 91 -1,
92 91 93 -1,
94 92 93 -1,
94 93 95 -1,
96 94 95 -1,
96 95 97 -1,
98 96 97 -1,
98 97 99 -1,
100 98 99 -1,
100 99 101 -1,
102 100 101 -1,
102 101 103 -1,
104 102 103 -1,
104 103 105 -1,
104 105 106 -1,
107 104 106 -1,
108 107 106 -1,
108 106 109 -1,
110 108 109 -1,
110 109 111 -1,
112 110 111 -1,
112 111 113 -1,
114 112 113 -1,
114 113 115 -1,
116 115 117 -1,
116 114 115 -1,
118 117 119 -1,
118 116 117 -1,
120 119 121 -1,
120 118 119 -1,
122 121 123 -1,
122 120 121 -1,
124 122 123 -1,
124 123 125 -1,
126 124 125 -1,
126 125 127 -1,
128 126 127 -1,
128 127 129 -1,
130 128 129 -1,
130 129 131 -1,
132 130 131 -1,
132 131 133 -1,
134 132 133 -1,
134 133 135 -1,
136 134 135 -1,
136 135 137 -1,
138 136 137 -1,
138 137 139 -1,
140 138 139 -1,
140 139 141 -1,
142 140 141 -1,
142 141 143 -1,
144 142 143 -1,
144 143 145 -1,
146 144 145 -1,
146 145 147 -1,
148 146 147 -1,
148 147 149 -1,
150 149 151 -1,
150 148 149 -1,
152 151 153 -1,
152 150 151 -1,
154 153 155 -1,
154 152 153 -1,
156 155 157 -1,
156 154 155 -1,
158 157 159 -1,
158 156 157 -1,
160 159 161 -1,
160 158 159 -1,
162 161 163 -1,
162 160 161 -1,
164 163 165 -1,
164 162 163 -1,
166 165 167 -1,
166 164 165 -1,
168 167 169 -1,
168 166 167 -1,
170 169 171 -1,
170 168 169 -1,
172 171 173 -1,
172 170 171 -1,
174 173 175 -1,
174 172 173 -1,
176 174 175 -1,
176 175 177 -1,
178 176 177 -1,
178 177 179 -1,
180 178 179 -1,
180 179 181 -1,
182 180 181 -1,
182 181 183 -1,
184 183 185 -1,
184 182 183 -1,
186 185 187 -1,
186 184 185 -1,
188 187 189 -1,
188 186 187 -1,
190 189 191 -1,
190 188 189 -1,
192 191 193 -1,
192 190 191 -1,
194 193 195 -1,
194 192 193 -1,
196 195 197 -1,
196 194 195 -1,
198 197 199 -1,
198 196 197 -1,
200 199 201 -1,
200 198 199 -1,
202 201 203 -1,
202 200 201 -1,
204 203 205 -1,
204 202 203 -1,
206 205 207 -1,
206 204 205 -1,
208 207 209 -1,
208 206 207 -1,
210 209 211 -1,
210 208 209 -1,
212 211 213 -1,
212 210 211 -1,
214 213 215 -1,
214 212 213 -1,
216 215 217 -1,
216 214 215 -1,
218 217 219 -1,
218 216 217 -1,
220 219 221 -1,
220 218 219 -1,
222 221 223 -1,
222 220 221 -1,
224 222 223 -1,
224 223 225 -1,
226 224 225 -1,
226 225 227 -1,
228 226 227 -1,
228 227 229 -1,
230 228 229 -1,
230 229 231 -1,
232 230 231 -1,
232 231 233 -1,
234 232 233 -1,
234 233 235 -1,
236 234 235 -1,
236 235 237 -1,
238 236 237 -1,
238 237 239 -1,
240 238 239 -1,
240 239 241 -1,
242 240 241 -1,
242 241 243 -1,
244 242 243 -1,
244 243 245 -1,
246 244 245 -1,
246 245 247 -1,
248 246 247 -1,
248 247 249 -1,
250 249 251 -1,
250 248 249 -1,
1 251 2 -1,
1 250 251 -1,
146 148 150 -1,
142 144 146 -1,
174 170 172 -1,
138 146 150 -1,
138 142 146 -1,
138 140 142 -1,
138 150 152 -1,
138 152 154 -1,
130 138 154 -1,
130 132 134 -1,
130 134 136 -1,
130 136 138 -1,
130 154 156 -1,
130 156 158 -1,
130 158 160 -1,
130 160 162 -1,
188 184 186 -1,
120 122 124 -1,
198 194 196 -1,
114 120 124 -1,
114 116 118 -1,
114 118 120 -1,
114 124 126 -1,
114 126 128 -1,
114 128 130 -1,
114 130 162 -1,
202 194 198 -1,
202 192 194 -1,
202 198 200 -1,
206 202 204 -1,
108 110 112 -1,
104 108 112 -1,
104 107 108 -1,
104 112 114 -1,
104 162 164 -1,
104 164 166 -1,
104 114 162 -1,
212 206 208 -1,
212 208 210 -1,
212 192 202 -1,
212 202 206 -1,
212 190 192 -1,
214 190 212 -1,
98 100 102 -1,
218 214 216 -1,
218 178 180 -1,
218 184 188 -1,
218 180 182 -1,
218 182 184 -1,
218 188 190 -1,
218 190 214 -1,
96 98 102 -1,
222 218 220 -1,
222 178 218 -1,
92 94 96 -1,
92 96 102 -1,
224 178 222 -1,
224 174 176 -1,
224 176 178 -1,
88 90 92 -1,
88 92 102 -1,
228 224 226 -1,
86 102 104 -1,
86 88 102 -1,
230 224 228 -1,
234 230 232 -1,
234 224 230 -1,
236 224 234 -1,
76 78 80 -1,
76 80 82 -1,
76 82 84 -1,
74 76 84 -1,
242 236 238 -1,
242 238 240 -1,
244 236 242 -1,
68 104 166 -1,
68 70 72 -1,
68 72 74 -1,
68 84 86 -1,
68 170 174 -1,
68 86 104 -1,
68 166 168 -1,
68 168 170 -1,
68 74 84 -1,
250 244 246 -1,
250 246 248 -1,
1 244 250 -1,
1 67 68 -1,
1 174 224 -1,
1 68 174 -1,
1 224 236 -1,
1 236 244 -1,
60 62 64 -1,
60 64 67 -1,
6 0 4 -1,
56 58 60 -1,
52 54 56 -1,
52 56 60 -1,
50 52 60 -1,
15 10 12 -1,
16 6 8 -1,
16 8 10 -1,
16 0 6 -1,
16 10 15 -1,
46 48 50 -1,
46 50 60 -1,
20 16 18 -1,
43 45 46 -1,
23 16 20 -1,
24 16 23 -1,
38 40 43 -1,
38 43 46 -1,
38 46 60 -1,
37 38 60 -1,
30 24 26 -1,
30 26 28 -1,
32 1 0 -1,
32 67 1 -1,
32 34 37 -1,
32 60 67 -1,
32 0 16 -1,
32 16 24 -1,
32 37 60 -1,
32 24 30 -1,
149 147 151 -1,
145 143 147 -1,
171 175 173 -1,
147 139 151 -1,
143 139 147 -1,
141 139 143 -1,
151 139 153 -1,
153 139 155 -1,
139 131 155 -1,
133 131 135 -1,
135 131 137 -1,
137 131 139 -1,
155 131 157 -1,
157 131 159 -1,
159 131 161 -1,
161 131 163 -1,
185 189 187 -1,
123 121 125 -1,
195 199 197 -1,
121 115 125 -1,
117 115 119 -1,
119 115 121 -1,
125 115 127 -1,
127 115 129 -1,
129 115 131 -1,
131 115 163 -1,
195 203 199 -1,
193 203 195 -1,
199 203 201 -1,
203 207 205 -1,
111 109 113 -1,
109 105 113 -1,
106 105 109 -1,
113 105 115 -1,
163 105 165 -1,
165 105 167 -1,
115 105 163 -1,
207 213 209 -1,
209 213 211 -1,
193 213 203 -1,
203 213 207 -1,
191 213 193 -1,
191 215 213 -1,
101 99 103 -1,
215 219 217 -1,
179 219 181 -1,
185 219 189 -1,
181 219 183 -1,
183 219 185 -1,
189 219 191 -1,
191 219 215 -1,
99 97 103 -1,
219 223 221 -1,
179 223 219 -1,
95 93 97 -1,
97 93 103 -1,
179 225 223 -1,
175 225 177 -1,
177 225 179 -1,
91 89 93 -1,
93 89 103 -1,
225 229 227 -1,
103 87 105 -1,
89 87 103 -1,
225 231 229 -1,
231 235 233 -1,
225 235 231 -1,
225 237 235 -1,
79 77 81 -1,
81 77 83 -1,
83 77 85 -1,
77 75 85 -1,
237 243 239 -1,
239 243 241 -1,
237 245 243 -1,
105 69 167 -1,
71 69 73 -1,
73 69 75 -1,
85 69 87 -1,
171 69 175 -1,
87 69 105 -1,
167 69 169 -1,
169 69 171 -1,
75 69 85 -1,
245 251 247 -1,
247 251 249 -1,
245 2 251 -1,
66 2 69 -1,
175 2 225 -1,
69 2 175 -1,
225 2 237 -1,
237 2 245 -1,
63 61 65 -1,
65 61 66 -1,
3 7 5 -1,
59 57 61 -1,
55 53 57 -1,
57 53 61 -1,
53 51 61 -1,
11 14 13 -1,
7 17 9 -1,
9 17 11 -1,
3 17 7 -1,
11 17 14 -1,
49 47 51 -1,
51 47 61 -1,
17 21 19 -1,
44 42 47 -1,
17 22 21 -1,
17 25 22 -1,
41 39 42 -1,
42 39 47 -1,
47 39 61 -1,
39 36 61 -1,
25 31 27 -1,
27 31 29 -1,
2 33 3 -1,
66 33 2 -1,
35 33 36 -1,
61 33 66 -1,
3 33 17 -1,
17 33 25 -1,
36 33 61 -1,
25 33 31 -1 ] } }
Shape { appearance Appearance { material Material { diffuseColor 0.87 0.89 0.88 } } geometry IndexedFaceSet { solid FALSE coord Coordinate { point [ 1.197787 -4.685039 0.527448,
1.169291 -4.685039 0.493410,
1.169291 -1.574803 0.493410,
1.197787 -1.574803 0.527448,
1.224554 -4.685039 0.562862,
1.224554 -1.574803 0.562862,
1.249525 -4.685039 0.599564,
1.249525 -1.574803 0.599564,
1.272639 -4.685039 0.637463,
1.272639 -1.574803 0.637463,
1.293838 -4.685039 0.676465,
1.293838 -1.574803 0.676465,
1.313070 -4.685039 0.716475,
1.313070 -1.574803 0.716475,
1.330286 -4.685039 0.757391,
1.330286 -1.574803 0.757391,
1.345446 -4.685039 0.799114,
1.345446 -1.574803 0.799114,
1.358510 -4.685039 0.841539,
1.358510 -1.574803 0.841539,
1.369446 -4.685039 0.884563,
1.369446 -1.574803 0.884563,
1.378228 -4.685039 0.928077,
1.378228 -1.574803 0.928077,
1.384834 -4.685039 0.971974,
1.384834 -1.574803 0.971974,
1.389247 -4.685039 1.016145,
1.389247 -1.574803 1.016145,
1.391456 -1.574803 1.060481,
1.391456 -4.685039 1.060481,
1.391456 -1.574803 1.104873,
1.391456 -4.685039 1.104873,
1.389247 -1.574803 1.149209,
1.389247 -4.685039 1.149209,
1.384834 -1.574803 1.193381,
1.384834 -4.685039 1.193381,
1.378228 -1.574803 1.237278,
1.378228 -4.685039 1.237278,
1.369446 -1.574803 1.280792,
1.369446 -4.685039 1.280792,
1.358510 -1.574803 1.323815,
1.358510 -4.685039 1.323815,
1.345446 -1.574803 1.366240,
1.345446 -4.685039 1.366240,
1.330286 -1.574803 1.407963,
1.330286 -4.685039 1.407963,
1.313070 -1.574803 1.448880,
1.313070 -4.685039 1.448880,
1.293838 -1.574803 1.488889,
1.293838 -4.685039 1.488889,
1.272639 -1.574803 1.527891,
1.272639 -4.685039 1.527891,
1.249525 -1.574803 1.565791,
1.249525 -4.685039 1.565791,
1.224554 -1.574803 1.602493,
1.224554 -4.685039 1.602493,
1.197787 -1.574803 1.637906,
1.197787 -4.685039 1.637906,
1.169291 -1.574803 1.671944,
1.169291 -4.685039 1.671944 ] } coordIndex [ 0 1 2 -1,
0 2 3 -1,
4 3 5 -1,
4 0 3 -1,
6 5 7 -1,
6 4 5 -1,
8 7 9 -1,
8 6 7 -1,
10 9 11 -1,
10 8 9 -1,
12 11 13 -1,
12 10 11 -1,
14 13 15 -1,
14 12 13 -1,
16 15 17 -1,
16 14 15 -1,
18 16 17 -1,
18 17 19 -1,
20 18 19 -1,
20 19 21 -1,
22 20 21 -1,
22 21 23 -1,
24 22 23 -1,
24 23 25 -1,
26 24 25 -1,
26 25 27 -1,
26 27 28 -1,
29 26 28 -1,
29 28 30 -1,
31 29 30 -1,
31 30 32 -1,
33 31 32 -1,
33 32 34 -1,
35 33 34 -1,
35 34 36 -1,
37 35 36 -1,
37 36 38 -1,
39 37 38 -1,
39 38 40 -1,
41 39 40 -1,
41 40 42 -1,
43 41 42 -1,
43 42 44 -1,
45 43 44 -1,
45 44 46 -1,
47 46 48 -1,
47 45 46 -1,
49 48 50 -1,
49 47 48 -1,
51 50 52 -1,
51 49 50 -1,
53 52 54 -1,
53 51 52 -1,
55 54 56 -1,
55 53 54 -1,
57 56 58 -1,
57 55 56 -1,
59 57 58 -1,
47 49 51 -1,
47 51 53 -1,
39 41 43 -1,
39 43 45 -1,
31 33 35 -1,
31 35 37 -1,
31 37 39 -1,
31 45 47 -1,
31 39 45 -1,
24 26 29 -1,
24 29 31 -1,
18 20 22 -1,
18 22 24 -1,
16 18 24 -1,
10 12 14 -1,
10 14 16 -1,
10 53 55 -1,
10 55 57 -1,
10 47 53 -1,
10 31 47 -1,
10 24 31 -1,
10 16 24 -1,
8 57 59 -1,
8 10 57 -1,
4 6 8 -1,
0 4 8 -1,
1 8 59 -1,
1 0 8 -1,
2 59 58 -1,
1 59 2 -1,
56 54 58 -1,
54 52 58 -1,
52 50 58 -1,
50 48 58 -1,
48 46 58 -1,
46 44 58 -1,
42 40 44 -1,
44 40 58 -1,
40 38 58 -1,
34 32 36 -1,
36 32 38 -1,
38 32 58 -1,
30 28 32 -1,
32 28 58 -1,
27 25 28 -1,
21 19 23 -1,
17 15 19 -1,
13 11 15 -1,
3 2 5 -1,
5 2 7 -1,
7 2 9 -1,
9 2 11 -1,
23 2 25 -1,
25 2 28 -1,
28 2 58 -1,
19 2 23 -1,
15 2 19 -1,
11 2 15 -1 ] } }
Shape { appearance Appearance { material Material { diffuseColor 0.32 0.32 0.32 } } geometry IndexedFaceSet { solid FALSE coord Coordinate { point [ 0.106299 -3.937008 0.000000,
0.106299 -3.937008 0.196850,
0.106299 -1.968504 0.000000,
0.106299 -1.968504 0.196850,
0.893701 -3.937008 0.196850,
0.893701 -3.937008 0.000000,
0.893701 -1.968504 0.000000,
0.893701 -1.968504 0.196850 ] } coordIndex [ 0 1 2 -1,
2 1 3 -1,
4 5 6 -1,
4 6 7 -1,
5 4 0 -1,
0 4 1 -1,
7 6 2 -1,
7 2 3 -1,
2 6 0 -1,
0 6 5 -1,
7 3 1 -1,
7 1 4 -1 ] } }
Shape { appearance Appearance { material Material { diffuseColor 0.7 0.72 0.74 } } geometry IndexedFaceSet { solid FALSE coord Coordinate { point [ 0.088473 0.004415 1.082677,
0.088583 -0.000000 1.082677,
0.088583 -0.000000 -0.984252,
0.088473 0.004415 -0.984252,
0.088142 0.008820 1.082677,
0.088142 0.008820 -0.984252,
0.087593 0.013203 1.082677,
0.087593 0.013203 -0.984252,
0.086826 0.017552 1.082677,
0.086826 0.017552 -0.984252,
0.085843 0.021858 1.082677,
0.085843 0.021858 -0.984252,
0.084647 0.026110 -0.984252,
0.084647 0.026110 1.082677,
0.083240 0.030297 1.082677,
0.083240 0.030297 -0.984252,
0.081627 0.034409 -0.984252,
0.081627 0.034409 1.082677,
0.079810 0.038435 1.082677,
0.079810 0.038435 -0.984252,
0.077795 0.042365 1.082677,
0.077795 0.042365 -0.984252,
0.075587 0.046190 -0.984252,
0.075587 0.046190 1.082677,
0.073190 0.049900 1.082677,
0.073190 0.049900 -0.984252,
0.070612 0.053487 1.082677,
0.070612 0.053487 -0.984252,
0.067858 0.056940 1.082677,
0.067858 0.056940 -0.984252,
0.064936 0.060252 1.082677,
0.064936 0.060252 -0.984252,
0.061852 0.063413 1.082677,
0.061852 0.063413 -0.984252,
0.058614 0.066418 1.082677,
0.058614 0.066418 -0.984252,
0.055230 0.069257 1.082677,
0.055230 0.069257 -0.984252,
0.051710 0.071924 1.082677,
0.051710 0.071924 -0.984252,
0.048060 0.074412 1.082677,
0.048060 0.074412 -0.984252,
0.044291 0.076715 1.082677,
0.044291 0.076715 -0.984252,
0.040412 0.078827 1.082677,
0.040412 0.078827 -0.984252,
0.036433 0.080744 1.082677,
0.036433 0.080744 -0.984252,
0.032363 0.082459 -0.984252,
0.032363 0.082459 1.082677,
0.028212 0.083970 1.082677,
0.028212 0.083970 -0.984252,
0.023992 0.085272 1.082677,
0.023992 0.085272 -0.984252,
0.019712 0.086362 1.082677,
0.019712 0.086362 -0.984252,
0.015382 0.087237 1.082677,
0.015382 0.087237 -0.984252,
0.011015 0.087895 1.082677,
0.011015 0.087895 -0.984252,
0.006620 0.088335 1.082677,
0.006620 0.088335 -0.984252,
0.002208 0.088555 1.082677,
0.002208 0.088555 -0.984252,
-0.002208 0.088555 1.082677,
-0.002208 0.088555 -0.984252,
-0.006620 0.088335 1.082677,
-0.006620 0.088335 -0.984252,
-0.011015 0.087895 1.082677,
-0.011015 0.087895 -0.984252,
-0.015382 0.087237 1.082677,
-0.015382 0.087237 -0.984252,
-0.019712 0.086362 1.082677,
-0.019712 0.086362 -0.984252,
-0.023992 0.085272 -0.984252,
-0.023992 0.085272 1.082677,
-0.028212 0.083970 1.082677,
-0.028212 0.083970 -0.984252,
-0.032363 0.082459 1.082677,
-0.032363 0.082459 -0.984252,
-0.036433 0.080744 1.082677,
-0.036433 0.080744 -0.984252,
-0.040412 0.078827 -0.984252,
-0.040412 0.078827 1.082677,
-0.044291 0.076715 -0.984252,
-0.044291 0.076715 1.082677,
-0.048060 0.074412 1.082677,
-0.048060 0.074412 -0.984252,
-0.051710 0.071924 1.082677,
-0.051710 0.071924 -0.984252,
-0.055230 0.069257 1.082677,
-0.055230 0.069257 -0.984252,
-0.058614 0.066418 1.082677,
-0.058614 0.066418 -0.984252,
-0.061852 0.063413 1.082677,
-0.061852 0.063413 -0.984252,
-0.064936 0.060252 1.082677,
-0.064936 0.060252 -0.984252,
-0.067858 0.056940 1.082677,
-0.067858 0.056940 -0.984252,
-0.070612 0.053487 1.082677,
-0.070612 0.053487 -0.984252,
-0.073190 0.049900 1.082677,
-0.073190 0.049900 -0.984252,
-0.075587 0.046190 1.082677,
-0.075587 0.046190 -0.984252,
-0.077795 0.042365 1.082677,
-0.077795 0.042365 -0.984252,
-0.079810 0.038435 1.082677,
-0.079810 0.038435 -0.984252,
-0.081627 0.034409 -0.984252,
-0.081627 0.034409 1.082677,
-0.083240 0.030297 1.082677,
-0.083240 0.030297 -0.984252,
-0.084647 0.026110 1.082677,
-0.084647 0.026110 -0.984252,
-0.085843 0.021858 -0.984252,
-0.085843 0.021858 1.082677,
-0.086826 0.017552 1.082677,
-0.086826 0.017552 -0.984252,
-0.087593 0.013203 1.082677,
-0.087593 0.013203 -0.984252,
-0.088142 0.008820 -0.984252,
-0.088142 0.008820 1.082677,
-0.088473 0.004415 1.082677,
-0.088473 0.004415 -0.984252,
-0.088583 -0.000000 1.082677,
-0.088583 -0.000000 -0.984252,
-0.088473 -0.004415 1.082677,
-0.088473 -0.004415 -0.984252,
-0.088142 -0.008820 1.082677,
-0.088142 -0.008820 -0.984252,
-0.087593 -0.013203 1.082677,
-0.087593 -0.013203 -0.984252,
-0.086826 -0.017552 1.082677,
-0.086826 -0.017552 -0.984252,
-0.085843 -0.021858 1.082677,
-0.085843 -0.021858 -0.984252,
-0.084647 -0.026110 1.082677,
-0.084647 -0.026110 -0.984252,
-0.083240 -0.030297 1.082677,
-0.083240 -0.030297 -0.984252,
-0.081627 -0.034409 1.082677,
-0.081627 -0.034409 -0.984252,
-0.079810 -0.038435 1.082677,
-0.079810 -0.038435 -0.984252,
-0.077795 -0.042365 1.082677,
-0.077795 -0.042365 -0.984252,
-0.075587 -0.046190 1.082677,
-0.075587 -0.046190 -0.984252,
-0.073190 -0.049900 1.082677,
-0.073190 -0.049900 -0.984252,
-0.070612 -0.053487 1.082677,
-0.070612 -0.053487 -0.984252,
-0.067858 -0.056940 1.082677,
-0.067858 -0.056940 -0.984252,
-0.064936 -0.060252 1.082677,
-0.064936 -0.060252 -0.984252,
-0.061852 -0.063413 1.082677,
-0.061852 -0.063413 -0.984252,
-0.058614 -0.066418 1.082677,
-0.058614 -0.066418 -0.984252,
-0.055230 -0.069257 1.082677,
-0.055230 -0.069257 -0.984252,
-0.051710 -0.071924 1.082677,
-0.051710 -0.071924 -0.984252,
-0.048060 -0.074412 -0.984252,
-0.048060 -0.074412 1.082677,
-0.044291 -0.076715 1.082677,
-0.044291 -0.076715 -0.984252,
-0.040412 -0.078827 1.082677,
-0.040412 -0.078827 -0.984252,
-0.036433 -0.080744 1.082677,
-0.036433 -0.080744 -0.984252,
-0.032363 -0.082459 1.082677,
-0.032363 -0.082459 -0.984252,
-0.028212 -0.083970 1.082677,
-0.028212 -0.083970 -0.984252,
-0.023992 -0.085272 1.082677,
-0.023992 -0.085272 -0.984252,
-0.019712 -0.086362 1.082677,
-0.019712 -0.086362 -0.984252,
-0.015382 -0.087237 1.082677,
-0.015382 -0.087237 -0.984252,
-0.011015 -0.087895 1.082677,
-0.011015 -0.087895 -0.984252,
-0.006620 -0.088335 1.082677,
-0.006620 -0.088335 -0.984252,
-0.002208 -0.088555 1.082677,
-0.002208 -0.088555 -0.984252,
0.002208 -0.088555 1.082677,
0.002208 -0.088555 -0.984252,
0.006620 -0.088335 1.082677,
0.006620 -0.088335 -0.984252,
0.011015 -0.087895 1.082677,
0.011015 -0.087895 -0.984252,
0.015382 -0.087237 1.082677,
0.015382 -0.087237 -0.984252,
0.019712 -0.086362 1.082677,
0.019712 -0.086362 -0.984252,
0.023992 -0.085272 1.082677,
0.023992 -0.085272 -0.984252,
0.028212 -0.083970 1.082677,
0.028212 -0.083970 -0.984252,
0.032363 -0.082459 1.082677,
0.032363 -0.082459 -0.984252,
0.036433 -0.080744 1.082677,
0.036433 -0.080744 -0.984252,
0.040412 -0.078827 1.082677,
0.040412 -0.078827 -0.984252,
0.044291 -0.076715 1.082677,
0.044291 -0.076715 -0.984252,
0.048060 -0.074412 1.082677,
0.048060 -0.074412 -0.984252,
0.051710 -0.071924 1.082677,
0.051710 -0.071924 -0.984252,
0.055230 -0.069257 1.082677,
0.055230 -0.069257 -0.984252,
0.058614 -0.066418 1.082677,
0.058614 -0.066418 -0.984252,
0.061852 -0.063413 1.082677,
0.061852 -0.063413 -0.984252,
0.064936 -0.060252 1.082677,
0.064936 -0.060252 -0.984252,
0.067858 -0.056940 1.082677,
0.067858 -0.056940 -0.984252,
0.070612 -0.053487 1.082677,
0.070612 -0.053487 -0.984252,
0.073190 -0.049900 1.082677,
0.073190 -0.049900 -0.984252,
0.075587 -0.046190 1.082677,
0.075587 -0.046190 -0.984252,
0.077795 -0.042365 1.082677,
0.077795 -0.042365 -0.984252,
0.079810 -0.038435 1.082677,
0.079810 -0.038435 -0.984252,
0.081627 -0.034409 1.082677,
0.081627 -0.034409 -0.984252,
0.083240 -0.030297 1.082677,
0.083240 -0.030297 -0.984252,
0.084647 -0.026110 1.082677,
0.084647 -0.026110 -0.984252,
0.085843 -0.021858 1.082677,
0.085843 -0.021858 -0.984252,
0.086826 -0.017552 1.082677,
0.086826 -0.017552 -0.984252,
0.087593 -0.013203 1.082677,
0.087593 -0.013203 -0.984252,
0.088142 -0.008820 1.082677,
0.088142 -0.008820 -0.984252,
0.088473 -0.004415 1.082677,
0.088473 -0.004415 -0.984252 ] } coordIndex [ 0 1 2 -1,
0 2 3 -1,
4 3 5 -1,
4 0 3 -1,
6 5 7 -1,
6 4 5 -1,
8 7 9 -1,
8 6 7 -1,
10 9 11 -1,
10 11 12 -1,
10 8 9 -1,
13 10 12 -1,
14 12 15 -1,
14 15 16 -1,
14 13 12 -1,
17 14 16 -1,
18 16 19 -1,
18 17 16 -1,
20 19 21 -1,
20 21 22 -1,
20 18 19 -1,
23 20 22 -1,
24 23 22 -1,
24 22 25 -1,
26 24 25 -1,
26 25 27 -1,
28 26 27 -1,
28 27 29 -1,
30 28 29 -1,
30 29 31 -1,
32 30 31 -1,
32 31 33 -1,
34 32 33 -1,
34 33 35 -1,
36 34 35 -1,
36 35 37 -1,
38 36 37 -1,
38 37 39 -1,
40 38 39 -1,
40 39 41 -1,
42 40 41 -1,
42 41 43 -1,
44 42 43 -1,
44 43 45 -1,
46 45 47 -1,
46 44 45 -1,
46 47 48 -1,
49 46 48 -1,
50 48 51 -1,
50 49 48 -1,
52 51 53 -1,
52 50 51 -1,
54 53 55 -1,
54 52 53 -1,
56 55 57 -1,
56 54 55 -1,
58 57 59 -1,
58 56 57 -1,
60 59 61 -1,
60 58 59 -1,
62 61 63 -1,
62 60 61 -1,
64 63 65 -1,
64 62 63 -1,
66 65 67 -1,
66 64 65 -1,
68 67 69 -1,
68 66 67 -1,
70 69 71 -1,
70 68 69 -1,
72 71 73 -1,
72 73 74 -1,
72 70 71 -1,
75 72 74 -1,
76 75 74 -1,
76 74 77 -1,
78 76 77 -1,
78 77 79 -1,
80 78 79 -1,
80 79 81 -1,
80 81 82 -1,
83 80 82 -1,
83 82 84 -1,
85 83 84 -1,
86 85 84 -1,
86 84 87 -1,
88 86 87 -1,
88 87 89 -1,
90 88 89 -1,
90 89 91 -1,
92 90 91 -1,
92 91 93 -1,
94 92 93 -1,
94 93 95 -1,
96 94 95 -1,
96 95 97 -1,
98 96 97 -1,
98 97 99 -1,
100 98 99 -1,
100 99 101 -1,
102 100 101 -1,
102 101 103 -1,
104 102 103 -1,
104 103 105 -1,
106 104 105 -1,
106 105 107 -1,
108 106 107 -1,
108 107 109 -1,
108 109 110 -1,
111 108 110 -1,
112 111 110 -1,
112 110 113 -1,
114 112 113 -1,
114 113 115 -1,
114 115 116 -1,
117 114 116 -1,
118 116 119 -1,
118 117 116 -1,
120 119 121 -1,
120 121 122 -1,
120 118 119 -1,
123 120 122 -1,
124 123 122 -1,
124 122 125 -1,
126 124 125 -1,
126 125 127 -1,
128 126 127 -1,
128 127 129 -1,
130 128 129 -1,
130 129 131 -1,
132 130 131 -1,
132 131 133 -1,
134 132 133 -1,
134 133 135 -1,
136 134 135 -1,
136 135 137 -1,
138 136 137 -1,
138 137 139 -1,
140 138 139 -1,
140 139 141 -1,
142 140 141 -1,
142 141 143 -1,
144 142 143 -1,
144 143 145 -1,
146 144 145 -1,
146 145 147 -1,
148 146 147 -1,
148 147 149 -1,
150 149 151 -1,
150 148 149 -1,
152 151 153 -1,
152 150 151 -1,
154 153 155 -1,
154 152 153 -1,
156 155 157 -1,
156 154 155 -1,
158 157 159 -1,
158 156 157 -1,
160 159 161 -1,
160 158 159 -1,
162 161 163 -1,
162 160 161 -1,
164 163 165 -1,
164 165 166 -1,
164 162 163 -1,
167 164 166 -1,
168 166 169 -1,
168 167 166 -1,
170 169 171 -1,
170 168 169 -1,
172 171 173 -1,
172 170 171 -1,
174 173 175 -1,
174 172 173 -1,
176 174 175 -1,
176 175 177 -1,
178 176 177 -1,
178 177 179 -1,
180 178 179 -1,
180 179 181 -1,
182 180 181 -1,
182 181 183 -1,
184 183 185 -1,
184 182 183 -1,
186 185 187 -1,
186 184 185 -1,
188 187 189 -1,
188 186 187 -1,
190 189 191 -1,
190 188 189 -1,
192 191 193 -1,
192 190 191 -1,
194 193 195 -1,
194 192 193 -1,
196 195 197 -1,
196 194 195 -1,
198 197 199 -1,
198 196 197 -1,
200 199 201 -1,
200 198 199 -1,
202 201 203 -1,
202 200 201 -1,
204 203 205 -1,
204 202 203 -1,
206 205 207 -1,
206 204 205 -1,
208 207 209 -1,
208 206 207 -1,
210 209 211 -1,
210 208 209 -1,
212 211 213 -1,
212 210 211 -1,
214 213 215 -1,
214 212 213 -1,
216 215 217 -1,
216 214 215 -1,
218 217 219 -1,
218 216 217 -1,
220 219 221 -1,
220 218 219 -1,
222 221 223 -1,
222 220 221 -1,
224 222 223 -1,
224 223 225 -1,
226 224 225 -1,
226 225 227 -1,
228 226 227 -1,
228 227 229 -1,
230 228 229 -1,
230 229 231 -1,
232 230 231 -1,
232 231 233 -1,
234 232 233 -1,
234 233 235 -1,
236 234 235 -1,
236 235 237 -1,
238 236 237 -1,
238 237 239 -1,
240 238 239 -1,
240 239 241 -1,
242 240 241 -1,
242 241 243 -1,
244 242 243 -1,
244 243 245 -1,
246 244 245 -1,
246 245 247 -1,
248 246 247 -1,
248 247 249 -1,
250 249 251 -1,
250 248 249 -1,
1 251 2 -1,
1 250 251 -1,
206 200 202 -1,
206 202 204 -1,
104 106 108 -1,
96 98 100 -1,
222 218 220 -1,
90 92 94 -1,
88 90 94 -1,
228 216 218 -1,
228 222 224 -1,
228 224 226 -1,
228 218 222 -1,
232 228 230 -1,
80 83 85 -1,
236 232 234 -1,
75 76 78 -1,
244 240 242 -1,
1 244 246 -1,
1 246 248 -1,
1 248 250 -1,
4 1 0 -1,
10 6 8 -1,
14 10 13 -1,
17 10 14 -1,
46 49 50 -1,
46 50 52 -1,
46 52 54 -1,
20 17 18 -1,
40 42 44 -1,
40 44 46 -1,
24 20 23 -1,
38 40 46 -1,
28 24 26 -1,
28 20 24 -1,
34 36 38 -1,
32 4 6 -1,
32 206 208 -1,
32 20 28 -1,
32 208 210 -1,
32 34 38 -1,
32 210 212 -1,
32 212 214 -1,
32 17 20 -1,
32 214 216 -1,
32 46 54 -1,
32 28 30 -1,
32 236 238 -1,
32 238 240 -1,
32 200 206 -1,
32 38 46 -1,
32 54 56 -1,
32 56 58 -1,
32 58 60 -1,
32 60 62 -1,
32 62 64 -1,
32 64 66 -1,
32 66 68 -1,
32 6 10 -1,
32 68 70 -1,
32 70 72 -1,
32 72 75 -1,
32 78 80 -1,
32 85 86 -1,
32 244 1 -1,
32 86 88 -1,
32 94 96 -1,
32 100 102 -1,
32 102 104 -1,
32 104 108 -1,
32 108 111 -1,
32 111 112 -1,
32 112 114 -1,
32 114 117 -1,
32 117 118 -1,
32 118 120 -1,
32 120 123 -1,
32 96 100 -1,
32 123 124 -1,
32 124 126 -1,
32 126 128 -1,
32 128 130 -1,
32 232 236 -1,
32 130 132 -1,
32 132 134 -1,
32 134 136 -1,
32 136 138 -1,
32 138 140 -1,
32 140 142 -1,
32 142 144 -1,
32 144 146 -1,
32 146 148 -1,
32 148 150 -1,
32 150 152 -1,
32 152 154 -1,
32 154 156 -1,
32 156 158 -1,
32 158 160 -1,
32 80 85 -1,
32 160 162 -1,
32 162 164 -1,
32 164 167 -1,
32 167 168 -1,
32 168 170 -1,
32 1 4 -1,
32 170 172 -1,
32 10 17 -1,
32 216 228 -1,
32 172 174 -1,
32 174 176 -1,
32 176 178 -1,
32 88 94 -1,
32 178 180 -1,
32 180 182 -1,
32 75 78 -1,
32 182 184 -1,
32 184 186 -1,
32 186 188 -1,
32 188 190 -1,
32 240 244 -1,
32 190 192 -1,
32 192 194 -1,
32 228 232 -1,
32 194 196 -1,
32 196 198 -1,
32 198 200 -1,
201 207 203 -1,
203 207 205 -1,
107 105 109 -1,
99 97 101 -1,
219 223 221 -1,
93 91 95 -1,
91 89 95 -1,
217 229 219 -1,
223 229 225 -1,
225 229 227 -1,
219 229 223 -1,
229 233 231 -1,
82 81 84 -1,
233 237 235 -1,
77 74 79 -1,
241 245 243 -1,
245 2 247 -1,
247 2 249 -1,
249 2 251 -1,
2 5 3 -1,
7 11 9 -1,
11 15 12 -1,
11 16 15 -1,
48 47 51 -1,
51 47 53 -1,
53 47 55 -1,
16 21 19 -1,
43 41 45 -1,
45 41 47 -1,
21 25 22 -1,
41 39 47 -1,
25 29 27 -1,
21 29 25 -1,
37 35 39 -1,
5 33 7 -1,
207 33 209 -1,
21 33 29 -1,
209 33 211 -1,
35 33 39 -1,
211 33 213 -1,
213 33 215 -1,
16 33 21 -1,
215 33 217 -1,
47 33 55 -1,
29 33 31 -1,
237 33 239 -1,
239 33 241 -1,
201 33 207 -1,
39 33 47 -1,
55 33 57 -1,
57 33 59 -1,
59 33 61 -1,
61 33 63 -1,
63 33 65 -1,
65 33 67 -1,
67 33 69 -1,
7 33 11 -1,
69 33 71 -1,
71 33 73 -1,
73 33 74 -1,
79 33 81 -1,
84 33 87 -1,
245 33 2 -1,
87 33 89 -1,
95 33 97 -1,
101 33 103 -1,
103 33 105 -1,
105 33 109 -1,
109 33 110 -1,
110 33 113 -1,
113 33 115 -1,
115 33 116 -1,
116 33 119 -1,
119 33 121 -1,
121 33 122 -1,
97 33 101 -1,
122 33 125 -1,
125 33 127 -1,
127 33 129 -1,
129 33 131 -1,
233 33 237 -1,
131 33 133 -1,
133 33 135 -1,
135 33 137 -1,
137 33 139 -1,
139 33 141 -1,
141 33 143 -1,
143 33 145 -1,
145 33 147 -1,
147 33 149 -1,
149 33 151 -1,
151 33 153 -1,
153 33 155 -1,
155 33 157 -1,
157 33 159 -1,
159 33 161 -1,
81 33 84 -1,
161 33 163 -1,
163 33 165 -1,
165 33 166 -1,
166 33 169 -1,
169 33 171 -1,
2 33 5 -1,
171 33 173 -1,
11 33 16 -1,
217 33 229 -1,
173 33 175 -1,
175 33 177 -1,
177 33 179 -1,
89 33 95 -1,
179 33 181 -1,
181 33 183 -1,
74 33 79 -1,
183 33 185 -1,
185 33 187 -1,
187 33 189 -1,
189 33 191 -1,
241 33 245 -1,
191 33 193 -1,
193 33 195 -1,
229 33 233 -1,
195 33 197 -1,
197 33 199 -1,
199 33 201 -1 ] } }
Shape { appearance Appearance { material Material { diffuseColor 0.7 0.72 0.74 } } geometry IndexedFaceSet { solid FALSE coord Coordinate { point [ 0.116990 -1.586209 1.078262,
0.116881 -1.586223 1.082677,
-0.087844 -0.011420 1.082677,
-0.087734 -0.011405 1.078262,
0.117317 -1.586166 1.073857,
-0.087407 -0.011363 1.073857,
0.117862 -1.586095 1.069475,
-0.086862 -0.011292 1.069475,
-0.086102 -0.011193 1.065125,
0.118623 -1.585996 1.065125,
0.119597 -1.585870 1.060819,
-0.085127 -0.011067 1.060819,
0.120784 -1.585715 1.056567,
-0.083941 -0.010912 1.056567,
0.122179 -1.585534 1.052380,
-0.082546 -0.010731 1.052380,
0.123779 -1.585326 1.048269,
-0.080946 -0.010523 1.048269,
0.125580 -1.585092 1.044243,
-0.079144 -0.010289 1.044243,
-0.077146 -0.010029 1.040312,
0.127578 -1.584832 1.040312,
0.129768 -1.584547 1.036487,
-0.074956 -0.009744 1.036487,
-0.072580 -0.009435 1.032777,
0.132145 -1.584239 1.032777,
0.134701 -1.583906 1.029191,
-0.070023 -0.009103 1.029191,
-0.067292 -0.008748 1.025737,
0.137432 -1.583551 1.025737,
0.140331 -1.583174 1.022426,
-0.064394 -0.008371 1.022426,
-0.061336 -0.007974 1.019264,
0.143389 -1.582777 1.019264,
0.146600 -1.582359 1.016260,
-0.058125 -0.007556 1.016260,
0.149955 -1.581923 1.013420,
-0.054770 -0.007120 1.013420,
0.153446 -1.581469 1.010754,
-0.051278 -0.006666 1.010754,
0.157065 -1.580999 1.008265,
-0.047659 -0.006196 1.008265,
0.160803 -1.580513 1.005962,
-0.043922 -0.005710 1.005962,
0.164649 -1.580013 1.003850,
-0.040075 -0.005210 1.003850,
0.168596 -1.579500 1.001934,
-0.036129 -0.004697 1.001934,
0.172632 -1.578975 1.000218,
-0.032093 -0.004172 1.000218,
0.176747 -1.578440 0.998707,
-0.027977 -0.003637 0.998707,
0.180933 -1.577896 0.997405,
-0.023792 -0.003093 0.997405,
-0.019547 -0.002541 0.996315,
0.185177 -1.577344 0.996315,
-0.015254 -0.001983 0.995440,
0.189471 -1.576786 0.995440,
-0.010923 -0.001420 0.994782,
0.193802 -1.576223 0.994782,
0.198160 -1.575657 0.994342,
-0.006565 -0.000853 0.994342,
0.202534 -1.575088 0.994122,
-0.002190 -0.000285 0.994122,
0.002190 0.000285 0.994122,
0.206914 -1.574518 0.994122,
0.211289 -1.573950 0.994342,
0.006565 0.000853 0.994342,
0.215647 -1.573383 0.994782,
0.010923 0.001420 0.994782,
0.219978 -1.572820 0.995440,
0.015254 0.001983 0.995440,
0.224271 -1.572262 0.996315,
0.019547 0.002541 0.996315,
0.228516 -1.571710 0.997405,
0.023792 0.003093 0.997405,
0.232701 -1.571166 0.998707,
0.027977 0.003637 0.998707,
0.236817 -1.570631 1.000218,
0.032093 0.004172 1.000218,
0.240853 -1.570106 1.001934,
0.036129 0.004697 1.001934,
0.244800 -1.569593 1.003850,
0.040075 0.005210 1.003850,
0.248646 -1.569093 1.005962,
0.043922 0.005710 1.005962,
0.252384 -1.568607 1.008265,
0.047659 0.006196 1.008265,
0.256003 -1.568137 1.010754,
0.051278 0.006666 1.010754,
0.259494 -1.567683 1.013420,
0.054770 0.007120 1.013420,
0.262849 -1.567247 1.016260,
0.058125 0.007556 1.016260,
0.061336 0.007974 1.019264,
0.266060 -1.566830 1.019264,
0.269118 -1.566432 1.022426,
0.064394 0.008371 1.022426,
0.067292 0.008748 1.025737,
0.272016 -1.566055 1.025737,
0.070023 0.009103 1.029191,
0.274747 -1.565700 1.029191,
0.277304 -1.565368 1.032777,
0.072580 0.009435 1.032777,
0.279680 -1.565059 1.036487,
0.074956 0.009744 1.036487,
0.077146 0.010029 1.040312,
0.281870 -1.564774 1.040312,
0.079144 0.010289 1.044243,
0.283869 -1.564514 1.044243,
0.080946 0.010523 1.048269,
0.285670 -1.564280 1.048269,
0.082546 0.010731 1.052380,
0.287270 -1.564072 1.052380,
0.288665 -1.563891 1.056567,
0.083941 0.010912 1.056567,
0.289852 -1.563737 1.060819,
0.085127 0.011067 1.060819,
0.086102 0.011193 1.065125,
0.290826 -1.563610 1.065125,
0.291587 -1.563511 1.069475,
0.086862 0.011292 1.069475,
0.292131 -1.563440 1.073857,
0.087407 0.011363 1.073857,
0.292459 -1.563398 1.078262,
0.087734 0.011405 1.078262,
0.292568 -1.563383 1.082677,
0.087844 0.011420 1.082677,
0.087734 0.011405 1.087093,
0.292459 -1.563398 1.087093,
0.292131 -1.563440 1.091497,
0.087407 0.011363 1.091497,
0.086862 0.011292 1.095880,
0.291587 -1.563511 1.095880,
0.290826 -1.563610 1.100229,
0.086102 0.011193 1.100229,
0.289852 -1.563737 1.104536,
0.085127 0.011067 1.104536,
0.288665 -1.563891 1.108787,
0.083941 0.010912 1.108787,
0.082546 0.010731 1.112974,
0.287270 -1.564072 1.112974,
0.285670 -1.564280 1.117086,
0.080946 0.010523 1.117086,
0.283869 -1.564514 1.121112,
0.079144 0.010289 1.121112,
0.281870 -1.564774 1.125042,
0.077146 0.010029 1.125042,
0.279680 -1.565059 1.128867,
0.074956 0.009744 1.128867,
0.277304 -1.565368 1.132578,
0.072580 0.009435 1.132578,
0.274747 -1.565700 1.136164,
0.070023 0.009103 1.136164,
0.067292 0.008748 1.139617,
0.272016 -1.566055 1.139617,
0.269118 -1.566432 1.142929,
0.064394 0.008371 1.142929,
0.266060 -1.566830 1.146091,
0.061336 0.007974 1.146091,
0.262849 -1.567247 1.149095,
0.058125 0.007556 1.149095,
0.259494 -1.567683 1.151934,
0.054770 0.007120 1.151934,
0.051278 0.006666 1.154601,
0.256003 -1.568137 1.154601,
0.252384 -1.568607 1.157089,
0.047659 0.006196 1.157089,
0.248646 -1.569093 1.159392,
0.043922 0.005710 1.159392,
0.244800 -1.569593 1.161504,
0.040075 0.005210 1.161504,
0.240853 -1.570106 1.163421,
0.036129 0.004697 1.163421,
0.032093 0.004172 1.165136,
0.236817 -1.570631 1.165136,
0.232701 -1.571166 1.166647,
0.027977 0.003637 1.166647,
0.228516 -1.571710 1.167949,
0.023792 0.003093 1.167949,
0.019547 0.002541 1.169039,
0.224271 -1.572262 1.169039,
0.015254 0.001983 1.169914,
0.219978 -1.572820 1.169914,
0.215647 -1.573383 1.170572,
0.010923 0.001420 1.170572,
0.211289 -1.573950 1.171012,
0.006565 0.000853 1.171012,
0.206914 -1.574518 1.171232,
0.002190 0.000285 1.171232,
0.202534 -1.575088 1.171232,
-0.002190 -0.000285 1.171232,
-0.006565 -0.000853 1.171012,
0.198160 -1.575657 1.171012,
-0.010923 -0.001420 1.170572,
0.193802 -1.576223 1.170572,
0.189471 -1.576786 1.169914,
-0.015254 -0.001983 1.169914,
-0.019547 -0.002541 1.169039,
0.185177 -1.577344 1.169039,
0.180933 -1.577896 1.167949,
-0.023792 -0.003093 1.167949,
-0.027977 -0.003637 1.166647,
0.176747 -1.578440 1.166647,
0.172632 -1.578975 1.165136,
-0.032093 -0.004172 1.165136,
-0.036129 -0.004697 1.163421,
0.168596 -1.579500 1.163421,
0.164649 -1.580013 1.161504,
-0.040075 -0.005210 1.161504,
0.160803 -1.580513 1.159392,
-0.043922 -0.005710 1.159392,
-0.047659 -0.006196 1.157089,
0.157065 -1.580999 1.157089,
-0.051278 -0.006666 1.154601,
0.153446 -1.581469 1.154601,
-0.054770 -0.007120 1.151934,
0.149955 -1.581923 1.151934,
0.146600 -1.582359 1.149095,
-0.058125 -0.007556 1.149095,
-0.061336 -0.007974 1.146091,
0.143389 -1.582777 1.146091,
0.140331 -1.583174 1.142929,
-0.064394 -0.008371 1.142929,
0.137432 -1.583551 1.139617,
-0.067292 -0.008748 1.139617,
0.134701 -1.583906 1.136164,
-0.070023 -0.009103 1.136164,
-0.072580 -0.009435 1.132578,
0.132145 -1.584239 1.132578,
0.129768 -1.584547 1.128867,
-0.074956 -0.009744 1.128867,
-0.077146 -0.010029 1.125042,
0.127578 -1.584832 1.125042,
0.125580 -1.585092 1.121112,
-0.079144 -0.010289 1.121112,
0.123779 -1.585326 1.117086,
-0.080946 -0.010523 1.117086,
0.122179 -1.585534 1.112974,
-0.082546 -0.010731 1.112974,
0.120784 -1.585715 1.108787,
-0.083941 -0.010912 1.108787,
-0.085127 -0.011067 1.104536,
0.119597 -1.585870 1.104536,
-0.086102 -0.011193 1.100229,
0.118623 -1.585996 1.100229,
-0.086862 -0.011292 1.095880,
0.117862 -1.586095 1.095880,
-0.087407 -0.011363 1.091497,
0.117317 -1.586166 1.091497,
0.116990 -1.586209 1.087093,
-0.087734 -0.011405 1.087093 ] } coordIndex [ 0 1 2 -1,
0 2 3 -1,
4 3 5 -1,
4 0 3 -1,
6 5 7 -1,
6 7 8 -1,
6 4 5 -1,
9 6 8 -1,
10 8 11 -1,
10 9 8 -1,
12 11 13 -1,
12 10 11 -1,
14 13 15 -1,
14 12 13 -1,
16 15 17 -1,
16 14 15 -1,
18 17 19 -1,
18 19 20 -1,
18 16 17 -1,
21 18 20 -1,
22 21 20 -1,
22 20 23 -1,
22 23 24 -1,
25 22 24 -1,
26 25 24 -1,
26 24 27 -1,
26 27 28 -1,
29 26 28 -1,
30 29 28 -1,
30 28 31 -1,
30 31 32 -1,
33 30 32 -1,
34 33 32 -1,
34 32 35 -1,
36 34 35 -1,
36 35 37 -1,
38 36 37 -1,
38 37 39 -1,
40 38 39 -1,
40 39 41 -1,
42 40 41 -1,
42 41 43 -1,
44 42 43 -1,
44 43 45 -1,
46 45 47 -1,
46 44 45 -1,
48 47 49 -1,
48 46 47 -1,
50 49 51 -1,
50 48 49 -1,
52 51 53 -1,
52 53 54 -1,
52 50 51 -1,
55 54 56 -1,
55 52 54 -1,
57 56 58 -1,
57 55 56 -1,
59 57 58 -1,
60 58 61 -1,
60 59 58 -1,
62 61 63 -1,
62 63 64 -1,
62 60 61 -1,
65 62 64 -1,
66 64 67 -1,
66 65 64 -1,
68 67 69 -1,
68 66 67 -1,
70 69 71 -1,
70 68 69 -1,
72 71 73 -1,
72 70 71 -1,
74 72 73 -1,
74 73 75 -1,
76 74 75 -1,
76 75 77 -1,
78 76 77 -1,
78 77 79 -1,
80 78 79 -1,
80 79 81 -1,
82 80 81 -1,
82 81 83 -1,
84 82 83 -1,
84 83 85 -1,
86 84 85 -1,
86 85 87 -1,
88 86 87 -1,
88 87 89 -1,
90 88 89 -1,
90 89 91 -1,
92 90 91 -1,
92 91 93 -1,
92 93 94 -1,
95 92 94 -1,
96 95 94 -1,
96 94 97 -1,
96 97 98 -1,
99 96 98 -1,
99 98 100 -1,
101 99 100 -1,
102 101 100 -1,
102 100 103 -1,
104 102 103 -1,
104 103 105 -1,
104 105 106 -1,
107 104 106 -1,
107 106 108 -1,
109 107 108 -1,
109 108 110 -1,
111 109 110 -1,
111 110 112 -1,
113 111 112 -1,
114 113 112 -1,
114 112 115 -1,
116 115 117 -1,
116 117 118 -1,
116 114 115 -1,
119 116 118 -1,
120 118 121 -1,
120 119 118 -1,
122 121 123 -1,
122 120 121 -1,
124 122 123 -1,
124 123 125 -1,
126 124 125 -1,
126 125 127 -1,
126 127 128 -1,
129 126 128 -1,
130 129 128 -1,
130 128 131 -1,
130 131 132 -1,
133 130 132 -1,
134 133 132 -1,
134 132 135 -1,
136 134 135 -1,
136 135 137 -1,
138 136 137 -1,
138 137 139 -1,
138 139 140 -1,
141 138 140 -1,
142 141 140 -1,
142 140 143 -1,
144 142 143 -1,
144 143 145 -1,
146 144 145 -1,
146 145 147 -1,
148 146 147 -1,
148 147 149 -1,
150 149 151 -1,
150 148 149 -1,
152 151 153 -1,
152 153 154 -1,
152 150 151 -1,
155 152 154 -1,
156 154 157 -1,
156 155 154 -1,
158 157 159 -1,
158 156 157 -1,
160 159 161 -1,
160 158 159 -1,
162 161 163 -1,
162 163 164 -1,
162 160 161 -1,
165 162 164 -1,
166 164 167 -1,
166 165 164 -1,
168 167 169 -1,
168 166 167 -1,
170 169 171 -1,
170 168 169 -1,
172 171 173 -1,
172 173 174 -1,
172 170 171 -1,
175 172 174 -1,
176 175 174 -1,
176 174 177 -1,
178 176 177 -1,
178 177 179 -1,
178 179 180 -1,
181 180 182 -1,
181 178 180 -1,
183 181 182 -1,
184 182 185 -1,
184 183 182 -1,
186 185 187 -1,
186 184 185 -1,
188 187 189 -1,
188 186 187 -1,
190 189 191 -1,
190 191 192 -1,
190 188 189 -1,
193 190 192 -1,
193 192 194 -1,
195 193 194 -1,
196 194 197 -1,
196 197 198 -1,
196 195 194 -1,
199 196 198 -1,
200 198 201 -1,
200 201 202 -1,
200 199 198 -1,
203 200 202 -1,
204 202 205 -1,
204 205 206 -1,
204 203 202 -1,
207 204 206 -1,
208 206 209 -1,
208 207 206 -1,
210 209 211 -1,
210 211 212 -1,
210 208 209 -1,
213 212 214 -1,
213 210 212 -1,
215 214 216 -1,
215 213 214 -1,
217 215 216 -1,
218 216 219 -1,
218 219 220 -1,
218 217 216 -1,
221 218 220 -1,
222 220 223 -1,
222 221 220 -1,
224 222 223 -1,
224 223 225 -1,
226 224 225 -1,
226 225 227 -1,
226 227 228 -1,
229 226 228 -1,
230 229 228 -1,
230 228 231 -1,
230 231 232 -1,
233 230 232 -1,
234 233 232 -1,
234 232 235 -1,
236 234 235 -1,
236 235 237 -1,
238 236 237 -1,
238 237 239 -1,
240 238 239 -1,
240 239 241 -1,
240 241 242 -1,
243 240 242 -1,
243 242 244 -1,
245 243 244 -1,
245 244 246 -1,
247 245 246 -1,
247 246 248 -1,
249 247 248 -1,
250 248 251 -1,
250 249 248 -1,
1 251 2 -1,
1 250 251 -1,
207 203 204 -1,
210 207 208 -1,
215 210 213 -1,
99 101 102 -1,
221 217 218 -1,
226 222 224 -1,
86 88 90 -1,
86 90 92 -1,
234 229 230 -1,
234 230 233 -1,
238 234 236 -1,
243 238 240 -1,
247 243 245 -1,
52 55 57 -1,
52 57 59 -1,
12 9 10 -1,
16 12 14 -1,
16 9 12 -1,
46 48 50 -1,
22 16 18 -1,
22 18 21 -1,
38 40 42 -1,
30 22 25 -1,
30 25 26 -1,
30 26 29 -1,
33 1 0 -1,
33 0 4 -1,
33 4 6 -1,
33 6 9 -1,
33 34 36 -1,
33 36 38 -1,
33 42 44 -1,
33 44 46 -1,
33 50 52 -1,
33 59 60 -1,
33 60 62 -1,
33 62 65 -1,
33 65 66 -1,
33 66 68 -1,
33 68 70 -1,
33 70 72 -1,
33 72 74 -1,
33 74 76 -1,
33 76 78 -1,
33 78 80 -1,
33 80 82 -1,
33 82 84 -1,
33 84 86 -1,
33 92 95 -1,
33 95 96 -1,
33 96 99 -1,
33 102 104 -1,
33 104 107 -1,
33 107 109 -1,
33 109 111 -1,
33 111 113 -1,
33 113 114 -1,
33 114 116 -1,
33 116 119 -1,
33 119 120 -1,
33 120 122 -1,
33 122 124 -1,
33 124 126 -1,
33 126 129 -1,
33 129 130 -1,
33 130 133 -1,
33 133 134 -1,
33 134 136 -1,
33 136 138 -1,
33 138 141 -1,
33 141 142 -1,
33 142 144 -1,
33 144 146 -1,
33 146 148 -1,
33 148 150 -1,
33 150 152 -1,
33 152 155 -1,
33 155 156 -1,
33 156 158 -1,
33 158 160 -1,
33 160 162 -1,
33 162 165 -1,
33 165 166 -1,
33 166 168 -1,
33 168 170 -1,
33 170 172 -1,
33 172 175 -1,
33 175 176 -1,
33 176 178 -1,
33 178 181 -1,
33 181 183 -1,
33 183 184 -1,
33 184 186 -1,
33 186 188 -1,
33 188 190 -1,
33 190 193 -1,
33 193 195 -1,
33 195 196 -1,
33 196 199 -1,
33 199 200 -1,
33 200 203 -1,
33 215 217 -1,
33 221 222 -1,
33 226 229 -1,
33 247 249 -1,
33 249 250 -1,
33 250 1 -1,
33 243 247 -1,
33 238 243 -1,
33 210 215 -1,
33 99 102 -1,
33 16 22 -1,
33 234 238 -1,
33 203 207 -1,
33 217 221 -1,
33 207 210 -1,
33 222 226 -1,
33 86 92 -1,
33 229 234 -1,
33 46 50 -1,
33 52 59 -1,
33 38 42 -1,
33 9 16 -1,
33 22 30 -1,
202 206 205 -1,
206 211 209 -1,
211 214 212 -1,
100 98 103 -1,
216 220 219 -1,
223 227 225 -1,
89 87 91 -1,
91 87 93 -1,
228 235 231 -1,
231 235 232 -1,
235 239 237 -1,
239 242 241 -1,
242 246 244 -1,
54 53 56 -1,
56 53 58 -1,
8 13 11 -1,
13 17 15 -1,
8 17 13 -1,
49 47 51 -1,
17 23 19 -1,
19 23 20 -1,
41 39 43 -1,
23 31 24 -1,
24 31 27 -1,
27 31 28 -1,
2 32 3 -1,
3 32 5 -1,
5 32 7 -1,
7 32 8 -1,
35 32 37 -1,
37 32 39 -1,
43 32 45 -1,
45 32 47 -1,
51 32 53 -1,
58 32 61 -1,
61 32 63 -1,
63 32 64 -1,
64 32 67 -1,
67 32 69 -1,
69 32 71 -1,
71 32 73 -1,
73 32 75 -1,
75 32 77 -1,
77 32 79 -1,
79 32 81 -1,
81 32 83 -1,
83 32 85 -1,
85 32 87 -1,
93 32 94 -1,
94 32 97 -1,
97 32 98 -1,
103 32 105 -1,
105 32 106 -1,
106 32 108 -1,
108 32 110 -1,
110 32 112 -1,
112 32 115 -1,
115 32 117 -1,
117 32 118 -1,
118 32 121 -1,
121 32 123 -1,
123 32 125 -1,
125 32 127 -1,
127 32 128 -1,
128 32 131 -1,
131 32 132 -1,
132 32 135 -1,
135 32 137 -1,
137 32 139 -1,
139 32 140 -1,
140 32 143 -1,
143 32 145 -1,
145 32 147 -1,
147 32 149 -1,
149 32 151 -1,
151 32 153 -1,
153 32 154 -1,
154 32 157 -1,
157 32 159 -1,
159 32 161 -1,
161 32 163 -1,
163 32 164 -1,
164 32 167 -1,
167 32 169 -1,
169 32 171 -1,
171 32 173 -1,
173 32 174 -1,
174 32 177 -1,
177 32 179 -1,
179 32 180 -1,
180 32 182 -1,
182 32 185 -1,
185 32 187 -1,
187 32 189 -1,
189 32 191 -1,
191 32 192 -1,
192 32 194 -1,
194 32 197 -1,
197 32 198 -1,
198 32 201 -1,
201 32 202 -1,
214 32 216 -1,
220 32 223 -1,
227 32 228 -1,
246 32 248 -1,
248 32 251 -1,
251 32 2 -1,
242 32 246 -1,
239 32 242 -1,
211 32 214 -1,
98 32 103 -1,
17 32 23 -1,
235 32 239 -1,
202 32 206 -1,
216 32 220 -1,
206 32 211 -1,
223 32 227 -1,
87 32 93 -1,
228 32 235 -1,
47 32 51 -1,
53 32 58 -1,
39 32 43 -1,
8 32 17 -1,
23 32 31 -1 ] } }
Shape { appearance Appearance { material Material { diffuseColor 0.7 0.72 0.74 } } geometry IndexedFaceSet { solid FALSE coord Coordinate { point [ 1.088473 0.004415 1.082677,
1.088583 -0.000000 1.082677,
1.088583 -0.000000 -0.984252,
1.088473 0.004415 -0.984252,
1.088142 0.008820 1.082677,
1.088142 0.008820 -0.984252,
1.087593 0.013203 1.082677,
1.087593 0.013203 -0.984252,
1.086826 0.017552 1.082677,
1.086826 0.017552 -0.984252,
1.085843 0.021858 1.082677,
1.085843 0.021858 -0.984252,
1.084647 0.026110 -0.984252,
1.084647 0.026110 1.082677,
1.083240 0.030297 1.082677,
1.083240 0.030297 -0.984252,
1.081627 0.034409 -0.984252,
1.081627 0.034409 1.082677,
1.079810 0.038435 1.082677,
1.079810 0.038435 -0.984252,
1.077795 0.042365 1.082677,
1.077795 0.042365 -0.984252,
1.075587 0.046190 -0.984252,
1.075587 0.046190 1.082677,
1.073190 0.049900 1.082677,
1.073190 0.049900 -0.984252,
1.070612 0.053487 1.082677,
1.070612 0.053487 -0.984252,
1.067858 0.056940 1.082677,
1.067858 0.056940 -0.984252,
1.064936 0.060252 1.082677,
1.064936 0.060252 -0.984252,
1.061852 0.063413 1.082677,
1.061852 0.063413 -0.984252,
1.058614 0.066418 1.082677,
1.058614 0.066418 -0.984252,
1.055230 0.069257 1.082677,
1.055230 0.069257 -0.984252,
1.051710 0.071924 1.082677,
1.051710 0.071924 -0.984252,
1.048060 0.074412 1.082677,
1.048060 0.074412 -0.984252,
1.044291 0.076715 1.082677,
1.044291 0.076715 -0.984252,
1.040412 0.078827 1.082677,
1.040412 0.078827 -0.984252,
1.036433 0.080744 1.082677,
1.036433 0.080744 -0.984252,
1.032363 0.082459 -0.984252,
1.032363 0.082459 1.082677,
1.028212 0.083970 1.082677,
1.028212 0.083970 -0.984252,
1.023992 0.085272 1.082677,
1.023992 0.085272 -0.984252,
1.019712 0.086362 1.082677,
1.019712 0.086362 -0.984252,
1.015382 0.087237 1.082677,
1.015382 0.087237 -0.984252,
1.011015 0.087895 1.082677,
1.011015 0.087895 -0.984252,
1.006620 0.088335 1.082677,
1.006620 0.088335 -0.984252,
1.002208 0.088555 1.082677,
1.002208 0.088555 -0.984252,
0.997792 0.088555 1.082677,
0.997792 0.088555 -0.984252,
0.993380 0.088335 1.082677,
0.993380 0.088335 -0.984252,
0.988985 0.087895 1.082677,
0.988985 0.087895 -0.984252,
0.984618 0.087237 1.082677,
0.984618 0.087237 -0.984252,
0.980288 0.086362 1.082677,
0.980288 0.086362 -0.984252,
0.976008 0.085272 -0.984252,
0.976008 0.085272 1.082677,
0.971788 0.083970 1.082677,
0.971788 0.083970 -0.984252,
0.967637 0.082459 1.082677,
0.967637 0.082459 -0.984252,
0.963567 0.080744 1.082677,
0.963567 0.080744 -0.984252,
0.959588 0.078827 -0.984252,
0.959588 0.078827 1.082677,
0.955709 0.076715 -0.984252,
0.955709 0.076715 1.082677,
0.951940 0.074412 1.082677,
0.951940 0.074412 -0.984252,
0.948290 0.071924 1.082677,
0.948290 0.071924 -0.984252,
0.944770 0.069257 1.082677,
0.944770 0.069257 -0.984252,
0.941386 0.066418 1.082677,
0.941386 0.066418 -0.984252,
0.938148 0.063413 1.082677,
0.938148 0.063413 -0.984252,
0.935064 0.060252 1.082677,
0.935064 0.060252 -0.984252,
0.932142 0.056940 1.082677,
0.932142 0.056940 -0.984252,
0.929388 0.053487 1.082677,
0.929388 0.053487 -0.984252,
0.926810 0.049900 1.082677,
0.926810 0.049900 -0.984252,
0.924413 0.046190 1.082677,
0.924413 0.046190 -0.984252,
0.922205 0.042365 1.082677,
0.922205 0.042365 -0.984252,
0.920190 0.038435 1.082677,
0.920190 0.038435 -0.984252,
0.918373 0.034409 -0.984252,
0.918373 0.034409 1.082677,
0.916760 0.030297 1.082677,
0.916760 0.030297 -0.984252,
0.915353 0.026110 1.082677,
0.915353 0.026110 -0.984252,
0.914157 0.021858 -0.984252,
0.914157 0.021858 1.082677,
0.913174 0.017552 1.082677,
0.913174 0.017552 -0.984252,
0.912407 0.013203 1.082677,
0.912407 0.013203 -0.984252,
0.911858 0.008820 -0.984252,
0.911858 0.008820 1.082677,
0.911527 0.004415 1.082677,
0.911527 0.004415 -0.984252,
0.911417 -0.000000 1.082677,
0.911417 -0.000000 -0.984252,
0.911527 -0.004415 1.082677,
0.911527 -0.004415 -0.984252,
0.911858 -0.008820 1.082677,
0.911858 -0.008820 -0.984252,
0.912407 -0.013203 1.082677,
0.912407 -0.013203 -0.984252,
0.913174 -0.017552 1.082677,
0.913174 -0.017552 -0.984252,
0.914157 -0.021858 1.082677,
0.914157 -0.021858 -0.984252,
0.915353 -0.026110 1.082677,
0.915353 -0.026110 -0.984252,
0.916760 -0.030297 1.082677,
0.916760 -0.030297 -0.984252,
0.918373 -0.034409 1.082677,
0.918373 -0.034409 -0.984252,
0.920190 -0.038435 1.082677,
0.920190 -0.038435 -0.984252,
0.922205 -0.042365 1.082677,
0.922205 -0.042365 -0.984252,
0.924413 -0.046190 1.082677,
0.924413 -0.046190 -0.984252,
0.926810 -0.049900 1.082677,
0.926810 -0.049900 -0.984252,
0.929388 -0.053487 1.082677,
0.929388 -0.053487 -0.984252,
0.932142 -0.056940 1.082677,
0.932142 -0.056940 -0.984252,
0.935064 -0.060252 1.082677,
0.935064 -0.060252 -0.984252,
0.938148 -0.063413 1.082677,
0.938148 -0.063413 -0.984252,
0.941386 -0.066418 1.082677,
0.941386 -0.066418 -0.984252,
0.944770 -0.069257 1.082677,
0.944770 -0.069257 -0.984252,
0.948290 -0.071924 1.082677,
0.948290 -0.071924 -0.984252,
0.951940 -0.074412 -0.984252,
0.951940 -0.074412 1.082677,
0.955709 -0.076715 1.082677,
0.955709 -0.076715 -0.984252,
0.959588 -0.078827 1.082677,
0.959588 -0.078827 -0.984252,
0.963567 -0.080744 1.082677,
0.963567 -0.080744 -0.984252,
0.967637 -0.082459 1.082677,
0.967637 -0.082459 -0.984252,
0.971788 -0.083970 1.082677,
0.971788 -0.083970 -0.984252,
0.976008 -0.085272 1.082677,
0.976008 -0.085272 -0.984252,
0.980288 -0.086362 1.082677,
0.980288 -0.086362 -0.984252,
0.984618 -0.087237 1.082677,
0.984618 -0.087237 -0.984252,
0.988985 -0.087895 1.082677,
0.988985 -0.087895 -0.984252,
0.993380 -0.088335 1.082677,
0.993380 -0.088335 -0.984252,
0.997792 -0.088555 1.082677,
0.997792 -0.088555 -0.984252,
1.002208 -0.088555 1.082677,
1.002208 -0.088555 -0.984252,
1.006620 -0.088335 1.082677,
1.006620 -0.088335 -0.984252,
1.011015 -0.087895 1.082677,
1.011015 -0.087895 -0.984252,
1.015382 -0.087237 1.082677,
1.015382 -0.087237 -0.984252,
1.019712 -0.086362 1.082677,
1.019712 -0.086362 -0.984252,
1.023992 -0.085272 1.082677,
1.023992 -0.085272 -0.984252,
1.028212 -0.083970 1.082677,
1.028212 -0.083970 -0.984252,
1.032363 -0.082459 1.082677,
1.032363 -0.082459 -0.984252,
1.036433 -0.080744 1.082677,
1.036433 -0.080744 -0.984252,
1.040412 -0.078827 1.082677,
1.040412 -0.078827 -0.984252,
1.044291 -0.076715 1.082677,
1.044291 -0.076715 -0.984252,
1.048060 -0.074412 1.082677,
1.048060 -0.074412 -0.984252,
1.051710 -0.071924 1.082677,
1.051710 -0.071924 -0.984252,
1.055230 -0.069257 1.082677,
1.055230 -0.069257 -0.984252,
1.058614 -0.066418 1.082677,
1.058614 -0.066418 -0.984252,
1.061852 -0.063413 1.082677,
1.061852 -0.063413 -0.984252,
1.064936 -0.060252 1.082677,
1.064936 -0.060252 -0.984252,
1.067858 -0.056940 1.082677,
1.067858 -0.056940 -0.984252,
1.070612 -0.053487 1.082677,
1.070612 -0.053487 -0.984252,
1.073190 -0.049900 1.082677,
1.073190 -0.049900 -0.984252,
1.075587 -0.046190 1.082677,
1.075587 -0.046190 -0.984252,
1.077795 -0.042365 1.082677,
1.077795 -0.042365 -0.984252,
1.079810 -0.038435 1.082677,
1.079810 -0.038435 -0.984252,
1.081627 -0.034409 1.082677,
1.081627 -0.034409 -0.984252,
1.083240 -0.030297 1.082677,
1.083240 -0.030297 -0.984252,
1.084647 -0.026110 1.082677,
1.084647 -0.026110 -0.984252,
1.085843 -0.021858 1.082677,
1.085843 -0.021858 -0.984252,
1.086826 -0.017552 1.082677,
1.086826 -0.017552 -0.984252,
1.087593 -0.013203 1.082677,
1.087593 -0.013203 -0.984252,
1.088142 -0.008820 1.082677,
1.088142 -0.008820 -0.984252,
1.088473 -0.004415 1.082677,
1.088473 -0.004415 -0.984252 ] } coordIndex [ 0 1 2 -1,
0 2 3 -1,
4 3 5 -1,
4 0 3 -1,
6 5 7 -1,
6 4 5 -1,
8 7 9 -1,
8 6 7 -1,
10 9 11 -1,
10 11 12 -1,
10 8 9 -1,
13 10 12 -1,
14 12 15 -1,
14 15 16 -1,
14 13 12 -1,
17 14 16 -1,
18 16 19 -1,
18 17 16 -1,
20 19 21 -1,
20 21 22 -1,
20 18 19 -1,
23 20 22 -1,
24 23 22 -1,
24 22 25 -1,
26 24 25 -1,
26 25 27 -1,
28 26 27 -1,
28 27 29 -1,
30 28 29 -1,
30 29 31 -1,
32 30 31 -1,
32 31 33 -1,
34 32 33 -1,
34 33 35 -1,
36 34 35 -1,
36 35 37 -1,
38 36 37 -1,
38 37 39 -1,
40 38 39 -1,
40 39 41 -1,
42 40 41 -1,
42 41 43 -1,
44 42 43 -1,
44 43 45 -1,
46 45 47 -1,
46 44 45 -1,
46 47 48 -1,
49 46 48 -1,
50 48 51 -1,
50 49 48 -1,
52 51 53 -1,
52 50 51 -1,
54 53 55 -1,
54 52 53 -1,
56 55 57 -1,
56 54 55 -1,
58 57 59 -1,
58 56 57 -1,
60 59 61 -1,
60 58 59 -1,
62 61 63 -1,
62 60 61 -1,
64 63 65 -1,
64 62 63 -1,
66 65 67 -1,
66 64 65 -1,
68 67 69 -1,
68 66 67 -1,
70 69 71 -1,
70 68 69 -1,
72 71 73 -1,
72 73 74 -1,
72 70 71 -1,
75 72 74 -1,
76 75 74 -1,
76 74 77 -1,
78 76 77 -1,
78 77 79 -1,
80 78 79 -1,
80 79 81 -1,
80 81 82 -1,
83 80 82 -1,
83 82 84 -1,
85 83 84 -1,
86 85 84 -1,
86 84 87 -1,
88 86 87 -1,
88 87 89 -1,
90 88 89 -1,
90 89 91 -1,
92 90 91 -1,
92 91 93 -1,
94 92 93 -1,
94 93 95 -1,
96 94 95 -1,
96 95 97 -1,
98 96 97 -1,
98 97 99 -1,
100 98 99 -1,
100 99 101 -1,
102 100 101 -1,
102 101 103 -1,
104 102 103 -1,
104 103 105 -1,
106 104 105 -1,
106 105 107 -1,
108 106 107 -1,
108 107 109 -1,
108 109 110 -1,
111 108 110 -1,
112 111 110 -1,
112 110 113 -1,
114 112 113 -1,
114 113 115 -1,
114 115 116 -1,
117 114 116 -1,
118 116 119 -1,
118 117 116 -1,
120 119 121 -1,
120 121 122 -1,
120 118 119 -1,
123 120 122 -1,
124 123 122 -1,
124 122 125 -1,
126 124 125 -1,
126 125 127 -1,
128 126 127 -1,
128 127 129 -1,
130 128 129 -1,
130 129 131 -1,
132 130 131 -1,
132 131 133 -1,
134 132 133 -1,
134 133 135 -1,
136 134 135 -1,
136 135 137 -1,
138 136 137 -1,
138 137 139 -1,
140 138 139 -1,
140 139 141 -1,
142 140 141 -1,
142 141 143 -1,
144 142 143 -1,
144 143 145 -1,
146 144 145 -1,
146 145 147 -1,
148 146 147 -1,
148 147 149 -1,
150 149 151 -1,
150 148 149 -1,
152 151 153 -1,
152 150 151 -1,
154 153 155 -1,
154 152 153 -1,
156 155 157 -1,
156 154 155 -1,
158 157 159 -1,
158 156 157 -1,
160 159 161 -1,
160 158 159 -1,
162 161 163 -1,
162 160 161 -1,
164 163 165 -1,
164 165 166 -1,
164 162 163 -1,
167 164 166 -1,
168 166 169 -1,
168 167 166 -1,
170 169 171 -1,
170 168 169 -1,
172 171 173 -1,
172 170 171 -1,
174 173 175 -1,
174 172 173 -1,
176 174 175 -1,
176 175 177 -1,
178 176 177 -1,
178 177 179 -1,
180 178 179 -1,
180 179 181 -1,
182 180 181 -1,
182 181 183 -1,
184 183 185 -1,
184 182 183 -1,
186 185 187 -1,
186 184 185 -1,
188 187 189 -1,
188 186 187 -1,
190 189 191 -1,
190 188 189 -1,
192 191 193 -1,
192 190 191 -1,
194 193 195 -1,
194 192 193 -1,
196 195 197 -1,
196 194 195 -1,
198 197 199 -1,
198 196 197 -1,
200 199 201 -1,
200 198 199 -1,
202 201 203 -1,
202 200 201 -1,
204 203 205 -1,
204 202 203 -1,
206 205 207 -1,
206 204 205 -1,
208 207 209 -1,
208 206 207 -1,
210 209 211 -1,
210 208 209 -1,
212 211 213 -1,
212 210 211 -1,
214 213 215 -1,
214 212 213 -1,
216 215 217 -1,
216 214 215 -1,
218 217 219 -1,
218 216 217 -1,
220 219 221 -1,
220 218 219 -1,
222 221 223 -1,
222 220 221 -1,
224 222 223 -1,
224 223 225 -1,
226 224 225 -1,
226 225 227 -1,
228 226 227 -1,
228 227 229 -1,
230 228 229 -1,
230 229 231 -1,
232 230 231 -1,
232 231 233 -1,
234 232 233 -1,
234 233 235 -1,
236 234 235 -1,
236 235 237 -1,
238 236 237 -1,
238 237 239 -1,
240 238 239 -1,
240 239 241 -1,
242 240 241 -1,
242 241 243 -1,
244 242 243 -1,
244 243 245 -1,
246 244 245 -1,
246 245 247 -1,
248 246 247 -1,
248 247 249 -1,
250 249 251 -1,
250 248 249 -1,
1 251 2 -1,
1 250 251 -1,
104 106 108 -1,
214 208 210 -1,
214 210 212 -1,
92 94 96 -1,
92 96 98 -1,
224 218 220 -1,
224 220 222 -1,
88 90 92 -1,
86 88 92 -1,
230 226 228 -1,
80 83 85 -1,
236 224 226 -1,
236 230 232 -1,
236 232 234 -1,
236 226 230 -1,
244 240 242 -1,
70 72 75 -1,
70 75 76 -1,
248 244 246 -1,
4 1 0 -1,
8 4 6 -1,
10 4 8 -1,
13 4 10 -1,
18 13 14 -1,
18 14 17 -1,
44 46 49 -1,
42 44 49 -1,
24 20 23 -1,
28 18 20 -1,
28 24 26 -1,
28 20 24 -1,
34 36 38 -1,
34 38 40 -1,
34 40 42 -1,
32 1 4 -1,
32 200 202 -1,
32 202 204 -1,
32 204 206 -1,
32 206 208 -1,
32 244 248 -1,
32 214 216 -1,
32 216 218 -1,
32 28 30 -1,
32 236 238 -1,
32 238 240 -1,
32 248 250 -1,
32 250 1 -1,
32 49 50 -1,
32 34 42 -1,
32 50 52 -1,
32 52 54 -1,
32 54 56 -1,
32 56 58 -1,
32 240 244 -1,
32 58 60 -1,
32 104 108 -1,
32 60 62 -1,
32 62 64 -1,
32 64 66 -1,
32 66 68 -1,
32 68 70 -1,
32 208 214 -1,
32 76 78 -1,
32 78 80 -1,
32 4 13 -1,
32 85 86 -1,
32 218 224 -1,
32 80 85 -1,
32 98 100 -1,
32 13 18 -1,
32 100 102 -1,
32 102 104 -1,
32 42 49 -1,
32 108 111 -1,
32 111 112 -1,
32 112 114 -1,
32 114 117 -1,
32 117 118 -1,
32 118 120 -1,
32 120 123 -1,
32 123 124 -1,
32 124 126 -1,
32 126 128 -1,
32 128 130 -1,
32 224 236 -1,
32 130 132 -1,
32 132 134 -1,
32 134 136 -1,
32 86 92 -1,
32 136 138 -1,
32 138 140 -1,
32 140 142 -1,
32 142 144 -1,
32 144 146 -1,
32 146 148 -1,
32 148 150 -1,
32 150 152 -1,
32 152 154 -1,
32 154 156 -1,
32 156 158 -1,
32 158 160 -1,
32 18 28 -1,
32 160 162 -1,
32 162 164 -1,
32 164 167 -1,
32 167 168 -1,
32 168 170 -1,
32 170 172 -1,
32 172 174 -1,
32 174 176 -1,
32 176 178 -1,
32 178 180 -1,
32 180 182 -1,
32 70 76 -1,
32 182 184 -1,
32 184 186 -1,
32 186 188 -1,
32 188 190 -1,
32 190 192 -1,
32 192 194 -1,
32 194 196 -1,
32 196 198 -1,
32 92 98 -1,
32 198 200 -1,
107 105 109 -1,
209 215 211 -1,
211 215 213 -1,
95 93 97 -1,
97 93 99 -1,
219 225 221 -1,
221 225 223 -1,
91 89 93 -1,
89 87 93 -1,
227 231 229 -1,
82 81 84 -1,
225 237 227 -1,
231 237 233 -1,
233 237 235 -1,
227 237 231 -1,
241 245 243 -1,
73 71 74 -1,
74 71 77 -1,
245 249 247 -1,
2 5 3 -1,
5 9 7 -1,
5 11 9 -1,
5 12 11 -1,
12 19 15 -1,
15 19 16 -1,
47 45 48 -1,
45 43 48 -1,
21 25 22 -1,
19 29 21 -1,
25 29 27 -1,
21 29 25 -1,
37 35 39 -1,
39 35 41 -1,
41 35 43 -1,
2 33 5 -1,
201 33 203 -1,
203 33 205 -1,
205 33 207 -1,
207 33 209 -1,
245 33 249 -1,
215 33 217 -1,
217 33 219 -1,
29 33 31 -1,
237 33 239 -1,
239 33 241 -1,
249 33 251 -1,
251 33 2 -1,
48 33 51 -1,
35 33 43 -1,
51 33 53 -1,
53 33 55 -1,
55 33 57 -1,
57 33 59 -1,
241 33 245 -1,
59 33 61 -1,
105 33 109 -1,
61 33 63 -1,
63 33 65 -1,
65 33 67 -1,
67 33 69 -1,
69 33 71 -1,
209 33 215 -1,
77 33 79 -1,
79 33 81 -1,
5 33 12 -1,
84 33 87 -1,
219 33 225 -1,
81 33 84 -1,
99 33 101 -1,
12 33 19 -1,
101 33 103 -1,
103 33 105 -1,
43 33 48 -1,
109 33 110 -1,
110 33 113 -1,
113 33 115 -1,
115 33 116 -1,
116 33 119 -1,
119 33 121 -1,
121 33 122 -1,
122 33 125 -1,
125 33 127 -1,
127 33 129 -1,
129 33 131 -1,
225 33 237 -1,
131 33 133 -1,
133 33 135 -1,
135 33 137 -1,
87 33 93 -1,
137 33 139 -1,
139 33 141 -1,
141 33 143 -1,
143 33 145 -1,
145 33 147 -1,
147 33 149 -1,
149 33 151 -1,
151 33 153 -1,
153 33 155 -1,
155 33 157 -1,
157 33 159 -1,
159 33 161 -1,
19 33 29 -1,
161 33 163 -1,
163 33 165 -1,
165 33 166 -1,
166 33 169 -1,
169 33 171 -1,
171 33 173 -1,
173 33 175 -1,
175 33 177 -1,
177 33 179 -1,
179 33 181 -1,
181 33 183 -1,
71 33 77 -1,
183 33 185 -1,
185 33 187 -1,
187 33 189 -1,
189 33 191 -1,
191 33 193 -1,
193 33 195 -1,
195 33 197 -1,
197 33 199 -1,
93 33 99 -1,
199 33 201 -1 ] } }
Shape { appearance Appearance { material Material { diffuseColor 0.7 0.72 0.74 } } geometry IndexedFaceSet { solid FALSE coord Coordinate { point [ 0.707541 -1.563398 1.078262,
0.707432 -1.563383 1.082677,
0.912156 0.011420 1.082677,
0.912266 0.011405 1.078262,
0.707869 -1.563440 1.073857,
0.912593 0.011363 1.073857,
0.708413 -1.563511 1.069475,
0.913138 0.011292 1.069475,
0.913898 0.011193 1.065125,
0.709174 -1.563610 1.065125,
0.710148 -1.563737 1.060819,
0.914873 0.011067 1.060819,
0.711335 -1.563891 1.056567,
0.916059 0.010912 1.056567,
0.712730 -1.564072 1.052380,
0.917454 0.010731 1.052380,
0.714330 -1.564280 1.048269,
0.919054 0.010523 1.048269,
0.716131 -1.564514 1.044243,
0.920856 0.010289 1.044243,
0.922854 0.010029 1.040312,
0.718130 -1.564774 1.040312,
0.720320 -1.565059 1.036487,
0.925044 0.009744 1.036487,
0.927420 0.009435 1.032777,
0.722696 -1.565368 1.032777,
0.725253 -1.565700 1.029191,
0.929977 0.009103 1.029191,
0.932708 0.008748 1.025737,
0.727984 -1.566055 1.025737,
0.730882 -1.566432 1.022426,
0.935606 0.008371 1.022426,
0.938664 0.007974 1.019264,
0.733940 -1.566830 1.019264,
0.737151 -1.567247 1.016260,
0.941875 0.007556 1.016260,
0.740506 -1.567683 1.013420,
0.945230 0.007120 1.013420,
0.743997 -1.568137 1.010754,
0.948722 0.006666 1.010754,
0.747616 -1.568607 1.008265,
0.952341 0.006196 1.008265,
0.751354 -1.569093 1.005962,
0.956078 0.005710 1.005962,
0.755200 -1.569593 1.003850,
0.959925 0.005210 1.003850,
0.759147 -1.570106 1.001934,
0.963871 0.004697 1.001934,
0.763183 -1.570631 1.000218,
0.967907 0.004172 1.000218,
0.767299 -1.571166 0.998707,
0.972023 0.003637 0.998707,
0.771484 -1.571710 0.997405,
0.976208 0.003093 0.997405,
0.980453 0.002541 0.996315,
0.775729 -1.572262 0.996315,
0.984746 0.001983 0.995440,
0.780022 -1.572820 0.995440,
0.989077 0.001420 0.994782,
0.784353 -1.573383 0.994782,
0.788711 -1.573950 0.994342,
0.993435 0.000853 0.994342,
0.793086 -1.574518 0.994122,
0.997810 0.000285 0.994122,
1.002190 -0.000285 0.994122,
0.797466 -1.575088 0.994122,
0.801840 -1.575657 0.994342,
1.006565 -0.000853 0.994342,
0.806198 -1.576223 0.994782,
1.010923 -0.001420 0.994782,
0.810529 -1.576786 0.995440,
1.015254 -0.001983 0.995440,
0.814823 -1.577344 0.996315,
1.019547 -0.002541 0.996315,
0.819067 -1.577896 0.997405,
1.023792 -0.003093 0.997405,
0.823253 -1.578440 0.998707,
1.027977 -0.003637 0.998707,
0.827368 -1.578975 1.000218,
1.032093 -0.004172 1.000218,
0.831404 -1.579500 1.001934,
1.036129 -0.004697 1.001934,
0.835351 -1.580013 1.003850,
1.040075 -0.005210 1.003850,
0.839197 -1.580513 1.005962,
1.043922 -0.005710 1.005962,
0.842935 -1.580999 1.008265,
1.047659 -0.006196 1.008265,
0.846554 -1.581469 1.010754,
1.051278 -0.006666 1.010754,
0.850045 -1.581923 1.013420,
1.054770 -0.007120 1.013420,
0.853400 -1.582359 1.016260,
1.058125 -0.007556 1.016260,
1.061336 -0.007974 1.019264,
0.856611 -1.582777 1.019264,
0.859669 -1.583174 1.022426,
1.064394 -0.008371 1.022426,
1.067292 -0.008748 1.025737,
0.862568 -1.583551 1.025737,
1.070023 -0.009103 1.029191,
0.865299 -1.583906 1.029191,
0.867855 -1.584239 1.032777,
1.072580 -0.009435 1.032777,
0.870232 -1.584547 1.036487,
1.074956 -0.009744 1.036487,
1.077146 -0.010029 1.040312,
0.872422 -1.584832 1.040312,
1.079144 -0.010289 1.044243,
0.874420 -1.585092 1.044243,
1.080946 -0.010523 1.048269,
0.876221 -1.585326 1.048269,
1.082546 -0.010731 1.052380,
0.877821 -1.585534 1.052380,
0.879216 -1.585715 1.056567,
1.083941 -0.010912 1.056567,
0.880403 -1.585870 1.060819,
1.085127 -0.011067 1.060819,
1.086102 -0.011193 1.065125,
0.881377 -1.585996 1.065125,
0.882138 -1.586095 1.069475,
1.086862 -0.011292 1.069475,
0.882683 -1.586166 1.073857,
1.087407 -0.011363 1.073857,
0.883010 -1.586209 1.078262,
1.087734 -0.011405 1.078262,
0.883119 -1.586223 1.082677,
1.087844 -0.011420 1.082677,
1.087734 -0.011405 1.087093,
0.883010 -1.586209 1.087093,
0.882683 -1.586166 1.091497,
1.087407 -0.011363 1.091497,
1.086862 -0.011292 1.095880,
0.882138 -1.586095 1.095880,
0.881377 -1.585996 1.100229,
1.086102 -0.011193 1.100229,
0.880403 -1.585870 1.104536,
1.085127 -0.011067 1.104536,
0.879216 -1.585715 1.108787,
1.083941 -0.010912 1.108787,
1.082546 -0.010731 1.112974,
0.877821 -1.585534 1.112974,
0.876221 -1.585326 1.117086,
1.080946 -0.010523 1.117086,
0.874420 -1.585092 1.121112,
1.079144 -0.010289 1.121112,
0.872422 -1.584832 1.125042,
1.077146 -0.010029 1.125042,
0.870232 -1.584547 1.128867,
1.074956 -0.009744 1.128867,
0.867855 -1.584239 1.132578,
1.072580 -0.009435 1.132578,
0.865299 -1.583906 1.136164,
1.070023 -0.009103 1.136164,
1.067292 -0.008748 1.139617,
0.862568 -1.583551 1.139617,
0.859669 -1.583174 1.142929,
1.064394 -0.008371 1.142929,
0.856611 -1.582777 1.146091,
1.061336 -0.007974 1.146091,
0.853400 -1.582359 1.149095,
1.058125 -0.007556 1.149095,
0.850045 -1.581923 1.151934,
1.054770 -0.007120 1.151934,
1.051278 -0.006666 1.154601,
0.846554 -1.581469 1.154601,
0.842935 -1.580999 1.157089,
1.047659 -0.006196 1.157089,
0.839197 -1.580513 1.159392,
1.043922 -0.005710 1.159392,
0.835351 -1.580013 1.161504,
1.040075 -0.005210 1.161504,
0.831404 -1.579500 1.163421,
1.036129 -0.004697 1.163421,
1.032093 -0.004172 1.165136,
0.827368 -1.578975 1.165136,
0.823253 -1.578440 1.166647,
1.027977 -0.003637 1.166647,
0.819067 -1.577896 1.167949,
1.023792 -0.003093 1.167949,
1.019547 -0.002541 1.169039,
0.814823 -1.577344 1.169039,
1.015254 -0.001983 1.169914,
0.810529 -1.576786 1.169914,
0.806198 -1.576223 1.170572,
1.010923 -0.001420 1.170572,
0.801840 -1.575657 1.171012,
1.006565 -0.000853 1.171012,
0.797466 -1.575088 1.171232,
1.002190 -0.000285 1.171232,
0.793086 -1.574518 1.171232,
0.997810 0.000285 1.171232,
0.993435 0.000853 1.171012,
0.788711 -1.573950 1.171012,
0.989077 0.001420 1.170572,
0.784353 -1.573383 1.170572,
0.780022 -1.572820 1.169914,
0.984746 0.001983 1.169914,
0.980453 0.002541 1.169039,
0.775729 -1.572262 1.169039,
0.771484 -1.571710 1.167949,
0.976208 0.003093 1.167949,
0.972023 0.003637 1.166647,
0.767299 -1.571166 1.166647,
0.763183 -1.570631 1.165136,
0.967907 0.004172 1.165136,
0.963871 0.004697 1.163421,
0.759147 -1.570106 1.163421,
0.755200 -1.569593 1.161504,
0.959925 0.005210 1.161504,
0.751354 -1.569093 1.159392,
0.956078 0.005710 1.159392,
0.952341 0.006196 1.157089,
0.747616 -1.568607 1.157089,
0.948722 0.006666 1.154601,
0.743997 -1.568137 1.154601,
0.945230 0.007120 1.151934,
0.740506 -1.567683 1.151934,
0.737151 -1.567247 1.149095,
0.941875 0.007556 1.149095,
0.938664 0.007974 1.146091,
0.733940 -1.566830 1.146091,
0.730882 -1.566432 1.142929,
0.935606 0.008371 1.142929,
0.727984 -1.566055 1.139617,
0.932708 0.008748 1.139617,
0.725253 -1.565700 1.136164,
0.929977 0.009103 1.136164,
0.927420 0.009435 1.132578,
0.722696 -1.565368 1.132578,
0.720320 -1.565059 1.128867,
0.925044 0.009744 1.128867,
0.922854 0.010029 1.125042,
0.718130 -1.564774 1.125042,
0.716131 -1.564514 1.121112,
0.920856 0.010289 1.121112,
0.714330 -1.564280 1.117086,
0.919054 0.010523 1.117086,
0.712730 -1.564072 1.112974,
0.917454 0.010731 1.112974,
0.711335 -1.563891 1.108787,
0.916059 0.010912 1.108787,
0.914873 0.011067 1.104536,
0.710148 -1.563737 1.104536,
0.913898 0.011193 1.100229,
0.709174 -1.563610 1.100229,
0.913138 0.011292 1.095880,
0.708413 -1.563511 1.095880,
0.912593 0.011363 1.091497,
0.707869 -1.563440 1.091497,
0.707541 -1.563398 1.087093,
0.912266 0.011405 1.087093 ] } coordIndex [ 0 1 2 -1,
0 2 3 -1,
4 3 5 -1,
4 0 3 -1,
6 5 7 -1,
6 7 8 -1,
6 4 5 -1,
9 6 8 -1,
10 8 11 -1,
10 9 8 -1,
12 11 13 -1,
12 10 11 -1,
14 13 15 -1,
14 12 13 -1,
16 15 17 -1,
16 14 15 -1,
18 17 19 -1,
18 19 20 -1,
18 16 17 -1,
21 18 20 -1,
22 21 20 -1,
22 20 23 -1,
22 23 24 -1,
25 22 24 -1,
26 25 24 -1,
26 24 27 -1,
26 27 28 -1,
29 26 28 -1,
30 29 28 -1,
30 28 31 -1,
30 31 32 -1,
33 30 32 -1,
34 33 32 -1,
34 32 35 -1,
36 34 35 -1,
36 35 37 -1,
38 36 37 -1,
38 37 39 -1,
40 38 39 -1,
40 39 41 -1,
42 40 41 -1,
42 41 43 -1,
44 42 43 -1,
44 43 45 -1,
46 45 47 -1,
46 44 45 -1,
48 47 49 -1,
48 46 47 -1,
50 49 51 -1,
50 48 49 -1,
52 51 53 -1,
52 53 54 -1,
52 50 51 -1,
55 54 56 -1,
55 52 54 -1,
57 56 58 -1,
57 55 56 -1,
59 57 58 -1,
60 58 61 -1,
60 59 58 -1,
62 61 63 -1,
62 63 64 -1,
62 60 61 -1,
65 62 64 -1,
66 64 67 -1,
66 65 64 -1,
68 67 69 -1,
68 66 67 -1,
70 69 71 -1,
70 68 69 -1,
72 71 73 -1,
72 70 71 -1,
74 72 73 -1,
74 73 75 -1,
76 74 75 -1,
76 75 77 -1,
78 76 77 -1,
78 77 79 -1,
80 78 79 -1,
80 79 81 -1,
82 80 81 -1,
82 81 83 -1,
84 82 83 -1,
84 83 85 -1,
86 84 85 -1,
86 85 87 -1,
88 86 87 -1,
88 87 89 -1,
90 88 89 -1,
90 89 91 -1,
92 90 91 -1,
92 91 93 -1,
92 93 94 -1,
95 92 94 -1,
96 95 94 -1,
96 94 97 -1,
96 97 98 -1,
99 96 98 -1,
99 98 100 -1,
101 99 100 -1,
102 101 100 -1,
102 100 103 -1,
104 102 103 -1,
104 103 105 -1,
104 105 106 -1,
107 104 106 -1,
107 106 108 -1,
109 107 108 -1,
109 108 110 -1,
111 109 110 -1,
111 110 112 -1,
113 111 112 -1,
114 113 112 -1,
114 112 115 -1,
116 115 117 -1,
116 117 118 -1,
116 114 115 -1,
119 116 118 -1,
120 118 121 -1,
120 119 118 -1,
122 121 123 -1,
122 120 121 -1,
124 122 123 -1,
124 123 125 -1,
126 124 125 -1,
126 125 127 -1,
126 127 128 -1,
129 126 128 -1,
130 129 128 -1,
130 128 131 -1,
130 131 132 -1,
133 130 132 -1,
134 133 132 -1,
134 132 135 -1,
136 134 135 -1,
136 135 137 -1,
138 136 137 -1,
138 137 139 -1,
138 139 140 -1,
141 138 140 -1,
142 141 140 -1,
142 140 143 -1,
144 142 143 -1,
144 143 145 -1,
146 144 145 -1,
146 145 147 -1,
148 146 147 -1,
148 147 149 -1,
150 149 151 -1,
150 148 149 -1,
152 151 153 -1,
152 153 154 -1,
152 150 151 -1,
155 152 154 -1,
156 154 157 -1,
156 155 154 -1,
158 157 159 -1,
158 156 157 -1,
160 159 161 -1,
160 158 159 -1,
162 161 163 -1,
162 163 164 -1,
162 160 161 -1,
165 162 164 -1,
166 164 167 -1,
166 165 164 -1,
168 167 169 -1,
168 166 167 -1,
170 169 171 -1,
170 168 169 -1,
172 171 173 -1,
172 173 174 -1,
172 170 171 -1,
175 172 174 -1,
176 175 174 -1,
176 174 177 -1,
178 176 177 -1,
178 177 179 -1,
178 179 180 -1,
181 180 182 -1,
181 178 180 -1,
183 181 182 -1,
184 182 185 -1,
184 183 182 -1,
186 185 187 -1,
186 184 185 -1,
188 187 189 -1,
188 186 187 -1,
190 189 191 -1,
190 191 192 -1,
190 188 189 -1,
193 190 192 -1,
193 192 194 -1,
195 193 194 -1,
196 194 197 -1,
196 197 198 -1,
196 195 194 -1,
199 196 198 -1,
200 198 201 -1,
200 201 202 -1,
200 199 198 -1,
203 200 202 -1,
204 202 205 -1,
204 205 206 -1,
204 203 202 -1,
207 204 206 -1,
208 206 209 -1,
208 207 206 -1,
210 209 211 -1,
210 211 212 -1,
210 208 209 -1,
213 212 214 -1,
213 210 212 -1,
215 214 216 -1,
215 213 214 -1,
217 215 216 -1,
218 216 219 -1,
218 219 220 -1,
218 217 216 -1,
221 218 220 -1,
222 220 223 -1,
222 221 220 -1,
224 222 223 -1,
224 223 225 -1,
226 224 225 -1,
226 225 227 -1,
226 227 228 -1,
229 226 228 -1,
230 229 228 -1,
230 228 231 -1,
230 231 232 -1,
233 230 232 -1,
234 233 232 -1,
234 232 235 -1,
236 234 235 -1,
236 235 237 -1,
238 236 237 -1,
238 237 239 -1,
240 238 239 -1,
240 239 241 -1,
240 241 242 -1,
243 240 242 -1,
243 242 244 -1,
245 243 244 -1,
245 244 246 -1,
247 245 246 -1,
247 246 248 -1,
249 247 248 -1,
250 248 251 -1,
250 249 248 -1,
1 251 2 -1,
1 250 251 -1,
199 195 196 -1,
208 204 207 -1,
215 208 210 -1,
215 210 213 -1,
99 101 102 -1,
222 218 221 -1,
226 222 224 -1,
229 222 226 -1,
86 88 90 -1,
86 90 92 -1,
233 229 230 -1,
236 233 234 -1,
245 240 243 -1,
249 245 247 -1,
4 1 0 -1,
12 6 9 -1,
12 9 10 -1,
46 48 50 -1,
44 46 50 -1,
21 14 16 -1,
21 16 18 -1,
38 40 42 -1,
38 42 44 -1,
38 50 52 -1,
38 44 50 -1,
26 22 25 -1,
34 36 38 -1,
33 245 249 -1,
33 200 203 -1,
33 6 12 -1,
33 203 204 -1,
33 4 6 -1,
33 12 14 -1,
33 215 217 -1,
33 217 218 -1,
33 195 199 -1,
33 21 22 -1,
33 26 29 -1,
33 99 102 -1,
33 29 30 -1,
33 236 238 -1,
33 238 240 -1,
33 218 222 -1,
33 1 4 -1,
33 249 250 -1,
33 250 1 -1,
33 52 55 -1,
33 204 208 -1,
33 55 57 -1,
33 57 59 -1,
33 59 60 -1,
33 60 62 -1,
33 229 233 -1,
33 62 65 -1,
33 65 66 -1,
33 66 68 -1,
33 68 70 -1,
33 14 21 -1,
33 70 72 -1,
33 72 74 -1,
33 74 76 -1,
33 76 78 -1,
33 208 215 -1,
33 78 80 -1,
33 80 82 -1,
33 82 84 -1,
33 84 86 -1,
33 86 92 -1,
33 92 95 -1,
33 95 96 -1,
33 96 99 -1,
33 102 104 -1,
33 104 107 -1,
33 240 245 -1,
33 107 109 -1,
33 109 111 -1,
33 111 113 -1,
33 113 114 -1,
33 114 116 -1,
33 116 119 -1,
33 119 120 -1,
33 120 122 -1,
33 38 52 -1,
33 122 124 -1,
33 124 126 -1,
33 126 129 -1,
33 129 130 -1,
33 130 133 -1,
33 133 134 -1,
33 222 229 -1,
33 134 136 -1,
33 136 138 -1,
33 138 141 -1,
33 233 236 -1,
33 141 142 -1,
33 142 144 -1,
33 144 146 -1,
33 146 148 -1,
33 148 150 -1,
33 150 152 -1,
33 152 155 -1,
33 155 156 -1,
33 34 38 -1,
33 156 158 -1,
33 22 26 -1,
33 158 160 -1,
33 160 162 -1,
33 162 165 -1,
33 165 166 -1,
33 166 168 -1,
33 168 170 -1,
33 170 172 -1,
33 172 175 -1,
33 175 176 -1,
33 176 178 -1,
33 178 181 -1,
33 181 183 -1,
33 183 184 -1,
33 184 186 -1,
33 186 188 -1,
33 188 190 -1,
33 190 193 -1,
33 193 195 -1,
33 199 200 -1,
49 47 51 -1,
51 47 53 -1,
47 45 53 -1,
19 24 20 -1,
20 24 23 -1,
24 28 27 -1,
37 35 39 -1,
39 35 41 -1,
41 35 43 -1,
202 206 205 -1,
201 32 202 -1,
5 32 7 -1,
7 32 8 -1,
45 32 53 -1,
13 32 15 -1,
214 32 216 -1,
15 32 17 -1,
216 32 219 -1,
17 32 19 -1,
227 32 228 -1,
19 32 24 -1,
28 32 31 -1,
202 32 206 -1,
43 32 45 -1,
53 32 54 -1,
54 32 56 -1,
56 32 58 -1,
58 32 61 -1,
61 32 63 -1,
206 32 211 -1,
63 32 64 -1,
64 32 67 -1,
67 32 69 -1,
69 32 71 -1,
71 32 73 -1,
73 32 75 -1,
8 32 13 -1,
75 32 77 -1,
211 32 214 -1,
77 32 79 -1,
79 32 81 -1,
206 211 209 -1,
235 32 239 -1,
81 32 85 -1,
93 32 94 -1,
94 32 97 -1,
97 32 98 -1,
219 32 227 -1,
103 32 105 -1,
85 32 93 -1,
105 32 106 -1,
106 32 108 -1,
108 32 110 -1,
110 32 112 -1,
112 32 115 -1,
115 32 117 -1,
117 32 118 -1,
118 32 121 -1,
121 32 123 -1,
123 32 125 -1,
35 32 43 -1,
125 32 127 -1,
127 32 128 -1,
128 32 131 -1,
239 32 248 -1,
131 32 132 -1,
132 32 135 -1,
135 32 137 -1,
137 32 139 -1,
139 32 140 -1,
140 32 143 -1,
143 32 145 -1,
145 32 147 -1,
147 32 149 -1,
149 32 151 -1,
151 32 153 -1,
153 32 154 -1,
154 32 157 -1,
157 32 159 -1,
228 32 235 -1,
159 32 161 -1,
161 32 163 -1,
163 32 164 -1,
98 32 103 -1,
164 32 167 -1,
248 32 5 -1,
167 32 169 -1,
169 32 171 -1,
171 32 173 -1,
173 32 174 -1,
174 32 177 -1,
177 32 179 -1,
179 32 180 -1,
180 32 182 -1,
182 32 185 -1,
185 32 187 -1,
187 32 189 -1,
189 32 191 -1,
24 32 28 -1,
191 32 192 -1,
192 32 194 -1,
194 32 197 -1,
197 32 198 -1,
198 32 201 -1,
211 214 212 -1,
100 98 103 -1,
219 227 220 -1,
220 227 223 -1,
223 227 225 -1,
89 87 91 -1,
91 87 93 -1,
87 85 93 -1,
228 232 231 -1,
228 235 232 -1,
83 81 85 -1,
235 239 237 -1,
239 242 241 -1,
242 246 244 -1,
239 248 242 -1,
242 248 246 -1,
248 2 251 -1,
2 5 3 -1,
248 5 2 -1,
8 13 11 -1 ] } }
