%TF.GenerationSoftware,KiCad,Pcbnew,10.0.6*%
%TF.CreationDate,2026-09-12T03:45:01-05:00*%
%TF.ProjectId,KK_main_module,4b4b5f6d-6169-46e5-9f6d-6f64756c652e,C.6 flat stack engineering*%
%TF.SameCoordinates,Original*%
%TF.FileFunction,Soldermask,Top*%
%TF.FilePolarity,Negative*%
%FSLAX46Y46*%
G04 Gerber Fmt 4.6, Leading zero omitted, Abs format (unit mm)*
G04 Created by KiCad (PCBNEW 10.0.6) date 2026-09-12 03:45:01*
%MOMM*%
%LPD*%
G01*
G04 APERTURE LIST*
G04 Aperture macros list*
%AMRoundRect*
0 Rectangle with rounded corners*
0 $1 Rounding radius*
0 $2 $3 $4 $5 $6 $7 $8 $9 X,Y pos of 4 corners*
0 Add a 4 corners polygon primitive as box body*
4,1,4,$2,$3,$4,$5,$6,$7,$8,$9,$2,$3,0*
0 Add four circle primitives for the rounded corners*
1,1,$1+$1,$2,$3*
1,1,$1+$1,$4,$5*
1,1,$1+$1,$6,$7*
1,1,$1+$1,$8,$9*
0 Add four rect primitives between the rounded corners*
20,1,$1+$1,$2,$3,$4,$5,0*
20,1,$1+$1,$4,$5,$6,$7,0*
20,1,$1+$1,$6,$7,$8,$9,0*
20,1,$1+$1,$8,$9,$2,$3,0*%
G04 Aperture macros list end*
%ADD10R,1.900000X1.900000*%
%ADD11C,1.900000*%
%ADD12R,1.850000X1.850000*%
%ADD13C,1.850000*%
%ADD14C,2.000000*%
%ADD15C,1.600000*%
%ADD16R,1.700000X1.700000*%
%ADD17C,1.700000*%
%ADD18C,1.712000*%
%ADD19RoundRect,0.102000X-0.754000X-0.754000X0.754000X-0.754000X0.754000X0.754000X-0.754000X0.754000X0*%
%ADD20RoundRect,0.250000X-0.350000X-0.625000X0.350000X-0.625000X0.350000X0.625000X-0.350000X0.625000X0*%
%ADD21O,1.200000X1.750000*%
%ADD22RoundRect,0.250000X-0.950000X-0.550000X0.950000X-0.550000X0.950000X0.550000X-0.950000X0.550000X0*%
%ADD23O,2.400000X1.600000*%
%ADD24RoundRect,0.250000X-0.600000X-0.725000X0.600000X-0.725000X0.600000X0.725000X-0.600000X0.725000X0*%
%ADD25O,1.700000X1.950000*%
%ADD26R,1.800000X1.800000*%
%ADD27C,1.800000*%
%ADD28RoundRect,0.249999X-0.850001X0.850001X-0.850001X-0.850001X0.850001X-0.850001X0.850001X0.850001X0*%
%ADD29C,2.200000*%
%ADD30RoundRect,0.250000X0.550000X-0.950000X0.550000X0.950000X-0.550000X0.950000X-0.550000X-0.950000X0*%
%ADD31O,1.600000X2.400000*%
G04 APERTURE END LIST*
D10*
%TO.C,SW5*%
X77000000Y-67750000D03*
D11*
X85000000Y-67750000D03*
X77000000Y-72250000D03*
X85000000Y-72250000D03*
%TD*%
D10*
%TO.C,SW3*%
X11000000Y-67750000D03*
D11*
X19000000Y-67750000D03*
X11000000Y-72250000D03*
X19000000Y-72250000D03*
%TD*%
D10*
%TO.C,SW8*%
X55000000Y-67750000D03*
D11*
X63000000Y-67750000D03*
X55000000Y-72250000D03*
X63000000Y-72250000D03*
%TD*%
D10*
%TO.C,SW7*%
X66000000Y-57750000D03*
D11*
X74000000Y-57750000D03*
X66000000Y-62250000D03*
X74000000Y-62250000D03*
%TD*%
D12*
%TO.C,D3*%
X80000000Y-30810000D03*
D13*
X80000000Y-28270000D03*
X80000000Y-25730000D03*
X80000000Y-23190000D03*
%TD*%
D12*
%TO.C,J2*%
X26000000Y-42390000D03*
D13*
X26000000Y-39850000D03*
X26000000Y-37310000D03*
X26000000Y-34770000D03*
X26000000Y-32230000D03*
X26000000Y-29690000D03*
X26000000Y-27150000D03*
X26000000Y-24610000D03*
%TD*%
D10*
%TO.C,SW4*%
X33000000Y-67750000D03*
D11*
X41000000Y-67750000D03*
X33000000Y-72250000D03*
X41000000Y-72250000D03*
%TD*%
D10*
%TO.C,SW2*%
X22000000Y-77750000D03*
D11*
X30000000Y-77750000D03*
X22000000Y-82250000D03*
X30000000Y-82250000D03*
%TD*%
D10*
%TO.C,SW9*%
X44000000Y-79250000D03*
D11*
X52000000Y-79250000D03*
X44000000Y-83750000D03*
X52000000Y-83750000D03*
%TD*%
D10*
%TO.C,SW6*%
X66000000Y-77750000D03*
D11*
X74000000Y-77750000D03*
X66000000Y-82250000D03*
X74000000Y-82250000D03*
%TD*%
D10*
%TO.C,SW1*%
X22000000Y-57750000D03*
D11*
X30000000Y-57750000D03*
X22000000Y-62250000D03*
X30000000Y-62250000D03*
%TD*%
D14*
%TO.C,TP6*%
X59500000Y-76500000D03*
%TD*%
%TO.C,TP17*%
X44500000Y-39500000D03*
%TD*%
D15*
%TO.C,R43*%
X91500000Y-56420000D03*
X91500000Y-66580000D03*
%TD*%
%TO.C,R38*%
X39920000Y-32500000D03*
X50080000Y-32500000D03*
%TD*%
D16*
%TO.C,C2*%
X63500000Y-90270000D03*
D17*
X63500000Y-87730000D03*
%TD*%
D18*
%TO.C,MOD1*%
X40380000Y-22480000D03*
X40380000Y-19940000D03*
X40380000Y-17400000D03*
X55620000Y-22480000D03*
X40380000Y-14860000D03*
X40380000Y-12320000D03*
D19*
X55620000Y-27560000D03*
D18*
X40380000Y-9780000D03*
X40380000Y-7240000D03*
X55620000Y-7240000D03*
X55620000Y-9780000D03*
X55620000Y-12320000D03*
X55620000Y-14860000D03*
X55620000Y-17400000D03*
X55620000Y-19900000D03*
X55620000Y-25020000D03*
X40380000Y-25020000D03*
X40380000Y-27560000D03*
%TD*%
D14*
%TO.C,TP32*%
X13500000Y-4500000D03*
%TD*%
D16*
%TO.C,Q2*%
X2960000Y-65250000D03*
D17*
X5500000Y-65250000D03*
X8040000Y-65250000D03*
%TD*%
D14*
%TO.C,TP31*%
X22500000Y-13500000D03*
%TD*%
%TO.C,TP2*%
X29500000Y-73500000D03*
%TD*%
D16*
%TO.C,C17*%
X28250000Y-100550000D03*
D17*
X30750000Y-100550000D03*
%TD*%
D16*
%TO.C,C22*%
X55230000Y-43000000D03*
D17*
X57770000Y-43000000D03*
%TD*%
D20*
%TO.C,J5*%
X37000000Y-100550000D03*
D21*
X39000000Y-100550000D03*
%TD*%
D15*
%TO.C,R22*%
X80500000Y-75920000D03*
X80500000Y-86080000D03*
%TD*%
D14*
%TO.C,TP12*%
X44500000Y-75000000D03*
%TD*%
D16*
%TO.C,Q4*%
X13750000Y-90460000D03*
D17*
X13750000Y-93000000D03*
X13750000Y-95540000D03*
%TD*%
D16*
%TO.C,C21*%
X57770000Y-46950000D03*
D17*
X55230000Y-46950000D03*
%TD*%
D16*
%TO.C,C18*%
X61500000Y-48770000D03*
D17*
X61500000Y-46230000D03*
%TD*%
D14*
%TO.C,TP18*%
X48500000Y-39500000D03*
%TD*%
D15*
%TO.C,R36*%
X65000000Y-26420000D03*
X65000000Y-36580000D03*
%TD*%
%TO.C,R30*%
X59500000Y-25920000D03*
X59500000Y-36080000D03*
%TD*%
D16*
%TO.C,C8*%
X10000000Y-33730000D03*
D17*
X10000000Y-36270000D03*
%TD*%
D15*
%TO.C,R10*%
X77000000Y-86080000D03*
X77000000Y-75920000D03*
%TD*%
D16*
%TO.C,Q6*%
X37040000Y-35750000D03*
D17*
X34500000Y-35750000D03*
X31960000Y-35750000D03*
%TD*%
D15*
%TO.C,R35*%
X40420000Y-36000000D03*
X50580000Y-36000000D03*
%TD*%
D16*
%TO.C,C15*%
X32270000Y-11450000D03*
D17*
X29730000Y-11450000D03*
%TD*%
D15*
%TO.C,R7*%
X88500000Y-89080000D03*
X88500000Y-78920000D03*
%TD*%
%TO.C,R5*%
X88000000Y-76080000D03*
X88000000Y-65920000D03*
%TD*%
%TO.C,R8*%
X92000000Y-79580000D03*
X92000000Y-69420000D03*
%TD*%
D10*
%TO.C,U2*%
X25450000Y-6500000D03*
D11*
X27990000Y-6500000D03*
X30530000Y-6500000D03*
%TD*%
D15*
%TO.C,R33*%
X51500000Y-53920000D03*
X51500000Y-64080000D03*
%TD*%
D22*
%TO.C,U3*%
X44190000Y-50810000D03*
D23*
X44190000Y-48270000D03*
X44190000Y-45730000D03*
X44190000Y-43190000D03*
X51810000Y-43190000D03*
X51810000Y-45730000D03*
X51810000Y-48270000D03*
X51810000Y-50810000D03*
%TD*%
D15*
%TO.C,R26*%
X6500000Y-20920000D03*
X6500000Y-31080000D03*
%TD*%
%TO.C,R39*%
X32000000Y-53080000D03*
X32000000Y-42920000D03*
%TD*%
D24*
%TO.C,J1*%
X53250000Y-100525000D03*
D25*
X55750000Y-100525000D03*
X58250000Y-100525000D03*
X60750000Y-100525000D03*
%TD*%
D15*
%TO.C,R40*%
X79080000Y-5500000D03*
X68920000Y-5500000D03*
%TD*%
D14*
%TO.C,TP22*%
X56000000Y-37000000D03*
%TD*%
D26*
%TO.C,D1*%
X17725000Y-8000000D03*
D27*
X20265000Y-8000000D03*
%TD*%
D16*
%TO.C,Q1*%
X8960000Y-8250000D03*
D17*
X11500000Y-8250000D03*
X14040000Y-8250000D03*
%TD*%
D15*
%TO.C,R41*%
X74000000Y-30080000D03*
X74000000Y-19920000D03*
%TD*%
%TO.C,R16*%
X17000000Y-86080000D03*
X17000000Y-75920000D03*
%TD*%
D14*
%TO.C,TP11*%
X35000000Y-39500000D03*
%TD*%
D16*
%TO.C,C27*%
X85230000Y-9500000D03*
D17*
X87770000Y-9500000D03*
%TD*%
D16*
%TO.C,C25*%
X39250000Y-50450000D03*
D17*
X36750000Y-50450000D03*
%TD*%
D14*
%TO.C,TP33*%
X73500000Y-73500000D03*
%TD*%
%TO.C,TP1*%
X54000000Y-33000000D03*
%TD*%
D15*
%TO.C,R4*%
X84000000Y-86080000D03*
X84000000Y-75920000D03*
%TD*%
D28*
%TO.C,D2*%
X23500000Y-91920000D03*
D29*
X23500000Y-102080000D03*
%TD*%
D16*
%TO.C,C10*%
X72270000Y-52000000D03*
D17*
X69730000Y-52000000D03*
%TD*%
D16*
%TO.C,C16*%
X16730000Y-95000000D03*
D17*
X19270000Y-95000000D03*
%TD*%
D15*
%TO.C,R28*%
X70920000Y-89000000D03*
X81080000Y-89000000D03*
%TD*%
D16*
%TO.C,C7*%
X25000000Y-45730000D03*
D17*
X25000000Y-48270000D03*
%TD*%
D16*
%TO.C,C23*%
X44000000Y-54230000D03*
D17*
X44000000Y-56770000D03*
%TD*%
D15*
%TO.C,R14*%
X69080000Y-23000000D03*
X58920000Y-23000000D03*
%TD*%
D20*
%TO.C,J4*%
X17000000Y-100550000D03*
D21*
X19000000Y-100550000D03*
%TD*%
D14*
%TO.C,TP14*%
X66500000Y-52000000D03*
%TD*%
D15*
%TO.C,R18*%
X84500000Y-24420000D03*
X84500000Y-34580000D03*
%TD*%
D16*
%TO.C,C13*%
X19050000Y-60750000D03*
D17*
X19050000Y-58250000D03*
%TD*%
D14*
%TO.C,TP29*%
X19500000Y-90500000D03*
%TD*%
%TO.C,TP9*%
X9500000Y-4500000D03*
%TD*%
%TO.C,TP10*%
X22500000Y-73500000D03*
%TD*%
%TO.C,TP13*%
X35500000Y-43500000D03*
%TD*%
D16*
%TO.C,C11*%
X76950000Y-56730000D03*
D17*
X76950000Y-59270000D03*
%TD*%
D16*
%TO.C,C6*%
X67500000Y-90270000D03*
D17*
X67500000Y-87730000D03*
%TD*%
D14*
%TO.C,TP21*%
X72000000Y-66500000D03*
%TD*%
%TO.C,TP16*%
X61500000Y-43000000D03*
%TD*%
%TO.C,TP8*%
X55500000Y-80500000D03*
%TD*%
D15*
%TO.C,R42*%
X91500000Y-17420000D03*
X91500000Y-27580000D03*
%TD*%
%TO.C,R24*%
X5500000Y-18080000D03*
X5500000Y-7920000D03*
%TD*%
D16*
%TO.C,C14*%
X33230000Y-7500000D03*
D17*
X35770000Y-7500000D03*
%TD*%
D15*
%TO.C,R6*%
X85000000Y-99080000D03*
X85000000Y-88920000D03*
%TD*%
%TO.C,R20*%
X3920000Y-84000000D03*
X14080000Y-84000000D03*
%TD*%
%TO.C,R32*%
X48000000Y-64080000D03*
X48000000Y-53920000D03*
%TD*%
%TO.C,R2*%
X3920000Y-80500000D03*
X14080000Y-80500000D03*
%TD*%
D16*
%TO.C,C3*%
X65450000Y-98250000D03*
D17*
X65450000Y-100750000D03*
%TD*%
D14*
%TO.C,TP3*%
X28500000Y-53500000D03*
%TD*%
D16*
%TO.C,C5*%
X51550000Y-93250000D03*
D17*
X51550000Y-90750000D03*
%TD*%
D15*
%TO.C,R17*%
X81580000Y-34500000D03*
X71420000Y-34500000D03*
%TD*%
D16*
%TO.C,C19*%
X55500000Y-63770000D03*
D17*
X55500000Y-61230000D03*
%TD*%
D15*
%TO.C,R3*%
X88000000Y-34580000D03*
X88000000Y-24420000D03*
%TD*%
D16*
%TO.C,C24*%
X40500000Y-41770000D03*
D17*
X40500000Y-39230000D03*
%TD*%
D15*
%TO.C,R1*%
X36000000Y-24080000D03*
X36000000Y-13920000D03*
%TD*%
D14*
%TO.C,TP30*%
X17500000Y-16500000D03*
%TD*%
D15*
%TO.C,R9*%
X92000000Y-92580000D03*
X92000000Y-82420000D03*
%TD*%
D14*
%TO.C,TP19*%
X22500000Y-69500000D03*
%TD*%
D15*
%TO.C,R12*%
X4000000Y-37420000D03*
X4000000Y-47580000D03*
%TD*%
D22*
%TO.C,U1*%
X13690000Y-53510000D03*
D23*
X13690000Y-50970000D03*
X13690000Y-48430000D03*
X13690000Y-45890000D03*
X13690000Y-43350000D03*
X13690000Y-40810000D03*
X13690000Y-38270000D03*
X13690000Y-35730000D03*
X13690000Y-33190000D03*
X13690000Y-30650000D03*
X13690000Y-28110000D03*
X13690000Y-25570000D03*
X13690000Y-23030000D03*
X13690000Y-20490000D03*
X21310000Y-20490000D03*
X21310000Y-23030000D03*
X21310000Y-25570000D03*
X21310000Y-28110000D03*
X21310000Y-30650000D03*
X21310000Y-33190000D03*
X21310000Y-35730000D03*
X21310000Y-38270000D03*
X21310000Y-40810000D03*
X21310000Y-43350000D03*
X21310000Y-45890000D03*
X21310000Y-48430000D03*
X21310000Y-50970000D03*
X21310000Y-53510000D03*
%TD*%
D12*
%TO.C,J3*%
X75500000Y-52000000D03*
D13*
X75500000Y-49460000D03*
X75500000Y-46920000D03*
X75500000Y-44380000D03*
X75500000Y-41840000D03*
X75500000Y-39300000D03*
%TD*%
D15*
%TO.C,R11*%
X4000000Y-60580000D03*
X4000000Y-50420000D03*
%TD*%
D16*
%TO.C,C1*%
X56250000Y-94550000D03*
D17*
X58750000Y-94550000D03*
%TD*%
D16*
%TO.C,Q5*%
X64960000Y-39750000D03*
D17*
X67500000Y-39750000D03*
X70040000Y-39750000D03*
%TD*%
D14*
%TO.C,TP4*%
X55500000Y-76500000D03*
%TD*%
D15*
%TO.C,R13*%
X19920000Y-86500000D03*
X30080000Y-86500000D03*
%TD*%
D16*
%TO.C,C9*%
X10270000Y-39450000D03*
D17*
X7730000Y-39450000D03*
%TD*%
D15*
%TO.C,R31*%
X61500000Y-51420000D03*
X61500000Y-61580000D03*
%TD*%
%TO.C,R15*%
X60000000Y-20080000D03*
X60000000Y-9920000D03*
%TD*%
D14*
%TO.C,TP23*%
X48500000Y-72500000D03*
%TD*%
D16*
%TO.C,C12*%
X29230000Y-39500000D03*
D17*
X31770000Y-39500000D03*
%TD*%
D30*
%TO.C,U4*%
X81890000Y-16810000D03*
D31*
X79350000Y-16810000D03*
X76810000Y-16810000D03*
X74270000Y-16810000D03*
X71730000Y-16810000D03*
X69190000Y-16810000D03*
X66650000Y-16810000D03*
X64110000Y-16810000D03*
X64110000Y-9190000D03*
X66650000Y-9190000D03*
X69190000Y-9190000D03*
X71730000Y-9190000D03*
X74270000Y-9190000D03*
X76810000Y-9190000D03*
X79350000Y-9190000D03*
X81890000Y-9190000D03*
%TD*%
D16*
%TO.C,Q3*%
X32960000Y-76250000D03*
D17*
X35500000Y-76250000D03*
X38040000Y-76250000D03*
%TD*%
D16*
%TO.C,C26*%
X40500000Y-47270000D03*
D17*
X40500000Y-44730000D03*
%TD*%
D16*
%TO.C,C20*%
X48000000Y-69270000D03*
D17*
X48000000Y-66730000D03*
%TD*%
D15*
%TO.C,R27*%
X26000000Y-20080000D03*
X26000000Y-9920000D03*
%TD*%
%TO.C,R29*%
X81500000Y-91920000D03*
X81500000Y-102080000D03*
%TD*%
%TO.C,R21*%
X78580000Y-93500000D03*
X68420000Y-93500000D03*
%TD*%
%TO.C,R25*%
X10000000Y-30080000D03*
X10000000Y-19920000D03*
%TD*%
D14*
%TO.C,TP20*%
X26500000Y-69500000D03*
%TD*%
D15*
%TO.C,R37*%
X68500000Y-36580000D03*
X68500000Y-26420000D03*
%TD*%
%TO.C,R19*%
X14080000Y-77000000D03*
X3920000Y-77000000D03*
%TD*%
%TO.C,R23*%
X87080000Y-63000000D03*
X76920000Y-63000000D03*
%TD*%
%TO.C,R34*%
X44000000Y-59420000D03*
X44000000Y-69580000D03*
%TD*%
D16*
%TO.C,C4*%
X63230000Y-93500000D03*
D17*
X65770000Y-93500000D03*
%TD*%
M02*
