%TF.GenerationSoftware,KiCad,Pcbnew,10.0.6*%
%TF.CreationDate,2026-09-12T03:45:01-05:00*%
%TF.ProjectId,KK_main_module,4b4b5f6d-6169-46e5-9f6d-6f64756c652e,C.6 flat stack engineering*%
%TF.SameCoordinates,Original*%
%TF.FileFunction,Legend,Top*%
%TF.FilePolarity,Positive*%
%FSLAX46Y46*%
G04 Gerber Fmt 4.6, Leading zero omitted, Abs format (unit mm)*
G04 Created by KiCad (PCBNEW 10.0.6) date 2026-09-12 03:45:01*
%MOMM*%
%LPD*%
G01*
G04 APERTURE LIST*
G04 Aperture macros list*
%AMRoundRect*
0 Rectangle with rounded corners*
0 $1 Rounding radius*
0 $2 $3 $4 $5 $6 $7 $8 $9 X,Y pos of 4 corners*
0 Add a 4 corners polygon primitive as box body*
4,1,4,$2,$3,$4,$5,$6,$7,$8,$9,$2,$3,0*
0 Add four circle primitives for the rounded corners*
1,1,$1+$1,$2,$3*
1,1,$1+$1,$4,$5*
1,1,$1+$1,$6,$7*
1,1,$1+$1,$8,$9*
0 Add four rect primitives between the rounded corners*
20,1,$1+$1,$2,$3,$4,$5,0*
20,1,$1+$1,$4,$5,$6,$7,0*
20,1,$1+$1,$6,$7,$8,$9,0*
20,1,$1+$1,$8,$9,$2,$3,0*%
G04 Aperture macros list end*
%ADD10C,0.130000*%
%ADD11C,0.150000*%
%ADD12C,0.010000*%
%ADD13R,1.900000X1.900000*%
%ADD14C,1.900000*%
%ADD15R,1.850000X1.850000*%
%ADD16C,1.850000*%
%ADD17C,2.000000*%
%ADD18C,1.600000*%
%ADD19R,1.700000X1.700000*%
%ADD20C,1.700000*%
%ADD21C,1.712000*%
%ADD22RoundRect,0.102000X-0.754000X-0.754000X0.754000X-0.754000X0.754000X0.754000X-0.754000X0.754000X0*%
%ADD23RoundRect,0.250000X-0.350000X-0.625000X0.350000X-0.625000X0.350000X0.625000X-0.350000X0.625000X0*%
%ADD24O,1.200000X1.750000*%
%ADD25RoundRect,0.250000X-0.950000X-0.550000X0.950000X-0.550000X0.950000X0.550000X-0.950000X0.550000X0*%
%ADD26O,2.400000X1.600000*%
%ADD27RoundRect,0.250000X-0.600000X-0.725000X0.600000X-0.725000X0.600000X0.725000X-0.600000X0.725000X0*%
%ADD28O,1.700000X1.950000*%
%ADD29R,1.800000X1.800000*%
%ADD30C,1.800000*%
%ADD31RoundRect,0.249999X-0.850001X0.850001X-0.850001X-0.850001X0.850001X-0.850001X0.850001X0.850001X0*%
%ADD32C,2.200000*%
%ADD33RoundRect,0.250000X0.550000X-0.950000X0.550000X0.950000X-0.550000X0.950000X-0.550000X-0.950000X0*%
%ADD34O,1.600000X2.400000*%
G04 APERTURE END LIST*
D10*
X13738095Y-75558335D02*
X13357143Y-75558335D01*
X13357143Y-75558335D02*
X13357143Y-74758335D01*
X14004762Y-75139287D02*
X14271428Y-75139287D01*
X14385714Y-75558335D02*
X14004762Y-75558335D01*
X14004762Y-75558335D02*
X14004762Y-74758335D01*
X14004762Y-74758335D02*
X14385714Y-74758335D01*
X14995238Y-75139287D02*
X14728572Y-75139287D01*
X14728572Y-75558335D02*
X14728572Y-74758335D01*
X14728572Y-74758335D02*
X15109524Y-74758335D01*
X15300000Y-74758335D02*
X15757143Y-74758335D01*
X15528571Y-75558335D02*
X15528571Y-74758335D01*
X13933332Y-64880240D02*
X14047618Y-64918335D01*
X14047618Y-64918335D02*
X14238094Y-64918335D01*
X14238094Y-64918335D02*
X14314285Y-64880240D01*
X14314285Y-64880240D02*
X14352380Y-64842144D01*
X14352380Y-64842144D02*
X14390475Y-64765954D01*
X14390475Y-64765954D02*
X14390475Y-64689763D01*
X14390475Y-64689763D02*
X14352380Y-64613573D01*
X14352380Y-64613573D02*
X14314285Y-64575478D01*
X14314285Y-64575478D02*
X14238094Y-64537382D01*
X14238094Y-64537382D02*
X14085713Y-64499287D01*
X14085713Y-64499287D02*
X14009523Y-64461192D01*
X14009523Y-64461192D02*
X13971428Y-64423097D01*
X13971428Y-64423097D02*
X13933332Y-64346906D01*
X13933332Y-64346906D02*
X13933332Y-64270716D01*
X13933332Y-64270716D02*
X13971428Y-64194525D01*
X13971428Y-64194525D02*
X14009523Y-64156430D01*
X14009523Y-64156430D02*
X14085713Y-64118335D01*
X14085713Y-64118335D02*
X14276190Y-64118335D01*
X14276190Y-64118335D02*
X14390475Y-64156430D01*
X14657142Y-64118335D02*
X14847618Y-64918335D01*
X14847618Y-64918335D02*
X14999999Y-64346906D01*
X14999999Y-64346906D02*
X15152380Y-64918335D01*
X15152380Y-64918335D02*
X15342857Y-64118335D01*
X15571428Y-64118335D02*
X16066666Y-64118335D01*
X16066666Y-64118335D02*
X15800000Y-64423097D01*
X15800000Y-64423097D02*
X15914285Y-64423097D01*
X15914285Y-64423097D02*
X15990476Y-64461192D01*
X15990476Y-64461192D02*
X16028571Y-64499287D01*
X16028571Y-64499287D02*
X16066666Y-64575478D01*
X16066666Y-64575478D02*
X16066666Y-64765954D01*
X16066666Y-64765954D02*
X16028571Y-64842144D01*
X16028571Y-64842144D02*
X15990476Y-64880240D01*
X15990476Y-64880240D02*
X15914285Y-64918335D01*
X15914285Y-64918335D02*
X15685714Y-64918335D01*
X15685714Y-64918335D02*
X15609523Y-64880240D01*
X15609523Y-64880240D02*
X15571428Y-64842144D01*
X24478571Y-42753335D02*
X24021428Y-42753335D01*
X24250000Y-42753335D02*
X24250000Y-41953335D01*
X24250000Y-41953335D02*
X24173809Y-42067620D01*
X24173809Y-42067620D02*
X24097619Y-42143811D01*
X24097619Y-42143811D02*
X24021428Y-42181906D01*
X24683332Y-54880240D02*
X24797618Y-54918335D01*
X24797618Y-54918335D02*
X24988094Y-54918335D01*
X24988094Y-54918335D02*
X25064285Y-54880240D01*
X25064285Y-54880240D02*
X25102380Y-54842144D01*
X25102380Y-54842144D02*
X25140475Y-54765954D01*
X25140475Y-54765954D02*
X25140475Y-54689763D01*
X25140475Y-54689763D02*
X25102380Y-54613573D01*
X25102380Y-54613573D02*
X25064285Y-54575478D01*
X25064285Y-54575478D02*
X24988094Y-54537382D01*
X24988094Y-54537382D02*
X24835713Y-54499287D01*
X24835713Y-54499287D02*
X24759523Y-54461192D01*
X24759523Y-54461192D02*
X24721428Y-54423097D01*
X24721428Y-54423097D02*
X24683332Y-54346906D01*
X24683332Y-54346906D02*
X24683332Y-54270716D01*
X24683332Y-54270716D02*
X24721428Y-54194525D01*
X24721428Y-54194525D02*
X24759523Y-54156430D01*
X24759523Y-54156430D02*
X24835713Y-54118335D01*
X24835713Y-54118335D02*
X25026190Y-54118335D01*
X25026190Y-54118335D02*
X25140475Y-54156430D01*
X25407142Y-54118335D02*
X25597618Y-54918335D01*
X25597618Y-54918335D02*
X25749999Y-54346906D01*
X25749999Y-54346906D02*
X25902380Y-54918335D01*
X25902380Y-54918335D02*
X26092857Y-54118335D01*
X26816666Y-54918335D02*
X26359523Y-54918335D01*
X26588095Y-54918335D02*
X26588095Y-54118335D01*
X26588095Y-54118335D02*
X26511904Y-54232620D01*
X26511904Y-54232620D02*
X26435714Y-54308811D01*
X26435714Y-54308811D02*
X26359523Y-54346906D01*
X25733333Y-21358335D02*
X25733333Y-21929763D01*
X25733333Y-21929763D02*
X25695238Y-22044049D01*
X25695238Y-22044049D02*
X25619047Y-22120240D01*
X25619047Y-22120240D02*
X25504762Y-22158335D01*
X25504762Y-22158335D02*
X25428571Y-22158335D01*
X26076190Y-21434525D02*
X26114286Y-21396430D01*
X26114286Y-21396430D02*
X26190476Y-21358335D01*
X26190476Y-21358335D02*
X26380952Y-21358335D01*
X26380952Y-21358335D02*
X26457143Y-21396430D01*
X26457143Y-21396430D02*
X26495238Y-21434525D01*
X26495238Y-21434525D02*
X26533333Y-21510716D01*
X26533333Y-21510716D02*
X26533333Y-21586906D01*
X26533333Y-21586906D02*
X26495238Y-21701192D01*
X26495238Y-21701192D02*
X26038095Y-22158335D01*
X26038095Y-22158335D02*
X26533333Y-22158335D01*
X25371429Y-65008334D02*
X25371429Y-65655953D01*
X25371429Y-65655953D02*
X25409524Y-65732143D01*
X25409524Y-65732143D02*
X25447619Y-65770239D01*
X25447619Y-65770239D02*
X25523810Y-65808334D01*
X25523810Y-65808334D02*
X25676191Y-65808334D01*
X25676191Y-65808334D02*
X25752381Y-65770239D01*
X25752381Y-65770239D02*
X25790476Y-65732143D01*
X25790476Y-65732143D02*
X25828572Y-65655953D01*
X25828572Y-65655953D02*
X25828572Y-65008334D01*
X26209524Y-65808334D02*
X26209524Y-65008334D01*
X26209524Y-65008334D02*
X26514286Y-65008334D01*
X26514286Y-65008334D02*
X26590476Y-65046429D01*
X26590476Y-65046429D02*
X26628571Y-65084524D01*
X26628571Y-65084524D02*
X26666667Y-65160715D01*
X26666667Y-65160715D02*
X26666667Y-65275000D01*
X26666667Y-65275000D02*
X26628571Y-65351191D01*
X26628571Y-65351191D02*
X26590476Y-65389286D01*
X26590476Y-65389286D02*
X26514286Y-65427381D01*
X26514286Y-65427381D02*
X26209524Y-65427381D01*
X24933332Y-74880240D02*
X25047618Y-74918335D01*
X25047618Y-74918335D02*
X25238094Y-74918335D01*
X25238094Y-74918335D02*
X25314285Y-74880240D01*
X25314285Y-74880240D02*
X25352380Y-74842144D01*
X25352380Y-74842144D02*
X25390475Y-74765954D01*
X25390475Y-74765954D02*
X25390475Y-74689763D01*
X25390475Y-74689763D02*
X25352380Y-74613573D01*
X25352380Y-74613573D02*
X25314285Y-74575478D01*
X25314285Y-74575478D02*
X25238094Y-74537382D01*
X25238094Y-74537382D02*
X25085713Y-74499287D01*
X25085713Y-74499287D02*
X25009523Y-74461192D01*
X25009523Y-74461192D02*
X24971428Y-74423097D01*
X24971428Y-74423097D02*
X24933332Y-74346906D01*
X24933332Y-74346906D02*
X24933332Y-74270716D01*
X24933332Y-74270716D02*
X24971428Y-74194525D01*
X24971428Y-74194525D02*
X25009523Y-74156430D01*
X25009523Y-74156430D02*
X25085713Y-74118335D01*
X25085713Y-74118335D02*
X25276190Y-74118335D01*
X25276190Y-74118335D02*
X25390475Y-74156430D01*
X25657142Y-74118335D02*
X25847618Y-74918335D01*
X25847618Y-74918335D02*
X25999999Y-74346906D01*
X25999999Y-74346906D02*
X26152380Y-74918335D01*
X26152380Y-74918335D02*
X26342857Y-74118335D01*
X26609523Y-74194525D02*
X26647619Y-74156430D01*
X26647619Y-74156430D02*
X26723809Y-74118335D01*
X26723809Y-74118335D02*
X26914285Y-74118335D01*
X26914285Y-74118335D02*
X26990476Y-74156430D01*
X26990476Y-74156430D02*
X27028571Y-74194525D01*
X27028571Y-74194525D02*
X27066666Y-74270716D01*
X27066666Y-74270716D02*
X27066666Y-74346906D01*
X27066666Y-74346906D02*
X27028571Y-74461192D01*
X27028571Y-74461192D02*
X26571428Y-74918335D01*
X26571428Y-74918335D02*
X27066666Y-74918335D01*
X24495238Y-85808335D02*
X24495238Y-85008335D01*
X24495238Y-85008335D02*
X24685714Y-85008335D01*
X24685714Y-85008335D02*
X24800000Y-85046430D01*
X24800000Y-85046430D02*
X24876190Y-85122620D01*
X24876190Y-85122620D02*
X24914285Y-85198811D01*
X24914285Y-85198811D02*
X24952381Y-85351192D01*
X24952381Y-85351192D02*
X24952381Y-85465478D01*
X24952381Y-85465478D02*
X24914285Y-85617859D01*
X24914285Y-85617859D02*
X24876190Y-85694049D01*
X24876190Y-85694049D02*
X24800000Y-85770240D01*
X24800000Y-85770240D02*
X24685714Y-85808335D01*
X24685714Y-85808335D02*
X24495238Y-85808335D01*
X25447619Y-85008335D02*
X25600000Y-85008335D01*
X25600000Y-85008335D02*
X25676190Y-85046430D01*
X25676190Y-85046430D02*
X25752381Y-85122620D01*
X25752381Y-85122620D02*
X25790476Y-85275001D01*
X25790476Y-85275001D02*
X25790476Y-85541668D01*
X25790476Y-85541668D02*
X25752381Y-85694049D01*
X25752381Y-85694049D02*
X25676190Y-85770240D01*
X25676190Y-85770240D02*
X25600000Y-85808335D01*
X25600000Y-85808335D02*
X25447619Y-85808335D01*
X25447619Y-85808335D02*
X25371428Y-85770240D01*
X25371428Y-85770240D02*
X25295238Y-85694049D01*
X25295238Y-85694049D02*
X25257142Y-85541668D01*
X25257142Y-85541668D02*
X25257142Y-85275001D01*
X25257142Y-85275001D02*
X25295238Y-85122620D01*
X25295238Y-85122620D02*
X25371428Y-85046430D01*
X25371428Y-85046430D02*
X25447619Y-85008335D01*
X26057142Y-85008335D02*
X26247618Y-85808335D01*
X26247618Y-85808335D02*
X26399999Y-85236906D01*
X26399999Y-85236906D02*
X26552380Y-85808335D01*
X26552380Y-85808335D02*
X26742857Y-85008335D01*
X27047619Y-85808335D02*
X27047619Y-85008335D01*
X27047619Y-85008335D02*
X27504762Y-85808335D01*
X27504762Y-85808335D02*
X27504762Y-85008335D01*
X35933332Y-64880240D02*
X36047618Y-64918335D01*
X36047618Y-64918335D02*
X36238094Y-64918335D01*
X36238094Y-64918335D02*
X36314285Y-64880240D01*
X36314285Y-64880240D02*
X36352380Y-64842144D01*
X36352380Y-64842144D02*
X36390475Y-64765954D01*
X36390475Y-64765954D02*
X36390475Y-64689763D01*
X36390475Y-64689763D02*
X36352380Y-64613573D01*
X36352380Y-64613573D02*
X36314285Y-64575478D01*
X36314285Y-64575478D02*
X36238094Y-64537382D01*
X36238094Y-64537382D02*
X36085713Y-64499287D01*
X36085713Y-64499287D02*
X36009523Y-64461192D01*
X36009523Y-64461192D02*
X35971428Y-64423097D01*
X35971428Y-64423097D02*
X35933332Y-64346906D01*
X35933332Y-64346906D02*
X35933332Y-64270716D01*
X35933332Y-64270716D02*
X35971428Y-64194525D01*
X35971428Y-64194525D02*
X36009523Y-64156430D01*
X36009523Y-64156430D02*
X36085713Y-64118335D01*
X36085713Y-64118335D02*
X36276190Y-64118335D01*
X36276190Y-64118335D02*
X36390475Y-64156430D01*
X36657142Y-64118335D02*
X36847618Y-64918335D01*
X36847618Y-64918335D02*
X36999999Y-64346906D01*
X36999999Y-64346906D02*
X37152380Y-64918335D01*
X37152380Y-64918335D02*
X37342857Y-64118335D01*
X37990476Y-64385001D02*
X37990476Y-64918335D01*
X37800000Y-64080240D02*
X37609523Y-64651668D01*
X37609523Y-64651668D02*
X38104762Y-64651668D01*
X46933332Y-76380240D02*
X47047618Y-76418335D01*
X47047618Y-76418335D02*
X47238094Y-76418335D01*
X47238094Y-76418335D02*
X47314285Y-76380240D01*
X47314285Y-76380240D02*
X47352380Y-76342144D01*
X47352380Y-76342144D02*
X47390475Y-76265954D01*
X47390475Y-76265954D02*
X47390475Y-76189763D01*
X47390475Y-76189763D02*
X47352380Y-76113573D01*
X47352380Y-76113573D02*
X47314285Y-76075478D01*
X47314285Y-76075478D02*
X47238094Y-76037382D01*
X47238094Y-76037382D02*
X47085713Y-75999287D01*
X47085713Y-75999287D02*
X47009523Y-75961192D01*
X47009523Y-75961192D02*
X46971428Y-75923097D01*
X46971428Y-75923097D02*
X46933332Y-75846906D01*
X46933332Y-75846906D02*
X46933332Y-75770716D01*
X46933332Y-75770716D02*
X46971428Y-75694525D01*
X46971428Y-75694525D02*
X47009523Y-75656430D01*
X47009523Y-75656430D02*
X47085713Y-75618335D01*
X47085713Y-75618335D02*
X47276190Y-75618335D01*
X47276190Y-75618335D02*
X47390475Y-75656430D01*
X47657142Y-75618335D02*
X47847618Y-76418335D01*
X47847618Y-76418335D02*
X47999999Y-75846906D01*
X47999999Y-75846906D02*
X48152380Y-76418335D01*
X48152380Y-76418335D02*
X48342857Y-75618335D01*
X48685714Y-76418335D02*
X48838095Y-76418335D01*
X48838095Y-76418335D02*
X48914285Y-76380240D01*
X48914285Y-76380240D02*
X48952381Y-76342144D01*
X48952381Y-76342144D02*
X49028571Y-76227859D01*
X49028571Y-76227859D02*
X49066666Y-76075478D01*
X49066666Y-76075478D02*
X49066666Y-75770716D01*
X49066666Y-75770716D02*
X49028571Y-75694525D01*
X49028571Y-75694525D02*
X48990476Y-75656430D01*
X48990476Y-75656430D02*
X48914285Y-75618335D01*
X48914285Y-75618335D02*
X48761904Y-75618335D01*
X48761904Y-75618335D02*
X48685714Y-75656430D01*
X48685714Y-75656430D02*
X48647619Y-75694525D01*
X48647619Y-75694525D02*
X48609523Y-75770716D01*
X48609523Y-75770716D02*
X48609523Y-75961192D01*
X48609523Y-75961192D02*
X48647619Y-76037382D01*
X48647619Y-76037382D02*
X48685714Y-76075478D01*
X48685714Y-76075478D02*
X48761904Y-76113573D01*
X48761904Y-76113573D02*
X48914285Y-76113573D01*
X48914285Y-76113573D02*
X48990476Y-76075478D01*
X48990476Y-76075478D02*
X49028571Y-76037382D01*
X49028571Y-76037382D02*
X49066666Y-75961192D01*
X46552381Y-87308335D02*
X46552381Y-86508335D01*
X46552381Y-86508335D02*
X46819047Y-87079763D01*
X46819047Y-87079763D02*
X47085714Y-86508335D01*
X47085714Y-86508335D02*
X47085714Y-87308335D01*
X47619048Y-86508335D02*
X47771429Y-86508335D01*
X47771429Y-86508335D02*
X47847619Y-86546430D01*
X47847619Y-86546430D02*
X47923810Y-86622620D01*
X47923810Y-86622620D02*
X47961905Y-86775001D01*
X47961905Y-86775001D02*
X47961905Y-87041668D01*
X47961905Y-87041668D02*
X47923810Y-87194049D01*
X47923810Y-87194049D02*
X47847619Y-87270240D01*
X47847619Y-87270240D02*
X47771429Y-87308335D01*
X47771429Y-87308335D02*
X47619048Y-87308335D01*
X47619048Y-87308335D02*
X47542857Y-87270240D01*
X47542857Y-87270240D02*
X47466667Y-87194049D01*
X47466667Y-87194049D02*
X47428571Y-87041668D01*
X47428571Y-87041668D02*
X47428571Y-86775001D01*
X47428571Y-86775001D02*
X47466667Y-86622620D01*
X47466667Y-86622620D02*
X47542857Y-86546430D01*
X47542857Y-86546430D02*
X47619048Y-86508335D01*
X48304762Y-87308335D02*
X48304762Y-86508335D01*
X48304762Y-86508335D02*
X48495238Y-86508335D01*
X48495238Y-86508335D02*
X48609524Y-86546430D01*
X48609524Y-86546430D02*
X48685714Y-86622620D01*
X48685714Y-86622620D02*
X48723809Y-86698811D01*
X48723809Y-86698811D02*
X48761905Y-86851192D01*
X48761905Y-86851192D02*
X48761905Y-86965478D01*
X48761905Y-86965478D02*
X48723809Y-87117859D01*
X48723809Y-87117859D02*
X48685714Y-87194049D01*
X48685714Y-87194049D02*
X48609524Y-87270240D01*
X48609524Y-87270240D02*
X48495238Y-87308335D01*
X48495238Y-87308335D02*
X48304762Y-87308335D01*
X49104762Y-86889287D02*
X49371428Y-86889287D01*
X49485714Y-87308335D02*
X49104762Y-87308335D01*
X49104762Y-87308335D02*
X49104762Y-86508335D01*
X49104762Y-86508335D02*
X49485714Y-86508335D01*
X57933332Y-64880240D02*
X58047618Y-64918335D01*
X58047618Y-64918335D02*
X58238094Y-64918335D01*
X58238094Y-64918335D02*
X58314285Y-64880240D01*
X58314285Y-64880240D02*
X58352380Y-64842144D01*
X58352380Y-64842144D02*
X58390475Y-64765954D01*
X58390475Y-64765954D02*
X58390475Y-64689763D01*
X58390475Y-64689763D02*
X58352380Y-64613573D01*
X58352380Y-64613573D02*
X58314285Y-64575478D01*
X58314285Y-64575478D02*
X58238094Y-64537382D01*
X58238094Y-64537382D02*
X58085713Y-64499287D01*
X58085713Y-64499287D02*
X58009523Y-64461192D01*
X58009523Y-64461192D02*
X57971428Y-64423097D01*
X57971428Y-64423097D02*
X57933332Y-64346906D01*
X57933332Y-64346906D02*
X57933332Y-64270716D01*
X57933332Y-64270716D02*
X57971428Y-64194525D01*
X57971428Y-64194525D02*
X58009523Y-64156430D01*
X58009523Y-64156430D02*
X58085713Y-64118335D01*
X58085713Y-64118335D02*
X58276190Y-64118335D01*
X58276190Y-64118335D02*
X58390475Y-64156430D01*
X58657142Y-64118335D02*
X58847618Y-64918335D01*
X58847618Y-64918335D02*
X58999999Y-64346906D01*
X58999999Y-64346906D02*
X59152380Y-64918335D01*
X59152380Y-64918335D02*
X59342857Y-64118335D01*
X59761904Y-64461192D02*
X59685714Y-64423097D01*
X59685714Y-64423097D02*
X59647619Y-64385001D01*
X59647619Y-64385001D02*
X59609523Y-64308811D01*
X59609523Y-64308811D02*
X59609523Y-64270716D01*
X59609523Y-64270716D02*
X59647619Y-64194525D01*
X59647619Y-64194525D02*
X59685714Y-64156430D01*
X59685714Y-64156430D02*
X59761904Y-64118335D01*
X59761904Y-64118335D02*
X59914285Y-64118335D01*
X59914285Y-64118335D02*
X59990476Y-64156430D01*
X59990476Y-64156430D02*
X60028571Y-64194525D01*
X60028571Y-64194525D02*
X60066666Y-64270716D01*
X60066666Y-64270716D02*
X60066666Y-64308811D01*
X60066666Y-64308811D02*
X60028571Y-64385001D01*
X60028571Y-64385001D02*
X59990476Y-64423097D01*
X59990476Y-64423097D02*
X59914285Y-64461192D01*
X59914285Y-64461192D02*
X59761904Y-64461192D01*
X59761904Y-64461192D02*
X59685714Y-64499287D01*
X59685714Y-64499287D02*
X59647619Y-64537382D01*
X59647619Y-64537382D02*
X59609523Y-64613573D01*
X59609523Y-64613573D02*
X59609523Y-64765954D01*
X59609523Y-64765954D02*
X59647619Y-64842144D01*
X59647619Y-64842144D02*
X59685714Y-64880240D01*
X59685714Y-64880240D02*
X59761904Y-64918335D01*
X59761904Y-64918335D02*
X59914285Y-64918335D01*
X59914285Y-64918335D02*
X59990476Y-64880240D01*
X59990476Y-64880240D02*
X60028571Y-64842144D01*
X60028571Y-64842144D02*
X60066666Y-64765954D01*
X60066666Y-64765954D02*
X60066666Y-64613573D01*
X60066666Y-64613573D02*
X60028571Y-64537382D01*
X60028571Y-64537382D02*
X59990476Y-64499287D01*
X59990476Y-64499287D02*
X59914285Y-64461192D01*
X59000000Y-74427382D02*
X59000000Y-74808335D01*
X58733333Y-74008335D02*
X59000000Y-74427382D01*
X59000000Y-74427382D02*
X59266666Y-74008335D01*
X68933332Y-54880240D02*
X69047618Y-54918335D01*
X69047618Y-54918335D02*
X69238094Y-54918335D01*
X69238094Y-54918335D02*
X69314285Y-54880240D01*
X69314285Y-54880240D02*
X69352380Y-54842144D01*
X69352380Y-54842144D02*
X69390475Y-54765954D01*
X69390475Y-54765954D02*
X69390475Y-54689763D01*
X69390475Y-54689763D02*
X69352380Y-54613573D01*
X69352380Y-54613573D02*
X69314285Y-54575478D01*
X69314285Y-54575478D02*
X69238094Y-54537382D01*
X69238094Y-54537382D02*
X69085713Y-54499287D01*
X69085713Y-54499287D02*
X69009523Y-54461192D01*
X69009523Y-54461192D02*
X68971428Y-54423097D01*
X68971428Y-54423097D02*
X68933332Y-54346906D01*
X68933332Y-54346906D02*
X68933332Y-54270716D01*
X68933332Y-54270716D02*
X68971428Y-54194525D01*
X68971428Y-54194525D02*
X69009523Y-54156430D01*
X69009523Y-54156430D02*
X69085713Y-54118335D01*
X69085713Y-54118335D02*
X69276190Y-54118335D01*
X69276190Y-54118335D02*
X69390475Y-54156430D01*
X69657142Y-54118335D02*
X69847618Y-54918335D01*
X69847618Y-54918335D02*
X69999999Y-54346906D01*
X69999999Y-54346906D02*
X70152380Y-54918335D01*
X70152380Y-54918335D02*
X70342857Y-54118335D01*
X70571428Y-54118335D02*
X71104762Y-54118335D01*
X71104762Y-54118335D02*
X70761904Y-54918335D01*
X69733333Y-65008334D02*
X70266667Y-65808334D01*
X70266667Y-65008334D02*
X69733333Y-65808334D01*
X68933332Y-74880240D02*
X69047618Y-74918335D01*
X69047618Y-74918335D02*
X69238094Y-74918335D01*
X69238094Y-74918335D02*
X69314285Y-74880240D01*
X69314285Y-74880240D02*
X69352380Y-74842144D01*
X69352380Y-74842144D02*
X69390475Y-74765954D01*
X69390475Y-74765954D02*
X69390475Y-74689763D01*
X69390475Y-74689763D02*
X69352380Y-74613573D01*
X69352380Y-74613573D02*
X69314285Y-74575478D01*
X69314285Y-74575478D02*
X69238094Y-74537382D01*
X69238094Y-74537382D02*
X69085713Y-74499287D01*
X69085713Y-74499287D02*
X69009523Y-74461192D01*
X69009523Y-74461192D02*
X68971428Y-74423097D01*
X68971428Y-74423097D02*
X68933332Y-74346906D01*
X68933332Y-74346906D02*
X68933332Y-74270716D01*
X68933332Y-74270716D02*
X68971428Y-74194525D01*
X68971428Y-74194525D02*
X69009523Y-74156430D01*
X69009523Y-74156430D02*
X69085713Y-74118335D01*
X69085713Y-74118335D02*
X69276190Y-74118335D01*
X69276190Y-74118335D02*
X69390475Y-74156430D01*
X69657142Y-74118335D02*
X69847618Y-74918335D01*
X69847618Y-74918335D02*
X69999999Y-74346906D01*
X69999999Y-74346906D02*
X70152380Y-74918335D01*
X70152380Y-74918335D02*
X70342857Y-74118335D01*
X70990476Y-74118335D02*
X70838095Y-74118335D01*
X70838095Y-74118335D02*
X70761904Y-74156430D01*
X70761904Y-74156430D02*
X70723809Y-74194525D01*
X70723809Y-74194525D02*
X70647619Y-74308811D01*
X70647619Y-74308811D02*
X70609523Y-74461192D01*
X70609523Y-74461192D02*
X70609523Y-74765954D01*
X70609523Y-74765954D02*
X70647619Y-74842144D01*
X70647619Y-74842144D02*
X70685714Y-74880240D01*
X70685714Y-74880240D02*
X70761904Y-74918335D01*
X70761904Y-74918335D02*
X70914285Y-74918335D01*
X70914285Y-74918335D02*
X70990476Y-74880240D01*
X70990476Y-74880240D02*
X71028571Y-74842144D01*
X71028571Y-74842144D02*
X71066666Y-74765954D01*
X71066666Y-74765954D02*
X71066666Y-74575478D01*
X71066666Y-74575478D02*
X71028571Y-74499287D01*
X71028571Y-74499287D02*
X70990476Y-74461192D01*
X70990476Y-74461192D02*
X70914285Y-74423097D01*
X70914285Y-74423097D02*
X70761904Y-74423097D01*
X70761904Y-74423097D02*
X70685714Y-74461192D01*
X70685714Y-74461192D02*
X70647619Y-74499287D01*
X70647619Y-74499287D02*
X70609523Y-74575478D01*
X70057142Y-85389287D02*
X70171428Y-85427382D01*
X70171428Y-85427382D02*
X70209523Y-85465478D01*
X70209523Y-85465478D02*
X70247619Y-85541668D01*
X70247619Y-85541668D02*
X70247619Y-85655954D01*
X70247619Y-85655954D02*
X70209523Y-85732144D01*
X70209523Y-85732144D02*
X70171428Y-85770240D01*
X70171428Y-85770240D02*
X70095238Y-85808335D01*
X70095238Y-85808335D02*
X69790476Y-85808335D01*
X69790476Y-85808335D02*
X69790476Y-85008335D01*
X69790476Y-85008335D02*
X70057142Y-85008335D01*
X70057142Y-85008335D02*
X70133333Y-85046430D01*
X70133333Y-85046430D02*
X70171428Y-85084525D01*
X70171428Y-85084525D02*
X70209523Y-85160716D01*
X70209523Y-85160716D02*
X70209523Y-85236906D01*
X70209523Y-85236906D02*
X70171428Y-85313097D01*
X70171428Y-85313097D02*
X70133333Y-85351192D01*
X70133333Y-85351192D02*
X70057142Y-85389287D01*
X70057142Y-85389287D02*
X69790476Y-85389287D01*
X77728571Y-31173335D02*
X77271428Y-31173335D01*
X77500000Y-31173335D02*
X77500000Y-30373335D01*
X77500000Y-30373335D02*
X77423809Y-30487620D01*
X77423809Y-30487620D02*
X77347619Y-30563811D01*
X77347619Y-30563811D02*
X77271428Y-30601906D01*
X78697619Y-34018335D02*
X78430952Y-33637382D01*
X78240476Y-34018335D02*
X78240476Y-33218335D01*
X78240476Y-33218335D02*
X78545238Y-33218335D01*
X78545238Y-33218335D02*
X78621428Y-33256430D01*
X78621428Y-33256430D02*
X78659523Y-33294525D01*
X78659523Y-33294525D02*
X78697619Y-33370716D01*
X78697619Y-33370716D02*
X78697619Y-33485001D01*
X78697619Y-33485001D02*
X78659523Y-33561192D01*
X78659523Y-33561192D02*
X78621428Y-33599287D01*
X78621428Y-33599287D02*
X78545238Y-33637382D01*
X78545238Y-33637382D02*
X78240476Y-33637382D01*
X79459523Y-33256430D02*
X79383333Y-33218335D01*
X79383333Y-33218335D02*
X79269047Y-33218335D01*
X79269047Y-33218335D02*
X79154761Y-33256430D01*
X79154761Y-33256430D02*
X79078571Y-33332620D01*
X79078571Y-33332620D02*
X79040476Y-33408811D01*
X79040476Y-33408811D02*
X79002380Y-33561192D01*
X79002380Y-33561192D02*
X79002380Y-33675478D01*
X79002380Y-33675478D02*
X79040476Y-33827859D01*
X79040476Y-33827859D02*
X79078571Y-33904049D01*
X79078571Y-33904049D02*
X79154761Y-33980240D01*
X79154761Y-33980240D02*
X79269047Y-34018335D01*
X79269047Y-34018335D02*
X79345238Y-34018335D01*
X79345238Y-34018335D02*
X79459523Y-33980240D01*
X79459523Y-33980240D02*
X79497619Y-33942144D01*
X79497619Y-33942144D02*
X79497619Y-33675478D01*
X79497619Y-33675478D02*
X79345238Y-33675478D01*
X80107142Y-33599287D02*
X80221428Y-33637382D01*
X80221428Y-33637382D02*
X80259523Y-33675478D01*
X80259523Y-33675478D02*
X80297619Y-33751668D01*
X80297619Y-33751668D02*
X80297619Y-33865954D01*
X80297619Y-33865954D02*
X80259523Y-33942144D01*
X80259523Y-33942144D02*
X80221428Y-33980240D01*
X80221428Y-33980240D02*
X80145238Y-34018335D01*
X80145238Y-34018335D02*
X79840476Y-34018335D01*
X79840476Y-34018335D02*
X79840476Y-33218335D01*
X79840476Y-33218335D02*
X80107142Y-33218335D01*
X80107142Y-33218335D02*
X80183333Y-33256430D01*
X80183333Y-33256430D02*
X80221428Y-33294525D01*
X80221428Y-33294525D02*
X80259523Y-33370716D01*
X80259523Y-33370716D02*
X80259523Y-33446906D01*
X80259523Y-33446906D02*
X80221428Y-33523097D01*
X80221428Y-33523097D02*
X80183333Y-33561192D01*
X80183333Y-33561192D02*
X80107142Y-33599287D01*
X80107142Y-33599287D02*
X79840476Y-33599287D01*
X79409524Y-20708335D02*
X79409524Y-19908335D01*
X79409524Y-19908335D02*
X79600000Y-19908335D01*
X79600000Y-19908335D02*
X79714286Y-19946430D01*
X79714286Y-19946430D02*
X79790476Y-20022620D01*
X79790476Y-20022620D02*
X79828571Y-20098811D01*
X79828571Y-20098811D02*
X79866667Y-20251192D01*
X79866667Y-20251192D02*
X79866667Y-20365478D01*
X79866667Y-20365478D02*
X79828571Y-20517859D01*
X79828571Y-20517859D02*
X79790476Y-20594049D01*
X79790476Y-20594049D02*
X79714286Y-20670240D01*
X79714286Y-20670240D02*
X79600000Y-20708335D01*
X79600000Y-20708335D02*
X79409524Y-20708335D01*
X80133333Y-19908335D02*
X80628571Y-19908335D01*
X80628571Y-19908335D02*
X80361905Y-20213097D01*
X80361905Y-20213097D02*
X80476190Y-20213097D01*
X80476190Y-20213097D02*
X80552381Y-20251192D01*
X80552381Y-20251192D02*
X80590476Y-20289287D01*
X80590476Y-20289287D02*
X80628571Y-20365478D01*
X80628571Y-20365478D02*
X80628571Y-20555954D01*
X80628571Y-20555954D02*
X80590476Y-20632144D01*
X80590476Y-20632144D02*
X80552381Y-20670240D01*
X80552381Y-20670240D02*
X80476190Y-20708335D01*
X80476190Y-20708335D02*
X80247619Y-20708335D01*
X80247619Y-20708335D02*
X80171428Y-20670240D01*
X80171428Y-20670240D02*
X80133333Y-20632144D01*
X79933332Y-64880240D02*
X80047618Y-64918335D01*
X80047618Y-64918335D02*
X80238094Y-64918335D01*
X80238094Y-64918335D02*
X80314285Y-64880240D01*
X80314285Y-64880240D02*
X80352380Y-64842144D01*
X80352380Y-64842144D02*
X80390475Y-64765954D01*
X80390475Y-64765954D02*
X80390475Y-64689763D01*
X80390475Y-64689763D02*
X80352380Y-64613573D01*
X80352380Y-64613573D02*
X80314285Y-64575478D01*
X80314285Y-64575478D02*
X80238094Y-64537382D01*
X80238094Y-64537382D02*
X80085713Y-64499287D01*
X80085713Y-64499287D02*
X80009523Y-64461192D01*
X80009523Y-64461192D02*
X79971428Y-64423097D01*
X79971428Y-64423097D02*
X79933332Y-64346906D01*
X79933332Y-64346906D02*
X79933332Y-64270716D01*
X79933332Y-64270716D02*
X79971428Y-64194525D01*
X79971428Y-64194525D02*
X80009523Y-64156430D01*
X80009523Y-64156430D02*
X80085713Y-64118335D01*
X80085713Y-64118335D02*
X80276190Y-64118335D01*
X80276190Y-64118335D02*
X80390475Y-64156430D01*
X80657142Y-64118335D02*
X80847618Y-64918335D01*
X80847618Y-64918335D02*
X80999999Y-64346906D01*
X80999999Y-64346906D02*
X81152380Y-64918335D01*
X81152380Y-64918335D02*
X81342857Y-64118335D01*
X82028571Y-64118335D02*
X81647619Y-64118335D01*
X81647619Y-64118335D02*
X81609523Y-64499287D01*
X81609523Y-64499287D02*
X81647619Y-64461192D01*
X81647619Y-64461192D02*
X81723809Y-64423097D01*
X81723809Y-64423097D02*
X81914285Y-64423097D01*
X81914285Y-64423097D02*
X81990476Y-64461192D01*
X81990476Y-64461192D02*
X82028571Y-64499287D01*
X82028571Y-64499287D02*
X82066666Y-64575478D01*
X82066666Y-64575478D02*
X82066666Y-64765954D01*
X82066666Y-64765954D02*
X82028571Y-64842144D01*
X82028571Y-64842144D02*
X81990476Y-64880240D01*
X81990476Y-64880240D02*
X81914285Y-64918335D01*
X81914285Y-64918335D02*
X81723809Y-64918335D01*
X81723809Y-64918335D02*
X81647619Y-64880240D01*
X81647619Y-64880240D02*
X81609523Y-64842144D01*
X81809523Y-75579763D02*
X82190476Y-75579763D01*
X81733333Y-75808335D02*
X82000000Y-75008335D01*
X82000000Y-75008335D02*
X82266666Y-75808335D01*
X35866667Y-74831467D02*
X35583333Y-74426705D01*
X35380952Y-74831467D02*
X35380952Y-73981467D01*
X35380952Y-73981467D02*
X35704762Y-73981467D01*
X35704762Y-73981467D02*
X35785714Y-74021943D01*
X35785714Y-74021943D02*
X35826191Y-74062419D01*
X35826191Y-74062419D02*
X35866667Y-74143371D01*
X35866667Y-74143371D02*
X35866667Y-74264800D01*
X35866667Y-74264800D02*
X35826191Y-74345752D01*
X35826191Y-74345752D02*
X35785714Y-74386229D01*
X35785714Y-74386229D02*
X35704762Y-74426705D01*
X35704762Y-74426705D02*
X35380952Y-74426705D01*
X36230952Y-74831467D02*
X36230952Y-73981467D01*
X37080953Y-74021943D02*
X37000000Y-73981467D01*
X37000000Y-73981467D02*
X36878572Y-73981467D01*
X36878572Y-73981467D02*
X36757143Y-74021943D01*
X36757143Y-74021943D02*
X36676191Y-74102895D01*
X36676191Y-74102895D02*
X36635714Y-74183848D01*
X36635714Y-74183848D02*
X36595238Y-74345752D01*
X36595238Y-74345752D02*
X36595238Y-74467181D01*
X36595238Y-74467181D02*
X36635714Y-74629086D01*
X36635714Y-74629086D02*
X36676191Y-74710038D01*
X36676191Y-74710038D02*
X36757143Y-74790991D01*
X36757143Y-74790991D02*
X36878572Y-74831467D01*
X36878572Y-74831467D02*
X36959524Y-74831467D01*
X36959524Y-74831467D02*
X37080953Y-74790991D01*
X37080953Y-74790991D02*
X37121429Y-74750514D01*
X37121429Y-74750514D02*
X37121429Y-74467181D01*
X37121429Y-74467181D02*
X36959524Y-74467181D01*
X37485714Y-74831467D02*
X37485714Y-73981467D01*
X37485714Y-74386229D02*
X37971429Y-74386229D01*
X37971429Y-74831467D02*
X37971429Y-73981467D01*
X38254762Y-73981467D02*
X38740476Y-73981467D01*
X38497619Y-74831467D02*
X38497619Y-73981467D01*
X41098810Y-3143610D02*
X41503572Y-3143610D01*
X41017858Y-3386467D02*
X41301191Y-2536467D01*
X41301191Y-2536467D02*
X41584525Y-3386467D01*
X41867857Y-3386467D02*
X41867857Y-2536467D01*
X41867857Y-2536467D02*
X42353572Y-3386467D01*
X42353572Y-3386467D02*
X42353572Y-2536467D01*
X42636905Y-2536467D02*
X43122619Y-2536467D01*
X42879762Y-3386467D02*
X42879762Y-2536467D01*
X43405952Y-2941229D02*
X43689286Y-2941229D01*
X43810714Y-3386467D02*
X43405952Y-3386467D01*
X43405952Y-3386467D02*
X43405952Y-2536467D01*
X43405952Y-2536467D02*
X43810714Y-2536467D01*
X44175000Y-3386467D02*
X44175000Y-2536467D01*
X44175000Y-2536467D02*
X44660715Y-3386467D01*
X44660715Y-3386467D02*
X44660715Y-2536467D01*
X45065476Y-3386467D02*
X45065476Y-2536467D01*
X45065476Y-2536467D02*
X45551191Y-3386467D01*
X45551191Y-3386467D02*
X45551191Y-2536467D01*
X45915476Y-3143610D02*
X46320238Y-3143610D01*
X45834524Y-3386467D02*
X46117857Y-2536467D01*
X46117857Y-2536467D02*
X46401191Y-3386467D01*
X47332142Y-3062657D02*
X47979762Y-3062657D01*
X49032142Y-3386467D02*
X49032142Y-2536467D01*
X49032142Y-2536467D02*
X49517857Y-3386467D01*
X49517857Y-3386467D02*
X49517857Y-2536467D01*
X50084523Y-2536467D02*
X50246428Y-2536467D01*
X50246428Y-2536467D02*
X50327380Y-2576943D01*
X50327380Y-2576943D02*
X50408333Y-2657895D01*
X50408333Y-2657895D02*
X50448809Y-2819800D01*
X50448809Y-2819800D02*
X50448809Y-3103133D01*
X50448809Y-3103133D02*
X50408333Y-3265038D01*
X50408333Y-3265038D02*
X50327380Y-3345991D01*
X50327380Y-3345991D02*
X50246428Y-3386467D01*
X50246428Y-3386467D02*
X50084523Y-3386467D01*
X50084523Y-3386467D02*
X50003571Y-3345991D01*
X50003571Y-3345991D02*
X49922618Y-3265038D01*
X49922618Y-3265038D02*
X49882142Y-3103133D01*
X49882142Y-3103133D02*
X49882142Y-2819800D01*
X49882142Y-2819800D02*
X49922618Y-2657895D01*
X49922618Y-2657895D02*
X50003571Y-2576943D01*
X50003571Y-2576943D02*
X50084523Y-2536467D01*
X51460713Y-3386467D02*
X51460713Y-2536467D01*
X51460713Y-2536467D02*
X51744047Y-3143610D01*
X51744047Y-3143610D02*
X52027380Y-2536467D01*
X52027380Y-2536467D02*
X52027380Y-3386467D01*
X52432142Y-2941229D02*
X52715476Y-2941229D01*
X52836904Y-3386467D02*
X52432142Y-3386467D01*
X52432142Y-3386467D02*
X52432142Y-2536467D01*
X52432142Y-2536467D02*
X52836904Y-2536467D01*
X53079762Y-2536467D02*
X53565476Y-2536467D01*
X53322619Y-3386467D02*
X53322619Y-2536467D01*
X53808333Y-3143610D02*
X54213095Y-3143610D01*
X53727381Y-3386467D02*
X54010714Y-2536467D01*
X54010714Y-2536467D02*
X54294048Y-3386467D01*
X54982142Y-3386467D02*
X54577380Y-3386467D01*
X54577380Y-3386467D02*
X54577380Y-2536467D01*
X41402382Y-103305514D02*
X41361906Y-103345991D01*
X41361906Y-103345991D02*
X41240477Y-103386467D01*
X41240477Y-103386467D02*
X41159525Y-103386467D01*
X41159525Y-103386467D02*
X41038096Y-103345991D01*
X41038096Y-103345991D02*
X40957144Y-103265038D01*
X40957144Y-103265038D02*
X40916667Y-103184086D01*
X40916667Y-103184086D02*
X40876191Y-103022181D01*
X40876191Y-103022181D02*
X40876191Y-102900752D01*
X40876191Y-102900752D02*
X40916667Y-102738848D01*
X40916667Y-102738848D02*
X40957144Y-102657895D01*
X40957144Y-102657895D02*
X41038096Y-102576943D01*
X41038096Y-102576943D02*
X41159525Y-102536467D01*
X41159525Y-102536467D02*
X41240477Y-102536467D01*
X41240477Y-102536467D02*
X41361906Y-102576943D01*
X41361906Y-102576943D02*
X41402382Y-102617419D01*
X42130953Y-102536467D02*
X41969048Y-102536467D01*
X41969048Y-102536467D02*
X41888096Y-102576943D01*
X41888096Y-102576943D02*
X41847620Y-102617419D01*
X41847620Y-102617419D02*
X41766667Y-102738848D01*
X41766667Y-102738848D02*
X41726191Y-102900752D01*
X41726191Y-102900752D02*
X41726191Y-103224562D01*
X41726191Y-103224562D02*
X41766667Y-103305514D01*
X41766667Y-103305514D02*
X41807144Y-103345991D01*
X41807144Y-103345991D02*
X41888096Y-103386467D01*
X41888096Y-103386467D02*
X42050001Y-103386467D01*
X42050001Y-103386467D02*
X42130953Y-103345991D01*
X42130953Y-103345991D02*
X42171429Y-103305514D01*
X42171429Y-103305514D02*
X42211906Y-103224562D01*
X42211906Y-103224562D02*
X42211906Y-103022181D01*
X42211906Y-103022181D02*
X42171429Y-102941229D01*
X42171429Y-102941229D02*
X42130953Y-102900752D01*
X42130953Y-102900752D02*
X42050001Y-102860276D01*
X42050001Y-102860276D02*
X41888096Y-102860276D01*
X41888096Y-102860276D02*
X41807144Y-102900752D01*
X41807144Y-102900752D02*
X41766667Y-102941229D01*
X41766667Y-102941229D02*
X41726191Y-103022181D01*
X43507144Y-102941229D02*
X43223810Y-102941229D01*
X43223810Y-103386467D02*
X43223810Y-102536467D01*
X43223810Y-102536467D02*
X43628572Y-102536467D01*
X44357143Y-103386467D02*
X43952381Y-103386467D01*
X43952381Y-103386467D02*
X43952381Y-102536467D01*
X44600000Y-103143610D02*
X45004762Y-103143610D01*
X44519048Y-103386467D02*
X44802381Y-102536467D01*
X44802381Y-102536467D02*
X45085715Y-103386467D01*
X45247619Y-102536467D02*
X45733333Y-102536467D01*
X45490476Y-103386467D02*
X45490476Y-102536467D01*
X46664285Y-103062657D02*
X47311905Y-103062657D01*
X48364285Y-103386467D02*
X48364285Y-102536467D01*
X48364285Y-102536467D02*
X48688095Y-102536467D01*
X48688095Y-102536467D02*
X48769047Y-102576943D01*
X48769047Y-102576943D02*
X48809524Y-102617419D01*
X48809524Y-102617419D02*
X48850000Y-102698371D01*
X48850000Y-102698371D02*
X48850000Y-102819800D01*
X48850000Y-102819800D02*
X48809524Y-102900752D01*
X48809524Y-102900752D02*
X48769047Y-102941229D01*
X48769047Y-102941229D02*
X48688095Y-102981705D01*
X48688095Y-102981705D02*
X48364285Y-102981705D01*
X49700000Y-103386467D02*
X49416666Y-102981705D01*
X49214285Y-103386467D02*
X49214285Y-102536467D01*
X49214285Y-102536467D02*
X49538095Y-102536467D01*
X49538095Y-102536467D02*
X49619047Y-102576943D01*
X49619047Y-102576943D02*
X49659524Y-102617419D01*
X49659524Y-102617419D02*
X49700000Y-102698371D01*
X49700000Y-102698371D02*
X49700000Y-102819800D01*
X49700000Y-102819800D02*
X49659524Y-102900752D01*
X49659524Y-102900752D02*
X49619047Y-102941229D01*
X49619047Y-102941229D02*
X49538095Y-102981705D01*
X49538095Y-102981705D02*
X49214285Y-102981705D01*
X50226190Y-102536467D02*
X50388095Y-102536467D01*
X50388095Y-102536467D02*
X50469047Y-102576943D01*
X50469047Y-102576943D02*
X50550000Y-102657895D01*
X50550000Y-102657895D02*
X50590476Y-102819800D01*
X50590476Y-102819800D02*
X50590476Y-103103133D01*
X50590476Y-103103133D02*
X50550000Y-103265038D01*
X50550000Y-103265038D02*
X50469047Y-103345991D01*
X50469047Y-103345991D02*
X50388095Y-103386467D01*
X50388095Y-103386467D02*
X50226190Y-103386467D01*
X50226190Y-103386467D02*
X50145238Y-103345991D01*
X50145238Y-103345991D02*
X50064285Y-103265038D01*
X50064285Y-103265038D02*
X50023809Y-103103133D01*
X50023809Y-103103133D02*
X50023809Y-102819800D01*
X50023809Y-102819800D02*
X50064285Y-102657895D01*
X50064285Y-102657895D02*
X50145238Y-102576943D01*
X50145238Y-102576943D02*
X50226190Y-102536467D01*
X50833333Y-102536467D02*
X51319047Y-102536467D01*
X51076190Y-103386467D02*
X51076190Y-102536467D01*
X51764285Y-102536467D02*
X51926190Y-102536467D01*
X51926190Y-102536467D02*
X52007142Y-102576943D01*
X52007142Y-102576943D02*
X52088095Y-102657895D01*
X52088095Y-102657895D02*
X52128571Y-102819800D01*
X52128571Y-102819800D02*
X52128571Y-103103133D01*
X52128571Y-103103133D02*
X52088095Y-103265038D01*
X52088095Y-103265038D02*
X52007142Y-103345991D01*
X52007142Y-103345991D02*
X51926190Y-103386467D01*
X51926190Y-103386467D02*
X51764285Y-103386467D01*
X51764285Y-103386467D02*
X51683333Y-103345991D01*
X51683333Y-103345991D02*
X51602380Y-103265038D01*
X51602380Y-103265038D02*
X51561904Y-103103133D01*
X51561904Y-103103133D02*
X51561904Y-102819800D01*
X51561904Y-102819800D02*
X51602380Y-102657895D01*
X51602380Y-102657895D02*
X51683333Y-102576943D01*
X51683333Y-102576943D02*
X51764285Y-102536467D01*
X52371428Y-102536467D02*
X52857142Y-102536467D01*
X52614285Y-103386467D02*
X52614285Y-102536467D01*
X53302380Y-102981705D02*
X53302380Y-103386467D01*
X53019047Y-102536467D02*
X53302380Y-102981705D01*
X53302380Y-102981705D02*
X53585714Y-102536467D01*
X53869046Y-103386467D02*
X53869046Y-102536467D01*
X53869046Y-102536467D02*
X54192856Y-102536467D01*
X54192856Y-102536467D02*
X54273808Y-102576943D01*
X54273808Y-102576943D02*
X54314285Y-102617419D01*
X54314285Y-102617419D02*
X54354761Y-102698371D01*
X54354761Y-102698371D02*
X54354761Y-102819800D01*
X54354761Y-102819800D02*
X54314285Y-102900752D01*
X54314285Y-102900752D02*
X54273808Y-102941229D01*
X54273808Y-102941229D02*
X54192856Y-102981705D01*
X54192856Y-102981705D02*
X53869046Y-102981705D01*
X54719046Y-102941229D02*
X55002380Y-102941229D01*
X55123808Y-103386467D02*
X54719046Y-103386467D01*
X54719046Y-103386467D02*
X54719046Y-102536467D01*
X54719046Y-102536467D02*
X55123808Y-102536467D01*
X45547619Y-56205859D02*
X45547619Y-55205859D01*
X46119047Y-56205859D02*
X45690476Y-55634430D01*
X46119047Y-55205859D02*
X45547619Y-55777287D01*
X46547619Y-55682049D02*
X46880952Y-55682049D01*
X47023809Y-56205859D02*
X46547619Y-56205859D01*
X46547619Y-56205859D02*
X46547619Y-55205859D01*
X46547619Y-55205859D02*
X47023809Y-55205859D01*
X47642857Y-55729668D02*
X47642857Y-56205859D01*
X47309524Y-55205859D02*
X47642857Y-55729668D01*
X47642857Y-55729668D02*
X47976190Y-55205859D01*
X48880952Y-56110620D02*
X48833333Y-56158240D01*
X48833333Y-56158240D02*
X48690476Y-56205859D01*
X48690476Y-56205859D02*
X48595238Y-56205859D01*
X48595238Y-56205859D02*
X48452381Y-56158240D01*
X48452381Y-56158240D02*
X48357143Y-56063001D01*
X48357143Y-56063001D02*
X48309524Y-55967763D01*
X48309524Y-55967763D02*
X48261905Y-55777287D01*
X48261905Y-55777287D02*
X48261905Y-55634430D01*
X48261905Y-55634430D02*
X48309524Y-55443954D01*
X48309524Y-55443954D02*
X48357143Y-55348716D01*
X48357143Y-55348716D02*
X48452381Y-55253478D01*
X48452381Y-55253478D02*
X48595238Y-55205859D01*
X48595238Y-55205859D02*
X48690476Y-55205859D01*
X48690476Y-55205859D02*
X48833333Y-55253478D01*
X48833333Y-55253478D02*
X48880952Y-55301097D01*
X49309524Y-56205859D02*
X49309524Y-55205859D01*
X49309524Y-55682049D02*
X49880952Y-55682049D01*
X49880952Y-56205859D02*
X49880952Y-55205859D01*
X50309524Y-55920144D02*
X50785714Y-55920144D01*
X50214286Y-56205859D02*
X50547619Y-55205859D01*
X50547619Y-55205859D02*
X50880952Y-56205859D01*
X51214286Y-56205859D02*
X51214286Y-55205859D01*
X51690476Y-56205859D02*
X51690476Y-55205859D01*
X51690476Y-55205859D02*
X52261904Y-56205859D01*
X52261904Y-56205859D02*
X52261904Y-55205859D01*
X53500000Y-56205859D02*
X53500000Y-55205859D01*
X54071428Y-56205859D02*
X53642857Y-55634430D01*
X54071428Y-55205859D02*
X53500000Y-55777287D01*
X55071428Y-56205859D02*
X54738095Y-55729668D01*
X54500000Y-56205859D02*
X54500000Y-55205859D01*
X54500000Y-55205859D02*
X54880952Y-55205859D01*
X54880952Y-55205859D02*
X54976190Y-55253478D01*
X54976190Y-55253478D02*
X55023809Y-55301097D01*
X55023809Y-55301097D02*
X55071428Y-55396335D01*
X55071428Y-55396335D02*
X55071428Y-55539192D01*
X55071428Y-55539192D02*
X55023809Y-55634430D01*
X55023809Y-55634430D02*
X54976190Y-55682049D01*
X54976190Y-55682049D02*
X54880952Y-55729668D01*
X54880952Y-55729668D02*
X54500000Y-55729668D01*
X55500000Y-55682049D02*
X55833333Y-55682049D01*
X55976190Y-56205859D02*
X55500000Y-56205859D01*
X55500000Y-56205859D02*
X55500000Y-55205859D01*
X55500000Y-55205859D02*
X55976190Y-55205859D01*
X56357143Y-55920144D02*
X56833333Y-55920144D01*
X56261905Y-56205859D02*
X56595238Y-55205859D01*
X56595238Y-55205859D02*
X56928571Y-56205859D01*
X57119048Y-55205859D02*
X57690476Y-55205859D01*
X57404762Y-56205859D02*
X57404762Y-55205859D01*
X58023810Y-55205859D02*
X58023810Y-56015382D01*
X58023810Y-56015382D02*
X58071429Y-56110620D01*
X58071429Y-56110620D02*
X58119048Y-56158240D01*
X58119048Y-56158240D02*
X58214286Y-56205859D01*
X58214286Y-56205859D02*
X58404762Y-56205859D01*
X58404762Y-56205859D02*
X58500000Y-56158240D01*
X58500000Y-56158240D02*
X58547619Y-56110620D01*
X58547619Y-56110620D02*
X58595238Y-56015382D01*
X58595238Y-56015382D02*
X58595238Y-55205859D01*
X59642857Y-56205859D02*
X59309524Y-55729668D01*
X59071429Y-56205859D02*
X59071429Y-55205859D01*
X59071429Y-55205859D02*
X59452381Y-55205859D01*
X59452381Y-55205859D02*
X59547619Y-55253478D01*
X59547619Y-55253478D02*
X59595238Y-55301097D01*
X59595238Y-55301097D02*
X59642857Y-55396335D01*
X59642857Y-55396335D02*
X59642857Y-55539192D01*
X59642857Y-55539192D02*
X59595238Y-55634430D01*
X59595238Y-55634430D02*
X59547619Y-55682049D01*
X59547619Y-55682049D02*
X59452381Y-55729668D01*
X59452381Y-55729668D02*
X59071429Y-55729668D01*
X60071429Y-55682049D02*
X60404762Y-55682049D01*
X60547619Y-56205859D02*
X60071429Y-56205859D01*
X60071429Y-56205859D02*
X60071429Y-55205859D01*
X60071429Y-55205859D02*
X60547619Y-55205859D01*
X60928572Y-56158240D02*
X61071429Y-56205859D01*
X61071429Y-56205859D02*
X61309524Y-56205859D01*
X61309524Y-56205859D02*
X61404762Y-56158240D01*
X61404762Y-56158240D02*
X61452381Y-56110620D01*
X61452381Y-56110620D02*
X61500000Y-56015382D01*
X61500000Y-56015382D02*
X61500000Y-55920144D01*
X61500000Y-55920144D02*
X61452381Y-55824906D01*
X61452381Y-55824906D02*
X61404762Y-55777287D01*
X61404762Y-55777287D02*
X61309524Y-55729668D01*
X61309524Y-55729668D02*
X61119048Y-55682049D01*
X61119048Y-55682049D02*
X61023810Y-55634430D01*
X61023810Y-55634430D02*
X60976191Y-55586811D01*
X60976191Y-55586811D02*
X60928572Y-55491573D01*
X60928572Y-55491573D02*
X60928572Y-55396335D01*
X60928572Y-55396335D02*
X60976191Y-55301097D01*
X60976191Y-55301097D02*
X61023810Y-55253478D01*
X61023810Y-55253478D02*
X61119048Y-55205859D01*
X61119048Y-55205859D02*
X61357143Y-55205859D01*
X61357143Y-55205859D02*
X61500000Y-55253478D01*
%TO.C,SW5*%
D11*
X82750000Y-70000000D02*
G75*
G02*
X79250000Y-70000000I-1750000J0D01*
G01*
X79250000Y-70000000D02*
G75*
G02*
X82750000Y-70000000I1750000J0D01*
G01*
%TO.C,SW3*%
X16750000Y-70000000D02*
G75*
G02*
X13250000Y-70000000I-1750000J0D01*
G01*
X13250000Y-70000000D02*
G75*
G02*
X16750000Y-70000000I1750000J0D01*
G01*
%TO.C,SW8*%
X60750000Y-70000000D02*
G75*
G02*
X57250000Y-70000000I-1750000J0D01*
G01*
X57250000Y-70000000D02*
G75*
G02*
X60750000Y-70000000I1750000J0D01*
G01*
%TO.C,SW7*%
X71750000Y-60000000D02*
G75*
G02*
X68250000Y-60000000I-1750000J0D01*
G01*
X68250000Y-60000000D02*
G75*
G02*
X71750000Y-60000000I1750000J0D01*
G01*
%TO.C,D3*%
X78500000Y-21665000D02*
X81500000Y-21665000D01*
X78500000Y-32335000D02*
X78500000Y-21665000D01*
X78500000Y-32335000D02*
X81500000Y-32335000D01*
X81500000Y-21665000D02*
X81500000Y-32335000D01*
%TO.C,SW4*%
X38750000Y-70000000D02*
G75*
G02*
X35250000Y-70000000I-1750000J0D01*
G01*
X35250000Y-70000000D02*
G75*
G02*
X38750000Y-70000000I1750000J0D01*
G01*
D12*
%TO.C,LOGO1*%
X30273921Y-88036490D02*
X30377027Y-88072238D01*
X30473022Y-88128507D01*
X30558753Y-88205288D01*
X30631070Y-88302573D01*
X30663555Y-88363892D01*
X30691668Y-88449660D01*
X30705295Y-88548677D01*
X30703786Y-88650471D01*
X30687031Y-88742714D01*
X30641237Y-88855432D01*
X30574832Y-88953207D01*
X30491191Y-89034115D01*
X30393688Y-89096232D01*
X30285700Y-89137634D01*
X30170601Y-89156397D01*
X30051766Y-89150598D01*
X29993189Y-89138206D01*
X29879028Y-89093797D01*
X29777635Y-89026033D01*
X29691455Y-88937001D01*
X29622934Y-88828791D01*
X29617136Y-88816973D01*
X29597096Y-88772628D01*
X29584513Y-88735280D01*
X29577681Y-88695880D01*
X29574895Y-88645381D01*
X29574432Y-88590433D01*
X29575197Y-88524415D01*
X29578648Y-88476689D01*
X29586523Y-88438103D01*
X29600557Y-88399506D01*
X29617880Y-88361426D01*
X29682495Y-88253328D01*
X29762066Y-88165803D01*
X29853440Y-88098841D01*
X29953464Y-88052436D01*
X30058988Y-88026581D01*
X30166858Y-88021268D01*
X30273921Y-88036490D01*
G36*
X30273921Y-88036490D02*
G01*
X30377027Y-88072238D01*
X30473022Y-88128507D01*
X30558753Y-88205288D01*
X30631070Y-88302573D01*
X30663555Y-88363892D01*
X30691668Y-88449660D01*
X30705295Y-88548677D01*
X30703786Y-88650471D01*
X30687031Y-88742714D01*
X30641237Y-88855432D01*
X30574832Y-88953207D01*
X30491191Y-89034115D01*
X30393688Y-89096232D01*
X30285700Y-89137634D01*
X30170601Y-89156397D01*
X30051766Y-89150598D01*
X29993189Y-89138206D01*
X29879028Y-89093797D01*
X29777635Y-89026033D01*
X29691455Y-88937001D01*
X29622934Y-88828791D01*
X29617136Y-88816973D01*
X29597096Y-88772628D01*
X29584513Y-88735280D01*
X29577681Y-88695880D01*
X29574895Y-88645381D01*
X29574432Y-88590433D01*
X29575197Y-88524415D01*
X29578648Y-88476689D01*
X29586523Y-88438103D01*
X29600557Y-88399506D01*
X29617880Y-88361426D01*
X29682495Y-88253328D01*
X29762066Y-88165803D01*
X29853440Y-88098841D01*
X29953464Y-88052436D01*
X30058988Y-88026581D01*
X30166858Y-88021268D01*
X30273921Y-88036490D01*
G37*
X33439962Y-89160499D02*
X33588014Y-89176707D01*
X33731452Y-89205718D01*
X33876110Y-89249045D01*
X34027824Y-89308201D01*
X34192428Y-89384700D01*
X34222071Y-89399517D01*
X34290098Y-89433031D01*
X34354256Y-89463208D01*
X34408215Y-89487166D01*
X34445640Y-89502024D01*
X34451389Y-89503895D01*
X34506486Y-89520402D01*
X34259851Y-89879201D01*
X34199552Y-89966893D01*
X34144422Y-90047012D01*
X34096336Y-90116836D01*
X34057168Y-90173647D01*
X34028794Y-90214723D01*
X34013087Y-90237346D01*
X34010536Y-90240928D01*
X34000171Y-90233438D01*
X33974660Y-90210918D01*
X33938563Y-90177461D01*
X33918642Y-90158550D01*
X33805773Y-90068778D01*
X33679014Y-90000561D01*
X33569783Y-89963195D01*
X33504214Y-89951460D01*
X33422116Y-89944308D01*
X33333144Y-89941874D01*
X33246956Y-89944288D01*
X33173205Y-89951683D01*
X33143776Y-89957347D01*
X33011133Y-90002982D01*
X32891606Y-90072663D01*
X32785283Y-90166260D01*
X32692253Y-90283649D01*
X32612605Y-90424700D01*
X32546426Y-90589286D01*
X32493806Y-90777280D01*
X32462533Y-90938217D01*
X32454374Y-91009263D01*
X32448815Y-91101046D01*
X32445802Y-91206968D01*
X32445281Y-91320434D01*
X32447200Y-91434849D01*
X32451503Y-91543617D01*
X32458137Y-91640143D01*
X32467049Y-91717831D01*
X32468979Y-91729817D01*
X32511499Y-91922892D01*
X32569433Y-92093773D01*
X32643133Y-92243224D01*
X32732951Y-92372011D01*
X32796707Y-92441639D01*
X32911286Y-92536173D01*
X33036942Y-92606246D01*
X33171557Y-92651477D01*
X33313011Y-92671484D01*
X33459183Y-92665885D01*
X33607955Y-92634300D01*
X33695911Y-92603394D01*
X33817629Y-92541506D01*
X33943080Y-92452729D01*
X34013353Y-92392694D01*
X34052811Y-92357947D01*
X34083812Y-92332454D01*
X34101458Y-92320170D01*
X34103648Y-92319795D01*
X34111524Y-92332347D01*
X34131932Y-92365516D01*
X34163132Y-92416458D01*
X34203386Y-92482331D01*
X34250957Y-92560289D01*
X34304104Y-92647490D01*
X34333687Y-92696067D01*
X34559648Y-93067215D01*
X34277527Y-93206639D01*
X34175522Y-93256719D01*
X34092889Y-93296210D01*
X34024578Y-93327073D01*
X33965537Y-93351268D01*
X33910714Y-93370758D01*
X33855060Y-93387503D01*
X33793523Y-93403465D01*
X33734540Y-93417482D01*
X33682115Y-93428329D01*
X33627288Y-93436526D01*
X33564572Y-93442528D01*
X33488477Y-93446790D01*
X33393516Y-93449767D01*
X33329513Y-93451052D01*
X33238192Y-93451930D01*
X33150627Y-93451487D01*
X33072612Y-93449852D01*
X33009942Y-93447149D01*
X32968413Y-93443505D01*
X32965952Y-93443142D01*
X32750303Y-93396487D01*
X32547793Y-93325729D01*
X32358495Y-93230914D01*
X32182479Y-93112089D01*
X32019816Y-92969300D01*
X31870578Y-92802594D01*
X31762496Y-92654433D01*
X31647434Y-92460502D01*
X31554423Y-92255699D01*
X31483013Y-92038383D01*
X31432756Y-91806912D01*
X31403201Y-91559643D01*
X31393889Y-91308559D01*
X31401548Y-91065670D01*
X31425613Y-90841570D01*
X31466852Y-90632477D01*
X31526027Y-90434613D01*
X31603904Y-90244196D01*
X31613203Y-90224468D01*
X31715648Y-90040059D01*
X31841472Y-89864576D01*
X31987112Y-89701650D01*
X32149001Y-89554914D01*
X32323576Y-89428001D01*
X32486244Y-89334905D01*
X32650573Y-89261991D01*
X32815251Y-89209174D01*
X32986652Y-89175015D01*
X33171153Y-89158078D01*
X33281459Y-89155580D01*
X33439962Y-89160499D01*
G36*
X33439962Y-89160499D02*
G01*
X33588014Y-89176707D01*
X33731452Y-89205718D01*
X33876110Y-89249045D01*
X34027824Y-89308201D01*
X34192428Y-89384700D01*
X34222071Y-89399517D01*
X34290098Y-89433031D01*
X34354256Y-89463208D01*
X34408215Y-89487166D01*
X34445640Y-89502024D01*
X34451389Y-89503895D01*
X34506486Y-89520402D01*
X34259851Y-89879201D01*
X34199552Y-89966893D01*
X34144422Y-90047012D01*
X34096336Y-90116836D01*
X34057168Y-90173647D01*
X34028794Y-90214723D01*
X34013087Y-90237346D01*
X34010536Y-90240928D01*
X34000171Y-90233438D01*
X33974660Y-90210918D01*
X33938563Y-90177461D01*
X33918642Y-90158550D01*
X33805773Y-90068778D01*
X33679014Y-90000561D01*
X33569783Y-89963195D01*
X33504214Y-89951460D01*
X33422116Y-89944308D01*
X33333144Y-89941874D01*
X33246956Y-89944288D01*
X33173205Y-89951683D01*
X33143776Y-89957347D01*
X33011133Y-90002982D01*
X32891606Y-90072663D01*
X32785283Y-90166260D01*
X32692253Y-90283649D01*
X32612605Y-90424700D01*
X32546426Y-90589286D01*
X32493806Y-90777280D01*
X32462533Y-90938217D01*
X32454374Y-91009263D01*
X32448815Y-91101046D01*
X32445802Y-91206968D01*
X32445281Y-91320434D01*
X32447200Y-91434849D01*
X32451503Y-91543617D01*
X32458137Y-91640143D01*
X32467049Y-91717831D01*
X32468979Y-91729817D01*
X32511499Y-91922892D01*
X32569433Y-92093773D01*
X32643133Y-92243224D01*
X32732951Y-92372011D01*
X32796707Y-92441639D01*
X32911286Y-92536173D01*
X33036942Y-92606246D01*
X33171557Y-92651477D01*
X33313011Y-92671484D01*
X33459183Y-92665885D01*
X33607955Y-92634300D01*
X33695911Y-92603394D01*
X33817629Y-92541506D01*
X33943080Y-92452729D01*
X34013353Y-92392694D01*
X34052811Y-92357947D01*
X34083812Y-92332454D01*
X34101458Y-92320170D01*
X34103648Y-92319795D01*
X34111524Y-92332347D01*
X34131932Y-92365516D01*
X34163132Y-92416458D01*
X34203386Y-92482331D01*
X34250957Y-92560289D01*
X34304104Y-92647490D01*
X34333687Y-92696067D01*
X34559648Y-93067215D01*
X34277527Y-93206639D01*
X34175522Y-93256719D01*
X34092889Y-93296210D01*
X34024578Y-93327073D01*
X33965537Y-93351268D01*
X33910714Y-93370758D01*
X33855060Y-93387503D01*
X33793523Y-93403465D01*
X33734540Y-93417482D01*
X33682115Y-93428329D01*
X33627288Y-93436526D01*
X33564572Y-93442528D01*
X33488477Y-93446790D01*
X33393516Y-93449767D01*
X33329513Y-93451052D01*
X33238192Y-93451930D01*
X33150627Y-93451487D01*
X33072612Y-93449852D01*
X33009942Y-93447149D01*
X32968413Y-93443505D01*
X32965952Y-93443142D01*
X32750303Y-93396487D01*
X32547793Y-93325729D01*
X32358495Y-93230914D01*
X32182479Y-93112089D01*
X32019816Y-92969300D01*
X31870578Y-92802594D01*
X31762496Y-92654433D01*
X31647434Y-92460502D01*
X31554423Y-92255699D01*
X31483013Y-92038383D01*
X31432756Y-91806912D01*
X31403201Y-91559643D01*
X31393889Y-91308559D01*
X31401548Y-91065670D01*
X31425613Y-90841570D01*
X31466852Y-90632477D01*
X31526027Y-90434613D01*
X31603904Y-90244196D01*
X31613203Y-90224468D01*
X31715648Y-90040059D01*
X31841472Y-89864576D01*
X31987112Y-89701650D01*
X32149001Y-89554914D01*
X32323576Y-89428001D01*
X32486244Y-89334905D01*
X32650573Y-89261991D01*
X32815251Y-89209174D01*
X32986652Y-89175015D01*
X33171153Y-89158078D01*
X33281459Y-89155580D01*
X33439962Y-89160499D01*
G37*
X39842270Y-88956825D02*
X39959041Y-88957304D01*
X39998729Y-88957545D01*
X40544486Y-88961135D01*
X40551351Y-91054919D01*
X40552258Y-91338842D01*
X40553062Y-91596640D01*
X40553815Y-91829646D01*
X40554569Y-92039194D01*
X40555375Y-92226618D01*
X40556285Y-92393250D01*
X40557351Y-92540425D01*
X40558624Y-92669477D01*
X40560156Y-92781739D01*
X40561998Y-92878544D01*
X40564203Y-92961226D01*
X40566822Y-93031119D01*
X40569906Y-93089557D01*
X40573508Y-93137872D01*
X40577678Y-93177400D01*
X40582469Y-93209473D01*
X40587931Y-93235424D01*
X40594118Y-93256589D01*
X40601080Y-93274299D01*
X40608869Y-93289889D01*
X40617537Y-93304693D01*
X40627135Y-93320044D01*
X40637715Y-93337276D01*
X40639884Y-93340946D01*
X40676268Y-93403031D01*
X40150431Y-93399434D01*
X39624594Y-93395838D01*
X39617729Y-93280331D01*
X39613992Y-93224899D01*
X39610097Y-93192851D01*
X39604811Y-93180135D01*
X39596903Y-93182696D01*
X39590270Y-93190024D01*
X39561374Y-93216714D01*
X39514279Y-93251021D01*
X39455620Y-93288846D01*
X39392031Y-93326090D01*
X39330149Y-93358653D01*
X39282634Y-93380077D01*
X39171316Y-93415283D01*
X39043596Y-93440222D01*
X38908901Y-93453941D01*
X38776663Y-93455486D01*
X38656308Y-93443906D01*
X38654326Y-93443574D01*
X38489641Y-93402250D01*
X38335479Y-93336412D01*
X38193328Y-93247474D01*
X38064675Y-93136852D01*
X37951007Y-93005961D01*
X37853810Y-92856216D01*
X37774572Y-92689033D01*
X37731430Y-92565190D01*
X37702979Y-92461581D01*
X37681880Y-92361252D01*
X37667488Y-92258109D01*
X37659158Y-92146057D01*
X37656245Y-92019001D01*
X37657535Y-91915252D01*
X38670650Y-91915252D01*
X38675444Y-92089222D01*
X38690568Y-92238895D01*
X38716485Y-92365597D01*
X38753663Y-92470658D01*
X38802565Y-92555406D01*
X38863658Y-92621169D01*
X38934177Y-92667659D01*
X38970871Y-92685014D01*
X39002696Y-92695419D01*
X39038177Y-92700179D01*
X39085841Y-92700601D01*
X39137189Y-92698748D01*
X39238169Y-92689841D01*
X39318035Y-92672398D01*
X39343135Y-92663661D01*
X39400448Y-92637857D01*
X39460897Y-92605453D01*
X39487297Y-92589233D01*
X39555946Y-92544205D01*
X39555946Y-91116982D01*
X39480432Y-91071718D01*
X39375121Y-91020572D01*
X39267525Y-90990324D01*
X39161581Y-90980795D01*
X39061224Y-90991807D01*
X38970387Y-91023181D01*
X38893007Y-91074740D01*
X38868039Y-91099488D01*
X38807856Y-91180577D01*
X38759145Y-91278734D01*
X38721499Y-91395643D01*
X38694512Y-91532985D01*
X38677775Y-91692444D01*
X38670883Y-91875700D01*
X38670650Y-91915252D01*
X37657535Y-91915252D01*
X37658073Y-91872067D01*
X37669647Y-91646053D01*
X37692920Y-91442192D01*
X37728504Y-91257513D01*
X37777013Y-91089048D01*
X37839060Y-90933826D01*
X37861201Y-90887808D01*
X37950385Y-90737739D01*
X38058159Y-90604377D01*
X38181990Y-90489877D01*
X38319342Y-90396389D01*
X38467683Y-90326068D01*
X38556604Y-90297060D01*
X38643933Y-90279840D01*
X38749011Y-90269594D01*
X38863029Y-90266318D01*
X38977177Y-90270009D01*
X39082648Y-90280660D01*
X39167334Y-90297370D01*
X39268128Y-90330140D01*
X39365822Y-90372279D01*
X39451296Y-90419519D01*
X39496789Y-90451581D01*
X39528169Y-90475422D01*
X39550142Y-90489939D01*
X39555141Y-90492000D01*
X39556690Y-90478718D01*
X39558135Y-90440663D01*
X39559443Y-90380519D01*
X39560583Y-90300973D01*
X39561521Y-90204711D01*
X39562226Y-90094419D01*
X39562667Y-89972781D01*
X39562811Y-89848885D01*
X39562730Y-89690196D01*
X39562335Y-89556408D01*
X39561395Y-89444960D01*
X39559680Y-89353295D01*
X39556957Y-89278853D01*
X39552997Y-89219075D01*
X39547569Y-89171402D01*
X39540441Y-89133274D01*
X39531384Y-89102134D01*
X39520167Y-89075421D01*
X39506558Y-89050577D01*
X39490328Y-89025043D01*
X39488240Y-89021881D01*
X39467306Y-88988810D01*
X39454667Y-88966069D01*
X39452973Y-88961272D01*
X39466216Y-88959759D01*
X39504002Y-88958528D01*
X39563416Y-88957599D01*
X39641542Y-88956992D01*
X39735465Y-88956727D01*
X39842270Y-88956825D01*
G36*
X39842270Y-88956825D02*
G01*
X39959041Y-88957304D01*
X39998729Y-88957545D01*
X40544486Y-88961135D01*
X40551351Y-91054919D01*
X40552258Y-91338842D01*
X40553062Y-91596640D01*
X40553815Y-91829646D01*
X40554569Y-92039194D01*
X40555375Y-92226618D01*
X40556285Y-92393250D01*
X40557351Y-92540425D01*
X40558624Y-92669477D01*
X40560156Y-92781739D01*
X40561998Y-92878544D01*
X40564203Y-92961226D01*
X40566822Y-93031119D01*
X40569906Y-93089557D01*
X40573508Y-93137872D01*
X40577678Y-93177400D01*
X40582469Y-93209473D01*
X40587931Y-93235424D01*
X40594118Y-93256589D01*
X40601080Y-93274299D01*
X40608869Y-93289889D01*
X40617537Y-93304693D01*
X40627135Y-93320044D01*
X40637715Y-93337276D01*
X40639884Y-93340946D01*
X40676268Y-93403031D01*
X40150431Y-93399434D01*
X39624594Y-93395838D01*
X39617729Y-93280331D01*
X39613992Y-93224899D01*
X39610097Y-93192851D01*
X39604811Y-93180135D01*
X39596903Y-93182696D01*
X39590270Y-93190024D01*
X39561374Y-93216714D01*
X39514279Y-93251021D01*
X39455620Y-93288846D01*
X39392031Y-93326090D01*
X39330149Y-93358653D01*
X39282634Y-93380077D01*
X39171316Y-93415283D01*
X39043596Y-93440222D01*
X38908901Y-93453941D01*
X38776663Y-93455486D01*
X38656308Y-93443906D01*
X38654326Y-93443574D01*
X38489641Y-93402250D01*
X38335479Y-93336412D01*
X38193328Y-93247474D01*
X38064675Y-93136852D01*
X37951007Y-93005961D01*
X37853810Y-92856216D01*
X37774572Y-92689033D01*
X37731430Y-92565190D01*
X37702979Y-92461581D01*
X37681880Y-92361252D01*
X37667488Y-92258109D01*
X37659158Y-92146057D01*
X37656245Y-92019001D01*
X37657535Y-91915252D01*
X38670650Y-91915252D01*
X38675444Y-92089222D01*
X38690568Y-92238895D01*
X38716485Y-92365597D01*
X38753663Y-92470658D01*
X38802565Y-92555406D01*
X38863658Y-92621169D01*
X38934177Y-92667659D01*
X38970871Y-92685014D01*
X39002696Y-92695419D01*
X39038177Y-92700179D01*
X39085841Y-92700601D01*
X39137189Y-92698748D01*
X39238169Y-92689841D01*
X39318035Y-92672398D01*
X39343135Y-92663661D01*
X39400448Y-92637857D01*
X39460897Y-92605453D01*
X39487297Y-92589233D01*
X39555946Y-92544205D01*
X39555946Y-91116982D01*
X39480432Y-91071718D01*
X39375121Y-91020572D01*
X39267525Y-90990324D01*
X39161581Y-90980795D01*
X39061224Y-90991807D01*
X38970387Y-91023181D01*
X38893007Y-91074740D01*
X38868039Y-91099488D01*
X38807856Y-91180577D01*
X38759145Y-91278734D01*
X38721499Y-91395643D01*
X38694512Y-91532985D01*
X38677775Y-91692444D01*
X38670883Y-91875700D01*
X38670650Y-91915252D01*
X37657535Y-91915252D01*
X37658073Y-91872067D01*
X37669647Y-91646053D01*
X37692920Y-91442192D01*
X37728504Y-91257513D01*
X37777013Y-91089048D01*
X37839060Y-90933826D01*
X37861201Y-90887808D01*
X37950385Y-90737739D01*
X38058159Y-90604377D01*
X38181990Y-90489877D01*
X38319342Y-90396389D01*
X38467683Y-90326068D01*
X38556604Y-90297060D01*
X38643933Y-90279840D01*
X38749011Y-90269594D01*
X38863029Y-90266318D01*
X38977177Y-90270009D01*
X39082648Y-90280660D01*
X39167334Y-90297370D01*
X39268128Y-90330140D01*
X39365822Y-90372279D01*
X39451296Y-90419519D01*
X39496789Y-90451581D01*
X39528169Y-90475422D01*
X39550142Y-90489939D01*
X39555141Y-90492000D01*
X39556690Y-90478718D01*
X39558135Y-90440663D01*
X39559443Y-90380519D01*
X39560583Y-90300973D01*
X39561521Y-90204711D01*
X39562226Y-90094419D01*
X39562667Y-89972781D01*
X39562811Y-89848885D01*
X39562730Y-89690196D01*
X39562335Y-89556408D01*
X39561395Y-89444960D01*
X39559680Y-89353295D01*
X39556957Y-89278853D01*
X39552997Y-89219075D01*
X39547569Y-89171402D01*
X39540441Y-89133274D01*
X39531384Y-89102134D01*
X39520167Y-89075421D01*
X39506558Y-89050577D01*
X39490328Y-89025043D01*
X39488240Y-89021881D01*
X39467306Y-88988810D01*
X39454667Y-88966069D01*
X39452973Y-88961272D01*
X39466216Y-88959759D01*
X39504002Y-88958528D01*
X39563416Y-88957599D01*
X39641542Y-88956992D01*
X39735465Y-88956727D01*
X39842270Y-88956825D01*
G37*
X36167505Y-90264229D02*
X36235531Y-90269378D01*
X36430163Y-90295273D01*
X36602529Y-90336575D01*
X36753470Y-90393853D01*
X36883825Y-90467674D01*
X36994434Y-90558608D01*
X37086135Y-90667222D01*
X37159770Y-90794085D01*
X37213539Y-90931352D01*
X37227187Y-90975137D01*
X37239073Y-91016141D01*
X37249334Y-91056569D01*
X37258113Y-91098630D01*
X37265548Y-91144531D01*
X37271780Y-91196480D01*
X37276950Y-91256685D01*
X37281196Y-91327352D01*
X37284660Y-91410689D01*
X37287481Y-91508905D01*
X37289800Y-91624205D01*
X37291757Y-91758799D01*
X37293491Y-91914893D01*
X37295143Y-92094695D01*
X37296324Y-92235676D01*
X37304270Y-93203622D01*
X37355756Y-93296770D01*
X37380137Y-93341645D01*
X37398280Y-93376501D01*
X37406935Y-93395054D01*
X37407243Y-93396311D01*
X37394014Y-93397749D01*
X37356326Y-93399074D01*
X37297183Y-93400249D01*
X37219586Y-93401237D01*
X37126536Y-93401999D01*
X37021035Y-93402500D01*
X36906084Y-93402701D01*
X36892378Y-93402703D01*
X36377513Y-93402703D01*
X36377513Y-93286000D01*
X36376635Y-93233260D01*
X36374292Y-93192926D01*
X36370921Y-93171300D01*
X36369431Y-93169298D01*
X36355804Y-93177683D01*
X36327757Y-93199692D01*
X36291303Y-93230601D01*
X36290485Y-93231316D01*
X36223962Y-93280843D01*
X36139948Y-93330575D01*
X36047937Y-93375626D01*
X35957421Y-93411110D01*
X35917567Y-93423236D01*
X35838255Y-93438637D01*
X35740935Y-93448465D01*
X35634516Y-93452580D01*
X35527907Y-93450841D01*
X35430017Y-93443108D01*
X35361513Y-93431981D01*
X35193520Y-93382648D01*
X35042281Y-93312342D01*
X34908782Y-93221933D01*
X34794006Y-93112295D01*
X34698937Y-92984299D01*
X34624560Y-92838818D01*
X34592474Y-92750541D01*
X34572365Y-92664739D01*
X34559038Y-92561736D01*
X34552872Y-92451034D01*
X34553074Y-92434925D01*
X35481648Y-92434925D01*
X35489348Y-92517184D01*
X35514989Y-92585546D01*
X35562378Y-92648970D01*
X35580579Y-92667567D01*
X35645282Y-92717846D01*
X35720066Y-92750056D01*
X35809662Y-92765648D01*
X35904012Y-92766796D01*
X35993501Y-92759216D01*
X36062018Y-92744389D01*
X36091775Y-92733253D01*
X36145408Y-92702904D01*
X36202235Y-92660221D01*
X36254082Y-92612317D01*
X36292778Y-92566301D01*
X36303054Y-92549421D01*
X36311042Y-92525782D01*
X36316721Y-92488168D01*
X36320356Y-92432985D01*
X36322211Y-92356640D01*
X36322594Y-92283981D01*
X36322335Y-92199270D01*
X36321287Y-92138018D01*
X36319045Y-92096227D01*
X36315206Y-92069899D01*
X36309365Y-92055035D01*
X36301118Y-92047639D01*
X36298567Y-92046461D01*
X36276400Y-92042833D01*
X36232680Y-92039866D01*
X36173311Y-92037827D01*
X36104196Y-92036983D01*
X36089189Y-92036982D01*
X35996805Y-92038457D01*
X35925432Y-92042842D01*
X35868719Y-92050738D01*
X35821872Y-92062270D01*
X35705669Y-92106215D01*
X35614543Y-92160243D01*
X35547705Y-92225219D01*
X35504365Y-92302005D01*
X35483734Y-92391467D01*
X35481648Y-92434925D01*
X34553074Y-92434925D01*
X34554244Y-92342133D01*
X34563532Y-92244536D01*
X34570777Y-92205105D01*
X34617039Y-92058701D01*
X34687384Y-91923995D01*
X34780484Y-91802280D01*
X34895012Y-91694847D01*
X35029640Y-91602988D01*
X35183040Y-91527996D01*
X35313459Y-91482458D01*
X35400623Y-91458533D01*
X35483996Y-91439943D01*
X35568976Y-91426084D01*
X35660965Y-91416351D01*
X35765362Y-91410141D01*
X35887568Y-91406851D01*
X35998055Y-91405924D01*
X36325677Y-91405027D01*
X36319401Y-91306547D01*
X36301579Y-91199695D01*
X36263667Y-91107852D01*
X36207280Y-91033310D01*
X36134031Y-90978364D01*
X36069535Y-90951552D01*
X35977123Y-90934654D01*
X35867111Y-90932227D01*
X35744656Y-90943378D01*
X35614914Y-90967210D01*
X35483042Y-91002830D01*
X35354198Y-91049343D01*
X35260566Y-91091883D01*
X35215517Y-91113728D01*
X35181156Y-91128984D01*
X35163681Y-91134937D01*
X35162733Y-91134746D01*
X35156703Y-91121412D01*
X35141645Y-91086068D01*
X35118977Y-91032101D01*
X35090115Y-90962896D01*
X35056477Y-90881840D01*
X35022284Y-90799118D01*
X34885586Y-90467803D01*
X34982820Y-90451833D01*
X35024964Y-90443820D01*
X35088319Y-90430361D01*
X35167457Y-90412679D01*
X35256951Y-90391996D01*
X35351373Y-90369532D01*
X35388973Y-90360403D01*
X35551637Y-90322674D01*
X35694050Y-90294388D01*
X35821527Y-90274972D01*
X35939384Y-90263854D01*
X36052938Y-90260464D01*
X36167505Y-90264229D01*
G36*
X36167505Y-90264229D02*
G01*
X36235531Y-90269378D01*
X36430163Y-90295273D01*
X36602529Y-90336575D01*
X36753470Y-90393853D01*
X36883825Y-90467674D01*
X36994434Y-90558608D01*
X37086135Y-90667222D01*
X37159770Y-90794085D01*
X37213539Y-90931352D01*
X37227187Y-90975137D01*
X37239073Y-91016141D01*
X37249334Y-91056569D01*
X37258113Y-91098630D01*
X37265548Y-91144531D01*
X37271780Y-91196480D01*
X37276950Y-91256685D01*
X37281196Y-91327352D01*
X37284660Y-91410689D01*
X37287481Y-91508905D01*
X37289800Y-91624205D01*
X37291757Y-91758799D01*
X37293491Y-91914893D01*
X37295143Y-92094695D01*
X37296324Y-92235676D01*
X37304270Y-93203622D01*
X37355756Y-93296770D01*
X37380137Y-93341645D01*
X37398280Y-93376501D01*
X37406935Y-93395054D01*
X37407243Y-93396311D01*
X37394014Y-93397749D01*
X37356326Y-93399074D01*
X37297183Y-93400249D01*
X37219586Y-93401237D01*
X37126536Y-93401999D01*
X37021035Y-93402500D01*
X36906084Y-93402701D01*
X36892378Y-93402703D01*
X36377513Y-93402703D01*
X36377513Y-93286000D01*
X36376635Y-93233260D01*
X36374292Y-93192926D01*
X36370921Y-93171300D01*
X36369431Y-93169298D01*
X36355804Y-93177683D01*
X36327757Y-93199692D01*
X36291303Y-93230601D01*
X36290485Y-93231316D01*
X36223962Y-93280843D01*
X36139948Y-93330575D01*
X36047937Y-93375626D01*
X35957421Y-93411110D01*
X35917567Y-93423236D01*
X35838255Y-93438637D01*
X35740935Y-93448465D01*
X35634516Y-93452580D01*
X35527907Y-93450841D01*
X35430017Y-93443108D01*
X35361513Y-93431981D01*
X35193520Y-93382648D01*
X35042281Y-93312342D01*
X34908782Y-93221933D01*
X34794006Y-93112295D01*
X34698937Y-92984299D01*
X34624560Y-92838818D01*
X34592474Y-92750541D01*
X34572365Y-92664739D01*
X34559038Y-92561736D01*
X34552872Y-92451034D01*
X34553074Y-92434925D01*
X35481648Y-92434925D01*
X35489348Y-92517184D01*
X35514989Y-92585546D01*
X35562378Y-92648970D01*
X35580579Y-92667567D01*
X35645282Y-92717846D01*
X35720066Y-92750056D01*
X35809662Y-92765648D01*
X35904012Y-92766796D01*
X35993501Y-92759216D01*
X36062018Y-92744389D01*
X36091775Y-92733253D01*
X36145408Y-92702904D01*
X36202235Y-92660221D01*
X36254082Y-92612317D01*
X36292778Y-92566301D01*
X36303054Y-92549421D01*
X36311042Y-92525782D01*
X36316721Y-92488168D01*
X36320356Y-92432985D01*
X36322211Y-92356640D01*
X36322594Y-92283981D01*
X36322335Y-92199270D01*
X36321287Y-92138018D01*
X36319045Y-92096227D01*
X36315206Y-92069899D01*
X36309365Y-92055035D01*
X36301118Y-92047639D01*
X36298567Y-92046461D01*
X36276400Y-92042833D01*
X36232680Y-92039866D01*
X36173311Y-92037827D01*
X36104196Y-92036983D01*
X36089189Y-92036982D01*
X35996805Y-92038457D01*
X35925432Y-92042842D01*
X35868719Y-92050738D01*
X35821872Y-92062270D01*
X35705669Y-92106215D01*
X35614543Y-92160243D01*
X35547705Y-92225219D01*
X35504365Y-92302005D01*
X35483734Y-92391467D01*
X35481648Y-92434925D01*
X34553074Y-92434925D01*
X34554244Y-92342133D01*
X34563532Y-92244536D01*
X34570777Y-92205105D01*
X34617039Y-92058701D01*
X34687384Y-91923995D01*
X34780484Y-91802280D01*
X34895012Y-91694847D01*
X35029640Y-91602988D01*
X35183040Y-91527996D01*
X35313459Y-91482458D01*
X35400623Y-91458533D01*
X35483996Y-91439943D01*
X35568976Y-91426084D01*
X35660965Y-91416351D01*
X35765362Y-91410141D01*
X35887568Y-91406851D01*
X35998055Y-91405924D01*
X36325677Y-91405027D01*
X36319401Y-91306547D01*
X36301579Y-91199695D01*
X36263667Y-91107852D01*
X36207280Y-91033310D01*
X36134031Y-90978364D01*
X36069535Y-90951552D01*
X35977123Y-90934654D01*
X35867111Y-90932227D01*
X35744656Y-90943378D01*
X35614914Y-90967210D01*
X35483042Y-91002830D01*
X35354198Y-91049343D01*
X35260566Y-91091883D01*
X35215517Y-91113728D01*
X35181156Y-91128984D01*
X35163681Y-91134937D01*
X35162733Y-91134746D01*
X35156703Y-91121412D01*
X35141645Y-91086068D01*
X35118977Y-91032101D01*
X35090115Y-90962896D01*
X35056477Y-90881840D01*
X35022284Y-90799118D01*
X34885586Y-90467803D01*
X34982820Y-90451833D01*
X35024964Y-90443820D01*
X35088319Y-90430361D01*
X35167457Y-90412679D01*
X35256951Y-90391996D01*
X35351373Y-90369532D01*
X35388973Y-90360403D01*
X35551637Y-90322674D01*
X35694050Y-90294388D01*
X35821527Y-90274972D01*
X35939384Y-90263854D01*
X36052938Y-90260464D01*
X36167505Y-90264229D01*
G37*
X27044257Y-88473689D02*
X27308780Y-88473725D01*
X27431912Y-88473730D01*
X29402811Y-88473730D01*
X29402811Y-88589910D01*
X29415211Y-88731291D01*
X29452636Y-88861684D01*
X29515423Y-88981862D01*
X29603906Y-89092602D01*
X29633843Y-89122511D01*
X29741534Y-89207348D01*
X29860275Y-89269221D01*
X29986540Y-89308159D01*
X30116803Y-89324190D01*
X30247535Y-89317342D01*
X30375212Y-89287643D01*
X30496305Y-89235120D01*
X30607288Y-89159803D01*
X30657132Y-89114363D01*
X30750017Y-89002952D01*
X30818127Y-88880435D01*
X30860871Y-88748215D01*
X30877653Y-88607692D01*
X30877876Y-88593867D01*
X30878756Y-88473734D01*
X30931557Y-88473732D01*
X30978396Y-88480089D01*
X31021183Y-88495556D01*
X31024011Y-88497154D01*
X31033675Y-88502168D01*
X31042549Y-88506073D01*
X31050665Y-88510007D01*
X31058057Y-88515106D01*
X31064755Y-88522508D01*
X31070792Y-88533351D01*
X31076199Y-88548772D01*
X31081010Y-88569909D01*
X31085255Y-88597899D01*
X31088968Y-88633879D01*
X31092179Y-88678987D01*
X31094922Y-88734360D01*
X31097228Y-88801137D01*
X31099129Y-88880453D01*
X31100658Y-88973447D01*
X31101846Y-89081257D01*
X31102726Y-89205019D01*
X31103330Y-89345871D01*
X31103689Y-89504950D01*
X31103835Y-89683395D01*
X31103802Y-89882342D01*
X31103620Y-90102929D01*
X31103323Y-90346293D01*
X31102941Y-90613572D01*
X31102508Y-90905903D01*
X31102055Y-91224424D01*
X31102002Y-91263230D01*
X31101596Y-91583782D01*
X31101251Y-91878012D01*
X31100931Y-92147056D01*
X31100600Y-92392052D01*
X31100221Y-92614137D01*
X31099757Y-92814447D01*
X31099172Y-92994119D01*
X31098430Y-93154290D01*
X31097494Y-93296098D01*
X31096327Y-93420679D01*
X31094893Y-93529170D01*
X31093156Y-93622707D01*
X31091078Y-93702429D01*
X31088624Y-93769472D01*
X31085756Y-93824973D01*
X31082439Y-93870068D01*
X31078636Y-93905895D01*
X31074310Y-93933591D01*
X31069425Y-93954293D01*
X31063945Y-93969137D01*
X31057832Y-93979260D01*
X31051050Y-93985800D01*
X31043563Y-93989893D01*
X31035334Y-93992676D01*
X31026327Y-93995287D01*
X31016505Y-93998862D01*
X31014106Y-93999950D01*
X31006565Y-94002396D01*
X30993944Y-94004642D01*
X30975141Y-94006698D01*
X30949053Y-94008572D01*
X30914578Y-94010271D01*
X30870615Y-94011803D01*
X30816061Y-94013177D01*
X30749815Y-94014400D01*
X30670774Y-94015481D01*
X30577837Y-94016427D01*
X30469901Y-94017247D01*
X30345864Y-94017947D01*
X30204624Y-94018538D01*
X30045079Y-94019025D01*
X29866128Y-94019419D01*
X29666668Y-94019725D01*
X29445596Y-94019953D01*
X29201812Y-94020110D01*
X28934213Y-94020205D01*
X28641697Y-94020245D01*
X28323161Y-94020238D01*
X28219979Y-94020228D01*
X27894377Y-94020176D01*
X27595119Y-94020091D01*
X27321091Y-94019963D01*
X27071176Y-94019785D01*
X26844260Y-94019548D01*
X26639227Y-94019242D01*
X26454962Y-94018860D01*
X26290350Y-94018392D01*
X26144275Y-94017830D01*
X26015624Y-94017165D01*
X25903279Y-94016388D01*
X25806126Y-94015491D01*
X25723050Y-94014465D01*
X25652936Y-94013301D01*
X25594668Y-94011991D01*
X25547131Y-94010525D01*
X25509210Y-94008896D01*
X25479790Y-94007093D01*
X25457755Y-94005110D01*
X25441990Y-94002936D01*
X25431380Y-94000563D01*
X25425596Y-93998391D01*
X25415316Y-93994056D01*
X25405878Y-93990859D01*
X25397245Y-93987665D01*
X25389381Y-93983338D01*
X25382252Y-93976744D01*
X25375821Y-93966747D01*
X25370053Y-93952212D01*
X25364911Y-93932003D01*
X25360360Y-93904985D01*
X25356365Y-93870023D01*
X25352889Y-93825981D01*
X25349898Y-93771724D01*
X25347354Y-93706117D01*
X25345223Y-93628024D01*
X25343468Y-93536310D01*
X25342055Y-93429840D01*
X25341685Y-93388973D01*
X25708116Y-93388973D01*
X27003266Y-93388973D01*
X26978345Y-93351217D01*
X26953553Y-93312417D01*
X26932560Y-93275469D01*
X26915065Y-93237788D01*
X26900770Y-93196788D01*
X26889377Y-93149883D01*
X26880587Y-93094487D01*
X26874102Y-93028016D01*
X26869623Y-92947883D01*
X26866850Y-92851502D01*
X26865487Y-92736289D01*
X26865233Y-92599657D01*
X26865791Y-92439020D01*
X26866107Y-92379382D01*
X26869675Y-91740041D01*
X27274702Y-92291449D01*
X27389446Y-92447876D01*
X27488857Y-92584088D01*
X27574010Y-92701890D01*
X27645978Y-92803084D01*
X27705834Y-92889477D01*
X27754652Y-92962874D01*
X27793505Y-93025077D01*
X27823466Y-93077893D01*
X27845609Y-93123125D01*
X27861007Y-93162578D01*
X27870734Y-93198058D01*
X27875863Y-93231368D01*
X27877468Y-93264313D01*
X27876621Y-93298697D01*
X27876405Y-93303019D01*
X27871946Y-93389031D01*
X29291308Y-93388973D01*
X29185735Y-93282522D01*
X29157087Y-93253406D01*
X29129910Y-93225076D01*
X29103011Y-93195968D01*
X29075197Y-93164520D01*
X29045275Y-93129169D01*
X29012054Y-93088354D01*
X28974339Y-93040511D01*
X28930940Y-92984079D01*
X28880662Y-92917494D01*
X28822312Y-92839195D01*
X28754700Y-92747619D01*
X28676631Y-92641204D01*
X28586912Y-92518387D01*
X28484352Y-92377605D01*
X28367758Y-92217297D01*
X28272191Y-92085798D01*
X28152251Y-91920596D01*
X28047620Y-91776152D01*
X27957352Y-91651094D01*
X27880497Y-91544052D01*
X27816109Y-91453654D01*
X27763239Y-91378529D01*
X27720940Y-91317304D01*
X27688264Y-91268610D01*
X27664262Y-91231074D01*
X27647987Y-91203325D01*
X27638492Y-91183992D01*
X27634827Y-91171703D01*
X27635929Y-91165242D01*
X27649276Y-91148048D01*
X27678134Y-91111655D01*
X27720760Y-91058224D01*
X27775415Y-90989919D01*
X27840356Y-90908903D01*
X27913842Y-90817340D01*
X27994132Y-90717392D01*
X28079485Y-90611224D01*
X28168160Y-90500997D01*
X28258414Y-90388876D01*
X28308056Y-90327244D01*
X29540627Y-90327244D01*
X29591854Y-90419919D01*
X29643081Y-90512595D01*
X29643081Y-93203622D01*
X29591854Y-93296298D01*
X29540627Y-93388973D01*
X30146604Y-93388973D01*
X30291266Y-93388931D01*
X30410756Y-93388741D01*
X30507358Y-93388308D01*
X30583358Y-93387536D01*
X30641043Y-93386330D01*
X30682699Y-93384594D01*
X30710611Y-93382232D01*
X30727065Y-93379150D01*
X30734348Y-93375251D01*
X30734745Y-93370440D01*
X30730542Y-93364622D01*
X30730499Y-93364574D01*
X30713187Y-93339532D01*
X30690264Y-93298815D01*
X30670019Y-93258168D01*
X30631621Y-93176162D01*
X30623789Y-90327244D01*
X29540627Y-90327244D01*
X28308056Y-90327244D01*
X28348507Y-90277024D01*
X28436698Y-90167604D01*
X28521246Y-90062778D01*
X28600408Y-89964711D01*
X28672444Y-89875566D01*
X28735613Y-89797505D01*
X28788173Y-89732692D01*
X28828383Y-89683290D01*
X28852000Y-89654487D01*
X28943710Y-89546778D01*
X29031940Y-89449580D01*
X29113597Y-89366076D01*
X29185590Y-89299448D01*
X29236681Y-89258599D01*
X29297093Y-89215135D01*
X27907702Y-89215135D01*
X27908092Y-89296666D01*
X27904209Y-89356606D01*
X27889610Y-89412177D01*
X27867012Y-89464855D01*
X27852322Y-89494615D01*
X27836528Y-89524103D01*
X27818186Y-89555276D01*
X27795855Y-89590093D01*
X27768091Y-89630510D01*
X27733451Y-89678486D01*
X27690493Y-89735978D01*
X27637773Y-89804943D01*
X27573849Y-89887339D01*
X27497279Y-89985124D01*
X27406619Y-90100255D01*
X27300426Y-90234690D01*
X27288432Y-90249859D01*
X26869675Y-90779412D01*
X26865622Y-90192922D01*
X26864805Y-90017251D01*
X26864979Y-89868532D01*
X26866151Y-89746275D01*
X26868331Y-89649989D01*
X26871526Y-89579183D01*
X26875744Y-89533369D01*
X26877162Y-89524679D01*
X26899409Y-89433135D01*
X26928557Y-89350608D01*
X26961818Y-89284253D01*
X26981800Y-89256110D01*
X27016278Y-89215135D01*
X26362086Y-89215135D01*
X26206031Y-89215269D01*
X26075533Y-89215703D01*
X25968690Y-89216489D01*
X25883602Y-89217676D01*
X25818365Y-89219317D01*
X25771079Y-89221461D01*
X25739843Y-89224159D01*
X25722754Y-89227462D01*
X25717912Y-89231421D01*
X25718247Y-89232298D01*
X25732115Y-89253231D01*
X25755268Y-89286412D01*
X25767246Y-89303193D01*
X25779631Y-89319940D01*
X25790763Y-89334915D01*
X25800712Y-89349594D01*
X25809549Y-89365449D01*
X25817343Y-89383955D01*
X25824165Y-89406585D01*
X25830084Y-89434813D01*
X25835171Y-89470113D01*
X25839496Y-89513958D01*
X25843129Y-89567822D01*
X25846140Y-89633180D01*
X25848599Y-89711504D01*
X25850577Y-89804268D01*
X25852142Y-89912947D01*
X25853366Y-90039013D01*
X25854319Y-90183942D01*
X25855070Y-90349206D01*
X25855689Y-90536279D01*
X25856248Y-90746635D01*
X25856815Y-90981748D01*
X25857345Y-91197741D01*
X25857845Y-91438535D01*
X25858105Y-91668274D01*
X25858132Y-91885493D01*
X25857933Y-92088722D01*
X25857514Y-92276496D01*
X25856882Y-92447345D01*
X25856044Y-92599803D01*
X25855008Y-92732403D01*
X25853780Y-92843676D01*
X25852367Y-92932156D01*
X25850775Y-92996375D01*
X25849013Y-93034865D01*
X25848679Y-93038933D01*
X25836534Y-93132248D01*
X25817573Y-93207190D01*
X25788698Y-93272594D01*
X25746810Y-93337293D01*
X25741571Y-93344352D01*
X25708116Y-93388973D01*
X25341685Y-93388973D01*
X25340946Y-93307479D01*
X25340107Y-93168090D01*
X25339502Y-93010539D01*
X25339095Y-92833691D01*
X25338850Y-92636410D01*
X25338733Y-92417560D01*
X25338705Y-92176007D01*
X25338733Y-91910615D01*
X25338780Y-91620249D01*
X25338810Y-91303773D01*
X25338811Y-91240946D01*
X25338828Y-90921137D01*
X25338888Y-90627661D01*
X25338998Y-90359390D01*
X25339167Y-90115198D01*
X25339403Y-89893957D01*
X25339716Y-89694540D01*
X25340115Y-89515820D01*
X25340607Y-89356671D01*
X25341203Y-89215966D01*
X25341910Y-89092576D01*
X25342737Y-88985376D01*
X25343693Y-88893238D01*
X25344787Y-88815035D01*
X25346027Y-88749641D01*
X25347422Y-88695928D01*
X25348982Y-88652769D01*
X25350714Y-88619037D01*
X25352628Y-88593605D01*
X25354732Y-88575347D01*
X25357034Y-88563134D01*
X25359545Y-88555841D01*
X25359637Y-88555659D01*
X25364808Y-88544518D01*
X25369115Y-88534431D01*
X25373879Y-88525346D01*
X25380422Y-88517212D01*
X25390065Y-88509976D01*
X25404129Y-88503586D01*
X25423937Y-88497989D01*
X25450809Y-88493133D01*
X25486067Y-88488966D01*
X25531032Y-88485436D01*
X25587026Y-88482491D01*
X25655371Y-88480077D01*
X25737386Y-88478144D01*
X25834395Y-88476638D01*
X25947718Y-88475508D01*
X26078677Y-88474702D01*
X26228593Y-88474166D01*
X26398787Y-88473849D01*
X26590582Y-88473699D01*
X26805298Y-88473663D01*
X27044257Y-88473689D01*
G36*
X27044257Y-88473689D02*
G01*
X27308780Y-88473725D01*
X27431912Y-88473730D01*
X29402811Y-88473730D01*
X29402811Y-88589910D01*
X29415211Y-88731291D01*
X29452636Y-88861684D01*
X29515423Y-88981862D01*
X29603906Y-89092602D01*
X29633843Y-89122511D01*
X29741534Y-89207348D01*
X29860275Y-89269221D01*
X29986540Y-89308159D01*
X30116803Y-89324190D01*
X30247535Y-89317342D01*
X30375212Y-89287643D01*
X30496305Y-89235120D01*
X30607288Y-89159803D01*
X30657132Y-89114363D01*
X30750017Y-89002952D01*
X30818127Y-88880435D01*
X30860871Y-88748215D01*
X30877653Y-88607692D01*
X30877876Y-88593867D01*
X30878756Y-88473734D01*
X30931557Y-88473732D01*
X30978396Y-88480089D01*
X31021183Y-88495556D01*
X31024011Y-88497154D01*
X31033675Y-88502168D01*
X31042549Y-88506073D01*
X31050665Y-88510007D01*
X31058057Y-88515106D01*
X31064755Y-88522508D01*
X31070792Y-88533351D01*
X31076199Y-88548772D01*
X31081010Y-88569909D01*
X31085255Y-88597899D01*
X31088968Y-88633879D01*
X31092179Y-88678987D01*
X31094922Y-88734360D01*
X31097228Y-88801137D01*
X31099129Y-88880453D01*
X31100658Y-88973447D01*
X31101846Y-89081257D01*
X31102726Y-89205019D01*
X31103330Y-89345871D01*
X31103689Y-89504950D01*
X31103835Y-89683395D01*
X31103802Y-89882342D01*
X31103620Y-90102929D01*
X31103323Y-90346293D01*
X31102941Y-90613572D01*
X31102508Y-90905903D01*
X31102055Y-91224424D01*
X31102002Y-91263230D01*
X31101596Y-91583782D01*
X31101251Y-91878012D01*
X31100931Y-92147056D01*
X31100600Y-92392052D01*
X31100221Y-92614137D01*
X31099757Y-92814447D01*
X31099172Y-92994119D01*
X31098430Y-93154290D01*
X31097494Y-93296098D01*
X31096327Y-93420679D01*
X31094893Y-93529170D01*
X31093156Y-93622707D01*
X31091078Y-93702429D01*
X31088624Y-93769472D01*
X31085756Y-93824973D01*
X31082439Y-93870068D01*
X31078636Y-93905895D01*
X31074310Y-93933591D01*
X31069425Y-93954293D01*
X31063945Y-93969137D01*
X31057832Y-93979260D01*
X31051050Y-93985800D01*
X31043563Y-93989893D01*
X31035334Y-93992676D01*
X31026327Y-93995287D01*
X31016505Y-93998862D01*
X31014106Y-93999950D01*
X31006565Y-94002396D01*
X30993944Y-94004642D01*
X30975141Y-94006698D01*
X30949053Y-94008572D01*
X30914578Y-94010271D01*
X30870615Y-94011803D01*
X30816061Y-94013177D01*
X30749815Y-94014400D01*
X30670774Y-94015481D01*
X30577837Y-94016427D01*
X30469901Y-94017247D01*
X30345864Y-94017947D01*
X30204624Y-94018538D01*
X30045079Y-94019025D01*
X29866128Y-94019419D01*
X29666668Y-94019725D01*
X29445596Y-94019953D01*
X29201812Y-94020110D01*
X28934213Y-94020205D01*
X28641697Y-94020245D01*
X28323161Y-94020238D01*
X28219979Y-94020228D01*
X27894377Y-94020176D01*
X27595119Y-94020091D01*
X27321091Y-94019963D01*
X27071176Y-94019785D01*
X26844260Y-94019548D01*
X26639227Y-94019242D01*
X26454962Y-94018860D01*
X26290350Y-94018392D01*
X26144275Y-94017830D01*
X26015624Y-94017165D01*
X25903279Y-94016388D01*
X25806126Y-94015491D01*
X25723050Y-94014465D01*
X25652936Y-94013301D01*
X25594668Y-94011991D01*
X25547131Y-94010525D01*
X25509210Y-94008896D01*
X25479790Y-94007093D01*
X25457755Y-94005110D01*
X25441990Y-94002936D01*
X25431380Y-94000563D01*
X25425596Y-93998391D01*
X25415316Y-93994056D01*
X25405878Y-93990859D01*
X25397245Y-93987665D01*
X25389381Y-93983338D01*
X25382252Y-93976744D01*
X25375821Y-93966747D01*
X25370053Y-93952212D01*
X25364911Y-93932003D01*
X25360360Y-93904985D01*
X25356365Y-93870023D01*
X25352889Y-93825981D01*
X25349898Y-93771724D01*
X25347354Y-93706117D01*
X25345223Y-93628024D01*
X25343468Y-93536310D01*
X25342055Y-93429840D01*
X25341685Y-93388973D01*
X25708116Y-93388973D01*
X27003266Y-93388973D01*
X26978345Y-93351217D01*
X26953553Y-93312417D01*
X26932560Y-93275469D01*
X26915065Y-93237788D01*
X26900770Y-93196788D01*
X26889377Y-93149883D01*
X26880587Y-93094487D01*
X26874102Y-93028016D01*
X26869623Y-92947883D01*
X26866850Y-92851502D01*
X26865487Y-92736289D01*
X26865233Y-92599657D01*
X26865791Y-92439020D01*
X26866107Y-92379382D01*
X26869675Y-91740041D01*
X27274702Y-92291449D01*
X27389446Y-92447876D01*
X27488857Y-92584088D01*
X27574010Y-92701890D01*
X27645978Y-92803084D01*
X27705834Y-92889477D01*
X27754652Y-92962874D01*
X27793505Y-93025077D01*
X27823466Y-93077893D01*
X27845609Y-93123125D01*
X27861007Y-93162578D01*
X27870734Y-93198058D01*
X27875863Y-93231368D01*
X27877468Y-93264313D01*
X27876621Y-93298697D01*
X27876405Y-93303019D01*
X27871946Y-93389031D01*
X29291308Y-93388973D01*
X29540627Y-93388973D01*
X30146604Y-93388973D01*
X30291266Y-93388931D01*
X30410756Y-93388741D01*
X30507358Y-93388308D01*
X30583358Y-93387536D01*
X30641043Y-93386330D01*
X30682699Y-93384594D01*
X30710611Y-93382232D01*
X30727065Y-93379150D01*
X30734348Y-93375251D01*
X30734745Y-93370440D01*
X30730542Y-93364622D01*
X30730499Y-93364574D01*
X30713187Y-93339532D01*
X30690264Y-93298815D01*
X30670019Y-93258168D01*
X30631621Y-93176162D01*
X30623789Y-90327244D01*
X29540627Y-90327244D01*
X29591854Y-90419919D01*
X29643081Y-90512595D01*
X29643081Y-93203622D01*
X29591854Y-93296298D01*
X29540627Y-93388973D01*
X29291308Y-93388973D01*
X29185735Y-93282522D01*
X29157087Y-93253406D01*
X29129910Y-93225076D01*
X29103011Y-93195968D01*
X29075197Y-93164520D01*
X29045275Y-93129169D01*
X29012054Y-93088354D01*
X28974339Y-93040511D01*
X28930940Y-92984079D01*
X28880662Y-92917494D01*
X28822312Y-92839195D01*
X28754700Y-92747619D01*
X28676631Y-92641204D01*
X28586912Y-92518387D01*
X28484352Y-92377605D01*
X28367758Y-92217297D01*
X28272191Y-92085798D01*
X28152251Y-91920596D01*
X28047620Y-91776152D01*
X27957352Y-91651094D01*
X27880497Y-91544052D01*
X27816109Y-91453654D01*
X27763239Y-91378529D01*
X27720940Y-91317304D01*
X27688264Y-91268610D01*
X27664262Y-91231074D01*
X27647987Y-91203325D01*
X27638492Y-91183992D01*
X27634827Y-91171703D01*
X27635929Y-91165242D01*
X27649276Y-91148048D01*
X27678134Y-91111655D01*
X27720760Y-91058224D01*
X27775415Y-90989919D01*
X27840356Y-90908903D01*
X27913842Y-90817340D01*
X27994132Y-90717392D01*
X28079485Y-90611224D01*
X28168160Y-90500997D01*
X28258414Y-90388876D01*
X28308056Y-90327244D01*
X28348507Y-90277024D01*
X28436698Y-90167604D01*
X28521246Y-90062778D01*
X28600408Y-89964711D01*
X28672444Y-89875566D01*
X28735613Y-89797505D01*
X28788173Y-89732692D01*
X28828383Y-89683290D01*
X28852000Y-89654487D01*
X28943710Y-89546778D01*
X29031940Y-89449580D01*
X29113597Y-89366076D01*
X29185590Y-89299448D01*
X29236681Y-89258599D01*
X29297093Y-89215135D01*
X27907702Y-89215135D01*
X27908092Y-89296666D01*
X27904209Y-89356606D01*
X27889610Y-89412177D01*
X27867012Y-89464855D01*
X27852322Y-89494615D01*
X27836528Y-89524103D01*
X27818186Y-89555276D01*
X27795855Y-89590093D01*
X27768091Y-89630510D01*
X27733451Y-89678486D01*
X27690493Y-89735978D01*
X27637773Y-89804943D01*
X27573849Y-89887339D01*
X27497279Y-89985124D01*
X27406619Y-90100255D01*
X27300426Y-90234690D01*
X27288432Y-90249859D01*
X26869675Y-90779412D01*
X26865622Y-90192922D01*
X26864805Y-90017251D01*
X26864979Y-89868532D01*
X26866151Y-89746275D01*
X26868331Y-89649989D01*
X26871526Y-89579183D01*
X26875744Y-89533369D01*
X26877162Y-89524679D01*
X26899409Y-89433135D01*
X26928557Y-89350608D01*
X26961818Y-89284253D01*
X26981800Y-89256110D01*
X27016278Y-89215135D01*
X26362086Y-89215135D01*
X26206031Y-89215269D01*
X26075533Y-89215703D01*
X25968690Y-89216489D01*
X25883602Y-89217676D01*
X25818365Y-89219317D01*
X25771079Y-89221461D01*
X25739843Y-89224159D01*
X25722754Y-89227462D01*
X25717912Y-89231421D01*
X25718247Y-89232298D01*
X25732115Y-89253231D01*
X25755268Y-89286412D01*
X25767246Y-89303193D01*
X25779631Y-89319940D01*
X25790763Y-89334915D01*
X25800712Y-89349594D01*
X25809549Y-89365449D01*
X25817343Y-89383955D01*
X25824165Y-89406585D01*
X25830084Y-89434813D01*
X25835171Y-89470113D01*
X25839496Y-89513958D01*
X25843129Y-89567822D01*
X25846140Y-89633180D01*
X25848599Y-89711504D01*
X25850577Y-89804268D01*
X25852142Y-89912947D01*
X25853366Y-90039013D01*
X25854319Y-90183942D01*
X25855070Y-90349206D01*
X25855689Y-90536279D01*
X25856248Y-90746635D01*
X25856815Y-90981748D01*
X25857345Y-91197741D01*
X25857845Y-91438535D01*
X25858105Y-91668274D01*
X25858132Y-91885493D01*
X25857933Y-92088722D01*
X25857514Y-92276496D01*
X25856882Y-92447345D01*
X25856044Y-92599803D01*
X25855008Y-92732403D01*
X25853780Y-92843676D01*
X25852367Y-92932156D01*
X25850775Y-92996375D01*
X25849013Y-93034865D01*
X25848679Y-93038933D01*
X25836534Y-93132248D01*
X25817573Y-93207190D01*
X25788698Y-93272594D01*
X25746810Y-93337293D01*
X25741571Y-93344352D01*
X25708116Y-93388973D01*
X25341685Y-93388973D01*
X25340946Y-93307479D01*
X25340107Y-93168090D01*
X25339502Y-93010539D01*
X25339095Y-92833691D01*
X25338850Y-92636410D01*
X25338733Y-92417560D01*
X25338705Y-92176007D01*
X25338733Y-91910615D01*
X25338780Y-91620249D01*
X25338810Y-91303773D01*
X25338811Y-91240946D01*
X25338828Y-90921137D01*
X25338888Y-90627661D01*
X25338998Y-90359390D01*
X25339167Y-90115198D01*
X25339403Y-89893957D01*
X25339716Y-89694540D01*
X25340115Y-89515820D01*
X25340607Y-89356671D01*
X25341203Y-89215966D01*
X25341910Y-89092576D01*
X25342737Y-88985376D01*
X25343693Y-88893238D01*
X25344787Y-88815035D01*
X25346027Y-88749641D01*
X25347422Y-88695928D01*
X25348982Y-88652769D01*
X25350714Y-88619037D01*
X25352628Y-88593605D01*
X25354732Y-88575347D01*
X25357034Y-88563134D01*
X25359545Y-88555841D01*
X25359637Y-88555659D01*
X25364808Y-88544518D01*
X25369115Y-88534431D01*
X25373879Y-88525346D01*
X25380422Y-88517212D01*
X25390065Y-88509976D01*
X25404129Y-88503586D01*
X25423937Y-88497989D01*
X25450809Y-88493133D01*
X25486067Y-88488966D01*
X25531032Y-88485436D01*
X25587026Y-88482491D01*
X25655371Y-88480077D01*
X25737386Y-88478144D01*
X25834395Y-88476638D01*
X25947718Y-88475508D01*
X26078677Y-88474702D01*
X26228593Y-88474166D01*
X26398787Y-88473849D01*
X26590582Y-88473699D01*
X26805298Y-88473663D01*
X27044257Y-88473689D01*
G37*
%TO.C,LOGO2*%
X82799460Y-82458030D02*
X82842711Y-82471245D01*
X82870558Y-82487941D01*
X82879629Y-82501145D01*
X82877132Y-82516797D01*
X82860931Y-82541385D01*
X82847232Y-82558800D01*
X82818992Y-82590283D01*
X82797775Y-82603529D01*
X82779688Y-82602664D01*
X82726035Y-82589010D01*
X82686630Y-82589630D01*
X82654632Y-82605104D01*
X82643890Y-82614161D01*
X82609505Y-82646027D01*
X82609505Y-83062179D01*
X82471188Y-83062179D01*
X82471188Y-82458614D01*
X82540347Y-82458614D01*
X82581869Y-82460256D01*
X82603291Y-82466087D01*
X82609502Y-82477461D01*
X82609505Y-82477798D01*
X82612439Y-82489713D01*
X82625704Y-82488159D01*
X82644084Y-82479563D01*
X82682046Y-82463568D01*
X82712872Y-82453945D01*
X82752536Y-82451478D01*
X82799460Y-82458030D01*
G36*
X82799460Y-82458030D02*
G01*
X82842711Y-82471245D01*
X82870558Y-82487941D01*
X82879629Y-82501145D01*
X82877132Y-82516797D01*
X82860931Y-82541385D01*
X82847232Y-82558800D01*
X82818992Y-82590283D01*
X82797775Y-82603529D01*
X82779688Y-82602664D01*
X82726035Y-82589010D01*
X82686630Y-82589630D01*
X82654632Y-82605104D01*
X82643890Y-82614161D01*
X82609505Y-82646027D01*
X82609505Y-83062179D01*
X82471188Y-83062179D01*
X82471188Y-82458614D01*
X82540347Y-82458614D01*
X82581869Y-82460256D01*
X82603291Y-82466087D01*
X82609502Y-82477461D01*
X82609505Y-82477798D01*
X82612439Y-82489713D01*
X82625704Y-82488159D01*
X82644084Y-82479563D01*
X82682046Y-82463568D01*
X82712872Y-82453945D01*
X82752536Y-82451478D01*
X82799460Y-82458030D01*
G37*
X82635255Y-83401486D02*
X82683595Y-83411015D01*
X82711114Y-83425125D01*
X82740064Y-83448568D01*
X82698876Y-83500571D01*
X82673482Y-83532064D01*
X82656238Y-83547428D01*
X82639102Y-83549776D01*
X82614027Y-83542217D01*
X82602257Y-83537941D01*
X82554270Y-83531631D01*
X82510324Y-83545156D01*
X82478060Y-83575710D01*
X82472819Y-83585452D01*
X82467112Y-83611258D01*
X82462706Y-83658817D01*
X82459811Y-83724758D01*
X82458631Y-83805710D01*
X82458614Y-83817226D01*
X82458614Y-84017822D01*
X82320297Y-84017822D01*
X82320297Y-83401683D01*
X82389456Y-83401683D01*
X82429333Y-83402725D01*
X82450107Y-83407358D01*
X82457789Y-83417849D01*
X82458614Y-83427745D01*
X82458614Y-83453806D01*
X82491745Y-83427745D01*
X82529735Y-83409965D01*
X82580770Y-83401174D01*
X82635255Y-83401486D01*
G36*
X82635255Y-83401486D02*
G01*
X82683595Y-83411015D01*
X82711114Y-83425125D01*
X82740064Y-83448568D01*
X82698876Y-83500571D01*
X82673482Y-83532064D01*
X82656238Y-83547428D01*
X82639102Y-83549776D01*
X82614027Y-83542217D01*
X82602257Y-83537941D01*
X82554270Y-83531631D01*
X82510324Y-83545156D01*
X82478060Y-83575710D01*
X82472819Y-83585452D01*
X82467112Y-83611258D01*
X82462706Y-83658817D01*
X82459811Y-83724758D01*
X82458631Y-83805710D01*
X82458614Y-83817226D01*
X82458614Y-84017822D01*
X82320297Y-84017822D01*
X82320297Y-83401683D01*
X82389456Y-83401683D01*
X82429333Y-83402725D01*
X82450107Y-83407358D01*
X82457789Y-83417849D01*
X82458614Y-83427745D01*
X82458614Y-83453806D01*
X82491745Y-83427745D01*
X82529735Y-83409965D01*
X82580770Y-83401174D01*
X82635255Y-83401486D01*
G37*
X80006644Y-83403020D02*
X80025461Y-83408660D01*
X80031527Y-83421053D01*
X80031782Y-83426647D01*
X80032871Y-83442230D01*
X80040368Y-83444676D01*
X80060619Y-83433993D01*
X80072649Y-83426694D01*
X80110600Y-83411063D01*
X80155928Y-83403334D01*
X80203456Y-83402740D01*
X80248005Y-83408513D01*
X80284398Y-83419884D01*
X80307457Y-83436088D01*
X80312004Y-83456355D01*
X80309709Y-83461843D01*
X80292980Y-83484626D01*
X80267037Y-83512647D01*
X80262345Y-83517177D01*
X80237617Y-83538005D01*
X80216282Y-83544735D01*
X80186445Y-83540038D01*
X80174492Y-83536917D01*
X80137295Y-83529421D01*
X80111141Y-83532792D01*
X80089054Y-83544681D01*
X80068822Y-83560635D01*
X80053921Y-83580700D01*
X80043566Y-83608702D01*
X80036971Y-83648467D01*
X80033351Y-83703823D01*
X80031922Y-83778594D01*
X80031782Y-83823740D01*
X80031782Y-84017822D01*
X79906040Y-84017822D01*
X79906040Y-83401683D01*
X79968911Y-83401683D01*
X80006644Y-83403020D01*
G36*
X80006644Y-83403020D02*
G01*
X80025461Y-83408660D01*
X80031527Y-83421053D01*
X80031782Y-83426647D01*
X80032871Y-83442230D01*
X80040368Y-83444676D01*
X80060619Y-83433993D01*
X80072649Y-83426694D01*
X80110600Y-83411063D01*
X80155928Y-83403334D01*
X80203456Y-83402740D01*
X80248005Y-83408513D01*
X80284398Y-83419884D01*
X80307457Y-83436088D01*
X80312004Y-83456355D01*
X80309709Y-83461843D01*
X80292980Y-83484626D01*
X80267037Y-83512647D01*
X80262345Y-83517177D01*
X80237617Y-83538005D01*
X80216282Y-83544735D01*
X80186445Y-83540038D01*
X80174492Y-83536917D01*
X80137295Y-83529421D01*
X80111141Y-83532792D01*
X80089054Y-83544681D01*
X80068822Y-83560635D01*
X80053921Y-83580700D01*
X80043566Y-83608702D01*
X80036971Y-83648467D01*
X80033351Y-83703823D01*
X80031922Y-83778594D01*
X80031782Y-83823740D01*
X80031782Y-84017822D01*
X79906040Y-84017822D01*
X79906040Y-83401683D01*
X79968911Y-83401683D01*
X80006644Y-83403020D01*
G37*
X81993367Y-82654342D02*
X81994555Y-82746563D01*
X81998897Y-82816610D01*
X82007558Y-82867381D01*
X82021704Y-82901772D01*
X82042500Y-82922679D01*
X82071110Y-82933000D01*
X82106535Y-82935636D01*
X82143636Y-82932682D01*
X82171818Y-82921889D01*
X82192243Y-82900360D01*
X82206079Y-82865199D01*
X82214491Y-82813510D01*
X82218643Y-82742394D01*
X82219703Y-82654342D01*
X82219703Y-82458614D01*
X82358020Y-82458614D01*
X82358020Y-83062179D01*
X82288862Y-83062179D01*
X82247170Y-83060489D01*
X82225701Y-83054556D01*
X82219703Y-83043293D01*
X82216091Y-83033261D01*
X82201714Y-83035383D01*
X82172736Y-83049580D01*
X82106319Y-83071480D01*
X82035875Y-83069928D01*
X81968377Y-83046147D01*
X81936233Y-83027362D01*
X81911715Y-83007022D01*
X81893804Y-82981573D01*
X81881479Y-82947458D01*
X81873723Y-82901121D01*
X81869516Y-82839007D01*
X81867840Y-82757561D01*
X81867624Y-82694578D01*
X81867624Y-82458614D01*
X81993367Y-82458614D01*
X81993367Y-82654342D01*
G36*
X81993367Y-82654342D02*
G01*
X81994555Y-82746563D01*
X81998897Y-82816610D01*
X82007558Y-82867381D01*
X82021704Y-82901772D01*
X82042500Y-82922679D01*
X82071110Y-82933000D01*
X82106535Y-82935636D01*
X82143636Y-82932682D01*
X82171818Y-82921889D01*
X82192243Y-82900360D01*
X82206079Y-82865199D01*
X82214491Y-82813510D01*
X82218643Y-82742394D01*
X82219703Y-82654342D01*
X82219703Y-82458614D01*
X82358020Y-82458614D01*
X82358020Y-83062179D01*
X82288862Y-83062179D01*
X82247170Y-83060489D01*
X82225701Y-83054556D01*
X82219703Y-83043293D01*
X82216091Y-83033261D01*
X82201714Y-83035383D01*
X82172736Y-83049580D01*
X82106319Y-83071480D01*
X82035875Y-83069928D01*
X81968377Y-83046147D01*
X81936233Y-83027362D01*
X81911715Y-83007022D01*
X81893804Y-82981573D01*
X81881479Y-82947458D01*
X81873723Y-82901121D01*
X81869516Y-82839007D01*
X81867840Y-82757561D01*
X81867624Y-82694578D01*
X81867624Y-82458614D01*
X81993367Y-82458614D01*
X81993367Y-82654342D01*
G37*
X80245988Y-82469002D02*
X80277283Y-82483950D01*
X80307591Y-82505541D01*
X80330682Y-82530391D01*
X80347500Y-82562087D01*
X80358994Y-82604214D01*
X80366109Y-82660358D01*
X80369793Y-82734106D01*
X80370992Y-82829044D01*
X80371011Y-82838985D01*
X80371287Y-83062179D01*
X80232970Y-83062179D01*
X80232970Y-82856418D01*
X80232872Y-82780189D01*
X80232191Y-82724939D01*
X80230349Y-82686501D01*
X80226767Y-82660706D01*
X80220868Y-82643384D01*
X80212073Y-82630368D01*
X80199820Y-82617507D01*
X80156953Y-82589873D01*
X80110157Y-82584745D01*
X80065576Y-82602217D01*
X80050072Y-82615221D01*
X80038690Y-82627447D01*
X80030519Y-82640540D01*
X80025026Y-82658615D01*
X80021680Y-82685787D01*
X80019949Y-82726170D01*
X80019303Y-82783879D01*
X80019208Y-82854132D01*
X80019208Y-83062179D01*
X79880891Y-83062179D01*
X79880891Y-82458614D01*
X79950050Y-82458614D01*
X79991572Y-82460256D01*
X80012994Y-82466087D01*
X80019205Y-82477461D01*
X80019208Y-82477798D01*
X80022090Y-82488938D01*
X80034801Y-82487674D01*
X80060074Y-82475434D01*
X80117395Y-82457424D01*
X80182963Y-82455421D01*
X80245988Y-82469002D01*
G36*
X80245988Y-82469002D02*
G01*
X80277283Y-82483950D01*
X80307591Y-82505541D01*
X80330682Y-82530391D01*
X80347500Y-82562087D01*
X80358994Y-82604214D01*
X80366109Y-82660358D01*
X80369793Y-82734106D01*
X80370992Y-82829044D01*
X80371011Y-82838985D01*
X80371287Y-83062179D01*
X80232970Y-83062179D01*
X80232970Y-82856418D01*
X80232872Y-82780189D01*
X80232191Y-82724939D01*
X80230349Y-82686501D01*
X80226767Y-82660706D01*
X80220868Y-82643384D01*
X80212073Y-82630368D01*
X80199820Y-82617507D01*
X80156953Y-82589873D01*
X80110157Y-82584745D01*
X80065576Y-82602217D01*
X80050072Y-82615221D01*
X80038690Y-82627447D01*
X80030519Y-82640540D01*
X80025026Y-82658615D01*
X80021680Y-82685787D01*
X80019949Y-82726170D01*
X80019303Y-82783879D01*
X80019208Y-82854132D01*
X80019208Y-83062179D01*
X79880891Y-83062179D01*
X79880891Y-82458614D01*
X79950050Y-82458614D01*
X79991572Y-82460256D01*
X80012994Y-82466087D01*
X80019205Y-82477461D01*
X80019208Y-82477798D01*
X80022090Y-82488938D01*
X80034801Y-82487674D01*
X80060074Y-82475434D01*
X80117395Y-82457424D01*
X80182963Y-82455421D01*
X80245988Y-82469002D01*
G37*
X83217226Y-82463880D02*
X83290080Y-82494830D01*
X83313027Y-82509895D01*
X83342354Y-82533048D01*
X83360764Y-82551253D01*
X83363961Y-82557183D01*
X83354935Y-82570340D01*
X83331837Y-82592667D01*
X83313344Y-82608250D01*
X83262728Y-82648926D01*
X83222760Y-82615295D01*
X83191874Y-82593584D01*
X83161759Y-82586090D01*
X83127292Y-82587920D01*
X83072561Y-82601528D01*
X83034886Y-82629772D01*
X83011991Y-82675433D01*
X83001597Y-82741289D01*
X83001595Y-82741331D01*
X83002494Y-82814939D01*
X83016463Y-82868946D01*
X83044328Y-82905716D01*
X83063325Y-82918168D01*
X83113776Y-82933673D01*
X83167663Y-82933683D01*
X83214546Y-82918638D01*
X83225644Y-82911287D01*
X83253476Y-82892511D01*
X83275236Y-82889434D01*
X83298704Y-82903409D01*
X83324649Y-82928510D01*
X83365716Y-82970880D01*
X83320121Y-83008464D01*
X83249674Y-83050882D01*
X83170233Y-83071785D01*
X83087215Y-83070272D01*
X83032694Y-83056411D01*
X82968970Y-83022135D01*
X82918005Y-82968212D01*
X82894851Y-82930149D01*
X82876099Y-82875536D01*
X82866715Y-82806369D01*
X82866643Y-82731407D01*
X82875824Y-82659409D01*
X82894199Y-82599137D01*
X82897093Y-82592958D01*
X82939952Y-82532351D01*
X82997979Y-82488224D01*
X83066591Y-82461493D01*
X83141201Y-82453073D01*
X83217226Y-82463880D01*
G36*
X83217226Y-82463880D02*
G01*
X83290080Y-82494830D01*
X83313027Y-82509895D01*
X83342354Y-82533048D01*
X83360764Y-82551253D01*
X83363961Y-82557183D01*
X83354935Y-82570340D01*
X83331837Y-82592667D01*
X83313344Y-82608250D01*
X83262728Y-82648926D01*
X83222760Y-82615295D01*
X83191874Y-82593584D01*
X83161759Y-82586090D01*
X83127292Y-82587920D01*
X83072561Y-82601528D01*
X83034886Y-82629772D01*
X83011991Y-82675433D01*
X83001597Y-82741289D01*
X83001595Y-82741331D01*
X83002494Y-82814939D01*
X83016463Y-82868946D01*
X83044328Y-82905716D01*
X83063325Y-82918168D01*
X83113776Y-82933673D01*
X83167663Y-82933683D01*
X83214546Y-82918638D01*
X83225644Y-82911287D01*
X83253476Y-82892511D01*
X83275236Y-82889434D01*
X83298704Y-82903409D01*
X83324649Y-82928510D01*
X83365716Y-82970880D01*
X83320121Y-83008464D01*
X83249674Y-83050882D01*
X83170233Y-83071785D01*
X83087215Y-83070272D01*
X83032694Y-83056411D01*
X82968970Y-83022135D01*
X82918005Y-82968212D01*
X82894851Y-82930149D01*
X82876099Y-82875536D01*
X82866715Y-82806369D01*
X82866643Y-82731407D01*
X82875824Y-82659409D01*
X82894199Y-82599137D01*
X82897093Y-82592958D01*
X82939952Y-82532351D01*
X82997979Y-82488224D01*
X83066591Y-82461493D01*
X83141201Y-82453073D01*
X83217226Y-82463880D01*
G37*
X81610762Y-82466055D02*
X81674363Y-82500692D01*
X81724123Y-82555372D01*
X81747568Y-82599842D01*
X81757634Y-82639121D01*
X81764156Y-82695116D01*
X81766951Y-82759621D01*
X81765836Y-82824429D01*
X81760626Y-82881334D01*
X81754541Y-82911727D01*
X81734014Y-82953306D01*
X81698463Y-82997468D01*
X81655619Y-83036087D01*
X81613211Y-83061034D01*
X81612177Y-83061430D01*
X81559553Y-83072331D01*
X81497188Y-83072601D01*
X81437924Y-83062676D01*
X81415040Y-83054722D01*
X81356102Y-83021300D01*
X81313890Y-82977511D01*
X81286156Y-82919538D01*
X81270651Y-82843565D01*
X81267143Y-82803771D01*
X81267590Y-82753766D01*
X81402376Y-82753766D01*
X81406917Y-82826732D01*
X81419986Y-82882334D01*
X81440756Y-82917861D01*
X81455552Y-82928020D01*
X81493464Y-82935104D01*
X81538527Y-82933007D01*
X81577487Y-82922812D01*
X81587704Y-82917204D01*
X81614659Y-82884538D01*
X81632451Y-82834545D01*
X81640024Y-82773705D01*
X81636325Y-82708497D01*
X81628057Y-82669253D01*
X81604320Y-82623805D01*
X81566849Y-82595396D01*
X81521720Y-82585573D01*
X81475011Y-82595887D01*
X81439132Y-82621112D01*
X81420277Y-82641925D01*
X81409272Y-82662439D01*
X81404026Y-82690203D01*
X81402449Y-82732762D01*
X81402376Y-82753766D01*
X81267590Y-82753766D01*
X81268094Y-82697580D01*
X81285388Y-82610501D01*
X81319029Y-82542530D01*
X81369018Y-82493664D01*
X81435356Y-82463899D01*
X81449601Y-82460448D01*
X81535210Y-82452345D01*
X81610762Y-82466055D01*
G36*
X81610762Y-82466055D02*
G01*
X81674363Y-82500692D01*
X81724123Y-82555372D01*
X81747568Y-82599842D01*
X81757634Y-82639121D01*
X81764156Y-82695116D01*
X81766951Y-82759621D01*
X81765836Y-82824429D01*
X81760626Y-82881334D01*
X81754541Y-82911727D01*
X81734014Y-82953306D01*
X81698463Y-82997468D01*
X81655619Y-83036087D01*
X81613211Y-83061034D01*
X81612177Y-83061430D01*
X81559553Y-83072331D01*
X81497188Y-83072601D01*
X81437924Y-83062676D01*
X81415040Y-83054722D01*
X81356102Y-83021300D01*
X81313890Y-82977511D01*
X81286156Y-82919538D01*
X81270651Y-82843565D01*
X81267143Y-82803771D01*
X81267590Y-82753766D01*
X81402376Y-82753766D01*
X81406917Y-82826732D01*
X81419986Y-82882334D01*
X81440756Y-82917861D01*
X81455552Y-82928020D01*
X81493464Y-82935104D01*
X81538527Y-82933007D01*
X81577487Y-82922812D01*
X81587704Y-82917204D01*
X81614659Y-82884538D01*
X81632451Y-82834545D01*
X81640024Y-82773705D01*
X81636325Y-82708497D01*
X81628057Y-82669253D01*
X81604320Y-82623805D01*
X81566849Y-82595396D01*
X81521720Y-82585573D01*
X81475011Y-82595887D01*
X81439132Y-82621112D01*
X81420277Y-82641925D01*
X81409272Y-82662439D01*
X81404026Y-82690203D01*
X81402449Y-82732762D01*
X81402376Y-82753766D01*
X81267590Y-82753766D01*
X81268094Y-82697580D01*
X81285388Y-82610501D01*
X81319029Y-82542530D01*
X81369018Y-82493664D01*
X81435356Y-82463899D01*
X81449601Y-82460448D01*
X81535210Y-82452345D01*
X81610762Y-82466055D01*
G37*
X81281524Y-83404237D02*
X81331255Y-83407971D01*
X81461291Y-83797773D01*
X81481678Y-83728614D01*
X81493946Y-83685874D01*
X81510085Y-83628115D01*
X81527512Y-83564625D01*
X81536726Y-83530570D01*
X81571388Y-83401683D01*
X81714391Y-83401683D01*
X81671646Y-83536857D01*
X81650596Y-83603342D01*
X81625167Y-83683539D01*
X81598610Y-83767193D01*
X81574902Y-83841782D01*
X81520902Y-84011535D01*
X81462598Y-84015328D01*
X81404295Y-84019122D01*
X81372679Y-83914734D01*
X81353182Y-83849889D01*
X81331904Y-83778400D01*
X81313308Y-83715263D01*
X81312574Y-83712750D01*
X81298684Y-83669969D01*
X81286429Y-83640779D01*
X81277846Y-83629741D01*
X81276082Y-83631018D01*
X81269891Y-83648130D01*
X81258128Y-83684787D01*
X81242225Y-83736378D01*
X81223614Y-83798294D01*
X81213543Y-83832352D01*
X81159007Y-84017822D01*
X81043264Y-84017822D01*
X80950737Y-83725471D01*
X80924744Y-83643462D01*
X80901066Y-83568987D01*
X80880820Y-83505544D01*
X80865126Y-83456632D01*
X80855102Y-83425749D01*
X80852055Y-83416726D01*
X80854467Y-83407487D01*
X80873408Y-83403441D01*
X80912823Y-83403846D01*
X80918993Y-83404152D01*
X80992086Y-83407971D01*
X81039957Y-83584010D01*
X81057553Y-83648211D01*
X81073277Y-83704649D01*
X81085746Y-83748422D01*
X81093574Y-83774630D01*
X81095020Y-83778903D01*
X81101014Y-83773990D01*
X81113101Y-83748532D01*
X81129893Y-83705997D01*
X81150003Y-83649850D01*
X81167003Y-83599130D01*
X81231794Y-83400504D01*
X81281524Y-83404237D01*
G36*
X81281524Y-83404237D02*
G01*
X81331255Y-83407971D01*
X81461291Y-83797773D01*
X81481678Y-83728614D01*
X81493946Y-83685874D01*
X81510085Y-83628115D01*
X81527512Y-83564625D01*
X81536726Y-83530570D01*
X81571388Y-83401683D01*
X81714391Y-83401683D01*
X81671646Y-83536857D01*
X81650596Y-83603342D01*
X81625167Y-83683539D01*
X81598610Y-83767193D01*
X81574902Y-83841782D01*
X81520902Y-84011535D01*
X81462598Y-84015328D01*
X81404295Y-84019122D01*
X81372679Y-83914734D01*
X81353182Y-83849889D01*
X81331904Y-83778400D01*
X81313308Y-83715263D01*
X81312574Y-83712750D01*
X81298684Y-83669969D01*
X81286429Y-83640779D01*
X81277846Y-83629741D01*
X81276082Y-83631018D01*
X81269891Y-83648130D01*
X81258128Y-83684787D01*
X81242225Y-83736378D01*
X81223614Y-83798294D01*
X81213543Y-83832352D01*
X81159007Y-84017822D01*
X81043264Y-84017822D01*
X80950737Y-83725471D01*
X80924744Y-83643462D01*
X80901066Y-83568987D01*
X80880820Y-83505544D01*
X80865126Y-83456632D01*
X80855102Y-83425749D01*
X80852055Y-83416726D01*
X80854467Y-83407487D01*
X80873408Y-83403441D01*
X80912823Y-83403846D01*
X80918993Y-83404152D01*
X80992086Y-83407971D01*
X81039957Y-83584010D01*
X81057553Y-83648211D01*
X81073277Y-83704649D01*
X81085746Y-83748422D01*
X81093574Y-83774630D01*
X81095020Y-83778903D01*
X81101014Y-83773990D01*
X81113101Y-83748532D01*
X81129893Y-83705997D01*
X81150003Y-83649850D01*
X81167003Y-83599130D01*
X81231794Y-83400504D01*
X81281524Y-83404237D01*
G37*
X78461739Y-82465148D02*
X78527521Y-82494231D01*
X78577460Y-82542793D01*
X78611626Y-82610908D01*
X78630093Y-82698651D01*
X78631417Y-82712351D01*
X78632454Y-82808939D01*
X78619007Y-82893602D01*
X78591892Y-82962221D01*
X78577373Y-82984294D01*
X78526799Y-83031011D01*
X78462391Y-83061268D01*
X78390334Y-83073824D01*
X78316815Y-83067439D01*
X78260928Y-83047772D01*
X78212868Y-83014629D01*
X78173588Y-82971175D01*
X78172908Y-82970158D01*
X78156956Y-82943338D01*
X78146590Y-82916368D01*
X78140312Y-82882332D01*
X78136627Y-82834310D01*
X78135003Y-82794931D01*
X78134328Y-82759219D01*
X78260045Y-82759219D01*
X78261274Y-82794770D01*
X78265734Y-82842094D01*
X78273603Y-82872465D01*
X78287793Y-82894072D01*
X78301083Y-82906694D01*
X78348198Y-82933122D01*
X78397495Y-82936653D01*
X78443407Y-82917639D01*
X78466362Y-82896331D01*
X78482904Y-82874859D01*
X78492579Y-82854313D01*
X78496826Y-82827574D01*
X78497080Y-82787523D01*
X78495772Y-82750638D01*
X78492957Y-82697947D01*
X78488495Y-82663772D01*
X78480452Y-82641480D01*
X78466897Y-82624442D01*
X78456155Y-82614703D01*
X78411223Y-82589123D01*
X78362751Y-82587847D01*
X78322106Y-82602999D01*
X78287433Y-82634642D01*
X78266776Y-82686620D01*
X78260045Y-82759219D01*
X78134328Y-82759219D01*
X78133521Y-82716621D01*
X78136052Y-82658056D01*
X78143638Y-82614007D01*
X78157319Y-82579248D01*
X78178135Y-82548551D01*
X78185853Y-82539436D01*
X78234111Y-82494021D01*
X78285872Y-82467493D01*
X78349172Y-82456379D01*
X78380039Y-82455471D01*
X78461739Y-82465148D01*
G36*
X78461739Y-82465148D02*
G01*
X78527521Y-82494231D01*
X78577460Y-82542793D01*
X78611626Y-82610908D01*
X78630093Y-82698651D01*
X78631417Y-82712351D01*
X78632454Y-82808939D01*
X78619007Y-82893602D01*
X78591892Y-82962221D01*
X78577373Y-82984294D01*
X78526799Y-83031011D01*
X78462391Y-83061268D01*
X78390334Y-83073824D01*
X78316815Y-83067439D01*
X78260928Y-83047772D01*
X78212868Y-83014629D01*
X78173588Y-82971175D01*
X78172908Y-82970158D01*
X78156956Y-82943338D01*
X78146590Y-82916368D01*
X78140312Y-82882332D01*
X78136627Y-82834310D01*
X78135003Y-82794931D01*
X78134328Y-82759219D01*
X78260045Y-82759219D01*
X78261274Y-82794770D01*
X78265734Y-82842094D01*
X78273603Y-82872465D01*
X78287793Y-82894072D01*
X78301083Y-82906694D01*
X78348198Y-82933122D01*
X78397495Y-82936653D01*
X78443407Y-82917639D01*
X78466362Y-82896331D01*
X78482904Y-82874859D01*
X78492579Y-82854313D01*
X78496826Y-82827574D01*
X78497080Y-82787523D01*
X78495772Y-82750638D01*
X78492957Y-82697947D01*
X78488495Y-82663772D01*
X78480452Y-82641480D01*
X78466897Y-82624442D01*
X78456155Y-82614703D01*
X78411223Y-82589123D01*
X78362751Y-82587847D01*
X78322106Y-82602999D01*
X78287433Y-82634642D01*
X78266776Y-82686620D01*
X78260045Y-82759219D01*
X78134328Y-82759219D01*
X78133521Y-82716621D01*
X78136052Y-82658056D01*
X78143638Y-82614007D01*
X78157319Y-82579248D01*
X78178135Y-82548551D01*
X78185853Y-82539436D01*
X78234111Y-82494021D01*
X78285872Y-82467493D01*
X78349172Y-82456379D01*
X78380039Y-82455471D01*
X78461739Y-82465148D01*
G37*
X80798812Y-84017822D02*
X80729654Y-84017822D01*
X80689512Y-84016645D01*
X80668606Y-84011772D01*
X80661078Y-84001186D01*
X80660495Y-83994029D01*
X80659226Y-83979676D01*
X80651221Y-83976923D01*
X80630185Y-83985771D01*
X80613827Y-83994029D01*
X80551023Y-84013597D01*
X80482752Y-84014729D01*
X80427248Y-84000135D01*
X80375562Y-83964877D01*
X80336162Y-83912835D01*
X80314587Y-83851450D01*
X80314038Y-83848018D01*
X80310833Y-83810571D01*
X80309239Y-83756813D01*
X80309367Y-83716155D01*
X80446721Y-83716155D01*
X80449903Y-83770194D01*
X80457141Y-83814735D01*
X80466940Y-83839888D01*
X80504011Y-83874260D01*
X80548026Y-83886582D01*
X80593416Y-83876618D01*
X80632203Y-83846895D01*
X80646892Y-83826905D01*
X80655481Y-83803050D01*
X80659504Y-83768230D01*
X80660495Y-83715930D01*
X80658722Y-83664139D01*
X80654037Y-83618634D01*
X80647397Y-83588181D01*
X80646290Y-83585452D01*
X80619509Y-83553000D01*
X80580421Y-83535183D01*
X80536685Y-83532306D01*
X80495962Y-83544674D01*
X80465913Y-83572593D01*
X80462796Y-83578148D01*
X80453039Y-83612022D01*
X80447723Y-83660728D01*
X80446721Y-83716155D01*
X80309367Y-83716155D01*
X80309432Y-83695540D01*
X80310336Y-83662563D01*
X80316486Y-83580981D01*
X80329267Y-83519730D01*
X80350529Y-83474449D01*
X80382122Y-83440779D01*
X80412793Y-83421014D01*
X80455646Y-83407120D01*
X80508944Y-83402354D01*
X80563520Y-83406236D01*
X80610208Y-83418282D01*
X80634876Y-83432693D01*
X80660495Y-83455878D01*
X80660495Y-83162773D01*
X80798812Y-83162773D01*
X80798812Y-84017822D01*
G36*
X80798812Y-84017822D02*
G01*
X80729654Y-84017822D01*
X80689512Y-84016645D01*
X80668606Y-84011772D01*
X80661078Y-84001186D01*
X80660495Y-83994029D01*
X80659226Y-83979676D01*
X80651221Y-83976923D01*
X80630185Y-83985771D01*
X80613827Y-83994029D01*
X80551023Y-84013597D01*
X80482752Y-84014729D01*
X80427248Y-84000135D01*
X80375562Y-83964877D01*
X80336162Y-83912835D01*
X80314587Y-83851450D01*
X80314038Y-83848018D01*
X80310833Y-83810571D01*
X80309239Y-83756813D01*
X80309367Y-83716155D01*
X80446721Y-83716155D01*
X80449903Y-83770194D01*
X80457141Y-83814735D01*
X80466940Y-83839888D01*
X80504011Y-83874260D01*
X80548026Y-83886582D01*
X80593416Y-83876618D01*
X80632203Y-83846895D01*
X80646892Y-83826905D01*
X80655481Y-83803050D01*
X80659504Y-83768230D01*
X80660495Y-83715930D01*
X80658722Y-83664139D01*
X80654037Y-83618634D01*
X80647397Y-83588181D01*
X80646290Y-83585452D01*
X80619509Y-83553000D01*
X80580421Y-83535183D01*
X80536685Y-83532306D01*
X80495962Y-83544674D01*
X80465913Y-83572593D01*
X80462796Y-83578148D01*
X80453039Y-83612022D01*
X80447723Y-83660728D01*
X80446721Y-83716155D01*
X80309367Y-83716155D01*
X80309432Y-83695540D01*
X80310336Y-83662563D01*
X80316486Y-83580981D01*
X80329267Y-83519730D01*
X80350529Y-83474449D01*
X80382122Y-83440779D01*
X80412793Y-83421014D01*
X80455646Y-83407120D01*
X80508944Y-83402354D01*
X80563520Y-83406236D01*
X80610208Y-83418282D01*
X80634876Y-83432693D01*
X80660495Y-83455878D01*
X80660495Y-83162773D01*
X80798812Y-83162773D01*
X80798812Y-84017822D01*
G37*
X83677898Y-82456457D02*
X83710096Y-82464279D01*
X83771825Y-82492921D01*
X83824610Y-82536667D01*
X83861141Y-82589117D01*
X83866160Y-82600893D01*
X83873045Y-82631740D01*
X83877864Y-82677371D01*
X83879505Y-82723492D01*
X83879505Y-82810693D01*
X83697178Y-82810693D01*
X83621979Y-82810978D01*
X83569003Y-82812704D01*
X83535325Y-82817181D01*
X83518020Y-82825720D01*
X83514163Y-82839630D01*
X83520829Y-82860222D01*
X83532770Y-82884315D01*
X83566080Y-82924525D01*
X83612368Y-82944558D01*
X83668944Y-82943905D01*
X83733031Y-82922101D01*
X83788417Y-82895193D01*
X83834375Y-82931532D01*
X83880333Y-82967872D01*
X83837096Y-83007819D01*
X83779374Y-83045563D01*
X83708386Y-83068320D01*
X83632029Y-83074688D01*
X83558199Y-83063268D01*
X83546287Y-83059393D01*
X83481399Y-83025506D01*
X83433130Y-82974986D01*
X83400465Y-82906325D01*
X83382385Y-82818014D01*
X83382175Y-82816121D01*
X83380556Y-82719878D01*
X83387100Y-82685542D01*
X83514852Y-82685542D01*
X83526584Y-82690822D01*
X83558438Y-82694867D01*
X83605397Y-82697176D01*
X83635154Y-82697525D01*
X83690648Y-82697306D01*
X83725346Y-82695916D01*
X83743601Y-82692251D01*
X83749766Y-82685210D01*
X83748195Y-82673690D01*
X83746878Y-82669233D01*
X83724382Y-82627355D01*
X83689003Y-82593604D01*
X83657780Y-82578773D01*
X83616301Y-82579668D01*
X83574269Y-82598164D01*
X83539012Y-82628786D01*
X83517854Y-82666062D01*
X83514852Y-82685542D01*
X83387100Y-82685542D01*
X83396690Y-82635229D01*
X83428698Y-82564191D01*
X83474701Y-82508779D01*
X83532821Y-82471009D01*
X83601180Y-82452896D01*
X83677898Y-82456457D01*
G36*
X83677898Y-82456457D02*
G01*
X83710096Y-82464279D01*
X83771825Y-82492921D01*
X83824610Y-82536667D01*
X83861141Y-82589117D01*
X83866160Y-82600893D01*
X83873045Y-82631740D01*
X83877864Y-82677371D01*
X83879505Y-82723492D01*
X83879505Y-82810693D01*
X83697178Y-82810693D01*
X83621979Y-82810978D01*
X83569003Y-82812704D01*
X83535325Y-82817181D01*
X83518020Y-82825720D01*
X83514163Y-82839630D01*
X83520829Y-82860222D01*
X83532770Y-82884315D01*
X83566080Y-82924525D01*
X83612368Y-82944558D01*
X83668944Y-82943905D01*
X83733031Y-82922101D01*
X83788417Y-82895193D01*
X83834375Y-82931532D01*
X83880333Y-82967872D01*
X83837096Y-83007819D01*
X83779374Y-83045563D01*
X83708386Y-83068320D01*
X83632029Y-83074688D01*
X83558199Y-83063268D01*
X83546287Y-83059393D01*
X83481399Y-83025506D01*
X83433130Y-82974986D01*
X83400465Y-82906325D01*
X83382385Y-82818014D01*
X83382175Y-82816121D01*
X83380556Y-82719878D01*
X83387100Y-82685542D01*
X83514852Y-82685542D01*
X83526584Y-82690822D01*
X83558438Y-82694867D01*
X83605397Y-82697176D01*
X83635154Y-82697525D01*
X83690648Y-82697306D01*
X83725346Y-82695916D01*
X83743601Y-82692251D01*
X83749766Y-82685210D01*
X83748195Y-82673690D01*
X83746878Y-82669233D01*
X83724382Y-82627355D01*
X83689003Y-82593604D01*
X83657780Y-82578773D01*
X83616301Y-82579668D01*
X83574269Y-82598164D01*
X83539012Y-82628786D01*
X83517854Y-82666062D01*
X83514852Y-82685542D01*
X83387100Y-82685542D01*
X83396690Y-82635229D01*
X83428698Y-82564191D01*
X83474701Y-82508779D01*
X83532821Y-82471009D01*
X83601180Y-82452896D01*
X83677898Y-82456457D01*
G37*
X81014017Y-82456452D02*
X81061634Y-82465482D01*
X81111034Y-82484370D01*
X81116312Y-82486777D01*
X81153774Y-82506476D01*
X81179717Y-82524781D01*
X81188103Y-82536508D01*
X81180117Y-82555632D01*
X81160720Y-82583850D01*
X81152110Y-82594384D01*
X81116628Y-82635847D01*
X81070885Y-82608858D01*
X81027350Y-82590878D01*
X80977050Y-82581267D01*
X80928812Y-82580660D01*
X80891467Y-82589691D01*
X80882505Y-82595327D01*
X80865437Y-82621171D01*
X80863363Y-82650941D01*
X80876134Y-82674197D01*
X80883688Y-82678708D01*
X80906325Y-82684309D01*
X80946115Y-82690892D01*
X80995166Y-82697183D01*
X81004215Y-82698170D01*
X81082996Y-82711798D01*
X81140136Y-82734946D01*
X81178030Y-82769752D01*
X81199079Y-82818354D01*
X81205635Y-82877718D01*
X81196577Y-82945198D01*
X81167164Y-82998188D01*
X81117278Y-83036783D01*
X81046800Y-83061081D01*
X80968565Y-83070667D01*
X80904766Y-83070552D01*
X80853016Y-83061845D01*
X80817673Y-83049825D01*
X80773017Y-83028880D01*
X80731747Y-83004574D01*
X80717079Y-82993876D01*
X80679357Y-82963084D01*
X80724852Y-82917049D01*
X80770347Y-82871013D01*
X80822072Y-82905243D01*
X80873952Y-82930952D01*
X80929351Y-82944399D01*
X80982605Y-82945818D01*
X81028049Y-82935443D01*
X81060016Y-82913507D01*
X81070338Y-82894998D01*
X81068789Y-82865314D01*
X81043140Y-82842615D01*
X80993460Y-82826940D01*
X80939031Y-82819695D01*
X80855264Y-82805873D01*
X80793033Y-82779796D01*
X80751507Y-82740699D01*
X80729853Y-82687820D01*
X80726853Y-82625126D01*
X80741671Y-82559642D01*
X80775454Y-82510144D01*
X80828505Y-82476408D01*
X80901126Y-82458207D01*
X80954928Y-82454639D01*
X81014017Y-82456452D01*
G36*
X81014017Y-82456452D02*
G01*
X81061634Y-82465482D01*
X81111034Y-82484370D01*
X81116312Y-82486777D01*
X81153774Y-82506476D01*
X81179717Y-82524781D01*
X81188103Y-82536508D01*
X81180117Y-82555632D01*
X81160720Y-82583850D01*
X81152110Y-82594384D01*
X81116628Y-82635847D01*
X81070885Y-82608858D01*
X81027350Y-82590878D01*
X80977050Y-82581267D01*
X80928812Y-82580660D01*
X80891467Y-82589691D01*
X80882505Y-82595327D01*
X80865437Y-82621171D01*
X80863363Y-82650941D01*
X80876134Y-82674197D01*
X80883688Y-82678708D01*
X80906325Y-82684309D01*
X80946115Y-82690892D01*
X80995166Y-82697183D01*
X81004215Y-82698170D01*
X81082996Y-82711798D01*
X81140136Y-82734946D01*
X81178030Y-82769752D01*
X81199079Y-82818354D01*
X81205635Y-82877718D01*
X81196577Y-82945198D01*
X81167164Y-82998188D01*
X81117278Y-83036783D01*
X81046800Y-83061081D01*
X80968565Y-83070667D01*
X80904766Y-83070552D01*
X80853016Y-83061845D01*
X80817673Y-83049825D01*
X80773017Y-83028880D01*
X80731747Y-83004574D01*
X80717079Y-82993876D01*
X80679357Y-82963084D01*
X80724852Y-82917049D01*
X80770347Y-82871013D01*
X80822072Y-82905243D01*
X80873952Y-82930952D01*
X80929351Y-82944399D01*
X80982605Y-82945818D01*
X81028049Y-82935443D01*
X81060016Y-82913507D01*
X81070338Y-82894998D01*
X81068789Y-82865314D01*
X81043140Y-82842615D01*
X80993460Y-82826940D01*
X80939031Y-82819695D01*
X80855264Y-82805873D01*
X80793033Y-82779796D01*
X80751507Y-82740699D01*
X80729853Y-82687820D01*
X80726853Y-82625126D01*
X80741671Y-82559642D01*
X80775454Y-82510144D01*
X80828505Y-82476408D01*
X80901126Y-82458207D01*
X80954928Y-82454639D01*
X81014017Y-82456452D01*
G37*
X83032581Y-83404970D02*
X83092685Y-83420597D01*
X83143021Y-83452848D01*
X83167393Y-83476940D01*
X83207345Y-83533895D01*
X83230242Y-83599965D01*
X83238108Y-83681182D01*
X83238148Y-83687748D01*
X83238218Y-83753763D01*
X82858264Y-83753763D01*
X82866363Y-83788342D01*
X82880987Y-83819659D01*
X82906581Y-83852291D01*
X82911935Y-83857500D01*
X82957943Y-83885694D01*
X83010410Y-83890475D01*
X83070803Y-83871926D01*
X83081040Y-83866931D01*
X83112439Y-83851745D01*
X83133470Y-83843094D01*
X83137139Y-83842293D01*
X83149948Y-83850063D01*
X83174378Y-83869072D01*
X83186779Y-83879460D01*
X83212476Y-83903321D01*
X83220915Y-83919077D01*
X83215058Y-83933571D01*
X83211928Y-83937534D01*
X83190725Y-83954879D01*
X83155738Y-83975959D01*
X83131337Y-83988265D01*
X83062072Y-84009946D01*
X82985388Y-84016971D01*
X82912765Y-84008647D01*
X82892426Y-84002686D01*
X82829476Y-83968952D01*
X82782815Y-83917045D01*
X82752173Y-83846459D01*
X82737282Y-83756692D01*
X82735647Y-83709753D01*
X82740421Y-83641413D01*
X82860990Y-83641413D01*
X82872652Y-83646465D01*
X82903998Y-83650429D01*
X82949571Y-83652768D01*
X82980446Y-83653169D01*
X83035981Y-83652783D01*
X83071033Y-83650975D01*
X83090262Y-83646773D01*
X83098330Y-83639203D01*
X83099901Y-83628218D01*
X83089121Y-83594381D01*
X83061980Y-83560940D01*
X83026277Y-83535272D01*
X82990560Y-83524772D01*
X82942048Y-83534086D01*
X82900053Y-83561013D01*
X82870936Y-83599827D01*
X82860990Y-83641413D01*
X82740421Y-83641413D01*
X82742599Y-83610236D01*
X82764055Y-83530949D01*
X82800470Y-83471263D01*
X82852297Y-83430549D01*
X82919990Y-83408179D01*
X82956662Y-83403871D01*
X83032581Y-83404970D01*
G36*
X83032581Y-83404970D02*
G01*
X83092685Y-83420597D01*
X83143021Y-83452848D01*
X83167393Y-83476940D01*
X83207345Y-83533895D01*
X83230242Y-83599965D01*
X83238108Y-83681182D01*
X83238148Y-83687748D01*
X83238218Y-83753763D01*
X82858264Y-83753763D01*
X82866363Y-83788342D01*
X82880987Y-83819659D01*
X82906581Y-83852291D01*
X82911935Y-83857500D01*
X82957943Y-83885694D01*
X83010410Y-83890475D01*
X83070803Y-83871926D01*
X83081040Y-83866931D01*
X83112439Y-83851745D01*
X83133470Y-83843094D01*
X83137139Y-83842293D01*
X83149948Y-83850063D01*
X83174378Y-83869072D01*
X83186779Y-83879460D01*
X83212476Y-83903321D01*
X83220915Y-83919077D01*
X83215058Y-83933571D01*
X83211928Y-83937534D01*
X83190725Y-83954879D01*
X83155738Y-83975959D01*
X83131337Y-83988265D01*
X83062072Y-84009946D01*
X82985388Y-84016971D01*
X82912765Y-84008647D01*
X82892426Y-84002686D01*
X82829476Y-83968952D01*
X82782815Y-83917045D01*
X82752173Y-83846459D01*
X82737282Y-83756692D01*
X82735647Y-83709753D01*
X82740421Y-83641413D01*
X82860990Y-83641413D01*
X82872652Y-83646465D01*
X82903998Y-83650429D01*
X82949571Y-83652768D01*
X82980446Y-83653169D01*
X83035981Y-83652783D01*
X83071033Y-83650975D01*
X83090262Y-83646773D01*
X83098330Y-83639203D01*
X83099901Y-83628218D01*
X83089121Y-83594381D01*
X83061980Y-83560940D01*
X83026277Y-83535272D01*
X82990560Y-83524772D01*
X82942048Y-83534086D01*
X82900053Y-83561013D01*
X82870936Y-83599827D01*
X82860990Y-83641413D01*
X82740421Y-83641413D01*
X82742599Y-83610236D01*
X82764055Y-83530949D01*
X82800470Y-83471263D01*
X82852297Y-83430549D01*
X82919990Y-83408179D01*
X82956662Y-83403871D01*
X83032581Y-83404970D01*
G37*
X79643301Y-82472614D02*
X79655832Y-82478514D01*
X79699201Y-82510283D01*
X79740210Y-82556646D01*
X79770832Y-82607696D01*
X79779541Y-82631166D01*
X79787488Y-82673091D01*
X79792226Y-82723757D01*
X79792801Y-82744679D01*
X79792871Y-82810693D01*
X79412917Y-82810693D01*
X79421017Y-82845273D01*
X79440896Y-82886170D01*
X79475653Y-82921514D01*
X79517002Y-82944282D01*
X79543351Y-82949010D01*
X79579084Y-82943273D01*
X79621718Y-82928882D01*
X79636201Y-82922262D01*
X79689760Y-82895513D01*
X79735467Y-82930376D01*
X79761842Y-82953955D01*
X79775876Y-82973417D01*
X79776586Y-82979129D01*
X79764049Y-82992973D01*
X79736572Y-83014012D01*
X79711634Y-83030425D01*
X79644336Y-83059930D01*
X79568890Y-83073284D01*
X79494112Y-83069812D01*
X79434505Y-83051663D01*
X79373059Y-83012784D01*
X79329392Y-82961595D01*
X79302074Y-82895367D01*
X79289678Y-82811371D01*
X79288579Y-82772936D01*
X79292978Y-82684861D01*
X79293518Y-82682299D01*
X79419418Y-82682299D01*
X79422885Y-82690558D01*
X79437137Y-82695113D01*
X79466530Y-82697065D01*
X79515425Y-82697517D01*
X79534252Y-82697525D01*
X79591533Y-82696843D01*
X79627859Y-82694364D01*
X79647396Y-82689443D01*
X79654310Y-82681434D01*
X79654555Y-82678862D01*
X79646664Y-82658423D01*
X79626915Y-82629789D01*
X79618425Y-82619763D01*
X79586906Y-82591408D01*
X79554051Y-82580259D01*
X79536349Y-82579327D01*
X79488461Y-82590981D01*
X79448301Y-82622285D01*
X79422827Y-82667752D01*
X79422375Y-82669233D01*
X79419418Y-82682299D01*
X79293518Y-82682299D01*
X79307608Y-82615510D01*
X79333962Y-82560025D01*
X79366193Y-82520639D01*
X79425783Y-82477931D01*
X79495832Y-82455109D01*
X79570339Y-82453046D01*
X79643301Y-82472614D01*
G36*
X79643301Y-82472614D02*
G01*
X79655832Y-82478514D01*
X79699201Y-82510283D01*
X79740210Y-82556646D01*
X79770832Y-82607696D01*
X79779541Y-82631166D01*
X79787488Y-82673091D01*
X79792226Y-82723757D01*
X79792801Y-82744679D01*
X79792871Y-82810693D01*
X79412917Y-82810693D01*
X79421017Y-82845273D01*
X79440896Y-82886170D01*
X79475653Y-82921514D01*
X79517002Y-82944282D01*
X79543351Y-82949010D01*
X79579084Y-82943273D01*
X79621718Y-82928882D01*
X79636201Y-82922262D01*
X79689760Y-82895513D01*
X79735467Y-82930376D01*
X79761842Y-82953955D01*
X79775876Y-82973417D01*
X79776586Y-82979129D01*
X79764049Y-82992973D01*
X79736572Y-83014012D01*
X79711634Y-83030425D01*
X79644336Y-83059930D01*
X79568890Y-83073284D01*
X79494112Y-83069812D01*
X79434505Y-83051663D01*
X79373059Y-83012784D01*
X79329392Y-82961595D01*
X79302074Y-82895367D01*
X79289678Y-82811371D01*
X79288579Y-82772936D01*
X79292978Y-82684861D01*
X79293518Y-82682299D01*
X79419418Y-82682299D01*
X79422885Y-82690558D01*
X79437137Y-82695113D01*
X79466530Y-82697065D01*
X79515425Y-82697517D01*
X79534252Y-82697525D01*
X79591533Y-82696843D01*
X79627859Y-82694364D01*
X79647396Y-82689443D01*
X79654310Y-82681434D01*
X79654555Y-82678862D01*
X79646664Y-82658423D01*
X79626915Y-82629789D01*
X79618425Y-82619763D01*
X79586906Y-82591408D01*
X79554051Y-82580259D01*
X79536349Y-82579327D01*
X79488461Y-82590981D01*
X79448301Y-82622285D01*
X79422827Y-82667752D01*
X79422375Y-82669233D01*
X79419418Y-82682299D01*
X79293518Y-82682299D01*
X79307608Y-82615510D01*
X79333962Y-82560025D01*
X79366193Y-82520639D01*
X79425783Y-82477931D01*
X79495832Y-82455109D01*
X79570339Y-82453046D01*
X79643301Y-82472614D01*
G37*
X82038411Y-83405417D02*
X82091411Y-83418290D01*
X82106731Y-83425110D01*
X82136428Y-83442974D01*
X82159220Y-83463093D01*
X82176083Y-83488962D01*
X82187998Y-83524073D01*
X82195942Y-83571920D01*
X82200894Y-83635996D01*
X82203831Y-83719794D01*
X82204947Y-83775768D01*
X82209052Y-84017822D01*
X82138932Y-84017822D01*
X82096393Y-84016038D01*
X82074476Y-84009942D01*
X82068812Y-83999706D01*
X82065821Y-83988637D01*
X82052451Y-83990754D01*
X82034233Y-83999629D01*
X81988624Y-84013233D01*
X81930007Y-84016899D01*
X81868354Y-84010903D01*
X81813638Y-83995521D01*
X81808730Y-83993386D01*
X81758723Y-83958255D01*
X81725756Y-83909419D01*
X81710587Y-83852333D01*
X81711746Y-83831824D01*
X81835508Y-83831824D01*
X81846413Y-83859425D01*
X81878745Y-83879204D01*
X81930910Y-83889819D01*
X81958787Y-83891228D01*
X82005247Y-83887620D01*
X82036129Y-83873597D01*
X82043664Y-83866931D01*
X82064076Y-83830666D01*
X82068812Y-83797773D01*
X82068812Y-83753763D01*
X82007513Y-83753763D01*
X81936256Y-83757395D01*
X81886276Y-83768818D01*
X81854696Y-83788824D01*
X81847626Y-83797743D01*
X81835508Y-83831824D01*
X81711746Y-83831824D01*
X81713971Y-83792456D01*
X81736663Y-83735244D01*
X81767624Y-83696580D01*
X81786376Y-83679864D01*
X81804733Y-83668878D01*
X81828619Y-83662180D01*
X81863957Y-83658326D01*
X81916669Y-83655873D01*
X81937577Y-83655168D01*
X82068812Y-83650879D01*
X82068620Y-83611158D01*
X82063537Y-83569405D01*
X82045162Y-83544158D01*
X82008039Y-83528030D01*
X82007043Y-83527742D01*
X81954410Y-83521400D01*
X81902906Y-83529684D01*
X81864630Y-83549827D01*
X81849272Y-83559773D01*
X81832730Y-83558397D01*
X81807275Y-83543987D01*
X81792328Y-83533817D01*
X81763091Y-83512088D01*
X81744980Y-83495800D01*
X81742074Y-83491137D01*
X81754040Y-83467005D01*
X81789396Y-83438185D01*
X81804753Y-83428461D01*
X81848901Y-83411714D01*
X81908398Y-83402227D01*
X81974487Y-83400095D01*
X82038411Y-83405417D01*
G36*
X82038411Y-83405417D02*
G01*
X82091411Y-83418290D01*
X82106731Y-83425110D01*
X82136428Y-83442974D01*
X82159220Y-83463093D01*
X82176083Y-83488962D01*
X82187998Y-83524073D01*
X82195942Y-83571920D01*
X82200894Y-83635996D01*
X82203831Y-83719794D01*
X82204947Y-83775768D01*
X82209052Y-84017822D01*
X82138932Y-84017822D01*
X82096393Y-84016038D01*
X82074476Y-84009942D01*
X82068812Y-83999706D01*
X82065821Y-83988637D01*
X82052451Y-83990754D01*
X82034233Y-83999629D01*
X81988624Y-84013233D01*
X81930007Y-84016899D01*
X81868354Y-84010903D01*
X81813638Y-83995521D01*
X81808730Y-83993386D01*
X81758723Y-83958255D01*
X81725756Y-83909419D01*
X81710587Y-83852333D01*
X81711746Y-83831824D01*
X81835508Y-83831824D01*
X81846413Y-83859425D01*
X81878745Y-83879204D01*
X81930910Y-83889819D01*
X81958787Y-83891228D01*
X82005247Y-83887620D01*
X82036129Y-83873597D01*
X82043664Y-83866931D01*
X82064076Y-83830666D01*
X82068812Y-83797773D01*
X82068812Y-83753763D01*
X82007513Y-83753763D01*
X81936256Y-83757395D01*
X81886276Y-83768818D01*
X81854696Y-83788824D01*
X81847626Y-83797743D01*
X81835508Y-83831824D01*
X81711746Y-83831824D01*
X81713971Y-83792456D01*
X81736663Y-83735244D01*
X81767624Y-83696580D01*
X81786376Y-83679864D01*
X81804733Y-83668878D01*
X81828619Y-83662180D01*
X81863957Y-83658326D01*
X81916669Y-83655873D01*
X81937577Y-83655168D01*
X82068812Y-83650879D01*
X82068620Y-83611158D01*
X82063537Y-83569405D01*
X82045162Y-83544158D01*
X82008039Y-83528030D01*
X82007043Y-83527742D01*
X81954410Y-83521400D01*
X81902906Y-83529684D01*
X81864630Y-83549827D01*
X81849272Y-83559773D01*
X81832730Y-83558397D01*
X81807275Y-83543987D01*
X81792328Y-83533817D01*
X81763091Y-83512088D01*
X81744980Y-83495800D01*
X81742074Y-83491137D01*
X81754040Y-83467005D01*
X81789396Y-83438185D01*
X81804753Y-83428461D01*
X81848901Y-83411714D01*
X81908398Y-83402227D01*
X81974487Y-83400095D01*
X82038411Y-83405417D01*
G37*
X79615790Y-83406555D02*
X79674945Y-83422339D01*
X79719977Y-83450948D01*
X79751754Y-83488419D01*
X79761634Y-83504411D01*
X79768927Y-83521163D01*
X79774026Y-83542592D01*
X79777321Y-83572616D01*
X79779203Y-83615154D01*
X79780063Y-83674122D01*
X79780293Y-83753440D01*
X79780297Y-83774484D01*
X79780297Y-84017822D01*
X79719941Y-84017822D01*
X79681443Y-84015126D01*
X79652977Y-84008295D01*
X79645845Y-84004083D01*
X79626348Y-83996813D01*
X79606434Y-84004083D01*
X79573647Y-84013160D01*
X79526022Y-84016813D01*
X79473236Y-84015228D01*
X79424964Y-84008589D01*
X79396782Y-84000072D01*
X79342247Y-83965063D01*
X79308165Y-83916479D01*
X79292843Y-83851882D01*
X79292701Y-83850223D01*
X79294045Y-83821566D01*
X79415644Y-83821566D01*
X79426274Y-83854161D01*
X79443590Y-83872505D01*
X79478348Y-83886379D01*
X79524227Y-83891917D01*
X79571012Y-83889191D01*
X79608486Y-83878274D01*
X79618985Y-83871269D01*
X79637332Y-83838904D01*
X79641980Y-83802111D01*
X79641980Y-83753763D01*
X79572418Y-83753763D01*
X79506333Y-83758850D01*
X79456236Y-83773263D01*
X79425071Y-83795729D01*
X79415644Y-83821566D01*
X79294045Y-83821566D01*
X79296013Y-83779647D01*
X79319290Y-83723845D01*
X79363052Y-83681647D01*
X79369101Y-83677808D01*
X79395093Y-83665309D01*
X79427265Y-83657740D01*
X79472240Y-83654061D01*
X79525669Y-83653216D01*
X79641980Y-83653169D01*
X79641980Y-83604411D01*
X79637047Y-83566581D01*
X79624457Y-83541236D01*
X79622983Y-83539887D01*
X79594966Y-83528800D01*
X79552674Y-83524503D01*
X79505936Y-83526615D01*
X79464582Y-83534756D01*
X79440043Y-83546965D01*
X79426747Y-83556746D01*
X79412706Y-83558613D01*
X79393329Y-83550600D01*
X79364024Y-83530739D01*
X79320197Y-83497063D01*
X79316175Y-83493909D01*
X79318236Y-83482236D01*
X79335432Y-83462822D01*
X79361567Y-83441248D01*
X79390448Y-83423096D01*
X79399522Y-83418809D01*
X79432620Y-83410256D01*
X79481120Y-83404155D01*
X79535305Y-83401708D01*
X79537839Y-83401703D01*
X79615790Y-83406555D01*
G36*
X79615790Y-83406555D02*
G01*
X79674945Y-83422339D01*
X79719977Y-83450948D01*
X79751754Y-83488419D01*
X79761634Y-83504411D01*
X79768927Y-83521163D01*
X79774026Y-83542592D01*
X79777321Y-83572616D01*
X79779203Y-83615154D01*
X79780063Y-83674122D01*
X79780293Y-83753440D01*
X79780297Y-83774484D01*
X79780297Y-84017822D01*
X79719941Y-84017822D01*
X79681443Y-84015126D01*
X79652977Y-84008295D01*
X79645845Y-84004083D01*
X79626348Y-83996813D01*
X79606434Y-84004083D01*
X79573647Y-84013160D01*
X79526022Y-84016813D01*
X79473236Y-84015228D01*
X79424964Y-84008589D01*
X79396782Y-84000072D01*
X79342247Y-83965063D01*
X79308165Y-83916479D01*
X79292843Y-83851882D01*
X79292701Y-83850223D01*
X79294045Y-83821566D01*
X79415644Y-83821566D01*
X79426274Y-83854161D01*
X79443590Y-83872505D01*
X79478348Y-83886379D01*
X79524227Y-83891917D01*
X79571012Y-83889191D01*
X79608486Y-83878274D01*
X79618985Y-83871269D01*
X79637332Y-83838904D01*
X79641980Y-83802111D01*
X79641980Y-83753763D01*
X79572418Y-83753763D01*
X79506333Y-83758850D01*
X79456236Y-83773263D01*
X79425071Y-83795729D01*
X79415644Y-83821566D01*
X79294045Y-83821566D01*
X79296013Y-83779647D01*
X79319290Y-83723845D01*
X79363052Y-83681647D01*
X79369101Y-83677808D01*
X79395093Y-83665309D01*
X79427265Y-83657740D01*
X79472240Y-83654061D01*
X79525669Y-83653216D01*
X79641980Y-83653169D01*
X79641980Y-83604411D01*
X79637047Y-83566581D01*
X79624457Y-83541236D01*
X79622983Y-83539887D01*
X79594966Y-83528800D01*
X79552674Y-83524503D01*
X79505936Y-83526615D01*
X79464582Y-83534756D01*
X79440043Y-83546965D01*
X79426747Y-83556746D01*
X79412706Y-83558613D01*
X79393329Y-83550600D01*
X79364024Y-83530739D01*
X79320197Y-83497063D01*
X79316175Y-83493909D01*
X79318236Y-83482236D01*
X79335432Y-83462822D01*
X79361567Y-83441248D01*
X79390448Y-83423096D01*
X79399522Y-83418809D01*
X79432620Y-83410256D01*
X79481120Y-83404155D01*
X79535305Y-83401708D01*
X79537839Y-83401703D01*
X79615790Y-83406555D01*
G37*
X79091241Y-82469184D02*
X79117753Y-82482282D01*
X79150447Y-82505106D01*
X79174275Y-82529996D01*
X79190594Y-82561249D01*
X79200760Y-82603166D01*
X79206128Y-82660044D01*
X79208056Y-82736184D01*
X79208169Y-82768917D01*
X79207839Y-82840656D01*
X79206473Y-82891927D01*
X79203500Y-82927404D01*
X79198351Y-82951763D01*
X79190457Y-82969680D01*
X79182243Y-82981902D01*
X79129813Y-83033905D01*
X79068070Y-83065184D01*
X79001464Y-83074592D01*
X78934442Y-83060980D01*
X78913208Y-83051354D01*
X78862376Y-83024859D01*
X78862376Y-83440052D01*
X78899475Y-83420868D01*
X78948357Y-83406025D01*
X79008439Y-83402222D01*
X79068436Y-83409243D01*
X79113744Y-83425013D01*
X79151325Y-83455047D01*
X79183436Y-83498024D01*
X79185850Y-83502436D01*
X79196033Y-83523221D01*
X79203470Y-83544170D01*
X79208589Y-83569548D01*
X79211819Y-83603618D01*
X79213587Y-83650641D01*
X79214323Y-83714882D01*
X79214456Y-83787176D01*
X79214456Y-84017822D01*
X79076139Y-84017822D01*
X79076139Y-83592533D01*
X79037451Y-83559979D01*
X78997262Y-83533940D01*
X78959203Y-83529205D01*
X78920934Y-83541389D01*
X78900538Y-83553320D01*
X78885358Y-83570313D01*
X78874562Y-83595995D01*
X78867317Y-83633991D01*
X78862792Y-83687926D01*
X78860156Y-83761425D01*
X78859228Y-83810347D01*
X78856089Y-84011535D01*
X78790074Y-84015336D01*
X78724060Y-84019136D01*
X78724060Y-82770650D01*
X78862376Y-82770650D01*
X78865903Y-82840254D01*
X78877785Y-82888569D01*
X78899980Y-82918631D01*
X78934441Y-82933471D01*
X78969258Y-82936436D01*
X79008671Y-82933028D01*
X79034829Y-82919617D01*
X79051186Y-82901896D01*
X79064063Y-82882835D01*
X79071728Y-82861601D01*
X79075139Y-82831849D01*
X79075251Y-82787236D01*
X79074103Y-82749880D01*
X79071468Y-82693604D01*
X79067544Y-82656658D01*
X79060937Y-82633223D01*
X79050251Y-82617480D01*
X79040167Y-82608380D01*
X78998030Y-82588537D01*
X78948160Y-82585332D01*
X78919524Y-82592168D01*
X78891172Y-82616464D01*
X78872391Y-82663728D01*
X78863288Y-82733624D01*
X78862376Y-82770650D01*
X78724060Y-82770650D01*
X78724060Y-82458614D01*
X78793218Y-82458614D01*
X78834740Y-82460256D01*
X78856162Y-82466087D01*
X78862374Y-82477461D01*
X78862376Y-82477798D01*
X78865258Y-82488938D01*
X78877970Y-82487673D01*
X78903243Y-82475433D01*
X78962131Y-82456707D01*
X79028385Y-82454739D01*
X79091241Y-82469184D01*
G36*
X79091241Y-82469184D02*
G01*
X79117753Y-82482282D01*
X79150447Y-82505106D01*
X79174275Y-82529996D01*
X79190594Y-82561249D01*
X79200760Y-82603166D01*
X79206128Y-82660044D01*
X79208056Y-82736184D01*
X79208169Y-82768917D01*
X79207839Y-82840656D01*
X79206473Y-82891927D01*
X79203500Y-82927404D01*
X79198351Y-82951763D01*
X79190457Y-82969680D01*
X79182243Y-82981902D01*
X79129813Y-83033905D01*
X79068070Y-83065184D01*
X79001464Y-83074592D01*
X78934442Y-83060980D01*
X78913208Y-83051354D01*
X78862376Y-83024859D01*
X78862376Y-83440052D01*
X78899475Y-83420868D01*
X78948357Y-83406025D01*
X79008439Y-83402222D01*
X79068436Y-83409243D01*
X79113744Y-83425013D01*
X79151325Y-83455047D01*
X79183436Y-83498024D01*
X79185850Y-83502436D01*
X79196033Y-83523221D01*
X79203470Y-83544170D01*
X79208589Y-83569548D01*
X79211819Y-83603618D01*
X79213587Y-83650641D01*
X79214323Y-83714882D01*
X79214456Y-83787176D01*
X79214456Y-84017822D01*
X79076139Y-84017822D01*
X79076139Y-83592533D01*
X79037451Y-83559979D01*
X78997262Y-83533940D01*
X78959203Y-83529205D01*
X78920934Y-83541389D01*
X78900538Y-83553320D01*
X78885358Y-83570313D01*
X78874562Y-83595995D01*
X78867317Y-83633991D01*
X78862792Y-83687926D01*
X78860156Y-83761425D01*
X78859228Y-83810347D01*
X78856089Y-84011535D01*
X78790074Y-84015336D01*
X78724060Y-84019136D01*
X78724060Y-82770650D01*
X78862376Y-82770650D01*
X78865903Y-82840254D01*
X78877785Y-82888569D01*
X78899980Y-82918631D01*
X78934441Y-82933471D01*
X78969258Y-82936436D01*
X79008671Y-82933028D01*
X79034829Y-82919617D01*
X79051186Y-82901896D01*
X79064063Y-82882835D01*
X79071728Y-82861601D01*
X79075139Y-82831849D01*
X79075251Y-82787236D01*
X79074103Y-82749880D01*
X79071468Y-82693604D01*
X79067544Y-82656658D01*
X79060937Y-82633223D01*
X79050251Y-82617480D01*
X79040167Y-82608380D01*
X78998030Y-82588537D01*
X78948160Y-82585332D01*
X78919524Y-82592168D01*
X78891172Y-82616464D01*
X78872391Y-82663728D01*
X78863288Y-82733624D01*
X78862376Y-82770650D01*
X78724060Y-82770650D01*
X78724060Y-82458614D01*
X78793218Y-82458614D01*
X78834740Y-82460256D01*
X78856162Y-82466087D01*
X78862374Y-82477461D01*
X78862376Y-82477798D01*
X78865258Y-82488938D01*
X78877970Y-82487673D01*
X78903243Y-82475433D01*
X78962131Y-82456707D01*
X79028385Y-82454739D01*
X79091241Y-82469184D01*
G37*
X81376964Y-78290018D02*
X81433812Y-78591570D01*
X81853338Y-78764512D01*
X82104984Y-78593395D01*
X82175458Y-78545750D01*
X82239163Y-78503210D01*
X82293126Y-78467715D01*
X82334373Y-78441210D01*
X82359934Y-78425636D01*
X82366895Y-78422278D01*
X82379435Y-78430914D01*
X82406231Y-78454792D01*
X82444280Y-78490859D01*
X82490579Y-78536067D01*
X82542123Y-78587364D01*
X82595909Y-78641701D01*
X82648935Y-78696028D01*
X82698195Y-78747295D01*
X82740687Y-78792451D01*
X82773407Y-78828446D01*
X82793351Y-78852230D01*
X82798119Y-78860190D01*
X82791257Y-78874865D01*
X82772020Y-78907014D01*
X82742430Y-78953492D01*
X82704510Y-79011156D01*
X82660282Y-79076860D01*
X82634654Y-79114336D01*
X82587941Y-79182768D01*
X82546432Y-79244520D01*
X82512140Y-79296519D01*
X82487080Y-79335692D01*
X82473264Y-79358965D01*
X82471188Y-79363855D01*
X82475895Y-79377755D01*
X82488723Y-79410150D01*
X82507738Y-79456485D01*
X82531003Y-79512206D01*
X82556584Y-79572758D01*
X82582545Y-79633586D01*
X82606950Y-79690136D01*
X82627863Y-79737852D01*
X82643349Y-79772181D01*
X82651472Y-79788568D01*
X82651952Y-79789212D01*
X82664707Y-79792341D01*
X82698677Y-79799321D01*
X82750340Y-79809467D01*
X82816176Y-79822092D01*
X82892664Y-79836509D01*
X82937290Y-79844823D01*
X83019021Y-79860384D01*
X83092843Y-79875192D01*
X83155021Y-79888436D01*
X83201822Y-79899305D01*
X83229509Y-79906989D01*
X83235074Y-79909427D01*
X83240526Y-79925930D01*
X83244924Y-79963200D01*
X83248272Y-80016880D01*
X83250574Y-80082612D01*
X83251832Y-80156037D01*
X83252048Y-80232796D01*
X83251227Y-80308532D01*
X83249371Y-80378886D01*
X83246482Y-80439500D01*
X83242565Y-80486016D01*
X83237622Y-80514075D01*
X83234657Y-80519916D01*
X83216934Y-80526917D01*
X83179381Y-80536927D01*
X83126964Y-80548769D01*
X83064652Y-80561267D01*
X83042900Y-80565310D01*
X82938024Y-80584520D01*
X82855180Y-80599991D01*
X82791630Y-80612337D01*
X82744637Y-80622173D01*
X82711463Y-80630114D01*
X82689371Y-80636776D01*
X82675624Y-80642773D01*
X82667484Y-80648719D01*
X82666345Y-80649894D01*
X82654977Y-80668826D01*
X82637635Y-80705669D01*
X82616050Y-80755913D01*
X82591954Y-80815046D01*
X82567079Y-80878556D01*
X82543157Y-80941932D01*
X82521919Y-81000662D01*
X82505097Y-81050235D01*
X82494422Y-81086139D01*
X82491627Y-81103862D01*
X82491860Y-81104483D01*
X82501331Y-81118970D01*
X82522818Y-81150844D01*
X82554063Y-81196789D01*
X82592807Y-81253485D01*
X82636793Y-81317617D01*
X82649319Y-81335842D01*
X82693984Y-81401914D01*
X82733288Y-81462200D01*
X82765088Y-81513235D01*
X82787245Y-81551560D01*
X82797617Y-81573711D01*
X82798119Y-81576432D01*
X82789405Y-81590736D01*
X82765325Y-81619072D01*
X82728976Y-81658396D01*
X82683453Y-81705661D01*
X82631852Y-81757823D01*
X82577267Y-81811835D01*
X82522794Y-81864653D01*
X82471529Y-81913231D01*
X82426567Y-81954523D01*
X82391004Y-81985485D01*
X82367935Y-82003070D01*
X82361554Y-82005941D01*
X82346699Y-81999178D01*
X82316286Y-81980939D01*
X82275268Y-81954297D01*
X82243709Y-81932852D01*
X82186525Y-81893503D01*
X82118806Y-81847171D01*
X82050880Y-81800913D01*
X82014361Y-81776155D01*
X81890752Y-81692547D01*
X81786991Y-81748650D01*
X81739720Y-81773228D01*
X81699523Y-81792331D01*
X81672326Y-81803227D01*
X81665402Y-81804743D01*
X81657077Y-81793549D01*
X81640654Y-81761917D01*
X81617357Y-81712765D01*
X81588414Y-81649010D01*
X81555050Y-81573571D01*
X81518491Y-81489364D01*
X81479964Y-81399308D01*
X81440694Y-81306321D01*
X81401908Y-81213320D01*
X81364830Y-81123223D01*
X81330689Y-81038948D01*
X81300708Y-80963413D01*
X81276116Y-80899534D01*
X81258136Y-80850231D01*
X81247997Y-80818421D01*
X81246366Y-80807496D01*
X81259291Y-80793561D01*
X81287589Y-80770940D01*
X81325346Y-80744333D01*
X81328515Y-80742228D01*
X81426100Y-80664114D01*
X81504786Y-80572982D01*
X81563891Y-80471745D01*
X81602732Y-80363318D01*
X81620628Y-80250614D01*
X81616897Y-80136548D01*
X81590857Y-80024034D01*
X81541825Y-79915985D01*
X81527400Y-79892345D01*
X81452369Y-79796887D01*
X81363730Y-79720232D01*
X81264549Y-79662780D01*
X81157895Y-79624929D01*
X81046836Y-79607078D01*
X80934439Y-79609625D01*
X80823773Y-79632970D01*
X80717906Y-79677510D01*
X80619905Y-79743645D01*
X80589590Y-79770487D01*
X80512438Y-79854512D01*
X80456218Y-79942966D01*
X80417653Y-80042115D01*
X80396174Y-80140303D01*
X80390872Y-80250697D01*
X80408552Y-80361640D01*
X80447419Y-80469381D01*
X80505677Y-80570169D01*
X80581531Y-80660256D01*
X80673183Y-80735892D01*
X80685228Y-80743864D01*
X80723389Y-80769974D01*
X80752399Y-80792595D01*
X80766268Y-80807039D01*
X80766469Y-80807496D01*
X80763492Y-80823121D01*
X80751689Y-80858582D01*
X80732286Y-80910962D01*
X80706512Y-80977345D01*
X80675591Y-81054814D01*
X80640751Y-81140450D01*
X80603217Y-81231337D01*
X80564217Y-81324559D01*
X80524977Y-81417197D01*
X80486724Y-81506335D01*
X80450683Y-81589055D01*
X80418083Y-81662441D01*
X80390148Y-81723575D01*
X80368105Y-81769541D01*
X80353182Y-81797421D01*
X80347172Y-81804743D01*
X80328809Y-81799041D01*
X80294448Y-81783749D01*
X80250016Y-81761599D01*
X80225583Y-81748650D01*
X80121822Y-81692547D01*
X79998213Y-81776155D01*
X79935114Y-81818987D01*
X79866030Y-81866122D01*
X79801293Y-81910503D01*
X79768866Y-81932852D01*
X79723259Y-81963477D01*
X79684640Y-81987747D01*
X79658048Y-82002587D01*
X79649410Y-82005724D01*
X79636839Y-81997261D01*
X79609016Y-81973636D01*
X79568639Y-81937302D01*
X79518405Y-81890711D01*
X79461012Y-81836317D01*
X79424714Y-81801392D01*
X79361210Y-81738996D01*
X79306327Y-81683188D01*
X79262286Y-81636354D01*
X79231305Y-81600882D01*
X79215602Y-81579161D01*
X79214095Y-81574752D01*
X79221086Y-81557985D01*
X79240406Y-81524082D01*
X79269909Y-81476476D01*
X79307455Y-81418599D01*
X79350900Y-81353884D01*
X79363255Y-81335842D01*
X79408273Y-81270267D01*
X79448660Y-81211228D01*
X79482160Y-81162042D01*
X79506514Y-81126028D01*
X79519464Y-81106502D01*
X79520715Y-81104483D01*
X79518844Y-81088922D01*
X79508913Y-81054709D01*
X79492653Y-81006355D01*
X79471795Y-80948371D01*
X79448073Y-80885270D01*
X79423216Y-80821563D01*
X79398958Y-80761761D01*
X79377029Y-80710376D01*
X79359162Y-80671919D01*
X79347087Y-80650902D01*
X79346229Y-80649894D01*
X79338846Y-80643888D01*
X79326375Y-80637948D01*
X79306080Y-80631460D01*
X79275222Y-80623809D01*
X79231066Y-80614380D01*
X79170874Y-80602559D01*
X79091907Y-80587729D01*
X78991430Y-80569277D01*
X78969675Y-80565310D01*
X78905198Y-80552853D01*
X78848989Y-80540666D01*
X78806013Y-80529926D01*
X78781240Y-80521809D01*
X78777918Y-80519916D01*
X78772444Y-80503138D01*
X78767994Y-80465645D01*
X78764572Y-80411794D01*
X78762181Y-80345944D01*
X78760823Y-80272453D01*
X78760501Y-80195680D01*
X78761219Y-80119983D01*
X78762979Y-80049720D01*
X78765784Y-79989250D01*
X78769638Y-79942930D01*
X78774543Y-79915119D01*
X78777500Y-79909427D01*
X78793963Y-79903686D01*
X78831449Y-79894345D01*
X78886225Y-79882215D01*
X78954555Y-79868107D01*
X79032706Y-79852830D01*
X79075284Y-79844823D01*
X79156071Y-79829721D01*
X79228113Y-79816040D01*
X79287889Y-79804467D01*
X79331879Y-79795687D01*
X79356561Y-79790387D01*
X79360623Y-79789212D01*
X79367489Y-79775965D01*
X79382002Y-79744057D01*
X79402229Y-79698047D01*
X79426234Y-79642492D01*
X79452082Y-79581953D01*
X79477840Y-79520986D01*
X79501573Y-79464151D01*
X79521346Y-79416006D01*
X79535224Y-79381110D01*
X79541274Y-79364021D01*
X79541386Y-79363274D01*
X79534528Y-79349793D01*
X79515302Y-79318770D01*
X79485728Y-79273289D01*
X79447827Y-79216432D01*
X79403620Y-79151283D01*
X79377921Y-79113862D01*
X79331093Y-79045247D01*
X79289501Y-78982952D01*
X79255175Y-78930129D01*
X79230143Y-78889927D01*
X79216435Y-78865500D01*
X79214456Y-78860024D01*
X79222966Y-78847278D01*
X79246493Y-78820063D01*
X79282032Y-78781428D01*
X79326577Y-78734423D01*
X79377123Y-78682095D01*
X79430664Y-78627495D01*
X79484195Y-78573670D01*
X79534711Y-78523670D01*
X79579206Y-78480543D01*
X79614675Y-78447339D01*
X79638113Y-78427106D01*
X79645954Y-78422278D01*
X79658720Y-78429067D01*
X79689256Y-78448142D01*
X79734590Y-78477561D01*
X79791756Y-78515381D01*
X79857784Y-78559661D01*
X79907590Y-78593395D01*
X80159236Y-78764512D01*
X80368999Y-78678041D01*
X80578763Y-78591570D01*
X80635611Y-78290018D01*
X80692460Y-77988466D01*
X81320115Y-77988466D01*
X81376964Y-78290018D01*
G36*
X81376964Y-78290018D02*
G01*
X81433812Y-78591570D01*
X81853338Y-78764512D01*
X82104984Y-78593395D01*
X82175458Y-78545750D01*
X82239163Y-78503210D01*
X82293126Y-78467715D01*
X82334373Y-78441210D01*
X82359934Y-78425636D01*
X82366895Y-78422278D01*
X82379435Y-78430914D01*
X82406231Y-78454792D01*
X82444280Y-78490859D01*
X82490579Y-78536067D01*
X82542123Y-78587364D01*
X82595909Y-78641701D01*
X82648935Y-78696028D01*
X82698195Y-78747295D01*
X82740687Y-78792451D01*
X82773407Y-78828446D01*
X82793351Y-78852230D01*
X82798119Y-78860190D01*
X82791257Y-78874865D01*
X82772020Y-78907014D01*
X82742430Y-78953492D01*
X82704510Y-79011156D01*
X82660282Y-79076860D01*
X82634654Y-79114336D01*
X82587941Y-79182768D01*
X82546432Y-79244520D01*
X82512140Y-79296519D01*
X82487080Y-79335692D01*
X82473264Y-79358965D01*
X82471188Y-79363855D01*
X82475895Y-79377755D01*
X82488723Y-79410150D01*
X82507738Y-79456485D01*
X82531003Y-79512206D01*
X82556584Y-79572758D01*
X82582545Y-79633586D01*
X82606950Y-79690136D01*
X82627863Y-79737852D01*
X82643349Y-79772181D01*
X82651472Y-79788568D01*
X82651952Y-79789212D01*
X82664707Y-79792341D01*
X82698677Y-79799321D01*
X82750340Y-79809467D01*
X82816176Y-79822092D01*
X82892664Y-79836509D01*
X82937290Y-79844823D01*
X83019021Y-79860384D01*
X83092843Y-79875192D01*
X83155021Y-79888436D01*
X83201822Y-79899305D01*
X83229509Y-79906989D01*
X83235074Y-79909427D01*
X83240526Y-79925930D01*
X83244924Y-79963200D01*
X83248272Y-80016880D01*
X83250574Y-80082612D01*
X83251832Y-80156037D01*
X83252048Y-80232796D01*
X83251227Y-80308532D01*
X83249371Y-80378886D01*
X83246482Y-80439500D01*
X83242565Y-80486016D01*
X83237622Y-80514075D01*
X83234657Y-80519916D01*
X83216934Y-80526917D01*
X83179381Y-80536927D01*
X83126964Y-80548769D01*
X83064652Y-80561267D01*
X83042900Y-80565310D01*
X82938024Y-80584520D01*
X82855180Y-80599991D01*
X82791630Y-80612337D01*
X82744637Y-80622173D01*
X82711463Y-80630114D01*
X82689371Y-80636776D01*
X82675624Y-80642773D01*
X82667484Y-80648719D01*
X82666345Y-80649894D01*
X82654977Y-80668826D01*
X82637635Y-80705669D01*
X82616050Y-80755913D01*
X82591954Y-80815046D01*
X82567079Y-80878556D01*
X82543157Y-80941932D01*
X82521919Y-81000662D01*
X82505097Y-81050235D01*
X82494422Y-81086139D01*
X82491627Y-81103862D01*
X82491860Y-81104483D01*
X82501331Y-81118970D01*
X82522818Y-81150844D01*
X82554063Y-81196789D01*
X82592807Y-81253485D01*
X82636793Y-81317617D01*
X82649319Y-81335842D01*
X82693984Y-81401914D01*
X82733288Y-81462200D01*
X82765088Y-81513235D01*
X82787245Y-81551560D01*
X82797617Y-81573711D01*
X82798119Y-81576432D01*
X82789405Y-81590736D01*
X82765325Y-81619072D01*
X82728976Y-81658396D01*
X82683453Y-81705661D01*
X82631852Y-81757823D01*
X82577267Y-81811835D01*
X82522794Y-81864653D01*
X82471529Y-81913231D01*
X82426567Y-81954523D01*
X82391004Y-81985485D01*
X82367935Y-82003070D01*
X82361554Y-82005941D01*
X82346699Y-81999178D01*
X82316286Y-81980939D01*
X82275268Y-81954297D01*
X82243709Y-81932852D01*
X82186525Y-81893503D01*
X82118806Y-81847171D01*
X82050880Y-81800913D01*
X82014361Y-81776155D01*
X81890752Y-81692547D01*
X81786991Y-81748650D01*
X81739720Y-81773228D01*
X81699523Y-81792331D01*
X81672326Y-81803227D01*
X81665402Y-81804743D01*
X81657077Y-81793549D01*
X81640654Y-81761917D01*
X81617357Y-81712765D01*
X81588414Y-81649010D01*
X81555050Y-81573571D01*
X81518491Y-81489364D01*
X81479964Y-81399308D01*
X81440694Y-81306321D01*
X81401908Y-81213320D01*
X81364830Y-81123223D01*
X81330689Y-81038948D01*
X81300708Y-80963413D01*
X81276116Y-80899534D01*
X81258136Y-80850231D01*
X81247997Y-80818421D01*
X81246366Y-80807496D01*
X81259291Y-80793561D01*
X81287589Y-80770940D01*
X81325346Y-80744333D01*
X81328515Y-80742228D01*
X81426100Y-80664114D01*
X81504786Y-80572982D01*
X81563891Y-80471745D01*
X81602732Y-80363318D01*
X81620628Y-80250614D01*
X81616897Y-80136548D01*
X81590857Y-80024034D01*
X81541825Y-79915985D01*
X81527400Y-79892345D01*
X81452369Y-79796887D01*
X81363730Y-79720232D01*
X81264549Y-79662780D01*
X81157895Y-79624929D01*
X81046836Y-79607078D01*
X80934439Y-79609625D01*
X80823773Y-79632970D01*
X80717906Y-79677510D01*
X80619905Y-79743645D01*
X80589590Y-79770487D01*
X80512438Y-79854512D01*
X80456218Y-79942966D01*
X80417653Y-80042115D01*
X80396174Y-80140303D01*
X80390872Y-80250697D01*
X80408552Y-80361640D01*
X80447419Y-80469381D01*
X80505677Y-80570169D01*
X80581531Y-80660256D01*
X80673183Y-80735892D01*
X80685228Y-80743864D01*
X80723389Y-80769974D01*
X80752399Y-80792595D01*
X80766268Y-80807039D01*
X80766469Y-80807496D01*
X80763492Y-80823121D01*
X80751689Y-80858582D01*
X80732286Y-80910962D01*
X80706512Y-80977345D01*
X80675591Y-81054814D01*
X80640751Y-81140450D01*
X80603217Y-81231337D01*
X80564217Y-81324559D01*
X80524977Y-81417197D01*
X80486724Y-81506335D01*
X80450683Y-81589055D01*
X80418083Y-81662441D01*
X80390148Y-81723575D01*
X80368105Y-81769541D01*
X80353182Y-81797421D01*
X80347172Y-81804743D01*
X80328809Y-81799041D01*
X80294448Y-81783749D01*
X80250016Y-81761599D01*
X80225583Y-81748650D01*
X80121822Y-81692547D01*
X79998213Y-81776155D01*
X79935114Y-81818987D01*
X79866030Y-81866122D01*
X79801293Y-81910503D01*
X79768866Y-81932852D01*
X79723259Y-81963477D01*
X79684640Y-81987747D01*
X79658048Y-82002587D01*
X79649410Y-82005724D01*
X79636839Y-81997261D01*
X79609016Y-81973636D01*
X79568639Y-81937302D01*
X79518405Y-81890711D01*
X79461012Y-81836317D01*
X79424714Y-81801392D01*
X79361210Y-81738996D01*
X79306327Y-81683188D01*
X79262286Y-81636354D01*
X79231305Y-81600882D01*
X79215602Y-81579161D01*
X79214095Y-81574752D01*
X79221086Y-81557985D01*
X79240406Y-81524082D01*
X79269909Y-81476476D01*
X79307455Y-81418599D01*
X79350900Y-81353884D01*
X79363255Y-81335842D01*
X79408273Y-81270267D01*
X79448660Y-81211228D01*
X79482160Y-81162042D01*
X79506514Y-81126028D01*
X79519464Y-81106502D01*
X79520715Y-81104483D01*
X79518844Y-81088922D01*
X79508913Y-81054709D01*
X79492653Y-81006355D01*
X79471795Y-80948371D01*
X79448073Y-80885270D01*
X79423216Y-80821563D01*
X79398958Y-80761761D01*
X79377029Y-80710376D01*
X79359162Y-80671919D01*
X79347087Y-80650902D01*
X79346229Y-80649894D01*
X79338846Y-80643888D01*
X79326375Y-80637948D01*
X79306080Y-80631460D01*
X79275222Y-80623809D01*
X79231066Y-80614380D01*
X79170874Y-80602559D01*
X79091907Y-80587729D01*
X78991430Y-80569277D01*
X78969675Y-80565310D01*
X78905198Y-80552853D01*
X78848989Y-80540666D01*
X78806013Y-80529926D01*
X78781240Y-80521809D01*
X78777918Y-80519916D01*
X78772444Y-80503138D01*
X78767994Y-80465645D01*
X78764572Y-80411794D01*
X78762181Y-80345944D01*
X78760823Y-80272453D01*
X78760501Y-80195680D01*
X78761219Y-80119983D01*
X78762979Y-80049720D01*
X78765784Y-79989250D01*
X78769638Y-79942930D01*
X78774543Y-79915119D01*
X78777500Y-79909427D01*
X78793963Y-79903686D01*
X78831449Y-79894345D01*
X78886225Y-79882215D01*
X78954555Y-79868107D01*
X79032706Y-79852830D01*
X79075284Y-79844823D01*
X79156071Y-79829721D01*
X79228113Y-79816040D01*
X79287889Y-79804467D01*
X79331879Y-79795687D01*
X79356561Y-79790387D01*
X79360623Y-79789212D01*
X79367489Y-79775965D01*
X79382002Y-79744057D01*
X79402229Y-79698047D01*
X79426234Y-79642492D01*
X79452082Y-79581953D01*
X79477840Y-79520986D01*
X79501573Y-79464151D01*
X79521346Y-79416006D01*
X79535224Y-79381110D01*
X79541274Y-79364021D01*
X79541386Y-79363274D01*
X79534528Y-79349793D01*
X79515302Y-79318770D01*
X79485728Y-79273289D01*
X79447827Y-79216432D01*
X79403620Y-79151283D01*
X79377921Y-79113862D01*
X79331093Y-79045247D01*
X79289501Y-78982952D01*
X79255175Y-78930129D01*
X79230143Y-78889927D01*
X79216435Y-78865500D01*
X79214456Y-78860024D01*
X79222966Y-78847278D01*
X79246493Y-78820063D01*
X79282032Y-78781428D01*
X79326577Y-78734423D01*
X79377123Y-78682095D01*
X79430664Y-78627495D01*
X79484195Y-78573670D01*
X79534711Y-78523670D01*
X79579206Y-78480543D01*
X79614675Y-78447339D01*
X79638113Y-78427106D01*
X79645954Y-78422278D01*
X79658720Y-78429067D01*
X79689256Y-78448142D01*
X79734590Y-78477561D01*
X79791756Y-78515381D01*
X79857784Y-78559661D01*
X79907590Y-78593395D01*
X80159236Y-78764512D01*
X80368999Y-78678041D01*
X80578763Y-78591570D01*
X80635611Y-78290018D01*
X80692460Y-77988466D01*
X81320115Y-77988466D01*
X81376964Y-78290018D01*
G37*
%TO.C,SW2*%
D11*
X27750000Y-80000000D02*
G75*
G02*
X24250000Y-80000000I-1750000J0D01*
G01*
X24250000Y-80000000D02*
G75*
G02*
X27750000Y-80000000I1750000J0D01*
G01*
%TO.C,SW9*%
X49750000Y-81500000D02*
G75*
G02*
X46250000Y-81500000I-1750000J0D01*
G01*
X46250000Y-81500000D02*
G75*
G02*
X49750000Y-81500000I1750000J0D01*
G01*
%TO.C,SW6*%
X71750000Y-80000000D02*
G75*
G02*
X68250000Y-80000000I-1750000J0D01*
G01*
X68250000Y-80000000D02*
G75*
G02*
X71750000Y-80000000I1750000J0D01*
G01*
%TO.C,SW1*%
X27750000Y-60000000D02*
G75*
G02*
X24250000Y-60000000I-1750000J0D01*
G01*
X24250000Y-60000000D02*
G75*
G02*
X27750000Y-60000000I1750000J0D01*
G01*
%TD*%
%LPC*%
D13*
%TO.C,SW5*%
X77000000Y-67750000D03*
D14*
X85000000Y-67750000D03*
X77000000Y-72250000D03*
X85000000Y-72250000D03*
%TD*%
D13*
%TO.C,SW3*%
X11000000Y-67750000D03*
D14*
X19000000Y-67750000D03*
X11000000Y-72250000D03*
X19000000Y-72250000D03*
%TD*%
D13*
%TO.C,SW8*%
X55000000Y-67750000D03*
D14*
X63000000Y-67750000D03*
X55000000Y-72250000D03*
X63000000Y-72250000D03*
%TD*%
D13*
%TO.C,SW7*%
X66000000Y-57750000D03*
D14*
X74000000Y-57750000D03*
X66000000Y-62250000D03*
X74000000Y-62250000D03*
%TD*%
D15*
%TO.C,D3*%
X80000000Y-30810000D03*
D16*
X80000000Y-28270000D03*
X80000000Y-25730000D03*
X80000000Y-23190000D03*
%TD*%
D15*
%TO.C,J2*%
X26000000Y-42390000D03*
D16*
X26000000Y-39850000D03*
X26000000Y-37310000D03*
X26000000Y-34770000D03*
X26000000Y-32230000D03*
X26000000Y-29690000D03*
X26000000Y-27150000D03*
X26000000Y-24610000D03*
%TD*%
D13*
%TO.C,SW4*%
X33000000Y-67750000D03*
D14*
X41000000Y-67750000D03*
X33000000Y-72250000D03*
X41000000Y-72250000D03*
%TD*%
D13*
%TO.C,SW2*%
X22000000Y-77750000D03*
D14*
X30000000Y-77750000D03*
X22000000Y-82250000D03*
X30000000Y-82250000D03*
%TD*%
D13*
%TO.C,SW9*%
X44000000Y-79250000D03*
D14*
X52000000Y-79250000D03*
X44000000Y-83750000D03*
X52000000Y-83750000D03*
%TD*%
D13*
%TO.C,SW6*%
X66000000Y-77750000D03*
D14*
X74000000Y-77750000D03*
X66000000Y-82250000D03*
X74000000Y-82250000D03*
%TD*%
D13*
%TO.C,SW1*%
X22000000Y-57750000D03*
D14*
X30000000Y-57750000D03*
X22000000Y-62250000D03*
X30000000Y-62250000D03*
%TD*%
D17*
%TO.C,TP6*%
X59500000Y-76500000D03*
%TD*%
%TO.C,TP17*%
X44500000Y-39500000D03*
%TD*%
D18*
%TO.C,R43*%
X91500000Y-56420000D03*
X91500000Y-66580000D03*
%TD*%
%TO.C,R38*%
X39920000Y-32500000D03*
X50080000Y-32500000D03*
%TD*%
D19*
%TO.C,C2*%
X63500000Y-90270000D03*
D20*
X63500000Y-87730000D03*
%TD*%
D21*
%TO.C,MOD1*%
X40380000Y-22480000D03*
X40380000Y-19940000D03*
X40380000Y-17400000D03*
X55620000Y-22480000D03*
X40380000Y-14860000D03*
X40380000Y-12320000D03*
D22*
X55620000Y-27560000D03*
D21*
X40380000Y-9780000D03*
X40380000Y-7240000D03*
X55620000Y-7240000D03*
X55620000Y-9780000D03*
X55620000Y-12320000D03*
X55620000Y-14860000D03*
X55620000Y-17400000D03*
X55620000Y-19900000D03*
X55620000Y-25020000D03*
X40380000Y-25020000D03*
X40380000Y-27560000D03*
%TD*%
D17*
%TO.C,TP32*%
X13500000Y-4500000D03*
%TD*%
D19*
%TO.C,Q2*%
X2960000Y-65250000D03*
D20*
X5500000Y-65250000D03*
X8040000Y-65250000D03*
%TD*%
D17*
%TO.C,TP31*%
X22500000Y-13500000D03*
%TD*%
%TO.C,TP2*%
X29500000Y-73500000D03*
%TD*%
D19*
%TO.C,C17*%
X28250000Y-100550000D03*
D20*
X30750000Y-100550000D03*
%TD*%
D19*
%TO.C,C22*%
X55230000Y-43000000D03*
D20*
X57770000Y-43000000D03*
%TD*%
D23*
%TO.C,J5*%
X37000000Y-100550000D03*
D24*
X39000000Y-100550000D03*
%TD*%
D18*
%TO.C,R22*%
X80500000Y-75920000D03*
X80500000Y-86080000D03*
%TD*%
D17*
%TO.C,TP12*%
X44500000Y-75000000D03*
%TD*%
D19*
%TO.C,Q4*%
X13750000Y-90460000D03*
D20*
X13750000Y-93000000D03*
X13750000Y-95540000D03*
%TD*%
D19*
%TO.C,C21*%
X57770000Y-46950000D03*
D20*
X55230000Y-46950000D03*
%TD*%
D19*
%TO.C,C18*%
X61500000Y-48770000D03*
D20*
X61500000Y-46230000D03*
%TD*%
D17*
%TO.C,TP18*%
X48500000Y-39500000D03*
%TD*%
D18*
%TO.C,R36*%
X65000000Y-26420000D03*
X65000000Y-36580000D03*
%TD*%
%TO.C,R30*%
X59500000Y-25920000D03*
X59500000Y-36080000D03*
%TD*%
D19*
%TO.C,C8*%
X10000000Y-33730000D03*
D20*
X10000000Y-36270000D03*
%TD*%
D18*
%TO.C,R10*%
X77000000Y-86080000D03*
X77000000Y-75920000D03*
%TD*%
D19*
%TO.C,Q6*%
X37040000Y-35750000D03*
D20*
X34500000Y-35750000D03*
X31960000Y-35750000D03*
%TD*%
D18*
%TO.C,R35*%
X40420000Y-36000000D03*
X50580000Y-36000000D03*
%TD*%
D19*
%TO.C,C15*%
X32270000Y-11450000D03*
D20*
X29730000Y-11450000D03*
%TD*%
D18*
%TO.C,R7*%
X88500000Y-89080000D03*
X88500000Y-78920000D03*
%TD*%
%TO.C,R5*%
X88000000Y-76080000D03*
X88000000Y-65920000D03*
%TD*%
%TO.C,R8*%
X92000000Y-79580000D03*
X92000000Y-69420000D03*
%TD*%
D13*
%TO.C,U2*%
X25450000Y-6500000D03*
D14*
X27990000Y-6500000D03*
X30530000Y-6500000D03*
%TD*%
D18*
%TO.C,R33*%
X51500000Y-53920000D03*
X51500000Y-64080000D03*
%TD*%
D25*
%TO.C,U3*%
X44190000Y-50810000D03*
D26*
X44190000Y-48270000D03*
X44190000Y-45730000D03*
X44190000Y-43190000D03*
X51810000Y-43190000D03*
X51810000Y-45730000D03*
X51810000Y-48270000D03*
X51810000Y-50810000D03*
%TD*%
D18*
%TO.C,R26*%
X6500000Y-20920000D03*
X6500000Y-31080000D03*
%TD*%
%TO.C,R39*%
X32000000Y-53080000D03*
X32000000Y-42920000D03*
%TD*%
D27*
%TO.C,J1*%
X53250000Y-100525000D03*
D28*
X55750000Y-100525000D03*
X58250000Y-100525000D03*
X60750000Y-100525000D03*
%TD*%
D18*
%TO.C,R40*%
X79080000Y-5500000D03*
X68920000Y-5500000D03*
%TD*%
D17*
%TO.C,TP22*%
X56000000Y-37000000D03*
%TD*%
D29*
%TO.C,D1*%
X17725000Y-8000000D03*
D30*
X20265000Y-8000000D03*
%TD*%
D19*
%TO.C,Q1*%
X8960000Y-8250000D03*
D20*
X11500000Y-8250000D03*
X14040000Y-8250000D03*
%TD*%
D18*
%TO.C,R41*%
X74000000Y-30080000D03*
X74000000Y-19920000D03*
%TD*%
%TO.C,R16*%
X17000000Y-86080000D03*
X17000000Y-75920000D03*
%TD*%
D17*
%TO.C,TP11*%
X35000000Y-39500000D03*
%TD*%
D19*
%TO.C,C27*%
X85230000Y-9500000D03*
D20*
X87770000Y-9500000D03*
%TD*%
D19*
%TO.C,C25*%
X39250000Y-50450000D03*
D20*
X36750000Y-50450000D03*
%TD*%
D17*
%TO.C,TP33*%
X73500000Y-73500000D03*
%TD*%
%TO.C,TP1*%
X54000000Y-33000000D03*
%TD*%
D18*
%TO.C,R4*%
X84000000Y-86080000D03*
X84000000Y-75920000D03*
%TD*%
D31*
%TO.C,D2*%
X23500000Y-91920000D03*
D32*
X23500000Y-102080000D03*
%TD*%
D19*
%TO.C,C10*%
X72270000Y-52000000D03*
D20*
X69730000Y-52000000D03*
%TD*%
D19*
%TO.C,C16*%
X16730000Y-95000000D03*
D20*
X19270000Y-95000000D03*
%TD*%
D18*
%TO.C,R28*%
X70920000Y-89000000D03*
X81080000Y-89000000D03*
%TD*%
D19*
%TO.C,C7*%
X25000000Y-45730000D03*
D20*
X25000000Y-48270000D03*
%TD*%
D19*
%TO.C,C23*%
X44000000Y-54230000D03*
D20*
X44000000Y-56770000D03*
%TD*%
D18*
%TO.C,R14*%
X69080000Y-23000000D03*
X58920000Y-23000000D03*
%TD*%
D23*
%TO.C,J4*%
X17000000Y-100550000D03*
D24*
X19000000Y-100550000D03*
%TD*%
D17*
%TO.C,TP14*%
X66500000Y-52000000D03*
%TD*%
D18*
%TO.C,R18*%
X84500000Y-24420000D03*
X84500000Y-34580000D03*
%TD*%
D19*
%TO.C,C13*%
X19050000Y-60750000D03*
D20*
X19050000Y-58250000D03*
%TD*%
D17*
%TO.C,TP29*%
X19500000Y-90500000D03*
%TD*%
%TO.C,TP9*%
X9500000Y-4500000D03*
%TD*%
%TO.C,TP10*%
X22500000Y-73500000D03*
%TD*%
%TO.C,TP13*%
X35500000Y-43500000D03*
%TD*%
D19*
%TO.C,C11*%
X76950000Y-56730000D03*
D20*
X76950000Y-59270000D03*
%TD*%
D19*
%TO.C,C6*%
X67500000Y-90270000D03*
D20*
X67500000Y-87730000D03*
%TD*%
D17*
%TO.C,TP21*%
X72000000Y-66500000D03*
%TD*%
%TO.C,TP16*%
X61500000Y-43000000D03*
%TD*%
%TO.C,TP8*%
X55500000Y-80500000D03*
%TD*%
D18*
%TO.C,R42*%
X91500000Y-17420000D03*
X91500000Y-27580000D03*
%TD*%
%TO.C,R24*%
X5500000Y-18080000D03*
X5500000Y-7920000D03*
%TD*%
D19*
%TO.C,C14*%
X33230000Y-7500000D03*
D20*
X35770000Y-7500000D03*
%TD*%
D18*
%TO.C,R6*%
X85000000Y-99080000D03*
X85000000Y-88920000D03*
%TD*%
%TO.C,R20*%
X3920000Y-84000000D03*
X14080000Y-84000000D03*
%TD*%
%TO.C,R32*%
X48000000Y-64080000D03*
X48000000Y-53920000D03*
%TD*%
%TO.C,R2*%
X3920000Y-80500000D03*
X14080000Y-80500000D03*
%TD*%
D19*
%TO.C,C3*%
X65450000Y-98250000D03*
D20*
X65450000Y-100750000D03*
%TD*%
D17*
%TO.C,TP3*%
X28500000Y-53500000D03*
%TD*%
D19*
%TO.C,C5*%
X51550000Y-93250000D03*
D20*
X51550000Y-90750000D03*
%TD*%
D18*
%TO.C,R17*%
X81580000Y-34500000D03*
X71420000Y-34500000D03*
%TD*%
D19*
%TO.C,C19*%
X55500000Y-63770000D03*
D20*
X55500000Y-61230000D03*
%TD*%
D18*
%TO.C,R3*%
X88000000Y-34580000D03*
X88000000Y-24420000D03*
%TD*%
D19*
%TO.C,C24*%
X40500000Y-41770000D03*
D20*
X40500000Y-39230000D03*
%TD*%
D18*
%TO.C,R1*%
X36000000Y-24080000D03*
X36000000Y-13920000D03*
%TD*%
D17*
%TO.C,TP30*%
X17500000Y-16500000D03*
%TD*%
D18*
%TO.C,R9*%
X92000000Y-92580000D03*
X92000000Y-82420000D03*
%TD*%
D17*
%TO.C,TP19*%
X22500000Y-69500000D03*
%TD*%
D18*
%TO.C,R12*%
X4000000Y-37420000D03*
X4000000Y-47580000D03*
%TD*%
D25*
%TO.C,U1*%
X13690000Y-53510000D03*
D26*
X13690000Y-50970000D03*
X13690000Y-48430000D03*
X13690000Y-45890000D03*
X13690000Y-43350000D03*
X13690000Y-40810000D03*
X13690000Y-38270000D03*
X13690000Y-35730000D03*
X13690000Y-33190000D03*
X13690000Y-30650000D03*
X13690000Y-28110000D03*
X13690000Y-25570000D03*
X13690000Y-23030000D03*
X13690000Y-20490000D03*
X21310000Y-20490000D03*
X21310000Y-23030000D03*
X21310000Y-25570000D03*
X21310000Y-28110000D03*
X21310000Y-30650000D03*
X21310000Y-33190000D03*
X21310000Y-35730000D03*
X21310000Y-38270000D03*
X21310000Y-40810000D03*
X21310000Y-43350000D03*
X21310000Y-45890000D03*
X21310000Y-48430000D03*
X21310000Y-50970000D03*
X21310000Y-53510000D03*
%TD*%
D15*
%TO.C,J3*%
X75500000Y-52000000D03*
D16*
X75500000Y-49460000D03*
X75500000Y-46920000D03*
X75500000Y-44380000D03*
X75500000Y-41840000D03*
X75500000Y-39300000D03*
%TD*%
D18*
%TO.C,R11*%
X4000000Y-60580000D03*
X4000000Y-50420000D03*
%TD*%
D19*
%TO.C,C1*%
X56250000Y-94550000D03*
D20*
X58750000Y-94550000D03*
%TD*%
D19*
%TO.C,Q5*%
X64960000Y-39750000D03*
D20*
X67500000Y-39750000D03*
X70040000Y-39750000D03*
%TD*%
D17*
%TO.C,TP4*%
X55500000Y-76500000D03*
%TD*%
D18*
%TO.C,R13*%
X19920000Y-86500000D03*
X30080000Y-86500000D03*
%TD*%
D19*
%TO.C,C9*%
X10270000Y-39450000D03*
D20*
X7730000Y-39450000D03*
%TD*%
D18*
%TO.C,R31*%
X61500000Y-51420000D03*
X61500000Y-61580000D03*
%TD*%
%TO.C,R15*%
X60000000Y-20080000D03*
X60000000Y-9920000D03*
%TD*%
D17*
%TO.C,TP23*%
X48500000Y-72500000D03*
%TD*%
D19*
%TO.C,C12*%
X29230000Y-39500000D03*
D20*
X31770000Y-39500000D03*
%TD*%
D33*
%TO.C,U4*%
X81890000Y-16810000D03*
D34*
X79350000Y-16810000D03*
X76810000Y-16810000D03*
X74270000Y-16810000D03*
X71730000Y-16810000D03*
X69190000Y-16810000D03*
X66650000Y-16810000D03*
X64110000Y-16810000D03*
X64110000Y-9190000D03*
X66650000Y-9190000D03*
X69190000Y-9190000D03*
X71730000Y-9190000D03*
X74270000Y-9190000D03*
X76810000Y-9190000D03*
X79350000Y-9190000D03*
X81890000Y-9190000D03*
%TD*%
D19*
%TO.C,Q3*%
X32960000Y-76250000D03*
D20*
X35500000Y-76250000D03*
X38040000Y-76250000D03*
%TD*%
D19*
%TO.C,C26*%
X40500000Y-47270000D03*
D20*
X40500000Y-44730000D03*
%TD*%
D19*
%TO.C,C20*%
X48000000Y-69270000D03*
D20*
X48000000Y-66730000D03*
%TD*%
D18*
%TO.C,R27*%
X26000000Y-20080000D03*
X26000000Y-9920000D03*
%TD*%
%TO.C,R29*%
X81500000Y-91920000D03*
X81500000Y-102080000D03*
%TD*%
%TO.C,R21*%
X78580000Y-93500000D03*
X68420000Y-93500000D03*
%TD*%
%TO.C,R25*%
X10000000Y-30080000D03*
X10000000Y-19920000D03*
%TD*%
D17*
%TO.C,TP20*%
X26500000Y-69500000D03*
%TD*%
D18*
%TO.C,R37*%
X68500000Y-36580000D03*
X68500000Y-26420000D03*
%TD*%
%TO.C,R19*%
X14080000Y-77000000D03*
X3920000Y-77000000D03*
%TD*%
%TO.C,R23*%
X87080000Y-63000000D03*
X76920000Y-63000000D03*
%TD*%
%TO.C,R34*%
X44000000Y-59420000D03*
X44000000Y-69580000D03*
%TD*%
D19*
%TO.C,C4*%
X63230000Y-93500000D03*
D20*
X65770000Y-93500000D03*
%TD*%
%LPD*%
M02*
