#VRML V2.0 utf8
# Project-owned nominal model; units 0.1 inch for KiCad.
Shape { appearance Appearance { material Material { diffuseColor 0.87 0.89 0.88 } } geometry IndexedFaceSet { solid FALSE coord Coordinate { point [ -0.767717 -1.889764 0.000000,
-0.767717 -1.889764 0.984252,
-0.767717 0.787402 0.000000,
-0.767717 0.787402 0.984252,
2.326772 -1.889764 0.984252,
2.326772 -1.889764 0.000000,
2.326772 0.787402 0.000000,
2.326772 0.787402 0.984252 ] } coordIndex [ 0 1 2 -1,
2 1 3 -1,
4 5 6 -1,
4 6 7 -1,
0 5 1 -1,
5 4 1 -1,
6 2 3 -1,
7 6 3 -1,
2 6 0 -1,
0 6 5 -1,
7 3 1 -1,
7 1 4 -1 ] } }
Shape { appearance Appearance { material Material { diffuseColor 0.87 0.89 0.88 } } geometry IndexedFaceSet { solid FALSE coord Coordinate { point [ -0.295276 0.787402 0.000000,
-0.295276 0.787402 4.291339,
-0.295276 1.456693 0.000000,
-0.295276 1.456693 4.291339,
1.854331 0.787402 4.291339,
1.854331 0.787402 0.000000,
1.854331 1.456693 0.000000,
1.854331 1.456693 4.291339 ] } coordIndex [ 0 1 2 -1,
2 1 3 -1,
4 5 6 -1,
4 6 7 -1,
5 4 0 -1,
0 4 1 -1,
7 6 2 -1,
7 2 3 -1,
2 6 0 -1,
0 6 5 -1,
7 3 1 -1,
7 1 4 -1 ] } }
Shape { appearance Appearance { material Material { diffuseColor 0.7 0.72 0.74 } } geometry IndexedFaceSet { solid FALSE coord Coordinate { point [ -0.224409 -0.224409 -0.984252,
-0.224409 -0.224409 4.015748,
-0.224409 0.224409 -0.984252,
-0.224409 0.224409 4.015748,
0.224409 -0.224409 4.015748,
0.224409 -0.224409 -0.984252,
0.224409 0.224409 -0.984252,
0.224409 0.224409 4.015748 ] } coordIndex [ 0 1 2 -1,
2 1 3 -1,
4 5 6 -1,
4 6 7 -1,
5 4 0 -1,
0 4 1 -1,
7 6 2 -1,
7 2 3 -1,
2 6 0 -1,
0 6 5 -1,
7 3 1 -1,
7 1 4 -1 ] } }
Shape { appearance Appearance { material Material { diffuseColor 0.7 0.72 0.74 } } geometry IndexedFaceSet { solid FALSE coord Coordinate { point [ 1.334646 -0.224409 -0.984252,
1.334646 -0.224409 4.015748,
1.334646 0.224409 -0.984252,
1.334646 0.224409 4.015748,
1.783465 -0.224409 4.015748,
1.783465 -0.224409 -0.984252,
1.783465 0.224409 -0.984252,
1.783465 0.224409 4.015748 ] } coordIndex [ 0 1 2 -1,
2 1 3 -1,
4 5 6 -1,
4 6 7 -1,
5 4 0 -1,
0 4 1 -1,
7 6 2 -1,
7 2 3 -1,
2 6 0 -1,
0 6 5 -1,
7 3 1 -1,
7 1 4 -1 ] } }
