#VRML V2.0 utf8
# Project-owned nominal model; units 0.1 inch for KiCad.
Shape { appearance Appearance { material Material { diffuseColor 0.19 0.19 0.2 } } geometry IndexedFaceSet { solid FALSE coord Coordinate { point [ -0.846457 -0.846457 0.039370,
-0.846457 -0.846457 0.826772,
-0.846457 0.846457 0.039370,
-0.846457 0.846457 0.826772,
0.846457 -0.846457 0.826772,
0.846457 -0.846457 0.039370,
0.846457 0.846457 0.039370,
0.846457 0.846457 0.826772 ] } coordIndex [ 0 1 2 -1,
2 1 3 -1,
4 5 6 -1,
4 6 7 -1,
5 4 0 -1,
0 4 1 -1,
7 6 2 -1,
7 2 3 -1,
2 6 0 -1,
0 6 5 -1,
7 3 1 -1,
7 1 4 -1 ] } }
Shape { appearance Appearance { material Material { diffuseColor 0.7 0.72 0.74 } } geometry IndexedFaceSet { solid FALSE coord Coordinate { point [ -0.309055 0.478346 0.000000,
-0.309055 0.478346 0.047244,
-0.309055 0.801181 0.000000,
-0.309055 0.801181 0.047244,
0.309055 0.478346 0.047244,
0.309055 0.478346 0.000000,
0.309055 0.801181 0.000000,
0.309055 0.801181 0.047244 ] } coordIndex [ 0 1 2 -1,
2 1 3 -1,
4 5 6 -1,
4 6 7 -1,
5 4 0 -1,
0 4 1 -1,
7 6 2 -1,
7 2 3 -1,
2 6 0 -1,
0 6 5 -1,
7 3 1 -1,
7 1 4 -1 ] } }
Shape { appearance Appearance { material Material { diffuseColor 0.7 0.72 0.74 } } geometry IndexedFaceSet { solid FALSE coord Coordinate { point [ -0.309055 -0.801181 0.000000,
-0.309055 -0.801181 0.047244,
-0.309055 -0.478346 0.000000,
-0.309055 -0.478346 0.047244,
0.309055 -0.801181 0.047244,
0.309055 -0.801181 0.000000,
0.309055 -0.478346 0.000000,
0.309055 -0.478346 0.047244 ] } coordIndex [ 0 1 2 -1,
2 1 3 -1,
4 5 6 -1,
4 6 7 -1,
5 4 0 -1,
0 4 1 -1,
7 6 2 -1,
7 2 3 -1,
2 6 0 -1,
0 6 5 -1,
7 3 1 -1,
7 1 4 -1 ] } }
