%TF.GenerationSoftware,KiCad,Pcbnew,10.0.6*%
%TF.CreationDate,2026-09-11T22:39:02-05:00*%
%TF.ProjectId,KK_power_module,4b4b5f70-6f77-4657-925f-6d6f64756c65,rev?*%
%TF.SameCoordinates,Original*%
%TF.FileFunction,Legend,Top*%
%TF.FilePolarity,Positive*%
%FSLAX46Y46*%
G04 Gerber Fmt 4.6, Leading zero omitted, Abs format (unit mm)*
G04 Created by KiCad (PCBNEW 10.0.6) date 2026-09-11 22:39:02*
%MOMM*%
%LPD*%
G01*
G04 APERTURE LIST*
%ADD10C,0.100000*%
%ADD11C,0.130000*%
%ADD12C,0.120000*%
%ADD13C,0.127000*%
%ADD14C,0.200000*%
G04 APERTURE END LIST*
D10*
X7491428Y-47341085D02*
X7529524Y-47302990D01*
X7529524Y-47302990D02*
X7605714Y-47264895D01*
X7605714Y-47264895D02*
X7796190Y-47264895D01*
X7796190Y-47264895D02*
X7872381Y-47302990D01*
X7872381Y-47302990D02*
X7910476Y-47341085D01*
X7910476Y-47341085D02*
X7948571Y-47417276D01*
X7948571Y-47417276D02*
X7948571Y-47493466D01*
X7948571Y-47493466D02*
X7910476Y-47607752D01*
X7910476Y-47607752D02*
X7453333Y-48064895D01*
X7453333Y-48064895D02*
X7948571Y-48064895D01*
X8900953Y-47760133D02*
X9510477Y-47760133D01*
X11908571Y-48064895D02*
X11451428Y-48064895D01*
X11680000Y-48064895D02*
X11680000Y-47264895D01*
X11680000Y-47264895D02*
X11603809Y-47379180D01*
X11603809Y-47379180D02*
X11527619Y-47455371D01*
X11527619Y-47455371D02*
X11451428Y-47493466D01*
X12860953Y-47760133D02*
X13470477Y-47760133D01*
X13165715Y-48064895D02*
X13165715Y-47455371D01*
X30759523Y-48064895D02*
X31254761Y-48064895D01*
X31254761Y-48064895D02*
X30988095Y-48369657D01*
X30988095Y-48369657D02*
X31102380Y-48369657D01*
X31102380Y-48369657D02*
X31178571Y-48407752D01*
X31178571Y-48407752D02*
X31216666Y-48445847D01*
X31216666Y-48445847D02*
X31254761Y-48522038D01*
X31254761Y-48522038D02*
X31254761Y-48712514D01*
X31254761Y-48712514D02*
X31216666Y-48788704D01*
X31216666Y-48788704D02*
X31178571Y-48826800D01*
X31178571Y-48826800D02*
X31102380Y-48864895D01*
X31102380Y-48864895D02*
X30873809Y-48864895D01*
X30873809Y-48864895D02*
X30797618Y-48826800D01*
X30797618Y-48826800D02*
X30759523Y-48788704D01*
X31483333Y-48064895D02*
X31750000Y-48864895D01*
X31750000Y-48864895D02*
X32016666Y-48064895D01*
X32245237Y-48141085D02*
X32283333Y-48102990D01*
X32283333Y-48102990D02*
X32359523Y-48064895D01*
X32359523Y-48064895D02*
X32549999Y-48064895D01*
X32549999Y-48064895D02*
X32626190Y-48102990D01*
X32626190Y-48102990D02*
X32664285Y-48141085D01*
X32664285Y-48141085D02*
X32702380Y-48217276D01*
X32702380Y-48217276D02*
X32702380Y-48293466D01*
X32702380Y-48293466D02*
X32664285Y-48407752D01*
X32664285Y-48407752D02*
X32207142Y-48864895D01*
X32207142Y-48864895D02*
X32702380Y-48864895D01*
X33259523Y-48064895D02*
X33754761Y-48064895D01*
X33754761Y-48064895D02*
X33488095Y-48369657D01*
X33488095Y-48369657D02*
X33602380Y-48369657D01*
X33602380Y-48369657D02*
X33678571Y-48407752D01*
X33678571Y-48407752D02*
X33716666Y-48445847D01*
X33716666Y-48445847D02*
X33754761Y-48522038D01*
X33754761Y-48522038D02*
X33754761Y-48712514D01*
X33754761Y-48712514D02*
X33716666Y-48788704D01*
X33716666Y-48788704D02*
X33678571Y-48826800D01*
X33678571Y-48826800D02*
X33602380Y-48864895D01*
X33602380Y-48864895D02*
X33373809Y-48864895D01*
X33373809Y-48864895D02*
X33297618Y-48826800D01*
X33297618Y-48826800D02*
X33259523Y-48788704D01*
X33983333Y-48064895D02*
X34250000Y-48864895D01*
X34250000Y-48864895D02*
X34516666Y-48064895D01*
X34707142Y-48064895D02*
X35202380Y-48064895D01*
X35202380Y-48064895D02*
X34935714Y-48369657D01*
X34935714Y-48369657D02*
X35049999Y-48369657D01*
X35049999Y-48369657D02*
X35126190Y-48407752D01*
X35126190Y-48407752D02*
X35164285Y-48445847D01*
X35164285Y-48445847D02*
X35202380Y-48522038D01*
X35202380Y-48522038D02*
X35202380Y-48712514D01*
X35202380Y-48712514D02*
X35164285Y-48788704D01*
X35164285Y-48788704D02*
X35126190Y-48826800D01*
X35126190Y-48826800D02*
X35049999Y-48864895D01*
X35049999Y-48864895D02*
X34821428Y-48864895D01*
X34821428Y-48864895D02*
X34745237Y-48826800D01*
X34745237Y-48826800D02*
X34707142Y-48788704D01*
X36140476Y-48102990D02*
X36064286Y-48064895D01*
X36064286Y-48064895D02*
X35950000Y-48064895D01*
X35950000Y-48064895D02*
X35835714Y-48102990D01*
X35835714Y-48102990D02*
X35759524Y-48179180D01*
X35759524Y-48179180D02*
X35721429Y-48255371D01*
X35721429Y-48255371D02*
X35683333Y-48407752D01*
X35683333Y-48407752D02*
X35683333Y-48522038D01*
X35683333Y-48522038D02*
X35721429Y-48674419D01*
X35721429Y-48674419D02*
X35759524Y-48750609D01*
X35759524Y-48750609D02*
X35835714Y-48826800D01*
X35835714Y-48826800D02*
X35950000Y-48864895D01*
X35950000Y-48864895D02*
X36026191Y-48864895D01*
X36026191Y-48864895D02*
X36140476Y-48826800D01*
X36140476Y-48826800D02*
X36178572Y-48788704D01*
X36178572Y-48788704D02*
X36178572Y-48522038D01*
X36178572Y-48522038D02*
X36026191Y-48522038D01*
X36521429Y-48864895D02*
X36521429Y-48064895D01*
X36521429Y-48064895D02*
X36978572Y-48864895D01*
X36978572Y-48864895D02*
X36978572Y-48064895D01*
X37359524Y-48864895D02*
X37359524Y-48064895D01*
X37359524Y-48064895D02*
X37550000Y-48064895D01*
X37550000Y-48064895D02*
X37664286Y-48102990D01*
X37664286Y-48102990D02*
X37740476Y-48179180D01*
X37740476Y-48179180D02*
X37778571Y-48255371D01*
X37778571Y-48255371D02*
X37816667Y-48407752D01*
X37816667Y-48407752D02*
X37816667Y-48522038D01*
X37816667Y-48522038D02*
X37778571Y-48674419D01*
X37778571Y-48674419D02*
X37740476Y-48750609D01*
X37740476Y-48750609D02*
X37664286Y-48826800D01*
X37664286Y-48826800D02*
X37550000Y-48864895D01*
X37550000Y-48864895D02*
X37359524Y-48864895D01*
X39097619Y-48064895D02*
X38716667Y-48064895D01*
X38716667Y-48064895D02*
X38678571Y-48445847D01*
X38678571Y-48445847D02*
X38716667Y-48407752D01*
X38716667Y-48407752D02*
X38792857Y-48369657D01*
X38792857Y-48369657D02*
X38983333Y-48369657D01*
X38983333Y-48369657D02*
X39059524Y-48407752D01*
X39059524Y-48407752D02*
X39097619Y-48445847D01*
X39097619Y-48445847D02*
X39135714Y-48522038D01*
X39135714Y-48522038D02*
X39135714Y-48712514D01*
X39135714Y-48712514D02*
X39097619Y-48788704D01*
X39097619Y-48788704D02*
X39059524Y-48826800D01*
X39059524Y-48826800D02*
X38983333Y-48864895D01*
X38983333Y-48864895D02*
X38792857Y-48864895D01*
X38792857Y-48864895D02*
X38716667Y-48826800D01*
X38716667Y-48826800D02*
X38678571Y-48788704D01*
X39364286Y-48064895D02*
X39630953Y-48864895D01*
X39630953Y-48864895D02*
X39897619Y-48064895D01*
D11*
X21066667Y-48863335D02*
X21066667Y-48063335D01*
X21066667Y-48063335D02*
X21523810Y-48863335D01*
X21523810Y-48863335D02*
X21523810Y-48063335D01*
X21790476Y-48063335D02*
X22247619Y-48063335D01*
X22019047Y-48863335D02*
X22019047Y-48063335D01*
X22971429Y-48787144D02*
X22933333Y-48825240D01*
X22933333Y-48825240D02*
X22819048Y-48863335D01*
X22819048Y-48863335D02*
X22742857Y-48863335D01*
X22742857Y-48863335D02*
X22628571Y-48825240D01*
X22628571Y-48825240D02*
X22552381Y-48749049D01*
X22552381Y-48749049D02*
X22514286Y-48672859D01*
X22514286Y-48672859D02*
X22476190Y-48520478D01*
X22476190Y-48520478D02*
X22476190Y-48406192D01*
X22476190Y-48406192D02*
X22514286Y-48253811D01*
X22514286Y-48253811D02*
X22552381Y-48177620D01*
X22552381Y-48177620D02*
X22628571Y-48101430D01*
X22628571Y-48101430D02*
X22742857Y-48063335D01*
X22742857Y-48063335D02*
X22819048Y-48063335D01*
X22819048Y-48063335D02*
X22933333Y-48101430D01*
X22933333Y-48101430D02*
X22971429Y-48139525D01*
D10*
X42009524Y-38014895D02*
X42009524Y-38662514D01*
X42009524Y-38662514D02*
X42047619Y-38738704D01*
X42047619Y-38738704D02*
X42085714Y-38776800D01*
X42085714Y-38776800D02*
X42161905Y-38814895D01*
X42161905Y-38814895D02*
X42314286Y-38814895D01*
X42314286Y-38814895D02*
X42390476Y-38776800D01*
X42390476Y-38776800D02*
X42428571Y-38738704D01*
X42428571Y-38738704D02*
X42466667Y-38662514D01*
X42466667Y-38662514D02*
X42466667Y-38014895D01*
X43266666Y-38814895D02*
X42809523Y-38814895D01*
X43038095Y-38814895D02*
X43038095Y-38014895D01*
X43038095Y-38014895D02*
X42961904Y-38129180D01*
X42961904Y-38129180D02*
X42885714Y-38205371D01*
X42885714Y-38205371D02*
X42809523Y-38243466D01*
X44028571Y-38814895D02*
X43571428Y-38814895D01*
X43800000Y-38814895D02*
X43800000Y-38014895D01*
X43800000Y-38014895D02*
X43723809Y-38129180D01*
X43723809Y-38129180D02*
X43647619Y-38205371D01*
X43647619Y-38205371D02*
X43571428Y-38243466D01*
X43785714Y-18338704D02*
X43747618Y-18376800D01*
X43747618Y-18376800D02*
X43633333Y-18414895D01*
X43633333Y-18414895D02*
X43557142Y-18414895D01*
X43557142Y-18414895D02*
X43442856Y-18376800D01*
X43442856Y-18376800D02*
X43366666Y-18300609D01*
X43366666Y-18300609D02*
X43328571Y-18224419D01*
X43328571Y-18224419D02*
X43290475Y-18072038D01*
X43290475Y-18072038D02*
X43290475Y-17957752D01*
X43290475Y-17957752D02*
X43328571Y-17805371D01*
X43328571Y-17805371D02*
X43366666Y-17729180D01*
X43366666Y-17729180D02*
X43442856Y-17652990D01*
X43442856Y-17652990D02*
X43557142Y-17614895D01*
X43557142Y-17614895D02*
X43633333Y-17614895D01*
X43633333Y-17614895D02*
X43747618Y-17652990D01*
X43747618Y-17652990D02*
X43785714Y-17691085D01*
X44471428Y-17881561D02*
X44471428Y-18414895D01*
X44280952Y-17576800D02*
X44090475Y-18148228D01*
X44090475Y-18148228D02*
X44585714Y-18148228D01*
X44814285Y-17614895D02*
X45309523Y-17614895D01*
X45309523Y-17614895D02*
X45042857Y-17919657D01*
X45042857Y-17919657D02*
X45157142Y-17919657D01*
X45157142Y-17919657D02*
X45233333Y-17957752D01*
X45233333Y-17957752D02*
X45271428Y-17995847D01*
X45271428Y-17995847D02*
X45309523Y-18072038D01*
X45309523Y-18072038D02*
X45309523Y-18262514D01*
X45309523Y-18262514D02*
X45271428Y-18338704D01*
X45271428Y-18338704D02*
X45233333Y-18376800D01*
X45233333Y-18376800D02*
X45157142Y-18414895D01*
X45157142Y-18414895D02*
X44928571Y-18414895D01*
X44928571Y-18414895D02*
X44852380Y-18376800D01*
X44852380Y-18376800D02*
X44814285Y-18338704D01*
X14866667Y-4364895D02*
X14600000Y-3983942D01*
X14409524Y-4364895D02*
X14409524Y-3564895D01*
X14409524Y-3564895D02*
X14714286Y-3564895D01*
X14714286Y-3564895D02*
X14790476Y-3602990D01*
X14790476Y-3602990D02*
X14828571Y-3641085D01*
X14828571Y-3641085D02*
X14866667Y-3717276D01*
X14866667Y-3717276D02*
X14866667Y-3831561D01*
X14866667Y-3831561D02*
X14828571Y-3907752D01*
X14828571Y-3907752D02*
X14790476Y-3945847D01*
X14790476Y-3945847D02*
X14714286Y-3983942D01*
X14714286Y-3983942D02*
X14409524Y-3983942D01*
X15171428Y-3641085D02*
X15209524Y-3602990D01*
X15209524Y-3602990D02*
X15285714Y-3564895D01*
X15285714Y-3564895D02*
X15476190Y-3564895D01*
X15476190Y-3564895D02*
X15552381Y-3602990D01*
X15552381Y-3602990D02*
X15590476Y-3641085D01*
X15590476Y-3641085D02*
X15628571Y-3717276D01*
X15628571Y-3717276D02*
X15628571Y-3793466D01*
X15628571Y-3793466D02*
X15590476Y-3907752D01*
X15590476Y-3907752D02*
X15133333Y-4364895D01*
X15133333Y-4364895D02*
X15628571Y-4364895D01*
X34590476Y-18014895D02*
X34590476Y-18662514D01*
X34590476Y-18662514D02*
X34628571Y-18738704D01*
X34628571Y-18738704D02*
X34666666Y-18776800D01*
X34666666Y-18776800D02*
X34742857Y-18814895D01*
X34742857Y-18814895D02*
X34895238Y-18814895D01*
X34895238Y-18814895D02*
X34971428Y-18776800D01*
X34971428Y-18776800D02*
X35009523Y-18738704D01*
X35009523Y-18738704D02*
X35047619Y-18662514D01*
X35047619Y-18662514D02*
X35047619Y-18014895D01*
X35352380Y-18014895D02*
X35885714Y-18014895D01*
X35885714Y-18014895D02*
X35542856Y-18814895D01*
X43135714Y-3764895D02*
X42869047Y-3383942D01*
X42678571Y-3764895D02*
X42678571Y-2964895D01*
X42678571Y-2964895D02*
X42983333Y-2964895D01*
X42983333Y-2964895D02*
X43059523Y-3002990D01*
X43059523Y-3002990D02*
X43097618Y-3041085D01*
X43097618Y-3041085D02*
X43135714Y-3117276D01*
X43135714Y-3117276D02*
X43135714Y-3231561D01*
X43135714Y-3231561D02*
X43097618Y-3307752D01*
X43097618Y-3307752D02*
X43059523Y-3345847D01*
X43059523Y-3345847D02*
X42983333Y-3383942D01*
X42983333Y-3383942D02*
X42678571Y-3383942D01*
X43897618Y-3764895D02*
X43440475Y-3764895D01*
X43669047Y-3764895D02*
X43669047Y-2964895D01*
X43669047Y-2964895D02*
X43592856Y-3079180D01*
X43592856Y-3079180D02*
X43516666Y-3155371D01*
X43516666Y-3155371D02*
X43440475Y-3193466D01*
X44583333Y-3231561D02*
X44583333Y-3764895D01*
X44392857Y-2926800D02*
X44202380Y-3498228D01*
X44202380Y-3498228D02*
X44697619Y-3498228D01*
X6023809Y-8291085D02*
X5947619Y-8252990D01*
X5947619Y-8252990D02*
X5871428Y-8176800D01*
X5871428Y-8176800D02*
X5757142Y-8062514D01*
X5757142Y-8062514D02*
X5680952Y-8024419D01*
X5680952Y-8024419D02*
X5604761Y-8024419D01*
X5642857Y-8214895D02*
X5566666Y-8176800D01*
X5566666Y-8176800D02*
X5490476Y-8100609D01*
X5490476Y-8100609D02*
X5452380Y-7948228D01*
X5452380Y-7948228D02*
X5452380Y-7681561D01*
X5452380Y-7681561D02*
X5490476Y-7529180D01*
X5490476Y-7529180D02*
X5566666Y-7452990D01*
X5566666Y-7452990D02*
X5642857Y-7414895D01*
X5642857Y-7414895D02*
X5795238Y-7414895D01*
X5795238Y-7414895D02*
X5871428Y-7452990D01*
X5871428Y-7452990D02*
X5947619Y-7529180D01*
X5947619Y-7529180D02*
X5985714Y-7681561D01*
X5985714Y-7681561D02*
X5985714Y-7948228D01*
X5985714Y-7948228D02*
X5947619Y-8100609D01*
X5947619Y-8100609D02*
X5871428Y-8176800D01*
X5871428Y-8176800D02*
X5795238Y-8214895D01*
X5795238Y-8214895D02*
X5642857Y-8214895D01*
X6671428Y-7681561D02*
X6671428Y-8214895D01*
X6480952Y-7376800D02*
X6290475Y-7948228D01*
X6290475Y-7948228D02*
X6785714Y-7948228D01*
X5073809Y-33141085D02*
X4997619Y-33102990D01*
X4997619Y-33102990D02*
X4921428Y-33026800D01*
X4921428Y-33026800D02*
X4807142Y-32912514D01*
X4807142Y-32912514D02*
X4730952Y-32874419D01*
X4730952Y-32874419D02*
X4654761Y-32874419D01*
X4692857Y-33064895D02*
X4616666Y-33026800D01*
X4616666Y-33026800D02*
X4540476Y-32950609D01*
X4540476Y-32950609D02*
X4502380Y-32798228D01*
X4502380Y-32798228D02*
X4502380Y-32531561D01*
X4502380Y-32531561D02*
X4540476Y-32379180D01*
X4540476Y-32379180D02*
X4616666Y-32302990D01*
X4616666Y-32302990D02*
X4692857Y-32264895D01*
X4692857Y-32264895D02*
X4845238Y-32264895D01*
X4845238Y-32264895D02*
X4921428Y-32302990D01*
X4921428Y-32302990D02*
X4997619Y-32379180D01*
X4997619Y-32379180D02*
X5035714Y-32531561D01*
X5035714Y-32531561D02*
X5035714Y-32798228D01*
X5035714Y-32798228D02*
X4997619Y-32950609D01*
X4997619Y-32950609D02*
X4921428Y-33026800D01*
X4921428Y-33026800D02*
X4845238Y-33064895D01*
X4845238Y-33064895D02*
X4692857Y-33064895D01*
X5797618Y-33064895D02*
X5340475Y-33064895D01*
X5569047Y-33064895D02*
X5569047Y-32264895D01*
X5569047Y-32264895D02*
X5492856Y-32379180D01*
X5492856Y-32379180D02*
X5416666Y-32455371D01*
X5416666Y-32455371D02*
X5340475Y-32493466D01*
X14233333Y-28345847D02*
X13966667Y-28345847D01*
X13966667Y-28764895D02*
X13966667Y-27964895D01*
X13966667Y-27964895D02*
X14347619Y-27964895D01*
X15071428Y-28764895D02*
X14614285Y-28764895D01*
X14842857Y-28764895D02*
X14842857Y-27964895D01*
X14842857Y-27964895D02*
X14766666Y-28079180D01*
X14766666Y-28079180D02*
X14690476Y-28155371D01*
X14690476Y-28155371D02*
X14614285Y-28193466D01*
X21733333Y-40064895D02*
X21733333Y-40636323D01*
X21733333Y-40636323D02*
X21695238Y-40750609D01*
X21695238Y-40750609D02*
X21619047Y-40826800D01*
X21619047Y-40826800D02*
X21504762Y-40864895D01*
X21504762Y-40864895D02*
X21428571Y-40864895D01*
X22457143Y-40331561D02*
X22457143Y-40864895D01*
X22266667Y-40026800D02*
X22076190Y-40598228D01*
X22076190Y-40598228D02*
X22571429Y-40598228D01*
X16685714Y-24664895D02*
X16419047Y-24283942D01*
X16228571Y-24664895D02*
X16228571Y-23864895D01*
X16228571Y-23864895D02*
X16533333Y-23864895D01*
X16533333Y-23864895D02*
X16609523Y-23902990D01*
X16609523Y-23902990D02*
X16647618Y-23941085D01*
X16647618Y-23941085D02*
X16685714Y-24017276D01*
X16685714Y-24017276D02*
X16685714Y-24131561D01*
X16685714Y-24131561D02*
X16647618Y-24207752D01*
X16647618Y-24207752D02*
X16609523Y-24245847D01*
X16609523Y-24245847D02*
X16533333Y-24283942D01*
X16533333Y-24283942D02*
X16228571Y-24283942D01*
X16990475Y-23941085D02*
X17028571Y-23902990D01*
X17028571Y-23902990D02*
X17104761Y-23864895D01*
X17104761Y-23864895D02*
X17295237Y-23864895D01*
X17295237Y-23864895D02*
X17371428Y-23902990D01*
X17371428Y-23902990D02*
X17409523Y-23941085D01*
X17409523Y-23941085D02*
X17447618Y-24017276D01*
X17447618Y-24017276D02*
X17447618Y-24093466D01*
X17447618Y-24093466D02*
X17409523Y-24207752D01*
X17409523Y-24207752D02*
X16952380Y-24664895D01*
X16952380Y-24664895D02*
X17447618Y-24664895D01*
X18209523Y-24664895D02*
X17752380Y-24664895D01*
X17980952Y-24664895D02*
X17980952Y-23864895D01*
X17980952Y-23864895D02*
X17904761Y-23979180D01*
X17904761Y-23979180D02*
X17828571Y-24055371D01*
X17828571Y-24055371D02*
X17752380Y-24093466D01*
X46685713Y-18338704D02*
X46647617Y-18376800D01*
X46647617Y-18376800D02*
X46533332Y-18414895D01*
X46533332Y-18414895D02*
X46457141Y-18414895D01*
X46457141Y-18414895D02*
X46342855Y-18376800D01*
X46342855Y-18376800D02*
X46266665Y-18300609D01*
X46266665Y-18300609D02*
X46228570Y-18224419D01*
X46228570Y-18224419D02*
X46190474Y-18072038D01*
X46190474Y-18072038D02*
X46190474Y-17957752D01*
X46190474Y-17957752D02*
X46228570Y-17805371D01*
X46228570Y-17805371D02*
X46266665Y-17729180D01*
X46266665Y-17729180D02*
X46342855Y-17652990D01*
X46342855Y-17652990D02*
X46457141Y-17614895D01*
X46457141Y-17614895D02*
X46533332Y-17614895D01*
X46533332Y-17614895D02*
X46647617Y-17652990D01*
X46647617Y-17652990D02*
X46685713Y-17691085D01*
X47371427Y-17881561D02*
X47371427Y-18414895D01*
X47180951Y-17576800D02*
X46990474Y-18148228D01*
X46990474Y-18148228D02*
X47485713Y-18148228D01*
X48133332Y-17881561D02*
X48133332Y-18414895D01*
X47942856Y-17576800D02*
X47752379Y-18148228D01*
X47752379Y-18148228D02*
X48247618Y-18148228D01*
X22985714Y-6538704D02*
X22947618Y-6576800D01*
X22947618Y-6576800D02*
X22833333Y-6614895D01*
X22833333Y-6614895D02*
X22757142Y-6614895D01*
X22757142Y-6614895D02*
X22642856Y-6576800D01*
X22642856Y-6576800D02*
X22566666Y-6500609D01*
X22566666Y-6500609D02*
X22528571Y-6424419D01*
X22528571Y-6424419D02*
X22490475Y-6272038D01*
X22490475Y-6272038D02*
X22490475Y-6157752D01*
X22490475Y-6157752D02*
X22528571Y-6005371D01*
X22528571Y-6005371D02*
X22566666Y-5929180D01*
X22566666Y-5929180D02*
X22642856Y-5852990D01*
X22642856Y-5852990D02*
X22757142Y-5814895D01*
X22757142Y-5814895D02*
X22833333Y-5814895D01*
X22833333Y-5814895D02*
X22947618Y-5852990D01*
X22947618Y-5852990D02*
X22985714Y-5891085D01*
X23252380Y-5814895D02*
X23785714Y-5814895D01*
X23785714Y-5814895D02*
X23442856Y-6614895D01*
X24052380Y-5891085D02*
X24090476Y-5852990D01*
X24090476Y-5852990D02*
X24166666Y-5814895D01*
X24166666Y-5814895D02*
X24357142Y-5814895D01*
X24357142Y-5814895D02*
X24433333Y-5852990D01*
X24433333Y-5852990D02*
X24471428Y-5891085D01*
X24471428Y-5891085D02*
X24509523Y-5967276D01*
X24509523Y-5967276D02*
X24509523Y-6043466D01*
X24509523Y-6043466D02*
X24471428Y-6157752D01*
X24471428Y-6157752D02*
X24014285Y-6614895D01*
X24014285Y-6614895D02*
X24509523Y-6614895D01*
X17316667Y-13114895D02*
X17050000Y-12733942D01*
X16859524Y-13114895D02*
X16859524Y-12314895D01*
X16859524Y-12314895D02*
X17164286Y-12314895D01*
X17164286Y-12314895D02*
X17240476Y-12352990D01*
X17240476Y-12352990D02*
X17278571Y-12391085D01*
X17278571Y-12391085D02*
X17316667Y-12467276D01*
X17316667Y-12467276D02*
X17316667Y-12581561D01*
X17316667Y-12581561D02*
X17278571Y-12657752D01*
X17278571Y-12657752D02*
X17240476Y-12695847D01*
X17240476Y-12695847D02*
X17164286Y-12733942D01*
X17164286Y-12733942D02*
X16859524Y-12733942D01*
X18078571Y-13114895D02*
X17621428Y-13114895D01*
X17850000Y-13114895D02*
X17850000Y-12314895D01*
X17850000Y-12314895D02*
X17773809Y-12429180D01*
X17773809Y-12429180D02*
X17697619Y-12505371D01*
X17697619Y-12505371D02*
X17621428Y-12543466D01*
X15285714Y-16414895D02*
X15019047Y-16033942D01*
X14828571Y-16414895D02*
X14828571Y-15614895D01*
X14828571Y-15614895D02*
X15133333Y-15614895D01*
X15133333Y-15614895D02*
X15209523Y-15652990D01*
X15209523Y-15652990D02*
X15247618Y-15691085D01*
X15247618Y-15691085D02*
X15285714Y-15767276D01*
X15285714Y-15767276D02*
X15285714Y-15881561D01*
X15285714Y-15881561D02*
X15247618Y-15957752D01*
X15247618Y-15957752D02*
X15209523Y-15995847D01*
X15209523Y-15995847D02*
X15133333Y-16033942D01*
X15133333Y-16033942D02*
X14828571Y-16033942D01*
X15552380Y-15614895D02*
X16085714Y-15614895D01*
X16085714Y-15614895D02*
X15742856Y-16414895D01*
X16542857Y-15614895D02*
X16619047Y-15614895D01*
X16619047Y-15614895D02*
X16695238Y-15652990D01*
X16695238Y-15652990D02*
X16733333Y-15691085D01*
X16733333Y-15691085D02*
X16771428Y-15767276D01*
X16771428Y-15767276D02*
X16809523Y-15919657D01*
X16809523Y-15919657D02*
X16809523Y-16110133D01*
X16809523Y-16110133D02*
X16771428Y-16262514D01*
X16771428Y-16262514D02*
X16733333Y-16338704D01*
X16733333Y-16338704D02*
X16695238Y-16376800D01*
X16695238Y-16376800D02*
X16619047Y-16414895D01*
X16619047Y-16414895D02*
X16542857Y-16414895D01*
X16542857Y-16414895D02*
X16466666Y-16376800D01*
X16466666Y-16376800D02*
X16428571Y-16338704D01*
X16428571Y-16338704D02*
X16390476Y-16262514D01*
X16390476Y-16262514D02*
X16352380Y-16110133D01*
X16352380Y-16110133D02*
X16352380Y-15919657D01*
X16352380Y-15919657D02*
X16390476Y-15767276D01*
X16390476Y-15767276D02*
X16428571Y-15691085D01*
X16428571Y-15691085D02*
X16466666Y-15652990D01*
X16466666Y-15652990D02*
X16542857Y-15614895D01*
X40985714Y-23188704D02*
X40947618Y-23226800D01*
X40947618Y-23226800D02*
X40833333Y-23264895D01*
X40833333Y-23264895D02*
X40757142Y-23264895D01*
X40757142Y-23264895D02*
X40642856Y-23226800D01*
X40642856Y-23226800D02*
X40566666Y-23150609D01*
X40566666Y-23150609D02*
X40528571Y-23074419D01*
X40528571Y-23074419D02*
X40490475Y-22922038D01*
X40490475Y-22922038D02*
X40490475Y-22807752D01*
X40490475Y-22807752D02*
X40528571Y-22655371D01*
X40528571Y-22655371D02*
X40566666Y-22579180D01*
X40566666Y-22579180D02*
X40642856Y-22502990D01*
X40642856Y-22502990D02*
X40757142Y-22464895D01*
X40757142Y-22464895D02*
X40833333Y-22464895D01*
X40833333Y-22464895D02*
X40947618Y-22502990D01*
X40947618Y-22502990D02*
X40985714Y-22541085D01*
X41671428Y-22731561D02*
X41671428Y-23264895D01*
X41480952Y-22426800D02*
X41290475Y-22998228D01*
X41290475Y-22998228D02*
X41785714Y-22998228D01*
X42204761Y-22807752D02*
X42128571Y-22769657D01*
X42128571Y-22769657D02*
X42090476Y-22731561D01*
X42090476Y-22731561D02*
X42052380Y-22655371D01*
X42052380Y-22655371D02*
X42052380Y-22617276D01*
X42052380Y-22617276D02*
X42090476Y-22541085D01*
X42090476Y-22541085D02*
X42128571Y-22502990D01*
X42128571Y-22502990D02*
X42204761Y-22464895D01*
X42204761Y-22464895D02*
X42357142Y-22464895D01*
X42357142Y-22464895D02*
X42433333Y-22502990D01*
X42433333Y-22502990D02*
X42471428Y-22541085D01*
X42471428Y-22541085D02*
X42509523Y-22617276D01*
X42509523Y-22617276D02*
X42509523Y-22655371D01*
X42509523Y-22655371D02*
X42471428Y-22731561D01*
X42471428Y-22731561D02*
X42433333Y-22769657D01*
X42433333Y-22769657D02*
X42357142Y-22807752D01*
X42357142Y-22807752D02*
X42204761Y-22807752D01*
X42204761Y-22807752D02*
X42128571Y-22845847D01*
X42128571Y-22845847D02*
X42090476Y-22883942D01*
X42090476Y-22883942D02*
X42052380Y-22960133D01*
X42052380Y-22960133D02*
X42052380Y-23112514D01*
X42052380Y-23112514D02*
X42090476Y-23188704D01*
X42090476Y-23188704D02*
X42128571Y-23226800D01*
X42128571Y-23226800D02*
X42204761Y-23264895D01*
X42204761Y-23264895D02*
X42357142Y-23264895D01*
X42357142Y-23264895D02*
X42433333Y-23226800D01*
X42433333Y-23226800D02*
X42471428Y-23188704D01*
X42471428Y-23188704D02*
X42509523Y-23112514D01*
X42509523Y-23112514D02*
X42509523Y-22960133D01*
X42509523Y-22960133D02*
X42471428Y-22883942D01*
X42471428Y-22883942D02*
X42433333Y-22845847D01*
X42433333Y-22845847D02*
X42357142Y-22807752D01*
X28416667Y-15588704D02*
X28378571Y-15626800D01*
X28378571Y-15626800D02*
X28264286Y-15664895D01*
X28264286Y-15664895D02*
X28188095Y-15664895D01*
X28188095Y-15664895D02*
X28073809Y-15626800D01*
X28073809Y-15626800D02*
X27997619Y-15550609D01*
X27997619Y-15550609D02*
X27959524Y-15474419D01*
X27959524Y-15474419D02*
X27921428Y-15322038D01*
X27921428Y-15322038D02*
X27921428Y-15207752D01*
X27921428Y-15207752D02*
X27959524Y-15055371D01*
X27959524Y-15055371D02*
X27997619Y-14979180D01*
X27997619Y-14979180D02*
X28073809Y-14902990D01*
X28073809Y-14902990D02*
X28188095Y-14864895D01*
X28188095Y-14864895D02*
X28264286Y-14864895D01*
X28264286Y-14864895D02*
X28378571Y-14902990D01*
X28378571Y-14902990D02*
X28416667Y-14941085D01*
X28797619Y-15664895D02*
X28950000Y-15664895D01*
X28950000Y-15664895D02*
X29026190Y-15626800D01*
X29026190Y-15626800D02*
X29064286Y-15588704D01*
X29064286Y-15588704D02*
X29140476Y-15474419D01*
X29140476Y-15474419D02*
X29178571Y-15322038D01*
X29178571Y-15322038D02*
X29178571Y-15017276D01*
X29178571Y-15017276D02*
X29140476Y-14941085D01*
X29140476Y-14941085D02*
X29102381Y-14902990D01*
X29102381Y-14902990D02*
X29026190Y-14864895D01*
X29026190Y-14864895D02*
X28873809Y-14864895D01*
X28873809Y-14864895D02*
X28797619Y-14902990D01*
X28797619Y-14902990D02*
X28759524Y-14941085D01*
X28759524Y-14941085D02*
X28721428Y-15017276D01*
X28721428Y-15017276D02*
X28721428Y-15207752D01*
X28721428Y-15207752D02*
X28759524Y-15283942D01*
X28759524Y-15283942D02*
X28797619Y-15322038D01*
X28797619Y-15322038D02*
X28873809Y-15360133D01*
X28873809Y-15360133D02*
X29026190Y-15360133D01*
X29026190Y-15360133D02*
X29102381Y-15322038D01*
X29102381Y-15322038D02*
X29140476Y-15283942D01*
X29140476Y-15283942D02*
X29178571Y-15207752D01*
X16466667Y-28164895D02*
X16200000Y-27783942D01*
X16009524Y-28164895D02*
X16009524Y-27364895D01*
X16009524Y-27364895D02*
X16314286Y-27364895D01*
X16314286Y-27364895D02*
X16390476Y-27402990D01*
X16390476Y-27402990D02*
X16428571Y-27441085D01*
X16428571Y-27441085D02*
X16466667Y-27517276D01*
X16466667Y-27517276D02*
X16466667Y-27631561D01*
X16466667Y-27631561D02*
X16428571Y-27707752D01*
X16428571Y-27707752D02*
X16390476Y-27745847D01*
X16390476Y-27745847D02*
X16314286Y-27783942D01*
X16314286Y-27783942D02*
X16009524Y-27783942D01*
X16847619Y-28164895D02*
X17000000Y-28164895D01*
X17000000Y-28164895D02*
X17076190Y-28126800D01*
X17076190Y-28126800D02*
X17114286Y-28088704D01*
X17114286Y-28088704D02*
X17190476Y-27974419D01*
X17190476Y-27974419D02*
X17228571Y-27822038D01*
X17228571Y-27822038D02*
X17228571Y-27517276D01*
X17228571Y-27517276D02*
X17190476Y-27441085D01*
X17190476Y-27441085D02*
X17152381Y-27402990D01*
X17152381Y-27402990D02*
X17076190Y-27364895D01*
X17076190Y-27364895D02*
X16923809Y-27364895D01*
X16923809Y-27364895D02*
X16847619Y-27402990D01*
X16847619Y-27402990D02*
X16809524Y-27441085D01*
X16809524Y-27441085D02*
X16771428Y-27517276D01*
X16771428Y-27517276D02*
X16771428Y-27707752D01*
X16771428Y-27707752D02*
X16809524Y-27783942D01*
X16809524Y-27783942D02*
X16847619Y-27822038D01*
X16847619Y-27822038D02*
X16923809Y-27860133D01*
X16923809Y-27860133D02*
X17076190Y-27860133D01*
X17076190Y-27860133D02*
X17152381Y-27822038D01*
X17152381Y-27822038D02*
X17190476Y-27783942D01*
X17190476Y-27783942D02*
X17228571Y-27707752D01*
X35685714Y-34514895D02*
X35419047Y-34133942D01*
X35228571Y-34514895D02*
X35228571Y-33714895D01*
X35228571Y-33714895D02*
X35533333Y-33714895D01*
X35533333Y-33714895D02*
X35609523Y-33752990D01*
X35609523Y-33752990D02*
X35647618Y-33791085D01*
X35647618Y-33791085D02*
X35685714Y-33867276D01*
X35685714Y-33867276D02*
X35685714Y-33981561D01*
X35685714Y-33981561D02*
X35647618Y-34057752D01*
X35647618Y-34057752D02*
X35609523Y-34095847D01*
X35609523Y-34095847D02*
X35533333Y-34133942D01*
X35533333Y-34133942D02*
X35228571Y-34133942D01*
X36371428Y-33714895D02*
X36219047Y-33714895D01*
X36219047Y-33714895D02*
X36142856Y-33752990D01*
X36142856Y-33752990D02*
X36104761Y-33791085D01*
X36104761Y-33791085D02*
X36028571Y-33905371D01*
X36028571Y-33905371D02*
X35990475Y-34057752D01*
X35990475Y-34057752D02*
X35990475Y-34362514D01*
X35990475Y-34362514D02*
X36028571Y-34438704D01*
X36028571Y-34438704D02*
X36066666Y-34476800D01*
X36066666Y-34476800D02*
X36142856Y-34514895D01*
X36142856Y-34514895D02*
X36295237Y-34514895D01*
X36295237Y-34514895D02*
X36371428Y-34476800D01*
X36371428Y-34476800D02*
X36409523Y-34438704D01*
X36409523Y-34438704D02*
X36447618Y-34362514D01*
X36447618Y-34362514D02*
X36447618Y-34172038D01*
X36447618Y-34172038D02*
X36409523Y-34095847D01*
X36409523Y-34095847D02*
X36371428Y-34057752D01*
X36371428Y-34057752D02*
X36295237Y-34019657D01*
X36295237Y-34019657D02*
X36142856Y-34019657D01*
X36142856Y-34019657D02*
X36066666Y-34057752D01*
X36066666Y-34057752D02*
X36028571Y-34095847D01*
X36028571Y-34095847D02*
X35990475Y-34172038D01*
X37209523Y-34514895D02*
X36752380Y-34514895D01*
X36980952Y-34514895D02*
X36980952Y-33714895D01*
X36980952Y-33714895D02*
X36904761Y-33829180D01*
X36904761Y-33829180D02*
X36828571Y-33905371D01*
X36828571Y-33905371D02*
X36752380Y-33943466D01*
X41885714Y-2264895D02*
X41619047Y-1883942D01*
X41428571Y-2264895D02*
X41428571Y-1464895D01*
X41428571Y-1464895D02*
X41733333Y-1464895D01*
X41733333Y-1464895D02*
X41809523Y-1502990D01*
X41809523Y-1502990D02*
X41847618Y-1541085D01*
X41847618Y-1541085D02*
X41885714Y-1617276D01*
X41885714Y-1617276D02*
X41885714Y-1731561D01*
X41885714Y-1731561D02*
X41847618Y-1807752D01*
X41847618Y-1807752D02*
X41809523Y-1845847D01*
X41809523Y-1845847D02*
X41733333Y-1883942D01*
X41733333Y-1883942D02*
X41428571Y-1883942D01*
X42647618Y-2264895D02*
X42190475Y-2264895D01*
X42419047Y-2264895D02*
X42419047Y-1464895D01*
X42419047Y-1464895D02*
X42342856Y-1579180D01*
X42342856Y-1579180D02*
X42266666Y-1655371D01*
X42266666Y-1655371D02*
X42190475Y-1693466D01*
X42952380Y-1541085D02*
X42990476Y-1502990D01*
X42990476Y-1502990D02*
X43066666Y-1464895D01*
X43066666Y-1464895D02*
X43257142Y-1464895D01*
X43257142Y-1464895D02*
X43333333Y-1502990D01*
X43333333Y-1502990D02*
X43371428Y-1541085D01*
X43371428Y-1541085D02*
X43409523Y-1617276D01*
X43409523Y-1617276D02*
X43409523Y-1693466D01*
X43409523Y-1693466D02*
X43371428Y-1807752D01*
X43371428Y-1807752D02*
X42914285Y-2264895D01*
X42914285Y-2264895D02*
X43409523Y-2264895D01*
X38485714Y-38014895D02*
X38219047Y-37633942D01*
X38028571Y-38014895D02*
X38028571Y-37214895D01*
X38028571Y-37214895D02*
X38333333Y-37214895D01*
X38333333Y-37214895D02*
X38409523Y-37252990D01*
X38409523Y-37252990D02*
X38447618Y-37291085D01*
X38447618Y-37291085D02*
X38485714Y-37367276D01*
X38485714Y-37367276D02*
X38485714Y-37481561D01*
X38485714Y-37481561D02*
X38447618Y-37557752D01*
X38447618Y-37557752D02*
X38409523Y-37595847D01*
X38409523Y-37595847D02*
X38333333Y-37633942D01*
X38333333Y-37633942D02*
X38028571Y-37633942D01*
X39171428Y-37214895D02*
X39019047Y-37214895D01*
X39019047Y-37214895D02*
X38942856Y-37252990D01*
X38942856Y-37252990D02*
X38904761Y-37291085D01*
X38904761Y-37291085D02*
X38828571Y-37405371D01*
X38828571Y-37405371D02*
X38790475Y-37557752D01*
X38790475Y-37557752D02*
X38790475Y-37862514D01*
X38790475Y-37862514D02*
X38828571Y-37938704D01*
X38828571Y-37938704D02*
X38866666Y-37976800D01*
X38866666Y-37976800D02*
X38942856Y-38014895D01*
X38942856Y-38014895D02*
X39095237Y-38014895D01*
X39095237Y-38014895D02*
X39171428Y-37976800D01*
X39171428Y-37976800D02*
X39209523Y-37938704D01*
X39209523Y-37938704D02*
X39247618Y-37862514D01*
X39247618Y-37862514D02*
X39247618Y-37672038D01*
X39247618Y-37672038D02*
X39209523Y-37595847D01*
X39209523Y-37595847D02*
X39171428Y-37557752D01*
X39171428Y-37557752D02*
X39095237Y-37519657D01*
X39095237Y-37519657D02*
X38942856Y-37519657D01*
X38942856Y-37519657D02*
X38866666Y-37557752D01*
X38866666Y-37557752D02*
X38828571Y-37595847D01*
X38828571Y-37595847D02*
X38790475Y-37672038D01*
X39933333Y-37481561D02*
X39933333Y-38014895D01*
X39742857Y-37176800D02*
X39552380Y-37748228D01*
X39552380Y-37748228D02*
X40047619Y-37748228D01*
X20435714Y-39014895D02*
X20169047Y-38633942D01*
X19978571Y-39014895D02*
X19978571Y-38214895D01*
X19978571Y-38214895D02*
X20283333Y-38214895D01*
X20283333Y-38214895D02*
X20359523Y-38252990D01*
X20359523Y-38252990D02*
X20397618Y-38291085D01*
X20397618Y-38291085D02*
X20435714Y-38367276D01*
X20435714Y-38367276D02*
X20435714Y-38481561D01*
X20435714Y-38481561D02*
X20397618Y-38557752D01*
X20397618Y-38557752D02*
X20359523Y-38595847D01*
X20359523Y-38595847D02*
X20283333Y-38633942D01*
X20283333Y-38633942D02*
X19978571Y-38633942D01*
X21159523Y-38214895D02*
X20778571Y-38214895D01*
X20778571Y-38214895D02*
X20740475Y-38595847D01*
X20740475Y-38595847D02*
X20778571Y-38557752D01*
X20778571Y-38557752D02*
X20854761Y-38519657D01*
X20854761Y-38519657D02*
X21045237Y-38519657D01*
X21045237Y-38519657D02*
X21121428Y-38557752D01*
X21121428Y-38557752D02*
X21159523Y-38595847D01*
X21159523Y-38595847D02*
X21197618Y-38672038D01*
X21197618Y-38672038D02*
X21197618Y-38862514D01*
X21197618Y-38862514D02*
X21159523Y-38938704D01*
X21159523Y-38938704D02*
X21121428Y-38976800D01*
X21121428Y-38976800D02*
X21045237Y-39014895D01*
X21045237Y-39014895D02*
X20854761Y-39014895D01*
X20854761Y-39014895D02*
X20778571Y-38976800D01*
X20778571Y-38976800D02*
X20740475Y-38938704D01*
X21464285Y-38214895D02*
X21959523Y-38214895D01*
X21959523Y-38214895D02*
X21692857Y-38519657D01*
X21692857Y-38519657D02*
X21807142Y-38519657D01*
X21807142Y-38519657D02*
X21883333Y-38557752D01*
X21883333Y-38557752D02*
X21921428Y-38595847D01*
X21921428Y-38595847D02*
X21959523Y-38672038D01*
X21959523Y-38672038D02*
X21959523Y-38862514D01*
X21959523Y-38862514D02*
X21921428Y-38938704D01*
X21921428Y-38938704D02*
X21883333Y-38976800D01*
X21883333Y-38976800D02*
X21807142Y-39014895D01*
X21807142Y-39014895D02*
X21578571Y-39014895D01*
X21578571Y-39014895D02*
X21502380Y-38976800D01*
X21502380Y-38976800D02*
X21464285Y-38938704D01*
X21116666Y-15464895D02*
X20735714Y-15464895D01*
X20735714Y-15464895D02*
X20735714Y-14664895D01*
X21345237Y-14741085D02*
X21383333Y-14702990D01*
X21383333Y-14702990D02*
X21459523Y-14664895D01*
X21459523Y-14664895D02*
X21649999Y-14664895D01*
X21649999Y-14664895D02*
X21726190Y-14702990D01*
X21726190Y-14702990D02*
X21764285Y-14741085D01*
X21764285Y-14741085D02*
X21802380Y-14817276D01*
X21802380Y-14817276D02*
X21802380Y-14893466D01*
X21802380Y-14893466D02*
X21764285Y-15007752D01*
X21764285Y-15007752D02*
X21307142Y-15464895D01*
X21307142Y-15464895D02*
X21802380Y-15464895D01*
X32535713Y-38664895D02*
X32269046Y-38283942D01*
X32078570Y-38664895D02*
X32078570Y-37864895D01*
X32078570Y-37864895D02*
X32383332Y-37864895D01*
X32383332Y-37864895D02*
X32459522Y-37902990D01*
X32459522Y-37902990D02*
X32497617Y-37941085D01*
X32497617Y-37941085D02*
X32535713Y-38017276D01*
X32535713Y-38017276D02*
X32535713Y-38131561D01*
X32535713Y-38131561D02*
X32497617Y-38207752D01*
X32497617Y-38207752D02*
X32459522Y-38245847D01*
X32459522Y-38245847D02*
X32383332Y-38283942D01*
X32383332Y-38283942D02*
X32078570Y-38283942D01*
X33259522Y-37864895D02*
X32878570Y-37864895D01*
X32878570Y-37864895D02*
X32840474Y-38245847D01*
X32840474Y-38245847D02*
X32878570Y-38207752D01*
X32878570Y-38207752D02*
X32954760Y-38169657D01*
X32954760Y-38169657D02*
X33145236Y-38169657D01*
X33145236Y-38169657D02*
X33221427Y-38207752D01*
X33221427Y-38207752D02*
X33259522Y-38245847D01*
X33259522Y-38245847D02*
X33297617Y-38322038D01*
X33297617Y-38322038D02*
X33297617Y-38512514D01*
X33297617Y-38512514D02*
X33259522Y-38588704D01*
X33259522Y-38588704D02*
X33221427Y-38626800D01*
X33221427Y-38626800D02*
X33145236Y-38664895D01*
X33145236Y-38664895D02*
X32954760Y-38664895D01*
X32954760Y-38664895D02*
X32878570Y-38626800D01*
X32878570Y-38626800D02*
X32840474Y-38588704D01*
X33983332Y-38131561D02*
X33983332Y-38664895D01*
X33792856Y-37826800D02*
X33602379Y-38398228D01*
X33602379Y-38398228D02*
X34097618Y-38398228D01*
X44623809Y-2091085D02*
X44547619Y-2052990D01*
X44547619Y-2052990D02*
X44471428Y-1976800D01*
X44471428Y-1976800D02*
X44357142Y-1862514D01*
X44357142Y-1862514D02*
X44280952Y-1824419D01*
X44280952Y-1824419D02*
X44204761Y-1824419D01*
X44242857Y-2014895D02*
X44166666Y-1976800D01*
X44166666Y-1976800D02*
X44090476Y-1900609D01*
X44090476Y-1900609D02*
X44052380Y-1748228D01*
X44052380Y-1748228D02*
X44052380Y-1481561D01*
X44052380Y-1481561D02*
X44090476Y-1329180D01*
X44090476Y-1329180D02*
X44166666Y-1252990D01*
X44166666Y-1252990D02*
X44242857Y-1214895D01*
X44242857Y-1214895D02*
X44395238Y-1214895D01*
X44395238Y-1214895D02*
X44471428Y-1252990D01*
X44471428Y-1252990D02*
X44547619Y-1329180D01*
X44547619Y-1329180D02*
X44585714Y-1481561D01*
X44585714Y-1481561D02*
X44585714Y-1748228D01*
X44585714Y-1748228D02*
X44547619Y-1900609D01*
X44547619Y-1900609D02*
X44471428Y-1976800D01*
X44471428Y-1976800D02*
X44395238Y-2014895D01*
X44395238Y-2014895D02*
X44242857Y-2014895D01*
X45309523Y-1214895D02*
X44928571Y-1214895D01*
X44928571Y-1214895D02*
X44890475Y-1595847D01*
X44890475Y-1595847D02*
X44928571Y-1557752D01*
X44928571Y-1557752D02*
X45004761Y-1519657D01*
X45004761Y-1519657D02*
X45195237Y-1519657D01*
X45195237Y-1519657D02*
X45271428Y-1557752D01*
X45271428Y-1557752D02*
X45309523Y-1595847D01*
X45309523Y-1595847D02*
X45347618Y-1672038D01*
X45347618Y-1672038D02*
X45347618Y-1862514D01*
X45347618Y-1862514D02*
X45309523Y-1938704D01*
X45309523Y-1938704D02*
X45271428Y-1976800D01*
X45271428Y-1976800D02*
X45195237Y-2014895D01*
X45195237Y-2014895D02*
X45004761Y-2014895D01*
X45004761Y-2014895D02*
X44928571Y-1976800D01*
X44928571Y-1976800D02*
X44890475Y-1938704D01*
X13835714Y-23264895D02*
X13569047Y-22883942D01*
X13378571Y-23264895D02*
X13378571Y-22464895D01*
X13378571Y-22464895D02*
X13683333Y-22464895D01*
X13683333Y-22464895D02*
X13759523Y-22502990D01*
X13759523Y-22502990D02*
X13797618Y-22541085D01*
X13797618Y-22541085D02*
X13835714Y-22617276D01*
X13835714Y-22617276D02*
X13835714Y-22731561D01*
X13835714Y-22731561D02*
X13797618Y-22807752D01*
X13797618Y-22807752D02*
X13759523Y-22845847D01*
X13759523Y-22845847D02*
X13683333Y-22883942D01*
X13683333Y-22883942D02*
X13378571Y-22883942D01*
X14140475Y-22541085D02*
X14178571Y-22502990D01*
X14178571Y-22502990D02*
X14254761Y-22464895D01*
X14254761Y-22464895D02*
X14445237Y-22464895D01*
X14445237Y-22464895D02*
X14521428Y-22502990D01*
X14521428Y-22502990D02*
X14559523Y-22541085D01*
X14559523Y-22541085D02*
X14597618Y-22617276D01*
X14597618Y-22617276D02*
X14597618Y-22693466D01*
X14597618Y-22693466D02*
X14559523Y-22807752D01*
X14559523Y-22807752D02*
X14102380Y-23264895D01*
X14102380Y-23264895D02*
X14597618Y-23264895D01*
X15092857Y-22464895D02*
X15169047Y-22464895D01*
X15169047Y-22464895D02*
X15245238Y-22502990D01*
X15245238Y-22502990D02*
X15283333Y-22541085D01*
X15283333Y-22541085D02*
X15321428Y-22617276D01*
X15321428Y-22617276D02*
X15359523Y-22769657D01*
X15359523Y-22769657D02*
X15359523Y-22960133D01*
X15359523Y-22960133D02*
X15321428Y-23112514D01*
X15321428Y-23112514D02*
X15283333Y-23188704D01*
X15283333Y-23188704D02*
X15245238Y-23226800D01*
X15245238Y-23226800D02*
X15169047Y-23264895D01*
X15169047Y-23264895D02*
X15092857Y-23264895D01*
X15092857Y-23264895D02*
X15016666Y-23226800D01*
X15016666Y-23226800D02*
X14978571Y-23188704D01*
X14978571Y-23188704D02*
X14940476Y-23112514D01*
X14940476Y-23112514D02*
X14902380Y-22960133D01*
X14902380Y-22960133D02*
X14902380Y-22769657D01*
X14902380Y-22769657D02*
X14940476Y-22617276D01*
X14940476Y-22617276D02*
X14978571Y-22541085D01*
X14978571Y-22541085D02*
X15016666Y-22502990D01*
X15016666Y-22502990D02*
X15092857Y-22464895D01*
X25885714Y-18338704D02*
X25847618Y-18376800D01*
X25847618Y-18376800D02*
X25733333Y-18414895D01*
X25733333Y-18414895D02*
X25657142Y-18414895D01*
X25657142Y-18414895D02*
X25542856Y-18376800D01*
X25542856Y-18376800D02*
X25466666Y-18300609D01*
X25466666Y-18300609D02*
X25428571Y-18224419D01*
X25428571Y-18224419D02*
X25390475Y-18072038D01*
X25390475Y-18072038D02*
X25390475Y-17957752D01*
X25390475Y-17957752D02*
X25428571Y-17805371D01*
X25428571Y-17805371D02*
X25466666Y-17729180D01*
X25466666Y-17729180D02*
X25542856Y-17652990D01*
X25542856Y-17652990D02*
X25657142Y-17614895D01*
X25657142Y-17614895D02*
X25733333Y-17614895D01*
X25733333Y-17614895D02*
X25847618Y-17652990D01*
X25847618Y-17652990D02*
X25885714Y-17691085D01*
X26152380Y-17614895D02*
X26647618Y-17614895D01*
X26647618Y-17614895D02*
X26380952Y-17919657D01*
X26380952Y-17919657D02*
X26495237Y-17919657D01*
X26495237Y-17919657D02*
X26571428Y-17957752D01*
X26571428Y-17957752D02*
X26609523Y-17995847D01*
X26609523Y-17995847D02*
X26647618Y-18072038D01*
X26647618Y-18072038D02*
X26647618Y-18262514D01*
X26647618Y-18262514D02*
X26609523Y-18338704D01*
X26609523Y-18338704D02*
X26571428Y-18376800D01*
X26571428Y-18376800D02*
X26495237Y-18414895D01*
X26495237Y-18414895D02*
X26266666Y-18414895D01*
X26266666Y-18414895D02*
X26190475Y-18376800D01*
X26190475Y-18376800D02*
X26152380Y-18338704D01*
X26952380Y-17691085D02*
X26990476Y-17652990D01*
X26990476Y-17652990D02*
X27066666Y-17614895D01*
X27066666Y-17614895D02*
X27257142Y-17614895D01*
X27257142Y-17614895D02*
X27333333Y-17652990D01*
X27333333Y-17652990D02*
X27371428Y-17691085D01*
X27371428Y-17691085D02*
X27409523Y-17767276D01*
X27409523Y-17767276D02*
X27409523Y-17843466D01*
X27409523Y-17843466D02*
X27371428Y-17957752D01*
X27371428Y-17957752D02*
X26914285Y-18414895D01*
X26914285Y-18414895D02*
X27409523Y-18414895D01*
X43185714Y-27838704D02*
X43147618Y-27876800D01*
X43147618Y-27876800D02*
X43033333Y-27914895D01*
X43033333Y-27914895D02*
X42957142Y-27914895D01*
X42957142Y-27914895D02*
X42842856Y-27876800D01*
X42842856Y-27876800D02*
X42766666Y-27800609D01*
X42766666Y-27800609D02*
X42728571Y-27724419D01*
X42728571Y-27724419D02*
X42690475Y-27572038D01*
X42690475Y-27572038D02*
X42690475Y-27457752D01*
X42690475Y-27457752D02*
X42728571Y-27305371D01*
X42728571Y-27305371D02*
X42766666Y-27229180D01*
X42766666Y-27229180D02*
X42842856Y-27152990D01*
X42842856Y-27152990D02*
X42957142Y-27114895D01*
X42957142Y-27114895D02*
X43033333Y-27114895D01*
X43033333Y-27114895D02*
X43147618Y-27152990D01*
X43147618Y-27152990D02*
X43185714Y-27191085D01*
X43871428Y-27114895D02*
X43719047Y-27114895D01*
X43719047Y-27114895D02*
X43642856Y-27152990D01*
X43642856Y-27152990D02*
X43604761Y-27191085D01*
X43604761Y-27191085D02*
X43528571Y-27305371D01*
X43528571Y-27305371D02*
X43490475Y-27457752D01*
X43490475Y-27457752D02*
X43490475Y-27762514D01*
X43490475Y-27762514D02*
X43528571Y-27838704D01*
X43528571Y-27838704D02*
X43566666Y-27876800D01*
X43566666Y-27876800D02*
X43642856Y-27914895D01*
X43642856Y-27914895D02*
X43795237Y-27914895D01*
X43795237Y-27914895D02*
X43871428Y-27876800D01*
X43871428Y-27876800D02*
X43909523Y-27838704D01*
X43909523Y-27838704D02*
X43947618Y-27762514D01*
X43947618Y-27762514D02*
X43947618Y-27572038D01*
X43947618Y-27572038D02*
X43909523Y-27495847D01*
X43909523Y-27495847D02*
X43871428Y-27457752D01*
X43871428Y-27457752D02*
X43795237Y-27419657D01*
X43795237Y-27419657D02*
X43642856Y-27419657D01*
X43642856Y-27419657D02*
X43566666Y-27457752D01*
X43566666Y-27457752D02*
X43528571Y-27495847D01*
X43528571Y-27495847D02*
X43490475Y-27572038D01*
X44442857Y-27114895D02*
X44519047Y-27114895D01*
X44519047Y-27114895D02*
X44595238Y-27152990D01*
X44595238Y-27152990D02*
X44633333Y-27191085D01*
X44633333Y-27191085D02*
X44671428Y-27267276D01*
X44671428Y-27267276D02*
X44709523Y-27419657D01*
X44709523Y-27419657D02*
X44709523Y-27610133D01*
X44709523Y-27610133D02*
X44671428Y-27762514D01*
X44671428Y-27762514D02*
X44633333Y-27838704D01*
X44633333Y-27838704D02*
X44595238Y-27876800D01*
X44595238Y-27876800D02*
X44519047Y-27914895D01*
X44519047Y-27914895D02*
X44442857Y-27914895D01*
X44442857Y-27914895D02*
X44366666Y-27876800D01*
X44366666Y-27876800D02*
X44328571Y-27838704D01*
X44328571Y-27838704D02*
X44290476Y-27762514D01*
X44290476Y-27762514D02*
X44252380Y-27610133D01*
X44252380Y-27610133D02*
X44252380Y-27419657D01*
X44252380Y-27419657D02*
X44290476Y-27267276D01*
X44290476Y-27267276D02*
X44328571Y-27191085D01*
X44328571Y-27191085D02*
X44366666Y-27152990D01*
X44366666Y-27152990D02*
X44442857Y-27114895D01*
X12635714Y-16064895D02*
X12369047Y-15683942D01*
X12178571Y-16064895D02*
X12178571Y-15264895D01*
X12178571Y-15264895D02*
X12483333Y-15264895D01*
X12483333Y-15264895D02*
X12559523Y-15302990D01*
X12559523Y-15302990D02*
X12597618Y-15341085D01*
X12597618Y-15341085D02*
X12635714Y-15417276D01*
X12635714Y-15417276D02*
X12635714Y-15531561D01*
X12635714Y-15531561D02*
X12597618Y-15607752D01*
X12597618Y-15607752D02*
X12559523Y-15645847D01*
X12559523Y-15645847D02*
X12483333Y-15683942D01*
X12483333Y-15683942D02*
X12178571Y-15683942D01*
X12902380Y-15264895D02*
X13435714Y-15264895D01*
X13435714Y-15264895D02*
X13092856Y-16064895D01*
X13702380Y-15341085D02*
X13740476Y-15302990D01*
X13740476Y-15302990D02*
X13816666Y-15264895D01*
X13816666Y-15264895D02*
X14007142Y-15264895D01*
X14007142Y-15264895D02*
X14083333Y-15302990D01*
X14083333Y-15302990D02*
X14121428Y-15341085D01*
X14121428Y-15341085D02*
X14159523Y-15417276D01*
X14159523Y-15417276D02*
X14159523Y-15493466D01*
X14159523Y-15493466D02*
X14121428Y-15607752D01*
X14121428Y-15607752D02*
X13664285Y-16064895D01*
X13664285Y-16064895D02*
X14159523Y-16064895D01*
X44933332Y-5376800D02*
X45047618Y-5414895D01*
X45047618Y-5414895D02*
X45238094Y-5414895D01*
X45238094Y-5414895D02*
X45314285Y-5376800D01*
X45314285Y-5376800D02*
X45352380Y-5338704D01*
X45352380Y-5338704D02*
X45390475Y-5262514D01*
X45390475Y-5262514D02*
X45390475Y-5186323D01*
X45390475Y-5186323D02*
X45352380Y-5110133D01*
X45352380Y-5110133D02*
X45314285Y-5072038D01*
X45314285Y-5072038D02*
X45238094Y-5033942D01*
X45238094Y-5033942D02*
X45085713Y-4995847D01*
X45085713Y-4995847D02*
X45009523Y-4957752D01*
X45009523Y-4957752D02*
X44971428Y-4919657D01*
X44971428Y-4919657D02*
X44933332Y-4843466D01*
X44933332Y-4843466D02*
X44933332Y-4767276D01*
X44933332Y-4767276D02*
X44971428Y-4691085D01*
X44971428Y-4691085D02*
X45009523Y-4652990D01*
X45009523Y-4652990D02*
X45085713Y-4614895D01*
X45085713Y-4614895D02*
X45276190Y-4614895D01*
X45276190Y-4614895D02*
X45390475Y-4652990D01*
X45657142Y-4614895D02*
X45847618Y-5414895D01*
X45847618Y-5414895D02*
X45999999Y-4843466D01*
X45999999Y-4843466D02*
X46152380Y-5414895D01*
X46152380Y-5414895D02*
X46342857Y-4614895D01*
X47066666Y-5414895D02*
X46609523Y-5414895D01*
X46838095Y-5414895D02*
X46838095Y-4614895D01*
X46838095Y-4614895D02*
X46761904Y-4729180D01*
X46761904Y-4729180D02*
X46685714Y-4805371D01*
X46685714Y-4805371D02*
X46609523Y-4843466D01*
X10423809Y-28941085D02*
X10347619Y-28902990D01*
X10347619Y-28902990D02*
X10271428Y-28826800D01*
X10271428Y-28826800D02*
X10157142Y-28712514D01*
X10157142Y-28712514D02*
X10080952Y-28674419D01*
X10080952Y-28674419D02*
X10004761Y-28674419D01*
X10042857Y-28864895D02*
X9966666Y-28826800D01*
X9966666Y-28826800D02*
X9890476Y-28750609D01*
X9890476Y-28750609D02*
X9852380Y-28598228D01*
X9852380Y-28598228D02*
X9852380Y-28331561D01*
X9852380Y-28331561D02*
X9890476Y-28179180D01*
X9890476Y-28179180D02*
X9966666Y-28102990D01*
X9966666Y-28102990D02*
X10042857Y-28064895D01*
X10042857Y-28064895D02*
X10195238Y-28064895D01*
X10195238Y-28064895D02*
X10271428Y-28102990D01*
X10271428Y-28102990D02*
X10347619Y-28179180D01*
X10347619Y-28179180D02*
X10385714Y-28331561D01*
X10385714Y-28331561D02*
X10385714Y-28598228D01*
X10385714Y-28598228D02*
X10347619Y-28750609D01*
X10347619Y-28750609D02*
X10271428Y-28826800D01*
X10271428Y-28826800D02*
X10195238Y-28864895D01*
X10195238Y-28864895D02*
X10042857Y-28864895D01*
X10690475Y-28141085D02*
X10728571Y-28102990D01*
X10728571Y-28102990D02*
X10804761Y-28064895D01*
X10804761Y-28064895D02*
X10995237Y-28064895D01*
X10995237Y-28064895D02*
X11071428Y-28102990D01*
X11071428Y-28102990D02*
X11109523Y-28141085D01*
X11109523Y-28141085D02*
X11147618Y-28217276D01*
X11147618Y-28217276D02*
X11147618Y-28293466D01*
X11147618Y-28293466D02*
X11109523Y-28407752D01*
X11109523Y-28407752D02*
X10652380Y-28864895D01*
X10652380Y-28864895D02*
X11147618Y-28864895D01*
X10885713Y-18338704D02*
X10847617Y-18376800D01*
X10847617Y-18376800D02*
X10733332Y-18414895D01*
X10733332Y-18414895D02*
X10657141Y-18414895D01*
X10657141Y-18414895D02*
X10542855Y-18376800D01*
X10542855Y-18376800D02*
X10466665Y-18300609D01*
X10466665Y-18300609D02*
X10428570Y-18224419D01*
X10428570Y-18224419D02*
X10390474Y-18072038D01*
X10390474Y-18072038D02*
X10390474Y-17957752D01*
X10390474Y-17957752D02*
X10428570Y-17805371D01*
X10428570Y-17805371D02*
X10466665Y-17729180D01*
X10466665Y-17729180D02*
X10542855Y-17652990D01*
X10542855Y-17652990D02*
X10657141Y-17614895D01*
X10657141Y-17614895D02*
X10733332Y-17614895D01*
X10733332Y-17614895D02*
X10847617Y-17652990D01*
X10847617Y-17652990D02*
X10885713Y-17691085D01*
X11190474Y-17691085D02*
X11228570Y-17652990D01*
X11228570Y-17652990D02*
X11304760Y-17614895D01*
X11304760Y-17614895D02*
X11495236Y-17614895D01*
X11495236Y-17614895D02*
X11571427Y-17652990D01*
X11571427Y-17652990D02*
X11609522Y-17691085D01*
X11609522Y-17691085D02*
X11647617Y-17767276D01*
X11647617Y-17767276D02*
X11647617Y-17843466D01*
X11647617Y-17843466D02*
X11609522Y-17957752D01*
X11609522Y-17957752D02*
X11152379Y-18414895D01*
X11152379Y-18414895D02*
X11647617Y-18414895D01*
X11952379Y-17691085D02*
X11990475Y-17652990D01*
X11990475Y-17652990D02*
X12066665Y-17614895D01*
X12066665Y-17614895D02*
X12257141Y-17614895D01*
X12257141Y-17614895D02*
X12333332Y-17652990D01*
X12333332Y-17652990D02*
X12371427Y-17691085D01*
X12371427Y-17691085D02*
X12409522Y-17767276D01*
X12409522Y-17767276D02*
X12409522Y-17843466D01*
X12409522Y-17843466D02*
X12371427Y-17957752D01*
X12371427Y-17957752D02*
X11914284Y-18414895D01*
X11914284Y-18414895D02*
X12409522Y-18414895D01*
X22009524Y-2314895D02*
X22009524Y-2962514D01*
X22009524Y-2962514D02*
X22047619Y-3038704D01*
X22047619Y-3038704D02*
X22085714Y-3076800D01*
X22085714Y-3076800D02*
X22161905Y-3114895D01*
X22161905Y-3114895D02*
X22314286Y-3114895D01*
X22314286Y-3114895D02*
X22390476Y-3076800D01*
X22390476Y-3076800D02*
X22428571Y-3038704D01*
X22428571Y-3038704D02*
X22466667Y-2962514D01*
X22466667Y-2962514D02*
X22466667Y-2314895D01*
X23266666Y-3114895D02*
X22809523Y-3114895D01*
X23038095Y-3114895D02*
X23038095Y-2314895D01*
X23038095Y-2314895D02*
X22961904Y-2429180D01*
X22961904Y-2429180D02*
X22885714Y-2505371D01*
X22885714Y-2505371D02*
X22809523Y-2543466D01*
X23533333Y-2314895D02*
X24028571Y-2314895D01*
X24028571Y-2314895D02*
X23761905Y-2619657D01*
X23761905Y-2619657D02*
X23876190Y-2619657D01*
X23876190Y-2619657D02*
X23952381Y-2657752D01*
X23952381Y-2657752D02*
X23990476Y-2695847D01*
X23990476Y-2695847D02*
X24028571Y-2772038D01*
X24028571Y-2772038D02*
X24028571Y-2962514D01*
X24028571Y-2962514D02*
X23990476Y-3038704D01*
X23990476Y-3038704D02*
X23952381Y-3076800D01*
X23952381Y-3076800D02*
X23876190Y-3114895D01*
X23876190Y-3114895D02*
X23647619Y-3114895D01*
X23647619Y-3114895D02*
X23571428Y-3076800D01*
X23571428Y-3076800D02*
X23533333Y-3038704D01*
X26390476Y-30114895D02*
X26390476Y-30762514D01*
X26390476Y-30762514D02*
X26428571Y-30838704D01*
X26428571Y-30838704D02*
X26466666Y-30876800D01*
X26466666Y-30876800D02*
X26542857Y-30914895D01*
X26542857Y-30914895D02*
X26695238Y-30914895D01*
X26695238Y-30914895D02*
X26771428Y-30876800D01*
X26771428Y-30876800D02*
X26809523Y-30838704D01*
X26809523Y-30838704D02*
X26847619Y-30762514D01*
X26847619Y-30762514D02*
X26847619Y-30114895D01*
X27266666Y-30914895D02*
X27419047Y-30914895D01*
X27419047Y-30914895D02*
X27495237Y-30876800D01*
X27495237Y-30876800D02*
X27533333Y-30838704D01*
X27533333Y-30838704D02*
X27609523Y-30724419D01*
X27609523Y-30724419D02*
X27647618Y-30572038D01*
X27647618Y-30572038D02*
X27647618Y-30267276D01*
X27647618Y-30267276D02*
X27609523Y-30191085D01*
X27609523Y-30191085D02*
X27571428Y-30152990D01*
X27571428Y-30152990D02*
X27495237Y-30114895D01*
X27495237Y-30114895D02*
X27342856Y-30114895D01*
X27342856Y-30114895D02*
X27266666Y-30152990D01*
X27266666Y-30152990D02*
X27228571Y-30191085D01*
X27228571Y-30191085D02*
X27190475Y-30267276D01*
X27190475Y-30267276D02*
X27190475Y-30457752D01*
X27190475Y-30457752D02*
X27228571Y-30533942D01*
X27228571Y-30533942D02*
X27266666Y-30572038D01*
X27266666Y-30572038D02*
X27342856Y-30610133D01*
X27342856Y-30610133D02*
X27495237Y-30610133D01*
X27495237Y-30610133D02*
X27571428Y-30572038D01*
X27571428Y-30572038D02*
X27609523Y-30533942D01*
X27609523Y-30533942D02*
X27647618Y-30457752D01*
X19685714Y-26088704D02*
X19647618Y-26126800D01*
X19647618Y-26126800D02*
X19533333Y-26164895D01*
X19533333Y-26164895D02*
X19457142Y-26164895D01*
X19457142Y-26164895D02*
X19342856Y-26126800D01*
X19342856Y-26126800D02*
X19266666Y-26050609D01*
X19266666Y-26050609D02*
X19228571Y-25974419D01*
X19228571Y-25974419D02*
X19190475Y-25822038D01*
X19190475Y-25822038D02*
X19190475Y-25707752D01*
X19190475Y-25707752D02*
X19228571Y-25555371D01*
X19228571Y-25555371D02*
X19266666Y-25479180D01*
X19266666Y-25479180D02*
X19342856Y-25402990D01*
X19342856Y-25402990D02*
X19457142Y-25364895D01*
X19457142Y-25364895D02*
X19533333Y-25364895D01*
X19533333Y-25364895D02*
X19647618Y-25402990D01*
X19647618Y-25402990D02*
X19685714Y-25441085D01*
X19952380Y-25364895D02*
X20447618Y-25364895D01*
X20447618Y-25364895D02*
X20180952Y-25669657D01*
X20180952Y-25669657D02*
X20295237Y-25669657D01*
X20295237Y-25669657D02*
X20371428Y-25707752D01*
X20371428Y-25707752D02*
X20409523Y-25745847D01*
X20409523Y-25745847D02*
X20447618Y-25822038D01*
X20447618Y-25822038D02*
X20447618Y-26012514D01*
X20447618Y-26012514D02*
X20409523Y-26088704D01*
X20409523Y-26088704D02*
X20371428Y-26126800D01*
X20371428Y-26126800D02*
X20295237Y-26164895D01*
X20295237Y-26164895D02*
X20066666Y-26164895D01*
X20066666Y-26164895D02*
X19990475Y-26126800D01*
X19990475Y-26126800D02*
X19952380Y-26088704D01*
X21171428Y-25364895D02*
X20790476Y-25364895D01*
X20790476Y-25364895D02*
X20752380Y-25745847D01*
X20752380Y-25745847D02*
X20790476Y-25707752D01*
X20790476Y-25707752D02*
X20866666Y-25669657D01*
X20866666Y-25669657D02*
X21057142Y-25669657D01*
X21057142Y-25669657D02*
X21133333Y-25707752D01*
X21133333Y-25707752D02*
X21171428Y-25745847D01*
X21171428Y-25745847D02*
X21209523Y-25822038D01*
X21209523Y-25822038D02*
X21209523Y-26012514D01*
X21209523Y-26012514D02*
X21171428Y-26088704D01*
X21171428Y-26088704D02*
X21133333Y-26126800D01*
X21133333Y-26126800D02*
X21057142Y-26164895D01*
X21057142Y-26164895D02*
X20866666Y-26164895D01*
X20866666Y-26164895D02*
X20790476Y-26126800D01*
X20790476Y-26126800D02*
X20752380Y-26088704D01*
X33235714Y-16838704D02*
X33197618Y-16876800D01*
X33197618Y-16876800D02*
X33083333Y-16914895D01*
X33083333Y-16914895D02*
X33007142Y-16914895D01*
X33007142Y-16914895D02*
X32892856Y-16876800D01*
X32892856Y-16876800D02*
X32816666Y-16800609D01*
X32816666Y-16800609D02*
X32778571Y-16724419D01*
X32778571Y-16724419D02*
X32740475Y-16572038D01*
X32740475Y-16572038D02*
X32740475Y-16457752D01*
X32740475Y-16457752D02*
X32778571Y-16305371D01*
X32778571Y-16305371D02*
X32816666Y-16229180D01*
X32816666Y-16229180D02*
X32892856Y-16152990D01*
X32892856Y-16152990D02*
X33007142Y-16114895D01*
X33007142Y-16114895D02*
X33083333Y-16114895D01*
X33083333Y-16114895D02*
X33197618Y-16152990D01*
X33197618Y-16152990D02*
X33235714Y-16191085D01*
X33921428Y-16381561D02*
X33921428Y-16914895D01*
X33730952Y-16076800D02*
X33540475Y-16648228D01*
X33540475Y-16648228D02*
X34035714Y-16648228D01*
X34492857Y-16114895D02*
X34569047Y-16114895D01*
X34569047Y-16114895D02*
X34645238Y-16152990D01*
X34645238Y-16152990D02*
X34683333Y-16191085D01*
X34683333Y-16191085D02*
X34721428Y-16267276D01*
X34721428Y-16267276D02*
X34759523Y-16419657D01*
X34759523Y-16419657D02*
X34759523Y-16610133D01*
X34759523Y-16610133D02*
X34721428Y-16762514D01*
X34721428Y-16762514D02*
X34683333Y-16838704D01*
X34683333Y-16838704D02*
X34645238Y-16876800D01*
X34645238Y-16876800D02*
X34569047Y-16914895D01*
X34569047Y-16914895D02*
X34492857Y-16914895D01*
X34492857Y-16914895D02*
X34416666Y-16876800D01*
X34416666Y-16876800D02*
X34378571Y-16838704D01*
X34378571Y-16838704D02*
X34340476Y-16762514D01*
X34340476Y-16762514D02*
X34302380Y-16610133D01*
X34302380Y-16610133D02*
X34302380Y-16419657D01*
X34302380Y-16419657D02*
X34340476Y-16267276D01*
X34340476Y-16267276D02*
X34378571Y-16191085D01*
X34378571Y-16191085D02*
X34416666Y-16152990D01*
X34416666Y-16152990D02*
X34492857Y-16114895D01*
X26416667Y-15864895D02*
X26150000Y-15483942D01*
X25959524Y-15864895D02*
X25959524Y-15064895D01*
X25959524Y-15064895D02*
X26264286Y-15064895D01*
X26264286Y-15064895D02*
X26340476Y-15102990D01*
X26340476Y-15102990D02*
X26378571Y-15141085D01*
X26378571Y-15141085D02*
X26416667Y-15217276D01*
X26416667Y-15217276D02*
X26416667Y-15331561D01*
X26416667Y-15331561D02*
X26378571Y-15407752D01*
X26378571Y-15407752D02*
X26340476Y-15445847D01*
X26340476Y-15445847D02*
X26264286Y-15483942D01*
X26264286Y-15483942D02*
X25959524Y-15483942D01*
X27102381Y-15331561D02*
X27102381Y-15864895D01*
X26911905Y-15026800D02*
X26721428Y-15598228D01*
X26721428Y-15598228D02*
X27216667Y-15598228D01*
X46685714Y-24764895D02*
X46419047Y-24383942D01*
X46228571Y-24764895D02*
X46228571Y-23964895D01*
X46228571Y-23964895D02*
X46533333Y-23964895D01*
X46533333Y-23964895D02*
X46609523Y-24002990D01*
X46609523Y-24002990D02*
X46647618Y-24041085D01*
X46647618Y-24041085D02*
X46685714Y-24117276D01*
X46685714Y-24117276D02*
X46685714Y-24231561D01*
X46685714Y-24231561D02*
X46647618Y-24307752D01*
X46647618Y-24307752D02*
X46609523Y-24345847D01*
X46609523Y-24345847D02*
X46533333Y-24383942D01*
X46533333Y-24383942D02*
X46228571Y-24383942D01*
X47371428Y-23964895D02*
X47219047Y-23964895D01*
X47219047Y-23964895D02*
X47142856Y-24002990D01*
X47142856Y-24002990D02*
X47104761Y-24041085D01*
X47104761Y-24041085D02*
X47028571Y-24155371D01*
X47028571Y-24155371D02*
X46990475Y-24307752D01*
X46990475Y-24307752D02*
X46990475Y-24612514D01*
X46990475Y-24612514D02*
X47028571Y-24688704D01*
X47028571Y-24688704D02*
X47066666Y-24726800D01*
X47066666Y-24726800D02*
X47142856Y-24764895D01*
X47142856Y-24764895D02*
X47295237Y-24764895D01*
X47295237Y-24764895D02*
X47371428Y-24726800D01*
X47371428Y-24726800D02*
X47409523Y-24688704D01*
X47409523Y-24688704D02*
X47447618Y-24612514D01*
X47447618Y-24612514D02*
X47447618Y-24422038D01*
X47447618Y-24422038D02*
X47409523Y-24345847D01*
X47409523Y-24345847D02*
X47371428Y-24307752D01*
X47371428Y-24307752D02*
X47295237Y-24269657D01*
X47295237Y-24269657D02*
X47142856Y-24269657D01*
X47142856Y-24269657D02*
X47066666Y-24307752D01*
X47066666Y-24307752D02*
X47028571Y-24345847D01*
X47028571Y-24345847D02*
X46990475Y-24422038D01*
X47714285Y-23964895D02*
X48209523Y-23964895D01*
X48209523Y-23964895D02*
X47942857Y-24269657D01*
X47942857Y-24269657D02*
X48057142Y-24269657D01*
X48057142Y-24269657D02*
X48133333Y-24307752D01*
X48133333Y-24307752D02*
X48171428Y-24345847D01*
X48171428Y-24345847D02*
X48209523Y-24422038D01*
X48209523Y-24422038D02*
X48209523Y-24612514D01*
X48209523Y-24612514D02*
X48171428Y-24688704D01*
X48171428Y-24688704D02*
X48133333Y-24726800D01*
X48133333Y-24726800D02*
X48057142Y-24764895D01*
X48057142Y-24764895D02*
X47828571Y-24764895D01*
X47828571Y-24764895D02*
X47752380Y-24726800D01*
X47752380Y-24726800D02*
X47714285Y-24688704D01*
X31366667Y-11238704D02*
X31328571Y-11276800D01*
X31328571Y-11276800D02*
X31214286Y-11314895D01*
X31214286Y-11314895D02*
X31138095Y-11314895D01*
X31138095Y-11314895D02*
X31023809Y-11276800D01*
X31023809Y-11276800D02*
X30947619Y-11200609D01*
X30947619Y-11200609D02*
X30909524Y-11124419D01*
X30909524Y-11124419D02*
X30871428Y-10972038D01*
X30871428Y-10972038D02*
X30871428Y-10857752D01*
X30871428Y-10857752D02*
X30909524Y-10705371D01*
X30909524Y-10705371D02*
X30947619Y-10629180D01*
X30947619Y-10629180D02*
X31023809Y-10552990D01*
X31023809Y-10552990D02*
X31138095Y-10514895D01*
X31138095Y-10514895D02*
X31214286Y-10514895D01*
X31214286Y-10514895D02*
X31328571Y-10552990D01*
X31328571Y-10552990D02*
X31366667Y-10591085D01*
X32052381Y-10781561D02*
X32052381Y-11314895D01*
X31861905Y-10476800D02*
X31671428Y-11048228D01*
X31671428Y-11048228D02*
X32166667Y-11048228D01*
X35685714Y-28164895D02*
X35419047Y-27783942D01*
X35228571Y-28164895D02*
X35228571Y-27364895D01*
X35228571Y-27364895D02*
X35533333Y-27364895D01*
X35533333Y-27364895D02*
X35609523Y-27402990D01*
X35609523Y-27402990D02*
X35647618Y-27441085D01*
X35647618Y-27441085D02*
X35685714Y-27517276D01*
X35685714Y-27517276D02*
X35685714Y-27631561D01*
X35685714Y-27631561D02*
X35647618Y-27707752D01*
X35647618Y-27707752D02*
X35609523Y-27745847D01*
X35609523Y-27745847D02*
X35533333Y-27783942D01*
X35533333Y-27783942D02*
X35228571Y-27783942D01*
X36371428Y-27364895D02*
X36219047Y-27364895D01*
X36219047Y-27364895D02*
X36142856Y-27402990D01*
X36142856Y-27402990D02*
X36104761Y-27441085D01*
X36104761Y-27441085D02*
X36028571Y-27555371D01*
X36028571Y-27555371D02*
X35990475Y-27707752D01*
X35990475Y-27707752D02*
X35990475Y-28012514D01*
X35990475Y-28012514D02*
X36028571Y-28088704D01*
X36028571Y-28088704D02*
X36066666Y-28126800D01*
X36066666Y-28126800D02*
X36142856Y-28164895D01*
X36142856Y-28164895D02*
X36295237Y-28164895D01*
X36295237Y-28164895D02*
X36371428Y-28126800D01*
X36371428Y-28126800D02*
X36409523Y-28088704D01*
X36409523Y-28088704D02*
X36447618Y-28012514D01*
X36447618Y-28012514D02*
X36447618Y-27822038D01*
X36447618Y-27822038D02*
X36409523Y-27745847D01*
X36409523Y-27745847D02*
X36371428Y-27707752D01*
X36371428Y-27707752D02*
X36295237Y-27669657D01*
X36295237Y-27669657D02*
X36142856Y-27669657D01*
X36142856Y-27669657D02*
X36066666Y-27707752D01*
X36066666Y-27707752D02*
X36028571Y-27745847D01*
X36028571Y-27745847D02*
X35990475Y-27822038D01*
X36752380Y-27441085D02*
X36790476Y-27402990D01*
X36790476Y-27402990D02*
X36866666Y-27364895D01*
X36866666Y-27364895D02*
X37057142Y-27364895D01*
X37057142Y-27364895D02*
X37133333Y-27402990D01*
X37133333Y-27402990D02*
X37171428Y-27441085D01*
X37171428Y-27441085D02*
X37209523Y-27517276D01*
X37209523Y-27517276D02*
X37209523Y-27593466D01*
X37209523Y-27593466D02*
X37171428Y-27707752D01*
X37171428Y-27707752D02*
X36714285Y-28164895D01*
X36714285Y-28164895D02*
X37209523Y-28164895D01*
X7866666Y-15464895D02*
X7485714Y-15464895D01*
X7485714Y-15464895D02*
X7485714Y-14664895D01*
X8552380Y-15464895D02*
X8095237Y-15464895D01*
X8323809Y-15464895D02*
X8323809Y-14664895D01*
X8323809Y-14664895D02*
X8247618Y-14779180D01*
X8247618Y-14779180D02*
X8171428Y-14855371D01*
X8171428Y-14855371D02*
X8095237Y-14893466D01*
X40885714Y-18338704D02*
X40847618Y-18376800D01*
X40847618Y-18376800D02*
X40733333Y-18414895D01*
X40733333Y-18414895D02*
X40657142Y-18414895D01*
X40657142Y-18414895D02*
X40542856Y-18376800D01*
X40542856Y-18376800D02*
X40466666Y-18300609D01*
X40466666Y-18300609D02*
X40428571Y-18224419D01*
X40428571Y-18224419D02*
X40390475Y-18072038D01*
X40390475Y-18072038D02*
X40390475Y-17957752D01*
X40390475Y-17957752D02*
X40428571Y-17805371D01*
X40428571Y-17805371D02*
X40466666Y-17729180D01*
X40466666Y-17729180D02*
X40542856Y-17652990D01*
X40542856Y-17652990D02*
X40657142Y-17614895D01*
X40657142Y-17614895D02*
X40733333Y-17614895D01*
X40733333Y-17614895D02*
X40847618Y-17652990D01*
X40847618Y-17652990D02*
X40885714Y-17691085D01*
X41571428Y-17881561D02*
X41571428Y-18414895D01*
X41380952Y-17576800D02*
X41190475Y-18148228D01*
X41190475Y-18148228D02*
X41685714Y-18148228D01*
X41952380Y-17691085D02*
X41990476Y-17652990D01*
X41990476Y-17652990D02*
X42066666Y-17614895D01*
X42066666Y-17614895D02*
X42257142Y-17614895D01*
X42257142Y-17614895D02*
X42333333Y-17652990D01*
X42333333Y-17652990D02*
X42371428Y-17691085D01*
X42371428Y-17691085D02*
X42409523Y-17767276D01*
X42409523Y-17767276D02*
X42409523Y-17843466D01*
X42409523Y-17843466D02*
X42371428Y-17957752D01*
X42371428Y-17957752D02*
X41914285Y-18414895D01*
X41914285Y-18414895D02*
X42409523Y-18414895D01*
X26485714Y-41188704D02*
X26447618Y-41226800D01*
X26447618Y-41226800D02*
X26333333Y-41264895D01*
X26333333Y-41264895D02*
X26257142Y-41264895D01*
X26257142Y-41264895D02*
X26142856Y-41226800D01*
X26142856Y-41226800D02*
X26066666Y-41150609D01*
X26066666Y-41150609D02*
X26028571Y-41074419D01*
X26028571Y-41074419D02*
X25990475Y-40922038D01*
X25990475Y-40922038D02*
X25990475Y-40807752D01*
X25990475Y-40807752D02*
X26028571Y-40655371D01*
X26028571Y-40655371D02*
X26066666Y-40579180D01*
X26066666Y-40579180D02*
X26142856Y-40502990D01*
X26142856Y-40502990D02*
X26257142Y-40464895D01*
X26257142Y-40464895D02*
X26333333Y-40464895D01*
X26333333Y-40464895D02*
X26447618Y-40502990D01*
X26447618Y-40502990D02*
X26485714Y-40541085D01*
X27209523Y-40464895D02*
X26828571Y-40464895D01*
X26828571Y-40464895D02*
X26790475Y-40845847D01*
X26790475Y-40845847D02*
X26828571Y-40807752D01*
X26828571Y-40807752D02*
X26904761Y-40769657D01*
X26904761Y-40769657D02*
X27095237Y-40769657D01*
X27095237Y-40769657D02*
X27171428Y-40807752D01*
X27171428Y-40807752D02*
X27209523Y-40845847D01*
X27209523Y-40845847D02*
X27247618Y-40922038D01*
X27247618Y-40922038D02*
X27247618Y-41112514D01*
X27247618Y-41112514D02*
X27209523Y-41188704D01*
X27209523Y-41188704D02*
X27171428Y-41226800D01*
X27171428Y-41226800D02*
X27095237Y-41264895D01*
X27095237Y-41264895D02*
X26904761Y-41264895D01*
X26904761Y-41264895D02*
X26828571Y-41226800D01*
X26828571Y-41226800D02*
X26790475Y-41188704D01*
X27552380Y-40541085D02*
X27590476Y-40502990D01*
X27590476Y-40502990D02*
X27666666Y-40464895D01*
X27666666Y-40464895D02*
X27857142Y-40464895D01*
X27857142Y-40464895D02*
X27933333Y-40502990D01*
X27933333Y-40502990D02*
X27971428Y-40541085D01*
X27971428Y-40541085D02*
X28009523Y-40617276D01*
X28009523Y-40617276D02*
X28009523Y-40693466D01*
X28009523Y-40693466D02*
X27971428Y-40807752D01*
X27971428Y-40807752D02*
X27514285Y-41264895D01*
X27514285Y-41264895D02*
X28009523Y-41264895D01*
X32835714Y-28114895D02*
X32569047Y-27733942D01*
X32378571Y-28114895D02*
X32378571Y-27314895D01*
X32378571Y-27314895D02*
X32683333Y-27314895D01*
X32683333Y-27314895D02*
X32759523Y-27352990D01*
X32759523Y-27352990D02*
X32797618Y-27391085D01*
X32797618Y-27391085D02*
X32835714Y-27467276D01*
X32835714Y-27467276D02*
X32835714Y-27581561D01*
X32835714Y-27581561D02*
X32797618Y-27657752D01*
X32797618Y-27657752D02*
X32759523Y-27695847D01*
X32759523Y-27695847D02*
X32683333Y-27733942D01*
X32683333Y-27733942D02*
X32378571Y-27733942D01*
X33521428Y-27314895D02*
X33369047Y-27314895D01*
X33369047Y-27314895D02*
X33292856Y-27352990D01*
X33292856Y-27352990D02*
X33254761Y-27391085D01*
X33254761Y-27391085D02*
X33178571Y-27505371D01*
X33178571Y-27505371D02*
X33140475Y-27657752D01*
X33140475Y-27657752D02*
X33140475Y-27962514D01*
X33140475Y-27962514D02*
X33178571Y-28038704D01*
X33178571Y-28038704D02*
X33216666Y-28076800D01*
X33216666Y-28076800D02*
X33292856Y-28114895D01*
X33292856Y-28114895D02*
X33445237Y-28114895D01*
X33445237Y-28114895D02*
X33521428Y-28076800D01*
X33521428Y-28076800D02*
X33559523Y-28038704D01*
X33559523Y-28038704D02*
X33597618Y-27962514D01*
X33597618Y-27962514D02*
X33597618Y-27772038D01*
X33597618Y-27772038D02*
X33559523Y-27695847D01*
X33559523Y-27695847D02*
X33521428Y-27657752D01*
X33521428Y-27657752D02*
X33445237Y-27619657D01*
X33445237Y-27619657D02*
X33292856Y-27619657D01*
X33292856Y-27619657D02*
X33216666Y-27657752D01*
X33216666Y-27657752D02*
X33178571Y-27695847D01*
X33178571Y-27695847D02*
X33140475Y-27772038D01*
X34283333Y-27314895D02*
X34130952Y-27314895D01*
X34130952Y-27314895D02*
X34054761Y-27352990D01*
X34054761Y-27352990D02*
X34016666Y-27391085D01*
X34016666Y-27391085D02*
X33940476Y-27505371D01*
X33940476Y-27505371D02*
X33902380Y-27657752D01*
X33902380Y-27657752D02*
X33902380Y-27962514D01*
X33902380Y-27962514D02*
X33940476Y-28038704D01*
X33940476Y-28038704D02*
X33978571Y-28076800D01*
X33978571Y-28076800D02*
X34054761Y-28114895D01*
X34054761Y-28114895D02*
X34207142Y-28114895D01*
X34207142Y-28114895D02*
X34283333Y-28076800D01*
X34283333Y-28076800D02*
X34321428Y-28038704D01*
X34321428Y-28038704D02*
X34359523Y-27962514D01*
X34359523Y-27962514D02*
X34359523Y-27772038D01*
X34359523Y-27772038D02*
X34321428Y-27695847D01*
X34321428Y-27695847D02*
X34283333Y-27657752D01*
X34283333Y-27657752D02*
X34207142Y-27619657D01*
X34207142Y-27619657D02*
X34054761Y-27619657D01*
X34054761Y-27619657D02*
X33978571Y-27657752D01*
X33978571Y-27657752D02*
X33940476Y-27695847D01*
X33940476Y-27695847D02*
X33902380Y-27772038D01*
X32835714Y-36714895D02*
X32569047Y-36333942D01*
X32378571Y-36714895D02*
X32378571Y-35914895D01*
X32378571Y-35914895D02*
X32683333Y-35914895D01*
X32683333Y-35914895D02*
X32759523Y-35952990D01*
X32759523Y-35952990D02*
X32797618Y-35991085D01*
X32797618Y-35991085D02*
X32835714Y-36067276D01*
X32835714Y-36067276D02*
X32835714Y-36181561D01*
X32835714Y-36181561D02*
X32797618Y-36257752D01*
X32797618Y-36257752D02*
X32759523Y-36295847D01*
X32759523Y-36295847D02*
X32683333Y-36333942D01*
X32683333Y-36333942D02*
X32378571Y-36333942D01*
X33559523Y-35914895D02*
X33178571Y-35914895D01*
X33178571Y-35914895D02*
X33140475Y-36295847D01*
X33140475Y-36295847D02*
X33178571Y-36257752D01*
X33178571Y-36257752D02*
X33254761Y-36219657D01*
X33254761Y-36219657D02*
X33445237Y-36219657D01*
X33445237Y-36219657D02*
X33521428Y-36257752D01*
X33521428Y-36257752D02*
X33559523Y-36295847D01*
X33559523Y-36295847D02*
X33597618Y-36372038D01*
X33597618Y-36372038D02*
X33597618Y-36562514D01*
X33597618Y-36562514D02*
X33559523Y-36638704D01*
X33559523Y-36638704D02*
X33521428Y-36676800D01*
X33521428Y-36676800D02*
X33445237Y-36714895D01*
X33445237Y-36714895D02*
X33254761Y-36714895D01*
X33254761Y-36714895D02*
X33178571Y-36676800D01*
X33178571Y-36676800D02*
X33140475Y-36638704D01*
X34359523Y-36714895D02*
X33902380Y-36714895D01*
X34130952Y-36714895D02*
X34130952Y-35914895D01*
X34130952Y-35914895D02*
X34054761Y-36029180D01*
X34054761Y-36029180D02*
X33978571Y-36105371D01*
X33978571Y-36105371D02*
X33902380Y-36143466D01*
X32835714Y-35038704D02*
X32797618Y-35076800D01*
X32797618Y-35076800D02*
X32683333Y-35114895D01*
X32683333Y-35114895D02*
X32607142Y-35114895D01*
X32607142Y-35114895D02*
X32492856Y-35076800D01*
X32492856Y-35076800D02*
X32416666Y-35000609D01*
X32416666Y-35000609D02*
X32378571Y-34924419D01*
X32378571Y-34924419D02*
X32340475Y-34772038D01*
X32340475Y-34772038D02*
X32340475Y-34657752D01*
X32340475Y-34657752D02*
X32378571Y-34505371D01*
X32378571Y-34505371D02*
X32416666Y-34429180D01*
X32416666Y-34429180D02*
X32492856Y-34352990D01*
X32492856Y-34352990D02*
X32607142Y-34314895D01*
X32607142Y-34314895D02*
X32683333Y-34314895D01*
X32683333Y-34314895D02*
X32797618Y-34352990D01*
X32797618Y-34352990D02*
X32835714Y-34391085D01*
X33559523Y-34314895D02*
X33178571Y-34314895D01*
X33178571Y-34314895D02*
X33140475Y-34695847D01*
X33140475Y-34695847D02*
X33178571Y-34657752D01*
X33178571Y-34657752D02*
X33254761Y-34619657D01*
X33254761Y-34619657D02*
X33445237Y-34619657D01*
X33445237Y-34619657D02*
X33521428Y-34657752D01*
X33521428Y-34657752D02*
X33559523Y-34695847D01*
X33559523Y-34695847D02*
X33597618Y-34772038D01*
X33597618Y-34772038D02*
X33597618Y-34962514D01*
X33597618Y-34962514D02*
X33559523Y-35038704D01*
X33559523Y-35038704D02*
X33521428Y-35076800D01*
X33521428Y-35076800D02*
X33445237Y-35114895D01*
X33445237Y-35114895D02*
X33254761Y-35114895D01*
X33254761Y-35114895D02*
X33178571Y-35076800D01*
X33178571Y-35076800D02*
X33140475Y-35038704D01*
X34283333Y-34581561D02*
X34283333Y-35114895D01*
X34092857Y-34276800D02*
X33902380Y-34848228D01*
X33902380Y-34848228D02*
X34397619Y-34848228D01*
X30435714Y-16788704D02*
X30397618Y-16826800D01*
X30397618Y-16826800D02*
X30283333Y-16864895D01*
X30283333Y-16864895D02*
X30207142Y-16864895D01*
X30207142Y-16864895D02*
X30092856Y-16826800D01*
X30092856Y-16826800D02*
X30016666Y-16750609D01*
X30016666Y-16750609D02*
X29978571Y-16674419D01*
X29978571Y-16674419D02*
X29940475Y-16522038D01*
X29940475Y-16522038D02*
X29940475Y-16407752D01*
X29940475Y-16407752D02*
X29978571Y-16255371D01*
X29978571Y-16255371D02*
X30016666Y-16179180D01*
X30016666Y-16179180D02*
X30092856Y-16102990D01*
X30092856Y-16102990D02*
X30207142Y-16064895D01*
X30207142Y-16064895D02*
X30283333Y-16064895D01*
X30283333Y-16064895D02*
X30397618Y-16102990D01*
X30397618Y-16102990D02*
X30435714Y-16141085D01*
X31121428Y-16331561D02*
X31121428Y-16864895D01*
X30930952Y-16026800D02*
X30740475Y-16598228D01*
X30740475Y-16598228D02*
X31235714Y-16598228D01*
X31959523Y-16864895D02*
X31502380Y-16864895D01*
X31730952Y-16864895D02*
X31730952Y-16064895D01*
X31730952Y-16064895D02*
X31654761Y-16179180D01*
X31654761Y-16179180D02*
X31578571Y-16255371D01*
X31578571Y-16255371D02*
X31502380Y-16293466D01*
X31190476Y-8814895D02*
X31190476Y-9462514D01*
X31190476Y-9462514D02*
X31228571Y-9538704D01*
X31228571Y-9538704D02*
X31266666Y-9576800D01*
X31266666Y-9576800D02*
X31342857Y-9614895D01*
X31342857Y-9614895D02*
X31495238Y-9614895D01*
X31495238Y-9614895D02*
X31571428Y-9576800D01*
X31571428Y-9576800D02*
X31609523Y-9538704D01*
X31609523Y-9538704D02*
X31647619Y-9462514D01*
X31647619Y-9462514D02*
X31647619Y-8814895D01*
X32371428Y-9081561D02*
X32371428Y-9614895D01*
X32180952Y-8776800D02*
X31990475Y-9348228D01*
X31990475Y-9348228D02*
X32485714Y-9348228D01*
X38716667Y-2388704D02*
X38678571Y-2426800D01*
X38678571Y-2426800D02*
X38564286Y-2464895D01*
X38564286Y-2464895D02*
X38488095Y-2464895D01*
X38488095Y-2464895D02*
X38373809Y-2426800D01*
X38373809Y-2426800D02*
X38297619Y-2350609D01*
X38297619Y-2350609D02*
X38259524Y-2274419D01*
X38259524Y-2274419D02*
X38221428Y-2122038D01*
X38221428Y-2122038D02*
X38221428Y-2007752D01*
X38221428Y-2007752D02*
X38259524Y-1855371D01*
X38259524Y-1855371D02*
X38297619Y-1779180D01*
X38297619Y-1779180D02*
X38373809Y-1702990D01*
X38373809Y-1702990D02*
X38488095Y-1664895D01*
X38488095Y-1664895D02*
X38564286Y-1664895D01*
X38564286Y-1664895D02*
X38678571Y-1702990D01*
X38678571Y-1702990D02*
X38716667Y-1741085D01*
X39440476Y-1664895D02*
X39059524Y-1664895D01*
X39059524Y-1664895D02*
X39021428Y-2045847D01*
X39021428Y-2045847D02*
X39059524Y-2007752D01*
X39059524Y-2007752D02*
X39135714Y-1969657D01*
X39135714Y-1969657D02*
X39326190Y-1969657D01*
X39326190Y-1969657D02*
X39402381Y-2007752D01*
X39402381Y-2007752D02*
X39440476Y-2045847D01*
X39440476Y-2045847D02*
X39478571Y-2122038D01*
X39478571Y-2122038D02*
X39478571Y-2312514D01*
X39478571Y-2312514D02*
X39440476Y-2388704D01*
X39440476Y-2388704D02*
X39402381Y-2426800D01*
X39402381Y-2426800D02*
X39326190Y-2464895D01*
X39326190Y-2464895D02*
X39135714Y-2464895D01*
X39135714Y-2464895D02*
X39059524Y-2426800D01*
X39059524Y-2426800D02*
X39021428Y-2388704D01*
X17523809Y-33491084D02*
X17447619Y-33452989D01*
X17447619Y-33452989D02*
X17371428Y-33376799D01*
X17371428Y-33376799D02*
X17257142Y-33262513D01*
X17257142Y-33262513D02*
X17180952Y-33224418D01*
X17180952Y-33224418D02*
X17104761Y-33224418D01*
X17142857Y-33414894D02*
X17066666Y-33376799D01*
X17066666Y-33376799D02*
X16990476Y-33300608D01*
X16990476Y-33300608D02*
X16952380Y-33148227D01*
X16952380Y-33148227D02*
X16952380Y-32881560D01*
X16952380Y-32881560D02*
X16990476Y-32729179D01*
X16990476Y-32729179D02*
X17066666Y-32652989D01*
X17066666Y-32652989D02*
X17142857Y-32614894D01*
X17142857Y-32614894D02*
X17295238Y-32614894D01*
X17295238Y-32614894D02*
X17371428Y-32652989D01*
X17371428Y-32652989D02*
X17447619Y-32729179D01*
X17447619Y-32729179D02*
X17485714Y-32881560D01*
X17485714Y-32881560D02*
X17485714Y-33148227D01*
X17485714Y-33148227D02*
X17447619Y-33300608D01*
X17447619Y-33300608D02*
X17371428Y-33376799D01*
X17371428Y-33376799D02*
X17295238Y-33414894D01*
X17295238Y-33414894D02*
X17142857Y-33414894D01*
X17752380Y-32614894D02*
X18247618Y-32614894D01*
X18247618Y-32614894D02*
X17980952Y-32919656D01*
X17980952Y-32919656D02*
X18095237Y-32919656D01*
X18095237Y-32919656D02*
X18171428Y-32957751D01*
X18171428Y-32957751D02*
X18209523Y-32995846D01*
X18209523Y-32995846D02*
X18247618Y-33072037D01*
X18247618Y-33072037D02*
X18247618Y-33262513D01*
X18247618Y-33262513D02*
X18209523Y-33338703D01*
X18209523Y-33338703D02*
X18171428Y-33376799D01*
X18171428Y-33376799D02*
X18095237Y-33414894D01*
X18095237Y-33414894D02*
X17866666Y-33414894D01*
X17866666Y-33414894D02*
X17790475Y-33376799D01*
X17790475Y-33376799D02*
X17752380Y-33338703D01*
X4590476Y-18014895D02*
X4590476Y-18662514D01*
X4590476Y-18662514D02*
X4628571Y-18738704D01*
X4628571Y-18738704D02*
X4666666Y-18776800D01*
X4666666Y-18776800D02*
X4742857Y-18814895D01*
X4742857Y-18814895D02*
X4895238Y-18814895D01*
X4895238Y-18814895D02*
X4971428Y-18776800D01*
X4971428Y-18776800D02*
X5009523Y-18738704D01*
X5009523Y-18738704D02*
X5047619Y-18662514D01*
X5047619Y-18662514D02*
X5047619Y-18014895D01*
X5809523Y-18014895D02*
X5428571Y-18014895D01*
X5428571Y-18014895D02*
X5390475Y-18395847D01*
X5390475Y-18395847D02*
X5428571Y-18357752D01*
X5428571Y-18357752D02*
X5504761Y-18319657D01*
X5504761Y-18319657D02*
X5695237Y-18319657D01*
X5695237Y-18319657D02*
X5771428Y-18357752D01*
X5771428Y-18357752D02*
X5809523Y-18395847D01*
X5809523Y-18395847D02*
X5847618Y-18472038D01*
X5847618Y-18472038D02*
X5847618Y-18662514D01*
X5847618Y-18662514D02*
X5809523Y-18738704D01*
X5809523Y-18738704D02*
X5771428Y-18776800D01*
X5771428Y-18776800D02*
X5695237Y-18814895D01*
X5695237Y-18814895D02*
X5504761Y-18814895D01*
X5504761Y-18814895D02*
X5428571Y-18776800D01*
X5428571Y-18776800D02*
X5390475Y-18738704D01*
X16685714Y-18338704D02*
X16647618Y-18376800D01*
X16647618Y-18376800D02*
X16533333Y-18414895D01*
X16533333Y-18414895D02*
X16457142Y-18414895D01*
X16457142Y-18414895D02*
X16342856Y-18376800D01*
X16342856Y-18376800D02*
X16266666Y-18300609D01*
X16266666Y-18300609D02*
X16228571Y-18224419D01*
X16228571Y-18224419D02*
X16190475Y-18072038D01*
X16190475Y-18072038D02*
X16190475Y-17957752D01*
X16190475Y-17957752D02*
X16228571Y-17805371D01*
X16228571Y-17805371D02*
X16266666Y-17729180D01*
X16266666Y-17729180D02*
X16342856Y-17652990D01*
X16342856Y-17652990D02*
X16457142Y-17614895D01*
X16457142Y-17614895D02*
X16533333Y-17614895D01*
X16533333Y-17614895D02*
X16647618Y-17652990D01*
X16647618Y-17652990D02*
X16685714Y-17691085D01*
X16990475Y-17691085D02*
X17028571Y-17652990D01*
X17028571Y-17652990D02*
X17104761Y-17614895D01*
X17104761Y-17614895D02*
X17295237Y-17614895D01*
X17295237Y-17614895D02*
X17371428Y-17652990D01*
X17371428Y-17652990D02*
X17409523Y-17691085D01*
X17409523Y-17691085D02*
X17447618Y-17767276D01*
X17447618Y-17767276D02*
X17447618Y-17843466D01*
X17447618Y-17843466D02*
X17409523Y-17957752D01*
X17409523Y-17957752D02*
X16952380Y-18414895D01*
X16952380Y-18414895D02*
X17447618Y-18414895D01*
X18133333Y-17881561D02*
X18133333Y-18414895D01*
X17942857Y-17576800D02*
X17752380Y-18148228D01*
X17752380Y-18148228D02*
X18247619Y-18148228D01*
X21390476Y-30114895D02*
X21390476Y-30762514D01*
X21390476Y-30762514D02*
X21428571Y-30838704D01*
X21428571Y-30838704D02*
X21466666Y-30876800D01*
X21466666Y-30876800D02*
X21542857Y-30914895D01*
X21542857Y-30914895D02*
X21695238Y-30914895D01*
X21695238Y-30914895D02*
X21771428Y-30876800D01*
X21771428Y-30876800D02*
X21809523Y-30838704D01*
X21809523Y-30838704D02*
X21847619Y-30762514D01*
X21847619Y-30762514D02*
X21847619Y-30114895D01*
X22342856Y-30457752D02*
X22266666Y-30419657D01*
X22266666Y-30419657D02*
X22228571Y-30381561D01*
X22228571Y-30381561D02*
X22190475Y-30305371D01*
X22190475Y-30305371D02*
X22190475Y-30267276D01*
X22190475Y-30267276D02*
X22228571Y-30191085D01*
X22228571Y-30191085D02*
X22266666Y-30152990D01*
X22266666Y-30152990D02*
X22342856Y-30114895D01*
X22342856Y-30114895D02*
X22495237Y-30114895D01*
X22495237Y-30114895D02*
X22571428Y-30152990D01*
X22571428Y-30152990D02*
X22609523Y-30191085D01*
X22609523Y-30191085D02*
X22647618Y-30267276D01*
X22647618Y-30267276D02*
X22647618Y-30305371D01*
X22647618Y-30305371D02*
X22609523Y-30381561D01*
X22609523Y-30381561D02*
X22571428Y-30419657D01*
X22571428Y-30419657D02*
X22495237Y-30457752D01*
X22495237Y-30457752D02*
X22342856Y-30457752D01*
X22342856Y-30457752D02*
X22266666Y-30495847D01*
X22266666Y-30495847D02*
X22228571Y-30533942D01*
X22228571Y-30533942D02*
X22190475Y-30610133D01*
X22190475Y-30610133D02*
X22190475Y-30762514D01*
X22190475Y-30762514D02*
X22228571Y-30838704D01*
X22228571Y-30838704D02*
X22266666Y-30876800D01*
X22266666Y-30876800D02*
X22342856Y-30914895D01*
X22342856Y-30914895D02*
X22495237Y-30914895D01*
X22495237Y-30914895D02*
X22571428Y-30876800D01*
X22571428Y-30876800D02*
X22609523Y-30838704D01*
X22609523Y-30838704D02*
X22647618Y-30762514D01*
X22647618Y-30762514D02*
X22647618Y-30610133D01*
X22647618Y-30610133D02*
X22609523Y-30533942D01*
X22609523Y-30533942D02*
X22571428Y-30495847D01*
X22571428Y-30495847D02*
X22495237Y-30457752D01*
X41485714Y-6614895D02*
X41219047Y-6233942D01*
X41028571Y-6614895D02*
X41028571Y-5814895D01*
X41028571Y-5814895D02*
X41333333Y-5814895D01*
X41333333Y-5814895D02*
X41409523Y-5852990D01*
X41409523Y-5852990D02*
X41447618Y-5891085D01*
X41447618Y-5891085D02*
X41485714Y-5967276D01*
X41485714Y-5967276D02*
X41485714Y-6081561D01*
X41485714Y-6081561D02*
X41447618Y-6157752D01*
X41447618Y-6157752D02*
X41409523Y-6195847D01*
X41409523Y-6195847D02*
X41333333Y-6233942D01*
X41333333Y-6233942D02*
X41028571Y-6233942D01*
X42247618Y-6614895D02*
X41790475Y-6614895D01*
X42019047Y-6614895D02*
X42019047Y-5814895D01*
X42019047Y-5814895D02*
X41942856Y-5929180D01*
X41942856Y-5929180D02*
X41866666Y-6005371D01*
X41866666Y-6005371D02*
X41790475Y-6043466D01*
X43009523Y-6614895D02*
X42552380Y-6614895D01*
X42780952Y-6614895D02*
X42780952Y-5814895D01*
X42780952Y-5814895D02*
X42704761Y-5929180D01*
X42704761Y-5929180D02*
X42628571Y-6005371D01*
X42628571Y-6005371D02*
X42552380Y-6043466D01*
X7390476Y-28614895D02*
X7390476Y-29262514D01*
X7390476Y-29262514D02*
X7428571Y-29338704D01*
X7428571Y-29338704D02*
X7466666Y-29376800D01*
X7466666Y-29376800D02*
X7542857Y-29414895D01*
X7542857Y-29414895D02*
X7695238Y-29414895D01*
X7695238Y-29414895D02*
X7771428Y-29376800D01*
X7771428Y-29376800D02*
X7809523Y-29338704D01*
X7809523Y-29338704D02*
X7847619Y-29262514D01*
X7847619Y-29262514D02*
X7847619Y-28614895D01*
X8190475Y-28691085D02*
X8228571Y-28652990D01*
X8228571Y-28652990D02*
X8304761Y-28614895D01*
X8304761Y-28614895D02*
X8495237Y-28614895D01*
X8495237Y-28614895D02*
X8571428Y-28652990D01*
X8571428Y-28652990D02*
X8609523Y-28691085D01*
X8609523Y-28691085D02*
X8647618Y-28767276D01*
X8647618Y-28767276D02*
X8647618Y-28843466D01*
X8647618Y-28843466D02*
X8609523Y-28957752D01*
X8609523Y-28957752D02*
X8152380Y-29414895D01*
X8152380Y-29414895D02*
X8647618Y-29414895D01*
X25985714Y-23188704D02*
X25947618Y-23226800D01*
X25947618Y-23226800D02*
X25833333Y-23264895D01*
X25833333Y-23264895D02*
X25757142Y-23264895D01*
X25757142Y-23264895D02*
X25642856Y-23226800D01*
X25642856Y-23226800D02*
X25566666Y-23150609D01*
X25566666Y-23150609D02*
X25528571Y-23074419D01*
X25528571Y-23074419D02*
X25490475Y-22922038D01*
X25490475Y-22922038D02*
X25490475Y-22807752D01*
X25490475Y-22807752D02*
X25528571Y-22655371D01*
X25528571Y-22655371D02*
X25566666Y-22579180D01*
X25566666Y-22579180D02*
X25642856Y-22502990D01*
X25642856Y-22502990D02*
X25757142Y-22464895D01*
X25757142Y-22464895D02*
X25833333Y-22464895D01*
X25833333Y-22464895D02*
X25947618Y-22502990D01*
X25947618Y-22502990D02*
X25985714Y-22541085D01*
X26252380Y-22464895D02*
X26747618Y-22464895D01*
X26747618Y-22464895D02*
X26480952Y-22769657D01*
X26480952Y-22769657D02*
X26595237Y-22769657D01*
X26595237Y-22769657D02*
X26671428Y-22807752D01*
X26671428Y-22807752D02*
X26709523Y-22845847D01*
X26709523Y-22845847D02*
X26747618Y-22922038D01*
X26747618Y-22922038D02*
X26747618Y-23112514D01*
X26747618Y-23112514D02*
X26709523Y-23188704D01*
X26709523Y-23188704D02*
X26671428Y-23226800D01*
X26671428Y-23226800D02*
X26595237Y-23264895D01*
X26595237Y-23264895D02*
X26366666Y-23264895D01*
X26366666Y-23264895D02*
X26290475Y-23226800D01*
X26290475Y-23226800D02*
X26252380Y-23188704D01*
X27204761Y-22807752D02*
X27128571Y-22769657D01*
X27128571Y-22769657D02*
X27090476Y-22731561D01*
X27090476Y-22731561D02*
X27052380Y-22655371D01*
X27052380Y-22655371D02*
X27052380Y-22617276D01*
X27052380Y-22617276D02*
X27090476Y-22541085D01*
X27090476Y-22541085D02*
X27128571Y-22502990D01*
X27128571Y-22502990D02*
X27204761Y-22464895D01*
X27204761Y-22464895D02*
X27357142Y-22464895D01*
X27357142Y-22464895D02*
X27433333Y-22502990D01*
X27433333Y-22502990D02*
X27471428Y-22541085D01*
X27471428Y-22541085D02*
X27509523Y-22617276D01*
X27509523Y-22617276D02*
X27509523Y-22655371D01*
X27509523Y-22655371D02*
X27471428Y-22731561D01*
X27471428Y-22731561D02*
X27433333Y-22769657D01*
X27433333Y-22769657D02*
X27357142Y-22807752D01*
X27357142Y-22807752D02*
X27204761Y-22807752D01*
X27204761Y-22807752D02*
X27128571Y-22845847D01*
X27128571Y-22845847D02*
X27090476Y-22883942D01*
X27090476Y-22883942D02*
X27052380Y-22960133D01*
X27052380Y-22960133D02*
X27052380Y-23112514D01*
X27052380Y-23112514D02*
X27090476Y-23188704D01*
X27090476Y-23188704D02*
X27128571Y-23226800D01*
X27128571Y-23226800D02*
X27204761Y-23264895D01*
X27204761Y-23264895D02*
X27357142Y-23264895D01*
X27357142Y-23264895D02*
X27433333Y-23226800D01*
X27433333Y-23226800D02*
X27471428Y-23188704D01*
X27471428Y-23188704D02*
X27509523Y-23112514D01*
X27509523Y-23112514D02*
X27509523Y-22960133D01*
X27509523Y-22960133D02*
X27471428Y-22883942D01*
X27471428Y-22883942D02*
X27433333Y-22845847D01*
X27433333Y-22845847D02*
X27357142Y-22807752D01*
X26416667Y-10088704D02*
X26378571Y-10126800D01*
X26378571Y-10126800D02*
X26264286Y-10164895D01*
X26264286Y-10164895D02*
X26188095Y-10164895D01*
X26188095Y-10164895D02*
X26073809Y-10126800D01*
X26073809Y-10126800D02*
X25997619Y-10050609D01*
X25997619Y-10050609D02*
X25959524Y-9974419D01*
X25959524Y-9974419D02*
X25921428Y-9822038D01*
X25921428Y-9822038D02*
X25921428Y-9707752D01*
X25921428Y-9707752D02*
X25959524Y-9555371D01*
X25959524Y-9555371D02*
X25997619Y-9479180D01*
X25997619Y-9479180D02*
X26073809Y-9402990D01*
X26073809Y-9402990D02*
X26188095Y-9364895D01*
X26188095Y-9364895D02*
X26264286Y-9364895D01*
X26264286Y-9364895D02*
X26378571Y-9402990D01*
X26378571Y-9402990D02*
X26416667Y-9441085D01*
X26683333Y-9364895D02*
X27178571Y-9364895D01*
X27178571Y-9364895D02*
X26911905Y-9669657D01*
X26911905Y-9669657D02*
X27026190Y-9669657D01*
X27026190Y-9669657D02*
X27102381Y-9707752D01*
X27102381Y-9707752D02*
X27140476Y-9745847D01*
X27140476Y-9745847D02*
X27178571Y-9822038D01*
X27178571Y-9822038D02*
X27178571Y-10012514D01*
X27178571Y-10012514D02*
X27140476Y-10088704D01*
X27140476Y-10088704D02*
X27102381Y-10126800D01*
X27102381Y-10126800D02*
X27026190Y-10164895D01*
X27026190Y-10164895D02*
X26797619Y-10164895D01*
X26797619Y-10164895D02*
X26721428Y-10126800D01*
X26721428Y-10126800D02*
X26683333Y-10088704D01*
X11733333Y-1164895D02*
X11733333Y-1736323D01*
X11733333Y-1736323D02*
X11695238Y-1850609D01*
X11695238Y-1850609D02*
X11619047Y-1926800D01*
X11619047Y-1926800D02*
X11504762Y-1964895D01*
X11504762Y-1964895D02*
X11428571Y-1964895D01*
X12533333Y-1964895D02*
X12076190Y-1964895D01*
X12304762Y-1964895D02*
X12304762Y-1164895D01*
X12304762Y-1164895D02*
X12228571Y-1279180D01*
X12228571Y-1279180D02*
X12152381Y-1355371D01*
X12152381Y-1355371D02*
X12076190Y-1393466D01*
X46685713Y-23264895D02*
X46419046Y-22883942D01*
X46228570Y-23264895D02*
X46228570Y-22464895D01*
X46228570Y-22464895D02*
X46533332Y-22464895D01*
X46533332Y-22464895D02*
X46609522Y-22502990D01*
X46609522Y-22502990D02*
X46647617Y-22541085D01*
X46647617Y-22541085D02*
X46685713Y-22617276D01*
X46685713Y-22617276D02*
X46685713Y-22731561D01*
X46685713Y-22731561D02*
X46647617Y-22807752D01*
X46647617Y-22807752D02*
X46609522Y-22845847D01*
X46609522Y-22845847D02*
X46533332Y-22883942D01*
X46533332Y-22883942D02*
X46228570Y-22883942D01*
X47371427Y-22731561D02*
X47371427Y-23264895D01*
X47180951Y-22426800D02*
X46990474Y-22998228D01*
X46990474Y-22998228D02*
X47485713Y-22998228D01*
X48209522Y-23264895D02*
X47752379Y-23264895D01*
X47980951Y-23264895D02*
X47980951Y-22464895D01*
X47980951Y-22464895D02*
X47904760Y-22579180D01*
X47904760Y-22579180D02*
X47828570Y-22655371D01*
X47828570Y-22655371D02*
X47752379Y-22693466D01*
X37866666Y-15464895D02*
X37485714Y-15464895D01*
X37485714Y-15464895D02*
X37485714Y-14664895D01*
X38057142Y-14664895D02*
X38552380Y-14664895D01*
X38552380Y-14664895D02*
X38285714Y-14969657D01*
X38285714Y-14969657D02*
X38399999Y-14969657D01*
X38399999Y-14969657D02*
X38476190Y-15007752D01*
X38476190Y-15007752D02*
X38514285Y-15045847D01*
X38514285Y-15045847D02*
X38552380Y-15122038D01*
X38552380Y-15122038D02*
X38552380Y-15312514D01*
X38552380Y-15312514D02*
X38514285Y-15388704D01*
X38514285Y-15388704D02*
X38476190Y-15426800D01*
X38476190Y-15426800D02*
X38399999Y-15464895D01*
X38399999Y-15464895D02*
X38171428Y-15464895D01*
X38171428Y-15464895D02*
X38095237Y-15426800D01*
X38095237Y-15426800D02*
X38057142Y-15388704D01*
X19590476Y-18014895D02*
X19590476Y-18662514D01*
X19590476Y-18662514D02*
X19628571Y-18738704D01*
X19628571Y-18738704D02*
X19666666Y-18776800D01*
X19666666Y-18776800D02*
X19742857Y-18814895D01*
X19742857Y-18814895D02*
X19895238Y-18814895D01*
X19895238Y-18814895D02*
X19971428Y-18776800D01*
X19971428Y-18776800D02*
X20009523Y-18738704D01*
X20009523Y-18738704D02*
X20047619Y-18662514D01*
X20047619Y-18662514D02*
X20047619Y-18014895D01*
X20771428Y-18014895D02*
X20619047Y-18014895D01*
X20619047Y-18014895D02*
X20542856Y-18052990D01*
X20542856Y-18052990D02*
X20504761Y-18091085D01*
X20504761Y-18091085D02*
X20428571Y-18205371D01*
X20428571Y-18205371D02*
X20390475Y-18357752D01*
X20390475Y-18357752D02*
X20390475Y-18662514D01*
X20390475Y-18662514D02*
X20428571Y-18738704D01*
X20428571Y-18738704D02*
X20466666Y-18776800D01*
X20466666Y-18776800D02*
X20542856Y-18814895D01*
X20542856Y-18814895D02*
X20695237Y-18814895D01*
X20695237Y-18814895D02*
X20771428Y-18776800D01*
X20771428Y-18776800D02*
X20809523Y-18738704D01*
X20809523Y-18738704D02*
X20847618Y-18662514D01*
X20847618Y-18662514D02*
X20847618Y-18472038D01*
X20847618Y-18472038D02*
X20809523Y-18395847D01*
X20809523Y-18395847D02*
X20771428Y-18357752D01*
X20771428Y-18357752D02*
X20695237Y-18319657D01*
X20695237Y-18319657D02*
X20542856Y-18319657D01*
X20542856Y-18319657D02*
X20466666Y-18357752D01*
X20466666Y-18357752D02*
X20428571Y-18395847D01*
X20428571Y-18395847D02*
X20390475Y-18472038D01*
X31009524Y-28764895D02*
X31009524Y-29412514D01*
X31009524Y-29412514D02*
X31047619Y-29488704D01*
X31047619Y-29488704D02*
X31085714Y-29526800D01*
X31085714Y-29526800D02*
X31161905Y-29564895D01*
X31161905Y-29564895D02*
X31314286Y-29564895D01*
X31314286Y-29564895D02*
X31390476Y-29526800D01*
X31390476Y-29526800D02*
X31428571Y-29488704D01*
X31428571Y-29488704D02*
X31466667Y-29412514D01*
X31466667Y-29412514D02*
X31466667Y-28764895D01*
X32266666Y-29564895D02*
X31809523Y-29564895D01*
X32038095Y-29564895D02*
X32038095Y-28764895D01*
X32038095Y-28764895D02*
X31961904Y-28879180D01*
X31961904Y-28879180D02*
X31885714Y-28955371D01*
X31885714Y-28955371D02*
X31809523Y-28993466D01*
X32761905Y-28764895D02*
X32838095Y-28764895D01*
X32838095Y-28764895D02*
X32914286Y-28802990D01*
X32914286Y-28802990D02*
X32952381Y-28841085D01*
X32952381Y-28841085D02*
X32990476Y-28917276D01*
X32990476Y-28917276D02*
X33028571Y-29069657D01*
X33028571Y-29069657D02*
X33028571Y-29260133D01*
X33028571Y-29260133D02*
X32990476Y-29412514D01*
X32990476Y-29412514D02*
X32952381Y-29488704D01*
X32952381Y-29488704D02*
X32914286Y-29526800D01*
X32914286Y-29526800D02*
X32838095Y-29564895D01*
X32838095Y-29564895D02*
X32761905Y-29564895D01*
X32761905Y-29564895D02*
X32685714Y-29526800D01*
X32685714Y-29526800D02*
X32647619Y-29488704D01*
X32647619Y-29488704D02*
X32609524Y-29412514D01*
X32609524Y-29412514D02*
X32571428Y-29260133D01*
X32571428Y-29260133D02*
X32571428Y-29069657D01*
X32571428Y-29069657D02*
X32609524Y-28917276D01*
X32609524Y-28917276D02*
X32647619Y-28841085D01*
X32647619Y-28841085D02*
X32685714Y-28802990D01*
X32685714Y-28802990D02*
X32761905Y-28764895D01*
X46685714Y-26464895D02*
X46419047Y-26083942D01*
X46228571Y-26464895D02*
X46228571Y-25664895D01*
X46228571Y-25664895D02*
X46533333Y-25664895D01*
X46533333Y-25664895D02*
X46609523Y-25702990D01*
X46609523Y-25702990D02*
X46647618Y-25741085D01*
X46647618Y-25741085D02*
X46685714Y-25817276D01*
X46685714Y-25817276D02*
X46685714Y-25931561D01*
X46685714Y-25931561D02*
X46647618Y-26007752D01*
X46647618Y-26007752D02*
X46609523Y-26045847D01*
X46609523Y-26045847D02*
X46533333Y-26083942D01*
X46533333Y-26083942D02*
X46228571Y-26083942D01*
X47371428Y-25931561D02*
X47371428Y-26464895D01*
X47180952Y-25626800D02*
X46990475Y-26198228D01*
X46990475Y-26198228D02*
X47485714Y-26198228D01*
X47714285Y-25664895D02*
X48209523Y-25664895D01*
X48209523Y-25664895D02*
X47942857Y-25969657D01*
X47942857Y-25969657D02*
X48057142Y-25969657D01*
X48057142Y-25969657D02*
X48133333Y-26007752D01*
X48133333Y-26007752D02*
X48171428Y-26045847D01*
X48171428Y-26045847D02*
X48209523Y-26122038D01*
X48209523Y-26122038D02*
X48209523Y-26312514D01*
X48209523Y-26312514D02*
X48171428Y-26388704D01*
X48171428Y-26388704D02*
X48133333Y-26426800D01*
X48133333Y-26426800D02*
X48057142Y-26464895D01*
X48057142Y-26464895D02*
X47828571Y-26464895D01*
X47828571Y-26464895D02*
X47752380Y-26426800D01*
X47752380Y-26426800D02*
X47714285Y-26388704D01*
X10985714Y-23188704D02*
X10947618Y-23226800D01*
X10947618Y-23226800D02*
X10833333Y-23264895D01*
X10833333Y-23264895D02*
X10757142Y-23264895D01*
X10757142Y-23264895D02*
X10642856Y-23226800D01*
X10642856Y-23226800D02*
X10566666Y-23150609D01*
X10566666Y-23150609D02*
X10528571Y-23074419D01*
X10528571Y-23074419D02*
X10490475Y-22922038D01*
X10490475Y-22922038D02*
X10490475Y-22807752D01*
X10490475Y-22807752D02*
X10528571Y-22655371D01*
X10528571Y-22655371D02*
X10566666Y-22579180D01*
X10566666Y-22579180D02*
X10642856Y-22502990D01*
X10642856Y-22502990D02*
X10757142Y-22464895D01*
X10757142Y-22464895D02*
X10833333Y-22464895D01*
X10833333Y-22464895D02*
X10947618Y-22502990D01*
X10947618Y-22502990D02*
X10985714Y-22541085D01*
X11290475Y-22541085D02*
X11328571Y-22502990D01*
X11328571Y-22502990D02*
X11404761Y-22464895D01*
X11404761Y-22464895D02*
X11595237Y-22464895D01*
X11595237Y-22464895D02*
X11671428Y-22502990D01*
X11671428Y-22502990D02*
X11709523Y-22541085D01*
X11709523Y-22541085D02*
X11747618Y-22617276D01*
X11747618Y-22617276D02*
X11747618Y-22693466D01*
X11747618Y-22693466D02*
X11709523Y-22807752D01*
X11709523Y-22807752D02*
X11252380Y-23264895D01*
X11252380Y-23264895D02*
X11747618Y-23264895D01*
X12204761Y-22807752D02*
X12128571Y-22769657D01*
X12128571Y-22769657D02*
X12090476Y-22731561D01*
X12090476Y-22731561D02*
X12052380Y-22655371D01*
X12052380Y-22655371D02*
X12052380Y-22617276D01*
X12052380Y-22617276D02*
X12090476Y-22541085D01*
X12090476Y-22541085D02*
X12128571Y-22502990D01*
X12128571Y-22502990D02*
X12204761Y-22464895D01*
X12204761Y-22464895D02*
X12357142Y-22464895D01*
X12357142Y-22464895D02*
X12433333Y-22502990D01*
X12433333Y-22502990D02*
X12471428Y-22541085D01*
X12471428Y-22541085D02*
X12509523Y-22617276D01*
X12509523Y-22617276D02*
X12509523Y-22655371D01*
X12509523Y-22655371D02*
X12471428Y-22731561D01*
X12471428Y-22731561D02*
X12433333Y-22769657D01*
X12433333Y-22769657D02*
X12357142Y-22807752D01*
X12357142Y-22807752D02*
X12204761Y-22807752D01*
X12204761Y-22807752D02*
X12128571Y-22845847D01*
X12128571Y-22845847D02*
X12090476Y-22883942D01*
X12090476Y-22883942D02*
X12052380Y-22960133D01*
X12052380Y-22960133D02*
X12052380Y-23112514D01*
X12052380Y-23112514D02*
X12090476Y-23188704D01*
X12090476Y-23188704D02*
X12128571Y-23226800D01*
X12128571Y-23226800D02*
X12204761Y-23264895D01*
X12204761Y-23264895D02*
X12357142Y-23264895D01*
X12357142Y-23264895D02*
X12433333Y-23226800D01*
X12433333Y-23226800D02*
X12471428Y-23188704D01*
X12471428Y-23188704D02*
X12509523Y-23112514D01*
X12509523Y-23112514D02*
X12509523Y-22960133D01*
X12509523Y-22960133D02*
X12471428Y-22883942D01*
X12471428Y-22883942D02*
X12433333Y-22845847D01*
X12433333Y-22845847D02*
X12357142Y-22807752D01*
X3235714Y-17138704D02*
X3197618Y-17176800D01*
X3197618Y-17176800D02*
X3083333Y-17214895D01*
X3083333Y-17214895D02*
X3007142Y-17214895D01*
X3007142Y-17214895D02*
X2892856Y-17176800D01*
X2892856Y-17176800D02*
X2816666Y-17100609D01*
X2816666Y-17100609D02*
X2778571Y-17024419D01*
X2778571Y-17024419D02*
X2740475Y-16872038D01*
X2740475Y-16872038D02*
X2740475Y-16757752D01*
X2740475Y-16757752D02*
X2778571Y-16605371D01*
X2778571Y-16605371D02*
X2816666Y-16529180D01*
X2816666Y-16529180D02*
X2892856Y-16452990D01*
X2892856Y-16452990D02*
X3007142Y-16414895D01*
X3007142Y-16414895D02*
X3083333Y-16414895D01*
X3083333Y-16414895D02*
X3197618Y-16452990D01*
X3197618Y-16452990D02*
X3235714Y-16491085D01*
X3540475Y-16491085D02*
X3578571Y-16452990D01*
X3578571Y-16452990D02*
X3654761Y-16414895D01*
X3654761Y-16414895D02*
X3845237Y-16414895D01*
X3845237Y-16414895D02*
X3921428Y-16452990D01*
X3921428Y-16452990D02*
X3959523Y-16491085D01*
X3959523Y-16491085D02*
X3997618Y-16567276D01*
X3997618Y-16567276D02*
X3997618Y-16643466D01*
X3997618Y-16643466D02*
X3959523Y-16757752D01*
X3959523Y-16757752D02*
X3502380Y-17214895D01*
X3502380Y-17214895D02*
X3997618Y-17214895D01*
X4759523Y-17214895D02*
X4302380Y-17214895D01*
X4530952Y-17214895D02*
X4530952Y-16414895D01*
X4530952Y-16414895D02*
X4454761Y-16529180D01*
X4454761Y-16529180D02*
X4378571Y-16605371D01*
X4378571Y-16605371D02*
X4302380Y-16643466D01*
X18235714Y-16838704D02*
X18197618Y-16876800D01*
X18197618Y-16876800D02*
X18083333Y-16914895D01*
X18083333Y-16914895D02*
X18007142Y-16914895D01*
X18007142Y-16914895D02*
X17892856Y-16876800D01*
X17892856Y-16876800D02*
X17816666Y-16800609D01*
X17816666Y-16800609D02*
X17778571Y-16724419D01*
X17778571Y-16724419D02*
X17740475Y-16572038D01*
X17740475Y-16572038D02*
X17740475Y-16457752D01*
X17740475Y-16457752D02*
X17778571Y-16305371D01*
X17778571Y-16305371D02*
X17816666Y-16229180D01*
X17816666Y-16229180D02*
X17892856Y-16152990D01*
X17892856Y-16152990D02*
X18007142Y-16114895D01*
X18007142Y-16114895D02*
X18083333Y-16114895D01*
X18083333Y-16114895D02*
X18197618Y-16152990D01*
X18197618Y-16152990D02*
X18235714Y-16191085D01*
X18502380Y-16114895D02*
X18997618Y-16114895D01*
X18997618Y-16114895D02*
X18730952Y-16419657D01*
X18730952Y-16419657D02*
X18845237Y-16419657D01*
X18845237Y-16419657D02*
X18921428Y-16457752D01*
X18921428Y-16457752D02*
X18959523Y-16495847D01*
X18959523Y-16495847D02*
X18997618Y-16572038D01*
X18997618Y-16572038D02*
X18997618Y-16762514D01*
X18997618Y-16762514D02*
X18959523Y-16838704D01*
X18959523Y-16838704D02*
X18921428Y-16876800D01*
X18921428Y-16876800D02*
X18845237Y-16914895D01*
X18845237Y-16914895D02*
X18616666Y-16914895D01*
X18616666Y-16914895D02*
X18540475Y-16876800D01*
X18540475Y-16876800D02*
X18502380Y-16838704D01*
X19492857Y-16114895D02*
X19569047Y-16114895D01*
X19569047Y-16114895D02*
X19645238Y-16152990D01*
X19645238Y-16152990D02*
X19683333Y-16191085D01*
X19683333Y-16191085D02*
X19721428Y-16267276D01*
X19721428Y-16267276D02*
X19759523Y-16419657D01*
X19759523Y-16419657D02*
X19759523Y-16610133D01*
X19759523Y-16610133D02*
X19721428Y-16762514D01*
X19721428Y-16762514D02*
X19683333Y-16838704D01*
X19683333Y-16838704D02*
X19645238Y-16876800D01*
X19645238Y-16876800D02*
X19569047Y-16914895D01*
X19569047Y-16914895D02*
X19492857Y-16914895D01*
X19492857Y-16914895D02*
X19416666Y-16876800D01*
X19416666Y-16876800D02*
X19378571Y-16838704D01*
X19378571Y-16838704D02*
X19340476Y-16762514D01*
X19340476Y-16762514D02*
X19302380Y-16610133D01*
X19302380Y-16610133D02*
X19302380Y-16419657D01*
X19302380Y-16419657D02*
X19340476Y-16267276D01*
X19340476Y-16267276D02*
X19378571Y-16191085D01*
X19378571Y-16191085D02*
X19416666Y-16152990D01*
X19416666Y-16152990D02*
X19492857Y-16114895D01*
X17916667Y-31714895D02*
X17650000Y-31333942D01*
X17459524Y-31714895D02*
X17459524Y-30914895D01*
X17459524Y-30914895D02*
X17764286Y-30914895D01*
X17764286Y-30914895D02*
X17840476Y-30952990D01*
X17840476Y-30952990D02*
X17878571Y-30991085D01*
X17878571Y-30991085D02*
X17916667Y-31067276D01*
X17916667Y-31067276D02*
X17916667Y-31181561D01*
X17916667Y-31181561D02*
X17878571Y-31257752D01*
X17878571Y-31257752D02*
X17840476Y-31295847D01*
X17840476Y-31295847D02*
X17764286Y-31333942D01*
X17764286Y-31333942D02*
X17459524Y-31333942D01*
X18373809Y-31257752D02*
X18297619Y-31219657D01*
X18297619Y-31219657D02*
X18259524Y-31181561D01*
X18259524Y-31181561D02*
X18221428Y-31105371D01*
X18221428Y-31105371D02*
X18221428Y-31067276D01*
X18221428Y-31067276D02*
X18259524Y-30991085D01*
X18259524Y-30991085D02*
X18297619Y-30952990D01*
X18297619Y-30952990D02*
X18373809Y-30914895D01*
X18373809Y-30914895D02*
X18526190Y-30914895D01*
X18526190Y-30914895D02*
X18602381Y-30952990D01*
X18602381Y-30952990D02*
X18640476Y-30991085D01*
X18640476Y-30991085D02*
X18678571Y-31067276D01*
X18678571Y-31067276D02*
X18678571Y-31105371D01*
X18678571Y-31105371D02*
X18640476Y-31181561D01*
X18640476Y-31181561D02*
X18602381Y-31219657D01*
X18602381Y-31219657D02*
X18526190Y-31257752D01*
X18526190Y-31257752D02*
X18373809Y-31257752D01*
X18373809Y-31257752D02*
X18297619Y-31295847D01*
X18297619Y-31295847D02*
X18259524Y-31333942D01*
X18259524Y-31333942D02*
X18221428Y-31410133D01*
X18221428Y-31410133D02*
X18221428Y-31562514D01*
X18221428Y-31562514D02*
X18259524Y-31638704D01*
X18259524Y-31638704D02*
X18297619Y-31676800D01*
X18297619Y-31676800D02*
X18373809Y-31714895D01*
X18373809Y-31714895D02*
X18526190Y-31714895D01*
X18526190Y-31714895D02*
X18602381Y-31676800D01*
X18602381Y-31676800D02*
X18640476Y-31638704D01*
X18640476Y-31638704D02*
X18678571Y-31562514D01*
X18678571Y-31562514D02*
X18678571Y-31410133D01*
X18678571Y-31410133D02*
X18640476Y-31333942D01*
X18640476Y-31333942D02*
X18602381Y-31295847D01*
X18602381Y-31295847D02*
X18526190Y-31257752D01*
X45735714Y-38864895D02*
X45469047Y-38483942D01*
X45278571Y-38864895D02*
X45278571Y-38064895D01*
X45278571Y-38064895D02*
X45583333Y-38064895D01*
X45583333Y-38064895D02*
X45659523Y-38102990D01*
X45659523Y-38102990D02*
X45697618Y-38141085D01*
X45697618Y-38141085D02*
X45735714Y-38217276D01*
X45735714Y-38217276D02*
X45735714Y-38331561D01*
X45735714Y-38331561D02*
X45697618Y-38407752D01*
X45697618Y-38407752D02*
X45659523Y-38445847D01*
X45659523Y-38445847D02*
X45583333Y-38483942D01*
X45583333Y-38483942D02*
X45278571Y-38483942D01*
X46421428Y-38064895D02*
X46269047Y-38064895D01*
X46269047Y-38064895D02*
X46192856Y-38102990D01*
X46192856Y-38102990D02*
X46154761Y-38141085D01*
X46154761Y-38141085D02*
X46078571Y-38255371D01*
X46078571Y-38255371D02*
X46040475Y-38407752D01*
X46040475Y-38407752D02*
X46040475Y-38712514D01*
X46040475Y-38712514D02*
X46078571Y-38788704D01*
X46078571Y-38788704D02*
X46116666Y-38826800D01*
X46116666Y-38826800D02*
X46192856Y-38864895D01*
X46192856Y-38864895D02*
X46345237Y-38864895D01*
X46345237Y-38864895D02*
X46421428Y-38826800D01*
X46421428Y-38826800D02*
X46459523Y-38788704D01*
X46459523Y-38788704D02*
X46497618Y-38712514D01*
X46497618Y-38712514D02*
X46497618Y-38522038D01*
X46497618Y-38522038D02*
X46459523Y-38445847D01*
X46459523Y-38445847D02*
X46421428Y-38407752D01*
X46421428Y-38407752D02*
X46345237Y-38369657D01*
X46345237Y-38369657D02*
X46192856Y-38369657D01*
X46192856Y-38369657D02*
X46116666Y-38407752D01*
X46116666Y-38407752D02*
X46078571Y-38445847D01*
X46078571Y-38445847D02*
X46040475Y-38522038D01*
X47221428Y-38064895D02*
X46840476Y-38064895D01*
X46840476Y-38064895D02*
X46802380Y-38445847D01*
X46802380Y-38445847D02*
X46840476Y-38407752D01*
X46840476Y-38407752D02*
X46916666Y-38369657D01*
X46916666Y-38369657D02*
X47107142Y-38369657D01*
X47107142Y-38369657D02*
X47183333Y-38407752D01*
X47183333Y-38407752D02*
X47221428Y-38445847D01*
X47221428Y-38445847D02*
X47259523Y-38522038D01*
X47259523Y-38522038D02*
X47259523Y-38712514D01*
X47259523Y-38712514D02*
X47221428Y-38788704D01*
X47221428Y-38788704D02*
X47183333Y-38826800D01*
X47183333Y-38826800D02*
X47107142Y-38864895D01*
X47107142Y-38864895D02*
X46916666Y-38864895D01*
X46916666Y-38864895D02*
X46840476Y-38826800D01*
X46840476Y-38826800D02*
X46802380Y-38788704D01*
X2185714Y-18588704D02*
X2147618Y-18626800D01*
X2147618Y-18626800D02*
X2033333Y-18664895D01*
X2033333Y-18664895D02*
X1957142Y-18664895D01*
X1957142Y-18664895D02*
X1842856Y-18626800D01*
X1842856Y-18626800D02*
X1766666Y-18550609D01*
X1766666Y-18550609D02*
X1728571Y-18474419D01*
X1728571Y-18474419D02*
X1690475Y-18322038D01*
X1690475Y-18322038D02*
X1690475Y-18207752D01*
X1690475Y-18207752D02*
X1728571Y-18055371D01*
X1728571Y-18055371D02*
X1766666Y-17979180D01*
X1766666Y-17979180D02*
X1842856Y-17902990D01*
X1842856Y-17902990D02*
X1957142Y-17864895D01*
X1957142Y-17864895D02*
X2033333Y-17864895D01*
X2033333Y-17864895D02*
X2147618Y-17902990D01*
X2147618Y-17902990D02*
X2185714Y-17941085D01*
X2490475Y-17941085D02*
X2528571Y-17902990D01*
X2528571Y-17902990D02*
X2604761Y-17864895D01*
X2604761Y-17864895D02*
X2795237Y-17864895D01*
X2795237Y-17864895D02*
X2871428Y-17902990D01*
X2871428Y-17902990D02*
X2909523Y-17941085D01*
X2909523Y-17941085D02*
X2947618Y-18017276D01*
X2947618Y-18017276D02*
X2947618Y-18093466D01*
X2947618Y-18093466D02*
X2909523Y-18207752D01*
X2909523Y-18207752D02*
X2452380Y-18664895D01*
X2452380Y-18664895D02*
X2947618Y-18664895D01*
X3442857Y-17864895D02*
X3519047Y-17864895D01*
X3519047Y-17864895D02*
X3595238Y-17902990D01*
X3595238Y-17902990D02*
X3633333Y-17941085D01*
X3633333Y-17941085D02*
X3671428Y-18017276D01*
X3671428Y-18017276D02*
X3709523Y-18169657D01*
X3709523Y-18169657D02*
X3709523Y-18360133D01*
X3709523Y-18360133D02*
X3671428Y-18512514D01*
X3671428Y-18512514D02*
X3633333Y-18588704D01*
X3633333Y-18588704D02*
X3595238Y-18626800D01*
X3595238Y-18626800D02*
X3519047Y-18664895D01*
X3519047Y-18664895D02*
X3442857Y-18664895D01*
X3442857Y-18664895D02*
X3366666Y-18626800D01*
X3366666Y-18626800D02*
X3328571Y-18588704D01*
X3328571Y-18588704D02*
X3290476Y-18512514D01*
X3290476Y-18512514D02*
X3252380Y-18360133D01*
X3252380Y-18360133D02*
X3252380Y-18169657D01*
X3252380Y-18169657D02*
X3290476Y-18017276D01*
X3290476Y-18017276D02*
X3328571Y-17941085D01*
X3328571Y-17941085D02*
X3366666Y-17902990D01*
X3366666Y-17902990D02*
X3442857Y-17864895D01*
X3159524Y-7164895D02*
X3159524Y-6364895D01*
X3159524Y-6364895D02*
X3350000Y-6364895D01*
X3350000Y-6364895D02*
X3464286Y-6402990D01*
X3464286Y-6402990D02*
X3540476Y-6479180D01*
X3540476Y-6479180D02*
X3578571Y-6555371D01*
X3578571Y-6555371D02*
X3616667Y-6707752D01*
X3616667Y-6707752D02*
X3616667Y-6822038D01*
X3616667Y-6822038D02*
X3578571Y-6974419D01*
X3578571Y-6974419D02*
X3540476Y-7050609D01*
X3540476Y-7050609D02*
X3464286Y-7126800D01*
X3464286Y-7126800D02*
X3350000Y-7164895D01*
X3350000Y-7164895D02*
X3159524Y-7164895D01*
X4378571Y-7164895D02*
X3921428Y-7164895D01*
X4150000Y-7164895D02*
X4150000Y-6364895D01*
X4150000Y-6364895D02*
X4073809Y-6479180D01*
X4073809Y-6479180D02*
X3997619Y-6555371D01*
X3997619Y-6555371D02*
X3921428Y-6593466D01*
X40716667Y-9138704D02*
X40678571Y-9176800D01*
X40678571Y-9176800D02*
X40564286Y-9214895D01*
X40564286Y-9214895D02*
X40488095Y-9214895D01*
X40488095Y-9214895D02*
X40373809Y-9176800D01*
X40373809Y-9176800D02*
X40297619Y-9100609D01*
X40297619Y-9100609D02*
X40259524Y-9024419D01*
X40259524Y-9024419D02*
X40221428Y-8872038D01*
X40221428Y-8872038D02*
X40221428Y-8757752D01*
X40221428Y-8757752D02*
X40259524Y-8605371D01*
X40259524Y-8605371D02*
X40297619Y-8529180D01*
X40297619Y-8529180D02*
X40373809Y-8452990D01*
X40373809Y-8452990D02*
X40488095Y-8414895D01*
X40488095Y-8414895D02*
X40564286Y-8414895D01*
X40564286Y-8414895D02*
X40678571Y-8452990D01*
X40678571Y-8452990D02*
X40716667Y-8491085D01*
X41173809Y-8757752D02*
X41097619Y-8719657D01*
X41097619Y-8719657D02*
X41059524Y-8681561D01*
X41059524Y-8681561D02*
X41021428Y-8605371D01*
X41021428Y-8605371D02*
X41021428Y-8567276D01*
X41021428Y-8567276D02*
X41059524Y-8491085D01*
X41059524Y-8491085D02*
X41097619Y-8452990D01*
X41097619Y-8452990D02*
X41173809Y-8414895D01*
X41173809Y-8414895D02*
X41326190Y-8414895D01*
X41326190Y-8414895D02*
X41402381Y-8452990D01*
X41402381Y-8452990D02*
X41440476Y-8491085D01*
X41440476Y-8491085D02*
X41478571Y-8567276D01*
X41478571Y-8567276D02*
X41478571Y-8605371D01*
X41478571Y-8605371D02*
X41440476Y-8681561D01*
X41440476Y-8681561D02*
X41402381Y-8719657D01*
X41402381Y-8719657D02*
X41326190Y-8757752D01*
X41326190Y-8757752D02*
X41173809Y-8757752D01*
X41173809Y-8757752D02*
X41097619Y-8795847D01*
X41097619Y-8795847D02*
X41059524Y-8833942D01*
X41059524Y-8833942D02*
X41021428Y-8910133D01*
X41021428Y-8910133D02*
X41021428Y-9062514D01*
X41021428Y-9062514D02*
X41059524Y-9138704D01*
X41059524Y-9138704D02*
X41097619Y-9176800D01*
X41097619Y-9176800D02*
X41173809Y-9214895D01*
X41173809Y-9214895D02*
X41326190Y-9214895D01*
X41326190Y-9214895D02*
X41402381Y-9176800D01*
X41402381Y-9176800D02*
X41440476Y-9138704D01*
X41440476Y-9138704D02*
X41478571Y-9062514D01*
X41478571Y-9062514D02*
X41478571Y-8910133D01*
X41478571Y-8910133D02*
X41440476Y-8833942D01*
X41440476Y-8833942D02*
X41402381Y-8795847D01*
X41402381Y-8795847D02*
X41326190Y-8757752D01*
X13785714Y-18338704D02*
X13747618Y-18376800D01*
X13747618Y-18376800D02*
X13633333Y-18414895D01*
X13633333Y-18414895D02*
X13557142Y-18414895D01*
X13557142Y-18414895D02*
X13442856Y-18376800D01*
X13442856Y-18376800D02*
X13366666Y-18300609D01*
X13366666Y-18300609D02*
X13328571Y-18224419D01*
X13328571Y-18224419D02*
X13290475Y-18072038D01*
X13290475Y-18072038D02*
X13290475Y-17957752D01*
X13290475Y-17957752D02*
X13328571Y-17805371D01*
X13328571Y-17805371D02*
X13366666Y-17729180D01*
X13366666Y-17729180D02*
X13442856Y-17652990D01*
X13442856Y-17652990D02*
X13557142Y-17614895D01*
X13557142Y-17614895D02*
X13633333Y-17614895D01*
X13633333Y-17614895D02*
X13747618Y-17652990D01*
X13747618Y-17652990D02*
X13785714Y-17691085D01*
X14090475Y-17691085D02*
X14128571Y-17652990D01*
X14128571Y-17652990D02*
X14204761Y-17614895D01*
X14204761Y-17614895D02*
X14395237Y-17614895D01*
X14395237Y-17614895D02*
X14471428Y-17652990D01*
X14471428Y-17652990D02*
X14509523Y-17691085D01*
X14509523Y-17691085D02*
X14547618Y-17767276D01*
X14547618Y-17767276D02*
X14547618Y-17843466D01*
X14547618Y-17843466D02*
X14509523Y-17957752D01*
X14509523Y-17957752D02*
X14052380Y-18414895D01*
X14052380Y-18414895D02*
X14547618Y-18414895D01*
X14814285Y-17614895D02*
X15309523Y-17614895D01*
X15309523Y-17614895D02*
X15042857Y-17919657D01*
X15042857Y-17919657D02*
X15157142Y-17919657D01*
X15157142Y-17919657D02*
X15233333Y-17957752D01*
X15233333Y-17957752D02*
X15271428Y-17995847D01*
X15271428Y-17995847D02*
X15309523Y-18072038D01*
X15309523Y-18072038D02*
X15309523Y-18262514D01*
X15309523Y-18262514D02*
X15271428Y-18338704D01*
X15271428Y-18338704D02*
X15233333Y-18376800D01*
X15233333Y-18376800D02*
X15157142Y-18414895D01*
X15157142Y-18414895D02*
X14928571Y-18414895D01*
X14928571Y-18414895D02*
X14852380Y-18376800D01*
X14852380Y-18376800D02*
X14814285Y-18338704D01*
X10233333Y-38564895D02*
X10233333Y-39136323D01*
X10233333Y-39136323D02*
X10195238Y-39250609D01*
X10195238Y-39250609D02*
X10119047Y-39326800D01*
X10119047Y-39326800D02*
X10004762Y-39364895D01*
X10004762Y-39364895D02*
X9928571Y-39364895D01*
X10576190Y-38641085D02*
X10614286Y-38602990D01*
X10614286Y-38602990D02*
X10690476Y-38564895D01*
X10690476Y-38564895D02*
X10880952Y-38564895D01*
X10880952Y-38564895D02*
X10957143Y-38602990D01*
X10957143Y-38602990D02*
X10995238Y-38641085D01*
X10995238Y-38641085D02*
X11033333Y-38717276D01*
X11033333Y-38717276D02*
X11033333Y-38793466D01*
X11033333Y-38793466D02*
X10995238Y-38907752D01*
X10995238Y-38907752D02*
X10538095Y-39364895D01*
X10538095Y-39364895D02*
X11033333Y-39364895D01*
X31685714Y-24664895D02*
X31419047Y-24283942D01*
X31228571Y-24664895D02*
X31228571Y-23864895D01*
X31228571Y-23864895D02*
X31533333Y-23864895D01*
X31533333Y-23864895D02*
X31609523Y-23902990D01*
X31609523Y-23902990D02*
X31647618Y-23941085D01*
X31647618Y-23941085D02*
X31685714Y-24017276D01*
X31685714Y-24017276D02*
X31685714Y-24131561D01*
X31685714Y-24131561D02*
X31647618Y-24207752D01*
X31647618Y-24207752D02*
X31609523Y-24245847D01*
X31609523Y-24245847D02*
X31533333Y-24283942D01*
X31533333Y-24283942D02*
X31228571Y-24283942D01*
X31952380Y-23864895D02*
X32447618Y-23864895D01*
X32447618Y-23864895D02*
X32180952Y-24169657D01*
X32180952Y-24169657D02*
X32295237Y-24169657D01*
X32295237Y-24169657D02*
X32371428Y-24207752D01*
X32371428Y-24207752D02*
X32409523Y-24245847D01*
X32409523Y-24245847D02*
X32447618Y-24322038D01*
X32447618Y-24322038D02*
X32447618Y-24512514D01*
X32447618Y-24512514D02*
X32409523Y-24588704D01*
X32409523Y-24588704D02*
X32371428Y-24626800D01*
X32371428Y-24626800D02*
X32295237Y-24664895D01*
X32295237Y-24664895D02*
X32066666Y-24664895D01*
X32066666Y-24664895D02*
X31990475Y-24626800D01*
X31990475Y-24626800D02*
X31952380Y-24588704D01*
X33209523Y-24664895D02*
X32752380Y-24664895D01*
X32980952Y-24664895D02*
X32980952Y-23864895D01*
X32980952Y-23864895D02*
X32904761Y-23979180D01*
X32904761Y-23979180D02*
X32828571Y-24055371D01*
X32828571Y-24055371D02*
X32752380Y-24093466D01*
X19009524Y-2364895D02*
X19009524Y-3012514D01*
X19009524Y-3012514D02*
X19047619Y-3088704D01*
X19047619Y-3088704D02*
X19085714Y-3126800D01*
X19085714Y-3126800D02*
X19161905Y-3164895D01*
X19161905Y-3164895D02*
X19314286Y-3164895D01*
X19314286Y-3164895D02*
X19390476Y-3126800D01*
X19390476Y-3126800D02*
X19428571Y-3088704D01*
X19428571Y-3088704D02*
X19466667Y-3012514D01*
X19466667Y-3012514D02*
X19466667Y-2364895D01*
X20266666Y-3164895D02*
X19809523Y-3164895D01*
X20038095Y-3164895D02*
X20038095Y-2364895D01*
X20038095Y-2364895D02*
X19961904Y-2479180D01*
X19961904Y-2479180D02*
X19885714Y-2555371D01*
X19885714Y-2555371D02*
X19809523Y-2593466D01*
X20952381Y-2631561D02*
X20952381Y-3164895D01*
X20761905Y-2326800D02*
X20571428Y-2898228D01*
X20571428Y-2898228D02*
X21066667Y-2898228D01*
X34685714Y-26088704D02*
X34647618Y-26126800D01*
X34647618Y-26126800D02*
X34533333Y-26164895D01*
X34533333Y-26164895D02*
X34457142Y-26164895D01*
X34457142Y-26164895D02*
X34342856Y-26126800D01*
X34342856Y-26126800D02*
X34266666Y-26050609D01*
X34266666Y-26050609D02*
X34228571Y-25974419D01*
X34228571Y-25974419D02*
X34190475Y-25822038D01*
X34190475Y-25822038D02*
X34190475Y-25707752D01*
X34190475Y-25707752D02*
X34228571Y-25555371D01*
X34228571Y-25555371D02*
X34266666Y-25479180D01*
X34266666Y-25479180D02*
X34342856Y-25402990D01*
X34342856Y-25402990D02*
X34457142Y-25364895D01*
X34457142Y-25364895D02*
X34533333Y-25364895D01*
X34533333Y-25364895D02*
X34647618Y-25402990D01*
X34647618Y-25402990D02*
X34685714Y-25441085D01*
X35371428Y-25631561D02*
X35371428Y-26164895D01*
X35180952Y-25326800D02*
X34990475Y-25898228D01*
X34990475Y-25898228D02*
X35485714Y-25898228D01*
X36171428Y-25364895D02*
X35790476Y-25364895D01*
X35790476Y-25364895D02*
X35752380Y-25745847D01*
X35752380Y-25745847D02*
X35790476Y-25707752D01*
X35790476Y-25707752D02*
X35866666Y-25669657D01*
X35866666Y-25669657D02*
X36057142Y-25669657D01*
X36057142Y-25669657D02*
X36133333Y-25707752D01*
X36133333Y-25707752D02*
X36171428Y-25745847D01*
X36171428Y-25745847D02*
X36209523Y-25822038D01*
X36209523Y-25822038D02*
X36209523Y-26012514D01*
X36209523Y-26012514D02*
X36171428Y-26088704D01*
X36171428Y-26088704D02*
X36133333Y-26126800D01*
X36133333Y-26126800D02*
X36057142Y-26164895D01*
X36057142Y-26164895D02*
X35866666Y-26164895D01*
X35866666Y-26164895D02*
X35790476Y-26126800D01*
X35790476Y-26126800D02*
X35752380Y-26088704D01*
X45685714Y-37414895D02*
X45419047Y-37033942D01*
X45228571Y-37414895D02*
X45228571Y-36614895D01*
X45228571Y-36614895D02*
X45533333Y-36614895D01*
X45533333Y-36614895D02*
X45609523Y-36652990D01*
X45609523Y-36652990D02*
X45647618Y-36691085D01*
X45647618Y-36691085D02*
X45685714Y-36767276D01*
X45685714Y-36767276D02*
X45685714Y-36881561D01*
X45685714Y-36881561D02*
X45647618Y-36957752D01*
X45647618Y-36957752D02*
X45609523Y-36995847D01*
X45609523Y-36995847D02*
X45533333Y-37033942D01*
X45533333Y-37033942D02*
X45228571Y-37033942D01*
X46371428Y-36614895D02*
X46219047Y-36614895D01*
X46219047Y-36614895D02*
X46142856Y-36652990D01*
X46142856Y-36652990D02*
X46104761Y-36691085D01*
X46104761Y-36691085D02*
X46028571Y-36805371D01*
X46028571Y-36805371D02*
X45990475Y-36957752D01*
X45990475Y-36957752D02*
X45990475Y-37262514D01*
X45990475Y-37262514D02*
X46028571Y-37338704D01*
X46028571Y-37338704D02*
X46066666Y-37376800D01*
X46066666Y-37376800D02*
X46142856Y-37414895D01*
X46142856Y-37414895D02*
X46295237Y-37414895D01*
X46295237Y-37414895D02*
X46371428Y-37376800D01*
X46371428Y-37376800D02*
X46409523Y-37338704D01*
X46409523Y-37338704D02*
X46447618Y-37262514D01*
X46447618Y-37262514D02*
X46447618Y-37072038D01*
X46447618Y-37072038D02*
X46409523Y-36995847D01*
X46409523Y-36995847D02*
X46371428Y-36957752D01*
X46371428Y-36957752D02*
X46295237Y-36919657D01*
X46295237Y-36919657D02*
X46142856Y-36919657D01*
X46142856Y-36919657D02*
X46066666Y-36957752D01*
X46066666Y-36957752D02*
X46028571Y-36995847D01*
X46028571Y-36995847D02*
X45990475Y-37072038D01*
X46942857Y-36614895D02*
X47019047Y-36614895D01*
X47019047Y-36614895D02*
X47095238Y-36652990D01*
X47095238Y-36652990D02*
X47133333Y-36691085D01*
X47133333Y-36691085D02*
X47171428Y-36767276D01*
X47171428Y-36767276D02*
X47209523Y-36919657D01*
X47209523Y-36919657D02*
X47209523Y-37110133D01*
X47209523Y-37110133D02*
X47171428Y-37262514D01*
X47171428Y-37262514D02*
X47133333Y-37338704D01*
X47133333Y-37338704D02*
X47095238Y-37376800D01*
X47095238Y-37376800D02*
X47019047Y-37414895D01*
X47019047Y-37414895D02*
X46942857Y-37414895D01*
X46942857Y-37414895D02*
X46866666Y-37376800D01*
X46866666Y-37376800D02*
X46828571Y-37338704D01*
X46828571Y-37338704D02*
X46790476Y-37262514D01*
X46790476Y-37262514D02*
X46752380Y-37110133D01*
X46752380Y-37110133D02*
X46752380Y-36919657D01*
X46752380Y-36919657D02*
X46790476Y-36767276D01*
X46790476Y-36767276D02*
X46828571Y-36691085D01*
X46828571Y-36691085D02*
X46866666Y-36652990D01*
X46866666Y-36652990D02*
X46942857Y-36614895D01*
X8416667Y-13788704D02*
X8378571Y-13826800D01*
X8378571Y-13826800D02*
X8264286Y-13864895D01*
X8264286Y-13864895D02*
X8188095Y-13864895D01*
X8188095Y-13864895D02*
X8073809Y-13826800D01*
X8073809Y-13826800D02*
X7997619Y-13750609D01*
X7997619Y-13750609D02*
X7959524Y-13674419D01*
X7959524Y-13674419D02*
X7921428Y-13522038D01*
X7921428Y-13522038D02*
X7921428Y-13407752D01*
X7921428Y-13407752D02*
X7959524Y-13255371D01*
X7959524Y-13255371D02*
X7997619Y-13179180D01*
X7997619Y-13179180D02*
X8073809Y-13102990D01*
X8073809Y-13102990D02*
X8188095Y-13064895D01*
X8188095Y-13064895D02*
X8264286Y-13064895D01*
X8264286Y-13064895D02*
X8378571Y-13102990D01*
X8378571Y-13102990D02*
X8416667Y-13141085D01*
X8721428Y-13141085D02*
X8759524Y-13102990D01*
X8759524Y-13102990D02*
X8835714Y-13064895D01*
X8835714Y-13064895D02*
X9026190Y-13064895D01*
X9026190Y-13064895D02*
X9102381Y-13102990D01*
X9102381Y-13102990D02*
X9140476Y-13141085D01*
X9140476Y-13141085D02*
X9178571Y-13217276D01*
X9178571Y-13217276D02*
X9178571Y-13293466D01*
X9178571Y-13293466D02*
X9140476Y-13407752D01*
X9140476Y-13407752D02*
X8683333Y-13864895D01*
X8683333Y-13864895D02*
X9178571Y-13864895D01*
X28785714Y-18338704D02*
X28747618Y-18376800D01*
X28747618Y-18376800D02*
X28633333Y-18414895D01*
X28633333Y-18414895D02*
X28557142Y-18414895D01*
X28557142Y-18414895D02*
X28442856Y-18376800D01*
X28442856Y-18376800D02*
X28366666Y-18300609D01*
X28366666Y-18300609D02*
X28328571Y-18224419D01*
X28328571Y-18224419D02*
X28290475Y-18072038D01*
X28290475Y-18072038D02*
X28290475Y-17957752D01*
X28290475Y-17957752D02*
X28328571Y-17805371D01*
X28328571Y-17805371D02*
X28366666Y-17729180D01*
X28366666Y-17729180D02*
X28442856Y-17652990D01*
X28442856Y-17652990D02*
X28557142Y-17614895D01*
X28557142Y-17614895D02*
X28633333Y-17614895D01*
X28633333Y-17614895D02*
X28747618Y-17652990D01*
X28747618Y-17652990D02*
X28785714Y-17691085D01*
X29052380Y-17614895D02*
X29547618Y-17614895D01*
X29547618Y-17614895D02*
X29280952Y-17919657D01*
X29280952Y-17919657D02*
X29395237Y-17919657D01*
X29395237Y-17919657D02*
X29471428Y-17957752D01*
X29471428Y-17957752D02*
X29509523Y-17995847D01*
X29509523Y-17995847D02*
X29547618Y-18072038D01*
X29547618Y-18072038D02*
X29547618Y-18262514D01*
X29547618Y-18262514D02*
X29509523Y-18338704D01*
X29509523Y-18338704D02*
X29471428Y-18376800D01*
X29471428Y-18376800D02*
X29395237Y-18414895D01*
X29395237Y-18414895D02*
X29166666Y-18414895D01*
X29166666Y-18414895D02*
X29090475Y-18376800D01*
X29090475Y-18376800D02*
X29052380Y-18338704D01*
X29814285Y-17614895D02*
X30309523Y-17614895D01*
X30309523Y-17614895D02*
X30042857Y-17919657D01*
X30042857Y-17919657D02*
X30157142Y-17919657D01*
X30157142Y-17919657D02*
X30233333Y-17957752D01*
X30233333Y-17957752D02*
X30271428Y-17995847D01*
X30271428Y-17995847D02*
X30309523Y-18072038D01*
X30309523Y-18072038D02*
X30309523Y-18262514D01*
X30309523Y-18262514D02*
X30271428Y-18338704D01*
X30271428Y-18338704D02*
X30233333Y-18376800D01*
X30233333Y-18376800D02*
X30157142Y-18414895D01*
X30157142Y-18414895D02*
X29928571Y-18414895D01*
X29928571Y-18414895D02*
X29852380Y-18376800D01*
X29852380Y-18376800D02*
X29814285Y-18338704D01*
X15335714Y-14638704D02*
X15297618Y-14676800D01*
X15297618Y-14676800D02*
X15183333Y-14714895D01*
X15183333Y-14714895D02*
X15107142Y-14714895D01*
X15107142Y-14714895D02*
X14992856Y-14676800D01*
X14992856Y-14676800D02*
X14916666Y-14600609D01*
X14916666Y-14600609D02*
X14878571Y-14524419D01*
X14878571Y-14524419D02*
X14840475Y-14372038D01*
X14840475Y-14372038D02*
X14840475Y-14257752D01*
X14840475Y-14257752D02*
X14878571Y-14105371D01*
X14878571Y-14105371D02*
X14916666Y-14029180D01*
X14916666Y-14029180D02*
X14992856Y-13952990D01*
X14992856Y-13952990D02*
X15107142Y-13914895D01*
X15107142Y-13914895D02*
X15183333Y-13914895D01*
X15183333Y-13914895D02*
X15297618Y-13952990D01*
X15297618Y-13952990D02*
X15335714Y-13991085D01*
X15602380Y-13914895D02*
X16135714Y-13914895D01*
X16135714Y-13914895D02*
X15792856Y-14714895D01*
X16592857Y-13914895D02*
X16669047Y-13914895D01*
X16669047Y-13914895D02*
X16745238Y-13952990D01*
X16745238Y-13952990D02*
X16783333Y-13991085D01*
X16783333Y-13991085D02*
X16821428Y-14067276D01*
X16821428Y-14067276D02*
X16859523Y-14219657D01*
X16859523Y-14219657D02*
X16859523Y-14410133D01*
X16859523Y-14410133D02*
X16821428Y-14562514D01*
X16821428Y-14562514D02*
X16783333Y-14638704D01*
X16783333Y-14638704D02*
X16745238Y-14676800D01*
X16745238Y-14676800D02*
X16669047Y-14714895D01*
X16669047Y-14714895D02*
X16592857Y-14714895D01*
X16592857Y-14714895D02*
X16516666Y-14676800D01*
X16516666Y-14676800D02*
X16478571Y-14638704D01*
X16478571Y-14638704D02*
X16440476Y-14562514D01*
X16440476Y-14562514D02*
X16402380Y-14410133D01*
X16402380Y-14410133D02*
X16402380Y-14219657D01*
X16402380Y-14219657D02*
X16440476Y-14067276D01*
X16440476Y-14067276D02*
X16478571Y-13991085D01*
X16478571Y-13991085D02*
X16516666Y-13952990D01*
X16516666Y-13952990D02*
X16592857Y-13914895D01*
X23890476Y-3764895D02*
X23890476Y-4412514D01*
X23890476Y-4412514D02*
X23928571Y-4488704D01*
X23928571Y-4488704D02*
X23966666Y-4526800D01*
X23966666Y-4526800D02*
X24042857Y-4564895D01*
X24042857Y-4564895D02*
X24195238Y-4564895D01*
X24195238Y-4564895D02*
X24271428Y-4526800D01*
X24271428Y-4526800D02*
X24309523Y-4488704D01*
X24309523Y-4488704D02*
X24347619Y-4412514D01*
X24347619Y-4412514D02*
X24347619Y-3764895D01*
X25147618Y-4564895D02*
X24690475Y-4564895D01*
X24919047Y-4564895D02*
X24919047Y-3764895D01*
X24919047Y-3764895D02*
X24842856Y-3879180D01*
X24842856Y-3879180D02*
X24766666Y-3955371D01*
X24766666Y-3955371D02*
X24690475Y-3993466D01*
X40009524Y-26864894D02*
X40009524Y-27512513D01*
X40009524Y-27512513D02*
X40047619Y-27588703D01*
X40047619Y-27588703D02*
X40085714Y-27626799D01*
X40085714Y-27626799D02*
X40161905Y-27664894D01*
X40161905Y-27664894D02*
X40314286Y-27664894D01*
X40314286Y-27664894D02*
X40390476Y-27626799D01*
X40390476Y-27626799D02*
X40428571Y-27588703D01*
X40428571Y-27588703D02*
X40466667Y-27512513D01*
X40466667Y-27512513D02*
X40466667Y-26864894D01*
X41266666Y-27664894D02*
X40809523Y-27664894D01*
X41038095Y-27664894D02*
X41038095Y-26864894D01*
X41038095Y-26864894D02*
X40961904Y-26979179D01*
X40961904Y-26979179D02*
X40885714Y-27055370D01*
X40885714Y-27055370D02*
X40809523Y-27093465D01*
X41571428Y-26941084D02*
X41609524Y-26902989D01*
X41609524Y-26902989D02*
X41685714Y-26864894D01*
X41685714Y-26864894D02*
X41876190Y-26864894D01*
X41876190Y-26864894D02*
X41952381Y-26902989D01*
X41952381Y-26902989D02*
X41990476Y-26941084D01*
X41990476Y-26941084D02*
X42028571Y-27017275D01*
X42028571Y-27017275D02*
X42028571Y-27093465D01*
X42028571Y-27093465D02*
X41990476Y-27207751D01*
X41990476Y-27207751D02*
X41533333Y-27664894D01*
X41533333Y-27664894D02*
X42028571Y-27664894D01*
X43835713Y-23264895D02*
X43569046Y-22883942D01*
X43378570Y-23264895D02*
X43378570Y-22464895D01*
X43378570Y-22464895D02*
X43683332Y-22464895D01*
X43683332Y-22464895D02*
X43759522Y-22502990D01*
X43759522Y-22502990D02*
X43797617Y-22541085D01*
X43797617Y-22541085D02*
X43835713Y-22617276D01*
X43835713Y-22617276D02*
X43835713Y-22731561D01*
X43835713Y-22731561D02*
X43797617Y-22807752D01*
X43797617Y-22807752D02*
X43759522Y-22845847D01*
X43759522Y-22845847D02*
X43683332Y-22883942D01*
X43683332Y-22883942D02*
X43378570Y-22883942D01*
X44521427Y-22731561D02*
X44521427Y-23264895D01*
X44330951Y-22426800D02*
X44140474Y-22998228D01*
X44140474Y-22998228D02*
X44635713Y-22998228D01*
X45092856Y-22464895D02*
X45169046Y-22464895D01*
X45169046Y-22464895D02*
X45245237Y-22502990D01*
X45245237Y-22502990D02*
X45283332Y-22541085D01*
X45283332Y-22541085D02*
X45321427Y-22617276D01*
X45321427Y-22617276D02*
X45359522Y-22769657D01*
X45359522Y-22769657D02*
X45359522Y-22960133D01*
X45359522Y-22960133D02*
X45321427Y-23112514D01*
X45321427Y-23112514D02*
X45283332Y-23188704D01*
X45283332Y-23188704D02*
X45245237Y-23226800D01*
X45245237Y-23226800D02*
X45169046Y-23264895D01*
X45169046Y-23264895D02*
X45092856Y-23264895D01*
X45092856Y-23264895D02*
X45016665Y-23226800D01*
X45016665Y-23226800D02*
X44978570Y-23188704D01*
X44978570Y-23188704D02*
X44940475Y-23112514D01*
X44940475Y-23112514D02*
X44902379Y-22960133D01*
X44902379Y-22960133D02*
X44902379Y-22769657D01*
X44902379Y-22769657D02*
X44940475Y-22617276D01*
X44940475Y-22617276D02*
X44978570Y-22541085D01*
X44978570Y-22541085D02*
X45016665Y-22502990D01*
X45016665Y-22502990D02*
X45092856Y-22464895D01*
X20135714Y-37564895D02*
X19869047Y-37183942D01*
X19678571Y-37564895D02*
X19678571Y-36764895D01*
X19678571Y-36764895D02*
X19983333Y-36764895D01*
X19983333Y-36764895D02*
X20059523Y-36802990D01*
X20059523Y-36802990D02*
X20097618Y-36841085D01*
X20097618Y-36841085D02*
X20135714Y-36917276D01*
X20135714Y-36917276D02*
X20135714Y-37031561D01*
X20135714Y-37031561D02*
X20097618Y-37107752D01*
X20097618Y-37107752D02*
X20059523Y-37145847D01*
X20059523Y-37145847D02*
X19983333Y-37183942D01*
X19983333Y-37183942D02*
X19678571Y-37183942D01*
X20859523Y-36764895D02*
X20478571Y-36764895D01*
X20478571Y-36764895D02*
X20440475Y-37145847D01*
X20440475Y-37145847D02*
X20478571Y-37107752D01*
X20478571Y-37107752D02*
X20554761Y-37069657D01*
X20554761Y-37069657D02*
X20745237Y-37069657D01*
X20745237Y-37069657D02*
X20821428Y-37107752D01*
X20821428Y-37107752D02*
X20859523Y-37145847D01*
X20859523Y-37145847D02*
X20897618Y-37222038D01*
X20897618Y-37222038D02*
X20897618Y-37412514D01*
X20897618Y-37412514D02*
X20859523Y-37488704D01*
X20859523Y-37488704D02*
X20821428Y-37526800D01*
X20821428Y-37526800D02*
X20745237Y-37564895D01*
X20745237Y-37564895D02*
X20554761Y-37564895D01*
X20554761Y-37564895D02*
X20478571Y-37526800D01*
X20478571Y-37526800D02*
X20440475Y-37488704D01*
X21202380Y-36841085D02*
X21240476Y-36802990D01*
X21240476Y-36802990D02*
X21316666Y-36764895D01*
X21316666Y-36764895D02*
X21507142Y-36764895D01*
X21507142Y-36764895D02*
X21583333Y-36802990D01*
X21583333Y-36802990D02*
X21621428Y-36841085D01*
X21621428Y-36841085D02*
X21659523Y-36917276D01*
X21659523Y-36917276D02*
X21659523Y-36993466D01*
X21659523Y-36993466D02*
X21621428Y-37107752D01*
X21621428Y-37107752D02*
X21164285Y-37564895D01*
X21164285Y-37564895D02*
X21659523Y-37564895D01*
X12566667Y-28838704D02*
X12528571Y-28876800D01*
X12528571Y-28876800D02*
X12414286Y-28914895D01*
X12414286Y-28914895D02*
X12338095Y-28914895D01*
X12338095Y-28914895D02*
X12223809Y-28876800D01*
X12223809Y-28876800D02*
X12147619Y-28800609D01*
X12147619Y-28800609D02*
X12109524Y-28724419D01*
X12109524Y-28724419D02*
X12071428Y-28572038D01*
X12071428Y-28572038D02*
X12071428Y-28457752D01*
X12071428Y-28457752D02*
X12109524Y-28305371D01*
X12109524Y-28305371D02*
X12147619Y-28229180D01*
X12147619Y-28229180D02*
X12223809Y-28152990D01*
X12223809Y-28152990D02*
X12338095Y-28114895D01*
X12338095Y-28114895D02*
X12414286Y-28114895D01*
X12414286Y-28114895D02*
X12528571Y-28152990D01*
X12528571Y-28152990D02*
X12566667Y-28191085D01*
X13252381Y-28114895D02*
X13100000Y-28114895D01*
X13100000Y-28114895D02*
X13023809Y-28152990D01*
X13023809Y-28152990D02*
X12985714Y-28191085D01*
X12985714Y-28191085D02*
X12909524Y-28305371D01*
X12909524Y-28305371D02*
X12871428Y-28457752D01*
X12871428Y-28457752D02*
X12871428Y-28762514D01*
X12871428Y-28762514D02*
X12909524Y-28838704D01*
X12909524Y-28838704D02*
X12947619Y-28876800D01*
X12947619Y-28876800D02*
X13023809Y-28914895D01*
X13023809Y-28914895D02*
X13176190Y-28914895D01*
X13176190Y-28914895D02*
X13252381Y-28876800D01*
X13252381Y-28876800D02*
X13290476Y-28838704D01*
X13290476Y-28838704D02*
X13328571Y-28762514D01*
X13328571Y-28762514D02*
X13328571Y-28572038D01*
X13328571Y-28572038D02*
X13290476Y-28495847D01*
X13290476Y-28495847D02*
X13252381Y-28457752D01*
X13252381Y-28457752D02*
X13176190Y-28419657D01*
X13176190Y-28419657D02*
X13023809Y-28419657D01*
X13023809Y-28419657D02*
X12947619Y-28457752D01*
X12947619Y-28457752D02*
X12909524Y-28495847D01*
X12909524Y-28495847D02*
X12871428Y-28572038D01*
X24035714Y-30338704D02*
X23997618Y-30376800D01*
X23997618Y-30376800D02*
X23883333Y-30414895D01*
X23883333Y-30414895D02*
X23807142Y-30414895D01*
X23807142Y-30414895D02*
X23692856Y-30376800D01*
X23692856Y-30376800D02*
X23616666Y-30300609D01*
X23616666Y-30300609D02*
X23578571Y-30224419D01*
X23578571Y-30224419D02*
X23540475Y-30072038D01*
X23540475Y-30072038D02*
X23540475Y-29957752D01*
X23540475Y-29957752D02*
X23578571Y-29805371D01*
X23578571Y-29805371D02*
X23616666Y-29729180D01*
X23616666Y-29729180D02*
X23692856Y-29652990D01*
X23692856Y-29652990D02*
X23807142Y-29614895D01*
X23807142Y-29614895D02*
X23883333Y-29614895D01*
X23883333Y-29614895D02*
X23997618Y-29652990D01*
X23997618Y-29652990D02*
X24035714Y-29691085D01*
X24759523Y-29614895D02*
X24378571Y-29614895D01*
X24378571Y-29614895D02*
X24340475Y-29995847D01*
X24340475Y-29995847D02*
X24378571Y-29957752D01*
X24378571Y-29957752D02*
X24454761Y-29919657D01*
X24454761Y-29919657D02*
X24645237Y-29919657D01*
X24645237Y-29919657D02*
X24721428Y-29957752D01*
X24721428Y-29957752D02*
X24759523Y-29995847D01*
X24759523Y-29995847D02*
X24797618Y-30072038D01*
X24797618Y-30072038D02*
X24797618Y-30262514D01*
X24797618Y-30262514D02*
X24759523Y-30338704D01*
X24759523Y-30338704D02*
X24721428Y-30376800D01*
X24721428Y-30376800D02*
X24645237Y-30414895D01*
X24645237Y-30414895D02*
X24454761Y-30414895D01*
X24454761Y-30414895D02*
X24378571Y-30376800D01*
X24378571Y-30376800D02*
X24340475Y-30338704D01*
X25559523Y-30414895D02*
X25102380Y-30414895D01*
X25330952Y-30414895D02*
X25330952Y-29614895D01*
X25330952Y-29614895D02*
X25254761Y-29729180D01*
X25254761Y-29729180D02*
X25178571Y-29805371D01*
X25178571Y-29805371D02*
X25102380Y-29843466D01*
X10390476Y-4964895D02*
X10390476Y-5612514D01*
X10390476Y-5612514D02*
X10428571Y-5688704D01*
X10428571Y-5688704D02*
X10466666Y-5726800D01*
X10466666Y-5726800D02*
X10542857Y-5764895D01*
X10542857Y-5764895D02*
X10695238Y-5764895D01*
X10695238Y-5764895D02*
X10771428Y-5726800D01*
X10771428Y-5726800D02*
X10809523Y-5688704D01*
X10809523Y-5688704D02*
X10847619Y-5612514D01*
X10847619Y-5612514D02*
X10847619Y-4964895D01*
X11152380Y-4964895D02*
X11647618Y-4964895D01*
X11647618Y-4964895D02*
X11380952Y-5269657D01*
X11380952Y-5269657D02*
X11495237Y-5269657D01*
X11495237Y-5269657D02*
X11571428Y-5307752D01*
X11571428Y-5307752D02*
X11609523Y-5345847D01*
X11609523Y-5345847D02*
X11647618Y-5422038D01*
X11647618Y-5422038D02*
X11647618Y-5612514D01*
X11647618Y-5612514D02*
X11609523Y-5688704D01*
X11609523Y-5688704D02*
X11571428Y-5726800D01*
X11571428Y-5726800D02*
X11495237Y-5764895D01*
X11495237Y-5764895D02*
X11266666Y-5764895D01*
X11266666Y-5764895D02*
X11190475Y-5726800D01*
X11190475Y-5726800D02*
X11152380Y-5688704D01*
X13466667Y-14514895D02*
X13200000Y-14133942D01*
X13009524Y-14514895D02*
X13009524Y-13714895D01*
X13009524Y-13714895D02*
X13314286Y-13714895D01*
X13314286Y-13714895D02*
X13390476Y-13752990D01*
X13390476Y-13752990D02*
X13428571Y-13791085D01*
X13428571Y-13791085D02*
X13466667Y-13867276D01*
X13466667Y-13867276D02*
X13466667Y-13981561D01*
X13466667Y-13981561D02*
X13428571Y-14057752D01*
X13428571Y-14057752D02*
X13390476Y-14095847D01*
X13390476Y-14095847D02*
X13314286Y-14133942D01*
X13314286Y-14133942D02*
X13009524Y-14133942D01*
X13733333Y-13714895D02*
X14228571Y-13714895D01*
X14228571Y-13714895D02*
X13961905Y-14019657D01*
X13961905Y-14019657D02*
X14076190Y-14019657D01*
X14076190Y-14019657D02*
X14152381Y-14057752D01*
X14152381Y-14057752D02*
X14190476Y-14095847D01*
X14190476Y-14095847D02*
X14228571Y-14172038D01*
X14228571Y-14172038D02*
X14228571Y-14362514D01*
X14228571Y-14362514D02*
X14190476Y-14438704D01*
X14190476Y-14438704D02*
X14152381Y-14476800D01*
X14152381Y-14476800D02*
X14076190Y-14514895D01*
X14076190Y-14514895D02*
X13847619Y-14514895D01*
X13847619Y-14514895D02*
X13771428Y-14476800D01*
X13771428Y-14476800D02*
X13733333Y-14438704D01*
X13735714Y-2864895D02*
X13469047Y-2483942D01*
X13278571Y-2864895D02*
X13278571Y-2064895D01*
X13278571Y-2064895D02*
X13583333Y-2064895D01*
X13583333Y-2064895D02*
X13659523Y-2102990D01*
X13659523Y-2102990D02*
X13697618Y-2141085D01*
X13697618Y-2141085D02*
X13735714Y-2217276D01*
X13735714Y-2217276D02*
X13735714Y-2331561D01*
X13735714Y-2331561D02*
X13697618Y-2407752D01*
X13697618Y-2407752D02*
X13659523Y-2445847D01*
X13659523Y-2445847D02*
X13583333Y-2483942D01*
X13583333Y-2483942D02*
X13278571Y-2483942D01*
X14002380Y-2064895D02*
X14535714Y-2064895D01*
X14535714Y-2064895D02*
X14192856Y-2864895D01*
X15259523Y-2864895D02*
X14802380Y-2864895D01*
X15030952Y-2864895D02*
X15030952Y-2064895D01*
X15030952Y-2064895D02*
X14954761Y-2179180D01*
X14954761Y-2179180D02*
X14878571Y-2255371D01*
X14878571Y-2255371D02*
X14802380Y-2293466D01*
X23685714Y-40914895D02*
X23419047Y-40533942D01*
X23228571Y-40914895D02*
X23228571Y-40114895D01*
X23228571Y-40114895D02*
X23533333Y-40114895D01*
X23533333Y-40114895D02*
X23609523Y-40152990D01*
X23609523Y-40152990D02*
X23647618Y-40191085D01*
X23647618Y-40191085D02*
X23685714Y-40267276D01*
X23685714Y-40267276D02*
X23685714Y-40381561D01*
X23685714Y-40381561D02*
X23647618Y-40457752D01*
X23647618Y-40457752D02*
X23609523Y-40495847D01*
X23609523Y-40495847D02*
X23533333Y-40533942D01*
X23533333Y-40533942D02*
X23228571Y-40533942D01*
X24409523Y-40114895D02*
X24028571Y-40114895D01*
X24028571Y-40114895D02*
X23990475Y-40495847D01*
X23990475Y-40495847D02*
X24028571Y-40457752D01*
X24028571Y-40457752D02*
X24104761Y-40419657D01*
X24104761Y-40419657D02*
X24295237Y-40419657D01*
X24295237Y-40419657D02*
X24371428Y-40457752D01*
X24371428Y-40457752D02*
X24409523Y-40495847D01*
X24409523Y-40495847D02*
X24447618Y-40572038D01*
X24447618Y-40572038D02*
X24447618Y-40762514D01*
X24447618Y-40762514D02*
X24409523Y-40838704D01*
X24409523Y-40838704D02*
X24371428Y-40876800D01*
X24371428Y-40876800D02*
X24295237Y-40914895D01*
X24295237Y-40914895D02*
X24104761Y-40914895D01*
X24104761Y-40914895D02*
X24028571Y-40876800D01*
X24028571Y-40876800D02*
X23990475Y-40838704D01*
X24942857Y-40114895D02*
X25019047Y-40114895D01*
X25019047Y-40114895D02*
X25095238Y-40152990D01*
X25095238Y-40152990D02*
X25133333Y-40191085D01*
X25133333Y-40191085D02*
X25171428Y-40267276D01*
X25171428Y-40267276D02*
X25209523Y-40419657D01*
X25209523Y-40419657D02*
X25209523Y-40610133D01*
X25209523Y-40610133D02*
X25171428Y-40762514D01*
X25171428Y-40762514D02*
X25133333Y-40838704D01*
X25133333Y-40838704D02*
X25095238Y-40876800D01*
X25095238Y-40876800D02*
X25019047Y-40914895D01*
X25019047Y-40914895D02*
X24942857Y-40914895D01*
X24942857Y-40914895D02*
X24866666Y-40876800D01*
X24866666Y-40876800D02*
X24828571Y-40838704D01*
X24828571Y-40838704D02*
X24790476Y-40762514D01*
X24790476Y-40762514D02*
X24752380Y-40610133D01*
X24752380Y-40610133D02*
X24752380Y-40419657D01*
X24752380Y-40419657D02*
X24790476Y-40267276D01*
X24790476Y-40267276D02*
X24828571Y-40191085D01*
X24828571Y-40191085D02*
X24866666Y-40152990D01*
X24866666Y-40152990D02*
X24942857Y-40114895D01*
X38266667Y-13088704D02*
X38228571Y-13126800D01*
X38228571Y-13126800D02*
X38114286Y-13164895D01*
X38114286Y-13164895D02*
X38038095Y-13164895D01*
X38038095Y-13164895D02*
X37923809Y-13126800D01*
X37923809Y-13126800D02*
X37847619Y-13050609D01*
X37847619Y-13050609D02*
X37809524Y-12974419D01*
X37809524Y-12974419D02*
X37771428Y-12822038D01*
X37771428Y-12822038D02*
X37771428Y-12707752D01*
X37771428Y-12707752D02*
X37809524Y-12555371D01*
X37809524Y-12555371D02*
X37847619Y-12479180D01*
X37847619Y-12479180D02*
X37923809Y-12402990D01*
X37923809Y-12402990D02*
X38038095Y-12364895D01*
X38038095Y-12364895D02*
X38114286Y-12364895D01*
X38114286Y-12364895D02*
X38228571Y-12402990D01*
X38228571Y-12402990D02*
X38266667Y-12441085D01*
X38533333Y-12364895D02*
X39066667Y-12364895D01*
X39066667Y-12364895D02*
X38723809Y-13164895D01*
X31685714Y-18338704D02*
X31647618Y-18376800D01*
X31647618Y-18376800D02*
X31533333Y-18414895D01*
X31533333Y-18414895D02*
X31457142Y-18414895D01*
X31457142Y-18414895D02*
X31342856Y-18376800D01*
X31342856Y-18376800D02*
X31266666Y-18300609D01*
X31266666Y-18300609D02*
X31228571Y-18224419D01*
X31228571Y-18224419D02*
X31190475Y-18072038D01*
X31190475Y-18072038D02*
X31190475Y-17957752D01*
X31190475Y-17957752D02*
X31228571Y-17805371D01*
X31228571Y-17805371D02*
X31266666Y-17729180D01*
X31266666Y-17729180D02*
X31342856Y-17652990D01*
X31342856Y-17652990D02*
X31457142Y-17614895D01*
X31457142Y-17614895D02*
X31533333Y-17614895D01*
X31533333Y-17614895D02*
X31647618Y-17652990D01*
X31647618Y-17652990D02*
X31685714Y-17691085D01*
X31952380Y-17614895D02*
X32447618Y-17614895D01*
X32447618Y-17614895D02*
X32180952Y-17919657D01*
X32180952Y-17919657D02*
X32295237Y-17919657D01*
X32295237Y-17919657D02*
X32371428Y-17957752D01*
X32371428Y-17957752D02*
X32409523Y-17995847D01*
X32409523Y-17995847D02*
X32447618Y-18072038D01*
X32447618Y-18072038D02*
X32447618Y-18262514D01*
X32447618Y-18262514D02*
X32409523Y-18338704D01*
X32409523Y-18338704D02*
X32371428Y-18376800D01*
X32371428Y-18376800D02*
X32295237Y-18414895D01*
X32295237Y-18414895D02*
X32066666Y-18414895D01*
X32066666Y-18414895D02*
X31990475Y-18376800D01*
X31990475Y-18376800D02*
X31952380Y-18338704D01*
X33133333Y-17881561D02*
X33133333Y-18414895D01*
X32942857Y-17576800D02*
X32752380Y-18148228D01*
X32752380Y-18148228D02*
X33247619Y-18148228D01*
X18235714Y-15388704D02*
X18197618Y-15426800D01*
X18197618Y-15426800D02*
X18083333Y-15464895D01*
X18083333Y-15464895D02*
X18007142Y-15464895D01*
X18007142Y-15464895D02*
X17892856Y-15426800D01*
X17892856Y-15426800D02*
X17816666Y-15350609D01*
X17816666Y-15350609D02*
X17778571Y-15274419D01*
X17778571Y-15274419D02*
X17740475Y-15122038D01*
X17740475Y-15122038D02*
X17740475Y-15007752D01*
X17740475Y-15007752D02*
X17778571Y-14855371D01*
X17778571Y-14855371D02*
X17816666Y-14779180D01*
X17816666Y-14779180D02*
X17892856Y-14702990D01*
X17892856Y-14702990D02*
X18007142Y-14664895D01*
X18007142Y-14664895D02*
X18083333Y-14664895D01*
X18083333Y-14664895D02*
X18197618Y-14702990D01*
X18197618Y-14702990D02*
X18235714Y-14741085D01*
X18502380Y-14664895D02*
X18997618Y-14664895D01*
X18997618Y-14664895D02*
X18730952Y-14969657D01*
X18730952Y-14969657D02*
X18845237Y-14969657D01*
X18845237Y-14969657D02*
X18921428Y-15007752D01*
X18921428Y-15007752D02*
X18959523Y-15045847D01*
X18959523Y-15045847D02*
X18997618Y-15122038D01*
X18997618Y-15122038D02*
X18997618Y-15312514D01*
X18997618Y-15312514D02*
X18959523Y-15388704D01*
X18959523Y-15388704D02*
X18921428Y-15426800D01*
X18921428Y-15426800D02*
X18845237Y-15464895D01*
X18845237Y-15464895D02*
X18616666Y-15464895D01*
X18616666Y-15464895D02*
X18540475Y-15426800D01*
X18540475Y-15426800D02*
X18502380Y-15388704D01*
X19759523Y-15464895D02*
X19302380Y-15464895D01*
X19530952Y-15464895D02*
X19530952Y-14664895D01*
X19530952Y-14664895D02*
X19454761Y-14779180D01*
X19454761Y-14779180D02*
X19378571Y-14855371D01*
X19378571Y-14855371D02*
X19302380Y-14893466D01*
X20135714Y-35738704D02*
X20097618Y-35776800D01*
X20097618Y-35776800D02*
X19983333Y-35814895D01*
X19983333Y-35814895D02*
X19907142Y-35814895D01*
X19907142Y-35814895D02*
X19792856Y-35776800D01*
X19792856Y-35776800D02*
X19716666Y-35700609D01*
X19716666Y-35700609D02*
X19678571Y-35624419D01*
X19678571Y-35624419D02*
X19640475Y-35472038D01*
X19640475Y-35472038D02*
X19640475Y-35357752D01*
X19640475Y-35357752D02*
X19678571Y-35205371D01*
X19678571Y-35205371D02*
X19716666Y-35129180D01*
X19716666Y-35129180D02*
X19792856Y-35052990D01*
X19792856Y-35052990D02*
X19907142Y-35014895D01*
X19907142Y-35014895D02*
X19983333Y-35014895D01*
X19983333Y-35014895D02*
X20097618Y-35052990D01*
X20097618Y-35052990D02*
X20135714Y-35091085D01*
X20859523Y-35014895D02*
X20478571Y-35014895D01*
X20478571Y-35014895D02*
X20440475Y-35395847D01*
X20440475Y-35395847D02*
X20478571Y-35357752D01*
X20478571Y-35357752D02*
X20554761Y-35319657D01*
X20554761Y-35319657D02*
X20745237Y-35319657D01*
X20745237Y-35319657D02*
X20821428Y-35357752D01*
X20821428Y-35357752D02*
X20859523Y-35395847D01*
X20859523Y-35395847D02*
X20897618Y-35472038D01*
X20897618Y-35472038D02*
X20897618Y-35662514D01*
X20897618Y-35662514D02*
X20859523Y-35738704D01*
X20859523Y-35738704D02*
X20821428Y-35776800D01*
X20821428Y-35776800D02*
X20745237Y-35814895D01*
X20745237Y-35814895D02*
X20554761Y-35814895D01*
X20554761Y-35814895D02*
X20478571Y-35776800D01*
X20478571Y-35776800D02*
X20440475Y-35738704D01*
X21164285Y-35014895D02*
X21659523Y-35014895D01*
X21659523Y-35014895D02*
X21392857Y-35319657D01*
X21392857Y-35319657D02*
X21507142Y-35319657D01*
X21507142Y-35319657D02*
X21583333Y-35357752D01*
X21583333Y-35357752D02*
X21621428Y-35395847D01*
X21621428Y-35395847D02*
X21659523Y-35472038D01*
X21659523Y-35472038D02*
X21659523Y-35662514D01*
X21659523Y-35662514D02*
X21621428Y-35738704D01*
X21621428Y-35738704D02*
X21583333Y-35776800D01*
X21583333Y-35776800D02*
X21507142Y-35814895D01*
X21507142Y-35814895D02*
X21278571Y-35814895D01*
X21278571Y-35814895D02*
X21202380Y-35776800D01*
X21202380Y-35776800D02*
X21164285Y-35738704D01*
X28835714Y-23264895D02*
X28569047Y-22883942D01*
X28378571Y-23264895D02*
X28378571Y-22464895D01*
X28378571Y-22464895D02*
X28683333Y-22464895D01*
X28683333Y-22464895D02*
X28759523Y-22502990D01*
X28759523Y-22502990D02*
X28797618Y-22541085D01*
X28797618Y-22541085D02*
X28835714Y-22617276D01*
X28835714Y-22617276D02*
X28835714Y-22731561D01*
X28835714Y-22731561D02*
X28797618Y-22807752D01*
X28797618Y-22807752D02*
X28759523Y-22845847D01*
X28759523Y-22845847D02*
X28683333Y-22883942D01*
X28683333Y-22883942D02*
X28378571Y-22883942D01*
X29102380Y-22464895D02*
X29597618Y-22464895D01*
X29597618Y-22464895D02*
X29330952Y-22769657D01*
X29330952Y-22769657D02*
X29445237Y-22769657D01*
X29445237Y-22769657D02*
X29521428Y-22807752D01*
X29521428Y-22807752D02*
X29559523Y-22845847D01*
X29559523Y-22845847D02*
X29597618Y-22922038D01*
X29597618Y-22922038D02*
X29597618Y-23112514D01*
X29597618Y-23112514D02*
X29559523Y-23188704D01*
X29559523Y-23188704D02*
X29521428Y-23226800D01*
X29521428Y-23226800D02*
X29445237Y-23264895D01*
X29445237Y-23264895D02*
X29216666Y-23264895D01*
X29216666Y-23264895D02*
X29140475Y-23226800D01*
X29140475Y-23226800D02*
X29102380Y-23188704D01*
X30092857Y-22464895D02*
X30169047Y-22464895D01*
X30169047Y-22464895D02*
X30245238Y-22502990D01*
X30245238Y-22502990D02*
X30283333Y-22541085D01*
X30283333Y-22541085D02*
X30321428Y-22617276D01*
X30321428Y-22617276D02*
X30359523Y-22769657D01*
X30359523Y-22769657D02*
X30359523Y-22960133D01*
X30359523Y-22960133D02*
X30321428Y-23112514D01*
X30321428Y-23112514D02*
X30283333Y-23188704D01*
X30283333Y-23188704D02*
X30245238Y-23226800D01*
X30245238Y-23226800D02*
X30169047Y-23264895D01*
X30169047Y-23264895D02*
X30092857Y-23264895D01*
X30092857Y-23264895D02*
X30016666Y-23226800D01*
X30016666Y-23226800D02*
X29978571Y-23188704D01*
X29978571Y-23188704D02*
X29940476Y-23112514D01*
X29940476Y-23112514D02*
X29902380Y-22960133D01*
X29902380Y-22960133D02*
X29902380Y-22769657D01*
X29902380Y-22769657D02*
X29940476Y-22617276D01*
X29940476Y-22617276D02*
X29978571Y-22541085D01*
X29978571Y-22541085D02*
X30016666Y-22502990D01*
X30016666Y-22502990D02*
X30092857Y-22464895D01*
X35233333Y-39364895D02*
X35233333Y-39936323D01*
X35233333Y-39936323D02*
X35195238Y-40050609D01*
X35195238Y-40050609D02*
X35119047Y-40126800D01*
X35119047Y-40126800D02*
X35004762Y-40164895D01*
X35004762Y-40164895D02*
X34928571Y-40164895D01*
X35538095Y-39364895D02*
X36033333Y-39364895D01*
X36033333Y-39364895D02*
X35766667Y-39669657D01*
X35766667Y-39669657D02*
X35880952Y-39669657D01*
X35880952Y-39669657D02*
X35957143Y-39707752D01*
X35957143Y-39707752D02*
X35995238Y-39745847D01*
X35995238Y-39745847D02*
X36033333Y-39822038D01*
X36033333Y-39822038D02*
X36033333Y-40012514D01*
X36033333Y-40012514D02*
X35995238Y-40088704D01*
X35995238Y-40088704D02*
X35957143Y-40126800D01*
X35957143Y-40126800D02*
X35880952Y-40164895D01*
X35880952Y-40164895D02*
X35652381Y-40164895D01*
X35652381Y-40164895D02*
X35576190Y-40126800D01*
X35576190Y-40126800D02*
X35538095Y-40088704D01*
X4685714Y-26088704D02*
X4647618Y-26126800D01*
X4647618Y-26126800D02*
X4533333Y-26164895D01*
X4533333Y-26164895D02*
X4457142Y-26164895D01*
X4457142Y-26164895D02*
X4342856Y-26126800D01*
X4342856Y-26126800D02*
X4266666Y-26050609D01*
X4266666Y-26050609D02*
X4228571Y-25974419D01*
X4228571Y-25974419D02*
X4190475Y-25822038D01*
X4190475Y-25822038D02*
X4190475Y-25707752D01*
X4190475Y-25707752D02*
X4228571Y-25555371D01*
X4228571Y-25555371D02*
X4266666Y-25479180D01*
X4266666Y-25479180D02*
X4342856Y-25402990D01*
X4342856Y-25402990D02*
X4457142Y-25364895D01*
X4457142Y-25364895D02*
X4533333Y-25364895D01*
X4533333Y-25364895D02*
X4647618Y-25402990D01*
X4647618Y-25402990D02*
X4685714Y-25441085D01*
X4990475Y-25441085D02*
X5028571Y-25402990D01*
X5028571Y-25402990D02*
X5104761Y-25364895D01*
X5104761Y-25364895D02*
X5295237Y-25364895D01*
X5295237Y-25364895D02*
X5371428Y-25402990D01*
X5371428Y-25402990D02*
X5409523Y-25441085D01*
X5409523Y-25441085D02*
X5447618Y-25517276D01*
X5447618Y-25517276D02*
X5447618Y-25593466D01*
X5447618Y-25593466D02*
X5409523Y-25707752D01*
X5409523Y-25707752D02*
X4952380Y-26164895D01*
X4952380Y-26164895D02*
X5447618Y-26164895D01*
X6171428Y-25364895D02*
X5790476Y-25364895D01*
X5790476Y-25364895D02*
X5752380Y-25745847D01*
X5752380Y-25745847D02*
X5790476Y-25707752D01*
X5790476Y-25707752D02*
X5866666Y-25669657D01*
X5866666Y-25669657D02*
X6057142Y-25669657D01*
X6057142Y-25669657D02*
X6133333Y-25707752D01*
X6133333Y-25707752D02*
X6171428Y-25745847D01*
X6171428Y-25745847D02*
X6209523Y-25822038D01*
X6209523Y-25822038D02*
X6209523Y-26012514D01*
X6209523Y-26012514D02*
X6171428Y-26088704D01*
X6171428Y-26088704D02*
X6133333Y-26126800D01*
X6133333Y-26126800D02*
X6057142Y-26164895D01*
X6057142Y-26164895D02*
X5866666Y-26164895D01*
X5866666Y-26164895D02*
X5790476Y-26126800D01*
X5790476Y-26126800D02*
X5752380Y-26088704D01*
X39885714Y-14614895D02*
X39619047Y-14233942D01*
X39428571Y-14614895D02*
X39428571Y-13814895D01*
X39428571Y-13814895D02*
X39733333Y-13814895D01*
X39733333Y-13814895D02*
X39809523Y-13852990D01*
X39809523Y-13852990D02*
X39847618Y-13891085D01*
X39847618Y-13891085D02*
X39885714Y-13967276D01*
X39885714Y-13967276D02*
X39885714Y-14081561D01*
X39885714Y-14081561D02*
X39847618Y-14157752D01*
X39847618Y-14157752D02*
X39809523Y-14195847D01*
X39809523Y-14195847D02*
X39733333Y-14233942D01*
X39733333Y-14233942D02*
X39428571Y-14233942D01*
X40647618Y-14614895D02*
X40190475Y-14614895D01*
X40419047Y-14614895D02*
X40419047Y-13814895D01*
X40419047Y-13814895D02*
X40342856Y-13929180D01*
X40342856Y-13929180D02*
X40266666Y-14005371D01*
X40266666Y-14005371D02*
X40190475Y-14043466D01*
X41142857Y-13814895D02*
X41219047Y-13814895D01*
X41219047Y-13814895D02*
X41295238Y-13852990D01*
X41295238Y-13852990D02*
X41333333Y-13891085D01*
X41333333Y-13891085D02*
X41371428Y-13967276D01*
X41371428Y-13967276D02*
X41409523Y-14119657D01*
X41409523Y-14119657D02*
X41409523Y-14310133D01*
X41409523Y-14310133D02*
X41371428Y-14462514D01*
X41371428Y-14462514D02*
X41333333Y-14538704D01*
X41333333Y-14538704D02*
X41295238Y-14576800D01*
X41295238Y-14576800D02*
X41219047Y-14614895D01*
X41219047Y-14614895D02*
X41142857Y-14614895D01*
X41142857Y-14614895D02*
X41066666Y-14576800D01*
X41066666Y-14576800D02*
X41028571Y-14538704D01*
X41028571Y-14538704D02*
X40990476Y-14462514D01*
X40990476Y-14462514D02*
X40952380Y-14310133D01*
X40952380Y-14310133D02*
X40952380Y-14119657D01*
X40952380Y-14119657D02*
X40990476Y-13967276D01*
X40990476Y-13967276D02*
X41028571Y-13891085D01*
X41028571Y-13891085D02*
X41066666Y-13852990D01*
X41066666Y-13852990D02*
X41142857Y-13814895D01*
%TO.C,U11*%
D12*
X42090000Y-34440000D02*
X43910000Y-34440000D01*
X42090000Y-34490000D02*
X42090000Y-34440000D01*
X42090000Y-37560000D02*
X42090000Y-37510000D01*
X43910000Y-34440000D02*
X43910000Y-34490000D01*
X43910000Y-35610000D02*
X43910000Y-36390000D01*
X43910000Y-37510000D02*
X43910000Y-37560000D01*
X43910000Y-37560000D02*
X42090000Y-37560000D01*
X41550000Y-34490000D02*
X41310000Y-34160000D01*
X41790000Y-34160000D01*
X41550000Y-34490000D01*
G36*
X41550000Y-34490000D02*
G01*
X41310000Y-34160000D01*
X41790000Y-34160000D01*
X41550000Y-34490000D01*
G37*
%TO.C,C43*%
X42865000Y-20761252D02*
X42865000Y-20238748D01*
X44335000Y-20761252D02*
X44335000Y-20238748D01*
%TO.C,R2*%
X14762742Y-8727500D02*
X15237258Y-8727500D01*
X14762742Y-9772500D02*
X15237258Y-9772500D01*
%TO.C,U7*%
X36350000Y-24650000D02*
X36350000Y-24400000D01*
X36350000Y-24650000D02*
X37015000Y-24650000D01*
X36700000Y-21350000D02*
X37015000Y-21350000D01*
X38985000Y-21350000D02*
X39650000Y-21350000D01*
X38985000Y-24650000D02*
X39650000Y-24650000D01*
X39650000Y-21600000D02*
X39650000Y-21350000D01*
X39650000Y-24400000D02*
X39650000Y-24650000D01*
X36190000Y-21580000D02*
X35950000Y-21250000D01*
X36430000Y-21250000D01*
X36190000Y-21580000D01*
G36*
X36190000Y-21580000D02*
G01*
X35950000Y-21250000D01*
X36430000Y-21250000D01*
X36190000Y-21580000D01*
G37*
%TO.C,R14*%
X36762742Y-4977500D02*
X37237258Y-4977500D01*
X36762742Y-6022500D02*
X37237258Y-6022500D01*
%TO.C,Q4*%
X5940000Y-10240000D02*
X6940000Y-10240000D01*
X5940000Y-11760000D02*
X5940000Y-10240000D01*
X5990000Y-11760000D02*
X5940000Y-11760000D01*
X7890000Y-11760000D02*
X7110000Y-11760000D01*
X8060000Y-10240000D02*
X9060000Y-10240000D01*
X9060000Y-10240000D02*
X9060000Y-11760000D01*
X9060000Y-11760000D02*
X9010000Y-11760000D01*
X7120000Y-12300000D02*
X7450000Y-12060000D01*
X7450000Y-12540000D01*
X7120000Y-12300000D01*
G36*
X7450000Y-12540000D02*
G01*
X7120000Y-12300000D01*
X7450000Y-12060000D01*
X7450000Y-12540000D01*
G37*
%TO.C,Q1*%
D13*
X4700000Y-33900000D02*
X6300000Y-33900000D01*
X4700000Y-37100000D02*
X6300000Y-37100000D01*
D14*
X3172000Y-34555000D02*
G75*
G02*
X2972000Y-34555000I-100000J0D01*
G01*
X2972000Y-34555000D02*
G75*
G02*
X3172000Y-34555000I100000J0D01*
G01*
%TO.C,F1*%
D12*
X12147936Y-29590000D02*
X13352064Y-29590000D01*
X12147936Y-31410000D02*
X13352064Y-31410000D01*
%TO.C,J4*%
X18940000Y-43750000D02*
X19550000Y-43750000D01*
X18940000Y-45050000D02*
X19550000Y-45050000D01*
X19550000Y-42250000D02*
X19550000Y-45750000D01*
X19550000Y-45750000D02*
X21500000Y-45750000D01*
X21500000Y-45750000D02*
X21500000Y-46360000D01*
X21900000Y-42750000D02*
X21900000Y-42250000D01*
X22000000Y-42250000D02*
X22000000Y-42750000D01*
X22100000Y-42250000D02*
X22100000Y-42750000D01*
X22100000Y-42750000D02*
X21900000Y-42750000D01*
X22500000Y-45750000D02*
X24450000Y-45750000D01*
X22500000Y-46360000D02*
X22500000Y-45750000D01*
X23300000Y-46360000D02*
X23300000Y-46560000D01*
X23300000Y-46460000D02*
X23600000Y-46460000D01*
X23300000Y-46560000D02*
X23600000Y-46560000D01*
X23600000Y-46560000D02*
X23600000Y-46360000D01*
X24110000Y-46660000D02*
X25360000Y-46660000D01*
X24450000Y-42250000D02*
X19550000Y-42250000D01*
X24450000Y-45750000D02*
X24450000Y-42250000D01*
X25060000Y-43750000D02*
X24450000Y-43750000D01*
X25060000Y-45050000D02*
X24450000Y-45050000D01*
X25360000Y-46660000D02*
X25360000Y-45410000D01*
X18940000Y-41640000D02*
X25060000Y-41640000D01*
X25060000Y-46360000D01*
X18940000Y-46360000D01*
X18940000Y-41640000D01*
%TO.C,R21*%
X14577500Y-24762742D02*
X14577500Y-25237258D01*
X15622500Y-24762742D02*
X15622500Y-25237258D01*
%TO.C,C44*%
X45065000Y-20761252D02*
X45065000Y-20238748D01*
X46535000Y-20761252D02*
X46535000Y-20238748D01*
%TO.C,C72*%
X19859420Y-9240000D02*
X20140580Y-9240000D01*
X19859420Y-10260000D02*
X20140580Y-10260000D01*
%TO.C,R1*%
X14762742Y-10477500D02*
X15237258Y-10477500D01*
X14762742Y-11522500D02*
X15237258Y-11522500D01*
%TO.C,R70*%
X19762742Y-10977500D02*
X20237258Y-10977500D01*
X19762742Y-12022500D02*
X20237258Y-12022500D01*
%TO.C,C48*%
X40990000Y-24859420D02*
X40990000Y-25140580D01*
X42010000Y-24859420D02*
X42010000Y-25140580D01*
%TO.C,C9*%
X32609420Y-11990000D02*
X32890580Y-11990000D01*
X32609420Y-13010000D02*
X32890580Y-13010000D01*
%TO.C,R9*%
X15727500Y-30487258D02*
X15727500Y-30012742D01*
X16772500Y-30487258D02*
X16772500Y-30012742D01*
%TO.C,R61*%
X38762742Y-33977500D02*
X39237258Y-33977500D01*
X38762742Y-35022500D02*
X39237258Y-35022500D01*
%TO.C,R12*%
X39012742Y-6977500D02*
X39487258Y-6977500D01*
X39012742Y-8022500D02*
X39487258Y-8022500D01*
%TO.C,R64*%
X38762742Y-35727500D02*
X39237258Y-35727500D01*
X38762742Y-36772500D02*
X39237258Y-36772500D01*
%TO.C,C71*%
X24859420Y-10740000D02*
X25140580Y-10740000D01*
X24859420Y-11760000D02*
X25140580Y-11760000D01*
%TO.C,R53*%
X23512742Y-38477500D02*
X23987258Y-38477500D01*
X23512742Y-39522500D02*
X23987258Y-39522500D01*
%TO.C,L2*%
X20846000Y-16096000D02*
X25154000Y-16096000D01*
X25154000Y-20404000D02*
X20846000Y-20404000D01*
%TO.C,R6*%
X28762742Y-13227500D02*
X29237258Y-13227500D01*
X28762742Y-14272500D02*
X29237258Y-14272500D01*
%TO.C,R54*%
X30012742Y-38477500D02*
X30487258Y-38477500D01*
X30012742Y-39522500D02*
X30487258Y-39522500D01*
%TO.C,Q5*%
X38940000Y-2990000D02*
X39940000Y-2990000D01*
X38940000Y-4510000D02*
X38940000Y-2990000D01*
X38990000Y-4510000D02*
X38940000Y-4510000D01*
X40890000Y-4510000D02*
X40110000Y-4510000D01*
X41060000Y-2990000D02*
X42060000Y-2990000D01*
X42060000Y-2990000D02*
X42060000Y-4510000D01*
X42060000Y-4510000D02*
X42010000Y-4510000D01*
X40120000Y-5050000D02*
X40450000Y-4810000D01*
X40450000Y-5290000D01*
X40120000Y-5050000D01*
G36*
X40450000Y-5290000D02*
G01*
X40120000Y-5050000D01*
X40450000Y-4810000D01*
X40450000Y-5290000D01*
G37*
%TO.C,R20*%
X12777500Y-25237258D02*
X12777500Y-24762742D01*
X13822500Y-25237258D02*
X13822500Y-24762742D01*
%TO.C,C32*%
X25665000Y-20761252D02*
X25665000Y-20238748D01*
X27135000Y-20761252D02*
X27135000Y-20238748D01*
%TO.C,C60*%
X44240000Y-30140580D02*
X44240000Y-29859420D01*
X45260000Y-30140580D02*
X45260000Y-29859420D01*
%TO.C,R72*%
X20262742Y-12727500D02*
X20737258Y-12727500D01*
X20262742Y-13772500D02*
X20737258Y-13772500D01*
%TO.C,SW1*%
X44225000Y-6400000D02*
X46525000Y-6400000D01*
X44225000Y-7600000D02*
X44225000Y-6400000D01*
X44225000Y-9400000D02*
X44225000Y-10100000D01*
X44225000Y-11900000D02*
X44225000Y-12600000D01*
X44225000Y-15600000D02*
X44225000Y-14400000D01*
X46525000Y-15600000D02*
X44225000Y-15600000D01*
%TO.C,Q2*%
D13*
X9700000Y-33900000D02*
X11300000Y-33900000D01*
X9700000Y-37100000D02*
X11300000Y-37100000D01*
D14*
X8172000Y-34555000D02*
G75*
G02*
X7972000Y-34555000I-100000J0D01*
G01*
X7972000Y-34555000D02*
G75*
G02*
X8172000Y-34555000I100000J0D01*
G01*
%TO.C,C22*%
D12*
X10665000Y-20761252D02*
X10665000Y-20238748D01*
X12135000Y-20761252D02*
X12135000Y-20238748D01*
%TO.C,U13*%
D10*
X22430000Y-3850000D02*
G75*
G02*
X22330000Y-3850000I-50000J0D01*
G01*
X22330000Y-3850000D02*
G75*
G02*
X22430000Y-3850000I50000J0D01*
G01*
%TO.C,U9*%
D12*
X26090000Y-31440000D02*
X27910000Y-31440000D01*
X26090000Y-31490000D02*
X26090000Y-31440000D01*
X26090000Y-34560000D02*
X26090000Y-34510000D01*
X27910000Y-31440000D02*
X27910000Y-31490000D01*
X27910000Y-34510000D02*
X27910000Y-34560000D01*
X27910000Y-34560000D02*
X26090000Y-34560000D01*
X25550000Y-31490000D02*
X25310000Y-31160000D01*
X25790000Y-31160000D01*
X25550000Y-31490000D01*
G36*
X25550000Y-31490000D02*
G01*
X25310000Y-31160000D01*
X25790000Y-31160000D01*
X25550000Y-31490000D01*
G37*
%TO.C,C35*%
X23140580Y-25990000D02*
X22859420Y-25990000D01*
X23140580Y-27010000D02*
X22859420Y-27010000D01*
%TO.C,C40*%
X34011252Y-21765000D02*
X33488748Y-21765000D01*
X34011252Y-23235000D02*
X33488748Y-23235000D01*
%TO.C,R4*%
X28762742Y-9727500D02*
X29237258Y-9727500D01*
X28762742Y-10772500D02*
X29237258Y-10772500D01*
%TO.C,R63*%
X45977500Y-30237258D02*
X45977500Y-29762742D01*
X47022500Y-30237258D02*
X47022500Y-29762742D01*
%TO.C,C4*%
X23765000Y-8761252D02*
X23765000Y-8238748D01*
X25235000Y-8761252D02*
X25235000Y-8238748D01*
%TO.C,R62*%
X36727500Y-32237258D02*
X36727500Y-31762742D01*
X37772500Y-32237258D02*
X37772500Y-31762742D01*
%TO.C,L1*%
X5846000Y-16096000D02*
X10154000Y-16096000D01*
X10154000Y-20404000D02*
X5846000Y-20404000D01*
%TO.C,C42*%
X40665000Y-20761252D02*
X40665000Y-20238748D01*
X42135000Y-20761252D02*
X42135000Y-20238748D01*
%TO.C,C52*%
X26859420Y-37240000D02*
X27140580Y-37240000D01*
X26859420Y-38260000D02*
X27140580Y-38260000D01*
%TO.C,R66*%
X36262742Y-28977500D02*
X36737258Y-28977500D01*
X36262742Y-30022500D02*
X36737258Y-30022500D01*
%TO.C,R51*%
X30727500Y-36237258D02*
X30727500Y-35762742D01*
X31772500Y-36237258D02*
X31772500Y-35762742D01*
%TO.C,C54*%
X28990000Y-36640580D02*
X28990000Y-36359420D01*
X30010000Y-36640580D02*
X30010000Y-36359420D01*
%TO.C,C41*%
X34011252Y-19265000D02*
X33488748Y-19265000D01*
X34011252Y-20735000D02*
X33488748Y-20735000D01*
%TO.C,U4*%
X35304432Y-9865000D02*
X37110000Y-9865000D01*
X37110000Y-12135000D02*
X34890000Y-12135000D01*
X35010000Y-9860000D02*
X34870000Y-9670000D01*
X35150000Y-9670000D01*
X35010000Y-9860000D01*
G36*
X35010000Y-9860000D02*
G01*
X34870000Y-9670000D01*
X35150000Y-9670000D01*
X35010000Y-9860000D01*
G37*
%TO.C,R75*%
X36227500Y-3237258D02*
X36227500Y-2762742D01*
X37272500Y-3237258D02*
X37272500Y-2762742D01*
%TO.C,C5*%
X30765000Y-7261252D02*
X30765000Y-6738748D01*
X32235000Y-7261252D02*
X32235000Y-6738748D01*
%TO.C,Q3*%
D13*
X14700000Y-33900000D02*
X16300000Y-33900000D01*
X14700000Y-37100000D02*
X16300000Y-37100000D01*
D14*
X13172000Y-34555000D02*
G75*
G02*
X12972000Y-34555000I-100000J0D01*
G01*
X12972000Y-34555000D02*
G75*
G02*
X13172000Y-34555000I100000J0D01*
G01*
%TO.C,U5*%
D12*
X6350000Y-24650000D02*
X6350000Y-24400000D01*
X6350000Y-24650000D02*
X7015000Y-24650000D01*
X6700000Y-21350000D02*
X7015000Y-21350000D01*
X8985000Y-21350000D02*
X9650000Y-21350000D01*
X8985000Y-24650000D02*
X9650000Y-24650000D01*
X9650000Y-21600000D02*
X9650000Y-21350000D01*
X9650000Y-24400000D02*
X9650000Y-24650000D01*
X6190000Y-21580000D02*
X5950000Y-21250000D01*
X6430000Y-21250000D01*
X6190000Y-21580000D01*
G36*
X6190000Y-21580000D02*
G01*
X5950000Y-21250000D01*
X6430000Y-21250000D01*
X6190000Y-21580000D01*
G37*
%TO.C,C24*%
X15065000Y-20761252D02*
X15065000Y-20238748D01*
X16535000Y-20761252D02*
X16535000Y-20238748D01*
%TO.C,U8*%
X21090000Y-31440000D02*
X22910000Y-31440000D01*
X21090000Y-31490000D02*
X21090000Y-31440000D01*
X21090000Y-34560000D02*
X21090000Y-34510000D01*
X22910000Y-31440000D02*
X22910000Y-31490000D01*
X22910000Y-34510000D02*
X22910000Y-34560000D01*
X22910000Y-34560000D02*
X21090000Y-34560000D01*
X20550000Y-31490000D02*
X20310000Y-31160000D01*
X20790000Y-31160000D01*
X20550000Y-31490000D01*
G36*
X20550000Y-31490000D02*
G01*
X20310000Y-31160000D01*
X20790000Y-31160000D01*
X20550000Y-31490000D01*
G37*
%TO.C,R11*%
X36227500Y-8237258D02*
X36227500Y-7762742D01*
X37272500Y-8237258D02*
X37272500Y-7762742D01*
%TO.C,U2*%
X7090000Y-29940000D02*
X8910000Y-29940000D01*
X7090000Y-29990000D02*
X7090000Y-29940000D01*
X7090000Y-33060000D02*
X7090000Y-33010000D01*
X8910000Y-29940000D02*
X8910000Y-29990000D01*
X8910000Y-33010000D02*
X8910000Y-33060000D01*
X8910000Y-33060000D02*
X7090000Y-33060000D01*
X6550000Y-29990000D02*
X6310000Y-29660000D01*
X6790000Y-29660000D01*
X6550000Y-29990000D01*
G36*
X6550000Y-29990000D02*
G01*
X6310000Y-29660000D01*
X6790000Y-29660000D01*
X6550000Y-29990000D01*
G37*
%TO.C,C38*%
X25990000Y-24859420D02*
X25990000Y-25140580D01*
X27010000Y-24859420D02*
X27010000Y-25140580D01*
%TO.C,C3*%
X28738748Y-2765000D02*
X29261252Y-2765000D01*
X28738748Y-4235000D02*
X29261252Y-4235000D01*
%TO.C,J1*%
X7300000Y-5120000D02*
X7300000Y-3340000D01*
X14800000Y-8040000D02*
X15600000Y-8040000D01*
X16700000Y-5120000D02*
X16700000Y-3340000D01*
%TO.C,R41*%
X44577500Y-24762742D02*
X44577500Y-25237258D01*
X45622500Y-24762742D02*
X45622500Y-25237258D01*
%TO.C,R73*%
X25477500Y-3237258D02*
X25477500Y-2762742D01*
X26522500Y-3237258D02*
X26522500Y-2762742D01*
%TO.C,L3*%
X35846000Y-16096000D02*
X40154000Y-16096000D01*
X40154000Y-20404000D02*
X35846000Y-20404000D01*
%TO.C,U6*%
X21350000Y-24650000D02*
X21350000Y-24400000D01*
X21350000Y-24650000D02*
X22015000Y-24650000D01*
X21700000Y-21350000D02*
X22015000Y-21350000D01*
X23985000Y-21350000D02*
X24650000Y-21350000D01*
X23985000Y-24650000D02*
X24650000Y-24650000D01*
X24650000Y-21600000D02*
X24650000Y-21350000D01*
X24650000Y-24400000D02*
X24650000Y-24650000D01*
X21190000Y-21580000D02*
X20950000Y-21250000D01*
X21430000Y-21250000D01*
X21190000Y-21580000D01*
G36*
X21190000Y-21580000D02*
G01*
X20950000Y-21250000D01*
X21430000Y-21250000D01*
X21190000Y-21580000D01*
G37*
%TO.C,U10*%
X31090000Y-30440000D02*
X32910000Y-30440000D01*
X31090000Y-30490000D02*
X31090000Y-30440000D01*
X31090000Y-33560000D02*
X31090000Y-33510000D01*
X32910000Y-30440000D02*
X32910000Y-30490000D01*
X32910000Y-33510000D02*
X32910000Y-33560000D01*
X32910000Y-33560000D02*
X31090000Y-33560000D01*
X30550000Y-30490000D02*
X30310000Y-30160000D01*
X30790000Y-30160000D01*
X30550000Y-30490000D01*
G36*
X30550000Y-30490000D02*
G01*
X30310000Y-30160000D01*
X30790000Y-30160000D01*
X30550000Y-30490000D01*
G37*
%TO.C,R43*%
X46262742Y-26977500D02*
X46737258Y-26977500D01*
X46262742Y-28022500D02*
X46737258Y-28022500D01*
%TO.C,C28*%
X10990000Y-24859420D02*
X10990000Y-25140580D01*
X12010000Y-24859420D02*
X12010000Y-25140580D01*
%TO.C,C21*%
X4011252Y-19265000D02*
X3488748Y-19265000D01*
X4011252Y-20735000D02*
X3488748Y-20735000D01*
%TO.C,C30*%
X19011252Y-21765000D02*
X18488748Y-21765000D01*
X19011252Y-23235000D02*
X18488748Y-23235000D01*
%TO.C,R8*%
X15012742Y-32227500D02*
X15487258Y-32227500D01*
X15012742Y-33272500D02*
X15487258Y-33272500D01*
%TO.C,R65*%
X45727500Y-35237258D02*
X45727500Y-34762742D01*
X46772500Y-35237258D02*
X46772500Y-34762742D01*
%TO.C,C20*%
X4011252Y-21765000D02*
X3488748Y-21765000D01*
X4011252Y-23235000D02*
X3488748Y-23235000D01*
%TO.C,D1*%
X2100000Y-14510000D02*
X2100000Y-9000000D01*
X2100000Y-14510000D02*
X5400000Y-14510000D01*
X5400000Y-14510000D02*
X5400000Y-9000000D01*
%TO.C,C8*%
X38015000Y-10511252D02*
X38015000Y-9988748D01*
X39485000Y-10511252D02*
X39485000Y-9988748D01*
%TO.C,C23*%
X12865000Y-20761252D02*
X12865000Y-20238748D01*
X14335000Y-20761252D02*
X14335000Y-20238748D01*
%TO.C,J2*%
X6460000Y-38140000D02*
X14540000Y-38140000D01*
X6460000Y-45160000D02*
X6460000Y-38140000D01*
X7660000Y-45160000D02*
X6460000Y-45160000D01*
X7660000Y-46860000D02*
X7660000Y-45160000D01*
X13340000Y-45160000D02*
X13340000Y-46860000D01*
X13340000Y-46860000D02*
X7660000Y-46860000D01*
X14540000Y-38140000D02*
X14540000Y-45160000D01*
X14540000Y-45160000D02*
X13340000Y-45160000D01*
X14740000Y-43050000D02*
X15340000Y-42750000D01*
X15340000Y-42750000D02*
X15340000Y-43350000D01*
X15340000Y-43350000D02*
X14740000Y-43050000D01*
%TO.C,R31*%
X29577500Y-24762742D02*
X29577500Y-25237258D01*
X30622500Y-24762742D02*
X30622500Y-25237258D01*
%TO.C,U14*%
X19090000Y-5440000D02*
X20910000Y-5440000D01*
X19090000Y-5490000D02*
X19090000Y-5440000D01*
X19090000Y-8560000D02*
X19090000Y-8510000D01*
X20910000Y-5440000D02*
X20910000Y-5490000D01*
X20910000Y-6610000D02*
X20910000Y-7390000D01*
X20910000Y-8510000D02*
X20910000Y-8560000D01*
X20910000Y-8560000D02*
X19090000Y-8560000D01*
X18550000Y-5490000D02*
X18310000Y-5160000D01*
X18790000Y-5160000D01*
X18550000Y-5490000D01*
G36*
X18550000Y-5490000D02*
G01*
X18310000Y-5160000D01*
X18790000Y-5160000D01*
X18550000Y-5490000D01*
G37*
%TO.C,C45*%
X38140580Y-25990000D02*
X37859420Y-25990000D01*
X38140580Y-27010000D02*
X37859420Y-27010000D01*
%TO.C,R60*%
X45262742Y-31977500D02*
X45737258Y-31977500D01*
X45262742Y-33022500D02*
X45737258Y-33022500D01*
%TO.C,LED1*%
X32865000Y-4150000D02*
X32865000Y-8035000D01*
X32865000Y-8035000D02*
X35135000Y-8035000D01*
X35135000Y-8035000D02*
X35135000Y-4150000D01*
%TO.C,C2*%
X10859420Y-12990000D02*
X11140580Y-12990000D01*
X10859420Y-14010000D02*
X11140580Y-14010000D01*
%TO.C,C33*%
X27865000Y-20761252D02*
X27865000Y-20238748D01*
X29335000Y-20761252D02*
X29335000Y-20238748D01*
%TO.C,C70*%
X21990000Y-10640580D02*
X21990000Y-10359420D01*
X23010000Y-10640580D02*
X23010000Y-10359420D01*
%TO.C,U1*%
X26390000Y-5390000D02*
X26865000Y-5390000D01*
X26390000Y-5865000D02*
X26390000Y-5390000D01*
X26390000Y-8610000D02*
X26390000Y-8135000D01*
X26865000Y-8610000D02*
X26390000Y-8610000D01*
X29135000Y-5390000D02*
X29610000Y-5390000D01*
X29610000Y-5390000D02*
X29610000Y-5865000D01*
X29610000Y-8135000D02*
X29610000Y-8610000D01*
X29610000Y-8610000D02*
X29135000Y-8610000D01*
X25860000Y-6250000D02*
X25530000Y-6490000D01*
X25530000Y-6010000D01*
X25860000Y-6250000D01*
G36*
X25860000Y-6250000D02*
G01*
X25530000Y-6490000D01*
X25530000Y-6010000D01*
X25860000Y-6250000D01*
G37*
%TO.C,U12*%
X38890000Y-28690000D02*
X39615000Y-28690000D01*
X38890000Y-29415000D02*
X38890000Y-28690000D01*
X38890000Y-32910000D02*
X38890000Y-32185000D01*
X39615000Y-32910000D02*
X38890000Y-32910000D01*
X42385000Y-28690000D02*
X43110000Y-28690000D01*
X43110000Y-28690000D02*
X43110000Y-29415000D01*
X43110000Y-32185000D02*
X43110000Y-32910000D01*
X43110000Y-32910000D02*
X42385000Y-32910000D01*
X38360000Y-29800000D02*
X38030000Y-30040000D01*
X38030000Y-29560000D01*
X38360000Y-29800000D01*
G36*
X38360000Y-29800000D02*
G01*
X38030000Y-30040000D01*
X38030000Y-29560000D01*
X38360000Y-29800000D01*
G37*
%TO.C,R40*%
X42777500Y-25237258D02*
X42777500Y-24762742D01*
X43822500Y-25237258D02*
X43822500Y-24762742D01*
%TO.C,R52*%
X22227500Y-36737258D02*
X22227500Y-36262742D01*
X23272500Y-36737258D02*
X23272500Y-36262742D01*
%TO.C,C6*%
X11859420Y-32240000D02*
X12140580Y-32240000D01*
X11859420Y-33260000D02*
X12140580Y-33260000D01*
%TO.C,C51*%
X26859420Y-35490000D02*
X27140580Y-35490000D01*
X26859420Y-36510000D02*
X27140580Y-36510000D01*
%TO.C,C1*%
X16990000Y-10640580D02*
X16990000Y-10359420D01*
X18010000Y-10640580D02*
X18010000Y-10359420D01*
%TO.C,R74*%
X34012742Y-1727500D02*
X34487258Y-1727500D01*
X34012742Y-2772500D02*
X34487258Y-2772500D01*
%TO.C,U3*%
X10040000Y-11910000D02*
X10040000Y-11560000D01*
X11960000Y-10090000D02*
X11960000Y-10440000D01*
X11960000Y-11560000D02*
X11960000Y-11910000D01*
X9950000Y-10430000D02*
X9810000Y-10240000D01*
X10090000Y-10240000D01*
X9950000Y-10430000D01*
G36*
X9950000Y-10430000D02*
G01*
X9810000Y-10240000D01*
X10090000Y-10240000D01*
X9950000Y-10430000D01*
G37*
%TO.C,R7*%
X31227500Y-3737258D02*
X31227500Y-3262742D01*
X32272500Y-3737258D02*
X32272500Y-3262742D01*
%TO.C,R3*%
X14762742Y-12227500D02*
X15237258Y-12227500D01*
X14762742Y-13272500D02*
X15237258Y-13272500D01*
%TO.C,R71*%
X19262742Y-3727500D02*
X19737258Y-3727500D01*
X19262742Y-4772500D02*
X19737258Y-4772500D01*
%TO.C,R50*%
X26762742Y-38977500D02*
X27237258Y-38977500D01*
X26762742Y-40022500D02*
X27237258Y-40022500D01*
%TO.C,C7*%
X32990000Y-10140580D02*
X32990000Y-9859420D01*
X34010000Y-10140580D02*
X34010000Y-9859420D01*
%TO.C,C34*%
X30065000Y-20761252D02*
X30065000Y-20238748D01*
X31535000Y-20761252D02*
X31535000Y-20238748D01*
%TO.C,C31*%
X19011252Y-19265000D02*
X18488748Y-19265000D01*
X19011252Y-20735000D02*
X18488748Y-20735000D01*
%TO.C,R13*%
X32012742Y-13727500D02*
X32487258Y-13727500D01*
X32012742Y-14772500D02*
X32487258Y-14772500D01*
%TO.C,R5*%
X28762742Y-11477500D02*
X29237258Y-11477500D01*
X28762742Y-12522500D02*
X29237258Y-12522500D01*
%TO.C,C53*%
X23990000Y-36640580D02*
X23990000Y-36359420D01*
X25010000Y-36640580D02*
X25010000Y-36359420D01*
%TO.C,R30*%
X27777500Y-25237258D02*
X27777500Y-24762742D01*
X28822500Y-25237258D02*
X28822500Y-24762742D01*
%TO.C,J3*%
X29200000Y-44725000D02*
X29950000Y-44725000D01*
X29950000Y-41775000D02*
X35500000Y-41775000D01*
X29950000Y-44725000D02*
X29950000Y-41775000D01*
X40850000Y-47275000D02*
X42100000Y-47275000D01*
X41050000Y-41775000D02*
X35500000Y-41775000D01*
X41050000Y-44725000D02*
X41050000Y-41775000D01*
X41800000Y-44725000D02*
X41050000Y-44725000D01*
X42100000Y-47275000D02*
X42100000Y-46025000D01*
X29200000Y-46225000D02*
X31000000Y-46225000D01*
X31000000Y-46975000D01*
X29200000Y-46975000D01*
X29200000Y-46225000D01*
X32500000Y-46225000D02*
X38500000Y-46225000D01*
X38500000Y-46975000D01*
X32500000Y-46975000D01*
X32500000Y-46225000D01*
X40000000Y-46225000D02*
X41800000Y-46225000D01*
X41800000Y-46975000D01*
X40000000Y-46975000D01*
X40000000Y-46225000D01*
X29190000Y-41015000D02*
X41810000Y-41015000D01*
X41810000Y-46985000D01*
X29190000Y-46985000D01*
X29190000Y-41015000D01*
%TO.C,C25*%
X8140580Y-25990000D02*
X7859420Y-25990000D01*
X8140580Y-27010000D02*
X7859420Y-27010000D01*
%TO.C,R10*%
X35262742Y-13727500D02*
X35737258Y-13727500D01*
X35262742Y-14772500D02*
X35737258Y-14772500D01*
%TO.C,LED2*%
X22465000Y-12365000D02*
X22465000Y-14635000D01*
X22465000Y-14635000D02*
X26350000Y-14635000D01*
X26350000Y-12365000D02*
X22465000Y-12365000D01*
%TD*%
M02*
