#VRML V2.0 utf8
# Project-owned nominal model; units 0.1 inch for KiCad.
Shape { appearance Appearance { material Material { diffuseColor 0.67 0.4 0.14 } } geometry IndexedFaceSet { solid FALSE coord Coordinate { point [ -0.250000 -0.500000 0.393701,
-0.250000 -0.500000 1.629921,
-0.250000 0.500000 0.393701,
-0.250000 0.500000 1.629921,
1.250000 -0.500000 1.629921,
1.250000 -0.500000 0.393701,
1.250000 0.500000 0.393701,
1.250000 0.500000 1.629921 ] } coordIndex [ 0 1 2 -1,
2 1 3 -1,
4 5 6 -1,
4 6 7 -1,
5 4 0 -1,
0 4 1 -1,
7 6 2 -1,
7 2 3 -1,
2 6 0 -1,
0 6 5 -1,
7 3 1 -1,
7 1 4 -1 ] } }
Shape { appearance Appearance { material Material { diffuseColor 0.7 0.72 0.74 } } geometry IndexedFaceSet { solid FALSE coord Coordinate { point [ 0.100269 0.005004 0.433071,
0.100394 -0.000000 0.433071,
0.100394 -0.000000 -0.984252,
0.100269 0.005004 -0.984252,
0.099895 0.009996 0.433071,
0.099895 0.009996 -0.984252,
0.099272 0.014963 0.433071,
0.099272 0.014963 -0.984252,
0.098403 0.019893 0.433071,
0.098403 0.019893 -0.984252,
0.097289 0.024773 0.433071,
0.097289 0.024773 -0.984252,
0.095933 0.029592 0.433071,
0.095933 0.029592 -0.984252,
0.094339 0.034337 -0.984252,
0.094339 0.034337 0.433071,
0.092510 0.038996 0.433071,
0.092510 0.038996 -0.984252,
0.090452 0.043559 0.433071,
0.090452 0.043559 -0.984252,
0.088168 0.048014 0.433071,
0.088168 0.048014 -0.984252,
0.085665 0.052349 -0.984252,
0.085665 0.052349 0.433071,
0.082949 0.056554 0.433071,
0.082949 0.056554 -0.984252,
0.080027 0.060618 0.433071,
0.080027 0.060618 -0.984252,
0.076906 0.064532 0.433071,
0.076906 0.064532 -0.984252,
0.073594 0.068285 0.433071,
0.073594 0.068285 -0.984252,
0.070099 0.071869 0.433071,
0.070099 0.071869 -0.984252,
0.066429 0.075273 0.433071,
0.066429 0.075273 -0.984252,
0.062594 0.078491 0.433071,
0.062594 0.078491 -0.984252,
0.058604 0.081513 0.433071,
0.058604 0.081513 -0.984252,
0.054468 0.084333 0.433071,
0.054468 0.084333 -0.984252,
0.050197 0.086943 0.433071,
0.050197 0.086943 -0.984252,
0.045801 0.089338 0.433071,
0.045801 0.089338 -0.984252,
0.041291 0.091509 0.433071,
0.041291 0.091509 -0.984252,
0.036678 0.093454 0.433071,
0.036678 0.093454 -0.984252,
0.031974 0.095166 0.433071,
0.031974 0.095166 -0.984252,
0.027191 0.096641 0.433071,
0.027191 0.096641 -0.984252,
0.022340 0.097877 0.433071,
0.022340 0.097877 -0.984252,
0.017433 0.098868 0.433071,
0.017433 0.098868 -0.984252,
0.012483 0.099615 0.433071,
0.012483 0.099615 -0.984252,
0.007502 0.100113 -0.984252,
0.007502 0.100113 0.433071,
0.002503 0.100362 0.433071,
0.002503 0.100362 -0.984252,
-0.002503 0.100362 0.433071,
-0.002503 0.100362 -0.984252,
-0.007502 0.100113 0.433071,
-0.007502 0.100113 -0.984252,
-0.012483 0.099615 0.433071,
-0.012483 0.099615 -0.984252,
-0.017433 0.098868 0.433071,
-0.017433 0.098868 -0.984252,
-0.022340 0.097877 0.433071,
-0.022340 0.097877 -0.984252,
-0.027191 0.096641 -0.984252,
-0.027191 0.096641 0.433071,
-0.031974 0.095166 0.433071,
-0.031974 0.095166 -0.984252,
-0.036678 0.093454 0.433071,
-0.036678 0.093454 -0.984252,
-0.041291 0.091509 0.433071,
-0.041291 0.091509 -0.984252,
-0.045801 0.089338 0.433071,
-0.045801 0.089338 -0.984252,
-0.050197 0.086943 0.433071,
-0.050197 0.086943 -0.984252,
-0.054468 0.084333 0.433071,
-0.054468 0.084333 -0.984252,
-0.058604 0.081513 0.433071,
-0.058604 0.081513 -0.984252,
-0.062594 0.078491 0.433071,
-0.062594 0.078491 -0.984252,
-0.066429 0.075273 -0.984252,
-0.066429 0.075273 0.433071,
-0.070099 0.071869 0.433071,
-0.070099 0.071869 -0.984252,
-0.073594 0.068285 -0.984252,
-0.073594 0.068285 0.433071,
-0.076906 0.064532 0.433071,
-0.076906 0.064532 -0.984252,
-0.080027 0.060618 0.433071,
-0.080027 0.060618 -0.984252,
-0.082949 0.056554 0.433071,
-0.082949 0.056554 -0.984252,
-0.085665 0.052349 0.433071,
-0.085665 0.052349 -0.984252,
-0.088168 0.048014 -0.984252,
-0.088168 0.048014 0.433071,
-0.090452 0.043559 0.433071,
-0.090452 0.043559 -0.984252,
-0.092510 0.038996 0.433071,
-0.092510 0.038996 -0.984252,
-0.094339 0.034337 0.433071,
-0.094339 0.034337 -0.984252,
-0.095933 0.029592 0.433071,
-0.095933 0.029592 -0.984252,
-0.097289 0.024773 0.433071,
-0.097289 0.024773 -0.984252,
-0.098403 0.019893 0.433071,
-0.098403 0.019893 -0.984252,
-0.099272 0.014963 -0.984252,
-0.099272 0.014963 0.433071,
-0.099895 0.009996 0.433071,
-0.099895 0.009996 -0.984252,
-0.100269 0.005004 0.433071,
-0.100269 0.005004 -0.984252,
-0.100394 -0.000000 0.433071,
-0.100394 -0.000000 -0.984252,
-0.100269 -0.005004 -0.984252,
-0.100269 -0.005004 0.433071,
-0.099895 -0.009996 0.433071,
-0.099895 -0.009996 -0.984252,
-0.099272 -0.014963 -0.984252,
-0.099272 -0.014963 0.433071,
-0.098403 -0.019893 0.433071,
-0.098403 -0.019893 -0.984252,
-0.097289 -0.024773 0.433071,
-0.097289 -0.024773 -0.984252,
-0.095933 -0.029592 -0.984252,
-0.095933 -0.029592 0.433071,
-0.094339 -0.034337 0.433071,
-0.094339 -0.034337 -0.984252,
-0.092510 -0.038996 -0.984252,
-0.092510 -0.038996 0.433071,
-0.090452 -0.043559 0.433071,
-0.090452 -0.043559 -0.984252,
-0.088168 -0.048014 0.433071,
-0.088168 -0.048014 -0.984252,
-0.085665 -0.052349 0.433071,
-0.085665 -0.052349 -0.984252,
-0.082949 -0.056554 0.433071,
-0.082949 -0.056554 -0.984252,
-0.080027 -0.060618 0.433071,
-0.080027 -0.060618 -0.984252,
-0.076906 -0.064532 0.433071,
-0.076906 -0.064532 -0.984252,
-0.073594 -0.068285 0.433071,
-0.073594 -0.068285 -0.984252,
-0.070099 -0.071869 0.433071,
-0.070099 -0.071869 -0.984252,
-0.066429 -0.075273 0.433071,
-0.066429 -0.075273 -0.984252,
-0.062594 -0.078491 0.433071,
-0.062594 -0.078491 -0.984252,
-0.058604 -0.081513 0.433071,
-0.058604 -0.081513 -0.984252,
-0.054468 -0.084333 -0.984252,
-0.054468 -0.084333 0.433071,
-0.050197 -0.086943 0.433071,
-0.050197 -0.086943 -0.984252,
-0.045801 -0.089338 0.433071,
-0.045801 -0.089338 -0.984252,
-0.041291 -0.091509 0.433071,
-0.041291 -0.091509 -0.984252,
-0.036678 -0.093454 -0.984252,
-0.036678 -0.093454 0.433071,
-0.031974 -0.095166 -0.984252,
-0.031974 -0.095166 0.433071,
-0.027191 -0.096641 0.433071,
-0.027191 -0.096641 -0.984252,
-0.022340 -0.097877 0.433071,
-0.022340 -0.097877 -0.984252,
-0.017433 -0.098868 -0.984252,
-0.017433 -0.098868 0.433071,
-0.012483 -0.099615 0.433071,
-0.012483 -0.099615 -0.984252,
-0.007502 -0.100113 0.433071,
-0.007502 -0.100113 -0.984252,
-0.002503 -0.100362 -0.984252,
-0.002503 -0.100362 0.433071,
0.002503 -0.100362 -0.984252,
0.002503 -0.100362 0.433071,
0.007502 -0.100113 0.433071,
0.007502 -0.100113 -0.984252,
0.012483 -0.099615 -0.984252,
0.012483 -0.099615 0.433071,
0.017433 -0.098868 0.433071,
0.017433 -0.098868 -0.984252,
0.022340 -0.097877 -0.984252,
0.022340 -0.097877 0.433071,
0.027191 -0.096641 0.433071,
0.027191 -0.096641 -0.984252,
0.031974 -0.095166 0.433071,
0.031974 -0.095166 -0.984252,
0.036678 -0.093454 0.433071,
0.036678 -0.093454 -0.984252,
0.041291 -0.091509 0.433071,
0.041291 -0.091509 -0.984252,
0.045801 -0.089338 0.433071,
0.045801 -0.089338 -0.984252,
0.050197 -0.086943 0.433071,
0.050197 -0.086943 -0.984252,
0.054468 -0.084333 0.433071,
0.054468 -0.084333 -0.984252,
0.058604 -0.081513 0.433071,
0.058604 -0.081513 -0.984252,
0.062594 -0.078491 -0.984252,
0.062594 -0.078491 0.433071,
0.066429 -0.075273 0.433071,
0.066429 -0.075273 -0.984252,
0.070099 -0.071869 0.433071,
0.070099 -0.071869 -0.984252,
0.073594 -0.068285 0.433071,
0.073594 -0.068285 -0.984252,
0.076906 -0.064532 0.433071,
0.076906 -0.064532 -0.984252,
0.080027 -0.060618 0.433071,
0.080027 -0.060618 -0.984252,
0.082949 -0.056554 0.433071,
0.082949 -0.056554 -0.984252,
0.085665 -0.052349 0.433071,
0.085665 -0.052349 -0.984252,
0.088168 -0.048014 0.433071,
0.088168 -0.048014 -0.984252,
0.090452 -0.043559 0.433071,
0.090452 -0.043559 -0.984252,
0.092510 -0.038996 0.433071,
0.092510 -0.038996 -0.984252,
0.094339 -0.034337 0.433071,
0.094339 -0.034337 -0.984252,
0.095933 -0.029592 0.433071,
0.095933 -0.029592 -0.984252,
0.097289 -0.024773 0.433071,
0.097289 -0.024773 -0.984252,
0.098403 -0.019893 0.433071,
0.098403 -0.019893 -0.984252,
0.099272 -0.014963 0.433071,
0.099272 -0.014963 -0.984252,
0.099895 -0.009996 -0.984252,
0.099895 -0.009996 0.433071,
0.100269 -0.005004 0.433071,
0.100269 -0.005004 -0.984252 ] } coordIndex [ 0 1 2 -1,
0 2 3 -1,
4 3 5 -1,
4 0 3 -1,
6 5 7 -1,
6 4 5 -1,
8 7 9 -1,
8 6 7 -1,
10 9 11 -1,
10 8 9 -1,
12 11 13 -1,
12 13 14 -1,
12 10 11 -1,
15 12 14 -1,
16 14 17 -1,
16 15 14 -1,
18 17 19 -1,
18 16 17 -1,
20 19 21 -1,
20 21 22 -1,
20 18 19 -1,
23 20 22 -1,
24 23 22 -1,
24 22 25 -1,
26 24 25 -1,
26 25 27 -1,
28 26 27 -1,
28 27 29 -1,
30 28 29 -1,
30 29 31 -1,
32 30 31 -1,
32 31 33 -1,
34 32 33 -1,
34 33 35 -1,
36 34 35 -1,
36 35 37 -1,
38 36 37 -1,
38 37 39 -1,
40 38 39 -1,
40 39 41 -1,
42 40 41 -1,
42 41 43 -1,
44 42 43 -1,
44 43 45 -1,
46 45 47 -1,
46 44 45 -1,
48 47 49 -1,
48 46 47 -1,
50 49 51 -1,
50 48 49 -1,
52 51 53 -1,
52 50 51 -1,
54 53 55 -1,
54 52 53 -1,
56 55 57 -1,
56 54 55 -1,
58 57 59 -1,
58 59 60 -1,
58 56 57 -1,
61 58 60 -1,
62 60 63 -1,
62 61 60 -1,
64 63 65 -1,
64 62 63 -1,
66 65 67 -1,
66 64 65 -1,
68 67 69 -1,
68 66 67 -1,
70 69 71 -1,
70 68 69 -1,
72 71 73 -1,
72 73 74 -1,
72 70 71 -1,
75 72 74 -1,
76 75 74 -1,
76 74 77 -1,
78 76 77 -1,
78 77 79 -1,
80 78 79 -1,
80 79 81 -1,
82 80 81 -1,
82 81 83 -1,
84 82 83 -1,
84 83 85 -1,
86 84 85 -1,
86 85 87 -1,
88 86 87 -1,
88 87 89 -1,
90 88 89 -1,
90 89 91 -1,
90 91 92 -1,
93 90 92 -1,
94 93 92 -1,
94 92 95 -1,
94 95 96 -1,
97 94 96 -1,
98 97 96 -1,
98 96 99 -1,
100 98 99 -1,
100 99 101 -1,
102 100 101 -1,
102 101 103 -1,
104 102 103 -1,
104 103 105 -1,
104 105 106 -1,
107 104 106 -1,
108 107 106 -1,
108 106 109 -1,
110 108 109 -1,
110 109 111 -1,
112 110 111 -1,
112 111 113 -1,
114 112 113 -1,
114 113 115 -1,
116 115 117 -1,
116 114 115 -1,
118 117 119 -1,
118 119 120 -1,
118 116 117 -1,
121 118 120 -1,
122 120 123 -1,
122 121 120 -1,
124 122 123 -1,
124 123 125 -1,
126 124 125 -1,
126 125 127 -1,
126 127 128 -1,
129 126 128 -1,
130 129 128 -1,
130 128 131 -1,
130 131 132 -1,
133 130 132 -1,
134 133 132 -1,
134 132 135 -1,
136 134 135 -1,
136 135 137 -1,
136 137 138 -1,
139 136 138 -1,
140 139 138 -1,
140 138 141 -1,
140 141 142 -1,
143 140 142 -1,
144 143 142 -1,
144 142 145 -1,
146 144 145 -1,
146 145 147 -1,
148 146 147 -1,
148 147 149 -1,
150 149 151 -1,
150 148 149 -1,
152 151 153 -1,
152 150 151 -1,
154 153 155 -1,
154 152 153 -1,
156 155 157 -1,
156 154 155 -1,
158 157 159 -1,
158 156 157 -1,
160 159 161 -1,
160 158 159 -1,
162 161 163 -1,
162 160 161 -1,
164 163 165 -1,
164 165 166 -1,
164 162 163 -1,
167 164 166 -1,
168 166 169 -1,
168 167 166 -1,
170 169 171 -1,
170 168 169 -1,
172 171 173 -1,
172 173 174 -1,
172 170 171 -1,
175 172 174 -1,
175 174 176 -1,
177 175 176 -1,
178 177 176 -1,
178 176 179 -1,
180 178 179 -1,
180 179 181 -1,
180 181 182 -1,
183 180 182 -1,
184 182 185 -1,
184 183 182 -1,
186 185 187 -1,
186 187 188 -1,
186 184 185 -1,
189 186 188 -1,
189 188 190 -1,
191 189 190 -1,
192 190 193 -1,
192 193 194 -1,
192 191 190 -1,
195 192 194 -1,
196 194 197 -1,
196 197 198 -1,
196 195 194 -1,
199 196 198 -1,
200 198 201 -1,
200 199 198 -1,
202 201 203 -1,
202 200 201 -1,
204 203 205 -1,
204 202 203 -1,
206 205 207 -1,
206 204 205 -1,
208 207 209 -1,
208 206 207 -1,
210 209 211 -1,
210 208 209 -1,
212 211 213 -1,
212 210 211 -1,
214 213 215 -1,
214 215 216 -1,
214 212 213 -1,
217 214 216 -1,
218 216 219 -1,
218 217 216 -1,
220 219 221 -1,
220 218 219 -1,
222 221 223 -1,
222 220 221 -1,
224 223 225 -1,
224 222 223 -1,
226 224 225 -1,
226 225 227 -1,
228 226 227 -1,
228 227 229 -1,
230 228 229 -1,
230 229 231 -1,
232 230 231 -1,
232 231 233 -1,
234 232 233 -1,
234 233 235 -1,
236 234 235 -1,
236 235 237 -1,
238 236 237 -1,
238 237 239 -1,
240 238 239 -1,
240 239 241 -1,
242 240 241 -1,
242 241 243 -1,
244 242 243 -1,
244 243 245 -1,
246 244 245 -1,
246 245 247 -1,
246 247 248 -1,
249 246 248 -1,
250 248 251 -1,
250 249 248 -1,
1 251 2 -1,
1 250 251 -1,
20 16 18 -1,
24 15 16 -1,
24 20 23 -1,
24 16 20 -1,
36 38 40 -1,
34 36 40 -1,
30 26 28 -1,
32 200 202 -1,
32 240 246 -1,
32 202 204 -1,
32 0 4 -1,
32 204 206 -1,
32 210 212 -1,
32 222 224 -1,
32 52 56 -1,
32 24 26 -1,
32 228 230 -1,
32 100 107 -1,
32 238 240 -1,
32 40 42 -1,
32 42 44 -1,
32 44 46 -1,
32 46 48 -1,
32 4 15 -1,
32 56 58 -1,
32 68 72 -1,
32 58 61 -1,
32 206 210 -1,
32 61 62 -1,
32 62 64 -1,
32 64 66 -1,
110 112 114 -1,
32 66 68 -1,
32 76 78 -1,
32 48 52 -1,
32 84 86 -1,
32 86 88 -1,
32 88 90 -1,
32 90 93 -1,
32 93 94 -1,
32 224 228 -1,
32 94 97 -1,
32 97 98 -1,
32 98 100 -1,
32 107 108 -1,
32 108 110 -1,
32 212 222 -1,
32 234 238 -1,
32 114 116 -1,
32 116 118 -1,
32 118 121 -1,
32 121 122 -1,
32 78 84 -1,
32 122 124 -1,
32 124 126 -1,
32 230 234 -1,
32 126 129 -1,
32 129 130 -1,
32 130 133 -1,
32 133 134 -1,
32 134 136 -1,
32 136 139 -1,
32 139 140 -1,
32 140 143 -1,
32 143 144 -1,
32 144 146 -1,
32 26 30 -1,
32 146 148 -1,
32 148 150 -1,
32 150 152 -1,
32 152 154 -1,
32 154 156 -1,
32 156 158 -1,
32 158 160 -1,
32 160 162 -1,
32 162 164 -1,
32 164 167 -1,
32 167 168 -1,
32 34 40 -1,
32 168 170 -1,
32 170 172 -1,
32 172 175 -1,
32 15 24 -1,
32 175 177 -1,
32 177 178 -1,
32 178 180 -1,
32 180 183 -1,
32 183 184 -1,
32 184 186 -1,
32 186 189 -1,
32 72 76 -1,
32 246 0 -1,
32 189 191 -1,
32 191 192 -1,
32 110 114 -1,
32 192 195 -1,
32 195 196 -1,
32 196 199 -1,
32 199 200 -1,
210 206 208 -1,
100 102 104 -1,
100 104 107 -1,
220 214 217 -1,
220 217 218 -1,
222 212 214 -1,
222 214 220 -1,
228 224 226 -1,
234 230 232 -1,
78 80 82 -1,
78 82 84 -1,
238 234 236 -1,
72 75 76 -1,
246 240 242 -1,
246 242 244 -1,
68 70 72 -1,
0 246 249 -1,
0 249 250 -1,
0 250 1 -1,
10 4 6 -1,
10 6 8 -1,
52 54 56 -1,
12 4 10 -1,
15 4 12 -1,
48 50 52 -1,
17 21 19 -1,
14 25 17 -1,
21 25 22 -1,
17 25 21 -1,
39 37 41 -1,
37 35 41 -1,
27 31 29 -1,
201 33 203 -1,
241 33 247 -1,
203 33 205 -1,
3 33 5 -1,
205 33 207 -1,
211 33 213 -1,
223 33 225 -1,
53 33 57 -1,
25 33 27 -1,
229 33 231 -1,
101 33 106 -1,
239 33 241 -1,
41 33 43 -1,
43 33 45 -1,
45 33 47 -1,
47 33 49 -1,
5 33 14 -1,
57 33 59 -1,
69 33 73 -1,
59 33 60 -1,
207 33 211 -1,
60 33 63 -1,
63 33 65 -1,
65 33 67 -1,
113 111 115 -1,
67 33 69 -1,
77 33 79 -1,
49 33 53 -1,
85 33 87 -1,
87 33 89 -1,
89 33 91 -1,
91 33 92 -1,
92 33 95 -1,
225 33 229 -1,
95 33 96 -1,
96 33 99 -1,
99 33 101 -1,
106 33 109 -1,
109 33 111 -1,
213 33 223 -1,
235 33 239 -1,
115 33 117 -1,
117 33 119 -1,
119 33 120 -1,
120 33 123 -1,
79 33 85 -1,
123 33 125 -1,
125 33 127 -1,
231 33 235 -1,
127 33 128 -1,
128 33 131 -1,
131 33 132 -1,
132 33 135 -1,
135 33 137 -1,
137 33 138 -1,
138 33 141 -1,
141 33 142 -1,
142 33 145 -1,
145 33 147 -1,
27 33 31 -1,
147 33 149 -1,
149 33 151 -1,
151 33 153 -1,
153 33 155 -1,
155 33 157 -1,
157 33 159 -1,
159 33 161 -1,
161 33 163 -1,
163 33 165 -1,
165 33 166 -1,
166 33 169 -1,
35 33 41 -1,
169 33 171 -1,
171 33 173 -1,
173 33 174 -1,
14 33 25 -1,
174 33 176 -1,
176 33 179 -1,
179 33 181 -1,
181 33 182 -1,
182 33 185 -1,
185 33 187 -1,
187 33 188 -1,
73 33 77 -1,
247 33 3 -1,
188 33 190 -1,
190 33 193 -1,
111 33 115 -1,
193 33 194 -1,
194 33 197 -1,
197 33 198 -1,
198 33 201 -1,
207 211 209 -1,
103 101 105 -1,
105 101 106 -1,
215 221 216 -1,
216 221 219 -1,
213 223 215 -1,
215 223 221 -1,
225 229 227 -1,
231 235 233 -1,
81 79 83 -1,
83 79 85 -1,
235 239 237 -1,
74 73 77 -1,
241 247 243 -1,
243 247 245 -1,
71 69 73 -1,
247 3 248 -1,
248 3 251 -1,
251 3 2 -1,
5 11 7 -1,
7 11 9 -1,
55 53 57 -1,
5 13 11 -1,
5 14 13 -1,
51 49 53 -1 ] } }
Shape { appearance Appearance { material Material { diffuseColor 0.7 0.72 0.74 } } geometry IndexedFaceSet { solid FALSE coord Coordinate { point [ 1.100269 0.005004 0.433071,
1.100394 -0.000000 0.433071,
1.100394 -0.000000 -0.984252,
1.100269 0.005004 -0.984252,
1.099895 0.009996 0.433071,
1.099895 0.009996 -0.984252,
1.099272 0.014963 0.433071,
1.099272 0.014963 -0.984252,
1.098403 0.019893 0.433071,
1.098403 0.019893 -0.984252,
1.097289 0.024773 0.433071,
1.097289 0.024773 -0.984252,
1.095933 0.029592 0.433071,
1.095933 0.029592 -0.984252,
1.094339 0.034337 -0.984252,
1.094339 0.034337 0.433071,
1.092510 0.038996 0.433071,
1.092510 0.038996 -0.984252,
1.090452 0.043559 0.433071,
1.090452 0.043559 -0.984252,
1.088168 0.048014 0.433071,
1.088168 0.048014 -0.984252,
1.085665 0.052349 -0.984252,
1.085665 0.052349 0.433071,
1.082949 0.056554 0.433071,
1.082949 0.056554 -0.984252,
1.080027 0.060618 0.433071,
1.080027 0.060618 -0.984252,
1.076906 0.064532 0.433071,
1.076906 0.064532 -0.984252,
1.073594 0.068285 0.433071,
1.073594 0.068285 -0.984252,
1.070099 0.071869 0.433071,
1.070099 0.071869 -0.984252,
1.066429 0.075273 0.433071,
1.066429 0.075273 -0.984252,
1.062594 0.078491 0.433071,
1.062594 0.078491 -0.984252,
1.058604 0.081513 0.433071,
1.058604 0.081513 -0.984252,
1.054468 0.084333 0.433071,
1.054468 0.084333 -0.984252,
1.050197 0.086943 0.433071,
1.050197 0.086943 -0.984252,
1.045801 0.089338 0.433071,
1.045801 0.089338 -0.984252,
1.041291 0.091509 0.433071,
1.041291 0.091509 -0.984252,
1.036678 0.093454 0.433071,
1.036678 0.093454 -0.984252,
1.031974 0.095166 0.433071,
1.031974 0.095166 -0.984252,
1.027191 0.096641 0.433071,
1.027191 0.096641 -0.984252,
1.022340 0.097877 0.433071,
1.022340 0.097877 -0.984252,
1.017433 0.098868 0.433071,
1.017433 0.098868 -0.984252,
1.012483 0.099615 0.433071,
1.012483 0.099615 -0.984252,
1.007502 0.100113 -0.984252,
1.007502 0.100113 0.433071,
1.002503 0.100362 0.433071,
1.002503 0.100362 -0.984252,
0.997497 0.100362 0.433071,
0.997497 0.100362 -0.984252,
0.992498 0.100113 0.433071,
0.992498 0.100113 -0.984252,
0.987517 0.099615 0.433071,
0.987517 0.099615 -0.984252,
0.982567 0.098868 0.433071,
0.982567 0.098868 -0.984252,
0.977660 0.097877 0.433071,
0.977660 0.097877 -0.984252,
0.972809 0.096641 -0.984252,
0.972809 0.096641 0.433071,
0.968026 0.095166 0.433071,
0.968026 0.095166 -0.984252,
0.963322 0.093454 0.433071,
0.963322 0.093454 -0.984252,
0.958709 0.091509 0.433071,
0.958709 0.091509 -0.984252,
0.954199 0.089338 0.433071,
0.954199 0.089338 -0.984252,
0.949803 0.086943 0.433071,
0.949803 0.086943 -0.984252,
0.945532 0.084333 0.433071,
0.945532 0.084333 -0.984252,
0.941396 0.081513 0.433071,
0.941396 0.081513 -0.984252,
0.937406 0.078491 0.433071,
0.937406 0.078491 -0.984252,
0.933571 0.075273 -0.984252,
0.933571 0.075273 0.433071,
0.929901 0.071869 0.433071,
0.929901 0.071869 -0.984252,
0.926406 0.068285 -0.984252,
0.926406 0.068285 0.433071,
0.923094 0.064532 0.433071,
0.923094 0.064532 -0.984252,
0.919973 0.060618 0.433071,
0.919973 0.060618 -0.984252,
0.917051 0.056554 0.433071,
0.917051 0.056554 -0.984252,
0.914335 0.052349 0.433071,
0.914335 0.052349 -0.984252,
0.911832 0.048014 -0.984252,
0.911832 0.048014 0.433071,
0.909548 0.043559 0.433071,
0.909548 0.043559 -0.984252,
0.907490 0.038996 0.433071,
0.907490 0.038996 -0.984252,
0.905661 0.034337 0.433071,
0.905661 0.034337 -0.984252,
0.904067 0.029592 0.433071,
0.904067 0.029592 -0.984252,
0.902711 0.024773 0.433071,
0.902711 0.024773 -0.984252,
0.901597 0.019893 0.433071,
0.901597 0.019893 -0.984252,
0.900728 0.014963 -0.984252,
0.900728 0.014963 0.433071,
0.900105 0.009996 0.433071,
0.900105 0.009996 -0.984252,
0.899731 0.005004 0.433071,
0.899731 0.005004 -0.984252,
0.899606 -0.000000 0.433071,
0.899606 -0.000000 -0.984252,
0.899731 -0.005004 -0.984252,
0.899731 -0.005004 0.433071,
0.900105 -0.009996 0.433071,
0.900105 -0.009996 -0.984252,
0.900728 -0.014963 -0.984252,
0.900728 -0.014963 0.433071,
0.901597 -0.019893 0.433071,
0.901597 -0.019893 -0.984252,
0.902711 -0.024773 0.433071,
0.902711 -0.024773 -0.984252,
0.904067 -0.029592 -0.984252,
0.904067 -0.029592 0.433071,
0.905661 -0.034337 0.433071,
0.905661 -0.034337 -0.984252,
0.907490 -0.038996 -0.984252,
0.907490 -0.038996 0.433071,
0.909548 -0.043559 0.433071,
0.909548 -0.043559 -0.984252,
0.911832 -0.048014 0.433071,
0.911832 -0.048014 -0.984252,
0.914335 -0.052349 0.433071,
0.914335 -0.052349 -0.984252,
0.917051 -0.056554 0.433071,
0.917051 -0.056554 -0.984252,
0.919973 -0.060618 0.433071,
0.919973 -0.060618 -0.984252,
0.923094 -0.064532 0.433071,
0.923094 -0.064532 -0.984252,
0.926406 -0.068285 0.433071,
0.926406 -0.068285 -0.984252,
0.929901 -0.071869 0.433071,
0.929901 -0.071869 -0.984252,
0.933571 -0.075273 0.433071,
0.933571 -0.075273 -0.984252,
0.937406 -0.078491 0.433071,
0.937406 -0.078491 -0.984252,
0.941396 -0.081513 0.433071,
0.941396 -0.081513 -0.984252,
0.945532 -0.084333 -0.984252,
0.945532 -0.084333 0.433071,
0.949803 -0.086943 0.433071,
0.949803 -0.086943 -0.984252,
0.954199 -0.089338 0.433071,
0.954199 -0.089338 -0.984252,
0.958709 -0.091509 0.433071,
0.958709 -0.091509 -0.984252,
0.963322 -0.093454 -0.984252,
0.963322 -0.093454 0.433071,
0.968026 -0.095166 -0.984252,
0.968026 -0.095166 0.433071,
0.972809 -0.096641 0.433071,
0.972809 -0.096641 -0.984252,
0.977660 -0.097877 0.433071,
0.977660 -0.097877 -0.984252,
0.982567 -0.098868 -0.984252,
0.982567 -0.098868 0.433071,
0.987517 -0.099615 0.433071,
0.987517 -0.099615 -0.984252,
0.992498 -0.100113 0.433071,
0.992498 -0.100113 -0.984252,
0.997497 -0.100362 -0.984252,
0.997497 -0.100362 0.433071,
1.002503 -0.100362 -0.984252,
1.002503 -0.100362 0.433071,
1.007502 -0.100113 0.433071,
1.007502 -0.100113 -0.984252,
1.012483 -0.099615 -0.984252,
1.012483 -0.099615 0.433071,
1.017433 -0.098868 0.433071,
1.017433 -0.098868 -0.984252,
1.022340 -0.097877 -0.984252,
1.022340 -0.097877 0.433071,
1.027191 -0.096641 0.433071,
1.027191 -0.096641 -0.984252,
1.031974 -0.095166 0.433071,
1.031974 -0.095166 -0.984252,
1.036678 -0.093454 0.433071,
1.036678 -0.093454 -0.984252,
1.041291 -0.091509 0.433071,
1.041291 -0.091509 -0.984252,
1.045801 -0.089338 0.433071,
1.045801 -0.089338 -0.984252,
1.050197 -0.086943 0.433071,
1.050197 -0.086943 -0.984252,
1.054468 -0.084333 0.433071,
1.054468 -0.084333 -0.984252,
1.058604 -0.081513 0.433071,
1.058604 -0.081513 -0.984252,
1.062594 -0.078491 -0.984252,
1.062594 -0.078491 0.433071,
1.066429 -0.075273 0.433071,
1.066429 -0.075273 -0.984252,
1.070099 -0.071869 0.433071,
1.070099 -0.071869 -0.984252,
1.073594 -0.068285 0.433071,
1.073594 -0.068285 -0.984252,
1.076906 -0.064532 0.433071,
1.076906 -0.064532 -0.984252,
1.080027 -0.060618 0.433071,
1.080027 -0.060618 -0.984252,
1.082949 -0.056554 0.433071,
1.082949 -0.056554 -0.984252,
1.085665 -0.052349 0.433071,
1.085665 -0.052349 -0.984252,
1.088168 -0.048014 0.433071,
1.088168 -0.048014 -0.984252,
1.090452 -0.043559 0.433071,
1.090452 -0.043559 -0.984252,
1.092510 -0.038996 0.433071,
1.092510 -0.038996 -0.984252,
1.094339 -0.034337 0.433071,
1.094339 -0.034337 -0.984252,
1.095933 -0.029592 0.433071,
1.095933 -0.029592 -0.984252,
1.097289 -0.024773 0.433071,
1.097289 -0.024773 -0.984252,
1.098403 -0.019893 0.433071,
1.098403 -0.019893 -0.984252,
1.099272 -0.014963 0.433071,
1.099272 -0.014963 -0.984252,
1.099895 -0.009996 -0.984252,
1.099895 -0.009996 0.433071,
1.100269 -0.005004 0.433071,
1.100269 -0.005004 -0.984252 ] } coordIndex [ 0 1 2 -1,
0 2 3 -1,
4 3 5 -1,
4 0 3 -1,
6 5 7 -1,
6 4 5 -1,
8 7 9 -1,
8 6 7 -1,
10 9 11 -1,
10 8 9 -1,
12 11 13 -1,
12 13 14 -1,
12 10 11 -1,
15 12 14 -1,
16 14 17 -1,
16 15 14 -1,
18 17 19 -1,
18 16 17 -1,
20 19 21 -1,
20 21 22 -1,
20 18 19 -1,
23 20 22 -1,
24 23 22 -1,
24 22 25 -1,
26 24 25 -1,
26 25 27 -1,
28 26 27 -1,
28 27 29 -1,
30 28 29 -1,
30 29 31 -1,
32 30 31 -1,
32 31 33 -1,
34 32 33 -1,
34 33 35 -1,
36 34 35 -1,
36 35 37 -1,
38 36 37 -1,
38 37 39 -1,
40 38 39 -1,
40 39 41 -1,
42 40 41 -1,
42 41 43 -1,
44 42 43 -1,
44 43 45 -1,
46 45 47 -1,
46 44 45 -1,
48 47 49 -1,
48 46 47 -1,
50 49 51 -1,
50 48 49 -1,
52 51 53 -1,
52 50 51 -1,
54 53 55 -1,
54 52 53 -1,
56 55 57 -1,
56 54 55 -1,
58 57 59 -1,
58 59 60 -1,
58 56 57 -1,
61 58 60 -1,
62 60 63 -1,
62 61 60 -1,
64 63 65 -1,
64 62 63 -1,
66 65 67 -1,
66 64 65 -1,
68 67 69 -1,
68 66 67 -1,
70 69 71 -1,
70 68 69 -1,
72 71 73 -1,
72 73 74 -1,
72 70 71 -1,
75 72 74 -1,
76 75 74 -1,
76 74 77 -1,
78 76 77 -1,
78 77 79 -1,
80 78 79 -1,
80 79 81 -1,
82 80 81 -1,
82 81 83 -1,
84 82 83 -1,
84 83 85 -1,
86 84 85 -1,
86 85 87 -1,
88 86 87 -1,
88 87 89 -1,
90 88 89 -1,
90 89 91 -1,
90 91 92 -1,
93 90 92 -1,
94 93 92 -1,
94 92 95 -1,
94 95 96 -1,
97 94 96 -1,
98 97 96 -1,
98 96 99 -1,
100 98 99 -1,
100 99 101 -1,
102 100 101 -1,
102 101 103 -1,
104 102 103 -1,
104 103 105 -1,
104 105 106 -1,
107 104 106 -1,
108 107 106 -1,
108 106 109 -1,
110 108 109 -1,
110 109 111 -1,
112 110 111 -1,
112 111 113 -1,
114 112 113 -1,
114 113 115 -1,
116 115 117 -1,
116 114 115 -1,
118 117 119 -1,
118 119 120 -1,
118 116 117 -1,
121 118 120 -1,
122 120 123 -1,
122 121 120 -1,
124 122 123 -1,
124 123 125 -1,
126 124 125 -1,
126 125 127 -1,
126 127 128 -1,
129 126 128 -1,
130 129 128 -1,
130 128 131 -1,
130 131 132 -1,
133 130 132 -1,
134 133 132 -1,
134 132 135 -1,
136 134 135 -1,
136 135 137 -1,
136 137 138 -1,
139 136 138 -1,
140 139 138 -1,
140 138 141 -1,
140 141 142 -1,
143 140 142 -1,
144 143 142 -1,
144 142 145 -1,
146 144 145 -1,
146 145 147 -1,
148 146 147 -1,
148 147 149 -1,
150 149 151 -1,
150 148 149 -1,
152 151 153 -1,
152 150 151 -1,
154 153 155 -1,
154 152 153 -1,
156 155 157 -1,
156 154 155 -1,
158 157 159 -1,
158 156 157 -1,
160 159 161 -1,
160 158 159 -1,
162 161 163 -1,
162 160 161 -1,
164 163 165 -1,
164 165 166 -1,
164 162 163 -1,
167 164 166 -1,
168 166 169 -1,
168 167 166 -1,
170 169 171 -1,
170 168 169 -1,
172 171 173 -1,
172 173 174 -1,
172 170 171 -1,
175 172 174 -1,
175 174 176 -1,
177 175 176 -1,
178 177 176 -1,
178 176 179 -1,
180 178 179 -1,
180 179 181 -1,
180 181 182 -1,
183 180 182 -1,
184 182 185 -1,
184 183 182 -1,
186 185 187 -1,
186 187 188 -1,
186 184 185 -1,
189 186 188 -1,
189 188 190 -1,
191 189 190 -1,
192 190 193 -1,
192 193 194 -1,
192 191 190 -1,
195 192 194 -1,
196 194 197 -1,
196 197 198 -1,
196 195 194 -1,
199 196 198 -1,
200 198 201 -1,
200 199 198 -1,
202 201 203 -1,
202 200 201 -1,
204 203 205 -1,
204 202 203 -1,
206 205 207 -1,
206 204 205 -1,
208 207 209 -1,
208 206 207 -1,
210 209 211 -1,
210 208 209 -1,
212 211 213 -1,
212 210 211 -1,
214 213 215 -1,
214 215 216 -1,
214 212 213 -1,
217 214 216 -1,
218 216 219 -1,
218 217 216 -1,
220 219 221 -1,
220 218 219 -1,
222 221 223 -1,
222 220 221 -1,
224 223 225 -1,
224 222 223 -1,
226 224 225 -1,
226 225 227 -1,
228 226 227 -1,
228 227 229 -1,
230 228 229 -1,
230 229 231 -1,
232 230 231 -1,
232 231 233 -1,
234 232 233 -1,
234 233 235 -1,
236 234 235 -1,
236 235 237 -1,
238 236 237 -1,
238 237 239 -1,
240 238 239 -1,
240 239 241 -1,
242 240 241 -1,
242 241 243 -1,
244 242 243 -1,
244 243 245 -1,
246 244 245 -1,
246 245 247 -1,
246 247 248 -1,
249 246 248 -1,
250 248 251 -1,
250 249 248 -1,
1 251 2 -1,
1 250 251 -1,
107 108 110 -1,
102 104 107 -1,
214 210 212 -1,
218 214 217 -1,
97 98 100 -1,
97 100 102 -1,
224 218 220 -1,
224 220 222 -1,
86 88 90 -1,
234 230 232 -1,
236 228 230 -1,
236 230 234 -1,
78 80 82 -1,
78 82 84 -1,
240 236 238 -1,
72 75 76 -1,
250 240 242 -1,
250 242 244 -1,
250 244 246 -1,
250 246 249 -1,
64 66 68 -1,
4 1 0 -1,
4 250 1 -1,
8 4 6 -1,
8 250 4 -1,
52 54 56 -1,
52 56 58 -1,
16 10 12 -1,
16 12 15 -1,
46 48 50 -1,
20 16 18 -1,
42 44 46 -1,
42 50 52 -1,
42 46 50 -1,
40 42 52 -1,
24 20 23 -1,
36 38 40 -1,
30 24 26 -1,
30 26 28 -1,
32 200 202 -1,
32 202 204 -1,
32 204 206 -1,
32 206 208 -1,
32 208 210 -1,
32 8 10 -1,
32 236 240 -1,
32 102 107 -1,
32 224 226 -1,
32 226 228 -1,
32 250 8 -1,
32 34 36 -1,
32 214 218 -1,
32 97 102 -1,
32 58 61 -1,
32 52 58 -1,
32 61 62 -1,
32 62 64 -1,
32 20 24 -1,
32 68 70 -1,
32 70 72 -1,
32 16 20 -1,
32 86 90 -1,
32 76 78 -1,
32 218 224 -1,
32 84 86 -1,
32 36 40 -1,
32 90 93 -1,
32 93 94 -1,
32 94 97 -1,
32 228 236 -1,
32 10 16 -1,
32 110 112 -1,
32 112 114 -1,
32 114 116 -1,
32 116 118 -1,
32 118 121 -1,
32 121 122 -1,
32 122 124 -1,
32 124 126 -1,
32 126 129 -1,
32 129 130 -1,
32 130 133 -1,
32 133 134 -1,
32 134 136 -1,
32 136 139 -1,
32 139 140 -1,
32 64 68 -1,
32 140 143 -1,
32 143 144 -1,
32 144 146 -1,
32 146 148 -1,
32 148 150 -1,
32 150 152 -1,
32 152 154 -1,
32 154 156 -1,
32 156 158 -1,
32 78 84 -1,
32 158 160 -1,
32 160 162 -1,
32 162 164 -1,
32 164 167 -1,
32 167 168 -1,
32 168 170 -1,
32 170 172 -1,
32 172 175 -1,
32 175 177 -1,
32 240 250 -1,
32 177 178 -1,
32 178 180 -1,
32 72 76 -1,
32 180 183 -1,
32 107 110 -1,
32 183 184 -1,
32 184 186 -1,
32 186 189 -1,
32 24 30 -1,
32 189 191 -1,
32 191 192 -1,
32 192 195 -1,
32 195 196 -1,
32 210 214 -1,
32 196 199 -1,
32 199 200 -1,
32 40 52 -1,
109 106 111 -1,
105 103 106 -1,
211 215 213 -1,
215 219 216 -1,
99 96 101 -1,
101 96 103 -1,
219 225 221 -1,
221 225 223 -1,
89 87 91 -1,
231 235 233 -1,
229 237 231 -1,
231 237 235 -1,
81 79 83 -1,
83 79 85 -1,
237 241 239 -1,
74 73 77 -1,
241 251 243 -1,
243 251 245 -1,
245 251 247 -1,
247 251 248 -1,
67 65 69 -1,
2 5 3 -1,
251 5 2 -1,
5 9 7 -1,
251 9 5 -1,
55 53 57 -1,
57 53 59 -1,
11 17 13 -1,
13 17 14 -1,
49 47 51 -1,
17 21 19 -1,
45 43 47 -1,
51 43 53 -1,
47 43 51 -1,
43 41 53 -1,
21 25 22 -1,
39 37 41 -1,
25 31 27 -1,
27 31 29 -1,
201 33 203 -1,
203 33 205 -1,
205 33 207 -1,
207 33 209 -1,
209 33 211 -1,
9 33 11 -1,
237 33 241 -1,
103 33 106 -1,
225 33 227 -1,
227 33 229 -1,
251 33 9 -1,
35 33 37 -1,
215 33 219 -1,
96 33 103 -1,
59 33 60 -1,
53 33 59 -1,
60 33 63 -1,
63 33 65 -1,
21 33 25 -1,
69 33 71 -1,
71 33 73 -1,
17 33 21 -1,
87 33 91 -1,
77 33 79 -1,
219 33 225 -1,
85 33 87 -1,
37 33 41 -1,
91 33 92 -1,
92 33 95 -1,
95 33 96 -1,
229 33 237 -1,
11 33 17 -1,
111 33 113 -1,
113 33 115 -1,
115 33 117 -1,
117 33 119 -1,
119 33 120 -1,
120 33 123 -1,
123 33 125 -1,
125 33 127 -1,
127 33 128 -1,
128 33 131 -1,
131 33 132 -1,
132 33 135 -1,
135 33 137 -1,
137 33 138 -1,
138 33 141 -1,
65 33 69 -1,
141 33 142 -1,
142 33 145 -1,
145 33 147 -1,
147 33 149 -1,
149 33 151 -1,
151 33 153 -1,
153 33 155 -1,
155 33 157 -1,
157 33 159 -1,
79 33 85 -1,
159 33 161 -1,
161 33 163 -1,
163 33 165 -1,
165 33 166 -1,
166 33 169 -1,
169 33 171 -1,
171 33 173 -1,
173 33 174 -1,
174 33 176 -1,
241 33 251 -1,
176 33 179 -1,
179 33 181 -1,
73 33 77 -1,
181 33 182 -1,
106 33 111 -1,
182 33 185 -1,
185 33 187 -1,
187 33 188 -1,
25 33 31 -1,
188 33 190 -1,
190 33 193 -1,
193 33 194 -1,
194 33 197 -1,
211 33 215 -1,
197 33 198 -1,
198 33 201 -1,
41 33 53 -1 ] } }
