#VRML V2.0 utf8
# Project-owned nominal model; units 0.1 inch for KiCad.
Shape { appearance Appearance { material Material { diffuseColor 0.055 0.06 0.065 } } geometry IndexedFaceSet { solid FALSE coord Coordinate { point [ -0.062992 1.574803 0.196850,
-0.062992 1.574803 1.968504,
-0.062992 3.700787 0.196850,
-0.062992 3.700787 1.968504,
2.062992 1.574803 1.968504,
2.062992 1.574803 0.196850,
2.062992 3.700787 0.196850,
2.062992 3.700787 1.968504 ] } coordIndex [ 0 1 2 -1,
2 1 3 -1,
4 5 6 -1,
4 6 7 -1,
5 4 0 -1,
0 4 1 -1,
7 6 2 -1,
7 2 3 -1,
2 6 0 -1,
0 6 5 -1,
7 3 1 -1,
7 1 4 -1 ] } }
Shape { appearance Appearance { material Material { diffuseColor 0.7 0.72 0.74 } } geometry IndexedFaceSet { solid FALSE coord Coordinate { point [ 0.098303 0.004906 0.787402,
0.098425 -0.000000 0.787402,
0.098425 -0.000000 -0.984252,
0.098303 0.004906 -0.984252,
0.097936 0.009800 0.787402,
0.097936 0.009800 -0.984252,
0.097326 0.014670 0.787402,
0.097326 0.014670 -0.984252,
0.096474 0.019503 0.787402,
0.096474 0.019503 -0.984252,
0.095382 0.024287 -0.984252,
0.095382 0.024287 0.787402,
0.094052 0.029011 0.787402,
0.094052 0.029011 -0.984252,
0.092489 0.033663 0.787402,
0.092489 0.033663 -0.984252,
0.090696 0.038232 0.787402,
0.090696 0.038232 -0.984252,
0.088678 0.042705 0.787402,
0.088678 0.042705 -0.984252,
0.086439 0.047072 0.787402,
0.086439 0.047072 -0.984252,
0.083985 0.051322 0.787402,
0.083985 0.051322 -0.984252,
0.081323 0.055445 -0.984252,
0.081323 0.055445 0.787402,
0.078458 0.059430 0.787402,
0.078458 0.059430 -0.984252,
0.075398 0.063266 -0.984252,
0.075398 0.063266 0.787402,
0.072151 0.066946 -0.984252,
0.072151 0.066946 0.787402,
0.068724 0.070459 0.787402,
0.068724 0.070459 -0.984252,
0.065127 0.073797 0.787402,
0.065127 0.073797 -0.984252,
0.061367 0.076952 0.787402,
0.061367 0.076952 -0.984252,
0.057455 0.079915 -0.984252,
0.057455 0.079915 0.787402,
0.053400 0.082680 0.787402,
0.053400 0.082680 -0.984252,
0.049213 0.085239 -0.984252,
0.049213 0.085239 0.787402,
0.044903 0.087586 0.787402,
0.044903 0.087586 -0.984252,
0.040481 0.089715 -0.984252,
0.040481 0.089715 0.787402,
0.035959 0.091621 -0.984252,
0.035959 0.091621 0.787402,
0.031347 0.093300 0.787402,
0.031347 0.093300 -0.984252,
0.026658 0.094746 -0.984252,
0.026658 0.094746 0.787402,
0.021902 0.095957 -0.984252,
0.021902 0.095957 0.787402,
0.017091 0.096930 0.787402,
0.017091 0.096930 -0.984252,
0.012239 0.097661 -0.984252,
0.012239 0.097661 0.787402,
0.007355 0.098150 0.787402,
0.007355 0.098150 -0.984252,
0.002454 0.098395 -0.984252,
0.002454 0.098395 0.787402,
-0.002454 0.098395 0.787402,
-0.002454 0.098395 -0.984252,
-0.007355 0.098150 -0.984252,
-0.007355 0.098150 0.787402,
-0.012239 0.097661 0.787402,
-0.012239 0.097661 -0.984252,
-0.017091 0.096930 -0.984252,
-0.017091 0.096930 0.787402,
-0.021902 0.095957 -0.984252,
-0.021902 0.095957 0.787402,
-0.026658 0.094746 -0.984252,
-0.026658 0.094746 0.787402,
-0.031347 0.093300 -0.984252,
-0.031347 0.093300 0.787402,
-0.035959 0.091621 0.787402,
-0.035959 0.091621 -0.984252,
-0.040481 0.089715 0.787402,
-0.040481 0.089715 -0.984252,
-0.044903 0.087586 -0.984252,
-0.044903 0.087586 0.787402,
-0.049213 0.085239 0.787402,
-0.049213 0.085239 -0.984252,
-0.053400 0.082680 0.787402,
-0.053400 0.082680 -0.984252,
-0.057455 0.079915 0.787402,
-0.057455 0.079915 -0.984252,
-0.061367 0.076952 -0.984252,
-0.061367 0.076952 0.787402,
-0.065127 0.073797 0.787402,
-0.065127 0.073797 -0.984252,
-0.068724 0.070459 -0.984252,
-0.068724 0.070459 0.787402,
-0.072151 0.066946 0.787402,
-0.072151 0.066946 -0.984252,
-0.075398 0.063266 -0.984252,
-0.075398 0.063266 0.787402,
-0.078458 0.059430 -0.984252,
-0.078458 0.059430 0.787402,
-0.081323 0.055445 0.787402,
-0.081323 0.055445 -0.984252,
-0.083985 0.051322 -0.984252,
-0.083985 0.051322 0.787402,
-0.086439 0.047072 -0.984252,
-0.086439 0.047072 0.787402,
-0.088678 0.042705 0.787402,
-0.088678 0.042705 -0.984252,
-0.090696 0.038232 0.787402,
-0.090696 0.038232 -0.984252,
-0.092489 0.033663 0.787402,
-0.092489 0.033663 -0.984252,
-0.094052 0.029011 0.787402,
-0.094052 0.029011 -0.984252,
-0.095382 0.024287 0.787402,
-0.095382 0.024287 -0.984252,
-0.096474 0.019503 0.787402,
-0.096474 0.019503 -0.984252,
-0.097326 0.014670 0.787402,
-0.097326 0.014670 -0.984252,
-0.097936 0.009800 0.787402,
-0.097936 0.009800 -0.984252,
-0.098303 0.004906 0.787402,
-0.098303 0.004906 -0.984252,
-0.098425 -0.000000 0.787402,
-0.098425 -0.000000 -0.984252,
-0.098303 -0.004906 0.787402,
-0.098303 -0.004906 -0.984252,
-0.097936 -0.009800 0.787402,
-0.097936 -0.009800 -0.984252,
-0.097326 -0.014670 -0.984252,
-0.097326 -0.014670 0.787402,
-0.096474 -0.019503 0.787402,
-0.096474 -0.019503 -0.984252,
-0.095382 -0.024287 0.787402,
-0.095382 -0.024287 -0.984252,
-0.094052 -0.029011 0.787402,
-0.094052 -0.029011 -0.984252,
-0.092489 -0.033663 0.787402,
-0.092489 -0.033663 -0.984252,
-0.090696 -0.038232 0.787402,
-0.090696 -0.038232 -0.984252,
-0.088678 -0.042705 0.787402,
-0.088678 -0.042705 -0.984252,
-0.086439 -0.047072 0.787402,
-0.086439 -0.047072 -0.984252,
-0.083985 -0.051322 0.787402,
-0.083985 -0.051322 -0.984252,
-0.081323 -0.055445 -0.984252,
-0.081323 -0.055445 0.787402,
-0.078458 -0.059430 0.787402,
-0.078458 -0.059430 -0.984252,
-0.075398 -0.063266 -0.984252,
-0.075398 -0.063266 0.787402,
-0.072151 -0.066946 0.787402,
-0.072151 -0.066946 -0.984252,
-0.068724 -0.070459 0.787402,
-0.068724 -0.070459 -0.984252,
-0.065127 -0.073797 -0.984252,
-0.065127 -0.073797 0.787402,
-0.061367 -0.076952 0.787402,
-0.061367 -0.076952 -0.984252,
-0.057455 -0.079915 0.787402,
-0.057455 -0.079915 -0.984252,
-0.053400 -0.082680 -0.984252,
-0.053400 -0.082680 0.787402,
-0.049213 -0.085239 -0.984252,
-0.049213 -0.085239 0.787402,
-0.044903 -0.087586 0.787402,
-0.044903 -0.087586 -0.984252,
-0.040481 -0.089715 0.787402,
-0.040481 -0.089715 -0.984252,
-0.035959 -0.091621 0.787402,
-0.035959 -0.091621 -0.984252,
-0.031347 -0.093300 0.787402,
-0.031347 -0.093300 -0.984252,
-0.026658 -0.094746 0.787402,
-0.026658 -0.094746 -0.984252,
-0.021902 -0.095957 0.787402,
-0.021902 -0.095957 -0.984252,
-0.017091 -0.096930 0.787402,
-0.017091 -0.096930 -0.984252,
-0.012239 -0.097661 0.787402,
-0.012239 -0.097661 -0.984252,
-0.007355 -0.098150 0.787402,
-0.007355 -0.098150 -0.984252,
-0.002454 -0.098395 -0.984252,
-0.002454 -0.098395 0.787402,
0.002454 -0.098395 0.787402,
0.002454 -0.098395 -0.984252,
0.007355 -0.098150 -0.984252,
0.007355 -0.098150 0.787402,
0.012239 -0.097661 0.787402,
0.012239 -0.097661 -0.984252,
0.017091 -0.096930 0.787402,
0.017091 -0.096930 -0.984252,
0.021902 -0.095957 0.787402,
0.021902 -0.095957 -0.984252,
0.026658 -0.094746 0.787402,
0.026658 -0.094746 -0.984252,
0.031347 -0.093300 0.787402,
0.031347 -0.093300 -0.984252,
0.035959 -0.091621 0.787402,
0.035959 -0.091621 -0.984252,
0.040481 -0.089715 0.787402,
0.040481 -0.089715 -0.984252,
0.044903 -0.087586 0.787402,
0.044903 -0.087586 -0.984252,
0.049213 -0.085239 0.787402,
0.049213 -0.085239 -0.984252,
0.053400 -0.082680 -0.984252,
0.053400 -0.082680 0.787402,
0.057455 -0.079915 0.787402,
0.057455 -0.079915 -0.984252,
0.061367 -0.076952 0.787402,
0.061367 -0.076952 -0.984252,
0.065127 -0.073797 0.787402,
0.065127 -0.073797 -0.984252,
0.068724 -0.070459 0.787402,
0.068724 -0.070459 -0.984252,
0.072151 -0.066946 0.787402,
0.072151 -0.066946 -0.984252,
0.075398 -0.063266 0.787402,
0.075398 -0.063266 -0.984252,
0.078458 -0.059430 0.787402,
0.078458 -0.059430 -0.984252,
0.081323 -0.055445 -0.984252,
0.081323 -0.055445 0.787402,
0.083985 -0.051322 0.787402,
0.083985 -0.051322 -0.984252,
0.086439 -0.047072 -0.984252,
0.086439 -0.047072 0.787402,
0.088678 -0.042705 0.787402,
0.088678 -0.042705 -0.984252,
0.090696 -0.038232 0.787402,
0.090696 -0.038232 -0.984252,
0.092489 -0.033663 0.787402,
0.092489 -0.033663 -0.984252,
0.094052 -0.029011 0.787402,
0.094052 -0.029011 -0.984252,
0.095382 -0.024287 0.787402,
0.095382 -0.024287 -0.984252,
0.096474 -0.019503 0.787402,
0.096474 -0.019503 -0.984252,
0.097326 -0.014670 0.787402,
0.097326 -0.014670 -0.984252,
0.097936 -0.009800 0.787402,
0.097936 -0.009800 -0.984252,
0.098303 -0.004906 0.787402,
0.098303 -0.004906 -0.984252 ] } coordIndex [ 0 1 2 -1,
0 2 3 -1,
4 3 5 -1,
4 0 3 -1,
6 5 7 -1,
6 4 5 -1,
8 7 9 -1,
8 9 10 -1,
8 6 7 -1,
11 8 10 -1,
12 10 13 -1,
12 11 10 -1,
14 13 15 -1,
14 12 13 -1,
16 15 17 -1,
16 14 15 -1,
18 17 19 -1,
18 16 17 -1,
20 19 21 -1,
20 18 19 -1,
22 20 21 -1,
22 21 23 -1,
22 23 24 -1,
25 22 24 -1,
26 25 24 -1,
26 24 27 -1,
26 27 28 -1,
29 26 28 -1,
29 28 30 -1,
31 29 30 -1,
32 31 30 -1,
32 30 33 -1,
34 32 33 -1,
34 33 35 -1,
36 34 35 -1,
36 35 37 -1,
36 37 38 -1,
39 36 38 -1,
40 39 38 -1,
40 38 41 -1,
40 41 42 -1,
43 40 42 -1,
44 43 42 -1,
44 42 45 -1,
44 45 46 -1,
47 46 48 -1,
47 44 46 -1,
49 47 48 -1,
50 49 48 -1,
50 48 51 -1,
50 51 52 -1,
53 52 54 -1,
53 50 52 -1,
55 53 54 -1,
56 54 57 -1,
56 57 58 -1,
56 55 54 -1,
59 56 58 -1,
60 58 61 -1,
60 61 62 -1,
60 59 58 -1,
63 60 62 -1,
64 62 65 -1,
64 65 66 -1,
64 63 62 -1,
67 64 66 -1,
68 66 69 -1,
68 69 70 -1,
68 67 66 -1,
71 70 72 -1,
71 68 70 -1,
73 72 74 -1,
73 71 72 -1,
75 73 74 -1,
75 74 76 -1,
77 75 76 -1,
78 77 76 -1,
78 76 79 -1,
80 78 79 -1,
80 79 81 -1,
80 81 82 -1,
83 80 82 -1,
84 83 82 -1,
84 82 85 -1,
86 84 85 -1,
86 85 87 -1,
88 86 87 -1,
88 87 89 -1,
88 89 90 -1,
91 88 90 -1,
92 91 90 -1,
92 90 93 -1,
92 93 94 -1,
95 92 94 -1,
96 95 94 -1,
96 94 97 -1,
96 97 98 -1,
99 96 98 -1,
99 98 100 -1,
101 99 100 -1,
102 101 100 -1,
102 100 103 -1,
102 103 104 -1,
105 102 104 -1,
105 104 106 -1,
107 105 106 -1,
108 107 106 -1,
108 106 109 -1,
110 108 109 -1,
110 109 111 -1,
112 110 111 -1,
112 111 113 -1,
114 112 113 -1,
114 113 115 -1,
116 115 117 -1,
116 114 115 -1,
118 117 119 -1,
118 116 117 -1,
120 119 121 -1,
120 118 119 -1,
122 121 123 -1,
122 120 121 -1,
124 122 123 -1,
124 123 125 -1,
126 124 125 -1,
126 125 127 -1,
128 126 127 -1,
128 127 129 -1,
130 128 129 -1,
130 129 131 -1,
130 131 132 -1,
133 130 132 -1,
134 133 132 -1,
134 132 135 -1,
136 134 135 -1,
136 135 137 -1,
138 136 137 -1,
138 137 139 -1,
140 138 139 -1,
140 139 141 -1,
142 140 141 -1,
142 141 143 -1,
144 142 143 -1,
144 143 145 -1,
146 144 145 -1,
146 145 147 -1,
148 149 150 -1,
148 146 147 -1,
148 147 149 -1,
151 148 150 -1,
152 150 153 -1,
152 153 154 -1,
152 151 150 -1,
155 152 154 -1,
156 154 157 -1,
156 155 154 -1,
158 157 159 -1,
158 159 160 -1,
158 156 157 -1,
161 158 160 -1,
162 160 163 -1,
162 161 160 -1,
164 163 165 -1,
164 165 166 -1,
164 162 163 -1,
167 166 168 -1,
167 164 166 -1,
169 167 168 -1,
170 168 171 -1,
170 169 168 -1,
172 171 173 -1,
172 170 171 -1,
174 173 175 -1,
174 172 173 -1,
176 174 175 -1,
176 175 177 -1,
178 176 177 -1,
178 177 179 -1,
180 178 179 -1,
180 179 181 -1,
182 180 181 -1,
182 181 183 -1,
184 183 185 -1,
184 182 183 -1,
186 185 187 -1,
186 187 188 -1,
186 184 185 -1,
189 186 188 -1,
190 188 191 -1,
190 191 192 -1,
190 189 188 -1,
193 190 192 -1,
194 192 195 -1,
194 193 192 -1,
196 195 197 -1,
196 194 195 -1,
198 197 199 -1,
198 196 197 -1,
200 199 201 -1,
200 198 199 -1,
202 201 203 -1,
202 200 201 -1,
204 203 205 -1,
204 202 203 -1,
206 205 207 -1,
206 204 205 -1,
208 207 209 -1,
208 206 207 -1,
210 209 211 -1,
210 211 212 -1,
210 208 209 -1,
213 210 212 -1,
214 212 215 -1,
214 213 212 -1,
216 215 217 -1,
216 214 215 -1,
218 217 219 -1,
218 216 217 -1,
220 219 221 -1,
220 218 219 -1,
222 221 223 -1,
222 220 221 -1,
224 223 225 -1,
224 222 223 -1,
226 224 225 -1,
226 225 227 -1,
226 227 228 -1,
229 226 228 -1,
230 229 228 -1,
230 228 231 -1,
230 231 232 -1,
233 230 232 -1,
234 233 232 -1,
234 232 235 -1,
236 234 235 -1,
236 235 237 -1,
238 236 237 -1,
238 237 239 -1,
240 238 239 -1,
240 239 241 -1,
242 240 241 -1,
242 241 243 -1,
244 242 243 -1,
244 243 245 -1,
246 244 245 -1,
246 245 247 -1,
248 246 247 -1,
248 247 249 -1,
250 249 251 -1,
250 248 249 -1,
250 251 2 -1,
1 250 2 -1,
208 204 206 -1,
210 204 208 -1,
214 210 213 -1,
216 210 214 -1,
224 216 218 -1,
224 218 220 -1,
224 220 222 -1,
88 91 92 -1,
233 229 230 -1,
80 83 84 -1,
236 233 234 -1,
238 233 236 -1,
242 238 240 -1,
244 233 238 -1,
244 238 242 -1,
248 244 246 -1,
0 248 250 -1,
0 250 1 -1,
53 55 56 -1,
12 8 11 -1,
16 12 14 -1,
47 49 50 -1,
18 6 8 -1,
18 8 12 -1,
18 12 16 -1,
25 20 22 -1,
39 40 43 -1,
39 43 44 -1,
31 25 26 -1,
31 26 29 -1,
32 25 31 -1,
32 200 202 -1,
32 202 204 -1,
32 0 4 -1,
32 4 6 -1,
32 204 210 -1,
32 18 20 -1,
32 224 226 -1,
32 226 229 -1,
32 34 36 -1,
32 36 39 -1,
32 44 47 -1,
32 210 216 -1,
32 50 53 -1,
32 56 59 -1,
32 59 60 -1,
32 60 63 -1,
32 63 64 -1,
32 64 67 -1,
32 67 68 -1,
32 68 71 -1,
32 71 73 -1,
32 73 75 -1,
32 75 77 -1,
32 77 78 -1,
32 78 80 -1,
32 84 86 -1,
32 86 88 -1,
32 39 44 -1,
32 6 18 -1,
32 92 95 -1,
32 95 96 -1,
32 96 99 -1,
32 99 101 -1,
32 101 102 -1,
32 102 105 -1,
32 105 107 -1,
32 107 108 -1,
32 88 92 -1,
32 108 110 -1,
32 110 112 -1,
32 112 114 -1,
32 114 116 -1,
32 216 224 -1,
32 116 118 -1,
32 118 120 -1,
32 120 122 -1,
32 122 124 -1,
32 124 126 -1,
32 126 128 -1,
32 244 248 -1,
32 128 130 -1,
32 130 133 -1,
32 133 134 -1,
32 134 136 -1,
32 229 233 -1,
32 136 138 -1,
32 138 140 -1,
32 140 142 -1,
32 142 144 -1,
32 144 146 -1,
32 80 84 -1,
32 146 148 -1,
32 148 151 -1,
32 151 152 -1,
32 152 155 -1,
32 155 156 -1,
32 156 158 -1,
32 158 161 -1,
32 233 244 -1,
32 161 162 -1,
32 162 164 -1,
32 164 167 -1,
32 47 50 -1,
32 167 169 -1,
32 169 170 -1,
32 170 172 -1,
32 53 56 -1,
32 248 0 -1,
32 172 174 -1,
32 174 176 -1,
32 176 178 -1,
32 178 180 -1,
32 180 182 -1,
32 182 184 -1,
32 184 186 -1,
32 186 189 -1,
32 189 190 -1,
32 20 25 -1,
32 190 193 -1,
32 193 194 -1,
32 194 196 -1,
32 196 198 -1,
32 198 200 -1,
205 209 207 -1,
205 211 209 -1,
211 215 212 -1,
211 217 215 -1,
217 225 219 -1,
219 225 221 -1,
221 225 223 -1,
90 89 93 -1,
228 232 231 -1,
82 81 85 -1,
232 237 235 -1,
232 239 237 -1,
239 243 241 -1,
232 245 239 -1,
239 245 243 -1,
245 249 247 -1,
249 3 251 -1,
251 3 2 -1,
54 52 57 -1,
9 13 10 -1,
13 17 15 -1,
48 46 51 -1,
7 19 9 -1,
9 19 13 -1,
13 19 17 -1,
21 24 23 -1,
41 38 42 -1,
42 38 45 -1,
24 30 27 -1,
27 30 28 -1,
24 33 30 -1,
201 33 203 -1,
203 33 205 -1,
3 33 5 -1,
5 33 7 -1,
205 33 211 -1,
19 33 21 -1,
225 33 227 -1,
227 33 228 -1,
35 33 37 -1,
37 33 38 -1,
45 33 46 -1,
211 33 217 -1,
51 33 52 -1,
57 33 58 -1,
58 33 61 -1,
61 33 62 -1,
62 33 65 -1,
65 33 66 -1,
66 33 69 -1,
69 33 70 -1,
70 33 72 -1,
72 33 74 -1,
74 33 76 -1,
76 33 79 -1,
79 33 81 -1,
85 33 87 -1,
87 33 89 -1,
38 33 45 -1,
7 33 19 -1,
93 33 94 -1,
94 33 97 -1,
97 33 98 -1,
98 33 100 -1,
100 33 103 -1,
103 33 104 -1,
104 33 106 -1,
106 33 109 -1,
89 33 93 -1,
109 33 111 -1,
111 33 113 -1,
113 33 115 -1,
115 33 117 -1,
217 33 225 -1,
117 33 119 -1,
119 33 121 -1,
121 33 123 -1,
123 33 125 -1,
125 33 127 -1,
127 33 129 -1,
245 33 249 -1,
129 33 131 -1,
131 33 132 -1,
132 33 135 -1,
135 33 137 -1,
228 33 232 -1,
137 33 139 -1,
139 33 141 -1,
141 33 143 -1,
143 33 145 -1,
145 33 147 -1,
81 33 85 -1,
147 33 149 -1,
149 33 150 -1,
150 33 153 -1,
153 33 154 -1,
154 33 157 -1,
157 33 159 -1,
159 33 160 -1,
232 33 245 -1,
160 33 163 -1,
163 33 165 -1,
165 33 166 -1,
46 33 51 -1,
166 33 168 -1,
168 33 171 -1,
171 33 173 -1,
52 33 57 -1,
249 33 3 -1,
173 33 175 -1,
175 33 177 -1,
177 33 179 -1,
179 33 181 -1,
181 33 183 -1,
183 33 185 -1,
185 33 187 -1,
187 33 188 -1,
188 33 191 -1,
21 33 24 -1,
191 33 192 -1,
192 33 195 -1,
195 33 197 -1,
197 33 199 -1,
199 33 201 -1 ] } }
Shape { appearance Appearance { material Material { diffuseColor 0.7 0.72 0.74 } } geometry IndexedFaceSet { solid FALSE coord Coordinate { point [ 0.593694 1.545055 0.782495,
0.593810 1.545018 0.787402,
0.093810 -0.029785 0.787402,
0.093694 -0.029748 0.782495,
0.593344 1.545166 0.777602,
0.093344 -0.029637 0.777602,
0.592763 1.545351 0.772732,
0.092763 -0.029452 0.772732,
0.591950 1.545609 0.767899,
0.091950 -0.029194 0.767899,
0.590909 1.545939 0.763114,
0.090909 -0.028864 0.763114,
0.589643 1.546342 0.758390,
0.089643 -0.028462 0.758390,
0.588153 1.546815 0.753738,
0.088153 -0.027989 0.753738,
0.086444 -0.027446 0.749170,
0.586444 1.547357 0.749170,
0.584520 1.547968 0.744696,
0.084520 -0.026835 0.744696,
0.582386 1.548646 0.740329,
0.082386 -0.026158 0.740329,
0.580048 1.549388 0.736079,
0.080048 -0.025415 0.736079,
0.577510 1.550194 0.731957,
0.077510 -0.024609 0.731957,
0.074779 -0.023742 0.727972,
0.574779 1.551061 0.727972,
0.071863 -0.022816 0.724135,
0.571863 1.551987 0.724135,
0.568768 1.552969 0.720455,
0.068768 -0.021834 0.720455,
0.065502 -0.020797 0.716942,
0.565502 1.554006 0.716942,
0.562073 1.555095 0.713604,
0.062073 -0.019708 0.713604,
0.558490 1.556233 0.710450,
0.058490 -0.018571 0.710450,
0.554761 1.557416 0.707486,
0.054761 -0.017387 0.707486,
0.550896 1.558644 0.704722,
0.050896 -0.016160 0.704722,
0.546905 1.559911 0.702163,
0.046905 -0.014892 0.702163,
0.542797 1.561215 0.699816,
0.042797 -0.013588 0.699816,
0.538583 1.562553 0.697686,
0.038583 -0.012250 0.697686,
0.534273 1.563922 0.695780,
0.034273 -0.010882 0.695780,
0.529877 1.565317 0.694102,
0.029877 -0.009486 0.694102,
0.525408 1.566736 0.692655,
0.025408 -0.008067 0.692655,
0.520875 1.568175 0.691444,
0.020875 -0.006628 0.691444,
0.516290 1.569631 0.690472,
0.016290 -0.005172 0.690472,
0.511665 1.571100 0.689740,
0.011665 -0.003704 0.689740,
0.507010 1.572577 0.689252,
0.007010 -0.002226 0.689252,
0.502339 1.574061 0.689007,
0.002339 -0.000743 0.689007,
0.497661 1.575546 0.689007,
-0.002339 0.000743 0.689007,
0.492990 1.577029 0.689252,
-0.007010 0.002226 0.689252,
-0.011665 0.003704 0.689740,
0.488335 1.578507 0.689740,
0.483710 1.579975 0.690472,
-0.016290 0.005172 0.690472,
0.479125 1.581431 0.691444,
-0.020875 0.006628 0.691444,
-0.025408 0.008067 0.692655,
0.474592 1.582870 0.692655,
0.470123 1.584289 0.694102,
-0.029877 0.009486 0.694102,
0.465727 1.585685 0.695780,
-0.034273 0.010882 0.695780,
0.461417 1.587053 0.697686,
-0.038583 0.012250 0.697686,
-0.042797 0.013588 0.699816,
0.457203 1.588391 0.699816,
0.453095 1.589696 0.702163,
-0.046905 0.014892 0.702163,
-0.050896 0.016160 0.704722,
0.449104 1.590963 0.704722,
-0.054761 0.017387 0.707486,
0.445239 1.592190 0.707486,
0.441510 1.593374 0.710450,
-0.058490 0.018571 0.710450,
0.437927 1.594511 0.713604,
-0.062073 0.019708 0.713604,
-0.065502 0.020797 0.716942,
0.434498 1.595600 0.716942,
0.431232 1.596637 0.720455,
-0.068768 0.021834 0.720455,
0.428137 1.597620 0.724135,
-0.071863 0.022816 0.724135,
-0.074779 0.023742 0.727972,
0.425221 1.598546 0.727972,
-0.077510 0.024609 0.731957,
0.422490 1.599413 0.731957,
0.419952 1.600218 0.736079,
-0.080048 0.025415 0.736079,
0.417614 1.600961 0.740329,
-0.082386 0.026158 0.740329,
0.415480 1.601638 0.744696,
-0.084520 0.026835 0.744696,
-0.086444 0.027446 0.749170,
0.413556 1.602249 0.749170,
0.411847 1.602792 0.753738,
-0.088153 0.027989 0.753738,
0.410357 1.603265 0.758390,
-0.089643 0.028462 0.758390,
-0.090909 0.028864 0.763114,
0.409091 1.603667 0.763114,
0.408050 1.603997 0.767899,
-0.091950 0.029194 0.767899,
-0.092763 0.029452 0.772732,
0.407237 1.604255 0.772732,
0.406656 1.604440 0.777602,
-0.093344 0.029637 0.777602,
0.406306 1.604551 0.782495,
-0.093694 0.029748 0.782495,
0.406190 1.604588 0.787402,
-0.093810 0.029785 0.787402,
0.406306 1.604551 0.792308,
-0.093694 0.029748 0.792308,
0.406656 1.604440 0.797202,
-0.093344 0.029637 0.797202,
-0.092763 0.029452 0.802071,
0.407237 1.604255 0.802071,
0.408050 1.603997 0.806904,
-0.091950 0.029194 0.806904,
0.409091 1.603667 0.811689,
-0.090909 0.028864 0.811689,
0.410357 1.603265 0.816413,
-0.089643 0.028462 0.816413,
0.411847 1.602792 0.821065,
-0.088153 0.027989 0.821065,
0.413556 1.602249 0.825633,
-0.086444 0.027446 0.825633,
0.415480 1.601638 0.830107,
-0.084520 0.026835 0.830107,
0.417614 1.600961 0.834474,
-0.082386 0.026158 0.834474,
0.419952 1.600218 0.838724,
-0.080048 0.025415 0.838724,
-0.077510 0.024609 0.842846,
0.422490 1.599413 0.842846,
0.425221 1.598546 0.846831,
-0.074779 0.023742 0.846831,
0.428137 1.597620 0.850668,
-0.071863 0.022816 0.850668,
0.431232 1.596637 0.854348,
-0.068768 0.021834 0.854348,
0.434498 1.595600 0.857861,
-0.065502 0.020797 0.857861,
-0.062073 0.019708 0.861199,
0.437927 1.594511 0.861199,
0.441510 1.593374 0.864353,
-0.058490 0.018571 0.864353,
0.445239 1.592190 0.867317,
-0.054761 0.017387 0.867317,
0.449104 1.590963 0.870081,
-0.050896 0.016160 0.870081,
0.453095 1.589696 0.872640,
-0.046905 0.014892 0.872640,
0.457203 1.588391 0.874987,
-0.042797 0.013588 0.874987,
0.461417 1.587053 0.877117,
-0.038583 0.012250 0.877117,
-0.034273 0.010882 0.879023,
0.465727 1.585685 0.879023,
0.470123 1.584289 0.880702,
-0.029877 0.009486 0.880702,
0.474592 1.582870 0.882148,
-0.025408 0.008067 0.882148,
0.479125 1.581431 0.883359,
-0.020875 0.006628 0.883359,
-0.016290 0.005172 0.884331,
0.483710 1.579975 0.884331,
0.488335 1.578507 0.885063,
-0.011665 0.003704 0.885063,
0.492990 1.577029 0.885552,
-0.007010 0.002226 0.885552,
0.497661 1.575546 0.885796,
-0.002339 0.000743 0.885796,
0.502339 1.574061 0.885796,
0.002339 -0.000743 0.885796,
0.007010 -0.002226 0.885552,
0.507010 1.572577 0.885552,
0.511665 1.571100 0.885063,
0.011665 -0.003704 0.885063,
0.016290 -0.005172 0.884331,
0.516290 1.569631 0.884331,
0.020875 -0.006628 0.883359,
0.520875 1.568175 0.883359,
0.525408 1.566736 0.882148,
0.025408 -0.008067 0.882148,
0.029877 -0.009486 0.880702,
0.529877 1.565317 0.880702,
0.534273 1.563922 0.879023,
0.034273 -0.010882 0.879023,
0.038583 -0.012250 0.877117,
0.538583 1.562553 0.877117,
0.542797 1.561215 0.874987,
0.042797 -0.013588 0.874987,
0.546905 1.559911 0.872640,
0.046905 -0.014892 0.872640,
0.550896 1.558644 0.870081,
0.050896 -0.016160 0.870081,
0.054761 -0.017387 0.867317,
0.554761 1.557416 0.867317,
0.058490 -0.018571 0.864353,
0.558490 1.556233 0.864353,
0.562073 1.555095 0.861199,
0.062073 -0.019708 0.861199,
0.065502 -0.020797 0.857861,
0.565502 1.554006 0.857861,
0.568768 1.552969 0.854348,
0.068768 -0.021834 0.854348,
0.071863 -0.022816 0.850668,
0.571863 1.551987 0.850668,
0.574779 1.551061 0.846831,
0.074779 -0.023742 0.846831,
0.577510 1.550194 0.842846,
0.077510 -0.024609 0.842846,
0.080048 -0.025415 0.838724,
0.580048 1.549388 0.838724,
0.582386 1.548646 0.834474,
0.082386 -0.026158 0.834474,
0.084520 -0.026835 0.830107,
0.584520 1.547968 0.830107,
0.086444 -0.027446 0.825633,
0.586444 1.547357 0.825633,
0.588153 1.546815 0.821065,
0.088153 -0.027989 0.821065,
0.589643 1.546342 0.816413,
0.089643 -0.028462 0.816413,
0.590909 1.545939 0.811689,
0.090909 -0.028864 0.811689,
0.591950 1.545609 0.806904,
0.091950 -0.029194 0.806904,
0.092763 -0.029452 0.802071,
0.592763 1.545351 0.802071,
0.593344 1.545166 0.797202,
0.093344 -0.029637 0.797202,
0.093694 -0.029748 0.792308,
0.593694 1.545055 0.792308 ] } coordIndex [ 0 1 2 -1,
0 2 3 -1,
4 3 5 -1,
4 0 3 -1,
6 5 7 -1,
6 4 5 -1,
8 7 9 -1,
8 6 7 -1,
10 9 11 -1,
10 8 9 -1,
12 11 13 -1,
12 10 11 -1,
14 13 15 -1,
14 15 16 -1,
14 12 13 -1,
17 14 16 -1,
18 16 19 -1,
18 17 16 -1,
20 19 21 -1,
20 18 19 -1,
22 20 21 -1,
22 21 23 -1,
24 22 23 -1,
24 23 25 -1,
24 25 26 -1,
27 24 26 -1,
27 26 28 -1,
29 27 28 -1,
30 29 28 -1,
30 28 31 -1,
30 31 32 -1,
33 30 32 -1,
34 33 32 -1,
34 32 35 -1,
36 34 35 -1,
36 35 37 -1,
38 36 37 -1,
38 37 39 -1,
40 38 39 -1,
40 39 41 -1,
42 40 41 -1,
42 41 43 -1,
44 42 43 -1,
44 43 45 -1,
46 45 47 -1,
46 44 45 -1,
48 47 49 -1,
48 46 47 -1,
50 49 51 -1,
50 48 49 -1,
52 51 53 -1,
52 50 51 -1,
54 53 55 -1,
54 52 53 -1,
56 55 57 -1,
56 54 55 -1,
58 57 59 -1,
58 56 57 -1,
60 59 61 -1,
60 58 59 -1,
62 61 63 -1,
62 60 61 -1,
64 63 65 -1,
64 62 63 -1,
66 65 67 -1,
66 67 68 -1,
66 64 65 -1,
69 66 68 -1,
70 68 71 -1,
70 69 68 -1,
72 71 73 -1,
72 73 74 -1,
72 70 71 -1,
75 72 74 -1,
76 75 74 -1,
76 74 77 -1,
78 76 77 -1,
78 77 79 -1,
80 78 79 -1,
80 79 81 -1,
80 81 82 -1,
83 80 82 -1,
84 83 82 -1,
84 82 85 -1,
84 85 86 -1,
87 84 86 -1,
87 86 88 -1,
89 87 88 -1,
90 89 88 -1,
90 88 91 -1,
92 90 91 -1,
92 91 93 -1,
92 93 94 -1,
95 92 94 -1,
96 95 94 -1,
96 94 97 -1,
98 96 97 -1,
98 97 99 -1,
98 99 100 -1,
101 98 100 -1,
101 100 102 -1,
103 101 102 -1,
104 103 102 -1,
104 102 105 -1,
106 104 105 -1,
106 105 107 -1,
108 106 107 -1,
108 107 109 -1,
108 109 110 -1,
111 108 110 -1,
112 111 110 -1,
112 110 113 -1,
114 112 113 -1,
114 113 115 -1,
114 115 116 -1,
117 114 116 -1,
118 116 119 -1,
118 119 120 -1,
118 117 116 -1,
121 118 120 -1,
122 120 123 -1,
122 121 120 -1,
124 122 123 -1,
124 123 125 -1,
126 124 125 -1,
126 125 127 -1,
128 126 127 -1,
128 127 129 -1,
130 128 129 -1,
130 129 131 -1,
130 131 132 -1,
133 130 132 -1,
134 133 132 -1,
134 132 135 -1,
136 134 135 -1,
136 135 137 -1,
138 136 137 -1,
138 137 139 -1,
140 138 139 -1,
140 139 141 -1,
142 140 141 -1,
142 141 143 -1,
144 142 143 -1,
144 143 145 -1,
146 144 145 -1,
146 145 147 -1,
148 149 150 -1,
148 146 147 -1,
148 147 149 -1,
151 148 150 -1,
152 150 153 -1,
152 151 150 -1,
154 153 155 -1,
154 152 153 -1,
156 155 157 -1,
156 154 155 -1,
158 157 159 -1,
158 159 160 -1,
158 156 157 -1,
161 158 160 -1,
162 160 163 -1,
162 161 160 -1,
164 163 165 -1,
164 162 163 -1,
166 165 167 -1,
166 164 165 -1,
168 167 169 -1,
168 166 167 -1,
170 169 171 -1,
170 168 169 -1,
172 171 173 -1,
172 173 174 -1,
172 170 171 -1,
175 172 174 -1,
176 175 174 -1,
176 174 177 -1,
178 176 177 -1,
178 177 179 -1,
180 178 179 -1,
180 179 181 -1,
180 181 182 -1,
183 180 182 -1,
184 182 185 -1,
184 183 182 -1,
186 185 187 -1,
186 184 185 -1,
188 187 189 -1,
188 186 187 -1,
190 189 191 -1,
190 191 192 -1,
190 188 189 -1,
193 190 192 -1,
194 192 195 -1,
194 195 196 -1,
194 193 192 -1,
197 194 196 -1,
197 196 198 -1,
199 197 198 -1,
200 198 201 -1,
200 201 202 -1,
200 199 198 -1,
203 200 202 -1,
204 202 205 -1,
204 205 206 -1,
204 203 202 -1,
207 204 206 -1,
208 206 209 -1,
208 207 206 -1,
210 209 211 -1,
210 208 209 -1,
212 211 213 -1,
212 213 214 -1,
212 210 211 -1,
215 214 216 -1,
215 212 214 -1,
217 215 216 -1,
218 216 219 -1,
218 219 220 -1,
218 217 216 -1,
221 218 220 -1,
222 220 223 -1,
222 223 224 -1,
222 221 220 -1,
225 222 224 -1,
226 225 224 -1,
226 224 227 -1,
228 226 227 -1,
228 227 229 -1,
228 229 230 -1,
231 228 230 -1,
232 231 230 -1,
232 230 233 -1,
232 233 234 -1,
235 232 234 -1,
235 234 236 -1,
237 235 236 -1,
238 237 236 -1,
238 236 239 -1,
240 238 239 -1,
240 239 241 -1,
242 240 241 -1,
242 241 243 -1,
244 242 243 -1,
244 243 245 -1,
244 245 246 -1,
247 244 246 -1,
248 247 246 -1,
248 246 249 -1,
248 249 250 -1,
251 248 250 -1,
1 250 2 -1,
1 251 250 -1,
18 14 17 -1,
42 44 46 -1,
42 46 48 -1,
42 48 50 -1,
22 18 20 -1,
24 18 22 -1,
38 40 42 -1,
30 27 29 -1,
33 200 203 -1,
33 248 0 -1,
33 203 204 -1,
33 0 4 -1,
33 238 247 -1,
33 4 6 -1,
33 6 14 -1,
33 18 24 -1,
33 235 238 -1,
33 104 108 -1,
33 24 27 -1,
33 231 232 -1,
33 232 235 -1,
33 34 36 -1,
33 36 38 -1,
108 111 112 -1,
33 247 248 -1,
33 108 112 -1,
33 56 58 -1,
33 58 60 -1,
33 60 62 -1,
33 62 64 -1,
33 64 66 -1,
33 66 69 -1,
33 69 70 -1,
33 70 72 -1,
33 27 30 -1,
33 72 75 -1,
33 84 89 -1,
33 75 76 -1,
33 76 78 -1,
33 208 215 -1,
33 78 80 -1,
33 80 83 -1,
33 42 50 -1,
33 83 84 -1,
33 38 42 -1,
33 89 90 -1,
33 215 225 -1,
33 90 92 -1,
33 92 95 -1,
33 95 96 -1,
33 96 98 -1,
33 98 101 -1,
33 14 18 -1,
33 101 103 -1,
33 103 104 -1,
33 112 114 -1,
208 204 207 -1,
33 114 117 -1,
33 117 118 -1,
33 118 121 -1,
33 121 122 -1,
33 122 124 -1,
33 124 126 -1,
33 126 128 -1,
33 128 130 -1,
33 130 133 -1,
33 133 134 -1,
33 134 136 -1,
33 136 138 -1,
33 138 140 -1,
33 140 142 -1,
33 225 231 -1,
33 142 144 -1,
33 144 146 -1,
33 146 148 -1,
33 204 208 -1,
33 148 151 -1,
33 151 152 -1,
33 50 56 -1,
33 152 154 -1,
33 154 156 -1,
33 156 158 -1,
33 158 161 -1,
33 161 162 -1,
33 162 164 -1,
33 164 166 -1,
33 166 168 -1,
33 168 170 -1,
33 170 172 -1,
33 172 175 -1,
33 175 176 -1,
33 176 178 -1,
33 178 180 -1,
33 180 183 -1,
33 183 184 -1,
33 184 186 -1,
33 186 188 -1,
33 188 190 -1,
33 190 193 -1,
33 193 194 -1,
33 194 197 -1,
33 197 199 -1,
33 199 200 -1,
104 106 108 -1,
215 208 210 -1,
215 210 212 -1,
221 217 218 -1,
222 215 217 -1,
222 217 221 -1,
225 215 222 -1,
231 225 226 -1,
231 226 228 -1,
84 87 89 -1,
238 235 237 -1,
242 238 240 -1,
244 238 242 -1,
247 238 244 -1,
0 248 251 -1,
0 251 1 -1,
50 52 54 -1,
50 54 56 -1,
14 6 8 -1,
14 8 10 -1,
14 10 12 -1,
15 19 16 -1,
45 43 47 -1,
47 43 49 -1,
49 43 51 -1,
19 23 21 -1,
19 25 23 -1,
41 39 43 -1,
26 31 28 -1,
201 32 202 -1,
249 32 3 -1,
202 32 205 -1,
3 32 5 -1,
239 32 246 -1,
5 32 7 -1,
7 32 15 -1,
19 32 25 -1,
234 32 239 -1,
105 32 109 -1,
25 32 26 -1,
230 32 233 -1,
233 32 234 -1,
35 32 37 -1,
37 32 39 -1,
110 109 113 -1,
246 32 249 -1,
109 32 113 -1,
57 32 59 -1,
59 32 61 -1,
61 32 63 -1,
63 32 65 -1,
65 32 67 -1,
67 32 68 -1,
68 32 71 -1,
71 32 73 -1,
26 32 31 -1,
73 32 74 -1,
85 32 88 -1,
74 32 77 -1,
77 32 79 -1,
209 32 214 -1,
79 32 81 -1,
81 32 82 -1,
43 32 51 -1,
82 32 85 -1,
39 32 43 -1,
88 32 91 -1,
214 32 224 -1,
91 32 93 -1,
93 32 94 -1,
94 32 97 -1,
97 32 99 -1,
99 32 100 -1,
15 32 19 -1,
100 32 102 -1,
102 32 105 -1,
113 32 115 -1,
205 209 206 -1,
115 32 116 -1,
116 32 119 -1,
119 32 120 -1,
120 32 123 -1,
123 32 125 -1,
125 32 127 -1,
127 32 129 -1,
129 32 131 -1,
131 32 132 -1,
132 32 135 -1,
135 32 137 -1,
137 32 139 -1,
139 32 141 -1,
141 32 143 -1,
224 32 230 -1,
143 32 145 -1,
145 32 147 -1,
147 32 149 -1,
205 32 209 -1,
149 32 150 -1,
150 32 153 -1,
51 32 57 -1,
153 32 155 -1,
155 32 157 -1,
157 32 159 -1,
159 32 160 -1,
160 32 163 -1,
163 32 165 -1,
165 32 167 -1,
167 32 169 -1,
169 32 171 -1,
171 32 173 -1,
173 32 174 -1,
174 32 177 -1,
177 32 179 -1,
179 32 181 -1,
181 32 182 -1,
182 32 185 -1,
185 32 187 -1,
187 32 189 -1,
189 32 191 -1,
191 32 192 -1,
192 32 195 -1,
195 32 196 -1,
196 32 198 -1,
198 32 201 -1,
107 105 109 -1,
209 214 211 -1,
211 214 213 -1,
216 220 219 -1,
214 223 216 -1,
216 223 220 -1,
214 224 223 -1,
224 230 227 -1,
227 230 229 -1,
86 85 88 -1,
234 239 236 -1,
239 243 241 -1,
239 245 243 -1,
239 246 245 -1,
249 3 250 -1,
250 3 2 -1,
53 51 55 -1,
55 51 57 -1,
7 15 9 -1,
9 15 11 -1,
11 15 13 -1 ] } }
Shape { appearance Appearance { material Material { diffuseColor 0.7 0.72 0.74 } } geometry IndexedFaceSet { solid FALSE coord Coordinate { point [ 1.098303 0.004906 0.787402,
1.098425 -0.000000 0.787402,
1.098425 -0.000000 -0.984252,
1.098303 0.004906 -0.984252,
1.097936 0.009800 0.787402,
1.097936 0.009800 -0.984252,
1.097326 0.014670 0.787402,
1.097326 0.014670 -0.984252,
1.096474 0.019503 0.787402,
1.096474 0.019503 -0.984252,
1.095382 0.024287 -0.984252,
1.095382 0.024287 0.787402,
1.094052 0.029011 0.787402,
1.094052 0.029011 -0.984252,
1.092489 0.033663 0.787402,
1.092489 0.033663 -0.984252,
1.090696 0.038232 0.787402,
1.090696 0.038232 -0.984252,
1.088678 0.042705 0.787402,
1.088678 0.042705 -0.984252,
1.086439 0.047072 0.787402,
1.086439 0.047072 -0.984252,
1.083985 0.051322 0.787402,
1.083985 0.051322 -0.984252,
1.081323 0.055445 -0.984252,
1.081323 0.055445 0.787402,
1.078458 0.059430 0.787402,
1.078458 0.059430 -0.984252,
1.075398 0.063266 -0.984252,
1.075398 0.063266 0.787402,
1.072151 0.066946 -0.984252,
1.072151 0.066946 0.787402,
1.068724 0.070459 0.787402,
1.068724 0.070459 -0.984252,
1.065127 0.073797 0.787402,
1.065127 0.073797 -0.984252,
1.061367 0.076952 0.787402,
1.061367 0.076952 -0.984252,
1.057455 0.079915 -0.984252,
1.057455 0.079915 0.787402,
1.053400 0.082680 0.787402,
1.053400 0.082680 -0.984252,
1.049213 0.085239 -0.984252,
1.049213 0.085239 0.787402,
1.044903 0.087586 0.787402,
1.044903 0.087586 -0.984252,
1.040481 0.089715 -0.984252,
1.040481 0.089715 0.787402,
1.035959 0.091621 -0.984252,
1.035959 0.091621 0.787402,
1.031347 0.093300 0.787402,
1.031347 0.093300 -0.984252,
1.026658 0.094746 -0.984252,
1.026658 0.094746 0.787402,
1.021902 0.095957 -0.984252,
1.021902 0.095957 0.787402,
1.017091 0.096930 0.787402,
1.017091 0.096930 -0.984252,
1.012239 0.097661 -0.984252,
1.012239 0.097661 0.787402,
1.007355 0.098150 0.787402,
1.007355 0.098150 -0.984252,
1.002454 0.098395 -0.984252,
1.002454 0.098395 0.787402,
0.997546 0.098395 0.787402,
0.997546 0.098395 -0.984252,
0.992645 0.098150 -0.984252,
0.992645 0.098150 0.787402,
0.987761 0.097661 0.787402,
0.987761 0.097661 -0.984252,
0.982909 0.096930 -0.984252,
0.982909 0.096930 0.787402,
0.978098 0.095957 -0.984252,
0.978098 0.095957 0.787402,
0.973342 0.094746 -0.984252,
0.973342 0.094746 0.787402,
0.968653 0.093300 -0.984252,
0.968653 0.093300 0.787402,
0.964041 0.091621 0.787402,
0.964041 0.091621 -0.984252,
0.959519 0.089715 0.787402,
0.959519 0.089715 -0.984252,
0.955097 0.087586 -0.984252,
0.955097 0.087586 0.787402,
0.950787 0.085239 0.787402,
0.950787 0.085239 -0.984252,
0.946600 0.082680 0.787402,
0.946600 0.082680 -0.984252,
0.942545 0.079915 0.787402,
0.942545 0.079915 -0.984252,
0.938633 0.076952 -0.984252,
0.938633 0.076952 0.787402,
0.934873 0.073797 0.787402,
0.934873 0.073797 -0.984252,
0.931276 0.070459 -0.984252,
0.931276 0.070459 0.787402,
0.927849 0.066946 0.787402,
0.927849 0.066946 -0.984252,
0.924602 0.063266 -0.984252,
0.924602 0.063266 0.787402,
0.921542 0.059430 -0.984252,
0.921542 0.059430 0.787402,
0.918677 0.055445 0.787402,
0.918677 0.055445 -0.984252,
0.916015 0.051322 -0.984252,
0.916015 0.051322 0.787402,
0.913561 0.047072 -0.984252,
0.913561 0.047072 0.787402,
0.911322 0.042705 0.787402,
0.911322 0.042705 -0.984252,
0.909304 0.038232 0.787402,
0.909304 0.038232 -0.984252,
0.907511 0.033663 0.787402,
0.907511 0.033663 -0.984252,
0.905948 0.029011 0.787402,
0.905948 0.029011 -0.984252,
0.904618 0.024287 0.787402,
0.904618 0.024287 -0.984252,
0.903526 0.019503 0.787402,
0.903526 0.019503 -0.984252,
0.902674 0.014670 0.787402,
0.902674 0.014670 -0.984252,
0.902064 0.009800 0.787402,
0.902064 0.009800 -0.984252,
0.901697 0.004906 0.787402,
0.901697 0.004906 -0.984252,
0.901575 -0.000000 0.787402,
0.901575 -0.000000 -0.984252,
0.901697 -0.004906 0.787402,
0.901697 -0.004906 -0.984252,
0.902064 -0.009800 0.787402,
0.902064 -0.009800 -0.984252,
0.902674 -0.014670 -0.984252,
0.902674 -0.014670 0.787402,
0.903526 -0.019503 0.787402,
0.903526 -0.019503 -0.984252,
0.904618 -0.024287 0.787402,
0.904618 -0.024287 -0.984252,
0.905948 -0.029011 0.787402,
0.905948 -0.029011 -0.984252,
0.907511 -0.033663 0.787402,
0.907511 -0.033663 -0.984252,
0.909304 -0.038232 0.787402,
0.909304 -0.038232 -0.984252,
0.911322 -0.042705 0.787402,
0.911322 -0.042705 -0.984252,
0.913561 -0.047072 0.787402,
0.913561 -0.047072 -0.984252,
0.916015 -0.051322 0.787402,
0.916015 -0.051322 -0.984252,
0.918677 -0.055445 -0.984252,
0.918677 -0.055445 0.787402,
0.921542 -0.059430 0.787402,
0.921542 -0.059430 -0.984252,
0.924602 -0.063266 -0.984252,
0.924602 -0.063266 0.787402,
0.927849 -0.066946 0.787402,
0.927849 -0.066946 -0.984252,
0.931276 -0.070459 0.787402,
0.931276 -0.070459 -0.984252,
0.934873 -0.073797 -0.984252,
0.934873 -0.073797 0.787402,
0.938633 -0.076952 0.787402,
0.938633 -0.076952 -0.984252,
0.942545 -0.079915 0.787402,
0.942545 -0.079915 -0.984252,
0.946600 -0.082680 -0.984252,
0.946600 -0.082680 0.787402,
0.950787 -0.085239 -0.984252,
0.950787 -0.085239 0.787402,
0.955097 -0.087586 0.787402,
0.955097 -0.087586 -0.984252,
0.959519 -0.089715 0.787402,
0.959519 -0.089715 -0.984252,
0.964041 -0.091621 0.787402,
0.964041 -0.091621 -0.984252,
0.968653 -0.093300 0.787402,
0.968653 -0.093300 -0.984252,
0.973342 -0.094746 0.787402,
0.973342 -0.094746 -0.984252,
0.978098 -0.095957 0.787402,
0.978098 -0.095957 -0.984252,
0.982909 -0.096930 0.787402,
0.982909 -0.096930 -0.984252,
0.987761 -0.097661 0.787402,
0.987761 -0.097661 -0.984252,
0.992645 -0.098150 0.787402,
0.992645 -0.098150 -0.984252,
0.997546 -0.098395 -0.984252,
0.997546 -0.098395 0.787402,
1.002454 -0.098395 0.787402,
1.002454 -0.098395 -0.984252,
1.007355 -0.098150 -0.984252,
1.007355 -0.098150 0.787402,
1.012239 -0.097661 0.787402,
1.012239 -0.097661 -0.984252,
1.017091 -0.096930 0.787402,
1.017091 -0.096930 -0.984252,
1.021902 -0.095957 0.787402,
1.021902 -0.095957 -0.984252,
1.026658 -0.094746 0.787402,
1.026658 -0.094746 -0.984252,
1.031347 -0.093300 0.787402,
1.031347 -0.093300 -0.984252,
1.035959 -0.091621 0.787402,
1.035959 -0.091621 -0.984252,
1.040481 -0.089715 0.787402,
1.040481 -0.089715 -0.984252,
1.044903 -0.087586 0.787402,
1.044903 -0.087586 -0.984252,
1.049213 -0.085239 0.787402,
1.049213 -0.085239 -0.984252,
1.053400 -0.082680 -0.984252,
1.053400 -0.082680 0.787402,
1.057455 -0.079915 0.787402,
1.057455 -0.079915 -0.984252,
1.061367 -0.076952 0.787402,
1.061367 -0.076952 -0.984252,
1.065127 -0.073797 0.787402,
1.065127 -0.073797 -0.984252,
1.068724 -0.070459 0.787402,
1.068724 -0.070459 -0.984252,
1.072151 -0.066946 0.787402,
1.072151 -0.066946 -0.984252,
1.075398 -0.063266 0.787402,
1.075398 -0.063266 -0.984252,
1.078458 -0.059430 0.787402,
1.078458 -0.059430 -0.984252,
1.081323 -0.055445 -0.984252,
1.081323 -0.055445 0.787402,
1.083985 -0.051322 0.787402,
1.083985 -0.051322 -0.984252,
1.086439 -0.047072 -0.984252,
1.086439 -0.047072 0.787402,
1.088678 -0.042705 0.787402,
1.088678 -0.042705 -0.984252,
1.090696 -0.038232 0.787402,
1.090696 -0.038232 -0.984252,
1.092489 -0.033663 0.787402,
1.092489 -0.033663 -0.984252,
1.094052 -0.029011 0.787402,
1.094052 -0.029011 -0.984252,
1.095382 -0.024287 0.787402,
1.095382 -0.024287 -0.984252,
1.096474 -0.019503 0.787402,
1.096474 -0.019503 -0.984252,
1.097326 -0.014670 0.787402,
1.097326 -0.014670 -0.984252,
1.097936 -0.009800 0.787402,
1.097936 -0.009800 -0.984252,
1.098303 -0.004906 0.787402,
1.098303 -0.004906 -0.984252 ] } coordIndex [ 0 1 2 -1,
0 2 3 -1,
4 3 5 -1,
4 0 3 -1,
6 5 7 -1,
6 4 5 -1,
8 7 9 -1,
8 9 10 -1,
8 6 7 -1,
11 8 10 -1,
12 10 13 -1,
12 11 10 -1,
14 13 15 -1,
14 12 13 -1,
16 15 17 -1,
16 14 15 -1,
18 17 19 -1,
18 16 17 -1,
20 19 21 -1,
20 18 19 -1,
22 20 21 -1,
22 21 23 -1,
22 23 24 -1,
25 22 24 -1,
26 25 24 -1,
26 24 27 -1,
26 27 28 -1,
29 26 28 -1,
29 28 30 -1,
31 29 30 -1,
32 31 30 -1,
32 30 33 -1,
34 32 33 -1,
34 33 35 -1,
36 34 35 -1,
36 35 37 -1,
36 37 38 -1,
39 36 38 -1,
40 39 38 -1,
40 38 41 -1,
40 41 42 -1,
43 40 42 -1,
44 43 42 -1,
44 42 45 -1,
44 45 46 -1,
47 46 48 -1,
47 44 46 -1,
49 47 48 -1,
50 49 48 -1,
50 48 51 -1,
50 51 52 -1,
53 52 54 -1,
53 50 52 -1,
55 53 54 -1,
56 54 57 -1,
56 57 58 -1,
56 55 54 -1,
59 56 58 -1,
60 58 61 -1,
60 61 62 -1,
60 59 58 -1,
63 60 62 -1,
64 62 65 -1,
64 65 66 -1,
64 63 62 -1,
67 64 66 -1,
68 66 69 -1,
68 69 70 -1,
68 67 66 -1,
71 70 72 -1,
71 68 70 -1,
73 72 74 -1,
73 71 72 -1,
75 73 74 -1,
75 74 76 -1,
77 75 76 -1,
78 77 76 -1,
78 76 79 -1,
80 78 79 -1,
80 79 81 -1,
80 81 82 -1,
83 80 82 -1,
84 83 82 -1,
84 82 85 -1,
86 84 85 -1,
86 85 87 -1,
88 86 87 -1,
88 87 89 -1,
88 89 90 -1,
91 88 90 -1,
92 91 90 -1,
92 90 93 -1,
92 93 94 -1,
95 92 94 -1,
96 95 94 -1,
96 94 97 -1,
96 97 98 -1,
99 96 98 -1,
99 98 100 -1,
101 99 100 -1,
102 101 100 -1,
102 100 103 -1,
102 103 104 -1,
105 102 104 -1,
105 104 106 -1,
107 105 106 -1,
108 107 106 -1,
108 106 109 -1,
110 108 109 -1,
110 109 111 -1,
112 110 111 -1,
112 111 113 -1,
114 112 113 -1,
114 113 115 -1,
116 115 117 -1,
116 114 115 -1,
118 117 119 -1,
118 116 117 -1,
120 119 121 -1,
120 118 119 -1,
122 121 123 -1,
122 120 121 -1,
124 122 123 -1,
124 123 125 -1,
126 124 125 -1,
126 125 127 -1,
128 126 127 -1,
128 127 129 -1,
130 128 129 -1,
130 129 131 -1,
130 131 132 -1,
133 130 132 -1,
134 133 132 -1,
134 132 135 -1,
136 134 135 -1,
136 135 137 -1,
138 136 137 -1,
138 137 139 -1,
140 138 139 -1,
140 139 141 -1,
142 140 141 -1,
142 141 143 -1,
144 142 143 -1,
144 143 145 -1,
146 144 145 -1,
146 145 147 -1,
148 149 150 -1,
148 146 147 -1,
148 147 149 -1,
151 148 150 -1,
152 150 153 -1,
152 153 154 -1,
152 151 150 -1,
155 152 154 -1,
156 154 157 -1,
156 155 154 -1,
158 157 159 -1,
158 159 160 -1,
158 156 157 -1,
161 158 160 -1,
162 160 163 -1,
162 161 160 -1,
164 163 165 -1,
164 165 166 -1,
164 162 163 -1,
167 166 168 -1,
167 164 166 -1,
169 167 168 -1,
170 168 171 -1,
170 169 168 -1,
172 171 173 -1,
172 170 171 -1,
174 173 175 -1,
174 172 173 -1,
176 174 175 -1,
176 175 177 -1,
178 176 177 -1,
178 177 179 -1,
180 178 179 -1,
180 179 181 -1,
182 180 181 -1,
182 181 183 -1,
184 183 185 -1,
184 182 183 -1,
186 185 187 -1,
186 187 188 -1,
186 184 185 -1,
189 186 188 -1,
190 188 191 -1,
190 191 192 -1,
190 189 188 -1,
193 190 192 -1,
194 192 195 -1,
194 193 192 -1,
196 195 197 -1,
196 194 195 -1,
198 197 199 -1,
198 196 197 -1,
200 199 201 -1,
200 198 199 -1,
202 201 203 -1,
202 200 201 -1,
204 203 205 -1,
204 202 203 -1,
206 205 207 -1,
206 204 205 -1,
208 207 209 -1,
208 206 207 -1,
210 209 211 -1,
210 211 212 -1,
210 208 209 -1,
213 210 212 -1,
214 212 215 -1,
214 213 212 -1,
216 215 217 -1,
216 214 215 -1,
218 217 219 -1,
218 216 217 -1,
220 219 221 -1,
220 218 219 -1,
222 221 223 -1,
222 220 221 -1,
224 223 225 -1,
224 222 223 -1,
226 224 225 -1,
226 225 227 -1,
226 227 228 -1,
229 226 228 -1,
230 229 228 -1,
230 228 231 -1,
230 231 232 -1,
233 230 232 -1,
234 233 232 -1,
234 232 235 -1,
236 234 235 -1,
236 235 237 -1,
238 236 237 -1,
238 237 239 -1,
240 238 239 -1,
240 239 241 -1,
242 240 241 -1,
242 241 243 -1,
244 242 243 -1,
244 243 245 -1,
246 244 245 -1,
246 245 247 -1,
248 246 247 -1,
248 247 249 -1,
250 249 251 -1,
250 248 249 -1,
250 251 2 -1,
1 250 2 -1,
200 196 198 -1,
206 202 204 -1,
105 107 108 -1,
213 208 210 -1,
222 218 220 -1,
226 222 224 -1,
88 91 92 -1,
230 226 229 -1,
234 230 233 -1,
234 226 230 -1,
80 83 84 -1,
236 226 234 -1,
242 236 238 -1,
242 238 240 -1,
246 242 244 -1,
68 71 73 -1,
250 246 248 -1,
0 250 1 -1,
4 250 0 -1,
59 60 63 -1,
12 6 8 -1,
12 8 11 -1,
18 14 16 -1,
20 14 18 -1,
43 44 47 -1,
43 47 49 -1,
43 49 50 -1,
36 39 40 -1,
36 40 43 -1,
29 25 26 -1,
31 25 29 -1,
32 200 202 -1,
32 4 6 -1,
32 206 208 -1,
32 25 31 -1,
32 246 250 -1,
32 213 214 -1,
32 12 14 -1,
32 214 216 -1,
32 216 218 -1,
32 20 22 -1,
32 202 206 -1,
32 36 43 -1,
32 22 25 -1,
32 196 200 -1,
32 6 12 -1,
32 250 4 -1,
32 34 36 -1,
32 105 108 -1,
32 222 226 -1,
32 68 73 -1,
32 50 53 -1,
32 53 55 -1,
32 55 56 -1,
32 56 59 -1,
32 63 64 -1,
32 64 67 -1,
32 67 68 -1,
32 208 213 -1,
32 73 75 -1,
32 75 77 -1,
32 77 78 -1,
32 78 80 -1,
32 218 222 -1,
32 84 86 -1,
32 86 88 -1,
32 43 50 -1,
32 92 95 -1,
32 95 96 -1,
32 96 99 -1,
32 226 236 -1,
32 99 101 -1,
32 101 102 -1,
32 102 105 -1,
32 108 110 -1,
32 110 112 -1,
32 112 114 -1,
32 114 116 -1,
32 116 118 -1,
32 118 120 -1,
32 120 122 -1,
32 122 124 -1,
32 124 126 -1,
32 126 128 -1,
32 128 130 -1,
32 236 242 -1,
32 130 133 -1,
32 14 20 -1,
32 133 134 -1,
32 134 136 -1,
32 136 138 -1,
32 138 140 -1,
32 140 142 -1,
32 142 144 -1,
32 144 146 -1,
32 146 148 -1,
32 148 151 -1,
32 151 152 -1,
32 152 155 -1,
32 155 156 -1,
32 156 158 -1,
32 158 161 -1,
32 80 84 -1,
32 161 162 -1,
32 162 164 -1,
32 164 167 -1,
32 167 169 -1,
32 169 170 -1,
32 170 172 -1,
32 242 246 -1,
32 172 174 -1,
32 174 176 -1,
32 176 178 -1,
32 178 180 -1,
32 180 182 -1,
32 182 184 -1,
32 184 186 -1,
32 186 189 -1,
32 88 92 -1,
32 189 190 -1,
32 190 193 -1,
32 193 194 -1,
32 59 63 -1,
32 194 196 -1,
197 201 199 -1,
203 207 205 -1,
106 104 109 -1,
209 212 211 -1,
219 223 221 -1,
223 227 225 -1,
90 89 93 -1,
227 231 228 -1,
231 235 232 -1,
227 235 231 -1,
82 81 85 -1,
227 237 235 -1,
237 243 239 -1,
239 243 241 -1,
243 247 245 -1,
70 69 72 -1,
247 251 249 -1,
251 3 2 -1,
251 5 3 -1,
61 58 62 -1,
7 13 9 -1,
9 13 10 -1,
15 19 17 -1,
15 21 19 -1,
45 42 46 -1,
46 42 48 -1,
48 42 51 -1,
38 37 41 -1,
41 37 42 -1,
24 28 27 -1,
24 30 28 -1,
201 33 203 -1,
5 33 7 -1,
207 33 209 -1,
24 33 30 -1,
247 33 251 -1,
212 33 215 -1,
13 33 15 -1,
215 33 217 -1,
217 33 219 -1,
21 33 23 -1,
203 33 207 -1,
37 33 42 -1,
23 33 24 -1,
197 33 201 -1,
7 33 13 -1,
251 33 5 -1,
35 33 37 -1,
104 33 109 -1,
223 33 227 -1,
69 33 72 -1,
51 33 52 -1,
52 33 54 -1,
54 33 57 -1,
57 33 58 -1,
62 33 65 -1,
65 33 66 -1,
66 33 69 -1,
209 33 212 -1,
72 33 74 -1,
74 33 76 -1,
76 33 79 -1,
79 33 81 -1,
219 33 223 -1,
85 33 87 -1,
87 33 89 -1,
42 33 51 -1,
93 33 94 -1,
94 33 97 -1,
97 33 98 -1,
227 33 237 -1,
98 33 100 -1,
100 33 103 -1,
103 33 104 -1,
109 33 111 -1,
111 33 113 -1,
113 33 115 -1,
115 33 117 -1,
117 33 119 -1,
119 33 121 -1,
121 33 123 -1,
123 33 125 -1,
125 33 127 -1,
127 33 129 -1,
129 33 131 -1,
237 33 243 -1,
131 33 132 -1,
15 33 21 -1,
132 33 135 -1,
135 33 137 -1,
137 33 139 -1,
139 33 141 -1,
141 33 143 -1,
143 33 145 -1,
145 33 147 -1,
147 33 149 -1,
149 33 150 -1,
150 33 153 -1,
153 33 154 -1,
154 33 157 -1,
157 33 159 -1,
159 33 160 -1,
81 33 85 -1,
160 33 163 -1,
163 33 165 -1,
165 33 166 -1,
166 33 168 -1,
168 33 171 -1,
171 33 173 -1,
243 33 247 -1,
173 33 175 -1,
175 33 177 -1,
177 33 179 -1,
179 33 181 -1,
181 33 183 -1,
183 33 185 -1,
185 33 187 -1,
187 33 188 -1,
89 33 93 -1,
188 33 191 -1,
191 33 192 -1,
192 33 195 -1,
58 33 62 -1,
195 33 197 -1 ] } }
Shape { appearance Appearance { material Material { diffuseColor 0.7 0.72 0.74 } } geometry IndexedFaceSet { solid FALSE coord Coordinate { point [ 1.004906 1.574803 0.885704,
1.000000 1.574803 0.885827,
1.000000 0.000000 0.885827,
1.004906 0.000000 0.885704,
1.009800 1.574803 0.885338,
1.009800 0.000000 0.885338,
1.014670 1.574803 0.884727,
1.014670 0.000000 0.884727,
1.019503 1.574803 0.883875,
1.019503 0.000000 0.883875,
1.024287 1.574803 0.882783,
1.024287 0.000000 0.882783,
1.029011 1.574803 0.881454,
1.029011 0.000000 0.881454,
1.033663 1.574803 0.879891,
1.033663 0.000000 0.879891,
1.038232 1.574803 0.878098,
1.038232 0.000000 0.878098,
1.042705 1.574803 0.876080,
1.042705 0.000000 0.876080,
1.047072 1.574803 0.873841,
1.047072 0.000000 0.873841,
1.051322 1.574803 0.871387,
1.051322 0.000000 0.871387,
1.055445 1.574803 0.868724,
1.055445 0.000000 0.868724,
1.059430 1.574803 0.865859,
1.059430 0.000000 0.865859,
1.063266 0.000000 0.862800,
1.063266 1.574803 0.862800,
1.066946 1.574803 0.859552,
1.066946 0.000000 0.859552,
1.070459 1.574803 0.856126,
1.070459 0.000000 0.856126,
1.073797 1.574803 0.852528,
1.073797 0.000000 0.852528,
1.076952 0.000000 0.848769,
1.076952 1.574803 0.848769,
1.079915 1.574803 0.844857,
1.079915 0.000000 0.844857,
1.082680 0.000000 0.840802,
1.082680 1.574803 0.840802,
1.085239 1.574803 0.836614,
1.085239 0.000000 0.836614,
1.087586 0.000000 0.832304,
1.087586 1.574803 0.832304,
1.089715 1.574803 0.827883,
1.089715 0.000000 0.827883,
1.091621 1.574803 0.823360,
1.091621 0.000000 0.823360,
1.093300 1.574803 0.818749,
1.093300 0.000000 0.818749,
1.094746 1.574803 0.814059,
1.094746 0.000000 0.814059,
1.095957 1.574803 0.809303,
1.095957 0.000000 0.809303,
1.096930 1.574803 0.804493,
1.096930 0.000000 0.804493,
1.097661 1.574803 0.799640,
1.097661 0.000000 0.799640,
1.098150 1.574803 0.794757,
1.098150 0.000000 0.794757,
1.098395 1.574803 0.789855,
1.098395 0.000000 0.789855,
1.098395 1.574803 0.784948,
1.098395 0.000000 0.784948,
1.098150 0.000000 0.780046,
1.098150 1.574803 0.780046,
1.097661 1.574803 0.775163,
1.097661 0.000000 0.775163,
1.096930 1.574803 0.770310,
1.096930 0.000000 0.770310,
1.095957 1.574803 0.765500,
1.095957 0.000000 0.765500,
1.094746 1.574803 0.760744,
1.094746 0.000000 0.760744,
1.093300 1.574803 0.756054,
1.093300 0.000000 0.756054,
1.091621 0.000000 0.751443,
1.091621 1.574803 0.751443,
1.089715 1.574803 0.746921,
1.089715 0.000000 0.746921,
1.087586 1.574803 0.742499,
1.087586 0.000000 0.742499,
1.085239 1.574803 0.738189,
1.085239 0.000000 0.738189,
1.082680 1.574803 0.734001,
1.082680 0.000000 0.734001,
1.079915 1.574803 0.729946,
1.079915 0.000000 0.729946,
1.076952 1.574803 0.726034,
1.076952 0.000000 0.726034,
1.073797 1.574803 0.722275,
1.073797 0.000000 0.722275,
1.070459 1.574803 0.718677,
1.070459 0.000000 0.718677,
1.066946 1.574803 0.715251,
1.066946 0.000000 0.715251,
1.063266 1.574803 0.712003,
1.063266 0.000000 0.712003,
1.059430 1.574803 0.708944,
1.059430 0.000000 0.708944,
1.055445 1.574803 0.706079,
1.055445 0.000000 0.706079,
1.051322 1.574803 0.703416,
1.051322 0.000000 0.703416,
1.047072 0.000000 0.700962,
1.047072 1.574803 0.700962,
1.042705 1.574803 0.698724,
1.042705 0.000000 0.698724,
1.038232 1.574803 0.696705,
1.038232 0.000000 0.696705,
1.033663 1.574803 0.694912,
1.033663 0.000000 0.694912,
1.029011 1.574803 0.693349,
1.029011 0.000000 0.693349,
1.024287 1.574803 0.692020,
1.024287 0.000000 0.692020,
1.019503 1.574803 0.690928,
1.019503 0.000000 0.690928,
1.014670 1.574803 0.690076,
1.014670 0.000000 0.690076,
1.009800 1.574803 0.689465,
1.009800 0.000000 0.689465,
1.004906 1.574803 0.689099,
1.004906 0.000000 0.689099,
1.000000 1.574803 0.688976,
1.000000 0.000000 0.688976,
0.995094 1.574803 0.689099,
0.995094 0.000000 0.689099,
0.990200 1.574803 0.689465,
0.990200 0.000000 0.689465,
0.985330 1.574803 0.690076,
0.985330 0.000000 0.690076,
0.980497 1.574803 0.690928,
0.980497 0.000000 0.690928,
0.975713 1.574803 0.692020,
0.975713 0.000000 0.692020,
0.970989 1.574803 0.693349,
0.970989 0.000000 0.693349,
0.966337 1.574803 0.694912,
0.966337 0.000000 0.694912,
0.961768 1.574803 0.696705,
0.961768 0.000000 0.696705,
0.957295 1.574803 0.698724,
0.957295 0.000000 0.698724,
0.952928 1.574803 0.700962,
0.952928 0.000000 0.700962,
0.948678 0.000000 0.703416,
0.948678 1.574803 0.703416,
0.944555 1.574803 0.706079,
0.944555 0.000000 0.706079,
0.940570 1.574803 0.708944,
0.940570 0.000000 0.708944,
0.936734 1.574803 0.712003,
0.936734 0.000000 0.712003,
0.933054 1.574803 0.715251,
0.933054 0.000000 0.715251,
0.929541 1.574803 0.718677,
0.929541 0.000000 0.718677,
0.926203 1.574803 0.722275,
0.926203 0.000000 0.722275,
0.923048 1.574803 0.726034,
0.923048 0.000000 0.726034,
0.920085 1.574803 0.729946,
0.920085 0.000000 0.729946,
0.917320 1.574803 0.734001,
0.917320 0.000000 0.734001,
0.914761 1.574803 0.738189,
0.914761 0.000000 0.738189,
0.912414 0.000000 0.742499,
0.912414 1.574803 0.742499,
0.910285 1.574803 0.746921,
0.910285 0.000000 0.746921,
0.908379 1.574803 0.751443,
0.908379 0.000000 0.751443,
0.906700 1.574803 0.756054,
0.906700 0.000000 0.756054,
0.905254 1.574803 0.760744,
0.905254 0.000000 0.760744,
0.904043 1.574803 0.765500,
0.904043 0.000000 0.765500,
0.903070 1.574803 0.770310,
0.903070 0.000000 0.770310,
0.902339 1.574803 0.775163,
0.902339 0.000000 0.775163,
0.901850 1.574803 0.780046,
0.901850 0.000000 0.780046,
0.901605 1.574803 0.784948,
0.901605 0.000000 0.784948,
0.901605 1.574803 0.789855,
0.901605 0.000000 0.789855,
0.901850 1.574803 0.794757,
0.901850 0.000000 0.794757,
0.902339 1.574803 0.799640,
0.902339 0.000000 0.799640,
0.903070 1.574803 0.804493,
0.903070 0.000000 0.804493,
0.904043 1.574803 0.809303,
0.904043 0.000000 0.809303,
0.905254 1.574803 0.814059,
0.905254 0.000000 0.814059,
0.906700 1.574803 0.818749,
0.906700 0.000000 0.818749,
0.908379 1.574803 0.823360,
0.908379 0.000000 0.823360,
0.910285 1.574803 0.827883,
0.910285 0.000000 0.827883,
0.912414 1.574803 0.832304,
0.912414 0.000000 0.832304,
0.914761 1.574803 0.836614,
0.914761 0.000000 0.836614,
0.917320 1.574803 0.840802,
0.917320 0.000000 0.840802,
0.920085 1.574803 0.844857,
0.920085 0.000000 0.844857,
0.923048 1.574803 0.848769,
0.923048 0.000000 0.848769,
0.926203 1.574803 0.852528,
0.926203 0.000000 0.852528,
0.929541 1.574803 0.856126,
0.929541 0.000000 0.856126,
0.933054 1.574803 0.859552,
0.933054 0.000000 0.859552,
0.936734 1.574803 0.862800,
0.936734 0.000000 0.862800,
0.940570 1.574803 0.865859,
0.940570 0.000000 0.865859,
0.944555 1.574803 0.868724,
0.944555 0.000000 0.868724,
0.948678 1.574803 0.871387,
0.948678 0.000000 0.871387,
0.952928 1.574803 0.873841,
0.952928 0.000000 0.873841,
0.957295 1.574803 0.876080,
0.957295 0.000000 0.876080,
0.961768 1.574803 0.878098,
0.961768 0.000000 0.878098,
0.966337 1.574803 0.879891,
0.966337 0.000000 0.879891,
0.970989 1.574803 0.881454,
0.970989 0.000000 0.881454,
0.975713 1.574803 0.882783,
0.975713 0.000000 0.882783,
0.980497 1.574803 0.883875,
0.980497 0.000000 0.883875,
0.985330 1.574803 0.884727,
0.985330 0.000000 0.884727,
0.990200 1.574803 0.885338,
0.990200 0.000000 0.885338,
0.995094 1.574803 0.885704,
0.995094 0.000000 0.885704 ] } coordIndex [ 0 1 2 -1,
0 2 3 -1,
4 3 5 -1,
4 0 3 -1,
6 5 7 -1,
6 4 5 -1,
8 7 9 -1,
8 6 7 -1,
10 9 11 -1,
10 8 9 -1,
12 11 13 -1,
12 10 11 -1,
14 13 15 -1,
14 12 13 -1,
16 15 17 -1,
16 14 15 -1,
18 17 19 -1,
18 16 17 -1,
20 19 21 -1,
20 18 19 -1,
22 20 21 -1,
22 21 23 -1,
24 22 23 -1,
24 23 25 -1,
26 24 25 -1,
26 25 27 -1,
26 27 28 -1,
29 26 28 -1,
30 29 28 -1,
30 28 31 -1,
32 30 31 -1,
32 31 33 -1,
34 32 33 -1,
34 33 35 -1,
34 35 36 -1,
37 34 36 -1,
38 37 36 -1,
38 36 39 -1,
38 39 40 -1,
41 38 40 -1,
42 41 40 -1,
42 40 43 -1,
42 43 44 -1,
45 42 44 -1,
46 44 47 -1,
46 45 44 -1,
48 47 49 -1,
48 46 47 -1,
50 49 51 -1,
50 48 49 -1,
52 51 53 -1,
52 50 51 -1,
54 53 55 -1,
54 52 53 -1,
56 55 57 -1,
56 54 55 -1,
58 57 59 -1,
58 56 57 -1,
60 59 61 -1,
60 58 59 -1,
62 61 63 -1,
62 60 61 -1,
64 63 65 -1,
64 65 66 -1,
64 62 63 -1,
67 64 66 -1,
68 66 69 -1,
68 67 66 -1,
70 69 71 -1,
70 68 69 -1,
72 71 73 -1,
72 70 71 -1,
74 72 73 -1,
74 73 75 -1,
76 74 75 -1,
76 75 77 -1,
76 77 78 -1,
79 76 78 -1,
80 79 78 -1,
80 78 81 -1,
82 80 81 -1,
82 81 83 -1,
84 82 83 -1,
84 83 85 -1,
86 84 85 -1,
86 85 87 -1,
88 86 87 -1,
88 87 89 -1,
90 88 89 -1,
90 89 91 -1,
92 90 91 -1,
92 91 93 -1,
94 92 93 -1,
94 93 95 -1,
96 94 95 -1,
96 95 97 -1,
98 96 97 -1,
98 97 99 -1,
100 98 99 -1,
100 99 101 -1,
102 100 101 -1,
102 101 103 -1,
104 102 103 -1,
104 103 105 -1,
104 105 106 -1,
107 104 106 -1,
108 107 106 -1,
108 106 109 -1,
110 108 109 -1,
110 109 111 -1,
112 110 111 -1,
112 111 113 -1,
114 112 113 -1,
114 113 115 -1,
116 115 117 -1,
116 114 115 -1,
118 117 119 -1,
118 116 117 -1,
120 119 121 -1,
120 118 119 -1,
122 121 123 -1,
122 120 121 -1,
124 122 123 -1,
124 123 125 -1,
126 124 125 -1,
126 125 127 -1,
128 126 127 -1,
128 127 129 -1,
130 128 129 -1,
130 129 131 -1,
132 130 131 -1,
132 131 133 -1,
134 132 133 -1,
134 133 135 -1,
136 134 135 -1,
136 135 137 -1,
138 136 137 -1,
138 137 139 -1,
140 138 139 -1,
140 139 141 -1,
142 140 141 -1,
142 141 143 -1,
144 142 143 -1,
144 143 145 -1,
146 144 145 -1,
146 145 147 -1,
146 147 148 -1,
149 146 148 -1,
150 148 151 -1,
150 149 148 -1,
152 151 153 -1,
152 150 151 -1,
154 153 155 -1,
154 152 153 -1,
156 155 157 -1,
156 154 155 -1,
158 157 159 -1,
158 156 157 -1,
160 159 161 -1,
160 158 159 -1,
162 161 163 -1,
162 160 161 -1,
164 163 165 -1,
164 162 163 -1,
166 165 167 -1,
166 164 165 -1,
168 167 169 -1,
168 169 170 -1,
168 166 167 -1,
171 168 170 -1,
172 170 173 -1,
172 171 170 -1,
174 173 175 -1,
174 172 173 -1,
176 174 175 -1,
176 175 177 -1,
178 176 177 -1,
178 177 179 -1,
180 178 179 -1,
180 179 181 -1,
182 180 181 -1,
182 181 183 -1,
184 183 185 -1,
184 182 183 -1,
186 185 187 -1,
186 184 185 -1,
188 187 189 -1,
188 186 187 -1,
190 189 191 -1,
190 188 189 -1,
192 191 193 -1,
192 190 191 -1,
194 193 195 -1,
194 192 193 -1,
196 195 197 -1,
196 194 195 -1,
198 197 199 -1,
198 196 197 -1,
200 199 201 -1,
200 198 199 -1,
202 201 203 -1,
202 200 201 -1,
204 203 205 -1,
204 202 203 -1,
206 205 207 -1,
206 204 205 -1,
208 207 209 -1,
208 206 207 -1,
210 209 211 -1,
210 208 209 -1,
212 211 213 -1,
212 210 211 -1,
214 213 215 -1,
214 212 213 -1,
216 215 217 -1,
216 214 215 -1,
218 217 219 -1,
218 216 217 -1,
220 219 221 -1,
220 218 219 -1,
222 221 223 -1,
222 220 221 -1,
224 222 223 -1,
224 223 225 -1,
226 224 225 -1,
226 225 227 -1,
228 226 227 -1,
228 227 229 -1,
230 228 229 -1,
230 229 231 -1,
232 230 231 -1,
232 231 233 -1,
234 232 233 -1,
234 233 235 -1,
236 234 235 -1,
236 235 237 -1,
238 236 237 -1,
238 237 239 -1,
240 238 239 -1,
240 239 241 -1,
242 240 241 -1,
242 241 243 -1,
244 242 243 -1,
244 243 245 -1,
246 244 245 -1,
246 245 247 -1,
248 246 247 -1,
248 247 249 -1,
250 249 251 -1,
250 248 249 -1,
1 251 2 -1,
1 250 251 -1,
46 48 50 -1,
18 10 14 -1,
18 6 8 -1,
18 8 10 -1,
18 14 16 -1,
45 46 50 -1,
41 42 45 -1,
38 41 45 -1,
29 24 26 -1,
206 202 204 -1,
108 110 112 -1,
104 107 108 -1,
30 24 29 -1,
32 200 202 -1,
32 206 208 -1,
32 208 210 -1,
32 96 102 -1,
32 18 20 -1,
32 20 22 -1,
32 22 24 -1,
32 108 112 -1,
32 226 228 -1,
32 50 56 -1,
32 92 96 -1,
32 34 37 -1,
32 238 240 -1,
32 56 60 -1,
32 37 38 -1,
32 248 6 -1,
32 24 30 -1,
32 104 108 -1,
32 60 62 -1,
32 6 18 -1,
32 62 64 -1,
32 64 67 -1,
32 70 72 -1,
32 72 74 -1,
32 210 214 -1,
32 80 82 -1,
32 38 45 -1,
32 214 226 -1,
32 82 84 -1,
32 84 88 -1,
32 88 90 -1,
32 90 92 -1,
32 102 104 -1,
32 45 50 -1,
32 112 114 -1,
32 114 116 -1,
32 116 118 -1,
32 118 120 -1,
32 120 122 -1,
32 122 124 -1,
32 124 126 -1,
32 126 128 -1,
32 128 130 -1,
32 130 132 -1,
32 132 134 -1,
32 134 136 -1,
32 136 138 -1,
32 138 140 -1,
214 210 212 -1,
32 67 70 -1,
32 140 142 -1,
32 142 144 -1,
32 144 146 -1,
32 228 238 -1,
32 146 149 -1,
32 149 150 -1,
32 150 152 -1,
32 152 154 -1,
32 74 80 -1,
32 202 206 -1,
32 154 156 -1,
32 156 158 -1,
32 158 160 -1,
32 160 162 -1,
32 162 164 -1,
32 240 248 -1,
32 164 166 -1,
32 166 168 -1,
32 168 171 -1,
32 171 172 -1,
32 172 174 -1,
32 174 176 -1,
32 176 178 -1,
32 178 180 -1,
32 180 182 -1,
32 182 184 -1,
32 184 186 -1,
32 186 188 -1,
32 188 190 -1,
32 190 192 -1,
32 192 194 -1,
32 194 196 -1,
32 196 198 -1,
32 198 200 -1,
218 214 216 -1,
96 98 100 -1,
96 100 102 -1,
222 218 220 -1,
92 94 96 -1,
226 222 224 -1,
226 214 218 -1,
226 218 222 -1,
84 86 88 -1,
238 228 230 -1,
238 230 232 -1,
238 232 234 -1,
238 234 236 -1,
76 79 80 -1,
74 76 80 -1,
246 242 244 -1,
248 240 242 -1,
248 242 246 -1,
67 68 70 -1,
1 248 250 -1,
6 1 0 -1,
6 0 4 -1,
6 248 1 -1,
56 58 60 -1,
52 54 56 -1,
50 52 56 -1,
14 10 12 -1,
49 47 51 -1,
11 19 15 -1,
7 19 9 -1,
9 19 11 -1,
15 19 17 -1,
47 44 51 -1,
43 40 44 -1,
40 39 44 -1,
25 28 27 -1,
203 207 205 -1,
111 109 113 -1,
106 105 109 -1,
25 31 28 -1,
201 33 203 -1,
207 33 209 -1,
209 33 211 -1,
97 33 103 -1,
19 33 21 -1,
21 33 23 -1,
23 33 25 -1,
109 33 113 -1,
227 33 229 -1,
51 33 57 -1,
93 33 97 -1,
35 33 36 -1,
239 33 241 -1,
57 33 61 -1,
36 33 39 -1,
249 33 7 -1,
25 33 31 -1,
105 33 109 -1,
61 33 63 -1,
7 33 19 -1,
63 33 65 -1,
65 33 66 -1,
71 33 73 -1,
73 33 75 -1,
211 33 215 -1,
81 33 83 -1,
39 33 44 -1,
215 33 227 -1,
83 33 85 -1,
85 33 89 -1,
89 33 91 -1,
91 33 93 -1,
103 33 105 -1,
44 33 51 -1,
113 33 115 -1,
115 33 117 -1,
117 33 119 -1,
119 33 121 -1,
121 33 123 -1,
123 33 125 -1,
125 33 127 -1,
127 33 129 -1,
129 33 131 -1,
131 33 133 -1,
133 33 135 -1,
135 33 137 -1,
137 33 139 -1,
139 33 141 -1,
211 215 213 -1,
66 33 71 -1,
141 33 143 -1,
143 33 145 -1,
145 33 147 -1,
229 33 239 -1,
147 33 148 -1,
148 33 151 -1,
151 33 153 -1,
153 33 155 -1,
75 33 81 -1,
203 33 207 -1,
155 33 157 -1,
157 33 159 -1,
159 33 161 -1,
161 33 163 -1,
163 33 165 -1,
241 33 249 -1,
165 33 167 -1,
167 33 169 -1,
169 33 170 -1,
170 33 173 -1,
173 33 175 -1,
175 33 177 -1,
177 33 179 -1,
179 33 181 -1,
181 33 183 -1,
183 33 185 -1,
185 33 187 -1,
187 33 189 -1,
189 33 191 -1,
191 33 193 -1,
193 33 195 -1,
195 33 197 -1,
197 33 199 -1,
199 33 201 -1,
215 219 217 -1,
99 97 101 -1,
101 97 103 -1,
219 223 221 -1,
95 93 97 -1,
223 227 225 -1,
215 227 219 -1,
219 227 223 -1,
87 85 89 -1,
229 239 231 -1,
231 239 233 -1,
233 239 235 -1,
235 239 237 -1,
78 77 81 -1,
77 75 81 -1,
243 247 245 -1,
241 249 243 -1,
243 249 247 -1,
69 66 71 -1,
249 2 251 -1,
2 7 3 -1,
3 7 5 -1,
249 7 2 -1,
59 57 61 -1,
55 53 57 -1,
53 51 57 -1,
11 15 13 -1 ] } }
Shape { appearance Appearance { material Material { diffuseColor 0.7 0.72 0.74 } } geometry IndexedFaceSet { solid FALSE coord Coordinate { point [ 2.098303 0.004906 0.787402,
2.098425 -0.000000 0.787402,
2.098425 -0.000000 -0.984252,
2.098303 0.004906 -0.984252,
2.097936 0.009800 0.787402,
2.097936 0.009800 -0.984252,
2.097326 0.014670 0.787402,
2.097326 0.014670 -0.984252,
2.096474 0.019503 0.787402,
2.096474 0.019503 -0.984252,
2.095382 0.024287 -0.984252,
2.095382 0.024287 0.787402,
2.094052 0.029011 0.787402,
2.094052 0.029011 -0.984252,
2.092489 0.033663 0.787402,
2.092489 0.033663 -0.984252,
2.090696 0.038232 0.787402,
2.090696 0.038232 -0.984252,
2.088678 0.042705 0.787402,
2.088678 0.042705 -0.984252,
2.086439 0.047072 0.787402,
2.086439 0.047072 -0.984252,
2.083985 0.051322 0.787402,
2.083985 0.051322 -0.984252,
2.081323 0.055445 -0.984252,
2.081323 0.055445 0.787402,
2.078458 0.059430 0.787402,
2.078458 0.059430 -0.984252,
2.075398 0.063266 -0.984252,
2.075398 0.063266 0.787402,
2.072151 0.066946 -0.984252,
2.072151 0.066946 0.787402,
2.068724 0.070459 0.787402,
2.068724 0.070459 -0.984252,
2.065127 0.073797 0.787402,
2.065127 0.073797 -0.984252,
2.061367 0.076952 0.787402,
2.061367 0.076952 -0.984252,
2.057455 0.079915 -0.984252,
2.057455 0.079915 0.787402,
2.053400 0.082680 0.787402,
2.053400 0.082680 -0.984252,
2.049213 0.085239 -0.984252,
2.049213 0.085239 0.787402,
2.044903 0.087586 0.787402,
2.044903 0.087586 -0.984252,
2.040481 0.089715 -0.984252,
2.040481 0.089715 0.787402,
2.035959 0.091621 -0.984252,
2.035959 0.091621 0.787402,
2.031347 0.093300 0.787402,
2.031347 0.093300 -0.984252,
2.026658 0.094746 -0.984252,
2.026658 0.094746 0.787402,
2.021902 0.095957 -0.984252,
2.021902 0.095957 0.787402,
2.017091 0.096930 0.787402,
2.017091 0.096930 -0.984252,
2.012239 0.097661 -0.984252,
2.012239 0.097661 0.787402,
2.007355 0.098150 0.787402,
2.007355 0.098150 -0.984252,
2.002454 0.098395 -0.984252,
2.002454 0.098395 0.787402,
1.997546 0.098395 0.787402,
1.997546 0.098395 -0.984252,
1.992645 0.098150 -0.984252,
1.992645 0.098150 0.787402,
1.987761 0.097661 0.787402,
1.987761 0.097661 -0.984252,
1.982909 0.096930 -0.984252,
1.982909 0.096930 0.787402,
1.978098 0.095957 -0.984252,
1.978098 0.095957 0.787402,
1.973342 0.094746 -0.984252,
1.973342 0.094746 0.787402,
1.968653 0.093300 -0.984252,
1.968653 0.093300 0.787402,
1.964041 0.091621 0.787402,
1.964041 0.091621 -0.984252,
1.959519 0.089715 0.787402,
1.959519 0.089715 -0.984252,
1.955097 0.087586 -0.984252,
1.955097 0.087586 0.787402,
1.950787 0.085239 0.787402,
1.950787 0.085239 -0.984252,
1.946600 0.082680 0.787402,
1.946600 0.082680 -0.984252,
1.942545 0.079915 0.787402,
1.942545 0.079915 -0.984252,
1.938633 0.076952 -0.984252,
1.938633 0.076952 0.787402,
1.934873 0.073797 0.787402,
1.934873 0.073797 -0.984252,
1.931276 0.070459 -0.984252,
1.931276 0.070459 0.787402,
1.927849 0.066946 0.787402,
1.927849 0.066946 -0.984252,
1.924602 0.063266 -0.984252,
1.924602 0.063266 0.787402,
1.921542 0.059430 -0.984252,
1.921542 0.059430 0.787402,
1.918677 0.055445 0.787402,
1.918677 0.055445 -0.984252,
1.916015 0.051322 -0.984252,
1.916015 0.051322 0.787402,
1.913561 0.047072 -0.984252,
1.913561 0.047072 0.787402,
1.911322 0.042705 0.787402,
1.911322 0.042705 -0.984252,
1.909304 0.038232 0.787402,
1.909304 0.038232 -0.984252,
1.907511 0.033663 0.787402,
1.907511 0.033663 -0.984252,
1.905948 0.029011 0.787402,
1.905948 0.029011 -0.984252,
1.904618 0.024287 0.787402,
1.904618 0.024287 -0.984252,
1.903526 0.019503 0.787402,
1.903526 0.019503 -0.984252,
1.902674 0.014670 0.787402,
1.902674 0.014670 -0.984252,
1.902064 0.009800 0.787402,
1.902064 0.009800 -0.984252,
1.901697 0.004906 0.787402,
1.901697 0.004906 -0.984252,
1.901575 -0.000000 0.787402,
1.901575 -0.000000 -0.984252,
1.901697 -0.004906 0.787402,
1.901697 -0.004906 -0.984252,
1.902064 -0.009800 0.787402,
1.902064 -0.009800 -0.984252,
1.902674 -0.014670 -0.984252,
1.902674 -0.014670 0.787402,
1.903526 -0.019503 0.787402,
1.903526 -0.019503 -0.984252,
1.904618 -0.024287 0.787402,
1.904618 -0.024287 -0.984252,
1.905948 -0.029011 0.787402,
1.905948 -0.029011 -0.984252,
1.907511 -0.033663 0.787402,
1.907511 -0.033663 -0.984252,
1.909304 -0.038232 0.787402,
1.909304 -0.038232 -0.984252,
1.911322 -0.042705 0.787402,
1.911322 -0.042705 -0.984252,
1.913561 -0.047072 0.787402,
1.913561 -0.047072 -0.984252,
1.916015 -0.051322 0.787402,
1.916015 -0.051322 -0.984252,
1.918677 -0.055445 -0.984252,
1.918677 -0.055445 0.787402,
1.921542 -0.059430 0.787402,
1.921542 -0.059430 -0.984252,
1.924602 -0.063266 -0.984252,
1.924602 -0.063266 0.787402,
1.927849 -0.066946 0.787402,
1.927849 -0.066946 -0.984252,
1.931276 -0.070459 0.787402,
1.931276 -0.070459 -0.984252,
1.934873 -0.073797 -0.984252,
1.934873 -0.073797 0.787402,
1.938633 -0.076952 0.787402,
1.938633 -0.076952 -0.984252,
1.942545 -0.079915 0.787402,
1.942545 -0.079915 -0.984252,
1.946600 -0.082680 -0.984252,
1.946600 -0.082680 0.787402,
1.950787 -0.085239 -0.984252,
1.950787 -0.085239 0.787402,
1.955097 -0.087586 0.787402,
1.955097 -0.087586 -0.984252,
1.959519 -0.089715 0.787402,
1.959519 -0.089715 -0.984252,
1.964041 -0.091621 0.787402,
1.964041 -0.091621 -0.984252,
1.968653 -0.093300 0.787402,
1.968653 -0.093300 -0.984252,
1.973342 -0.094746 0.787402,
1.973342 -0.094746 -0.984252,
1.978098 -0.095957 0.787402,
1.978098 -0.095957 -0.984252,
1.982909 -0.096930 0.787402,
1.982909 -0.096930 -0.984252,
1.987761 -0.097661 0.787402,
1.987761 -0.097661 -0.984252,
1.992645 -0.098150 0.787402,
1.992645 -0.098150 -0.984252,
1.997546 -0.098395 -0.984252,
1.997546 -0.098395 0.787402,
2.002454 -0.098395 0.787402,
2.002454 -0.098395 -0.984252,
2.007355 -0.098150 -0.984252,
2.007355 -0.098150 0.787402,
2.012239 -0.097661 0.787402,
2.012239 -0.097661 -0.984252,
2.017091 -0.096930 0.787402,
2.017091 -0.096930 -0.984252,
2.021902 -0.095957 0.787402,
2.021902 -0.095957 -0.984252,
2.026658 -0.094746 0.787402,
2.026658 -0.094746 -0.984252,
2.031347 -0.093300 0.787402,
2.031347 -0.093300 -0.984252,
2.035959 -0.091621 0.787402,
2.035959 -0.091621 -0.984252,
2.040481 -0.089715 0.787402,
2.040481 -0.089715 -0.984252,
2.044903 -0.087586 0.787402,
2.044903 -0.087586 -0.984252,
2.049213 -0.085239 0.787402,
2.049213 -0.085239 -0.984252,
2.053400 -0.082680 -0.984252,
2.053400 -0.082680 0.787402,
2.057455 -0.079915 0.787402,
2.057455 -0.079915 -0.984252,
2.061367 -0.076952 0.787402,
2.061367 -0.076952 -0.984252,
2.065127 -0.073797 0.787402,
2.065127 -0.073797 -0.984252,
2.068724 -0.070459 0.787402,
2.068724 -0.070459 -0.984252,
2.072151 -0.066946 0.787402,
2.072151 -0.066946 -0.984252,
2.075398 -0.063266 0.787402,
2.075398 -0.063266 -0.984252,
2.078458 -0.059430 0.787402,
2.078458 -0.059430 -0.984252,
2.081323 -0.055445 -0.984252,
2.081323 -0.055445 0.787402,
2.083985 -0.051322 0.787402,
2.083985 -0.051322 -0.984252,
2.086439 -0.047072 -0.984252,
2.086439 -0.047072 0.787402,
2.088678 -0.042705 0.787402,
2.088678 -0.042705 -0.984252,
2.090696 -0.038232 0.787402,
2.090696 -0.038232 -0.984252,
2.092489 -0.033663 0.787402,
2.092489 -0.033663 -0.984252,
2.094052 -0.029011 0.787402,
2.094052 -0.029011 -0.984252,
2.095382 -0.024287 0.787402,
2.095382 -0.024287 -0.984252,
2.096474 -0.019503 0.787402,
2.096474 -0.019503 -0.984252,
2.097326 -0.014670 0.787402,
2.097326 -0.014670 -0.984252,
2.097936 -0.009800 0.787402,
2.097936 -0.009800 -0.984252,
2.098303 -0.004906 0.787402,
2.098303 -0.004906 -0.984252 ] } coordIndex [ 0 1 2 -1,
0 2 3 -1,
4 3 5 -1,
4 0 3 -1,
6 5 7 -1,
6 4 5 -1,
8 7 9 -1,
8 9 10 -1,
8 6 7 -1,
11 8 10 -1,
12 10 13 -1,
12 11 10 -1,
14 13 15 -1,
14 12 13 -1,
16 15 17 -1,
16 14 15 -1,
18 17 19 -1,
18 16 17 -1,
20 19 21 -1,
20 18 19 -1,
22 20 21 -1,
22 21 23 -1,
22 23 24 -1,
25 22 24 -1,
26 25 24 -1,
26 24 27 -1,
26 27 28 -1,
29 26 28 -1,
29 28 30 -1,
31 29 30 -1,
32 31 30 -1,
32 30 33 -1,
34 32 33 -1,
34 33 35 -1,
36 34 35 -1,
36 35 37 -1,
36 37 38 -1,
39 36 38 -1,
40 39 38 -1,
40 38 41 -1,
40 41 42 -1,
43 40 42 -1,
44 43 42 -1,
44 42 45 -1,
44 45 46 -1,
47 46 48 -1,
47 44 46 -1,
49 47 48 -1,
50 49 48 -1,
50 48 51 -1,
50 51 52 -1,
53 52 54 -1,
53 50 52 -1,
55 53 54 -1,
56 54 57 -1,
56 57 58 -1,
56 55 54 -1,
59 56 58 -1,
60 58 61 -1,
60 61 62 -1,
60 59 58 -1,
63 60 62 -1,
64 62 65 -1,
64 65 66 -1,
64 63 62 -1,
67 64 66 -1,
68 66 69 -1,
68 69 70 -1,
68 67 66 -1,
71 70 72 -1,
71 68 70 -1,
73 72 74 -1,
73 71 72 -1,
75 73 74 -1,
75 74 76 -1,
77 75 76 -1,
78 77 76 -1,
78 76 79 -1,
80 78 79 -1,
80 79 81 -1,
80 81 82 -1,
83 80 82 -1,
84 83 82 -1,
84 82 85 -1,
86 84 85 -1,
86 85 87 -1,
88 86 87 -1,
88 87 89 -1,
88 89 90 -1,
91 88 90 -1,
92 91 90 -1,
92 90 93 -1,
92 93 94 -1,
95 92 94 -1,
96 95 94 -1,
96 94 97 -1,
96 97 98 -1,
99 96 98 -1,
99 98 100 -1,
101 99 100 -1,
102 101 100 -1,
102 100 103 -1,
102 103 104 -1,
105 102 104 -1,
105 104 106 -1,
107 105 106 -1,
108 107 106 -1,
108 106 109 -1,
110 108 109 -1,
110 109 111 -1,
112 110 111 -1,
112 111 113 -1,
114 112 113 -1,
114 113 115 -1,
116 115 117 -1,
116 114 115 -1,
118 117 119 -1,
118 116 117 -1,
120 119 121 -1,
120 118 119 -1,
122 121 123 -1,
122 120 121 -1,
124 122 123 -1,
124 123 125 -1,
126 124 125 -1,
126 125 127 -1,
128 126 127 -1,
128 127 129 -1,
130 128 129 -1,
130 129 131 -1,
130 131 132 -1,
133 130 132 -1,
134 133 132 -1,
134 132 135 -1,
136 134 135 -1,
136 135 137 -1,
138 136 137 -1,
138 137 139 -1,
140 138 139 -1,
140 139 141 -1,
142 140 141 -1,
142 141 143 -1,
144 142 143 -1,
144 143 145 -1,
146 144 145 -1,
146 145 147 -1,
148 149 150 -1,
148 146 147 -1,
148 147 149 -1,
151 148 150 -1,
152 150 153 -1,
152 153 154 -1,
152 151 150 -1,
155 152 154 -1,
156 154 157 -1,
156 155 154 -1,
158 157 159 -1,
158 159 160 -1,
158 156 157 -1,
161 158 160 -1,
162 160 163 -1,
162 161 160 -1,
164 163 165 -1,
164 165 166 -1,
164 162 163 -1,
167 166 168 -1,
167 164 166 -1,
169 167 168 -1,
170 168 171 -1,
170 169 168 -1,
172 171 173 -1,
172 170 171 -1,
174 173 175 -1,
174 172 173 -1,
176 174 175 -1,
176 175 177 -1,
178 176 177 -1,
178 177 179 -1,
180 178 179 -1,
180 179 181 -1,
182 180 181 -1,
182 181 183 -1,
184 183 185 -1,
184 182 183 -1,
186 185 187 -1,
186 187 188 -1,
186 184 185 -1,
189 186 188 -1,
190 188 191 -1,
190 191 192 -1,
190 189 188 -1,
193 190 192 -1,
194 192 195 -1,
194 193 192 -1,
196 195 197 -1,
196 194 195 -1,
198 197 199 -1,
198 196 197 -1,
200 199 201 -1,
200 198 199 -1,
202 201 203 -1,
202 200 201 -1,
204 203 205 -1,
204 202 203 -1,
206 205 207 -1,
206 204 205 -1,
208 207 209 -1,
208 206 207 -1,
210 209 211 -1,
210 211 212 -1,
210 208 209 -1,
213 210 212 -1,
214 212 215 -1,
214 213 212 -1,
216 215 217 -1,
216 214 215 -1,
218 217 219 -1,
218 216 217 -1,
220 219 221 -1,
220 218 219 -1,
222 221 223 -1,
222 220 221 -1,
224 223 225 -1,
224 222 223 -1,
226 224 225 -1,
226 225 227 -1,
226 227 228 -1,
229 226 228 -1,
230 229 228 -1,
230 228 231 -1,
230 231 232 -1,
233 230 232 -1,
234 233 232 -1,
234 232 235 -1,
236 234 235 -1,
236 235 237 -1,
238 236 237 -1,
238 237 239 -1,
240 238 239 -1,
240 239 241 -1,
242 240 241 -1,
242 241 243 -1,
244 242 243 -1,
244 243 245 -1,
246 244 245 -1,
246 245 247 -1,
248 246 247 -1,
248 247 249 -1,
250 249 251 -1,
250 248 249 -1,
250 251 2 -1,
1 250 2 -1,
200 196 198 -1,
206 202 204 -1,
105 107 108 -1,
213 208 210 -1,
222 218 220 -1,
226 222 224 -1,
88 91 92 -1,
230 226 229 -1,
234 230 233 -1,
234 226 230 -1,
80 83 84 -1,
236 226 234 -1,
242 236 238 -1,
242 238 240 -1,
246 242 244 -1,
68 71 73 -1,
250 246 248 -1,
0 250 1 -1,
4 250 0 -1,
59 60 63 -1,
12 6 8 -1,
12 8 11 -1,
18 14 16 -1,
20 14 18 -1,
43 44 47 -1,
43 47 49 -1,
43 49 50 -1,
36 39 40 -1,
36 40 43 -1,
29 25 26 -1,
31 25 29 -1,
32 200 202 -1,
32 4 6 -1,
32 206 208 -1,
32 25 31 -1,
32 246 250 -1,
32 213 214 -1,
32 12 14 -1,
32 214 216 -1,
32 216 218 -1,
32 20 22 -1,
32 202 206 -1,
32 36 43 -1,
32 22 25 -1,
32 196 200 -1,
32 6 12 -1,
32 250 4 -1,
32 34 36 -1,
32 105 108 -1,
32 222 226 -1,
32 68 73 -1,
32 50 53 -1,
32 53 55 -1,
32 55 56 -1,
32 56 59 -1,
32 63 64 -1,
32 64 67 -1,
32 67 68 -1,
32 208 213 -1,
32 73 75 -1,
32 75 77 -1,
32 77 78 -1,
32 78 80 -1,
32 218 222 -1,
32 84 86 -1,
32 86 88 -1,
32 43 50 -1,
32 92 95 -1,
32 95 96 -1,
32 96 99 -1,
32 226 236 -1,
32 99 101 -1,
32 101 102 -1,
32 102 105 -1,
32 108 110 -1,
32 110 112 -1,
32 112 114 -1,
32 114 116 -1,
32 116 118 -1,
32 118 120 -1,
32 120 122 -1,
32 122 124 -1,
32 124 126 -1,
32 126 128 -1,
32 128 130 -1,
32 236 242 -1,
32 130 133 -1,
32 14 20 -1,
32 133 134 -1,
32 134 136 -1,
32 136 138 -1,
32 138 140 -1,
32 140 142 -1,
32 142 144 -1,
32 144 146 -1,
32 146 148 -1,
32 148 151 -1,
32 151 152 -1,
32 152 155 -1,
32 155 156 -1,
32 156 158 -1,
32 158 161 -1,
32 80 84 -1,
32 161 162 -1,
32 162 164 -1,
32 164 167 -1,
32 167 169 -1,
32 169 170 -1,
32 170 172 -1,
32 242 246 -1,
32 172 174 -1,
32 174 176 -1,
32 176 178 -1,
32 178 180 -1,
32 180 182 -1,
32 182 184 -1,
32 184 186 -1,
32 186 189 -1,
32 88 92 -1,
32 189 190 -1,
32 190 193 -1,
32 193 194 -1,
32 59 63 -1,
32 194 196 -1,
197 201 199 -1,
203 207 205 -1,
106 104 109 -1,
209 212 211 -1,
219 223 221 -1,
223 227 225 -1,
90 89 93 -1,
227 231 228 -1,
231 235 232 -1,
227 235 231 -1,
82 81 85 -1,
227 237 235 -1,
237 243 239 -1,
239 243 241 -1,
243 247 245 -1,
70 69 72 -1,
247 251 249 -1,
251 3 2 -1,
251 5 3 -1,
61 58 62 -1,
7 13 9 -1,
9 13 10 -1,
15 19 17 -1,
15 21 19 -1,
45 42 46 -1,
46 42 48 -1,
48 42 51 -1,
38 37 41 -1,
41 37 42 -1,
24 28 27 -1,
24 30 28 -1,
201 33 203 -1,
5 33 7 -1,
207 33 209 -1,
24 33 30 -1,
247 33 251 -1,
212 33 215 -1,
13 33 15 -1,
215 33 217 -1,
217 33 219 -1,
21 33 23 -1,
203 33 207 -1,
37 33 42 -1,
23 33 24 -1,
197 33 201 -1,
7 33 13 -1,
251 33 5 -1,
35 33 37 -1,
104 33 109 -1,
223 33 227 -1,
69 33 72 -1,
51 33 52 -1,
52 33 54 -1,
54 33 57 -1,
57 33 58 -1,
62 33 65 -1,
65 33 66 -1,
66 33 69 -1,
209 33 212 -1,
72 33 74 -1,
74 33 76 -1,
76 33 79 -1,
79 33 81 -1,
219 33 223 -1,
85 33 87 -1,
87 33 89 -1,
42 33 51 -1,
93 33 94 -1,
94 33 97 -1,
97 33 98 -1,
227 33 237 -1,
98 33 100 -1,
100 33 103 -1,
103 33 104 -1,
109 33 111 -1,
111 33 113 -1,
113 33 115 -1,
115 33 117 -1,
117 33 119 -1,
119 33 121 -1,
121 33 123 -1,
123 33 125 -1,
125 33 127 -1,
127 33 129 -1,
129 33 131 -1,
237 33 243 -1,
131 33 132 -1,
15 33 21 -1,
132 33 135 -1,
135 33 137 -1,
137 33 139 -1,
139 33 141 -1,
141 33 143 -1,
143 33 145 -1,
145 33 147 -1,
147 33 149 -1,
149 33 150 -1,
150 33 153 -1,
153 33 154 -1,
154 33 157 -1,
157 33 159 -1,
159 33 160 -1,
81 33 85 -1,
160 33 163 -1,
163 33 165 -1,
165 33 166 -1,
166 33 168 -1,
168 33 171 -1,
171 33 173 -1,
243 33 247 -1,
173 33 175 -1,
175 33 177 -1,
177 33 179 -1,
179 33 181 -1,
181 33 183 -1,
183 33 185 -1,
185 33 187 -1,
187 33 188 -1,
89 33 93 -1,
188 33 191 -1,
191 33 192 -1,
192 33 195 -1,
58 33 62 -1,
195 33 197 -1 ] } }
Shape { appearance Appearance { material Material { diffuseColor 0.7 0.72 0.74 } } geometry IndexedFaceSet { solid FALSE coord Coordinate { point [ 1.593694 1.604551 0.782495,
1.593810 1.604588 0.787402,
2.093810 0.029785 0.787402,
2.093694 0.029748 0.782495,
1.593344 1.604440 0.777602,
2.093344 0.029637 0.777602,
1.592763 1.604255 0.772732,
2.092763 0.029452 0.772732,
1.591950 1.603997 0.767899,
2.091950 0.029194 0.767899,
1.590909 1.603667 0.763114,
2.090909 0.028864 0.763114,
1.589643 1.603265 0.758390,
2.089643 0.028462 0.758390,
1.588153 1.602792 0.753738,
2.088153 0.027989 0.753738,
2.086444 0.027446 0.749170,
1.586444 1.602249 0.749170,
1.584520 1.601638 0.744696,
2.084520 0.026835 0.744696,
1.582386 1.600961 0.740329,
2.082386 0.026158 0.740329,
1.580048 1.600218 0.736079,
2.080048 0.025415 0.736079,
1.577510 1.599413 0.731957,
2.077510 0.024609 0.731957,
2.074779 0.023742 0.727972,
1.574779 1.598546 0.727972,
2.071863 0.022816 0.724135,
1.571863 1.597620 0.724135,
1.568768 1.596637 0.720455,
2.068768 0.021834 0.720455,
2.065502 0.020797 0.716942,
1.565502 1.595600 0.716942,
1.562073 1.594511 0.713604,
2.062073 0.019708 0.713604,
1.558490 1.593374 0.710450,
2.058490 0.018571 0.710450,
1.554761 1.592190 0.707486,
2.054761 0.017387 0.707486,
1.550896 1.590963 0.704722,
2.050896 0.016160 0.704722,
1.546905 1.589696 0.702163,
2.046905 0.014892 0.702163,
1.542797 1.588391 0.699816,
2.042797 0.013588 0.699816,
1.538583 1.587053 0.697686,
2.038583 0.012250 0.697686,
1.534273 1.585685 0.695780,
2.034273 0.010882 0.695780,
1.529877 1.584289 0.694102,
2.029877 0.009486 0.694102,
1.525408 1.582870 0.692655,
2.025408 0.008067 0.692655,
1.520875 1.581431 0.691444,
2.020875 0.006628 0.691444,
1.516290 1.579975 0.690472,
2.016290 0.005172 0.690472,
1.511665 1.578507 0.689740,
2.011665 0.003704 0.689740,
1.507010 1.577029 0.689252,
2.007010 0.002226 0.689252,
1.502339 1.575546 0.689007,
2.002339 0.000743 0.689007,
1.497661 1.574061 0.689007,
1.997661 -0.000743 0.689007,
1.492990 1.572577 0.689252,
1.992990 -0.002226 0.689252,
1.988335 -0.003704 0.689740,
1.488335 1.571100 0.689740,
1.483710 1.569631 0.690472,
1.983710 -0.005172 0.690472,
1.479125 1.568175 0.691444,
1.979125 -0.006628 0.691444,
1.974592 -0.008067 0.692655,
1.474592 1.566736 0.692655,
1.470123 1.565317 0.694102,
1.970123 -0.009486 0.694102,
1.465727 1.563922 0.695780,
1.965727 -0.010882 0.695780,
1.461417 1.562553 0.697686,
1.961417 -0.012250 0.697686,
1.957203 -0.013588 0.699816,
1.457203 1.561215 0.699816,
1.453095 1.559911 0.702163,
1.953095 -0.014892 0.702163,
1.949104 -0.016160 0.704722,
1.449104 1.558644 0.704722,
1.945239 -0.017387 0.707486,
1.445239 1.557416 0.707486,
1.441510 1.556233 0.710450,
1.941510 -0.018571 0.710450,
1.437927 1.555095 0.713604,
1.937927 -0.019708 0.713604,
1.934498 -0.020797 0.716942,
1.434498 1.554006 0.716942,
1.431232 1.552969 0.720455,
1.931232 -0.021834 0.720455,
1.428137 1.551987 0.724135,
1.928137 -0.022816 0.724135,
1.925221 -0.023742 0.727972,
1.425221 1.551061 0.727972,
1.922490 -0.024609 0.731957,
1.422490 1.550194 0.731957,
1.419952 1.549388 0.736079,
1.919952 -0.025415 0.736079,
1.417614 1.548646 0.740329,
1.917614 -0.026158 0.740329,
1.415480 1.547968 0.744696,
1.915480 -0.026835 0.744696,
1.913556 -0.027446 0.749170,
1.413556 1.547357 0.749170,
1.411847 1.546815 0.753738,
1.911847 -0.027989 0.753738,
1.410357 1.546342 0.758390,
1.910357 -0.028462 0.758390,
1.909091 -0.028864 0.763114,
1.409091 1.545939 0.763114,
1.408050 1.545609 0.767899,
1.908050 -0.029194 0.767899,
1.907237 -0.029452 0.772732,
1.407237 1.545351 0.772732,
1.406656 1.545166 0.777602,
1.906656 -0.029637 0.777602,
1.406306 1.545055 0.782495,
1.906306 -0.029748 0.782495,
1.406190 1.545018 0.787402,
1.906190 -0.029785 0.787402,
1.406306 1.545055 0.792308,
1.906306 -0.029748 0.792308,
1.406656 1.545166 0.797202,
1.906656 -0.029637 0.797202,
1.907237 -0.029452 0.802071,
1.407237 1.545351 0.802071,
1.408050 1.545609 0.806904,
1.908050 -0.029194 0.806904,
1.409091 1.545939 0.811689,
1.909091 -0.028864 0.811689,
1.410357 1.546342 0.816413,
1.910357 -0.028462 0.816413,
1.411847 1.546815 0.821065,
1.911847 -0.027989 0.821065,
1.413556 1.547357 0.825633,
1.913556 -0.027446 0.825633,
1.415480 1.547968 0.830107,
1.915480 -0.026835 0.830107,
1.417614 1.548646 0.834474,
1.917614 -0.026158 0.834474,
1.419952 1.549388 0.838724,
1.919952 -0.025415 0.838724,
1.922490 -0.024609 0.842846,
1.422490 1.550194 0.842846,
1.425221 1.551061 0.846831,
1.925221 -0.023742 0.846831,
1.428137 1.551987 0.850668,
1.928137 -0.022816 0.850668,
1.431232 1.552969 0.854348,
1.931232 -0.021834 0.854348,
1.434498 1.554006 0.857861,
1.934498 -0.020797 0.857861,
1.937927 -0.019708 0.861199,
1.437927 1.555095 0.861199,
1.441510 1.556233 0.864353,
1.941510 -0.018571 0.864353,
1.445239 1.557416 0.867317,
1.945239 -0.017387 0.867317,
1.449104 1.558644 0.870081,
1.949104 -0.016160 0.870081,
1.453095 1.559911 0.872640,
1.953095 -0.014892 0.872640,
1.457203 1.561215 0.874987,
1.957203 -0.013588 0.874987,
1.461417 1.562553 0.877117,
1.961417 -0.012250 0.877117,
1.965727 -0.010882 0.879023,
1.465727 1.563922 0.879023,
1.470123 1.565317 0.880702,
1.970123 -0.009486 0.880702,
1.474592 1.566736 0.882148,
1.974592 -0.008067 0.882148,
1.479125 1.568175 0.883359,
1.979125 -0.006628 0.883359,
1.983710 -0.005172 0.884331,
1.483710 1.569631 0.884331,
1.488335 1.571100 0.885063,
1.988335 -0.003704 0.885063,
1.492990 1.572577 0.885552,
1.992990 -0.002226 0.885552,
1.497661 1.574061 0.885796,
1.997661 -0.000743 0.885796,
1.502339 1.575546 0.885796,
2.002339 0.000743 0.885796,
2.007010 0.002226 0.885552,
1.507010 1.577029 0.885552,
1.511665 1.578507 0.885063,
2.011665 0.003704 0.885063,
2.016290 0.005172 0.884331,
1.516290 1.579975 0.884331,
2.020875 0.006628 0.883359,
1.520875 1.581431 0.883359,
1.525408 1.582870 0.882148,
2.025408 0.008067 0.882148,
2.029877 0.009486 0.880702,
1.529877 1.584289 0.880702,
1.534273 1.585685 0.879023,
2.034273 0.010882 0.879023,
2.038583 0.012250 0.877117,
1.538583 1.587053 0.877117,
1.542797 1.588391 0.874987,
2.042797 0.013588 0.874987,
1.546905 1.589696 0.872640,
2.046905 0.014892 0.872640,
1.550896 1.590963 0.870081,
2.050896 0.016160 0.870081,
2.054761 0.017387 0.867317,
1.554761 1.592190 0.867317,
2.058490 0.018571 0.864353,
1.558490 1.593374 0.864353,
1.562073 1.594511 0.861199,
2.062073 0.019708 0.861199,
2.065502 0.020797 0.857861,
1.565502 1.595600 0.857861,
1.568768 1.596637 0.854348,
2.068768 0.021834 0.854348,
2.071863 0.022816 0.850668,
1.571863 1.597620 0.850668,
1.574779 1.598546 0.846831,
2.074779 0.023742 0.846831,
1.577510 1.599413 0.842846,
2.077510 0.024609 0.842846,
2.080048 0.025415 0.838724,
1.580048 1.600218 0.838724,
1.582386 1.600961 0.834474,
2.082386 0.026158 0.834474,
2.084520 0.026835 0.830107,
1.584520 1.601638 0.830107,
2.086444 0.027446 0.825633,
1.586444 1.602249 0.825633,
1.588153 1.602792 0.821065,
2.088153 0.027989 0.821065,
1.589643 1.603265 0.816413,
2.089643 0.028462 0.816413,
1.590909 1.603667 0.811689,
2.090909 0.028864 0.811689,
1.591950 1.603997 0.806904,
2.091950 0.029194 0.806904,
2.092763 0.029452 0.802071,
1.592763 1.604255 0.802071,
1.593344 1.604440 0.797202,
2.093344 0.029637 0.797202,
2.093694 0.029748 0.792308,
1.593694 1.604551 0.792308 ] } coordIndex [ 0 1 2 -1,
0 2 3 -1,
4 3 5 -1,
4 0 3 -1,
6 5 7 -1,
6 4 5 -1,
8 7 9 -1,
8 6 7 -1,
10 9 11 -1,
10 8 9 -1,
12 11 13 -1,
12 10 11 -1,
14 13 15 -1,
14 15 16 -1,
14 12 13 -1,
17 14 16 -1,
18 16 19 -1,
18 17 16 -1,
20 19 21 -1,
20 18 19 -1,
22 20 21 -1,
22 21 23 -1,
24 22 23 -1,
24 23 25 -1,
24 25 26 -1,
27 24 26 -1,
27 26 28 -1,
29 27 28 -1,
30 29 28 -1,
30 28 31 -1,
30 31 32 -1,
33 30 32 -1,
34 33 32 -1,
34 32 35 -1,
36 34 35 -1,
36 35 37 -1,
38 36 37 -1,
38 37 39 -1,
40 38 39 -1,
40 39 41 -1,
42 40 41 -1,
42 41 43 -1,
44 42 43 -1,
44 43 45 -1,
46 45 47 -1,
46 44 45 -1,
48 47 49 -1,
48 46 47 -1,
50 49 51 -1,
50 48 49 -1,
52 51 53 -1,
52 50 51 -1,
54 53 55 -1,
54 52 53 -1,
56 55 57 -1,
56 54 55 -1,
58 57 59 -1,
58 56 57 -1,
60 59 61 -1,
60 58 59 -1,
62 61 63 -1,
62 60 61 -1,
64 63 65 -1,
64 62 63 -1,
66 65 67 -1,
66 67 68 -1,
66 64 65 -1,
69 66 68 -1,
70 68 71 -1,
70 69 68 -1,
72 71 73 -1,
72 73 74 -1,
72 70 71 -1,
75 72 74 -1,
76 75 74 -1,
76 74 77 -1,
78 76 77 -1,
78 77 79 -1,
80 78 79 -1,
80 79 81 -1,
80 81 82 -1,
83 80 82 -1,
84 83 82 -1,
84 82 85 -1,
84 85 86 -1,
87 84 86 -1,
87 86 88 -1,
89 87 88 -1,
90 89 88 -1,
90 88 91 -1,
92 90 91 -1,
92 91 93 -1,
92 93 94 -1,
95 92 94 -1,
96 95 94 -1,
96 94 97 -1,
98 96 97 -1,
98 97 99 -1,
98 99 100 -1,
101 98 100 -1,
101 100 102 -1,
103 101 102 -1,
104 103 102 -1,
104 102 105 -1,
106 104 105 -1,
106 105 107 -1,
108 106 107 -1,
108 107 109 -1,
108 109 110 -1,
111 108 110 -1,
112 111 110 -1,
112 110 113 -1,
114 112 113 -1,
114 113 115 -1,
114 115 116 -1,
117 114 116 -1,
118 116 119 -1,
118 119 120 -1,
118 117 116 -1,
121 118 120 -1,
122 120 123 -1,
122 121 120 -1,
124 122 123 -1,
124 123 125 -1,
126 124 125 -1,
126 125 127 -1,
128 126 127 -1,
128 127 129 -1,
130 128 129 -1,
130 129 131 -1,
130 131 132 -1,
133 130 132 -1,
134 133 132 -1,
134 132 135 -1,
136 134 135 -1,
136 135 137 -1,
138 136 137 -1,
138 137 139 -1,
140 138 139 -1,
140 139 141 -1,
142 140 141 -1,
142 141 143 -1,
144 142 143 -1,
144 143 145 -1,
146 144 145 -1,
146 145 147 -1,
148 149 150 -1,
148 146 147 -1,
148 147 149 -1,
151 148 150 -1,
152 150 153 -1,
152 151 150 -1,
154 153 155 -1,
154 152 153 -1,
156 155 157 -1,
156 154 155 -1,
158 157 159 -1,
158 159 160 -1,
158 156 157 -1,
161 158 160 -1,
162 160 163 -1,
162 161 160 -1,
164 163 165 -1,
164 162 163 -1,
166 165 167 -1,
166 164 165 -1,
168 167 169 -1,
168 166 167 -1,
170 169 171 -1,
170 168 169 -1,
172 171 173 -1,
172 173 174 -1,
172 170 171 -1,
175 172 174 -1,
176 175 174 -1,
176 174 177 -1,
178 176 177 -1,
178 177 179 -1,
180 178 179 -1,
180 179 181 -1,
180 181 182 -1,
183 180 182 -1,
184 182 185 -1,
184 183 182 -1,
186 185 187 -1,
186 184 185 -1,
188 187 189 -1,
188 186 187 -1,
190 189 191 -1,
190 191 192 -1,
190 188 189 -1,
193 190 192 -1,
194 192 195 -1,
194 195 196 -1,
194 193 192 -1,
197 194 196 -1,
197 196 198 -1,
199 197 198 -1,
200 198 201 -1,
200 201 202 -1,
200 199 198 -1,
203 200 202 -1,
204 202 205 -1,
204 205 206 -1,
204 203 202 -1,
207 204 206 -1,
208 206 209 -1,
208 207 206 -1,
210 209 211 -1,
210 208 209 -1,
212 211 213 -1,
212 213 214 -1,
212 210 211 -1,
215 214 216 -1,
215 212 214 -1,
217 215 216 -1,
218 216 219 -1,
218 219 220 -1,
218 217 216 -1,
221 218 220 -1,
222 220 223 -1,
222 223 224 -1,
222 221 220 -1,
225 222 224 -1,
226 225 224 -1,
226 224 227 -1,
228 226 227 -1,
228 227 229 -1,
228 229 230 -1,
231 228 230 -1,
232 231 230 -1,
232 230 233 -1,
232 233 234 -1,
235 232 234 -1,
235 234 236 -1,
237 235 236 -1,
238 237 236 -1,
238 236 239 -1,
240 238 239 -1,
240 239 241 -1,
242 240 241 -1,
242 241 243 -1,
244 242 243 -1,
244 243 245 -1,
244 245 246 -1,
247 244 246 -1,
248 247 246 -1,
248 246 249 -1,
248 249 250 -1,
251 248 250 -1,
1 250 2 -1,
1 251 250 -1,
108 111 112 -1,
104 106 108 -1,
215 210 212 -1,
217 210 215 -1,
218 208 210 -1,
218 210 217 -1,
221 208 218 -1,
92 95 96 -1,
225 221 222 -1,
228 225 226 -1,
231 225 228 -1,
76 78 80 -1,
240 235 237 -1,
240 237 238 -1,
75 76 80 -1,
247 242 244 -1,
0 251 1 -1,
8 4 6 -1,
10 4 8 -1,
12 4 10 -1,
50 52 54 -1,
42 44 46 -1,
22 14 17 -1,
22 17 18 -1,
22 18 20 -1,
40 42 46 -1,
36 38 40 -1,
29 22 24 -1,
29 24 27 -1,
33 200 203 -1,
33 203 204 -1,
33 0 4 -1,
33 204 207 -1,
33 40 46 -1,
33 207 208 -1,
33 251 0 -1,
33 12 14 -1,
33 104 108 -1,
33 29 30 -1,
33 231 232 -1,
33 232 235 -1,
33 34 36 -1,
33 36 40 -1,
33 240 242 -1,
33 247 248 -1,
33 248 251 -1,
33 46 48 -1,
33 48 50 -1,
33 54 56 -1,
33 56 58 -1,
33 58 60 -1,
33 4 12 -1,
33 60 62 -1,
33 14 22 -1,
33 62 64 -1,
33 64 66 -1,
33 66 69 -1,
33 69 70 -1,
33 70 72 -1,
33 72 75 -1,
33 80 83 -1,
33 83 84 -1,
33 225 231 -1,
33 84 87 -1,
33 221 225 -1,
33 87 89 -1,
33 89 90 -1,
33 90 92 -1,
33 96 98 -1,
33 98 101 -1,
33 208 221 -1,
33 101 103 -1,
33 103 104 -1,
33 112 114 -1,
33 114 117 -1,
33 117 118 -1,
33 118 121 -1,
33 121 122 -1,
33 122 124 -1,
33 124 126 -1,
33 126 128 -1,
33 128 130 -1,
33 130 133 -1,
33 242 247 -1,
33 133 134 -1,
33 134 136 -1,
33 136 138 -1,
33 22 29 -1,
33 138 140 -1,
33 140 142 -1,
33 142 144 -1,
33 50 54 -1,
33 144 146 -1,
33 146 148 -1,
33 75 80 -1,
33 235 240 -1,
33 148 151 -1,
33 151 152 -1,
33 152 154 -1,
33 154 156 -1,
33 156 158 -1,
33 158 161 -1,
33 161 162 -1,
33 162 164 -1,
33 164 166 -1,
33 166 168 -1,
33 168 170 -1,
33 170 172 -1,
33 172 175 -1,
33 175 176 -1,
33 176 178 -1,
33 178 180 -1,
33 180 183 -1,
33 183 184 -1,
33 184 186 -1,
33 186 188 -1,
33 188 190 -1,
33 108 112 -1,
33 190 193 -1,
33 193 194 -1,
33 194 197 -1,
33 92 96 -1,
33 197 199 -1,
33 199 200 -1,
15 19 16 -1,
47 45 49 -1,
49 45 51 -1,
15 21 19 -1,
45 43 51 -1,
39 37 41 -1,
41 37 43 -1,
196 201 198 -1,
26 31 28 -1,
201 205 202 -1,
59 32 63 -1,
3 32 5 -1,
205 32 206 -1,
206 32 209 -1,
209 32 211 -1,
250 32 3 -1,
219 32 220 -1,
21 32 23 -1,
23 32 25 -1,
25 32 26 -1,
196 32 201 -1,
35 32 37 -1,
9 32 15 -1,
246 32 249 -1,
249 32 250 -1,
55 32 57 -1,
57 32 59 -1,
220 32 227 -1,
63 32 65 -1,
65 32 67 -1,
67 32 68 -1,
73 32 74 -1,
51 32 55 -1,
81 32 82 -1,
82 32 85 -1,
15 32 21 -1,
88 32 91 -1,
91 32 93 -1,
43 32 51 -1,
211 32 219 -1,
93 32 94 -1,
94 32 97 -1,
97 32 99 -1,
99 32 100 -1,
37 32 43 -1,
239 32 243 -1,
68 32 73 -1,
109 32 110 -1,
110 32 113 -1,
26 32 31 -1,
233 32 239 -1,
113 32 115 -1,
115 32 116 -1,
227 32 233 -1,
116 32 119 -1,
119 32 120 -1,
120 32 123 -1,
85 32 88 -1,
123 32 125 -1,
125 32 127 -1,
127 32 129 -1,
129 32 131 -1,
131 32 132 -1,
74 32 81 -1,
132 32 135 -1,
135 32 137 -1,
137 32 139 -1,
139 32 141 -1,
141 32 143 -1,
143 32 145 -1,
145 32 147 -1,
5 32 9 -1,
147 32 149 -1,
149 32 150 -1,
150 32 153 -1,
153 32 155 -1,
155 32 157 -1,
201 32 205 -1,
157 32 159 -1,
159 32 160 -1,
160 32 163 -1,
163 32 165 -1,
165 32 167 -1,
167 32 169 -1,
169 32 171 -1,
171 32 173 -1,
173 32 174 -1,
174 32 177 -1,
177 32 179 -1,
179 32 181 -1,
181 32 182 -1,
182 32 185 -1,
185 32 187 -1,
187 32 189 -1,
189 32 191 -1,
191 32 192 -1,
243 32 246 -1,
192 32 195 -1,
195 32 196 -1,
105 32 109 -1,
100 32 105 -1,
107 105 109 -1,
102 100 105 -1,
211 219 213 -1,
213 219 214 -1,
214 219 216 -1,
220 224 223 -1,
220 227 224 -1,
227 230 229 -1,
86 85 88 -1,
227 233 230 -1,
233 239 234 -1,
234 239 236 -1,
77 74 79 -1,
79 74 81 -1,
239 243 241 -1,
243 246 245 -1,
71 68 73 -1,
250 3 2 -1,
61 59 63 -1,
5 9 7 -1,
53 51 55 -1,
9 15 11 -1,
11 15 13 -1 ] } }
