%TF.GenerationSoftware,KiCad,Pcbnew,10.0.6*%
%TF.CreationDate,2026-09-12T00:14:53-05:00*%
%TF.ProjectId,KK_power_module,4b4b5f70-6f77-4657-925f-6d6f64756c65,rev?*%
%TF.SameCoordinates,Original*%
%TF.FileFunction,Soldermask,Top*%
%TF.FilePolarity,Negative*%
%FSLAX46Y46*%
G04 Gerber Fmt 4.6, Leading zero omitted, Abs format (unit mm)*
G04 Created by KiCad (PCBNEW 10.0.6) date 2026-09-12 00:14:53*
%MOMM*%
%LPD*%
G01*
G04 APERTURE LIST*
G04 Aperture macros list*
%AMRoundRect*
0 Rectangle with rounded corners*
0 $1 Rounding radius*
0 $2 $3 $4 $5 $6 $7 $8 $9 X,Y pos of 4 corners*
0 Add a 4 corners polygon primitive as box body*
4,1,4,$2,$3,$4,$5,$6,$7,$8,$9,$2,$3,0*
0 Add four circle primitives for the rounded corners*
1,1,$1+$1,$2,$3*
1,1,$1+$1,$4,$5*
1,1,$1+$1,$6,$7*
1,1,$1+$1,$8,$9*
0 Add four rect primitives between the rounded corners*
20,1,$1+$1,$2,$3,$4,$5,0*
20,1,$1+$1,$4,$5,$6,$7,0*
20,1,$1+$1,$6,$7,$8,$9,0*
20,1,$1+$1,$8,$9,$2,$3,0*%
G04 Aperture macros list end*
%ADD10RoundRect,0.150000X-0.512500X-0.150000X0.512500X-0.150000X0.512500X0.150000X-0.512500X0.150000X0*%
%ADD11RoundRect,0.250000X0.475000X-0.250000X0.475000X0.250000X-0.475000X0.250000X-0.475000X-0.250000X0*%
%ADD12RoundRect,0.200000X-0.200000X-0.275000X0.200000X-0.275000X0.200000X0.275000X-0.200000X0.275000X0*%
%ADD13R,0.280000X0.280000*%
%ADD14O,0.850000X0.280000*%
%ADD15R,0.230000X0.600000*%
%ADD16R,0.250000X0.700000*%
%ADD17R,0.650000X0.900000*%
%ADD18R,1.700000X2.150000*%
%ADD19RoundRect,0.150000X0.150000X-0.587500X0.150000X0.587500X-0.150000X0.587500X-0.150000X-0.587500X0*%
%ADD20RoundRect,0.249500X-0.457500X-0.147500X0.457500X-0.147500X0.457500X0.147500X-0.457500X0.147500X0*%
%ADD21RoundRect,0.250000X-0.375000X-0.625000X0.375000X-0.625000X0.375000X0.625000X-0.375000X0.625000X0*%
%ADD22RoundRect,0.250000X0.350000X0.625000X-0.350000X0.625000X-0.350000X-0.625000X0.350000X-0.625000X0*%
%ADD23O,1.200000X1.750000*%
%ADD24RoundRect,0.200000X-0.275000X0.200000X-0.275000X-0.200000X0.275000X-0.200000X0.275000X0.200000X0*%
%ADD25RoundRect,0.225000X-0.225000X-0.250000X0.225000X-0.250000X0.225000X0.250000X-0.225000X0.250000X0*%
%ADD26RoundRect,0.225000X-0.250000X0.225000X-0.250000X-0.225000X0.250000X-0.225000X0.250000X0.225000X0*%
%ADD27RoundRect,0.200000X0.275000X-0.200000X0.275000X0.200000X-0.275000X0.200000X-0.275000X-0.200000X0*%
%ADD28C,2.200000*%
%ADD29R,0.980000X3.400000*%
%ADD30RoundRect,0.225000X0.250000X-0.225000X0.250000X0.225000X-0.250000X0.225000X-0.250000X-0.225000X0*%
%ADD31C,0.900000*%
%ADD32RoundRect,0.250000X1.000000X-0.375000X1.000000X0.375000X-1.000000X0.375000X-1.000000X-0.375000X0*%
%ADD33C,0.300000*%
%ADD34RoundRect,0.225000X0.225000X0.250000X-0.225000X0.250000X-0.225000X-0.250000X0.225000X-0.250000X0*%
%ADD35RoundRect,0.250000X0.250000X0.475000X-0.250000X0.475000X-0.250000X-0.475000X0.250000X-0.475000X0*%
%ADD36RoundRect,0.062500X-0.237500X-0.062500X0.237500X-0.062500X0.237500X0.062500X-0.237500X0.062500X0*%
%ADD37R,0.900000X1.600000*%
%ADD38RoundRect,0.250000X-0.250000X-0.475000X0.250000X-0.475000X0.250000X0.475000X-0.250000X0.475000X0*%
%ADD39C,0.650000*%
%ADD40RoundRect,0.300000X0.000010X0.350000X-0.000010X0.350000X-0.000010X-0.350000X0.000010X-0.350000X0*%
%ADD41RoundRect,0.150000X0.150000X0.500000X-0.150000X0.500000X-0.150000X-0.500000X0.150000X-0.500000X0*%
%ADD42RoundRect,0.075000X0.075000X0.575000X-0.075000X0.575000X-0.075000X-0.575000X0.075000X-0.575000X0*%
%ADD43O,1.000000X2.100000*%
%ADD44O,1.000000X1.600000*%
%ADD45RoundRect,0.250000X0.650000X-1.000000X0.650000X1.000000X-0.650000X1.000000X-0.650000X-1.000000X0*%
%ADD46RoundRect,0.250001X1.099999X1.099999X-1.099999X1.099999X-1.099999X-1.099999X1.099999X-1.099999X0*%
%ADD47C,2.700000*%
%ADD48RoundRect,0.250000X0.625000X-0.375000X0.625000X0.375000X-0.625000X0.375000X-0.625000X-0.375000X0*%
%ADD49RoundRect,0.062500X-0.375000X-0.062500X0.375000X-0.062500X0.375000X0.062500X-0.375000X0.062500X0*%
%ADD50RoundRect,0.062500X-0.062500X-0.375000X0.062500X-0.375000X0.062500X0.375000X-0.062500X0.375000X0*%
%ADD51R,1.600000X1.600000*%
%ADD52RoundRect,0.062500X-0.350000X-0.062500X0.350000X-0.062500X0.350000X0.062500X-0.350000X0.062500X0*%
%ADD53RoundRect,0.062500X-0.062500X-0.350000X0.062500X-0.350000X0.062500X0.350000X-0.062500X0.350000X0*%
%ADD54R,2.700000X2.700000*%
%ADD55RoundRect,0.050000X-0.375000X-0.050000X0.375000X-0.050000X0.375000X0.050000X-0.375000X0.050000X0*%
%ADD56RoundRect,0.050000X-0.050000X-0.275000X0.050000X-0.275000X0.050000X0.275000X-0.050000X0.275000X0*%
%ADD57RoundRect,0.250000X0.600000X0.725000X-0.600000X0.725000X-0.600000X-0.725000X0.600000X-0.725000X0*%
%ADD58O,1.700000X1.950000*%
G04 APERTURE END LIST*
D10*
%TO.C,U11*%
X41862500Y-35050000D03*
X41862500Y-36000000D03*
X41862500Y-36950000D03*
X44137500Y-36950000D03*
X44137500Y-35050000D03*
%TD*%
D11*
%TO.C,C43*%
X43600000Y-21450000D03*
X43600000Y-19550000D03*
%TD*%
D12*
%TO.C,R2*%
X14175000Y-9250000D03*
X15825000Y-9250000D03*
%TD*%
D13*
%TO.C,U7*%
X36240000Y-22000000D03*
D14*
X36525000Y-22000000D03*
D13*
X36240000Y-22500000D03*
D14*
X36525000Y-22500000D03*
D13*
X36240000Y-23000000D03*
D14*
X36525000Y-23000000D03*
D13*
X36240000Y-23500000D03*
D14*
X36525000Y-23500000D03*
D13*
X36240000Y-24000000D03*
D14*
X36525000Y-24000000D03*
X39475000Y-24000000D03*
D13*
X39760000Y-24000000D03*
D14*
X39475000Y-23500000D03*
D13*
X39760000Y-23500000D03*
D14*
X39475000Y-23000000D03*
D13*
X39760000Y-23000000D03*
D14*
X39475000Y-22500000D03*
D13*
X39760000Y-22500000D03*
D14*
X39475000Y-22000000D03*
D13*
X39760000Y-22000000D03*
D15*
X37400000Y-21575000D03*
D16*
X37400000Y-21575000D03*
D15*
X37400000Y-24425000D03*
D16*
X37400000Y-24425000D03*
D17*
X37565000Y-22440000D03*
X37565000Y-23560000D03*
D15*
X37800000Y-21575000D03*
D16*
X37800000Y-21575000D03*
D15*
X37800000Y-24425000D03*
D16*
X37800000Y-24425000D03*
D18*
X38000000Y-23000000D03*
D15*
X38200000Y-21575000D03*
D16*
X38200000Y-21575000D03*
D15*
X38200000Y-24425000D03*
D16*
X38200000Y-24425000D03*
D17*
X38435000Y-22440000D03*
X38435000Y-23560000D03*
D15*
X38600000Y-21575000D03*
D16*
X38600000Y-21575000D03*
D15*
X38600000Y-24425000D03*
D16*
X38600000Y-24425000D03*
%TD*%
D12*
%TO.C,R14*%
X36175000Y-5500000D03*
X37825000Y-5500000D03*
%TD*%
D19*
%TO.C,Q4*%
X6550000Y-11937500D03*
X8450000Y-11937500D03*
X7500000Y-10062500D03*
%TD*%
D20*
%TO.C,Q1*%
X4245000Y-34550000D03*
X4245000Y-35500000D03*
X4245000Y-36450000D03*
X6755000Y-36450000D03*
X6755000Y-35500000D03*
X6755000Y-34550000D03*
%TD*%
D21*
%TO.C,F1*%
X11350000Y-30500000D03*
X14150000Y-30500000D03*
%TD*%
D22*
%TO.C,J4*%
X23000000Y-44550000D03*
D23*
X21000000Y-44550000D03*
%TD*%
D24*
%TO.C,R21*%
X15100000Y-24175000D03*
X15100000Y-25825000D03*
%TD*%
D11*
%TO.C,C44*%
X45800000Y-21450000D03*
X45800000Y-19550000D03*
%TD*%
D25*
%TO.C,C72*%
X19225000Y-9750000D03*
X20775000Y-9750000D03*
%TD*%
D12*
%TO.C,R1*%
X14175000Y-11000000D03*
X15825000Y-11000000D03*
%TD*%
%TO.C,R70*%
X19175000Y-11500000D03*
X20825000Y-11500000D03*
%TD*%
D26*
%TO.C,C48*%
X41500000Y-24225000D03*
X41500000Y-25775000D03*
%TD*%
D25*
%TO.C,C9*%
X31975000Y-12500000D03*
X33525000Y-12500000D03*
%TD*%
D27*
%TO.C,R9*%
X16250000Y-31075000D03*
X16250000Y-29425000D03*
%TD*%
D28*
%TO.C,H3*%
X3000000Y-47000000D03*
%TD*%
D12*
%TO.C,R61*%
X38175000Y-34500000D03*
X39825000Y-34500000D03*
%TD*%
%TO.C,R12*%
X38425000Y-7500000D03*
X40075000Y-7500000D03*
%TD*%
%TO.C,R64*%
X38175000Y-36250000D03*
X39825000Y-36250000D03*
%TD*%
D25*
%TO.C,C71*%
X24225000Y-11250000D03*
X25775000Y-11250000D03*
%TD*%
D12*
%TO.C,R53*%
X22925000Y-39000000D03*
X24575000Y-39000000D03*
%TD*%
D29*
%TO.C,L2*%
X21815000Y-18250000D03*
X24185000Y-18250000D03*
%TD*%
D12*
%TO.C,R6*%
X28175000Y-13750000D03*
X29825000Y-13750000D03*
%TD*%
%TO.C,R54*%
X29425000Y-39000000D03*
X31075000Y-39000000D03*
%TD*%
D19*
%TO.C,Q5*%
X39550000Y-4687500D03*
X41450000Y-4687500D03*
X40500000Y-2812500D03*
%TD*%
D27*
%TO.C,R20*%
X13300000Y-25825000D03*
X13300000Y-24175000D03*
%TD*%
D11*
%TO.C,C32*%
X26400000Y-21450000D03*
X26400000Y-19550000D03*
%TD*%
D30*
%TO.C,C60*%
X44750000Y-30775000D03*
X44750000Y-29225000D03*
%TD*%
D12*
%TO.C,R72*%
X19675000Y-13250000D03*
X21325000Y-13250000D03*
%TD*%
D31*
%TO.C,SW1*%
X46125000Y-14400000D03*
X46125000Y-7600000D03*
D32*
X43375000Y-13500000D03*
X43375000Y-11000000D03*
X43375000Y-8500000D03*
%TD*%
D20*
%TO.C,Q2*%
X9245000Y-34550000D03*
X9245000Y-35500000D03*
X9245000Y-36450000D03*
X11755000Y-36450000D03*
X11755000Y-35500000D03*
X11755000Y-34550000D03*
%TD*%
D11*
%TO.C,C22*%
X11400000Y-21450000D03*
X11400000Y-19550000D03*
%TD*%
D33*
%TO.C,U13*%
X22800000Y-4100000D03*
X23200000Y-4100000D03*
X22800000Y-4500000D03*
X23200000Y-4500000D03*
X22800000Y-4900000D03*
X23200000Y-4900000D03*
%TD*%
D10*
%TO.C,U9*%
X25862500Y-32050000D03*
X25862500Y-33000000D03*
X25862500Y-33950000D03*
X28137500Y-33950000D03*
X28137500Y-33000000D03*
X28137500Y-32050000D03*
%TD*%
D34*
%TO.C,C35*%
X23775000Y-26500000D03*
X22225000Y-26500000D03*
%TD*%
D35*
%TO.C,C40*%
X34700000Y-22500000D03*
X32800000Y-22500000D03*
%TD*%
D12*
%TO.C,R4*%
X28175000Y-10250000D03*
X29825000Y-10250000D03*
%TD*%
D27*
%TO.C,R63*%
X46500000Y-30825000D03*
X46500000Y-29175000D03*
%TD*%
D11*
%TO.C,C4*%
X24500000Y-9450000D03*
X24500000Y-7550000D03*
%TD*%
D27*
%TO.C,R62*%
X37250000Y-32825000D03*
X37250000Y-31175000D03*
%TD*%
D29*
%TO.C,L1*%
X6815000Y-18250000D03*
X9185000Y-18250000D03*
%TD*%
D11*
%TO.C,C42*%
X41400000Y-21450000D03*
X41400000Y-19550000D03*
%TD*%
D25*
%TO.C,C52*%
X26225000Y-37750000D03*
X27775000Y-37750000D03*
%TD*%
D12*
%TO.C,R66*%
X35675000Y-29500000D03*
X37325000Y-29500000D03*
%TD*%
D27*
%TO.C,R51*%
X31250000Y-36825000D03*
X31250000Y-35175000D03*
%TD*%
D30*
%TO.C,C54*%
X29500000Y-37275000D03*
X29500000Y-35725000D03*
%TD*%
D35*
%TO.C,C41*%
X34700000Y-20000000D03*
X32800000Y-20000000D03*
%TD*%
D36*
%TO.C,U4*%
X35050000Y-10250000D03*
X35050000Y-10750000D03*
X35050000Y-11250000D03*
X35050000Y-11750000D03*
X36950000Y-11750000D03*
X36950000Y-11250000D03*
X36950000Y-10750000D03*
X36950000Y-10250000D03*
D37*
X36000000Y-11000000D03*
%TD*%
D27*
%TO.C,R75*%
X36750000Y-3825000D03*
X36750000Y-2175000D03*
%TD*%
D11*
%TO.C,C5*%
X31500000Y-7950000D03*
X31500000Y-6050000D03*
%TD*%
D20*
%TO.C,Q3*%
X14245000Y-34550000D03*
X14245000Y-35500000D03*
X14245000Y-36450000D03*
X16755000Y-36450000D03*
X16755000Y-35500000D03*
X16755000Y-34550000D03*
%TD*%
D13*
%TO.C,U5*%
X6240000Y-22000000D03*
D14*
X6525000Y-22000000D03*
D13*
X6240000Y-22500000D03*
D14*
X6525000Y-22500000D03*
D13*
X6240000Y-23000000D03*
D14*
X6525000Y-23000000D03*
D13*
X6240000Y-23500000D03*
D14*
X6525000Y-23500000D03*
D13*
X6240000Y-24000000D03*
D14*
X6525000Y-24000000D03*
X9475000Y-24000000D03*
D13*
X9760000Y-24000000D03*
D14*
X9475000Y-23500000D03*
D13*
X9760000Y-23500000D03*
D14*
X9475000Y-23000000D03*
D13*
X9760000Y-23000000D03*
D14*
X9475000Y-22500000D03*
D13*
X9760000Y-22500000D03*
D14*
X9475000Y-22000000D03*
D13*
X9760000Y-22000000D03*
D15*
X7400000Y-21575000D03*
D16*
X7400000Y-21575000D03*
D15*
X7400000Y-24425000D03*
D16*
X7400000Y-24425000D03*
D17*
X7565000Y-22440000D03*
X7565000Y-23560000D03*
D15*
X7800000Y-21575000D03*
D16*
X7800000Y-21575000D03*
D15*
X7800000Y-24425000D03*
D16*
X7800000Y-24425000D03*
D18*
X8000000Y-23000000D03*
D15*
X8200000Y-21575000D03*
D16*
X8200000Y-21575000D03*
D15*
X8200000Y-24425000D03*
D16*
X8200000Y-24425000D03*
D17*
X8435000Y-22440000D03*
X8435000Y-23560000D03*
D15*
X8600000Y-21575000D03*
D16*
X8600000Y-21575000D03*
D15*
X8600000Y-24425000D03*
D16*
X8600000Y-24425000D03*
%TD*%
D11*
%TO.C,C24*%
X15800000Y-21450000D03*
X15800000Y-19550000D03*
%TD*%
D10*
%TO.C,U8*%
X20862500Y-32050000D03*
X20862500Y-33000000D03*
X20862500Y-33950000D03*
X23137500Y-33950000D03*
X23137500Y-33000000D03*
X23137500Y-32050000D03*
%TD*%
D27*
%TO.C,R11*%
X36750000Y-8825000D03*
X36750000Y-7175000D03*
%TD*%
D10*
%TO.C,U2*%
X6862500Y-30550000D03*
X6862500Y-31500000D03*
X6862500Y-32450000D03*
X9137500Y-32450000D03*
X9137500Y-31500000D03*
X9137500Y-30550000D03*
%TD*%
D28*
%TO.C,H4*%
X47000000Y-47000000D03*
%TD*%
D26*
%TO.C,C38*%
X26500000Y-24225000D03*
X26500000Y-25775000D03*
%TD*%
D38*
%TO.C,C3*%
X28050000Y-3500000D03*
X29950000Y-3500000D03*
%TD*%
D39*
%TO.C,J1*%
X14890000Y-5945000D03*
X9110000Y-5945000D03*
D40*
X15200000Y-7085000D03*
D41*
X14400000Y-7085000D03*
D42*
X13250000Y-7085000D03*
X12250000Y-7085000D03*
X11750000Y-7085000D03*
X10750000Y-7085000D03*
D41*
X9600000Y-7085000D03*
D40*
X8800000Y-7085000D03*
X8800000Y-7085000D03*
D41*
X9600000Y-7085000D03*
D42*
X10250000Y-7085000D03*
X11250000Y-7085000D03*
X12750000Y-7085000D03*
X13750000Y-7085000D03*
D41*
X14400000Y-7085000D03*
D40*
X15200000Y-7085000D03*
D43*
X16320000Y-6445000D03*
D44*
X16320000Y-2265000D03*
D43*
X7680000Y-6445000D03*
D44*
X7680000Y-2265000D03*
%TD*%
D24*
%TO.C,R41*%
X45100000Y-24175000D03*
X45100000Y-25825000D03*
%TD*%
D27*
%TO.C,R73*%
X26000000Y-3825000D03*
X26000000Y-2175000D03*
%TD*%
D29*
%TO.C,L3*%
X36815000Y-18250000D03*
X39185000Y-18250000D03*
%TD*%
D13*
%TO.C,U6*%
X21240000Y-22000000D03*
D14*
X21525000Y-22000000D03*
D13*
X21240000Y-22500000D03*
D14*
X21525000Y-22500000D03*
D13*
X21240000Y-23000000D03*
D14*
X21525000Y-23000000D03*
D13*
X21240000Y-23500000D03*
D14*
X21525000Y-23500000D03*
D13*
X21240000Y-24000000D03*
D14*
X21525000Y-24000000D03*
X24475000Y-24000000D03*
D13*
X24760000Y-24000000D03*
D14*
X24475000Y-23500000D03*
D13*
X24760000Y-23500000D03*
D14*
X24475000Y-23000000D03*
D13*
X24760000Y-23000000D03*
D14*
X24475000Y-22500000D03*
D13*
X24760000Y-22500000D03*
D14*
X24475000Y-22000000D03*
D13*
X24760000Y-22000000D03*
D15*
X22400000Y-21575000D03*
D16*
X22400000Y-21575000D03*
D15*
X22400000Y-24425000D03*
D16*
X22400000Y-24425000D03*
D17*
X22565000Y-22440000D03*
X22565000Y-23560000D03*
D15*
X22800000Y-21575000D03*
D16*
X22800000Y-21575000D03*
D15*
X22800000Y-24425000D03*
D16*
X22800000Y-24425000D03*
D18*
X23000000Y-23000000D03*
D15*
X23200000Y-21575000D03*
D16*
X23200000Y-21575000D03*
D15*
X23200000Y-24425000D03*
D16*
X23200000Y-24425000D03*
D17*
X23435000Y-22440000D03*
X23435000Y-23560000D03*
D15*
X23600000Y-21575000D03*
D16*
X23600000Y-21575000D03*
D15*
X23600000Y-24425000D03*
D16*
X23600000Y-24425000D03*
%TD*%
D10*
%TO.C,U10*%
X30862500Y-31050000D03*
X30862500Y-32000000D03*
X30862500Y-32950000D03*
X33137500Y-32950000D03*
X33137500Y-32000000D03*
X33137500Y-31050000D03*
%TD*%
D12*
%TO.C,R43*%
X45675000Y-27500000D03*
X47325000Y-27500000D03*
%TD*%
D26*
%TO.C,C28*%
X11500000Y-24225000D03*
X11500000Y-25775000D03*
%TD*%
D35*
%TO.C,C21*%
X4700000Y-20000000D03*
X2800000Y-20000000D03*
%TD*%
%TO.C,C30*%
X19700000Y-22500000D03*
X17800000Y-22500000D03*
%TD*%
D12*
%TO.C,R8*%
X14425000Y-32750000D03*
X16075000Y-32750000D03*
%TD*%
D27*
%TO.C,R65*%
X46250000Y-35825000D03*
X46250000Y-34175000D03*
%TD*%
D35*
%TO.C,C20*%
X4700000Y-22500000D03*
X2800000Y-22500000D03*
%TD*%
D45*
%TO.C,D1*%
X3750000Y-13000000D03*
X3750000Y-9000000D03*
%TD*%
D11*
%TO.C,C8*%
X38750000Y-11200000D03*
X38750000Y-9300000D03*
%TD*%
%TO.C,C23*%
X13600000Y-21450000D03*
X13600000Y-19550000D03*
%TD*%
D46*
%TO.C,J2*%
X12480000Y-43050000D03*
D47*
X8520000Y-43050000D03*
%TD*%
D24*
%TO.C,R31*%
X30100000Y-24175000D03*
X30100000Y-25825000D03*
%TD*%
D28*
%TO.C,H2*%
X47000000Y-3000000D03*
%TD*%
D10*
%TO.C,U14*%
X18862500Y-6050000D03*
X18862500Y-7000000D03*
X18862500Y-7950000D03*
X21137500Y-7950000D03*
X21137500Y-6050000D03*
%TD*%
D34*
%TO.C,C45*%
X38775000Y-26500000D03*
X37225000Y-26500000D03*
%TD*%
D12*
%TO.C,R60*%
X44675000Y-32500000D03*
X46325000Y-32500000D03*
%TD*%
D48*
%TO.C,LED1*%
X34000000Y-7150000D03*
X34000000Y-4350000D03*
%TD*%
D25*
%TO.C,C2*%
X10225000Y-13500000D03*
X11775000Y-13500000D03*
%TD*%
D11*
%TO.C,C33*%
X28600000Y-21450000D03*
X28600000Y-19550000D03*
%TD*%
D30*
%TO.C,C70*%
X22500000Y-11275000D03*
X22500000Y-9725000D03*
%TD*%
D28*
%TO.C,H1*%
X3000000Y-3000000D03*
%TD*%
D49*
%TO.C,U1*%
X26562500Y-6250000D03*
X26562500Y-6750000D03*
X26562500Y-7250000D03*
X26562500Y-7750000D03*
D50*
X27250000Y-8437500D03*
X27750000Y-8437500D03*
X28250000Y-8437500D03*
X28750000Y-8437500D03*
D49*
X29437500Y-7750000D03*
X29437500Y-7250000D03*
X29437500Y-6750000D03*
X29437500Y-6250000D03*
D50*
X28750000Y-5562500D03*
X28250000Y-5562500D03*
X27750000Y-5562500D03*
X27250000Y-5562500D03*
D51*
X28000000Y-7000000D03*
%TD*%
D52*
%TO.C,U12*%
X39037500Y-29800000D03*
X39037500Y-30300000D03*
X39037500Y-30800000D03*
X39037500Y-31300000D03*
X39037500Y-31800000D03*
D53*
X40000000Y-32762500D03*
X40500000Y-32762500D03*
X41000000Y-32762500D03*
X41500000Y-32762500D03*
X42000000Y-32762500D03*
D52*
X42962500Y-31800000D03*
X42962500Y-31300000D03*
X42962500Y-30800000D03*
X42962500Y-30300000D03*
X42962500Y-29800000D03*
D53*
X42000000Y-28837500D03*
X41500000Y-28837500D03*
X41000000Y-28837500D03*
X40500000Y-28837500D03*
X40000000Y-28837500D03*
D54*
X41000000Y-30800000D03*
%TD*%
D27*
%TO.C,R40*%
X43300000Y-25825000D03*
X43300000Y-24175000D03*
%TD*%
%TO.C,R52*%
X22750000Y-37325000D03*
X22750000Y-35675000D03*
%TD*%
D25*
%TO.C,C6*%
X11225000Y-32750000D03*
X12775000Y-32750000D03*
%TD*%
%TO.C,C51*%
X26225000Y-36000000D03*
X27775000Y-36000000D03*
%TD*%
D30*
%TO.C,C1*%
X17500000Y-11275000D03*
X17500000Y-9725000D03*
%TD*%
D12*
%TO.C,R74*%
X33425000Y-2250000D03*
X35075000Y-2250000D03*
%TD*%
D55*
%TO.C,U3*%
X10275000Y-10800000D03*
X10275000Y-11200000D03*
D56*
X10400000Y-11825000D03*
X10800000Y-11825000D03*
X11200000Y-11825000D03*
X11600000Y-11825000D03*
D55*
X11725000Y-11200000D03*
X11725000Y-10800000D03*
D56*
X11600000Y-10175000D03*
X11200000Y-10175000D03*
X10800000Y-10175000D03*
X10400000Y-10175000D03*
%TD*%
D27*
%TO.C,R7*%
X31750000Y-4325000D03*
X31750000Y-2675000D03*
%TD*%
D12*
%TO.C,R3*%
X14175000Y-12750000D03*
X15825000Y-12750000D03*
%TD*%
%TO.C,R71*%
X18675000Y-4250000D03*
X20325000Y-4250000D03*
%TD*%
%TO.C,R50*%
X26175000Y-39500000D03*
X27825000Y-39500000D03*
%TD*%
D30*
%TO.C,C7*%
X33500000Y-10775000D03*
X33500000Y-9225000D03*
%TD*%
D11*
%TO.C,C34*%
X30800000Y-21450000D03*
X30800000Y-19550000D03*
%TD*%
D35*
%TO.C,C31*%
X19700000Y-20000000D03*
X17800000Y-20000000D03*
%TD*%
D12*
%TO.C,R13*%
X31425000Y-14250000D03*
X33075000Y-14250000D03*
%TD*%
%TO.C,R5*%
X28175000Y-12000000D03*
X29825000Y-12000000D03*
%TD*%
D30*
%TO.C,C53*%
X24500000Y-37275000D03*
X24500000Y-35725000D03*
%TD*%
D27*
%TO.C,R30*%
X28300000Y-25825000D03*
X28300000Y-24175000D03*
%TD*%
D57*
%TO.C,J3*%
X39250000Y-44525000D03*
D58*
X36750000Y-44525000D03*
X34250000Y-44525000D03*
X31750000Y-44525000D03*
%TD*%
D34*
%TO.C,C25*%
X8775000Y-26500000D03*
X7225000Y-26500000D03*
%TD*%
D12*
%TO.C,R10*%
X34675000Y-14250000D03*
X36325000Y-14250000D03*
%TD*%
D21*
%TO.C,LED2*%
X23350000Y-13500000D03*
X26150000Y-13500000D03*
%TD*%
M02*
