M48
; DRILL file KiCad 10.0.6 date 2026-09-12T03:45:02
; FORMAT={-:-/ absolute / metric / decimal}
; #@! TF.CreationDate,2026-09-12T03:45:02-05:00
; #@! TF.GenerationSoftware,Kicad,Pcbnew,10.0.6
; #@! TF.FileFunction,Plated,1,2,PTH
FMAT,2
METRIC
; #@! TA.AperFunction,Plated,PTH,ViaDrill
T1C0.300
; #@! TA.AperFunction,Plated,PTH,ViaDrill
T2C0.400
; #@! TA.AperFunction,Plated,PTH,ViaDrill
T3C0.500
; #@! TA.AperFunction,Plated,PTH,ComponentDrill
T4C0.750
; #@! TA.AperFunction,Plated,PTH,ComponentDrill
T5C0.800
; #@! TA.AperFunction,Plated,PTH,ComponentDrill
T6C0.900
; #@! TA.AperFunction,Plated,PTH,ComponentDrill
T7C0.950
; #@! TA.AperFunction,Plated,PTH,ComponentDrill
T8C1.000
; #@! TA.AperFunction,Plated,PTH,ComponentDrill
T9C1.050
; #@! TA.AperFunction,Plated,PTH,ComponentDrill
T10C1.100
%
G90
G05
T1
X11.447Y-28.893
X15.558Y-49.853
X15.767Y-62.897
X18.396Y-88.447
X22.837Y-51.825
X24.03Y-53.951
X24.119Y-51.104
X25.217Y-28.402
X27.78Y-24.874
X30.035Y-35.325
X30.769Y-31.084
X30.824Y-47.027
X31.465Y-57.951
X33.325Y-43.245
X36.986Y-24.961
X46.8Y-51.964
X52.937Y-31.373
X54.339Y-40.37
X56.5Y-44.393
X61.197Y-14.831
X62.66Y-18.219
X62.66Y-26.142
X64.275Y-52.761
X64.723Y-73.869
X65.149Y-49.881
X74.243Y-26.361
T2
X35.574Y-18.722
X38.4Y-74.8
X43.3Y-73.0
X44.4Y-71.9
X52.222Y-35.61
X63.06Y-38.618
X63.06Y-64.37
X81.6Y-70.2
T3
X37.005Y-40.756
T4
X17.0Y-100.55
X19.0Y-100.55
X37.0Y-100.55
X39.0Y-100.55
T5
X2.96Y-65.25
X3.92Y-77.0
X3.92Y-80.5
X3.92Y-84.0
X4.0Y-37.42
X4.0Y-47.58
X4.0Y-50.42
X4.0Y-60.58
X5.5Y-7.92
X5.5Y-18.08
X5.5Y-65.25
X6.5Y-20.92
X6.5Y-31.08
X7.73Y-39.45
X8.04Y-65.25
X8.96Y-8.25
X9.5Y-4.5
X10.0Y-19.92
X10.0Y-30.08
X10.27Y-39.45
X11.5Y-8.25
X13.5Y-4.5
X13.69Y-20.49
X13.69Y-23.03
X13.69Y-25.57
X13.69Y-28.11
X13.69Y-30.65
X13.69Y-33.19
X13.69Y-35.73
X13.69Y-38.27
X13.69Y-40.81
X13.69Y-43.35
X13.69Y-45.89
X13.69Y-48.43
X13.69Y-50.97
X13.69Y-53.51
X13.75Y-90.46
X13.75Y-93.0
X13.75Y-95.54
X14.04Y-8.25
X14.08Y-77.0
X14.08Y-80.5
X14.08Y-84.0
X17.0Y-75.92
X17.0Y-86.08
X17.5Y-16.5
X19.05Y-58.25
X19.05Y-60.75
X19.5Y-90.5
X19.92Y-86.5
X21.31Y-20.49
X21.31Y-23.03
X21.31Y-25.57
X21.31Y-28.11
X21.31Y-30.65
X21.31Y-33.19
X21.31Y-35.73
X21.31Y-38.27
X21.31Y-40.81
X21.31Y-43.35
X21.31Y-45.89
X21.31Y-48.43
X21.31Y-50.97
X21.31Y-53.51
X22.5Y-13.5
X22.5Y-69.5
X22.5Y-73.5
X26.0Y-9.92
X26.0Y-20.08
X26.5Y-69.5
X28.25Y-100.55
X28.5Y-53.5
X29.5Y-73.5
X29.73Y-11.45
X30.08Y-86.5
X30.75Y-100.55
X31.96Y-35.75
X32.0Y-42.92
X32.0Y-53.08
X32.27Y-11.45
X32.96Y-76.25
X34.5Y-35.75
X35.0Y-39.5
X35.5Y-43.5
X35.5Y-76.25
X36.0Y-13.92
X36.0Y-24.08
X36.75Y-50.45
X37.04Y-35.75
X38.04Y-76.25
X39.25Y-50.45
X39.92Y-32.5
X40.42Y-36.0
X44.0Y-59.42
X44.0Y-69.58
X44.19Y-43.19
X44.19Y-45.73
X44.19Y-48.27
X44.19Y-50.81
X44.5Y-39.5
X44.5Y-75.0
X48.0Y-53.92
X48.0Y-64.08
X48.5Y-39.5
X48.5Y-72.5
X50.08Y-32.5
X50.58Y-36.0
X51.5Y-53.92
X51.5Y-64.08
X51.55Y-90.75
X51.55Y-93.25
X51.81Y-43.19
X51.81Y-45.73
X51.81Y-48.27
X51.81Y-50.81
X54.0Y-33.0
X55.23Y-46.95
X55.5Y-76.5
X55.5Y-80.5
X56.0Y-37.0
X56.25Y-94.55
X57.77Y-46.95
X58.75Y-94.55
X58.92Y-23.0
X59.5Y-25.92
X59.5Y-36.08
X59.5Y-76.5
X60.0Y-9.92
X60.0Y-20.08
X61.5Y-43.0
X61.5Y-51.42
X61.5Y-61.58
X64.11Y-9.19
X64.11Y-16.81
X64.96Y-39.75
X65.0Y-26.42
X65.0Y-36.58
X65.45Y-98.25
X65.45Y-100.75
X66.5Y-52.0
X66.65Y-9.19
X66.65Y-16.81
X67.5Y-39.75
X68.42Y-93.5
X68.5Y-26.42
X68.5Y-36.58
X68.92Y-5.5
X69.08Y-23.0
X69.19Y-9.19
X69.19Y-16.81
X70.04Y-39.75
X70.92Y-89.0
X71.42Y-34.5
X71.73Y-9.19
X71.73Y-16.81
X72.0Y-66.5
X73.5Y-73.5
X74.0Y-19.92
X74.0Y-30.08
X74.27Y-9.19
X74.27Y-16.81
X76.81Y-9.19
X76.81Y-16.81
X76.92Y-63.0
X76.95Y-56.73
X76.95Y-59.27
X77.0Y-75.92
X77.0Y-86.08
X78.58Y-93.5
X79.08Y-5.5
X79.35Y-9.19
X79.35Y-16.81
X80.5Y-75.92
X80.5Y-86.08
X81.08Y-89.0
X81.5Y-91.92
X81.5Y-102.08
X81.58Y-34.5
X81.89Y-9.19
X81.89Y-16.81
X84.0Y-75.92
X84.0Y-86.08
X84.5Y-24.42
X84.5Y-34.58
X85.0Y-88.92
X85.0Y-99.08
X87.08Y-63.0
X88.0Y-24.42
X88.0Y-34.58
X88.0Y-65.92
X88.0Y-76.08
X88.5Y-78.92
X88.5Y-89.08
X91.5Y-17.42
X91.5Y-27.58
X91.5Y-56.42
X91.5Y-66.58
X92.0Y-69.42
X92.0Y-79.58
X92.0Y-82.42
X92.0Y-92.58
T6
X10.0Y-33.73
X10.0Y-36.27
X16.73Y-95.0
X17.725Y-8.0
X19.27Y-95.0
X20.265Y-8.0
X25.0Y-45.73
X25.0Y-48.27
X29.23Y-39.5
X31.77Y-39.5
X33.23Y-7.5
X35.77Y-7.5
X40.5Y-39.23
X40.5Y-41.77
X40.5Y-44.73
X40.5Y-47.27
X44.0Y-54.23
X44.0Y-56.77
X48.0Y-66.73
X48.0Y-69.27
X55.23Y-43.0
X55.5Y-61.23
X55.5Y-63.77
X57.77Y-43.0
X61.5Y-46.23
X61.5Y-48.77
X63.23Y-93.5
X63.5Y-87.73
X63.5Y-90.27
X65.77Y-93.5
X67.5Y-87.73
X67.5Y-90.27
X69.73Y-52.0
X72.27Y-52.0
X85.23Y-9.5
X87.77Y-9.5
T7
X53.25Y-100.525
X55.75Y-100.525
X58.25Y-100.525
X60.75Y-100.525
T8
X11.0Y-67.75
X11.0Y-72.25
X19.0Y-67.75
X19.0Y-72.25
X22.0Y-57.75
X22.0Y-62.25
X22.0Y-77.75
X22.0Y-82.25
X30.0Y-57.75
X30.0Y-62.25
X30.0Y-77.75
X30.0Y-82.25
X33.0Y-67.75
X33.0Y-72.25
X40.38Y-7.24
X40.38Y-9.78
X40.38Y-12.32
X40.38Y-14.86
X40.38Y-17.4
X40.38Y-19.94
X40.38Y-22.48
X40.38Y-25.02
X40.38Y-27.56
X41.0Y-67.75
X41.0Y-72.25
X44.0Y-79.25
X44.0Y-83.75
X52.0Y-79.25
X52.0Y-83.75
X55.0Y-67.75
X55.0Y-72.25
X55.62Y-7.24
X55.62Y-9.78
X55.62Y-12.32
X55.62Y-14.86
X55.62Y-17.4
X55.62Y-19.9
X55.62Y-22.48
X55.62Y-25.02
X55.62Y-27.56
X63.0Y-67.75
X63.0Y-72.25
X66.0Y-57.75
X66.0Y-62.25
X66.0Y-77.75
X66.0Y-82.25
X74.0Y-57.75
X74.0Y-62.25
X74.0Y-77.75
X74.0Y-82.25
X77.0Y-67.75
X77.0Y-72.25
X85.0Y-67.75
X85.0Y-72.25
T9
X26.0Y-24.61
X26.0Y-27.15
X26.0Y-29.69
X26.0Y-32.23
X26.0Y-34.77
X26.0Y-37.31
X26.0Y-39.85
X26.0Y-42.39
X75.5Y-39.3
X75.5Y-41.84
X75.5Y-44.38
X75.5Y-46.92
X75.5Y-49.46
X75.5Y-52.0
X80.0Y-23.19
X80.0Y-25.73
X80.0Y-28.27
X80.0Y-30.81
T10
X23.5Y-91.92
X23.5Y-102.08
X25.45Y-6.5
X27.99Y-6.5
X30.53Y-6.5
M30
