#VRML V2.0 utf8
# Project-owned nominal model; units 0.1 inch for KiCad.
Shape { appearance Appearance { material Material { diffuseColor 0.055 0.06 0.065 } } geometry IndexedFaceSet { solid FALSE coord Coordinate { point [ -0.500000 -5.600394 0.000000,
-0.500000 -5.600394 3.346457,
-0.500000 0.600394 0.000000,
-0.500000 0.600394 3.346457,
0.500000 -5.600394 0.000000,
0.500000 -5.600394 3.346457,
0.157480 -5.157480 3.346457,
-0.157480 -5.157480 3.346457,
-0.157480 -4.842520 3.346457,
0.157480 -4.842520 3.346457,
-0.157480 -4.157480 3.346457,
0.157480 -4.157480 3.346457,
-0.157480 -3.842520 3.346457,
0.157480 -3.842520 3.346457,
-0.157480 -3.157480 3.346457,
0.157480 -3.157480 3.346457,
0.157480 -2.157480 3.346457,
-0.157480 -2.842520 3.346457,
0.157480 -2.842520 3.346457,
-0.157480 -2.157480 3.346457,
-0.157480 -1.157480 3.346457,
-0.157480 -1.842520 3.346457,
0.157480 -1.842520 3.346457,
0.157480 -1.157480 3.346457,
0.157480 -0.157480 3.346457,
-0.157480 -0.842520 3.346457,
0.157480 -0.842520 3.346457,
-0.157480 -0.157480 3.346457,
-0.157480 0.157480 3.346457,
0.157480 0.157480 3.346457,
0.500000 0.600394 3.346457,
0.500000 0.600394 0.000000,
0.157480 -5.157480 2.952756,
-0.157480 -5.157480 2.952756,
0.157480 -4.842520 2.952756,
-0.157480 -4.842520 2.952756,
0.157480 -4.157480 2.952756,
-0.157480 -4.157480 2.952756,
0.157480 -3.842520 2.952756,
-0.157480 -3.842520 2.952756,
0.157480 -3.157480 2.952756,
-0.157480 -3.157480 2.952756,
0.157480 -2.842520 2.952756,
-0.157480 -2.842520 2.952756,
0.157480 -2.157480 2.952756,
-0.157480 -2.157480 2.952756,
0.157480 -1.842520 2.952756,
-0.157480 -1.842520 2.952756,
0.157480 -1.157480 2.952756,
-0.157480 -1.157480 2.952756,
0.157480 -0.842520 2.952756,
-0.157480 -0.842520 2.952756,
0.157480 -0.157480 2.952756,
-0.157480 -0.157480 2.952756,
0.157480 0.157480 2.952756,
-0.157480 0.157480 2.952756 ] } coordIndex [ 0 1 2 -1,
2 1 3 -1,
4 5 0 -1,
0 5 1 -1,
6 1 5 -1,
6 7 1 -1,
8 1 7 -1,
9 6 5 -1,
10 1 8 -1,
11 8 9 -1,
11 10 8 -1,
11 9 5 -1,
12 1 10 -1,
13 11 5 -1,
14 12 13 -1,
15 14 13 -1,
16 17 18 -1,
16 19 17 -1,
20 21 22 -1,
23 20 22 -1,
24 25 26 -1,
24 27 25 -1,
3 20 25 -1,
3 27 28 -1,
3 25 27 -1,
29 3 28 -1,
30 26 23 -1,
30 29 24 -1,
30 24 26 -1,
30 3 29 -1,
3 1 12 -1,
3 12 14 -1,
3 14 17 -1,
3 17 19 -1,
3 19 21 -1,
3 21 20 -1,
5 30 23 -1,
5 23 22 -1,
5 22 16 -1,
5 16 18 -1,
5 18 15 -1,
5 15 13 -1,
30 31 2 -1,
30 2 3 -1,
2 31 0 -1,
0 31 4 -1,
5 4 31 -1,
5 31 30 -1,
6 32 33 -1,
6 33 7 -1,
32 6 34 -1,
34 6 9 -1,
34 9 35 -1,
35 9 8 -1,
7 33 35 -1,
7 35 8 -1,
11 36 37 -1,
11 37 10 -1,
36 11 38 -1,
38 11 13 -1,
10 37 39 -1,
10 39 12 -1,
38 13 39 -1,
39 13 12 -1,
15 40 41 -1,
15 41 14 -1,
40 15 42 -1,
42 15 18 -1,
14 41 43 -1,
14 43 17 -1,
42 18 43 -1,
43 18 17 -1,
16 44 45 -1,
16 45 19 -1,
44 16 46 -1,
46 16 22 -1,
19 45 47 -1,
19 47 21 -1,
46 22 47 -1,
47 22 21 -1,
23 48 49 -1,
23 49 20 -1,
48 23 50 -1,
50 23 26 -1,
20 49 51 -1,
20 51 25 -1,
50 26 51 -1,
51 26 25 -1,
24 52 53 -1,
24 53 27 -1,
52 24 54 -1,
54 24 29 -1,
27 53 55 -1,
27 55 28 -1,
54 29 55 -1,
55 29 28 -1,
34 35 33 -1,
34 33 32 -1,
38 39 37 -1,
38 37 36 -1,
42 43 41 -1,
42 41 40 -1,
46 47 45 -1,
46 45 44 -1,
50 51 49 -1,
50 49 48 -1,
54 55 53 -1,
54 53 52 -1 ] } }
Shape { appearance Appearance { material Material { diffuseColor 0.7 0.72 0.74 } } geometry IndexedFaceSet { solid FALSE coord Coordinate { point [ -0.125984 -0.125984 -0.984252,
-0.125984 -0.125984 0.000000,
-0.125984 0.125984 -0.984252,
-0.125984 0.125984 0.000000,
0.125984 -0.125984 0.000000,
0.125984 -0.125984 -0.984252,
0.125984 0.125984 -0.984252,
0.125984 0.125984 0.000000 ] } coordIndex [ 0 1 2 -1,
2 1 3 -1,
4 5 6 -1,
4 6 7 -1,
5 4 0 -1,
0 4 1 -1,
7 6 2 -1,
7 2 3 -1,
2 6 0 -1,
0 6 5 -1,
7 3 1 -1,
7 1 4 -1 ] } }
Shape { appearance Appearance { material Material { diffuseColor 0.7 0.72 0.74 } } geometry IndexedFaceSet { solid FALSE coord Coordinate { point [ -0.125984 -1.125984 -0.984252,
-0.125984 -1.125984 0.000000,
-0.125984 -0.874016 -0.984252,
-0.125984 -0.874016 0.000000,
0.125984 -1.125984 0.000000,
0.125984 -1.125984 -0.984252,
0.125984 -0.874016 -0.984252,
0.125984 -0.874016 0.000000 ] } coordIndex [ 0 1 2 -1,
2 1 3 -1,
4 5 6 -1,
4 6 7 -1,
5 4 0 -1,
0 4 1 -1,
7 6 2 -1,
7 2 3 -1,
2 6 0 -1,
0 6 5 -1,
7 3 1 -1,
7 1 4 -1 ] } }
Shape { appearance Appearance { material Material { diffuseColor 0.7 0.72 0.74 } } geometry IndexedFaceSet { solid FALSE coord Coordinate { point [ -0.125984 -2.125984 -0.984252,
-0.125984 -2.125984 0.000000,
-0.125984 -1.874016 -0.984252,
-0.125984 -1.874016 0.000000,
0.125984 -2.125984 0.000000,
0.125984 -2.125984 -0.984252,
0.125984 -1.874016 -0.984252,
0.125984 -1.874016 0.000000 ] } coordIndex [ 0 1 2 -1,
2 1 3 -1,
4 5 6 -1,
4 6 7 -1,
5 4 0 -1,
0 4 1 -1,
7 6 2 -1,
7 2 3 -1,
2 6 0 -1,
0 6 5 -1,
7 3 1 -1,
7 1 4 -1 ] } }
Shape { appearance Appearance { material Material { diffuseColor 0.7 0.72 0.74 } } geometry IndexedFaceSet { solid FALSE coord Coordinate { point [ -0.125984 -3.125984 -0.984252,
-0.125984 -3.125984 0.000000,
-0.125984 -2.874016 -0.984252,
-0.125984 -2.874016 0.000000,
0.125984 -3.125984 0.000000,
0.125984 -3.125984 -0.984252,
0.125984 -2.874016 -0.984252,
0.125984 -2.874016 0.000000 ] } coordIndex [ 0 1 2 -1,
2 1 3 -1,
4 5 6 -1,
4 6 7 -1,
5 4 0 -1,
0 4 1 -1,
7 6 2 -1,
7 2 3 -1,
2 6 0 -1,
0 6 5 -1,
7 3 1 -1,
7 1 4 -1 ] } }
Shape { appearance Appearance { material Material { diffuseColor 0.7 0.72 0.74 } } geometry IndexedFaceSet { solid FALSE coord Coordinate { point [ -0.125984 -4.125984 -0.984252,
-0.125984 -4.125984 0.000000,
-0.125984 -3.874016 -0.984252,
-0.125984 -3.874016 0.000000,
0.125984 -4.125984 0.000000,
0.125984 -4.125984 -0.984252,
0.125984 -3.874016 -0.984252,
0.125984 -3.874016 0.000000 ] } coordIndex [ 0 1 2 -1,
2 1 3 -1,
4 5 6 -1,
4 6 7 -1,
5 4 0 -1,
0 4 1 -1,
7 6 2 -1,
7 2 3 -1,
2 6 0 -1,
0 6 5 -1,
7 3 1 -1,
7 1 4 -1 ] } }
Shape { appearance Appearance { material Material { diffuseColor 0.7 0.72 0.74 } } geometry IndexedFaceSet { solid FALSE coord Coordinate { point [ -0.125984 -5.125984 -0.984252,
-0.125984 -5.125984 0.000000,
-0.125984 -4.874016 -0.984252,
-0.125984 -4.874016 0.000000,
0.125984 -5.125984 0.000000,
0.125984 -5.125984 -0.984252,
0.125984 -4.874016 -0.984252,
0.125984 -4.874016 0.000000 ] } coordIndex [ 0 1 2 -1,
2 1 3 -1,
4 5 6 -1,
4 6 7 -1,
5 4 0 -1,
0 4 1 -1,
7 6 2 -1,
7 2 3 -1,
2 6 0 -1,
0 6 5 -1,
7 3 1 -1,
7 1 4 -1 ] } }
Shape { appearance Appearance { material Material { diffuseColor 0.055 0.06 0.065 } } geometry IndexedFaceSet { solid FALSE coord Coordinate { point [ -0.500000 -5.500000 3.346457,
-0.500000 -5.500000 4.346457,
-0.500000 0.500000 3.346457,
-0.500000 0.500000 4.346457,
0.500000 -5.500000 4.346457,
0.500000 -5.500000 3.346457,
0.500000 0.500000 3.346457,
0.500000 0.500000 4.346457 ] } coordIndex [ 0 1 2 -1,
2 1 3 -1,
4 5 6 -1,
4 6 7 -1,
5 4 0 -1,
0 4 1 -1,
7 6 2 -1,
7 2 3 -1,
2 6 0 -1,
0 6 5 -1,
7 3 1 -1,
7 1 4 -1 ] } }
Shape { appearance Appearance { material Material { diffuseColor 0.82 0.61 0.18 } } geometry IndexedFaceSet { solid FALSE coord Coordinate { point [ -0.125984 -0.125984 1.181102,
-0.125984 -0.125984 4.724409,
-0.125984 0.125984 1.181102,
-0.125984 0.125984 4.724409,
0.125984 -0.125984 4.724409,
0.125984 -0.125984 1.181102,
0.125984 0.125984 1.181102,
0.125984 0.125984 4.724409 ] } coordIndex [ 0 1 2 -1,
2 1 3 -1,
4 5 6 -1,
4 6 7 -1,
5 4 0 -1,
0 4 1 -1,
7 6 2 -1,
7 2 3 -1,
2 6 0 -1,
0 6 5 -1,
7 3 1 -1,
7 1 4 -1 ] } }
Shape { appearance Appearance { material Material { diffuseColor 0.82 0.61 0.18 } } geometry IndexedFaceSet { solid FALSE coord Coordinate { point [ -0.125984 -1.125984 1.181102,
-0.125984 -1.125984 4.724409,
-0.125984 -0.874016 1.181102,
-0.125984 -0.874016 4.724409,
0.125984 -1.125984 4.724409,
0.125984 -1.125984 1.181102,
0.125984 -0.874016 1.181102,
0.125984 -0.874016 4.724409 ] } coordIndex [ 0 1 2 -1,
2 1 3 -1,
4 5 6 -1,
4 6 7 -1,
5 4 0 -1,
0 4 1 -1,
7 6 2 -1,
7 2 3 -1,
2 6 0 -1,
0 6 5 -1,
7 3 1 -1,
7 1 4 -1 ] } }
Shape { appearance Appearance { material Material { diffuseColor 0.82 0.61 0.18 } } geometry IndexedFaceSet { solid FALSE coord Coordinate { point [ -0.125984 -2.125984 1.181102,
-0.125984 -2.125984 4.724409,
-0.125984 -1.874016 1.181102,
-0.125984 -1.874016 4.724409,
0.125984 -2.125984 4.724409,
0.125984 -2.125984 1.181102,
0.125984 -1.874016 1.181102,
0.125984 -1.874016 4.724409 ] } coordIndex [ 0 1 2 -1,
2 1 3 -1,
4 5 6 -1,
4 6 7 -1,
5 4 0 -1,
0 4 1 -1,
7 6 2 -1,
7 2 3 -1,
2 6 0 -1,
0 6 5 -1,
7 3 1 -1,
7 1 4 -1 ] } }
Shape { appearance Appearance { material Material { diffuseColor 0.82 0.61 0.18 } } geometry IndexedFaceSet { solid FALSE coord Coordinate { point [ -0.125984 -3.125984 1.181102,
-0.125984 -3.125984 4.724409,
-0.125984 -2.874016 1.181102,
-0.125984 -2.874016 4.724409,
0.125984 -3.125984 4.724409,
0.125984 -3.125984 1.181102,
0.125984 -2.874016 1.181102,
0.125984 -2.874016 4.724409 ] } coordIndex [ 0 1 2 -1,
2 1 3 -1,
4 5 6 -1,
4 6 7 -1,
5 4 0 -1,
0 4 1 -1,
7 6 2 -1,
7 2 3 -1,
2 6 0 -1,
0 6 5 -1,
7 3 1 -1,
7 1 4 -1 ] } }
Shape { appearance Appearance { material Material { diffuseColor 0.82 0.61 0.18 } } geometry IndexedFaceSet { solid FALSE coord Coordinate { point [ -0.125984 -4.125984 1.181102,
-0.125984 -4.125984 4.724409,
-0.125984 -3.874016 1.181102,
-0.125984 -3.874016 4.724409,
0.125984 -4.125984 4.724409,
0.125984 -4.125984 1.181102,
0.125984 -3.874016 1.181102,
0.125984 -3.874016 4.724409 ] } coordIndex [ 0 1 2 -1,
2 1 3 -1,
4 5 6 -1,
4 6 7 -1,
5 4 0 -1,
0 4 1 -1,
7 6 2 -1,
7 2 3 -1,
2 6 0 -1,
0 6 5 -1,
7 3 1 -1,
7 1 4 -1 ] } }
Shape { appearance Appearance { material Material { diffuseColor 0.82 0.61 0.18 } } geometry IndexedFaceSet { solid FALSE coord Coordinate { point [ -0.125984 -5.125984 1.181102,
-0.125984 -5.125984 4.724409,
-0.125984 -4.874016 1.181102,
-0.125984 -4.874016 4.724409,
0.125984 -5.125984 4.724409,
0.125984 -5.125984 1.181102,
0.125984 -4.874016 1.181102,
0.125984 -4.874016 4.724409 ] } coordIndex [ 0 1 2 -1,
2 1 3 -1,
4 5 6 -1,
4 6 7 -1,
5 4 0 -1,
0 4 1 -1,
7 6 2 -1,
7 2 3 -1,
2 6 0 -1,
0 6 5 -1,
7 3 1 -1,
7 1 4 -1 ] } }
Shape { appearance Appearance { material Material { diffuseColor 0.035 0.1 0.33 } } geometry IndexedFaceSet { solid FALSE coord Coordinate { point [ -0.590551 1.023622 4.346457,
-0.590551 -6.023622 4.346457,
-0.590551 1.023622 4.818898,
-0.590551 -6.023622 4.818898,
6.456693 -6.023622 4.346457,
6.456693 1.023622 4.346457,
6.456693 1.023622 4.818898,
6.456693 -6.023622 4.818898 ] } coordIndex [ 0 1 2 -1,
1 3 2 -1,
4 5 6 -1,
7 4 6 -1,
1 4 3 -1,
4 7 3 -1,
5 0 2 -1,
6 5 2 -1,
0 5 1 -1,
1 5 4 -1,
6 2 3 -1,
6 3 7 -1 ] } }
Shape { appearance Appearance { material Material { diffuseColor 0.7 0.72 0.74 } } geometry IndexedFaceSet { solid FALSE coord Coordinate { point [ 0.787402 -5.649606 4.818898,
0.787402 -5.649606 5.409449,
0.787402 0.059055 4.818898,
0.787402 0.059055 5.409449,
6.456693 -5.649606 4.818898,
6.456693 -5.649606 5.409449,
6.456693 0.059055 5.409449,
6.456693 0.059055 4.818898,
1.102362 -5.413386 4.818898,
1.102362 -0.177165 4.818898,
6.456693 -5.413386 4.818898,
6.456693 -0.177165 4.818898,
6.456693 -0.177165 5.251969,
6.456693 -5.413386 5.251969,
1.102362 -0.177165 5.251969,
1.102362 -5.413386 5.251969 ] } coordIndex [ 0 1 2 -1,
2 1 3 -1,
4 5 0 -1,
0 5 1 -1,
3 1 5 -1,
6 3 5 -1,
6 7 2 -1,
6 2 3 -1,
8 4 0 -1,
2 9 0 -1,
0 9 8 -1,
8 10 4 -1,
9 7 11 -1,
2 7 9 -1,
12 11 7 -1,
12 7 6 -1,
13 4 10 -1,
5 4 13 -1,
6 5 13 -1,
6 13 12 -1,
11 12 9 -1,
9 12 14 -1,
15 8 9 -1,
15 9 14 -1,
13 10 8 -1,
13 8 15 -1,
14 12 15 -1,
15 12 13 -1 ] } }
Shape { appearance Appearance { material Material { diffuseColor 0.055 0.06 0.065 } } geometry IndexedFaceSet { solid FALSE coord Coordinate { point [ 1.968504 -4.960630 4.818898,
1.968504 -4.960630 5.133858,
1.968504 -0.629921 4.818898,
1.968504 -0.629921 5.133858,
6.692913 -4.960630 5.133858,
6.692913 -4.960630 4.818898,
6.692913 -0.629921 4.818898,
6.692913 -0.629921 5.133858 ] } coordIndex [ 0 1 2 -1,
2 1 3 -1,
4 5 6 -1,
4 6 7 -1,
5 4 0 -1,
0 4 1 -1,
7 6 2 -1,
7 2 3 -1,
2 6 0 -1,
0 6 5 -1,
7 3 1 -1,
7 1 4 -1 ] } }
