#VRML V2.0 utf8
# Project-owned nominal model; units 0.1 inch for KiCad.
Shape { appearance Appearance { material Material { diffuseColor 0.055 0.06 0.065 } } geometry IndexedFaceSet { solid FALSE coord Coordinate { point [ -0.500000 -8.600394 0.000000,
-0.500000 -8.600394 3.346457,
-0.500000 0.600394 0.000000,
-0.500000 0.600394 3.346457,
0.500000 -8.600394 0.000000,
0.500000 -8.600394 3.346457,
0.157480 -8.157480 3.346457,
-0.157480 -8.157480 3.346457,
-0.157480 -7.842520 3.346457,
0.157480 -7.842520 3.346457,
-0.157480 -7.157480 3.346457,
0.157480 -7.157480 3.346457,
-0.157480 -6.842520 3.346457,
0.157480 -6.842520 3.346457,
0.157480 -6.157480 3.346457,
-0.157480 -6.157480 3.346457,
0.157480 -5.157480 3.346457,
-0.157480 -5.842520 3.346457,
0.157480 -5.842520 3.346457,
-0.157480 -5.157480 3.346457,
0.157480 -4.157480 3.346457,
-0.157480 -4.842520 3.346457,
0.157480 -4.842520 3.346457,
-0.157480 -4.157480 3.346457,
0.157480 -3.157480 3.346457,
-0.157480 -3.842520 3.346457,
0.157480 -3.842520 3.346457,
-0.157480 -3.157480 3.346457,
-0.157480 -2.157480 3.346457,
-0.157480 -2.842520 3.346457,
0.157480 -2.842520 3.346457,
0.157480 -2.157480 3.346457,
0.157480 -1.157480 3.346457,
-0.157480 -1.157480 3.346457,
-0.157480 -1.842520 3.346457,
0.157480 -1.842520 3.346457,
0.157480 -0.157480 3.346457,
-0.157480 -0.157480 3.346457,
-0.157480 -0.842520 3.346457,
0.157480 -0.842520 3.346457,
-0.157480 0.157480 3.346457,
0.157480 0.157480 3.346457,
0.500000 0.600394 3.346457,
0.500000 0.600394 0.000000,
0.157480 -8.157480 2.952756,
-0.157480 -8.157480 2.952756,
0.157480 -7.842520 2.952756,
-0.157480 -7.842520 2.952756,
0.157480 -7.157480 2.952756,
-0.157480 -7.157480 2.952756,
0.157480 -6.842520 2.952756,
-0.157480 -6.842520 2.952756,
0.157480 -6.157480 2.952756,
-0.157480 -6.157480 2.952756,
0.157480 -5.842520 2.952756,
-0.157480 -5.842520 2.952756,
0.157480 -5.157480 2.952756,
-0.157480 -5.157480 2.952756,
0.157480 -4.842520 2.952756,
-0.157480 -4.842520 2.952756,
0.157480 -4.157480 2.952756,
-0.157480 -4.157480 2.952756,
0.157480 -3.842520 2.952756,
-0.157480 -3.842520 2.952756,
0.157480 -3.157480 2.952756,
-0.157480 -3.157480 2.952756,
0.157480 -2.842520 2.952756,
-0.157480 -2.842520 2.952756,
0.157480 -2.157480 2.952756,
-0.157480 -2.157480 2.952756,
0.157480 -1.842520 2.952756,
-0.157480 -1.842520 2.952756,
0.157480 -1.157480 2.952756,
-0.157480 -1.157480 2.952756,
0.157480 -0.842520 2.952756,
-0.157480 -0.842520 2.952756,
0.157480 -0.157480 2.952756,
-0.157480 -0.157480 2.952756,
0.157480 0.157480 2.952756,
-0.157480 0.157480 2.952756 ] } coordIndex [ 0 1 2 -1,
2 1 3 -1,
4 5 0 -1,
0 5 1 -1,
6 1 5 -1,
6 7 1 -1,
8 1 7 -1,
9 6 5 -1,
10 1 8 -1,
11 8 9 -1,
11 10 8 -1,
11 9 5 -1,
12 1 10 -1,
13 11 5 -1,
14 12 13 -1,
14 15 12 -1,
16 17 18 -1,
16 19 17 -1,
20 21 22 -1,
20 23 21 -1,
24 25 26 -1,
24 27 25 -1,
28 29 30 -1,
31 28 30 -1,
32 33 34 -1,
32 34 35 -1,
36 37 38 -1,
36 38 39 -1,
3 34 33 -1,
3 38 37 -1,
3 33 38 -1,
3 37 40 -1,
41 3 40 -1,
42 36 39 -1,
42 3 41 -1,
42 39 32 -1,
42 41 36 -1,
42 32 35 -1,
3 1 12 -1,
3 12 15 -1,
3 15 17 -1,
3 17 19 -1,
3 19 21 -1,
3 21 23 -1,
3 23 25 -1,
3 25 27 -1,
3 27 29 -1,
3 29 28 -1,
3 28 34 -1,
5 42 35 -1,
5 35 31 -1,
5 31 30 -1,
5 30 24 -1,
5 24 26 -1,
5 26 20 -1,
5 20 22 -1,
5 22 16 -1,
5 16 18 -1,
5 18 14 -1,
5 14 13 -1,
42 43 2 -1,
42 2 3 -1,
2 43 0 -1,
0 43 4 -1,
5 4 43 -1,
5 43 42 -1,
6 44 45 -1,
6 45 7 -1,
44 6 46 -1,
46 6 9 -1,
46 9 47 -1,
47 9 8 -1,
7 45 47 -1,
7 47 8 -1,
11 48 49 -1,
11 49 10 -1,
48 11 50 -1,
50 11 13 -1,
10 49 51 -1,
10 51 12 -1,
50 13 51 -1,
51 13 12 -1,
14 52 53 -1,
14 53 15 -1,
52 14 54 -1,
54 14 18 -1,
15 53 55 -1,
15 55 17 -1,
54 18 55 -1,
55 18 17 -1,
16 56 57 -1,
16 57 19 -1,
56 16 58 -1,
58 16 22 -1,
19 57 59 -1,
19 59 21 -1,
58 22 59 -1,
59 22 21 -1,
20 60 61 -1,
20 61 23 -1,
60 20 62 -1,
62 20 26 -1,
23 61 63 -1,
23 63 25 -1,
62 26 63 -1,
63 26 25 -1,
24 64 65 -1,
24 65 27 -1,
64 24 66 -1,
66 24 30 -1,
27 65 67 -1,
27 67 29 -1,
66 30 67 -1,
67 30 29 -1,
31 68 69 -1,
31 69 28 -1,
68 31 70 -1,
70 31 35 -1,
28 69 71 -1,
28 71 34 -1,
70 35 71 -1,
71 35 34 -1,
32 72 73 -1,
32 73 33 -1,
72 32 74 -1,
74 32 39 -1,
33 73 75 -1,
33 75 38 -1,
74 39 75 -1,
75 39 38 -1,
36 76 77 -1,
36 77 37 -1,
76 36 78 -1,
78 36 41 -1,
37 77 79 -1,
37 79 40 -1,
78 41 79 -1,
79 41 40 -1,
46 47 45 -1,
46 45 44 -1,
50 51 49 -1,
50 49 48 -1,
54 55 53 -1,
54 53 52 -1,
58 59 57 -1,
58 57 56 -1,
62 63 61 -1,
62 61 60 -1,
66 67 65 -1,
66 65 64 -1,
70 71 69 -1,
70 69 68 -1,
74 75 73 -1,
74 73 72 -1,
78 79 77 -1,
78 77 76 -1 ] } }
Shape { appearance Appearance { material Material { diffuseColor 0.7 0.72 0.74 } } geometry IndexedFaceSet { solid FALSE coord Coordinate { point [ -0.125984 -0.125984 -0.984252,
-0.125984 -0.125984 0.000000,
-0.125984 0.125984 -0.984252,
-0.125984 0.125984 0.000000,
0.125984 -0.125984 0.000000,
0.125984 -0.125984 -0.984252,
0.125984 0.125984 -0.984252,
0.125984 0.125984 0.000000 ] } coordIndex [ 0 1 2 -1,
2 1 3 -1,
4 5 6 -1,
4 6 7 -1,
5 4 0 -1,
0 4 1 -1,
7 6 2 -1,
7 2 3 -1,
2 6 0 -1,
0 6 5 -1,
7 3 1 -1,
7 1 4 -1 ] } }
Shape { appearance Appearance { material Material { diffuseColor 0.7 0.72 0.74 } } geometry IndexedFaceSet { solid FALSE coord Coordinate { point [ -0.125984 -1.125984 -0.984252,
-0.125984 -1.125984 0.000000,
-0.125984 -0.874016 -0.984252,
-0.125984 -0.874016 0.000000,
0.125984 -1.125984 0.000000,
0.125984 -1.125984 -0.984252,
0.125984 -0.874016 -0.984252,
0.125984 -0.874016 0.000000 ] } coordIndex [ 0 1 2 -1,
2 1 3 -1,
4 5 6 -1,
4 6 7 -1,
5 4 0 -1,
0 4 1 -1,
7 6 2 -1,
7 2 3 -1,
2 6 0 -1,
0 6 5 -1,
7 3 1 -1,
7 1 4 -1 ] } }
Shape { appearance Appearance { material Material { diffuseColor 0.7 0.72 0.74 } } geometry IndexedFaceSet { solid FALSE coord Coordinate { point [ -0.125984 -2.125984 -0.984252,
-0.125984 -2.125984 0.000000,
-0.125984 -1.874016 -0.984252,
-0.125984 -1.874016 0.000000,
0.125984 -2.125984 0.000000,
0.125984 -2.125984 -0.984252,
0.125984 -1.874016 -0.984252,
0.125984 -1.874016 0.000000 ] } coordIndex [ 0 1 2 -1,
2 1 3 -1,
4 5 6 -1,
4 6 7 -1,
5 4 0 -1,
0 4 1 -1,
7 6 2 -1,
7 2 3 -1,
2 6 0 -1,
0 6 5 -1,
7 3 1 -1,
7 1 4 -1 ] } }
Shape { appearance Appearance { material Material { diffuseColor 0.7 0.72 0.74 } } geometry IndexedFaceSet { solid FALSE coord Coordinate { point [ -0.125984 -3.125984 -0.984252,
-0.125984 -3.125984 0.000000,
-0.125984 -2.874016 -0.984252,
-0.125984 -2.874016 0.000000,
0.125984 -3.125984 0.000000,
0.125984 -3.125984 -0.984252,
0.125984 -2.874016 -0.984252,
0.125984 -2.874016 0.000000 ] } coordIndex [ 0 1 2 -1,
2 1 3 -1,
4 5 6 -1,
4 6 7 -1,
5 4 0 -1,
0 4 1 -1,
7 6 2 -1,
7 2 3 -1,
2 6 0 -1,
0 6 5 -1,
7 3 1 -1,
7 1 4 -1 ] } }
Shape { appearance Appearance { material Material { diffuseColor 0.7 0.72 0.74 } } geometry IndexedFaceSet { solid FALSE coord Coordinate { point [ -0.125984 -4.125984 -0.984252,
-0.125984 -4.125984 0.000000,
-0.125984 -3.874016 -0.984252,
-0.125984 -3.874016 0.000000,
0.125984 -4.125984 0.000000,
0.125984 -4.125984 -0.984252,
0.125984 -3.874016 -0.984252,
0.125984 -3.874016 0.000000 ] } coordIndex [ 0 1 2 -1,
2 1 3 -1,
4 5 6 -1,
4 6 7 -1,
5 4 0 -1,
0 4 1 -1,
7 6 2 -1,
7 2 3 -1,
2 6 0 -1,
0 6 5 -1,
7 3 1 -1,
7 1 4 -1 ] } }
Shape { appearance Appearance { material Material { diffuseColor 0.7 0.72 0.74 } } geometry IndexedFaceSet { solid FALSE coord Coordinate { point [ -0.125984 -5.125984 -0.984252,
-0.125984 -5.125984 0.000000,
-0.125984 -4.874016 -0.984252,
-0.125984 -4.874016 0.000000,
0.125984 -5.125984 0.000000,
0.125984 -5.125984 -0.984252,
0.125984 -4.874016 -0.984252,
0.125984 -4.874016 0.000000 ] } coordIndex [ 0 1 2 -1,
2 1 3 -1,
4 5 6 -1,
4 6 7 -1,
5 4 0 -1,
0 4 1 -1,
7 6 2 -1,
7 2 3 -1,
2 6 0 -1,
0 6 5 -1,
7 3 1 -1,
7 1 4 -1 ] } }
Shape { appearance Appearance { material Material { diffuseColor 0.7 0.72 0.74 } } geometry IndexedFaceSet { solid FALSE coord Coordinate { point [ -0.125984 -6.125984 -0.984252,
-0.125984 -6.125984 0.000000,
-0.125984 -5.874016 -0.984252,
-0.125984 -5.874016 0.000000,
0.125984 -6.125984 0.000000,
0.125984 -6.125984 -0.984252,
0.125984 -5.874016 -0.984252,
0.125984 -5.874016 0.000000 ] } coordIndex [ 0 1 2 -1,
2 1 3 -1,
4 5 6 -1,
4 6 7 -1,
5 4 0 -1,
0 4 1 -1,
7 6 2 -1,
7 2 3 -1,
2 6 0 -1,
0 6 5 -1,
7 3 1 -1,
7 1 4 -1 ] } }
Shape { appearance Appearance { material Material { diffuseColor 0.7 0.72 0.74 } } geometry IndexedFaceSet { solid FALSE coord Coordinate { point [ -0.125984 -7.125984 -0.984252,
-0.125984 -7.125984 0.000000,
-0.125984 -6.874016 -0.984252,
-0.125984 -6.874016 0.000000,
0.125984 -7.125984 0.000000,
0.125984 -7.125984 -0.984252,
0.125984 -6.874016 -0.984252,
0.125984 -6.874016 0.000000 ] } coordIndex [ 0 1 2 -1,
2 1 3 -1,
4 5 6 -1,
4 6 7 -1,
5 4 0 -1,
0 4 1 -1,
7 6 2 -1,
7 2 3 -1,
2 6 0 -1,
0 6 5 -1,
7 3 1 -1,
7 1 4 -1 ] } }
Shape { appearance Appearance { material Material { diffuseColor 0.7 0.72 0.74 } } geometry IndexedFaceSet { solid FALSE coord Coordinate { point [ -0.125984 -8.125984 -0.984252,
-0.125984 -8.125984 0.000000,
-0.125984 -7.874016 -0.984252,
-0.125984 -7.874016 0.000000,
0.125984 -8.125984 0.000000,
0.125984 -8.125984 -0.984252,
0.125984 -7.874016 -0.984252,
0.125984 -7.874016 0.000000 ] } coordIndex [ 0 1 2 -1,
2 1 3 -1,
4 5 6 -1,
4 6 7 -1,
5 4 0 -1,
0 4 1 -1,
7 6 2 -1,
7 2 3 -1,
2 6 0 -1,
0 6 5 -1,
7 3 1 -1,
7 1 4 -1 ] } }
