%TF.GenerationSoftware,KiCad,Pcbnew,10.0.6*%
%TF.CreationDate,2026-09-09T22:40:34-05:00*%
%TF.ProjectId,KK_power_module,4b4b5f70-6f77-4657-925f-6d6f64756c65,0.2-LR1*%
%TF.SameCoordinates,Original*%
%TF.FileFunction,Soldermask,Bot*%
%TF.FilePolarity,Negative*%
%FSLAX46Y46*%
G04 Gerber Fmt 4.6, Leading zero omitted, Abs format (unit mm)*
G04 Created by KiCad (PCBNEW 10.0.6) date 2026-09-09 22:40:34*
%MOMM*%
%LPD*%
G01*
G04 APERTURE LIST*
G04 Aperture macros list*
%AMRoundRect*
0 Rectangle with rounded corners*
0 $1 Rounding radius*
0 $2 $3 $4 $5 $6 $7 $8 $9 X,Y pos of 4 corners*
0 Add a 4 corners polygon primitive as box body*
4,1,4,$2,$3,$4,$5,$6,$7,$8,$9,$2,$3,0*
0 Add four circle primitives for the rounded corners*
1,1,$1+$1,$2,$3*
1,1,$1+$1,$4,$5*
1,1,$1+$1,$6,$7*
1,1,$1+$1,$8,$9*
0 Add four rect primitives between the rounded corners*
20,1,$1+$1,$2,$3,$4,$5,0*
20,1,$1+$1,$4,$5,$6,$7,0*
20,1,$1+$1,$6,$7,$8,$9,0*
20,1,$1+$1,$8,$9,$2,$3,0*%
G04 Aperture macros list end*
%ADD10RoundRect,0.250000X0.350000X0.625000X-0.350000X0.625000X-0.350000X-0.625000X0.350000X-0.625000X0*%
%ADD11O,1.200000X1.750000*%
%ADD12R,1.700000X1.700000*%
%ADD13C,1.700000*%
%ADD14C,2.200000*%
%ADD15C,0.650000*%
%ADD16O,1.000000X2.100000*%
%ADD17O,1.000000X1.600000*%
%ADD18C,0.900000*%
%ADD19RoundRect,0.250000X-0.625000X0.350000X-0.625000X-0.350000X0.625000X-0.350000X0.625000X0.350000X0*%
%ADD20O,1.750000X1.200000*%
%ADD21C,0.350000*%
%ADD22O,0.600000X1.700000*%
%ADD23O,0.600000X1.200000*%
G04 APERTURE END LIST*
D10*
%TO.C,J3*%
X218730000Y-48810000D03*
D11*
X216730000Y-48810000D03*
%TD*%
D12*
%TO.C,J5*%
X201260000Y-45960000D03*
D13*
X203800000Y-45960000D03*
X206340000Y-45960000D03*
X208880000Y-45960000D03*
X211420000Y-45960000D03*
%TD*%
D14*
%TO.C,H2*%
X201830000Y-78710000D03*
%TD*%
D12*
%TO.C,J4*%
X204250000Y-68280000D03*
D13*
X201710000Y-68280000D03*
%TD*%
D15*
%TO.C,J1*%
X217090000Y-75545000D03*
X222870000Y-75545000D03*
D16*
X215660000Y-75045000D03*
D17*
X215660000Y-79225000D03*
D16*
X224300000Y-75045000D03*
D17*
X224300000Y-79225000D03*
%TD*%
D12*
%TO.C,JP1*%
X204230000Y-64670000D03*
D13*
X201690000Y-64670000D03*
%TD*%
D14*
%TO.C,H1*%
X225040000Y-45450000D03*
%TD*%
D18*
%TO.C,SW1*%
X206190000Y-78010000D03*
X212990000Y-78010000D03*
%TD*%
D19*
%TO.C,J2*%
X200380000Y-73020000D03*
D20*
X200380000Y-75020000D03*
%TD*%
D21*
X218730000Y-48810000D03*
X216730000Y-48810000D03*
X201260000Y-45960000D03*
X203800000Y-45960000D03*
X206340000Y-45960000D03*
X208880000Y-45960000D03*
X211420000Y-45960000D03*
X201830000Y-78710000D03*
X204250000Y-68280000D03*
X201710000Y-68280000D03*
X217090000Y-75545000D03*
X222870000Y-75545000D03*
D22*
X215660000Y-75045000D03*
D23*
X215660000Y-79225000D03*
D22*
X224300000Y-75045000D03*
D23*
X224300000Y-79225000D03*
D21*
X204230000Y-64670000D03*
X201690000Y-64670000D03*
X225040000Y-45450000D03*
X206190000Y-78010000D03*
X212990000Y-78010000D03*
X200380000Y-73020000D03*
X200380000Y-75020000D03*
M02*
