%TF.GenerationSoftware,KiCad,Pcbnew,10.0.6*%
%TF.CreationDate,2026-09-09T22:40:34-05:00*%
%TF.ProjectId,KK_power_module,4b4b5f70-6f77-4657-925f-6d6f64756c65,0.2-LR1*%
%TF.SameCoordinates,Original*%
%TF.FileFunction,Copper,L1,Top*%
%TF.FilePolarity,Positive*%
%FSLAX46Y46*%
G04 Gerber Fmt 4.6, Leading zero omitted, Abs format (unit mm)*
G04 Created by KiCad (PCBNEW 10.0.6) date 2026-09-09 22:40:34*
%MOMM*%
%LPD*%
G01*
G04 APERTURE LIST*
G04 Aperture macros list*
%AMRoundRect*
0 Rectangle with rounded corners*
0 $1 Rounding radius*
0 $2 $3 $4 $5 $6 $7 $8 $9 X,Y pos of 4 corners*
0 Add a 4 corners polygon primitive as box body*
4,1,4,$2,$3,$4,$5,$6,$7,$8,$9,$2,$3,0*
0 Add four circle primitives for the rounded corners*
1,1,$1+$1,$2,$3*
1,1,$1+$1,$4,$5*
1,1,$1+$1,$6,$7*
1,1,$1+$1,$8,$9*
0 Add four rect primitives between the rounded corners*
20,1,$1+$1,$2,$3,$4,$5,0*
20,1,$1+$1,$4,$5,$6,$7,0*
20,1,$1+$1,$6,$7,$8,$9,0*
20,1,$1+$1,$8,$9,$2,$3,0*%
G04 Aperture macros list end*
%TA.AperFunction,SMDPad,CuDef*%
%ADD10RoundRect,0.250000X-0.412500X-0.650000X0.412500X-0.650000X0.412500X0.650000X-0.412500X0.650000X0*%
%TD*%
%TA.AperFunction,ComponentPad*%
%ADD11RoundRect,0.250000X0.350000X0.625000X-0.350000X0.625000X-0.350000X-0.625000X0.350000X-0.625000X0*%
%TD*%
%TA.AperFunction,ComponentPad*%
%ADD12O,1.200000X1.750000*%
%TD*%
%TA.AperFunction,SMDPad,CuDef*%
%ADD13RoundRect,0.147500X-0.457500X-0.147500X0.457500X-0.147500X0.457500X0.147500X-0.457500X0.147500X0*%
%TD*%
%TA.AperFunction,SMDPad,CuDef*%
%ADD14RoundRect,0.250000X0.625000X-0.400000X0.625000X0.400000X-0.625000X0.400000X-0.625000X-0.400000X0*%
%TD*%
%TA.AperFunction,ComponentPad*%
%ADD15R,1.700000X1.700000*%
%TD*%
%TA.AperFunction,ComponentPad*%
%ADD16C,1.700000*%
%TD*%
%TA.AperFunction,SMDPad,CuDef*%
%ADD17RoundRect,0.250000X1.500000X0.650000X-1.500000X0.650000X-1.500000X-0.650000X1.500000X-0.650000X0*%
%TD*%
%TA.AperFunction,SMDPad,CuDef*%
%ADD18RoundRect,0.250001X0.624999X-0.462499X0.624999X0.462499X-0.624999X0.462499X-0.624999X-0.462499X0*%
%TD*%
%TA.AperFunction,SMDPad,CuDef*%
%ADD19RoundRect,0.150000X-0.150000X-0.500000X0.150000X-0.500000X0.150000X0.500000X-0.150000X0.500000X0*%
%TD*%
%TA.AperFunction,SMDPad,CuDef*%
%ADD20RoundRect,0.075000X-0.075000X-0.575000X0.075000X-0.575000X0.075000X0.575000X-0.075000X0.575000X0*%
%TD*%
%TA.AperFunction,ComponentPad*%
%ADD21O,1.000000X2.100000*%
%TD*%
%TA.AperFunction,ComponentPad*%
%ADD22O,1.000000X1.600000*%
%TD*%
%TA.AperFunction,SMDPad,CuDef*%
%ADD23RoundRect,0.062500X-0.350000X-0.062500X0.350000X-0.062500X0.350000X0.062500X-0.350000X0.062500X0*%
%TD*%
%TA.AperFunction,SMDPad,CuDef*%
%ADD24RoundRect,0.062500X-0.062500X-0.350000X0.062500X-0.350000X0.062500X0.350000X-0.062500X0.350000X0*%
%TD*%
%TA.AperFunction,HeatsinkPad*%
%ADD25R,2.500000X2.500000*%
%TD*%
%TA.AperFunction,SMDPad,CuDef*%
%ADD26RoundRect,0.150000X-0.512500X-0.150000X0.512500X-0.150000X0.512500X0.150000X-0.512500X0.150000X0*%
%TD*%
%TA.AperFunction,SMDPad,CuDef*%
%ADD27RoundRect,0.250000X-0.375000X-1.000000X0.375000X-1.000000X0.375000X1.000000X-0.375000X1.000000X0*%
%TD*%
%TA.AperFunction,ComponentPad*%
%ADD28RoundRect,0.250000X-0.625000X0.350000X-0.625000X-0.350000X0.625000X-0.350000X0.625000X0.350000X0*%
%TD*%
%TA.AperFunction,ComponentPad*%
%ADD29O,1.750000X1.200000*%
%TD*%
%TA.AperFunction,ViaPad*%
%ADD30C,0.600000*%
%TD*%
%TA.AperFunction,ViaPad*%
%ADD31C,0.500000*%
%TD*%
%TA.AperFunction,Conductor*%
%ADD32C,0.200000*%
%TD*%
%ADD33C,0.300000*%
%ADD34C,0.350000*%
%ADD35O,0.600000X1.700000*%
%ADD36O,0.600000X1.200000*%
G04 APERTURE END LIST*
D10*
%TO.P,C3,1*%
%TO.N,/SYS*%
X209195000Y-64510000D03*
%TO.P,C3,2*%
%TO.N,GND*%
X212320000Y-64510000D03*
%TD*%
D11*
%TO.P,J3,1,Pin_1_1*%
%TO.N,/SYS_OUT*%
X218730000Y-48810000D03*
D12*
%TO.P,J3,2,Pin_2_2*%
%TO.N,GND*%
X216730000Y-48810000D03*
%TD*%
D13*
%TO.P,Q1,1*%
%TO.N,/BAT_NEG*%
X225045000Y-70090000D03*
%TO.P,Q1,2*%
%TO.N,/DRAIN_COMMON*%
X225045000Y-71040000D03*
%TO.P,Q1,3*%
%TO.N,GND*%
X225045000Y-71990000D03*
%TO.P,Q1,4*%
%TO.N,/OC*%
X227555000Y-71990000D03*
%TO.P,Q1,5*%
%TO.N,/DRAIN_COMMON*%
X227555000Y-71040000D03*
%TO.P,Q1,6*%
%TO.N,/OD*%
X227555000Y-70090000D03*
%TD*%
D14*
%TO.P,R12,1*%
%TO.N,Net-(U2-CS)*%
X225870000Y-54680000D03*
%TO.P,R12,2*%
%TO.N,GND*%
X225870000Y-51580000D03*
%TD*%
%TO.P,R10,1*%
%TO.N,Net-(JP1-B)*%
X219250000Y-54680000D03*
%TO.P,R10,2*%
%TO.N,GND*%
X219250000Y-51580000D03*
%TD*%
%TO.P,R8,1*%
%TO.N,/STAT1{slash}LBO*%
X225870000Y-60630000D03*
%TO.P,R8,2*%
%TO.N,Net-(LED2-K)*%
X225870000Y-57530000D03*
%TD*%
D15*
%TO.P,J5,1,Pin_1_1*%
%TO.N,/PG*%
X201260000Y-45960000D03*
D16*
%TO.P,J5,2,Pin_2_2*%
%TO.N,/STAT1{slash}LBO*%
X203800000Y-45960000D03*
%TO.P,J5,3,Pin_3_3*%
%TO.N,/STAT2*%
X206340000Y-45960000D03*
%TO.P,J5,4,Pin_4_4*%
%TO.N,GND*%
X208880000Y-45960000D03*
%TO.P,J5,5,Pin_5_5*%
%TO.N,/VBAT*%
X211420000Y-45960000D03*
%TD*%
D10*
%TO.P,C4,1*%
%TO.N,/BAT_NEG*%
X209195000Y-67860000D03*
%TO.P,C4,2*%
%TO.N,Net-(U2-VCC)*%
X212320000Y-67860000D03*
%TD*%
D15*
%TO.P,J4,1,Pin_1_1*%
%TO.N,/THERM*%
X204250000Y-68280000D03*
D16*
%TO.P,J4,2,Pin_2_2*%
%TO.N,GND*%
X201710000Y-68280000D03*
%TD*%
D14*
%TO.P,R3,1*%
%TO.N,Net-(U1-VPCC)*%
X222560000Y-66580000D03*
%TO.P,R3,2*%
%TO.N,/VBUS*%
X222560000Y-63480000D03*
%TD*%
%TO.P,R1,1*%
%TO.N,GND*%
X215940000Y-66580000D03*
%TO.P,R1,2*%
%TO.N,Net-(J1-CC2)*%
X215940000Y-63480000D03*
%TD*%
D10*
%TO.P,C2,1*%
%TO.N,/VBAT*%
X209195000Y-61160000D03*
%TO.P,C2,2*%
%TO.N,GND*%
X212320000Y-61160000D03*
%TD*%
%TO.P,C1,1*%
%TO.N,GND*%
X209195000Y-57810000D03*
%TO.P,C1,2*%
%TO.N,/VBUS*%
X212320000Y-57810000D03*
%TD*%
D14*
%TO.P,R5,1*%
%TO.N,Net-(U1-PROG1)*%
X215940000Y-60630000D03*
%TO.P,R5,2*%
%TO.N,GND*%
X215940000Y-57530000D03*
%TD*%
D17*
%TO.P,D1,1,K_1*%
%TO.N,/VBUS*%
X206320000Y-50300000D03*
%TO.P,D1,2,A_2*%
%TO.N,GND*%
X201320000Y-50300000D03*
%TD*%
D18*
%TO.P,LED2,1,K_1*%
%TO.N,Net-(LED2-K)*%
X218100000Y-71970000D03*
%TO.P,LED2,2,A_2*%
%TO.N,/VBUS*%
X218100000Y-68995000D03*
%TD*%
D14*
%TO.P,R4,1*%
%TO.N,Net-(U1-VPCC)*%
X225870000Y-66580000D03*
%TO.P,R4,2*%
%TO.N,GND*%
X225870000Y-63480000D03*
%TD*%
D18*
%TO.P,LED1,1,K_1*%
%TO.N,Net-(LED1-K)*%
X214710000Y-71970000D03*
%TO.P,LED1,2,A_2*%
%TO.N,/VBUS*%
X214710000Y-68995000D03*
%TD*%
D14*
%TO.P,R11,1*%
%TO.N,/VBAT*%
X222560000Y-54680000D03*
%TO.P,R11,2*%
%TO.N,Net-(U2-VCC)*%
X222560000Y-51580000D03*
%TD*%
%TO.P,R9,1*%
%TO.N,/STAT2*%
X215940000Y-54680000D03*
%TO.P,R9,2*%
%TO.N,Net-(LED3-K)*%
X215940000Y-51580000D03*
%TD*%
D19*
%TO.P,J1,A1,GND_A1*%
%TO.N,GND*%
X216780000Y-74405000D03*
%TO.P,J1,A4,VBUS_A4*%
%TO.N,/VBUS*%
X217580000Y-74405000D03*
D20*
%TO.P,J1,A5,CC1_A5*%
%TO.N,Net-(J1-CC1)*%
X218730000Y-74405000D03*
%TO.P,J1,A6,D+_A6*%
%TO.N,unconnected-(J1-D+-PadA6)*%
X219730000Y-74405000D03*
%TO.P,J1,A7,D-_A7*%
%TO.N,unconnected-(J1-D--PadA7)*%
X220230000Y-74405000D03*
%TO.P,J1,A8,SBU1_A8*%
%TO.N,unconnected-(J1-SBU1-PadA8)*%
X221230000Y-74405000D03*
D19*
%TO.P,J1,A9,VBUS_A9*%
%TO.N,/VBUS*%
X222380000Y-74405000D03*
%TO.P,J1,A12,GND_A12*%
%TO.N,GND*%
X223180000Y-74405000D03*
%TO.P,J1,B1,GND_B1*%
X223180000Y-74405000D03*
%TO.P,J1,B4,VBUS_B4*%
%TO.N,/VBUS*%
X222380000Y-74405000D03*
D20*
%TO.P,J1,B5,CC2_B5*%
%TO.N,Net-(J1-CC2)*%
X221730000Y-74405000D03*
%TO.P,J1,B6,D+_B6*%
%TO.N,unconnected-(J1-D+-PadB6)*%
X220730000Y-74405000D03*
%TO.P,J1,B7,D-_B7*%
%TO.N,unconnected-(J1-D--PadB7)*%
X219230000Y-74405000D03*
%TO.P,J1,B8,SBU2_B8*%
%TO.N,unconnected-(J1-SBU2-PadB8)*%
X218230000Y-74405000D03*
D19*
%TO.P,J1,B9,VBUS_B9*%
%TO.N,/VBUS*%
X217580000Y-74405000D03*
%TO.P,J1,B12,GND_B12*%
%TO.N,GND*%
X216780000Y-74405000D03*
D21*
%TO.P,J1,SH,SHIELD_SH*%
X215660000Y-75045000D03*
D22*
X215660000Y-79225000D03*
D21*
X224300000Y-75045000D03*
D22*
X224300000Y-79225000D03*
%TD*%
D14*
%TO.P,R6,1*%
%TO.N,Net-(U1-PROG3)*%
X219250000Y-60630000D03*
%TO.P,R6,2*%
%TO.N,GND*%
X219250000Y-57530000D03*
%TD*%
D15*
%TO.P,JP1,1,A_1*%
%TO.N,/THERM*%
X204230000Y-64670000D03*
D16*
%TO.P,JP1,2,B_2*%
%TO.N,Net-(JP1-B)*%
X201690000Y-64670000D03*
%TD*%
D23*
%TO.P,U1,1,OUT_1*%
%TO.N,/SYS*%
X203277500Y-56835000D03*
%TO.P,U1,2,VPCC_2*%
%TO.N,Net-(U1-VPCC)*%
X203277500Y-57335000D03*
%TO.P,U1,3,SEL_3*%
%TO.N,GND*%
X203277500Y-57835000D03*
%TO.P,U1,4,PROG2_4*%
%TO.N,/VBUS*%
X203277500Y-58335000D03*
%TO.P,U1,5,THERM_5*%
%TO.N,/THERM*%
X203277500Y-58835000D03*
D24*
%TO.P,U1,6,~{PG}_6*%
%TO.N,/PG*%
X204215000Y-59772500D03*
%TO.P,U1,7,STAT2_7*%
%TO.N,/STAT2*%
X204715000Y-59772500D03*
%TO.P,U1,8,STAT1/~{LBO}_8*%
%TO.N,/STAT1{slash}LBO*%
X205215000Y-59772500D03*
%TO.P,U1,9,~{TE}_9*%
%TO.N,GND*%
X205715000Y-59772500D03*
%TO.P,U1,10,V_{SS}_10*%
X206215000Y-59772500D03*
D23*
%TO.P,U1,11,V_{SS}_11*%
X207152500Y-58835000D03*
%TO.P,U1,12,PROG3_12*%
%TO.N,Net-(U1-PROG3)*%
X207152500Y-58335000D03*
%TO.P,U1,13,PROG1_13*%
%TO.N,Net-(U1-PROG1)*%
X207152500Y-57835000D03*
%TO.P,U1,14,V_{BAT}_14*%
%TO.N,/VBAT*%
X207152500Y-57335000D03*
%TO.P,U1,15,V_{BAT}_15*%
X207152500Y-56835000D03*
D24*
%TO.P,U1,16,V_{BAT_SENSE}_16*%
X206215000Y-55897500D03*
%TO.P,U1,17,CE_17*%
%TO.N,/VBUS*%
X205715000Y-55897500D03*
%TO.P,U1,18,IN_18*%
X205215000Y-55897500D03*
%TO.P,U1,19,IN_19*%
X204715000Y-55897500D03*
%TO.P,U1,20,OUT_20*%
%TO.N,/SYS*%
X204215000Y-55897500D03*
D25*
%TO.P,U1,21,V_{SS}_21*%
%TO.N,GND*%
X205215000Y-57835000D03*
%TD*%
D18*
%TO.P,LED3,1,K_1*%
%TO.N,Net-(LED3-K)*%
X221490000Y-71970000D03*
%TO.P,LED3,2,A_2*%
%TO.N,/VBUS*%
X221490000Y-68995000D03*
%TD*%
D14*
%TO.P,R2,1*%
%TO.N,GND*%
X219250000Y-66580000D03*
%TO.P,R2,2*%
%TO.N,Net-(J1-CC1)*%
X219250000Y-63480000D03*
%TD*%
D26*
%TO.P,U2,1,OD_1*%
%TO.N,/OD*%
X209675000Y-51660000D03*
%TO.P,U2,2,CS_2*%
%TO.N,Net-(U2-CS)*%
X209675000Y-52610000D03*
%TO.P,U2,3,OC_3*%
%TO.N,/OC*%
X209675000Y-53560000D03*
%TO.P,U2,4,TD_4*%
%TO.N,unconnected-(U2-TD-Pad4)*%
X211950000Y-53560000D03*
%TO.P,U2,5,VCC_5*%
%TO.N,Net-(U2-VCC)*%
X211950000Y-52610000D03*
%TO.P,U2,6,GND_6*%
%TO.N,/BAT_NEG*%
X211950000Y-51660000D03*
%TD*%
D27*
%TO.P,SW1,1,A_1*%
%TO.N,unconnected-(SW1-A-Pad1)*%
X207090000Y-75260000D03*
%TO.P,SW1,2,B_2*%
%TO.N,/SYS*%
X209590000Y-75260000D03*
%TO.P,SW1,3,C_3*%
%TO.N,/SYS_OUT*%
X212090000Y-75260000D03*
%TD*%
D14*
%TO.P,R7,1*%
%TO.N,/PG*%
X222560000Y-60630000D03*
%TO.P,R7,2*%
%TO.N,Net-(LED1-K)*%
X222560000Y-57530000D03*
%TD*%
D28*
%TO.P,J2,1,Pin_1_1*%
%TO.N,/VBAT*%
X200380000Y-73020000D03*
D29*
%TO.P,J2,2,Pin_2_2*%
%TO.N,/BAT_NEG*%
X200380000Y-75020000D03*
%TD*%
D30*
%TO.N,/SYS*%
X207449300Y-64767400D03*
X203505200Y-56125200D03*
%TO.N,GND*%
X215033000Y-64985000D03*
D31*
X209180000Y-57810000D03*
X208067000Y-48488000D03*
D30*
X210494000Y-58541000D03*
X211700000Y-64510000D03*
X204559000Y-57819000D03*
X211700000Y-61160000D03*
%TO.N,/SYS_OUT*%
X210954800Y-72399700D03*
%TO.N,/BAT_NEG*%
X223744200Y-69697400D03*
X219743400Y-68443700D03*
X212812300Y-49303500D03*
X212043700Y-69911300D03*
%TO.N,/OC*%
X227167500Y-75271200D03*
X211712300Y-55043200D03*
%TO.N,/OD*%
X220964300Y-63481100D03*
X208873600Y-62648600D03*
X208464300Y-51678100D03*
X223746700Y-68698900D03*
%TO.N,Net-(JP1-B)*%
X213562000Y-63051200D03*
X217367300Y-54679000D03*
%TO.N,/STAT1{slash}LBO*%
X224177600Y-57582600D03*
X206801600Y-60440300D03*
%TO.N,Net-(LED2-K)*%
X224377800Y-61082700D03*
X220908400Y-70681800D03*
%TO.N,/PG*%
X205585200Y-61920300D03*
X220113800Y-49389900D03*
X220993700Y-56403600D03*
%TO.N,/STAT2*%
X206335900Y-61272600D03*
%TO.N,/VBAT*%
X207609400Y-63143400D03*
X207717400Y-55276500D03*
%TO.N,Net-(U2-VCC)*%
X214605600Y-53708300D03*
X214023800Y-63785200D03*
X219920300Y-50230300D03*
%TO.N,Net-(U1-VPCC)*%
X227563000Y-66656700D03*
X202295200Y-56874300D03*
%TO.N,Net-(J1-CC2)*%
X219189700Y-64726000D03*
X219191300Y-78141100D03*
%TO.N,Net-(U1-PROG1)*%
X210397000Y-56763800D03*
X211273600Y-59068500D03*
%TO.N,Net-(LED1-K)*%
X218073800Y-70573800D03*
X221922600Y-58817400D03*
%TO.N,Net-(LED3-K)*%
X214586700Y-49469100D03*
X223921400Y-70730800D03*
%TO.N,Net-(J1-CC1)*%
X218404900Y-75931300D03*
X217030000Y-65031100D03*
%TD*%
%TO.N,/SYS*%
D32*
X208222100Y-64767400D02*
X207449300Y-64767400D01*
X208222100Y-73892100D02*
X209590000Y-75260000D01*
X208222100Y-64767400D02*
X208222100Y-73892100D01*
X203505200Y-56125200D02*
X203505200Y-56607300D01*
X203505200Y-56125200D02*
X203987300Y-56125200D01*
X208937600Y-64767400D02*
X208222100Y-64767400D01*
X209195000Y-64510000D02*
X208937600Y-64767400D01*
X203987300Y-56125200D02*
X204215000Y-55897500D01*
X203505200Y-56607300D02*
X203277500Y-56835000D01*
%TO.N,/SYS_OUT*%
X210954800Y-72399700D02*
X210954800Y-74124800D01*
X210954800Y-74124800D02*
X212090000Y-75260000D01*
%TO.N,/BAT_NEG*%
X213355700Y-68682400D02*
X213355700Y-68419500D01*
X211246300Y-69911300D02*
X209195000Y-67860000D01*
X213355700Y-68419500D02*
X213795400Y-67979800D01*
X219279500Y-67979800D02*
X219743400Y-68443700D01*
X212126800Y-69911300D02*
X213355700Y-68682400D01*
X212043700Y-69911300D02*
X212126800Y-69911300D01*
X211950000Y-50165800D02*
X212812300Y-49303500D01*
X212043700Y-69911300D02*
X211246300Y-69911300D01*
X211950000Y-51660000D02*
X211950000Y-50165800D01*
X224652400Y-69697400D02*
X223744200Y-69697400D01*
X225045000Y-70090000D02*
X224652400Y-69697400D01*
X213795400Y-67979800D02*
X219279500Y-67979800D01*
%TO.N,/DRAIN_COMMON*%
X227555000Y-71040000D02*
X225045000Y-71040000D01*
%TO.N,/OC*%
X227167500Y-75271200D02*
X227555000Y-74883700D01*
X209675000Y-53560000D02*
X211158200Y-55043200D01*
X227555000Y-74883700D02*
X227555000Y-71990000D01*
X211158200Y-55043200D02*
X211712300Y-55043200D01*
%TO.N,/OD*%
X220964300Y-63481100D02*
X220964300Y-63378700D01*
X220964300Y-63378700D02*
X220019800Y-62434200D01*
X209675000Y-51660000D02*
X208482400Y-51660000D01*
X208482400Y-51660000D02*
X208464300Y-51678100D01*
X209088000Y-62434200D02*
X208873600Y-62648600D01*
X220019800Y-62434200D02*
X209088000Y-62434200D01*
X227555000Y-70090000D02*
X226163900Y-68698900D01*
X226163900Y-68698900D02*
X223746700Y-68698900D01*
%TO.N,Net-(U2-CS)*%
X209675000Y-52610000D02*
X210112200Y-52610000D01*
X211508000Y-54426100D02*
X212324900Y-54426100D01*
X212324900Y-54426100D02*
X213542500Y-55643700D01*
X210112200Y-52610000D02*
X210812500Y-53310300D01*
X210812500Y-53730600D02*
X211508000Y-54426100D01*
X224906300Y-55643700D02*
X225870000Y-54680000D01*
X210812500Y-53310300D02*
X210812500Y-53730600D01*
X213542500Y-55643700D02*
X224906300Y-55643700D01*
%TO.N,Net-(JP1-B)*%
X205536300Y-65829200D02*
X207200000Y-64165500D01*
X213362900Y-63250300D02*
X213562000Y-63051200D01*
X207601800Y-64165500D02*
X208517000Y-63250300D01*
X219249000Y-54679000D02*
X219250000Y-54680000D01*
X207200000Y-64165500D02*
X207601800Y-64165500D01*
X217367300Y-54679000D02*
X219249000Y-54679000D01*
X202849200Y-65829200D02*
X205536300Y-65829200D01*
X201690000Y-64670000D02*
X202849200Y-65829200D01*
X208517000Y-63250300D02*
X213362900Y-63250300D01*
%TO.N,/STAT1{slash}LBO*%
X205538400Y-60533800D02*
X206708100Y-60533800D01*
X206708100Y-60533800D02*
X206801600Y-60440300D01*
X205215000Y-60210400D02*
X205538400Y-60533800D01*
X205215000Y-59772500D02*
X205215000Y-60210400D01*
X225870000Y-60630000D02*
X224177600Y-58937600D01*
X224177600Y-58937600D02*
X224177600Y-57582600D01*
%TO.N,Net-(LED2-K)*%
X227494100Y-60732900D02*
X227494100Y-59154100D01*
X227046200Y-61381000D02*
X227046200Y-61180800D01*
X227046200Y-61180800D02*
X227494100Y-60732900D01*
X219388200Y-70681800D02*
X218100000Y-71970000D01*
X227494100Y-59154100D02*
X225870000Y-57530000D01*
X226844500Y-61582700D02*
X224877800Y-61582700D01*
X220908400Y-70681800D02*
X219388200Y-70681800D01*
X224877800Y-61582700D02*
X224377800Y-61082700D01*
X227046200Y-61381000D02*
X226844500Y-61582700D01*
%TO.N,/PG*%
X222560000Y-60630000D02*
X220993700Y-59063700D01*
X204215000Y-59772500D02*
X204215000Y-60550100D01*
X203301400Y-44782400D02*
X216533600Y-44782400D01*
X201260000Y-45960000D02*
X202411700Y-45960000D01*
X220113800Y-48362600D02*
X220113800Y-49389900D01*
X220993700Y-59063700D02*
X220993700Y-56403600D01*
X202411700Y-45960000D02*
X202411700Y-45672100D01*
X202411700Y-45672100D02*
X203301400Y-44782400D01*
X204215000Y-60550100D02*
X205585200Y-61920300D01*
X216533600Y-44782400D02*
X220113800Y-48362600D01*
%TO.N,/STAT2*%
X212618000Y-48235200D02*
X208615200Y-48235200D01*
X215940000Y-54680000D02*
X215940000Y-54191800D01*
X204715000Y-59772500D02*
X204715000Y-60283400D01*
X215940000Y-54191800D02*
X213614000Y-51865800D01*
X208615200Y-48235200D02*
X206340000Y-45960000D01*
X213614000Y-51865800D02*
X213614000Y-49231200D01*
X204715000Y-60283400D02*
X205704200Y-61272600D01*
X213614000Y-49231200D02*
X212618000Y-48235200D01*
X205704200Y-61272600D02*
X206335900Y-61272600D01*
%TO.N,/VBAT*%
X211420000Y-45960000D02*
X212127300Y-45960000D01*
X217923100Y-51755800D02*
X217923100Y-52061900D01*
X212127300Y-45960000D02*
X217923100Y-51755800D01*
X209195000Y-61160000D02*
X207609400Y-62745600D01*
X206736400Y-56257500D02*
X207717400Y-55276500D01*
X217923100Y-52061900D02*
X218705000Y-52843800D01*
X206736400Y-56418900D02*
X206736400Y-56257500D01*
X207609400Y-62745600D02*
X207609400Y-63143400D01*
X207152500Y-57335000D02*
X207152500Y-56835000D01*
X207152500Y-56835000D02*
X206736400Y-56418900D01*
X206575000Y-56257500D02*
X206736400Y-56257500D01*
X218705000Y-52843800D02*
X220723800Y-52843800D01*
X206215000Y-55897500D02*
X206575000Y-56257500D01*
X220723800Y-52843800D02*
X222560000Y-54680000D01*
%TO.N,Net-(U2-VCC)*%
X213507300Y-52610000D02*
X214605600Y-53708300D01*
X211950000Y-52610000D02*
X213507300Y-52610000D01*
X219920300Y-50230300D02*
X221210300Y-50230300D01*
X214023800Y-66156200D02*
X214023800Y-63785200D01*
X221210300Y-50230300D02*
X222560000Y-51580000D01*
X212320000Y-67860000D02*
X214023800Y-66156200D01*
%TO.N,/THERM*%
X204230000Y-64670000D02*
X204230000Y-63518300D01*
X204230000Y-63518300D02*
X203277500Y-62565800D01*
X203277500Y-62565800D02*
X203277500Y-58835000D01*
%TO.N,Net-(U1-VPCC)*%
X225870000Y-66580000D02*
X222560000Y-66580000D01*
X203277500Y-57335000D02*
X202755900Y-57335000D01*
X227563000Y-66656700D02*
X225946700Y-66656700D01*
X202755900Y-57335000D02*
X202295200Y-56874300D01*
X225946700Y-66656700D02*
X225870000Y-66580000D01*
%TO.N,/VBUS*%
X218100000Y-68995000D02*
X214710000Y-68995000D01*
X221441900Y-73219100D02*
X221772000Y-73219100D01*
X219161300Y-58699300D02*
X213209300Y-58699300D01*
X212320000Y-57810000D02*
X207995100Y-53485100D01*
X213209300Y-58699300D02*
X212320000Y-57810000D01*
X217490000Y-73364500D02*
X214231700Y-73364500D01*
X222380000Y-73827100D02*
X222380000Y-74405000D01*
X217580000Y-74405000D02*
X217580000Y-73454500D01*
X222560000Y-63480000D02*
X220593500Y-61513500D01*
X206320000Y-53485100D02*
X205715000Y-54090100D01*
X205215000Y-55897500D02*
X205715000Y-55897500D01*
X205715000Y-54090100D02*
X205715000Y-55143300D01*
X222560000Y-63480000D02*
X221343700Y-64696300D01*
X207995100Y-53485100D02*
X206320000Y-53485100D01*
X205715000Y-55897500D02*
X205715000Y-55143300D01*
X205715000Y-55143300D02*
X203175400Y-55143300D01*
X221343700Y-64696300D02*
X221343700Y-68848700D01*
X220593500Y-61513500D02*
X220593500Y-60131500D01*
X201687300Y-56631400D02*
X201687300Y-57212400D01*
X202809900Y-58335000D02*
X203277500Y-58335000D01*
X218150400Y-69045400D02*
X221439600Y-69045400D01*
X214231700Y-73364500D02*
X213491800Y-72624600D01*
X221206500Y-73454500D02*
X221441900Y-73219100D01*
X221772000Y-73219100D02*
X222380000Y-73827100D01*
X213491800Y-70213200D02*
X214710000Y-68995000D01*
X213491800Y-72624600D02*
X213491800Y-70213200D01*
X203175400Y-55143300D02*
X201687300Y-56631400D01*
X205215000Y-55897500D02*
X204715000Y-55897500D01*
X220593500Y-60131500D02*
X219161300Y-58699300D01*
X217580000Y-73454500D02*
X217490000Y-73364500D01*
X218100000Y-68995000D02*
X218150400Y-69045400D01*
X221343700Y-68848700D02*
X221490000Y-68995000D01*
X206320000Y-50300000D02*
X206320000Y-53485100D01*
X217580000Y-73454500D02*
X221206500Y-73454500D01*
X221439600Y-69045400D02*
X221490000Y-68995000D01*
X201687300Y-57212400D02*
X202809900Y-58335000D01*
%TO.N,Net-(J1-CC2)*%
X221730000Y-75602400D02*
X219191300Y-78141100D01*
X217577400Y-64726000D02*
X216331400Y-63480000D01*
X221730000Y-74405000D02*
X221730000Y-75602400D01*
X216331400Y-63480000D02*
X215940000Y-63480000D01*
X219189700Y-64726000D02*
X217577400Y-64726000D01*
%TO.N,Net-(U1-PROG1)*%
X210025000Y-56608800D02*
X209372700Y-56608800D01*
X207990000Y-57560200D02*
X207789800Y-57760400D01*
X214411000Y-59101000D02*
X215940000Y-60630000D01*
X209372700Y-56608800D02*
X209105100Y-56341200D01*
X210180000Y-56763800D02*
X210025000Y-56608800D01*
X207990000Y-57099800D02*
X207990000Y-57560200D01*
X209105100Y-56341200D02*
X208748600Y-56341200D01*
X207227100Y-57760400D02*
X207152500Y-57835000D01*
X210397000Y-56763800D02*
X210180000Y-56763800D01*
X211306100Y-59101000D02*
X214411000Y-59101000D01*
X208748600Y-56341200D02*
X207990000Y-57099800D01*
X207789800Y-57760400D02*
X207227100Y-57760400D01*
X211273600Y-59068500D02*
X211306100Y-59101000D01*
%TO.N,Net-(LED1-K)*%
X216106200Y-70573800D02*
X214710000Y-71970000D01*
X221922600Y-58817400D02*
X222560000Y-58180000D01*
X222560000Y-58180000D02*
X222560000Y-57530000D01*
X218073800Y-70573800D02*
X216106200Y-70573800D01*
%TO.N,Net-(LED3-K)*%
X222682200Y-71970000D02*
X223921400Y-70730800D01*
X214586700Y-50226700D02*
X215940000Y-51580000D01*
X214586700Y-49469100D02*
X214586700Y-50226700D01*
X221490000Y-71970000D02*
X222682200Y-71970000D01*
%TO.N,Net-(J1-CC1)*%
X219898600Y-64128600D02*
X219250000Y-63480000D01*
X218730000Y-75606200D02*
X218404900Y-75931300D01*
X218730000Y-74405000D02*
X218730000Y-75606200D01*
X219898600Y-64867600D02*
X219898600Y-64128600D01*
X219205900Y-65560300D02*
X219898600Y-64867600D01*
X217559200Y-65560300D02*
X217030000Y-65031100D01*
X218922700Y-65560300D02*
X217559200Y-65560300D01*
X218922700Y-65560300D02*
X219205900Y-65560300D01*
%TO.N,Net-(U1-PROG3)*%
X207227100Y-58409600D02*
X207152500Y-58335000D01*
X212984600Y-59940700D02*
X209447100Y-59940700D01*
X207916000Y-58409600D02*
X207227100Y-58409600D01*
X209447100Y-59940700D02*
X207916000Y-58409600D01*
X219250000Y-60630000D02*
X218270300Y-61609700D01*
X214653600Y-61609700D02*
X212984600Y-59940700D01*
X218270300Y-61609700D02*
X214653600Y-61609700D01*
%TD*%
%TA.AperFunction,Conductor*%
%TO.N,GND*%
G36*
X224703032Y-42850648D02*
G01*
X225036929Y-42867052D01*
X225049037Y-42868245D01*
X225152146Y-42883539D01*
X225376699Y-42916849D01*
X225388617Y-42919219D01*
X225709951Y-42999709D01*
X225721588Y-43003240D01*
X225792806Y-43028722D01*
X226033467Y-43114832D01*
X226044688Y-43119479D01*
X226344163Y-43261120D01*
X226354871Y-43266844D01*
X226638988Y-43437137D01*
X226649106Y-43443897D01*
X226915170Y-43641224D01*
X226924576Y-43648944D01*
X227170013Y-43871395D01*
X227178604Y-43879986D01*
X227365755Y-44086475D01*
X227401055Y-44125423D01*
X227408775Y-44134829D01*
X227606102Y-44400893D01*
X227612862Y-44411011D01*
X227625382Y-44431900D01*
X227741776Y-44626092D01*
X227783148Y-44695116D01*
X227788883Y-44705844D01*
X227868430Y-44874033D01*
X227930514Y-45005297D01*
X227935170Y-45016540D01*
X228046759Y-45328411D01*
X228050292Y-45340055D01*
X228130777Y-45661369D01*
X228133151Y-45673305D01*
X228181754Y-46000962D01*
X228182947Y-46013071D01*
X228199350Y-46346946D01*
X228199499Y-46353070D01*
X228193289Y-66209142D01*
X228173583Y-66276175D01*
X228120765Y-66321913D01*
X228051604Y-66331835D01*
X227988057Y-66302791D01*
X227981608Y-66296784D01*
X227901017Y-66216193D01*
X227901011Y-66216188D01*
X227775488Y-66143717D01*
X227775489Y-66143717D01*
X227764006Y-66140640D01*
X227635475Y-66106200D01*
X227490525Y-66106200D01*
X227361993Y-66140640D01*
X227350511Y-66143717D01*
X227224988Y-66216188D01*
X227224982Y-66216193D01*
X227207180Y-66233996D01*
X227145857Y-66267481D01*
X227076165Y-66262497D01*
X227020232Y-66220625D01*
X226995815Y-66155161D01*
X226995499Y-66146315D01*
X226995499Y-66132129D01*
X226995498Y-66132123D01*
X226993084Y-66109669D01*
X226989091Y-66072517D01*
X226986313Y-66065070D01*
X226938797Y-65937671D01*
X226938793Y-65937664D01*
X226852547Y-65822455D01*
X226852544Y-65822452D01*
X226737335Y-65736206D01*
X226737328Y-65736202D01*
X226602482Y-65685908D01*
X226602483Y-65685908D01*
X226542883Y-65679501D01*
X226542881Y-65679500D01*
X226542873Y-65679500D01*
X226542864Y-65679500D01*
X225197129Y-65679500D01*
X225197123Y-65679501D01*
X225137516Y-65685908D01*
X225002671Y-65736202D01*
X225002664Y-65736206D01*
X224887455Y-65822452D01*
X224887452Y-65822455D01*
X224801206Y-65937664D01*
X224801202Y-65937671D01*
X224750910Y-66072513D01*
X224750909Y-66072517D01*
X224745937Y-66118757D01*
X224719201Y-66183306D01*
X224661809Y-66223154D01*
X224622649Y-66229500D01*
X223807351Y-66229500D01*
X223740312Y-66209815D01*
X223694557Y-66157011D01*
X223684061Y-66118752D01*
X223679091Y-66072516D01*
X223628797Y-65937671D01*
X223628793Y-65937664D01*
X223542547Y-65822455D01*
X223542544Y-65822452D01*
X223427335Y-65736206D01*
X223427328Y-65736202D01*
X223292482Y-65685908D01*
X223292483Y-65685908D01*
X223232883Y-65679501D01*
X223232881Y-65679500D01*
X223232873Y-65679500D01*
X223232864Y-65679500D01*
X221887129Y-65679500D01*
X221887120Y-65679501D01*
X221831452Y-65685485D01*
X221762693Y-65673077D01*
X221711557Y-65625466D01*
X221694200Y-65562195D01*
X221694200Y-64892843D01*
X221713885Y-64825804D01*
X221730515Y-64805166D01*
X222118863Y-64416817D01*
X222180186Y-64383333D01*
X222206544Y-64380499D01*
X223232871Y-64380499D01*
X223232872Y-64380499D01*
X223292483Y-64374091D01*
X223427331Y-64323796D01*
X223542546Y-64237546D01*
X223628796Y-64122331D01*
X223679091Y-63987483D01*
X223685500Y-63927873D01*
X223685500Y-63927844D01*
X224745000Y-63927844D01*
X224751401Y-63987372D01*
X224751403Y-63987379D01*
X224801645Y-64122086D01*
X224801649Y-64122093D01*
X224887809Y-64237187D01*
X224887812Y-64237190D01*
X225002906Y-64323350D01*
X225002913Y-64323354D01*
X225137620Y-64373596D01*
X225137627Y-64373598D01*
X225197155Y-64379999D01*
X225197172Y-64380000D01*
X225720000Y-64380000D01*
X226020000Y-64380000D01*
X226542828Y-64380000D01*
X226542844Y-64379999D01*
X226602372Y-64373598D01*
X226602379Y-64373596D01*
X226737086Y-64323354D01*
X226737093Y-64323350D01*
X226852187Y-64237190D01*
X226852190Y-64237187D01*
X226938350Y-64122093D01*
X226938354Y-64122086D01*
X226988596Y-63987379D01*
X226988598Y-63987372D01*
X226994999Y-63927844D01*
X226995000Y-63927827D01*
X226995000Y-63630000D01*
X226020000Y-63630000D01*
X226020000Y-64380000D01*
X225720000Y-64380000D01*
X225720000Y-63630000D01*
X224745000Y-63630000D01*
X224745000Y-63927844D01*
X223685500Y-63927844D01*
X223685499Y-63477593D01*
X223685499Y-63032155D01*
X224745000Y-63032155D01*
X224745000Y-63330000D01*
X225720000Y-63330000D01*
X226020000Y-63330000D01*
X226995000Y-63330000D01*
X226995000Y-63032172D01*
X226994999Y-63032155D01*
X226988598Y-62972627D01*
X226988596Y-62972620D01*
X226938354Y-62837913D01*
X226938350Y-62837906D01*
X226852190Y-62722812D01*
X226852187Y-62722809D01*
X226737093Y-62636649D01*
X226737086Y-62636645D01*
X226602379Y-62586403D01*
X226602372Y-62586401D01*
X226542844Y-62580000D01*
X226020000Y-62580000D01*
X226020000Y-63330000D01*
X225720000Y-63330000D01*
X225720000Y-62580000D01*
X225197155Y-62580000D01*
X225137627Y-62586401D01*
X225137620Y-62586403D01*
X225002913Y-62636645D01*
X225002906Y-62636649D01*
X224887812Y-62722809D01*
X224887809Y-62722812D01*
X224801649Y-62837906D01*
X224801645Y-62837913D01*
X224751403Y-62972620D01*
X224751401Y-62972627D01*
X224745000Y-63032155D01*
X223685499Y-63032155D01*
X223685499Y-63032129D01*
X223685498Y-63032123D01*
X223685497Y-63032116D01*
X223679091Y-62972517D01*
X223678089Y-62969831D01*
X223628797Y-62837671D01*
X223628793Y-62837664D01*
X223542547Y-62722455D01*
X223542544Y-62722452D01*
X223427335Y-62636206D01*
X223427328Y-62636202D01*
X223292482Y-62585908D01*
X223292483Y-62585908D01*
X223232883Y-62579501D01*
X223232881Y-62579500D01*
X223232873Y-62579500D01*
X223232865Y-62579500D01*
X222206544Y-62579500D01*
X222139505Y-62559815D01*
X222118863Y-62543181D01*
X220980319Y-61404637D01*
X220946834Y-61343314D01*
X220944000Y-61316956D01*
X220944000Y-60085358D01*
X220944000Y-60085356D01*
X220920114Y-59996212D01*
X220911754Y-59981733D01*
X220883562Y-59932902D01*
X220883558Y-59932896D01*
X220873970Y-59916287D01*
X220873968Y-59916285D01*
X219599363Y-58641681D01*
X219565878Y-58580358D01*
X219570862Y-58510666D01*
X219612734Y-58454733D01*
X219678198Y-58430316D01*
X219687044Y-58430000D01*
X219922828Y-58430000D01*
X219922844Y-58429999D01*
X219982372Y-58423598D01*
X219982379Y-58423596D01*
X220117086Y-58373354D01*
X220117093Y-58373350D01*
X220232187Y-58287190D01*
X220232190Y-58287187D01*
X220318350Y-58172093D01*
X220318354Y-58172086D01*
X220368596Y-58037379D01*
X220368598Y-58037372D01*
X220374999Y-57977844D01*
X220375000Y-57977827D01*
X220375000Y-57680000D01*
X218125000Y-57680000D01*
X218125000Y-57977844D01*
X218131401Y-58037372D01*
X218131403Y-58037379D01*
X218184746Y-58180399D01*
X218181512Y-58181604D01*
X218192830Y-58233661D01*
X218168405Y-58299123D01*
X218112466Y-58340987D01*
X218069147Y-58348800D01*
X217120853Y-58348800D01*
X217053814Y-58329115D01*
X217008059Y-58276311D01*
X216998115Y-58207153D01*
X217006822Y-58180984D01*
X217005254Y-58180399D01*
X217058596Y-58037379D01*
X217058598Y-58037372D01*
X217064999Y-57977844D01*
X217065000Y-57977827D01*
X217065000Y-57680000D01*
X214815000Y-57680000D01*
X214815000Y-57977844D01*
X214821401Y-58037372D01*
X214821403Y-58037379D01*
X214874746Y-58180399D01*
X214871512Y-58181604D01*
X214882830Y-58233661D01*
X214858405Y-58299123D01*
X214802466Y-58340987D01*
X214759147Y-58348800D01*
X213405844Y-58348800D01*
X213338805Y-58329115D01*
X213318163Y-58312481D01*
X213269318Y-58263636D01*
X213235833Y-58202313D01*
X213232999Y-58175955D01*
X213232999Y-57112129D01*
X213232998Y-57112118D01*
X213230847Y-57092102D01*
X213229778Y-57082155D01*
X214815000Y-57082155D01*
X214815000Y-57380000D01*
X215790000Y-57380000D01*
X216090000Y-57380000D01*
X217065000Y-57380000D01*
X217065000Y-57082172D01*
X217064999Y-57082155D01*
X218125000Y-57082155D01*
X218125000Y-57380000D01*
X219100000Y-57380000D01*
X219400000Y-57380000D01*
X220375000Y-57380000D01*
X220375000Y-57082172D01*
X220374999Y-57082155D01*
X220368598Y-57022627D01*
X220368596Y-57022620D01*
X220318354Y-56887913D01*
X220318350Y-56887906D01*
X220232190Y-56772812D01*
X220232187Y-56772809D01*
X220117093Y-56686649D01*
X220117086Y-56686645D01*
X219982379Y-56636403D01*
X219982372Y-56636401D01*
X219922844Y-56630000D01*
X219400000Y-56630000D01*
X219400000Y-57380000D01*
X219100000Y-57380000D01*
X219100000Y-56630000D01*
X218577155Y-56630000D01*
X218517627Y-56636401D01*
X218517620Y-56636403D01*
X218382913Y-56686645D01*
X218382906Y-56686649D01*
X218267812Y-56772809D01*
X218267809Y-56772812D01*
X218181649Y-56887906D01*
X218181645Y-56887913D01*
X218131403Y-57022620D01*
X218131401Y-57022627D01*
X218125000Y-57082155D01*
X217064999Y-57082155D01*
X217058598Y-57022627D01*
X217058596Y-57022620D01*
X217008354Y-56887913D01*
X217008350Y-56887906D01*
X216922190Y-56772812D01*
X216922187Y-56772809D01*
X216807093Y-56686649D01*
X216807086Y-56686645D01*
X216672379Y-56636403D01*
X216672372Y-56636401D01*
X216612844Y-56630000D01*
X216090000Y-56630000D01*
X216090000Y-57380000D01*
X215790000Y-57380000D01*
X215790000Y-56630000D01*
X215267155Y-56630000D01*
X215207627Y-56636401D01*
X215207620Y-56636403D01*
X215072913Y-56686645D01*
X215072906Y-56686649D01*
X214957812Y-56772809D01*
X214957809Y-56772812D01*
X214871649Y-56887906D01*
X214871645Y-56887913D01*
X214821403Y-57022620D01*
X214821401Y-57022627D01*
X214815000Y-57082155D01*
X213229778Y-57082155D01*
X213226591Y-57052516D01*
X213176297Y-56917671D01*
X213176293Y-56917664D01*
X213090047Y-56802455D01*
X213090044Y-56802452D01*
X212974835Y-56716206D01*
X212974828Y-56716202D01*
X212839982Y-56665908D01*
X212839983Y-56665908D01*
X212780383Y-56659501D01*
X212780381Y-56659500D01*
X212780373Y-56659500D01*
X212780364Y-56659500D01*
X211859629Y-56659500D01*
X211859623Y-56659501D01*
X211800018Y-56665908D01*
X211781138Y-56672950D01*
X211711446Y-56677931D01*
X211650128Y-56644447D01*
X209327862Y-54322180D01*
X209294377Y-54260857D01*
X209299361Y-54191165D01*
X209341233Y-54135232D01*
X209406697Y-54110815D01*
X209415528Y-54110499D01*
X209678455Y-54110499D01*
X209745494Y-54130184D01*
X209766136Y-54146818D01*
X210942988Y-55323670D01*
X211011511Y-55363231D01*
X211011513Y-55363233D01*
X211022908Y-55369812D01*
X211022909Y-55369812D01*
X211022912Y-55369814D01*
X211112056Y-55393700D01*
X211112057Y-55393700D01*
X211204344Y-55393700D01*
X211232914Y-55393700D01*
X211299953Y-55413385D01*
X211320595Y-55430019D01*
X211374285Y-55483709D01*
X211374286Y-55483710D01*
X211374288Y-55483711D01*
X211499811Y-55556182D01*
X211499812Y-55556182D01*
X211499815Y-55556184D01*
X211639825Y-55593700D01*
X211639828Y-55593700D01*
X211784772Y-55593700D01*
X211784775Y-55593700D01*
X211924785Y-55556184D01*
X212050315Y-55483709D01*
X212152809Y-55381215D01*
X212225284Y-55255685D01*
X212261311Y-55121231D01*
X212297674Y-55061574D01*
X212360521Y-55031045D01*
X212429896Y-55039340D01*
X212468765Y-55065647D01*
X212868355Y-55465236D01*
X213262031Y-55858912D01*
X213327288Y-55924169D01*
X213327291Y-55924170D01*
X213327294Y-55924173D01*
X213407206Y-55970311D01*
X213407207Y-55970311D01*
X213407212Y-55970314D01*
X213496356Y-55994200D01*
X220379630Y-55994200D01*
X220446669Y-56013885D01*
X220492424Y-56066689D01*
X220502368Y-56135847D01*
X220487018Y-56180199D01*
X220480717Y-56191112D01*
X220480716Y-56191114D01*
X220480716Y-56191115D01*
X220443200Y-56331125D01*
X220443200Y-56476075D01*
X220480716Y-56616085D01*
X220480717Y-56616088D01*
X220553188Y-56741611D01*
X220553193Y-56741617D01*
X220606881Y-56795305D01*
X220640366Y-56856628D01*
X220643200Y-56882986D01*
X220643200Y-59109844D01*
X220648726Y-59130466D01*
X220658756Y-59167900D01*
X220658756Y-59167901D01*
X220667084Y-59198985D01*
X220667085Y-59198986D01*
X220667086Y-59198988D01*
X220669619Y-59203375D01*
X220713227Y-59278908D01*
X220713231Y-59278913D01*
X221416051Y-59981733D01*
X221449536Y-60043056D01*
X221444554Y-60112740D01*
X221440910Y-60122510D01*
X221440908Y-60122517D01*
X221437690Y-60152454D01*
X221434501Y-60182123D01*
X221434500Y-60182135D01*
X221434500Y-61077870D01*
X221434501Y-61077876D01*
X221440908Y-61137483D01*
X221491202Y-61272328D01*
X221491206Y-61272335D01*
X221577452Y-61387544D01*
X221577455Y-61387547D01*
X221692664Y-61473793D01*
X221692671Y-61473797D01*
X221827517Y-61524091D01*
X221827516Y-61524091D01*
X221834444Y-61524835D01*
X221887127Y-61530500D01*
X223232872Y-61530499D01*
X223292483Y-61524091D01*
X223427331Y-61473796D01*
X223542546Y-61387546D01*
X223628796Y-61272331D01*
X223628797Y-61272326D01*
X223633047Y-61264546D01*
X223635435Y-61265850D01*
X223668889Y-61221158D01*
X223734352Y-61196737D01*
X223802625Y-61211586D01*
X223852033Y-61260989D01*
X223862977Y-61288322D01*
X223864816Y-61295185D01*
X223864817Y-61295188D01*
X223937288Y-61420711D01*
X223937290Y-61420713D01*
X223937291Y-61420715D01*
X224039785Y-61523209D01*
X224039786Y-61523210D01*
X224039788Y-61523211D01*
X224165311Y-61595682D01*
X224165312Y-61595682D01*
X224165315Y-61595684D01*
X224305325Y-61633200D01*
X224381256Y-61633200D01*
X224448295Y-61652885D01*
X224468937Y-61669519D01*
X224662588Y-61863170D01*
X224662589Y-61863171D01*
X224662591Y-61863172D01*
X224677915Y-61872019D01*
X224742512Y-61909314D01*
X224831656Y-61933200D01*
X224831658Y-61933200D01*
X226890642Y-61933200D01*
X226890644Y-61933200D01*
X226979788Y-61909314D01*
X227012946Y-61890170D01*
X227059712Y-61863170D01*
X227326670Y-61596212D01*
X227372814Y-61516288D01*
X227375233Y-61507258D01*
X227380445Y-61487811D01*
X227386394Y-61465605D01*
X227396700Y-61427144D01*
X227396700Y-61377343D01*
X227416385Y-61310304D01*
X227433019Y-61289662D01*
X227601165Y-61121516D01*
X227774569Y-60948112D01*
X227789587Y-60922100D01*
X227820712Y-60868192D01*
X227820712Y-60868191D01*
X227820714Y-60868188D01*
X227826870Y-60845212D01*
X227844600Y-60779044D01*
X227844600Y-59107956D01*
X227820714Y-59018812D01*
X227820711Y-59018806D01*
X227774573Y-58938894D01*
X227774570Y-58938891D01*
X227774569Y-58938888D01*
X227709312Y-58873631D01*
X227013947Y-58178266D01*
X226980462Y-58116943D01*
X226985445Y-58047256D01*
X226989091Y-58037483D01*
X226995500Y-57977873D01*
X226995499Y-57082128D01*
X226989091Y-57022517D01*
X226973142Y-56979756D01*
X226938797Y-56887671D01*
X226938793Y-56887664D01*
X226852547Y-56772455D01*
X226852544Y-56772452D01*
X226737335Y-56686206D01*
X226737328Y-56686202D01*
X226602482Y-56635908D01*
X226602483Y-56635908D01*
X226542883Y-56629501D01*
X226542881Y-56629500D01*
X226542873Y-56629500D01*
X226542864Y-56629500D01*
X225197129Y-56629500D01*
X225197123Y-56629501D01*
X225137516Y-56635908D01*
X225002671Y-56686202D01*
X225002664Y-56686206D01*
X224887455Y-56772452D01*
X224887452Y-56772455D01*
X224801206Y-56887664D01*
X224801202Y-56887671D01*
X224750908Y-57022516D01*
X224744164Y-57085246D01*
X224717426Y-57149796D01*
X224660033Y-57189644D01*
X224590207Y-57192137D01*
X224533194Y-57159670D01*
X224515617Y-57142093D01*
X224515611Y-57142088D01*
X224390088Y-57069617D01*
X224390089Y-57069617D01*
X224373317Y-57065123D01*
X224250075Y-57032100D01*
X224105125Y-57032100D01*
X223981883Y-57065123D01*
X223965111Y-57069617D01*
X223865507Y-57127124D01*
X223797607Y-57143597D01*
X223731580Y-57120744D01*
X223688389Y-57065823D01*
X223680217Y-57032991D01*
X223679858Y-57029652D01*
X223679091Y-57022517D01*
X223628887Y-56887913D01*
X223628797Y-56887671D01*
X223628793Y-56887664D01*
X223542547Y-56772455D01*
X223542544Y-56772452D01*
X223427335Y-56686206D01*
X223427328Y-56686202D01*
X223292482Y-56635908D01*
X223292483Y-56635908D01*
X223232883Y-56629501D01*
X223232881Y-56629500D01*
X223232873Y-56629500D01*
X223232864Y-56629500D01*
X221887129Y-56629500D01*
X221887123Y-56629501D01*
X221827515Y-56635909D01*
X221690517Y-56687005D01*
X221620826Y-56691989D01*
X221559503Y-56658503D01*
X221526018Y-56597180D01*
X221527410Y-56538732D01*
X221544200Y-56476075D01*
X221544200Y-56331125D01*
X221506684Y-56191115D01*
X221500382Y-56180199D01*
X221483910Y-56112299D01*
X221506763Y-56046272D01*
X221561685Y-56003082D01*
X221607770Y-55994200D01*
X224952442Y-55994200D01*
X224952444Y-55994200D01*
X225041588Y-55970314D01*
X225121512Y-55924170D01*
X225428863Y-55616817D01*
X225490186Y-55583333D01*
X225516544Y-55580499D01*
X226542871Y-55580499D01*
X226542872Y-55580499D01*
X226602483Y-55574091D01*
X226737331Y-55523796D01*
X226852546Y-55437546D01*
X226938796Y-55322331D01*
X226989091Y-55187483D01*
X226995500Y-55127873D01*
X226995499Y-54232128D01*
X226989091Y-54172517D01*
X226989088Y-54172510D01*
X226938797Y-54037671D01*
X226938793Y-54037664D01*
X226852547Y-53922455D01*
X226852544Y-53922452D01*
X226737335Y-53836206D01*
X226737328Y-53836202D01*
X226602482Y-53785908D01*
X226602483Y-53785908D01*
X226542883Y-53779501D01*
X226542881Y-53779500D01*
X226542873Y-53779500D01*
X226542864Y-53779500D01*
X225197129Y-53779500D01*
X225197123Y-53779501D01*
X225137516Y-53785908D01*
X225002671Y-53836202D01*
X225002664Y-53836206D01*
X224887455Y-53922452D01*
X224887452Y-53922455D01*
X224801206Y-54037664D01*
X224801202Y-54037671D01*
X224750908Y-54172517D01*
X224745594Y-54221951D01*
X224744501Y-54232123D01*
X224744500Y-54232135D01*
X224744500Y-55127870D01*
X224744501Y-55127874D01*
X224747519Y-55155946D01*
X224735112Y-55224705D01*
X224687502Y-55275842D01*
X224624229Y-55293200D01*
X223805771Y-55293200D01*
X223738732Y-55273515D01*
X223692977Y-55220711D01*
X223682482Y-55155945D01*
X223684230Y-55139684D01*
X223685500Y-55127873D01*
X223685499Y-54232128D01*
X223679091Y-54172517D01*
X223679088Y-54172510D01*
X223628797Y-54037671D01*
X223628793Y-54037664D01*
X223542547Y-53922455D01*
X223542544Y-53922452D01*
X223427335Y-53836206D01*
X223427328Y-53836202D01*
X223292482Y-53785908D01*
X223292483Y-53785908D01*
X223232883Y-53779501D01*
X223232881Y-53779500D01*
X223232873Y-53779500D01*
X223232865Y-53779500D01*
X222206544Y-53779500D01*
X222139505Y-53759815D01*
X222118863Y-53743181D01*
X220939013Y-52563331D01*
X220939008Y-52563327D01*
X220859090Y-52517187D01*
X220859089Y-52517186D01*
X220859088Y-52517186D01*
X220769944Y-52493300D01*
X220769943Y-52493300D01*
X220363047Y-52493300D01*
X220296008Y-52473615D01*
X220250253Y-52420811D01*
X220240309Y-52351653D01*
X220263780Y-52294989D01*
X220318352Y-52222088D01*
X220318354Y-52222086D01*
X220368596Y-52087379D01*
X220368598Y-52087372D01*
X220374999Y-52027844D01*
X220375000Y-52027827D01*
X220375000Y-51730000D01*
X219374000Y-51730000D01*
X219306961Y-51710315D01*
X219270191Y-51673822D01*
X219205308Y-51574511D01*
X219156961Y-51560315D01*
X219111206Y-51507511D01*
X219100000Y-51456000D01*
X219100000Y-50680000D01*
X218577155Y-50680000D01*
X218517627Y-50686401D01*
X218517620Y-50686403D01*
X218382913Y-50736645D01*
X218382906Y-50736649D01*
X218267812Y-50822809D01*
X218267809Y-50822812D01*
X218181649Y-50937906D01*
X218181645Y-50937913D01*
X218131403Y-51072620D01*
X218131401Y-51072627D01*
X218125000Y-51132155D01*
X218125000Y-51162656D01*
X218105315Y-51229695D01*
X218052511Y-51275450D01*
X217983353Y-51285394D01*
X217919797Y-51256369D01*
X217913319Y-51250337D01*
X212546002Y-45883020D01*
X212512517Y-45821697D01*
X212511210Y-45814736D01*
X212493403Y-45702303D01*
X212493402Y-45702302D01*
X212493402Y-45702299D01*
X212439873Y-45537555D01*
X212361232Y-45383212D01*
X212322414Y-45329784D01*
X212298935Y-45263980D01*
X212314760Y-45195926D01*
X212364865Y-45147231D01*
X212422733Y-45132900D01*
X216337056Y-45132900D01*
X216404095Y-45152585D01*
X216424737Y-45169219D01*
X218728337Y-47472819D01*
X218761822Y-47534142D01*
X218756838Y-47603834D01*
X218714966Y-47659767D01*
X218649502Y-47684184D01*
X218640656Y-47684500D01*
X218332130Y-47684500D01*
X218332123Y-47684501D01*
X218272516Y-47690908D01*
X218137671Y-47741202D01*
X218137664Y-47741206D01*
X218022455Y-47827452D01*
X218022452Y-47827455D01*
X217936206Y-47942664D01*
X217936202Y-47942671D01*
X217885908Y-48077517D01*
X217879501Y-48137116D01*
X217879500Y-48137135D01*
X217879500Y-49482870D01*
X217879501Y-49482876D01*
X217885908Y-49542483D01*
X217936202Y-49677328D01*
X217936206Y-49677335D01*
X218022452Y-49792544D01*
X218022455Y-49792547D01*
X218137664Y-49878793D01*
X218137671Y-49878797D01*
X218272517Y-49929091D01*
X218272516Y-49929091D01*
X218279444Y-49929835D01*
X218332127Y-49935500D01*
X219127872Y-49935499D01*
X219187483Y-49929091D01*
X219232778Y-49912196D01*
X219302469Y-49907213D01*
X219363792Y-49940698D01*
X219397277Y-50002021D01*
X219395886Y-50060471D01*
X219369800Y-50157825D01*
X219369800Y-50302775D01*
X219407316Y-50442785D01*
X219407317Y-50442788D01*
X219443890Y-50506134D01*
X219460363Y-50574034D01*
X219437510Y-50640061D01*
X219424185Y-50655815D01*
X219400000Y-50680000D01*
X219400000Y-51419082D01*
X219407133Y-51430000D01*
X220375000Y-51430000D01*
X220375000Y-51132172D01*
X220374999Y-51132155D01*
X220368598Y-51072627D01*
X220368596Y-51072620D01*
X220318354Y-50937913D01*
X220318350Y-50937906D01*
X220242691Y-50836839D01*
X220218273Y-50771375D01*
X220233124Y-50703102D01*
X220254277Y-50674846D01*
X220258312Y-50670810D01*
X220258315Y-50670809D01*
X220312006Y-50617118D01*
X220373329Y-50583634D01*
X220399686Y-50580800D01*
X221013756Y-50580800D01*
X221080795Y-50600485D01*
X221101437Y-50617119D01*
X221416051Y-50931733D01*
X221449536Y-50993056D01*
X221444554Y-51062740D01*
X221440910Y-51072510D01*
X221440908Y-51072517D01*
X221434501Y-51132116D01*
X221434501Y-51132123D01*
X221434500Y-51132135D01*
X221434500Y-52027870D01*
X221434501Y-52027876D01*
X221440908Y-52087483D01*
X221491202Y-52222328D01*
X221491206Y-52222335D01*
X221577452Y-52337544D01*
X221577455Y-52337547D01*
X221692664Y-52423793D01*
X221692671Y-52423797D01*
X221827517Y-52474091D01*
X221827516Y-52474091D01*
X221834444Y-52474835D01*
X221887127Y-52480500D01*
X223232872Y-52480499D01*
X223292483Y-52474091D01*
X223427331Y-52423796D01*
X223542546Y-52337546D01*
X223628796Y-52222331D01*
X223679091Y-52087483D01*
X223685500Y-52027873D01*
X223685500Y-52027844D01*
X224745000Y-52027844D01*
X224751401Y-52087372D01*
X224751403Y-52087379D01*
X224801645Y-52222086D01*
X224801649Y-52222093D01*
X224887809Y-52337187D01*
X224887812Y-52337190D01*
X225002906Y-52423350D01*
X225002913Y-52423354D01*
X225137620Y-52473596D01*
X225137627Y-52473598D01*
X225197155Y-52479999D01*
X225197172Y-52480000D01*
X225720000Y-52480000D01*
X226020000Y-52480000D01*
X226542828Y-52480000D01*
X226542844Y-52479999D01*
X226602372Y-52473598D01*
X226602379Y-52473596D01*
X226737086Y-52423354D01*
X226737093Y-52423350D01*
X226852187Y-52337190D01*
X226852190Y-52337187D01*
X226938350Y-52222093D01*
X226938354Y-52222086D01*
X226988596Y-52087379D01*
X226988598Y-52087372D01*
X226994999Y-52027844D01*
X226995000Y-52027827D01*
X226995000Y-51730000D01*
X226020000Y-51730000D01*
X226020000Y-52480000D01*
X225720000Y-52480000D01*
X225720000Y-51730000D01*
X224745000Y-51730000D01*
X224745000Y-52027844D01*
X223685500Y-52027844D01*
X223685499Y-51574511D01*
X223685499Y-51132155D01*
X224745000Y-51132155D01*
X224745000Y-51430000D01*
X225720000Y-51430000D01*
X226020000Y-51430000D01*
X226995000Y-51430000D01*
X226995000Y-51132172D01*
X226994999Y-51132155D01*
X226988598Y-51072627D01*
X226988596Y-51072620D01*
X226938354Y-50937913D01*
X226938350Y-50937906D01*
X226852190Y-50822812D01*
X226852187Y-50822809D01*
X226737093Y-50736649D01*
X226737086Y-50736645D01*
X226602379Y-50686403D01*
X226602372Y-50686401D01*
X226542844Y-50680000D01*
X226020000Y-50680000D01*
X226020000Y-51430000D01*
X225720000Y-51430000D01*
X225720000Y-50680000D01*
X225197155Y-50680000D01*
X225137627Y-50686401D01*
X225137620Y-50686403D01*
X225002913Y-50736645D01*
X225002906Y-50736649D01*
X224887812Y-50822809D01*
X224887809Y-50822812D01*
X224801649Y-50937906D01*
X224801645Y-50937913D01*
X224751403Y-51072620D01*
X224751401Y-51072627D01*
X224745000Y-51132155D01*
X223685499Y-51132155D01*
X223685499Y-51132129D01*
X223685498Y-51132123D01*
X223685497Y-51132116D01*
X223679091Y-51072517D01*
X223679088Y-51072510D01*
X223628797Y-50937671D01*
X223628793Y-50937664D01*
X223542547Y-50822455D01*
X223542544Y-50822452D01*
X223427335Y-50736206D01*
X223427328Y-50736202D01*
X223292482Y-50685908D01*
X223292483Y-50685908D01*
X223232883Y-50679501D01*
X223232881Y-50679500D01*
X223232873Y-50679500D01*
X223232865Y-50679500D01*
X222206544Y-50679500D01*
X222139505Y-50659815D01*
X222118863Y-50643181D01*
X221425513Y-49949831D01*
X221425508Y-49949827D01*
X221345591Y-49903687D01*
X221345587Y-49903685D01*
X221342592Y-49902883D01*
X221342592Y-49902882D01*
X221272209Y-49884024D01*
X221256444Y-49879800D01*
X221256443Y-49879800D01*
X220681393Y-49879800D01*
X220614354Y-49860115D01*
X220568599Y-49807311D01*
X220558655Y-49738153D01*
X220574006Y-49693800D01*
X220626782Y-49602388D01*
X220626781Y-49602388D01*
X220626784Y-49602385D01*
X220664300Y-49462375D01*
X220664300Y-49317425D01*
X220626784Y-49177415D01*
X220618706Y-49163424D01*
X220554311Y-49051888D01*
X220554306Y-49051882D01*
X220500619Y-48998195D01*
X220467134Y-48936872D01*
X220464300Y-48910514D01*
X220464300Y-48316458D01*
X220464300Y-48316456D01*
X220440414Y-48227312D01*
X220440411Y-48227306D01*
X220394273Y-48147394D01*
X220394270Y-48147391D01*
X220394269Y-48147388D01*
X220329012Y-48082131D01*
X219014127Y-46767246D01*
X217673404Y-45426522D01*
X217590595Y-45343713D01*
X223689500Y-45343713D01*
X223689500Y-45556286D01*
X223712626Y-45702302D01*
X223722754Y-45766243D01*
X223760697Y-45883020D01*
X223788444Y-45968414D01*
X223884951Y-46157820D01*
X224009890Y-46329786D01*
X224160213Y-46480109D01*
X224332179Y-46605048D01*
X224332181Y-46605049D01*
X224332184Y-46605051D01*
X224521588Y-46701557D01*
X224723757Y-46767246D01*
X224933713Y-46800500D01*
X224933714Y-46800500D01*
X225146286Y-46800500D01*
X225146287Y-46800500D01*
X225356243Y-46767246D01*
X225558412Y-46701557D01*
X225747816Y-46605051D01*
X225874556Y-46512970D01*
X225919786Y-46480109D01*
X225919788Y-46480106D01*
X225919792Y-46480104D01*
X226070104Y-46329792D01*
X226070106Y-46329788D01*
X226070109Y-46329786D01*
X226195048Y-46157820D01*
X226195047Y-46157820D01*
X226195051Y-46157816D01*
X226291557Y-45968412D01*
X226357246Y-45766243D01*
X226390500Y-45556287D01*
X226390500Y-45343713D01*
X226357246Y-45133757D01*
X226291557Y-44931588D01*
X226195051Y-44742184D01*
X226195049Y-44742181D01*
X226195048Y-44742179D01*
X226070109Y-44570213D01*
X225919786Y-44419890D01*
X225747820Y-44294951D01*
X225558414Y-44198444D01*
X225558413Y-44198443D01*
X225558412Y-44198443D01*
X225356243Y-44132754D01*
X225356241Y-44132753D01*
X225356240Y-44132753D01*
X225194957Y-44107208D01*
X225146287Y-44099500D01*
X224933713Y-44099500D01*
X224885042Y-44107208D01*
X224723760Y-44132753D01*
X224521585Y-44198444D01*
X224332179Y-44294951D01*
X224160213Y-44419890D01*
X224009890Y-44570213D01*
X223884951Y-44742179D01*
X223788444Y-44931585D01*
X223722753Y-45133760D01*
X223689500Y-45343713D01*
X217590595Y-45343713D01*
X216748813Y-44501931D01*
X216748808Y-44501927D01*
X216668890Y-44455787D01*
X216668889Y-44455786D01*
X216668888Y-44455786D01*
X216579744Y-44431900D01*
X203347544Y-44431900D01*
X203255256Y-44431900D01*
X203166112Y-44455786D01*
X203166109Y-44455787D01*
X203086191Y-44501927D01*
X203086186Y-44501931D01*
X202544524Y-45043593D01*
X202483201Y-45077078D01*
X202413509Y-45072094D01*
X202357576Y-45030222D01*
X202353025Y-45022231D01*
X202352751Y-45022415D01*
X202345966Y-45012260D01*
X202290601Y-44929399D01*
X202207740Y-44874034D01*
X202207739Y-44874033D01*
X202207735Y-44874032D01*
X202134677Y-44859500D01*
X202134674Y-44859500D01*
X200385326Y-44859500D01*
X200385323Y-44859500D01*
X200312264Y-44874032D01*
X200312260Y-44874033D01*
X200229399Y-44929399D01*
X200174033Y-45012260D01*
X200174032Y-45012264D01*
X200159500Y-45085321D01*
X200159500Y-46834678D01*
X200174032Y-46907735D01*
X200174033Y-46907739D01*
X200174034Y-46907740D01*
X200229399Y-46990601D01*
X200312260Y-47045966D01*
X200312264Y-47045967D01*
X200385321Y-47060499D01*
X200385324Y-47060500D01*
X200385326Y-47060500D01*
X202134676Y-47060500D01*
X202134677Y-47060499D01*
X202207740Y-47045966D01*
X202290601Y-46990601D01*
X202345966Y-46907740D01*
X202360500Y-46834674D01*
X202360500Y-46431731D01*
X202380185Y-46364692D01*
X202432989Y-46318937D01*
X202452407Y-46311956D01*
X202457841Y-46310500D01*
X202457844Y-46310500D01*
X202546988Y-46286614D01*
X202584468Y-46264974D01*
X202652365Y-46248500D01*
X202718393Y-46271350D01*
X202761585Y-46326270D01*
X202764394Y-46334026D01*
X202780127Y-46382445D01*
X202858768Y-46536788D01*
X202960586Y-46676928D01*
X203083072Y-46799414D01*
X203223212Y-46901232D01*
X203377555Y-46979873D01*
X203542299Y-47033402D01*
X203713389Y-47060500D01*
X203713390Y-47060500D01*
X203886610Y-47060500D01*
X203886611Y-47060500D01*
X204057701Y-47033402D01*
X204222445Y-46979873D01*
X204376788Y-46901232D01*
X204516928Y-46799414D01*
X204639414Y-46676928D01*
X204741232Y-46536788D01*
X204819873Y-46382445D01*
X204873402Y-46217701D01*
X204900500Y-46046611D01*
X204900500Y-45873389D01*
X204873402Y-45702299D01*
X204819873Y-45537555D01*
X204741232Y-45383212D01*
X204702414Y-45329784D01*
X204678935Y-45263980D01*
X204694760Y-45195926D01*
X204744865Y-45147231D01*
X204802733Y-45132900D01*
X205337267Y-45132900D01*
X205404306Y-45152585D01*
X205450061Y-45205389D01*
X205460005Y-45274547D01*
X205437585Y-45329784D01*
X205427466Y-45343713D01*
X205398768Y-45383211D01*
X205320128Y-45537552D01*
X205266597Y-45702302D01*
X205266597Y-45702303D01*
X205239500Y-45873389D01*
X205239500Y-46046611D01*
X205266598Y-46217701D01*
X205320127Y-46382445D01*
X205398768Y-46536788D01*
X205500586Y-46676928D01*
X205623072Y-46799414D01*
X205763212Y-46901232D01*
X205917555Y-46979873D01*
X206082299Y-47033402D01*
X206253389Y-47060500D01*
X206253390Y-47060500D01*
X206426610Y-47060500D01*
X206426611Y-47060500D01*
X206597701Y-47033402D01*
X206762445Y-46979873D01*
X206762447Y-46979871D01*
X206766971Y-46978402D01*
X206836812Y-46976407D01*
X206892970Y-47008652D01*
X208399988Y-48515670D01*
X208479912Y-48561814D01*
X208569056Y-48585700D01*
X208569057Y-48585700D01*
X208661344Y-48585700D01*
X212421456Y-48585700D01*
X212488495Y-48605385D01*
X212509137Y-48622019D01*
X212534882Y-48647764D01*
X212568367Y-48709087D01*
X212563383Y-48778779D01*
X212521511Y-48834712D01*
X212509206Y-48842828D01*
X212474285Y-48862991D01*
X212474282Y-48862993D01*
X212371793Y-48965482D01*
X212371788Y-48965488D01*
X212299317Y-49091011D01*
X212299316Y-49091015D01*
X212261800Y-49231025D01*
X212261800Y-49231027D01*
X212261800Y-49306956D01*
X212242115Y-49373995D01*
X212225481Y-49394637D01*
X211669531Y-49950586D01*
X211669525Y-49950594D01*
X211632291Y-50015087D01*
X211632291Y-50015088D01*
X211623387Y-50030509D01*
X211623386Y-50030512D01*
X211599500Y-50119656D01*
X211599500Y-50985500D01*
X211579815Y-51052539D01*
X211527011Y-51098294D01*
X211475502Y-51109500D01*
X211405983Y-51109500D01*
X211327050Y-51122001D01*
X211312196Y-51124354D01*
X211199158Y-51181950D01*
X211199157Y-51181951D01*
X211199152Y-51181954D01*
X211109454Y-51271652D01*
X211109451Y-51271657D01*
X211051852Y-51384698D01*
X211037000Y-51478475D01*
X211037000Y-51841517D01*
X211044772Y-51890585D01*
X211051854Y-51935304D01*
X211109450Y-52048342D01*
X211109453Y-52048345D01*
X211115189Y-52056241D01*
X211113834Y-52057224D01*
X211141911Y-52108642D01*
X211136927Y-52178334D01*
X211114487Y-52213249D01*
X211115189Y-52213759D01*
X211109451Y-52221657D01*
X211109450Y-52221658D01*
X211105913Y-52228600D01*
X211051852Y-52334698D01*
X211037000Y-52428475D01*
X211037000Y-52739756D01*
X211017315Y-52806795D01*
X210964511Y-52852550D01*
X210895353Y-52862494D01*
X210831797Y-52833469D01*
X210825319Y-52827437D01*
X210624318Y-52626436D01*
X210590833Y-52565113D01*
X210587999Y-52538755D01*
X210587999Y-52428482D01*
X210586784Y-52420811D01*
X210573146Y-52334696D01*
X210515550Y-52221658D01*
X210515545Y-52221653D01*
X210509811Y-52213759D01*
X210511165Y-52212774D01*
X210483090Y-52161368D01*
X210488069Y-52091676D01*
X210510513Y-52056751D01*
X210509811Y-52056241D01*
X210515542Y-52048349D01*
X210515550Y-52048342D01*
X210573146Y-51935304D01*
X210573146Y-51935302D01*
X210573147Y-51935301D01*
X210587999Y-51841524D01*
X210588000Y-51841519D01*
X210587999Y-51478482D01*
X210573146Y-51384696D01*
X210515550Y-51271658D01*
X210515546Y-51271654D01*
X210515545Y-51271652D01*
X210425847Y-51181954D01*
X210425844Y-51181952D01*
X210425842Y-51181950D01*
X210328148Y-51132172D01*
X210312801Y-51124352D01*
X210219024Y-51109500D01*
X209130982Y-51109500D01*
X209050019Y-51122323D01*
X209037196Y-51124354D01*
X208924158Y-51181950D01*
X208924157Y-51181951D01*
X208924152Y-51181954D01*
X208911565Y-51194542D01*
X208850242Y-51228027D01*
X208780550Y-51223043D01*
X208761887Y-51214250D01*
X208676785Y-51165116D01*
X208536775Y-51127600D01*
X208444371Y-51127600D01*
X208377332Y-51107915D01*
X208331577Y-51055111D01*
X208321352Y-51001194D01*
X208320500Y-51001194D01*
X208320499Y-49602129D01*
X208320498Y-49602123D01*
X208320497Y-49602116D01*
X208314091Y-49542517D01*
X208314078Y-49542483D01*
X208263797Y-49407671D01*
X208263793Y-49407664D01*
X208177547Y-49292455D01*
X208177544Y-49292452D01*
X208062335Y-49206206D01*
X208062328Y-49206202D01*
X207927482Y-49155908D01*
X207927483Y-49155908D01*
X207867883Y-49149501D01*
X207867881Y-49149500D01*
X207867873Y-49149500D01*
X207867864Y-49149500D01*
X204772129Y-49149500D01*
X204772123Y-49149501D01*
X204712516Y-49155908D01*
X204577671Y-49206202D01*
X204577664Y-49206206D01*
X204462455Y-49292452D01*
X204462452Y-49292455D01*
X204376206Y-49407664D01*
X204376202Y-49407671D01*
X204325908Y-49542517D01*
X204319501Y-49602116D01*
X204319501Y-49602123D01*
X204319500Y-49602135D01*
X204319500Y-50997870D01*
X204319501Y-50997876D01*
X204325908Y-51057483D01*
X204376202Y-51192328D01*
X204376206Y-51192335D01*
X204462452Y-51307544D01*
X204462455Y-51307547D01*
X204577664Y-51393793D01*
X204577671Y-51393797D01*
X204712517Y-51444091D01*
X204712516Y-51444091D01*
X204719444Y-51444835D01*
X204772127Y-51450500D01*
X205845500Y-51450499D01*
X205912539Y-51470183D01*
X205958294Y-51522987D01*
X205969500Y-51574499D01*
X205969500Y-53288556D01*
X205949815Y-53355595D01*
X205933181Y-53376237D01*
X205434531Y-53874886D01*
X205434529Y-53874888D01*
X205408032Y-53920785D01*
X205388732Y-53954213D01*
X205388386Y-53954812D01*
X205388385Y-53954814D01*
X205364500Y-54043956D01*
X205364500Y-54668800D01*
X205344815Y-54735839D01*
X205292011Y-54781594D01*
X205240500Y-54792800D01*
X203129256Y-54792800D01*
X203040112Y-54816686D01*
X203040109Y-54816687D01*
X202960191Y-54862827D01*
X202960186Y-54862831D01*
X201406831Y-56416186D01*
X201406830Y-56416188D01*
X201372255Y-56476075D01*
X201372017Y-56476487D01*
X201372015Y-56476490D01*
X201360686Y-56496110D01*
X201336800Y-56585256D01*
X201336800Y-57258545D01*
X201351875Y-57314808D01*
X201360684Y-57347683D01*
X201360687Y-57347690D01*
X201406827Y-57427608D01*
X201406831Y-57427613D01*
X202582956Y-58603738D01*
X202616441Y-58665061D01*
X202618214Y-58707602D01*
X202614501Y-58735805D01*
X202614500Y-58735827D01*
X202614500Y-58934180D01*
X202620500Y-58979756D01*
X202620502Y-58979763D01*
X202656910Y-59057840D01*
X202667150Y-59079799D01*
X202745201Y-59157850D01*
X202845240Y-59204499D01*
X202853838Y-59208508D01*
X202852355Y-59211687D01*
X202896516Y-59239917D01*
X202925695Y-59303402D01*
X202927000Y-59321346D01*
X202927000Y-62611944D01*
X202937385Y-62650702D01*
X202950884Y-62701085D01*
X202950885Y-62701086D01*
X202997027Y-62781008D01*
X202997029Y-62781011D01*
X202997030Y-62781012D01*
X203380067Y-63164049D01*
X203573838Y-63357819D01*
X203607323Y-63419142D01*
X203602339Y-63488833D01*
X203560468Y-63544767D01*
X203495003Y-63569184D01*
X203486157Y-63569500D01*
X203355323Y-63569500D01*
X203282264Y-63584032D01*
X203282260Y-63584033D01*
X203199399Y-63639399D01*
X203144033Y-63722260D01*
X203144032Y-63722264D01*
X203129500Y-63795321D01*
X203129500Y-65314457D01*
X203109815Y-65381496D01*
X203057011Y-65427251D01*
X202987853Y-65437195D01*
X202924297Y-65408170D01*
X202917819Y-65402138D01*
X202738651Y-65222970D01*
X202705166Y-65161647D01*
X202708401Y-65096970D01*
X202709868Y-65092454D01*
X202709873Y-65092445D01*
X202763402Y-64927701D01*
X202790500Y-64756611D01*
X202790500Y-64583389D01*
X202763402Y-64412299D01*
X202709873Y-64247555D01*
X202631232Y-64093212D01*
X202529414Y-63953072D01*
X202406928Y-63830586D01*
X202266788Y-63728768D01*
X202112445Y-63650127D01*
X201947701Y-63596598D01*
X201947699Y-63596597D01*
X201947698Y-63596597D01*
X201816271Y-63575781D01*
X201776611Y-63569500D01*
X201603389Y-63569500D01*
X201563728Y-63575781D01*
X201432302Y-63596597D01*
X201267552Y-63650128D01*
X201113211Y-63728768D01*
X201045270Y-63778131D01*
X200973072Y-63830586D01*
X200973070Y-63830588D01*
X200973069Y-63830588D01*
X200850588Y-63953069D01*
X200850588Y-63953070D01*
X200850586Y-63953072D01*
X200806859Y-64013256D01*
X200748768Y-64093211D01*
X200670128Y-64247552D01*
X200616597Y-64412302D01*
X200601723Y-64506214D01*
X200589500Y-64583389D01*
X200589500Y-64756611D01*
X200616598Y-64927701D01*
X200668006Y-65085918D01*
X200670128Y-65092447D01*
X200686013Y-65123624D01*
X200748768Y-65246788D01*
X200850586Y-65386928D01*
X200973072Y-65509414D01*
X201113212Y-65611232D01*
X201267555Y-65689873D01*
X201432299Y-65743402D01*
X201603389Y-65770500D01*
X201603390Y-65770500D01*
X201776610Y-65770500D01*
X201776611Y-65770500D01*
X201947701Y-65743402D01*
X202112445Y-65689873D01*
X202112454Y-65689868D01*
X202116970Y-65688401D01*
X202186811Y-65686406D01*
X202242970Y-65718651D01*
X202568731Y-66044412D01*
X202633988Y-66109669D01*
X202633991Y-66109670D01*
X202633994Y-66109673D01*
X202713906Y-66155811D01*
X202713907Y-66155811D01*
X202713912Y-66155814D01*
X202803056Y-66179700D01*
X202803058Y-66179700D01*
X205582442Y-66179700D01*
X205582444Y-66179700D01*
X205671588Y-66155814D01*
X205712613Y-66132128D01*
X205751512Y-66109670D01*
X206801911Y-65059269D01*
X206863232Y-65025786D01*
X206932923Y-65030770D01*
X206988857Y-65072641D01*
X206996971Y-65084943D01*
X207008791Y-65105415D01*
X207111285Y-65207909D01*
X207111286Y-65207910D01*
X207111288Y-65207911D01*
X207236811Y-65280382D01*
X207236812Y-65280382D01*
X207236815Y-65280384D01*
X207376825Y-65317900D01*
X207376828Y-65317900D01*
X207521772Y-65317900D01*
X207521775Y-65317900D01*
X207661785Y-65280384D01*
X207685600Y-65266634D01*
X207753497Y-65250161D01*
X207819525Y-65273012D01*
X207862716Y-65327932D01*
X207871600Y-65374021D01*
X207871600Y-73698878D01*
X207851915Y-73765917D01*
X207799111Y-73811672D01*
X207729953Y-73821616D01*
X207704268Y-73815060D01*
X207572485Y-73765909D01*
X207572483Y-73765908D01*
X207512883Y-73759501D01*
X207512881Y-73759500D01*
X207512873Y-73759500D01*
X207512864Y-73759500D01*
X206667129Y-73759500D01*
X206667123Y-73759501D01*
X206607516Y-73765908D01*
X206472671Y-73816202D01*
X206472664Y-73816206D01*
X206357455Y-73902452D01*
X206357452Y-73902455D01*
X206271206Y-74017664D01*
X206271202Y-74017671D01*
X206220908Y-74152517D01*
X206216341Y-74195000D01*
X206214501Y-74212123D01*
X206214500Y-74212135D01*
X206214500Y-76307870D01*
X206214501Y-76307876D01*
X206220908Y-76367483D01*
X206271202Y-76502328D01*
X206271206Y-76502335D01*
X206357452Y-76617544D01*
X206357455Y-76617547D01*
X206472664Y-76703793D01*
X206472671Y-76703797D01*
X206607517Y-76754091D01*
X206607516Y-76754091D01*
X206614444Y-76754835D01*
X206667127Y-76760500D01*
X207512872Y-76760499D01*
X207572483Y-76754091D01*
X207707331Y-76703796D01*
X207822546Y-76617546D01*
X207908796Y-76502331D01*
X207959091Y-76367483D01*
X207965500Y-76307873D01*
X207965499Y-74430542D01*
X207985184Y-74363504D01*
X208037987Y-74317749D01*
X208107146Y-74307805D01*
X208170702Y-74336830D01*
X208177180Y-74342862D01*
X208678181Y-74843863D01*
X208711666Y-74905186D01*
X208714500Y-74931544D01*
X208714500Y-76307870D01*
X208714501Y-76307876D01*
X208720908Y-76367483D01*
X208771202Y-76502328D01*
X208771206Y-76502335D01*
X208857452Y-76617544D01*
X208857455Y-76617547D01*
X208972664Y-76703793D01*
X208972671Y-76703797D01*
X209107517Y-76754091D01*
X209107516Y-76754091D01*
X209114444Y-76754835D01*
X209167127Y-76760500D01*
X210012872Y-76760499D01*
X210072483Y-76754091D01*
X210207331Y-76703796D01*
X210322546Y-76617546D01*
X210408796Y-76502331D01*
X210459091Y-76367483D01*
X210465500Y-76307873D01*
X210465499Y-74430542D01*
X210485184Y-74363504D01*
X210537987Y-74317749D01*
X210607146Y-74307805D01*
X210670702Y-74336830D01*
X210677180Y-74342862D01*
X210931860Y-74597542D01*
X211178181Y-74843862D01*
X211211666Y-74905185D01*
X211214500Y-74931543D01*
X211214500Y-76307870D01*
X211214501Y-76307876D01*
X211220908Y-76367483D01*
X211271202Y-76502328D01*
X211271206Y-76502335D01*
X211357452Y-76617544D01*
X211357455Y-76617547D01*
X211472664Y-76703793D01*
X211472671Y-76703797D01*
X211607517Y-76754091D01*
X211607516Y-76754091D01*
X211614444Y-76754835D01*
X211667127Y-76760500D01*
X212512872Y-76760499D01*
X212572483Y-76754091D01*
X212707331Y-76703796D01*
X212822546Y-76617546D01*
X212908796Y-76502331D01*
X212959091Y-76367483D01*
X212965500Y-76307873D01*
X212965499Y-74212128D01*
X212959091Y-74152517D01*
X212954327Y-74139745D01*
X212908797Y-74017671D01*
X212908793Y-74017664D01*
X212822547Y-73902455D01*
X212822544Y-73902452D01*
X212707335Y-73816206D01*
X212707328Y-73816202D01*
X212572482Y-73765908D01*
X212572483Y-73765908D01*
X212512883Y-73759501D01*
X212512881Y-73759500D01*
X212512873Y-73759500D01*
X212512864Y-73759500D01*
X211667129Y-73759500D01*
X211667123Y-73759501D01*
X211607516Y-73765908D01*
X211472633Y-73816217D01*
X211402941Y-73821201D01*
X211341618Y-73787716D01*
X211308134Y-73726392D01*
X211305300Y-73700035D01*
X211305300Y-72879086D01*
X211324985Y-72812047D01*
X211341619Y-72791405D01*
X211395308Y-72737716D01*
X211395311Y-72737711D01*
X211431616Y-72674830D01*
X211467784Y-72612185D01*
X211505300Y-72472175D01*
X211505300Y-72327225D01*
X211467784Y-72187215D01*
X211461256Y-72175909D01*
X211395311Y-72061688D01*
X211395306Y-72061682D01*
X211292817Y-71959193D01*
X211292811Y-71959188D01*
X211167288Y-71886717D01*
X211167289Y-71886717D01*
X211155806Y-71883640D01*
X211027275Y-71849200D01*
X210882325Y-71849200D01*
X210753793Y-71883640D01*
X210742311Y-71886717D01*
X210616788Y-71959188D01*
X210616782Y-71959193D01*
X210514293Y-72061682D01*
X210514288Y-72061688D01*
X210441817Y-72187211D01*
X210441816Y-72187215D01*
X210404300Y-72327225D01*
X210404300Y-72472175D01*
X210435550Y-72588799D01*
X210441817Y-72612188D01*
X210514288Y-72737711D01*
X210514292Y-72737716D01*
X210567981Y-72791405D01*
X210601466Y-72852728D01*
X210604300Y-72879086D01*
X210604300Y-73906271D01*
X210584615Y-73973310D01*
X210531811Y-74019065D01*
X210462653Y-74029009D01*
X210399097Y-73999984D01*
X210381034Y-73980583D01*
X210334066Y-73917843D01*
X210322546Y-73902454D01*
X210322544Y-73902453D01*
X210322544Y-73902452D01*
X210207335Y-73816206D01*
X210207328Y-73816202D01*
X210072482Y-73765908D01*
X210072483Y-73765908D01*
X210012883Y-73759501D01*
X210012881Y-73759500D01*
X210012873Y-73759500D01*
X210012864Y-73759500D01*
X209167129Y-73759500D01*
X209167123Y-73759501D01*
X209107516Y-73765908D01*
X208972671Y-73816202D01*
X208972669Y-73816203D01*
X208869514Y-73893426D01*
X208804050Y-73917843D01*
X208735777Y-73902992D01*
X208707522Y-73881840D01*
X208608919Y-73783237D01*
X208575434Y-73721914D01*
X208572600Y-73695556D01*
X208572600Y-69131125D01*
X208592285Y-69064086D01*
X208645089Y-69018331D01*
X208709855Y-69007836D01*
X208734627Y-69010500D01*
X209655372Y-69010499D01*
X209705526Y-69005107D01*
X209714984Y-69004091D01*
X209727251Y-68999515D01*
X209733852Y-68997052D01*
X209803543Y-68992066D01*
X209864865Y-69025547D01*
X209864869Y-69025551D01*
X209864870Y-69025552D01*
X210426711Y-69587392D01*
X210965831Y-70126512D01*
X211031088Y-70191769D01*
X211031091Y-70191770D01*
X211031094Y-70191773D01*
X211111006Y-70237911D01*
X211111007Y-70237911D01*
X211111012Y-70237914D01*
X211200156Y-70261800D01*
X211564314Y-70261800D01*
X211631353Y-70281485D01*
X211651995Y-70298119D01*
X211705685Y-70351809D01*
X211705686Y-70351810D01*
X211705688Y-70351811D01*
X211831211Y-70424282D01*
X211831212Y-70424282D01*
X211831215Y-70424284D01*
X211971225Y-70461800D01*
X211971228Y-70461800D01*
X212116172Y-70461800D01*
X212116175Y-70461800D01*
X212256185Y-70424284D01*
X212381715Y-70351809D01*
X212484209Y-70249315D01*
X212556684Y-70123785D01*
X212594200Y-69983775D01*
X212594200Y-69983771D01*
X212595261Y-69975715D01*
X212598544Y-69976147D01*
X212613885Y-69923905D01*
X212630519Y-69903263D01*
X213372819Y-69160963D01*
X213434142Y-69127478D01*
X213503834Y-69132462D01*
X213559767Y-69174334D01*
X213584184Y-69239798D01*
X213584500Y-69248644D01*
X213584500Y-69505372D01*
X213588821Y-69545560D01*
X213589754Y-69554235D01*
X213577348Y-69622995D01*
X213554145Y-69655171D01*
X213211331Y-69997986D01*
X213211329Y-69997989D01*
X213172131Y-70065884D01*
X213172129Y-70065887D01*
X213165186Y-70077912D01*
X213141300Y-70167056D01*
X213141300Y-72670743D01*
X213159245Y-72737716D01*
X213159245Y-72737717D01*
X213165184Y-72759884D01*
X213165185Y-72759886D01*
X213211327Y-72839808D01*
X213211329Y-72839811D01*
X213211330Y-72839812D01*
X214016488Y-73644970D01*
X214016490Y-73644971D01*
X214016494Y-73644974D01*
X214059337Y-73669709D01*
X214059339Y-73669710D01*
X214059343Y-73669712D01*
X214096412Y-73691114D01*
X214185556Y-73715000D01*
X214185557Y-73715000D01*
X214277844Y-73715000D01*
X216909415Y-73715000D01*
X216976454Y-73734685D01*
X217022209Y-73787489D01*
X217032153Y-73856647D01*
X217031888Y-73858398D01*
X217029500Y-73873475D01*
X217029500Y-74870260D01*
X217009815Y-74937299D01*
X216957011Y-74983054D01*
X216937595Y-74990035D01*
X216911163Y-74997117D01*
X216867865Y-75008719D01*
X216867864Y-75008719D01*
X216867862Y-75008720D01*
X216736635Y-75084485D01*
X216736632Y-75084487D01*
X216629487Y-75191632D01*
X216629485Y-75191635D01*
X216553719Y-75322863D01*
X216535749Y-75389929D01*
X216514500Y-75469234D01*
X216514500Y-75620766D01*
X216521943Y-75648544D01*
X216553719Y-75767136D01*
X216585222Y-75821700D01*
X216629485Y-75898365D01*
X216736635Y-76005515D01*
X216867865Y-76081281D01*
X217014234Y-76120500D01*
X217014236Y-76120500D01*
X217165764Y-76120500D01*
X217165766Y-76120500D01*
X217312135Y-76081281D01*
X217443365Y-76005515D01*
X217550515Y-75898365D01*
X217626281Y-75767135D01*
X217665500Y-75620766D01*
X217665500Y-75469234D01*
X217662966Y-75459777D01*
X217664627Y-75389929D01*
X217703789Y-75332066D01*
X217763341Y-75305210D01*
X217855304Y-75290646D01*
X217894924Y-75270458D01*
X217963589Y-75257561D01*
X218003616Y-75268557D01*
X218037918Y-75284553D01*
X218090355Y-75330724D01*
X218109506Y-75397918D01*
X218089290Y-75464799D01*
X218071544Y-75483956D01*
X218072632Y-75485044D01*
X217964393Y-75593282D01*
X217964391Y-75593285D01*
X217898794Y-75706899D01*
X217898792Y-75706905D01*
X217891916Y-75718815D01*
X217854400Y-75858825D01*
X217854400Y-76003775D01*
X217885677Y-76120500D01*
X217891917Y-76143788D01*
X217964388Y-76269311D01*
X217964390Y-76269313D01*
X217964391Y-76269315D01*
X218066885Y-76371809D01*
X218066886Y-76371810D01*
X218066888Y-76371811D01*
X218192411Y-76444282D01*
X218192412Y-76444282D01*
X218192415Y-76444284D01*
X218332425Y-76481800D01*
X218332428Y-76481800D01*
X218477372Y-76481800D01*
X218477375Y-76481800D01*
X218617385Y-76444284D01*
X218742915Y-76371809D01*
X218845409Y-76269315D01*
X218917884Y-76143785D01*
X218955400Y-76003775D01*
X218955400Y-75927844D01*
X218975085Y-75860805D01*
X218991719Y-75840163D01*
X218996822Y-75835060D01*
X219010470Y-75821412D01*
X219056614Y-75741488D01*
X219080500Y-75652344D01*
X219080500Y-75560056D01*
X219080500Y-75429499D01*
X219100185Y-75362460D01*
X219152989Y-75316705D01*
X219204497Y-75305499D01*
X219343138Y-75305499D01*
X219390545Y-75299259D01*
X219427595Y-75281981D01*
X219496672Y-75271490D01*
X219532404Y-75281981D01*
X219569455Y-75299259D01*
X219616861Y-75305500D01*
X219843138Y-75305499D01*
X219890545Y-75299259D01*
X219927595Y-75281981D01*
X219996672Y-75271490D01*
X220032404Y-75281981D01*
X220069455Y-75299259D01*
X220116861Y-75305500D01*
X220343138Y-75305499D01*
X220390545Y-75299259D01*
X220427595Y-75281981D01*
X220496672Y-75271490D01*
X220532404Y-75281981D01*
X220569455Y-75299259D01*
X220616861Y-75305500D01*
X220843138Y-75305499D01*
X220890545Y-75299259D01*
X220927595Y-75281981D01*
X220996672Y-75271490D01*
X221032404Y-75281981D01*
X221069455Y-75299259D01*
X221116861Y-75305500D01*
X221231856Y-75305499D01*
X221298895Y-75325183D01*
X221344650Y-75377987D01*
X221354594Y-75447145D01*
X221325570Y-75510701D01*
X221319537Y-75517180D01*
X219282437Y-77554281D01*
X219221114Y-77587766D01*
X219194756Y-77590600D01*
X219118825Y-77590600D01*
X218990293Y-77625040D01*
X218978811Y-77628117D01*
X218853288Y-77700588D01*
X218853282Y-77700593D01*
X218750793Y-77803082D01*
X218750788Y-77803088D01*
X218678317Y-77928611D01*
X218678316Y-77928615D01*
X218640800Y-78068625D01*
X218640800Y-78213575D01*
X218678168Y-78353033D01*
X218678317Y-78353588D01*
X218750788Y-78479111D01*
X218750790Y-78479113D01*
X218750791Y-78479115D01*
X218853285Y-78581609D01*
X218853286Y-78581610D01*
X218853288Y-78581611D01*
X218978811Y-78654082D01*
X218978812Y-78654082D01*
X218978815Y-78654084D01*
X219118825Y-78691600D01*
X219118828Y-78691600D01*
X219263772Y-78691600D01*
X219263775Y-78691600D01*
X219403785Y-78654084D01*
X219529315Y-78581609D01*
X219631809Y-78479115D01*
X219704284Y-78353585D01*
X219741800Y-78213575D01*
X219741800Y-78137644D01*
X219761485Y-78070605D01*
X219778119Y-78049963D01*
X220518582Y-77309500D01*
X222010470Y-75817612D01*
X222056614Y-75737688D01*
X222061671Y-75718815D01*
X222071447Y-75682330D01*
X222107808Y-75622672D01*
X222170655Y-75592141D01*
X222240030Y-75600434D01*
X222293910Y-75644918D01*
X222310995Y-75682329D01*
X222333719Y-75767135D01*
X222409485Y-75898365D01*
X222516635Y-76005515D01*
X222647865Y-76081281D01*
X222794234Y-76120500D01*
X222794236Y-76120500D01*
X222945764Y-76120500D01*
X222945766Y-76120500D01*
X223092135Y-76081281D01*
X223223365Y-76005515D01*
X223330515Y-75898365D01*
X223369775Y-75830365D01*
X223420342Y-75782149D01*
X223488949Y-75768927D01*
X223553814Y-75794895D01*
X223591723Y-75844912D01*
X223635357Y-75950254D01*
X223635362Y-75950264D01*
X223717436Y-76073096D01*
X223717439Y-76073100D01*
X223821899Y-76177560D01*
X223821903Y-76177563D01*
X223944735Y-76259637D01*
X223944745Y-76259642D01*
X224081230Y-76316176D01*
X224081240Y-76316179D01*
X224149999Y-76329856D01*
X224150000Y-76329856D01*
X224150000Y-75854808D01*
X224184204Y-75874556D01*
X224260504Y-75895000D01*
X224339496Y-75895000D01*
X224415796Y-75874556D01*
X224450000Y-75854808D01*
X224450000Y-76329856D01*
X224518759Y-76316179D01*
X224518769Y-76316176D01*
X224655254Y-76259642D01*
X224655264Y-76259637D01*
X224778096Y-76177563D01*
X224778100Y-76177560D01*
X224882560Y-76073100D01*
X224882563Y-76073096D01*
X224964637Y-75950264D01*
X224964642Y-75950254D01*
X225021177Y-75813767D01*
X225021179Y-75813759D01*
X225049999Y-75668873D01*
X225050000Y-75668871D01*
X225050000Y-75195000D01*
X224600000Y-75195000D01*
X224600000Y-74895000D01*
X225050000Y-74895000D01*
X225050000Y-74421128D01*
X225049999Y-74421126D01*
X225021179Y-74276240D01*
X225021177Y-74276232D01*
X224964642Y-74139745D01*
X224964637Y-74139735D01*
X224882563Y-74016903D01*
X224882560Y-74016899D01*
X224778100Y-73912439D01*
X224778096Y-73912436D01*
X224655264Y-73830362D01*
X224655254Y-73830357D01*
X224518767Y-73773822D01*
X224518761Y-73773820D01*
X224450000Y-73760142D01*
X224450000Y-74235191D01*
X224415796Y-74215444D01*
X224339496Y-74195000D01*
X224260504Y-74195000D01*
X224184204Y-74215444D01*
X224150000Y-74235191D01*
X224150000Y-73760143D01*
X224149999Y-73760142D01*
X224081238Y-73773820D01*
X224081232Y-73773822D01*
X223944745Y-73830357D01*
X223944735Y-73830362D01*
X223821903Y-73912436D01*
X223821899Y-73912439D01*
X223717439Y-74016899D01*
X223717436Y-74016903D01*
X223635362Y-74139735D01*
X223635357Y-74139745D01*
X223578822Y-74276232D01*
X223578820Y-74276240D01*
X223550000Y-74421126D01*
X223550000Y-74895000D01*
X224000000Y-74895000D01*
X224000000Y-75195000D01*
X223550000Y-75195000D01*
X223526352Y-75218648D01*
X223465028Y-75252132D01*
X223395336Y-75247147D01*
X223339403Y-75205276D01*
X223331287Y-75192972D01*
X223331211Y-75192841D01*
X223330515Y-75191635D01*
X223223365Y-75084485D01*
X223157750Y-75046602D01*
X223092136Y-75008719D01*
X223070910Y-75003032D01*
X223022404Y-74990034D01*
X222962746Y-74953671D01*
X222932216Y-74890825D01*
X222930499Y-74870272D01*
X222930499Y-73873482D01*
X222915646Y-73779696D01*
X222858050Y-73666658D01*
X222858046Y-73666654D01*
X222858045Y-73666652D01*
X222768347Y-73576954D01*
X222768344Y-73576952D01*
X222768342Y-73576950D01*
X222655304Y-73519354D01*
X222655302Y-73519353D01*
X222655301Y-73519353D01*
X222591285Y-73509213D01*
X222528151Y-73479283D01*
X222523004Y-73474421D01*
X222178791Y-73130208D01*
X222145306Y-73068885D01*
X222150290Y-72999193D01*
X222192162Y-72943260D01*
X222223136Y-72926346D01*
X222357330Y-72876296D01*
X222472546Y-72790046D01*
X222558796Y-72674830D01*
X222609091Y-72539982D01*
X222615500Y-72480372D01*
X222615500Y-72444101D01*
X222635185Y-72377062D01*
X222687989Y-72331307D01*
X222723314Y-72321162D01*
X222728334Y-72320500D01*
X222728344Y-72320500D01*
X222817488Y-72296614D01*
X222897412Y-72250470D01*
X222979098Y-72168784D01*
X224189999Y-72168784D01*
X224204741Y-72261862D01*
X224261905Y-72374055D01*
X224350944Y-72463094D01*
X224463138Y-72520258D01*
X224463137Y-72520258D01*
X224556215Y-72535000D01*
X224895000Y-72535000D01*
X225195000Y-72535000D01*
X225533784Y-72535000D01*
X225626862Y-72520258D01*
X225739055Y-72463094D01*
X225828094Y-72374055D01*
X225885258Y-72261862D01*
X225900000Y-72168784D01*
X225900000Y-72140000D01*
X225195000Y-72140000D01*
X225195000Y-72535000D01*
X224895000Y-72535000D01*
X224895000Y-72140000D01*
X224190000Y-72140000D01*
X224190000Y-72168784D01*
X224189999Y-72168784D01*
X222979098Y-72168784D01*
X223830263Y-71317619D01*
X223891586Y-71284134D01*
X223917944Y-71281300D01*
X223993873Y-71281300D01*
X223993875Y-71281300D01*
X224068223Y-71261378D01*
X224138072Y-71263040D01*
X224195935Y-71302202D01*
X224210796Y-71324848D01*
X224261498Y-71424355D01*
X224264812Y-71427669D01*
X224298299Y-71488989D01*
X224293318Y-71558681D01*
X224264820Y-71603030D01*
X224261905Y-71605945D01*
X224204741Y-71718137D01*
X224190000Y-71811215D01*
X224190000Y-71840000D01*
X225900000Y-71840000D01*
X225900000Y-71811215D01*
X225885258Y-71718137D01*
X225828094Y-71605944D01*
X225825185Y-71603035D01*
X225822778Y-71598628D01*
X225822360Y-71598052D01*
X225822434Y-71597997D01*
X225791700Y-71541712D01*
X225796684Y-71472020D01*
X225825185Y-71427673D01*
X225826039Y-71426819D01*
X225887362Y-71393334D01*
X225913720Y-71390500D01*
X226686280Y-71390500D01*
X226753319Y-71410185D01*
X226773961Y-71426819D01*
X226774461Y-71427319D01*
X226807946Y-71488642D01*
X226802962Y-71558334D01*
X226774461Y-71602681D01*
X226771502Y-71605639D01*
X226771499Y-71605644D01*
X226771498Y-71605645D01*
X226752419Y-71643089D01*
X226714259Y-71717980D01*
X226699500Y-71811171D01*
X226699500Y-72168821D01*
X226708589Y-72226206D01*
X226714261Y-72262022D01*
X226771498Y-72374355D01*
X226771500Y-72374357D01*
X226771502Y-72374360D01*
X226860639Y-72463497D01*
X226860641Y-72463498D01*
X226860645Y-72463502D01*
X226972978Y-72520739D01*
X226972979Y-72520739D01*
X226972981Y-72520740D01*
X226972980Y-72520740D01*
X227066170Y-72535499D01*
X227066171Y-72535499D01*
X227066177Y-72535500D01*
X227080497Y-72535499D01*
X227147534Y-72555180D01*
X227193292Y-72607982D01*
X227204500Y-72659499D01*
X227204500Y-74597542D01*
X227184815Y-74664581D01*
X227132011Y-74710336D01*
X227096693Y-74720480D01*
X227095032Y-74720698D01*
X226955011Y-74758217D01*
X226829488Y-74830688D01*
X226829482Y-74830693D01*
X226726993Y-74933182D01*
X226726988Y-74933188D01*
X226654517Y-75058711D01*
X226654516Y-75058715D01*
X226617000Y-75198725D01*
X226617000Y-75343675D01*
X226654390Y-75483214D01*
X226654517Y-75483688D01*
X226726988Y-75609211D01*
X226726990Y-75609213D01*
X226726991Y-75609215D01*
X226829485Y-75711709D01*
X226829486Y-75711710D01*
X226829488Y-75711711D01*
X226955011Y-75784182D01*
X226955012Y-75784182D01*
X226955015Y-75784184D01*
X227095025Y-75821700D01*
X227095028Y-75821700D01*
X227239972Y-75821700D01*
X227239975Y-75821700D01*
X227379985Y-75784184D01*
X227505515Y-75711709D01*
X227608009Y-75609215D01*
X227680484Y-75483685D01*
X227718000Y-75343675D01*
X227718000Y-75267744D01*
X227737685Y-75200705D01*
X227754319Y-75180063D01*
X227835470Y-75098912D01*
X227881614Y-75018988D01*
X227903711Y-74936519D01*
X227905500Y-74929844D01*
X227905500Y-72659499D01*
X227925185Y-72592460D01*
X227977989Y-72546705D01*
X228029500Y-72535499D01*
X228043819Y-72535499D01*
X228043822Y-72535499D01*
X228047867Y-72534858D01*
X228117158Y-72543807D01*
X228170614Y-72588799D01*
X228191259Y-72655549D01*
X228191272Y-72657369D01*
X228189522Y-78255984D01*
X228189500Y-78256334D01*
X228189500Y-78326948D01*
X228189351Y-78333033D01*
X228172947Y-78666928D01*
X228171754Y-78679037D01*
X228123151Y-79006694D01*
X228120777Y-79018630D01*
X228040292Y-79339944D01*
X228036759Y-79351588D01*
X227925170Y-79663459D01*
X227920514Y-79674702D01*
X227778885Y-79974151D01*
X227773148Y-79984883D01*
X227602862Y-80268988D01*
X227596102Y-80279106D01*
X227398775Y-80545170D01*
X227391055Y-80554576D01*
X227168611Y-80800006D01*
X227160006Y-80808611D01*
X226914576Y-81031055D01*
X226905170Y-81038775D01*
X226639106Y-81236102D01*
X226628988Y-81242862D01*
X226344883Y-81413148D01*
X226334151Y-81418885D01*
X226034702Y-81560514D01*
X226023459Y-81565170D01*
X225711588Y-81676759D01*
X225699944Y-81680292D01*
X225378630Y-81760777D01*
X225366695Y-81763151D01*
X225039039Y-81811754D01*
X225026929Y-81812947D01*
X224718142Y-81828116D01*
X224693021Y-81829351D01*
X224686939Y-81829500D01*
X224616700Y-81829500D01*
X224615680Y-81829566D01*
X202703099Y-81849496D01*
X202696902Y-81849347D01*
X202363071Y-81832947D01*
X202350960Y-81831754D01*
X202023304Y-81783151D01*
X202011369Y-81780777D01*
X201690055Y-81700292D01*
X201678411Y-81696759D01*
X201366540Y-81585170D01*
X201355301Y-81580515D01*
X201055844Y-81438883D01*
X201045121Y-81433150D01*
X200761011Y-81262862D01*
X200750893Y-81256102D01*
X200484829Y-81058775D01*
X200475423Y-81051055D01*
X200436475Y-81015755D01*
X200229986Y-80828604D01*
X200221395Y-80820013D01*
X199998944Y-80574576D01*
X199991224Y-80565170D01*
X199793897Y-80299106D01*
X199787137Y-80288988D01*
X199778284Y-80274218D01*
X199616844Y-80004871D01*
X199611120Y-79994163D01*
X199469479Y-79694688D01*
X199464829Y-79683459D01*
X199459727Y-79669201D01*
X199369782Y-79417819D01*
X199353240Y-79371588D01*
X199349707Y-79359944D01*
X199346177Y-79345851D01*
X199269219Y-79038617D01*
X199266848Y-79026694D01*
X199263881Y-79006694D01*
X199218245Y-78699037D01*
X199217052Y-78686927D01*
X199216887Y-78683578D01*
X199214294Y-78630775D01*
X199213024Y-78604925D01*
X199212964Y-78603713D01*
X200479500Y-78603713D01*
X200479500Y-78816286D01*
X200512753Y-79026239D01*
X200578444Y-79228414D01*
X200674951Y-79417820D01*
X200799890Y-79589786D01*
X200950213Y-79740109D01*
X201122179Y-79865048D01*
X201122181Y-79865049D01*
X201122184Y-79865051D01*
X201311588Y-79961557D01*
X201513757Y-80027246D01*
X201723713Y-80060500D01*
X201723714Y-80060500D01*
X201936286Y-80060500D01*
X201936287Y-80060500D01*
X202146243Y-80027246D01*
X202348412Y-79961557D01*
X202537816Y-79865051D01*
X202675443Y-79765060D01*
X202709786Y-79740109D01*
X202709788Y-79740106D01*
X202709792Y-79740104D01*
X202860104Y-79589792D01*
X202860106Y-79589788D01*
X202860109Y-79589786D01*
X202914899Y-79514371D01*
X202985051Y-79417816D01*
X203081557Y-79228412D01*
X203147246Y-79026243D01*
X203174982Y-78851126D01*
X214910000Y-78851126D01*
X214910000Y-79075000D01*
X215360000Y-79075000D01*
X215360000Y-79375000D01*
X214910000Y-79375000D01*
X214910000Y-79598873D01*
X214938820Y-79743759D01*
X214938822Y-79743767D01*
X214995357Y-79880254D01*
X214995362Y-79880264D01*
X215077436Y-80003096D01*
X215077439Y-80003100D01*
X215181899Y-80107560D01*
X215181903Y-80107563D01*
X215304735Y-80189637D01*
X215304745Y-80189642D01*
X215441230Y-80246176D01*
X215441240Y-80246179D01*
X215509999Y-80259856D01*
X215510000Y-80259856D01*
X215510000Y-79784808D01*
X215544204Y-79804556D01*
X215620504Y-79825000D01*
X215699496Y-79825000D01*
X215775796Y-79804556D01*
X215810000Y-79784808D01*
X215810000Y-80259856D01*
X215878759Y-80246179D01*
X215878769Y-80246176D01*
X216015254Y-80189642D01*
X216015264Y-80189637D01*
X216138096Y-80107563D01*
X216138100Y-80107560D01*
X216242560Y-80003100D01*
X216242563Y-80003096D01*
X216324637Y-79880264D01*
X216324642Y-79880254D01*
X216381177Y-79743767D01*
X216381179Y-79743759D01*
X216409999Y-79598873D01*
X216410000Y-79598871D01*
X216410000Y-79375000D01*
X215960000Y-79375000D01*
X215960000Y-79075000D01*
X216410000Y-79075000D01*
X216410000Y-78851128D01*
X216409999Y-78851126D01*
X223550000Y-78851126D01*
X223550000Y-79075000D01*
X224000000Y-79075000D01*
X224000000Y-79375000D01*
X223550000Y-79375000D01*
X223550000Y-79598873D01*
X223578820Y-79743759D01*
X223578822Y-79743767D01*
X223635357Y-79880254D01*
X223635362Y-79880264D01*
X223717436Y-80003096D01*
X223717439Y-80003100D01*
X223821899Y-80107560D01*
X223821903Y-80107563D01*
X223944735Y-80189637D01*
X223944745Y-80189642D01*
X224081230Y-80246176D01*
X224081240Y-80246179D01*
X224149999Y-80259856D01*
X224150000Y-80259856D01*
X224150000Y-79784808D01*
X224184204Y-79804556D01*
X224260504Y-79825000D01*
X224339496Y-79825000D01*
X224415796Y-79804556D01*
X224450000Y-79784808D01*
X224450000Y-80259856D01*
X224518759Y-80246179D01*
X224518769Y-80246176D01*
X224655254Y-80189642D01*
X224655264Y-80189637D01*
X224778096Y-80107563D01*
X224778100Y-80107560D01*
X224882560Y-80003100D01*
X224882563Y-80003096D01*
X224964637Y-79880264D01*
X224964642Y-79880254D01*
X225021177Y-79743767D01*
X225021179Y-79743759D01*
X225049999Y-79598873D01*
X225050000Y-79598871D01*
X225050000Y-79375000D01*
X224600000Y-79375000D01*
X224600000Y-79075000D01*
X225050000Y-79075000D01*
X225050000Y-78851128D01*
X225049999Y-78851126D01*
X225021179Y-78706240D01*
X225021177Y-78706232D01*
X224964642Y-78569745D01*
X224964637Y-78569735D01*
X224882563Y-78446903D01*
X224882560Y-78446899D01*
X224778100Y-78342439D01*
X224778096Y-78342436D01*
X224655264Y-78260362D01*
X224655254Y-78260357D01*
X224518767Y-78203822D01*
X224518761Y-78203820D01*
X224450000Y-78190142D01*
X224450000Y-78665191D01*
X224415796Y-78645444D01*
X224339496Y-78625000D01*
X224260504Y-78625000D01*
X224184204Y-78645444D01*
X224150000Y-78665191D01*
X224150000Y-78190143D01*
X224149999Y-78190142D01*
X224081238Y-78203820D01*
X224081232Y-78203822D01*
X223944745Y-78260357D01*
X223944735Y-78260362D01*
X223821903Y-78342436D01*
X223821899Y-78342439D01*
X223717439Y-78446899D01*
X223717436Y-78446903D01*
X223635362Y-78569735D01*
X223635357Y-78569745D01*
X223578822Y-78706232D01*
X223578820Y-78706240D01*
X223550000Y-78851126D01*
X216409999Y-78851126D01*
X216381179Y-78706240D01*
X216381177Y-78706232D01*
X216324642Y-78569745D01*
X216324637Y-78569735D01*
X216242563Y-78446903D01*
X216242560Y-78446899D01*
X216138100Y-78342439D01*
X216138096Y-78342436D01*
X216015264Y-78260362D01*
X216015254Y-78260357D01*
X215878767Y-78203822D01*
X215878761Y-78203820D01*
X215810000Y-78190142D01*
X215810000Y-78665191D01*
X215775796Y-78645444D01*
X215699496Y-78625000D01*
X215620504Y-78625000D01*
X215544204Y-78645444D01*
X215510000Y-78665191D01*
X215510000Y-78190143D01*
X215509999Y-78190142D01*
X215441238Y-78203820D01*
X215441232Y-78203822D01*
X215304745Y-78260357D01*
X215304735Y-78260362D01*
X215181903Y-78342436D01*
X215181899Y-78342439D01*
X215077439Y-78446899D01*
X215077436Y-78446903D01*
X214995362Y-78569735D01*
X214995357Y-78569745D01*
X214938822Y-78706232D01*
X214938820Y-78706240D01*
X214910000Y-78851126D01*
X203174982Y-78851126D01*
X203180500Y-78816287D01*
X203180500Y-78603713D01*
X203147246Y-78393757D01*
X203081557Y-78191588D01*
X203024188Y-78078995D01*
X205489499Y-78078995D01*
X205516418Y-78214322D01*
X205516421Y-78214332D01*
X205569221Y-78341804D01*
X205569228Y-78341817D01*
X205645885Y-78456541D01*
X205645888Y-78456545D01*
X205743454Y-78554111D01*
X205743458Y-78554114D01*
X205858182Y-78630771D01*
X205858195Y-78630778D01*
X205945470Y-78666928D01*
X205985672Y-78683580D01*
X205985676Y-78683580D01*
X205985677Y-78683581D01*
X206121004Y-78710500D01*
X206121007Y-78710500D01*
X206258995Y-78710500D01*
X206354009Y-78691600D01*
X206394328Y-78683580D01*
X206521811Y-78630775D01*
X206636542Y-78554114D01*
X206734114Y-78456542D01*
X206810775Y-78341811D01*
X206863580Y-78214328D01*
X206890500Y-78078995D01*
X212289499Y-78078995D01*
X212316418Y-78214322D01*
X212316421Y-78214332D01*
X212369221Y-78341804D01*
X212369228Y-78341817D01*
X212445885Y-78456541D01*
X212445888Y-78456545D01*
X212543454Y-78554111D01*
X212543458Y-78554114D01*
X212658182Y-78630771D01*
X212658195Y-78630778D01*
X212745470Y-78666928D01*
X212785672Y-78683580D01*
X212785676Y-78683580D01*
X212785677Y-78683581D01*
X212921004Y-78710500D01*
X212921007Y-78710500D01*
X213058995Y-78710500D01*
X213154009Y-78691600D01*
X213194328Y-78683580D01*
X213321811Y-78630775D01*
X213436542Y-78554114D01*
X213534114Y-78456542D01*
X213610775Y-78341811D01*
X213663580Y-78214328D01*
X213690500Y-78078993D01*
X213690500Y-77941007D01*
X213690500Y-77941004D01*
X213663581Y-77805677D01*
X213663580Y-77805676D01*
X213663580Y-77805672D01*
X213662510Y-77803088D01*
X213610778Y-77678195D01*
X213610771Y-77678182D01*
X213534114Y-77563458D01*
X213534111Y-77563454D01*
X213436545Y-77465888D01*
X213436541Y-77465885D01*
X213321817Y-77389228D01*
X213321804Y-77389221D01*
X213194332Y-77336421D01*
X213194322Y-77336418D01*
X213058995Y-77309500D01*
X213058993Y-77309500D01*
X212921007Y-77309500D01*
X212921005Y-77309500D01*
X212785677Y-77336418D01*
X212785667Y-77336421D01*
X212658195Y-77389221D01*
X212658182Y-77389228D01*
X212543458Y-77465885D01*
X212543454Y-77465888D01*
X212445888Y-77563454D01*
X212445885Y-77563458D01*
X212369228Y-77678182D01*
X212369221Y-77678195D01*
X212316421Y-77805667D01*
X212316418Y-77805677D01*
X212289500Y-77941004D01*
X212289500Y-77941007D01*
X212289500Y-78078993D01*
X212289500Y-78078995D01*
X212289499Y-78078995D01*
X206890500Y-78078995D01*
X206890500Y-78078993D01*
X206890500Y-77941007D01*
X206890500Y-77941004D01*
X206863581Y-77805677D01*
X206863580Y-77805676D01*
X206863580Y-77805672D01*
X206862510Y-77803088D01*
X206810778Y-77678195D01*
X206810771Y-77678182D01*
X206734114Y-77563458D01*
X206734111Y-77563454D01*
X206636545Y-77465888D01*
X206636541Y-77465885D01*
X206521817Y-77389228D01*
X206521804Y-77389221D01*
X206394332Y-77336421D01*
X206394322Y-77336418D01*
X206258995Y-77309500D01*
X206258993Y-77309500D01*
X206121007Y-77309500D01*
X206121005Y-77309500D01*
X205985677Y-77336418D01*
X205985667Y-77336421D01*
X205858195Y-77389221D01*
X205858182Y-77389228D01*
X205743458Y-77465885D01*
X205743454Y-77465888D01*
X205645888Y-77563454D01*
X205645885Y-77563458D01*
X205569228Y-77678182D01*
X205569221Y-77678195D01*
X205516421Y-77805667D01*
X205516418Y-77805677D01*
X205489500Y-77941004D01*
X205489500Y-77941007D01*
X205489500Y-78078993D01*
X205489500Y-78078995D01*
X205489499Y-78078995D01*
X203024188Y-78078995D01*
X202985051Y-78002184D01*
X202985049Y-78002181D01*
X202985048Y-78002179D01*
X202860109Y-77830213D01*
X202709786Y-77679890D01*
X202537820Y-77554951D01*
X202348414Y-77458444D01*
X202348413Y-77458443D01*
X202348412Y-77458443D01*
X202146243Y-77392754D01*
X202146241Y-77392753D01*
X202146240Y-77392753D01*
X201984957Y-77367208D01*
X201936287Y-77359500D01*
X201723713Y-77359500D01*
X201675042Y-77367208D01*
X201513760Y-77392753D01*
X201311585Y-77458444D01*
X201122179Y-77554951D01*
X200950213Y-77679890D01*
X200799890Y-77830213D01*
X200674951Y-78002179D01*
X200578444Y-78191585D01*
X200578443Y-78191587D01*
X200578443Y-78191588D01*
X200556097Y-78260362D01*
X200512753Y-78393760D01*
X200479500Y-78603713D01*
X199212964Y-78603713D01*
X199200649Y-78353033D01*
X199200500Y-78346948D01*
X199200500Y-75605952D01*
X199220185Y-75538913D01*
X199272989Y-75493158D01*
X199342147Y-75483214D01*
X199405703Y-75512239D01*
X199427601Y-75537060D01*
X199436191Y-75549915D01*
X199444375Y-75562164D01*
X199562837Y-75680626D01*
X199648232Y-75737685D01*
X199702137Y-75773703D01*
X199856918Y-75837816D01*
X199972493Y-75860805D01*
X200021228Y-75870499D01*
X200021232Y-75870500D01*
X200021233Y-75870500D01*
X200738768Y-75870500D01*
X200738769Y-75870499D01*
X200903082Y-75837816D01*
X201057863Y-75773703D01*
X201197162Y-75680626D01*
X201315626Y-75562162D01*
X201408703Y-75422863D01*
X201472816Y-75268082D01*
X201505500Y-75103767D01*
X201505500Y-74936233D01*
X201472816Y-74771918D01*
X201408703Y-74617137D01*
X201348004Y-74526295D01*
X201315626Y-74477837D01*
X201197162Y-74359373D01*
X201057860Y-74266295D01*
X200903082Y-74202184D01*
X200903074Y-74202182D01*
X200738771Y-74169500D01*
X200738767Y-74169500D01*
X200021233Y-74169500D01*
X200021228Y-74169500D01*
X199856925Y-74202182D01*
X199856917Y-74202184D01*
X199702139Y-74266295D01*
X199562837Y-74359373D01*
X199444376Y-74477834D01*
X199427602Y-74502939D01*
X199373989Y-74547743D01*
X199304664Y-74556450D01*
X199241637Y-74526295D01*
X199204918Y-74466852D01*
X199200500Y-74434047D01*
X199200500Y-73827828D01*
X199220185Y-73760789D01*
X199272989Y-73715034D01*
X199342147Y-73705090D01*
X199398811Y-73728562D01*
X199512664Y-73813793D01*
X199512671Y-73813797D01*
X199647517Y-73864091D01*
X199647516Y-73864091D01*
X199654444Y-73864835D01*
X199707127Y-73870500D01*
X201052872Y-73870499D01*
X201112483Y-73864091D01*
X201247331Y-73813796D01*
X201362546Y-73727546D01*
X201448796Y-73612331D01*
X201499091Y-73477483D01*
X201505500Y-73417873D01*
X201505499Y-72622128D01*
X201499091Y-72562517D01*
X201496354Y-72555180D01*
X201448797Y-72427671D01*
X201448793Y-72427664D01*
X201362547Y-72312455D01*
X201362544Y-72312452D01*
X201247335Y-72226206D01*
X201247328Y-72226202D01*
X201112482Y-72175908D01*
X201112483Y-72175908D01*
X201052883Y-72169501D01*
X201052881Y-72169500D01*
X201052873Y-72169500D01*
X201052864Y-72169500D01*
X199707129Y-72169500D01*
X199707123Y-72169501D01*
X199647516Y-72175908D01*
X199512671Y-72226202D01*
X199512669Y-72226204D01*
X199398811Y-72311438D01*
X199333347Y-72335855D01*
X199265074Y-72321004D01*
X199215668Y-72271598D01*
X199200500Y-72212171D01*
X199200500Y-68193428D01*
X200610000Y-68193428D01*
X200610000Y-68366571D01*
X200637085Y-68537584D01*
X200690591Y-68702257D01*
X200769198Y-68856528D01*
X200833219Y-68944646D01*
X200833220Y-68944647D01*
X201266329Y-68511538D01*
X201309901Y-68587007D01*
X201402993Y-68680099D01*
X201478460Y-68723670D01*
X201045351Y-69156778D01*
X201045352Y-69156780D01*
X201133471Y-69220801D01*
X201287742Y-69299408D01*
X201452415Y-69352914D01*
X201623429Y-69380000D01*
X201796571Y-69380000D01*
X201967584Y-69352914D01*
X202132257Y-69299408D01*
X202286525Y-69220803D01*
X202374646Y-69156778D01*
X202374647Y-69156778D01*
X201941539Y-68723670D01*
X202017007Y-68680099D01*
X202110099Y-68587007D01*
X202153670Y-68511539D01*
X202586778Y-68944647D01*
X202586778Y-68944646D01*
X202650803Y-68856525D01*
X202729408Y-68702257D01*
X202782914Y-68537584D01*
X202810000Y-68366571D01*
X202810000Y-68193428D01*
X202782914Y-68022415D01*
X202729408Y-67857742D01*
X202650801Y-67703471D01*
X202586780Y-67615352D01*
X202586778Y-67615351D01*
X202153670Y-68048460D01*
X202110099Y-67972993D01*
X202017007Y-67879901D01*
X201941538Y-67836329D01*
X202372546Y-67405321D01*
X203149500Y-67405321D01*
X203149500Y-69154678D01*
X203164032Y-69227735D01*
X203164033Y-69227739D01*
X203164034Y-69227740D01*
X203219399Y-69310601D01*
X203301091Y-69365185D01*
X203302260Y-69365966D01*
X203302264Y-69365967D01*
X203375321Y-69380499D01*
X203375324Y-69380500D01*
X203375326Y-69380500D01*
X205124676Y-69380500D01*
X205124677Y-69380499D01*
X205197740Y-69365966D01*
X205280601Y-69310601D01*
X205335966Y-69227740D01*
X205350500Y-69154674D01*
X205350500Y-67405326D01*
X205350500Y-67405323D01*
X205350499Y-67405321D01*
X205335967Y-67332264D01*
X205335966Y-67332260D01*
X205280601Y-67249399D01*
X205197740Y-67194034D01*
X205197739Y-67194033D01*
X205197735Y-67194032D01*
X205124677Y-67179500D01*
X205124674Y-67179500D01*
X203375326Y-67179500D01*
X203375323Y-67179500D01*
X203302264Y-67194032D01*
X203302260Y-67194033D01*
X203219399Y-67249399D01*
X203164033Y-67332260D01*
X203164032Y-67332264D01*
X203149500Y-67405321D01*
X202372546Y-67405321D01*
X202374647Y-67403220D01*
X202374646Y-67403219D01*
X202286528Y-67339198D01*
X202132257Y-67260591D01*
X201967584Y-67207085D01*
X201796571Y-67180000D01*
X201623429Y-67180000D01*
X201452415Y-67207085D01*
X201287742Y-67260591D01*
X201133478Y-67339194D01*
X201045352Y-67403220D01*
X201478461Y-67836329D01*
X201402993Y-67879901D01*
X201309901Y-67972993D01*
X201266329Y-68048461D01*
X200833220Y-67615352D01*
X200769194Y-67703478D01*
X200690591Y-67857742D01*
X200637085Y-68022415D01*
X200610000Y-68193428D01*
X199200500Y-68193428D01*
X199200500Y-51329343D01*
X199220185Y-51262304D01*
X199272989Y-51216549D01*
X199342147Y-51206605D01*
X199405703Y-51235630D01*
X199423767Y-51255032D01*
X199462813Y-51307190D01*
X199577906Y-51393350D01*
X199577913Y-51393354D01*
X199712620Y-51443596D01*
X199712627Y-51443598D01*
X199772155Y-51449999D01*
X199772172Y-51450000D01*
X201170000Y-51450000D01*
X201470000Y-51450000D01*
X202867828Y-51450000D01*
X202867844Y-51449999D01*
X202927372Y-51443598D01*
X202927379Y-51443596D01*
X203062086Y-51393354D01*
X203062093Y-51393350D01*
X203177187Y-51307190D01*
X203177190Y-51307187D01*
X203263350Y-51192093D01*
X203263354Y-51192086D01*
X203313596Y-51057379D01*
X203313598Y-51057372D01*
X203319999Y-50997844D01*
X203320000Y-50997827D01*
X203320000Y-50450000D01*
X201470000Y-50450000D01*
X201470000Y-51450000D01*
X201170000Y-51450000D01*
X201170000Y-50150000D01*
X201470000Y-50150000D01*
X203320000Y-50150000D01*
X203320000Y-49602172D01*
X203319999Y-49602155D01*
X203313598Y-49542627D01*
X203313596Y-49542620D01*
X203263354Y-49407913D01*
X203263350Y-49407906D01*
X203177190Y-49292812D01*
X203177187Y-49292809D01*
X203062093Y-49206649D01*
X203062086Y-49206645D01*
X202927379Y-49156403D01*
X202927372Y-49156401D01*
X202867844Y-49150000D01*
X201470000Y-49150000D01*
X201470000Y-50150000D01*
X201170000Y-50150000D01*
X201170000Y-49150000D01*
X199772155Y-49150000D01*
X199712627Y-49156401D01*
X199712620Y-49156403D01*
X199577913Y-49206645D01*
X199577906Y-49206649D01*
X199462812Y-49292809D01*
X199423766Y-49344968D01*
X199367832Y-49386838D01*
X199298140Y-49391822D01*
X199236818Y-49358336D01*
X199203333Y-49297012D01*
X199200500Y-49270656D01*
X199200500Y-46353051D01*
X199200649Y-46346967D01*
X199202369Y-46311956D01*
X199217052Y-46013068D01*
X199218245Y-46000962D01*
X199239966Y-45854531D01*
X199266849Y-45673296D01*
X199269218Y-45661385D01*
X199349710Y-45340043D01*
X199353240Y-45328411D01*
X199383775Y-45243072D01*
X199464835Y-45016525D01*
X199469476Y-45005318D01*
X199611124Y-44705828D01*
X199616840Y-44695136D01*
X199787145Y-44410998D01*
X199793888Y-44400905D01*
X199991232Y-44134818D01*
X199998935Y-44125433D01*
X200221405Y-43879975D01*
X200229975Y-43871405D01*
X200475433Y-43648935D01*
X200484818Y-43641232D01*
X200750905Y-43443888D01*
X200760998Y-43437145D01*
X201045136Y-43266840D01*
X201055828Y-43261124D01*
X201355318Y-43119476D01*
X201366525Y-43114835D01*
X201678412Y-43003239D01*
X201690043Y-42999710D01*
X202011385Y-42919218D01*
X202023296Y-42916849D01*
X202350962Y-42868244D01*
X202363068Y-42867052D01*
X202696967Y-42850648D01*
X202703051Y-42850500D01*
X202765892Y-42850500D01*
X224634108Y-42850500D01*
X224696949Y-42850500D01*
X224703032Y-42850648D01*
G37*
%TD.AperFunction*%
%TA.AperFunction,Conductor*%
G36*
X211360101Y-63620485D02*
G01*
X211405856Y-63673289D01*
X211415800Y-63742447D01*
X211413943Y-63752238D01*
X211407500Y-63812155D01*
X211407500Y-64360000D01*
X213232500Y-64360000D01*
X213232500Y-63900869D01*
X213252185Y-63833830D01*
X213304989Y-63788075D01*
X213374147Y-63778131D01*
X213437703Y-63807156D01*
X213475477Y-63865934D01*
X213476259Y-63868718D01*
X213509851Y-63994082D01*
X213510817Y-63997688D01*
X213583288Y-64123211D01*
X213583293Y-64123217D01*
X213636981Y-64176905D01*
X213670466Y-64238228D01*
X213673300Y-64264586D01*
X213673300Y-65959655D01*
X213653615Y-66026694D01*
X213636981Y-66047336D01*
X212989870Y-66694446D01*
X212928547Y-66727931D01*
X212858860Y-66722948D01*
X212839987Y-66715909D01*
X212839983Y-66715908D01*
X212780383Y-66709501D01*
X212780381Y-66709500D01*
X212780373Y-66709500D01*
X212780364Y-66709500D01*
X211859629Y-66709500D01*
X211859623Y-66709501D01*
X211800016Y-66715908D01*
X211665171Y-66766202D01*
X211665164Y-66766206D01*
X211549955Y-66852452D01*
X211549952Y-66852455D01*
X211463706Y-66967664D01*
X211463702Y-66967671D01*
X211413408Y-67102517D01*
X211407001Y-67162116D01*
X211407001Y-67162123D01*
X211407000Y-67162135D01*
X211407000Y-68557870D01*
X211407001Y-68557876D01*
X211413408Y-68617483D01*
X211463702Y-68752328D01*
X211463706Y-68752335D01*
X211549952Y-68867544D01*
X211549955Y-68867547D01*
X211665164Y-68953793D01*
X211665171Y-68953797D01*
X211697597Y-68965891D01*
X211800017Y-69004091D01*
X211859627Y-69010500D01*
X212232556Y-69010499D01*
X212299594Y-69030183D01*
X212345349Y-69082987D01*
X212355293Y-69152146D01*
X212326268Y-69215701D01*
X212320236Y-69222180D01*
X212217243Y-69325173D01*
X212155920Y-69358658D01*
X212124302Y-69359977D01*
X212124302Y-69360800D01*
X212116175Y-69360800D01*
X211971225Y-69360800D01*
X211842693Y-69395240D01*
X211831211Y-69398317D01*
X211705688Y-69470788D01*
X211705682Y-69470793D01*
X211651995Y-69524481D01*
X211590672Y-69557966D01*
X211564314Y-69560800D01*
X211442843Y-69560800D01*
X211375804Y-69541115D01*
X211355162Y-69524481D01*
X210144318Y-68313637D01*
X210110833Y-68252314D01*
X210107999Y-68225956D01*
X210107999Y-67162129D01*
X210107998Y-67162123D01*
X210107997Y-67162116D01*
X210101591Y-67102517D01*
X210099611Y-67097209D01*
X210051297Y-66967671D01*
X210051293Y-66967664D01*
X209965047Y-66852455D01*
X209965044Y-66852452D01*
X209849835Y-66766206D01*
X209849828Y-66766202D01*
X209714982Y-66715908D01*
X209714983Y-66715908D01*
X209655383Y-66709501D01*
X209655381Y-66709500D01*
X209655373Y-66709500D01*
X209655364Y-66709500D01*
X208734629Y-66709500D01*
X208734623Y-66709501D01*
X208709853Y-66712164D01*
X208641094Y-66699757D01*
X208589957Y-66652146D01*
X208572600Y-66588874D01*
X208572600Y-65781125D01*
X208592285Y-65714086D01*
X208645089Y-65668331D01*
X208709855Y-65657836D01*
X208734627Y-65660500D01*
X209655372Y-65660499D01*
X209714983Y-65654091D01*
X209849831Y-65603796D01*
X209965046Y-65517546D01*
X210051296Y-65402331D01*
X210101591Y-65267483D01*
X210108000Y-65207873D01*
X210108000Y-65207844D01*
X211407500Y-65207844D01*
X211413901Y-65267372D01*
X211413903Y-65267379D01*
X211464145Y-65402086D01*
X211464149Y-65402093D01*
X211550309Y-65517187D01*
X211550312Y-65517190D01*
X211665406Y-65603350D01*
X211665413Y-65603354D01*
X211800120Y-65653596D01*
X211800127Y-65653598D01*
X211859655Y-65659999D01*
X211859672Y-65660000D01*
X212170000Y-65660000D01*
X212470000Y-65660000D01*
X212780328Y-65660000D01*
X212780344Y-65659999D01*
X212839872Y-65653598D01*
X212839879Y-65653596D01*
X212974586Y-65603354D01*
X212974593Y-65603350D01*
X213089687Y-65517190D01*
X213089690Y-65517187D01*
X213175850Y-65402093D01*
X213175854Y-65402086D01*
X213226096Y-65267379D01*
X213226098Y-65267372D01*
X213232499Y-65207844D01*
X213232500Y-65207827D01*
X213232500Y-64660000D01*
X212470000Y-64660000D01*
X212470000Y-65660000D01*
X212170000Y-65660000D01*
X212170000Y-64660000D01*
X211407500Y-64660000D01*
X211407500Y-65207844D01*
X210108000Y-65207844D01*
X210107999Y-64506214D01*
X210107999Y-63812129D01*
X210107998Y-63812123D01*
X210107574Y-63808181D01*
X210101591Y-63752517D01*
X210100762Y-63744804D01*
X210102243Y-63744644D01*
X210105522Y-63683542D01*
X210146391Y-63626872D01*
X210211410Y-63601293D01*
X210222457Y-63600800D01*
X211293062Y-63600800D01*
X211360101Y-63620485D01*
G37*
%TD.AperFunction*%
%TA.AperFunction,Conductor*%
G36*
X214779406Y-62804385D02*
G01*
X214825161Y-62857189D01*
X214835105Y-62926347D01*
X214828549Y-62952034D01*
X214820908Y-62972518D01*
X214815092Y-63026622D01*
X214814501Y-63032123D01*
X214814500Y-63032135D01*
X214814500Y-63927867D01*
X214814501Y-63927876D01*
X214820908Y-63987483D01*
X214871202Y-64122328D01*
X214871206Y-64122335D01*
X214957452Y-64237544D01*
X214957455Y-64237547D01*
X215072664Y-64323793D01*
X215072671Y-64323797D01*
X215207517Y-64374091D01*
X215207516Y-64374091D01*
X215214444Y-64374835D01*
X215267127Y-64380500D01*
X216602714Y-64380499D01*
X216669753Y-64400184D01*
X216715508Y-64452987D01*
X216725452Y-64522146D01*
X216696427Y-64585702D01*
X216690396Y-64592180D01*
X216589488Y-64693088D01*
X216517017Y-64818611D01*
X216517016Y-64818615D01*
X216479500Y-64958625D01*
X216479500Y-65103575D01*
X216511492Y-65222970D01*
X216517017Y-65243588D01*
X216589488Y-65369111D01*
X216589493Y-65369117D01*
X216688695Y-65468319D01*
X216722180Y-65529642D01*
X216717196Y-65599334D01*
X216675324Y-65655267D01*
X216609860Y-65679684D01*
X216601014Y-65680000D01*
X216090000Y-65680000D01*
X216090000Y-66430000D01*
X217065000Y-66430000D01*
X217065000Y-66132172D01*
X217064999Y-66132155D01*
X217058598Y-66072627D01*
X217058596Y-66072620D01*
X217008354Y-65937913D01*
X217008350Y-65937906D01*
X216922190Y-65822813D01*
X216898218Y-65804867D01*
X216856347Y-65748933D01*
X216851363Y-65679241D01*
X216884848Y-65617918D01*
X216946172Y-65584434D01*
X216972529Y-65581600D01*
X217033456Y-65581600D01*
X217100495Y-65601285D01*
X217121136Y-65617918D01*
X217343988Y-65840770D01*
X217404541Y-65875730D01*
X217423912Y-65886914D01*
X217513056Y-65910800D01*
X217513058Y-65910800D01*
X218013165Y-65910800D01*
X218080204Y-65930485D01*
X218125959Y-65983289D01*
X218135903Y-66052447D01*
X218132709Y-66064957D01*
X218133187Y-66065070D01*
X218131401Y-66072627D01*
X218125000Y-66132155D01*
X218125000Y-66430000D01*
X220375000Y-66430000D01*
X220375000Y-66132172D01*
X220374999Y-66132155D01*
X220368598Y-66072627D01*
X220368596Y-66072620D01*
X220318354Y-65937913D01*
X220318350Y-65937906D01*
X220232190Y-65822812D01*
X220232187Y-65822809D01*
X220117093Y-65736649D01*
X220117086Y-65736645D01*
X219982379Y-65686403D01*
X219982372Y-65686401D01*
X219922844Y-65680000D01*
X219881244Y-65680000D01*
X219814205Y-65660315D01*
X219768450Y-65607511D01*
X219758506Y-65538353D01*
X219787531Y-65474797D01*
X219793563Y-65468319D01*
X219981500Y-65280382D01*
X220179070Y-65082812D01*
X220225214Y-65002888D01*
X220237074Y-64958625D01*
X220249100Y-64913744D01*
X220249100Y-64256702D01*
X220268785Y-64189663D01*
X220273815Y-64182416D01*
X220318796Y-64122331D01*
X220369091Y-63987483D01*
X220372748Y-63953465D01*
X220399485Y-63888917D01*
X220456877Y-63849069D01*
X220526702Y-63846575D01*
X220583718Y-63879042D01*
X220626285Y-63921609D01*
X220626286Y-63921610D01*
X220626288Y-63921611D01*
X220751811Y-63994082D01*
X220751812Y-63994082D01*
X220751815Y-63994084D01*
X220891825Y-64031600D01*
X220891828Y-64031600D01*
X221036772Y-64031600D01*
X221036775Y-64031600D01*
X221176785Y-63994084D01*
X221176787Y-63994082D01*
X221176789Y-63994082D01*
X221176790Y-63994081D01*
X221244686Y-63954881D01*
X221312585Y-63938407D01*
X221378613Y-63961259D01*
X221421804Y-64016179D01*
X221428446Y-64085732D01*
X221396431Y-64147836D01*
X221394369Y-64149948D01*
X221063228Y-64481090D01*
X221028649Y-64540985D01*
X221028648Y-64540986D01*
X221017087Y-64561009D01*
X221017086Y-64561012D01*
X220993200Y-64650156D01*
X220993200Y-67908000D01*
X220973515Y-67975039D01*
X220920711Y-68020794D01*
X220869200Y-68032000D01*
X220817128Y-68032000D01*
X220817120Y-68032000D01*
X220817117Y-68032001D01*
X220757518Y-68038408D01*
X220622672Y-68088702D01*
X220622670Y-68088704D01*
X220507453Y-68174955D01*
X220460025Y-68238310D01*
X220404091Y-68280180D01*
X220334399Y-68285164D01*
X220273076Y-68251678D01*
X220253372Y-68225998D01*
X220246545Y-68214174D01*
X220183909Y-68105685D01*
X220081415Y-68003191D01*
X220081413Y-68003190D01*
X220081411Y-68003188D01*
X219955888Y-67930717D01*
X219955889Y-67930717D01*
X219944406Y-67927640D01*
X219815875Y-67893200D01*
X219815872Y-67893200D01*
X219739944Y-67893200D01*
X219672905Y-67873515D01*
X219652263Y-67856881D01*
X219488965Y-67693583D01*
X219490870Y-67691677D01*
X219457480Y-67645954D01*
X219453322Y-67576208D01*
X219487531Y-67515286D01*
X219549246Y-67482530D01*
X219574167Y-67480000D01*
X219922828Y-67480000D01*
X219922844Y-67479999D01*
X219982372Y-67473598D01*
X219982379Y-67473596D01*
X220117086Y-67423354D01*
X220117093Y-67423350D01*
X220232187Y-67337190D01*
X220232190Y-67337187D01*
X220318350Y-67222093D01*
X220318354Y-67222086D01*
X220368596Y-67087379D01*
X220368598Y-67087372D01*
X220374999Y-67027844D01*
X220375000Y-67027827D01*
X220375000Y-66730000D01*
X218125000Y-66730000D01*
X218125000Y-67027844D01*
X218131401Y-67087372D01*
X218131403Y-67087379D01*
X218181645Y-67222086D01*
X218181649Y-67222093D01*
X218267809Y-67337187D01*
X218267812Y-67337190D01*
X218359775Y-67406034D01*
X218401646Y-67461967D01*
X218406630Y-67531659D01*
X218373144Y-67592982D01*
X218311821Y-67626466D01*
X218285464Y-67629300D01*
X216904536Y-67629300D01*
X216837497Y-67609615D01*
X216791742Y-67556811D01*
X216781798Y-67487653D01*
X216810823Y-67424097D01*
X216830225Y-67406034D01*
X216922187Y-67337190D01*
X216922190Y-67337187D01*
X217008350Y-67222093D01*
X217008354Y-67222086D01*
X217058596Y-67087379D01*
X217058598Y-67087372D01*
X217064999Y-67027844D01*
X217065000Y-67027827D01*
X217065000Y-66730000D01*
X214815000Y-66730000D01*
X214815000Y-67027844D01*
X214821401Y-67087372D01*
X214821403Y-67087379D01*
X214871645Y-67222086D01*
X214871649Y-67222093D01*
X214957809Y-67337187D01*
X214957812Y-67337190D01*
X215049775Y-67406034D01*
X215091646Y-67461967D01*
X215096630Y-67531659D01*
X215063144Y-67592982D01*
X215001821Y-67626466D01*
X214975464Y-67629300D01*
X213749254Y-67629300D01*
X213691452Y-67644788D01*
X213691451Y-67644787D01*
X213660116Y-67653184D01*
X213660109Y-67653187D01*
X213580194Y-67699326D01*
X213580190Y-67699328D01*
X213444680Y-67834838D01*
X213383357Y-67868322D01*
X213313665Y-67863338D01*
X213257732Y-67821466D01*
X213233315Y-67756002D01*
X213232999Y-67747156D01*
X213232999Y-67494044D01*
X213252684Y-67427005D01*
X213269318Y-67406363D01*
X213745181Y-66930500D01*
X214304270Y-66371412D01*
X214350414Y-66291488D01*
X214367023Y-66229501D01*
X214374300Y-66202344D01*
X214374300Y-66132155D01*
X214815000Y-66132155D01*
X214815000Y-66430000D01*
X215790000Y-66430000D01*
X215790000Y-65680000D01*
X215267155Y-65680000D01*
X215207627Y-65686401D01*
X215207620Y-65686403D01*
X215072913Y-65736645D01*
X215072906Y-65736649D01*
X214957812Y-65822809D01*
X214957809Y-65822812D01*
X214871649Y-65937906D01*
X214871645Y-65937913D01*
X214821403Y-66072620D01*
X214821401Y-66072627D01*
X214815000Y-66132155D01*
X214374300Y-66132155D01*
X214374300Y-64264586D01*
X214393985Y-64197547D01*
X214410619Y-64176905D01*
X214464309Y-64123215D01*
X214536784Y-63997685D01*
X214574300Y-63857675D01*
X214574300Y-63712725D01*
X214536784Y-63572715D01*
X214534745Y-63569184D01*
X214464311Y-63447188D01*
X214464306Y-63447182D01*
X214361817Y-63344693D01*
X214361811Y-63344688D01*
X214236288Y-63272217D01*
X214236289Y-63272217D01*
X214231502Y-63270934D01*
X214202865Y-63263261D01*
X214143207Y-63226896D01*
X214112678Y-63164049D01*
X214112023Y-63127295D01*
X214112500Y-63123673D01*
X214112500Y-62978727D01*
X214112500Y-62978725D01*
X214102336Y-62940792D01*
X214103999Y-62870943D01*
X214143162Y-62813081D01*
X214207390Y-62785577D01*
X214222111Y-62784700D01*
X214712367Y-62784700D01*
X214779406Y-62804385D01*
G37*
%TD.AperFunction*%
%TA.AperFunction,Conductor*%
G36*
X206017401Y-56529859D02*
G01*
X206070240Y-56554499D01*
X206115821Y-56560500D01*
X206314178Y-56560499D01*
X206324273Y-56559170D01*
X206393309Y-56569936D01*
X206445564Y-56616316D01*
X206447845Y-56620109D01*
X206455927Y-56634108D01*
X206460876Y-56640557D01*
X206459312Y-56641756D01*
X206487672Y-56693692D01*
X206489258Y-56731735D01*
X206489766Y-56731769D01*
X206489500Y-56735827D01*
X206489500Y-56934180D01*
X206495500Y-56979756D01*
X206495503Y-56979766D01*
X206520138Y-57032596D01*
X206530630Y-57101673D01*
X206520139Y-57137403D01*
X206514361Y-57149796D01*
X206495500Y-57190243D01*
X206489501Y-57235811D01*
X206489500Y-57235827D01*
X206489500Y-57434180D01*
X206495500Y-57479756D01*
X206495503Y-57479766D01*
X206520138Y-57532596D01*
X206530630Y-57601673D01*
X206520139Y-57637403D01*
X206497712Y-57685500D01*
X206495500Y-57690243D01*
X206489501Y-57735811D01*
X206489500Y-57735827D01*
X206489500Y-57934180D01*
X206495500Y-57979756D01*
X206495503Y-57979766D01*
X206520138Y-58032596D01*
X206530630Y-58101673D01*
X206520139Y-58137403D01*
X206499818Y-58180984D01*
X206495500Y-58190243D01*
X206489501Y-58235811D01*
X206489500Y-58235827D01*
X206489500Y-58434180D01*
X206495500Y-58479756D01*
X206495502Y-58479763D01*
X206520414Y-58533186D01*
X206530906Y-58602263D01*
X206520414Y-58637995D01*
X206495992Y-58690367D01*
X206495990Y-58690375D01*
X206493406Y-58709998D01*
X206493408Y-58710000D01*
X206754134Y-58710000D01*
X206762245Y-58710266D01*
X206765812Y-58710498D01*
X206765821Y-58710500D01*
X207014047Y-58710499D01*
X207040665Y-58718314D01*
X207068027Y-58722865D01*
X207076044Y-58727110D01*
X207078644Y-58728611D01*
X207079776Y-58729798D01*
X207081086Y-58730183D01*
X207097291Y-58742595D01*
X207234744Y-58867096D01*
X207243043Y-58880656D01*
X207266294Y-58907489D01*
X207270059Y-58924799D01*
X207271217Y-58926690D01*
X207271148Y-58929803D01*
X207277500Y-58959000D01*
X207277500Y-59209999D01*
X207539115Y-59209999D01*
X207584630Y-59204007D01*
X207684509Y-59157432D01*
X207762434Y-59079507D01*
X207791835Y-59016457D01*
X207838007Y-58964017D01*
X207905200Y-58944865D01*
X207972081Y-58965080D01*
X207991898Y-58981180D01*
X208809229Y-59798511D01*
X208842714Y-59859834D01*
X208837730Y-59929526D01*
X208795858Y-59985459D01*
X208734802Y-60009482D01*
X208675016Y-60015909D01*
X208540171Y-60066202D01*
X208540164Y-60066206D01*
X208424955Y-60152452D01*
X208424952Y-60152455D01*
X208338706Y-60267664D01*
X208338702Y-60267671D01*
X208288408Y-60402517D01*
X208285620Y-60428454D01*
X208282001Y-60462125D01*
X208282000Y-60462135D01*
X208282000Y-61525955D01*
X208262315Y-61592994D01*
X208245681Y-61613636D01*
X207328929Y-62530388D01*
X207304320Y-62573013D01*
X207287322Y-62602456D01*
X207287320Y-62602460D01*
X207282786Y-62610310D01*
X207261672Y-62689110D01*
X207229579Y-62744697D01*
X207168888Y-62805388D01*
X207096417Y-62930911D01*
X207096416Y-62930915D01*
X207058900Y-63070925D01*
X207058900Y-63215875D01*
X207082269Y-63303088D01*
X207096417Y-63355888D01*
X207168888Y-63481411D01*
X207168890Y-63481413D01*
X207168891Y-63481415D01*
X207271385Y-63583909D01*
X207271388Y-63583911D01*
X207277834Y-63588857D01*
X207276959Y-63589996D01*
X207319089Y-63634183D01*
X207332310Y-63702790D01*
X207306341Y-63767654D01*
X207249426Y-63808181D01*
X207208872Y-63815000D01*
X207153856Y-63815000D01*
X207068290Y-63837927D01*
X207064716Y-63838884D01*
X207064709Y-63838887D01*
X206984791Y-63885027D01*
X206984786Y-63885031D01*
X205542181Y-65327637D01*
X205480858Y-65361122D01*
X205411166Y-65356138D01*
X205355233Y-65314266D01*
X205330816Y-65248802D01*
X205330500Y-65239956D01*
X205330500Y-63795323D01*
X205330499Y-63795321D01*
X205315967Y-63722264D01*
X205315966Y-63722260D01*
X205302957Y-63702790D01*
X205260601Y-63639399D01*
X205205235Y-63602405D01*
X205177739Y-63584033D01*
X205177735Y-63584032D01*
X205104677Y-63569500D01*
X205104674Y-63569500D01*
X204701731Y-63569500D01*
X204634692Y-63549815D01*
X204588937Y-63497011D01*
X204581956Y-63477593D01*
X204580500Y-63472159D01*
X204580500Y-63472156D01*
X204556614Y-63383012D01*
X204540952Y-63355885D01*
X204510473Y-63303094D01*
X204510470Y-63303091D01*
X204510469Y-63303088D01*
X204445212Y-63237831D01*
X204064570Y-62857189D01*
X203664319Y-62456937D01*
X203630834Y-62395614D01*
X203628000Y-62369256D01*
X203628000Y-60655487D01*
X203647685Y-60588448D01*
X203700489Y-60542693D01*
X203769647Y-60532749D01*
X203833203Y-60561774D01*
X203870977Y-60620552D01*
X203871775Y-60623395D01*
X203885908Y-60676142D01*
X203888385Y-60685386D01*
X203888387Y-60685391D01*
X203934527Y-60765308D01*
X203934529Y-60765311D01*
X203934530Y-60765312D01*
X204479522Y-61310304D01*
X204998381Y-61829162D01*
X205031866Y-61890485D01*
X205034700Y-61916843D01*
X205034700Y-61992775D01*
X205053789Y-62064015D01*
X205072217Y-62132788D01*
X205144688Y-62258311D01*
X205144690Y-62258313D01*
X205144691Y-62258315D01*
X205247185Y-62360809D01*
X205247186Y-62360810D01*
X205247188Y-62360811D01*
X205372711Y-62433282D01*
X205372712Y-62433282D01*
X205372715Y-62433284D01*
X205512725Y-62470800D01*
X205512728Y-62470800D01*
X205657672Y-62470800D01*
X205657675Y-62470800D01*
X205797685Y-62433284D01*
X205923215Y-62360809D01*
X206025709Y-62258315D01*
X206098184Y-62132785D01*
X206135700Y-61992775D01*
X206135700Y-61947100D01*
X206155385Y-61880061D01*
X206208189Y-61834306D01*
X206259700Y-61823100D01*
X206408372Y-61823100D01*
X206408375Y-61823100D01*
X206548385Y-61785584D01*
X206673915Y-61713109D01*
X206776409Y-61610615D01*
X206848884Y-61485085D01*
X206886400Y-61345075D01*
X206886400Y-61200125D01*
X206865335Y-61121510D01*
X206866998Y-61051666D01*
X206906160Y-60993803D01*
X206953013Y-60969648D01*
X207014085Y-60953284D01*
X207139615Y-60880809D01*
X207242109Y-60778315D01*
X207314584Y-60652785D01*
X207352100Y-60512775D01*
X207352100Y-60367825D01*
X207314584Y-60227815D01*
X207274956Y-60159178D01*
X207242111Y-60102288D01*
X207242106Y-60102282D01*
X207139617Y-59999793D01*
X207139611Y-59999788D01*
X207014088Y-59927317D01*
X207014089Y-59927317D01*
X206972928Y-59916288D01*
X206874075Y-59889800D01*
X206729125Y-59889800D01*
X206729123Y-59889800D01*
X206682479Y-59902298D01*
X206612629Y-59900634D01*
X206607487Y-59897500D01*
X205840001Y-59897500D01*
X205840001Y-60040357D01*
X205820316Y-60107396D01*
X205767512Y-60153151D01*
X205698354Y-60163095D01*
X205634798Y-60134070D01*
X205628320Y-60128038D01*
X205626818Y-60126536D01*
X205593333Y-60065213D01*
X205590499Y-60038855D01*
X205590499Y-59385877D01*
X205840000Y-59385877D01*
X205840000Y-59647500D01*
X206090000Y-59647500D01*
X206090000Y-59113407D01*
X206089998Y-59113406D01*
X206070375Y-59115990D01*
X206070370Y-59115991D01*
X205970491Y-59162566D01*
X205892566Y-59240491D01*
X205845990Y-59340373D01*
X205840000Y-59385877D01*
X205590499Y-59385877D01*
X205590499Y-59385819D01*
X205585868Y-59350643D01*
X205584499Y-59340240D01*
X205537850Y-59240201D01*
X205459799Y-59162150D01*
X205359760Y-59115501D01*
X205359758Y-59115500D01*
X205343844Y-59113405D01*
X206340000Y-59113405D01*
X206340000Y-59647500D01*
X206589999Y-59647500D01*
X206589999Y-59385878D01*
X206584427Y-59343549D01*
X206595194Y-59274514D01*
X206641575Y-59222259D01*
X206708844Y-59203375D01*
X206723553Y-59204427D01*
X206765880Y-59209999D01*
X207027499Y-59209999D01*
X207027500Y-59209998D01*
X207027500Y-59013988D01*
X206967895Y-58960000D01*
X206493408Y-58960000D01*
X206493406Y-58960001D01*
X206495572Y-58976448D01*
X206484806Y-59045483D01*
X206438425Y-59097739D01*
X206371156Y-59116623D01*
X206356445Y-59115571D01*
X206340000Y-59113405D01*
X205343844Y-59113405D01*
X205314188Y-59109501D01*
X205314185Y-59109500D01*
X205314179Y-59109500D01*
X205314172Y-59109500D01*
X205115819Y-59109500D01*
X205070243Y-59115500D01*
X205070238Y-59115501D01*
X205017403Y-59140139D01*
X204948325Y-59150630D01*
X204912595Y-59140138D01*
X204859759Y-59115500D01*
X204814188Y-59109501D01*
X204814185Y-59109500D01*
X204814179Y-59109500D01*
X204814172Y-59109500D01*
X204615819Y-59109500D01*
X204570243Y-59115500D01*
X204570238Y-59115501D01*
X204517403Y-59140139D01*
X204448325Y-59150630D01*
X204412595Y-59140138D01*
X204359759Y-59115500D01*
X204314188Y-59109501D01*
X204314185Y-59109500D01*
X204314179Y-59109500D01*
X204314172Y-59109500D01*
X204115826Y-59109500D01*
X204094194Y-59112347D01*
X204074131Y-59114988D01*
X204005098Y-59104221D01*
X203952844Y-59057840D01*
X203933960Y-58990571D01*
X203935012Y-58975863D01*
X203937100Y-58960001D01*
X203940500Y-58934179D01*
X203940499Y-58735822D01*
X203939796Y-58730485D01*
X203936058Y-58702086D01*
X203934499Y-58690240D01*
X203909860Y-58637403D01*
X203899369Y-58568327D01*
X203909858Y-58532601D01*
X203934499Y-58479760D01*
X203940500Y-58434179D01*
X203940499Y-58235822D01*
X203939379Y-58227317D01*
X203934499Y-58190243D01*
X203934499Y-58190240D01*
X203887850Y-58090201D01*
X203809799Y-58012150D01*
X203709760Y-57965501D01*
X203709758Y-57965500D01*
X203664188Y-57959501D01*
X203664185Y-57959500D01*
X203664179Y-57959500D01*
X203664172Y-57959500D01*
X202981444Y-57959500D01*
X202914405Y-57939815D01*
X202893763Y-57923181D01*
X202892762Y-57922180D01*
X202859277Y-57860857D01*
X202864261Y-57791165D01*
X202906133Y-57735232D01*
X202971597Y-57710815D01*
X202980418Y-57710499D01*
X203664178Y-57710499D01*
X203664180Y-57710499D01*
X203679372Y-57708499D01*
X203709760Y-57704499D01*
X203809799Y-57657850D01*
X203887850Y-57579799D01*
X203934499Y-57479760D01*
X203940500Y-57434179D01*
X203940499Y-57235822D01*
X203934499Y-57190240D01*
X203909860Y-57137403D01*
X203899369Y-57068327D01*
X203909858Y-57032601D01*
X203934499Y-56979760D01*
X203940500Y-56934179D01*
X203940499Y-56735822D01*
X203935011Y-56694133D01*
X203945777Y-56625101D01*
X203992157Y-56572845D01*
X204059426Y-56553960D01*
X204074136Y-56555012D01*
X204077215Y-56555417D01*
X204115821Y-56560500D01*
X204314178Y-56560499D01*
X204314180Y-56560499D01*
X204332775Y-56558051D01*
X204359760Y-56554499D01*
X204412597Y-56529860D01*
X204481671Y-56519369D01*
X204517401Y-56529859D01*
X204570240Y-56554499D01*
X204615821Y-56560500D01*
X204814178Y-56560499D01*
X204814180Y-56560499D01*
X204832775Y-56558051D01*
X204859760Y-56554499D01*
X204912597Y-56529860D01*
X204981671Y-56519369D01*
X205017401Y-56529859D01*
X205070240Y-56554499D01*
X205115821Y-56560500D01*
X205314178Y-56560499D01*
X205314180Y-56560499D01*
X205332775Y-56558051D01*
X205359760Y-56554499D01*
X205412597Y-56529860D01*
X205481671Y-56519369D01*
X205517401Y-56529859D01*
X205570240Y-56554499D01*
X205615821Y-56560500D01*
X205814178Y-56560499D01*
X205814180Y-56560499D01*
X205832775Y-56558051D01*
X205859760Y-56554499D01*
X205912597Y-56529860D01*
X205981671Y-56519369D01*
X206017401Y-56529859D01*
G37*
%TD.AperFunction*%
%TA.AperFunction,Conductor*%
G36*
X211354874Y-60310885D02*
G01*
X211400629Y-60363689D01*
X211411125Y-60428455D01*
X211407500Y-60462171D01*
X211407500Y-61010000D01*
X213232500Y-61010000D01*
X213232500Y-60983643D01*
X213252185Y-60916604D01*
X213304989Y-60870849D01*
X213374147Y-60860905D01*
X213437703Y-60889930D01*
X213444172Y-60895953D01*
X213608334Y-61060115D01*
X214420238Y-61872019D01*
X214453723Y-61933342D01*
X214448739Y-62003034D01*
X214406867Y-62058967D01*
X214341403Y-62083384D01*
X214332557Y-62083700D01*
X213342657Y-62083700D01*
X213275618Y-62064015D01*
X213229863Y-62011211D01*
X213219919Y-61942053D01*
X213224617Y-61923641D01*
X213226098Y-61917372D01*
X213232499Y-61857844D01*
X213232500Y-61857827D01*
X213232500Y-61310000D01*
X211407500Y-61310000D01*
X211407500Y-61857844D01*
X211413901Y-61917372D01*
X211415687Y-61924930D01*
X211414164Y-61925289D01*
X211418507Y-61986066D01*
X211385018Y-62047387D01*
X211323693Y-62080868D01*
X211297343Y-62083700D01*
X210218189Y-62083700D01*
X210151150Y-62064015D01*
X210105395Y-62011211D01*
X210095451Y-61942053D01*
X210099953Y-61924416D01*
X210101591Y-61917483D01*
X210102469Y-61909313D01*
X210108000Y-61857873D01*
X210107999Y-60462128D01*
X210104379Y-60428453D01*
X210116786Y-60359694D01*
X210164396Y-60308558D01*
X210227669Y-60291200D01*
X211287835Y-60291200D01*
X211354874Y-60310885D01*
G37*
%TD.AperFunction*%
%TA.AperFunction,Conductor*%
G36*
X211042732Y-57029652D02*
G01*
X211053761Y-57039442D01*
X211370681Y-57356362D01*
X211404166Y-57417685D01*
X211407000Y-57444043D01*
X211407000Y-57939815D01*
X211407001Y-58394000D01*
X211387317Y-58461039D01*
X211334513Y-58506794D01*
X211283001Y-58518000D01*
X211201125Y-58518000D01*
X211072593Y-58552440D01*
X211061111Y-58555517D01*
X210935588Y-58627988D01*
X210935582Y-58627993D01*
X210833093Y-58730482D01*
X210833088Y-58730488D01*
X210760617Y-58856011D01*
X210760616Y-58856015D01*
X210723100Y-58996025D01*
X210723100Y-59140975D01*
X210760061Y-59278912D01*
X210760617Y-59280988D01*
X210831754Y-59404200D01*
X210848227Y-59472100D01*
X210825375Y-59538127D01*
X210770453Y-59581318D01*
X210724367Y-59590200D01*
X209643643Y-59590200D01*
X209576604Y-59570515D01*
X209555962Y-59553881D01*
X209081319Y-59079238D01*
X209047834Y-59017915D01*
X209045000Y-58991557D01*
X209045000Y-57967132D01*
X209345000Y-57967132D01*
X209345000Y-58960000D01*
X209655328Y-58960000D01*
X209655344Y-58959999D01*
X209714872Y-58953598D01*
X209714879Y-58953596D01*
X209849586Y-58903354D01*
X209849593Y-58903350D01*
X209964687Y-58817190D01*
X209964690Y-58817187D01*
X210050850Y-58702093D01*
X210050854Y-58702086D01*
X210101096Y-58567379D01*
X210101098Y-58567372D01*
X210107499Y-58507844D01*
X210107500Y-58507827D01*
X210107500Y-57960000D01*
X209355917Y-57960000D01*
X209345000Y-57967132D01*
X209045000Y-57967132D01*
X209045000Y-57934000D01*
X209064685Y-57866961D01*
X209101178Y-57830191D01*
X209200488Y-57765308D01*
X209214685Y-57716961D01*
X209267489Y-57671206D01*
X209319000Y-57660000D01*
X210107500Y-57660000D01*
X210107500Y-57417747D01*
X210127185Y-57350708D01*
X210179989Y-57304953D01*
X210249147Y-57295009D01*
X210263584Y-57297970D01*
X210324525Y-57314300D01*
X210324527Y-57314300D01*
X210469472Y-57314300D01*
X210469475Y-57314300D01*
X210609485Y-57276784D01*
X210735015Y-57204309D01*
X210837509Y-57101815D01*
X210858693Y-57065122D01*
X210909260Y-57016908D01*
X210977867Y-57003684D01*
X211042732Y-57029652D01*
G37*
%TD.AperFunction*%
%TA.AperFunction,Conductor*%
G36*
X210484306Y-45152585D02*
G01*
X210530061Y-45205389D01*
X210540005Y-45274547D01*
X210517585Y-45329784D01*
X210507466Y-45343713D01*
X210478768Y-45383211D01*
X210400128Y-45537552D01*
X210346597Y-45702302D01*
X210346597Y-45702303D01*
X210319500Y-45873389D01*
X210319500Y-46046611D01*
X210346598Y-46217701D01*
X210400127Y-46382445D01*
X210478768Y-46536788D01*
X210580586Y-46676928D01*
X210703072Y-46799414D01*
X210843212Y-46901232D01*
X210997555Y-46979873D01*
X211162299Y-47033402D01*
X211333389Y-47060500D01*
X211333390Y-47060500D01*
X211506610Y-47060500D01*
X211506611Y-47060500D01*
X211677701Y-47033402D01*
X211842445Y-46979873D01*
X211996788Y-46901232D01*
X212136928Y-46799414D01*
X212216299Y-46720043D01*
X212277622Y-46686558D01*
X212347314Y-46691542D01*
X212391661Y-46720043D01*
X214422291Y-48750673D01*
X214455776Y-48811996D01*
X214450792Y-48881688D01*
X214408920Y-48937621D01*
X214380972Y-48951205D01*
X214381719Y-48953008D01*
X214374211Y-48956117D01*
X214248688Y-49028588D01*
X214142352Y-49134924D01*
X214081029Y-49168408D01*
X214011337Y-49163424D01*
X213955404Y-49121552D01*
X213944778Y-49102893D01*
X213944678Y-49102951D01*
X213915195Y-49051885D01*
X213915194Y-49051884D01*
X213901744Y-49028588D01*
X213894470Y-49015988D01*
X212833212Y-47954730D01*
X212833211Y-47954729D01*
X212833208Y-47954727D01*
X212753290Y-47908587D01*
X212753289Y-47908586D01*
X212753288Y-47908586D01*
X212664144Y-47884700D01*
X212664143Y-47884700D01*
X208811744Y-47884700D01*
X208744705Y-47865015D01*
X208724063Y-47848381D01*
X207388652Y-46512970D01*
X207355167Y-46451647D01*
X207358402Y-46386971D01*
X207365641Y-46364692D01*
X207413402Y-46217701D01*
X207440500Y-46046611D01*
X207440500Y-45873389D01*
X207413402Y-45702299D01*
X207359873Y-45537555D01*
X207281232Y-45383212D01*
X207242414Y-45329784D01*
X207218935Y-45263980D01*
X207234760Y-45195926D01*
X207284865Y-45147231D01*
X207342733Y-45132900D01*
X210417267Y-45132900D01*
X210484306Y-45152585D01*
G37*
%TD.AperFunction*%
%TD*%
D33*
X207449300Y-64767400D03*
X203505200Y-56125200D03*
X215033000Y-64985000D03*
X209180000Y-57810000D03*
X208067000Y-48488000D03*
X210494000Y-58541000D03*
X211700000Y-64510000D03*
X204559000Y-57819000D03*
X211700000Y-61160000D03*
X210954800Y-72399700D03*
X223744200Y-69697400D03*
X219743400Y-68443700D03*
X212812300Y-49303500D03*
X212043700Y-69911300D03*
X227167500Y-75271200D03*
X211712300Y-55043200D03*
X220964300Y-63481100D03*
X208873600Y-62648600D03*
X208464300Y-51678100D03*
X223746700Y-68698900D03*
X213562000Y-63051200D03*
X217367300Y-54679000D03*
X224177600Y-57582600D03*
X206801600Y-60440300D03*
X224377800Y-61082700D03*
X220908400Y-70681800D03*
X205585200Y-61920300D03*
X220113800Y-49389900D03*
X220993700Y-56403600D03*
X206335900Y-61272600D03*
X207609400Y-63143400D03*
X207717400Y-55276500D03*
X214605600Y-53708300D03*
X214023800Y-63785200D03*
X219920300Y-50230300D03*
X227563000Y-66656700D03*
X202295200Y-56874300D03*
X219189700Y-64726000D03*
X219191300Y-78141100D03*
X210397000Y-56763800D03*
X211273600Y-59068500D03*
X218073800Y-70573800D03*
X221922600Y-58817400D03*
X214586700Y-49469100D03*
X223921400Y-70730800D03*
X218404900Y-75931300D03*
X217030000Y-65031100D03*
D34*
X218730000Y-48810000D03*
X216730000Y-48810000D03*
X201260000Y-45960000D03*
X203800000Y-45960000D03*
X206340000Y-45960000D03*
X208880000Y-45960000D03*
X211420000Y-45960000D03*
X201830000Y-78710000D03*
X204250000Y-68280000D03*
X201710000Y-68280000D03*
D35*
X215660000Y-75045000D03*
D36*
X215660000Y-79225000D03*
D35*
X224300000Y-75045000D03*
D36*
X224300000Y-79225000D03*
D34*
X204230000Y-64670000D03*
X201690000Y-64670000D03*
X225040000Y-45450000D03*
X206190000Y-78010000D03*
X212990000Y-78010000D03*
X200380000Y-73020000D03*
X200380000Y-75020000D03*
M02*
