%TF.GenerationSoftware,KiCad,Pcbnew,10.0.6*%
%TF.CreationDate,2026-09-09T22:40:34-05:00*%
%TF.ProjectId,KK_power_module,4b4b5f70-6f77-4657-925f-6d6f64756c65,0.2-LR1*%
%TF.SameCoordinates,Original*%
%TF.FileFunction,Legend,Top*%
%TF.FilePolarity,Positive*%
%FSLAX46Y46*%
G04 Gerber Fmt 4.6, Leading zero omitted, Abs format (unit mm)*
G04 Created by KiCad (PCBNEW 10.0.6) date 2026-09-09 22:40:34*
%MOMM*%
%LPD*%
G01*
G04 APERTURE LIST*
%ADD10C,0.150000*%
%ADD11C,0.120000*%
%ADD12C,0.127000*%
%ADD13C,0.200000*%
G04 APERTURE END LIST*
D10*
X219646666Y-77169819D02*
X219646666Y-77884104D01*
X219646666Y-77884104D02*
X219599047Y-78026961D01*
X219599047Y-78026961D02*
X219503809Y-78122200D01*
X219503809Y-78122200D02*
X219360952Y-78169819D01*
X219360952Y-78169819D02*
X219265714Y-78169819D01*
X220646666Y-78169819D02*
X220075238Y-78169819D01*
X220360952Y-78169819D02*
X220360952Y-77169819D01*
X220360952Y-77169819D02*
X220265714Y-77312676D01*
X220265714Y-77312676D02*
X220170476Y-77407914D01*
X220170476Y-77407914D02*
X220075238Y-77455533D01*
X208256667Y-78417200D02*
X208399524Y-78464819D01*
X208399524Y-78464819D02*
X208637619Y-78464819D01*
X208637619Y-78464819D02*
X208732857Y-78417200D01*
X208732857Y-78417200D02*
X208780476Y-78369580D01*
X208780476Y-78369580D02*
X208828095Y-78274342D01*
X208828095Y-78274342D02*
X208828095Y-78179104D01*
X208828095Y-78179104D02*
X208780476Y-78083866D01*
X208780476Y-78083866D02*
X208732857Y-78036247D01*
X208732857Y-78036247D02*
X208637619Y-77988628D01*
X208637619Y-77988628D02*
X208447143Y-77941009D01*
X208447143Y-77941009D02*
X208351905Y-77893390D01*
X208351905Y-77893390D02*
X208304286Y-77845771D01*
X208304286Y-77845771D02*
X208256667Y-77750533D01*
X208256667Y-77750533D02*
X208256667Y-77655295D01*
X208256667Y-77655295D02*
X208304286Y-77560057D01*
X208304286Y-77560057D02*
X208351905Y-77512438D01*
X208351905Y-77512438D02*
X208447143Y-77464819D01*
X208447143Y-77464819D02*
X208685238Y-77464819D01*
X208685238Y-77464819D02*
X208828095Y-77512438D01*
X209161429Y-77464819D02*
X209399524Y-78464819D01*
X209399524Y-78464819D02*
X209590000Y-77750533D01*
X209590000Y-77750533D02*
X209780476Y-78464819D01*
X209780476Y-78464819D02*
X210018572Y-77464819D01*
X210923333Y-78464819D02*
X210351905Y-78464819D01*
X210637619Y-78464819D02*
X210637619Y-77464819D01*
X210637619Y-77464819D02*
X210542381Y-77607676D01*
X210542381Y-77607676D02*
X210447143Y-77702914D01*
X210447143Y-77702914D02*
X210351905Y-77750533D01*
%TO.C,C3*%
D11*
X210046248Y-63600000D02*
X211468752Y-63600000D01*
X210046248Y-65420000D02*
X211468752Y-65420000D01*
%TO.C,J3*%
X214670000Y-42450000D02*
X214670000Y-50270000D01*
X214670000Y-48670000D02*
X215590000Y-48670000D01*
X214670000Y-50270000D02*
X215590000Y-50270000D01*
X215590000Y-48670000D02*
X215870000Y-48670000D01*
X215590000Y-50270000D02*
X215590000Y-48670000D01*
X217230000Y-46810000D02*
X217230000Y-42450000D01*
X218230000Y-42450000D02*
X218230000Y-46810000D01*
X218230000Y-46810000D02*
X217230000Y-46810000D01*
X219030000Y-44710000D02*
X219030000Y-42450000D01*
X219530000Y-44710000D02*
X219530000Y-42450000D01*
X219590000Y-48670000D02*
X219590000Y-49885000D01*
X219590000Y-48670000D02*
X219870000Y-48670000D01*
X219870000Y-48670000D02*
X219870000Y-50270000D01*
X219870000Y-50270000D02*
X220790000Y-50270000D01*
X220790000Y-42450000D02*
X214670000Y-42450000D01*
X220790000Y-48670000D02*
X219870000Y-48670000D01*
X220790000Y-50270000D02*
X220790000Y-42450000D01*
X215430000Y-44710000D02*
X216430000Y-44710000D01*
X216430000Y-46310000D01*
X215430000Y-46310000D01*
X215430000Y-44710000D01*
X219030000Y-44710000D02*
X220030000Y-44710000D01*
X220030000Y-46310000D01*
X219030000Y-46310000D01*
X219030000Y-44710000D01*
%TO.C,Q1*%
D12*
X225500000Y-69440000D02*
X227100000Y-69440000D01*
X225500000Y-72640000D02*
X227100000Y-72640000D01*
D13*
X223972000Y-70095000D02*
G75*
G02*
X223772000Y-70095000I-100000J0D01*
G01*
X223772000Y-70095000D02*
G75*
G02*
X223972000Y-70095000I100000J0D01*
G01*
%TO.C,R12*%
D11*
X224960000Y-53857064D02*
X224960000Y-52402936D01*
X226780000Y-53857064D02*
X226780000Y-52402936D01*
%TO.C,R10*%
X218340000Y-53857064D02*
X218340000Y-52402936D01*
X220160000Y-53857064D02*
X220160000Y-52402936D01*
%TO.C,R8*%
X224960000Y-59807064D02*
X224960000Y-58352936D01*
X226780000Y-59807064D02*
X226780000Y-58352936D01*
%TO.C,J5*%
X199880000Y-47340000D02*
X199880000Y-45960000D01*
X201260000Y-47340000D02*
X199880000Y-47340000D01*
X202530000Y-44580000D02*
X212800000Y-44580000D01*
X202530000Y-47340000D02*
X202530000Y-44580000D01*
X202530000Y-47340000D02*
X212800000Y-47340000D01*
X212800000Y-47340000D02*
X212800000Y-44580000D01*
%TO.C,C4*%
X210046248Y-66950000D02*
X211468752Y-66950000D01*
X210046248Y-68770000D02*
X211468752Y-68770000D01*
%TO.C,J4*%
X200330000Y-66900000D02*
X200330000Y-69660000D01*
X202980000Y-66900000D02*
X200330000Y-66900000D01*
X202980000Y-66900000D02*
X202980000Y-69660000D01*
X202980000Y-69660000D02*
X200330000Y-69660000D01*
X204250000Y-66900000D02*
X205630000Y-66900000D01*
X205630000Y-66900000D02*
X205630000Y-68280000D01*
%TO.C,R3*%
X221650000Y-65757064D02*
X221650000Y-64302936D01*
X223470000Y-65757064D02*
X223470000Y-64302936D01*
%TO.C,R1*%
X215030000Y-65757064D02*
X215030000Y-64302936D01*
X216850000Y-65757064D02*
X216850000Y-64302936D01*
%TO.C,C2*%
X210046248Y-60250000D02*
X211468752Y-60250000D01*
X210046248Y-62070000D02*
X211468752Y-62070000D01*
%TO.C,C1*%
X210046248Y-56900000D02*
X211468752Y-56900000D01*
X210046248Y-58720000D02*
X211468752Y-58720000D01*
%TO.C,R5*%
X215030000Y-59807064D02*
X215030000Y-58352936D01*
X216850000Y-59807064D02*
X216850000Y-58352936D01*
%TO.C,D1*%
X208330000Y-48650000D02*
X201320000Y-48650000D01*
X208330000Y-51950000D02*
X201320000Y-51950000D01*
X208330000Y-51950000D02*
X208330000Y-48650000D01*
%TO.C,LED2*%
X216965000Y-68882500D02*
X216965000Y-72942500D01*
X216965000Y-72942500D02*
X219235000Y-72942500D01*
X219235000Y-72942500D02*
X219235000Y-68882500D01*
%TO.C,R4*%
X224960000Y-65757064D02*
X224960000Y-64302936D01*
X226780000Y-65757064D02*
X226780000Y-64302936D01*
%TO.C,LED1*%
X213575000Y-68882500D02*
X213575000Y-72942500D01*
X213575000Y-72942500D02*
X215845000Y-72942500D01*
X215845000Y-72942500D02*
X215845000Y-68882500D01*
%TO.C,R11*%
X221650000Y-53857064D02*
X221650000Y-52402936D01*
X223470000Y-53857064D02*
X223470000Y-52402936D01*
%TO.C,R9*%
X215030000Y-53857064D02*
X215030000Y-52402936D01*
X216850000Y-53857064D02*
X216850000Y-52402936D01*
%TO.C,J1*%
X215280000Y-76370000D02*
X215280000Y-78150000D01*
X217180000Y-73450000D02*
X216380000Y-73450000D01*
X224680000Y-76370000D02*
X224680000Y-78150000D01*
%TO.C,R6*%
X218340000Y-59807064D02*
X218340000Y-58352936D01*
X220160000Y-59807064D02*
X220160000Y-58352936D01*
%TO.C,JP1*%
X200310000Y-63290000D02*
X200310000Y-66050000D01*
X202960000Y-63290000D02*
X200310000Y-63290000D01*
X202960000Y-63290000D02*
X202960000Y-66050000D01*
X202960000Y-66050000D02*
X200310000Y-66050000D01*
X204230000Y-63290000D02*
X205610000Y-63290000D01*
X205610000Y-63290000D02*
X205610000Y-64670000D01*
%TO.C,U1*%
X203105000Y-55725000D02*
X203830000Y-55725000D01*
X203105000Y-56450000D02*
X203105000Y-55725000D01*
X203105000Y-59945000D02*
X203105000Y-59220000D01*
X203830000Y-59945000D02*
X203105000Y-59945000D01*
X206600000Y-55725000D02*
X207325000Y-55725000D01*
X207325000Y-55725000D02*
X207325000Y-56450000D01*
X207325000Y-59220000D02*
X207325000Y-59945000D01*
X207325000Y-59945000D02*
X206600000Y-59945000D01*
X202605000Y-56835000D02*
X202275000Y-57075000D01*
X202275000Y-56595000D01*
X202605000Y-56835000D01*
G36*
X202605000Y-56835000D02*
G01*
X202275000Y-57075000D01*
X202275000Y-56595000D01*
X202605000Y-56835000D01*
G37*
%TO.C,LED3*%
X220355000Y-68882500D02*
X220355000Y-72942500D01*
X220355000Y-72942500D02*
X222625000Y-72942500D01*
X222625000Y-72942500D02*
X222625000Y-68882500D01*
%TO.C,R2*%
X218340000Y-65757064D02*
X218340000Y-64302936D01*
X220160000Y-65757064D02*
X220160000Y-64302936D01*
%TO.C,U2*%
X209902500Y-51050000D02*
X211722500Y-51050000D01*
X209902500Y-51100000D02*
X209902500Y-51050000D01*
X209902500Y-54170000D02*
X209902500Y-54120000D01*
X211722500Y-51050000D02*
X211722500Y-51100000D01*
X211722500Y-54120000D02*
X211722500Y-54170000D01*
X211722500Y-54170000D02*
X209902500Y-54170000D01*
X209362500Y-51100000D02*
X209122500Y-50770000D01*
X209602500Y-50770000D01*
X209362500Y-51100000D01*
G36*
X209362500Y-51100000D02*
G01*
X209122500Y-50770000D01*
X209602500Y-50770000D01*
X209362500Y-51100000D01*
G37*
%TO.C,SW1*%
X204990000Y-76110000D02*
X206190000Y-76110000D01*
X204990000Y-78410000D02*
X204990000Y-76110000D01*
X208690000Y-76110000D02*
X207990000Y-76110000D01*
X211190000Y-76110000D02*
X210490000Y-76110000D01*
X212990000Y-76110000D02*
X214190000Y-76110000D01*
X214190000Y-76110000D02*
X214190000Y-78410000D01*
%TO.C,R7*%
X221650000Y-59807064D02*
X221650000Y-58352936D01*
X223470000Y-59807064D02*
X223470000Y-58352936D01*
%TD*%
M02*
