M48
; DRILL file KiCad 10.0.6 date 2026-09-09T22:40:36
; FORMAT={-:-/ absolute / metric / decimal}
; #@! TF.CreationDate,2026-09-09T22:40:36-05:00
; #@! TF.GenerationSoftware,Kicad,Pcbnew,10.0.6
; #@! TF.FileFunction,Plated,1,2,PTH
FMAT,2
METRIC
; #@! TA.AperFunction,Plated,PTH,ViaDrill
T1C0.300
; #@! TA.AperFunction,Plated,PTH,ComponentDrill
T2C0.600
; #@! TA.AperFunction,Plated,PTH,ComponentDrill
T3C0.750
; #@! TA.AperFunction,Plated,PTH,ComponentDrill
T4C1.000
%
G90
G05
T1
X202.295Y-56.874
X203.505Y-56.125
X204.559Y-57.819
X205.585Y-61.92
X206.336Y-61.273
X206.802Y-60.44
X207.449Y-64.767
X207.609Y-63.143
X207.717Y-55.276
X208.067Y-48.488
X208.464Y-51.678
X208.874Y-62.649
X209.18Y-57.81
X210.397Y-56.764
X210.494Y-58.541
X210.955Y-72.4
X211.274Y-59.069
X211.7Y-61.16
X211.7Y-64.51
X211.712Y-55.043
X212.044Y-69.911
X212.812Y-49.303
X213.562Y-63.051
X214.024Y-63.785
X214.587Y-49.469
X214.606Y-53.708
X215.033Y-64.985
X217.03Y-65.031
X217.367Y-54.679
X218.074Y-70.574
X218.405Y-75.931
X219.19Y-64.726
X219.191Y-78.141
X219.743Y-68.444
X219.92Y-50.23
X220.114Y-49.39
X220.908Y-70.682
X220.964Y-63.481
X220.994Y-56.404
X221.923Y-58.817
X223.744Y-69.697
X223.747Y-68.699
X223.921Y-70.731
X224.178Y-57.583
X224.378Y-61.083
X227.167Y-75.271
X227.563Y-66.657
T3
X200.38Y-73.02
X200.38Y-75.02
X216.73Y-48.81
X218.73Y-48.81
T4
X201.26Y-45.96
X201.69Y-64.67
X201.71Y-68.28
X203.8Y-45.96
X204.23Y-64.67
X204.25Y-68.28
X206.34Y-45.96
X208.88Y-45.96
X211.42Y-45.96
T2
X215.66Y-74.495G85X215.66Y-75.595
G05
X215.66Y-78.925G85X215.66Y-79.525
G05
X224.3Y-74.495G85X224.3Y-75.595
G05
X224.3Y-78.925G85X224.3Y-79.525
G05
M30
