%TF.GenerationSoftware,KiCad,Pcbnew,10.0.6*%
%TF.CreationDate,2026-09-09T22:40:34-05:00*%
%TF.ProjectId,KK_power_module,4b4b5f70-6f77-4657-925f-6d6f64756c65,0.2-LR1*%
%TF.SameCoordinates,Original*%
%TF.FileFunction,Soldermask,Top*%
%TF.FilePolarity,Negative*%
%FSLAX46Y46*%
G04 Gerber Fmt 4.6, Leading zero omitted, Abs format (unit mm)*
G04 Created by KiCad (PCBNEW 10.0.6) date 2026-09-09 22:40:34*
%MOMM*%
%LPD*%
G01*
G04 APERTURE LIST*
G04 Aperture macros list*
%AMRoundRect*
0 Rectangle with rounded corners*
0 $1 Rounding radius*
0 $2 $3 $4 $5 $6 $7 $8 $9 X,Y pos of 4 corners*
0 Add a 4 corners polygon primitive as box body*
4,1,4,$2,$3,$4,$5,$6,$7,$8,$9,$2,$3,0*
0 Add four circle primitives for the rounded corners*
1,1,$1+$1,$2,$3*
1,1,$1+$1,$4,$5*
1,1,$1+$1,$6,$7*
1,1,$1+$1,$8,$9*
0 Add four rect primitives between the rounded corners*
20,1,$1+$1,$2,$3,$4,$5,0*
20,1,$1+$1,$4,$5,$6,$7,0*
20,1,$1+$1,$6,$7,$8,$9,0*
20,1,$1+$1,$8,$9,$2,$3,0*%
G04 Aperture macros list end*
%ADD10RoundRect,0.250000X-0.412500X-0.650000X0.412500X-0.650000X0.412500X0.650000X-0.412500X0.650000X0*%
%ADD11RoundRect,0.250000X0.350000X0.625000X-0.350000X0.625000X-0.350000X-0.625000X0.350000X-0.625000X0*%
%ADD12O,1.200000X1.750000*%
%ADD13RoundRect,0.249500X-0.457500X-0.147500X0.457500X-0.147500X0.457500X0.147500X-0.457500X0.147500X0*%
%ADD14RoundRect,0.250000X0.625000X-0.400000X0.625000X0.400000X-0.625000X0.400000X-0.625000X-0.400000X0*%
%ADD15R,1.700000X1.700000*%
%ADD16C,1.700000*%
%ADD17C,2.200000*%
%ADD18RoundRect,0.250000X1.500000X0.650000X-1.500000X0.650000X-1.500000X-0.650000X1.500000X-0.650000X0*%
%ADD19RoundRect,0.250001X0.624999X-0.462499X0.624999X0.462499X-0.624999X0.462499X-0.624999X-0.462499X0*%
%ADD20C,0.650000*%
%ADD21RoundRect,0.150000X-0.150000X-0.500000X0.150000X-0.500000X0.150000X0.500000X-0.150000X0.500000X0*%
%ADD22RoundRect,0.075000X-0.075000X-0.575000X0.075000X-0.575000X0.075000X0.575000X-0.075000X0.575000X0*%
%ADD23O,1.000000X2.100000*%
%ADD24O,1.000000X1.600000*%
%ADD25RoundRect,0.062500X-0.350000X-0.062500X0.350000X-0.062500X0.350000X0.062500X-0.350000X0.062500X0*%
%ADD26RoundRect,0.062500X-0.062500X-0.350000X0.062500X-0.350000X0.062500X0.350000X-0.062500X0.350000X0*%
%ADD27R,2.500000X2.500000*%
%ADD28RoundRect,0.150000X-0.512500X-0.150000X0.512500X-0.150000X0.512500X0.150000X-0.512500X0.150000X0*%
%ADD29C,0.900000*%
%ADD30RoundRect,0.250000X-0.375000X-1.000000X0.375000X-1.000000X0.375000X1.000000X-0.375000X1.000000X0*%
%ADD31RoundRect,0.250000X-0.625000X0.350000X-0.625000X-0.350000X0.625000X-0.350000X0.625000X0.350000X0*%
%ADD32O,1.750000X1.200000*%
%ADD33C,0.350000*%
%ADD34O,0.600000X1.700000*%
%ADD35O,0.600000X1.200000*%
G04 APERTURE END LIST*
D10*
%TO.C,C3*%
X209195000Y-64510000D03*
X212320000Y-64510000D03*
%TD*%
D11*
%TO.C,J3*%
X218730000Y-48810000D03*
D12*
X216730000Y-48810000D03*
%TD*%
D13*
%TO.C,Q1*%
X225045000Y-70090000D03*
X225045000Y-71040000D03*
X225045000Y-71990000D03*
X227555000Y-71990000D03*
X227555000Y-71040000D03*
X227555000Y-70090000D03*
%TD*%
D14*
%TO.C,R12*%
X225870000Y-54680000D03*
X225870000Y-51580000D03*
%TD*%
%TO.C,R10*%
X219250000Y-54680000D03*
X219250000Y-51580000D03*
%TD*%
%TO.C,R8*%
X225870000Y-60630000D03*
X225870000Y-57530000D03*
%TD*%
D15*
%TO.C,J5*%
X201260000Y-45960000D03*
D16*
X203800000Y-45960000D03*
X206340000Y-45960000D03*
X208880000Y-45960000D03*
X211420000Y-45960000D03*
%TD*%
D17*
%TO.C,H2*%
X201830000Y-78710000D03*
%TD*%
D10*
%TO.C,C4*%
X209195000Y-67860000D03*
X212320000Y-67860000D03*
%TD*%
D15*
%TO.C,J4*%
X204250000Y-68280000D03*
D16*
X201710000Y-68280000D03*
%TD*%
D14*
%TO.C,R3*%
X222560000Y-66580000D03*
X222560000Y-63480000D03*
%TD*%
%TO.C,R1*%
X215940000Y-66580000D03*
X215940000Y-63480000D03*
%TD*%
D10*
%TO.C,C2*%
X209195000Y-61160000D03*
X212320000Y-61160000D03*
%TD*%
%TO.C,C1*%
X209195000Y-57810000D03*
X212320000Y-57810000D03*
%TD*%
D14*
%TO.C,R5*%
X215940000Y-60630000D03*
X215940000Y-57530000D03*
%TD*%
D18*
%TO.C,D1*%
X206320000Y-50300000D03*
X201320000Y-50300000D03*
%TD*%
D19*
%TO.C,LED2*%
X218100000Y-71970000D03*
X218100000Y-68995000D03*
%TD*%
D14*
%TO.C,R4*%
X225870000Y-66580000D03*
X225870000Y-63480000D03*
%TD*%
D19*
%TO.C,LED1*%
X214710000Y-71970000D03*
X214710000Y-68995000D03*
%TD*%
D14*
%TO.C,R11*%
X222560000Y-54680000D03*
X222560000Y-51580000D03*
%TD*%
%TO.C,R9*%
X215940000Y-54680000D03*
X215940000Y-51580000D03*
%TD*%
D20*
%TO.C,J1*%
X217090000Y-75545000D03*
X222870000Y-75545000D03*
D21*
X216780000Y-74405000D03*
X217580000Y-74405000D03*
D22*
X218730000Y-74405000D03*
X219730000Y-74405000D03*
X220230000Y-74405000D03*
X221230000Y-74405000D03*
D21*
X222380000Y-74405000D03*
X223180000Y-74405000D03*
X223180000Y-74405000D03*
X222380000Y-74405000D03*
D22*
X221730000Y-74405000D03*
X220730000Y-74405000D03*
X219230000Y-74405000D03*
X218230000Y-74405000D03*
D21*
X217580000Y-74405000D03*
X216780000Y-74405000D03*
D23*
X215660000Y-75045000D03*
D24*
X215660000Y-79225000D03*
D23*
X224300000Y-75045000D03*
D24*
X224300000Y-79225000D03*
%TD*%
D14*
%TO.C,R6*%
X219250000Y-60630000D03*
X219250000Y-57530000D03*
%TD*%
D15*
%TO.C,JP1*%
X204230000Y-64670000D03*
D16*
X201690000Y-64670000D03*
%TD*%
D25*
%TO.C,U1*%
X203277500Y-56835000D03*
X203277500Y-57335000D03*
X203277500Y-57835000D03*
X203277500Y-58335000D03*
X203277500Y-58835000D03*
D26*
X204215000Y-59772500D03*
X204715000Y-59772500D03*
X205215000Y-59772500D03*
X205715000Y-59772500D03*
X206215000Y-59772500D03*
D25*
X207152500Y-58835000D03*
X207152500Y-58335000D03*
X207152500Y-57835000D03*
X207152500Y-57335000D03*
X207152500Y-56835000D03*
D26*
X206215000Y-55897500D03*
X205715000Y-55897500D03*
X205215000Y-55897500D03*
X204715000Y-55897500D03*
X204215000Y-55897500D03*
D27*
X205215000Y-57835000D03*
%TD*%
D19*
%TO.C,LED3*%
X221490000Y-71970000D03*
X221490000Y-68995000D03*
%TD*%
D14*
%TO.C,R2*%
X219250000Y-66580000D03*
X219250000Y-63480000D03*
%TD*%
D17*
%TO.C,H1*%
X225040000Y-45450000D03*
%TD*%
D28*
%TO.C,U2*%
X209675000Y-51660000D03*
X209675000Y-52610000D03*
X209675000Y-53560000D03*
X211950000Y-53560000D03*
X211950000Y-52610000D03*
X211950000Y-51660000D03*
%TD*%
D29*
%TO.C,SW1*%
X206190000Y-78010000D03*
X212990000Y-78010000D03*
D30*
X207090000Y-75260000D03*
X209590000Y-75260000D03*
X212090000Y-75260000D03*
%TD*%
D14*
%TO.C,R7*%
X222560000Y-60630000D03*
X222560000Y-57530000D03*
%TD*%
D31*
%TO.C,J2*%
X200380000Y-73020000D03*
D32*
X200380000Y-75020000D03*
%TD*%
D33*
X218730000Y-48810000D03*
X216730000Y-48810000D03*
X201260000Y-45960000D03*
X203800000Y-45960000D03*
X206340000Y-45960000D03*
X208880000Y-45960000D03*
X211420000Y-45960000D03*
X201830000Y-78710000D03*
X204250000Y-68280000D03*
X201710000Y-68280000D03*
X217090000Y-75545000D03*
X222870000Y-75545000D03*
D34*
X215660000Y-75045000D03*
D35*
X215660000Y-79225000D03*
D34*
X224300000Y-75045000D03*
D35*
X224300000Y-79225000D03*
D33*
X204230000Y-64670000D03*
X201690000Y-64670000D03*
X225040000Y-45450000D03*
X206190000Y-78010000D03*
X212990000Y-78010000D03*
X200380000Y-73020000D03*
X200380000Y-75020000D03*
M02*
