M48
; DRILL file KiCad 10.0.6 date 2026-09-12T00:14:57
; FORMAT={-:-/ absolute / metric / decimal}
; #@! TF.CreationDate,2026-09-12T00:14:57-05:00
; #@! TF.GenerationSoftware,Kicad,Pcbnew,10.0.6
; #@! TF.FileFunction,Plated,1,4,PTH
FMAT,2
METRIC
; #@! TA.AperFunction,Plated,PTH,ViaDrill
T1C0.200
; #@! TA.AperFunction,Plated,PTH,ViaDrill
T2C0.300
; #@! TA.AperFunction,Plated,PTH,ComponentDrill
T3C0.600
; #@! TA.AperFunction,Plated,PTH,ComponentDrill
T4C0.750
; #@! TA.AperFunction,Plated,PTH,ComponentDrill
T5C0.950
; #@! TA.AperFunction,Plated,PTH,ComponentDrill
T6C1.700
%
G90
G05
T1
X3.945Y-34.55
X3.945Y-36.45
X4.545Y-34.55
X4.545Y-36.45
X6.1Y-37.8
X6.6Y-23.1
X7.0Y-31.3
X7.225Y-27.6
X7.3Y-29.3
X7.6Y-23.0
X8.4Y-23.0
X8.945Y-34.55
X8.945Y-36.45
X9.545Y-34.55
X9.545Y-36.45
X10.1Y-13.7
X10.1Y-31.9
X10.2Y-13.2
X10.8Y-9.4
X10.8Y-12.4
X11.0Y-10.4
X11.1Y-29.2
X11.5Y-26.875
X12.1Y-13.3
X12.6Y-31.0
X13.3Y-27.3
X13.945Y-34.55
X13.945Y-36.45
X14.3Y-9.2
X14.545Y-34.55
X14.545Y-36.45
X15.0Y-13.1
X15.0Y-31.9
X15.5Y-11.1
X15.8Y-22.8
X16.15Y-25.825
X16.3Y-24.2
X16.7Y-9.1
X16.8Y-11.0
X16.8Y-20.8
X17.0Y-39.0
X17.3Y-9.6
X17.5Y-33.9
X17.8Y-35.0
X18.0Y-32.2
X18.4Y-8.1
X18.5Y-34.9
X18.7Y-4.8
X18.9Y-34.3
X19.2Y-11.4
X19.2Y-23.6
X19.2Y-30.2
X19.5Y-30.8
X19.5Y-32.0
X19.8Y-33.5
X20.0Y-12.3
X20.5Y-13.8
X20.6Y-12.6
X20.9Y-24.5
X21.0Y-32.9
X21.1Y-28.6
X21.4Y-23.1
X21.6Y-9.75
X21.7Y-31.4
X21.9Y-35.0
X22.0Y-4.5
X22.0Y-30.3
X22.0Y-41.0
X22.225Y-27.6
X22.6Y-23.0
X22.6Y-37.0
X22.8Y-6.0
X23.0Y-9.8
X23.4Y-23.0
X23.8Y-35.7
X23.8Y-34.9
X24.0Y-13.1
X24.2Y-9.45
X24.2Y-24.6
X24.4Y-4.5
X24.4Y-33.6
X24.45Y-6.6
X24.8Y-9.45
X24.9Y-10.4
X24.9Y-32.1
X25.1Y-3.5
X25.1Y-38.8
X25.45Y-6.25
X25.7Y-7.0
X25.9Y-32.1
X26.0Y-11.2
X26.1Y-30.1
X26.1Y-37.4
X26.5Y-26.875
X26.8Y-11.1
X27.0Y-9.1
X27.0Y-33.0
X27.0Y-33.7
X27.4Y-13.2
X27.5Y-9.3
X27.5Y-11.2
X27.6Y-7.0
X27.7Y-36.9
X27.75Y-3.5
X28.2Y-30.9
X28.2Y-33.2
X28.2Y-38.6
X28.3Y-27.3
X28.35Y-3.5
X28.4Y-7.0
X28.4Y-11.2
X28.5Y-34.7
X28.7Y-12.9
X29.0Y-12.3
X29.2Y-31.5
X29.4Y-6.2
X29.8Y-4.1
X29.9Y-35.3
X30.1Y-22.5
X30.3Y-36.7
X30.3Y-45.7
X30.5Y-11.3
X30.6Y-15.7
X30.6Y-35.9
X30.7Y-12.1
X30.8Y-22.8
X30.9Y-14.7
X31.1Y-29.5
X31.1Y-33.5
X31.1Y-36.0
X31.15Y-25.825
X31.2Y-7.95
X31.4Y-38.2
X31.5Y-4.8
X31.5Y-40.3
X31.8Y-7.95
X31.9Y-31.4
X32.7Y-12.0
X32.9Y-11.0
X32.9Y-33.5
X33.0Y-34.6
X33.3Y-23.6
X33.4Y-13.0
X34.2Y-22.9
X34.2Y-23.6
X34.25Y-11.5
X34.5Y-30.7
X34.6Y-12.2
X34.6Y-14.1
X34.7Y-15.3
X35.0Y-2.3
X35.0Y-27.6
X35.1Y-13.4
X35.1Y-25.2
X35.3Y-23.6
X35.3Y-24.3
X35.5Y-42.4
X35.7Y-28.2
X35.8Y-20.7
X35.8Y-30.7
X35.9Y-6.6
X36.0Y-11.0
X36.3Y-16.1
X36.3Y-24.8
X36.3Y-31.2
X36.5Y-9.7
X36.6Y-32.1
X37.1Y-16.1
X37.225Y-27.6
X37.325Y-29.2
X37.5Y-11.3
X37.5Y-20.5
X37.6Y-31.0
X37.6Y-15.6
X37.6Y-23.0
X37.8Y-5.7
X37.9Y-27.9
X38.0Y-25.9
X38.2Y-30.1
X38.4Y-23.0
X38.5Y-37.5
X38.6Y-35.7
X38.7Y-29.2
X39.3Y-35.7
X39.3Y-5.2
X39.3Y-28.9
X39.4Y-10.3
X39.4Y-27.7
X40.0Y-34.0
X40.1Y-22.5
X40.4Y-30.2
X40.4Y-31.4
X40.75Y-34.0
X40.8Y-36.95
X41.3Y-9.7
X41.5Y-26.875
X41.5Y-33.8
X41.6Y-30.2
X41.6Y-31.4
X42.25Y-34.0
X42.3Y-23.6
X42.3Y-28.0
X42.6Y-32.5
X43.0Y-25.0
X43.3Y-27.3
X43.6Y-36.7
X43.8Y-30.5
X43.8Y-31.4
X44.0Y-40.0
X44.2Y-33.7
X44.4Y-36.3
X45.7Y-29.5
X45.7Y-34.0
X45.8Y-22.8
X46.15Y-25.825
X46.5Y-35.3
T2
X1.55Y-20.0
X1.55Y-22.5
X3.25Y-9.0
X3.25Y-13.0
X4.25Y-9.0
X4.25Y-13.0
X4.7Y-17.8
X4.7Y-18.8
X9.6Y-8.2
X11.05Y-30.2
X11.05Y-30.8
X11.4Y-18.35
X11.65Y-30.2
X11.65Y-30.8
X13.6Y-18.35
X13.85Y-30.2
X13.85Y-30.8
X14.4Y-8.2
X14.45Y-30.2
X14.45Y-30.8
X15.8Y-18.35
X16.7Y-20.0
X16.7Y-22.5
X19.7Y-17.8
X19.7Y-18.8
X24.6Y-32.8
X25.2Y-4.5
X26.4Y-18.35
X28.6Y-18.35
X30.8Y-18.35
X31.7Y-20.0
X31.7Y-22.5
X33.4Y-40.8
X34.5Y-27.9
X34.7Y-17.8
X34.7Y-18.8
X38.2Y-13.0
X38.2Y-14.0
X39.2Y-13.0
X39.2Y-14.0
X41.4Y-18.35
X43.6Y-18.35
X44.8Y-22.2
X45.8Y-18.35
T4
X21.0Y-44.55
X23.0Y-44.55
T5
X31.75Y-44.525
X34.25Y-44.525
X36.75Y-44.525
X39.25Y-44.525
T6
X8.52Y-43.05
X12.48Y-43.05
T3
X7.68Y-2.565G85X7.68Y-1.965
G05
X7.68Y-6.995G85X7.68Y-5.895
G05
X16.32Y-2.565G85X16.32Y-1.965
G05
X16.32Y-6.995G85X16.32Y-5.895
G05
M30
