%TF.GenerationSoftware,KiCad,Pcbnew,10.0.6*%
%TF.CreationDate,2026-09-12T00:14:53-05:00*%
%TF.ProjectId,KK_power_module,4b4b5f70-6f77-4657-925f-6d6f64756c65,rev?*%
%TF.SameCoordinates,Original*%
%TF.FileFunction,Legend,Bot*%
%TF.FilePolarity,Positive*%
%FSLAX46Y46*%
G04 Gerber Fmt 4.6, Leading zero omitted, Abs format (unit mm)*
G04 Created by KiCad (PCBNEW 10.0.6) date 2026-09-12 00:14:53*
%MOMM*%
%LPD*%
G01*
G04 APERTURE LIST*
%ADD10C,0.130000*%
%ADD11C,0.100000*%
%ADD12C,0.120000*%
%ADD13C,0.010000*%
G04 APERTURE END LIST*
D10*
X15638094Y-8463335D02*
X15638094Y-9110954D01*
X15638094Y-9110954D02*
X15599999Y-9187144D01*
X15599999Y-9187144D02*
X15561904Y-9225240D01*
X15561904Y-9225240D02*
X15485713Y-9263335D01*
X15485713Y-9263335D02*
X15333332Y-9263335D01*
X15333332Y-9263335D02*
X15257142Y-9225240D01*
X15257142Y-9225240D02*
X15219047Y-9187144D01*
X15219047Y-9187144D02*
X15180951Y-9110954D01*
X15180951Y-9110954D02*
X15180951Y-8463335D01*
X14838095Y-9225240D02*
X14723809Y-9263335D01*
X14723809Y-9263335D02*
X14533333Y-9263335D01*
X14533333Y-9263335D02*
X14457142Y-9225240D01*
X14457142Y-9225240D02*
X14419047Y-9187144D01*
X14419047Y-9187144D02*
X14380952Y-9110954D01*
X14380952Y-9110954D02*
X14380952Y-9034763D01*
X14380952Y-9034763D02*
X14419047Y-8958573D01*
X14419047Y-8958573D02*
X14457142Y-8920478D01*
X14457142Y-8920478D02*
X14533333Y-8882382D01*
X14533333Y-8882382D02*
X14685714Y-8844287D01*
X14685714Y-8844287D02*
X14761904Y-8806192D01*
X14761904Y-8806192D02*
X14799999Y-8768097D01*
X14799999Y-8768097D02*
X14838095Y-8691906D01*
X14838095Y-8691906D02*
X14838095Y-8615716D01*
X14838095Y-8615716D02*
X14799999Y-8539525D01*
X14799999Y-8539525D02*
X14761904Y-8501430D01*
X14761904Y-8501430D02*
X14685714Y-8463335D01*
X14685714Y-8463335D02*
X14495237Y-8463335D01*
X14495237Y-8463335D02*
X14380952Y-8501430D01*
X13771428Y-8844287D02*
X13657142Y-8882382D01*
X13657142Y-8882382D02*
X13619047Y-8920478D01*
X13619047Y-8920478D02*
X13580951Y-8996668D01*
X13580951Y-8996668D02*
X13580951Y-9110954D01*
X13580951Y-9110954D02*
X13619047Y-9187144D01*
X13619047Y-9187144D02*
X13657142Y-9225240D01*
X13657142Y-9225240D02*
X13733332Y-9263335D01*
X13733332Y-9263335D02*
X14038094Y-9263335D01*
X14038094Y-9263335D02*
X14038094Y-8463335D01*
X14038094Y-8463335D02*
X13771428Y-8463335D01*
X13771428Y-8463335D02*
X13695237Y-8501430D01*
X13695237Y-8501430D02*
X13657142Y-8539525D01*
X13657142Y-8539525D02*
X13619047Y-8615716D01*
X13619047Y-8615716D02*
X13619047Y-8691906D01*
X13619047Y-8691906D02*
X13657142Y-8768097D01*
X13657142Y-8768097D02*
X13695237Y-8806192D01*
X13695237Y-8806192D02*
X13771428Y-8844287D01*
X13771428Y-8844287D02*
X14038094Y-8844287D01*
X12171427Y-9187144D02*
X12209523Y-9225240D01*
X12209523Y-9225240D02*
X12323808Y-9263335D01*
X12323808Y-9263335D02*
X12399999Y-9263335D01*
X12399999Y-9263335D02*
X12514285Y-9225240D01*
X12514285Y-9225240D02*
X12590475Y-9149049D01*
X12590475Y-9149049D02*
X12628570Y-9072859D01*
X12628570Y-9072859D02*
X12666666Y-8920478D01*
X12666666Y-8920478D02*
X12666666Y-8806192D01*
X12666666Y-8806192D02*
X12628570Y-8653811D01*
X12628570Y-8653811D02*
X12590475Y-8577620D01*
X12590475Y-8577620D02*
X12514285Y-8501430D01*
X12514285Y-8501430D02*
X12399999Y-8463335D01*
X12399999Y-8463335D02*
X12323808Y-8463335D01*
X12323808Y-8463335D02*
X12209523Y-8501430D01*
X12209523Y-8501430D02*
X12171427Y-8539525D01*
X11828570Y-9263335D02*
X11828570Y-8463335D01*
X11828570Y-8844287D02*
X11371427Y-8844287D01*
X11371427Y-9263335D02*
X11371427Y-8463335D01*
X11028571Y-9034763D02*
X10647618Y-9034763D01*
X11104761Y-9263335D02*
X10838094Y-8463335D01*
X10838094Y-8463335D02*
X10571428Y-9263335D01*
X9847618Y-9263335D02*
X10114285Y-8882382D01*
X10304761Y-9263335D02*
X10304761Y-8463335D01*
X10304761Y-8463335D02*
X9999999Y-8463335D01*
X9999999Y-8463335D02*
X9923809Y-8501430D01*
X9923809Y-8501430D02*
X9885714Y-8539525D01*
X9885714Y-8539525D02*
X9847618Y-8615716D01*
X9847618Y-8615716D02*
X9847618Y-8730001D01*
X9847618Y-8730001D02*
X9885714Y-8806192D01*
X9885714Y-8806192D02*
X9923809Y-8844287D01*
X9923809Y-8844287D02*
X9999999Y-8882382D01*
X9999999Y-8882382D02*
X10304761Y-8882382D01*
X9085714Y-8501430D02*
X9161904Y-8463335D01*
X9161904Y-8463335D02*
X9276190Y-8463335D01*
X9276190Y-8463335D02*
X9390476Y-8501430D01*
X9390476Y-8501430D02*
X9466666Y-8577620D01*
X9466666Y-8577620D02*
X9504761Y-8653811D01*
X9504761Y-8653811D02*
X9542857Y-8806192D01*
X9542857Y-8806192D02*
X9542857Y-8920478D01*
X9542857Y-8920478D02*
X9504761Y-9072859D01*
X9504761Y-9072859D02*
X9466666Y-9149049D01*
X9466666Y-9149049D02*
X9390476Y-9225240D01*
X9390476Y-9225240D02*
X9276190Y-9263335D01*
X9276190Y-9263335D02*
X9199999Y-9263335D01*
X9199999Y-9263335D02*
X9085714Y-9225240D01*
X9085714Y-9225240D02*
X9047618Y-9187144D01*
X9047618Y-9187144D02*
X9047618Y-8920478D01*
X9047618Y-8920478D02*
X9199999Y-8920478D01*
X8704761Y-8844287D02*
X8438095Y-8844287D01*
X8323809Y-9263335D02*
X8704761Y-9263335D01*
X8704761Y-9263335D02*
X8704761Y-8463335D01*
X8704761Y-8463335D02*
X8323809Y-8463335D01*
X29492857Y-2386467D02*
X29492857Y-1536467D01*
X29007142Y-2386467D02*
X29371428Y-1900752D01*
X29007142Y-1536467D02*
X29492857Y-2022181D01*
X28642857Y-2386467D02*
X28642857Y-1536467D01*
X28157142Y-2386467D02*
X28521428Y-1900752D01*
X28157142Y-1536467D02*
X28642857Y-2022181D01*
X27145238Y-2386467D02*
X27145238Y-1536467D01*
X27145238Y-1536467D02*
X26821428Y-1536467D01*
X26821428Y-1536467D02*
X26740476Y-1576943D01*
X26740476Y-1576943D02*
X26699999Y-1617419D01*
X26699999Y-1617419D02*
X26659523Y-1698371D01*
X26659523Y-1698371D02*
X26659523Y-1819800D01*
X26659523Y-1819800D02*
X26699999Y-1900752D01*
X26699999Y-1900752D02*
X26740476Y-1941229D01*
X26740476Y-1941229D02*
X26821428Y-1981705D01*
X26821428Y-1981705D02*
X27145238Y-1981705D01*
X26133333Y-1536467D02*
X25971428Y-1536467D01*
X25971428Y-1536467D02*
X25890476Y-1576943D01*
X25890476Y-1576943D02*
X25809523Y-1657895D01*
X25809523Y-1657895D02*
X25769047Y-1819800D01*
X25769047Y-1819800D02*
X25769047Y-2103133D01*
X25769047Y-2103133D02*
X25809523Y-2265038D01*
X25809523Y-2265038D02*
X25890476Y-2345991D01*
X25890476Y-2345991D02*
X25971428Y-2386467D01*
X25971428Y-2386467D02*
X26133333Y-2386467D01*
X26133333Y-2386467D02*
X26214285Y-2345991D01*
X26214285Y-2345991D02*
X26295238Y-2265038D01*
X26295238Y-2265038D02*
X26335714Y-2103133D01*
X26335714Y-2103133D02*
X26335714Y-1819800D01*
X26335714Y-1819800D02*
X26295238Y-1657895D01*
X26295238Y-1657895D02*
X26214285Y-1576943D01*
X26214285Y-1576943D02*
X26133333Y-1536467D01*
X25485714Y-1536467D02*
X25283333Y-2386467D01*
X25283333Y-2386467D02*
X25121428Y-1779324D01*
X25121428Y-1779324D02*
X24959523Y-2386467D01*
X24959523Y-2386467D02*
X24757143Y-1536467D01*
X24433333Y-1941229D02*
X24149999Y-1941229D01*
X24028571Y-2386467D02*
X24433333Y-2386467D01*
X24433333Y-2386467D02*
X24433333Y-1536467D01*
X24433333Y-1536467D02*
X24028571Y-1536467D01*
X23178570Y-2386467D02*
X23461904Y-1981705D01*
X23664285Y-2386467D02*
X23664285Y-1536467D01*
X23664285Y-1536467D02*
X23340475Y-1536467D01*
X23340475Y-1536467D02*
X23259523Y-1576943D01*
X23259523Y-1576943D02*
X23219046Y-1617419D01*
X23219046Y-1617419D02*
X23178570Y-1698371D01*
X23178570Y-1698371D02*
X23178570Y-1819800D01*
X23178570Y-1819800D02*
X23219046Y-1900752D01*
X23219046Y-1900752D02*
X23259523Y-1941229D01*
X23259523Y-1941229D02*
X23340475Y-1981705D01*
X23340475Y-1981705D02*
X23664285Y-1981705D01*
X22166666Y-2386467D02*
X22166666Y-1536467D01*
X22166666Y-1536467D02*
X21842856Y-1536467D01*
X21842856Y-1536467D02*
X21761904Y-1576943D01*
X21761904Y-1576943D02*
X21721427Y-1617419D01*
X21721427Y-1617419D02*
X21680951Y-1698371D01*
X21680951Y-1698371D02*
X21680951Y-1819800D01*
X21680951Y-1819800D02*
X21721427Y-1900752D01*
X21721427Y-1900752D02*
X21761904Y-1941229D01*
X21761904Y-1941229D02*
X21842856Y-1981705D01*
X21842856Y-1981705D02*
X22166666Y-1981705D01*
X21316666Y-2305514D02*
X21276189Y-2345991D01*
X21276189Y-2345991D02*
X21316666Y-2386467D01*
X21316666Y-2386467D02*
X21357142Y-2345991D01*
X21357142Y-2345991D02*
X21316666Y-2305514D01*
X21316666Y-2305514D02*
X21316666Y-2386467D01*
X20952380Y-1617419D02*
X20911904Y-1576943D01*
X20911904Y-1576943D02*
X20830951Y-1536467D01*
X20830951Y-1536467D02*
X20628570Y-1536467D01*
X20628570Y-1536467D02*
X20547618Y-1576943D01*
X20547618Y-1576943D02*
X20507142Y-1617419D01*
X20507142Y-1617419D02*
X20466665Y-1698371D01*
X20466665Y-1698371D02*
X20466665Y-1779324D01*
X20466665Y-1779324D02*
X20507142Y-1900752D01*
X20507142Y-1900752D02*
X20992856Y-2386467D01*
X20992856Y-2386467D02*
X20466665Y-2386467D01*
D11*
X23690476Y-34164895D02*
X23233333Y-34164895D01*
X23461905Y-34964895D02*
X23461905Y-34164895D01*
X22966666Y-34964895D02*
X22966666Y-34164895D01*
X22966666Y-34164895D02*
X22661904Y-34164895D01*
X22661904Y-34164895D02*
X22585714Y-34202990D01*
X22585714Y-34202990D02*
X22547619Y-34241085D01*
X22547619Y-34241085D02*
X22509523Y-34317276D01*
X22509523Y-34317276D02*
X22509523Y-34431561D01*
X22509523Y-34431561D02*
X22547619Y-34507752D01*
X22547619Y-34507752D02*
X22585714Y-34545847D01*
X22585714Y-34545847D02*
X22661904Y-34583942D01*
X22661904Y-34583942D02*
X22966666Y-34583942D01*
X21747619Y-34964895D02*
X22204762Y-34964895D01*
X21976190Y-34964895D02*
X21976190Y-34164895D01*
X21976190Y-34164895D02*
X22052381Y-34279180D01*
X22052381Y-34279180D02*
X22128571Y-34355371D01*
X22128571Y-34355371D02*
X22204762Y-34393466D01*
X21480952Y-34164895D02*
X20947618Y-34164895D01*
X20947618Y-34164895D02*
X21290476Y-34964895D01*
X24009523Y-26464895D02*
X23552380Y-26464895D01*
X23780952Y-27264895D02*
X23780952Y-26464895D01*
X23285713Y-27264895D02*
X23285713Y-26464895D01*
X23285713Y-26464895D02*
X22980951Y-26464895D01*
X22980951Y-26464895D02*
X22904761Y-26502990D01*
X22904761Y-26502990D02*
X22866666Y-26541085D01*
X22866666Y-26541085D02*
X22828570Y-26617276D01*
X22828570Y-26617276D02*
X22828570Y-26731561D01*
X22828570Y-26731561D02*
X22866666Y-26807752D01*
X22866666Y-26807752D02*
X22904761Y-26845847D01*
X22904761Y-26845847D02*
X22980951Y-26883942D01*
X22980951Y-26883942D02*
X23285713Y-26883942D01*
X22142856Y-26464895D02*
X22295237Y-26464895D01*
X22295237Y-26464895D02*
X22371428Y-26502990D01*
X22371428Y-26502990D02*
X22409523Y-26541085D01*
X22409523Y-26541085D02*
X22485713Y-26655371D01*
X22485713Y-26655371D02*
X22523809Y-26807752D01*
X22523809Y-26807752D02*
X22523809Y-27112514D01*
X22523809Y-27112514D02*
X22485713Y-27188704D01*
X22485713Y-27188704D02*
X22447618Y-27226800D01*
X22447618Y-27226800D02*
X22371428Y-27264895D01*
X22371428Y-27264895D02*
X22219047Y-27264895D01*
X22219047Y-27264895D02*
X22142856Y-27226800D01*
X22142856Y-27226800D02*
X22104761Y-27188704D01*
X22104761Y-27188704D02*
X22066666Y-27112514D01*
X22066666Y-27112514D02*
X22066666Y-26922038D01*
X22066666Y-26922038D02*
X22104761Y-26845847D01*
X22104761Y-26845847D02*
X22142856Y-26807752D01*
X22142856Y-26807752D02*
X22219047Y-26769657D01*
X22219047Y-26769657D02*
X22371428Y-26769657D01*
X22371428Y-26769657D02*
X22447618Y-26807752D01*
X22447618Y-26807752D02*
X22485713Y-26845847D01*
X22485713Y-26845847D02*
X22523809Y-26922038D01*
X33190476Y-48664895D02*
X32733333Y-48664895D01*
X32961905Y-49464895D02*
X32961905Y-48664895D01*
X32466666Y-49464895D02*
X32466666Y-48664895D01*
X32466666Y-48664895D02*
X32161904Y-48664895D01*
X32161904Y-48664895D02*
X32085714Y-48702990D01*
X32085714Y-48702990D02*
X32047619Y-48741085D01*
X32047619Y-48741085D02*
X32009523Y-48817276D01*
X32009523Y-48817276D02*
X32009523Y-48931561D01*
X32009523Y-48931561D02*
X32047619Y-49007752D01*
X32047619Y-49007752D02*
X32085714Y-49045847D01*
X32085714Y-49045847D02*
X32161904Y-49083942D01*
X32161904Y-49083942D02*
X32466666Y-49083942D01*
X31247619Y-49464895D02*
X31704762Y-49464895D01*
X31476190Y-49464895D02*
X31476190Y-48664895D01*
X31476190Y-48664895D02*
X31552381Y-48779180D01*
X31552381Y-48779180D02*
X31628571Y-48855371D01*
X31628571Y-48855371D02*
X31704762Y-48893466D01*
X30790476Y-49007752D02*
X30866666Y-48969657D01*
X30866666Y-48969657D02*
X30904761Y-48931561D01*
X30904761Y-48931561D02*
X30942857Y-48855371D01*
X30942857Y-48855371D02*
X30942857Y-48817276D01*
X30942857Y-48817276D02*
X30904761Y-48741085D01*
X30904761Y-48741085D02*
X30866666Y-48702990D01*
X30866666Y-48702990D02*
X30790476Y-48664895D01*
X30790476Y-48664895D02*
X30638095Y-48664895D01*
X30638095Y-48664895D02*
X30561904Y-48702990D01*
X30561904Y-48702990D02*
X30523809Y-48741085D01*
X30523809Y-48741085D02*
X30485714Y-48817276D01*
X30485714Y-48817276D02*
X30485714Y-48855371D01*
X30485714Y-48855371D02*
X30523809Y-48931561D01*
X30523809Y-48931561D02*
X30561904Y-48969657D01*
X30561904Y-48969657D02*
X30638095Y-49007752D01*
X30638095Y-49007752D02*
X30790476Y-49007752D01*
X30790476Y-49007752D02*
X30866666Y-49045847D01*
X30866666Y-49045847D02*
X30904761Y-49083942D01*
X30904761Y-49083942D02*
X30942857Y-49160133D01*
X30942857Y-49160133D02*
X30942857Y-49312514D01*
X30942857Y-49312514D02*
X30904761Y-49388704D01*
X30904761Y-49388704D02*
X30866666Y-49426800D01*
X30866666Y-49426800D02*
X30790476Y-49464895D01*
X30790476Y-49464895D02*
X30638095Y-49464895D01*
X30638095Y-49464895D02*
X30561904Y-49426800D01*
X30561904Y-49426800D02*
X30523809Y-49388704D01*
X30523809Y-49388704D02*
X30485714Y-49312514D01*
X30485714Y-49312514D02*
X30485714Y-49160133D01*
X30485714Y-49160133D02*
X30523809Y-49083942D01*
X30523809Y-49083942D02*
X30561904Y-49045847D01*
X30561904Y-49045847D02*
X30638095Y-49007752D01*
X48690476Y-29964895D02*
X48233333Y-29964895D01*
X48461905Y-30764895D02*
X48461905Y-29964895D01*
X47966666Y-30764895D02*
X47966666Y-29964895D01*
X47966666Y-29964895D02*
X47661904Y-29964895D01*
X47661904Y-29964895D02*
X47585714Y-30002990D01*
X47585714Y-30002990D02*
X47547619Y-30041085D01*
X47547619Y-30041085D02*
X47509523Y-30117276D01*
X47509523Y-30117276D02*
X47509523Y-30231561D01*
X47509523Y-30231561D02*
X47547619Y-30307752D01*
X47547619Y-30307752D02*
X47585714Y-30345847D01*
X47585714Y-30345847D02*
X47661904Y-30383942D01*
X47661904Y-30383942D02*
X47966666Y-30383942D01*
X47204762Y-30041085D02*
X47166666Y-30002990D01*
X47166666Y-30002990D02*
X47090476Y-29964895D01*
X47090476Y-29964895D02*
X46900000Y-29964895D01*
X46900000Y-29964895D02*
X46823809Y-30002990D01*
X46823809Y-30002990D02*
X46785714Y-30041085D01*
X46785714Y-30041085D02*
X46747619Y-30117276D01*
X46747619Y-30117276D02*
X46747619Y-30193466D01*
X46747619Y-30193466D02*
X46785714Y-30307752D01*
X46785714Y-30307752D02*
X47242857Y-30764895D01*
X47242857Y-30764895D02*
X46747619Y-30764895D01*
X46061904Y-30231561D02*
X46061904Y-30764895D01*
X46252380Y-29926800D02*
X46442857Y-30498228D01*
X46442857Y-30498228D02*
X45947618Y-30498228D01*
X9890476Y-24714895D02*
X9433333Y-24714895D01*
X9661905Y-25514895D02*
X9661905Y-24714895D01*
X9166666Y-25514895D02*
X9166666Y-24714895D01*
X9166666Y-24714895D02*
X8861904Y-24714895D01*
X8861904Y-24714895D02*
X8785714Y-24752990D01*
X8785714Y-24752990D02*
X8747619Y-24791085D01*
X8747619Y-24791085D02*
X8709523Y-24867276D01*
X8709523Y-24867276D02*
X8709523Y-24981561D01*
X8709523Y-24981561D02*
X8747619Y-25057752D01*
X8747619Y-25057752D02*
X8785714Y-25095847D01*
X8785714Y-25095847D02*
X8861904Y-25133942D01*
X8861904Y-25133942D02*
X9166666Y-25133942D01*
X7947619Y-25514895D02*
X8404762Y-25514895D01*
X8176190Y-25514895D02*
X8176190Y-24714895D01*
X8176190Y-24714895D02*
X8252381Y-24829180D01*
X8252381Y-24829180D02*
X8328571Y-24905371D01*
X8328571Y-24905371D02*
X8404762Y-24943466D01*
X7261904Y-24981561D02*
X7261904Y-25514895D01*
X7452380Y-24676800D02*
X7642857Y-25248228D01*
X7642857Y-25248228D02*
X7147618Y-25248228D01*
X9390476Y-40664895D02*
X8933333Y-40664895D01*
X9161905Y-41464895D02*
X9161905Y-40664895D01*
X8666666Y-41464895D02*
X8666666Y-40664895D01*
X8666666Y-40664895D02*
X8361904Y-40664895D01*
X8361904Y-40664895D02*
X8285714Y-40702990D01*
X8285714Y-40702990D02*
X8247619Y-40741085D01*
X8247619Y-40741085D02*
X8209523Y-40817276D01*
X8209523Y-40817276D02*
X8209523Y-40931561D01*
X8209523Y-40931561D02*
X8247619Y-41007752D01*
X8247619Y-41007752D02*
X8285714Y-41045847D01*
X8285714Y-41045847D02*
X8361904Y-41083942D01*
X8361904Y-41083942D02*
X8666666Y-41083942D01*
X7904762Y-40741085D02*
X7866666Y-40702990D01*
X7866666Y-40702990D02*
X7790476Y-40664895D01*
X7790476Y-40664895D02*
X7600000Y-40664895D01*
X7600000Y-40664895D02*
X7523809Y-40702990D01*
X7523809Y-40702990D02*
X7485714Y-40741085D01*
X7485714Y-40741085D02*
X7447619Y-40817276D01*
X7447619Y-40817276D02*
X7447619Y-40893466D01*
X7447619Y-40893466D02*
X7485714Y-41007752D01*
X7485714Y-41007752D02*
X7942857Y-41464895D01*
X7942857Y-41464895D02*
X7447619Y-41464895D01*
X6761904Y-40664895D02*
X6914285Y-40664895D01*
X6914285Y-40664895D02*
X6990476Y-40702990D01*
X6990476Y-40702990D02*
X7028571Y-40741085D01*
X7028571Y-40741085D02*
X7104761Y-40855371D01*
X7104761Y-40855371D02*
X7142857Y-41007752D01*
X7142857Y-41007752D02*
X7142857Y-41312514D01*
X7142857Y-41312514D02*
X7104761Y-41388704D01*
X7104761Y-41388704D02*
X7066666Y-41426800D01*
X7066666Y-41426800D02*
X6990476Y-41464895D01*
X6990476Y-41464895D02*
X6838095Y-41464895D01*
X6838095Y-41464895D02*
X6761904Y-41426800D01*
X6761904Y-41426800D02*
X6723809Y-41388704D01*
X6723809Y-41388704D02*
X6685714Y-41312514D01*
X6685714Y-41312514D02*
X6685714Y-41122038D01*
X6685714Y-41122038D02*
X6723809Y-41045847D01*
X6723809Y-41045847D02*
X6761904Y-41007752D01*
X6761904Y-41007752D02*
X6838095Y-40969657D01*
X6838095Y-40969657D02*
X6990476Y-40969657D01*
X6990476Y-40969657D02*
X7066666Y-41007752D01*
X7066666Y-41007752D02*
X7104761Y-41045847D01*
X7104761Y-41045847D02*
X7142857Y-41122038D01*
X6390476Y-24714895D02*
X5933333Y-24714895D01*
X6161905Y-25514895D02*
X6161905Y-24714895D01*
X5666666Y-25514895D02*
X5666666Y-24714895D01*
X5666666Y-24714895D02*
X5361904Y-24714895D01*
X5361904Y-24714895D02*
X5285714Y-24752990D01*
X5285714Y-24752990D02*
X5247619Y-24791085D01*
X5247619Y-24791085D02*
X5209523Y-24867276D01*
X5209523Y-24867276D02*
X5209523Y-24981561D01*
X5209523Y-24981561D02*
X5247619Y-25057752D01*
X5247619Y-25057752D02*
X5285714Y-25095847D01*
X5285714Y-25095847D02*
X5361904Y-25133942D01*
X5361904Y-25133942D02*
X5666666Y-25133942D01*
X4447619Y-25514895D02*
X4904762Y-25514895D01*
X4676190Y-25514895D02*
X4676190Y-24714895D01*
X4676190Y-24714895D02*
X4752381Y-24829180D01*
X4752381Y-24829180D02*
X4828571Y-24905371D01*
X4828571Y-24905371D02*
X4904762Y-24943466D01*
X4180952Y-24714895D02*
X3685714Y-24714895D01*
X3685714Y-24714895D02*
X3952380Y-25019657D01*
X3952380Y-25019657D02*
X3838095Y-25019657D01*
X3838095Y-25019657D02*
X3761904Y-25057752D01*
X3761904Y-25057752D02*
X3723809Y-25095847D01*
X3723809Y-25095847D02*
X3685714Y-25172038D01*
X3685714Y-25172038D02*
X3685714Y-25362514D01*
X3685714Y-25362514D02*
X3723809Y-25438704D01*
X3723809Y-25438704D02*
X3761904Y-25476800D01*
X3761904Y-25476800D02*
X3838095Y-25514895D01*
X3838095Y-25514895D02*
X4066666Y-25514895D01*
X4066666Y-25514895D02*
X4142857Y-25476800D01*
X4142857Y-25476800D02*
X4180952Y-25438704D01*
X35009523Y-26464895D02*
X34552380Y-26464895D01*
X34780952Y-27264895D02*
X34780952Y-26464895D01*
X34285713Y-27264895D02*
X34285713Y-26464895D01*
X34285713Y-26464895D02*
X33980951Y-26464895D01*
X33980951Y-26464895D02*
X33904761Y-26502990D01*
X33904761Y-26502990D02*
X33866666Y-26541085D01*
X33866666Y-26541085D02*
X33828570Y-26617276D01*
X33828570Y-26617276D02*
X33828570Y-26731561D01*
X33828570Y-26731561D02*
X33866666Y-26807752D01*
X33866666Y-26807752D02*
X33904761Y-26845847D01*
X33904761Y-26845847D02*
X33980951Y-26883942D01*
X33980951Y-26883942D02*
X34285713Y-26883942D01*
X33447618Y-27264895D02*
X33295237Y-27264895D01*
X33295237Y-27264895D02*
X33219047Y-27226800D01*
X33219047Y-27226800D02*
X33180951Y-27188704D01*
X33180951Y-27188704D02*
X33104761Y-27074419D01*
X33104761Y-27074419D02*
X33066666Y-26922038D01*
X33066666Y-26922038D02*
X33066666Y-26617276D01*
X33066666Y-26617276D02*
X33104761Y-26541085D01*
X33104761Y-26541085D02*
X33142856Y-26502990D01*
X33142856Y-26502990D02*
X33219047Y-26464895D01*
X33219047Y-26464895D02*
X33371428Y-26464895D01*
X33371428Y-26464895D02*
X33447618Y-26502990D01*
X33447618Y-26502990D02*
X33485713Y-26541085D01*
X33485713Y-26541085D02*
X33523809Y-26617276D01*
X33523809Y-26617276D02*
X33523809Y-26807752D01*
X33523809Y-26807752D02*
X33485713Y-26883942D01*
X33485713Y-26883942D02*
X33447618Y-26922038D01*
X33447618Y-26922038D02*
X33371428Y-26960133D01*
X33371428Y-26960133D02*
X33219047Y-26960133D01*
X33219047Y-26960133D02*
X33142856Y-26922038D01*
X33142856Y-26922038D02*
X33104761Y-26883942D01*
X33104761Y-26883942D02*
X33066666Y-26807752D01*
X6009523Y-26464895D02*
X5552380Y-26464895D01*
X5780952Y-27264895D02*
X5780952Y-26464895D01*
X5285713Y-27264895D02*
X5285713Y-26464895D01*
X5285713Y-26464895D02*
X4980951Y-26464895D01*
X4980951Y-26464895D02*
X4904761Y-26502990D01*
X4904761Y-26502990D02*
X4866666Y-26541085D01*
X4866666Y-26541085D02*
X4828570Y-26617276D01*
X4828570Y-26617276D02*
X4828570Y-26731561D01*
X4828570Y-26731561D02*
X4866666Y-26807752D01*
X4866666Y-26807752D02*
X4904761Y-26845847D01*
X4904761Y-26845847D02*
X4980951Y-26883942D01*
X4980951Y-26883942D02*
X5285713Y-26883942D01*
X4066666Y-27264895D02*
X4523809Y-27264895D01*
X4295237Y-27264895D02*
X4295237Y-26464895D01*
X4295237Y-26464895D02*
X4371428Y-26579180D01*
X4371428Y-26579180D02*
X4447618Y-26655371D01*
X4447618Y-26655371D02*
X4523809Y-26693466D01*
X15390476Y-40664895D02*
X14933333Y-40664895D01*
X15161905Y-41464895D02*
X15161905Y-40664895D01*
X14666666Y-41464895D02*
X14666666Y-40664895D01*
X14666666Y-40664895D02*
X14361904Y-40664895D01*
X14361904Y-40664895D02*
X14285714Y-40702990D01*
X14285714Y-40702990D02*
X14247619Y-40741085D01*
X14247619Y-40741085D02*
X14209523Y-40817276D01*
X14209523Y-40817276D02*
X14209523Y-40931561D01*
X14209523Y-40931561D02*
X14247619Y-41007752D01*
X14247619Y-41007752D02*
X14285714Y-41045847D01*
X14285714Y-41045847D02*
X14361904Y-41083942D01*
X14361904Y-41083942D02*
X14666666Y-41083942D01*
X13904762Y-40741085D02*
X13866666Y-40702990D01*
X13866666Y-40702990D02*
X13790476Y-40664895D01*
X13790476Y-40664895D02*
X13600000Y-40664895D01*
X13600000Y-40664895D02*
X13523809Y-40702990D01*
X13523809Y-40702990D02*
X13485714Y-40741085D01*
X13485714Y-40741085D02*
X13447619Y-40817276D01*
X13447619Y-40817276D02*
X13447619Y-40893466D01*
X13447619Y-40893466D02*
X13485714Y-41007752D01*
X13485714Y-41007752D02*
X13942857Y-41464895D01*
X13942857Y-41464895D02*
X13447619Y-41464895D01*
X13180952Y-40664895D02*
X12647618Y-40664895D01*
X12647618Y-40664895D02*
X12990476Y-41464895D01*
X21009523Y-26464895D02*
X20552380Y-26464895D01*
X20780952Y-27264895D02*
X20780952Y-26464895D01*
X20285713Y-27264895D02*
X20285713Y-26464895D01*
X20285713Y-26464895D02*
X19980951Y-26464895D01*
X19980951Y-26464895D02*
X19904761Y-26502990D01*
X19904761Y-26502990D02*
X19866666Y-26541085D01*
X19866666Y-26541085D02*
X19828570Y-26617276D01*
X19828570Y-26617276D02*
X19828570Y-26731561D01*
X19828570Y-26731561D02*
X19866666Y-26807752D01*
X19866666Y-26807752D02*
X19904761Y-26845847D01*
X19904761Y-26845847D02*
X19980951Y-26883942D01*
X19980951Y-26883942D02*
X20285713Y-26883942D01*
X19104761Y-26464895D02*
X19485713Y-26464895D01*
X19485713Y-26464895D02*
X19523809Y-26845847D01*
X19523809Y-26845847D02*
X19485713Y-26807752D01*
X19485713Y-26807752D02*
X19409523Y-26769657D01*
X19409523Y-26769657D02*
X19219047Y-26769657D01*
X19219047Y-26769657D02*
X19142856Y-26807752D01*
X19142856Y-26807752D02*
X19104761Y-26845847D01*
X19104761Y-26845847D02*
X19066666Y-26922038D01*
X19066666Y-26922038D02*
X19066666Y-27112514D01*
X19066666Y-27112514D02*
X19104761Y-27188704D01*
X19104761Y-27188704D02*
X19142856Y-27226800D01*
X19142856Y-27226800D02*
X19219047Y-27264895D01*
X19219047Y-27264895D02*
X19409523Y-27264895D01*
X19409523Y-27264895D02*
X19485713Y-27226800D01*
X19485713Y-27226800D02*
X19523809Y-27188704D01*
X45390476Y-37464895D02*
X44933333Y-37464895D01*
X45161905Y-38264895D02*
X45161905Y-37464895D01*
X44666666Y-38264895D02*
X44666666Y-37464895D01*
X44666666Y-37464895D02*
X44361904Y-37464895D01*
X44361904Y-37464895D02*
X44285714Y-37502990D01*
X44285714Y-37502990D02*
X44247619Y-37541085D01*
X44247619Y-37541085D02*
X44209523Y-37617276D01*
X44209523Y-37617276D02*
X44209523Y-37731561D01*
X44209523Y-37731561D02*
X44247619Y-37807752D01*
X44247619Y-37807752D02*
X44285714Y-37845847D01*
X44285714Y-37845847D02*
X44361904Y-37883942D01*
X44361904Y-37883942D02*
X44666666Y-37883942D01*
X43447619Y-38264895D02*
X43904762Y-38264895D01*
X43676190Y-38264895D02*
X43676190Y-37464895D01*
X43676190Y-37464895D02*
X43752381Y-37579180D01*
X43752381Y-37579180D02*
X43828571Y-37655371D01*
X43828571Y-37655371D02*
X43904762Y-37693466D01*
X42952380Y-37464895D02*
X42876190Y-37464895D01*
X42876190Y-37464895D02*
X42799999Y-37502990D01*
X42799999Y-37502990D02*
X42761904Y-37541085D01*
X42761904Y-37541085D02*
X42723809Y-37617276D01*
X42723809Y-37617276D02*
X42685714Y-37769657D01*
X42685714Y-37769657D02*
X42685714Y-37960133D01*
X42685714Y-37960133D02*
X42723809Y-38112514D01*
X42723809Y-38112514D02*
X42761904Y-38188704D01*
X42761904Y-38188704D02*
X42799999Y-38226800D01*
X42799999Y-38226800D02*
X42876190Y-38264895D01*
X42876190Y-38264895D02*
X42952380Y-38264895D01*
X42952380Y-38264895D02*
X43028571Y-38226800D01*
X43028571Y-38226800D02*
X43066666Y-38188704D01*
X43066666Y-38188704D02*
X43104761Y-38112514D01*
X43104761Y-38112514D02*
X43142857Y-37960133D01*
X43142857Y-37960133D02*
X43142857Y-37769657D01*
X43142857Y-37769657D02*
X43104761Y-37617276D01*
X43104761Y-37617276D02*
X43066666Y-37541085D01*
X43066666Y-37541085D02*
X43028571Y-37502990D01*
X43028571Y-37502990D02*
X42952380Y-37464895D01*
X6390476Y-40664895D02*
X5933333Y-40664895D01*
X6161905Y-41464895D02*
X6161905Y-40664895D01*
X5666666Y-41464895D02*
X5666666Y-40664895D01*
X5666666Y-40664895D02*
X5361904Y-40664895D01*
X5361904Y-40664895D02*
X5285714Y-40702990D01*
X5285714Y-40702990D02*
X5247619Y-40741085D01*
X5247619Y-40741085D02*
X5209523Y-40817276D01*
X5209523Y-40817276D02*
X5209523Y-40931561D01*
X5209523Y-40931561D02*
X5247619Y-41007752D01*
X5247619Y-41007752D02*
X5285714Y-41045847D01*
X5285714Y-41045847D02*
X5361904Y-41083942D01*
X5361904Y-41083942D02*
X5666666Y-41083942D01*
X4904762Y-40741085D02*
X4866666Y-40702990D01*
X4866666Y-40702990D02*
X4790476Y-40664895D01*
X4790476Y-40664895D02*
X4600000Y-40664895D01*
X4600000Y-40664895D02*
X4523809Y-40702990D01*
X4523809Y-40702990D02*
X4485714Y-40741085D01*
X4485714Y-40741085D02*
X4447619Y-40817276D01*
X4447619Y-40817276D02*
X4447619Y-40893466D01*
X4447619Y-40893466D02*
X4485714Y-41007752D01*
X4485714Y-41007752D02*
X4942857Y-41464895D01*
X4942857Y-41464895D02*
X4447619Y-41464895D01*
X3723809Y-40664895D02*
X4104761Y-40664895D01*
X4104761Y-40664895D02*
X4142857Y-41045847D01*
X4142857Y-41045847D02*
X4104761Y-41007752D01*
X4104761Y-41007752D02*
X4028571Y-40969657D01*
X4028571Y-40969657D02*
X3838095Y-40969657D01*
X3838095Y-40969657D02*
X3761904Y-41007752D01*
X3761904Y-41007752D02*
X3723809Y-41045847D01*
X3723809Y-41045847D02*
X3685714Y-41122038D01*
X3685714Y-41122038D02*
X3685714Y-41312514D01*
X3685714Y-41312514D02*
X3723809Y-41388704D01*
X3723809Y-41388704D02*
X3761904Y-41426800D01*
X3761904Y-41426800D02*
X3838095Y-41464895D01*
X3838095Y-41464895D02*
X4028571Y-41464895D01*
X4028571Y-41464895D02*
X4104761Y-41426800D01*
X4104761Y-41426800D02*
X4142857Y-41388704D01*
X37490476Y-34164895D02*
X37033333Y-34164895D01*
X37261905Y-34964895D02*
X37261905Y-34164895D01*
X36766666Y-34964895D02*
X36766666Y-34164895D01*
X36766666Y-34164895D02*
X36461904Y-34164895D01*
X36461904Y-34164895D02*
X36385714Y-34202990D01*
X36385714Y-34202990D02*
X36347619Y-34241085D01*
X36347619Y-34241085D02*
X36309523Y-34317276D01*
X36309523Y-34317276D02*
X36309523Y-34431561D01*
X36309523Y-34431561D02*
X36347619Y-34507752D01*
X36347619Y-34507752D02*
X36385714Y-34545847D01*
X36385714Y-34545847D02*
X36461904Y-34583942D01*
X36461904Y-34583942D02*
X36766666Y-34583942D01*
X36004762Y-34241085D02*
X35966666Y-34202990D01*
X35966666Y-34202990D02*
X35890476Y-34164895D01*
X35890476Y-34164895D02*
X35700000Y-34164895D01*
X35700000Y-34164895D02*
X35623809Y-34202990D01*
X35623809Y-34202990D02*
X35585714Y-34241085D01*
X35585714Y-34241085D02*
X35547619Y-34317276D01*
X35547619Y-34317276D02*
X35547619Y-34393466D01*
X35547619Y-34393466D02*
X35585714Y-34507752D01*
X35585714Y-34507752D02*
X36042857Y-34964895D01*
X36042857Y-34964895D02*
X35547619Y-34964895D01*
X34785714Y-34964895D02*
X35242857Y-34964895D01*
X35014285Y-34964895D02*
X35014285Y-34164895D01*
X35014285Y-34164895D02*
X35090476Y-34279180D01*
X35090476Y-34279180D02*
X35166666Y-34355371D01*
X35166666Y-34355371D02*
X35242857Y-34393466D01*
X9509523Y-26464895D02*
X9052380Y-26464895D01*
X9280952Y-27264895D02*
X9280952Y-26464895D01*
X8785713Y-27264895D02*
X8785713Y-26464895D01*
X8785713Y-26464895D02*
X8480951Y-26464895D01*
X8480951Y-26464895D02*
X8404761Y-26502990D01*
X8404761Y-26502990D02*
X8366666Y-26541085D01*
X8366666Y-26541085D02*
X8328570Y-26617276D01*
X8328570Y-26617276D02*
X8328570Y-26731561D01*
X8328570Y-26731561D02*
X8366666Y-26807752D01*
X8366666Y-26807752D02*
X8404761Y-26845847D01*
X8404761Y-26845847D02*
X8480951Y-26883942D01*
X8480951Y-26883942D02*
X8785713Y-26883942D01*
X8023809Y-26541085D02*
X7985713Y-26502990D01*
X7985713Y-26502990D02*
X7909523Y-26464895D01*
X7909523Y-26464895D02*
X7719047Y-26464895D01*
X7719047Y-26464895D02*
X7642856Y-26502990D01*
X7642856Y-26502990D02*
X7604761Y-26541085D01*
X7604761Y-26541085D02*
X7566666Y-26617276D01*
X7566666Y-26617276D02*
X7566666Y-26693466D01*
X7566666Y-26693466D02*
X7604761Y-26807752D01*
X7604761Y-26807752D02*
X8061904Y-27264895D01*
X8061904Y-27264895D02*
X7566666Y-27264895D01*
X44490476Y-34164895D02*
X44033333Y-34164895D01*
X44261905Y-34964895D02*
X44261905Y-34164895D01*
X43766666Y-34964895D02*
X43766666Y-34164895D01*
X43766666Y-34164895D02*
X43461904Y-34164895D01*
X43461904Y-34164895D02*
X43385714Y-34202990D01*
X43385714Y-34202990D02*
X43347619Y-34241085D01*
X43347619Y-34241085D02*
X43309523Y-34317276D01*
X43309523Y-34317276D02*
X43309523Y-34431561D01*
X43309523Y-34431561D02*
X43347619Y-34507752D01*
X43347619Y-34507752D02*
X43385714Y-34545847D01*
X43385714Y-34545847D02*
X43461904Y-34583942D01*
X43461904Y-34583942D02*
X43766666Y-34583942D01*
X43004762Y-34241085D02*
X42966666Y-34202990D01*
X42966666Y-34202990D02*
X42890476Y-34164895D01*
X42890476Y-34164895D02*
X42700000Y-34164895D01*
X42700000Y-34164895D02*
X42623809Y-34202990D01*
X42623809Y-34202990D02*
X42585714Y-34241085D01*
X42585714Y-34241085D02*
X42547619Y-34317276D01*
X42547619Y-34317276D02*
X42547619Y-34393466D01*
X42547619Y-34393466D02*
X42585714Y-34507752D01*
X42585714Y-34507752D02*
X43042857Y-34964895D01*
X43042857Y-34964895D02*
X42547619Y-34964895D01*
X42280952Y-34164895D02*
X41785714Y-34164895D01*
X41785714Y-34164895D02*
X42052380Y-34469657D01*
X42052380Y-34469657D02*
X41938095Y-34469657D01*
X41938095Y-34469657D02*
X41861904Y-34507752D01*
X41861904Y-34507752D02*
X41823809Y-34545847D01*
X41823809Y-34545847D02*
X41785714Y-34622038D01*
X41785714Y-34622038D02*
X41785714Y-34812514D01*
X41785714Y-34812514D02*
X41823809Y-34888704D01*
X41823809Y-34888704D02*
X41861904Y-34926800D01*
X41861904Y-34926800D02*
X41938095Y-34964895D01*
X41938095Y-34964895D02*
X42166666Y-34964895D01*
X42166666Y-34964895D02*
X42242857Y-34926800D01*
X42242857Y-34926800D02*
X42280952Y-34888704D01*
X40990476Y-34164895D02*
X40533333Y-34164895D01*
X40761905Y-34964895D02*
X40761905Y-34164895D01*
X40266666Y-34964895D02*
X40266666Y-34164895D01*
X40266666Y-34164895D02*
X39961904Y-34164895D01*
X39961904Y-34164895D02*
X39885714Y-34202990D01*
X39885714Y-34202990D02*
X39847619Y-34241085D01*
X39847619Y-34241085D02*
X39809523Y-34317276D01*
X39809523Y-34317276D02*
X39809523Y-34431561D01*
X39809523Y-34431561D02*
X39847619Y-34507752D01*
X39847619Y-34507752D02*
X39885714Y-34545847D01*
X39885714Y-34545847D02*
X39961904Y-34583942D01*
X39961904Y-34583942D02*
X40266666Y-34583942D01*
X39504762Y-34241085D02*
X39466666Y-34202990D01*
X39466666Y-34202990D02*
X39390476Y-34164895D01*
X39390476Y-34164895D02*
X39200000Y-34164895D01*
X39200000Y-34164895D02*
X39123809Y-34202990D01*
X39123809Y-34202990D02*
X39085714Y-34241085D01*
X39085714Y-34241085D02*
X39047619Y-34317276D01*
X39047619Y-34317276D02*
X39047619Y-34393466D01*
X39047619Y-34393466D02*
X39085714Y-34507752D01*
X39085714Y-34507752D02*
X39542857Y-34964895D01*
X39542857Y-34964895D02*
X39047619Y-34964895D01*
X38742857Y-34241085D02*
X38704761Y-34202990D01*
X38704761Y-34202990D02*
X38628571Y-34164895D01*
X38628571Y-34164895D02*
X38438095Y-34164895D01*
X38438095Y-34164895D02*
X38361904Y-34202990D01*
X38361904Y-34202990D02*
X38323809Y-34241085D01*
X38323809Y-34241085D02*
X38285714Y-34317276D01*
X38285714Y-34317276D02*
X38285714Y-34393466D01*
X38285714Y-34393466D02*
X38323809Y-34507752D01*
X38323809Y-34507752D02*
X38780952Y-34964895D01*
X38780952Y-34964895D02*
X38285714Y-34964895D01*
X27509523Y-26464895D02*
X27052380Y-26464895D01*
X27280952Y-27264895D02*
X27280952Y-26464895D01*
X26785713Y-27264895D02*
X26785713Y-26464895D01*
X26785713Y-26464895D02*
X26480951Y-26464895D01*
X26480951Y-26464895D02*
X26404761Y-26502990D01*
X26404761Y-26502990D02*
X26366666Y-26541085D01*
X26366666Y-26541085D02*
X26328570Y-26617276D01*
X26328570Y-26617276D02*
X26328570Y-26731561D01*
X26328570Y-26731561D02*
X26366666Y-26807752D01*
X26366666Y-26807752D02*
X26404761Y-26845847D01*
X26404761Y-26845847D02*
X26480951Y-26883942D01*
X26480951Y-26883942D02*
X26785713Y-26883942D01*
X26061904Y-26464895D02*
X25528570Y-26464895D01*
X25528570Y-26464895D02*
X25871428Y-27264895D01*
X42390476Y-26464895D02*
X41933333Y-26464895D01*
X42161905Y-27264895D02*
X42161905Y-26464895D01*
X41666666Y-27264895D02*
X41666666Y-26464895D01*
X41666666Y-26464895D02*
X41361904Y-26464895D01*
X41361904Y-26464895D02*
X41285714Y-26502990D01*
X41285714Y-26502990D02*
X41247619Y-26541085D01*
X41247619Y-26541085D02*
X41209523Y-26617276D01*
X41209523Y-26617276D02*
X41209523Y-26731561D01*
X41209523Y-26731561D02*
X41247619Y-26807752D01*
X41247619Y-26807752D02*
X41285714Y-26845847D01*
X41285714Y-26845847D02*
X41361904Y-26883942D01*
X41361904Y-26883942D02*
X41666666Y-26883942D01*
X40447619Y-27264895D02*
X40904762Y-27264895D01*
X40676190Y-27264895D02*
X40676190Y-26464895D01*
X40676190Y-26464895D02*
X40752381Y-26579180D01*
X40752381Y-26579180D02*
X40828571Y-26655371D01*
X40828571Y-26655371D02*
X40904762Y-26693466D01*
X39685714Y-27264895D02*
X40142857Y-27264895D01*
X39914285Y-27264895D02*
X39914285Y-26464895D01*
X39914285Y-26464895D02*
X39990476Y-26579180D01*
X39990476Y-26579180D02*
X40066666Y-26655371D01*
X40066666Y-26655371D02*
X40142857Y-26693466D01*
X20190476Y-34164895D02*
X19733333Y-34164895D01*
X19961905Y-34964895D02*
X19961905Y-34164895D01*
X19466666Y-34964895D02*
X19466666Y-34164895D01*
X19466666Y-34164895D02*
X19161904Y-34164895D01*
X19161904Y-34164895D02*
X19085714Y-34202990D01*
X19085714Y-34202990D02*
X19047619Y-34241085D01*
X19047619Y-34241085D02*
X19009523Y-34317276D01*
X19009523Y-34317276D02*
X19009523Y-34431561D01*
X19009523Y-34431561D02*
X19047619Y-34507752D01*
X19047619Y-34507752D02*
X19085714Y-34545847D01*
X19085714Y-34545847D02*
X19161904Y-34583942D01*
X19161904Y-34583942D02*
X19466666Y-34583942D01*
X18247619Y-34964895D02*
X18704762Y-34964895D01*
X18476190Y-34964895D02*
X18476190Y-34164895D01*
X18476190Y-34164895D02*
X18552381Y-34279180D01*
X18552381Y-34279180D02*
X18628571Y-34355371D01*
X18628571Y-34355371D02*
X18704762Y-34393466D01*
X17561904Y-34164895D02*
X17714285Y-34164895D01*
X17714285Y-34164895D02*
X17790476Y-34202990D01*
X17790476Y-34202990D02*
X17828571Y-34241085D01*
X17828571Y-34241085D02*
X17904761Y-34355371D01*
X17904761Y-34355371D02*
X17942857Y-34507752D01*
X17942857Y-34507752D02*
X17942857Y-34812514D01*
X17942857Y-34812514D02*
X17904761Y-34888704D01*
X17904761Y-34888704D02*
X17866666Y-34926800D01*
X17866666Y-34926800D02*
X17790476Y-34964895D01*
X17790476Y-34964895D02*
X17638095Y-34964895D01*
X17638095Y-34964895D02*
X17561904Y-34926800D01*
X17561904Y-34926800D02*
X17523809Y-34888704D01*
X17523809Y-34888704D02*
X17485714Y-34812514D01*
X17485714Y-34812514D02*
X17485714Y-34622038D01*
X17485714Y-34622038D02*
X17523809Y-34545847D01*
X17523809Y-34545847D02*
X17561904Y-34507752D01*
X17561904Y-34507752D02*
X17638095Y-34469657D01*
X17638095Y-34469657D02*
X17790476Y-34469657D01*
X17790476Y-34469657D02*
X17866666Y-34507752D01*
X17866666Y-34507752D02*
X17904761Y-34545847D01*
X17904761Y-34545847D02*
X17942857Y-34622038D01*
X34190475Y-34164895D02*
X33733332Y-34164895D01*
X33961904Y-34964895D02*
X33961904Y-34164895D01*
X33466665Y-34964895D02*
X33466665Y-34164895D01*
X33466665Y-34164895D02*
X33161903Y-34164895D01*
X33161903Y-34164895D02*
X33085713Y-34202990D01*
X33085713Y-34202990D02*
X33047618Y-34241085D01*
X33047618Y-34241085D02*
X33009522Y-34317276D01*
X33009522Y-34317276D02*
X33009522Y-34431561D01*
X33009522Y-34431561D02*
X33047618Y-34507752D01*
X33047618Y-34507752D02*
X33085713Y-34545847D01*
X33085713Y-34545847D02*
X33161903Y-34583942D01*
X33161903Y-34583942D02*
X33466665Y-34583942D01*
X32704761Y-34241085D02*
X32666665Y-34202990D01*
X32666665Y-34202990D02*
X32590475Y-34164895D01*
X32590475Y-34164895D02*
X32399999Y-34164895D01*
X32399999Y-34164895D02*
X32323808Y-34202990D01*
X32323808Y-34202990D02*
X32285713Y-34241085D01*
X32285713Y-34241085D02*
X32247618Y-34317276D01*
X32247618Y-34317276D02*
X32247618Y-34393466D01*
X32247618Y-34393466D02*
X32285713Y-34507752D01*
X32285713Y-34507752D02*
X32742856Y-34964895D01*
X32742856Y-34964895D02*
X32247618Y-34964895D01*
X31752379Y-34164895D02*
X31676189Y-34164895D01*
X31676189Y-34164895D02*
X31599998Y-34202990D01*
X31599998Y-34202990D02*
X31561903Y-34241085D01*
X31561903Y-34241085D02*
X31523808Y-34317276D01*
X31523808Y-34317276D02*
X31485713Y-34469657D01*
X31485713Y-34469657D02*
X31485713Y-34660133D01*
X31485713Y-34660133D02*
X31523808Y-34812514D01*
X31523808Y-34812514D02*
X31561903Y-34888704D01*
X31561903Y-34888704D02*
X31599998Y-34926800D01*
X31599998Y-34926800D02*
X31676189Y-34964895D01*
X31676189Y-34964895D02*
X31752379Y-34964895D01*
X31752379Y-34964895D02*
X31828570Y-34926800D01*
X31828570Y-34926800D02*
X31866665Y-34888704D01*
X31866665Y-34888704D02*
X31904760Y-34812514D01*
X31904760Y-34812514D02*
X31942856Y-34660133D01*
X31942856Y-34660133D02*
X31942856Y-34469657D01*
X31942856Y-34469657D02*
X31904760Y-34317276D01*
X31904760Y-34317276D02*
X31866665Y-34241085D01*
X31866665Y-34241085D02*
X31828570Y-34202990D01*
X31828570Y-34202990D02*
X31752379Y-34164895D01*
X16809523Y-25964895D02*
X16352380Y-25964895D01*
X16580952Y-26764895D02*
X16580952Y-25964895D01*
X16085713Y-26764895D02*
X16085713Y-25964895D01*
X16085713Y-25964895D02*
X15780951Y-25964895D01*
X15780951Y-25964895D02*
X15704761Y-26002990D01*
X15704761Y-26002990D02*
X15666666Y-26041085D01*
X15666666Y-26041085D02*
X15628570Y-26117276D01*
X15628570Y-26117276D02*
X15628570Y-26231561D01*
X15628570Y-26231561D02*
X15666666Y-26307752D01*
X15666666Y-26307752D02*
X15704761Y-26345847D01*
X15704761Y-26345847D02*
X15780951Y-26383942D01*
X15780951Y-26383942D02*
X16085713Y-26383942D01*
X14942856Y-26231561D02*
X14942856Y-26764895D01*
X15133332Y-25926800D02*
X15323809Y-26498228D01*
X15323809Y-26498228D02*
X14828570Y-26498228D01*
X21190476Y-38914895D02*
X20733333Y-38914895D01*
X20961905Y-39714895D02*
X20961905Y-38914895D01*
X20466666Y-39714895D02*
X20466666Y-38914895D01*
X20466666Y-38914895D02*
X20161904Y-38914895D01*
X20161904Y-38914895D02*
X20085714Y-38952990D01*
X20085714Y-38952990D02*
X20047619Y-38991085D01*
X20047619Y-38991085D02*
X20009523Y-39067276D01*
X20009523Y-39067276D02*
X20009523Y-39181561D01*
X20009523Y-39181561D02*
X20047619Y-39257752D01*
X20047619Y-39257752D02*
X20085714Y-39295847D01*
X20085714Y-39295847D02*
X20161904Y-39333942D01*
X20161904Y-39333942D02*
X20466666Y-39333942D01*
X19704762Y-38991085D02*
X19666666Y-38952990D01*
X19666666Y-38952990D02*
X19590476Y-38914895D01*
X19590476Y-38914895D02*
X19400000Y-38914895D01*
X19400000Y-38914895D02*
X19323809Y-38952990D01*
X19323809Y-38952990D02*
X19285714Y-38991085D01*
X19285714Y-38991085D02*
X19247619Y-39067276D01*
X19247619Y-39067276D02*
X19247619Y-39143466D01*
X19247619Y-39143466D02*
X19285714Y-39257752D01*
X19285714Y-39257752D02*
X19742857Y-39714895D01*
X19742857Y-39714895D02*
X19247619Y-39714895D01*
X18790476Y-39257752D02*
X18866666Y-39219657D01*
X18866666Y-39219657D02*
X18904761Y-39181561D01*
X18904761Y-39181561D02*
X18942857Y-39105371D01*
X18942857Y-39105371D02*
X18942857Y-39067276D01*
X18942857Y-39067276D02*
X18904761Y-38991085D01*
X18904761Y-38991085D02*
X18866666Y-38952990D01*
X18866666Y-38952990D02*
X18790476Y-38914895D01*
X18790476Y-38914895D02*
X18638095Y-38914895D01*
X18638095Y-38914895D02*
X18561904Y-38952990D01*
X18561904Y-38952990D02*
X18523809Y-38991085D01*
X18523809Y-38991085D02*
X18485714Y-39067276D01*
X18485714Y-39067276D02*
X18485714Y-39105371D01*
X18485714Y-39105371D02*
X18523809Y-39181561D01*
X18523809Y-39181561D02*
X18561904Y-39219657D01*
X18561904Y-39219657D02*
X18638095Y-39257752D01*
X18638095Y-39257752D02*
X18790476Y-39257752D01*
X18790476Y-39257752D02*
X18866666Y-39295847D01*
X18866666Y-39295847D02*
X18904761Y-39333942D01*
X18904761Y-39333942D02*
X18942857Y-39410133D01*
X18942857Y-39410133D02*
X18942857Y-39562514D01*
X18942857Y-39562514D02*
X18904761Y-39638704D01*
X18904761Y-39638704D02*
X18866666Y-39676800D01*
X18866666Y-39676800D02*
X18790476Y-39714895D01*
X18790476Y-39714895D02*
X18638095Y-39714895D01*
X18638095Y-39714895D02*
X18561904Y-39676800D01*
X18561904Y-39676800D02*
X18523809Y-39638704D01*
X18523809Y-39638704D02*
X18485714Y-39562514D01*
X18485714Y-39562514D02*
X18485714Y-39410133D01*
X18485714Y-39410133D02*
X18523809Y-39333942D01*
X18523809Y-39333942D02*
X18561904Y-39295847D01*
X18561904Y-39295847D02*
X18638095Y-39257752D01*
X31009523Y-26464895D02*
X30552380Y-26464895D01*
X30780952Y-27264895D02*
X30780952Y-26464895D01*
X30285713Y-27264895D02*
X30285713Y-26464895D01*
X30285713Y-26464895D02*
X29980951Y-26464895D01*
X29980951Y-26464895D02*
X29904761Y-26502990D01*
X29904761Y-26502990D02*
X29866666Y-26541085D01*
X29866666Y-26541085D02*
X29828570Y-26617276D01*
X29828570Y-26617276D02*
X29828570Y-26731561D01*
X29828570Y-26731561D02*
X29866666Y-26807752D01*
X29866666Y-26807752D02*
X29904761Y-26845847D01*
X29904761Y-26845847D02*
X29980951Y-26883942D01*
X29980951Y-26883942D02*
X30285713Y-26883942D01*
X29371428Y-26807752D02*
X29447618Y-26769657D01*
X29447618Y-26769657D02*
X29485713Y-26731561D01*
X29485713Y-26731561D02*
X29523809Y-26655371D01*
X29523809Y-26655371D02*
X29523809Y-26617276D01*
X29523809Y-26617276D02*
X29485713Y-26541085D01*
X29485713Y-26541085D02*
X29447618Y-26502990D01*
X29447618Y-26502990D02*
X29371428Y-26464895D01*
X29371428Y-26464895D02*
X29219047Y-26464895D01*
X29219047Y-26464895D02*
X29142856Y-26502990D01*
X29142856Y-26502990D02*
X29104761Y-26541085D01*
X29104761Y-26541085D02*
X29066666Y-26617276D01*
X29066666Y-26617276D02*
X29066666Y-26655371D01*
X29066666Y-26655371D02*
X29104761Y-26731561D01*
X29104761Y-26731561D02*
X29142856Y-26769657D01*
X29142856Y-26769657D02*
X29219047Y-26807752D01*
X29219047Y-26807752D02*
X29371428Y-26807752D01*
X29371428Y-26807752D02*
X29447618Y-26845847D01*
X29447618Y-26845847D02*
X29485713Y-26883942D01*
X29485713Y-26883942D02*
X29523809Y-26960133D01*
X29523809Y-26960133D02*
X29523809Y-27112514D01*
X29523809Y-27112514D02*
X29485713Y-27188704D01*
X29485713Y-27188704D02*
X29447618Y-27226800D01*
X29447618Y-27226800D02*
X29371428Y-27264895D01*
X29371428Y-27264895D02*
X29219047Y-27264895D01*
X29219047Y-27264895D02*
X29142856Y-27226800D01*
X29142856Y-27226800D02*
X29104761Y-27188704D01*
X29104761Y-27188704D02*
X29066666Y-27112514D01*
X29066666Y-27112514D02*
X29066666Y-26960133D01*
X29066666Y-26960133D02*
X29104761Y-26883942D01*
X29104761Y-26883942D02*
X29142856Y-26845847D01*
X29142856Y-26845847D02*
X29219047Y-26807752D01*
X26190476Y-42664895D02*
X25733333Y-42664895D01*
X25961905Y-43464895D02*
X25961905Y-42664895D01*
X25466666Y-43464895D02*
X25466666Y-42664895D01*
X25466666Y-42664895D02*
X25161904Y-42664895D01*
X25161904Y-42664895D02*
X25085714Y-42702990D01*
X25085714Y-42702990D02*
X25047619Y-42741085D01*
X25047619Y-42741085D02*
X25009523Y-42817276D01*
X25009523Y-42817276D02*
X25009523Y-42931561D01*
X25009523Y-42931561D02*
X25047619Y-43007752D01*
X25047619Y-43007752D02*
X25085714Y-43045847D01*
X25085714Y-43045847D02*
X25161904Y-43083942D01*
X25161904Y-43083942D02*
X25466666Y-43083942D01*
X24247619Y-43464895D02*
X24704762Y-43464895D01*
X24476190Y-43464895D02*
X24476190Y-42664895D01*
X24476190Y-42664895D02*
X24552381Y-42779180D01*
X24552381Y-42779180D02*
X24628571Y-42855371D01*
X24628571Y-42855371D02*
X24704762Y-42893466D01*
X23866666Y-43464895D02*
X23714285Y-43464895D01*
X23714285Y-43464895D02*
X23638095Y-43426800D01*
X23638095Y-43426800D02*
X23599999Y-43388704D01*
X23599999Y-43388704D02*
X23523809Y-43274419D01*
X23523809Y-43274419D02*
X23485714Y-43122038D01*
X23485714Y-43122038D02*
X23485714Y-42817276D01*
X23485714Y-42817276D02*
X23523809Y-42741085D01*
X23523809Y-42741085D02*
X23561904Y-42702990D01*
X23561904Y-42702990D02*
X23638095Y-42664895D01*
X23638095Y-42664895D02*
X23790476Y-42664895D01*
X23790476Y-42664895D02*
X23866666Y-42702990D01*
X23866666Y-42702990D02*
X23904761Y-42741085D01*
X23904761Y-42741085D02*
X23942857Y-42817276D01*
X23942857Y-42817276D02*
X23942857Y-43007752D01*
X23942857Y-43007752D02*
X23904761Y-43083942D01*
X23904761Y-43083942D02*
X23866666Y-43122038D01*
X23866666Y-43122038D02*
X23790476Y-43160133D01*
X23790476Y-43160133D02*
X23638095Y-43160133D01*
X23638095Y-43160133D02*
X23561904Y-43122038D01*
X23561904Y-43122038D02*
X23523809Y-43083942D01*
X23523809Y-43083942D02*
X23485714Y-43007752D01*
X13009523Y-26464895D02*
X12552380Y-26464895D01*
X12780952Y-27264895D02*
X12780952Y-26464895D01*
X12285713Y-27264895D02*
X12285713Y-26464895D01*
X12285713Y-26464895D02*
X11980951Y-26464895D01*
X11980951Y-26464895D02*
X11904761Y-26502990D01*
X11904761Y-26502990D02*
X11866666Y-26541085D01*
X11866666Y-26541085D02*
X11828570Y-26617276D01*
X11828570Y-26617276D02*
X11828570Y-26731561D01*
X11828570Y-26731561D02*
X11866666Y-26807752D01*
X11866666Y-26807752D02*
X11904761Y-26845847D01*
X11904761Y-26845847D02*
X11980951Y-26883942D01*
X11980951Y-26883942D02*
X12285713Y-26883942D01*
X11561904Y-26464895D02*
X11066666Y-26464895D01*
X11066666Y-26464895D02*
X11333332Y-26769657D01*
X11333332Y-26769657D02*
X11219047Y-26769657D01*
X11219047Y-26769657D02*
X11142856Y-26807752D01*
X11142856Y-26807752D02*
X11104761Y-26845847D01*
X11104761Y-26845847D02*
X11066666Y-26922038D01*
X11066666Y-26922038D02*
X11066666Y-27112514D01*
X11066666Y-27112514D02*
X11104761Y-27188704D01*
X11104761Y-27188704D02*
X11142856Y-27226800D01*
X11142856Y-27226800D02*
X11219047Y-27264895D01*
X11219047Y-27264895D02*
X11447618Y-27264895D01*
X11447618Y-27264895D02*
X11523809Y-27226800D01*
X11523809Y-27226800D02*
X11561904Y-27188704D01*
X13390476Y-24714895D02*
X12933333Y-24714895D01*
X13161905Y-25514895D02*
X13161905Y-24714895D01*
X12666666Y-25514895D02*
X12666666Y-24714895D01*
X12666666Y-24714895D02*
X12361904Y-24714895D01*
X12361904Y-24714895D02*
X12285714Y-24752990D01*
X12285714Y-24752990D02*
X12247619Y-24791085D01*
X12247619Y-24791085D02*
X12209523Y-24867276D01*
X12209523Y-24867276D02*
X12209523Y-24981561D01*
X12209523Y-24981561D02*
X12247619Y-25057752D01*
X12247619Y-25057752D02*
X12285714Y-25095847D01*
X12285714Y-25095847D02*
X12361904Y-25133942D01*
X12361904Y-25133942D02*
X12666666Y-25133942D01*
X11447619Y-25514895D02*
X11904762Y-25514895D01*
X11676190Y-25514895D02*
X11676190Y-24714895D01*
X11676190Y-24714895D02*
X11752381Y-24829180D01*
X11752381Y-24829180D02*
X11828571Y-24905371D01*
X11828571Y-24905371D02*
X11904762Y-24943466D01*
X10723809Y-24714895D02*
X11104761Y-24714895D01*
X11104761Y-24714895D02*
X11142857Y-25095847D01*
X11142857Y-25095847D02*
X11104761Y-25057752D01*
X11104761Y-25057752D02*
X11028571Y-25019657D01*
X11028571Y-25019657D02*
X10838095Y-25019657D01*
X10838095Y-25019657D02*
X10761904Y-25057752D01*
X10761904Y-25057752D02*
X10723809Y-25095847D01*
X10723809Y-25095847D02*
X10685714Y-25172038D01*
X10685714Y-25172038D02*
X10685714Y-25362514D01*
X10685714Y-25362514D02*
X10723809Y-25438704D01*
X10723809Y-25438704D02*
X10761904Y-25476800D01*
X10761904Y-25476800D02*
X10838095Y-25514895D01*
X10838095Y-25514895D02*
X11028571Y-25514895D01*
X11028571Y-25514895D02*
X11104761Y-25476800D01*
X11104761Y-25476800D02*
X11142857Y-25438704D01*
X45890476Y-26464895D02*
X45433333Y-26464895D01*
X45661905Y-27264895D02*
X45661905Y-26464895D01*
X45166666Y-27264895D02*
X45166666Y-26464895D01*
X45166666Y-26464895D02*
X44861904Y-26464895D01*
X44861904Y-26464895D02*
X44785714Y-26502990D01*
X44785714Y-26502990D02*
X44747619Y-26541085D01*
X44747619Y-26541085D02*
X44709523Y-26617276D01*
X44709523Y-26617276D02*
X44709523Y-26731561D01*
X44709523Y-26731561D02*
X44747619Y-26807752D01*
X44747619Y-26807752D02*
X44785714Y-26845847D01*
X44785714Y-26845847D02*
X44861904Y-26883942D01*
X44861904Y-26883942D02*
X45166666Y-26883942D01*
X43947619Y-27264895D02*
X44404762Y-27264895D01*
X44176190Y-27264895D02*
X44176190Y-26464895D01*
X44176190Y-26464895D02*
X44252381Y-26579180D01*
X44252381Y-26579180D02*
X44328571Y-26655371D01*
X44328571Y-26655371D02*
X44404762Y-26693466D01*
X43642857Y-26541085D02*
X43604761Y-26502990D01*
X43604761Y-26502990D02*
X43528571Y-26464895D01*
X43528571Y-26464895D02*
X43338095Y-26464895D01*
X43338095Y-26464895D02*
X43261904Y-26502990D01*
X43261904Y-26502990D02*
X43223809Y-26541085D01*
X43223809Y-26541085D02*
X43185714Y-26617276D01*
X43185714Y-26617276D02*
X43185714Y-26693466D01*
X43185714Y-26693466D02*
X43223809Y-26807752D01*
X43223809Y-26807752D02*
X43680952Y-27264895D01*
X43680952Y-27264895D02*
X43185714Y-27264895D01*
%TO.C,TP17*%
D12*
X20450000Y-32500000D02*
G75*
G02*
X18550000Y-32500000I-950000J0D01*
G01*
X18550000Y-32500000D02*
G75*
G02*
X20450000Y-32500000I950000J0D01*
G01*
%TO.C,TP6*%
X23950000Y-29000000D02*
G75*
G02*
X22050000Y-29000000I-950000J0D01*
G01*
X22050000Y-29000000D02*
G75*
G02*
X23950000Y-29000000I950000J0D01*
G01*
%TO.C,TP18*%
X29950000Y-47000000D02*
G75*
G02*
X28050000Y-47000000I-950000J0D01*
G01*
X28050000Y-47000000D02*
G75*
G02*
X29950000Y-47000000I950000J0D01*
G01*
%TO.C,TP24*%
X45450000Y-32500000D02*
G75*
G02*
X43550000Y-32500000I-950000J0D01*
G01*
X43550000Y-32500000D02*
G75*
G02*
X45450000Y-32500000I950000J0D01*
G01*
%TO.C,TP14*%
X9450000Y-32500000D02*
G75*
G02*
X7550000Y-32500000I-950000J0D01*
G01*
X7550000Y-32500000D02*
G75*
G02*
X9450000Y-32500000I950000J0D01*
G01*
%TO.C,TP26*%
X8950000Y-39000000D02*
G75*
G02*
X7050000Y-39000000I-950000J0D01*
G01*
X7050000Y-39000000D02*
G75*
G02*
X8950000Y-39000000I950000J0D01*
G01*
%TO.C,TP13*%
X5950000Y-32500000D02*
G75*
G02*
X4050000Y-32500000I-950000J0D01*
G01*
X4050000Y-32500000D02*
G75*
G02*
X5950000Y-32500000I950000J0D01*
G01*
%TO.C,TP9*%
X34950000Y-29000000D02*
G75*
G02*
X33050000Y-29000000I-950000J0D01*
G01*
X33050000Y-29000000D02*
G75*
G02*
X34950000Y-29000000I950000J0D01*
G01*
%TO.C,TP1*%
X5950000Y-29000000D02*
G75*
G02*
X4050000Y-29000000I-950000J0D01*
G01*
X4050000Y-29000000D02*
G75*
G02*
X5950000Y-29000000I950000J0D01*
G01*
%TO.C,TP27*%
X14950000Y-39000000D02*
G75*
G02*
X13050000Y-39000000I-950000J0D01*
G01*
X13050000Y-39000000D02*
G75*
G02*
X14950000Y-39000000I950000J0D01*
G01*
%TO.C,TP5*%
X20950000Y-29000000D02*
G75*
G02*
X19050000Y-29000000I-950000J0D01*
G01*
X19050000Y-29000000D02*
G75*
G02*
X20950000Y-29000000I950000J0D01*
G01*
D13*
%TO.C,LOGO2*%
X30200540Y-16458030D02*
X30157289Y-16471245D01*
X30129442Y-16487941D01*
X30120371Y-16501145D01*
X30122868Y-16516797D01*
X30139069Y-16541385D01*
X30152768Y-16558800D01*
X30181008Y-16590283D01*
X30202225Y-16603529D01*
X30220312Y-16602664D01*
X30273965Y-16589010D01*
X30313370Y-16589630D01*
X30345368Y-16605104D01*
X30356110Y-16614161D01*
X30390495Y-16646027D01*
X30390495Y-17062179D01*
X30528812Y-17062179D01*
X30528812Y-16458614D01*
X30459653Y-16458614D01*
X30418131Y-16460256D01*
X30396709Y-16466087D01*
X30390498Y-16477461D01*
X30390495Y-16477798D01*
X30387561Y-16489713D01*
X30374296Y-16488159D01*
X30355916Y-16479563D01*
X30317954Y-16463568D01*
X30287128Y-16453945D01*
X30247464Y-16451478D01*
X30200540Y-16458030D01*
G36*
X30287128Y-16453945D02*
G01*
X30317954Y-16463568D01*
X30355916Y-16479563D01*
X30374296Y-16488159D01*
X30387561Y-16489713D01*
X30390495Y-16477798D01*
X30390498Y-16477461D01*
X30396709Y-16466087D01*
X30418131Y-16460256D01*
X30459653Y-16458614D01*
X30528812Y-16458614D01*
X30528812Y-17062179D01*
X30390495Y-17062179D01*
X30390495Y-16646027D01*
X30356110Y-16614161D01*
X30345368Y-16605104D01*
X30313370Y-16589630D01*
X30273965Y-16589010D01*
X30220312Y-16602664D01*
X30202225Y-16603529D01*
X30181008Y-16590283D01*
X30152768Y-16558800D01*
X30139069Y-16541385D01*
X30122868Y-16516797D01*
X30120371Y-16501145D01*
X30129442Y-16487941D01*
X30157289Y-16471245D01*
X30200540Y-16458030D01*
X30247464Y-16451478D01*
X30287128Y-16453945D01*
G37*
X30364745Y-17401486D02*
X30316405Y-17411015D01*
X30288886Y-17425125D01*
X30259936Y-17448568D01*
X30301124Y-17500571D01*
X30326518Y-17532064D01*
X30343762Y-17547428D01*
X30360898Y-17549776D01*
X30385973Y-17542217D01*
X30397743Y-17537941D01*
X30445730Y-17531631D01*
X30489676Y-17545156D01*
X30521940Y-17575710D01*
X30527181Y-17585452D01*
X30532888Y-17611258D01*
X30537294Y-17658817D01*
X30540189Y-17724758D01*
X30541369Y-17805710D01*
X30541386Y-17817226D01*
X30541386Y-18017822D01*
X30679703Y-18017822D01*
X30679703Y-17401683D01*
X30610544Y-17401683D01*
X30570667Y-17402725D01*
X30549893Y-17407358D01*
X30542211Y-17417849D01*
X30541386Y-17427745D01*
X30541386Y-17453806D01*
X30508255Y-17427745D01*
X30470265Y-17409965D01*
X30419230Y-17401174D01*
X30364745Y-17401486D01*
G36*
X30470265Y-17409965D02*
G01*
X30508255Y-17427745D01*
X30541386Y-17453806D01*
X30541386Y-17427745D01*
X30542211Y-17417849D01*
X30549893Y-17407358D01*
X30570667Y-17402725D01*
X30610544Y-17401683D01*
X30679703Y-17401683D01*
X30679703Y-18017822D01*
X30541386Y-18017822D01*
X30541386Y-17817226D01*
X30541369Y-17805710D01*
X30540189Y-17724758D01*
X30537294Y-17658817D01*
X30532888Y-17611258D01*
X30527181Y-17585452D01*
X30521940Y-17575710D01*
X30489676Y-17545156D01*
X30445730Y-17531631D01*
X30397743Y-17537941D01*
X30385973Y-17542217D01*
X30360898Y-17549776D01*
X30343762Y-17547428D01*
X30326518Y-17532064D01*
X30301124Y-17500571D01*
X30259936Y-17448568D01*
X30288886Y-17425125D01*
X30316405Y-17411015D01*
X30364745Y-17401486D01*
X30419230Y-17401174D01*
X30470265Y-17409965D01*
G37*
X32993356Y-17403020D02*
X32974539Y-17408660D01*
X32968473Y-17421053D01*
X32968218Y-17426647D01*
X32967129Y-17442230D01*
X32959632Y-17444676D01*
X32939381Y-17433993D01*
X32927351Y-17426694D01*
X32889400Y-17411063D01*
X32844072Y-17403334D01*
X32796544Y-17402740D01*
X32751995Y-17408513D01*
X32715602Y-17419884D01*
X32692543Y-17436088D01*
X32687996Y-17456355D01*
X32690291Y-17461843D01*
X32707020Y-17484626D01*
X32732963Y-17512647D01*
X32737655Y-17517177D01*
X32762383Y-17538005D01*
X32783718Y-17544735D01*
X32813555Y-17540038D01*
X32825508Y-17536917D01*
X32862705Y-17529421D01*
X32888859Y-17532792D01*
X32910946Y-17544681D01*
X32931178Y-17560635D01*
X32946079Y-17580700D01*
X32956434Y-17608702D01*
X32963029Y-17648467D01*
X32966649Y-17703823D01*
X32968078Y-17778594D01*
X32968218Y-17823740D01*
X32968218Y-18017822D01*
X33093960Y-18017822D01*
X33093960Y-17401683D01*
X33031089Y-17401683D01*
X32993356Y-17403020D01*
G36*
X33093960Y-18017822D02*
G01*
X32968218Y-18017822D01*
X32968218Y-17823740D01*
X32968078Y-17778594D01*
X32966649Y-17703823D01*
X32963029Y-17648467D01*
X32956434Y-17608702D01*
X32946079Y-17580700D01*
X32931178Y-17560635D01*
X32910946Y-17544681D01*
X32888859Y-17532792D01*
X32862705Y-17529421D01*
X32825508Y-17536917D01*
X32813555Y-17540038D01*
X32783718Y-17544735D01*
X32762383Y-17538005D01*
X32737655Y-17517177D01*
X32732963Y-17512647D01*
X32707020Y-17484626D01*
X32690291Y-17461843D01*
X32687996Y-17456355D01*
X32692543Y-17436088D01*
X32715602Y-17419884D01*
X32751995Y-17408513D01*
X32796544Y-17402740D01*
X32844072Y-17403334D01*
X32889400Y-17411063D01*
X32927351Y-17426694D01*
X32939381Y-17433993D01*
X32959632Y-17444676D01*
X32967129Y-17442230D01*
X32968218Y-17426647D01*
X32968473Y-17421053D01*
X32974539Y-17408660D01*
X32993356Y-17403020D01*
X33031089Y-17401683D01*
X33093960Y-17401683D01*
X33093960Y-18017822D01*
G37*
X31006633Y-16654342D02*
X31005445Y-16746563D01*
X31001103Y-16816610D01*
X30992442Y-16867381D01*
X30978296Y-16901772D01*
X30957500Y-16922679D01*
X30928890Y-16933000D01*
X30893465Y-16935636D01*
X30856364Y-16932682D01*
X30828182Y-16921889D01*
X30807757Y-16900360D01*
X30793921Y-16865199D01*
X30785509Y-16813510D01*
X30781357Y-16742394D01*
X30780297Y-16654342D01*
X30780297Y-16458614D01*
X30641980Y-16458614D01*
X30641980Y-17062179D01*
X30711138Y-17062179D01*
X30752830Y-17060489D01*
X30774299Y-17054556D01*
X30780297Y-17043293D01*
X30783909Y-17033261D01*
X30798286Y-17035383D01*
X30827264Y-17049580D01*
X30893681Y-17071480D01*
X30964125Y-17069928D01*
X31031623Y-17046147D01*
X31063767Y-17027362D01*
X31088285Y-17007022D01*
X31106196Y-16981573D01*
X31118521Y-16947458D01*
X31126277Y-16901121D01*
X31130484Y-16839007D01*
X31132160Y-16757561D01*
X31132376Y-16694578D01*
X31132376Y-16458614D01*
X31006633Y-16458614D01*
X31006633Y-16654342D01*
G36*
X30780297Y-16654342D02*
G01*
X30781357Y-16742394D01*
X30785509Y-16813510D01*
X30793921Y-16865199D01*
X30807757Y-16900360D01*
X30828182Y-16921889D01*
X30856364Y-16932682D01*
X30893465Y-16935636D01*
X30928890Y-16933000D01*
X30957500Y-16922679D01*
X30978296Y-16901772D01*
X30992442Y-16867381D01*
X31001103Y-16816610D01*
X31005445Y-16746563D01*
X31006633Y-16654342D01*
X31006633Y-16458614D01*
X31132376Y-16458614D01*
X31132376Y-16694578D01*
X31132160Y-16757561D01*
X31130484Y-16839007D01*
X31126277Y-16901121D01*
X31118521Y-16947458D01*
X31106196Y-16981573D01*
X31088285Y-17007022D01*
X31063767Y-17027362D01*
X31031623Y-17046147D01*
X30964125Y-17069928D01*
X30893681Y-17071480D01*
X30827264Y-17049580D01*
X30798286Y-17035383D01*
X30783909Y-17033261D01*
X30780297Y-17043293D01*
X30774299Y-17054556D01*
X30752830Y-17060489D01*
X30711138Y-17062179D01*
X30641980Y-17062179D01*
X30641980Y-16458614D01*
X30780297Y-16458614D01*
X30780297Y-16654342D01*
G37*
X32754012Y-16469002D02*
X32722717Y-16483950D01*
X32692409Y-16505541D01*
X32669318Y-16530391D01*
X32652500Y-16562087D01*
X32641006Y-16604214D01*
X32633891Y-16660358D01*
X32630207Y-16734106D01*
X32629008Y-16829044D01*
X32628989Y-16838985D01*
X32628713Y-17062179D01*
X32767030Y-17062179D01*
X32767030Y-16856418D01*
X32767128Y-16780189D01*
X32767809Y-16724939D01*
X32769651Y-16686501D01*
X32773233Y-16660706D01*
X32779132Y-16643384D01*
X32787927Y-16630368D01*
X32800180Y-16617507D01*
X32843047Y-16589873D01*
X32889843Y-16584745D01*
X32934424Y-16602217D01*
X32949928Y-16615221D01*
X32961310Y-16627447D01*
X32969481Y-16640540D01*
X32974974Y-16658615D01*
X32978320Y-16685787D01*
X32980051Y-16726170D01*
X32980697Y-16783879D01*
X32980792Y-16854132D01*
X32980792Y-17062179D01*
X33119109Y-17062179D01*
X33119109Y-16458614D01*
X33049950Y-16458614D01*
X33008428Y-16460256D01*
X32987006Y-16466087D01*
X32980795Y-16477461D01*
X32980792Y-16477798D01*
X32977910Y-16488938D01*
X32965199Y-16487674D01*
X32939926Y-16475434D01*
X32882605Y-16457424D01*
X32817037Y-16455421D01*
X32754012Y-16469002D01*
G36*
X32882605Y-16457424D02*
G01*
X32939926Y-16475434D01*
X32965199Y-16487674D01*
X32977910Y-16488938D01*
X32980792Y-16477798D01*
X32980795Y-16477461D01*
X32987006Y-16466087D01*
X33008428Y-16460256D01*
X33049950Y-16458614D01*
X33119109Y-16458614D01*
X33119109Y-17062179D01*
X32980792Y-17062179D01*
X32980792Y-16854132D01*
X32980697Y-16783879D01*
X32980051Y-16726170D01*
X32978320Y-16685787D01*
X32974974Y-16658615D01*
X32969481Y-16640540D01*
X32961310Y-16627447D01*
X32949928Y-16615221D01*
X32934424Y-16602217D01*
X32889843Y-16584745D01*
X32843047Y-16589873D01*
X32800180Y-16617507D01*
X32787927Y-16630368D01*
X32779132Y-16643384D01*
X32773233Y-16660706D01*
X32769651Y-16686501D01*
X32767809Y-16724939D01*
X32767128Y-16780189D01*
X32767030Y-16856418D01*
X32767030Y-17062179D01*
X32628713Y-17062179D01*
X32628989Y-16838985D01*
X32629008Y-16829044D01*
X32630207Y-16734106D01*
X32633891Y-16660358D01*
X32641006Y-16604214D01*
X32652500Y-16562087D01*
X32669318Y-16530391D01*
X32692409Y-16505541D01*
X32722717Y-16483950D01*
X32754012Y-16469002D01*
X32817037Y-16455421D01*
X32882605Y-16457424D01*
G37*
X29782774Y-16463880D02*
X29709920Y-16494830D01*
X29686973Y-16509895D01*
X29657646Y-16533048D01*
X29639236Y-16551253D01*
X29636039Y-16557183D01*
X29645065Y-16570340D01*
X29668163Y-16592667D01*
X29686656Y-16608250D01*
X29737272Y-16648926D01*
X29777240Y-16615295D01*
X29808126Y-16593584D01*
X29838241Y-16586090D01*
X29872708Y-16587920D01*
X29927439Y-16601528D01*
X29965114Y-16629772D01*
X29988009Y-16675433D01*
X29998403Y-16741289D01*
X29998405Y-16741331D01*
X29997506Y-16814939D01*
X29983537Y-16868946D01*
X29955672Y-16905716D01*
X29936675Y-16918168D01*
X29886224Y-16933673D01*
X29832337Y-16933683D01*
X29785454Y-16918638D01*
X29774356Y-16911287D01*
X29746524Y-16892511D01*
X29724764Y-16889434D01*
X29701296Y-16903409D01*
X29675351Y-16928510D01*
X29634284Y-16970880D01*
X29679879Y-17008464D01*
X29750326Y-17050882D01*
X29829767Y-17071785D01*
X29912785Y-17070272D01*
X29967306Y-17056411D01*
X30031030Y-17022135D01*
X30081995Y-16968212D01*
X30105149Y-16930149D01*
X30123901Y-16875536D01*
X30133285Y-16806369D01*
X30133357Y-16731407D01*
X30124176Y-16659409D01*
X30105801Y-16599137D01*
X30102907Y-16592958D01*
X30060048Y-16532351D01*
X30002021Y-16488224D01*
X29933409Y-16461493D01*
X29858799Y-16453073D01*
X29782774Y-16463880D01*
G36*
X29933409Y-16461493D02*
G01*
X30002021Y-16488224D01*
X30060048Y-16532351D01*
X30102907Y-16592958D01*
X30105801Y-16599137D01*
X30124176Y-16659409D01*
X30133357Y-16731407D01*
X30133285Y-16806369D01*
X30123901Y-16875536D01*
X30105149Y-16930149D01*
X30081995Y-16968212D01*
X30031030Y-17022135D01*
X29967306Y-17056411D01*
X29912785Y-17070272D01*
X29829767Y-17071785D01*
X29750326Y-17050882D01*
X29679879Y-17008464D01*
X29634284Y-16970880D01*
X29675351Y-16928510D01*
X29701296Y-16903409D01*
X29724764Y-16889434D01*
X29746524Y-16892511D01*
X29774356Y-16911287D01*
X29785454Y-16918638D01*
X29832337Y-16933683D01*
X29886224Y-16933673D01*
X29936675Y-16918168D01*
X29955672Y-16905716D01*
X29983537Y-16868946D01*
X29997506Y-16814939D01*
X29998405Y-16741331D01*
X29998403Y-16741289D01*
X29988009Y-16675433D01*
X29965114Y-16629772D01*
X29927439Y-16601528D01*
X29872708Y-16587920D01*
X29838241Y-16586090D01*
X29808126Y-16593584D01*
X29777240Y-16615295D01*
X29737272Y-16648926D01*
X29686656Y-16608250D01*
X29668163Y-16592667D01*
X29645065Y-16570340D01*
X29636039Y-16557183D01*
X29639236Y-16551253D01*
X29657646Y-16533048D01*
X29686973Y-16509895D01*
X29709920Y-16494830D01*
X29782774Y-16463880D01*
X29858799Y-16453073D01*
X29933409Y-16461493D01*
G37*
X31389238Y-16466055D02*
X31325637Y-16500692D01*
X31275877Y-16555372D01*
X31252432Y-16599842D01*
X31242366Y-16639121D01*
X31235844Y-16695116D01*
X31233049Y-16759621D01*
X31234164Y-16824429D01*
X31239374Y-16881334D01*
X31245459Y-16911727D01*
X31265986Y-16953306D01*
X31301537Y-16997468D01*
X31344381Y-17036087D01*
X31386789Y-17061034D01*
X31387823Y-17061430D01*
X31440447Y-17072331D01*
X31502812Y-17072601D01*
X31562076Y-17062676D01*
X31584960Y-17054722D01*
X31643898Y-17021300D01*
X31686110Y-16977511D01*
X31713844Y-16919538D01*
X31729349Y-16843565D01*
X31732857Y-16803771D01*
X31732410Y-16753766D01*
X31597624Y-16753766D01*
X31593083Y-16826732D01*
X31580014Y-16882334D01*
X31559244Y-16917861D01*
X31544448Y-16928020D01*
X31506536Y-16935104D01*
X31461473Y-16933007D01*
X31422513Y-16922812D01*
X31412296Y-16917204D01*
X31385341Y-16884538D01*
X31367549Y-16834545D01*
X31359976Y-16773705D01*
X31363675Y-16708497D01*
X31371943Y-16669253D01*
X31395680Y-16623805D01*
X31433151Y-16595396D01*
X31478280Y-16585573D01*
X31524989Y-16595887D01*
X31560868Y-16621112D01*
X31579723Y-16641925D01*
X31590728Y-16662439D01*
X31595974Y-16690203D01*
X31597551Y-16732762D01*
X31597624Y-16753766D01*
X31732410Y-16753766D01*
X31731906Y-16697580D01*
X31714612Y-16610501D01*
X31680971Y-16542530D01*
X31630982Y-16493664D01*
X31564644Y-16463899D01*
X31550399Y-16460448D01*
X31464790Y-16452345D01*
X31389238Y-16466055D01*
G36*
X31732857Y-16803771D02*
G01*
X31729349Y-16843565D01*
X31713844Y-16919538D01*
X31686110Y-16977511D01*
X31643898Y-17021300D01*
X31584960Y-17054722D01*
X31562076Y-17062676D01*
X31502812Y-17072601D01*
X31440447Y-17072331D01*
X31387823Y-17061430D01*
X31386789Y-17061034D01*
X31344381Y-17036087D01*
X31301537Y-16997468D01*
X31265986Y-16953306D01*
X31245459Y-16911727D01*
X31239374Y-16881334D01*
X31234164Y-16824429D01*
X31233291Y-16773705D01*
X31359976Y-16773705D01*
X31367549Y-16834545D01*
X31385341Y-16884538D01*
X31412296Y-16917204D01*
X31422513Y-16922812D01*
X31461473Y-16933007D01*
X31506536Y-16935104D01*
X31544448Y-16928020D01*
X31559244Y-16917861D01*
X31580014Y-16882334D01*
X31593083Y-16826732D01*
X31597624Y-16753766D01*
X31597551Y-16732762D01*
X31595974Y-16690203D01*
X31590728Y-16662439D01*
X31579723Y-16641925D01*
X31560868Y-16621112D01*
X31524989Y-16595887D01*
X31478280Y-16585573D01*
X31433151Y-16595396D01*
X31395680Y-16623805D01*
X31371943Y-16669253D01*
X31363675Y-16708497D01*
X31359976Y-16773705D01*
X31233291Y-16773705D01*
X31233049Y-16759621D01*
X31235844Y-16695116D01*
X31242366Y-16639121D01*
X31252432Y-16599842D01*
X31275877Y-16555372D01*
X31325637Y-16500692D01*
X31389238Y-16466055D01*
X31464790Y-16452345D01*
X31550399Y-16460448D01*
X31564644Y-16463899D01*
X31630982Y-16493664D01*
X31680971Y-16542530D01*
X31714612Y-16610501D01*
X31731906Y-16697580D01*
X31732410Y-16753766D01*
X31732857Y-16803771D01*
G37*
X31718476Y-17404237D02*
X31668745Y-17407971D01*
X31538709Y-17797773D01*
X31518322Y-17728614D01*
X31506054Y-17685874D01*
X31489915Y-17628115D01*
X31472488Y-17564625D01*
X31463274Y-17530570D01*
X31428612Y-17401683D01*
X31285609Y-17401683D01*
X31328354Y-17536857D01*
X31349404Y-17603342D01*
X31374833Y-17683539D01*
X31401390Y-17767193D01*
X31425098Y-17841782D01*
X31479098Y-18011535D01*
X31537402Y-18015328D01*
X31595705Y-18019122D01*
X31627321Y-17914734D01*
X31646818Y-17849889D01*
X31668096Y-17778400D01*
X31686692Y-17715263D01*
X31687426Y-17712750D01*
X31701316Y-17669969D01*
X31713571Y-17640779D01*
X31722154Y-17629741D01*
X31723918Y-17631018D01*
X31730109Y-17648130D01*
X31741872Y-17684787D01*
X31757775Y-17736378D01*
X31776386Y-17798294D01*
X31786457Y-17832352D01*
X31840993Y-18017822D01*
X31956736Y-18017822D01*
X32049263Y-17725471D01*
X32075256Y-17643462D01*
X32098934Y-17568987D01*
X32119180Y-17505544D01*
X32134874Y-17456632D01*
X32144898Y-17425749D01*
X32147945Y-17416726D01*
X32145533Y-17407487D01*
X32126592Y-17403441D01*
X32087177Y-17403846D01*
X32081007Y-17404152D01*
X32007914Y-17407971D01*
X31960043Y-17584010D01*
X31942447Y-17648211D01*
X31926723Y-17704649D01*
X31914254Y-17748422D01*
X31906426Y-17774630D01*
X31904980Y-17778903D01*
X31898986Y-17773990D01*
X31886899Y-17748532D01*
X31870107Y-17705997D01*
X31849997Y-17649850D01*
X31832997Y-17599130D01*
X31768206Y-17400504D01*
X31718476Y-17404237D01*
G36*
X31832997Y-17599130D02*
G01*
X31849997Y-17649850D01*
X31870107Y-17705997D01*
X31886899Y-17748532D01*
X31898986Y-17773990D01*
X31904980Y-17778903D01*
X31906426Y-17774630D01*
X31914254Y-17748422D01*
X31926723Y-17704649D01*
X31942447Y-17648211D01*
X31960043Y-17584010D01*
X32007914Y-17407971D01*
X32081007Y-17404152D01*
X32087177Y-17403846D01*
X32126592Y-17403441D01*
X32145533Y-17407487D01*
X32147945Y-17416726D01*
X32144898Y-17425749D01*
X32134874Y-17456632D01*
X32119180Y-17505544D01*
X32098934Y-17568987D01*
X32075256Y-17643462D01*
X32049263Y-17725471D01*
X31956736Y-18017822D01*
X31840993Y-18017822D01*
X31786457Y-17832352D01*
X31776386Y-17798294D01*
X31757775Y-17736378D01*
X31741872Y-17684787D01*
X31730109Y-17648130D01*
X31723918Y-17631018D01*
X31722154Y-17629741D01*
X31713571Y-17640779D01*
X31701316Y-17669969D01*
X31687426Y-17712750D01*
X31686692Y-17715263D01*
X31668096Y-17778400D01*
X31646818Y-17849889D01*
X31627321Y-17914734D01*
X31595705Y-18019122D01*
X31537402Y-18015328D01*
X31479098Y-18011535D01*
X31425098Y-17841782D01*
X31401390Y-17767193D01*
X31374833Y-17683539D01*
X31349404Y-17603342D01*
X31328354Y-17536857D01*
X31285609Y-17401683D01*
X31428612Y-17401683D01*
X31463274Y-17530570D01*
X31472488Y-17564625D01*
X31489915Y-17628115D01*
X31506054Y-17685874D01*
X31518322Y-17728614D01*
X31538709Y-17797773D01*
X31668745Y-17407971D01*
X31718476Y-17404237D01*
X31768206Y-17400504D01*
X31832997Y-17599130D01*
G37*
X32201188Y-18017822D02*
X32270346Y-18017822D01*
X32310488Y-18016645D01*
X32331394Y-18011772D01*
X32338922Y-18001186D01*
X32339505Y-17994029D01*
X32340774Y-17979676D01*
X32348779Y-17976923D01*
X32369815Y-17985771D01*
X32386173Y-17994029D01*
X32448977Y-18013597D01*
X32517248Y-18014729D01*
X32572752Y-18000135D01*
X32624438Y-17964877D01*
X32663838Y-17912835D01*
X32685413Y-17851450D01*
X32685962Y-17848018D01*
X32689167Y-17810571D01*
X32690761Y-17756813D01*
X32690633Y-17716155D01*
X32553279Y-17716155D01*
X32550097Y-17770194D01*
X32542859Y-17814735D01*
X32533060Y-17839888D01*
X32495989Y-17874260D01*
X32451974Y-17886582D01*
X32406584Y-17876618D01*
X32367797Y-17846895D01*
X32353108Y-17826905D01*
X32344519Y-17803050D01*
X32340496Y-17768230D01*
X32339505Y-17715930D01*
X32341278Y-17664139D01*
X32345963Y-17618634D01*
X32352603Y-17588181D01*
X32353710Y-17585452D01*
X32380491Y-17553000D01*
X32419579Y-17535183D01*
X32463315Y-17532306D01*
X32504038Y-17544674D01*
X32534087Y-17572593D01*
X32537204Y-17578148D01*
X32546961Y-17612022D01*
X32552277Y-17660728D01*
X32553279Y-17716155D01*
X32690633Y-17716155D01*
X32690568Y-17695540D01*
X32689664Y-17662563D01*
X32683514Y-17580981D01*
X32670733Y-17519730D01*
X32649471Y-17474449D01*
X32617878Y-17440779D01*
X32587207Y-17421014D01*
X32544354Y-17407120D01*
X32491056Y-17402354D01*
X32436480Y-17406236D01*
X32389792Y-17418282D01*
X32365124Y-17432693D01*
X32339505Y-17455878D01*
X32339505Y-17162773D01*
X32201188Y-17162773D01*
X32201188Y-18017822D01*
G36*
X32690761Y-17756813D02*
G01*
X32689167Y-17810571D01*
X32685962Y-17848018D01*
X32685413Y-17851450D01*
X32663838Y-17912835D01*
X32624438Y-17964877D01*
X32572752Y-18000135D01*
X32517248Y-18014729D01*
X32448977Y-18013597D01*
X32386173Y-17994029D01*
X32369815Y-17985771D01*
X32348779Y-17976923D01*
X32340774Y-17979676D01*
X32339505Y-17994029D01*
X32338922Y-18001186D01*
X32331394Y-18011772D01*
X32310488Y-18016645D01*
X32270346Y-18017822D01*
X32201188Y-18017822D01*
X32201188Y-17715930D01*
X32339505Y-17715930D01*
X32340496Y-17768230D01*
X32344519Y-17803050D01*
X32353108Y-17826905D01*
X32367797Y-17846895D01*
X32406584Y-17876618D01*
X32451974Y-17886582D01*
X32495989Y-17874260D01*
X32533060Y-17839888D01*
X32542859Y-17814735D01*
X32550097Y-17770194D01*
X32553279Y-17716155D01*
X32552277Y-17660728D01*
X32546961Y-17612022D01*
X32537204Y-17578148D01*
X32534087Y-17572593D01*
X32504038Y-17544674D01*
X32463315Y-17532306D01*
X32419579Y-17535183D01*
X32380491Y-17553000D01*
X32353710Y-17585452D01*
X32352603Y-17588181D01*
X32345963Y-17618634D01*
X32341278Y-17664139D01*
X32339505Y-17715930D01*
X32201188Y-17715930D01*
X32201188Y-17162773D01*
X32339505Y-17162773D01*
X32339505Y-17455878D01*
X32365124Y-17432693D01*
X32389792Y-17418282D01*
X32436480Y-17406236D01*
X32491056Y-17402354D01*
X32544354Y-17407120D01*
X32587207Y-17421014D01*
X32617878Y-17440779D01*
X32649471Y-17474449D01*
X32670733Y-17519730D01*
X32683514Y-17580981D01*
X32689664Y-17662563D01*
X32690568Y-17695540D01*
X32690633Y-17716155D01*
X32690761Y-17756813D01*
G37*
X34538261Y-16465148D02*
X34472479Y-16494231D01*
X34422540Y-16542793D01*
X34388374Y-16610908D01*
X34369907Y-16698651D01*
X34368583Y-16712351D01*
X34367546Y-16808939D01*
X34380993Y-16893602D01*
X34408108Y-16962221D01*
X34422627Y-16984294D01*
X34473201Y-17031011D01*
X34537609Y-17061268D01*
X34609666Y-17073824D01*
X34683185Y-17067439D01*
X34739072Y-17047772D01*
X34787132Y-17014629D01*
X34826412Y-16971175D01*
X34827092Y-16970158D01*
X34843044Y-16943338D01*
X34853410Y-16916368D01*
X34859688Y-16882332D01*
X34863373Y-16834310D01*
X34864997Y-16794931D01*
X34865672Y-16759219D01*
X34739955Y-16759219D01*
X34738726Y-16794770D01*
X34734266Y-16842094D01*
X34726397Y-16872465D01*
X34712207Y-16894072D01*
X34698917Y-16906694D01*
X34651802Y-16933122D01*
X34602505Y-16936653D01*
X34556593Y-16917639D01*
X34533638Y-16896331D01*
X34517096Y-16874859D01*
X34507421Y-16854313D01*
X34503174Y-16827574D01*
X34502920Y-16787523D01*
X34504228Y-16750638D01*
X34507043Y-16697947D01*
X34511505Y-16663772D01*
X34519548Y-16641480D01*
X34533103Y-16624442D01*
X34543845Y-16614703D01*
X34588777Y-16589123D01*
X34637249Y-16587847D01*
X34677894Y-16602999D01*
X34712567Y-16634642D01*
X34733224Y-16686620D01*
X34739955Y-16759219D01*
X34865672Y-16759219D01*
X34866479Y-16716621D01*
X34863948Y-16658056D01*
X34856362Y-16614007D01*
X34842681Y-16579248D01*
X34821865Y-16548551D01*
X34814147Y-16539436D01*
X34765889Y-16494021D01*
X34714128Y-16467493D01*
X34650828Y-16456379D01*
X34619961Y-16455471D01*
X34538261Y-16465148D01*
G36*
X34864997Y-16794931D02*
G01*
X34863373Y-16834310D01*
X34859688Y-16882332D01*
X34853410Y-16916368D01*
X34843044Y-16943338D01*
X34827092Y-16970158D01*
X34826412Y-16971175D01*
X34787132Y-17014629D01*
X34739072Y-17047772D01*
X34683185Y-17067439D01*
X34609666Y-17073824D01*
X34537609Y-17061268D01*
X34473201Y-17031011D01*
X34422627Y-16984294D01*
X34408108Y-16962221D01*
X34380993Y-16893602D01*
X34367546Y-16808939D01*
X34367776Y-16787523D01*
X34502920Y-16787523D01*
X34503174Y-16827574D01*
X34507421Y-16854313D01*
X34517096Y-16874859D01*
X34533638Y-16896331D01*
X34556593Y-16917639D01*
X34602505Y-16936653D01*
X34651802Y-16933122D01*
X34698917Y-16906694D01*
X34712207Y-16894072D01*
X34726397Y-16872465D01*
X34734266Y-16842094D01*
X34738726Y-16794770D01*
X34739955Y-16759219D01*
X34733224Y-16686620D01*
X34712567Y-16634642D01*
X34677894Y-16602999D01*
X34637249Y-16587847D01*
X34588777Y-16589123D01*
X34543845Y-16614703D01*
X34533103Y-16624442D01*
X34519548Y-16641480D01*
X34511505Y-16663772D01*
X34507043Y-16697947D01*
X34504228Y-16750638D01*
X34502920Y-16787523D01*
X34367776Y-16787523D01*
X34368583Y-16712351D01*
X34369907Y-16698651D01*
X34388374Y-16610908D01*
X34422540Y-16542793D01*
X34472479Y-16494231D01*
X34538261Y-16465148D01*
X34619961Y-16455471D01*
X34650828Y-16456379D01*
X34714128Y-16467493D01*
X34765889Y-16494021D01*
X34814147Y-16539436D01*
X34821865Y-16548551D01*
X34842681Y-16579248D01*
X34856362Y-16614007D01*
X34863948Y-16658056D01*
X34866479Y-16716621D01*
X34865672Y-16759219D01*
X34864997Y-16794931D01*
G37*
X29322102Y-16456457D02*
X29289904Y-16464279D01*
X29228175Y-16492921D01*
X29175390Y-16536667D01*
X29138859Y-16589117D01*
X29133840Y-16600893D01*
X29126955Y-16631740D01*
X29122136Y-16677371D01*
X29120495Y-16723492D01*
X29120495Y-16810693D01*
X29302822Y-16810693D01*
X29378021Y-16810978D01*
X29430997Y-16812704D01*
X29464675Y-16817181D01*
X29481980Y-16825720D01*
X29485837Y-16839630D01*
X29479171Y-16860222D01*
X29467230Y-16884315D01*
X29433920Y-16924525D01*
X29387632Y-16944558D01*
X29331056Y-16943905D01*
X29266969Y-16922101D01*
X29211583Y-16895193D01*
X29165625Y-16931532D01*
X29119667Y-16967872D01*
X29162904Y-17007819D01*
X29220626Y-17045563D01*
X29291614Y-17068320D01*
X29367971Y-17074688D01*
X29441801Y-17063268D01*
X29453713Y-17059393D01*
X29518601Y-17025506D01*
X29566870Y-16974986D01*
X29599535Y-16906325D01*
X29617615Y-16818014D01*
X29617825Y-16816121D01*
X29619444Y-16719878D01*
X29612900Y-16685542D01*
X29485148Y-16685542D01*
X29473416Y-16690822D01*
X29441562Y-16694867D01*
X29394603Y-16697176D01*
X29364846Y-16697525D01*
X29309352Y-16697306D01*
X29274654Y-16695916D01*
X29256399Y-16692251D01*
X29250234Y-16685210D01*
X29251805Y-16673690D01*
X29253122Y-16669233D01*
X29275618Y-16627355D01*
X29310997Y-16593604D01*
X29342220Y-16578773D01*
X29383699Y-16579668D01*
X29425731Y-16598164D01*
X29460988Y-16628786D01*
X29482146Y-16666062D01*
X29485148Y-16685542D01*
X29612900Y-16685542D01*
X29603310Y-16635229D01*
X29571302Y-16564191D01*
X29525299Y-16508779D01*
X29467179Y-16471009D01*
X29398820Y-16452896D01*
X29322102Y-16456457D01*
G36*
X29619444Y-16719878D02*
G01*
X29617825Y-16816121D01*
X29617615Y-16818014D01*
X29599535Y-16906325D01*
X29566870Y-16974986D01*
X29518601Y-17025506D01*
X29453713Y-17059393D01*
X29441801Y-17063268D01*
X29367971Y-17074688D01*
X29291614Y-17068320D01*
X29220626Y-17045563D01*
X29162904Y-17007819D01*
X29119667Y-16967872D01*
X29165625Y-16931532D01*
X29211583Y-16895193D01*
X29266969Y-16922101D01*
X29331056Y-16943905D01*
X29387632Y-16944558D01*
X29433920Y-16924525D01*
X29467230Y-16884315D01*
X29479171Y-16860222D01*
X29485837Y-16839630D01*
X29481980Y-16825720D01*
X29464675Y-16817181D01*
X29430997Y-16812704D01*
X29378021Y-16810978D01*
X29302822Y-16810693D01*
X29120495Y-16810693D01*
X29120495Y-16723492D01*
X29121857Y-16685210D01*
X29250234Y-16685210D01*
X29256399Y-16692251D01*
X29274654Y-16695916D01*
X29309352Y-16697306D01*
X29364846Y-16697525D01*
X29394603Y-16697176D01*
X29441562Y-16694867D01*
X29473416Y-16690822D01*
X29485148Y-16685542D01*
X29482146Y-16666062D01*
X29460988Y-16628786D01*
X29425731Y-16598164D01*
X29383699Y-16579668D01*
X29342220Y-16578773D01*
X29310997Y-16593604D01*
X29275618Y-16627355D01*
X29253122Y-16669233D01*
X29251805Y-16673690D01*
X29250234Y-16685210D01*
X29121857Y-16685210D01*
X29122136Y-16677371D01*
X29126955Y-16631740D01*
X29133840Y-16600893D01*
X29138859Y-16589117D01*
X29175390Y-16536667D01*
X29228175Y-16492921D01*
X29289904Y-16464279D01*
X29322102Y-16456457D01*
X29398820Y-16452896D01*
X29467179Y-16471009D01*
X29525299Y-16508779D01*
X29571302Y-16564191D01*
X29603310Y-16635229D01*
X29612900Y-16685542D01*
X29619444Y-16719878D01*
G37*
X31985983Y-16456452D02*
X31938366Y-16465482D01*
X31888966Y-16484370D01*
X31883688Y-16486777D01*
X31846226Y-16506476D01*
X31820283Y-16524781D01*
X31811897Y-16536508D01*
X31819883Y-16555632D01*
X31839280Y-16583850D01*
X31847890Y-16594384D01*
X31883372Y-16635847D01*
X31929115Y-16608858D01*
X31972650Y-16590878D01*
X32022950Y-16581267D01*
X32071188Y-16580660D01*
X32108533Y-16589691D01*
X32117495Y-16595327D01*
X32134563Y-16621171D01*
X32136637Y-16650941D01*
X32123866Y-16674197D01*
X32116312Y-16678708D01*
X32093675Y-16684309D01*
X32053885Y-16690892D01*
X32004834Y-16697183D01*
X31995785Y-16698170D01*
X31917004Y-16711798D01*
X31859864Y-16734946D01*
X31821970Y-16769752D01*
X31800921Y-16818354D01*
X31794365Y-16877718D01*
X31803423Y-16945198D01*
X31832836Y-16998188D01*
X31882722Y-17036783D01*
X31953200Y-17061081D01*
X32031435Y-17070667D01*
X32095234Y-17070552D01*
X32146984Y-17061845D01*
X32182327Y-17049825D01*
X32226983Y-17028880D01*
X32268253Y-17004574D01*
X32282921Y-16993876D01*
X32320643Y-16963084D01*
X32275148Y-16917049D01*
X32229653Y-16871013D01*
X32177928Y-16905243D01*
X32126048Y-16930952D01*
X32070649Y-16944399D01*
X32017395Y-16945818D01*
X31971951Y-16935443D01*
X31939984Y-16913507D01*
X31929662Y-16894998D01*
X31931211Y-16865314D01*
X31956860Y-16842615D01*
X32006540Y-16826940D01*
X32060969Y-16819695D01*
X32144736Y-16805873D01*
X32206967Y-16779796D01*
X32248493Y-16740699D01*
X32270147Y-16687820D01*
X32273147Y-16625126D01*
X32258329Y-16559642D01*
X32224546Y-16510144D01*
X32171495Y-16476408D01*
X32098874Y-16458207D01*
X32045072Y-16454639D01*
X31985983Y-16456452D01*
G36*
X32098874Y-16458207D02*
G01*
X32171495Y-16476408D01*
X32224546Y-16510144D01*
X32258329Y-16559642D01*
X32273147Y-16625126D01*
X32270147Y-16687820D01*
X32248493Y-16740699D01*
X32206967Y-16779796D01*
X32144736Y-16805873D01*
X32060969Y-16819695D01*
X32006540Y-16826940D01*
X31956860Y-16842615D01*
X31931211Y-16865314D01*
X31929662Y-16894998D01*
X31939984Y-16913507D01*
X31971951Y-16935443D01*
X32017395Y-16945818D01*
X32070649Y-16944399D01*
X32126048Y-16930952D01*
X32177928Y-16905243D01*
X32229653Y-16871013D01*
X32275148Y-16917049D01*
X32320643Y-16963084D01*
X32282921Y-16993876D01*
X32268253Y-17004574D01*
X32226983Y-17028880D01*
X32182327Y-17049825D01*
X32146984Y-17061845D01*
X32095234Y-17070552D01*
X32031435Y-17070667D01*
X31953200Y-17061081D01*
X31882722Y-17036783D01*
X31832836Y-16998188D01*
X31803423Y-16945198D01*
X31794365Y-16877718D01*
X31800921Y-16818354D01*
X31821970Y-16769752D01*
X31859864Y-16734946D01*
X31917004Y-16711798D01*
X31995785Y-16698170D01*
X32004834Y-16697183D01*
X32053885Y-16690892D01*
X32093675Y-16684309D01*
X32116312Y-16678708D01*
X32123866Y-16674197D01*
X32136637Y-16650941D01*
X32134563Y-16621171D01*
X32117495Y-16595327D01*
X32108533Y-16589691D01*
X32071188Y-16580660D01*
X32022950Y-16581267D01*
X31972650Y-16590878D01*
X31929115Y-16608858D01*
X31883372Y-16635847D01*
X31847890Y-16594384D01*
X31839280Y-16583850D01*
X31819883Y-16555632D01*
X31811897Y-16536508D01*
X31820283Y-16524781D01*
X31846226Y-16506476D01*
X31883688Y-16486777D01*
X31888966Y-16484370D01*
X31938366Y-16465482D01*
X31985983Y-16456452D01*
X32045072Y-16454639D01*
X32098874Y-16458207D01*
G37*
X29967419Y-17404970D02*
X29907315Y-17420597D01*
X29856979Y-17452848D01*
X29832607Y-17476940D01*
X29792655Y-17533895D01*
X29769758Y-17599965D01*
X29761892Y-17681182D01*
X29761852Y-17687748D01*
X29761782Y-17753763D01*
X30141736Y-17753763D01*
X30133637Y-17788342D01*
X30119013Y-17819659D01*
X30093419Y-17852291D01*
X30088065Y-17857500D01*
X30042057Y-17885694D01*
X29989590Y-17890475D01*
X29929197Y-17871926D01*
X29918960Y-17866931D01*
X29887561Y-17851745D01*
X29866530Y-17843094D01*
X29862861Y-17842293D01*
X29850052Y-17850063D01*
X29825622Y-17869072D01*
X29813221Y-17879460D01*
X29787524Y-17903321D01*
X29779085Y-17919077D01*
X29784942Y-17933571D01*
X29788072Y-17937534D01*
X29809275Y-17954879D01*
X29844262Y-17975959D01*
X29868663Y-17988265D01*
X29937928Y-18009946D01*
X30014612Y-18016971D01*
X30087235Y-18008647D01*
X30107574Y-18002686D01*
X30170524Y-17968952D01*
X30217185Y-17917045D01*
X30247827Y-17846459D01*
X30262718Y-17756692D01*
X30264353Y-17709753D01*
X30259579Y-17641413D01*
X30139010Y-17641413D01*
X30127348Y-17646465D01*
X30096002Y-17650429D01*
X30050429Y-17652768D01*
X30019554Y-17653169D01*
X29964019Y-17652783D01*
X29928967Y-17650975D01*
X29909738Y-17646773D01*
X29901670Y-17639203D01*
X29900099Y-17628218D01*
X29910879Y-17594381D01*
X29938020Y-17560940D01*
X29973723Y-17535272D01*
X30009440Y-17524772D01*
X30057952Y-17534086D01*
X30099947Y-17561013D01*
X30129064Y-17599827D01*
X30139010Y-17641413D01*
X30259579Y-17641413D01*
X30257401Y-17610236D01*
X30235945Y-17530949D01*
X30199530Y-17471263D01*
X30147703Y-17430549D01*
X30080010Y-17408179D01*
X30043338Y-17403871D01*
X29967419Y-17404970D01*
G36*
X30264353Y-17709753D02*
G01*
X30262718Y-17756692D01*
X30247827Y-17846459D01*
X30217185Y-17917045D01*
X30170524Y-17968952D01*
X30107574Y-18002686D01*
X30087235Y-18008647D01*
X30014612Y-18016971D01*
X29937928Y-18009946D01*
X29868663Y-17988265D01*
X29844262Y-17975959D01*
X29809275Y-17954879D01*
X29788072Y-17937534D01*
X29784942Y-17933571D01*
X29779085Y-17919077D01*
X29787524Y-17903321D01*
X29813221Y-17879460D01*
X29825622Y-17869072D01*
X29850052Y-17850063D01*
X29862861Y-17842293D01*
X29866530Y-17843094D01*
X29887561Y-17851745D01*
X29918960Y-17866931D01*
X29929197Y-17871926D01*
X29989590Y-17890475D01*
X30042057Y-17885694D01*
X30088065Y-17857500D01*
X30093419Y-17852291D01*
X30119013Y-17819659D01*
X30133637Y-17788342D01*
X30141736Y-17753763D01*
X29761782Y-17753763D01*
X29761852Y-17687748D01*
X29761892Y-17681182D01*
X29767022Y-17628218D01*
X29900099Y-17628218D01*
X29901670Y-17639203D01*
X29909738Y-17646773D01*
X29928967Y-17650975D01*
X29964019Y-17652783D01*
X30019554Y-17653169D01*
X30050429Y-17652768D01*
X30096002Y-17650429D01*
X30127348Y-17646465D01*
X30139010Y-17641413D01*
X30129064Y-17599827D01*
X30099947Y-17561013D01*
X30057952Y-17534086D01*
X30009440Y-17524772D01*
X29973723Y-17535272D01*
X29938020Y-17560940D01*
X29910879Y-17594381D01*
X29900099Y-17628218D01*
X29767022Y-17628218D01*
X29769758Y-17599965D01*
X29792655Y-17533895D01*
X29832607Y-17476940D01*
X29856979Y-17452848D01*
X29907315Y-17420597D01*
X29967419Y-17404970D01*
X30043338Y-17403871D01*
X30080010Y-17408179D01*
X30147703Y-17430549D01*
X30199530Y-17471263D01*
X30235945Y-17530949D01*
X30257401Y-17610236D01*
X30259579Y-17641413D01*
X30264353Y-17709753D01*
G37*
X33356699Y-16472614D02*
X33344168Y-16478514D01*
X33300799Y-16510283D01*
X33259790Y-16556646D01*
X33229168Y-16607696D01*
X33220459Y-16631166D01*
X33212512Y-16673091D01*
X33207774Y-16723757D01*
X33207199Y-16744679D01*
X33207129Y-16810693D01*
X33587083Y-16810693D01*
X33578983Y-16845273D01*
X33559104Y-16886170D01*
X33524347Y-16921514D01*
X33482998Y-16944282D01*
X33456649Y-16949010D01*
X33420916Y-16943273D01*
X33378282Y-16928882D01*
X33363799Y-16922262D01*
X33310240Y-16895513D01*
X33264533Y-16930376D01*
X33238158Y-16953955D01*
X33224124Y-16973417D01*
X33223414Y-16979129D01*
X33235951Y-16992973D01*
X33263428Y-17014012D01*
X33288366Y-17030425D01*
X33355664Y-17059930D01*
X33431110Y-17073284D01*
X33505888Y-17069812D01*
X33565495Y-17051663D01*
X33626941Y-17012784D01*
X33670608Y-16961595D01*
X33697926Y-16895367D01*
X33710322Y-16811371D01*
X33711421Y-16772936D01*
X33707022Y-16684861D01*
X33706482Y-16682299D01*
X33580582Y-16682299D01*
X33577115Y-16690558D01*
X33562863Y-16695113D01*
X33533470Y-16697065D01*
X33484575Y-16697517D01*
X33465748Y-16697525D01*
X33408467Y-16696843D01*
X33372141Y-16694364D01*
X33352604Y-16689443D01*
X33345690Y-16681434D01*
X33345445Y-16678862D01*
X33353336Y-16658423D01*
X33373085Y-16629789D01*
X33381575Y-16619763D01*
X33413094Y-16591408D01*
X33445949Y-16580259D01*
X33463651Y-16579327D01*
X33511539Y-16590981D01*
X33551699Y-16622285D01*
X33577173Y-16667752D01*
X33577625Y-16669233D01*
X33580582Y-16682299D01*
X33706482Y-16682299D01*
X33692392Y-16615510D01*
X33666038Y-16560025D01*
X33633807Y-16520639D01*
X33574217Y-16477931D01*
X33504168Y-16455109D01*
X33429661Y-16453046D01*
X33356699Y-16472614D01*
G36*
X33707022Y-16684861D02*
G01*
X33711421Y-16772936D01*
X33710322Y-16811371D01*
X33697926Y-16895367D01*
X33670608Y-16961595D01*
X33626941Y-17012784D01*
X33565495Y-17051663D01*
X33505888Y-17069812D01*
X33431110Y-17073284D01*
X33355664Y-17059930D01*
X33288366Y-17030425D01*
X33263428Y-17014012D01*
X33235951Y-16992973D01*
X33223414Y-16979129D01*
X33224124Y-16973417D01*
X33238158Y-16953955D01*
X33264533Y-16930376D01*
X33310240Y-16895513D01*
X33363799Y-16922262D01*
X33378282Y-16928882D01*
X33420916Y-16943273D01*
X33456649Y-16949010D01*
X33482998Y-16944282D01*
X33524347Y-16921514D01*
X33559104Y-16886170D01*
X33578983Y-16845273D01*
X33587083Y-16810693D01*
X33207129Y-16810693D01*
X33207199Y-16744679D01*
X33207774Y-16723757D01*
X33211972Y-16678862D01*
X33345445Y-16678862D01*
X33345690Y-16681434D01*
X33352604Y-16689443D01*
X33372141Y-16694364D01*
X33408467Y-16696843D01*
X33465748Y-16697525D01*
X33484575Y-16697517D01*
X33533470Y-16697065D01*
X33562863Y-16695113D01*
X33577115Y-16690558D01*
X33580582Y-16682299D01*
X33577625Y-16669233D01*
X33577173Y-16667752D01*
X33551699Y-16622285D01*
X33511539Y-16590981D01*
X33463651Y-16579327D01*
X33445949Y-16580259D01*
X33413094Y-16591408D01*
X33381575Y-16619763D01*
X33373085Y-16629789D01*
X33353336Y-16658423D01*
X33345445Y-16678862D01*
X33211972Y-16678862D01*
X33212512Y-16673091D01*
X33220459Y-16631166D01*
X33229168Y-16607696D01*
X33259790Y-16556646D01*
X33300799Y-16510283D01*
X33344168Y-16478514D01*
X33356699Y-16472614D01*
X33429661Y-16453046D01*
X33504168Y-16455109D01*
X33574217Y-16477931D01*
X33633807Y-16520639D01*
X33666038Y-16560025D01*
X33692392Y-16615510D01*
X33706482Y-16682299D01*
X33707022Y-16684861D01*
G37*
X30961589Y-17405417D02*
X30908589Y-17418290D01*
X30893269Y-17425110D01*
X30863572Y-17442974D01*
X30840780Y-17463093D01*
X30823917Y-17488962D01*
X30812002Y-17524073D01*
X30804058Y-17571920D01*
X30799106Y-17635996D01*
X30796169Y-17719794D01*
X30795053Y-17775768D01*
X30790948Y-18017822D01*
X30861068Y-18017822D01*
X30903607Y-18016038D01*
X30925524Y-18009942D01*
X30931188Y-17999706D01*
X30934179Y-17988637D01*
X30947549Y-17990754D01*
X30965767Y-17999629D01*
X31011376Y-18013233D01*
X31069993Y-18016899D01*
X31131646Y-18010903D01*
X31186362Y-17995521D01*
X31191270Y-17993386D01*
X31241277Y-17958255D01*
X31274244Y-17909419D01*
X31289413Y-17852333D01*
X31288254Y-17831824D01*
X31164492Y-17831824D01*
X31153587Y-17859425D01*
X31121255Y-17879204D01*
X31069090Y-17889819D01*
X31041213Y-17891228D01*
X30994753Y-17887620D01*
X30963871Y-17873597D01*
X30956336Y-17866931D01*
X30935924Y-17830666D01*
X30931188Y-17797773D01*
X30931188Y-17753763D01*
X30992487Y-17753763D01*
X31063744Y-17757395D01*
X31113724Y-17768818D01*
X31145304Y-17788824D01*
X31152374Y-17797743D01*
X31164492Y-17831824D01*
X31288254Y-17831824D01*
X31286029Y-17792456D01*
X31263337Y-17735244D01*
X31232376Y-17696580D01*
X31213624Y-17679864D01*
X31195267Y-17668878D01*
X31171381Y-17662180D01*
X31136043Y-17658326D01*
X31083331Y-17655873D01*
X31062423Y-17655168D01*
X30931188Y-17650879D01*
X30931380Y-17611158D01*
X30936463Y-17569405D01*
X30954838Y-17544158D01*
X30991961Y-17528030D01*
X30992957Y-17527742D01*
X31045590Y-17521400D01*
X31097094Y-17529684D01*
X31135370Y-17549827D01*
X31150728Y-17559773D01*
X31167270Y-17558397D01*
X31192725Y-17543987D01*
X31207672Y-17533817D01*
X31236909Y-17512088D01*
X31255020Y-17495800D01*
X31257926Y-17491137D01*
X31245960Y-17467005D01*
X31210604Y-17438185D01*
X31195247Y-17428461D01*
X31151099Y-17411714D01*
X31091602Y-17402227D01*
X31025513Y-17400095D01*
X30961589Y-17405417D01*
G36*
X31289413Y-17852333D02*
G01*
X31274244Y-17909419D01*
X31241277Y-17958255D01*
X31191270Y-17993386D01*
X31186362Y-17995521D01*
X31131646Y-18010903D01*
X31069993Y-18016899D01*
X31011376Y-18013233D01*
X30965767Y-17999629D01*
X30947549Y-17990754D01*
X30934179Y-17988637D01*
X30931188Y-17999706D01*
X30925524Y-18009942D01*
X30903607Y-18016038D01*
X30861068Y-18017822D01*
X30790948Y-18017822D01*
X30795053Y-17775768D01*
X30795492Y-17753763D01*
X30931188Y-17753763D01*
X30931188Y-17797773D01*
X30935924Y-17830666D01*
X30956336Y-17866931D01*
X30963871Y-17873597D01*
X30994753Y-17887620D01*
X31041213Y-17891228D01*
X31069090Y-17889819D01*
X31121255Y-17879204D01*
X31153587Y-17859425D01*
X31164492Y-17831824D01*
X31152374Y-17797743D01*
X31145304Y-17788824D01*
X31113724Y-17768818D01*
X31063744Y-17757395D01*
X30992487Y-17753763D01*
X30931188Y-17753763D01*
X30795492Y-17753763D01*
X30796169Y-17719794D01*
X30799106Y-17635996D01*
X30804058Y-17571920D01*
X30812002Y-17524073D01*
X30823917Y-17488962D01*
X30840780Y-17463093D01*
X30863572Y-17442974D01*
X30893269Y-17425110D01*
X30908589Y-17418290D01*
X30961589Y-17405417D01*
X31025513Y-17400095D01*
X31091602Y-17402227D01*
X31151099Y-17411714D01*
X31195247Y-17428461D01*
X31210604Y-17438185D01*
X31245960Y-17467005D01*
X31257926Y-17491137D01*
X31255020Y-17495800D01*
X31236909Y-17512088D01*
X31207672Y-17533817D01*
X31192725Y-17543987D01*
X31167270Y-17558397D01*
X31150728Y-17559773D01*
X31135370Y-17549827D01*
X31097094Y-17529684D01*
X31045590Y-17521400D01*
X30992957Y-17527742D01*
X30991961Y-17528030D01*
X30954838Y-17544158D01*
X30936463Y-17569405D01*
X30931380Y-17611158D01*
X30931188Y-17650879D01*
X31062423Y-17655168D01*
X31083331Y-17655873D01*
X31136043Y-17658326D01*
X31171381Y-17662180D01*
X31195267Y-17668878D01*
X31213624Y-17679864D01*
X31232376Y-17696580D01*
X31263337Y-17735244D01*
X31286029Y-17792456D01*
X31288254Y-17831824D01*
X31289413Y-17852333D01*
G37*
X33384210Y-17406555D02*
X33325055Y-17422339D01*
X33280023Y-17450948D01*
X33248246Y-17488419D01*
X33238366Y-17504411D01*
X33231073Y-17521163D01*
X33225974Y-17542592D01*
X33222679Y-17572616D01*
X33220797Y-17615154D01*
X33219937Y-17674122D01*
X33219707Y-17753440D01*
X33219703Y-17774484D01*
X33219703Y-18017822D01*
X33280059Y-18017822D01*
X33318557Y-18015126D01*
X33347023Y-18008295D01*
X33354155Y-18004083D01*
X33373652Y-17996813D01*
X33393566Y-18004083D01*
X33426353Y-18013160D01*
X33473978Y-18016813D01*
X33526764Y-18015228D01*
X33575036Y-18008589D01*
X33603218Y-18000072D01*
X33657753Y-17965063D01*
X33691835Y-17916479D01*
X33707157Y-17851882D01*
X33707299Y-17850223D01*
X33705955Y-17821566D01*
X33584356Y-17821566D01*
X33573726Y-17854161D01*
X33556410Y-17872505D01*
X33521652Y-17886379D01*
X33475773Y-17891917D01*
X33428988Y-17889191D01*
X33391514Y-17878274D01*
X33381015Y-17871269D01*
X33362668Y-17838904D01*
X33358020Y-17802111D01*
X33358020Y-17753763D01*
X33427582Y-17753763D01*
X33493667Y-17758850D01*
X33543764Y-17773263D01*
X33574929Y-17795729D01*
X33584356Y-17821566D01*
X33705955Y-17821566D01*
X33703987Y-17779647D01*
X33680710Y-17723845D01*
X33636948Y-17681647D01*
X33630899Y-17677808D01*
X33604907Y-17665309D01*
X33572735Y-17657740D01*
X33527760Y-17654061D01*
X33474331Y-17653216D01*
X33358020Y-17653169D01*
X33358020Y-17604411D01*
X33362953Y-17566581D01*
X33375543Y-17541236D01*
X33377017Y-17539887D01*
X33405034Y-17528800D01*
X33447326Y-17524503D01*
X33494064Y-17526615D01*
X33535418Y-17534756D01*
X33559957Y-17546965D01*
X33573253Y-17556746D01*
X33587294Y-17558613D01*
X33606671Y-17550600D01*
X33635976Y-17530739D01*
X33679803Y-17497063D01*
X33683825Y-17493909D01*
X33681764Y-17482236D01*
X33664568Y-17462822D01*
X33638433Y-17441248D01*
X33609552Y-17423096D01*
X33600478Y-17418809D01*
X33567380Y-17410256D01*
X33518880Y-17404155D01*
X33464695Y-17401708D01*
X33462161Y-17401703D01*
X33384210Y-17406555D01*
G36*
X33707299Y-17850223D02*
G01*
X33707157Y-17851882D01*
X33691835Y-17916479D01*
X33657753Y-17965063D01*
X33603218Y-18000072D01*
X33575036Y-18008589D01*
X33526764Y-18015228D01*
X33473978Y-18016813D01*
X33426353Y-18013160D01*
X33393566Y-18004083D01*
X33373652Y-17996813D01*
X33354155Y-18004083D01*
X33347023Y-18008295D01*
X33318557Y-18015126D01*
X33280059Y-18017822D01*
X33219703Y-18017822D01*
X33219703Y-17774484D01*
X33219707Y-17753763D01*
X33358020Y-17753763D01*
X33358020Y-17802111D01*
X33362668Y-17838904D01*
X33381015Y-17871269D01*
X33391514Y-17878274D01*
X33428988Y-17889191D01*
X33475773Y-17891917D01*
X33521652Y-17886379D01*
X33556410Y-17872505D01*
X33573726Y-17854161D01*
X33584356Y-17821566D01*
X33574929Y-17795729D01*
X33543764Y-17773263D01*
X33493667Y-17758850D01*
X33427582Y-17753763D01*
X33358020Y-17753763D01*
X33219707Y-17753763D01*
X33219707Y-17753440D01*
X33219937Y-17674122D01*
X33220797Y-17615154D01*
X33222679Y-17572616D01*
X33225974Y-17542592D01*
X33231073Y-17521163D01*
X33238366Y-17504411D01*
X33248246Y-17488419D01*
X33280023Y-17450948D01*
X33325055Y-17422339D01*
X33384210Y-17406555D01*
X33462161Y-17401703D01*
X33464695Y-17401708D01*
X33518880Y-17404155D01*
X33567380Y-17410256D01*
X33600478Y-17418809D01*
X33609552Y-17423096D01*
X33638433Y-17441248D01*
X33664568Y-17462822D01*
X33681764Y-17482236D01*
X33683825Y-17493909D01*
X33679803Y-17497063D01*
X33635976Y-17530739D01*
X33606671Y-17550600D01*
X33587294Y-17558613D01*
X33573253Y-17556746D01*
X33559957Y-17546965D01*
X33535418Y-17534756D01*
X33494064Y-17526615D01*
X33447326Y-17524503D01*
X33405034Y-17528800D01*
X33377017Y-17539887D01*
X33375543Y-17541236D01*
X33362953Y-17566581D01*
X33358020Y-17604411D01*
X33358020Y-17653169D01*
X33474331Y-17653216D01*
X33527760Y-17654061D01*
X33572735Y-17657740D01*
X33604907Y-17665309D01*
X33630899Y-17677808D01*
X33636948Y-17681647D01*
X33680710Y-17723845D01*
X33703987Y-17779647D01*
X33705955Y-17821566D01*
X33707299Y-17850223D01*
G37*
X33908759Y-16469184D02*
X33882247Y-16482282D01*
X33849553Y-16505106D01*
X33825725Y-16529996D01*
X33809406Y-16561249D01*
X33799240Y-16603166D01*
X33793872Y-16660044D01*
X33791944Y-16736184D01*
X33791831Y-16768917D01*
X33792161Y-16840656D01*
X33793527Y-16891927D01*
X33796500Y-16927404D01*
X33801649Y-16951763D01*
X33809543Y-16969680D01*
X33817757Y-16981902D01*
X33870187Y-17033905D01*
X33931930Y-17065184D01*
X33998536Y-17074592D01*
X34065558Y-17060980D01*
X34086792Y-17051354D01*
X34137624Y-17024859D01*
X34137624Y-17440052D01*
X34100525Y-17420868D01*
X34051643Y-17406025D01*
X33991561Y-17402222D01*
X33931564Y-17409243D01*
X33886256Y-17425013D01*
X33848675Y-17455047D01*
X33816564Y-17498024D01*
X33814150Y-17502436D01*
X33803967Y-17523221D01*
X33796530Y-17544170D01*
X33791411Y-17569548D01*
X33788181Y-17603618D01*
X33786413Y-17650641D01*
X33785677Y-17714882D01*
X33785544Y-17787176D01*
X33785544Y-18017822D01*
X33923861Y-18017822D01*
X33923861Y-17592533D01*
X33962549Y-17559979D01*
X34002738Y-17533940D01*
X34040797Y-17529205D01*
X34079066Y-17541389D01*
X34099462Y-17553320D01*
X34114642Y-17570313D01*
X34125438Y-17595995D01*
X34132683Y-17633991D01*
X34137208Y-17687926D01*
X34139844Y-17761425D01*
X34140772Y-17810347D01*
X34143911Y-18011535D01*
X34209926Y-18015336D01*
X34275940Y-18019136D01*
X34275940Y-16770650D01*
X34137624Y-16770650D01*
X34134097Y-16840254D01*
X34122215Y-16888569D01*
X34100020Y-16918631D01*
X34065559Y-16933471D01*
X34030742Y-16936436D01*
X33991329Y-16933028D01*
X33965171Y-16919617D01*
X33948814Y-16901896D01*
X33935937Y-16882835D01*
X33928272Y-16861601D01*
X33924861Y-16831849D01*
X33924749Y-16787236D01*
X33925897Y-16749880D01*
X33928532Y-16693604D01*
X33932456Y-16656658D01*
X33939063Y-16633223D01*
X33949749Y-16617480D01*
X33959833Y-16608380D01*
X34001970Y-16588537D01*
X34051840Y-16585332D01*
X34080476Y-16592168D01*
X34108828Y-16616464D01*
X34127609Y-16663728D01*
X34136712Y-16733624D01*
X34137624Y-16770650D01*
X34275940Y-16770650D01*
X34275940Y-16458614D01*
X34206782Y-16458614D01*
X34165260Y-16460256D01*
X34143838Y-16466087D01*
X34137626Y-16477461D01*
X34137624Y-16477798D01*
X34134742Y-16488938D01*
X34122030Y-16487673D01*
X34096757Y-16475433D01*
X34037869Y-16456707D01*
X33971615Y-16454739D01*
X33908759Y-16469184D01*
G36*
X34275940Y-18019136D02*
G01*
X34209926Y-18015336D01*
X34143911Y-18011535D01*
X34140772Y-17810347D01*
X34139844Y-17761425D01*
X34137208Y-17687926D01*
X34132683Y-17633991D01*
X34125438Y-17595995D01*
X34114642Y-17570313D01*
X34099462Y-17553320D01*
X34079066Y-17541389D01*
X34040797Y-17529205D01*
X34002738Y-17533940D01*
X33962549Y-17559979D01*
X33923861Y-17592533D01*
X33923861Y-18017822D01*
X33785544Y-18017822D01*
X33785544Y-17787176D01*
X33785677Y-17714882D01*
X33786413Y-17650641D01*
X33788181Y-17603618D01*
X33791411Y-17569548D01*
X33796530Y-17544170D01*
X33803967Y-17523221D01*
X33814150Y-17502436D01*
X33816564Y-17498024D01*
X33848675Y-17455047D01*
X33886256Y-17425013D01*
X33931564Y-17409243D01*
X33991561Y-17402222D01*
X34051643Y-17406025D01*
X34100525Y-17420868D01*
X34137624Y-17440052D01*
X34137624Y-17024859D01*
X34086792Y-17051354D01*
X34065558Y-17060980D01*
X33998536Y-17074592D01*
X33931930Y-17065184D01*
X33870187Y-17033905D01*
X33817757Y-16981902D01*
X33809543Y-16969680D01*
X33801649Y-16951763D01*
X33796500Y-16927404D01*
X33793527Y-16891927D01*
X33792161Y-16840656D01*
X33791915Y-16787236D01*
X33924749Y-16787236D01*
X33924861Y-16831849D01*
X33928272Y-16861601D01*
X33935937Y-16882835D01*
X33948814Y-16901896D01*
X33965171Y-16919617D01*
X33991329Y-16933028D01*
X34030742Y-16936436D01*
X34065559Y-16933471D01*
X34100020Y-16918631D01*
X34122215Y-16888569D01*
X34134097Y-16840254D01*
X34137624Y-16770650D01*
X34136712Y-16733624D01*
X34127609Y-16663728D01*
X34108828Y-16616464D01*
X34080476Y-16592168D01*
X34051840Y-16585332D01*
X34001970Y-16588537D01*
X33959833Y-16608380D01*
X33949749Y-16617480D01*
X33939063Y-16633223D01*
X33932456Y-16656658D01*
X33928532Y-16693604D01*
X33925897Y-16749880D01*
X33924749Y-16787236D01*
X33791915Y-16787236D01*
X33791831Y-16768917D01*
X33791944Y-16736184D01*
X33793872Y-16660044D01*
X33799240Y-16603166D01*
X33809406Y-16561249D01*
X33825725Y-16529996D01*
X33849553Y-16505106D01*
X33882247Y-16482282D01*
X33908759Y-16469184D01*
X33971615Y-16454739D01*
X34037869Y-16456707D01*
X34096757Y-16475433D01*
X34122030Y-16487673D01*
X34134742Y-16488938D01*
X34137624Y-16477798D01*
X34137626Y-16477461D01*
X34143838Y-16466087D01*
X34165260Y-16460256D01*
X34206782Y-16458614D01*
X34275940Y-16458614D01*
X34275940Y-16770650D01*
X34275940Y-18019136D01*
G37*
X31623036Y-12290018D02*
X31566188Y-12591570D01*
X31146662Y-12764512D01*
X30895016Y-12593395D01*
X30824542Y-12545750D01*
X30760837Y-12503210D01*
X30706874Y-12467715D01*
X30665627Y-12441210D01*
X30640066Y-12425636D01*
X30633105Y-12422278D01*
X30620565Y-12430914D01*
X30593769Y-12454792D01*
X30555720Y-12490859D01*
X30509421Y-12536067D01*
X30457877Y-12587364D01*
X30404091Y-12641701D01*
X30351065Y-12696028D01*
X30301805Y-12747295D01*
X30259313Y-12792451D01*
X30226593Y-12828446D01*
X30206649Y-12852230D01*
X30201881Y-12860190D01*
X30208743Y-12874865D01*
X30227980Y-12907014D01*
X30257570Y-12953492D01*
X30295490Y-13011156D01*
X30339718Y-13076860D01*
X30365346Y-13114336D01*
X30412059Y-13182768D01*
X30453568Y-13244520D01*
X30487860Y-13296519D01*
X30512920Y-13335692D01*
X30526736Y-13358965D01*
X30528812Y-13363855D01*
X30524105Y-13377755D01*
X30511277Y-13410150D01*
X30492262Y-13456485D01*
X30468997Y-13512206D01*
X30443416Y-13572758D01*
X30417455Y-13633586D01*
X30393050Y-13690136D01*
X30372137Y-13737852D01*
X30356651Y-13772181D01*
X30348528Y-13788568D01*
X30348048Y-13789212D01*
X30335293Y-13792341D01*
X30301323Y-13799321D01*
X30249660Y-13809467D01*
X30183824Y-13822092D01*
X30107336Y-13836509D01*
X30062710Y-13844823D01*
X29980979Y-13860384D01*
X29907157Y-13875192D01*
X29844979Y-13888436D01*
X29798178Y-13899305D01*
X29770491Y-13906989D01*
X29764926Y-13909427D01*
X29759474Y-13925930D01*
X29755076Y-13963200D01*
X29751728Y-14016880D01*
X29749426Y-14082612D01*
X29748168Y-14156037D01*
X29747952Y-14232796D01*
X29748773Y-14308532D01*
X29750629Y-14378886D01*
X29753518Y-14439500D01*
X29757435Y-14486016D01*
X29762378Y-14514075D01*
X29765343Y-14519916D01*
X29783066Y-14526917D01*
X29820619Y-14536927D01*
X29873036Y-14548769D01*
X29935348Y-14561267D01*
X29957100Y-14565310D01*
X30061976Y-14584520D01*
X30144820Y-14599991D01*
X30208370Y-14612337D01*
X30255363Y-14622173D01*
X30288537Y-14630114D01*
X30310629Y-14636776D01*
X30324376Y-14642773D01*
X30332516Y-14648719D01*
X30333655Y-14649894D01*
X30345023Y-14668826D01*
X30362365Y-14705669D01*
X30383950Y-14755913D01*
X30408046Y-14815046D01*
X30432921Y-14878556D01*
X30456843Y-14941932D01*
X30478081Y-15000662D01*
X30494903Y-15050235D01*
X30505578Y-15086139D01*
X30508373Y-15103862D01*
X30508140Y-15104483D01*
X30498669Y-15118970D01*
X30477182Y-15150844D01*
X30445937Y-15196789D01*
X30407193Y-15253485D01*
X30363207Y-15317617D01*
X30350681Y-15335842D01*
X30306016Y-15401914D01*
X30266712Y-15462200D01*
X30234912Y-15513235D01*
X30212755Y-15551560D01*
X30202383Y-15573711D01*
X30201881Y-15576432D01*
X30210595Y-15590736D01*
X30234675Y-15619072D01*
X30271024Y-15658396D01*
X30316547Y-15705661D01*
X30368148Y-15757823D01*
X30422733Y-15811835D01*
X30477206Y-15864653D01*
X30528471Y-15913231D01*
X30573433Y-15954523D01*
X30608996Y-15985485D01*
X30632065Y-16003070D01*
X30638446Y-16005941D01*
X30653301Y-15999178D01*
X30683714Y-15980939D01*
X30724732Y-15954297D01*
X30756291Y-15932852D01*
X30813475Y-15893503D01*
X30881194Y-15847171D01*
X30949120Y-15800913D01*
X30985639Y-15776155D01*
X31109248Y-15692547D01*
X31213009Y-15748650D01*
X31260280Y-15773228D01*
X31300477Y-15792331D01*
X31327674Y-15803227D01*
X31334598Y-15804743D01*
X31342923Y-15793549D01*
X31359346Y-15761917D01*
X31382643Y-15712765D01*
X31411586Y-15649010D01*
X31444950Y-15573571D01*
X31481509Y-15489364D01*
X31520036Y-15399308D01*
X31559306Y-15306321D01*
X31598092Y-15213320D01*
X31635170Y-15123223D01*
X31669311Y-15038948D01*
X31699292Y-14963413D01*
X31723884Y-14899534D01*
X31741864Y-14850231D01*
X31752003Y-14818421D01*
X31753634Y-14807496D01*
X31740709Y-14793561D01*
X31712411Y-14770940D01*
X31674654Y-14744333D01*
X31671485Y-14742228D01*
X31573900Y-14664114D01*
X31495214Y-14572982D01*
X31436109Y-14471745D01*
X31397268Y-14363318D01*
X31379372Y-14250614D01*
X31383103Y-14136548D01*
X31409143Y-14024034D01*
X31458175Y-13915985D01*
X31472600Y-13892345D01*
X31547631Y-13796887D01*
X31636270Y-13720232D01*
X31735451Y-13662780D01*
X31842105Y-13624929D01*
X31953164Y-13607078D01*
X32065561Y-13609625D01*
X32176227Y-13632970D01*
X32282094Y-13677510D01*
X32380095Y-13743645D01*
X32410410Y-13770487D01*
X32487562Y-13854512D01*
X32543782Y-13942966D01*
X32582347Y-14042115D01*
X32603826Y-14140303D01*
X32609128Y-14250697D01*
X32591448Y-14361640D01*
X32552581Y-14469381D01*
X32494323Y-14570169D01*
X32418469Y-14660256D01*
X32326817Y-14735892D01*
X32314772Y-14743864D01*
X32276611Y-14769974D01*
X32247601Y-14792595D01*
X32233732Y-14807039D01*
X32233531Y-14807496D01*
X32236508Y-14823121D01*
X32248311Y-14858582D01*
X32267714Y-14910962D01*
X32293488Y-14977345D01*
X32324409Y-15054814D01*
X32359249Y-15140450D01*
X32396783Y-15231337D01*
X32435783Y-15324559D01*
X32475023Y-15417197D01*
X32513276Y-15506335D01*
X32549317Y-15589055D01*
X32581917Y-15662441D01*
X32609852Y-15723575D01*
X32631895Y-15769541D01*
X32646818Y-15797421D01*
X32652828Y-15804743D01*
X32671191Y-15799041D01*
X32705552Y-15783749D01*
X32749984Y-15761599D01*
X32774417Y-15748650D01*
X32878178Y-15692547D01*
X33001787Y-15776155D01*
X33064886Y-15818987D01*
X33133970Y-15866122D01*
X33198707Y-15910503D01*
X33231134Y-15932852D01*
X33276741Y-15963477D01*
X33315360Y-15987747D01*
X33341952Y-16002587D01*
X33350590Y-16005724D01*
X33363161Y-15997261D01*
X33390984Y-15973636D01*
X33431361Y-15937302D01*
X33481595Y-15890711D01*
X33538988Y-15836317D01*
X33575286Y-15801392D01*
X33638790Y-15738996D01*
X33693673Y-15683188D01*
X33737714Y-15636354D01*
X33768695Y-15600882D01*
X33784398Y-15579161D01*
X33785905Y-15574752D01*
X33778914Y-15557985D01*
X33759594Y-15524082D01*
X33730091Y-15476476D01*
X33692545Y-15418599D01*
X33649100Y-15353884D01*
X33636745Y-15335842D01*
X33591727Y-15270267D01*
X33551340Y-15211228D01*
X33517840Y-15162042D01*
X33493486Y-15126028D01*
X33480536Y-15106502D01*
X33479285Y-15104483D01*
X33481156Y-15088922D01*
X33491087Y-15054709D01*
X33507347Y-15006355D01*
X33528205Y-14948371D01*
X33551927Y-14885270D01*
X33576784Y-14821563D01*
X33601042Y-14761761D01*
X33622971Y-14710376D01*
X33640838Y-14671919D01*
X33652913Y-14650902D01*
X33653771Y-14649894D01*
X33661154Y-14643888D01*
X33673625Y-14637948D01*
X33693920Y-14631460D01*
X33724778Y-14623809D01*
X33768934Y-14614380D01*
X33829126Y-14602559D01*
X33908093Y-14587729D01*
X34008570Y-14569277D01*
X34030325Y-14565310D01*
X34094802Y-14552853D01*
X34151011Y-14540666D01*
X34193987Y-14529926D01*
X34218760Y-14521809D01*
X34222082Y-14519916D01*
X34227556Y-14503138D01*
X34232006Y-14465645D01*
X34235428Y-14411794D01*
X34237819Y-14345944D01*
X34239177Y-14272453D01*
X34239499Y-14195680D01*
X34238781Y-14119983D01*
X34237021Y-14049720D01*
X34234216Y-13989250D01*
X34230362Y-13942930D01*
X34225457Y-13915119D01*
X34222500Y-13909427D01*
X34206037Y-13903686D01*
X34168551Y-13894345D01*
X34113775Y-13882215D01*
X34045445Y-13868107D01*
X33967294Y-13852830D01*
X33924716Y-13844823D01*
X33843929Y-13829721D01*
X33771887Y-13816040D01*
X33712111Y-13804467D01*
X33668121Y-13795687D01*
X33643439Y-13790387D01*
X33639377Y-13789212D01*
X33632511Y-13775965D01*
X33617998Y-13744057D01*
X33597771Y-13698047D01*
X33573766Y-13642492D01*
X33547918Y-13581953D01*
X33522160Y-13520986D01*
X33498427Y-13464151D01*
X33478654Y-13416006D01*
X33464776Y-13381110D01*
X33458726Y-13364021D01*
X33458614Y-13363274D01*
X33465472Y-13349793D01*
X33484698Y-13318770D01*
X33514272Y-13273289D01*
X33552173Y-13216432D01*
X33596380Y-13151283D01*
X33622079Y-13113862D01*
X33668907Y-13045247D01*
X33710499Y-12982952D01*
X33744825Y-12930129D01*
X33769857Y-12889927D01*
X33783565Y-12865500D01*
X33785544Y-12860024D01*
X33777034Y-12847278D01*
X33753507Y-12820063D01*
X33717968Y-12781428D01*
X33673423Y-12734423D01*
X33622877Y-12682095D01*
X33569336Y-12627495D01*
X33515805Y-12573670D01*
X33465289Y-12523670D01*
X33420794Y-12480543D01*
X33385325Y-12447339D01*
X33361887Y-12427106D01*
X33354046Y-12422278D01*
X33341280Y-12429067D01*
X33310744Y-12448142D01*
X33265410Y-12477561D01*
X33208244Y-12515381D01*
X33142216Y-12559661D01*
X33092410Y-12593395D01*
X32840764Y-12764512D01*
X32631001Y-12678041D01*
X32421237Y-12591570D01*
X32364389Y-12290018D01*
X32307540Y-11988466D01*
X31679885Y-11988466D01*
X31623036Y-12290018D01*
G36*
X32364389Y-12290018D02*
G01*
X32421237Y-12591570D01*
X32631001Y-12678041D01*
X32840764Y-12764512D01*
X33092410Y-12593395D01*
X33142216Y-12559661D01*
X33208244Y-12515381D01*
X33265410Y-12477561D01*
X33310744Y-12448142D01*
X33341280Y-12429067D01*
X33354046Y-12422278D01*
X33361887Y-12427106D01*
X33385325Y-12447339D01*
X33420794Y-12480543D01*
X33465289Y-12523670D01*
X33515805Y-12573670D01*
X33569336Y-12627495D01*
X33622877Y-12682095D01*
X33673423Y-12734423D01*
X33717968Y-12781428D01*
X33753507Y-12820063D01*
X33777034Y-12847278D01*
X33785544Y-12860024D01*
X33783565Y-12865500D01*
X33769857Y-12889927D01*
X33744825Y-12930129D01*
X33710499Y-12982952D01*
X33668907Y-13045247D01*
X33622079Y-13113862D01*
X33596380Y-13151283D01*
X33552173Y-13216432D01*
X33514272Y-13273289D01*
X33484698Y-13318770D01*
X33465472Y-13349793D01*
X33458614Y-13363274D01*
X33458726Y-13364021D01*
X33464776Y-13381110D01*
X33478654Y-13416006D01*
X33498427Y-13464151D01*
X33522160Y-13520986D01*
X33547918Y-13581953D01*
X33573766Y-13642492D01*
X33597771Y-13698047D01*
X33617998Y-13744057D01*
X33632511Y-13775965D01*
X33639377Y-13789212D01*
X33643439Y-13790387D01*
X33668121Y-13795687D01*
X33712111Y-13804467D01*
X33771887Y-13816040D01*
X33843929Y-13829721D01*
X33924716Y-13844823D01*
X33967294Y-13852830D01*
X34045445Y-13868107D01*
X34113775Y-13882215D01*
X34168551Y-13894345D01*
X34206037Y-13903686D01*
X34222500Y-13909427D01*
X34225457Y-13915119D01*
X34230362Y-13942930D01*
X34234216Y-13989250D01*
X34237021Y-14049720D01*
X34238781Y-14119983D01*
X34239499Y-14195680D01*
X34239177Y-14272453D01*
X34237819Y-14345944D01*
X34235428Y-14411794D01*
X34232006Y-14465645D01*
X34227556Y-14503138D01*
X34222082Y-14519916D01*
X34218760Y-14521809D01*
X34193987Y-14529926D01*
X34151011Y-14540666D01*
X34094802Y-14552853D01*
X34030325Y-14565310D01*
X34008570Y-14569277D01*
X33908093Y-14587729D01*
X33829126Y-14602559D01*
X33768934Y-14614380D01*
X33724778Y-14623809D01*
X33693920Y-14631460D01*
X33673625Y-14637948D01*
X33661154Y-14643888D01*
X33653771Y-14649894D01*
X33652913Y-14650902D01*
X33640838Y-14671919D01*
X33622971Y-14710376D01*
X33601042Y-14761761D01*
X33576784Y-14821563D01*
X33551927Y-14885270D01*
X33528205Y-14948371D01*
X33507347Y-15006355D01*
X33491087Y-15054709D01*
X33481156Y-15088922D01*
X33479285Y-15104483D01*
X33480536Y-15106502D01*
X33493486Y-15126028D01*
X33517840Y-15162042D01*
X33551340Y-15211228D01*
X33591727Y-15270267D01*
X33636745Y-15335842D01*
X33649100Y-15353884D01*
X33692545Y-15418599D01*
X33730091Y-15476476D01*
X33759594Y-15524082D01*
X33778914Y-15557985D01*
X33785905Y-15574752D01*
X33784398Y-15579161D01*
X33768695Y-15600882D01*
X33737714Y-15636354D01*
X33693673Y-15683188D01*
X33638790Y-15738996D01*
X33575286Y-15801392D01*
X33538988Y-15836317D01*
X33481595Y-15890711D01*
X33431361Y-15937302D01*
X33390984Y-15973636D01*
X33363161Y-15997261D01*
X33350590Y-16005724D01*
X33341952Y-16002587D01*
X33315360Y-15987747D01*
X33276741Y-15963477D01*
X33231134Y-15932852D01*
X33198707Y-15910503D01*
X33133970Y-15866122D01*
X33064886Y-15818987D01*
X33001787Y-15776155D01*
X32878178Y-15692547D01*
X32774417Y-15748650D01*
X32749984Y-15761599D01*
X32705552Y-15783749D01*
X32671191Y-15799041D01*
X32652828Y-15804743D01*
X32646818Y-15797421D01*
X32631895Y-15769541D01*
X32609852Y-15723575D01*
X32581917Y-15662441D01*
X32549317Y-15589055D01*
X32513276Y-15506335D01*
X32475023Y-15417197D01*
X32435783Y-15324559D01*
X32396783Y-15231337D01*
X32359249Y-15140450D01*
X32324409Y-15054814D01*
X32293488Y-14977345D01*
X32267714Y-14910962D01*
X32248311Y-14858582D01*
X32236508Y-14823121D01*
X32233531Y-14807496D01*
X32233732Y-14807039D01*
X32247601Y-14792595D01*
X32276611Y-14769974D01*
X32314772Y-14743864D01*
X32326817Y-14735892D01*
X32418469Y-14660256D01*
X32494323Y-14570169D01*
X32552581Y-14469381D01*
X32591448Y-14361640D01*
X32609128Y-14250697D01*
X32603826Y-14140303D01*
X32582347Y-14042115D01*
X32543782Y-13942966D01*
X32487562Y-13854512D01*
X32410410Y-13770487D01*
X32380095Y-13743645D01*
X32282094Y-13677510D01*
X32176227Y-13632970D01*
X32065561Y-13609625D01*
X31953164Y-13607078D01*
X31842105Y-13624929D01*
X31735451Y-13662780D01*
X31636270Y-13720232D01*
X31547631Y-13796887D01*
X31472600Y-13892345D01*
X31458175Y-13915985D01*
X31409143Y-14024034D01*
X31383103Y-14136548D01*
X31379372Y-14250614D01*
X31397268Y-14363318D01*
X31436109Y-14471745D01*
X31495214Y-14572982D01*
X31573900Y-14664114D01*
X31671485Y-14742228D01*
X31674654Y-14744333D01*
X31712411Y-14770940D01*
X31740709Y-14793561D01*
X31753634Y-14807496D01*
X31752003Y-14818421D01*
X31741864Y-14850231D01*
X31723884Y-14899534D01*
X31699292Y-14963413D01*
X31669311Y-15038948D01*
X31635170Y-15123223D01*
X31598092Y-15213320D01*
X31559306Y-15306321D01*
X31520036Y-15399308D01*
X31481509Y-15489364D01*
X31444950Y-15573571D01*
X31411586Y-15649010D01*
X31382643Y-15712765D01*
X31359346Y-15761917D01*
X31342923Y-15793549D01*
X31334598Y-15804743D01*
X31327674Y-15803227D01*
X31300477Y-15792331D01*
X31260280Y-15773228D01*
X31213009Y-15748650D01*
X31109248Y-15692547D01*
X30985639Y-15776155D01*
X30949120Y-15800913D01*
X30881194Y-15847171D01*
X30813475Y-15893503D01*
X30756291Y-15932852D01*
X30724732Y-15954297D01*
X30683714Y-15980939D01*
X30653301Y-15999178D01*
X30638446Y-16005941D01*
X30632065Y-16003070D01*
X30608996Y-15985485D01*
X30573433Y-15954523D01*
X30528471Y-15913231D01*
X30477206Y-15864653D01*
X30422733Y-15811835D01*
X30368148Y-15757823D01*
X30316547Y-15705661D01*
X30271024Y-15658396D01*
X30234675Y-15619072D01*
X30210595Y-15590736D01*
X30201881Y-15576432D01*
X30202383Y-15573711D01*
X30212755Y-15551560D01*
X30234912Y-15513235D01*
X30266712Y-15462200D01*
X30306016Y-15401914D01*
X30350681Y-15335842D01*
X30363207Y-15317617D01*
X30407193Y-15253485D01*
X30445937Y-15196789D01*
X30477182Y-15150844D01*
X30498669Y-15118970D01*
X30508140Y-15104483D01*
X30508373Y-15103862D01*
X30505578Y-15086139D01*
X30494903Y-15050235D01*
X30478081Y-15000662D01*
X30456843Y-14941932D01*
X30432921Y-14878556D01*
X30408046Y-14815046D01*
X30383950Y-14755913D01*
X30362365Y-14705669D01*
X30345023Y-14668826D01*
X30333655Y-14649894D01*
X30332516Y-14648719D01*
X30324376Y-14642773D01*
X30310629Y-14636776D01*
X30288537Y-14630114D01*
X30255363Y-14622173D01*
X30208370Y-14612337D01*
X30144820Y-14599991D01*
X30061976Y-14584520D01*
X29957100Y-14565310D01*
X29935348Y-14561267D01*
X29873036Y-14548769D01*
X29820619Y-14536927D01*
X29783066Y-14526917D01*
X29765343Y-14519916D01*
X29762378Y-14514075D01*
X29757435Y-14486016D01*
X29753518Y-14439500D01*
X29750629Y-14378886D01*
X29748773Y-14308532D01*
X29747952Y-14232796D01*
X29748168Y-14156037D01*
X29749426Y-14082612D01*
X29751728Y-14016880D01*
X29755076Y-13963200D01*
X29759474Y-13925930D01*
X29764926Y-13909427D01*
X29770491Y-13906989D01*
X29798178Y-13899305D01*
X29844979Y-13888436D01*
X29907157Y-13875192D01*
X29980979Y-13860384D01*
X30062710Y-13844823D01*
X30107336Y-13836509D01*
X30183824Y-13822092D01*
X30249660Y-13809467D01*
X30301323Y-13799321D01*
X30335293Y-13792341D01*
X30348048Y-13789212D01*
X30348528Y-13788568D01*
X30356651Y-13772181D01*
X30372137Y-13737852D01*
X30393050Y-13690136D01*
X30417455Y-13633586D01*
X30443416Y-13572758D01*
X30468997Y-13512206D01*
X30492262Y-13456485D01*
X30511277Y-13410150D01*
X30524105Y-13377755D01*
X30528812Y-13363855D01*
X30526736Y-13358965D01*
X30512920Y-13335692D01*
X30487860Y-13296519D01*
X30453568Y-13244520D01*
X30412059Y-13182768D01*
X30365346Y-13114336D01*
X30339718Y-13076860D01*
X30295490Y-13011156D01*
X30257570Y-12953492D01*
X30227980Y-12907014D01*
X30208743Y-12874865D01*
X30201881Y-12860190D01*
X30206649Y-12852230D01*
X30226593Y-12828446D01*
X30259313Y-12792451D01*
X30301805Y-12747295D01*
X30351065Y-12696028D01*
X30404091Y-12641701D01*
X30457877Y-12587364D01*
X30509421Y-12536067D01*
X30555720Y-12490859D01*
X30593769Y-12454792D01*
X30620565Y-12430914D01*
X30633105Y-12422278D01*
X30640066Y-12425636D01*
X30665627Y-12441210D01*
X30706874Y-12467715D01*
X30760837Y-12503210D01*
X30824542Y-12545750D01*
X30895016Y-12593395D01*
X31146662Y-12764512D01*
X31566188Y-12591570D01*
X31623036Y-12290018D01*
X31679885Y-11988466D01*
X32307540Y-11988466D01*
X32364389Y-12290018D01*
G37*
%TO.C,TP10*%
D12*
X44950000Y-40000000D02*
G75*
G02*
X43050000Y-40000000I-950000J0D01*
G01*
X43050000Y-40000000D02*
G75*
G02*
X44950000Y-40000000I950000J0D01*
G01*
%TO.C,TP25*%
X5950000Y-39000000D02*
G75*
G02*
X4050000Y-39000000I-950000J0D01*
G01*
X4050000Y-39000000D02*
G75*
G02*
X5950000Y-39000000I950000J0D01*
G01*
%TO.C,TP21*%
X34950000Y-32500000D02*
G75*
G02*
X33050000Y-32500000I-950000J0D01*
G01*
X33050000Y-32500000D02*
G75*
G02*
X34950000Y-32500000I950000J0D01*
G01*
%TO.C,TP2*%
X9450000Y-29000000D02*
G75*
G02*
X7550000Y-29000000I-950000J0D01*
G01*
X7550000Y-29000000D02*
G75*
G02*
X9450000Y-29000000I950000J0D01*
G01*
%TO.C,TP23*%
X41950000Y-32500000D02*
G75*
G02*
X40050000Y-32500000I-950000J0D01*
G01*
X40050000Y-32500000D02*
G75*
G02*
X41950000Y-32500000I950000J0D01*
G01*
%TO.C,TP22*%
X38450000Y-32500000D02*
G75*
G02*
X36550000Y-32500000I-950000J0D01*
G01*
X36550000Y-32500000D02*
G75*
G02*
X38450000Y-32500000I950000J0D01*
G01*
%TO.C,TP7*%
X27450000Y-29000000D02*
G75*
G02*
X25550000Y-29000000I-950000J0D01*
G01*
X25550000Y-29000000D02*
G75*
G02*
X27450000Y-29000000I950000J0D01*
G01*
%TO.C,TP11*%
X41950000Y-29000000D02*
G75*
G02*
X40050000Y-29000000I-950000J0D01*
G01*
X40050000Y-29000000D02*
G75*
G02*
X41950000Y-29000000I950000J0D01*
G01*
%TO.C,TP16*%
X16950000Y-32500000D02*
G75*
G02*
X15050000Y-32500000I-950000J0D01*
G01*
X15050000Y-32500000D02*
G75*
G02*
X16950000Y-32500000I950000J0D01*
G01*
%TO.C,TP20*%
X30950000Y-32500000D02*
G75*
G02*
X29050000Y-32500000I-950000J0D01*
G01*
X29050000Y-32500000D02*
G75*
G02*
X30950000Y-32500000I950000J0D01*
G01*
%TO.C,TP4*%
X16750000Y-28500000D02*
G75*
G02*
X14850000Y-28500000I-950000J0D01*
G01*
X14850000Y-28500000D02*
G75*
G02*
X16750000Y-28500000I950000J0D01*
G01*
%TO.C,TP28*%
X17950000Y-39000000D02*
G75*
G02*
X16050000Y-39000000I-950000J0D01*
G01*
X16050000Y-39000000D02*
G75*
G02*
X17950000Y-39000000I950000J0D01*
G01*
%TO.C,TP8*%
X30950000Y-29000000D02*
G75*
G02*
X29050000Y-29000000I-950000J0D01*
G01*
X29050000Y-29000000D02*
G75*
G02*
X30950000Y-29000000I950000J0D01*
G01*
%TO.C,TP19*%
X22950000Y-41000000D02*
G75*
G02*
X21050000Y-41000000I-950000J0D01*
G01*
X21050000Y-41000000D02*
G75*
G02*
X22950000Y-41000000I950000J0D01*
G01*
D13*
%TO.C,LOGO1*%
X19726079Y-12036490D02*
X19622973Y-12072238D01*
X19526978Y-12128507D01*
X19441247Y-12205288D01*
X19368930Y-12302573D01*
X19336445Y-12363892D01*
X19308332Y-12449660D01*
X19294705Y-12548677D01*
X19296214Y-12650471D01*
X19312969Y-12742714D01*
X19358763Y-12855432D01*
X19425168Y-12953207D01*
X19508809Y-13034115D01*
X19606312Y-13096232D01*
X19714300Y-13137634D01*
X19829399Y-13156397D01*
X19948234Y-13150598D01*
X20006811Y-13138206D01*
X20120972Y-13093797D01*
X20222365Y-13026033D01*
X20308545Y-12937001D01*
X20377066Y-12828791D01*
X20382864Y-12816973D01*
X20402904Y-12772628D01*
X20415487Y-12735280D01*
X20422319Y-12695880D01*
X20425105Y-12645381D01*
X20425568Y-12590433D01*
X20424803Y-12524415D01*
X20421352Y-12476689D01*
X20413477Y-12438103D01*
X20399443Y-12399506D01*
X20382120Y-12361426D01*
X20317505Y-12253328D01*
X20237934Y-12165803D01*
X20146560Y-12098841D01*
X20046536Y-12052436D01*
X19941012Y-12026581D01*
X19833142Y-12021268D01*
X19726079Y-12036490D01*
G36*
X19941012Y-12026581D02*
G01*
X20046536Y-12052436D01*
X20146560Y-12098841D01*
X20237934Y-12165803D01*
X20317505Y-12253328D01*
X20382120Y-12361426D01*
X20399443Y-12399506D01*
X20413477Y-12438103D01*
X20421352Y-12476689D01*
X20424803Y-12524415D01*
X20425568Y-12590433D01*
X20425105Y-12645381D01*
X20422319Y-12695880D01*
X20415487Y-12735280D01*
X20402904Y-12772628D01*
X20382864Y-12816973D01*
X20377066Y-12828791D01*
X20308545Y-12937001D01*
X20222365Y-13026033D01*
X20120972Y-13093797D01*
X20006811Y-13138206D01*
X19948234Y-13150598D01*
X19829399Y-13156397D01*
X19714300Y-13137634D01*
X19606312Y-13096232D01*
X19508809Y-13034115D01*
X19425168Y-12953207D01*
X19358763Y-12855432D01*
X19312969Y-12742714D01*
X19296214Y-12650471D01*
X19294705Y-12548677D01*
X19308332Y-12449660D01*
X19336445Y-12363892D01*
X19368930Y-12302573D01*
X19441247Y-12205288D01*
X19526978Y-12128507D01*
X19622973Y-12072238D01*
X19726079Y-12036490D01*
X19833142Y-12021268D01*
X19941012Y-12026581D01*
G37*
X16560038Y-13160499D02*
X16411986Y-13176707D01*
X16268548Y-13205718D01*
X16123890Y-13249045D01*
X15972176Y-13308201D01*
X15807572Y-13384700D01*
X15777929Y-13399517D01*
X15709902Y-13433031D01*
X15645744Y-13463208D01*
X15591785Y-13487166D01*
X15554360Y-13502024D01*
X15548611Y-13503895D01*
X15493514Y-13520402D01*
X15740149Y-13879201D01*
X15800448Y-13966893D01*
X15855578Y-14047012D01*
X15903664Y-14116836D01*
X15942832Y-14173647D01*
X15971206Y-14214723D01*
X15986913Y-14237346D01*
X15989464Y-14240928D01*
X15999829Y-14233438D01*
X16025340Y-14210918D01*
X16061437Y-14177461D01*
X16081358Y-14158550D01*
X16194227Y-14068778D01*
X16320986Y-14000561D01*
X16430217Y-13963195D01*
X16495786Y-13951460D01*
X16577884Y-13944308D01*
X16666856Y-13941874D01*
X16753044Y-13944288D01*
X16826795Y-13951683D01*
X16856224Y-13957347D01*
X16988867Y-14002982D01*
X17108394Y-14072663D01*
X17214717Y-14166260D01*
X17307747Y-14283649D01*
X17387395Y-14424700D01*
X17453574Y-14589286D01*
X17506194Y-14777280D01*
X17537467Y-14938217D01*
X17545626Y-15009263D01*
X17551185Y-15101046D01*
X17554198Y-15206968D01*
X17554719Y-15320434D01*
X17552800Y-15434849D01*
X17548497Y-15543617D01*
X17541863Y-15640143D01*
X17532951Y-15717831D01*
X17531021Y-15729817D01*
X17488501Y-15922892D01*
X17430567Y-16093773D01*
X17356867Y-16243224D01*
X17267049Y-16372011D01*
X17203293Y-16441639D01*
X17088714Y-16536173D01*
X16963058Y-16606246D01*
X16828443Y-16651477D01*
X16686989Y-16671484D01*
X16540817Y-16665885D01*
X16392045Y-16634300D01*
X16304089Y-16603394D01*
X16182371Y-16541506D01*
X16056920Y-16452729D01*
X15986647Y-16392694D01*
X15947189Y-16357947D01*
X15916188Y-16332454D01*
X15898542Y-16320170D01*
X15896352Y-16319795D01*
X15888476Y-16332347D01*
X15868068Y-16365516D01*
X15836868Y-16416458D01*
X15796614Y-16482331D01*
X15749043Y-16560289D01*
X15695896Y-16647490D01*
X15666313Y-16696067D01*
X15440352Y-17067215D01*
X15722473Y-17206639D01*
X15824478Y-17256719D01*
X15907111Y-17296210D01*
X15975422Y-17327073D01*
X16034463Y-17351268D01*
X16089286Y-17370758D01*
X16144940Y-17387503D01*
X16206477Y-17403465D01*
X16265460Y-17417482D01*
X16317885Y-17428329D01*
X16372712Y-17436526D01*
X16435428Y-17442528D01*
X16511523Y-17446790D01*
X16606484Y-17449767D01*
X16670487Y-17451052D01*
X16761808Y-17451930D01*
X16849373Y-17451487D01*
X16927388Y-17449852D01*
X16990058Y-17447149D01*
X17031587Y-17443505D01*
X17034048Y-17443142D01*
X17249697Y-17396487D01*
X17452207Y-17325729D01*
X17641505Y-17230914D01*
X17817521Y-17112089D01*
X17980184Y-16969300D01*
X18129422Y-16802594D01*
X18237504Y-16654433D01*
X18352566Y-16460502D01*
X18445577Y-16255699D01*
X18516987Y-16038383D01*
X18567244Y-15806912D01*
X18596799Y-15559643D01*
X18606111Y-15308559D01*
X18598452Y-15065670D01*
X18574387Y-14841570D01*
X18533148Y-14632477D01*
X18473973Y-14434613D01*
X18396096Y-14244196D01*
X18386797Y-14224468D01*
X18284352Y-14040059D01*
X18158528Y-13864576D01*
X18012888Y-13701650D01*
X17850999Y-13554914D01*
X17676424Y-13428001D01*
X17513756Y-13334905D01*
X17349427Y-13261991D01*
X17184749Y-13209174D01*
X17013348Y-13175015D01*
X16828847Y-13158078D01*
X16718541Y-13155580D01*
X16560038Y-13160499D01*
G36*
X16828847Y-13158078D02*
G01*
X17013348Y-13175015D01*
X17184749Y-13209174D01*
X17349427Y-13261991D01*
X17513756Y-13334905D01*
X17676424Y-13428001D01*
X17850999Y-13554914D01*
X18012888Y-13701650D01*
X18158528Y-13864576D01*
X18284352Y-14040059D01*
X18386797Y-14224468D01*
X18396096Y-14244196D01*
X18473973Y-14434613D01*
X18533148Y-14632477D01*
X18574387Y-14841570D01*
X18598452Y-15065670D01*
X18606111Y-15308559D01*
X18596799Y-15559643D01*
X18567244Y-15806912D01*
X18516987Y-16038383D01*
X18445577Y-16255699D01*
X18352566Y-16460502D01*
X18237504Y-16654433D01*
X18129422Y-16802594D01*
X17980184Y-16969300D01*
X17817521Y-17112089D01*
X17641505Y-17230914D01*
X17452207Y-17325729D01*
X17249697Y-17396487D01*
X17034048Y-17443142D01*
X17031587Y-17443505D01*
X16990058Y-17447149D01*
X16927388Y-17449852D01*
X16849373Y-17451487D01*
X16761808Y-17451930D01*
X16670487Y-17451052D01*
X16606484Y-17449767D01*
X16511523Y-17446790D01*
X16435428Y-17442528D01*
X16372712Y-17436526D01*
X16317885Y-17428329D01*
X16265460Y-17417482D01*
X16206477Y-17403465D01*
X16144940Y-17387503D01*
X16089286Y-17370758D01*
X16034463Y-17351268D01*
X15975422Y-17327073D01*
X15907111Y-17296210D01*
X15824478Y-17256719D01*
X15722473Y-17206639D01*
X15440352Y-17067215D01*
X15666313Y-16696067D01*
X15695896Y-16647490D01*
X15749043Y-16560289D01*
X15796614Y-16482331D01*
X15836868Y-16416458D01*
X15868068Y-16365516D01*
X15888476Y-16332347D01*
X15896352Y-16319795D01*
X15898542Y-16320170D01*
X15916188Y-16332454D01*
X15947189Y-16357947D01*
X15986647Y-16392694D01*
X16056920Y-16452729D01*
X16182371Y-16541506D01*
X16304089Y-16603394D01*
X16392045Y-16634300D01*
X16540817Y-16665885D01*
X16686989Y-16671484D01*
X16828443Y-16651477D01*
X16963058Y-16606246D01*
X17088714Y-16536173D01*
X17203293Y-16441639D01*
X17267049Y-16372011D01*
X17356867Y-16243224D01*
X17430567Y-16093773D01*
X17488501Y-15922892D01*
X17531021Y-15729817D01*
X17532951Y-15717831D01*
X17541863Y-15640143D01*
X17548497Y-15543617D01*
X17552800Y-15434849D01*
X17554719Y-15320434D01*
X17554198Y-15206968D01*
X17551185Y-15101046D01*
X17545626Y-15009263D01*
X17537467Y-14938217D01*
X17506194Y-14777280D01*
X17453574Y-14589286D01*
X17387395Y-14424700D01*
X17307747Y-14283649D01*
X17214717Y-14166260D01*
X17108394Y-14072663D01*
X16988867Y-14002982D01*
X16856224Y-13957347D01*
X16826795Y-13951683D01*
X16753044Y-13944288D01*
X16666856Y-13941874D01*
X16577884Y-13944308D01*
X16495786Y-13951460D01*
X16430217Y-13963195D01*
X16320986Y-14000561D01*
X16194227Y-14068778D01*
X16081358Y-14158550D01*
X16061437Y-14177461D01*
X16025340Y-14210918D01*
X15999829Y-14233438D01*
X15989464Y-14240928D01*
X15986913Y-14237346D01*
X15971206Y-14214723D01*
X15942832Y-14173647D01*
X15903664Y-14116836D01*
X15855578Y-14047012D01*
X15800448Y-13966893D01*
X15740149Y-13879201D01*
X15493514Y-13520402D01*
X15548611Y-13503895D01*
X15554360Y-13502024D01*
X15591785Y-13487166D01*
X15645744Y-13463208D01*
X15709902Y-13433031D01*
X15777929Y-13399517D01*
X15807572Y-13384700D01*
X15972176Y-13308201D01*
X16123890Y-13249045D01*
X16268548Y-13205718D01*
X16411986Y-13176707D01*
X16560038Y-13160499D01*
X16718541Y-13155580D01*
X16828847Y-13158078D01*
G37*
X10157730Y-12956825D02*
X10040959Y-12957304D01*
X10001271Y-12957545D01*
X9455514Y-12961135D01*
X9448649Y-15054919D01*
X9447742Y-15338842D01*
X9446938Y-15596640D01*
X9446185Y-15829646D01*
X9445431Y-16039194D01*
X9444625Y-16226618D01*
X9443715Y-16393250D01*
X9442649Y-16540425D01*
X9441376Y-16669477D01*
X9439844Y-16781739D01*
X9438002Y-16878544D01*
X9435797Y-16961226D01*
X9433178Y-17031119D01*
X9430094Y-17089557D01*
X9426492Y-17137872D01*
X9422322Y-17177400D01*
X9417531Y-17209473D01*
X9412069Y-17235424D01*
X9405882Y-17256589D01*
X9398920Y-17274299D01*
X9391131Y-17289889D01*
X9382463Y-17304693D01*
X9372865Y-17320044D01*
X9362285Y-17337276D01*
X9360116Y-17340946D01*
X9323732Y-17403031D01*
X9849569Y-17399434D01*
X10375406Y-17395838D01*
X10382271Y-17280331D01*
X10386008Y-17224899D01*
X10389903Y-17192851D01*
X10395189Y-17180135D01*
X10403097Y-17182696D01*
X10409730Y-17190024D01*
X10438626Y-17216714D01*
X10485721Y-17251021D01*
X10544380Y-17288846D01*
X10607969Y-17326090D01*
X10669851Y-17358653D01*
X10717366Y-17380077D01*
X10828684Y-17415283D01*
X10956404Y-17440222D01*
X11091099Y-17453941D01*
X11223337Y-17455486D01*
X11343692Y-17443906D01*
X11345674Y-17443574D01*
X11510359Y-17402250D01*
X11664521Y-17336412D01*
X11806672Y-17247474D01*
X11935325Y-17136852D01*
X12048993Y-17005961D01*
X12146190Y-16856216D01*
X12225428Y-16689033D01*
X12268570Y-16565190D01*
X12297021Y-16461581D01*
X12318120Y-16361252D01*
X12332512Y-16258109D01*
X12340842Y-16146057D01*
X12343755Y-16019001D01*
X12342465Y-15915252D01*
X11329350Y-15915252D01*
X11324556Y-16089222D01*
X11309432Y-16238895D01*
X11283515Y-16365597D01*
X11246337Y-16470658D01*
X11197435Y-16555406D01*
X11136342Y-16621169D01*
X11065823Y-16667659D01*
X11029129Y-16685014D01*
X10997304Y-16695419D01*
X10961823Y-16700179D01*
X10914159Y-16700601D01*
X10862811Y-16698748D01*
X10761831Y-16689841D01*
X10681965Y-16672398D01*
X10656865Y-16663661D01*
X10599552Y-16637857D01*
X10539103Y-16605453D01*
X10512703Y-16589233D01*
X10444054Y-16544205D01*
X10444054Y-15116982D01*
X10519568Y-15071718D01*
X10624879Y-15020572D01*
X10732475Y-14990324D01*
X10838419Y-14980795D01*
X10938776Y-14991807D01*
X11029613Y-15023181D01*
X11106993Y-15074740D01*
X11131961Y-15099488D01*
X11192144Y-15180577D01*
X11240855Y-15278734D01*
X11278501Y-15395643D01*
X11305488Y-15532985D01*
X11322225Y-15692444D01*
X11329117Y-15875700D01*
X11329350Y-15915252D01*
X12342465Y-15915252D01*
X12341927Y-15872067D01*
X12330353Y-15646053D01*
X12307080Y-15442192D01*
X12271496Y-15257513D01*
X12222987Y-15089048D01*
X12160940Y-14933826D01*
X12138799Y-14887808D01*
X12049615Y-14737739D01*
X11941841Y-14604377D01*
X11818010Y-14489877D01*
X11680658Y-14396389D01*
X11532317Y-14326068D01*
X11443396Y-14297060D01*
X11356067Y-14279840D01*
X11250989Y-14269594D01*
X11136971Y-14266318D01*
X11022823Y-14270009D01*
X10917352Y-14280660D01*
X10832666Y-14297370D01*
X10731872Y-14330140D01*
X10634178Y-14372279D01*
X10548704Y-14419519D01*
X10503211Y-14451581D01*
X10471831Y-14475422D01*
X10449858Y-14489939D01*
X10444859Y-14492000D01*
X10443310Y-14478718D01*
X10441865Y-14440663D01*
X10440557Y-14380519D01*
X10439417Y-14300973D01*
X10438479Y-14204711D01*
X10437774Y-14094419D01*
X10437333Y-13972781D01*
X10437189Y-13848885D01*
X10437270Y-13690196D01*
X10437665Y-13556408D01*
X10438605Y-13444960D01*
X10440320Y-13353295D01*
X10443043Y-13278853D01*
X10447003Y-13219075D01*
X10452431Y-13171402D01*
X10459559Y-13133274D01*
X10468616Y-13102134D01*
X10479833Y-13075421D01*
X10493442Y-13050577D01*
X10509672Y-13025043D01*
X10511760Y-13021881D01*
X10532694Y-12988810D01*
X10545333Y-12966069D01*
X10547027Y-12961272D01*
X10533784Y-12959759D01*
X10495998Y-12958528D01*
X10436584Y-12957599D01*
X10358458Y-12956992D01*
X10264535Y-12956727D01*
X10157730Y-12956825D01*
G36*
X12343755Y-16019001D02*
G01*
X12340842Y-16146057D01*
X12332512Y-16258109D01*
X12318120Y-16361252D01*
X12297021Y-16461581D01*
X12268570Y-16565190D01*
X12225428Y-16689033D01*
X12146190Y-16856216D01*
X12048993Y-17005961D01*
X11935325Y-17136852D01*
X11806672Y-17247474D01*
X11664521Y-17336412D01*
X11510359Y-17402250D01*
X11345674Y-17443574D01*
X11343692Y-17443906D01*
X11223337Y-17455486D01*
X11091099Y-17453941D01*
X10956404Y-17440222D01*
X10828684Y-17415283D01*
X10717366Y-17380077D01*
X10669851Y-17358653D01*
X10607969Y-17326090D01*
X10544380Y-17288846D01*
X10485721Y-17251021D01*
X10438626Y-17216714D01*
X10409730Y-17190024D01*
X10403097Y-17182696D01*
X10395189Y-17180135D01*
X10389903Y-17192851D01*
X10386008Y-17224899D01*
X10382271Y-17280331D01*
X10375406Y-17395838D01*
X9849569Y-17399434D01*
X9323732Y-17403031D01*
X9360116Y-17340946D01*
X9362285Y-17337276D01*
X9372865Y-17320044D01*
X9382463Y-17304693D01*
X9391131Y-17289889D01*
X9398920Y-17274299D01*
X9405882Y-17256589D01*
X9412069Y-17235424D01*
X9417531Y-17209473D01*
X9422322Y-17177400D01*
X9426492Y-17137872D01*
X9430094Y-17089557D01*
X9433178Y-17031119D01*
X9435797Y-16961226D01*
X9438002Y-16878544D01*
X9439844Y-16781739D01*
X9441376Y-16669477D01*
X9442649Y-16540425D01*
X9443715Y-16393250D01*
X9444625Y-16226618D01*
X9445431Y-16039194D01*
X9446185Y-15829646D01*
X9446938Y-15596640D01*
X9447742Y-15338842D01*
X9448451Y-15116982D01*
X10444054Y-15116982D01*
X10444054Y-16544205D01*
X10512703Y-16589233D01*
X10539103Y-16605453D01*
X10599552Y-16637857D01*
X10656865Y-16663661D01*
X10681965Y-16672398D01*
X10761831Y-16689841D01*
X10862811Y-16698748D01*
X10914159Y-16700601D01*
X10961823Y-16700179D01*
X10997304Y-16695419D01*
X11029129Y-16685014D01*
X11065823Y-16667659D01*
X11136342Y-16621169D01*
X11197435Y-16555406D01*
X11246337Y-16470658D01*
X11283515Y-16365597D01*
X11309432Y-16238895D01*
X11324556Y-16089222D01*
X11329350Y-15915252D01*
X11329117Y-15875700D01*
X11322225Y-15692444D01*
X11305488Y-15532985D01*
X11278501Y-15395643D01*
X11240855Y-15278734D01*
X11192144Y-15180577D01*
X11131961Y-15099488D01*
X11106993Y-15074740D01*
X11029613Y-15023181D01*
X10938776Y-14991807D01*
X10838419Y-14980795D01*
X10732475Y-14990324D01*
X10624879Y-15020572D01*
X10519568Y-15071718D01*
X10444054Y-15116982D01*
X9448451Y-15116982D01*
X9448649Y-15054919D01*
X9455514Y-12961135D01*
X10001271Y-12957545D01*
X10040959Y-12957304D01*
X10157730Y-12956825D01*
X10264535Y-12956727D01*
X10358458Y-12956992D01*
X10436584Y-12957599D01*
X10495998Y-12958528D01*
X10533784Y-12959759D01*
X10547027Y-12961272D01*
X10545333Y-12966069D01*
X10532694Y-12988810D01*
X10511760Y-13021881D01*
X10509672Y-13025043D01*
X10493442Y-13050577D01*
X10479833Y-13075421D01*
X10468616Y-13102134D01*
X10459559Y-13133274D01*
X10452431Y-13171402D01*
X10447003Y-13219075D01*
X10443043Y-13278853D01*
X10440320Y-13353295D01*
X10438605Y-13444960D01*
X10437665Y-13556408D01*
X10437270Y-13690196D01*
X10437189Y-13848885D01*
X10437333Y-13972781D01*
X10437774Y-14094419D01*
X10438479Y-14204711D01*
X10439417Y-14300973D01*
X10440557Y-14380519D01*
X10441865Y-14440663D01*
X10443310Y-14478718D01*
X10444859Y-14492000D01*
X10449858Y-14489939D01*
X10471831Y-14475422D01*
X10503211Y-14451581D01*
X10548704Y-14419519D01*
X10634178Y-14372279D01*
X10731872Y-14330140D01*
X10832666Y-14297370D01*
X10917352Y-14280660D01*
X11022823Y-14270009D01*
X11136971Y-14266318D01*
X11250989Y-14269594D01*
X11356067Y-14279840D01*
X11443396Y-14297060D01*
X11532317Y-14326068D01*
X11680658Y-14396389D01*
X11818010Y-14489877D01*
X11941841Y-14604377D01*
X12049615Y-14737739D01*
X12138799Y-14887808D01*
X12160940Y-14933826D01*
X12222987Y-15089048D01*
X12271496Y-15257513D01*
X12307080Y-15442192D01*
X12330353Y-15646053D01*
X12341927Y-15872067D01*
X12342465Y-15915252D01*
X12343755Y-16019001D01*
G37*
X13832495Y-14264229D02*
X13764469Y-14269378D01*
X13569837Y-14295273D01*
X13397471Y-14336575D01*
X13246530Y-14393853D01*
X13116175Y-14467674D01*
X13005566Y-14558608D01*
X12913865Y-14667222D01*
X12840230Y-14794085D01*
X12786461Y-14931352D01*
X12772813Y-14975137D01*
X12760927Y-15016141D01*
X12750666Y-15056569D01*
X12741887Y-15098630D01*
X12734452Y-15144531D01*
X12728220Y-15196480D01*
X12723050Y-15256685D01*
X12718804Y-15327352D01*
X12715340Y-15410689D01*
X12712519Y-15508905D01*
X12710200Y-15624205D01*
X12708243Y-15758799D01*
X12706509Y-15914893D01*
X12704857Y-16094695D01*
X12703676Y-16235676D01*
X12695730Y-17203622D01*
X12644244Y-17296770D01*
X12619863Y-17341645D01*
X12601720Y-17376501D01*
X12593065Y-17395054D01*
X12592757Y-17396311D01*
X12605986Y-17397749D01*
X12643674Y-17399074D01*
X12702817Y-17400249D01*
X12780414Y-17401237D01*
X12873464Y-17401999D01*
X12978965Y-17402500D01*
X13093916Y-17402701D01*
X13107622Y-17402703D01*
X13622487Y-17402703D01*
X13622487Y-17286000D01*
X13623365Y-17233260D01*
X13625708Y-17192926D01*
X13629079Y-17171300D01*
X13630569Y-17169298D01*
X13644196Y-17177683D01*
X13672243Y-17199692D01*
X13708697Y-17230601D01*
X13709515Y-17231316D01*
X13776038Y-17280843D01*
X13860052Y-17330575D01*
X13952063Y-17375626D01*
X14042579Y-17411110D01*
X14082433Y-17423236D01*
X14161745Y-17438637D01*
X14259065Y-17448465D01*
X14365484Y-17452580D01*
X14472093Y-17450841D01*
X14569983Y-17443108D01*
X14638487Y-17431981D01*
X14806480Y-17382648D01*
X14957719Y-17312342D01*
X15091218Y-17221933D01*
X15205994Y-17112295D01*
X15301063Y-16984299D01*
X15375440Y-16838818D01*
X15407526Y-16750541D01*
X15427635Y-16664739D01*
X15440962Y-16561736D01*
X15447128Y-16451034D01*
X15446926Y-16434925D01*
X14518352Y-16434925D01*
X14510652Y-16517184D01*
X14485011Y-16585546D01*
X14437622Y-16648970D01*
X14419421Y-16667567D01*
X14354718Y-16717846D01*
X14279934Y-16750056D01*
X14190338Y-16765648D01*
X14095988Y-16766796D01*
X14006499Y-16759216D01*
X13937982Y-16744389D01*
X13908225Y-16733253D01*
X13854592Y-16702904D01*
X13797765Y-16660221D01*
X13745918Y-16612317D01*
X13707222Y-16566301D01*
X13696946Y-16549421D01*
X13688958Y-16525782D01*
X13683279Y-16488168D01*
X13679644Y-16432985D01*
X13677789Y-16356640D01*
X13677406Y-16283981D01*
X13677665Y-16199270D01*
X13678713Y-16138018D01*
X13680955Y-16096227D01*
X13684794Y-16069899D01*
X13690635Y-16055035D01*
X13698882Y-16047639D01*
X13701433Y-16046461D01*
X13723600Y-16042833D01*
X13767320Y-16039866D01*
X13826689Y-16037827D01*
X13895804Y-16036983D01*
X13910811Y-16036982D01*
X14003195Y-16038457D01*
X14074568Y-16042842D01*
X14131281Y-16050738D01*
X14178128Y-16062270D01*
X14294331Y-16106215D01*
X14385457Y-16160243D01*
X14452295Y-16225219D01*
X14495635Y-16302005D01*
X14516266Y-16391467D01*
X14518352Y-16434925D01*
X15446926Y-16434925D01*
X15445756Y-16342133D01*
X15436468Y-16244536D01*
X15429223Y-16205105D01*
X15382961Y-16058701D01*
X15312616Y-15923995D01*
X15219516Y-15802280D01*
X15104988Y-15694847D01*
X14970360Y-15602988D01*
X14816960Y-15527996D01*
X14686541Y-15482458D01*
X14599377Y-15458533D01*
X14516004Y-15439943D01*
X14431024Y-15426084D01*
X14339035Y-15416351D01*
X14234638Y-15410141D01*
X14112432Y-15406851D01*
X14001945Y-15405924D01*
X13674323Y-15405027D01*
X13680599Y-15306547D01*
X13698421Y-15199695D01*
X13736333Y-15107852D01*
X13792720Y-15033310D01*
X13865969Y-14978364D01*
X13930465Y-14951552D01*
X14022877Y-14934654D01*
X14132889Y-14932227D01*
X14255344Y-14943378D01*
X14385086Y-14967210D01*
X14516958Y-15002830D01*
X14645802Y-15049343D01*
X14739434Y-15091883D01*
X14784483Y-15113728D01*
X14818844Y-15128984D01*
X14836319Y-15134937D01*
X14837267Y-15134746D01*
X14843297Y-15121412D01*
X14858355Y-15086068D01*
X14881023Y-15032101D01*
X14909885Y-14962896D01*
X14943523Y-14881840D01*
X14977716Y-14799118D01*
X15114414Y-14467803D01*
X15017180Y-14451833D01*
X14975036Y-14443820D01*
X14911681Y-14430361D01*
X14832543Y-14412679D01*
X14743049Y-14391996D01*
X14648627Y-14369532D01*
X14611027Y-14360403D01*
X14448363Y-14322674D01*
X14305950Y-14294388D01*
X14178473Y-14274972D01*
X14060616Y-14263854D01*
X13947062Y-14260464D01*
X13832495Y-14264229D01*
G36*
X15447128Y-16451034D02*
G01*
X15440962Y-16561736D01*
X15427635Y-16664739D01*
X15407526Y-16750541D01*
X15375440Y-16838818D01*
X15301063Y-16984299D01*
X15205994Y-17112295D01*
X15091218Y-17221933D01*
X14957719Y-17312342D01*
X14806480Y-17382648D01*
X14638487Y-17431981D01*
X14569983Y-17443108D01*
X14472093Y-17450841D01*
X14365484Y-17452580D01*
X14259065Y-17448465D01*
X14161745Y-17438637D01*
X14082433Y-17423236D01*
X14042579Y-17411110D01*
X13952063Y-17375626D01*
X13860052Y-17330575D01*
X13776038Y-17280843D01*
X13709515Y-17231316D01*
X13708697Y-17230601D01*
X13672243Y-17199692D01*
X13644196Y-17177683D01*
X13630569Y-17169298D01*
X13629079Y-17171300D01*
X13625708Y-17192926D01*
X13623365Y-17233260D01*
X13622487Y-17286000D01*
X13622487Y-17402703D01*
X13107622Y-17402703D01*
X13093916Y-17402701D01*
X12978965Y-17402500D01*
X12873464Y-17401999D01*
X12780414Y-17401237D01*
X12702817Y-17400249D01*
X12643674Y-17399074D01*
X12605986Y-17397749D01*
X12592757Y-17396311D01*
X12593065Y-17395054D01*
X12601720Y-17376501D01*
X12619863Y-17341645D01*
X12644244Y-17296770D01*
X12695730Y-17203622D01*
X12703279Y-16283981D01*
X13677406Y-16283981D01*
X13677789Y-16356640D01*
X13679644Y-16432985D01*
X13683279Y-16488168D01*
X13688958Y-16525782D01*
X13696946Y-16549421D01*
X13707222Y-16566301D01*
X13745918Y-16612317D01*
X13797765Y-16660221D01*
X13854592Y-16702904D01*
X13908225Y-16733253D01*
X13937982Y-16744389D01*
X14006499Y-16759216D01*
X14095988Y-16766796D01*
X14190338Y-16765648D01*
X14279934Y-16750056D01*
X14354718Y-16717846D01*
X14419421Y-16667567D01*
X14437622Y-16648970D01*
X14485011Y-16585546D01*
X14510652Y-16517184D01*
X14518352Y-16434925D01*
X14516266Y-16391467D01*
X14495635Y-16302005D01*
X14452295Y-16225219D01*
X14385457Y-16160243D01*
X14294331Y-16106215D01*
X14178128Y-16062270D01*
X14131281Y-16050738D01*
X14074568Y-16042842D01*
X14003195Y-16038457D01*
X13910811Y-16036982D01*
X13895804Y-16036983D01*
X13826689Y-16037827D01*
X13767320Y-16039866D01*
X13723600Y-16042833D01*
X13701433Y-16046461D01*
X13698882Y-16047639D01*
X13690635Y-16055035D01*
X13684794Y-16069899D01*
X13680955Y-16096227D01*
X13678713Y-16138018D01*
X13677665Y-16199270D01*
X13677406Y-16283981D01*
X12703279Y-16283981D01*
X12703676Y-16235676D01*
X12704857Y-16094695D01*
X12706509Y-15914893D01*
X12708243Y-15758799D01*
X12710200Y-15624205D01*
X12712519Y-15508905D01*
X12715340Y-15410689D01*
X12718804Y-15327352D01*
X12723050Y-15256685D01*
X12728220Y-15196480D01*
X12734452Y-15144531D01*
X12741887Y-15098630D01*
X12750666Y-15056569D01*
X12760927Y-15016141D01*
X12772813Y-14975137D01*
X12786461Y-14931352D01*
X12840230Y-14794085D01*
X12913865Y-14667222D01*
X13005566Y-14558608D01*
X13116175Y-14467674D01*
X13246530Y-14393853D01*
X13397471Y-14336575D01*
X13569837Y-14295273D01*
X13764469Y-14269378D01*
X13832495Y-14264229D01*
X13947062Y-14260464D01*
X14060616Y-14263854D01*
X14178473Y-14274972D01*
X14305950Y-14294388D01*
X14448363Y-14322674D01*
X14611027Y-14360403D01*
X14648627Y-14369532D01*
X14743049Y-14391996D01*
X14832543Y-14412679D01*
X14911681Y-14430361D01*
X14975036Y-14443820D01*
X15017180Y-14451833D01*
X15114414Y-14467803D01*
X14977716Y-14799118D01*
X14943523Y-14881840D01*
X14909885Y-14962896D01*
X14881023Y-15032101D01*
X14858355Y-15086068D01*
X14843297Y-15121412D01*
X14837267Y-15134746D01*
X14836319Y-15134937D01*
X14818844Y-15128984D01*
X14784483Y-15113728D01*
X14739434Y-15091883D01*
X14645802Y-15049343D01*
X14516958Y-15002830D01*
X14385086Y-14967210D01*
X14255344Y-14943378D01*
X14132889Y-14932227D01*
X14022877Y-14934654D01*
X13930465Y-14951552D01*
X13865969Y-14978364D01*
X13792720Y-15033310D01*
X13736333Y-15107852D01*
X13698421Y-15199695D01*
X13680599Y-15306547D01*
X13674323Y-15405027D01*
X14001945Y-15405924D01*
X14112432Y-15406851D01*
X14234638Y-15410141D01*
X14339035Y-15416351D01*
X14431024Y-15426084D01*
X14516004Y-15439943D01*
X14599377Y-15458533D01*
X14686541Y-15482458D01*
X14816960Y-15527996D01*
X14970360Y-15602988D01*
X15104988Y-15694847D01*
X15219516Y-15802280D01*
X15312616Y-15923995D01*
X15382961Y-16058701D01*
X15429223Y-16205105D01*
X15436468Y-16244536D01*
X15445756Y-16342133D01*
X15446926Y-16434925D01*
X15447128Y-16451034D01*
G37*
X22955743Y-12473689D02*
X22691220Y-12473725D01*
X22568088Y-12473730D01*
X20597189Y-12473730D01*
X20597189Y-12589910D01*
X20584789Y-12731291D01*
X20547364Y-12861684D01*
X20484577Y-12981862D01*
X20396094Y-13092602D01*
X20366157Y-13122511D01*
X20258466Y-13207348D01*
X20139725Y-13269221D01*
X20013460Y-13308159D01*
X19883197Y-13324190D01*
X19752465Y-13317342D01*
X19624788Y-13287643D01*
X19503695Y-13235120D01*
X19392712Y-13159803D01*
X19342868Y-13114363D01*
X19249983Y-13002952D01*
X19181873Y-12880435D01*
X19139129Y-12748215D01*
X19122347Y-12607692D01*
X19122124Y-12593867D01*
X19121244Y-12473734D01*
X19068443Y-12473732D01*
X19021604Y-12480089D01*
X18978817Y-12495556D01*
X18975989Y-12497154D01*
X18966325Y-12502168D01*
X18957451Y-12506073D01*
X18949335Y-12510007D01*
X18941943Y-12515106D01*
X18935245Y-12522508D01*
X18929208Y-12533351D01*
X18923801Y-12548772D01*
X18918990Y-12569909D01*
X18914745Y-12597899D01*
X18911032Y-12633879D01*
X18907821Y-12678987D01*
X18905078Y-12734360D01*
X18902772Y-12801137D01*
X18900871Y-12880453D01*
X18899342Y-12973447D01*
X18898154Y-13081257D01*
X18897274Y-13205019D01*
X18896670Y-13345871D01*
X18896311Y-13504950D01*
X18896165Y-13683395D01*
X18896198Y-13882342D01*
X18896380Y-14102929D01*
X18896677Y-14346293D01*
X18897059Y-14613572D01*
X18897492Y-14905903D01*
X18897945Y-15224424D01*
X18897998Y-15263230D01*
X18898404Y-15583782D01*
X18898749Y-15878012D01*
X18899069Y-16147056D01*
X18899400Y-16392052D01*
X18899779Y-16614137D01*
X18900243Y-16814447D01*
X18900828Y-16994119D01*
X18901570Y-17154290D01*
X18902506Y-17296098D01*
X18903673Y-17420679D01*
X18905107Y-17529170D01*
X18906844Y-17622707D01*
X18908922Y-17702429D01*
X18911376Y-17769472D01*
X18914244Y-17824973D01*
X18917561Y-17870068D01*
X18921364Y-17905895D01*
X18925690Y-17933591D01*
X18930575Y-17954293D01*
X18936055Y-17969137D01*
X18942168Y-17979260D01*
X18948950Y-17985800D01*
X18956437Y-17989893D01*
X18964666Y-17992676D01*
X18973673Y-17995287D01*
X18983495Y-17998862D01*
X18985894Y-17999950D01*
X18993435Y-18002396D01*
X19006056Y-18004642D01*
X19024859Y-18006698D01*
X19050947Y-18008572D01*
X19085422Y-18010271D01*
X19129385Y-18011803D01*
X19183939Y-18013177D01*
X19250185Y-18014400D01*
X19329226Y-18015481D01*
X19422163Y-18016427D01*
X19530099Y-18017247D01*
X19654136Y-18017947D01*
X19795376Y-18018538D01*
X19954921Y-18019025D01*
X20133872Y-18019419D01*
X20333332Y-18019725D01*
X20554404Y-18019953D01*
X20798188Y-18020110D01*
X21065787Y-18020205D01*
X21358303Y-18020245D01*
X21676839Y-18020238D01*
X21780021Y-18020228D01*
X22105623Y-18020176D01*
X22404881Y-18020091D01*
X22678909Y-18019963D01*
X22928824Y-18019785D01*
X23155740Y-18019548D01*
X23360773Y-18019242D01*
X23545038Y-18018860D01*
X23709650Y-18018392D01*
X23855725Y-18017830D01*
X23984376Y-18017165D01*
X24096721Y-18016388D01*
X24193874Y-18015491D01*
X24276950Y-18014465D01*
X24347064Y-18013301D01*
X24405332Y-18011991D01*
X24452869Y-18010525D01*
X24490790Y-18008896D01*
X24520210Y-18007093D01*
X24542245Y-18005110D01*
X24558010Y-18002936D01*
X24568620Y-18000563D01*
X24574404Y-17998391D01*
X24584684Y-17994056D01*
X24594122Y-17990859D01*
X24602755Y-17987665D01*
X24610619Y-17983338D01*
X24617748Y-17976744D01*
X24624179Y-17966747D01*
X24629947Y-17952212D01*
X24635089Y-17932003D01*
X24639640Y-17904985D01*
X24643635Y-17870023D01*
X24647111Y-17825981D01*
X24650102Y-17771724D01*
X24652646Y-17706117D01*
X24654777Y-17628024D01*
X24656532Y-17536310D01*
X24657945Y-17429840D01*
X24658315Y-17388973D01*
X24291884Y-17388973D01*
X22996734Y-17388973D01*
X23021655Y-17351217D01*
X23046447Y-17312417D01*
X23067440Y-17275469D01*
X23084935Y-17237788D01*
X23099230Y-17196788D01*
X23110623Y-17149883D01*
X23119413Y-17094487D01*
X23125898Y-17028016D01*
X23130377Y-16947883D01*
X23133150Y-16851502D01*
X23134513Y-16736289D01*
X23134767Y-16599657D01*
X23134209Y-16439020D01*
X23133893Y-16379382D01*
X23130325Y-15740041D01*
X22725298Y-16291449D01*
X22610554Y-16447876D01*
X22511143Y-16584088D01*
X22425990Y-16701890D01*
X22354022Y-16803084D01*
X22294166Y-16889477D01*
X22245348Y-16962874D01*
X22206495Y-17025077D01*
X22176534Y-17077893D01*
X22154391Y-17123125D01*
X22138993Y-17162578D01*
X22129266Y-17198058D01*
X22124137Y-17231368D01*
X22122532Y-17264313D01*
X22123379Y-17298697D01*
X22123595Y-17303019D01*
X22128054Y-17389031D01*
X20708692Y-17388973D01*
X20814265Y-17282522D01*
X20842913Y-17253406D01*
X20870090Y-17225076D01*
X20896989Y-17195968D01*
X20924803Y-17164520D01*
X20954725Y-17129169D01*
X20987946Y-17088354D01*
X21025661Y-17040511D01*
X21069060Y-16984079D01*
X21119338Y-16917494D01*
X21177688Y-16839195D01*
X21245300Y-16747619D01*
X21323369Y-16641204D01*
X21413088Y-16518387D01*
X21515648Y-16377605D01*
X21632242Y-16217297D01*
X21727809Y-16085798D01*
X21847749Y-15920596D01*
X21952380Y-15776152D01*
X22042648Y-15651094D01*
X22119503Y-15544052D01*
X22183891Y-15453654D01*
X22236761Y-15378529D01*
X22279060Y-15317304D01*
X22311736Y-15268610D01*
X22335738Y-15231074D01*
X22352013Y-15203325D01*
X22361508Y-15183992D01*
X22365173Y-15171703D01*
X22364071Y-15165242D01*
X22350724Y-15148048D01*
X22321866Y-15111655D01*
X22279240Y-15058224D01*
X22224585Y-14989919D01*
X22159644Y-14908903D01*
X22086158Y-14817340D01*
X22005868Y-14717392D01*
X21920515Y-14611224D01*
X21831840Y-14500997D01*
X21741586Y-14388876D01*
X21691944Y-14327244D01*
X20459373Y-14327244D01*
X20408146Y-14419919D01*
X20356919Y-14512595D01*
X20356919Y-17203622D01*
X20408146Y-17296298D01*
X20459373Y-17388973D01*
X19853396Y-17388973D01*
X19708734Y-17388931D01*
X19589244Y-17388741D01*
X19492642Y-17388308D01*
X19416642Y-17387536D01*
X19358957Y-17386330D01*
X19317301Y-17384594D01*
X19289389Y-17382232D01*
X19272935Y-17379150D01*
X19265652Y-17375251D01*
X19265255Y-17370440D01*
X19269458Y-17364622D01*
X19269501Y-17364574D01*
X19286813Y-17339532D01*
X19309736Y-17298815D01*
X19329981Y-17258168D01*
X19368379Y-17176162D01*
X19376211Y-14327244D01*
X20459373Y-14327244D01*
X21691944Y-14327244D01*
X21651493Y-14277024D01*
X21563302Y-14167604D01*
X21478754Y-14062778D01*
X21399592Y-13964711D01*
X21327556Y-13875566D01*
X21264387Y-13797505D01*
X21211827Y-13732692D01*
X21171617Y-13683290D01*
X21148000Y-13654487D01*
X21056290Y-13546778D01*
X20968060Y-13449580D01*
X20886403Y-13366076D01*
X20814410Y-13299448D01*
X20763319Y-13258599D01*
X20702907Y-13215135D01*
X22092298Y-13215135D01*
X22091908Y-13296666D01*
X22095791Y-13356606D01*
X22110390Y-13412177D01*
X22132988Y-13464855D01*
X22147678Y-13494615D01*
X22163472Y-13524103D01*
X22181814Y-13555276D01*
X22204145Y-13590093D01*
X22231909Y-13630510D01*
X22266549Y-13678486D01*
X22309507Y-13735978D01*
X22362227Y-13804943D01*
X22426151Y-13887339D01*
X22502721Y-13985124D01*
X22593381Y-14100255D01*
X22699574Y-14234690D01*
X22711568Y-14249859D01*
X23130325Y-14779412D01*
X23134378Y-14192922D01*
X23135195Y-14017251D01*
X23135021Y-13868532D01*
X23133849Y-13746275D01*
X23131669Y-13649989D01*
X23128474Y-13579183D01*
X23124256Y-13533369D01*
X23122838Y-13524679D01*
X23100591Y-13433135D01*
X23071443Y-13350608D01*
X23038182Y-13284253D01*
X23018200Y-13256110D01*
X22983722Y-13215135D01*
X23637914Y-13215135D01*
X23793969Y-13215269D01*
X23924467Y-13215703D01*
X24031310Y-13216489D01*
X24116398Y-13217676D01*
X24181635Y-13219317D01*
X24228921Y-13221461D01*
X24260157Y-13224159D01*
X24277246Y-13227462D01*
X24282088Y-13231421D01*
X24281753Y-13232298D01*
X24267885Y-13253231D01*
X24244732Y-13286412D01*
X24232754Y-13303193D01*
X24220369Y-13319940D01*
X24209237Y-13334915D01*
X24199288Y-13349594D01*
X24190451Y-13365449D01*
X24182657Y-13383955D01*
X24175835Y-13406585D01*
X24169916Y-13434813D01*
X24164829Y-13470113D01*
X24160504Y-13513958D01*
X24156871Y-13567822D01*
X24153860Y-13633180D01*
X24151401Y-13711504D01*
X24149423Y-13804268D01*
X24147858Y-13912947D01*
X24146634Y-14039013D01*
X24145681Y-14183942D01*
X24144930Y-14349206D01*
X24144311Y-14536279D01*
X24143752Y-14746635D01*
X24143185Y-14981748D01*
X24142655Y-15197741D01*
X24142155Y-15438535D01*
X24141895Y-15668274D01*
X24141868Y-15885493D01*
X24142067Y-16088722D01*
X24142486Y-16276496D01*
X24143118Y-16447345D01*
X24143956Y-16599803D01*
X24144992Y-16732403D01*
X24146220Y-16843676D01*
X24147633Y-16932156D01*
X24149225Y-16996375D01*
X24150987Y-17034865D01*
X24151321Y-17038933D01*
X24163466Y-17132248D01*
X24182427Y-17207190D01*
X24211302Y-17272594D01*
X24253190Y-17337293D01*
X24258429Y-17344352D01*
X24291884Y-17388973D01*
X24658315Y-17388973D01*
X24659054Y-17307479D01*
X24659893Y-17168090D01*
X24660498Y-17010539D01*
X24660905Y-16833691D01*
X24661150Y-16636410D01*
X24661267Y-16417560D01*
X24661295Y-16176007D01*
X24661267Y-15910615D01*
X24661220Y-15620249D01*
X24661190Y-15303773D01*
X24661189Y-15240946D01*
X24661172Y-14921137D01*
X24661112Y-14627661D01*
X24661002Y-14359390D01*
X24660833Y-14115198D01*
X24660597Y-13893957D01*
X24660284Y-13694540D01*
X24659885Y-13515820D01*
X24659393Y-13356671D01*
X24658797Y-13215966D01*
X24658090Y-13092576D01*
X24657263Y-12985376D01*
X24656307Y-12893238D01*
X24655213Y-12815035D01*
X24653973Y-12749641D01*
X24652578Y-12695928D01*
X24651018Y-12652769D01*
X24649286Y-12619037D01*
X24647372Y-12593605D01*
X24645268Y-12575347D01*
X24642966Y-12563134D01*
X24640455Y-12555841D01*
X24640363Y-12555659D01*
X24635192Y-12544518D01*
X24630885Y-12534431D01*
X24626121Y-12525346D01*
X24619578Y-12517212D01*
X24609935Y-12509976D01*
X24595871Y-12503586D01*
X24576063Y-12497989D01*
X24549191Y-12493133D01*
X24513933Y-12488966D01*
X24468968Y-12485436D01*
X24412974Y-12482491D01*
X24344629Y-12480077D01*
X24262614Y-12478144D01*
X24165605Y-12476638D01*
X24052282Y-12475508D01*
X23921323Y-12474702D01*
X23771407Y-12474166D01*
X23601213Y-12473849D01*
X23409418Y-12473699D01*
X23194702Y-12473663D01*
X22955743Y-12473689D01*
G36*
X24657945Y-17429840D02*
G01*
X24656532Y-17536310D01*
X24654777Y-17628024D01*
X24652646Y-17706117D01*
X24650102Y-17771724D01*
X24647111Y-17825981D01*
X24643635Y-17870023D01*
X24639640Y-17904985D01*
X24635089Y-17932003D01*
X24629947Y-17952212D01*
X24624179Y-17966747D01*
X24617748Y-17976744D01*
X24610619Y-17983338D01*
X24602755Y-17987665D01*
X24594122Y-17990859D01*
X24584684Y-17994056D01*
X24574404Y-17998391D01*
X24568620Y-18000563D01*
X24558010Y-18002936D01*
X24542245Y-18005110D01*
X24520210Y-18007093D01*
X24490790Y-18008896D01*
X24452869Y-18010525D01*
X24405332Y-18011991D01*
X24347064Y-18013301D01*
X24276950Y-18014465D01*
X24193874Y-18015491D01*
X24096721Y-18016388D01*
X23984376Y-18017165D01*
X23855725Y-18017830D01*
X23709650Y-18018392D01*
X23545038Y-18018860D01*
X23360773Y-18019242D01*
X23155740Y-18019548D01*
X22928824Y-18019785D01*
X22678909Y-18019963D01*
X22404881Y-18020091D01*
X22105623Y-18020176D01*
X21780021Y-18020228D01*
X21676839Y-18020238D01*
X21358303Y-18020245D01*
X21065787Y-18020205D01*
X20798188Y-18020110D01*
X20554404Y-18019953D01*
X20333332Y-18019725D01*
X20133872Y-18019419D01*
X19954921Y-18019025D01*
X19795376Y-18018538D01*
X19654136Y-18017947D01*
X19530099Y-18017247D01*
X19422163Y-18016427D01*
X19329226Y-18015481D01*
X19250185Y-18014400D01*
X19183939Y-18013177D01*
X19129385Y-18011803D01*
X19085422Y-18010271D01*
X19050947Y-18008572D01*
X19024859Y-18006698D01*
X19006056Y-18004642D01*
X18993435Y-18002396D01*
X18985894Y-17999950D01*
X18983495Y-17998862D01*
X18973673Y-17995287D01*
X18964666Y-17992676D01*
X18956437Y-17989893D01*
X18948950Y-17985800D01*
X18942168Y-17979260D01*
X18936055Y-17969137D01*
X18930575Y-17954293D01*
X18925690Y-17933591D01*
X18921364Y-17905895D01*
X18917561Y-17870068D01*
X18914244Y-17824973D01*
X18911376Y-17769472D01*
X18908922Y-17702429D01*
X18906844Y-17622707D01*
X18905107Y-17529170D01*
X18903673Y-17420679D01*
X18903202Y-17370440D01*
X19265255Y-17370440D01*
X19265652Y-17375251D01*
X19272935Y-17379150D01*
X19289389Y-17382232D01*
X19317301Y-17384594D01*
X19358957Y-17386330D01*
X19416642Y-17387536D01*
X19492642Y-17388308D01*
X19589244Y-17388741D01*
X19708734Y-17388931D01*
X19853396Y-17388973D01*
X20459373Y-17388973D01*
X20408146Y-17296298D01*
X20356919Y-17203622D01*
X20356919Y-14512595D01*
X20408146Y-14419919D01*
X20459373Y-14327244D01*
X19376211Y-14327244D01*
X19368379Y-17176162D01*
X19329981Y-17258168D01*
X19309736Y-17298815D01*
X19286813Y-17339532D01*
X19269501Y-17364574D01*
X19269458Y-17364622D01*
X19265255Y-17370440D01*
X18903202Y-17370440D01*
X18902506Y-17296098D01*
X18901570Y-17154290D01*
X18900828Y-16994119D01*
X18900243Y-16814447D01*
X18899779Y-16614137D01*
X18899400Y-16392052D01*
X18899069Y-16147056D01*
X18898749Y-15878012D01*
X18898404Y-15583782D01*
X18897998Y-15263230D01*
X18897945Y-15224424D01*
X18897492Y-14905903D01*
X18897059Y-14613572D01*
X18896677Y-14346293D01*
X18896380Y-14102929D01*
X18896198Y-13882342D01*
X18896165Y-13683395D01*
X18896311Y-13504950D01*
X18896670Y-13345871D01*
X18897274Y-13205019D01*
X18898154Y-13081257D01*
X18899342Y-12973447D01*
X18900871Y-12880453D01*
X18902772Y-12801137D01*
X18905078Y-12734360D01*
X18907821Y-12678987D01*
X18911032Y-12633879D01*
X18914745Y-12597899D01*
X18918990Y-12569909D01*
X18923801Y-12548772D01*
X18929208Y-12533351D01*
X18935245Y-12522508D01*
X18941943Y-12515106D01*
X18949335Y-12510007D01*
X18957451Y-12506073D01*
X18966325Y-12502168D01*
X18975989Y-12497154D01*
X18978817Y-12495556D01*
X19021604Y-12480089D01*
X19068443Y-12473732D01*
X19121244Y-12473734D01*
X19122124Y-12593867D01*
X19122347Y-12607692D01*
X19139129Y-12748215D01*
X19181873Y-12880435D01*
X19249983Y-13002952D01*
X19342868Y-13114363D01*
X19392712Y-13159803D01*
X19503695Y-13235120D01*
X19624788Y-13287643D01*
X19752465Y-13317342D01*
X19883197Y-13324190D01*
X20013460Y-13308159D01*
X20139725Y-13269221D01*
X20243522Y-13215135D01*
X20702907Y-13215135D01*
X20763319Y-13258599D01*
X20814410Y-13299448D01*
X20886403Y-13366076D01*
X20968060Y-13449580D01*
X21056290Y-13546778D01*
X21148000Y-13654487D01*
X21171617Y-13683290D01*
X21211827Y-13732692D01*
X21264387Y-13797505D01*
X21327556Y-13875566D01*
X21399592Y-13964711D01*
X21478754Y-14062778D01*
X21563302Y-14167604D01*
X21651493Y-14277024D01*
X21691944Y-14327244D01*
X21741586Y-14388876D01*
X21831840Y-14500997D01*
X21920515Y-14611224D01*
X22005868Y-14717392D01*
X22086158Y-14817340D01*
X22159644Y-14908903D01*
X22224585Y-14989919D01*
X22279240Y-15058224D01*
X22321866Y-15111655D01*
X22350724Y-15148048D01*
X22364071Y-15165242D01*
X22365173Y-15171703D01*
X22361508Y-15183992D01*
X22352013Y-15203325D01*
X22335738Y-15231074D01*
X22311736Y-15268610D01*
X22279060Y-15317304D01*
X22236761Y-15378529D01*
X22183891Y-15453654D01*
X22119503Y-15544052D01*
X22042648Y-15651094D01*
X21952380Y-15776152D01*
X21847749Y-15920596D01*
X21727809Y-16085798D01*
X21632242Y-16217297D01*
X21515648Y-16377605D01*
X21413088Y-16518387D01*
X21323369Y-16641204D01*
X21245300Y-16747619D01*
X21177688Y-16839195D01*
X21119338Y-16917494D01*
X21069060Y-16984079D01*
X21025661Y-17040511D01*
X20987946Y-17088354D01*
X20954725Y-17129169D01*
X20924803Y-17164520D01*
X20896989Y-17195968D01*
X20870090Y-17225076D01*
X20842913Y-17253406D01*
X20814265Y-17282522D01*
X20708692Y-17388973D01*
X22128054Y-17389031D01*
X22123595Y-17303019D01*
X22123379Y-17298697D01*
X22122532Y-17264313D01*
X22124137Y-17231368D01*
X22129266Y-17198058D01*
X22138993Y-17162578D01*
X22154391Y-17123125D01*
X22176534Y-17077893D01*
X22206495Y-17025077D01*
X22245348Y-16962874D01*
X22294166Y-16889477D01*
X22354022Y-16803084D01*
X22425990Y-16701890D01*
X22511143Y-16584088D01*
X22610554Y-16447876D01*
X22725298Y-16291449D01*
X23130325Y-15740041D01*
X23133893Y-16379382D01*
X23134209Y-16439020D01*
X23134767Y-16599657D01*
X23134513Y-16736289D01*
X23133150Y-16851502D01*
X23130377Y-16947883D01*
X23125898Y-17028016D01*
X23119413Y-17094487D01*
X23110623Y-17149883D01*
X23099230Y-17196788D01*
X23084935Y-17237788D01*
X23067440Y-17275469D01*
X23046447Y-17312417D01*
X23021655Y-17351217D01*
X22996734Y-17388973D01*
X24291884Y-17388973D01*
X24258429Y-17344352D01*
X24253190Y-17337293D01*
X24211302Y-17272594D01*
X24182427Y-17207190D01*
X24163466Y-17132248D01*
X24151321Y-17038933D01*
X24150987Y-17034865D01*
X24149225Y-16996375D01*
X24147633Y-16932156D01*
X24146220Y-16843676D01*
X24144992Y-16732403D01*
X24143956Y-16599803D01*
X24143118Y-16447345D01*
X24142486Y-16276496D01*
X24142067Y-16088722D01*
X24141868Y-15885493D01*
X24141895Y-15668274D01*
X24142155Y-15438535D01*
X24142655Y-15197741D01*
X24143185Y-14981748D01*
X24143752Y-14746635D01*
X24144311Y-14536279D01*
X24144930Y-14349206D01*
X24145681Y-14183942D01*
X24146634Y-14039013D01*
X24147858Y-13912947D01*
X24149423Y-13804268D01*
X24151401Y-13711504D01*
X24153860Y-13633180D01*
X24156871Y-13567822D01*
X24160504Y-13513958D01*
X24164829Y-13470113D01*
X24169916Y-13434813D01*
X24175835Y-13406585D01*
X24182657Y-13383955D01*
X24190451Y-13365449D01*
X24199288Y-13349594D01*
X24209237Y-13334915D01*
X24220369Y-13319940D01*
X24232754Y-13303193D01*
X24244732Y-13286412D01*
X24267885Y-13253231D01*
X24281753Y-13232298D01*
X24282088Y-13231421D01*
X24277246Y-13227462D01*
X24260157Y-13224159D01*
X24228921Y-13221461D01*
X24181635Y-13219317D01*
X24116398Y-13217676D01*
X24031310Y-13216489D01*
X23924467Y-13215703D01*
X23793969Y-13215269D01*
X23637914Y-13215135D01*
X22983722Y-13215135D01*
X23018200Y-13256110D01*
X23038182Y-13284253D01*
X23071443Y-13350608D01*
X23100591Y-13433135D01*
X23122838Y-13524679D01*
X23124256Y-13533369D01*
X23128474Y-13579183D01*
X23131669Y-13649989D01*
X23133849Y-13746275D01*
X23135021Y-13868532D01*
X23135195Y-14017251D01*
X23134378Y-14192922D01*
X23130325Y-14779412D01*
X22711568Y-14249859D01*
X22699574Y-14234690D01*
X22593381Y-14100255D01*
X22502721Y-13985124D01*
X22426151Y-13887339D01*
X22362227Y-13804943D01*
X22309507Y-13735978D01*
X22266549Y-13678486D01*
X22231909Y-13630510D01*
X22204145Y-13590093D01*
X22181814Y-13555276D01*
X22163472Y-13524103D01*
X22147678Y-13494615D01*
X22132988Y-13464855D01*
X22110390Y-13412177D01*
X22095791Y-13356606D01*
X22091908Y-13296666D01*
X22092298Y-13215135D01*
X20702907Y-13215135D01*
X20243522Y-13215135D01*
X20258466Y-13207348D01*
X20366157Y-13122511D01*
X20396094Y-13092602D01*
X20484577Y-12981862D01*
X20547364Y-12861684D01*
X20584789Y-12731291D01*
X20597189Y-12589910D01*
X20597189Y-12473730D01*
X22568088Y-12473730D01*
X22691220Y-12473725D01*
X22955743Y-12473689D01*
X23194702Y-12473663D01*
X23409418Y-12473699D01*
X23601213Y-12473849D01*
X23771407Y-12474166D01*
X23921323Y-12474702D01*
X24052282Y-12475508D01*
X24165605Y-12476638D01*
X24262614Y-12478144D01*
X24344629Y-12480077D01*
X24412974Y-12482491D01*
X24468968Y-12485436D01*
X24513933Y-12488966D01*
X24549191Y-12493133D01*
X24576063Y-12497989D01*
X24595871Y-12503586D01*
X24609935Y-12509976D01*
X24619578Y-12517212D01*
X24626121Y-12525346D01*
X24630885Y-12534431D01*
X24635192Y-12544518D01*
X24640363Y-12555659D01*
X24640455Y-12555841D01*
X24642966Y-12563134D01*
X24645268Y-12575347D01*
X24647372Y-12593605D01*
X24649286Y-12619037D01*
X24651018Y-12652769D01*
X24652578Y-12695928D01*
X24653973Y-12749641D01*
X24655213Y-12815035D01*
X24656307Y-12893238D01*
X24657263Y-12985376D01*
X24658090Y-13092576D01*
X24658797Y-13215966D01*
X24659393Y-13356671D01*
X24659885Y-13515820D01*
X24660284Y-13694540D01*
X24660597Y-13893957D01*
X24660833Y-14115198D01*
X24661002Y-14359390D01*
X24661112Y-14627661D01*
X24661172Y-14921137D01*
X24661189Y-15240946D01*
X24661190Y-15303773D01*
X24661220Y-15620249D01*
X24661267Y-15910615D01*
X24661295Y-16176007D01*
X24661267Y-16417560D01*
X24661150Y-16636410D01*
X24660905Y-16833691D01*
X24660498Y-17010539D01*
X24659893Y-17168090D01*
X24659054Y-17307479D01*
X24658315Y-17388973D01*
X24657945Y-17429840D01*
G37*
%TO.C,TP3*%
D12*
X12950000Y-29000000D02*
G75*
G02*
X11050000Y-29000000I-950000J0D01*
G01*
X11050000Y-29000000D02*
G75*
G02*
X12950000Y-29000000I950000J0D01*
G01*
%TO.C,TP15*%
X12950000Y-32500000D02*
G75*
G02*
X11050000Y-32500000I-950000J0D01*
G01*
X11050000Y-32500000D02*
G75*
G02*
X12950000Y-32500000I950000J0D01*
G01*
%TO.C,TP12*%
X45450000Y-29000000D02*
G75*
G02*
X43550000Y-29000000I-950000J0D01*
G01*
X43550000Y-29000000D02*
G75*
G02*
X45450000Y-29000000I950000J0D01*
G01*
%TD*%
M02*
