%TF.GenerationSoftware,KiCad,Pcbnew,10.0.6*%
%TF.CreationDate,2026-09-11T15:05:42-05:00*%
%TF.ProjectId,KK_main_module,4b4b5f6d-6169-46e5-9f6d-6f64756c652e,C.5 compact landscape prototype*%
%TF.SameCoordinates,Original*%
%TF.FileFunction,Legend,Top*%
%TF.FilePolarity,Positive*%
%FSLAX46Y46*%
G04 Gerber Fmt 4.6, Leading zero omitted, Abs format (unit mm)*
G04 Created by KiCad (PCBNEW 10.0.6) date 2026-09-11 15:05:42*
%MOMM*%
%LPD*%
G01*
G04 APERTURE LIST*
G04 Aperture macros list*
%AMRoundRect*
0 Rectangle with rounded corners*
0 $1 Rounding radius*
0 $2 $3 $4 $5 $6 $7 $8 $9 X,Y pos of 4 corners*
0 Add a 4 corners polygon primitive as box body*
4,1,4,$2,$3,$4,$5,$6,$7,$8,$9,$2,$3,0*
0 Add four circle primitives for the rounded corners*
1,1,$1+$1,$2,$3*
1,1,$1+$1,$4,$5*
1,1,$1+$1,$6,$7*
1,1,$1+$1,$8,$9*
0 Add four rect primitives between the rounded corners*
20,1,$1+$1,$2,$3,$4,$5,0*
20,1,$1+$1,$4,$5,$6,$7,0*
20,1,$1+$1,$6,$7,$8,$9,0*
20,1,$1+$1,$8,$9,$2,$3,0*%
G04 Aperture macros list end*
%ADD10C,0.130000*%
%ADD11C,0.150000*%
%ADD12C,0.010000*%
%ADD13R,1.900000X1.900000*%
%ADD14C,1.900000*%
%ADD15R,1.850000X1.850000*%
%ADD16C,1.850000*%
%ADD17C,2.000000*%
%ADD18C,1.600000*%
%ADD19R,1.700000X1.700000*%
%ADD20C,1.700000*%
%ADD21C,1.712000*%
%ADD22RoundRect,0.102000X-0.754000X-0.754000X0.754000X-0.754000X0.754000X0.754000X-0.754000X0.754000X0*%
%ADD23R,1.500000X1.500000*%
%ADD24C,1.500000*%
%ADD25RoundRect,0.250000X-0.550000X-0.550000X0.550000X-0.550000X0.550000X0.550000X-0.550000X0.550000X0*%
%ADD26RoundRect,0.250000X-0.350000X-0.625000X0.350000X-0.625000X0.350000X0.625000X-0.350000X0.625000X0*%
%ADD27O,1.200000X1.750000*%
%ADD28RoundRect,0.250000X0.550000X-0.550000X0.550000X0.550000X-0.550000X0.550000X-0.550000X-0.550000X0*%
%ADD29RoundRect,0.250000X-0.550000X0.550000X-0.550000X-0.550000X0.550000X-0.550000X0.550000X0.550000X0*%
%ADD30RoundRect,0.250000X-0.950000X-0.550000X0.950000X-0.550000X0.950000X0.550000X-0.950000X0.550000X0*%
%ADD31O,2.400000X1.600000*%
%ADD32RoundRect,0.250000X-0.600000X-0.725000X0.600000X-0.725000X0.600000X0.725000X-0.600000X0.725000X0*%
%ADD33O,1.700000X1.950000*%
%ADD34R,1.800000X1.800000*%
%ADD35C,1.800000*%
%ADD36RoundRect,0.250000X0.550000X0.550000X-0.550000X0.550000X-0.550000X-0.550000X0.550000X-0.550000X0*%
%ADD37RoundRect,0.249999X-0.850001X-0.850001X0.850001X-0.850001X0.850001X0.850001X-0.850001X0.850001X0*%
%ADD38C,2.200000*%
%ADD39RoundRect,0.250000X0.550000X-0.950000X0.550000X0.950000X-0.550000X0.950000X-0.550000X-0.950000X0*%
%ADD40O,1.600000X2.400000*%
G04 APERTURE END LIST*
D10*
X7933332Y-64900240D02*
X8047618Y-64938335D01*
X8047618Y-64938335D02*
X8238094Y-64938335D01*
X8238094Y-64938335D02*
X8314285Y-64900240D01*
X8314285Y-64900240D02*
X8352380Y-64862144D01*
X8352380Y-64862144D02*
X8390475Y-64785954D01*
X8390475Y-64785954D02*
X8390475Y-64709763D01*
X8390475Y-64709763D02*
X8352380Y-64633573D01*
X8352380Y-64633573D02*
X8314285Y-64595478D01*
X8314285Y-64595478D02*
X8238094Y-64557382D01*
X8238094Y-64557382D02*
X8085713Y-64519287D01*
X8085713Y-64519287D02*
X8009523Y-64481192D01*
X8009523Y-64481192D02*
X7971428Y-64443097D01*
X7971428Y-64443097D02*
X7933332Y-64366906D01*
X7933332Y-64366906D02*
X7933332Y-64290716D01*
X7933332Y-64290716D02*
X7971428Y-64214525D01*
X7971428Y-64214525D02*
X8009523Y-64176430D01*
X8009523Y-64176430D02*
X8085713Y-64138335D01*
X8085713Y-64138335D02*
X8276190Y-64138335D01*
X8276190Y-64138335D02*
X8390475Y-64176430D01*
X8657142Y-64138335D02*
X8847618Y-64938335D01*
X8847618Y-64938335D02*
X8999999Y-64366906D01*
X8999999Y-64366906D02*
X9152380Y-64938335D01*
X9152380Y-64938335D02*
X9342857Y-64138335D01*
X9571428Y-64138335D02*
X10066666Y-64138335D01*
X10066666Y-64138335D02*
X9800000Y-64443097D01*
X9800000Y-64443097D02*
X9914285Y-64443097D01*
X9914285Y-64443097D02*
X9990476Y-64481192D01*
X9990476Y-64481192D02*
X10028571Y-64519287D01*
X10028571Y-64519287D02*
X10066666Y-64595478D01*
X10066666Y-64595478D02*
X10066666Y-64785954D01*
X10066666Y-64785954D02*
X10028571Y-64862144D01*
X10028571Y-64862144D02*
X9990476Y-64900240D01*
X9990476Y-64900240D02*
X9914285Y-64938335D01*
X9914285Y-64938335D02*
X9685714Y-64938335D01*
X9685714Y-64938335D02*
X9609523Y-64900240D01*
X9609523Y-64900240D02*
X9571428Y-64862144D01*
X18228571Y-42753335D02*
X17771428Y-42753335D01*
X18000000Y-42753335D02*
X18000000Y-41953335D01*
X18000000Y-41953335D02*
X17923809Y-42067620D01*
X17923809Y-42067620D02*
X17847619Y-42143811D01*
X17847619Y-42143811D02*
X17771428Y-42181906D01*
X19733333Y-21378335D02*
X19733333Y-21949763D01*
X19733333Y-21949763D02*
X19695238Y-22064049D01*
X19695238Y-22064049D02*
X19619047Y-22140240D01*
X19619047Y-22140240D02*
X19504762Y-22178335D01*
X19504762Y-22178335D02*
X19428571Y-22178335D01*
X20076190Y-21454525D02*
X20114286Y-21416430D01*
X20114286Y-21416430D02*
X20190476Y-21378335D01*
X20190476Y-21378335D02*
X20380952Y-21378335D01*
X20380952Y-21378335D02*
X20457143Y-21416430D01*
X20457143Y-21416430D02*
X20495238Y-21454525D01*
X20495238Y-21454525D02*
X20533333Y-21530716D01*
X20533333Y-21530716D02*
X20533333Y-21606906D01*
X20533333Y-21606906D02*
X20495238Y-21721192D01*
X20495238Y-21721192D02*
X20038095Y-22178335D01*
X20038095Y-22178335D02*
X20533333Y-22178335D01*
X18933332Y-55900240D02*
X19047618Y-55938335D01*
X19047618Y-55938335D02*
X19238094Y-55938335D01*
X19238094Y-55938335D02*
X19314285Y-55900240D01*
X19314285Y-55900240D02*
X19352380Y-55862144D01*
X19352380Y-55862144D02*
X19390475Y-55785954D01*
X19390475Y-55785954D02*
X19390475Y-55709763D01*
X19390475Y-55709763D02*
X19352380Y-55633573D01*
X19352380Y-55633573D02*
X19314285Y-55595478D01*
X19314285Y-55595478D02*
X19238094Y-55557382D01*
X19238094Y-55557382D02*
X19085713Y-55519287D01*
X19085713Y-55519287D02*
X19009523Y-55481192D01*
X19009523Y-55481192D02*
X18971428Y-55443097D01*
X18971428Y-55443097D02*
X18933332Y-55366906D01*
X18933332Y-55366906D02*
X18933332Y-55290716D01*
X18933332Y-55290716D02*
X18971428Y-55214525D01*
X18971428Y-55214525D02*
X19009523Y-55176430D01*
X19009523Y-55176430D02*
X19085713Y-55138335D01*
X19085713Y-55138335D02*
X19276190Y-55138335D01*
X19276190Y-55138335D02*
X19390475Y-55176430D01*
X19657142Y-55138335D02*
X19847618Y-55938335D01*
X19847618Y-55938335D02*
X19999999Y-55366906D01*
X19999999Y-55366906D02*
X20152380Y-55938335D01*
X20152380Y-55938335D02*
X20342857Y-55138335D01*
X21066666Y-55938335D02*
X20609523Y-55938335D01*
X20838095Y-55938335D02*
X20838095Y-55138335D01*
X20838095Y-55138335D02*
X20761904Y-55252620D01*
X20761904Y-55252620D02*
X20685714Y-55328811D01*
X20685714Y-55328811D02*
X20609523Y-55366906D01*
X18933332Y-75900240D02*
X19047618Y-75938335D01*
X19047618Y-75938335D02*
X19238094Y-75938335D01*
X19238094Y-75938335D02*
X19314285Y-75900240D01*
X19314285Y-75900240D02*
X19352380Y-75862144D01*
X19352380Y-75862144D02*
X19390475Y-75785954D01*
X19390475Y-75785954D02*
X19390475Y-75709763D01*
X19390475Y-75709763D02*
X19352380Y-75633573D01*
X19352380Y-75633573D02*
X19314285Y-75595478D01*
X19314285Y-75595478D02*
X19238094Y-75557382D01*
X19238094Y-75557382D02*
X19085713Y-75519287D01*
X19085713Y-75519287D02*
X19009523Y-75481192D01*
X19009523Y-75481192D02*
X18971428Y-75443097D01*
X18971428Y-75443097D02*
X18933332Y-75366906D01*
X18933332Y-75366906D02*
X18933332Y-75290716D01*
X18933332Y-75290716D02*
X18971428Y-75214525D01*
X18971428Y-75214525D02*
X19009523Y-75176430D01*
X19009523Y-75176430D02*
X19085713Y-75138335D01*
X19085713Y-75138335D02*
X19276190Y-75138335D01*
X19276190Y-75138335D02*
X19390475Y-75176430D01*
X19657142Y-75138335D02*
X19847618Y-75938335D01*
X19847618Y-75938335D02*
X19999999Y-75366906D01*
X19999999Y-75366906D02*
X20152380Y-75938335D01*
X20152380Y-75938335D02*
X20342857Y-75138335D01*
X20609523Y-75214525D02*
X20647619Y-75176430D01*
X20647619Y-75176430D02*
X20723809Y-75138335D01*
X20723809Y-75138335D02*
X20914285Y-75138335D01*
X20914285Y-75138335D02*
X20990476Y-75176430D01*
X20990476Y-75176430D02*
X21028571Y-75214525D01*
X21028571Y-75214525D02*
X21066666Y-75290716D01*
X21066666Y-75290716D02*
X21066666Y-75366906D01*
X21066666Y-75366906D02*
X21028571Y-75481192D01*
X21028571Y-75481192D02*
X20571428Y-75938335D01*
X20571428Y-75938335D02*
X21066666Y-75938335D01*
X29933332Y-64900240D02*
X30047618Y-64938335D01*
X30047618Y-64938335D02*
X30238094Y-64938335D01*
X30238094Y-64938335D02*
X30314285Y-64900240D01*
X30314285Y-64900240D02*
X30352380Y-64862144D01*
X30352380Y-64862144D02*
X30390475Y-64785954D01*
X30390475Y-64785954D02*
X30390475Y-64709763D01*
X30390475Y-64709763D02*
X30352380Y-64633573D01*
X30352380Y-64633573D02*
X30314285Y-64595478D01*
X30314285Y-64595478D02*
X30238094Y-64557382D01*
X30238094Y-64557382D02*
X30085713Y-64519287D01*
X30085713Y-64519287D02*
X30009523Y-64481192D01*
X30009523Y-64481192D02*
X29971428Y-64443097D01*
X29971428Y-64443097D02*
X29933332Y-64366906D01*
X29933332Y-64366906D02*
X29933332Y-64290716D01*
X29933332Y-64290716D02*
X29971428Y-64214525D01*
X29971428Y-64214525D02*
X30009523Y-64176430D01*
X30009523Y-64176430D02*
X30085713Y-64138335D01*
X30085713Y-64138335D02*
X30276190Y-64138335D01*
X30276190Y-64138335D02*
X30390475Y-64176430D01*
X30657142Y-64138335D02*
X30847618Y-64938335D01*
X30847618Y-64938335D02*
X30999999Y-64366906D01*
X30999999Y-64366906D02*
X31152380Y-64938335D01*
X31152380Y-64938335D02*
X31342857Y-64138335D01*
X31990476Y-64405001D02*
X31990476Y-64938335D01*
X31800000Y-64100240D02*
X31609523Y-64671668D01*
X31609523Y-64671668D02*
X32104762Y-64671668D01*
X40933332Y-76400240D02*
X41047618Y-76438335D01*
X41047618Y-76438335D02*
X41238094Y-76438335D01*
X41238094Y-76438335D02*
X41314285Y-76400240D01*
X41314285Y-76400240D02*
X41352380Y-76362144D01*
X41352380Y-76362144D02*
X41390475Y-76285954D01*
X41390475Y-76285954D02*
X41390475Y-76209763D01*
X41390475Y-76209763D02*
X41352380Y-76133573D01*
X41352380Y-76133573D02*
X41314285Y-76095478D01*
X41314285Y-76095478D02*
X41238094Y-76057382D01*
X41238094Y-76057382D02*
X41085713Y-76019287D01*
X41085713Y-76019287D02*
X41009523Y-75981192D01*
X41009523Y-75981192D02*
X40971428Y-75943097D01*
X40971428Y-75943097D02*
X40933332Y-75866906D01*
X40933332Y-75866906D02*
X40933332Y-75790716D01*
X40933332Y-75790716D02*
X40971428Y-75714525D01*
X40971428Y-75714525D02*
X41009523Y-75676430D01*
X41009523Y-75676430D02*
X41085713Y-75638335D01*
X41085713Y-75638335D02*
X41276190Y-75638335D01*
X41276190Y-75638335D02*
X41390475Y-75676430D01*
X41657142Y-75638335D02*
X41847618Y-76438335D01*
X41847618Y-76438335D02*
X41999999Y-75866906D01*
X41999999Y-75866906D02*
X42152380Y-76438335D01*
X42152380Y-76438335D02*
X42342857Y-75638335D01*
X42685714Y-76438335D02*
X42838095Y-76438335D01*
X42838095Y-76438335D02*
X42914285Y-76400240D01*
X42914285Y-76400240D02*
X42952381Y-76362144D01*
X42952381Y-76362144D02*
X43028571Y-76247859D01*
X43028571Y-76247859D02*
X43066666Y-76095478D01*
X43066666Y-76095478D02*
X43066666Y-75790716D01*
X43066666Y-75790716D02*
X43028571Y-75714525D01*
X43028571Y-75714525D02*
X42990476Y-75676430D01*
X42990476Y-75676430D02*
X42914285Y-75638335D01*
X42914285Y-75638335D02*
X42761904Y-75638335D01*
X42761904Y-75638335D02*
X42685714Y-75676430D01*
X42685714Y-75676430D02*
X42647619Y-75714525D01*
X42647619Y-75714525D02*
X42609523Y-75790716D01*
X42609523Y-75790716D02*
X42609523Y-75981192D01*
X42609523Y-75981192D02*
X42647619Y-76057382D01*
X42647619Y-76057382D02*
X42685714Y-76095478D01*
X42685714Y-76095478D02*
X42761904Y-76133573D01*
X42761904Y-76133573D02*
X42914285Y-76133573D01*
X42914285Y-76133573D02*
X42990476Y-76095478D01*
X42990476Y-76095478D02*
X43028571Y-76057382D01*
X43028571Y-76057382D02*
X43066666Y-75981192D01*
X36647619Y-93887144D02*
X36609523Y-93925240D01*
X36609523Y-93925240D02*
X36495238Y-93963335D01*
X36495238Y-93963335D02*
X36419047Y-93963335D01*
X36419047Y-93963335D02*
X36304761Y-93925240D01*
X36304761Y-93925240D02*
X36228571Y-93849049D01*
X36228571Y-93849049D02*
X36190476Y-93772859D01*
X36190476Y-93772859D02*
X36152380Y-93620478D01*
X36152380Y-93620478D02*
X36152380Y-93506192D01*
X36152380Y-93506192D02*
X36190476Y-93353811D01*
X36190476Y-93353811D02*
X36228571Y-93277620D01*
X36228571Y-93277620D02*
X36304761Y-93201430D01*
X36304761Y-93201430D02*
X36419047Y-93163335D01*
X36419047Y-93163335D02*
X36495238Y-93163335D01*
X36495238Y-93163335D02*
X36609523Y-93201430D01*
X36609523Y-93201430D02*
X36647619Y-93239525D01*
X36990476Y-93887144D02*
X37028571Y-93925240D01*
X37028571Y-93925240D02*
X36990476Y-93963335D01*
X36990476Y-93963335D02*
X36952380Y-93925240D01*
X36952380Y-93925240D02*
X36990476Y-93887144D01*
X36990476Y-93887144D02*
X36990476Y-93963335D01*
X37752380Y-93163335D02*
X37371428Y-93163335D01*
X37371428Y-93163335D02*
X37333332Y-93544287D01*
X37333332Y-93544287D02*
X37371428Y-93506192D01*
X37371428Y-93506192D02*
X37447618Y-93468097D01*
X37447618Y-93468097D02*
X37638094Y-93468097D01*
X37638094Y-93468097D02*
X37714285Y-93506192D01*
X37714285Y-93506192D02*
X37752380Y-93544287D01*
X37752380Y-93544287D02*
X37790475Y-93620478D01*
X37790475Y-93620478D02*
X37790475Y-93810954D01*
X37790475Y-93810954D02*
X37752380Y-93887144D01*
X37752380Y-93887144D02*
X37714285Y-93925240D01*
X37714285Y-93925240D02*
X37638094Y-93963335D01*
X37638094Y-93963335D02*
X37447618Y-93963335D01*
X37447618Y-93963335D02*
X37371428Y-93925240D01*
X37371428Y-93925240D02*
X37333332Y-93887144D01*
X38742857Y-93658573D02*
X39352381Y-93658573D01*
X40342857Y-93544287D02*
X40609523Y-93544287D01*
X40723809Y-93963335D02*
X40342857Y-93963335D01*
X40342857Y-93963335D02*
X40342857Y-93163335D01*
X40342857Y-93163335D02*
X40723809Y-93163335D01*
X41066667Y-93963335D02*
X41066667Y-93163335D01*
X41066667Y-93163335D02*
X41523810Y-93963335D01*
X41523810Y-93963335D02*
X41523810Y-93163335D01*
X42323809Y-93201430D02*
X42247619Y-93163335D01*
X42247619Y-93163335D02*
X42133333Y-93163335D01*
X42133333Y-93163335D02*
X42019047Y-93201430D01*
X42019047Y-93201430D02*
X41942857Y-93277620D01*
X41942857Y-93277620D02*
X41904762Y-93353811D01*
X41904762Y-93353811D02*
X41866666Y-93506192D01*
X41866666Y-93506192D02*
X41866666Y-93620478D01*
X41866666Y-93620478D02*
X41904762Y-93772859D01*
X41904762Y-93772859D02*
X41942857Y-93849049D01*
X41942857Y-93849049D02*
X42019047Y-93925240D01*
X42019047Y-93925240D02*
X42133333Y-93963335D01*
X42133333Y-93963335D02*
X42209524Y-93963335D01*
X42209524Y-93963335D02*
X42323809Y-93925240D01*
X42323809Y-93925240D02*
X42361905Y-93887144D01*
X42361905Y-93887144D02*
X42361905Y-93620478D01*
X42361905Y-93620478D02*
X42209524Y-93620478D01*
X42704762Y-93963335D02*
X42704762Y-93163335D01*
X43085714Y-93963335D02*
X43085714Y-93163335D01*
X43085714Y-93163335D02*
X43542857Y-93963335D01*
X43542857Y-93963335D02*
X43542857Y-93163335D01*
X43923809Y-93544287D02*
X44190475Y-93544287D01*
X44304761Y-93963335D02*
X43923809Y-93963335D01*
X43923809Y-93963335D02*
X43923809Y-93163335D01*
X43923809Y-93163335D02*
X44304761Y-93163335D01*
X44647619Y-93544287D02*
X44914285Y-93544287D01*
X45028571Y-93963335D02*
X44647619Y-93963335D01*
X44647619Y-93963335D02*
X44647619Y-93163335D01*
X44647619Y-93163335D02*
X45028571Y-93163335D01*
X45828572Y-93963335D02*
X45561905Y-93582382D01*
X45371429Y-93963335D02*
X45371429Y-93163335D01*
X45371429Y-93163335D02*
X45676191Y-93163335D01*
X45676191Y-93163335D02*
X45752381Y-93201430D01*
X45752381Y-93201430D02*
X45790476Y-93239525D01*
X45790476Y-93239525D02*
X45828572Y-93315716D01*
X45828572Y-93315716D02*
X45828572Y-93430001D01*
X45828572Y-93430001D02*
X45790476Y-93506192D01*
X45790476Y-93506192D02*
X45752381Y-93544287D01*
X45752381Y-93544287D02*
X45676191Y-93582382D01*
X45676191Y-93582382D02*
X45371429Y-93582382D01*
X46171429Y-93963335D02*
X46171429Y-93163335D01*
X46552381Y-93963335D02*
X46552381Y-93163335D01*
X46552381Y-93163335D02*
X47009524Y-93963335D01*
X47009524Y-93963335D02*
X47009524Y-93163335D01*
X47809523Y-93201430D02*
X47733333Y-93163335D01*
X47733333Y-93163335D02*
X47619047Y-93163335D01*
X47619047Y-93163335D02*
X47504761Y-93201430D01*
X47504761Y-93201430D02*
X47428571Y-93277620D01*
X47428571Y-93277620D02*
X47390476Y-93353811D01*
X47390476Y-93353811D02*
X47352380Y-93506192D01*
X47352380Y-93506192D02*
X47352380Y-93620478D01*
X47352380Y-93620478D02*
X47390476Y-93772859D01*
X47390476Y-93772859D02*
X47428571Y-93849049D01*
X47428571Y-93849049D02*
X47504761Y-93925240D01*
X47504761Y-93925240D02*
X47619047Y-93963335D01*
X47619047Y-93963335D02*
X47695238Y-93963335D01*
X47695238Y-93963335D02*
X47809523Y-93925240D01*
X47809523Y-93925240D02*
X47847619Y-93887144D01*
X47847619Y-93887144D02*
X47847619Y-93620478D01*
X47847619Y-93620478D02*
X47695238Y-93620478D01*
X51933332Y-65400240D02*
X52047618Y-65438335D01*
X52047618Y-65438335D02*
X52238094Y-65438335D01*
X52238094Y-65438335D02*
X52314285Y-65400240D01*
X52314285Y-65400240D02*
X52352380Y-65362144D01*
X52352380Y-65362144D02*
X52390475Y-65285954D01*
X52390475Y-65285954D02*
X52390475Y-65209763D01*
X52390475Y-65209763D02*
X52352380Y-65133573D01*
X52352380Y-65133573D02*
X52314285Y-65095478D01*
X52314285Y-65095478D02*
X52238094Y-65057382D01*
X52238094Y-65057382D02*
X52085713Y-65019287D01*
X52085713Y-65019287D02*
X52009523Y-64981192D01*
X52009523Y-64981192D02*
X51971428Y-64943097D01*
X51971428Y-64943097D02*
X51933332Y-64866906D01*
X51933332Y-64866906D02*
X51933332Y-64790716D01*
X51933332Y-64790716D02*
X51971428Y-64714525D01*
X51971428Y-64714525D02*
X52009523Y-64676430D01*
X52009523Y-64676430D02*
X52085713Y-64638335D01*
X52085713Y-64638335D02*
X52276190Y-64638335D01*
X52276190Y-64638335D02*
X52390475Y-64676430D01*
X52657142Y-64638335D02*
X52847618Y-65438335D01*
X52847618Y-65438335D02*
X52999999Y-64866906D01*
X52999999Y-64866906D02*
X53152380Y-65438335D01*
X53152380Y-65438335D02*
X53342857Y-64638335D01*
X53761904Y-64981192D02*
X53685714Y-64943097D01*
X53685714Y-64943097D02*
X53647619Y-64905001D01*
X53647619Y-64905001D02*
X53609523Y-64828811D01*
X53609523Y-64828811D02*
X53609523Y-64790716D01*
X53609523Y-64790716D02*
X53647619Y-64714525D01*
X53647619Y-64714525D02*
X53685714Y-64676430D01*
X53685714Y-64676430D02*
X53761904Y-64638335D01*
X53761904Y-64638335D02*
X53914285Y-64638335D01*
X53914285Y-64638335D02*
X53990476Y-64676430D01*
X53990476Y-64676430D02*
X54028571Y-64714525D01*
X54028571Y-64714525D02*
X54066666Y-64790716D01*
X54066666Y-64790716D02*
X54066666Y-64828811D01*
X54066666Y-64828811D02*
X54028571Y-64905001D01*
X54028571Y-64905001D02*
X53990476Y-64943097D01*
X53990476Y-64943097D02*
X53914285Y-64981192D01*
X53914285Y-64981192D02*
X53761904Y-64981192D01*
X53761904Y-64981192D02*
X53685714Y-65019287D01*
X53685714Y-65019287D02*
X53647619Y-65057382D01*
X53647619Y-65057382D02*
X53609523Y-65133573D01*
X53609523Y-65133573D02*
X53609523Y-65285954D01*
X53609523Y-65285954D02*
X53647619Y-65362144D01*
X53647619Y-65362144D02*
X53685714Y-65400240D01*
X53685714Y-65400240D02*
X53761904Y-65438335D01*
X53761904Y-65438335D02*
X53914285Y-65438335D01*
X53914285Y-65438335D02*
X53990476Y-65400240D01*
X53990476Y-65400240D02*
X54028571Y-65362144D01*
X54028571Y-65362144D02*
X54066666Y-65285954D01*
X54066666Y-65285954D02*
X54066666Y-65133573D01*
X54066666Y-65133573D02*
X54028571Y-65057382D01*
X54028571Y-65057382D02*
X53990476Y-65019287D01*
X53990476Y-65019287D02*
X53914285Y-64981192D01*
X62933332Y-54900240D02*
X63047618Y-54938335D01*
X63047618Y-54938335D02*
X63238094Y-54938335D01*
X63238094Y-54938335D02*
X63314285Y-54900240D01*
X63314285Y-54900240D02*
X63352380Y-54862144D01*
X63352380Y-54862144D02*
X63390475Y-54785954D01*
X63390475Y-54785954D02*
X63390475Y-54709763D01*
X63390475Y-54709763D02*
X63352380Y-54633573D01*
X63352380Y-54633573D02*
X63314285Y-54595478D01*
X63314285Y-54595478D02*
X63238094Y-54557382D01*
X63238094Y-54557382D02*
X63085713Y-54519287D01*
X63085713Y-54519287D02*
X63009523Y-54481192D01*
X63009523Y-54481192D02*
X62971428Y-54443097D01*
X62971428Y-54443097D02*
X62933332Y-54366906D01*
X62933332Y-54366906D02*
X62933332Y-54290716D01*
X62933332Y-54290716D02*
X62971428Y-54214525D01*
X62971428Y-54214525D02*
X63009523Y-54176430D01*
X63009523Y-54176430D02*
X63085713Y-54138335D01*
X63085713Y-54138335D02*
X63276190Y-54138335D01*
X63276190Y-54138335D02*
X63390475Y-54176430D01*
X63657142Y-54138335D02*
X63847618Y-54938335D01*
X63847618Y-54938335D02*
X63999999Y-54366906D01*
X63999999Y-54366906D02*
X64152380Y-54938335D01*
X64152380Y-54938335D02*
X64342857Y-54138335D01*
X64571428Y-54138335D02*
X65104762Y-54138335D01*
X65104762Y-54138335D02*
X64761904Y-54938335D01*
X62933332Y-74900240D02*
X63047618Y-74938335D01*
X63047618Y-74938335D02*
X63238094Y-74938335D01*
X63238094Y-74938335D02*
X63314285Y-74900240D01*
X63314285Y-74900240D02*
X63352380Y-74862144D01*
X63352380Y-74862144D02*
X63390475Y-74785954D01*
X63390475Y-74785954D02*
X63390475Y-74709763D01*
X63390475Y-74709763D02*
X63352380Y-74633573D01*
X63352380Y-74633573D02*
X63314285Y-74595478D01*
X63314285Y-74595478D02*
X63238094Y-74557382D01*
X63238094Y-74557382D02*
X63085713Y-74519287D01*
X63085713Y-74519287D02*
X63009523Y-74481192D01*
X63009523Y-74481192D02*
X62971428Y-74443097D01*
X62971428Y-74443097D02*
X62933332Y-74366906D01*
X62933332Y-74366906D02*
X62933332Y-74290716D01*
X62933332Y-74290716D02*
X62971428Y-74214525D01*
X62971428Y-74214525D02*
X63009523Y-74176430D01*
X63009523Y-74176430D02*
X63085713Y-74138335D01*
X63085713Y-74138335D02*
X63276190Y-74138335D01*
X63276190Y-74138335D02*
X63390475Y-74176430D01*
X63657142Y-74138335D02*
X63847618Y-74938335D01*
X63847618Y-74938335D02*
X63999999Y-74366906D01*
X63999999Y-74366906D02*
X64152380Y-74938335D01*
X64152380Y-74938335D02*
X64342857Y-74138335D01*
X64990476Y-74138335D02*
X64838095Y-74138335D01*
X64838095Y-74138335D02*
X64761904Y-74176430D01*
X64761904Y-74176430D02*
X64723809Y-74214525D01*
X64723809Y-74214525D02*
X64647619Y-74328811D01*
X64647619Y-74328811D02*
X64609523Y-74481192D01*
X64609523Y-74481192D02*
X64609523Y-74785954D01*
X64609523Y-74785954D02*
X64647619Y-74862144D01*
X64647619Y-74862144D02*
X64685714Y-74900240D01*
X64685714Y-74900240D02*
X64761904Y-74938335D01*
X64761904Y-74938335D02*
X64914285Y-74938335D01*
X64914285Y-74938335D02*
X64990476Y-74900240D01*
X64990476Y-74900240D02*
X65028571Y-74862144D01*
X65028571Y-74862144D02*
X65066666Y-74785954D01*
X65066666Y-74785954D02*
X65066666Y-74595478D01*
X65066666Y-74595478D02*
X65028571Y-74519287D01*
X65028571Y-74519287D02*
X64990476Y-74481192D01*
X64990476Y-74481192D02*
X64914285Y-74443097D01*
X64914285Y-74443097D02*
X64761904Y-74443097D01*
X64761904Y-74443097D02*
X64685714Y-74481192D01*
X64685714Y-74481192D02*
X64647619Y-74519287D01*
X64647619Y-74519287D02*
X64609523Y-74595478D01*
X71728571Y-31173335D02*
X71271428Y-31173335D01*
X71500000Y-31173335D02*
X71500000Y-30373335D01*
X71500000Y-30373335D02*
X71423809Y-30487620D01*
X71423809Y-30487620D02*
X71347619Y-30563811D01*
X71347619Y-30563811D02*
X71271428Y-30601906D01*
X73409524Y-20728335D02*
X73409524Y-19928335D01*
X73409524Y-19928335D02*
X73600000Y-19928335D01*
X73600000Y-19928335D02*
X73714286Y-19966430D01*
X73714286Y-19966430D02*
X73790476Y-20042620D01*
X73790476Y-20042620D02*
X73828571Y-20118811D01*
X73828571Y-20118811D02*
X73866667Y-20271192D01*
X73866667Y-20271192D02*
X73866667Y-20385478D01*
X73866667Y-20385478D02*
X73828571Y-20537859D01*
X73828571Y-20537859D02*
X73790476Y-20614049D01*
X73790476Y-20614049D02*
X73714286Y-20690240D01*
X73714286Y-20690240D02*
X73600000Y-20728335D01*
X73600000Y-20728335D02*
X73409524Y-20728335D01*
X74133333Y-19928335D02*
X74628571Y-19928335D01*
X74628571Y-19928335D02*
X74361905Y-20233097D01*
X74361905Y-20233097D02*
X74476190Y-20233097D01*
X74476190Y-20233097D02*
X74552381Y-20271192D01*
X74552381Y-20271192D02*
X74590476Y-20309287D01*
X74590476Y-20309287D02*
X74628571Y-20385478D01*
X74628571Y-20385478D02*
X74628571Y-20575954D01*
X74628571Y-20575954D02*
X74590476Y-20652144D01*
X74590476Y-20652144D02*
X74552381Y-20690240D01*
X74552381Y-20690240D02*
X74476190Y-20728335D01*
X74476190Y-20728335D02*
X74247619Y-20728335D01*
X74247619Y-20728335D02*
X74171428Y-20690240D01*
X74171428Y-20690240D02*
X74133333Y-20652144D01*
X73933332Y-64900240D02*
X74047618Y-64938335D01*
X74047618Y-64938335D02*
X74238094Y-64938335D01*
X74238094Y-64938335D02*
X74314285Y-64900240D01*
X74314285Y-64900240D02*
X74352380Y-64862144D01*
X74352380Y-64862144D02*
X74390475Y-64785954D01*
X74390475Y-64785954D02*
X74390475Y-64709763D01*
X74390475Y-64709763D02*
X74352380Y-64633573D01*
X74352380Y-64633573D02*
X74314285Y-64595478D01*
X74314285Y-64595478D02*
X74238094Y-64557382D01*
X74238094Y-64557382D02*
X74085713Y-64519287D01*
X74085713Y-64519287D02*
X74009523Y-64481192D01*
X74009523Y-64481192D02*
X73971428Y-64443097D01*
X73971428Y-64443097D02*
X73933332Y-64366906D01*
X73933332Y-64366906D02*
X73933332Y-64290716D01*
X73933332Y-64290716D02*
X73971428Y-64214525D01*
X73971428Y-64214525D02*
X74009523Y-64176430D01*
X74009523Y-64176430D02*
X74085713Y-64138335D01*
X74085713Y-64138335D02*
X74276190Y-64138335D01*
X74276190Y-64138335D02*
X74390475Y-64176430D01*
X74657142Y-64138335D02*
X74847618Y-64938335D01*
X74847618Y-64938335D02*
X74999999Y-64366906D01*
X74999999Y-64366906D02*
X75152380Y-64938335D01*
X75152380Y-64938335D02*
X75342857Y-64138335D01*
X76028571Y-64138335D02*
X75647619Y-64138335D01*
X75647619Y-64138335D02*
X75609523Y-64519287D01*
X75609523Y-64519287D02*
X75647619Y-64481192D01*
X75647619Y-64481192D02*
X75723809Y-64443097D01*
X75723809Y-64443097D02*
X75914285Y-64443097D01*
X75914285Y-64443097D02*
X75990476Y-64481192D01*
X75990476Y-64481192D02*
X76028571Y-64519287D01*
X76028571Y-64519287D02*
X76066666Y-64595478D01*
X76066666Y-64595478D02*
X76066666Y-64785954D01*
X76066666Y-64785954D02*
X76028571Y-64862144D01*
X76028571Y-64862144D02*
X75990476Y-64900240D01*
X75990476Y-64900240D02*
X75914285Y-64938335D01*
X75914285Y-64938335D02*
X75723809Y-64938335D01*
X75723809Y-64938335D02*
X75647619Y-64900240D01*
X75647619Y-64900240D02*
X75609523Y-64862144D01*
X8190476Y-67386467D02*
X7785714Y-67386467D01*
X7785714Y-67386467D02*
X7785714Y-66536467D01*
X8473809Y-66941229D02*
X8757143Y-66941229D01*
X8878571Y-67386467D02*
X8473809Y-67386467D01*
X8473809Y-67386467D02*
X8473809Y-66536467D01*
X8473809Y-66536467D02*
X8878571Y-66536467D01*
X9526191Y-66941229D02*
X9242857Y-66941229D01*
X9242857Y-67386467D02*
X9242857Y-66536467D01*
X9242857Y-66536467D02*
X9647619Y-66536467D01*
X9850000Y-66536467D02*
X10335714Y-66536467D01*
X10092857Y-67386467D02*
X10092857Y-66536467D01*
X19332142Y-62536467D02*
X19332142Y-63224562D01*
X19332142Y-63224562D02*
X19372619Y-63305514D01*
X19372619Y-63305514D02*
X19413095Y-63345991D01*
X19413095Y-63345991D02*
X19494047Y-63386467D01*
X19494047Y-63386467D02*
X19655952Y-63386467D01*
X19655952Y-63386467D02*
X19736904Y-63345991D01*
X19736904Y-63345991D02*
X19777381Y-63305514D01*
X19777381Y-63305514D02*
X19817857Y-63224562D01*
X19817857Y-63224562D02*
X19817857Y-62536467D01*
X20222618Y-63386467D02*
X20222618Y-62536467D01*
X20222618Y-62536467D02*
X20546428Y-62536467D01*
X20546428Y-62536467D02*
X20627380Y-62576943D01*
X20627380Y-62576943D02*
X20667857Y-62617419D01*
X20667857Y-62617419D02*
X20708333Y-62698371D01*
X20708333Y-62698371D02*
X20708333Y-62819800D01*
X20708333Y-62819800D02*
X20667857Y-62900752D01*
X20667857Y-62900752D02*
X20627380Y-62941229D01*
X20627380Y-62941229D02*
X20546428Y-62981705D01*
X20546428Y-62981705D02*
X20222618Y-62981705D01*
X18401190Y-83386467D02*
X18401190Y-82536467D01*
X18401190Y-82536467D02*
X18603571Y-82536467D01*
X18603571Y-82536467D02*
X18725000Y-82576943D01*
X18725000Y-82576943D02*
X18805952Y-82657895D01*
X18805952Y-82657895D02*
X18846429Y-82738848D01*
X18846429Y-82738848D02*
X18886905Y-82900752D01*
X18886905Y-82900752D02*
X18886905Y-83022181D01*
X18886905Y-83022181D02*
X18846429Y-83184086D01*
X18846429Y-83184086D02*
X18805952Y-83265038D01*
X18805952Y-83265038D02*
X18725000Y-83345991D01*
X18725000Y-83345991D02*
X18603571Y-83386467D01*
X18603571Y-83386467D02*
X18401190Y-83386467D01*
X19413095Y-82536467D02*
X19575000Y-82536467D01*
X19575000Y-82536467D02*
X19655952Y-82576943D01*
X19655952Y-82576943D02*
X19736905Y-82657895D01*
X19736905Y-82657895D02*
X19777381Y-82819800D01*
X19777381Y-82819800D02*
X19777381Y-83103133D01*
X19777381Y-83103133D02*
X19736905Y-83265038D01*
X19736905Y-83265038D02*
X19655952Y-83345991D01*
X19655952Y-83345991D02*
X19575000Y-83386467D01*
X19575000Y-83386467D02*
X19413095Y-83386467D01*
X19413095Y-83386467D02*
X19332143Y-83345991D01*
X19332143Y-83345991D02*
X19251190Y-83265038D01*
X19251190Y-83265038D02*
X19210714Y-83103133D01*
X19210714Y-83103133D02*
X19210714Y-82819800D01*
X19210714Y-82819800D02*
X19251190Y-82657895D01*
X19251190Y-82657895D02*
X19332143Y-82576943D01*
X19332143Y-82576943D02*
X19413095Y-82536467D01*
X20060714Y-82536467D02*
X20263095Y-83386467D01*
X20263095Y-83386467D02*
X20425000Y-82779324D01*
X20425000Y-82779324D02*
X20586905Y-83386467D01*
X20586905Y-83386467D02*
X20789286Y-82536467D01*
X21113095Y-83386467D02*
X21113095Y-82536467D01*
X21113095Y-82536467D02*
X21598810Y-83386467D01*
X21598810Y-83386467D02*
X21598810Y-82536467D01*
X29866667Y-67386467D02*
X29583333Y-66981705D01*
X29380952Y-67386467D02*
X29380952Y-66536467D01*
X29380952Y-66536467D02*
X29704762Y-66536467D01*
X29704762Y-66536467D02*
X29785714Y-66576943D01*
X29785714Y-66576943D02*
X29826191Y-66617419D01*
X29826191Y-66617419D02*
X29866667Y-66698371D01*
X29866667Y-66698371D02*
X29866667Y-66819800D01*
X29866667Y-66819800D02*
X29826191Y-66900752D01*
X29826191Y-66900752D02*
X29785714Y-66941229D01*
X29785714Y-66941229D02*
X29704762Y-66981705D01*
X29704762Y-66981705D02*
X29380952Y-66981705D01*
X30230952Y-67386467D02*
X30230952Y-66536467D01*
X31080953Y-66576943D02*
X31000000Y-66536467D01*
X31000000Y-66536467D02*
X30878572Y-66536467D01*
X30878572Y-66536467D02*
X30757143Y-66576943D01*
X30757143Y-66576943D02*
X30676191Y-66657895D01*
X30676191Y-66657895D02*
X30635714Y-66738848D01*
X30635714Y-66738848D02*
X30595238Y-66900752D01*
X30595238Y-66900752D02*
X30595238Y-67022181D01*
X30595238Y-67022181D02*
X30635714Y-67184086D01*
X30635714Y-67184086D02*
X30676191Y-67265038D01*
X30676191Y-67265038D02*
X30757143Y-67345991D01*
X30757143Y-67345991D02*
X30878572Y-67386467D01*
X30878572Y-67386467D02*
X30959524Y-67386467D01*
X30959524Y-67386467D02*
X31080953Y-67345991D01*
X31080953Y-67345991D02*
X31121429Y-67305514D01*
X31121429Y-67305514D02*
X31121429Y-67022181D01*
X31121429Y-67022181D02*
X30959524Y-67022181D01*
X31485714Y-67386467D02*
X31485714Y-66536467D01*
X31485714Y-66941229D02*
X31971429Y-66941229D01*
X31971429Y-67386467D02*
X31971429Y-66536467D01*
X32254762Y-66536467D02*
X32740476Y-66536467D01*
X32497619Y-67386467D02*
X32497619Y-66536467D01*
X40461904Y-78886467D02*
X40461904Y-78036467D01*
X40461904Y-78036467D02*
X40745238Y-78643610D01*
X40745238Y-78643610D02*
X41028571Y-78036467D01*
X41028571Y-78036467D02*
X41028571Y-78886467D01*
X41595238Y-78036467D02*
X41757143Y-78036467D01*
X41757143Y-78036467D02*
X41838095Y-78076943D01*
X41838095Y-78076943D02*
X41919048Y-78157895D01*
X41919048Y-78157895D02*
X41959524Y-78319800D01*
X41959524Y-78319800D02*
X41959524Y-78603133D01*
X41959524Y-78603133D02*
X41919048Y-78765038D01*
X41919048Y-78765038D02*
X41838095Y-78845991D01*
X41838095Y-78845991D02*
X41757143Y-78886467D01*
X41757143Y-78886467D02*
X41595238Y-78886467D01*
X41595238Y-78886467D02*
X41514286Y-78845991D01*
X41514286Y-78845991D02*
X41433333Y-78765038D01*
X41433333Y-78765038D02*
X41392857Y-78603133D01*
X41392857Y-78603133D02*
X41392857Y-78319800D01*
X41392857Y-78319800D02*
X41433333Y-78157895D01*
X41433333Y-78157895D02*
X41514286Y-78076943D01*
X41514286Y-78076943D02*
X41595238Y-78036467D01*
X42323809Y-78886467D02*
X42323809Y-78036467D01*
X42323809Y-78036467D02*
X42526190Y-78036467D01*
X42526190Y-78036467D02*
X42647619Y-78076943D01*
X42647619Y-78076943D02*
X42728571Y-78157895D01*
X42728571Y-78157895D02*
X42769048Y-78238848D01*
X42769048Y-78238848D02*
X42809524Y-78400752D01*
X42809524Y-78400752D02*
X42809524Y-78522181D01*
X42809524Y-78522181D02*
X42769048Y-78684086D01*
X42769048Y-78684086D02*
X42728571Y-78765038D01*
X42728571Y-78765038D02*
X42647619Y-78845991D01*
X42647619Y-78845991D02*
X42526190Y-78886467D01*
X42526190Y-78886467D02*
X42323809Y-78886467D01*
X43173809Y-78441229D02*
X43457143Y-78441229D01*
X43578571Y-78886467D02*
X43173809Y-78886467D01*
X43173809Y-78886467D02*
X43173809Y-78036467D01*
X43173809Y-78036467D02*
X43578571Y-78036467D01*
X50000000Y-69981705D02*
X50000000Y-70386467D01*
X49716667Y-69536467D02*
X50000000Y-69981705D01*
X50000000Y-69981705D02*
X50283334Y-69536467D01*
X60716666Y-59536467D02*
X61283333Y-60386467D01*
X61283333Y-59536467D02*
X60716666Y-60386467D01*
X61060714Y-79941229D02*
X61182142Y-79981705D01*
X61182142Y-79981705D02*
X61222619Y-80022181D01*
X61222619Y-80022181D02*
X61263095Y-80103133D01*
X61263095Y-80103133D02*
X61263095Y-80224562D01*
X61263095Y-80224562D02*
X61222619Y-80305514D01*
X61222619Y-80305514D02*
X61182142Y-80345991D01*
X61182142Y-80345991D02*
X61101190Y-80386467D01*
X61101190Y-80386467D02*
X60777380Y-80386467D01*
X60777380Y-80386467D02*
X60777380Y-79536467D01*
X60777380Y-79536467D02*
X61060714Y-79536467D01*
X61060714Y-79536467D02*
X61141666Y-79576943D01*
X61141666Y-79576943D02*
X61182142Y-79617419D01*
X61182142Y-79617419D02*
X61222619Y-79698371D01*
X61222619Y-79698371D02*
X61222619Y-79779324D01*
X61222619Y-79779324D02*
X61182142Y-79860276D01*
X61182142Y-79860276D02*
X61141666Y-79900752D01*
X61141666Y-79900752D02*
X61060714Y-79941229D01*
X61060714Y-79941229D02*
X60777380Y-79941229D01*
X69913095Y-27386467D02*
X69629761Y-26981705D01*
X69427380Y-27386467D02*
X69427380Y-26536467D01*
X69427380Y-26536467D02*
X69751190Y-26536467D01*
X69751190Y-26536467D02*
X69832142Y-26576943D01*
X69832142Y-26576943D02*
X69872619Y-26617419D01*
X69872619Y-26617419D02*
X69913095Y-26698371D01*
X69913095Y-26698371D02*
X69913095Y-26819800D01*
X69913095Y-26819800D02*
X69872619Y-26900752D01*
X69872619Y-26900752D02*
X69832142Y-26941229D01*
X69832142Y-26941229D02*
X69751190Y-26981705D01*
X69751190Y-26981705D02*
X69427380Y-26981705D01*
X70722619Y-26576943D02*
X70641666Y-26536467D01*
X70641666Y-26536467D02*
X70520238Y-26536467D01*
X70520238Y-26536467D02*
X70398809Y-26576943D01*
X70398809Y-26576943D02*
X70317857Y-26657895D01*
X70317857Y-26657895D02*
X70277380Y-26738848D01*
X70277380Y-26738848D02*
X70236904Y-26900752D01*
X70236904Y-26900752D02*
X70236904Y-27022181D01*
X70236904Y-27022181D02*
X70277380Y-27184086D01*
X70277380Y-27184086D02*
X70317857Y-27265038D01*
X70317857Y-27265038D02*
X70398809Y-27345991D01*
X70398809Y-27345991D02*
X70520238Y-27386467D01*
X70520238Y-27386467D02*
X70601190Y-27386467D01*
X70601190Y-27386467D02*
X70722619Y-27345991D01*
X70722619Y-27345991D02*
X70763095Y-27305514D01*
X70763095Y-27305514D02*
X70763095Y-27022181D01*
X70763095Y-27022181D02*
X70601190Y-27022181D01*
X71410714Y-26941229D02*
X71532142Y-26981705D01*
X71532142Y-26981705D02*
X71572619Y-27022181D01*
X71572619Y-27022181D02*
X71613095Y-27103133D01*
X71613095Y-27103133D02*
X71613095Y-27224562D01*
X71613095Y-27224562D02*
X71572619Y-27305514D01*
X71572619Y-27305514D02*
X71532142Y-27345991D01*
X71532142Y-27345991D02*
X71451190Y-27386467D01*
X71451190Y-27386467D02*
X71127380Y-27386467D01*
X71127380Y-27386467D02*
X71127380Y-26536467D01*
X71127380Y-26536467D02*
X71410714Y-26536467D01*
X71410714Y-26536467D02*
X71491666Y-26576943D01*
X71491666Y-26576943D02*
X71532142Y-26617419D01*
X71532142Y-26617419D02*
X71572619Y-26698371D01*
X71572619Y-26698371D02*
X71572619Y-26779324D01*
X71572619Y-26779324D02*
X71532142Y-26860276D01*
X71532142Y-26860276D02*
X71491666Y-26900752D01*
X71491666Y-26900752D02*
X71410714Y-26941229D01*
X71410714Y-26941229D02*
X71127380Y-26941229D01*
X71797619Y-70143610D02*
X72202381Y-70143610D01*
X71716667Y-70386467D02*
X72000000Y-69536467D01*
X72000000Y-69536467D02*
X72283334Y-70386467D01*
X38914286Y-5409597D02*
X38914286Y-4509597D01*
X38914286Y-4509597D02*
X39428572Y-5409597D01*
X39428572Y-5409597D02*
X39428572Y-4509597D01*
X40028572Y-4509597D02*
X40200000Y-4509597D01*
X40200000Y-4509597D02*
X40285715Y-4552454D01*
X40285715Y-4552454D02*
X40371429Y-4638168D01*
X40371429Y-4638168D02*
X40414286Y-4809597D01*
X40414286Y-4809597D02*
X40414286Y-5109597D01*
X40414286Y-5109597D02*
X40371429Y-5281025D01*
X40371429Y-5281025D02*
X40285715Y-5366740D01*
X40285715Y-5366740D02*
X40200000Y-5409597D01*
X40200000Y-5409597D02*
X40028572Y-5409597D01*
X40028572Y-5409597D02*
X39942858Y-5366740D01*
X39942858Y-5366740D02*
X39857143Y-5281025D01*
X39857143Y-5281025D02*
X39814286Y-5109597D01*
X39814286Y-5109597D02*
X39814286Y-4809597D01*
X39814286Y-4809597D02*
X39857143Y-4638168D01*
X39857143Y-4638168D02*
X39942858Y-4552454D01*
X39942858Y-4552454D02*
X40028572Y-4509597D01*
X41485714Y-5409597D02*
X41485714Y-4509597D01*
X41485714Y-4509597D02*
X41785714Y-5152454D01*
X41785714Y-5152454D02*
X42085714Y-4509597D01*
X42085714Y-4509597D02*
X42085714Y-5409597D01*
X42514285Y-4938168D02*
X42814285Y-4938168D01*
X42942857Y-5409597D02*
X42514285Y-5409597D01*
X42514285Y-5409597D02*
X42514285Y-4509597D01*
X42514285Y-4509597D02*
X42942857Y-4509597D01*
X43200000Y-4509597D02*
X43714286Y-4509597D01*
X43457143Y-5409597D02*
X43457143Y-4509597D01*
X43971428Y-5152454D02*
X44400000Y-5152454D01*
X43885714Y-5409597D02*
X44185714Y-4509597D01*
X44185714Y-4509597D02*
X44485714Y-5409597D01*
X45214286Y-5409597D02*
X44785714Y-5409597D01*
X44785714Y-5409597D02*
X44785714Y-4509597D01*
X34047619Y-30955859D02*
X34047619Y-29955859D01*
X34619047Y-30955859D02*
X34190476Y-30384430D01*
X34619047Y-29955859D02*
X34047619Y-30527287D01*
X35047619Y-30432049D02*
X35380952Y-30432049D01*
X35523809Y-30955859D02*
X35047619Y-30955859D01*
X35047619Y-30955859D02*
X35047619Y-29955859D01*
X35047619Y-29955859D02*
X35523809Y-29955859D01*
X36142857Y-30479668D02*
X36142857Y-30955859D01*
X35809524Y-29955859D02*
X36142857Y-30479668D01*
X36142857Y-30479668D02*
X36476190Y-29955859D01*
X37380952Y-30860620D02*
X37333333Y-30908240D01*
X37333333Y-30908240D02*
X37190476Y-30955859D01*
X37190476Y-30955859D02*
X37095238Y-30955859D01*
X37095238Y-30955859D02*
X36952381Y-30908240D01*
X36952381Y-30908240D02*
X36857143Y-30813001D01*
X36857143Y-30813001D02*
X36809524Y-30717763D01*
X36809524Y-30717763D02*
X36761905Y-30527287D01*
X36761905Y-30527287D02*
X36761905Y-30384430D01*
X36761905Y-30384430D02*
X36809524Y-30193954D01*
X36809524Y-30193954D02*
X36857143Y-30098716D01*
X36857143Y-30098716D02*
X36952381Y-30003478D01*
X36952381Y-30003478D02*
X37095238Y-29955859D01*
X37095238Y-29955859D02*
X37190476Y-29955859D01*
X37190476Y-29955859D02*
X37333333Y-30003478D01*
X37333333Y-30003478D02*
X37380952Y-30051097D01*
X37809524Y-30955859D02*
X37809524Y-29955859D01*
X37809524Y-30432049D02*
X38380952Y-30432049D01*
X38380952Y-30955859D02*
X38380952Y-29955859D01*
X38809524Y-30670144D02*
X39285714Y-30670144D01*
X38714286Y-30955859D02*
X39047619Y-29955859D01*
X39047619Y-29955859D02*
X39380952Y-30955859D01*
X39714286Y-30955859D02*
X39714286Y-29955859D01*
X40190476Y-30955859D02*
X40190476Y-29955859D01*
X40190476Y-29955859D02*
X40761904Y-30955859D01*
X40761904Y-30955859D02*
X40761904Y-29955859D01*
X42000000Y-30955859D02*
X42000000Y-29955859D01*
X42571428Y-30955859D02*
X42142857Y-30384430D01*
X42571428Y-29955859D02*
X42000000Y-30527287D01*
X43571428Y-30955859D02*
X43238095Y-30479668D01*
X43000000Y-30955859D02*
X43000000Y-29955859D01*
X43000000Y-29955859D02*
X43380952Y-29955859D01*
X43380952Y-29955859D02*
X43476190Y-30003478D01*
X43476190Y-30003478D02*
X43523809Y-30051097D01*
X43523809Y-30051097D02*
X43571428Y-30146335D01*
X43571428Y-30146335D02*
X43571428Y-30289192D01*
X43571428Y-30289192D02*
X43523809Y-30384430D01*
X43523809Y-30384430D02*
X43476190Y-30432049D01*
X43476190Y-30432049D02*
X43380952Y-30479668D01*
X43380952Y-30479668D02*
X43000000Y-30479668D01*
X44000000Y-30432049D02*
X44333333Y-30432049D01*
X44476190Y-30955859D02*
X44000000Y-30955859D01*
X44000000Y-30955859D02*
X44000000Y-29955859D01*
X44000000Y-29955859D02*
X44476190Y-29955859D01*
X44857143Y-30670144D02*
X45333333Y-30670144D01*
X44761905Y-30955859D02*
X45095238Y-29955859D01*
X45095238Y-29955859D02*
X45428571Y-30955859D01*
X45619048Y-29955859D02*
X46190476Y-29955859D01*
X45904762Y-30955859D02*
X45904762Y-29955859D01*
X46523810Y-29955859D02*
X46523810Y-30765382D01*
X46523810Y-30765382D02*
X46571429Y-30860620D01*
X46571429Y-30860620D02*
X46619048Y-30908240D01*
X46619048Y-30908240D02*
X46714286Y-30955859D01*
X46714286Y-30955859D02*
X46904762Y-30955859D01*
X46904762Y-30955859D02*
X47000000Y-30908240D01*
X47000000Y-30908240D02*
X47047619Y-30860620D01*
X47047619Y-30860620D02*
X47095238Y-30765382D01*
X47095238Y-30765382D02*
X47095238Y-29955859D01*
X48142857Y-30955859D02*
X47809524Y-30479668D01*
X47571429Y-30955859D02*
X47571429Y-29955859D01*
X47571429Y-29955859D02*
X47952381Y-29955859D01*
X47952381Y-29955859D02*
X48047619Y-30003478D01*
X48047619Y-30003478D02*
X48095238Y-30051097D01*
X48095238Y-30051097D02*
X48142857Y-30146335D01*
X48142857Y-30146335D02*
X48142857Y-30289192D01*
X48142857Y-30289192D02*
X48095238Y-30384430D01*
X48095238Y-30384430D02*
X48047619Y-30432049D01*
X48047619Y-30432049D02*
X47952381Y-30479668D01*
X47952381Y-30479668D02*
X47571429Y-30479668D01*
X48571429Y-30432049D02*
X48904762Y-30432049D01*
X49047619Y-30955859D02*
X48571429Y-30955859D01*
X48571429Y-30955859D02*
X48571429Y-29955859D01*
X48571429Y-29955859D02*
X49047619Y-29955859D01*
X49428572Y-30908240D02*
X49571429Y-30955859D01*
X49571429Y-30955859D02*
X49809524Y-30955859D01*
X49809524Y-30955859D02*
X49904762Y-30908240D01*
X49904762Y-30908240D02*
X49952381Y-30860620D01*
X49952381Y-30860620D02*
X50000000Y-30765382D01*
X50000000Y-30765382D02*
X50000000Y-30670144D01*
X50000000Y-30670144D02*
X49952381Y-30574906D01*
X49952381Y-30574906D02*
X49904762Y-30527287D01*
X49904762Y-30527287D02*
X49809524Y-30479668D01*
X49809524Y-30479668D02*
X49619048Y-30432049D01*
X49619048Y-30432049D02*
X49523810Y-30384430D01*
X49523810Y-30384430D02*
X49476191Y-30336811D01*
X49476191Y-30336811D02*
X49428572Y-30241573D01*
X49428572Y-30241573D02*
X49428572Y-30146335D01*
X49428572Y-30146335D02*
X49476191Y-30051097D01*
X49476191Y-30051097D02*
X49523810Y-30003478D01*
X49523810Y-30003478D02*
X49619048Y-29955859D01*
X49619048Y-29955859D02*
X49857143Y-29955859D01*
X49857143Y-29955859D02*
X50000000Y-30003478D01*
%TO.C,SW5*%
D11*
X76750000Y-70000000D02*
G75*
G02*
X73250000Y-70000000I-1750000J0D01*
G01*
X73250000Y-70000000D02*
G75*
G02*
X76750000Y-70000000I1750000J0D01*
G01*
%TO.C,SW3*%
X10750000Y-70000000D02*
G75*
G02*
X7250000Y-70000000I-1750000J0D01*
G01*
X7250000Y-70000000D02*
G75*
G02*
X10750000Y-70000000I1750000J0D01*
G01*
%TO.C,SW8*%
X54750000Y-70000000D02*
G75*
G02*
X51250000Y-70000000I-1750000J0D01*
G01*
X51250000Y-70000000D02*
G75*
G02*
X54750000Y-70000000I1750000J0D01*
G01*
%TO.C,SW7*%
X65750000Y-60000000D02*
G75*
G02*
X62250000Y-60000000I-1750000J0D01*
G01*
X62250000Y-60000000D02*
G75*
G02*
X65750000Y-60000000I1750000J0D01*
G01*
%TO.C,D3*%
X72500000Y-21665000D02*
X75500000Y-21665000D01*
X72500000Y-32335000D02*
X72500000Y-21665000D01*
X72500000Y-32335000D02*
X75500000Y-32335000D01*
X75500000Y-21665000D02*
X75500000Y-32335000D01*
%TO.C,SW4*%
X32750000Y-70000000D02*
G75*
G02*
X29250000Y-70000000I-1750000J0D01*
G01*
X29250000Y-70000000D02*
G75*
G02*
X32750000Y-70000000I1750000J0D01*
G01*
D12*
%TO.C,LOGO1*%
X72273921Y-83536490D02*
X72377027Y-83572238D01*
X72473022Y-83628507D01*
X72558753Y-83705288D01*
X72631070Y-83802573D01*
X72663555Y-83863892D01*
X72691668Y-83949660D01*
X72705295Y-84048677D01*
X72703786Y-84150471D01*
X72687031Y-84242714D01*
X72641237Y-84355432D01*
X72574832Y-84453207D01*
X72491191Y-84534115D01*
X72393688Y-84596232D01*
X72285700Y-84637634D01*
X72170601Y-84656397D01*
X72051766Y-84650598D01*
X71993189Y-84638206D01*
X71879028Y-84593797D01*
X71777635Y-84526033D01*
X71691455Y-84437001D01*
X71622934Y-84328791D01*
X71617136Y-84316973D01*
X71597096Y-84272628D01*
X71584513Y-84235280D01*
X71577681Y-84195880D01*
X71574895Y-84145381D01*
X71574432Y-84090433D01*
X71575197Y-84024415D01*
X71578648Y-83976689D01*
X71586523Y-83938103D01*
X71600557Y-83899506D01*
X71617880Y-83861426D01*
X71682495Y-83753328D01*
X71762066Y-83665803D01*
X71853440Y-83598841D01*
X71953464Y-83552436D01*
X72058988Y-83526581D01*
X72166858Y-83521268D01*
X72273921Y-83536490D01*
G36*
X72273921Y-83536490D02*
G01*
X72377027Y-83572238D01*
X72473022Y-83628507D01*
X72558753Y-83705288D01*
X72631070Y-83802573D01*
X72663555Y-83863892D01*
X72691668Y-83949660D01*
X72705295Y-84048677D01*
X72703786Y-84150471D01*
X72687031Y-84242714D01*
X72641237Y-84355432D01*
X72574832Y-84453207D01*
X72491191Y-84534115D01*
X72393688Y-84596232D01*
X72285700Y-84637634D01*
X72170601Y-84656397D01*
X72051766Y-84650598D01*
X71993189Y-84638206D01*
X71879028Y-84593797D01*
X71777635Y-84526033D01*
X71691455Y-84437001D01*
X71622934Y-84328791D01*
X71617136Y-84316973D01*
X71597096Y-84272628D01*
X71584513Y-84235280D01*
X71577681Y-84195880D01*
X71574895Y-84145381D01*
X71574432Y-84090433D01*
X71575197Y-84024415D01*
X71578648Y-83976689D01*
X71586523Y-83938103D01*
X71600557Y-83899506D01*
X71617880Y-83861426D01*
X71682495Y-83753328D01*
X71762066Y-83665803D01*
X71853440Y-83598841D01*
X71953464Y-83552436D01*
X72058988Y-83526581D01*
X72166858Y-83521268D01*
X72273921Y-83536490D01*
G37*
X75439962Y-84660499D02*
X75588014Y-84676707D01*
X75731452Y-84705718D01*
X75876110Y-84749045D01*
X76027824Y-84808201D01*
X76192428Y-84884700D01*
X76222071Y-84899517D01*
X76290098Y-84933031D01*
X76354256Y-84963208D01*
X76408215Y-84987166D01*
X76445640Y-85002024D01*
X76451389Y-85003895D01*
X76506486Y-85020402D01*
X76259851Y-85379201D01*
X76199552Y-85466893D01*
X76144422Y-85547012D01*
X76096336Y-85616836D01*
X76057168Y-85673647D01*
X76028794Y-85714723D01*
X76013087Y-85737346D01*
X76010536Y-85740928D01*
X76000171Y-85733438D01*
X75974660Y-85710918D01*
X75938563Y-85677461D01*
X75918642Y-85658550D01*
X75805773Y-85568778D01*
X75679014Y-85500561D01*
X75569783Y-85463195D01*
X75504214Y-85451460D01*
X75422116Y-85444308D01*
X75333144Y-85441874D01*
X75246956Y-85444288D01*
X75173205Y-85451683D01*
X75143776Y-85457347D01*
X75011133Y-85502982D01*
X74891606Y-85572663D01*
X74785283Y-85666260D01*
X74692253Y-85783649D01*
X74612605Y-85924700D01*
X74546426Y-86089286D01*
X74493806Y-86277280D01*
X74462533Y-86438217D01*
X74454374Y-86509263D01*
X74448815Y-86601046D01*
X74445802Y-86706968D01*
X74445281Y-86820434D01*
X74447200Y-86934849D01*
X74451503Y-87043617D01*
X74458137Y-87140143D01*
X74467049Y-87217831D01*
X74468979Y-87229817D01*
X74511499Y-87422892D01*
X74569433Y-87593773D01*
X74643133Y-87743224D01*
X74732951Y-87872011D01*
X74796707Y-87941639D01*
X74911286Y-88036173D01*
X75036942Y-88106246D01*
X75171557Y-88151477D01*
X75313011Y-88171484D01*
X75459183Y-88165885D01*
X75607955Y-88134300D01*
X75695911Y-88103394D01*
X75817629Y-88041506D01*
X75943080Y-87952729D01*
X76013353Y-87892694D01*
X76052811Y-87857947D01*
X76083812Y-87832454D01*
X76101458Y-87820170D01*
X76103648Y-87819795D01*
X76111524Y-87832347D01*
X76131932Y-87865516D01*
X76163132Y-87916458D01*
X76203386Y-87982331D01*
X76250957Y-88060289D01*
X76304104Y-88147490D01*
X76333687Y-88196067D01*
X76559648Y-88567215D01*
X76277527Y-88706639D01*
X76175522Y-88756719D01*
X76092889Y-88796210D01*
X76024578Y-88827073D01*
X75965537Y-88851268D01*
X75910714Y-88870758D01*
X75855060Y-88887503D01*
X75793523Y-88903465D01*
X75734540Y-88917482D01*
X75682115Y-88928329D01*
X75627288Y-88936526D01*
X75564572Y-88942528D01*
X75488477Y-88946790D01*
X75393516Y-88949767D01*
X75329513Y-88951052D01*
X75238192Y-88951930D01*
X75150627Y-88951487D01*
X75072612Y-88949852D01*
X75009942Y-88947149D01*
X74968413Y-88943505D01*
X74965952Y-88943142D01*
X74750303Y-88896487D01*
X74547793Y-88825729D01*
X74358495Y-88730914D01*
X74182479Y-88612089D01*
X74019816Y-88469300D01*
X73870578Y-88302594D01*
X73762496Y-88154433D01*
X73647434Y-87960502D01*
X73554423Y-87755699D01*
X73483013Y-87538383D01*
X73432756Y-87306912D01*
X73403201Y-87059643D01*
X73393889Y-86808559D01*
X73401548Y-86565670D01*
X73425613Y-86341570D01*
X73466852Y-86132477D01*
X73526027Y-85934613D01*
X73603904Y-85744196D01*
X73613203Y-85724468D01*
X73715648Y-85540059D01*
X73841472Y-85364576D01*
X73987112Y-85201650D01*
X74149001Y-85054914D01*
X74323576Y-84928001D01*
X74486244Y-84834905D01*
X74650573Y-84761991D01*
X74815251Y-84709174D01*
X74986652Y-84675015D01*
X75171153Y-84658078D01*
X75281459Y-84655580D01*
X75439962Y-84660499D01*
G36*
X75439962Y-84660499D02*
G01*
X75588014Y-84676707D01*
X75731452Y-84705718D01*
X75876110Y-84749045D01*
X76027824Y-84808201D01*
X76192428Y-84884700D01*
X76222071Y-84899517D01*
X76290098Y-84933031D01*
X76354256Y-84963208D01*
X76408215Y-84987166D01*
X76445640Y-85002024D01*
X76451389Y-85003895D01*
X76506486Y-85020402D01*
X76259851Y-85379201D01*
X76199552Y-85466893D01*
X76144422Y-85547012D01*
X76096336Y-85616836D01*
X76057168Y-85673647D01*
X76028794Y-85714723D01*
X76013087Y-85737346D01*
X76010536Y-85740928D01*
X76000171Y-85733438D01*
X75974660Y-85710918D01*
X75938563Y-85677461D01*
X75918642Y-85658550D01*
X75805773Y-85568778D01*
X75679014Y-85500561D01*
X75569783Y-85463195D01*
X75504214Y-85451460D01*
X75422116Y-85444308D01*
X75333144Y-85441874D01*
X75246956Y-85444288D01*
X75173205Y-85451683D01*
X75143776Y-85457347D01*
X75011133Y-85502982D01*
X74891606Y-85572663D01*
X74785283Y-85666260D01*
X74692253Y-85783649D01*
X74612605Y-85924700D01*
X74546426Y-86089286D01*
X74493806Y-86277280D01*
X74462533Y-86438217D01*
X74454374Y-86509263D01*
X74448815Y-86601046D01*
X74445802Y-86706968D01*
X74445281Y-86820434D01*
X74447200Y-86934849D01*
X74451503Y-87043617D01*
X74458137Y-87140143D01*
X74467049Y-87217831D01*
X74468979Y-87229817D01*
X74511499Y-87422892D01*
X74569433Y-87593773D01*
X74643133Y-87743224D01*
X74732951Y-87872011D01*
X74796707Y-87941639D01*
X74911286Y-88036173D01*
X75036942Y-88106246D01*
X75171557Y-88151477D01*
X75313011Y-88171484D01*
X75459183Y-88165885D01*
X75607955Y-88134300D01*
X75695911Y-88103394D01*
X75817629Y-88041506D01*
X75943080Y-87952729D01*
X76013353Y-87892694D01*
X76052811Y-87857947D01*
X76083812Y-87832454D01*
X76101458Y-87820170D01*
X76103648Y-87819795D01*
X76111524Y-87832347D01*
X76131932Y-87865516D01*
X76163132Y-87916458D01*
X76203386Y-87982331D01*
X76250957Y-88060289D01*
X76304104Y-88147490D01*
X76333687Y-88196067D01*
X76559648Y-88567215D01*
X76277527Y-88706639D01*
X76175522Y-88756719D01*
X76092889Y-88796210D01*
X76024578Y-88827073D01*
X75965537Y-88851268D01*
X75910714Y-88870758D01*
X75855060Y-88887503D01*
X75793523Y-88903465D01*
X75734540Y-88917482D01*
X75682115Y-88928329D01*
X75627288Y-88936526D01*
X75564572Y-88942528D01*
X75488477Y-88946790D01*
X75393516Y-88949767D01*
X75329513Y-88951052D01*
X75238192Y-88951930D01*
X75150627Y-88951487D01*
X75072612Y-88949852D01*
X75009942Y-88947149D01*
X74968413Y-88943505D01*
X74965952Y-88943142D01*
X74750303Y-88896487D01*
X74547793Y-88825729D01*
X74358495Y-88730914D01*
X74182479Y-88612089D01*
X74019816Y-88469300D01*
X73870578Y-88302594D01*
X73762496Y-88154433D01*
X73647434Y-87960502D01*
X73554423Y-87755699D01*
X73483013Y-87538383D01*
X73432756Y-87306912D01*
X73403201Y-87059643D01*
X73393889Y-86808559D01*
X73401548Y-86565670D01*
X73425613Y-86341570D01*
X73466852Y-86132477D01*
X73526027Y-85934613D01*
X73603904Y-85744196D01*
X73613203Y-85724468D01*
X73715648Y-85540059D01*
X73841472Y-85364576D01*
X73987112Y-85201650D01*
X74149001Y-85054914D01*
X74323576Y-84928001D01*
X74486244Y-84834905D01*
X74650573Y-84761991D01*
X74815251Y-84709174D01*
X74986652Y-84675015D01*
X75171153Y-84658078D01*
X75281459Y-84655580D01*
X75439962Y-84660499D01*
G37*
X81842270Y-84456825D02*
X81959041Y-84457304D01*
X81998729Y-84457545D01*
X82544486Y-84461135D01*
X82551351Y-86554919D01*
X82552258Y-86838842D01*
X82553062Y-87096640D01*
X82553815Y-87329646D01*
X82554569Y-87539194D01*
X82555375Y-87726618D01*
X82556285Y-87893250D01*
X82557351Y-88040425D01*
X82558624Y-88169477D01*
X82560156Y-88281739D01*
X82561998Y-88378544D01*
X82564203Y-88461226D01*
X82566822Y-88531119D01*
X82569906Y-88589557D01*
X82573508Y-88637872D01*
X82577678Y-88677400D01*
X82582469Y-88709473D01*
X82587931Y-88735424D01*
X82594118Y-88756589D01*
X82601080Y-88774299D01*
X82608869Y-88789889D01*
X82617537Y-88804693D01*
X82627135Y-88820044D01*
X82637715Y-88837276D01*
X82639884Y-88840946D01*
X82676268Y-88903031D01*
X82150431Y-88899434D01*
X81624594Y-88895838D01*
X81617729Y-88780331D01*
X81613992Y-88724899D01*
X81610097Y-88692851D01*
X81604811Y-88680135D01*
X81596903Y-88682696D01*
X81590270Y-88690024D01*
X81561374Y-88716714D01*
X81514279Y-88751021D01*
X81455620Y-88788846D01*
X81392031Y-88826090D01*
X81330149Y-88858653D01*
X81282634Y-88880077D01*
X81171316Y-88915283D01*
X81043596Y-88940222D01*
X80908901Y-88953941D01*
X80776663Y-88955486D01*
X80656308Y-88943906D01*
X80654326Y-88943574D01*
X80489641Y-88902250D01*
X80335479Y-88836412D01*
X80193328Y-88747474D01*
X80064675Y-88636852D01*
X79951007Y-88505961D01*
X79853810Y-88356216D01*
X79774572Y-88189033D01*
X79731430Y-88065190D01*
X79702979Y-87961581D01*
X79681880Y-87861252D01*
X79667488Y-87758109D01*
X79659158Y-87646057D01*
X79656245Y-87519001D01*
X79657535Y-87415252D01*
X80670650Y-87415252D01*
X80675444Y-87589222D01*
X80690568Y-87738895D01*
X80716485Y-87865597D01*
X80753663Y-87970658D01*
X80802565Y-88055406D01*
X80863658Y-88121169D01*
X80934177Y-88167659D01*
X80970871Y-88185014D01*
X81002696Y-88195419D01*
X81038177Y-88200179D01*
X81085841Y-88200601D01*
X81137189Y-88198748D01*
X81238169Y-88189841D01*
X81318035Y-88172398D01*
X81343135Y-88163661D01*
X81400448Y-88137857D01*
X81460897Y-88105453D01*
X81487297Y-88089233D01*
X81555946Y-88044205D01*
X81555946Y-86616982D01*
X81480432Y-86571718D01*
X81375121Y-86520572D01*
X81267525Y-86490324D01*
X81161581Y-86480795D01*
X81061224Y-86491807D01*
X80970387Y-86523181D01*
X80893007Y-86574740D01*
X80868039Y-86599488D01*
X80807856Y-86680577D01*
X80759145Y-86778734D01*
X80721499Y-86895643D01*
X80694512Y-87032985D01*
X80677775Y-87192444D01*
X80670883Y-87375700D01*
X80670650Y-87415252D01*
X79657535Y-87415252D01*
X79658073Y-87372067D01*
X79669647Y-87146053D01*
X79692920Y-86942192D01*
X79728504Y-86757513D01*
X79777013Y-86589048D01*
X79839060Y-86433826D01*
X79861201Y-86387808D01*
X79950385Y-86237739D01*
X80058159Y-86104377D01*
X80181990Y-85989877D01*
X80319342Y-85896389D01*
X80467683Y-85826068D01*
X80556604Y-85797060D01*
X80643933Y-85779840D01*
X80749011Y-85769594D01*
X80863029Y-85766318D01*
X80977177Y-85770009D01*
X81082648Y-85780660D01*
X81167334Y-85797370D01*
X81268128Y-85830140D01*
X81365822Y-85872279D01*
X81451296Y-85919519D01*
X81496789Y-85951581D01*
X81528169Y-85975422D01*
X81550142Y-85989939D01*
X81555141Y-85992000D01*
X81556690Y-85978718D01*
X81558135Y-85940663D01*
X81559443Y-85880519D01*
X81560583Y-85800973D01*
X81561521Y-85704711D01*
X81562226Y-85594419D01*
X81562667Y-85472781D01*
X81562811Y-85348885D01*
X81562730Y-85190196D01*
X81562335Y-85056408D01*
X81561395Y-84944960D01*
X81559680Y-84853295D01*
X81556957Y-84778853D01*
X81552997Y-84719075D01*
X81547569Y-84671402D01*
X81540441Y-84633274D01*
X81531384Y-84602134D01*
X81520167Y-84575421D01*
X81506558Y-84550577D01*
X81490328Y-84525043D01*
X81488240Y-84521881D01*
X81467306Y-84488810D01*
X81454667Y-84466069D01*
X81452973Y-84461272D01*
X81466216Y-84459759D01*
X81504002Y-84458528D01*
X81563416Y-84457599D01*
X81641542Y-84456992D01*
X81735465Y-84456727D01*
X81842270Y-84456825D01*
G36*
X81842270Y-84456825D02*
G01*
X81959041Y-84457304D01*
X81998729Y-84457545D01*
X82544486Y-84461135D01*
X82551351Y-86554919D01*
X82552258Y-86838842D01*
X82553062Y-87096640D01*
X82553815Y-87329646D01*
X82554569Y-87539194D01*
X82555375Y-87726618D01*
X82556285Y-87893250D01*
X82557351Y-88040425D01*
X82558624Y-88169477D01*
X82560156Y-88281739D01*
X82561998Y-88378544D01*
X82564203Y-88461226D01*
X82566822Y-88531119D01*
X82569906Y-88589557D01*
X82573508Y-88637872D01*
X82577678Y-88677400D01*
X82582469Y-88709473D01*
X82587931Y-88735424D01*
X82594118Y-88756589D01*
X82601080Y-88774299D01*
X82608869Y-88789889D01*
X82617537Y-88804693D01*
X82627135Y-88820044D01*
X82637715Y-88837276D01*
X82639884Y-88840946D01*
X82676268Y-88903031D01*
X82150431Y-88899434D01*
X81624594Y-88895838D01*
X81617729Y-88780331D01*
X81613992Y-88724899D01*
X81610097Y-88692851D01*
X81604811Y-88680135D01*
X81596903Y-88682696D01*
X81590270Y-88690024D01*
X81561374Y-88716714D01*
X81514279Y-88751021D01*
X81455620Y-88788846D01*
X81392031Y-88826090D01*
X81330149Y-88858653D01*
X81282634Y-88880077D01*
X81171316Y-88915283D01*
X81043596Y-88940222D01*
X80908901Y-88953941D01*
X80776663Y-88955486D01*
X80656308Y-88943906D01*
X80654326Y-88943574D01*
X80489641Y-88902250D01*
X80335479Y-88836412D01*
X80193328Y-88747474D01*
X80064675Y-88636852D01*
X79951007Y-88505961D01*
X79853810Y-88356216D01*
X79774572Y-88189033D01*
X79731430Y-88065190D01*
X79702979Y-87961581D01*
X79681880Y-87861252D01*
X79667488Y-87758109D01*
X79659158Y-87646057D01*
X79656245Y-87519001D01*
X79657535Y-87415252D01*
X80670650Y-87415252D01*
X80675444Y-87589222D01*
X80690568Y-87738895D01*
X80716485Y-87865597D01*
X80753663Y-87970658D01*
X80802565Y-88055406D01*
X80863658Y-88121169D01*
X80934177Y-88167659D01*
X80970871Y-88185014D01*
X81002696Y-88195419D01*
X81038177Y-88200179D01*
X81085841Y-88200601D01*
X81137189Y-88198748D01*
X81238169Y-88189841D01*
X81318035Y-88172398D01*
X81343135Y-88163661D01*
X81400448Y-88137857D01*
X81460897Y-88105453D01*
X81487297Y-88089233D01*
X81555946Y-88044205D01*
X81555946Y-86616982D01*
X81480432Y-86571718D01*
X81375121Y-86520572D01*
X81267525Y-86490324D01*
X81161581Y-86480795D01*
X81061224Y-86491807D01*
X80970387Y-86523181D01*
X80893007Y-86574740D01*
X80868039Y-86599488D01*
X80807856Y-86680577D01*
X80759145Y-86778734D01*
X80721499Y-86895643D01*
X80694512Y-87032985D01*
X80677775Y-87192444D01*
X80670883Y-87375700D01*
X80670650Y-87415252D01*
X79657535Y-87415252D01*
X79658073Y-87372067D01*
X79669647Y-87146053D01*
X79692920Y-86942192D01*
X79728504Y-86757513D01*
X79777013Y-86589048D01*
X79839060Y-86433826D01*
X79861201Y-86387808D01*
X79950385Y-86237739D01*
X80058159Y-86104377D01*
X80181990Y-85989877D01*
X80319342Y-85896389D01*
X80467683Y-85826068D01*
X80556604Y-85797060D01*
X80643933Y-85779840D01*
X80749011Y-85769594D01*
X80863029Y-85766318D01*
X80977177Y-85770009D01*
X81082648Y-85780660D01*
X81167334Y-85797370D01*
X81268128Y-85830140D01*
X81365822Y-85872279D01*
X81451296Y-85919519D01*
X81496789Y-85951581D01*
X81528169Y-85975422D01*
X81550142Y-85989939D01*
X81555141Y-85992000D01*
X81556690Y-85978718D01*
X81558135Y-85940663D01*
X81559443Y-85880519D01*
X81560583Y-85800973D01*
X81561521Y-85704711D01*
X81562226Y-85594419D01*
X81562667Y-85472781D01*
X81562811Y-85348885D01*
X81562730Y-85190196D01*
X81562335Y-85056408D01*
X81561395Y-84944960D01*
X81559680Y-84853295D01*
X81556957Y-84778853D01*
X81552997Y-84719075D01*
X81547569Y-84671402D01*
X81540441Y-84633274D01*
X81531384Y-84602134D01*
X81520167Y-84575421D01*
X81506558Y-84550577D01*
X81490328Y-84525043D01*
X81488240Y-84521881D01*
X81467306Y-84488810D01*
X81454667Y-84466069D01*
X81452973Y-84461272D01*
X81466216Y-84459759D01*
X81504002Y-84458528D01*
X81563416Y-84457599D01*
X81641542Y-84456992D01*
X81735465Y-84456727D01*
X81842270Y-84456825D01*
G37*
X78167505Y-85764229D02*
X78235531Y-85769378D01*
X78430163Y-85795273D01*
X78602529Y-85836575D01*
X78753470Y-85893853D01*
X78883825Y-85967674D01*
X78994434Y-86058608D01*
X79086135Y-86167222D01*
X79159770Y-86294085D01*
X79213539Y-86431352D01*
X79227187Y-86475137D01*
X79239073Y-86516141D01*
X79249334Y-86556569D01*
X79258113Y-86598630D01*
X79265548Y-86644531D01*
X79271780Y-86696480D01*
X79276950Y-86756685D01*
X79281196Y-86827352D01*
X79284660Y-86910689D01*
X79287481Y-87008905D01*
X79289800Y-87124205D01*
X79291757Y-87258799D01*
X79293491Y-87414893D01*
X79295143Y-87594695D01*
X79296324Y-87735676D01*
X79304270Y-88703622D01*
X79355756Y-88796770D01*
X79380137Y-88841645D01*
X79398280Y-88876501D01*
X79406935Y-88895054D01*
X79407243Y-88896311D01*
X79394014Y-88897749D01*
X79356326Y-88899074D01*
X79297183Y-88900249D01*
X79219586Y-88901237D01*
X79126536Y-88901999D01*
X79021035Y-88902500D01*
X78906084Y-88902701D01*
X78892378Y-88902703D01*
X78377513Y-88902703D01*
X78377513Y-88786000D01*
X78376635Y-88733260D01*
X78374292Y-88692926D01*
X78370921Y-88671300D01*
X78369431Y-88669298D01*
X78355804Y-88677683D01*
X78327757Y-88699692D01*
X78291303Y-88730601D01*
X78290485Y-88731316D01*
X78223962Y-88780843D01*
X78139948Y-88830575D01*
X78047937Y-88875626D01*
X77957421Y-88911110D01*
X77917567Y-88923236D01*
X77838255Y-88938637D01*
X77740935Y-88948465D01*
X77634516Y-88952580D01*
X77527907Y-88950841D01*
X77430017Y-88943108D01*
X77361513Y-88931981D01*
X77193520Y-88882648D01*
X77042281Y-88812342D01*
X76908782Y-88721933D01*
X76794006Y-88612295D01*
X76698937Y-88484299D01*
X76624560Y-88338818D01*
X76592474Y-88250541D01*
X76572365Y-88164739D01*
X76559038Y-88061736D01*
X76552872Y-87951034D01*
X76553074Y-87934925D01*
X77481648Y-87934925D01*
X77489348Y-88017184D01*
X77514989Y-88085546D01*
X77562378Y-88148970D01*
X77580579Y-88167567D01*
X77645282Y-88217846D01*
X77720066Y-88250056D01*
X77809662Y-88265648D01*
X77904012Y-88266796D01*
X77993501Y-88259216D01*
X78062018Y-88244389D01*
X78091775Y-88233253D01*
X78145408Y-88202904D01*
X78202235Y-88160221D01*
X78254082Y-88112317D01*
X78292778Y-88066301D01*
X78303054Y-88049421D01*
X78311042Y-88025782D01*
X78316721Y-87988168D01*
X78320356Y-87932985D01*
X78322211Y-87856640D01*
X78322594Y-87783981D01*
X78322335Y-87699270D01*
X78321287Y-87638018D01*
X78319045Y-87596227D01*
X78315206Y-87569899D01*
X78309365Y-87555035D01*
X78301118Y-87547639D01*
X78298567Y-87546461D01*
X78276400Y-87542833D01*
X78232680Y-87539866D01*
X78173311Y-87537827D01*
X78104196Y-87536983D01*
X78089189Y-87536982D01*
X77996805Y-87538457D01*
X77925432Y-87542842D01*
X77868719Y-87550738D01*
X77821872Y-87562270D01*
X77705669Y-87606215D01*
X77614543Y-87660243D01*
X77547705Y-87725219D01*
X77504365Y-87802005D01*
X77483734Y-87891467D01*
X77481648Y-87934925D01*
X76553074Y-87934925D01*
X76554244Y-87842133D01*
X76563532Y-87744536D01*
X76570777Y-87705105D01*
X76617039Y-87558701D01*
X76687384Y-87423995D01*
X76780484Y-87302280D01*
X76895012Y-87194847D01*
X77029640Y-87102988D01*
X77183040Y-87027996D01*
X77313459Y-86982458D01*
X77400623Y-86958533D01*
X77483996Y-86939943D01*
X77568976Y-86926084D01*
X77660965Y-86916351D01*
X77765362Y-86910141D01*
X77887568Y-86906851D01*
X77998055Y-86905924D01*
X78325677Y-86905027D01*
X78319401Y-86806547D01*
X78301579Y-86699695D01*
X78263667Y-86607852D01*
X78207280Y-86533310D01*
X78134031Y-86478364D01*
X78069535Y-86451552D01*
X77977123Y-86434654D01*
X77867111Y-86432227D01*
X77744656Y-86443378D01*
X77614914Y-86467210D01*
X77483042Y-86502830D01*
X77354198Y-86549343D01*
X77260566Y-86591883D01*
X77215517Y-86613728D01*
X77181156Y-86628984D01*
X77163681Y-86634937D01*
X77162733Y-86634746D01*
X77156703Y-86621412D01*
X77141645Y-86586068D01*
X77118977Y-86532101D01*
X77090115Y-86462896D01*
X77056477Y-86381840D01*
X77022284Y-86299118D01*
X76885586Y-85967803D01*
X76982820Y-85951833D01*
X77024964Y-85943820D01*
X77088319Y-85930361D01*
X77167457Y-85912679D01*
X77256951Y-85891996D01*
X77351373Y-85869532D01*
X77388973Y-85860403D01*
X77551637Y-85822674D01*
X77694050Y-85794388D01*
X77821527Y-85774972D01*
X77939384Y-85763854D01*
X78052938Y-85760464D01*
X78167505Y-85764229D01*
G36*
X78167505Y-85764229D02*
G01*
X78235531Y-85769378D01*
X78430163Y-85795273D01*
X78602529Y-85836575D01*
X78753470Y-85893853D01*
X78883825Y-85967674D01*
X78994434Y-86058608D01*
X79086135Y-86167222D01*
X79159770Y-86294085D01*
X79213539Y-86431352D01*
X79227187Y-86475137D01*
X79239073Y-86516141D01*
X79249334Y-86556569D01*
X79258113Y-86598630D01*
X79265548Y-86644531D01*
X79271780Y-86696480D01*
X79276950Y-86756685D01*
X79281196Y-86827352D01*
X79284660Y-86910689D01*
X79287481Y-87008905D01*
X79289800Y-87124205D01*
X79291757Y-87258799D01*
X79293491Y-87414893D01*
X79295143Y-87594695D01*
X79296324Y-87735676D01*
X79304270Y-88703622D01*
X79355756Y-88796770D01*
X79380137Y-88841645D01*
X79398280Y-88876501D01*
X79406935Y-88895054D01*
X79407243Y-88896311D01*
X79394014Y-88897749D01*
X79356326Y-88899074D01*
X79297183Y-88900249D01*
X79219586Y-88901237D01*
X79126536Y-88901999D01*
X79021035Y-88902500D01*
X78906084Y-88902701D01*
X78892378Y-88902703D01*
X78377513Y-88902703D01*
X78377513Y-88786000D01*
X78376635Y-88733260D01*
X78374292Y-88692926D01*
X78370921Y-88671300D01*
X78369431Y-88669298D01*
X78355804Y-88677683D01*
X78327757Y-88699692D01*
X78291303Y-88730601D01*
X78290485Y-88731316D01*
X78223962Y-88780843D01*
X78139948Y-88830575D01*
X78047937Y-88875626D01*
X77957421Y-88911110D01*
X77917567Y-88923236D01*
X77838255Y-88938637D01*
X77740935Y-88948465D01*
X77634516Y-88952580D01*
X77527907Y-88950841D01*
X77430017Y-88943108D01*
X77361513Y-88931981D01*
X77193520Y-88882648D01*
X77042281Y-88812342D01*
X76908782Y-88721933D01*
X76794006Y-88612295D01*
X76698937Y-88484299D01*
X76624560Y-88338818D01*
X76592474Y-88250541D01*
X76572365Y-88164739D01*
X76559038Y-88061736D01*
X76552872Y-87951034D01*
X76553074Y-87934925D01*
X77481648Y-87934925D01*
X77489348Y-88017184D01*
X77514989Y-88085546D01*
X77562378Y-88148970D01*
X77580579Y-88167567D01*
X77645282Y-88217846D01*
X77720066Y-88250056D01*
X77809662Y-88265648D01*
X77904012Y-88266796D01*
X77993501Y-88259216D01*
X78062018Y-88244389D01*
X78091775Y-88233253D01*
X78145408Y-88202904D01*
X78202235Y-88160221D01*
X78254082Y-88112317D01*
X78292778Y-88066301D01*
X78303054Y-88049421D01*
X78311042Y-88025782D01*
X78316721Y-87988168D01*
X78320356Y-87932985D01*
X78322211Y-87856640D01*
X78322594Y-87783981D01*
X78322335Y-87699270D01*
X78321287Y-87638018D01*
X78319045Y-87596227D01*
X78315206Y-87569899D01*
X78309365Y-87555035D01*
X78301118Y-87547639D01*
X78298567Y-87546461D01*
X78276400Y-87542833D01*
X78232680Y-87539866D01*
X78173311Y-87537827D01*
X78104196Y-87536983D01*
X78089189Y-87536982D01*
X77996805Y-87538457D01*
X77925432Y-87542842D01*
X77868719Y-87550738D01*
X77821872Y-87562270D01*
X77705669Y-87606215D01*
X77614543Y-87660243D01*
X77547705Y-87725219D01*
X77504365Y-87802005D01*
X77483734Y-87891467D01*
X77481648Y-87934925D01*
X76553074Y-87934925D01*
X76554244Y-87842133D01*
X76563532Y-87744536D01*
X76570777Y-87705105D01*
X76617039Y-87558701D01*
X76687384Y-87423995D01*
X76780484Y-87302280D01*
X76895012Y-87194847D01*
X77029640Y-87102988D01*
X77183040Y-87027996D01*
X77313459Y-86982458D01*
X77400623Y-86958533D01*
X77483996Y-86939943D01*
X77568976Y-86926084D01*
X77660965Y-86916351D01*
X77765362Y-86910141D01*
X77887568Y-86906851D01*
X77998055Y-86905924D01*
X78325677Y-86905027D01*
X78319401Y-86806547D01*
X78301579Y-86699695D01*
X78263667Y-86607852D01*
X78207280Y-86533310D01*
X78134031Y-86478364D01*
X78069535Y-86451552D01*
X77977123Y-86434654D01*
X77867111Y-86432227D01*
X77744656Y-86443378D01*
X77614914Y-86467210D01*
X77483042Y-86502830D01*
X77354198Y-86549343D01*
X77260566Y-86591883D01*
X77215517Y-86613728D01*
X77181156Y-86628984D01*
X77163681Y-86634937D01*
X77162733Y-86634746D01*
X77156703Y-86621412D01*
X77141645Y-86586068D01*
X77118977Y-86532101D01*
X77090115Y-86462896D01*
X77056477Y-86381840D01*
X77022284Y-86299118D01*
X76885586Y-85967803D01*
X76982820Y-85951833D01*
X77024964Y-85943820D01*
X77088319Y-85930361D01*
X77167457Y-85912679D01*
X77256951Y-85891996D01*
X77351373Y-85869532D01*
X77388973Y-85860403D01*
X77551637Y-85822674D01*
X77694050Y-85794388D01*
X77821527Y-85774972D01*
X77939384Y-85763854D01*
X78052938Y-85760464D01*
X78167505Y-85764229D01*
G37*
X69044257Y-83973689D02*
X69308780Y-83973725D01*
X69431912Y-83973730D01*
X71402811Y-83973730D01*
X71402811Y-84089910D01*
X71415211Y-84231291D01*
X71452636Y-84361684D01*
X71515423Y-84481862D01*
X71603906Y-84592602D01*
X71633843Y-84622511D01*
X71741534Y-84707348D01*
X71860275Y-84769221D01*
X71986540Y-84808159D01*
X72116803Y-84824190D01*
X72247535Y-84817342D01*
X72375212Y-84787643D01*
X72496305Y-84735120D01*
X72607288Y-84659803D01*
X72657132Y-84614363D01*
X72750017Y-84502952D01*
X72818127Y-84380435D01*
X72860871Y-84248215D01*
X72877653Y-84107692D01*
X72877876Y-84093867D01*
X72878756Y-83973734D01*
X72931557Y-83973732D01*
X72978396Y-83980089D01*
X73021183Y-83995556D01*
X73024011Y-83997154D01*
X73033675Y-84002168D01*
X73042549Y-84006073D01*
X73050665Y-84010007D01*
X73058057Y-84015106D01*
X73064755Y-84022508D01*
X73070792Y-84033351D01*
X73076199Y-84048772D01*
X73081010Y-84069909D01*
X73085255Y-84097899D01*
X73088968Y-84133879D01*
X73092179Y-84178987D01*
X73094922Y-84234360D01*
X73097228Y-84301137D01*
X73099129Y-84380453D01*
X73100658Y-84473447D01*
X73101846Y-84581257D01*
X73102726Y-84705019D01*
X73103330Y-84845871D01*
X73103689Y-85004950D01*
X73103835Y-85183395D01*
X73103802Y-85382342D01*
X73103620Y-85602929D01*
X73103323Y-85846293D01*
X73102941Y-86113572D01*
X73102508Y-86405903D01*
X73102055Y-86724424D01*
X73102002Y-86763230D01*
X73101596Y-87083782D01*
X73101251Y-87378012D01*
X73100931Y-87647056D01*
X73100600Y-87892052D01*
X73100221Y-88114137D01*
X73099757Y-88314447D01*
X73099172Y-88494119D01*
X73098430Y-88654290D01*
X73097494Y-88796098D01*
X73096327Y-88920679D01*
X73094893Y-89029170D01*
X73093156Y-89122707D01*
X73091078Y-89202429D01*
X73088624Y-89269472D01*
X73085756Y-89324973D01*
X73082439Y-89370068D01*
X73078636Y-89405895D01*
X73074310Y-89433591D01*
X73069425Y-89454293D01*
X73063945Y-89469137D01*
X73057832Y-89479260D01*
X73051050Y-89485800D01*
X73043563Y-89489893D01*
X73035334Y-89492676D01*
X73026327Y-89495287D01*
X73016505Y-89498862D01*
X73014106Y-89499950D01*
X73006565Y-89502396D01*
X72993944Y-89504642D01*
X72975141Y-89506698D01*
X72949053Y-89508572D01*
X72914578Y-89510271D01*
X72870615Y-89511803D01*
X72816061Y-89513177D01*
X72749815Y-89514400D01*
X72670774Y-89515481D01*
X72577837Y-89516427D01*
X72469901Y-89517247D01*
X72345864Y-89517947D01*
X72204624Y-89518538D01*
X72045079Y-89519025D01*
X71866128Y-89519419D01*
X71666668Y-89519725D01*
X71445596Y-89519953D01*
X71201812Y-89520110D01*
X70934213Y-89520205D01*
X70641697Y-89520245D01*
X70323161Y-89520238D01*
X70219979Y-89520228D01*
X69894377Y-89520176D01*
X69595119Y-89520091D01*
X69321091Y-89519963D01*
X69071176Y-89519785D01*
X68844260Y-89519548D01*
X68639227Y-89519242D01*
X68454962Y-89518860D01*
X68290350Y-89518392D01*
X68144275Y-89517830D01*
X68015624Y-89517165D01*
X67903279Y-89516388D01*
X67806126Y-89515491D01*
X67723050Y-89514465D01*
X67652936Y-89513301D01*
X67594668Y-89511991D01*
X67547131Y-89510525D01*
X67509210Y-89508896D01*
X67479790Y-89507093D01*
X67457755Y-89505110D01*
X67441990Y-89502936D01*
X67431380Y-89500563D01*
X67425596Y-89498391D01*
X67415316Y-89494056D01*
X67405878Y-89490859D01*
X67397245Y-89487665D01*
X67389381Y-89483338D01*
X67382252Y-89476744D01*
X67375821Y-89466747D01*
X67370053Y-89452212D01*
X67364911Y-89432003D01*
X67360360Y-89404985D01*
X67356365Y-89370023D01*
X67352889Y-89325981D01*
X67349898Y-89271724D01*
X67347354Y-89206117D01*
X67345223Y-89128024D01*
X67343468Y-89036310D01*
X67342055Y-88929840D01*
X67341685Y-88888973D01*
X67708116Y-88888973D01*
X69003266Y-88888973D01*
X68978345Y-88851217D01*
X68953553Y-88812417D01*
X68932560Y-88775469D01*
X68915065Y-88737788D01*
X68900770Y-88696788D01*
X68889377Y-88649883D01*
X68880587Y-88594487D01*
X68874102Y-88528016D01*
X68869623Y-88447883D01*
X68866850Y-88351502D01*
X68865487Y-88236289D01*
X68865233Y-88099657D01*
X68865791Y-87939020D01*
X68866107Y-87879382D01*
X68869675Y-87240041D01*
X69274702Y-87791449D01*
X69389446Y-87947876D01*
X69488857Y-88084088D01*
X69574010Y-88201890D01*
X69645978Y-88303084D01*
X69705834Y-88389477D01*
X69754652Y-88462874D01*
X69793505Y-88525077D01*
X69823466Y-88577893D01*
X69845609Y-88623125D01*
X69861007Y-88662578D01*
X69870734Y-88698058D01*
X69875863Y-88731368D01*
X69877468Y-88764313D01*
X69876621Y-88798697D01*
X69876405Y-88803019D01*
X69871946Y-88889031D01*
X71291308Y-88888973D01*
X71185735Y-88782522D01*
X71157087Y-88753406D01*
X71129910Y-88725076D01*
X71103011Y-88695968D01*
X71075197Y-88664520D01*
X71045275Y-88629169D01*
X71012054Y-88588354D01*
X70974339Y-88540511D01*
X70930940Y-88484079D01*
X70880662Y-88417494D01*
X70822312Y-88339195D01*
X70754700Y-88247619D01*
X70676631Y-88141204D01*
X70586912Y-88018387D01*
X70484352Y-87877605D01*
X70367758Y-87717297D01*
X70272191Y-87585798D01*
X70152251Y-87420596D01*
X70047620Y-87276152D01*
X69957352Y-87151094D01*
X69880497Y-87044052D01*
X69816109Y-86953654D01*
X69763239Y-86878529D01*
X69720940Y-86817304D01*
X69688264Y-86768610D01*
X69664262Y-86731074D01*
X69647987Y-86703325D01*
X69638492Y-86683992D01*
X69634827Y-86671703D01*
X69635929Y-86665242D01*
X69649276Y-86648048D01*
X69678134Y-86611655D01*
X69720760Y-86558224D01*
X69775415Y-86489919D01*
X69840356Y-86408903D01*
X69913842Y-86317340D01*
X69994132Y-86217392D01*
X70079485Y-86111224D01*
X70168160Y-86000997D01*
X70258414Y-85888876D01*
X70308056Y-85827244D01*
X71540627Y-85827244D01*
X71591854Y-85919919D01*
X71643081Y-86012595D01*
X71643081Y-88703622D01*
X71591854Y-88796298D01*
X71540627Y-88888973D01*
X72146604Y-88888973D01*
X72291266Y-88888931D01*
X72410756Y-88888741D01*
X72507358Y-88888308D01*
X72583358Y-88887536D01*
X72641043Y-88886330D01*
X72682699Y-88884594D01*
X72710611Y-88882232D01*
X72727065Y-88879150D01*
X72734348Y-88875251D01*
X72734745Y-88870440D01*
X72730542Y-88864622D01*
X72730499Y-88864574D01*
X72713187Y-88839532D01*
X72690264Y-88798815D01*
X72670019Y-88758168D01*
X72631621Y-88676162D01*
X72623789Y-85827244D01*
X71540627Y-85827244D01*
X70308056Y-85827244D01*
X70348507Y-85777024D01*
X70436698Y-85667604D01*
X70521246Y-85562778D01*
X70600408Y-85464711D01*
X70672444Y-85375566D01*
X70735613Y-85297505D01*
X70788173Y-85232692D01*
X70828383Y-85183290D01*
X70852000Y-85154487D01*
X70943710Y-85046778D01*
X71031940Y-84949580D01*
X71113597Y-84866076D01*
X71185590Y-84799448D01*
X71236681Y-84758599D01*
X71297093Y-84715135D01*
X69907702Y-84715135D01*
X69908092Y-84796666D01*
X69904209Y-84856606D01*
X69889610Y-84912177D01*
X69867012Y-84964855D01*
X69852322Y-84994615D01*
X69836528Y-85024103D01*
X69818186Y-85055276D01*
X69795855Y-85090093D01*
X69768091Y-85130510D01*
X69733451Y-85178486D01*
X69690493Y-85235978D01*
X69637773Y-85304943D01*
X69573849Y-85387339D01*
X69497279Y-85485124D01*
X69406619Y-85600255D01*
X69300426Y-85734690D01*
X69288432Y-85749859D01*
X68869675Y-86279412D01*
X68865622Y-85692922D01*
X68864805Y-85517251D01*
X68864979Y-85368532D01*
X68866151Y-85246275D01*
X68868331Y-85149989D01*
X68871526Y-85079183D01*
X68875744Y-85033369D01*
X68877162Y-85024679D01*
X68899409Y-84933135D01*
X68928557Y-84850608D01*
X68961818Y-84784253D01*
X68981800Y-84756110D01*
X69016278Y-84715135D01*
X68362086Y-84715135D01*
X68206031Y-84715269D01*
X68075533Y-84715703D01*
X67968690Y-84716489D01*
X67883602Y-84717676D01*
X67818365Y-84719317D01*
X67771079Y-84721461D01*
X67739843Y-84724159D01*
X67722754Y-84727462D01*
X67717912Y-84731421D01*
X67718247Y-84732298D01*
X67732115Y-84753231D01*
X67755268Y-84786412D01*
X67767246Y-84803193D01*
X67779631Y-84819940D01*
X67790763Y-84834915D01*
X67800712Y-84849594D01*
X67809549Y-84865449D01*
X67817343Y-84883955D01*
X67824165Y-84906585D01*
X67830084Y-84934813D01*
X67835171Y-84970113D01*
X67839496Y-85013958D01*
X67843129Y-85067822D01*
X67846140Y-85133180D01*
X67848599Y-85211504D01*
X67850577Y-85304268D01*
X67852142Y-85412947D01*
X67853366Y-85539013D01*
X67854319Y-85683942D01*
X67855070Y-85849206D01*
X67855689Y-86036279D01*
X67856248Y-86246635D01*
X67856815Y-86481748D01*
X67857345Y-86697741D01*
X67857845Y-86938535D01*
X67858105Y-87168274D01*
X67858132Y-87385493D01*
X67857933Y-87588722D01*
X67857514Y-87776496D01*
X67856882Y-87947345D01*
X67856044Y-88099803D01*
X67855008Y-88232403D01*
X67853780Y-88343676D01*
X67852367Y-88432156D01*
X67850775Y-88496375D01*
X67849013Y-88534865D01*
X67848679Y-88538933D01*
X67836534Y-88632248D01*
X67817573Y-88707190D01*
X67788698Y-88772594D01*
X67746810Y-88837293D01*
X67741571Y-88844352D01*
X67708116Y-88888973D01*
X67341685Y-88888973D01*
X67340946Y-88807479D01*
X67340107Y-88668090D01*
X67339502Y-88510539D01*
X67339095Y-88333691D01*
X67338850Y-88136410D01*
X67338733Y-87917560D01*
X67338705Y-87676007D01*
X67338733Y-87410615D01*
X67338780Y-87120249D01*
X67338810Y-86803773D01*
X67338811Y-86740946D01*
X67338828Y-86421137D01*
X67338888Y-86127661D01*
X67338998Y-85859390D01*
X67339167Y-85615198D01*
X67339403Y-85393957D01*
X67339716Y-85194540D01*
X67340115Y-85015820D01*
X67340607Y-84856671D01*
X67341203Y-84715966D01*
X67341910Y-84592576D01*
X67342737Y-84485376D01*
X67343693Y-84393238D01*
X67344787Y-84315035D01*
X67346027Y-84249641D01*
X67347422Y-84195928D01*
X67348982Y-84152769D01*
X67350714Y-84119037D01*
X67352628Y-84093605D01*
X67354732Y-84075347D01*
X67357034Y-84063134D01*
X67359545Y-84055841D01*
X67359637Y-84055659D01*
X67364808Y-84044518D01*
X67369115Y-84034431D01*
X67373879Y-84025346D01*
X67380422Y-84017212D01*
X67390065Y-84009976D01*
X67404129Y-84003586D01*
X67423937Y-83997989D01*
X67450809Y-83993133D01*
X67486067Y-83988966D01*
X67531032Y-83985436D01*
X67587026Y-83982491D01*
X67655371Y-83980077D01*
X67737386Y-83978144D01*
X67834395Y-83976638D01*
X67947718Y-83975508D01*
X68078677Y-83974702D01*
X68228593Y-83974166D01*
X68398787Y-83973849D01*
X68590582Y-83973699D01*
X68805298Y-83973663D01*
X69044257Y-83973689D01*
G36*
X69044257Y-83973689D02*
G01*
X69308780Y-83973725D01*
X69431912Y-83973730D01*
X71402811Y-83973730D01*
X71402811Y-84089910D01*
X71415211Y-84231291D01*
X71452636Y-84361684D01*
X71515423Y-84481862D01*
X71603906Y-84592602D01*
X71633843Y-84622511D01*
X71741534Y-84707348D01*
X71860275Y-84769221D01*
X71986540Y-84808159D01*
X72116803Y-84824190D01*
X72247535Y-84817342D01*
X72375212Y-84787643D01*
X72496305Y-84735120D01*
X72607288Y-84659803D01*
X72657132Y-84614363D01*
X72750017Y-84502952D01*
X72818127Y-84380435D01*
X72860871Y-84248215D01*
X72877653Y-84107692D01*
X72877876Y-84093867D01*
X72878756Y-83973734D01*
X72931557Y-83973732D01*
X72978396Y-83980089D01*
X73021183Y-83995556D01*
X73024011Y-83997154D01*
X73033675Y-84002168D01*
X73042549Y-84006073D01*
X73050665Y-84010007D01*
X73058057Y-84015106D01*
X73064755Y-84022508D01*
X73070792Y-84033351D01*
X73076199Y-84048772D01*
X73081010Y-84069909D01*
X73085255Y-84097899D01*
X73088968Y-84133879D01*
X73092179Y-84178987D01*
X73094922Y-84234360D01*
X73097228Y-84301137D01*
X73099129Y-84380453D01*
X73100658Y-84473447D01*
X73101846Y-84581257D01*
X73102726Y-84705019D01*
X73103330Y-84845871D01*
X73103689Y-85004950D01*
X73103835Y-85183395D01*
X73103802Y-85382342D01*
X73103620Y-85602929D01*
X73103323Y-85846293D01*
X73102941Y-86113572D01*
X73102508Y-86405903D01*
X73102055Y-86724424D01*
X73102002Y-86763230D01*
X73101596Y-87083782D01*
X73101251Y-87378012D01*
X73100931Y-87647056D01*
X73100600Y-87892052D01*
X73100221Y-88114137D01*
X73099757Y-88314447D01*
X73099172Y-88494119D01*
X73098430Y-88654290D01*
X73097494Y-88796098D01*
X73096327Y-88920679D01*
X73094893Y-89029170D01*
X73093156Y-89122707D01*
X73091078Y-89202429D01*
X73088624Y-89269472D01*
X73085756Y-89324973D01*
X73082439Y-89370068D01*
X73078636Y-89405895D01*
X73074310Y-89433591D01*
X73069425Y-89454293D01*
X73063945Y-89469137D01*
X73057832Y-89479260D01*
X73051050Y-89485800D01*
X73043563Y-89489893D01*
X73035334Y-89492676D01*
X73026327Y-89495287D01*
X73016505Y-89498862D01*
X73014106Y-89499950D01*
X73006565Y-89502396D01*
X72993944Y-89504642D01*
X72975141Y-89506698D01*
X72949053Y-89508572D01*
X72914578Y-89510271D01*
X72870615Y-89511803D01*
X72816061Y-89513177D01*
X72749815Y-89514400D01*
X72670774Y-89515481D01*
X72577837Y-89516427D01*
X72469901Y-89517247D01*
X72345864Y-89517947D01*
X72204624Y-89518538D01*
X72045079Y-89519025D01*
X71866128Y-89519419D01*
X71666668Y-89519725D01*
X71445596Y-89519953D01*
X71201812Y-89520110D01*
X70934213Y-89520205D01*
X70641697Y-89520245D01*
X70323161Y-89520238D01*
X70219979Y-89520228D01*
X69894377Y-89520176D01*
X69595119Y-89520091D01*
X69321091Y-89519963D01*
X69071176Y-89519785D01*
X68844260Y-89519548D01*
X68639227Y-89519242D01*
X68454962Y-89518860D01*
X68290350Y-89518392D01*
X68144275Y-89517830D01*
X68015624Y-89517165D01*
X67903279Y-89516388D01*
X67806126Y-89515491D01*
X67723050Y-89514465D01*
X67652936Y-89513301D01*
X67594668Y-89511991D01*
X67547131Y-89510525D01*
X67509210Y-89508896D01*
X67479790Y-89507093D01*
X67457755Y-89505110D01*
X67441990Y-89502936D01*
X67431380Y-89500563D01*
X67425596Y-89498391D01*
X67415316Y-89494056D01*
X67405878Y-89490859D01*
X67397245Y-89487665D01*
X67389381Y-89483338D01*
X67382252Y-89476744D01*
X67375821Y-89466747D01*
X67370053Y-89452212D01*
X67364911Y-89432003D01*
X67360360Y-89404985D01*
X67356365Y-89370023D01*
X67352889Y-89325981D01*
X67349898Y-89271724D01*
X67347354Y-89206117D01*
X67345223Y-89128024D01*
X67343468Y-89036310D01*
X67342055Y-88929840D01*
X67341685Y-88888973D01*
X67708116Y-88888973D01*
X69003266Y-88888973D01*
X68978345Y-88851217D01*
X68953553Y-88812417D01*
X68932560Y-88775469D01*
X68915065Y-88737788D01*
X68900770Y-88696788D01*
X68889377Y-88649883D01*
X68880587Y-88594487D01*
X68874102Y-88528016D01*
X68869623Y-88447883D01*
X68866850Y-88351502D01*
X68865487Y-88236289D01*
X68865233Y-88099657D01*
X68865791Y-87939020D01*
X68866107Y-87879382D01*
X68869675Y-87240041D01*
X69274702Y-87791449D01*
X69389446Y-87947876D01*
X69488857Y-88084088D01*
X69574010Y-88201890D01*
X69645978Y-88303084D01*
X69705834Y-88389477D01*
X69754652Y-88462874D01*
X69793505Y-88525077D01*
X69823466Y-88577893D01*
X69845609Y-88623125D01*
X69861007Y-88662578D01*
X69870734Y-88698058D01*
X69875863Y-88731368D01*
X69877468Y-88764313D01*
X69876621Y-88798697D01*
X69876405Y-88803019D01*
X69871946Y-88889031D01*
X71291308Y-88888973D01*
X71540627Y-88888973D01*
X72146604Y-88888973D01*
X72291266Y-88888931D01*
X72410756Y-88888741D01*
X72507358Y-88888308D01*
X72583358Y-88887536D01*
X72641043Y-88886330D01*
X72682699Y-88884594D01*
X72710611Y-88882232D01*
X72727065Y-88879150D01*
X72734348Y-88875251D01*
X72734745Y-88870440D01*
X72730542Y-88864622D01*
X72730499Y-88864574D01*
X72713187Y-88839532D01*
X72690264Y-88798815D01*
X72670019Y-88758168D01*
X72631621Y-88676162D01*
X72623789Y-85827244D01*
X71540627Y-85827244D01*
X71591854Y-85919919D01*
X71643081Y-86012595D01*
X71643081Y-88703622D01*
X71591854Y-88796298D01*
X71540627Y-88888973D01*
X71291308Y-88888973D01*
X71185735Y-88782522D01*
X71157087Y-88753406D01*
X71129910Y-88725076D01*
X71103011Y-88695968D01*
X71075197Y-88664520D01*
X71045275Y-88629169D01*
X71012054Y-88588354D01*
X70974339Y-88540511D01*
X70930940Y-88484079D01*
X70880662Y-88417494D01*
X70822312Y-88339195D01*
X70754700Y-88247619D01*
X70676631Y-88141204D01*
X70586912Y-88018387D01*
X70484352Y-87877605D01*
X70367758Y-87717297D01*
X70272191Y-87585798D01*
X70152251Y-87420596D01*
X70047620Y-87276152D01*
X69957352Y-87151094D01*
X69880497Y-87044052D01*
X69816109Y-86953654D01*
X69763239Y-86878529D01*
X69720940Y-86817304D01*
X69688264Y-86768610D01*
X69664262Y-86731074D01*
X69647987Y-86703325D01*
X69638492Y-86683992D01*
X69634827Y-86671703D01*
X69635929Y-86665242D01*
X69649276Y-86648048D01*
X69678134Y-86611655D01*
X69720760Y-86558224D01*
X69775415Y-86489919D01*
X69840356Y-86408903D01*
X69913842Y-86317340D01*
X69994132Y-86217392D01*
X70079485Y-86111224D01*
X70168160Y-86000997D01*
X70258414Y-85888876D01*
X70308056Y-85827244D01*
X70348507Y-85777024D01*
X70436698Y-85667604D01*
X70521246Y-85562778D01*
X70600408Y-85464711D01*
X70672444Y-85375566D01*
X70735613Y-85297505D01*
X70788173Y-85232692D01*
X70828383Y-85183290D01*
X70852000Y-85154487D01*
X70943710Y-85046778D01*
X71031940Y-84949580D01*
X71113597Y-84866076D01*
X71185590Y-84799448D01*
X71236681Y-84758599D01*
X71297093Y-84715135D01*
X69907702Y-84715135D01*
X69908092Y-84796666D01*
X69904209Y-84856606D01*
X69889610Y-84912177D01*
X69867012Y-84964855D01*
X69852322Y-84994615D01*
X69836528Y-85024103D01*
X69818186Y-85055276D01*
X69795855Y-85090093D01*
X69768091Y-85130510D01*
X69733451Y-85178486D01*
X69690493Y-85235978D01*
X69637773Y-85304943D01*
X69573849Y-85387339D01*
X69497279Y-85485124D01*
X69406619Y-85600255D01*
X69300426Y-85734690D01*
X69288432Y-85749859D01*
X68869675Y-86279412D01*
X68865622Y-85692922D01*
X68864805Y-85517251D01*
X68864979Y-85368532D01*
X68866151Y-85246275D01*
X68868331Y-85149989D01*
X68871526Y-85079183D01*
X68875744Y-85033369D01*
X68877162Y-85024679D01*
X68899409Y-84933135D01*
X68928557Y-84850608D01*
X68961818Y-84784253D01*
X68981800Y-84756110D01*
X69016278Y-84715135D01*
X68362086Y-84715135D01*
X68206031Y-84715269D01*
X68075533Y-84715703D01*
X67968690Y-84716489D01*
X67883602Y-84717676D01*
X67818365Y-84719317D01*
X67771079Y-84721461D01*
X67739843Y-84724159D01*
X67722754Y-84727462D01*
X67717912Y-84731421D01*
X67718247Y-84732298D01*
X67732115Y-84753231D01*
X67755268Y-84786412D01*
X67767246Y-84803193D01*
X67779631Y-84819940D01*
X67790763Y-84834915D01*
X67800712Y-84849594D01*
X67809549Y-84865449D01*
X67817343Y-84883955D01*
X67824165Y-84906585D01*
X67830084Y-84934813D01*
X67835171Y-84970113D01*
X67839496Y-85013958D01*
X67843129Y-85067822D01*
X67846140Y-85133180D01*
X67848599Y-85211504D01*
X67850577Y-85304268D01*
X67852142Y-85412947D01*
X67853366Y-85539013D01*
X67854319Y-85683942D01*
X67855070Y-85849206D01*
X67855689Y-86036279D01*
X67856248Y-86246635D01*
X67856815Y-86481748D01*
X67857345Y-86697741D01*
X67857845Y-86938535D01*
X67858105Y-87168274D01*
X67858132Y-87385493D01*
X67857933Y-87588722D01*
X67857514Y-87776496D01*
X67856882Y-87947345D01*
X67856044Y-88099803D01*
X67855008Y-88232403D01*
X67853780Y-88343676D01*
X67852367Y-88432156D01*
X67850775Y-88496375D01*
X67849013Y-88534865D01*
X67848679Y-88538933D01*
X67836534Y-88632248D01*
X67817573Y-88707190D01*
X67788698Y-88772594D01*
X67746810Y-88837293D01*
X67741571Y-88844352D01*
X67708116Y-88888973D01*
X67341685Y-88888973D01*
X67340946Y-88807479D01*
X67340107Y-88668090D01*
X67339502Y-88510539D01*
X67339095Y-88333691D01*
X67338850Y-88136410D01*
X67338733Y-87917560D01*
X67338705Y-87676007D01*
X67338733Y-87410615D01*
X67338780Y-87120249D01*
X67338810Y-86803773D01*
X67338811Y-86740946D01*
X67338828Y-86421137D01*
X67338888Y-86127661D01*
X67338998Y-85859390D01*
X67339167Y-85615198D01*
X67339403Y-85393957D01*
X67339716Y-85194540D01*
X67340115Y-85015820D01*
X67340607Y-84856671D01*
X67341203Y-84715966D01*
X67341910Y-84592576D01*
X67342737Y-84485376D01*
X67343693Y-84393238D01*
X67344787Y-84315035D01*
X67346027Y-84249641D01*
X67347422Y-84195928D01*
X67348982Y-84152769D01*
X67350714Y-84119037D01*
X67352628Y-84093605D01*
X67354732Y-84075347D01*
X67357034Y-84063134D01*
X67359545Y-84055841D01*
X67359637Y-84055659D01*
X67364808Y-84044518D01*
X67369115Y-84034431D01*
X67373879Y-84025346D01*
X67380422Y-84017212D01*
X67390065Y-84009976D01*
X67404129Y-84003586D01*
X67423937Y-83997989D01*
X67450809Y-83993133D01*
X67486067Y-83988966D01*
X67531032Y-83985436D01*
X67587026Y-83982491D01*
X67655371Y-83980077D01*
X67737386Y-83978144D01*
X67834395Y-83976638D01*
X67947718Y-83975508D01*
X68078677Y-83974702D01*
X68228593Y-83974166D01*
X68398787Y-83973849D01*
X68590582Y-83973699D01*
X68805298Y-83973663D01*
X69044257Y-83973689D01*
G37*
%TO.C,SW2*%
D11*
X21750000Y-80000000D02*
G75*
G02*
X18250000Y-80000000I-1750000J0D01*
G01*
X18250000Y-80000000D02*
G75*
G02*
X21750000Y-80000000I1750000J0D01*
G01*
%TO.C,SW9*%
X43750000Y-81500000D02*
G75*
G02*
X40250000Y-81500000I-1750000J0D01*
G01*
X40250000Y-81500000D02*
G75*
G02*
X43750000Y-81500000I1750000J0D01*
G01*
%TO.C,SW6*%
X65750000Y-80000000D02*
G75*
G02*
X62250000Y-80000000I-1750000J0D01*
G01*
X62250000Y-80000000D02*
G75*
G02*
X65750000Y-80000000I1750000J0D01*
G01*
%TO.C,SW1*%
X21750000Y-60000000D02*
G75*
G02*
X18250000Y-60000000I-1750000J0D01*
G01*
X18250000Y-60000000D02*
G75*
G02*
X21750000Y-60000000I1750000J0D01*
G01*
D12*
%TO.C,LOGO2*%
X74299460Y-81458030D02*
X74342711Y-81471245D01*
X74370558Y-81487941D01*
X74379629Y-81501145D01*
X74377132Y-81516797D01*
X74360931Y-81541385D01*
X74347232Y-81558800D01*
X74318992Y-81590283D01*
X74297775Y-81603529D01*
X74279688Y-81602664D01*
X74226035Y-81589010D01*
X74186630Y-81589630D01*
X74154632Y-81605104D01*
X74143890Y-81614161D01*
X74109505Y-81646027D01*
X74109505Y-82062179D01*
X73971188Y-82062179D01*
X73971188Y-81458614D01*
X74040347Y-81458614D01*
X74081869Y-81460256D01*
X74103291Y-81466087D01*
X74109502Y-81477461D01*
X74109505Y-81477798D01*
X74112439Y-81489713D01*
X74125704Y-81488159D01*
X74144084Y-81479563D01*
X74182046Y-81463568D01*
X74212872Y-81453945D01*
X74252536Y-81451478D01*
X74299460Y-81458030D01*
G36*
X74299460Y-81458030D02*
G01*
X74342711Y-81471245D01*
X74370558Y-81487941D01*
X74379629Y-81501145D01*
X74377132Y-81516797D01*
X74360931Y-81541385D01*
X74347232Y-81558800D01*
X74318992Y-81590283D01*
X74297775Y-81603529D01*
X74279688Y-81602664D01*
X74226035Y-81589010D01*
X74186630Y-81589630D01*
X74154632Y-81605104D01*
X74143890Y-81614161D01*
X74109505Y-81646027D01*
X74109505Y-82062179D01*
X73971188Y-82062179D01*
X73971188Y-81458614D01*
X74040347Y-81458614D01*
X74081869Y-81460256D01*
X74103291Y-81466087D01*
X74109502Y-81477461D01*
X74109505Y-81477798D01*
X74112439Y-81489713D01*
X74125704Y-81488159D01*
X74144084Y-81479563D01*
X74182046Y-81463568D01*
X74212872Y-81453945D01*
X74252536Y-81451478D01*
X74299460Y-81458030D01*
G37*
X74135255Y-82401486D02*
X74183595Y-82411015D01*
X74211114Y-82425125D01*
X74240064Y-82448568D01*
X74198876Y-82500571D01*
X74173482Y-82532064D01*
X74156238Y-82547428D01*
X74139102Y-82549776D01*
X74114027Y-82542217D01*
X74102257Y-82537941D01*
X74054270Y-82531631D01*
X74010324Y-82545156D01*
X73978060Y-82575710D01*
X73972819Y-82585452D01*
X73967112Y-82611258D01*
X73962706Y-82658817D01*
X73959811Y-82724758D01*
X73958631Y-82805710D01*
X73958614Y-82817226D01*
X73958614Y-83017822D01*
X73820297Y-83017822D01*
X73820297Y-82401683D01*
X73889456Y-82401683D01*
X73929333Y-82402725D01*
X73950107Y-82407358D01*
X73957789Y-82417849D01*
X73958614Y-82427745D01*
X73958614Y-82453806D01*
X73991745Y-82427745D01*
X74029735Y-82409965D01*
X74080770Y-82401174D01*
X74135255Y-82401486D01*
G36*
X74135255Y-82401486D02*
G01*
X74183595Y-82411015D01*
X74211114Y-82425125D01*
X74240064Y-82448568D01*
X74198876Y-82500571D01*
X74173482Y-82532064D01*
X74156238Y-82547428D01*
X74139102Y-82549776D01*
X74114027Y-82542217D01*
X74102257Y-82537941D01*
X74054270Y-82531631D01*
X74010324Y-82545156D01*
X73978060Y-82575710D01*
X73972819Y-82585452D01*
X73967112Y-82611258D01*
X73962706Y-82658817D01*
X73959811Y-82724758D01*
X73958631Y-82805710D01*
X73958614Y-82817226D01*
X73958614Y-83017822D01*
X73820297Y-83017822D01*
X73820297Y-82401683D01*
X73889456Y-82401683D01*
X73929333Y-82402725D01*
X73950107Y-82407358D01*
X73957789Y-82417849D01*
X73958614Y-82427745D01*
X73958614Y-82453806D01*
X73991745Y-82427745D01*
X74029735Y-82409965D01*
X74080770Y-82401174D01*
X74135255Y-82401486D01*
G37*
X71506644Y-82403020D02*
X71525461Y-82408660D01*
X71531527Y-82421053D01*
X71531782Y-82426647D01*
X71532871Y-82442230D01*
X71540368Y-82444676D01*
X71560619Y-82433993D01*
X71572649Y-82426694D01*
X71610600Y-82411063D01*
X71655928Y-82403334D01*
X71703456Y-82402740D01*
X71748005Y-82408513D01*
X71784398Y-82419884D01*
X71807457Y-82436088D01*
X71812004Y-82456355D01*
X71809709Y-82461843D01*
X71792980Y-82484626D01*
X71767037Y-82512647D01*
X71762345Y-82517177D01*
X71737617Y-82538005D01*
X71716282Y-82544735D01*
X71686445Y-82540038D01*
X71674492Y-82536917D01*
X71637295Y-82529421D01*
X71611141Y-82532792D01*
X71589054Y-82544681D01*
X71568822Y-82560635D01*
X71553921Y-82580700D01*
X71543566Y-82608702D01*
X71536971Y-82648467D01*
X71533351Y-82703823D01*
X71531922Y-82778594D01*
X71531782Y-82823740D01*
X71531782Y-83017822D01*
X71406040Y-83017822D01*
X71406040Y-82401683D01*
X71468911Y-82401683D01*
X71506644Y-82403020D01*
G36*
X71506644Y-82403020D02*
G01*
X71525461Y-82408660D01*
X71531527Y-82421053D01*
X71531782Y-82426647D01*
X71532871Y-82442230D01*
X71540368Y-82444676D01*
X71560619Y-82433993D01*
X71572649Y-82426694D01*
X71610600Y-82411063D01*
X71655928Y-82403334D01*
X71703456Y-82402740D01*
X71748005Y-82408513D01*
X71784398Y-82419884D01*
X71807457Y-82436088D01*
X71812004Y-82456355D01*
X71809709Y-82461843D01*
X71792980Y-82484626D01*
X71767037Y-82512647D01*
X71762345Y-82517177D01*
X71737617Y-82538005D01*
X71716282Y-82544735D01*
X71686445Y-82540038D01*
X71674492Y-82536917D01*
X71637295Y-82529421D01*
X71611141Y-82532792D01*
X71589054Y-82544681D01*
X71568822Y-82560635D01*
X71553921Y-82580700D01*
X71543566Y-82608702D01*
X71536971Y-82648467D01*
X71533351Y-82703823D01*
X71531922Y-82778594D01*
X71531782Y-82823740D01*
X71531782Y-83017822D01*
X71406040Y-83017822D01*
X71406040Y-82401683D01*
X71468911Y-82401683D01*
X71506644Y-82403020D01*
G37*
X73493367Y-81654342D02*
X73494555Y-81746563D01*
X73498897Y-81816610D01*
X73507558Y-81867381D01*
X73521704Y-81901772D01*
X73542500Y-81922679D01*
X73571110Y-81933000D01*
X73606535Y-81935636D01*
X73643636Y-81932682D01*
X73671818Y-81921889D01*
X73692243Y-81900360D01*
X73706079Y-81865199D01*
X73714491Y-81813510D01*
X73718643Y-81742394D01*
X73719703Y-81654342D01*
X73719703Y-81458614D01*
X73858020Y-81458614D01*
X73858020Y-82062179D01*
X73788862Y-82062179D01*
X73747170Y-82060489D01*
X73725701Y-82054556D01*
X73719703Y-82043293D01*
X73716091Y-82033261D01*
X73701714Y-82035383D01*
X73672736Y-82049580D01*
X73606319Y-82071480D01*
X73535875Y-82069928D01*
X73468377Y-82046147D01*
X73436233Y-82027362D01*
X73411715Y-82007022D01*
X73393804Y-81981573D01*
X73381479Y-81947458D01*
X73373723Y-81901121D01*
X73369516Y-81839007D01*
X73367840Y-81757561D01*
X73367624Y-81694578D01*
X73367624Y-81458614D01*
X73493367Y-81458614D01*
X73493367Y-81654342D01*
G36*
X73493367Y-81654342D02*
G01*
X73494555Y-81746563D01*
X73498897Y-81816610D01*
X73507558Y-81867381D01*
X73521704Y-81901772D01*
X73542500Y-81922679D01*
X73571110Y-81933000D01*
X73606535Y-81935636D01*
X73643636Y-81932682D01*
X73671818Y-81921889D01*
X73692243Y-81900360D01*
X73706079Y-81865199D01*
X73714491Y-81813510D01*
X73718643Y-81742394D01*
X73719703Y-81654342D01*
X73719703Y-81458614D01*
X73858020Y-81458614D01*
X73858020Y-82062179D01*
X73788862Y-82062179D01*
X73747170Y-82060489D01*
X73725701Y-82054556D01*
X73719703Y-82043293D01*
X73716091Y-82033261D01*
X73701714Y-82035383D01*
X73672736Y-82049580D01*
X73606319Y-82071480D01*
X73535875Y-82069928D01*
X73468377Y-82046147D01*
X73436233Y-82027362D01*
X73411715Y-82007022D01*
X73393804Y-81981573D01*
X73381479Y-81947458D01*
X73373723Y-81901121D01*
X73369516Y-81839007D01*
X73367840Y-81757561D01*
X73367624Y-81694578D01*
X73367624Y-81458614D01*
X73493367Y-81458614D01*
X73493367Y-81654342D01*
G37*
X71745988Y-81469002D02*
X71777283Y-81483950D01*
X71807591Y-81505541D01*
X71830682Y-81530391D01*
X71847500Y-81562087D01*
X71858994Y-81604214D01*
X71866109Y-81660358D01*
X71869793Y-81734106D01*
X71870992Y-81829044D01*
X71871011Y-81838985D01*
X71871287Y-82062179D01*
X71732970Y-82062179D01*
X71732970Y-81856418D01*
X71732872Y-81780189D01*
X71732191Y-81724939D01*
X71730349Y-81686501D01*
X71726767Y-81660706D01*
X71720868Y-81643384D01*
X71712073Y-81630368D01*
X71699820Y-81617507D01*
X71656953Y-81589873D01*
X71610157Y-81584745D01*
X71565576Y-81602217D01*
X71550072Y-81615221D01*
X71538690Y-81627447D01*
X71530519Y-81640540D01*
X71525026Y-81658615D01*
X71521680Y-81685787D01*
X71519949Y-81726170D01*
X71519303Y-81783879D01*
X71519208Y-81854132D01*
X71519208Y-82062179D01*
X71380891Y-82062179D01*
X71380891Y-81458614D01*
X71450050Y-81458614D01*
X71491572Y-81460256D01*
X71512994Y-81466087D01*
X71519205Y-81477461D01*
X71519208Y-81477798D01*
X71522090Y-81488938D01*
X71534801Y-81487674D01*
X71560074Y-81475434D01*
X71617395Y-81457424D01*
X71682963Y-81455421D01*
X71745988Y-81469002D01*
G36*
X71745988Y-81469002D02*
G01*
X71777283Y-81483950D01*
X71807591Y-81505541D01*
X71830682Y-81530391D01*
X71847500Y-81562087D01*
X71858994Y-81604214D01*
X71866109Y-81660358D01*
X71869793Y-81734106D01*
X71870992Y-81829044D01*
X71871011Y-81838985D01*
X71871287Y-82062179D01*
X71732970Y-82062179D01*
X71732970Y-81856418D01*
X71732872Y-81780189D01*
X71732191Y-81724939D01*
X71730349Y-81686501D01*
X71726767Y-81660706D01*
X71720868Y-81643384D01*
X71712073Y-81630368D01*
X71699820Y-81617507D01*
X71656953Y-81589873D01*
X71610157Y-81584745D01*
X71565576Y-81602217D01*
X71550072Y-81615221D01*
X71538690Y-81627447D01*
X71530519Y-81640540D01*
X71525026Y-81658615D01*
X71521680Y-81685787D01*
X71519949Y-81726170D01*
X71519303Y-81783879D01*
X71519208Y-81854132D01*
X71519208Y-82062179D01*
X71380891Y-82062179D01*
X71380891Y-81458614D01*
X71450050Y-81458614D01*
X71491572Y-81460256D01*
X71512994Y-81466087D01*
X71519205Y-81477461D01*
X71519208Y-81477798D01*
X71522090Y-81488938D01*
X71534801Y-81487674D01*
X71560074Y-81475434D01*
X71617395Y-81457424D01*
X71682963Y-81455421D01*
X71745988Y-81469002D01*
G37*
X74717226Y-81463880D02*
X74790080Y-81494830D01*
X74813027Y-81509895D01*
X74842354Y-81533048D01*
X74860764Y-81551253D01*
X74863961Y-81557183D01*
X74854935Y-81570340D01*
X74831837Y-81592667D01*
X74813344Y-81608250D01*
X74762728Y-81648926D01*
X74722760Y-81615295D01*
X74691874Y-81593584D01*
X74661759Y-81586090D01*
X74627292Y-81587920D01*
X74572561Y-81601528D01*
X74534886Y-81629772D01*
X74511991Y-81675433D01*
X74501597Y-81741289D01*
X74501595Y-81741331D01*
X74502494Y-81814939D01*
X74516463Y-81868946D01*
X74544328Y-81905716D01*
X74563325Y-81918168D01*
X74613776Y-81933673D01*
X74667663Y-81933683D01*
X74714546Y-81918638D01*
X74725644Y-81911287D01*
X74753476Y-81892511D01*
X74775236Y-81889434D01*
X74798704Y-81903409D01*
X74824649Y-81928510D01*
X74865716Y-81970880D01*
X74820121Y-82008464D01*
X74749674Y-82050882D01*
X74670233Y-82071785D01*
X74587215Y-82070272D01*
X74532694Y-82056411D01*
X74468970Y-82022135D01*
X74418005Y-81968212D01*
X74394851Y-81930149D01*
X74376099Y-81875536D01*
X74366715Y-81806369D01*
X74366643Y-81731407D01*
X74375824Y-81659409D01*
X74394199Y-81599137D01*
X74397093Y-81592958D01*
X74439952Y-81532351D01*
X74497979Y-81488224D01*
X74566591Y-81461493D01*
X74641201Y-81453073D01*
X74717226Y-81463880D01*
G36*
X74717226Y-81463880D02*
G01*
X74790080Y-81494830D01*
X74813027Y-81509895D01*
X74842354Y-81533048D01*
X74860764Y-81551253D01*
X74863961Y-81557183D01*
X74854935Y-81570340D01*
X74831837Y-81592667D01*
X74813344Y-81608250D01*
X74762728Y-81648926D01*
X74722760Y-81615295D01*
X74691874Y-81593584D01*
X74661759Y-81586090D01*
X74627292Y-81587920D01*
X74572561Y-81601528D01*
X74534886Y-81629772D01*
X74511991Y-81675433D01*
X74501597Y-81741289D01*
X74501595Y-81741331D01*
X74502494Y-81814939D01*
X74516463Y-81868946D01*
X74544328Y-81905716D01*
X74563325Y-81918168D01*
X74613776Y-81933673D01*
X74667663Y-81933683D01*
X74714546Y-81918638D01*
X74725644Y-81911287D01*
X74753476Y-81892511D01*
X74775236Y-81889434D01*
X74798704Y-81903409D01*
X74824649Y-81928510D01*
X74865716Y-81970880D01*
X74820121Y-82008464D01*
X74749674Y-82050882D01*
X74670233Y-82071785D01*
X74587215Y-82070272D01*
X74532694Y-82056411D01*
X74468970Y-82022135D01*
X74418005Y-81968212D01*
X74394851Y-81930149D01*
X74376099Y-81875536D01*
X74366715Y-81806369D01*
X74366643Y-81731407D01*
X74375824Y-81659409D01*
X74394199Y-81599137D01*
X74397093Y-81592958D01*
X74439952Y-81532351D01*
X74497979Y-81488224D01*
X74566591Y-81461493D01*
X74641201Y-81453073D01*
X74717226Y-81463880D01*
G37*
X73110762Y-81466055D02*
X73174363Y-81500692D01*
X73224123Y-81555372D01*
X73247568Y-81599842D01*
X73257634Y-81639121D01*
X73264156Y-81695116D01*
X73266951Y-81759621D01*
X73265836Y-81824429D01*
X73260626Y-81881334D01*
X73254541Y-81911727D01*
X73234014Y-81953306D01*
X73198463Y-81997468D01*
X73155619Y-82036087D01*
X73113211Y-82061034D01*
X73112177Y-82061430D01*
X73059553Y-82072331D01*
X72997188Y-82072601D01*
X72937924Y-82062676D01*
X72915040Y-82054722D01*
X72856102Y-82021300D01*
X72813890Y-81977511D01*
X72786156Y-81919538D01*
X72770651Y-81843565D01*
X72767143Y-81803771D01*
X72767590Y-81753766D01*
X72902376Y-81753766D01*
X72906917Y-81826732D01*
X72919986Y-81882334D01*
X72940756Y-81917861D01*
X72955552Y-81928020D01*
X72993464Y-81935104D01*
X73038527Y-81933007D01*
X73077487Y-81922812D01*
X73087704Y-81917204D01*
X73114659Y-81884538D01*
X73132451Y-81834545D01*
X73140024Y-81773705D01*
X73136325Y-81708497D01*
X73128057Y-81669253D01*
X73104320Y-81623805D01*
X73066849Y-81595396D01*
X73021720Y-81585573D01*
X72975011Y-81595887D01*
X72939132Y-81621112D01*
X72920277Y-81641925D01*
X72909272Y-81662439D01*
X72904026Y-81690203D01*
X72902449Y-81732762D01*
X72902376Y-81753766D01*
X72767590Y-81753766D01*
X72768094Y-81697580D01*
X72785388Y-81610501D01*
X72819029Y-81542530D01*
X72869018Y-81493664D01*
X72935356Y-81463899D01*
X72949601Y-81460448D01*
X73035210Y-81452345D01*
X73110762Y-81466055D01*
G36*
X73110762Y-81466055D02*
G01*
X73174363Y-81500692D01*
X73224123Y-81555372D01*
X73247568Y-81599842D01*
X73257634Y-81639121D01*
X73264156Y-81695116D01*
X73266951Y-81759621D01*
X73265836Y-81824429D01*
X73260626Y-81881334D01*
X73254541Y-81911727D01*
X73234014Y-81953306D01*
X73198463Y-81997468D01*
X73155619Y-82036087D01*
X73113211Y-82061034D01*
X73112177Y-82061430D01*
X73059553Y-82072331D01*
X72997188Y-82072601D01*
X72937924Y-82062676D01*
X72915040Y-82054722D01*
X72856102Y-82021300D01*
X72813890Y-81977511D01*
X72786156Y-81919538D01*
X72770651Y-81843565D01*
X72767143Y-81803771D01*
X72767590Y-81753766D01*
X72902376Y-81753766D01*
X72906917Y-81826732D01*
X72919986Y-81882334D01*
X72940756Y-81917861D01*
X72955552Y-81928020D01*
X72993464Y-81935104D01*
X73038527Y-81933007D01*
X73077487Y-81922812D01*
X73087704Y-81917204D01*
X73114659Y-81884538D01*
X73132451Y-81834545D01*
X73140024Y-81773705D01*
X73136325Y-81708497D01*
X73128057Y-81669253D01*
X73104320Y-81623805D01*
X73066849Y-81595396D01*
X73021720Y-81585573D01*
X72975011Y-81595887D01*
X72939132Y-81621112D01*
X72920277Y-81641925D01*
X72909272Y-81662439D01*
X72904026Y-81690203D01*
X72902449Y-81732762D01*
X72902376Y-81753766D01*
X72767590Y-81753766D01*
X72768094Y-81697580D01*
X72785388Y-81610501D01*
X72819029Y-81542530D01*
X72869018Y-81493664D01*
X72935356Y-81463899D01*
X72949601Y-81460448D01*
X73035210Y-81452345D01*
X73110762Y-81466055D01*
G37*
X72781524Y-82404237D02*
X72831255Y-82407971D01*
X72961291Y-82797773D01*
X72981678Y-82728614D01*
X72993946Y-82685874D01*
X73010085Y-82628115D01*
X73027512Y-82564625D01*
X73036726Y-82530570D01*
X73071388Y-82401683D01*
X73214391Y-82401683D01*
X73171646Y-82536857D01*
X73150596Y-82603342D01*
X73125167Y-82683539D01*
X73098610Y-82767193D01*
X73074902Y-82841782D01*
X73020902Y-83011535D01*
X72962598Y-83015328D01*
X72904295Y-83019122D01*
X72872679Y-82914734D01*
X72853182Y-82849889D01*
X72831904Y-82778400D01*
X72813308Y-82715263D01*
X72812574Y-82712750D01*
X72798684Y-82669969D01*
X72786429Y-82640779D01*
X72777846Y-82629741D01*
X72776082Y-82631018D01*
X72769891Y-82648130D01*
X72758128Y-82684787D01*
X72742225Y-82736378D01*
X72723614Y-82798294D01*
X72713543Y-82832352D01*
X72659007Y-83017822D01*
X72543264Y-83017822D01*
X72450737Y-82725471D01*
X72424744Y-82643462D01*
X72401066Y-82568987D01*
X72380820Y-82505544D01*
X72365126Y-82456632D01*
X72355102Y-82425749D01*
X72352055Y-82416726D01*
X72354467Y-82407487D01*
X72373408Y-82403441D01*
X72412823Y-82403846D01*
X72418993Y-82404152D01*
X72492086Y-82407971D01*
X72539957Y-82584010D01*
X72557553Y-82648211D01*
X72573277Y-82704649D01*
X72585746Y-82748422D01*
X72593574Y-82774630D01*
X72595020Y-82778903D01*
X72601014Y-82773990D01*
X72613101Y-82748532D01*
X72629893Y-82705997D01*
X72650003Y-82649850D01*
X72667003Y-82599130D01*
X72731794Y-82400504D01*
X72781524Y-82404237D01*
G36*
X72781524Y-82404237D02*
G01*
X72831255Y-82407971D01*
X72961291Y-82797773D01*
X72981678Y-82728614D01*
X72993946Y-82685874D01*
X73010085Y-82628115D01*
X73027512Y-82564625D01*
X73036726Y-82530570D01*
X73071388Y-82401683D01*
X73214391Y-82401683D01*
X73171646Y-82536857D01*
X73150596Y-82603342D01*
X73125167Y-82683539D01*
X73098610Y-82767193D01*
X73074902Y-82841782D01*
X73020902Y-83011535D01*
X72962598Y-83015328D01*
X72904295Y-83019122D01*
X72872679Y-82914734D01*
X72853182Y-82849889D01*
X72831904Y-82778400D01*
X72813308Y-82715263D01*
X72812574Y-82712750D01*
X72798684Y-82669969D01*
X72786429Y-82640779D01*
X72777846Y-82629741D01*
X72776082Y-82631018D01*
X72769891Y-82648130D01*
X72758128Y-82684787D01*
X72742225Y-82736378D01*
X72723614Y-82798294D01*
X72713543Y-82832352D01*
X72659007Y-83017822D01*
X72543264Y-83017822D01*
X72450737Y-82725471D01*
X72424744Y-82643462D01*
X72401066Y-82568987D01*
X72380820Y-82505544D01*
X72365126Y-82456632D01*
X72355102Y-82425749D01*
X72352055Y-82416726D01*
X72354467Y-82407487D01*
X72373408Y-82403441D01*
X72412823Y-82403846D01*
X72418993Y-82404152D01*
X72492086Y-82407971D01*
X72539957Y-82584010D01*
X72557553Y-82648211D01*
X72573277Y-82704649D01*
X72585746Y-82748422D01*
X72593574Y-82774630D01*
X72595020Y-82778903D01*
X72601014Y-82773990D01*
X72613101Y-82748532D01*
X72629893Y-82705997D01*
X72650003Y-82649850D01*
X72667003Y-82599130D01*
X72731794Y-82400504D01*
X72781524Y-82404237D01*
G37*
X69961739Y-81465148D02*
X70027521Y-81494231D01*
X70077460Y-81542793D01*
X70111626Y-81610908D01*
X70130093Y-81698651D01*
X70131417Y-81712351D01*
X70132454Y-81808939D01*
X70119007Y-81893602D01*
X70091892Y-81962221D01*
X70077373Y-81984294D01*
X70026799Y-82031011D01*
X69962391Y-82061268D01*
X69890334Y-82073824D01*
X69816815Y-82067439D01*
X69760928Y-82047772D01*
X69712868Y-82014629D01*
X69673588Y-81971175D01*
X69672908Y-81970158D01*
X69656956Y-81943338D01*
X69646590Y-81916368D01*
X69640312Y-81882332D01*
X69636627Y-81834310D01*
X69635003Y-81794931D01*
X69634328Y-81759219D01*
X69760045Y-81759219D01*
X69761274Y-81794770D01*
X69765734Y-81842094D01*
X69773603Y-81872465D01*
X69787793Y-81894072D01*
X69801083Y-81906694D01*
X69848198Y-81933122D01*
X69897495Y-81936653D01*
X69943407Y-81917639D01*
X69966362Y-81896331D01*
X69982904Y-81874859D01*
X69992579Y-81854313D01*
X69996826Y-81827574D01*
X69997080Y-81787523D01*
X69995772Y-81750638D01*
X69992957Y-81697947D01*
X69988495Y-81663772D01*
X69980452Y-81641480D01*
X69966897Y-81624442D01*
X69956155Y-81614703D01*
X69911223Y-81589123D01*
X69862751Y-81587847D01*
X69822106Y-81602999D01*
X69787433Y-81634642D01*
X69766776Y-81686620D01*
X69760045Y-81759219D01*
X69634328Y-81759219D01*
X69633521Y-81716621D01*
X69636052Y-81658056D01*
X69643638Y-81614007D01*
X69657319Y-81579248D01*
X69678135Y-81548551D01*
X69685853Y-81539436D01*
X69734111Y-81494021D01*
X69785872Y-81467493D01*
X69849172Y-81456379D01*
X69880039Y-81455471D01*
X69961739Y-81465148D01*
G36*
X69961739Y-81465148D02*
G01*
X70027521Y-81494231D01*
X70077460Y-81542793D01*
X70111626Y-81610908D01*
X70130093Y-81698651D01*
X70131417Y-81712351D01*
X70132454Y-81808939D01*
X70119007Y-81893602D01*
X70091892Y-81962221D01*
X70077373Y-81984294D01*
X70026799Y-82031011D01*
X69962391Y-82061268D01*
X69890334Y-82073824D01*
X69816815Y-82067439D01*
X69760928Y-82047772D01*
X69712868Y-82014629D01*
X69673588Y-81971175D01*
X69672908Y-81970158D01*
X69656956Y-81943338D01*
X69646590Y-81916368D01*
X69640312Y-81882332D01*
X69636627Y-81834310D01*
X69635003Y-81794931D01*
X69634328Y-81759219D01*
X69760045Y-81759219D01*
X69761274Y-81794770D01*
X69765734Y-81842094D01*
X69773603Y-81872465D01*
X69787793Y-81894072D01*
X69801083Y-81906694D01*
X69848198Y-81933122D01*
X69897495Y-81936653D01*
X69943407Y-81917639D01*
X69966362Y-81896331D01*
X69982904Y-81874859D01*
X69992579Y-81854313D01*
X69996826Y-81827574D01*
X69997080Y-81787523D01*
X69995772Y-81750638D01*
X69992957Y-81697947D01*
X69988495Y-81663772D01*
X69980452Y-81641480D01*
X69966897Y-81624442D01*
X69956155Y-81614703D01*
X69911223Y-81589123D01*
X69862751Y-81587847D01*
X69822106Y-81602999D01*
X69787433Y-81634642D01*
X69766776Y-81686620D01*
X69760045Y-81759219D01*
X69634328Y-81759219D01*
X69633521Y-81716621D01*
X69636052Y-81658056D01*
X69643638Y-81614007D01*
X69657319Y-81579248D01*
X69678135Y-81548551D01*
X69685853Y-81539436D01*
X69734111Y-81494021D01*
X69785872Y-81467493D01*
X69849172Y-81456379D01*
X69880039Y-81455471D01*
X69961739Y-81465148D01*
G37*
X72298812Y-83017822D02*
X72229654Y-83017822D01*
X72189512Y-83016645D01*
X72168606Y-83011772D01*
X72161078Y-83001186D01*
X72160495Y-82994029D01*
X72159226Y-82979676D01*
X72151221Y-82976923D01*
X72130185Y-82985771D01*
X72113827Y-82994029D01*
X72051023Y-83013597D01*
X71982752Y-83014729D01*
X71927248Y-83000135D01*
X71875562Y-82964877D01*
X71836162Y-82912835D01*
X71814587Y-82851450D01*
X71814038Y-82848018D01*
X71810833Y-82810571D01*
X71809239Y-82756813D01*
X71809367Y-82716155D01*
X71946721Y-82716155D01*
X71949903Y-82770194D01*
X71957141Y-82814735D01*
X71966940Y-82839888D01*
X72004011Y-82874260D01*
X72048026Y-82886582D01*
X72093416Y-82876618D01*
X72132203Y-82846895D01*
X72146892Y-82826905D01*
X72155481Y-82803050D01*
X72159504Y-82768230D01*
X72160495Y-82715930D01*
X72158722Y-82664139D01*
X72154037Y-82618634D01*
X72147397Y-82588181D01*
X72146290Y-82585452D01*
X72119509Y-82553000D01*
X72080421Y-82535183D01*
X72036685Y-82532306D01*
X71995962Y-82544674D01*
X71965913Y-82572593D01*
X71962796Y-82578148D01*
X71953039Y-82612022D01*
X71947723Y-82660728D01*
X71946721Y-82716155D01*
X71809367Y-82716155D01*
X71809432Y-82695540D01*
X71810336Y-82662563D01*
X71816486Y-82580981D01*
X71829267Y-82519730D01*
X71850529Y-82474449D01*
X71882122Y-82440779D01*
X71912793Y-82421014D01*
X71955646Y-82407120D01*
X72008944Y-82402354D01*
X72063520Y-82406236D01*
X72110208Y-82418282D01*
X72134876Y-82432693D01*
X72160495Y-82455878D01*
X72160495Y-82162773D01*
X72298812Y-82162773D01*
X72298812Y-83017822D01*
G36*
X72298812Y-83017822D02*
G01*
X72229654Y-83017822D01*
X72189512Y-83016645D01*
X72168606Y-83011772D01*
X72161078Y-83001186D01*
X72160495Y-82994029D01*
X72159226Y-82979676D01*
X72151221Y-82976923D01*
X72130185Y-82985771D01*
X72113827Y-82994029D01*
X72051023Y-83013597D01*
X71982752Y-83014729D01*
X71927248Y-83000135D01*
X71875562Y-82964877D01*
X71836162Y-82912835D01*
X71814587Y-82851450D01*
X71814038Y-82848018D01*
X71810833Y-82810571D01*
X71809239Y-82756813D01*
X71809367Y-82716155D01*
X71946721Y-82716155D01*
X71949903Y-82770194D01*
X71957141Y-82814735D01*
X71966940Y-82839888D01*
X72004011Y-82874260D01*
X72048026Y-82886582D01*
X72093416Y-82876618D01*
X72132203Y-82846895D01*
X72146892Y-82826905D01*
X72155481Y-82803050D01*
X72159504Y-82768230D01*
X72160495Y-82715930D01*
X72158722Y-82664139D01*
X72154037Y-82618634D01*
X72147397Y-82588181D01*
X72146290Y-82585452D01*
X72119509Y-82553000D01*
X72080421Y-82535183D01*
X72036685Y-82532306D01*
X71995962Y-82544674D01*
X71965913Y-82572593D01*
X71962796Y-82578148D01*
X71953039Y-82612022D01*
X71947723Y-82660728D01*
X71946721Y-82716155D01*
X71809367Y-82716155D01*
X71809432Y-82695540D01*
X71810336Y-82662563D01*
X71816486Y-82580981D01*
X71829267Y-82519730D01*
X71850529Y-82474449D01*
X71882122Y-82440779D01*
X71912793Y-82421014D01*
X71955646Y-82407120D01*
X72008944Y-82402354D01*
X72063520Y-82406236D01*
X72110208Y-82418282D01*
X72134876Y-82432693D01*
X72160495Y-82455878D01*
X72160495Y-82162773D01*
X72298812Y-82162773D01*
X72298812Y-83017822D01*
G37*
X75177898Y-81456457D02*
X75210096Y-81464279D01*
X75271825Y-81492921D01*
X75324610Y-81536667D01*
X75361141Y-81589117D01*
X75366160Y-81600893D01*
X75373045Y-81631740D01*
X75377864Y-81677371D01*
X75379505Y-81723492D01*
X75379505Y-81810693D01*
X75197178Y-81810693D01*
X75121979Y-81810978D01*
X75069003Y-81812704D01*
X75035325Y-81817181D01*
X75018020Y-81825720D01*
X75014163Y-81839630D01*
X75020829Y-81860222D01*
X75032770Y-81884315D01*
X75066080Y-81924525D01*
X75112368Y-81944558D01*
X75168944Y-81943905D01*
X75233031Y-81922101D01*
X75288417Y-81895193D01*
X75334375Y-81931532D01*
X75380333Y-81967872D01*
X75337096Y-82007819D01*
X75279374Y-82045563D01*
X75208386Y-82068320D01*
X75132029Y-82074688D01*
X75058199Y-82063268D01*
X75046287Y-82059393D01*
X74981399Y-82025506D01*
X74933130Y-81974986D01*
X74900465Y-81906325D01*
X74882385Y-81818014D01*
X74882175Y-81816121D01*
X74880556Y-81719878D01*
X74887100Y-81685542D01*
X75014852Y-81685542D01*
X75026584Y-81690822D01*
X75058438Y-81694867D01*
X75105397Y-81697176D01*
X75135154Y-81697525D01*
X75190648Y-81697306D01*
X75225346Y-81695916D01*
X75243601Y-81692251D01*
X75249766Y-81685210D01*
X75248195Y-81673690D01*
X75246878Y-81669233D01*
X75224382Y-81627355D01*
X75189003Y-81593604D01*
X75157780Y-81578773D01*
X75116301Y-81579668D01*
X75074269Y-81598164D01*
X75039012Y-81628786D01*
X75017854Y-81666062D01*
X75014852Y-81685542D01*
X74887100Y-81685542D01*
X74896690Y-81635229D01*
X74928698Y-81564191D01*
X74974701Y-81508779D01*
X75032821Y-81471009D01*
X75101180Y-81452896D01*
X75177898Y-81456457D01*
G36*
X75177898Y-81456457D02*
G01*
X75210096Y-81464279D01*
X75271825Y-81492921D01*
X75324610Y-81536667D01*
X75361141Y-81589117D01*
X75366160Y-81600893D01*
X75373045Y-81631740D01*
X75377864Y-81677371D01*
X75379505Y-81723492D01*
X75379505Y-81810693D01*
X75197178Y-81810693D01*
X75121979Y-81810978D01*
X75069003Y-81812704D01*
X75035325Y-81817181D01*
X75018020Y-81825720D01*
X75014163Y-81839630D01*
X75020829Y-81860222D01*
X75032770Y-81884315D01*
X75066080Y-81924525D01*
X75112368Y-81944558D01*
X75168944Y-81943905D01*
X75233031Y-81922101D01*
X75288417Y-81895193D01*
X75334375Y-81931532D01*
X75380333Y-81967872D01*
X75337096Y-82007819D01*
X75279374Y-82045563D01*
X75208386Y-82068320D01*
X75132029Y-82074688D01*
X75058199Y-82063268D01*
X75046287Y-82059393D01*
X74981399Y-82025506D01*
X74933130Y-81974986D01*
X74900465Y-81906325D01*
X74882385Y-81818014D01*
X74882175Y-81816121D01*
X74880556Y-81719878D01*
X74887100Y-81685542D01*
X75014852Y-81685542D01*
X75026584Y-81690822D01*
X75058438Y-81694867D01*
X75105397Y-81697176D01*
X75135154Y-81697525D01*
X75190648Y-81697306D01*
X75225346Y-81695916D01*
X75243601Y-81692251D01*
X75249766Y-81685210D01*
X75248195Y-81673690D01*
X75246878Y-81669233D01*
X75224382Y-81627355D01*
X75189003Y-81593604D01*
X75157780Y-81578773D01*
X75116301Y-81579668D01*
X75074269Y-81598164D01*
X75039012Y-81628786D01*
X75017854Y-81666062D01*
X75014852Y-81685542D01*
X74887100Y-81685542D01*
X74896690Y-81635229D01*
X74928698Y-81564191D01*
X74974701Y-81508779D01*
X75032821Y-81471009D01*
X75101180Y-81452896D01*
X75177898Y-81456457D01*
G37*
X72514017Y-81456452D02*
X72561634Y-81465482D01*
X72611034Y-81484370D01*
X72616312Y-81486777D01*
X72653774Y-81506476D01*
X72679717Y-81524781D01*
X72688103Y-81536508D01*
X72680117Y-81555632D01*
X72660720Y-81583850D01*
X72652110Y-81594384D01*
X72616628Y-81635847D01*
X72570885Y-81608858D01*
X72527350Y-81590878D01*
X72477050Y-81581267D01*
X72428812Y-81580660D01*
X72391467Y-81589691D01*
X72382505Y-81595327D01*
X72365437Y-81621171D01*
X72363363Y-81650941D01*
X72376134Y-81674197D01*
X72383688Y-81678708D01*
X72406325Y-81684309D01*
X72446115Y-81690892D01*
X72495166Y-81697183D01*
X72504215Y-81698170D01*
X72582996Y-81711798D01*
X72640136Y-81734946D01*
X72678030Y-81769752D01*
X72699079Y-81818354D01*
X72705635Y-81877718D01*
X72696577Y-81945198D01*
X72667164Y-81998188D01*
X72617278Y-82036783D01*
X72546800Y-82061081D01*
X72468565Y-82070667D01*
X72404766Y-82070552D01*
X72353016Y-82061845D01*
X72317673Y-82049825D01*
X72273017Y-82028880D01*
X72231747Y-82004574D01*
X72217079Y-81993876D01*
X72179357Y-81963084D01*
X72224852Y-81917049D01*
X72270347Y-81871013D01*
X72322072Y-81905243D01*
X72373952Y-81930952D01*
X72429351Y-81944399D01*
X72482605Y-81945818D01*
X72528049Y-81935443D01*
X72560016Y-81913507D01*
X72570338Y-81894998D01*
X72568789Y-81865314D01*
X72543140Y-81842615D01*
X72493460Y-81826940D01*
X72439031Y-81819695D01*
X72355264Y-81805873D01*
X72293033Y-81779796D01*
X72251507Y-81740699D01*
X72229853Y-81687820D01*
X72226853Y-81625126D01*
X72241671Y-81559642D01*
X72275454Y-81510144D01*
X72328505Y-81476408D01*
X72401126Y-81458207D01*
X72454928Y-81454639D01*
X72514017Y-81456452D01*
G36*
X72514017Y-81456452D02*
G01*
X72561634Y-81465482D01*
X72611034Y-81484370D01*
X72616312Y-81486777D01*
X72653774Y-81506476D01*
X72679717Y-81524781D01*
X72688103Y-81536508D01*
X72680117Y-81555632D01*
X72660720Y-81583850D01*
X72652110Y-81594384D01*
X72616628Y-81635847D01*
X72570885Y-81608858D01*
X72527350Y-81590878D01*
X72477050Y-81581267D01*
X72428812Y-81580660D01*
X72391467Y-81589691D01*
X72382505Y-81595327D01*
X72365437Y-81621171D01*
X72363363Y-81650941D01*
X72376134Y-81674197D01*
X72383688Y-81678708D01*
X72406325Y-81684309D01*
X72446115Y-81690892D01*
X72495166Y-81697183D01*
X72504215Y-81698170D01*
X72582996Y-81711798D01*
X72640136Y-81734946D01*
X72678030Y-81769752D01*
X72699079Y-81818354D01*
X72705635Y-81877718D01*
X72696577Y-81945198D01*
X72667164Y-81998188D01*
X72617278Y-82036783D01*
X72546800Y-82061081D01*
X72468565Y-82070667D01*
X72404766Y-82070552D01*
X72353016Y-82061845D01*
X72317673Y-82049825D01*
X72273017Y-82028880D01*
X72231747Y-82004574D01*
X72217079Y-81993876D01*
X72179357Y-81963084D01*
X72224852Y-81917049D01*
X72270347Y-81871013D01*
X72322072Y-81905243D01*
X72373952Y-81930952D01*
X72429351Y-81944399D01*
X72482605Y-81945818D01*
X72528049Y-81935443D01*
X72560016Y-81913507D01*
X72570338Y-81894998D01*
X72568789Y-81865314D01*
X72543140Y-81842615D01*
X72493460Y-81826940D01*
X72439031Y-81819695D01*
X72355264Y-81805873D01*
X72293033Y-81779796D01*
X72251507Y-81740699D01*
X72229853Y-81687820D01*
X72226853Y-81625126D01*
X72241671Y-81559642D01*
X72275454Y-81510144D01*
X72328505Y-81476408D01*
X72401126Y-81458207D01*
X72454928Y-81454639D01*
X72514017Y-81456452D01*
G37*
X74532581Y-82404970D02*
X74592685Y-82420597D01*
X74643021Y-82452848D01*
X74667393Y-82476940D01*
X74707345Y-82533895D01*
X74730242Y-82599965D01*
X74738108Y-82681182D01*
X74738148Y-82687748D01*
X74738218Y-82753763D01*
X74358264Y-82753763D01*
X74366363Y-82788342D01*
X74380987Y-82819659D01*
X74406581Y-82852291D01*
X74411935Y-82857500D01*
X74457943Y-82885694D01*
X74510410Y-82890475D01*
X74570803Y-82871926D01*
X74581040Y-82866931D01*
X74612439Y-82851745D01*
X74633470Y-82843094D01*
X74637139Y-82842293D01*
X74649948Y-82850063D01*
X74674378Y-82869072D01*
X74686779Y-82879460D01*
X74712476Y-82903321D01*
X74720915Y-82919077D01*
X74715058Y-82933571D01*
X74711928Y-82937534D01*
X74690725Y-82954879D01*
X74655738Y-82975959D01*
X74631337Y-82988265D01*
X74562072Y-83009946D01*
X74485388Y-83016971D01*
X74412765Y-83008647D01*
X74392426Y-83002686D01*
X74329476Y-82968952D01*
X74282815Y-82917045D01*
X74252173Y-82846459D01*
X74237282Y-82756692D01*
X74235647Y-82709753D01*
X74240421Y-82641413D01*
X74360990Y-82641413D01*
X74372652Y-82646465D01*
X74403998Y-82650429D01*
X74449571Y-82652768D01*
X74480446Y-82653169D01*
X74535981Y-82652783D01*
X74571033Y-82650975D01*
X74590262Y-82646773D01*
X74598330Y-82639203D01*
X74599901Y-82628218D01*
X74589121Y-82594381D01*
X74561980Y-82560940D01*
X74526277Y-82535272D01*
X74490560Y-82524772D01*
X74442048Y-82534086D01*
X74400053Y-82561013D01*
X74370936Y-82599827D01*
X74360990Y-82641413D01*
X74240421Y-82641413D01*
X74242599Y-82610236D01*
X74264055Y-82530949D01*
X74300470Y-82471263D01*
X74352297Y-82430549D01*
X74419990Y-82408179D01*
X74456662Y-82403871D01*
X74532581Y-82404970D01*
G36*
X74532581Y-82404970D02*
G01*
X74592685Y-82420597D01*
X74643021Y-82452848D01*
X74667393Y-82476940D01*
X74707345Y-82533895D01*
X74730242Y-82599965D01*
X74738108Y-82681182D01*
X74738148Y-82687748D01*
X74738218Y-82753763D01*
X74358264Y-82753763D01*
X74366363Y-82788342D01*
X74380987Y-82819659D01*
X74406581Y-82852291D01*
X74411935Y-82857500D01*
X74457943Y-82885694D01*
X74510410Y-82890475D01*
X74570803Y-82871926D01*
X74581040Y-82866931D01*
X74612439Y-82851745D01*
X74633470Y-82843094D01*
X74637139Y-82842293D01*
X74649948Y-82850063D01*
X74674378Y-82869072D01*
X74686779Y-82879460D01*
X74712476Y-82903321D01*
X74720915Y-82919077D01*
X74715058Y-82933571D01*
X74711928Y-82937534D01*
X74690725Y-82954879D01*
X74655738Y-82975959D01*
X74631337Y-82988265D01*
X74562072Y-83009946D01*
X74485388Y-83016971D01*
X74412765Y-83008647D01*
X74392426Y-83002686D01*
X74329476Y-82968952D01*
X74282815Y-82917045D01*
X74252173Y-82846459D01*
X74237282Y-82756692D01*
X74235647Y-82709753D01*
X74240421Y-82641413D01*
X74360990Y-82641413D01*
X74372652Y-82646465D01*
X74403998Y-82650429D01*
X74449571Y-82652768D01*
X74480446Y-82653169D01*
X74535981Y-82652783D01*
X74571033Y-82650975D01*
X74590262Y-82646773D01*
X74598330Y-82639203D01*
X74599901Y-82628218D01*
X74589121Y-82594381D01*
X74561980Y-82560940D01*
X74526277Y-82535272D01*
X74490560Y-82524772D01*
X74442048Y-82534086D01*
X74400053Y-82561013D01*
X74370936Y-82599827D01*
X74360990Y-82641413D01*
X74240421Y-82641413D01*
X74242599Y-82610236D01*
X74264055Y-82530949D01*
X74300470Y-82471263D01*
X74352297Y-82430549D01*
X74419990Y-82408179D01*
X74456662Y-82403871D01*
X74532581Y-82404970D01*
G37*
X71143301Y-81472614D02*
X71155832Y-81478514D01*
X71199201Y-81510283D01*
X71240210Y-81556646D01*
X71270832Y-81607696D01*
X71279541Y-81631166D01*
X71287488Y-81673091D01*
X71292226Y-81723757D01*
X71292801Y-81744679D01*
X71292871Y-81810693D01*
X70912917Y-81810693D01*
X70921017Y-81845273D01*
X70940896Y-81886170D01*
X70975653Y-81921514D01*
X71017002Y-81944282D01*
X71043351Y-81949010D01*
X71079084Y-81943273D01*
X71121718Y-81928882D01*
X71136201Y-81922262D01*
X71189760Y-81895513D01*
X71235467Y-81930376D01*
X71261842Y-81953955D01*
X71275876Y-81973417D01*
X71276586Y-81979129D01*
X71264049Y-81992973D01*
X71236572Y-82014012D01*
X71211634Y-82030425D01*
X71144336Y-82059930D01*
X71068890Y-82073284D01*
X70994112Y-82069812D01*
X70934505Y-82051663D01*
X70873059Y-82012784D01*
X70829392Y-81961595D01*
X70802074Y-81895367D01*
X70789678Y-81811371D01*
X70788579Y-81772936D01*
X70792978Y-81684861D01*
X70793518Y-81682299D01*
X70919418Y-81682299D01*
X70922885Y-81690558D01*
X70937137Y-81695113D01*
X70966530Y-81697065D01*
X71015425Y-81697517D01*
X71034252Y-81697525D01*
X71091533Y-81696843D01*
X71127859Y-81694364D01*
X71147396Y-81689443D01*
X71154310Y-81681434D01*
X71154555Y-81678862D01*
X71146664Y-81658423D01*
X71126915Y-81629789D01*
X71118425Y-81619763D01*
X71086906Y-81591408D01*
X71054051Y-81580259D01*
X71036349Y-81579327D01*
X70988461Y-81590981D01*
X70948301Y-81622285D01*
X70922827Y-81667752D01*
X70922375Y-81669233D01*
X70919418Y-81682299D01*
X70793518Y-81682299D01*
X70807608Y-81615510D01*
X70833962Y-81560025D01*
X70866193Y-81520639D01*
X70925783Y-81477931D01*
X70995832Y-81455109D01*
X71070339Y-81453046D01*
X71143301Y-81472614D01*
G36*
X71143301Y-81472614D02*
G01*
X71155832Y-81478514D01*
X71199201Y-81510283D01*
X71240210Y-81556646D01*
X71270832Y-81607696D01*
X71279541Y-81631166D01*
X71287488Y-81673091D01*
X71292226Y-81723757D01*
X71292801Y-81744679D01*
X71292871Y-81810693D01*
X70912917Y-81810693D01*
X70921017Y-81845273D01*
X70940896Y-81886170D01*
X70975653Y-81921514D01*
X71017002Y-81944282D01*
X71043351Y-81949010D01*
X71079084Y-81943273D01*
X71121718Y-81928882D01*
X71136201Y-81922262D01*
X71189760Y-81895513D01*
X71235467Y-81930376D01*
X71261842Y-81953955D01*
X71275876Y-81973417D01*
X71276586Y-81979129D01*
X71264049Y-81992973D01*
X71236572Y-82014012D01*
X71211634Y-82030425D01*
X71144336Y-82059930D01*
X71068890Y-82073284D01*
X70994112Y-82069812D01*
X70934505Y-82051663D01*
X70873059Y-82012784D01*
X70829392Y-81961595D01*
X70802074Y-81895367D01*
X70789678Y-81811371D01*
X70788579Y-81772936D01*
X70792978Y-81684861D01*
X70793518Y-81682299D01*
X70919418Y-81682299D01*
X70922885Y-81690558D01*
X70937137Y-81695113D01*
X70966530Y-81697065D01*
X71015425Y-81697517D01*
X71034252Y-81697525D01*
X71091533Y-81696843D01*
X71127859Y-81694364D01*
X71147396Y-81689443D01*
X71154310Y-81681434D01*
X71154555Y-81678862D01*
X71146664Y-81658423D01*
X71126915Y-81629789D01*
X71118425Y-81619763D01*
X71086906Y-81591408D01*
X71054051Y-81580259D01*
X71036349Y-81579327D01*
X70988461Y-81590981D01*
X70948301Y-81622285D01*
X70922827Y-81667752D01*
X70922375Y-81669233D01*
X70919418Y-81682299D01*
X70793518Y-81682299D01*
X70807608Y-81615510D01*
X70833962Y-81560025D01*
X70866193Y-81520639D01*
X70925783Y-81477931D01*
X70995832Y-81455109D01*
X71070339Y-81453046D01*
X71143301Y-81472614D01*
G37*
X73538411Y-82405417D02*
X73591411Y-82418290D01*
X73606731Y-82425110D01*
X73636428Y-82442974D01*
X73659220Y-82463093D01*
X73676083Y-82488962D01*
X73687998Y-82524073D01*
X73695942Y-82571920D01*
X73700894Y-82635996D01*
X73703831Y-82719794D01*
X73704947Y-82775768D01*
X73709052Y-83017822D01*
X73638932Y-83017822D01*
X73596393Y-83016038D01*
X73574476Y-83009942D01*
X73568812Y-82999706D01*
X73565821Y-82988637D01*
X73552451Y-82990754D01*
X73534233Y-82999629D01*
X73488624Y-83013233D01*
X73430007Y-83016899D01*
X73368354Y-83010903D01*
X73313638Y-82995521D01*
X73308730Y-82993386D01*
X73258723Y-82958255D01*
X73225756Y-82909419D01*
X73210587Y-82852333D01*
X73211746Y-82831824D01*
X73335508Y-82831824D01*
X73346413Y-82859425D01*
X73378745Y-82879204D01*
X73430910Y-82889819D01*
X73458787Y-82891228D01*
X73505247Y-82887620D01*
X73536129Y-82873597D01*
X73543664Y-82866931D01*
X73564076Y-82830666D01*
X73568812Y-82797773D01*
X73568812Y-82753763D01*
X73507513Y-82753763D01*
X73436256Y-82757395D01*
X73386276Y-82768818D01*
X73354696Y-82788824D01*
X73347626Y-82797743D01*
X73335508Y-82831824D01*
X73211746Y-82831824D01*
X73213971Y-82792456D01*
X73236663Y-82735244D01*
X73267624Y-82696580D01*
X73286376Y-82679864D01*
X73304733Y-82668878D01*
X73328619Y-82662180D01*
X73363957Y-82658326D01*
X73416669Y-82655873D01*
X73437577Y-82655168D01*
X73568812Y-82650879D01*
X73568620Y-82611158D01*
X73563537Y-82569405D01*
X73545162Y-82544158D01*
X73508039Y-82528030D01*
X73507043Y-82527742D01*
X73454410Y-82521400D01*
X73402906Y-82529684D01*
X73364630Y-82549827D01*
X73349272Y-82559773D01*
X73332730Y-82558397D01*
X73307275Y-82543987D01*
X73292328Y-82533817D01*
X73263091Y-82512088D01*
X73244980Y-82495800D01*
X73242074Y-82491137D01*
X73254040Y-82467005D01*
X73289396Y-82438185D01*
X73304753Y-82428461D01*
X73348901Y-82411714D01*
X73408398Y-82402227D01*
X73474487Y-82400095D01*
X73538411Y-82405417D01*
G36*
X73538411Y-82405417D02*
G01*
X73591411Y-82418290D01*
X73606731Y-82425110D01*
X73636428Y-82442974D01*
X73659220Y-82463093D01*
X73676083Y-82488962D01*
X73687998Y-82524073D01*
X73695942Y-82571920D01*
X73700894Y-82635996D01*
X73703831Y-82719794D01*
X73704947Y-82775768D01*
X73709052Y-83017822D01*
X73638932Y-83017822D01*
X73596393Y-83016038D01*
X73574476Y-83009942D01*
X73568812Y-82999706D01*
X73565821Y-82988637D01*
X73552451Y-82990754D01*
X73534233Y-82999629D01*
X73488624Y-83013233D01*
X73430007Y-83016899D01*
X73368354Y-83010903D01*
X73313638Y-82995521D01*
X73308730Y-82993386D01*
X73258723Y-82958255D01*
X73225756Y-82909419D01*
X73210587Y-82852333D01*
X73211746Y-82831824D01*
X73335508Y-82831824D01*
X73346413Y-82859425D01*
X73378745Y-82879204D01*
X73430910Y-82889819D01*
X73458787Y-82891228D01*
X73505247Y-82887620D01*
X73536129Y-82873597D01*
X73543664Y-82866931D01*
X73564076Y-82830666D01*
X73568812Y-82797773D01*
X73568812Y-82753763D01*
X73507513Y-82753763D01*
X73436256Y-82757395D01*
X73386276Y-82768818D01*
X73354696Y-82788824D01*
X73347626Y-82797743D01*
X73335508Y-82831824D01*
X73211746Y-82831824D01*
X73213971Y-82792456D01*
X73236663Y-82735244D01*
X73267624Y-82696580D01*
X73286376Y-82679864D01*
X73304733Y-82668878D01*
X73328619Y-82662180D01*
X73363957Y-82658326D01*
X73416669Y-82655873D01*
X73437577Y-82655168D01*
X73568812Y-82650879D01*
X73568620Y-82611158D01*
X73563537Y-82569405D01*
X73545162Y-82544158D01*
X73508039Y-82528030D01*
X73507043Y-82527742D01*
X73454410Y-82521400D01*
X73402906Y-82529684D01*
X73364630Y-82549827D01*
X73349272Y-82559773D01*
X73332730Y-82558397D01*
X73307275Y-82543987D01*
X73292328Y-82533817D01*
X73263091Y-82512088D01*
X73244980Y-82495800D01*
X73242074Y-82491137D01*
X73254040Y-82467005D01*
X73289396Y-82438185D01*
X73304753Y-82428461D01*
X73348901Y-82411714D01*
X73408398Y-82402227D01*
X73474487Y-82400095D01*
X73538411Y-82405417D01*
G37*
X71115790Y-82406555D02*
X71174945Y-82422339D01*
X71219977Y-82450948D01*
X71251754Y-82488419D01*
X71261634Y-82504411D01*
X71268927Y-82521163D01*
X71274026Y-82542592D01*
X71277321Y-82572616D01*
X71279203Y-82615154D01*
X71280063Y-82674122D01*
X71280293Y-82753440D01*
X71280297Y-82774484D01*
X71280297Y-83017822D01*
X71219941Y-83017822D01*
X71181443Y-83015126D01*
X71152977Y-83008295D01*
X71145845Y-83004083D01*
X71126348Y-82996813D01*
X71106434Y-83004083D01*
X71073647Y-83013160D01*
X71026022Y-83016813D01*
X70973236Y-83015228D01*
X70924964Y-83008589D01*
X70896782Y-83000072D01*
X70842247Y-82965063D01*
X70808165Y-82916479D01*
X70792843Y-82851882D01*
X70792701Y-82850223D01*
X70794045Y-82821566D01*
X70915644Y-82821566D01*
X70926274Y-82854161D01*
X70943590Y-82872505D01*
X70978348Y-82886379D01*
X71024227Y-82891917D01*
X71071012Y-82889191D01*
X71108486Y-82878274D01*
X71118985Y-82871269D01*
X71137332Y-82838904D01*
X71141980Y-82802111D01*
X71141980Y-82753763D01*
X71072418Y-82753763D01*
X71006333Y-82758850D01*
X70956236Y-82773263D01*
X70925071Y-82795729D01*
X70915644Y-82821566D01*
X70794045Y-82821566D01*
X70796013Y-82779647D01*
X70819290Y-82723845D01*
X70863052Y-82681647D01*
X70869101Y-82677808D01*
X70895093Y-82665309D01*
X70927265Y-82657740D01*
X70972240Y-82654061D01*
X71025669Y-82653216D01*
X71141980Y-82653169D01*
X71141980Y-82604411D01*
X71137047Y-82566581D01*
X71124457Y-82541236D01*
X71122983Y-82539887D01*
X71094966Y-82528800D01*
X71052674Y-82524503D01*
X71005936Y-82526615D01*
X70964582Y-82534756D01*
X70940043Y-82546965D01*
X70926747Y-82556746D01*
X70912706Y-82558613D01*
X70893329Y-82550600D01*
X70864024Y-82530739D01*
X70820197Y-82497063D01*
X70816175Y-82493909D01*
X70818236Y-82482236D01*
X70835432Y-82462822D01*
X70861567Y-82441248D01*
X70890448Y-82423096D01*
X70899522Y-82418809D01*
X70932620Y-82410256D01*
X70981120Y-82404155D01*
X71035305Y-82401708D01*
X71037839Y-82401703D01*
X71115790Y-82406555D01*
G36*
X71115790Y-82406555D02*
G01*
X71174945Y-82422339D01*
X71219977Y-82450948D01*
X71251754Y-82488419D01*
X71261634Y-82504411D01*
X71268927Y-82521163D01*
X71274026Y-82542592D01*
X71277321Y-82572616D01*
X71279203Y-82615154D01*
X71280063Y-82674122D01*
X71280293Y-82753440D01*
X71280297Y-82774484D01*
X71280297Y-83017822D01*
X71219941Y-83017822D01*
X71181443Y-83015126D01*
X71152977Y-83008295D01*
X71145845Y-83004083D01*
X71126348Y-82996813D01*
X71106434Y-83004083D01*
X71073647Y-83013160D01*
X71026022Y-83016813D01*
X70973236Y-83015228D01*
X70924964Y-83008589D01*
X70896782Y-83000072D01*
X70842247Y-82965063D01*
X70808165Y-82916479D01*
X70792843Y-82851882D01*
X70792701Y-82850223D01*
X70794045Y-82821566D01*
X70915644Y-82821566D01*
X70926274Y-82854161D01*
X70943590Y-82872505D01*
X70978348Y-82886379D01*
X71024227Y-82891917D01*
X71071012Y-82889191D01*
X71108486Y-82878274D01*
X71118985Y-82871269D01*
X71137332Y-82838904D01*
X71141980Y-82802111D01*
X71141980Y-82753763D01*
X71072418Y-82753763D01*
X71006333Y-82758850D01*
X70956236Y-82773263D01*
X70925071Y-82795729D01*
X70915644Y-82821566D01*
X70794045Y-82821566D01*
X70796013Y-82779647D01*
X70819290Y-82723845D01*
X70863052Y-82681647D01*
X70869101Y-82677808D01*
X70895093Y-82665309D01*
X70927265Y-82657740D01*
X70972240Y-82654061D01*
X71025669Y-82653216D01*
X71141980Y-82653169D01*
X71141980Y-82604411D01*
X71137047Y-82566581D01*
X71124457Y-82541236D01*
X71122983Y-82539887D01*
X71094966Y-82528800D01*
X71052674Y-82524503D01*
X71005936Y-82526615D01*
X70964582Y-82534756D01*
X70940043Y-82546965D01*
X70926747Y-82556746D01*
X70912706Y-82558613D01*
X70893329Y-82550600D01*
X70864024Y-82530739D01*
X70820197Y-82497063D01*
X70816175Y-82493909D01*
X70818236Y-82482236D01*
X70835432Y-82462822D01*
X70861567Y-82441248D01*
X70890448Y-82423096D01*
X70899522Y-82418809D01*
X70932620Y-82410256D01*
X70981120Y-82404155D01*
X71035305Y-82401708D01*
X71037839Y-82401703D01*
X71115790Y-82406555D01*
G37*
X70591241Y-81469184D02*
X70617753Y-81482282D01*
X70650447Y-81505106D01*
X70674275Y-81529996D01*
X70690594Y-81561249D01*
X70700760Y-81603166D01*
X70706128Y-81660044D01*
X70708056Y-81736184D01*
X70708169Y-81768917D01*
X70707839Y-81840656D01*
X70706473Y-81891927D01*
X70703500Y-81927404D01*
X70698351Y-81951763D01*
X70690457Y-81969680D01*
X70682243Y-81981902D01*
X70629813Y-82033905D01*
X70568070Y-82065184D01*
X70501464Y-82074592D01*
X70434442Y-82060980D01*
X70413208Y-82051354D01*
X70362376Y-82024859D01*
X70362376Y-82440052D01*
X70399475Y-82420868D01*
X70448357Y-82406025D01*
X70508439Y-82402222D01*
X70568436Y-82409243D01*
X70613744Y-82425013D01*
X70651325Y-82455047D01*
X70683436Y-82498024D01*
X70685850Y-82502436D01*
X70696033Y-82523221D01*
X70703470Y-82544170D01*
X70708589Y-82569548D01*
X70711819Y-82603618D01*
X70713587Y-82650641D01*
X70714323Y-82714882D01*
X70714456Y-82787176D01*
X70714456Y-83017822D01*
X70576139Y-83017822D01*
X70576139Y-82592533D01*
X70537451Y-82559979D01*
X70497262Y-82533940D01*
X70459203Y-82529205D01*
X70420934Y-82541389D01*
X70400538Y-82553320D01*
X70385358Y-82570313D01*
X70374562Y-82595995D01*
X70367317Y-82633991D01*
X70362792Y-82687926D01*
X70360156Y-82761425D01*
X70359228Y-82810347D01*
X70356089Y-83011535D01*
X70290074Y-83015336D01*
X70224060Y-83019136D01*
X70224060Y-81770650D01*
X70362376Y-81770650D01*
X70365903Y-81840254D01*
X70377785Y-81888569D01*
X70399980Y-81918631D01*
X70434441Y-81933471D01*
X70469258Y-81936436D01*
X70508671Y-81933028D01*
X70534829Y-81919617D01*
X70551186Y-81901896D01*
X70564063Y-81882835D01*
X70571728Y-81861601D01*
X70575139Y-81831849D01*
X70575251Y-81787236D01*
X70574103Y-81749880D01*
X70571468Y-81693604D01*
X70567544Y-81656658D01*
X70560937Y-81633223D01*
X70550251Y-81617480D01*
X70540167Y-81608380D01*
X70498030Y-81588537D01*
X70448160Y-81585332D01*
X70419524Y-81592168D01*
X70391172Y-81616464D01*
X70372391Y-81663728D01*
X70363288Y-81733624D01*
X70362376Y-81770650D01*
X70224060Y-81770650D01*
X70224060Y-81458614D01*
X70293218Y-81458614D01*
X70334740Y-81460256D01*
X70356162Y-81466087D01*
X70362374Y-81477461D01*
X70362376Y-81477798D01*
X70365258Y-81488938D01*
X70377970Y-81487673D01*
X70403243Y-81475433D01*
X70462131Y-81456707D01*
X70528385Y-81454739D01*
X70591241Y-81469184D01*
G36*
X70591241Y-81469184D02*
G01*
X70617753Y-81482282D01*
X70650447Y-81505106D01*
X70674275Y-81529996D01*
X70690594Y-81561249D01*
X70700760Y-81603166D01*
X70706128Y-81660044D01*
X70708056Y-81736184D01*
X70708169Y-81768917D01*
X70707839Y-81840656D01*
X70706473Y-81891927D01*
X70703500Y-81927404D01*
X70698351Y-81951763D01*
X70690457Y-81969680D01*
X70682243Y-81981902D01*
X70629813Y-82033905D01*
X70568070Y-82065184D01*
X70501464Y-82074592D01*
X70434442Y-82060980D01*
X70413208Y-82051354D01*
X70362376Y-82024859D01*
X70362376Y-82440052D01*
X70399475Y-82420868D01*
X70448357Y-82406025D01*
X70508439Y-82402222D01*
X70568436Y-82409243D01*
X70613744Y-82425013D01*
X70651325Y-82455047D01*
X70683436Y-82498024D01*
X70685850Y-82502436D01*
X70696033Y-82523221D01*
X70703470Y-82544170D01*
X70708589Y-82569548D01*
X70711819Y-82603618D01*
X70713587Y-82650641D01*
X70714323Y-82714882D01*
X70714456Y-82787176D01*
X70714456Y-83017822D01*
X70576139Y-83017822D01*
X70576139Y-82592533D01*
X70537451Y-82559979D01*
X70497262Y-82533940D01*
X70459203Y-82529205D01*
X70420934Y-82541389D01*
X70400538Y-82553320D01*
X70385358Y-82570313D01*
X70374562Y-82595995D01*
X70367317Y-82633991D01*
X70362792Y-82687926D01*
X70360156Y-82761425D01*
X70359228Y-82810347D01*
X70356089Y-83011535D01*
X70290074Y-83015336D01*
X70224060Y-83019136D01*
X70224060Y-81770650D01*
X70362376Y-81770650D01*
X70365903Y-81840254D01*
X70377785Y-81888569D01*
X70399980Y-81918631D01*
X70434441Y-81933471D01*
X70469258Y-81936436D01*
X70508671Y-81933028D01*
X70534829Y-81919617D01*
X70551186Y-81901896D01*
X70564063Y-81882835D01*
X70571728Y-81861601D01*
X70575139Y-81831849D01*
X70575251Y-81787236D01*
X70574103Y-81749880D01*
X70571468Y-81693604D01*
X70567544Y-81656658D01*
X70560937Y-81633223D01*
X70550251Y-81617480D01*
X70540167Y-81608380D01*
X70498030Y-81588537D01*
X70448160Y-81585332D01*
X70419524Y-81592168D01*
X70391172Y-81616464D01*
X70372391Y-81663728D01*
X70363288Y-81733624D01*
X70362376Y-81770650D01*
X70224060Y-81770650D01*
X70224060Y-81458614D01*
X70293218Y-81458614D01*
X70334740Y-81460256D01*
X70356162Y-81466087D01*
X70362374Y-81477461D01*
X70362376Y-81477798D01*
X70365258Y-81488938D01*
X70377970Y-81487673D01*
X70403243Y-81475433D01*
X70462131Y-81456707D01*
X70528385Y-81454739D01*
X70591241Y-81469184D01*
G37*
X72876964Y-77290018D02*
X72933812Y-77591570D01*
X73353338Y-77764512D01*
X73604984Y-77593395D01*
X73675458Y-77545750D01*
X73739163Y-77503210D01*
X73793126Y-77467715D01*
X73834373Y-77441210D01*
X73859934Y-77425636D01*
X73866895Y-77422278D01*
X73879435Y-77430914D01*
X73906231Y-77454792D01*
X73944280Y-77490859D01*
X73990579Y-77536067D01*
X74042123Y-77587364D01*
X74095909Y-77641701D01*
X74148935Y-77696028D01*
X74198195Y-77747295D01*
X74240687Y-77792451D01*
X74273407Y-77828446D01*
X74293351Y-77852230D01*
X74298119Y-77860190D01*
X74291257Y-77874865D01*
X74272020Y-77907014D01*
X74242430Y-77953492D01*
X74204510Y-78011156D01*
X74160282Y-78076860D01*
X74134654Y-78114336D01*
X74087941Y-78182768D01*
X74046432Y-78244520D01*
X74012140Y-78296519D01*
X73987080Y-78335692D01*
X73973264Y-78358965D01*
X73971188Y-78363855D01*
X73975895Y-78377755D01*
X73988723Y-78410150D01*
X74007738Y-78456485D01*
X74031003Y-78512206D01*
X74056584Y-78572758D01*
X74082545Y-78633586D01*
X74106950Y-78690136D01*
X74127863Y-78737852D01*
X74143349Y-78772181D01*
X74151472Y-78788568D01*
X74151952Y-78789212D01*
X74164707Y-78792341D01*
X74198677Y-78799321D01*
X74250340Y-78809467D01*
X74316176Y-78822092D01*
X74392664Y-78836509D01*
X74437290Y-78844823D01*
X74519021Y-78860384D01*
X74592843Y-78875192D01*
X74655021Y-78888436D01*
X74701822Y-78899305D01*
X74729509Y-78906989D01*
X74735074Y-78909427D01*
X74740526Y-78925930D01*
X74744924Y-78963200D01*
X74748272Y-79016880D01*
X74750574Y-79082612D01*
X74751832Y-79156037D01*
X74752048Y-79232796D01*
X74751227Y-79308532D01*
X74749371Y-79378886D01*
X74746482Y-79439500D01*
X74742565Y-79486016D01*
X74737622Y-79514075D01*
X74734657Y-79519916D01*
X74716934Y-79526917D01*
X74679381Y-79536927D01*
X74626964Y-79548769D01*
X74564652Y-79561267D01*
X74542900Y-79565310D01*
X74438024Y-79584520D01*
X74355180Y-79599991D01*
X74291630Y-79612337D01*
X74244637Y-79622173D01*
X74211463Y-79630114D01*
X74189371Y-79636776D01*
X74175624Y-79642773D01*
X74167484Y-79648719D01*
X74166345Y-79649894D01*
X74154977Y-79668826D01*
X74137635Y-79705669D01*
X74116050Y-79755913D01*
X74091954Y-79815046D01*
X74067079Y-79878556D01*
X74043157Y-79941932D01*
X74021919Y-80000662D01*
X74005097Y-80050235D01*
X73994422Y-80086139D01*
X73991627Y-80103862D01*
X73991860Y-80104483D01*
X74001331Y-80118970D01*
X74022818Y-80150844D01*
X74054063Y-80196789D01*
X74092807Y-80253485D01*
X74136793Y-80317617D01*
X74149319Y-80335842D01*
X74193984Y-80401914D01*
X74233288Y-80462200D01*
X74265088Y-80513235D01*
X74287245Y-80551560D01*
X74297617Y-80573711D01*
X74298119Y-80576432D01*
X74289405Y-80590736D01*
X74265325Y-80619072D01*
X74228976Y-80658396D01*
X74183453Y-80705661D01*
X74131852Y-80757823D01*
X74077267Y-80811835D01*
X74022794Y-80864653D01*
X73971529Y-80913231D01*
X73926567Y-80954523D01*
X73891004Y-80985485D01*
X73867935Y-81003070D01*
X73861554Y-81005941D01*
X73846699Y-80999178D01*
X73816286Y-80980939D01*
X73775268Y-80954297D01*
X73743709Y-80932852D01*
X73686525Y-80893503D01*
X73618806Y-80847171D01*
X73550880Y-80800913D01*
X73514361Y-80776155D01*
X73390752Y-80692547D01*
X73286991Y-80748650D01*
X73239720Y-80773228D01*
X73199523Y-80792331D01*
X73172326Y-80803227D01*
X73165402Y-80804743D01*
X73157077Y-80793549D01*
X73140654Y-80761917D01*
X73117357Y-80712765D01*
X73088414Y-80649010D01*
X73055050Y-80573571D01*
X73018491Y-80489364D01*
X72979964Y-80399308D01*
X72940694Y-80306321D01*
X72901908Y-80213320D01*
X72864830Y-80123223D01*
X72830689Y-80038948D01*
X72800708Y-79963413D01*
X72776116Y-79899534D01*
X72758136Y-79850231D01*
X72747997Y-79818421D01*
X72746366Y-79807496D01*
X72759291Y-79793561D01*
X72787589Y-79770940D01*
X72825346Y-79744333D01*
X72828515Y-79742228D01*
X72926100Y-79664114D01*
X73004786Y-79572982D01*
X73063891Y-79471745D01*
X73102732Y-79363318D01*
X73120628Y-79250614D01*
X73116897Y-79136548D01*
X73090857Y-79024034D01*
X73041825Y-78915985D01*
X73027400Y-78892345D01*
X72952369Y-78796887D01*
X72863730Y-78720232D01*
X72764549Y-78662780D01*
X72657895Y-78624929D01*
X72546836Y-78607078D01*
X72434439Y-78609625D01*
X72323773Y-78632970D01*
X72217906Y-78677510D01*
X72119905Y-78743645D01*
X72089590Y-78770487D01*
X72012438Y-78854512D01*
X71956218Y-78942966D01*
X71917653Y-79042115D01*
X71896174Y-79140303D01*
X71890872Y-79250697D01*
X71908552Y-79361640D01*
X71947419Y-79469381D01*
X72005677Y-79570169D01*
X72081531Y-79660256D01*
X72173183Y-79735892D01*
X72185228Y-79743864D01*
X72223389Y-79769974D01*
X72252399Y-79792595D01*
X72266268Y-79807039D01*
X72266469Y-79807496D01*
X72263492Y-79823121D01*
X72251689Y-79858582D01*
X72232286Y-79910962D01*
X72206512Y-79977345D01*
X72175591Y-80054814D01*
X72140751Y-80140450D01*
X72103217Y-80231337D01*
X72064217Y-80324559D01*
X72024977Y-80417197D01*
X71986724Y-80506335D01*
X71950683Y-80589055D01*
X71918083Y-80662441D01*
X71890148Y-80723575D01*
X71868105Y-80769541D01*
X71853182Y-80797421D01*
X71847172Y-80804743D01*
X71828809Y-80799041D01*
X71794448Y-80783749D01*
X71750016Y-80761599D01*
X71725583Y-80748650D01*
X71621822Y-80692547D01*
X71498213Y-80776155D01*
X71435114Y-80818987D01*
X71366030Y-80866122D01*
X71301293Y-80910503D01*
X71268866Y-80932852D01*
X71223259Y-80963477D01*
X71184640Y-80987747D01*
X71158048Y-81002587D01*
X71149410Y-81005724D01*
X71136839Y-80997261D01*
X71109016Y-80973636D01*
X71068639Y-80937302D01*
X71018405Y-80890711D01*
X70961012Y-80836317D01*
X70924714Y-80801392D01*
X70861210Y-80738996D01*
X70806327Y-80683188D01*
X70762286Y-80636354D01*
X70731305Y-80600882D01*
X70715602Y-80579161D01*
X70714095Y-80574752D01*
X70721086Y-80557985D01*
X70740406Y-80524082D01*
X70769909Y-80476476D01*
X70807455Y-80418599D01*
X70850900Y-80353884D01*
X70863255Y-80335842D01*
X70908273Y-80270267D01*
X70948660Y-80211228D01*
X70982160Y-80162042D01*
X71006514Y-80126028D01*
X71019464Y-80106502D01*
X71020715Y-80104483D01*
X71018844Y-80088922D01*
X71008913Y-80054709D01*
X70992653Y-80006355D01*
X70971795Y-79948371D01*
X70948073Y-79885270D01*
X70923216Y-79821563D01*
X70898958Y-79761761D01*
X70877029Y-79710376D01*
X70859162Y-79671919D01*
X70847087Y-79650902D01*
X70846229Y-79649894D01*
X70838846Y-79643888D01*
X70826375Y-79637948D01*
X70806080Y-79631460D01*
X70775222Y-79623809D01*
X70731066Y-79614380D01*
X70670874Y-79602559D01*
X70591907Y-79587729D01*
X70491430Y-79569277D01*
X70469675Y-79565310D01*
X70405198Y-79552853D01*
X70348989Y-79540666D01*
X70306013Y-79529926D01*
X70281240Y-79521809D01*
X70277918Y-79519916D01*
X70272444Y-79503138D01*
X70267994Y-79465645D01*
X70264572Y-79411794D01*
X70262181Y-79345944D01*
X70260823Y-79272453D01*
X70260501Y-79195680D01*
X70261219Y-79119983D01*
X70262979Y-79049720D01*
X70265784Y-78989250D01*
X70269638Y-78942930D01*
X70274543Y-78915119D01*
X70277500Y-78909427D01*
X70293963Y-78903686D01*
X70331449Y-78894345D01*
X70386225Y-78882215D01*
X70454555Y-78868107D01*
X70532706Y-78852830D01*
X70575284Y-78844823D01*
X70656071Y-78829721D01*
X70728113Y-78816040D01*
X70787889Y-78804467D01*
X70831879Y-78795687D01*
X70856561Y-78790387D01*
X70860623Y-78789212D01*
X70867489Y-78775965D01*
X70882002Y-78744057D01*
X70902229Y-78698047D01*
X70926234Y-78642492D01*
X70952082Y-78581953D01*
X70977840Y-78520986D01*
X71001573Y-78464151D01*
X71021346Y-78416006D01*
X71035224Y-78381110D01*
X71041274Y-78364021D01*
X71041386Y-78363274D01*
X71034528Y-78349793D01*
X71015302Y-78318770D01*
X70985728Y-78273289D01*
X70947827Y-78216432D01*
X70903620Y-78151283D01*
X70877921Y-78113862D01*
X70831093Y-78045247D01*
X70789501Y-77982952D01*
X70755175Y-77930129D01*
X70730143Y-77889927D01*
X70716435Y-77865500D01*
X70714456Y-77860024D01*
X70722966Y-77847278D01*
X70746493Y-77820063D01*
X70782032Y-77781428D01*
X70826577Y-77734423D01*
X70877123Y-77682095D01*
X70930664Y-77627495D01*
X70984195Y-77573670D01*
X71034711Y-77523670D01*
X71079206Y-77480543D01*
X71114675Y-77447339D01*
X71138113Y-77427106D01*
X71145954Y-77422278D01*
X71158720Y-77429067D01*
X71189256Y-77448142D01*
X71234590Y-77477561D01*
X71291756Y-77515381D01*
X71357784Y-77559661D01*
X71407590Y-77593395D01*
X71659236Y-77764512D01*
X71868999Y-77678041D01*
X72078763Y-77591570D01*
X72135611Y-77290018D01*
X72192460Y-76988466D01*
X72820115Y-76988466D01*
X72876964Y-77290018D01*
G36*
X72876964Y-77290018D02*
G01*
X72933812Y-77591570D01*
X73353338Y-77764512D01*
X73604984Y-77593395D01*
X73675458Y-77545750D01*
X73739163Y-77503210D01*
X73793126Y-77467715D01*
X73834373Y-77441210D01*
X73859934Y-77425636D01*
X73866895Y-77422278D01*
X73879435Y-77430914D01*
X73906231Y-77454792D01*
X73944280Y-77490859D01*
X73990579Y-77536067D01*
X74042123Y-77587364D01*
X74095909Y-77641701D01*
X74148935Y-77696028D01*
X74198195Y-77747295D01*
X74240687Y-77792451D01*
X74273407Y-77828446D01*
X74293351Y-77852230D01*
X74298119Y-77860190D01*
X74291257Y-77874865D01*
X74272020Y-77907014D01*
X74242430Y-77953492D01*
X74204510Y-78011156D01*
X74160282Y-78076860D01*
X74134654Y-78114336D01*
X74087941Y-78182768D01*
X74046432Y-78244520D01*
X74012140Y-78296519D01*
X73987080Y-78335692D01*
X73973264Y-78358965D01*
X73971188Y-78363855D01*
X73975895Y-78377755D01*
X73988723Y-78410150D01*
X74007738Y-78456485D01*
X74031003Y-78512206D01*
X74056584Y-78572758D01*
X74082545Y-78633586D01*
X74106950Y-78690136D01*
X74127863Y-78737852D01*
X74143349Y-78772181D01*
X74151472Y-78788568D01*
X74151952Y-78789212D01*
X74164707Y-78792341D01*
X74198677Y-78799321D01*
X74250340Y-78809467D01*
X74316176Y-78822092D01*
X74392664Y-78836509D01*
X74437290Y-78844823D01*
X74519021Y-78860384D01*
X74592843Y-78875192D01*
X74655021Y-78888436D01*
X74701822Y-78899305D01*
X74729509Y-78906989D01*
X74735074Y-78909427D01*
X74740526Y-78925930D01*
X74744924Y-78963200D01*
X74748272Y-79016880D01*
X74750574Y-79082612D01*
X74751832Y-79156037D01*
X74752048Y-79232796D01*
X74751227Y-79308532D01*
X74749371Y-79378886D01*
X74746482Y-79439500D01*
X74742565Y-79486016D01*
X74737622Y-79514075D01*
X74734657Y-79519916D01*
X74716934Y-79526917D01*
X74679381Y-79536927D01*
X74626964Y-79548769D01*
X74564652Y-79561267D01*
X74542900Y-79565310D01*
X74438024Y-79584520D01*
X74355180Y-79599991D01*
X74291630Y-79612337D01*
X74244637Y-79622173D01*
X74211463Y-79630114D01*
X74189371Y-79636776D01*
X74175624Y-79642773D01*
X74167484Y-79648719D01*
X74166345Y-79649894D01*
X74154977Y-79668826D01*
X74137635Y-79705669D01*
X74116050Y-79755913D01*
X74091954Y-79815046D01*
X74067079Y-79878556D01*
X74043157Y-79941932D01*
X74021919Y-80000662D01*
X74005097Y-80050235D01*
X73994422Y-80086139D01*
X73991627Y-80103862D01*
X73991860Y-80104483D01*
X74001331Y-80118970D01*
X74022818Y-80150844D01*
X74054063Y-80196789D01*
X74092807Y-80253485D01*
X74136793Y-80317617D01*
X74149319Y-80335842D01*
X74193984Y-80401914D01*
X74233288Y-80462200D01*
X74265088Y-80513235D01*
X74287245Y-80551560D01*
X74297617Y-80573711D01*
X74298119Y-80576432D01*
X74289405Y-80590736D01*
X74265325Y-80619072D01*
X74228976Y-80658396D01*
X74183453Y-80705661D01*
X74131852Y-80757823D01*
X74077267Y-80811835D01*
X74022794Y-80864653D01*
X73971529Y-80913231D01*
X73926567Y-80954523D01*
X73891004Y-80985485D01*
X73867935Y-81003070D01*
X73861554Y-81005941D01*
X73846699Y-80999178D01*
X73816286Y-80980939D01*
X73775268Y-80954297D01*
X73743709Y-80932852D01*
X73686525Y-80893503D01*
X73618806Y-80847171D01*
X73550880Y-80800913D01*
X73514361Y-80776155D01*
X73390752Y-80692547D01*
X73286991Y-80748650D01*
X73239720Y-80773228D01*
X73199523Y-80792331D01*
X73172326Y-80803227D01*
X73165402Y-80804743D01*
X73157077Y-80793549D01*
X73140654Y-80761917D01*
X73117357Y-80712765D01*
X73088414Y-80649010D01*
X73055050Y-80573571D01*
X73018491Y-80489364D01*
X72979964Y-80399308D01*
X72940694Y-80306321D01*
X72901908Y-80213320D01*
X72864830Y-80123223D01*
X72830689Y-80038948D01*
X72800708Y-79963413D01*
X72776116Y-79899534D01*
X72758136Y-79850231D01*
X72747997Y-79818421D01*
X72746366Y-79807496D01*
X72759291Y-79793561D01*
X72787589Y-79770940D01*
X72825346Y-79744333D01*
X72828515Y-79742228D01*
X72926100Y-79664114D01*
X73004786Y-79572982D01*
X73063891Y-79471745D01*
X73102732Y-79363318D01*
X73120628Y-79250614D01*
X73116897Y-79136548D01*
X73090857Y-79024034D01*
X73041825Y-78915985D01*
X73027400Y-78892345D01*
X72952369Y-78796887D01*
X72863730Y-78720232D01*
X72764549Y-78662780D01*
X72657895Y-78624929D01*
X72546836Y-78607078D01*
X72434439Y-78609625D01*
X72323773Y-78632970D01*
X72217906Y-78677510D01*
X72119905Y-78743645D01*
X72089590Y-78770487D01*
X72012438Y-78854512D01*
X71956218Y-78942966D01*
X71917653Y-79042115D01*
X71896174Y-79140303D01*
X71890872Y-79250697D01*
X71908552Y-79361640D01*
X71947419Y-79469381D01*
X72005677Y-79570169D01*
X72081531Y-79660256D01*
X72173183Y-79735892D01*
X72185228Y-79743864D01*
X72223389Y-79769974D01*
X72252399Y-79792595D01*
X72266268Y-79807039D01*
X72266469Y-79807496D01*
X72263492Y-79823121D01*
X72251689Y-79858582D01*
X72232286Y-79910962D01*
X72206512Y-79977345D01*
X72175591Y-80054814D01*
X72140751Y-80140450D01*
X72103217Y-80231337D01*
X72064217Y-80324559D01*
X72024977Y-80417197D01*
X71986724Y-80506335D01*
X71950683Y-80589055D01*
X71918083Y-80662441D01*
X71890148Y-80723575D01*
X71868105Y-80769541D01*
X71853182Y-80797421D01*
X71847172Y-80804743D01*
X71828809Y-80799041D01*
X71794448Y-80783749D01*
X71750016Y-80761599D01*
X71725583Y-80748650D01*
X71621822Y-80692547D01*
X71498213Y-80776155D01*
X71435114Y-80818987D01*
X71366030Y-80866122D01*
X71301293Y-80910503D01*
X71268866Y-80932852D01*
X71223259Y-80963477D01*
X71184640Y-80987747D01*
X71158048Y-81002587D01*
X71149410Y-81005724D01*
X71136839Y-80997261D01*
X71109016Y-80973636D01*
X71068639Y-80937302D01*
X71018405Y-80890711D01*
X70961012Y-80836317D01*
X70924714Y-80801392D01*
X70861210Y-80738996D01*
X70806327Y-80683188D01*
X70762286Y-80636354D01*
X70731305Y-80600882D01*
X70715602Y-80579161D01*
X70714095Y-80574752D01*
X70721086Y-80557985D01*
X70740406Y-80524082D01*
X70769909Y-80476476D01*
X70807455Y-80418599D01*
X70850900Y-80353884D01*
X70863255Y-80335842D01*
X70908273Y-80270267D01*
X70948660Y-80211228D01*
X70982160Y-80162042D01*
X71006514Y-80126028D01*
X71019464Y-80106502D01*
X71020715Y-80104483D01*
X71018844Y-80088922D01*
X71008913Y-80054709D01*
X70992653Y-80006355D01*
X70971795Y-79948371D01*
X70948073Y-79885270D01*
X70923216Y-79821563D01*
X70898958Y-79761761D01*
X70877029Y-79710376D01*
X70859162Y-79671919D01*
X70847087Y-79650902D01*
X70846229Y-79649894D01*
X70838846Y-79643888D01*
X70826375Y-79637948D01*
X70806080Y-79631460D01*
X70775222Y-79623809D01*
X70731066Y-79614380D01*
X70670874Y-79602559D01*
X70591907Y-79587729D01*
X70491430Y-79569277D01*
X70469675Y-79565310D01*
X70405198Y-79552853D01*
X70348989Y-79540666D01*
X70306013Y-79529926D01*
X70281240Y-79521809D01*
X70277918Y-79519916D01*
X70272444Y-79503138D01*
X70267994Y-79465645D01*
X70264572Y-79411794D01*
X70262181Y-79345944D01*
X70260823Y-79272453D01*
X70260501Y-79195680D01*
X70261219Y-79119983D01*
X70262979Y-79049720D01*
X70265784Y-78989250D01*
X70269638Y-78942930D01*
X70274543Y-78915119D01*
X70277500Y-78909427D01*
X70293963Y-78903686D01*
X70331449Y-78894345D01*
X70386225Y-78882215D01*
X70454555Y-78868107D01*
X70532706Y-78852830D01*
X70575284Y-78844823D01*
X70656071Y-78829721D01*
X70728113Y-78816040D01*
X70787889Y-78804467D01*
X70831879Y-78795687D01*
X70856561Y-78790387D01*
X70860623Y-78789212D01*
X70867489Y-78775965D01*
X70882002Y-78744057D01*
X70902229Y-78698047D01*
X70926234Y-78642492D01*
X70952082Y-78581953D01*
X70977840Y-78520986D01*
X71001573Y-78464151D01*
X71021346Y-78416006D01*
X71035224Y-78381110D01*
X71041274Y-78364021D01*
X71041386Y-78363274D01*
X71034528Y-78349793D01*
X71015302Y-78318770D01*
X70985728Y-78273289D01*
X70947827Y-78216432D01*
X70903620Y-78151283D01*
X70877921Y-78113862D01*
X70831093Y-78045247D01*
X70789501Y-77982952D01*
X70755175Y-77930129D01*
X70730143Y-77889927D01*
X70716435Y-77865500D01*
X70714456Y-77860024D01*
X70722966Y-77847278D01*
X70746493Y-77820063D01*
X70782032Y-77781428D01*
X70826577Y-77734423D01*
X70877123Y-77682095D01*
X70930664Y-77627495D01*
X70984195Y-77573670D01*
X71034711Y-77523670D01*
X71079206Y-77480543D01*
X71114675Y-77447339D01*
X71138113Y-77427106D01*
X71145954Y-77422278D01*
X71158720Y-77429067D01*
X71189256Y-77448142D01*
X71234590Y-77477561D01*
X71291756Y-77515381D01*
X71357784Y-77559661D01*
X71407590Y-77593395D01*
X71659236Y-77764512D01*
X71868999Y-77678041D01*
X72078763Y-77591570D01*
X72135611Y-77290018D01*
X72192460Y-76988466D01*
X72820115Y-76988466D01*
X72876964Y-77290018D01*
G37*
%TD*%
%LPC*%
D13*
%TO.C,SW5*%
X71000000Y-67750000D03*
D14*
X79000000Y-67750000D03*
X71000000Y-72250000D03*
X79000000Y-72250000D03*
%TD*%
D13*
%TO.C,SW3*%
X5000000Y-67750000D03*
D14*
X13000000Y-67750000D03*
X5000000Y-72250000D03*
X13000000Y-72250000D03*
%TD*%
D13*
%TO.C,SW8*%
X49000000Y-67750000D03*
D14*
X57000000Y-67750000D03*
X49000000Y-72250000D03*
X57000000Y-72250000D03*
%TD*%
D13*
%TO.C,SW7*%
X60000000Y-57750000D03*
D14*
X68000000Y-57750000D03*
X60000000Y-62250000D03*
X68000000Y-62250000D03*
%TD*%
D15*
%TO.C,D3*%
X74000000Y-30810000D03*
D16*
X74000000Y-28270000D03*
X74000000Y-25730000D03*
X74000000Y-23190000D03*
%TD*%
D15*
%TO.C,J2*%
X20000000Y-42390000D03*
D16*
X20000000Y-39850000D03*
X20000000Y-37310000D03*
X20000000Y-34770000D03*
X20000000Y-32230000D03*
X20000000Y-29690000D03*
X20000000Y-27150000D03*
X20000000Y-24610000D03*
%TD*%
D13*
%TO.C,SW4*%
X27000000Y-67750000D03*
D14*
X35000000Y-67750000D03*
X27000000Y-72250000D03*
X35000000Y-72250000D03*
%TD*%
D13*
%TO.C,SW2*%
X16000000Y-77750000D03*
D14*
X24000000Y-77750000D03*
X16000000Y-82250000D03*
X24000000Y-82250000D03*
%TD*%
D13*
%TO.C,SW9*%
X38000000Y-79250000D03*
D14*
X46000000Y-79250000D03*
X38000000Y-83750000D03*
X46000000Y-83750000D03*
%TD*%
D13*
%TO.C,SW6*%
X60000000Y-77750000D03*
D14*
X68000000Y-77750000D03*
X60000000Y-82250000D03*
X68000000Y-82250000D03*
%TD*%
D13*
%TO.C,SW1*%
X16000000Y-57750000D03*
D14*
X24000000Y-57750000D03*
X16000000Y-62250000D03*
X24000000Y-62250000D03*
%TD*%
D17*
%TO.C,TP6*%
X34500000Y-85000000D03*
%TD*%
%TO.C,TP17*%
X46500000Y-38000000D03*
%TD*%
D18*
%TO.C,R43*%
X69545000Y-24000000D03*
X67005000Y-24000000D03*
%TD*%
%TO.C,R38*%
X29000000Y-59080000D03*
X29000000Y-48920000D03*
%TD*%
D19*
%TO.C,C2*%
X53730000Y-84500000D03*
D20*
X56270000Y-84500000D03*
%TD*%
D21*
%TO.C,MOD1*%
X34380000Y-22480000D03*
X34380000Y-19940000D03*
X34380000Y-17400000D03*
X49620000Y-22480000D03*
X34380000Y-14860000D03*
X34380000Y-12320000D03*
D22*
X49620000Y-27560000D03*
D21*
X34380000Y-9780000D03*
X34380000Y-7240000D03*
X49620000Y-7240000D03*
X49620000Y-9780000D03*
X49620000Y-12320000D03*
X49620000Y-14860000D03*
X49620000Y-17400000D03*
X49620000Y-19900000D03*
X49620000Y-25020000D03*
X34380000Y-25020000D03*
X34380000Y-27560000D03*
%TD*%
D17*
%TO.C,TP32*%
X78000000Y-20500000D03*
%TD*%
D23*
%TO.C,Q2*%
X25460000Y-27140000D03*
D24*
X28000000Y-27140000D03*
X30540000Y-27140000D03*
%TD*%
D17*
%TO.C,TP31*%
X69500000Y-31500000D03*
%TD*%
%TO.C,TP2*%
X54000000Y-63000000D03*
%TD*%
D25*
%TO.C,C17*%
X27500000Y-84000000D03*
D18*
X29500000Y-84000000D03*
%TD*%
D19*
%TO.C,C22*%
X48730000Y-42000000D03*
D20*
X51270000Y-42000000D03*
%TD*%
D26*
%TO.C,J5*%
X31000000Y-90550000D03*
D27*
X33000000Y-90550000D03*
%TD*%
D18*
%TO.C,R22*%
X18500000Y-10455000D03*
X18500000Y-12995000D03*
%TD*%
D17*
%TO.C,TP12*%
X34500000Y-76500000D03*
%TD*%
D23*
%TO.C,Q4*%
X22040000Y-90360000D03*
D24*
X19500000Y-90360000D03*
X16960000Y-90360000D03*
%TD*%
D28*
%TO.C,C21*%
X50500000Y-48000000D03*
D18*
X50500000Y-46000000D03*
%TD*%
D19*
%TO.C,C18*%
X42500000Y-66730000D03*
D20*
X42500000Y-69270000D03*
%TD*%
D17*
%TO.C,TP18*%
X54500000Y-42000000D03*
%TD*%
D18*
%TO.C,R36*%
X32420000Y-34000000D03*
X42580000Y-34000000D03*
%TD*%
%TO.C,R30*%
X53000000Y-28420000D03*
X53000000Y-38580000D03*
%TD*%
D19*
%TO.C,C8*%
X4000000Y-33230000D03*
D20*
X4000000Y-35770000D03*
%TD*%
D18*
%TO.C,R10*%
X21045000Y-53500000D03*
X18505000Y-53500000D03*
%TD*%
D23*
%TO.C,Q6*%
X33640000Y-61040000D03*
D24*
X33640000Y-58500000D03*
X33640000Y-55960000D03*
%TD*%
D18*
%TO.C,R35*%
X29500000Y-41580000D03*
X29500000Y-31420000D03*
%TD*%
D29*
%TO.C,C15*%
X23000000Y-10500000D03*
D18*
X23000000Y-12500000D03*
%TD*%
%TO.C,R7*%
X20045000Y-66500000D03*
X17505000Y-66500000D03*
%TD*%
%TO.C,R5*%
X29045000Y-62000000D03*
X26505000Y-62000000D03*
%TD*%
%TO.C,R8*%
X18455000Y-70000000D03*
X20995000Y-70000000D03*
%TD*%
D13*
%TO.C,U2*%
X19450000Y-6500000D03*
D14*
X21990000Y-6500000D03*
X24530000Y-6500000D03*
%TD*%
D18*
%TO.C,R33*%
X48920000Y-51500000D03*
X59080000Y-51500000D03*
%TD*%
D30*
%TO.C,U3*%
X38190000Y-50810000D03*
D31*
X38190000Y-48270000D03*
X38190000Y-45730000D03*
X38190000Y-43190000D03*
X45810000Y-43190000D03*
X45810000Y-45730000D03*
X45810000Y-48270000D03*
X45810000Y-50810000D03*
%TD*%
D18*
%TO.C,R26*%
X7455000Y-14000000D03*
X9995000Y-14000000D03*
%TD*%
%TO.C,R39*%
X2920000Y-58500000D03*
X13080000Y-58500000D03*
%TD*%
D32*
%TO.C,J1*%
X47250000Y-90525000D03*
D33*
X49750000Y-90525000D03*
X52250000Y-90525000D03*
X54750000Y-90525000D03*
%TD*%
D18*
%TO.C,R40*%
X72080000Y-5500000D03*
X61920000Y-5500000D03*
%TD*%
D17*
%TO.C,TP22*%
X54000000Y-9000000D03*
%TD*%
D34*
%TO.C,D1*%
X11725000Y-8000000D03*
D35*
X14265000Y-8000000D03*
%TD*%
D23*
%TO.C,Q1*%
X2960000Y-9140000D03*
D24*
X5500000Y-9140000D03*
X8040000Y-9140000D03*
%TD*%
D18*
%TO.C,R41*%
X59000000Y-3455000D03*
X59000000Y-5995000D03*
%TD*%
%TO.C,R16*%
X4000000Y-41045000D03*
X4000000Y-38505000D03*
%TD*%
D17*
%TO.C,TP11*%
X30000000Y-45500000D03*
%TD*%
D19*
%TO.C,C27*%
X75500000Y-6270000D03*
D20*
X75500000Y-3730000D03*
%TD*%
D36*
%TO.C,C25*%
X34500000Y-51500000D03*
D18*
X32500000Y-51500000D03*
%TD*%
D17*
%TO.C,TP33*%
X8000000Y-76500000D03*
%TD*%
%TO.C,TP1*%
X50500000Y-79000000D03*
%TD*%
D18*
%TO.C,R4*%
X4000000Y-52045000D03*
X4000000Y-49505000D03*
%TD*%
D37*
%TO.C,D2*%
X2920000Y-81000000D03*
D38*
X13080000Y-81000000D03*
%TD*%
D19*
%TO.C,C10*%
X59500000Y-48270000D03*
D20*
X59500000Y-45730000D03*
%TD*%
D19*
%TO.C,C16*%
X10730000Y-85000000D03*
D20*
X13270000Y-85000000D03*
%TD*%
D18*
%TO.C,R28*%
X2920000Y-63500000D03*
X13080000Y-63500000D03*
%TD*%
D19*
%TO.C,C7*%
X4000000Y-27730000D03*
D20*
X4000000Y-30270000D03*
%TD*%
D19*
%TO.C,C23*%
X38500000Y-54230000D03*
D20*
X38500000Y-56770000D03*
%TD*%
D18*
%TO.C,R14*%
X32955000Y-37500000D03*
X35495000Y-37500000D03*
%TD*%
D26*
%TO.C,J4*%
X11000000Y-90550000D03*
D27*
X13000000Y-90550000D03*
%TD*%
D17*
%TO.C,TP14*%
X55500000Y-48000000D03*
%TD*%
D18*
%TO.C,R18*%
X53000000Y-24545000D03*
X53000000Y-22005000D03*
%TD*%
D25*
%TO.C,C13*%
X24000000Y-44500000D03*
D18*
X26000000Y-44500000D03*
%TD*%
D17*
%TO.C,TP29*%
X12500000Y-77000000D03*
%TD*%
%TO.C,TP9*%
X78000000Y-24500000D03*
%TD*%
%TO.C,TP10*%
X24000000Y-23000000D03*
%TD*%
%TO.C,TP13*%
X59500000Y-42500000D03*
%TD*%
D25*
%TO.C,C11*%
X71500000Y-58000000D03*
D18*
X73500000Y-58000000D03*
%TD*%
D19*
%TO.C,C6*%
X66000000Y-90270000D03*
D20*
X66000000Y-87730000D03*
%TD*%
D17*
%TO.C,TP21*%
X59500000Y-38000000D03*
%TD*%
%TO.C,TP16*%
X56500000Y-55000000D03*
%TD*%
%TO.C,TP8*%
X20500000Y-73500000D03*
%TD*%
D18*
%TO.C,R42*%
X70045000Y-20500000D03*
X67505000Y-20500000D03*
%TD*%
%TO.C,R24*%
X4000000Y-23580000D03*
X4000000Y-13420000D03*
%TD*%
D19*
%TO.C,C14*%
X27230000Y-7500000D03*
D20*
X29770000Y-7500000D03*
%TD*%
D18*
%TO.C,R6*%
X24000000Y-71455000D03*
X24000000Y-73995000D03*
%TD*%
%TO.C,R20*%
X49545000Y-32500000D03*
X47005000Y-32500000D03*
%TD*%
%TO.C,R32*%
X46000000Y-64080000D03*
X46000000Y-53920000D03*
%TD*%
%TO.C,R2*%
X4000000Y-46545000D03*
X4000000Y-44005000D03*
%TD*%
D25*
%TO.C,C3*%
X60000000Y-90500000D03*
D18*
X62000000Y-90500000D03*
%TD*%
D17*
%TO.C,TP3*%
X28500000Y-79000000D03*
%TD*%
D28*
%TO.C,C5*%
X55500000Y-80500000D03*
D18*
X55500000Y-78500000D03*
%TD*%
%TO.C,R17*%
X20500000Y-48045000D03*
X20500000Y-45505000D03*
%TD*%
D19*
%TO.C,C19*%
X49230000Y-55500000D03*
D20*
X51770000Y-55500000D03*
%TD*%
D18*
%TO.C,R3*%
X24500000Y-51545000D03*
X24500000Y-49005000D03*
%TD*%
D19*
%TO.C,C24*%
X35270000Y-41500000D03*
D20*
X32730000Y-41500000D03*
%TD*%
D18*
%TO.C,R1*%
X27955000Y-23000000D03*
X30495000Y-23000000D03*
%TD*%
D17*
%TO.C,TP30*%
X67000000Y-27500000D03*
%TD*%
D18*
%TO.C,R9*%
X60455000Y-66500000D03*
X62995000Y-66500000D03*
%TD*%
D17*
%TO.C,TP19*%
X16500000Y-73500000D03*
%TD*%
D18*
%TO.C,R12*%
X43455000Y-72500000D03*
X45995000Y-72500000D03*
%TD*%
D30*
%TO.C,U1*%
X7690000Y-53510000D03*
D31*
X7690000Y-50970000D03*
X7690000Y-48430000D03*
X7690000Y-45890000D03*
X7690000Y-43350000D03*
X7690000Y-40810000D03*
X7690000Y-38270000D03*
X7690000Y-35730000D03*
X7690000Y-33190000D03*
X7690000Y-30650000D03*
X7690000Y-28110000D03*
X7690000Y-25570000D03*
X7690000Y-23030000D03*
X7690000Y-20490000D03*
X15310000Y-20490000D03*
X15310000Y-23030000D03*
X15310000Y-25570000D03*
X15310000Y-28110000D03*
X15310000Y-30650000D03*
X15310000Y-33190000D03*
X15310000Y-35730000D03*
X15310000Y-38270000D03*
X15310000Y-40810000D03*
X15310000Y-43350000D03*
X15310000Y-45890000D03*
X15310000Y-48430000D03*
X15310000Y-50970000D03*
X15310000Y-53510000D03*
%TD*%
D15*
%TO.C,J3*%
X63500000Y-52000000D03*
D16*
X63500000Y-49460000D03*
X63500000Y-46920000D03*
X63500000Y-44380000D03*
X63500000Y-41840000D03*
X63500000Y-39300000D03*
%TD*%
D18*
%TO.C,R11*%
X53955000Y-59500000D03*
X56495000Y-59500000D03*
%TD*%
D36*
%TO.C,C1*%
X42000000Y-90500000D03*
D18*
X40000000Y-90500000D03*
%TD*%
D23*
%TO.C,Q5*%
X37960000Y-38140000D03*
D24*
X40500000Y-38140000D03*
X43040000Y-38140000D03*
%TD*%
D17*
%TO.C,TP4*%
X34500000Y-81000000D03*
%TD*%
D18*
%TO.C,R13*%
X38000000Y-72955000D03*
X38000000Y-75495000D03*
%TD*%
D25*
%TO.C,C9*%
X24000000Y-33500000D03*
D18*
X26000000Y-33500000D03*
%TD*%
%TO.C,R31*%
X42500000Y-64080000D03*
X42500000Y-53920000D03*
%TD*%
%TO.C,R15*%
X53000000Y-19045000D03*
X53000000Y-16505000D03*
%TD*%
D17*
%TO.C,TP23*%
X60500000Y-70000000D03*
%TD*%
D19*
%TO.C,C12*%
X23230000Y-39500000D03*
D20*
X25770000Y-39500000D03*
%TD*%
D39*
%TO.C,U4*%
X75890000Y-16810000D03*
D40*
X73350000Y-16810000D03*
X70810000Y-16810000D03*
X68270000Y-16810000D03*
X65730000Y-16810000D03*
X63190000Y-16810000D03*
X60650000Y-16810000D03*
X58110000Y-16810000D03*
X58110000Y-9190000D03*
X60650000Y-9190000D03*
X63190000Y-9190000D03*
X65730000Y-9190000D03*
X68270000Y-9190000D03*
X70810000Y-9190000D03*
X73350000Y-9190000D03*
X75890000Y-9190000D03*
%TD*%
D23*
%TO.C,Q3*%
X28140000Y-16540000D03*
D24*
X28140000Y-14000000D03*
X28140000Y-11460000D03*
%TD*%
D19*
%TO.C,C26*%
X34500000Y-47270000D03*
D20*
X34500000Y-44730000D03*
%TD*%
D19*
%TO.C,C20*%
X50000000Y-58730000D03*
D20*
X50000000Y-61270000D03*
%TD*%
D18*
%TO.C,R27*%
X12920000Y-16000000D03*
X23080000Y-16000000D03*
%TD*%
%TO.C,R29*%
X25000000Y-91045000D03*
X25000000Y-88505000D03*
%TD*%
%TO.C,R21*%
X60000000Y-19920000D03*
X60000000Y-30080000D03*
%TD*%
%TO.C,R25*%
X28580000Y-19500000D03*
X18420000Y-19500000D03*
%TD*%
D17*
%TO.C,TP20*%
X54000000Y-13000000D03*
%TD*%
D18*
%TO.C,R37*%
X55920000Y-34500000D03*
X66080000Y-34500000D03*
%TD*%
%TO.C,R19*%
X56500000Y-19920000D03*
X56500000Y-30080000D03*
%TD*%
%TO.C,R23*%
X63500000Y-19920000D03*
X63500000Y-30080000D03*
%TD*%
%TO.C,R34*%
X38500000Y-59420000D03*
X38500000Y-69580000D03*
%TD*%
D19*
%TO.C,C4*%
X50500000Y-84770000D03*
D20*
X50500000Y-82230000D03*
%TD*%
%LPD*%
M02*
