#VRML V2.0 utf8
# Project-owned nominal model; units 0.1 inch for KiCad.
Shape { appearance Appearance { material Material { diffuseColor 0.055 0.06 0.065 } } geometry IndexedFaceSet { solid FALSE coord Coordinate { point [ -1.535433 1.535433 0.000000,
-1.535433 -1.535433 0.000000,
-1.535433 1.535433 1.181102,
-1.535433 -1.535433 1.181102,
1.535433 -1.535433 0.000000,
1.535433 1.535433 0.000000,
1.535433 1.535433 1.181102,
1.535433 -1.535433 1.181102 ] } coordIndex [ 0 1 2 -1,
1 3 2 -1,
4 5 6 -1,
7 4 6 -1,
4 7 1 -1,
1 7 3 -1,
6 5 0 -1,
6 0 2 -1,
0 5 1 -1,
1 5 4 -1,
6 2 3 -1,
6 3 7 -1 ] } }
Shape { appearance Appearance { material Material { diffuseColor 0.45 0.47 0.48 } } geometry IndexedFaceSet { solid FALSE coord Coordinate { point [ 1.317258 0.065742 1.279528,
1.318898 -0.000000 1.279528,
1.318898 -0.000000 1.181102,
1.317258 0.065742 1.181102,
1.312344 0.131320 1.279528,
1.312344 0.131320 1.181102,
1.304167 0.196571 1.279528,
1.304167 0.196571 1.181102,
1.292747 0.261334 1.279528,
1.292747 0.261334 1.181102,
1.278114 0.325448 1.279528,
1.278114 0.325448 1.181102,
1.260303 0.388752 1.279528,
1.260303 0.388752 1.181102,
1.239358 0.451090 1.279528,
1.239358 0.451090 1.181102,
1.215333 0.512306 1.279528,
1.215333 0.512306 1.181102,
1.188286 0.572248 1.279528,
1.188286 0.572248 1.181102,
1.158284 0.630768 1.279528,
1.158284 0.630768 1.181102,
1.125403 0.687720 1.279528,
1.125403 0.687720 1.181102,
1.089724 0.742961 1.279528,
1.089724 0.742961 1.181102,
1.051336 0.796356 1.279528,
1.051336 0.796356 1.181102,
1.010334 0.847771 1.279528,
1.010334 0.847771 1.181102,
0.966820 0.897078 1.279528,
0.966820 0.897078 1.181102,
0.920903 0.944155 1.279528,
0.920903 0.944155 1.181102,
0.872696 0.988885 1.279528,
0.872696 0.988885 1.181102,
0.822319 1.031156 1.279528,
0.822319 1.031156 1.181102,
0.769898 1.070863 1.279528,
0.769898 1.070863 1.181102,
0.715563 1.107908 1.181102,
0.715563 1.107908 1.279528,
0.659449 1.142199 1.181102,
0.659449 1.142199 1.279528,
0.601695 1.173650 1.279528,
0.601695 1.173650 1.181102,
0.542446 1.202183 1.279528,
0.542446 1.202183 1.181102,
0.481847 1.227727 1.279528,
0.481847 1.227727 1.181102,
0.420051 1.250219 1.279528,
0.420051 1.250219 1.181102,
0.357211 1.269603 1.279528,
0.357211 1.269603 1.181102,
0.293482 1.285830 1.279528,
0.293482 1.285830 1.181102,
0.229024 1.298861 1.279528,
0.229024 1.298861 1.181102,
0.163997 1.308662 1.279528,
0.163997 1.308662 1.181102,
0.098561 1.315210 1.279528,
0.098561 1.315210 1.181102,
0.032881 1.318488 1.279528,
0.032881 1.318488 1.181102,
-0.032881 1.318488 1.279528,
-0.032881 1.318488 1.181102,
-0.098561 1.315210 1.181102,
-0.098561 1.315210 1.279528,
-0.163997 1.308662 1.279528,
-0.163997 1.308662 1.181102,
-0.229024 1.298861 1.279528,
-0.229024 1.298861 1.181102,
-0.293482 1.285830 1.279528,
-0.293482 1.285830 1.181102,
-0.357211 1.269603 1.279528,
-0.357211 1.269603 1.181102,
-0.420051 1.250219 1.279528,
-0.420051 1.250219 1.181102,
-0.481847 1.227727 1.279528,
-0.481847 1.227727 1.181102,
-0.542446 1.202183 1.279528,
-0.542446 1.202183 1.181102,
-0.601695 1.173650 1.279528,
-0.601695 1.173650 1.181102,
-0.659449 1.142199 1.181102,
-0.659449 1.142199 1.279528,
-0.715563 1.107908 1.279528,
-0.715563 1.107908 1.181102,
-0.769898 1.070863 1.279528,
-0.769898 1.070863 1.181102,
-0.822319 1.031156 1.279528,
-0.822319 1.031156 1.181102,
-0.872696 0.988885 1.279528,
-0.872696 0.988885 1.181102,
-0.920903 0.944155 1.279528,
-0.920903 0.944155 1.181102,
-0.966820 0.897078 1.279528,
-0.966820 0.897078 1.181102,
-1.010334 0.847771 1.279528,
-1.010334 0.847771 1.181102,
-1.051336 0.796356 1.279528,
-1.051336 0.796356 1.181102,
-1.089724 0.742961 1.279528,
-1.089724 0.742961 1.181102,
-1.125403 0.687720 1.279528,
-1.125403 0.687720 1.181102,
-1.158284 0.630768 1.279528,
-1.158284 0.630768 1.181102,
-1.188286 0.572248 1.279528,
-1.188286 0.572248 1.181102,
-1.215333 0.512306 1.279528,
-1.215333 0.512306 1.181102,
-1.239358 0.451090 1.279528,
-1.239358 0.451090 1.181102,
-1.260303 0.388752 1.279528,
-1.260303 0.388752 1.181102,
-1.278114 0.325448 1.279528,
-1.278114 0.325448 1.181102,
-1.292747 0.261334 1.279528,
-1.292747 0.261334 1.181102,
-1.304167 0.196571 1.279528,
-1.304167 0.196571 1.181102,
-1.312344 0.131320 1.279528,
-1.312344 0.131320 1.181102,
-1.317258 0.065742 1.279528,
-1.317258 0.065742 1.181102,
-1.318898 -0.000000 1.279528,
-1.318898 -0.000000 1.181102,
-1.317258 -0.065742 1.279528,
-1.317258 -0.065742 1.181102,
-1.312344 -0.131320 1.279528,
-1.312344 -0.131320 1.181102,
-1.304167 -0.196571 1.279528,
-1.304167 -0.196571 1.181102,
-1.292747 -0.261334 1.279528,
-1.292747 -0.261334 1.181102,
-1.278114 -0.325448 1.279528,
-1.278114 -0.325448 1.181102,
-1.260303 -0.388752 1.279528,
-1.260303 -0.388752 1.181102,
-1.239358 -0.451090 1.279528,
-1.239358 -0.451090 1.181102,
-1.215333 -0.512306 1.279528,
-1.215333 -0.512306 1.181102,
-1.188286 -0.572248 1.279528,
-1.188286 -0.572248 1.181102,
-1.158284 -0.630768 1.279528,
-1.158284 -0.630768 1.181102,
-1.125403 -0.687720 1.181102,
-1.125403 -0.687720 1.279528,
-1.089724 -0.742961 1.279528,
-1.089724 -0.742961 1.181102,
-1.051336 -0.796356 1.279528,
-1.051336 -0.796356 1.181102,
-1.010334 -0.847771 1.279528,
-1.010334 -0.847771 1.181102,
-0.966820 -0.897078 1.279528,
-0.966820 -0.897078 1.181102,
-0.920903 -0.944155 1.279528,
-0.920903 -0.944155 1.181102,
-0.872696 -0.988885 1.279528,
-0.872696 -0.988885 1.181102,
-0.822319 -1.031156 1.279528,
-0.822319 -1.031156 1.181102,
-0.769898 -1.070863 1.279528,
-0.769898 -1.070863 1.181102,
-0.715563 -1.107908 1.279528,
-0.715563 -1.107908 1.181102,
-0.659449 -1.142199 1.279528,
-0.659449 -1.142199 1.181102,
-0.601695 -1.173650 1.279528,
-0.601695 -1.173650 1.181102,
-0.542446 -1.202183 1.279528,
-0.542446 -1.202183 1.181102,
-0.481847 -1.227727 1.279528,
-0.481847 -1.227727 1.181102,
-0.420051 -1.250219 1.279528,
-0.420051 -1.250219 1.181102,
-0.357211 -1.269603 1.279528,
-0.357211 -1.269603 1.181102,
-0.293482 -1.285830 1.279528,
-0.293482 -1.285830 1.181102,
-0.229024 -1.298861 1.279528,
-0.229024 -1.298861 1.181102,
-0.163997 -1.308662 1.279528,
-0.163997 -1.308662 1.181102,
-0.098561 -1.315210 1.279528,
-0.098561 -1.315210 1.181102,
-0.032881 -1.318488 1.279528,
-0.032881 -1.318488 1.181102,
0.032881 -1.318488 1.279528,
0.032881 -1.318488 1.181102,
0.098561 -1.315210 1.279528,
0.098561 -1.315210 1.181102,
0.163997 -1.308662 1.279528,
0.163997 -1.308662 1.181102,
0.229024 -1.298861 1.279528,
0.229024 -1.298861 1.181102,
0.293482 -1.285830 1.279528,
0.293482 -1.285830 1.181102,
0.357211 -1.269603 1.279528,
0.357211 -1.269603 1.181102,
0.420051 -1.250219 1.279528,
0.420051 -1.250219 1.181102,
0.481847 -1.227727 1.279528,
0.481847 -1.227727 1.181102,
0.542446 -1.202183 1.279528,
0.542446 -1.202183 1.181102,
0.601695 -1.173650 1.279528,
0.601695 -1.173650 1.181102,
0.659449 -1.142199 1.279528,
0.659449 -1.142199 1.181102,
0.715563 -1.107908 1.279528,
0.715563 -1.107908 1.181102,
0.769898 -1.070863 1.279528,
0.769898 -1.070863 1.181102,
0.822319 -1.031156 1.279528,
0.822319 -1.031156 1.181102,
0.872696 -0.988885 1.279528,
0.872696 -0.988885 1.181102,
0.920903 -0.944155 1.279528,
0.920903 -0.944155 1.181102,
0.966820 -0.897078 1.279528,
0.966820 -0.897078 1.181102,
1.010334 -0.847771 1.279528,
1.010334 -0.847771 1.181102,
1.051336 -0.796356 1.279528,
1.051336 -0.796356 1.181102,
1.089724 -0.742961 1.279528,
1.089724 -0.742961 1.181102,
1.125403 -0.687720 1.279528,
1.125403 -0.687720 1.181102,
1.158284 -0.630768 1.279528,
1.158284 -0.630768 1.181102,
1.188286 -0.572248 1.279528,
1.188286 -0.572248 1.181102,
1.215333 -0.512306 1.279528,
1.215333 -0.512306 1.181102,
1.239358 -0.451090 1.279528,
1.239358 -0.451090 1.181102,
1.260303 -0.388752 1.279528,
1.260303 -0.388752 1.181102,
1.278114 -0.325448 1.279528,
1.278114 -0.325448 1.181102,
1.292747 -0.261334 1.279528,
1.292747 -0.261334 1.181102,
1.304167 -0.196571 1.279528,
1.304167 -0.196571 1.181102,
1.312344 -0.131320 1.279528,
1.312344 -0.131320 1.181102,
1.317258 -0.065742 1.279528,
1.317258 -0.065742 1.181102 ] } coordIndex [ 0 1 2 -1,
0 2 3 -1,
4 3 5 -1,
4 0 3 -1,
6 5 7 -1,
6 4 5 -1,
8 7 9 -1,
8 6 7 -1,
10 9 11 -1,
10 8 9 -1,
12 11 13 -1,
12 10 11 -1,
14 13 15 -1,
14 12 13 -1,
16 15 17 -1,
16 14 15 -1,
18 17 19 -1,
18 16 17 -1,
20 19 21 -1,
20 18 19 -1,
22 20 21 -1,
22 21 23 -1,
24 22 23 -1,
24 23 25 -1,
26 24 25 -1,
26 25 27 -1,
28 26 27 -1,
28 27 29 -1,
30 28 29 -1,
30 29 31 -1,
32 30 31 -1,
32 31 33 -1,
34 32 33 -1,
34 33 35 -1,
36 34 35 -1,
36 35 37 -1,
38 36 37 -1,
38 37 39 -1,
38 39 40 -1,
41 38 40 -1,
41 40 42 -1,
43 41 42 -1,
44 43 42 -1,
44 42 45 -1,
46 45 47 -1,
46 44 45 -1,
48 47 49 -1,
48 46 47 -1,
50 49 51 -1,
50 48 49 -1,
52 51 53 -1,
52 50 51 -1,
54 53 55 -1,
54 52 53 -1,
56 55 57 -1,
56 54 55 -1,
58 57 59 -1,
58 56 57 -1,
60 59 61 -1,
60 58 59 -1,
62 61 63 -1,
62 60 61 -1,
64 63 65 -1,
64 65 66 -1,
64 62 63 -1,
67 64 66 -1,
68 66 69 -1,
68 67 66 -1,
70 69 71 -1,
70 68 69 -1,
72 71 73 -1,
72 70 71 -1,
74 72 73 -1,
74 73 75 -1,
76 74 75 -1,
76 75 77 -1,
78 76 77 -1,
78 77 79 -1,
80 78 79 -1,
80 79 81 -1,
82 80 81 -1,
82 81 83 -1,
82 83 84 -1,
85 82 84 -1,
86 85 84 -1,
86 84 87 -1,
88 86 87 -1,
88 87 89 -1,
90 88 89 -1,
90 89 91 -1,
92 90 91 -1,
92 91 93 -1,
94 92 93 -1,
94 93 95 -1,
96 94 95 -1,
96 95 97 -1,
98 96 97 -1,
98 97 99 -1,
100 98 99 -1,
100 99 101 -1,
102 100 101 -1,
102 101 103 -1,
104 102 103 -1,
104 103 105 -1,
106 104 105 -1,
106 105 107 -1,
108 106 107 -1,
108 107 109 -1,
110 108 109 -1,
110 109 111 -1,
112 110 111 -1,
112 111 113 -1,
114 112 113 -1,
114 113 115 -1,
116 115 117 -1,
116 114 115 -1,
118 117 119 -1,
118 116 117 -1,
120 119 121 -1,
120 118 119 -1,
122 121 123 -1,
122 120 121 -1,
124 122 123 -1,
124 123 125 -1,
126 124 125 -1,
126 125 127 -1,
128 126 127 -1,
128 127 129 -1,
130 128 129 -1,
130 129 131 -1,
132 130 131 -1,
132 131 133 -1,
134 132 133 -1,
134 133 135 -1,
136 134 135 -1,
136 135 137 -1,
138 136 137 -1,
138 137 139 -1,
140 138 139 -1,
140 139 141 -1,
142 140 141 -1,
142 141 143 -1,
144 142 143 -1,
144 143 145 -1,
146 144 145 -1,
146 145 147 -1,
146 147 148 -1,
149 146 148 -1,
150 148 151 -1,
150 149 148 -1,
152 151 153 -1,
152 150 151 -1,
154 153 155 -1,
154 152 153 -1,
156 155 157 -1,
156 154 155 -1,
158 157 159 -1,
158 156 157 -1,
160 159 161 -1,
160 158 159 -1,
162 161 163 -1,
162 160 161 -1,
164 163 165 -1,
164 162 163 -1,
166 165 167 -1,
166 164 165 -1,
168 167 169 -1,
168 166 167 -1,
170 169 171 -1,
170 168 169 -1,
172 171 173 -1,
172 170 171 -1,
174 173 175 -1,
174 172 173 -1,
176 174 175 -1,
176 175 177 -1,
178 176 177 -1,
178 177 179 -1,
180 178 179 -1,
180 179 181 -1,
182 180 181 -1,
182 181 183 -1,
184 183 185 -1,
184 182 183 -1,
186 185 187 -1,
186 184 185 -1,
188 187 189 -1,
188 186 187 -1,
190 189 191 -1,
190 188 189 -1,
192 191 193 -1,
192 190 191 -1,
194 193 195 -1,
194 192 193 -1,
196 195 197 -1,
196 194 195 -1,
198 197 199 -1,
198 196 197 -1,
200 199 201 -1,
200 198 199 -1,
202 201 203 -1,
202 200 201 -1,
204 203 205 -1,
204 202 203 -1,
206 205 207 -1,
206 204 205 -1,
208 207 209 -1,
208 206 207 -1,
210 209 211 -1,
210 208 209 -1,
212 211 213 -1,
212 210 211 -1,
214 213 215 -1,
214 212 213 -1,
216 215 217 -1,
216 214 215 -1,
218 217 219 -1,
218 216 217 -1,
220 219 221 -1,
220 218 219 -1,
222 221 223 -1,
222 220 221 -1,
224 222 223 -1,
224 223 225 -1,
226 224 225 -1,
226 225 227 -1,
228 226 227 -1,
228 227 229 -1,
230 228 229 -1,
230 229 231 -1,
232 230 231 -1,
232 231 233 -1,
234 232 233 -1,
234 233 235 -1,
236 234 235 -1,
236 235 237 -1,
238 236 237 -1,
238 237 239 -1,
240 238 239 -1,
240 239 241 -1,
242 240 241 -1,
242 241 243 -1,
244 242 243 -1,
244 243 245 -1,
246 244 245 -1,
246 245 247 -1,
248 246 247 -1,
248 247 249 -1,
250 249 251 -1,
250 248 249 -1,
1 251 2 -1,
1 250 251 -1,
162 158 160 -1,
164 158 162 -1,
146 149 150 -1,
146 150 152 -1,
172 158 164 -1,
172 164 166 -1,
172 166 168 -1,
172 168 170 -1,
142 144 146 -1,
140 142 146 -1,
178 172 174 -1,
178 174 176 -1,
134 136 138 -1,
182 172 178 -1,
182 178 180 -1,
186 182 184 -1,
126 128 130 -1,
194 190 192 -1,
120 122 124 -1,
196 190 194 -1,
196 158 172 -1,
196 172 182 -1,
196 182 186 -1,
196 156 158 -1,
196 186 188 -1,
196 188 190 -1,
118 120 124 -1,
200 196 198 -1,
112 114 116 -1,
112 116 118 -1,
112 124 126 -1,
112 118 124 -1,
204 200 202 -1,
208 204 206 -1,
106 108 110 -1,
106 110 112 -1,
210 200 204 -1,
210 204 208 -1,
104 112 126 -1,
104 106 112 -1,
104 130 132 -1,
104 132 134 -1,
104 126 130 -1,
214 210 212 -1,
100 102 104 -1,
218 214 216 -1,
218 200 210 -1,
218 210 214 -1,
94 96 98 -1,
94 98 100 -1,
92 94 100 -1,
226 220 222 -1,
226 222 224 -1,
88 100 104 -1,
88 90 92 -1,
88 92 100 -1,
85 88 104 -1,
85 86 88 -1,
232 226 228 -1,
232 228 230 -1,
82 85 104 -1,
234 218 220 -1,
234 220 226 -1,
234 226 232 -1,
236 200 218 -1,
236 218 234 -1,
74 76 78 -1,
74 78 80 -1,
74 80 82 -1,
242 238 240 -1,
244 236 238 -1,
244 238 242 -1,
70 72 74 -1,
70 82 104 -1,
70 74 82 -1,
68 70 104 -1,
68 196 200 -1,
68 104 134 -1,
68 146 152 -1,
68 134 138 -1,
68 140 146 -1,
68 138 140 -1,
68 152 154 -1,
68 154 156 -1,
68 156 196 -1,
250 244 246 -1,
250 246 248 -1,
64 67 68 -1,
1 244 250 -1,
1 236 244 -1,
60 64 68 -1,
60 62 64 -1,
8 0 4 -1,
8 4 6 -1,
54 56 58 -1,
50 52 54 -1,
14 1 0 -1,
14 8 10 -1,
14 10 12 -1,
14 0 8 -1,
48 50 54 -1,
18 14 16 -1,
44 46 48 -1,
20 236 1 -1,
20 1 14 -1,
20 14 18 -1,
43 58 60 -1,
43 54 58 -1,
43 44 48 -1,
43 48 54 -1,
24 20 22 -1,
38 41 43 -1,
38 60 68 -1,
38 43 60 -1,
26 68 200 -1,
26 236 20 -1,
26 20 24 -1,
26 200 236 -1,
34 36 38 -1,
30 26 28 -1,
32 38 68 -1,
32 68 26 -1,
32 26 30 -1,
32 34 38 -1,
159 163 161 -1,
159 165 163 -1,
148 147 151 -1,
151 147 153 -1,
159 173 165 -1,
165 173 167 -1,
167 173 169 -1,
169 173 171 -1,
145 143 147 -1,
143 141 147 -1,
173 179 175 -1,
175 179 177 -1,
137 135 139 -1,
173 183 179 -1,
179 183 181 -1,
183 187 185 -1,
129 127 131 -1,
191 195 193 -1,
123 121 125 -1,
191 197 195 -1,
159 197 173 -1,
173 197 183 -1,
183 197 187 -1,
157 197 159 -1,
187 197 189 -1,
189 197 191 -1,
121 119 125 -1,
197 201 199 -1,
115 113 117 -1,
117 113 119 -1,
125 113 127 -1,
119 113 125 -1,
201 205 203 -1,
205 209 207 -1,
109 107 111 -1,
111 107 113 -1,
201 211 205 -1,
205 211 209 -1,
113 105 127 -1,
107 105 113 -1,
131 105 133 -1,
133 105 135 -1,
127 105 131 -1,
211 215 213 -1,
103 101 105 -1,
215 219 217 -1,
201 219 211 -1,
211 219 215 -1,
97 95 99 -1,
99 95 101 -1,
95 93 101 -1,
221 227 223 -1,
223 227 225 -1,
101 89 105 -1,
91 89 93 -1,
93 89 101 -1,
89 84 105 -1,
87 84 89 -1,
227 233 229 -1,
229 233 231 -1,
84 83 105 -1,
219 235 221 -1,
221 235 227 -1,
227 235 233 -1,
201 237 219 -1,
219 237 235 -1,
77 75 79 -1,
79 75 81 -1,
81 75 83 -1,
239 243 241 -1,
237 245 239 -1,
239 245 243 -1,
73 71 75 -1,
83 71 105 -1,
75 71 83 -1,
71 69 105 -1,
197 69 201 -1,
105 69 135 -1,
147 69 153 -1,
135 69 139 -1,
141 69 147 -1,
139 69 141 -1,
153 69 155 -1,
155 69 157 -1,
157 69 197 -1,
245 251 247 -1,
247 251 249 -1,
66 65 69 -1,
245 2 251 -1,
237 2 245 -1,
65 61 69 -1,
63 61 65 -1,
3 9 5 -1,
5 9 7 -1,
57 55 59 -1,
53 51 55 -1,
2 15 3 -1,
9 15 11 -1,
11 15 13 -1,
3 15 9 -1,
51 49 55 -1,
15 19 17 -1,
47 45 49 -1,
237 21 2 -1,
2 21 15 -1,
15 21 19 -1,
59 42 61 -1,
55 42 59 -1,
45 42 49 -1,
49 42 55 -1,
21 25 23 -1,
40 39 42 -1,
61 39 69 -1,
42 39 61 -1,
69 27 201 -1,
237 27 21 -1,
21 27 25 -1,
201 27 237 -1,
37 35 39 -1,
27 31 29 -1,
39 33 69 -1,
69 33 27 -1,
27 33 31 -1,
35 33 39 -1 ] } }
Shape { appearance Appearance { material Material { diffuseColor 0.45 0.47 0.48 } } geometry IndexedFaceSet { solid FALSE coord Coordinate { point [ 0.984252 -0.000000 1.361549,
1.043307 -0.000000 1.279528,
1.042010 0.052005 1.279528,
0.688120 0.034343 1.771654,
0.688976 -0.000000 1.771654,
0.748031 -0.000000 1.689633,
1.042010 -0.052005 1.279528,
0.688120 -0.034343 1.771654,
0.979361 0.098000 1.361549,
1.038123 0.103880 1.279528,
1.031654 0.155497 1.279528,
0.964737 0.195026 1.361549,
1.022621 0.206727 1.279528,
1.011045 0.257444 1.279528,
0.920599 0.092120 1.443570,
0.925197 -0.000000 1.443570,
0.940524 0.290113 1.361549,
0.996956 0.307520 1.279528,
0.980388 0.356832 1.279528,
0.906852 0.183324 1.443570,
0.861838 0.086240 1.525591,
0.866142 -0.000000 1.525591,
0.906965 0.382318 1.361549,
0.961383 0.405257 1.279528,
0.939987 0.452674 1.279528,
0.884093 0.272707 1.443570,
0.848968 0.171623 1.525591,
0.803076 0.080360 1.607612,
0.807087 -0.000000 1.607612,
0.864391 0.470722 1.361549,
0.916255 0.498966 1.279528,
0.890244 0.544017 1.279528,
0.852547 0.359379 1.443570,
0.827661 0.255300 1.525591,
0.791084 0.159921 1.607612,
0.744314 0.074480 1.689633,
0.685553 0.068600 1.771654,
0.681281 0.102687 1.771654,
0.813227 0.554449 1.361549,
0.862021 0.587716 1.279528,
0.831654 0.629953 1.279528,
0.812528 0.442479 1.443570,
0.798129 0.336440 1.525591,
0.771230 0.237893 1.607612,
0.733200 0.148220 1.689633,
0.675316 0.136518 1.771654,
0.667671 0.170010 1.771654,
0.753981 0.632665 1.361549,
0.799220 0.670625 1.279528,
0.764798 0.709629 1.279528,
0.764434 0.521182 1.443570,
0.760664 0.414236 1.525591,
0.743711 0.313501 1.607612,
0.714799 0.220486 1.689633,
0.658367 0.203079 1.771654,
0.647426 0.235644 1.771654,
0.687241 0.704593 1.361549,
0.728475 0.746869 1.279528,
0.690342 0.782252 1.279528,
0.708742 0.594705 1.443570,
0.715640 0.487915 1.525591,
0.708801 0.385992 1.607612,
0.689293 0.290561 1.689633,
0.634875 0.267622 1.771654,
0.620746 0.298936 1.771654,
0.613671 0.769519 1.361549,
0.650491 0.815690 1.279528,
0.609024 0.847101 1.279528,
0.646007 0.662318 1.443570,
0.663503 0.556745 1.525591,
0.666846 0.454648 1.607612,
0.656937 0.357749 1.689633,
0.605074 0.329506 1.771654,
0.587897 0.359257 1.771654,
0.534002 0.826797 1.361549,
0.566042 0.876405 1.279528,
0.521654 0.903530 1.279528,
0.576851 0.723348 1.443570,
0.604772 0.620042 1.525591,
0.618264 0.518785 1.607612,
0.618053 0.421381 1.689633,
0.569259 0.388114 1.771654,
0.549205 0.416007 1.771654,
0.449026 0.875858 1.361549,
0.475968 0.928410 1.279528,
0.429099 0.950981 1.279528,
0.501962 0.777189 1.443570,
0.540031 0.677177 1.525591,
0.563538 0.577767 1.607612,
0.573025 0.480825 1.689633,
0.527787 0.442865 1.771654,
0.505055 0.468623 1.771654,
0.359588 0.916214 1.361549,
0.381163 0.971187 1.279528,
0.332279 0.988979 1.279528,
0.422085 0.823307 1.443570,
0.469922 0.727582 1.525591,
0.503210 0.631006 1.607612,
0.522303 0.535491 1.689633,
0.481069 0.493215 1.771654,
0.455886 0.516582 1.771654,
0.266575 0.947465 1.361549,
0.282570 1.004313 1.279528,
0.232158 1.017149 1.279528,
0.338012 0.861241 1.443570,
0.395143 0.770755 1.525591,
0.437882 0.677974 1.607612,
0.466390 0.584835 1.689633,
0.429570 0.538663 1.771654,
0.402186 0.559406 1.771654,
0.170914 0.969299 1.361549,
0.181168 1.027457 1.279528,
0.129729 1.035210 1.279528,
0.250581 0.890617 1.443570,
0.316437 0.806269 1.525591,
0.368202 0.718204 1.607612,
0.405842 0.628366 1.689633,
0.373802 0.578758 1.771654,
0.344488 0.596671 1.771654,
0.073553 0.981500 1.361549,
0.077966 1.040390 1.279528,
0.026010 1.042983 1.279528,
0.160659 0.911141 1.443570,
0.234586 0.833769 1.525591,
0.294862 0.751296 1.607612,
0.341260 0.665652 1.689633,
0.314318 0.613101 1.771654,
0.283367 0.628006 1.771654,
-0.024538 0.983946 1.361549,
-0.026010 1.042983 1.279528,
-0.077966 1.040390 1.279528,
0.069140 0.922610 1.443570,
0.150404 0.852983 1.525591,
0.218592 0.776921 1.607612,
0.273287 0.696323 1.689633,
0.251711 0.641350 1.771654,
0.219430 0.653100 1.771654,
-0.122386 0.976613 1.361549,
-0.129729 1.035210 1.279528,
-0.181168 1.027457 1.279528,
-0.023066 0.924909 1.443570,
0.064727 0.863720 1.525591,
0.140149 0.794825 1.607612,
0.202597 0.720073 1.689633,
0.186603 0.663225 1.771654,
0.153312 0.671702 1.771654,
-0.219017 0.959575 1.361549,
-0.232158 1.017149 1.279528,
-0.282570 1.004313 1.279528,
-0.115042 0.918017 1.443570,
-0.021594 0.865873 1.525591,
0.060314 0.804830 1.607612,
0.129894 0.736667 1.689633,
0.119639 0.678509 1.771654,
0.085670 0.683629 1.771654,
-0.313471 0.932999 1.361549,
-0.332279 0.988979 1.279528,
-0.381163 0.971187 1.279528,
-0.205876 0.902000 1.443570,
-0.107699 0.859420 1.525591,
-0.020121 0.806836 1.607612,
0.055900 0.745940 1.689633,
0.051487 0.687050 1.771654,
0.017177 0.688762 1.771654,
-0.404810 0.897151 1.361549,
-0.429099 0.950981 1.279528,
-0.475968 0.928410 1.279528,
-0.294663 0.877019 1.443570,
-0.192735 0.844426 1.525591,
-0.100356 0.800823 1.607612,
-0.018649 0.747799 1.689633,
-0.017177 0.688762 1.771654,
-0.051487 0.687050 1.771654,
-0.492126 0.852387 1.361549,
-0.521654 0.903530 1.279528,
-0.566042 0.876405 1.279528,
-0.380522 0.843322 1.443570,
-0.275855 0.821039 1.525591,
-0.179594 0.786851 1.607612,
-0.093013 0.742226 1.689633,
-0.085670 0.683629 1.771654,
-0.119639 0.678509 1.771654,
-0.574551 0.799152 1.361549,
-0.609024 0.847101 1.279528,
-0.650491 0.815690 1.279528,
-0.462598 0.801244 1.443570,
-0.356233 0.789493 1.525591,
-0.257046 0.765059 1.607612,
-0.166453 0.729277 1.689633,
-0.153312 0.671702 1.771654,
-0.186603 0.663225 1.771654,
-0.651266 0.737974 1.361549,
-0.690342 0.782252 1.279528,
-0.728475 0.746869 1.279528,
-0.540078 0.751202 1.443570,
-0.433071 0.750101 1.525591,
-0.331944 0.735664 1.607612,
-0.238238 0.709080 1.689633,
-0.219430 0.653100 1.771654,
-0.251711 0.641350 1.771654,
-0.721508 0.669461 1.361549,
-0.764798 0.709629 1.279528,
-0.799220 0.670625 1.279528,
-0.612190 0.693695 1.443570,
-0.505605 0.703253 1.525591,
-0.403543 0.698958 1.607612,
-0.307656 0.681835 1.689633,
-0.283367 0.628006 1.771654,
-0.314318 0.613101 1.771654,
-0.784579 0.594296 1.361549,
-0.831654 0.629953 1.279528,
-0.862021 0.587716 1.279528,
-0.678217 0.629294 1.443570,
-0.573114 0.649417 1.525591,
-0.471132 0.655304 1.607612,
-0.374016 0.647814 1.689633,
-0.344488 0.596671 1.771654,
-0.373802 0.578758 1.771654,
-0.839853 0.513224 1.361549,
-0.890244 0.544017 1.279528,
-0.916255 0.498966 1.279528,
-0.737504 0.558638 1.443570,
-0.634927 0.589126 1.525591,
-0.534038 0.605138 1.607612,
-0.436659 0.607355 1.689633,
-0.402186 0.559406 1.771654,
-0.429570 0.538663 1.771654,
-0.886780 0.427051 1.361549,
-0.939987 0.452674 1.279528,
-0.961383 0.405257 1.279528,
-0.789462 0.482430 1.443570,
-0.690430 0.522980 1.525591,
-0.591636 0.548958 1.607612,
-0.494962 0.560860 1.689633,
-0.455886 0.516582 1.771654,
-0.481069 0.493215 1.771654,
-0.924894 0.336634 1.361549,
-0.980388 0.356832 1.279528,
-0.996956 0.307520 1.279528,
-0.833574 0.401428 1.443570,
-0.739071 0.451637 1.525591,
-0.643355 0.487322 1.607612,
-0.548346 0.508791 1.689633,
-0.505055 0.468623 1.771654,
-0.527787 0.442865 1.771654,
-0.953816 0.242871 1.361549,
-1.011045 0.257444 1.279528,
-1.022621 0.206727 1.279528,
-0.869401 0.316436 1.443570,
-0.780367 0.375805 1.525591,
-0.688680 0.420843 1.607612,
-0.596280 0.451665 1.689633,
-0.549205 0.416007 1.771654,
-0.569259 0.388114 1.771654,
-0.973259 0.146695 1.361549,
-1.031654 0.155497 1.279528,
-1.038123 0.103880 1.279528,
-0.896587 0.228299 1.443570,
-0.813907 0.296238 1.525591,
-0.727160 0.350182 1.607612,
-0.638288 0.390050 1.689633,
-0.587897 0.359257 1.771654,
-0.605074 0.329506 1.771654,
-0.983028 0.049061 1.361549,
-1.042010 0.052005 1.279528,
-1.043307 -0.000000 1.279528,
-0.914863 0.137893 1.443570,
-0.839358 0.213727 1.525591,
-0.758413 0.276040 1.607612,
-0.673953 0.324559 1.689633,
-0.620746 0.298936 1.771654,
-0.634875 0.267622 1.771654,
-0.983028 -0.049061 1.361549,
-1.042010 -0.052005 1.279528,
-1.038123 -0.103880 1.279528,
-0.924047 0.046117 1.443570,
-0.856468 0.129092 1.525591,
-0.782129 0.199155 1.607612,
-0.702920 0.255842 1.689633,
-0.647426 0.235644 1.771654,
-0.658367 0.203079 1.771654,
-0.973259 -0.146695 1.361549,
-1.031654 -0.155497 1.279528,
-1.022621 -0.206727 1.279528,
-0.924047 -0.046117 1.443570,
-0.865065 0.043174 1.525591,
-0.798072 0.120290 1.607612,
-0.724900 0.184582 1.689633,
-0.667671 0.170010 1.771654,
-0.675316 0.136518 1.771654,
-0.953816 -0.242871 1.361549,
-1.011045 -0.257444 1.279528,
-0.996956 -0.307520 1.279528,
-0.914863 -0.137893 1.443570,
-0.865065 -0.043174 1.525591,
-0.806083 0.040230 1.607612,
-0.739677 0.111488 1.689633,
-0.681281 0.102687 1.771654,
-0.685553 0.068600 1.771654,
-0.924894 -0.336634 1.361549,
-0.980388 -0.356832 1.279528,
-0.961383 -0.405257 1.279528,
-0.896587 -0.228299 1.443570,
-0.856468 -0.129092 1.525591,
-0.806083 -0.040230 1.607612,
-0.747102 0.037286 1.689633,
-0.688120 0.034343 1.771654,
-0.688976 -0.000000 1.771654,
-0.886780 -0.427051 1.361549,
-0.939987 -0.452674 1.279528,
-0.916255 -0.498966 1.279528,
-0.869401 -0.316436 1.443570,
-0.839358 -0.213727 1.525591,
-0.798072 -0.120290 1.607612,
-0.747102 -0.037286 1.689633,
-0.688120 -0.034343 1.771654,
-0.685553 -0.068600 1.771654,
-0.839853 -0.513224 1.361549,
-0.890244 -0.544017 1.279528,
-0.862021 -0.587716 1.279528,
-0.833574 -0.401428 1.443570,
-0.813907 -0.296238 1.525591,
-0.782129 -0.199155 1.607612,
-0.739677 -0.111488 1.689633,
-0.681281 -0.102687 1.771654,
-0.675316 -0.136518 1.771654,
-0.784579 -0.594296 1.361549,
-0.831654 -0.629953 1.279528,
-0.799220 -0.670625 1.279528,
-0.789462 -0.482430 1.443570,
-0.780367 -0.375805 1.525591,
-0.758413 -0.276040 1.607612,
-0.724900 -0.184582 1.689633,
-0.667671 -0.170010 1.771654,
-0.658367 -0.203079 1.771654,
-0.721508 -0.669461 1.361549,
-0.764798 -0.709629 1.279528,
-0.728475 -0.746869 1.279528,
-0.737504 -0.558638 1.443570,
-0.739071 -0.451637 1.525591,
-0.727160 -0.350182 1.607612,
-0.702920 -0.255842 1.689633,
-0.647426 -0.235644 1.771654,
-0.634875 -0.267622 1.771654,
-0.651266 -0.737974 1.361549,
-0.690342 -0.782252 1.279528,
-0.650491 -0.815690 1.279528,
-0.678217 -0.629294 1.443570,
-0.690430 -0.522980 1.525591,
-0.688680 -0.420843 1.607612,
-0.673953 -0.324559 1.689633,
-0.620746 -0.298936 1.771654,
-0.605074 -0.329506 1.771654,
-0.574551 -0.799152 1.361549,
-0.609024 -0.847101 1.279528,
-0.566042 -0.876405 1.279528,
-0.612190 -0.693695 1.443570,
-0.634927 -0.589126 1.525591,
-0.643355 -0.487322 1.607612,
-0.638288 -0.390050 1.689633,
-0.587897 -0.359257 1.771654,
-0.569259 -0.388114 1.771654,
-0.492126 -0.852387 1.361549,
-0.521654 -0.903530 1.279528,
-0.475968 -0.928410 1.279528,
-0.540078 -0.751202 1.443570,
-0.573114 -0.649417 1.525591,
-0.591636 -0.548958 1.607612,
-0.596280 -0.451665 1.689633,
-0.549205 -0.416007 1.771654,
-0.527787 -0.442865 1.771654,
-0.404810 -0.897151 1.361549,
-0.429099 -0.950981 1.279528,
-0.381163 -0.971187 1.279528,
-0.462598 -0.801244 1.443570,
-0.505605 -0.703253 1.525591,
-0.534038 -0.605138 1.607612,
-0.548346 -0.508791 1.689633,
-0.505055 -0.468623 1.771654,
-0.481069 -0.493215 1.771654,
-0.313471 -0.932999 1.361549,
-0.332279 -0.988979 1.279528,
-0.282570 -1.004313 1.279528,
-0.380522 -0.843322 1.443570,
-0.433071 -0.750101 1.525591,
-0.471132 -0.655304 1.607612,
-0.494962 -0.560860 1.689633,
-0.455886 -0.516582 1.771654,
-0.429570 -0.538663 1.771654,
-0.219017 -0.959575 1.361549,
-0.232158 -1.017149 1.279528,
-0.181168 -1.027457 1.279528,
-0.294663 -0.877019 1.443570,
-0.356233 -0.789493 1.525591,
-0.403543 -0.698958 1.607612,
-0.436659 -0.607355 1.689633,
-0.402186 -0.559406 1.771654,
-0.373802 -0.578758 1.771654,
-0.122386 -0.976613 1.361549,
-0.129729 -1.035210 1.279528,
-0.077966 -1.040390 1.279528,
-0.205876 -0.902000 1.443570,
-0.275855 -0.821039 1.525591,
-0.331944 -0.735664 1.607612,
-0.374016 -0.647814 1.689633,
-0.344488 -0.596671 1.771654,
-0.314318 -0.613101 1.771654,
-0.024538 -0.983946 1.361549,
-0.026010 -1.042983 1.279528,
0.026010 -1.042983 1.279528,
-0.115042 -0.918017 1.443570,
-0.192735 -0.844426 1.525591,
-0.257046 -0.765059 1.607612,
-0.307656 -0.681835 1.689633,
-0.283367 -0.628006 1.771654,
-0.251711 -0.641350 1.771654,
0.073553 -0.981500 1.361549,
0.077966 -1.040390 1.279528,
0.129729 -1.035210 1.279528,
-0.023066 -0.924909 1.443570,
-0.107699 -0.859420 1.525591,
-0.179594 -0.786851 1.607612,
-0.238238 -0.709080 1.689633,
-0.219430 -0.653100 1.771654,
-0.186603 -0.663225 1.771654,
0.170914 -0.969299 1.361549,
0.181168 -1.027457 1.279528,
0.232158 -1.017149 1.279528,
0.069140 -0.922610 1.443570,
-0.021594 -0.865873 1.525591,
-0.100356 -0.800823 1.607612,
-0.166453 -0.729277 1.689633,
-0.153312 -0.671702 1.771654,
-0.119639 -0.678509 1.771654,
0.266575 -0.947465 1.361549,
0.282570 -1.004313 1.279528,
0.332279 -0.988979 1.279528,
0.160659 -0.911141 1.443570,
0.064727 -0.863720 1.525591,
-0.020121 -0.806836 1.607612,
-0.093013 -0.742226 1.689633,
-0.085670 -0.683629 1.771654,
-0.051487 -0.687050 1.771654,
0.359588 -0.916214 1.361549,
0.381163 -0.971187 1.279528,
0.429099 -0.950981 1.279528,
0.250581 -0.890617 1.443570,
0.150404 -0.852983 1.525591,
0.060314 -0.804830 1.607612,
-0.018649 -0.747799 1.689633,
-0.017177 -0.688762 1.771654,
0.017177 -0.688762 1.771654,
0.449026 -0.875858 1.361549,
0.475968 -0.928410 1.279528,
0.521654 -0.903530 1.279528,
0.338012 -0.861241 1.443570,
0.234586 -0.833769 1.525591,
0.140149 -0.794825 1.607612,
0.055900 -0.745940 1.689633,
0.051487 -0.687050 1.771654,
0.085670 -0.683629 1.771654,
0.534002 -0.826797 1.361549,
0.566042 -0.876405 1.279528,
0.609024 -0.847101 1.279528,
0.422085 -0.823307 1.443570,
0.316437 -0.806269 1.525591,
0.218592 -0.776921 1.607612,
0.129894 -0.736667 1.689633,
0.119639 -0.678509 1.771654,
0.153312 -0.671702 1.771654,
0.613671 -0.769519 1.361549,
0.650491 -0.815690 1.279528,
0.690342 -0.782252 1.279528,
0.501962 -0.777189 1.443570,
0.395143 -0.770755 1.525591,
0.294862 -0.751296 1.607612,
0.202597 -0.720073 1.689633,
0.219430 -0.653100 1.771654,
0.186603 -0.663225 1.771654,
0.687241 -0.704593 1.361549,
0.728475 -0.746869 1.279528,
0.764798 -0.709629 1.279528,
0.576851 -0.723348 1.443570,
0.469922 -0.727582 1.525591,
0.368202 -0.718204 1.607612,
0.273287 -0.696323 1.689633,
0.251711 -0.641350 1.771654,
0.283367 -0.628006 1.771654,
0.753981 -0.632665 1.361549,
0.799220 -0.670625 1.279528,
0.831654 -0.629953 1.279528,
0.646007 -0.662318 1.443570,
0.540031 -0.677177 1.525591,
0.437882 -0.677974 1.607612,
0.341260 -0.665652 1.689633,
0.314318 -0.613101 1.771654,
0.344488 -0.596671 1.771654,
0.813227 -0.554449 1.361549,
0.862021 -0.587716 1.279528,
0.890244 -0.544017 1.279528,
0.708742 -0.594705 1.443570,
0.604772 -0.620042 1.525591,
0.503210 -0.631006 1.607612,
0.405842 -0.628366 1.689633,
0.373802 -0.578758 1.771654,
0.402186 -0.559406 1.771654,
0.864391 -0.470722 1.361549,
0.916255 -0.498966 1.279528,
0.939987 -0.452674 1.279528,
0.764434 -0.521182 1.443570,
0.663503 -0.556745 1.525591,
0.563538 -0.577767 1.607612,
0.466390 -0.584835 1.689633,
0.429570 -0.538663 1.771654,
0.455886 -0.516582 1.771654,
0.906965 -0.382318 1.361549,
0.961383 -0.405257 1.279528,
0.980388 -0.356832 1.279528,
0.812528 -0.442479 1.443570,
0.715640 -0.487915 1.525591,
0.618264 -0.518785 1.607612,
0.522303 -0.535491 1.689633,
0.481069 -0.493215 1.771654,
0.505055 -0.468623 1.771654,
0.940524 -0.290113 1.361549,
0.996956 -0.307520 1.279528,
1.011045 -0.257444 1.279528,
0.852547 -0.359379 1.443570,
0.760664 -0.414236 1.525591,
0.666846 -0.454648 1.607612,
0.573025 -0.480825 1.689633,
0.527787 -0.442865 1.771654,
0.549205 -0.416007 1.771654,
0.964737 -0.195026 1.361549,
1.022621 -0.206727 1.279528,
1.031654 -0.155497 1.279528,
0.884093 -0.272707 1.443570,
0.798129 -0.336440 1.525591,
0.708801 -0.385992 1.607612,
0.618053 -0.421381 1.689633,
0.569259 -0.388114 1.771654,
0.587897 -0.359257 1.771654,
0.979361 -0.098000 1.361549,
1.038123 -0.103880 1.279528,
0.906852 -0.183324 1.443570,
0.827661 -0.255300 1.525591,
0.743711 -0.313501 1.607612,
0.656937 -0.357749 1.689633,
0.605074 -0.329506 1.771654,
0.620746 -0.298936 1.771654,
0.920599 -0.092120 1.443570,
0.848968 -0.171623 1.525591,
0.771230 -0.237893 1.607612,
0.689293 -0.290561 1.689633,
0.634875 -0.267622 1.771654,
0.647426 -0.235644 1.771654,
0.861838 -0.086240 1.525591,
0.791084 -0.159921 1.607612,
0.714799 -0.220486 1.689633,
0.658367 -0.203079 1.771654,
0.667671 -0.170010 1.771654,
0.803076 -0.080360 1.607612,
0.733200 -0.148220 1.689633,
0.675316 -0.136518 1.771654,
0.681281 -0.102687 1.771654,
0.744314 -0.074480 1.689633,
0.685553 -0.068600 1.771654 ] } coordIndex [ 0 1 2 -1,
3 4 5 -1,
0 6 1 -1,
4 7 5 -1,
8 2 9 -1,
8 9 10 -1,
8 0 2 -1,
11 8 10 -1,
11 10 12 -1,
11 12 13 -1,
14 0 8 -1,
14 15 0 -1,
16 13 17 -1,
16 17 18 -1,
16 11 13 -1,
19 14 8 -1,
19 8 11 -1,
20 21 15 -1,
20 15 14 -1,
22 18 23 -1,
22 23 24 -1,
22 16 18 -1,
25 19 11 -1,
25 11 16 -1,
26 14 19 -1,
26 20 14 -1,
27 28 21 -1,
27 21 20 -1,
29 24 30 -1,
29 22 24 -1,
29 30 31 -1,
32 16 22 -1,
32 22 29 -1,
32 25 16 -1,
33 26 19 -1,
33 19 25 -1,
34 20 26 -1,
34 27 20 -1,
35 36 3 -1,
35 37 36 -1,
35 5 28 -1,
35 28 27 -1,
35 3 5 -1,
38 31 39 -1,
38 39 40 -1,
38 29 31 -1,
41 32 29 -1,
42 33 25 -1,
42 25 32 -1,
43 26 33 -1,
43 34 26 -1,
44 45 37 -1,
44 46 45 -1,
44 35 27 -1,
44 27 34 -1,
44 37 35 -1,
47 40 48 -1,
47 48 49 -1,
47 38 40 -1,
50 41 29 -1,
50 29 38 -1,
51 32 41 -1,
51 42 32 -1,
52 43 33 -1,
52 33 42 -1,
53 54 46 -1,
53 34 43 -1,
53 55 54 -1,
53 44 34 -1,
53 46 44 -1,
56 49 57 -1,
56 57 58 -1,
56 47 49 -1,
59 50 38 -1,
59 38 47 -1,
60 41 50 -1,
60 51 41 -1,
61 42 51 -1,
61 52 42 -1,
62 63 55 -1,
62 64 63 -1,
62 55 53 -1,
62 53 43 -1,
62 43 52 -1,
65 56 58 -1,
65 58 66 -1,
65 66 67 -1,
68 47 56 -1,
68 59 47 -1,
69 59 68 -1,
69 60 50 -1,
69 50 59 -1,
70 51 60 -1,
70 61 51 -1,
71 62 52 -1,
71 72 64 -1,
71 73 72 -1,
71 61 70 -1,
71 52 61 -1,
71 64 62 -1,
74 65 67 -1,
74 67 75 -1,
74 75 76 -1,
77 68 56 -1,
77 56 65 -1,
78 69 68 -1,
79 70 60 -1,
79 60 69 -1,
80 81 73 -1,
80 82 81 -1,
80 71 70 -1,
80 73 71 -1,
83 76 84 -1,
83 84 85 -1,
83 74 76 -1,
86 65 74 -1,
86 77 65 -1,
87 68 77 -1,
87 77 86 -1,
87 78 68 -1,
88 69 78 -1,
88 79 69 -1,
89 90 82 -1,
89 70 79 -1,
89 91 90 -1,
89 80 70 -1,
89 82 80 -1,
92 83 85 -1,
92 85 93 -1,
92 93 94 -1,
95 86 74 -1,
95 74 83 -1,
96 87 86 -1,
97 88 78 -1,
97 78 87 -1,
98 99 91 -1,
98 79 88 -1,
98 100 99 -1,
98 89 79 -1,
98 91 89 -1,
101 92 94 -1,
101 94 102 -1,
101 102 103 -1,
104 83 92 -1,
104 95 83 -1,
105 86 95 -1,
105 95 104 -1,
105 96 86 -1,
106 87 96 -1,
106 97 87 -1,
107 88 97 -1,
107 98 88 -1,
107 108 100 -1,
107 109 108 -1,
107 100 98 -1,
110 101 103 -1,
110 103 111 -1,
110 111 112 -1,
113 104 92 -1,
113 92 101 -1,
114 105 104 -1,
114 104 113 -1,
115 96 105 -1,
115 106 96 -1,
116 97 106 -1,
116 117 109 -1,
116 118 117 -1,
116 109 107 -1,
116 106 115 -1,
116 107 97 -1,
119 110 112 -1,
119 112 120 -1,
119 120 121 -1,
122 110 119 -1,
122 113 101 -1,
122 101 110 -1,
123 114 113 -1,
124 115 105 -1,
124 105 114 -1,
125 126 118 -1,
125 127 126 -1,
125 118 116 -1,
125 116 115 -1,
128 119 121 -1,
128 121 129 -1,
128 129 130 -1,
131 122 119 -1,
132 113 122 -1,
132 123 113 -1,
133 114 123 -1,
133 124 114 -1,
134 125 115 -1,
134 135 127 -1,
134 136 135 -1,
134 115 124 -1,
134 127 125 -1,
137 128 130 -1,
137 130 138 -1,
137 138 139 -1,
140 128 137 -1,
140 119 128 -1,
140 131 119 -1,
141 122 131 -1,
141 132 122 -1,
142 133 123 -1,
142 132 141 -1,
142 123 132 -1,
143 144 136 -1,
143 145 144 -1,
143 124 133 -1,
143 134 124 -1,
143 136 134 -1,
146 139 147 -1,
146 147 148 -1,
146 137 139 -1,
149 140 137 -1,
149 137 146 -1,
150 141 131 -1,
150 131 140 -1,
151 142 141 -1,
152 133 142 -1,
152 153 145 -1,
152 154 153 -1,
152 145 143 -1,
152 143 133 -1,
155 146 148 -1,
155 148 156 -1,
155 156 157 -1,
158 149 146 -1,
159 140 149 -1,
159 150 140 -1,
160 151 141 -1,
160 141 150 -1,
161 152 142 -1,
161 162 154 -1,
161 163 162 -1,
161 142 151 -1,
161 154 152 -1,
164 155 157 -1,
164 157 165 -1,
164 165 166 -1,
167 146 155 -1,
167 158 146 -1,
167 155 164 -1,
168 149 158 -1,
168 159 149 -1,
169 159 168 -1,
169 150 159 -1,
169 160 150 -1,
170 171 163 -1,
170 172 171 -1,
170 161 151 -1,
170 163 161 -1,
170 151 160 -1,
173 166 174 -1,
173 174 175 -1,
173 164 166 -1,
176 167 164 -1,
177 158 167 -1,
177 168 158 -1,
178 169 168 -1,
179 160 169 -1,
179 172 170 -1,
179 180 172 -1,
179 181 180 -1,
179 170 160 -1,
179 169 178 -1,
182 175 183 -1,
182 183 184 -1,
182 173 175 -1,
185 164 173 -1,
185 176 164 -1,
186 176 185 -1,
186 177 167 -1,
186 167 176 -1,
187 168 177 -1,
187 178 168 -1,
188 181 179 -1,
188 179 178 -1,
188 189 181 -1,
188 190 189 -1,
191 184 192 -1,
191 192 193 -1,
191 182 184 -1,
194 173 182 -1,
194 182 191 -1,
194 185 173 -1,
195 186 185 -1,
196 177 186 -1,
196 187 177 -1,
197 178 187 -1,
197 190 188 -1,
197 198 190 -1,
197 199 198 -1,
197 188 178 -1,
200 191 193 -1,
200 193 201 -1,
200 201 202 -1,
203 194 191 -1,
204 195 185 -1,
204 185 194 -1,
205 186 195 -1,
205 196 186 -1,
206 197 187 -1,
206 199 197 -1,
206 207 199 -1,
206 208 207 -1,
206 187 196 -1,
209 200 202 -1,
209 202 210 -1,
209 210 211 -1,
212 191 200 -1,
212 203 191 -1,
213 194 203 -1,
213 204 194 -1,
214 195 204 -1,
214 205 195 -1,
215 196 205 -1,
215 216 208 -1,
215 205 214 -1,
215 217 216 -1,
215 208 206 -1,
215 206 196 -1,
218 209 211 -1,
218 211 219 -1,
218 219 220 -1,
221 212 200 -1,
221 200 209 -1,
222 203 212 -1,
222 213 203 -1,
223 204 213 -1,
223 214 204 -1,
223 213 222 -1,
224 225 217 -1,
224 226 225 -1,
224 215 214 -1,
224 217 215 -1,
227 220 228 -1,
227 218 220 -1,
227 228 229 -1,
230 221 209 -1,
230 209 218 -1,
230 218 227 -1,
231 212 221 -1,
231 222 212 -1,
232 223 222 -1,
233 234 226 -1,
233 235 234 -1,
233 226 224 -1,
233 224 214 -1,
233 214 223 -1,
236 227 229 -1,
236 229 237 -1,
236 237 238 -1,
239 230 227 -1,
240 221 230 -1,
240 231 221 -1,
241 222 231 -1,
241 232 222 -1,
242 243 235 -1,
242 244 243 -1,
242 223 232 -1,
242 235 233 -1,
242 233 223 -1,
245 236 238 -1,
245 238 246 -1,
245 246 247 -1,
248 239 227 -1,
248 227 236 -1,
249 230 239 -1,
249 240 230 -1,
250 241 231 -1,
250 231 240 -1,
251 232 241 -1,
251 244 242 -1,
251 242 232 -1,
251 252 244 -1,
251 253 252 -1,
254 245 247 -1,
254 247 255 -1,
254 255 256 -1,
257 245 254 -1,
257 236 245 -1,
257 248 236 -1,
258 239 248 -1,
258 249 239 -1,
259 240 249 -1,
259 250 240 -1,
260 253 251 -1,
260 261 253 -1,
260 262 261 -1,
260 251 241 -1,
260 241 250 -1,
263 254 256 -1,
263 256 264 -1,
263 264 265 -1,
266 257 254 -1,
267 248 257 -1,
267 258 248 -1,
268 259 249 -1,
268 249 258 -1,
269 260 250 -1,
269 259 268 -1,
269 250 259 -1,
269 262 260 -1,
269 270 262 -1,
269 271 270 -1,
272 263 265 -1,
272 265 273 -1,
272 273 274 -1,
275 266 254 -1,
275 254 263 -1,
276 266 275 -1,
276 267 257 -1,
276 257 266 -1,
277 268 258 -1,
277 258 267 -1,
277 267 276 -1,
278 271 269 -1,
278 279 271 -1,
278 280 279 -1,
278 269 268 -1,
281 272 274 -1,
281 274 282 -1,
281 282 283 -1,
284 275 263 -1,
284 263 272 -1,
285 275 284 -1,
285 276 275 -1,
286 277 276 -1,
287 278 268 -1,
287 268 277 -1,
287 288 280 -1,
287 289 288 -1,
287 280 278 -1,
290 281 283 -1,
290 283 291 -1,
290 291 292 -1,
293 272 281 -1,
293 284 272 -1,
294 285 284 -1,
295 276 285 -1,
295 286 276 -1,
295 285 294 -1,
296 287 277 -1,
296 277 286 -1,
296 297 289 -1,
296 298 297 -1,
296 289 287 -1,
299 292 300 -1,
299 300 301 -1,
299 290 292 -1,
302 281 290 -1,
302 293 281 -1,
303 294 284 -1,
303 284 293 -1,
304 295 294 -1,
305 306 298 -1,
305 307 306 -1,
305 296 286 -1,
305 286 295 -1,
305 298 296 -1,
308 301 309 -1,
308 309 310 -1,
308 299 301 -1,
311 302 290 -1,
311 290 299 -1,
312 293 302 -1,
312 303 293 -1,
313 294 303 -1,
313 304 294 -1,
314 295 304 -1,
314 315 307 -1,
314 316 315 -1,
314 307 305 -1,
314 305 295 -1,
317 310 318 -1,
317 318 319 -1,
317 308 310 -1,
320 311 299 -1,
320 299 308 -1,
321 312 302 -1,
321 302 311 -1,
322 313 303 -1,
322 303 312 -1,
323 316 314 -1,
323 304 313 -1,
323 324 316 -1,
323 325 324 -1,
323 314 304 -1,
326 319 327 -1,
326 327 328 -1,
326 317 319 -1,
329 308 317 -1,
329 320 308 -1,
330 321 311 -1,
330 311 320 -1,
331 322 312 -1,
331 312 321 -1,
331 321 330 -1,
332 313 322 -1,
332 323 313 -1,
332 325 323 -1,
332 333 325 -1,
332 334 333 -1,
335 328 336 -1,
335 336 337 -1,
335 326 328 -1,
338 329 317 -1,
338 317 326 -1,
339 330 320 -1,
339 320 329 -1,
339 329 338 -1,
340 331 330 -1,
341 322 331 -1,
341 334 332 -1,
341 342 334 -1,
341 343 342 -1,
341 332 322 -1,
344 337 345 -1,
344 345 346 -1,
344 335 337 -1,
347 326 335 -1,
347 338 326 -1,
348 339 338 -1,
349 340 330 -1,
349 330 339 -1,
349 339 348 -1,
350 331 340 -1,
350 343 341 -1,
350 351 343 -1,
350 352 351 -1,
350 341 331 -1,
353 344 346 -1,
353 346 354 -1,
353 354 355 -1,
356 335 344 -1,
356 347 335 -1,
357 348 338 -1,
357 338 347 -1,
357 347 356 -1,
358 349 348 -1,
359 350 340 -1,
359 340 349 -1,
359 360 352 -1,
359 361 360 -1,
359 352 350 -1,
362 355 363 -1,
362 363 364 -1,
362 353 355 -1,
365 344 353 -1,
365 356 344 -1,
366 357 356 -1,
366 356 365 -1,
367 358 348 -1,
367 348 357 -1,
368 359 349 -1,
368 369 361 -1,
368 370 369 -1,
368 349 358 -1,
368 361 359 -1,
371 364 372 -1,
371 372 373 -1,
371 362 364 -1,
374 365 353 -1,
374 353 362 -1,
375 366 365 -1,
376 357 366 -1,
376 367 357 -1,
377 368 358 -1,
377 370 368 -1,
377 378 370 -1,
377 379 378 -1,
377 358 367 -1,
380 373 381 -1,
380 381 382 -1,
380 371 373 -1,
383 362 371 -1,
383 374 362 -1,
384 375 365 -1,
384 365 374 -1,
385 366 375 -1,
385 376 366 -1,
386 379 377 -1,
386 377 367 -1,
386 387 379 -1,
386 388 387 -1,
386 367 376 -1,
389 380 382 -1,
389 382 390 -1,
389 390 391 -1,
392 383 371 -1,
392 371 380 -1,
393 384 374 -1,
393 374 383 -1,
394 375 384 -1,
394 384 393 -1,
394 385 375 -1,
395 386 376 -1,
395 376 385 -1,
395 388 386 -1,
395 396 388 -1,
395 397 396 -1,
398 391 399 -1,
398 399 400 -1,
398 389 391 -1,
401 392 380 -1,
401 380 389 -1,
402 393 383 -1,
402 383 392 -1,
402 392 401 -1,
403 394 393 -1,
404 395 385 -1,
404 385 394 -1,
404 397 395 -1,
404 405 397 -1,
404 406 405 -1,
407 400 408 -1,
407 408 409 -1,
407 398 400 -1,
410 389 398 -1,
410 401 389 -1,
411 402 401 -1,
412 403 393 -1,
412 393 402 -1,
413 394 403 -1,
413 406 404 -1,
413 403 412 -1,
413 414 406 -1,
413 415 414 -1,
413 404 394 -1,
416 409 417 -1,
416 417 418 -1,
416 407 409 -1,
419 398 407 -1,
419 410 398 -1,
420 411 401 -1,
420 410 419 -1,
420 401 410 -1,
421 402 411 -1,
421 412 402 -1,
422 413 412 -1,
422 423 415 -1,
422 424 423 -1,
422 415 413 -1,
425 418 426 -1,
425 426 427 -1,
425 416 418 -1,
428 407 416 -1,
428 419 407 -1,
429 419 428 -1,
429 420 419 -1,
430 411 420 -1,
430 421 411 -1,
431 424 422 -1,
431 422 412 -1,
431 412 421 -1,
431 432 424 -1,
431 433 432 -1,
434 425 427 -1,
434 427 435 -1,
434 435 436 -1,
437 416 425 -1,
437 428 416 -1,
438 429 428 -1,
439 429 438 -1,
439 420 429 -1,
439 430 420 -1,
440 421 430 -1,
440 430 439 -1,
440 433 431 -1,
440 431 421 -1,
440 441 433 -1,
440 442 441 -1,
443 434 436 -1,
443 436 444 -1,
443 444 445 -1,
446 437 425 -1,
446 425 434 -1,
447 438 428 -1,
447 437 446 -1,
447 428 437 -1,
448 439 438 -1,
449 442 440 -1,
449 440 439 -1,
449 450 442 -1,
449 451 450 -1,
452 443 445 -1,
452 445 453 -1,
452 453 454 -1,
455 443 452 -1,
455 446 434 -1,
455 434 443 -1,
456 447 446 -1,
456 446 455 -1,
457 438 447 -1,
457 448 438 -1,
458 449 439 -1,
458 439 448 -1,
458 451 449 -1,
458 459 451 -1,
458 460 459 -1,
461 454 462 -1,
461 452 454 -1,
461 462 463 -1,
464 455 452 -1,
465 455 464 -1,
465 456 455 -1,
466 447 456 -1,
466 457 447 -1,
467 448 457 -1,
467 460 458 -1,
467 458 448 -1,
467 468 460 -1,
467 469 468 -1,
470 461 463 -1,
470 463 471 -1,
470 471 472 -1,
473 452 461 -1,
473 464 452 -1,
474 465 464 -1,
475 466 456 -1,
475 456 465 -1,
476 477 478 -1,
476 467 457 -1,
476 457 466 -1,
476 469 467 -1,
476 478 469 -1,
479 472 480 -1,
479 480 481 -1,
479 470 472 -1,
482 461 470 -1,
482 473 461 -1,
483 464 473 -1,
483 474 464 -1,
483 473 482 -1,
484 465 474 -1,
484 475 465 -1,
485 486 477 -1,
485 487 486 -1,
485 475 484 -1,
485 477 476 -1,
485 466 475 -1,
485 476 466 -1,
488 479 481 -1,
488 481 489 -1,
488 489 490 -1,
491 470 479 -1,
491 482 470 -1,
492 483 482 -1,
493 474 483 -1,
493 484 474 -1,
494 495 487 -1,
494 496 495 -1,
494 485 484 -1,
494 487 485 -1,
497 488 490 -1,
497 490 498 -1,
497 498 499 -1,
500 479 488 -1,
500 491 479 -1,
501 492 482 -1,
501 482 491 -1,
502 483 492 -1,
502 493 483 -1,
503 504 496 -1,
503 505 504 -1,
503 484 493 -1,
503 494 484 -1,
503 496 494 -1,
506 499 507 -1,
506 507 508 -1,
506 497 499 -1,
509 488 497 -1,
509 497 506 -1,
509 500 488 -1,
510 491 500 -1,
510 500 509 -1,
510 501 491 -1,
511 492 501 -1,
511 502 492 -1,
512 513 505 -1,
512 514 513 -1,
512 505 503 -1,
512 493 502 -1,
512 503 493 -1,
515 506 508 -1,
515 508 516 -1,
515 516 517 -1,
518 509 506 -1,
519 510 509 -1,
520 501 510 -1,
520 511 501 -1,
521 522 514 -1,
521 523 522 -1,
521 514 512 -1,
521 502 511 -1,
521 512 502 -1,
524 517 525 -1,
524 525 526 -1,
524 515 517 -1,
527 506 515 -1,
527 518 506 -1,
528 519 509 -1,
528 509 518 -1,
529 510 519 -1,
529 520 510 -1,
530 531 523 -1,
530 532 531 -1,
530 511 520 -1,
530 521 511 -1,
530 523 521 -1,
533 526 534 -1,
533 524 526 -1,
533 534 535 -1,
536 515 524 -1,
536 527 515 -1,
537 527 536 -1,
537 518 527 -1,
537 528 518 -1,
538 519 528 -1,
538 529 519 -1,
539 540 532 -1,
539 541 540 -1,
539 532 530 -1,
539 520 529 -1,
539 530 520 -1,
542 533 535 -1,
542 535 543 -1,
542 543 6 -1,
542 6 0 -1,
544 536 524 -1,
544 524 533 -1,
545 537 536 -1,
546 528 537 -1,
546 538 528 -1,
547 548 541 -1,
547 549 548 -1,
547 541 539 -1,
547 529 538 -1,
547 539 529 -1,
550 0 15 -1,
550 533 542 -1,
550 544 533 -1,
550 542 0 -1,
551 545 536 -1,
551 544 550 -1,
551 536 544 -1,
552 546 537 -1,
552 537 545 -1,
553 538 546 -1,
553 549 547 -1,
553 554 549 -1,
553 555 554 -1,
553 547 538 -1,
556 550 15 -1,
556 551 550 -1,
556 15 21 -1,
557 545 551 -1,
557 552 545 -1,
558 559 555 -1,
558 560 559 -1,
558 555 553 -1,
558 546 552 -1,
558 553 546 -1,
561 557 551 -1,
561 551 556 -1,
561 556 21 -1,
561 21 28 -1,
562 560 558 -1,
562 563 560 -1,
562 564 563 -1,
562 552 557 -1,
562 557 561 -1,
562 558 552 -1,
565 566 564 -1,
565 7 566 -1,
565 561 28 -1,
565 562 561 -1,
565 28 5 -1,
565 564 562 -1,
565 5 7 -1,
396 387 388 -1,
424 414 415 -1,
424 415 423 -1,
432 414 424 -1,
307 315 316 -1,
460 451 459 -1,
297 298 306 -1,
297 306 307 -1,
468 451 460 -1,
468 414 432 -1,
468 396 397 -1,
468 397 405 -1,
468 405 406 -1,
468 406 414 -1,
468 432 433 -1,
468 433 441 -1,
468 441 442 -1,
468 442 450 -1,
468 450 451 -1,
288 289 297 -1,
477 469 478 -1,
279 280 288 -1,
487 477 486 -1,
487 469 477 -1,
487 468 469 -1,
270 271 279 -1,
262 279 288 -1,
262 270 279 -1,
504 487 495 -1,
504 495 496 -1,
504 468 487 -1,
505 468 504 -1,
505 387 396 -1,
505 378 379 -1,
505 379 387 -1,
505 396 468 -1,
252 253 261 -1,
252 261 262 -1,
244 262 288 -1,
244 252 262 -1,
244 307 316 -1,
244 316 324 -1,
244 324 325 -1,
244 288 297 -1,
244 325 333 -1,
244 333 334 -1,
244 297 307 -1,
522 505 513 -1,
522 513 514 -1,
234 244 334 -1,
234 235 243 -1,
234 243 244 -1,
532 523 531 -1,
217 225 226 -1,
541 532 540 -1,
541 523 532 -1,
216 226 234 -1,
216 217 226 -1,
548 522 523 -1,
548 505 522 -1,
548 523 541 -1,
208 216 234 -1,
198 199 207 -1,
559 548 549 -1,
559 549 554 -1,
559 554 555 -1,
190 198 207 -1,
189 190 207 -1,
563 559 560 -1,
181 207 208 -1,
181 234 334 -1,
181 334 342 -1,
181 342 343 -1,
181 343 351 -1,
181 208 234 -1,
181 189 207 -1,
564 559 563 -1,
566 559 564 -1,
566 548 559 -1,
163 171 172 -1,
163 172 180 -1,
163 180 181 -1,
3 7 4 -1,
36 548 566 -1,
36 7 3 -1,
36 566 7 -1,
145 153 154 -1,
145 154 162 -1,
145 162 163 -1,
54 37 45 -1,
54 45 46 -1,
136 163 181 -1,
136 144 145 -1,
136 145 163 -1,
136 181 351 -1,
136 351 352 -1,
136 352 360 -1,
136 360 361 -1,
136 361 369 -1,
55 37 54 -1,
126 127 135 -1,
126 135 136 -1,
72 63 64 -1,
117 36 37 -1,
117 548 36 -1,
117 118 126 -1,
117 378 505 -1,
117 136 369 -1,
117 126 136 -1,
117 505 548 -1,
117 369 370 -1,
117 370 378 -1,
81 72 73 -1,
81 63 72 -1,
108 109 117 -1,
90 81 82 -1,
100 108 117 -1,
91 55 63 -1,
91 81 90 -1,
91 63 81 -1,
99 37 55 -1,
99 117 37 -1,
99 100 117 -1,
99 55 91 -1,
346 355 354 -1,
363 372 364 -1,
309 301 310 -1,
346 381 355 -1,
363 381 372 -1,
328 381 336 -1,
336 381 337 -1,
337 381 345 -1,
345 381 346 -1,
355 381 363 -1,
372 381 373 -1,
301 292 310 -1,
300 292 301 -1,
310 292 318 -1,
381 391 382 -1,
382 391 390 -1,
283 282 291 -1,
381 400 391 -1,
391 400 399 -1,
274 273 282 -1,
265 264 273 -1,
409 426 417 -1,
417 426 418 -1,
255 247 256 -1,
256 247 264 -1,
409 427 426 -1,
247 246 264 -1,
427 436 435 -1,
237 229 238 -1,
436 445 444 -1,
427 445 436 -1,
246 220 264 -1,
229 220 238 -1,
228 220 229 -1,
238 220 246 -1,
292 220 318 -1,
291 220 292 -1,
318 220 319 -1,
319 220 327 -1,
282 220 291 -1,
264 220 273 -1,
273 220 282 -1,
445 454 453 -1,
427 454 445 -1,
400 454 408 -1,
408 454 409 -1,
409 454 427 -1,
454 471 462 -1,
462 471 463 -1,
210 202 211 -1,
211 202 219 -1,
219 202 220 -1,
201 193 202 -1,
471 481 472 -1,
472 481 480 -1,
400 489 454 -1,
454 489 471 -1,
471 489 481 -1,
328 489 381 -1,
327 489 328 -1,
381 489 400 -1,
192 184 193 -1,
193 184 202 -1,
489 498 490 -1,
183 175 184 -1,
489 499 498 -1,
174 166 175 -1,
184 166 202 -1,
175 166 184 -1,
499 508 507 -1,
327 508 489 -1,
489 508 499 -1,
157 156 165 -1,
516 526 517 -1,
517 526 525 -1,
148 147 156 -1,
526 535 534 -1,
516 535 526 -1,
516 543 535 -1,
508 543 516 -1,
130 129 138 -1,
138 129 139 -1,
139 129 147 -1,
156 129 165 -1,
147 129 156 -1,
6 2 1 -1,
6 9 2 -1,
543 9 6 -1,
120 112 121 -1,
121 112 129 -1,
9 12 10 -1,
543 12 9 -1,
543 13 12 -1,
112 102 129 -1,
103 102 111 -1,
111 102 112 -1,
13 18 17 -1,
508 18 543 -1,
543 18 13 -1,
94 93 102 -1,
102 93 129 -1,
18 24 23 -1,
508 24 18 -1,
129 76 165 -1,
93 76 129 -1,
84 76 85 -1,
85 76 93 -1,
165 76 166 -1,
24 31 30 -1,
67 66 75 -1,
75 66 76 -1,
66 58 76 -1,
31 49 39 -1,
39 49 40 -1,
40 49 48 -1,
24 49 31 -1,
508 57 24 -1,
202 57 220 -1,
76 57 166 -1,
58 57 76 -1,
24 57 49 -1,
166 57 202 -1,
327 57 508 -1,
220 57 327 -1 ] } }
Shape { appearance Appearance { material Material { diffuseColor 0.45 0.47 0.48 } } geometry IndexedFaceSet { solid FALSE coord Coordinate { point [ 0.688120 0.034343 2.165354,
0.688976 -0.000000 2.165354,
0.688976 -0.000000 1.771654,
0.688120 0.034343 1.771654,
0.685553 0.068600 2.165354,
0.685553 0.068600 1.771654,
0.681281 0.102687 2.165354,
0.681281 0.102687 1.771654,
0.675316 0.136518 2.165354,
0.675316 0.136518 1.771654,
0.667671 0.170010 2.165354,
0.667671 0.170010 1.771654,
0.658367 0.203079 2.165354,
0.658367 0.203079 1.771654,
0.647426 0.235644 1.771654,
0.647426 0.235644 2.165354,
0.634875 0.267622 2.165354,
0.634875 0.267622 1.771654,
0.620746 0.298936 2.165354,
0.620746 0.298936 1.771654,
0.605074 0.329506 2.165354,
0.605074 0.329506 1.771654,
0.587897 0.359257 2.165354,
0.587897 0.359257 1.771654,
0.569259 0.388114 2.165354,
0.569259 0.388114 1.771654,
0.549205 0.416007 2.165354,
0.549205 0.416007 1.771654,
0.527787 0.442865 2.165354,
0.527787 0.442865 1.771654,
0.505055 0.468623 2.165354,
0.505055 0.468623 1.771654,
0.481069 0.493215 2.165354,
0.481069 0.493215 1.771654,
0.455886 0.516582 2.165354,
0.455886 0.516582 1.771654,
0.429570 0.538663 2.165354,
0.429570 0.538663 1.771654,
0.402186 0.559406 2.165354,
0.402186 0.559406 1.771654,
0.373802 0.578758 1.771654,
0.373802 0.578758 2.165354,
0.344488 0.596671 1.771654,
0.344488 0.596671 2.165354,
0.314318 0.613101 2.165354,
0.314318 0.613101 1.771654,
0.283367 0.628006 2.165354,
0.283367 0.628006 1.771654,
0.251711 0.641350 2.165354,
0.251711 0.641350 1.771654,
0.219430 0.653100 2.165354,
0.219430 0.653100 1.771654,
0.186603 0.663225 2.165354,
0.186603 0.663225 1.771654,
0.153312 0.671702 2.165354,
0.153312 0.671702 1.771654,
0.119639 0.678509 2.165354,
0.119639 0.678509 1.771654,
0.085670 0.683629 2.165354,
0.085670 0.683629 1.771654,
0.051487 0.687050 2.165354,
0.051487 0.687050 1.771654,
0.017177 0.688762 2.165354,
0.017177 0.688762 1.771654,
-0.017177 0.688762 2.165354,
-0.017177 0.688762 1.771654,
-0.051487 0.687050 1.771654,
-0.051487 0.687050 2.165354,
-0.085670 0.683629 2.165354,
-0.085670 0.683629 1.771654,
-0.119639 0.678509 2.165354,
-0.119639 0.678509 1.771654,
-0.153312 0.671702 2.165354,
-0.153312 0.671702 1.771654,
-0.186603 0.663225 2.165354,
-0.186603 0.663225 1.771654,
-0.219430 0.653100 2.165354,
-0.219430 0.653100 1.771654,
-0.251711 0.641350 2.165354,
-0.251711 0.641350 1.771654,
-0.283367 0.628006 2.165354,
-0.283367 0.628006 1.771654,
-0.314318 0.613101 2.165354,
-0.314318 0.613101 1.771654,
-0.344488 0.596671 1.771654,
-0.344488 0.596671 2.165354,
-0.373802 0.578758 2.165354,
-0.373802 0.578758 1.771654,
-0.402186 0.559406 2.165354,
-0.402186 0.559406 1.771654,
-0.429570 0.538663 2.165354,
-0.429570 0.538663 1.771654,
-0.455886 0.516582 2.165354,
-0.455886 0.516582 1.771654,
-0.481069 0.493215 2.165354,
-0.481069 0.493215 1.771654,
-0.505055 0.468623 2.165354,
-0.505055 0.468623 1.771654,
-0.527787 0.442865 2.165354,
-0.527787 0.442865 1.771654,
-0.549205 0.416007 2.165354,
-0.549205 0.416007 1.771654,
-0.569259 0.388114 2.165354,
-0.569259 0.388114 1.771654,
-0.587897 0.359257 2.165354,
-0.587897 0.359257 1.771654,
-0.605074 0.329506 2.165354,
-0.605074 0.329506 1.771654,
-0.620746 0.298936 2.165354,
-0.620746 0.298936 1.771654,
-0.634875 0.267622 2.165354,
-0.634875 0.267622 1.771654,
-0.647426 0.235644 2.165354,
-0.647426 0.235644 1.771654,
-0.658367 0.203079 2.165354,
-0.658367 0.203079 1.771654,
-0.667671 0.170010 2.165354,
-0.667671 0.170010 1.771654,
-0.675316 0.136518 2.165354,
-0.675316 0.136518 1.771654,
-0.681281 0.102687 2.165354,
-0.681281 0.102687 1.771654,
-0.685553 0.068600 2.165354,
-0.685553 0.068600 1.771654,
-0.688120 0.034343 2.165354,
-0.688120 0.034343 1.771654,
-0.688976 -0.000000 2.165354,
-0.688976 -0.000000 1.771654,
-0.688120 -0.034343 2.165354,
-0.688120 -0.034343 1.771654,
-0.685553 -0.068600 2.165354,
-0.685553 -0.068600 1.771654,
-0.681281 -0.102687 2.165354,
-0.681281 -0.102687 1.771654,
-0.675316 -0.136518 2.165354,
-0.675316 -0.136518 1.771654,
-0.667671 -0.170010 2.165354,
-0.667671 -0.170010 1.771654,
-0.658367 -0.203079 2.165354,
-0.658367 -0.203079 1.771654,
-0.647426 -0.235644 2.165354,
-0.647426 -0.235644 1.771654,
-0.634875 -0.267622 2.165354,
-0.634875 -0.267622 1.771654,
-0.620746 -0.298936 2.165354,
-0.620746 -0.298936 1.771654,
-0.605074 -0.329506 2.165354,
-0.605074 -0.329506 1.771654,
-0.587897 -0.359257 1.771654,
-0.587897 -0.359257 2.165354,
-0.569259 -0.388114 2.165354,
-0.569259 -0.388114 1.771654,
-0.549205 -0.416007 2.165354,
-0.549205 -0.416007 1.771654,
-0.527787 -0.442865 2.165354,
-0.527787 -0.442865 1.771654,
-0.505055 -0.468623 2.165354,
-0.505055 -0.468623 1.771654,
-0.481069 -0.493215 2.165354,
-0.481069 -0.493215 1.771654,
-0.455886 -0.516582 2.165354,
-0.455886 -0.516582 1.771654,
-0.429570 -0.538663 2.165354,
-0.429570 -0.538663 1.771654,
-0.402186 -0.559406 2.165354,
-0.402186 -0.559406 1.771654,
-0.373802 -0.578758 2.165354,
-0.373802 -0.578758 1.771654,
-0.344488 -0.596671 2.165354,
-0.344488 -0.596671 1.771654,
-0.314318 -0.613101 2.165354,
-0.314318 -0.613101 1.771654,
-0.283367 -0.628006 2.165354,
-0.283367 -0.628006 1.771654,
-0.251711 -0.641350 2.165354,
-0.251711 -0.641350 1.771654,
-0.219430 -0.653100 2.165354,
-0.219430 -0.653100 1.771654,
-0.186603 -0.663225 2.165354,
-0.186603 -0.663225 1.771654,
-0.153312 -0.671702 2.165354,
-0.153312 -0.671702 1.771654,
-0.119639 -0.678509 2.165354,
-0.119639 -0.678509 1.771654,
-0.085670 -0.683629 2.165354,
-0.085670 -0.683629 1.771654,
-0.051487 -0.687050 2.165354,
-0.051487 -0.687050 1.771654,
-0.017177 -0.688762 2.165354,
-0.017177 -0.688762 1.771654,
0.017177 -0.688762 2.165354,
0.017177 -0.688762 1.771654,
0.051487 -0.687050 2.165354,
0.051487 -0.687050 1.771654,
0.085670 -0.683629 2.165354,
0.085670 -0.683629 1.771654,
0.119639 -0.678509 2.165354,
0.119639 -0.678509 1.771654,
0.153312 -0.671702 2.165354,
0.153312 -0.671702 1.771654,
0.186603 -0.663225 2.165354,
0.186603 -0.663225 1.771654,
0.219430 -0.653100 2.165354,
0.219430 -0.653100 1.771654,
0.251711 -0.641350 2.165354,
0.251711 -0.641350 1.771654,
0.283367 -0.628006 2.165354,
0.283367 -0.628006 1.771654,
0.314318 -0.613101 2.165354,
0.314318 -0.613101 1.771654,
0.344488 -0.596671 2.165354,
0.344488 -0.596671 1.771654,
0.373802 -0.578758 2.165354,
0.373802 -0.578758 1.771654,
0.402186 -0.559406 2.165354,
0.402186 -0.559406 1.771654,
0.429570 -0.538663 2.165354,
0.429570 -0.538663 1.771654,
0.455886 -0.516582 2.165354,
0.455886 -0.516582 1.771654,
0.481069 -0.493215 2.165354,
0.481069 -0.493215 1.771654,
0.505055 -0.468623 2.165354,
0.505055 -0.468623 1.771654,
0.527787 -0.442865 2.165354,
0.527787 -0.442865 1.771654,
0.549205 -0.416007 2.165354,
0.549205 -0.416007 1.771654,
0.569259 -0.388114 2.165354,
0.569259 -0.388114 1.771654,
0.587897 -0.359257 2.165354,
0.587897 -0.359257 1.771654,
0.605074 -0.329506 2.165354,
0.605074 -0.329506 1.771654,
0.620746 -0.298936 2.165354,
0.620746 -0.298936 1.771654,
0.634875 -0.267622 2.165354,
0.634875 -0.267622 1.771654,
0.647426 -0.235644 2.165354,
0.647426 -0.235644 1.771654,
0.658367 -0.203079 2.165354,
0.658367 -0.203079 1.771654,
0.667671 -0.170010 2.165354,
0.667671 -0.170010 1.771654,
0.675316 -0.136518 2.165354,
0.675316 -0.136518 1.771654,
0.681281 -0.102687 2.165354,
0.681281 -0.102687 1.771654,
0.685553 -0.068600 2.165354,
0.685553 -0.068600 1.771654,
0.688120 -0.034343 2.165354,
0.688120 -0.034343 1.771654 ] } coordIndex [ 0 1 2 -1,
0 2 3 -1,
4 3 5 -1,
4 0 3 -1,
6 5 7 -1,
6 4 5 -1,
8 7 9 -1,
8 6 7 -1,
10 9 11 -1,
10 8 9 -1,
12 11 13 -1,
12 13 14 -1,
12 10 11 -1,
15 12 14 -1,
16 14 17 -1,
16 15 14 -1,
18 17 19 -1,
18 16 17 -1,
20 19 21 -1,
20 18 19 -1,
22 20 21 -1,
22 21 23 -1,
24 22 23 -1,
24 23 25 -1,
26 24 25 -1,
26 25 27 -1,
28 26 27 -1,
28 27 29 -1,
30 28 29 -1,
30 29 31 -1,
32 30 31 -1,
32 31 33 -1,
34 32 33 -1,
34 33 35 -1,
36 34 35 -1,
36 35 37 -1,
38 36 37 -1,
38 37 39 -1,
38 39 40 -1,
41 38 40 -1,
41 40 42 -1,
43 41 42 -1,
44 43 42 -1,
44 42 45 -1,
46 45 47 -1,
46 44 45 -1,
48 47 49 -1,
48 46 47 -1,
50 49 51 -1,
50 48 49 -1,
52 51 53 -1,
52 50 51 -1,
54 53 55 -1,
54 52 53 -1,
56 55 57 -1,
56 54 55 -1,
58 57 59 -1,
58 56 57 -1,
60 59 61 -1,
60 58 59 -1,
62 61 63 -1,
62 60 61 -1,
64 63 65 -1,
64 65 66 -1,
64 62 63 -1,
67 64 66 -1,
68 66 69 -1,
68 67 66 -1,
70 69 71 -1,
70 68 69 -1,
72 71 73 -1,
72 70 71 -1,
74 72 73 -1,
74 73 75 -1,
76 74 75 -1,
76 75 77 -1,
78 76 77 -1,
78 77 79 -1,
80 78 79 -1,
80 79 81 -1,
82 80 81 -1,
82 81 83 -1,
82 83 84 -1,
85 82 84 -1,
86 85 84 -1,
86 84 87 -1,
88 86 87 -1,
88 87 89 -1,
90 88 89 -1,
90 89 91 -1,
92 90 91 -1,
92 91 93 -1,
94 92 93 -1,
94 93 95 -1,
96 94 95 -1,
96 95 97 -1,
98 96 97 -1,
98 97 99 -1,
100 98 99 -1,
100 99 101 -1,
102 100 101 -1,
102 101 103 -1,
104 102 103 -1,
104 103 105 -1,
106 104 105 -1,
106 105 107 -1,
108 106 107 -1,
108 107 109 -1,
110 108 109 -1,
110 109 111 -1,
112 110 111 -1,
112 111 113 -1,
114 112 113 -1,
114 113 115 -1,
116 115 117 -1,
116 114 115 -1,
118 117 119 -1,
118 116 117 -1,
120 119 121 -1,
120 118 119 -1,
122 121 123 -1,
122 120 121 -1,
124 122 123 -1,
124 123 125 -1,
126 124 125 -1,
126 125 127 -1,
128 126 127 -1,
128 127 129 -1,
130 128 129 -1,
130 129 131 -1,
132 130 131 -1,
132 131 133 -1,
134 132 133 -1,
134 133 135 -1,
136 134 135 -1,
136 135 137 -1,
138 136 137 -1,
138 137 139 -1,
140 138 139 -1,
140 139 141 -1,
142 140 141 -1,
142 141 143 -1,
144 142 143 -1,
144 143 145 -1,
146 144 145 -1,
146 145 147 -1,
146 147 148 -1,
149 146 148 -1,
150 148 151 -1,
150 149 148 -1,
152 151 153 -1,
152 150 151 -1,
154 153 155 -1,
154 152 153 -1,
156 155 157 -1,
156 154 155 -1,
158 157 159 -1,
158 156 157 -1,
160 159 161 -1,
160 158 159 -1,
162 161 163 -1,
162 160 161 -1,
164 163 165 -1,
164 162 163 -1,
166 165 167 -1,
166 164 165 -1,
168 167 169 -1,
168 166 167 -1,
170 169 171 -1,
170 168 169 -1,
172 171 173 -1,
172 170 171 -1,
174 173 175 -1,
174 172 173 -1,
176 174 175 -1,
176 175 177 -1,
178 176 177 -1,
178 177 179 -1,
180 178 179 -1,
180 179 181 -1,
182 180 181 -1,
182 181 183 -1,
184 183 185 -1,
184 182 183 -1,
186 185 187 -1,
186 184 185 -1,
188 187 189 -1,
188 186 187 -1,
190 189 191 -1,
190 188 189 -1,
192 191 193 -1,
192 190 191 -1,
194 193 195 -1,
194 192 193 -1,
196 195 197 -1,
196 194 195 -1,
198 197 199 -1,
198 196 197 -1,
200 199 201 -1,
200 198 199 -1,
202 201 203 -1,
202 200 201 -1,
204 203 205 -1,
204 202 203 -1,
206 205 207 -1,
206 204 205 -1,
208 207 209 -1,
208 206 207 -1,
210 209 211 -1,
210 208 209 -1,
212 211 213 -1,
212 210 211 -1,
214 213 215 -1,
214 212 213 -1,
216 215 217 -1,
216 214 215 -1,
218 217 219 -1,
218 216 217 -1,
220 219 221 -1,
220 218 219 -1,
222 221 223 -1,
222 220 221 -1,
224 222 223 -1,
224 223 225 -1,
226 224 225 -1,
226 225 227 -1,
228 226 227 -1,
228 227 229 -1,
230 228 229 -1,
230 229 231 -1,
232 230 231 -1,
232 231 233 -1,
234 232 233 -1,
234 233 235 -1,
236 234 235 -1,
236 235 237 -1,
238 236 237 -1,
238 237 239 -1,
240 238 239 -1,
240 239 241 -1,
242 240 241 -1,
242 241 243 -1,
244 242 243 -1,
244 243 245 -1,
246 244 245 -1,
246 245 247 -1,
248 246 247 -1,
248 247 249 -1,
250 249 251 -1,
250 248 249 -1,
1 251 2 -1,
1 250 251 -1,
164 160 162 -1,
178 172 174 -1,
178 174 176 -1,
180 172 178 -1,
126 128 130 -1,
194 190 192 -1,
120 122 124 -1,
120 124 126 -1,
196 190 194 -1,
196 172 180 -1,
196 164 166 -1,
196 166 168 -1,
196 168 170 -1,
196 170 172 -1,
196 180 182 -1,
196 182 184 -1,
196 184 186 -1,
196 186 188 -1,
196 188 190 -1,
116 118 120 -1,
202 198 200 -1,
112 114 116 -1,
206 202 204 -1,
206 198 202 -1,
206 196 198 -1,
108 110 112 -1,
106 112 116 -1,
106 108 112 -1,
212 206 208 -1,
212 208 210 -1,
212 196 206 -1,
214 196 212 -1,
214 160 164 -1,
214 156 158 -1,
214 158 160 -1,
214 164 196 -1,
100 102 104 -1,
100 104 106 -1,
98 106 116 -1,
98 100 106 -1,
98 126 130 -1,
98 130 132 -1,
98 132 134 -1,
98 116 120 -1,
98 134 136 -1,
98 136 138 -1,
98 120 126 -1,
220 214 216 -1,
220 216 218 -1,
92 98 138 -1,
92 94 96 -1,
92 96 98 -1,
226 222 224 -1,
86 88 90 -1,
230 226 228 -1,
230 222 226 -1,
85 90 92 -1,
85 86 90 -1,
232 220 222 -1,
232 214 220 -1,
232 222 230 -1,
82 85 92 -1,
76 78 80 -1,
240 232 234 -1,
240 234 236 -1,
240 236 238 -1,
74 76 80 -1,
72 74 80 -1,
244 240 242 -1,
70 80 82 -1,
70 92 138 -1,
70 138 140 -1,
70 140 142 -1,
70 142 144 -1,
70 82 92 -1,
70 72 80 -1,
246 240 244 -1,
248 240 246 -1,
248 232 240 -1,
62 64 67 -1,
62 67 68 -1,
62 68 70 -1,
0 250 1 -1,
4 232 248 -1,
4 250 0 -1,
4 248 250 -1,
54 56 58 -1,
54 58 60 -1,
54 60 62 -1,
12 6 8 -1,
12 8 10 -1,
50 62 70 -1,
50 52 54 -1,
50 54 62 -1,
50 70 144 -1,
50 144 146 -1,
50 146 149 -1,
50 149 150 -1,
50 150 152 -1,
15 6 12 -1,
44 46 48 -1,
44 48 50 -1,
20 16 18 -1,
41 4 6 -1,
41 232 4 -1,
41 43 44 -1,
41 156 214 -1,
41 50 152 -1,
41 44 50 -1,
41 214 232 -1,
41 152 154 -1,
41 154 156 -1,
24 20 22 -1,
24 16 20 -1,
36 38 41 -1,
28 24 26 -1,
34 36 41 -1,
30 15 16 -1,
30 24 28 -1,
30 16 24 -1,
32 6 15 -1,
32 41 6 -1,
32 34 41 -1,
32 15 30 -1,
161 165 163 -1,
173 179 175 -1,
175 179 177 -1,
173 181 179 -1,
129 127 131 -1,
191 195 193 -1,
123 121 125 -1,
125 121 127 -1,
191 197 195 -1,
173 197 181 -1,
165 197 167 -1,
167 197 169 -1,
169 197 171 -1,
171 197 173 -1,
181 197 183 -1,
183 197 185 -1,
185 197 187 -1,
187 197 189 -1,
189 197 191 -1,
119 117 121 -1,
199 203 201 -1,
115 113 117 -1,
203 207 205 -1,
199 207 203 -1,
197 207 199 -1,
111 109 113 -1,
113 107 117 -1,
109 107 113 -1,
207 213 209 -1,
209 213 211 -1,
197 213 207 -1,
197 215 213 -1,
161 215 165 -1,
157 215 159 -1,
159 215 161 -1,
165 215 197 -1,
103 101 105 -1,
105 101 107 -1,
107 99 117 -1,
101 99 107 -1,
127 99 131 -1,
131 99 133 -1,
133 99 135 -1,
117 99 121 -1,
135 99 137 -1,
137 99 139 -1,
121 99 127 -1,
215 221 217 -1,
217 221 219 -1,
99 93 139 -1,
95 93 97 -1,
97 93 99 -1,
223 227 225 -1,
89 87 91 -1,
227 231 229 -1,
223 231 227 -1,
91 84 93 -1,
87 84 91 -1,
221 233 223 -1,
215 233 221 -1,
223 233 231 -1,
84 83 93 -1,
79 77 81 -1,
233 241 235 -1,
235 241 237 -1,
237 241 239 -1,
77 75 81 -1,
75 73 81 -1,
241 245 243 -1,
81 71 83 -1,
93 71 139 -1,
139 71 141 -1,
141 71 143 -1,
143 71 145 -1,
83 71 93 -1,
73 71 81 -1,
241 247 245 -1,
241 249 247 -1,
233 249 241 -1,
65 63 66 -1,
66 63 69 -1,
69 63 71 -1,
251 3 2 -1,
233 5 249 -1,
251 5 3 -1,
249 5 251 -1,
57 55 59 -1,
59 55 61 -1,
61 55 63 -1,
7 13 9 -1,
9 13 11 -1,
63 51 71 -1,
53 51 55 -1,
55 51 63 -1,
71 51 145 -1,
145 51 147 -1,
147 51 148 -1,
148 51 151 -1,
151 51 153 -1,
7 14 13 -1,
47 45 49 -1,
49 45 51 -1,
17 21 19 -1,
5 40 7 -1,
233 40 5 -1,
42 40 45 -1,
157 40 215 -1,
51 40 153 -1,
45 40 51 -1,
215 40 233 -1,
153 40 155 -1,
155 40 157 -1,
21 25 23 -1,
17 25 21 -1,
39 37 40 -1,
25 29 27 -1,
37 35 40 -1,
14 31 17 -1,
25 31 29 -1,
17 31 25 -1,
7 33 14 -1,
40 33 7 -1,
35 33 40 -1,
14 33 31 -1 ] } }
Shape { appearance Appearance { material Material { diffuseColor 0.7 0.72 0.74 } } geometry IndexedFaceSet { solid FALSE coord Coordinate { point [ -1.633858 0.748031 -0.984252,
-1.633858 0.748031 0.590551,
-1.633858 1.023622 -0.984252,
-1.633858 1.023622 0.590551,
-1.515748 0.748031 0.590551,
-1.515748 0.748031 -0.984252,
-1.515748 1.023622 -0.984252,
-1.515748 1.023622 0.590551 ] } coordIndex [ 0 1 2 -1,
2 1 3 -1,
4 5 6 -1,
4 6 7 -1,
5 4 0 -1,
0 4 1 -1,
7 6 2 -1,
7 2 3 -1,
2 6 0 -1,
0 6 5 -1,
7 3 1 -1,
7 1 4 -1 ] } }
Shape { appearance Appearance { material Material { diffuseColor 0.7 0.72 0.74 } } geometry IndexedFaceSet { solid FALSE coord Coordinate { point [ -1.633858 -1.023622 -0.984252,
-1.633858 -1.023622 0.590551,
-1.633858 -0.748031 -0.984252,
-1.633858 -0.748031 0.590551,
-1.515748 -1.023622 0.590551,
-1.515748 -1.023622 -0.984252,
-1.515748 -0.748031 -0.984252,
-1.515748 -0.748031 0.590551 ] } coordIndex [ 0 1 2 -1,
2 1 3 -1,
4 5 6 -1,
4 6 7 -1,
5 4 0 -1,
0 4 1 -1,
7 6 2 -1,
7 2 3 -1,
2 6 0 -1,
0 6 5 -1,
7 3 1 -1,
7 1 4 -1 ] } }
Shape { appearance Appearance { material Material { diffuseColor 0.7 0.72 0.74 } } geometry IndexedFaceSet { solid FALSE coord Coordinate { point [ 1.515748 0.748031 -0.984252,
1.515748 0.748031 0.590551,
1.515748 1.023622 -0.984252,
1.515748 1.023622 0.590551,
1.633858 0.748031 0.590551,
1.633858 0.748031 -0.984252,
1.633858 1.023622 -0.984252,
1.633858 1.023622 0.590551 ] } coordIndex [ 0 1 2 -1,
2 1 3 -1,
4 5 6 -1,
4 6 7 -1,
5 4 0 -1,
0 4 1 -1,
7 6 2 -1,
7 2 3 -1,
2 6 0 -1,
0 6 5 -1,
7 3 1 -1,
7 1 4 -1 ] } }
Shape { appearance Appearance { material Material { diffuseColor 0.7 0.72 0.74 } } geometry IndexedFaceSet { solid FALSE coord Coordinate { point [ 1.515748 -1.023622 -0.984252,
1.515748 -1.023622 0.590551,
1.515748 -0.748031 -0.984252,
1.515748 -0.748031 0.590551,
1.633858 -1.023622 0.590551,
1.633858 -1.023622 -0.984252,
1.633858 -0.748031 -0.984252,
1.633858 -0.748031 0.590551 ] } coordIndex [ 0 1 2 -1,
2 1 3 -1,
4 5 6 -1,
4 6 7 -1,
5 4 0 -1,
0 4 1 -1,
7 6 2 -1,
7 2 3 -1,
2 6 0 -1,
0 6 5 -1,
7 3 1 -1,
7 1 4 -1 ] } }
