#VRML V2.0 utf8
# Project-owned nominal model; units 0.1 inch for KiCad.
Shape { appearance Appearance { material Material { diffuseColor 0.025 0.12 0.34 } } geometry IndexedFaceSet { solid FALSE coord Coordinate { point [ 0.558849 -4.330709 0.198514,
0.492126 -4.330709 0.196850,
0.492126 -1.181102 0.196850,
0.558849 -1.181102 0.198514,
0.625406 -4.330709 0.203502,
0.625406 -1.181102 0.203502,
0.691631 -4.330709 0.211801,
0.691631 -1.181102 0.211801,
0.757361 -4.330709 0.223391,
0.757361 -1.181102 0.223391,
0.822431 -4.330709 0.238243,
0.822431 -1.181102 0.238243,
0.886680 -4.330709 0.256320,
0.886680 -1.181102 0.256320,
0.949948 -1.181102 0.277577,
0.949948 -4.330709 0.277577,
1.012078 -4.330709 0.301961,
1.012078 -1.181102 0.301961,
1.072915 -4.330709 0.329412,
1.072915 -1.181102 0.329412,
1.132308 -4.330709 0.359861,
1.132308 -1.181102 0.359861,
1.190110 -1.181102 0.393233,
1.190110 -4.330709 0.393233,
1.246176 -4.330709 0.429444,
1.246176 -1.181102 0.429444,
1.300368 -4.330709 0.468405,
1.300368 -1.181102 0.468405,
1.352550 -4.330709 0.510019,
1.352550 -1.181102 0.510019,
1.402593 -4.330709 0.554183,
1.402593 -1.181102 0.554183,
1.450373 -4.330709 0.600785,
1.450373 -1.181102 0.600785,
1.495770 -4.330709 0.649712,
1.495770 -1.181102 0.649712,
1.538672 -1.181102 0.700840,
1.538672 -4.330709 0.700840,
1.578972 -4.330709 0.754044,
1.578972 -1.181102 0.754044,
1.616570 -4.330709 0.809190,
1.616570 -1.181102 0.809190,
1.651373 -1.181102 0.866142,
1.651373 -4.330709 0.866142,
1.683293 -1.181102 0.924757,
1.683293 -4.330709 0.924757,
1.712252 -4.330709 0.984891,
1.712252 -1.181102 0.984891,
1.738177 -4.330709 1.046394,
1.738177 -1.181102 1.046394,
1.761005 -4.330709 1.109112,
1.761005 -1.181102 1.109112,
1.780678 -4.330709 1.172891,
1.780678 -1.181102 1.172891,
1.797148 -4.330709 1.237570,
1.797148 -1.181102 1.237570,
1.810373 -4.330709 1.302991,
1.810373 -1.181102 1.302991,
1.820320 -4.330709 1.368989,
1.820320 -1.181102 1.368989,
1.826966 -4.330709 1.435401,
1.826966 -1.181102 1.435401,
1.830293 -4.330709 1.502061,
1.830293 -1.181102 1.502061,
1.830293 -4.330709 1.568805,
1.830293 -1.181102 1.568805,
1.826966 -1.181102 1.635465,
1.826966 -4.330709 1.635465,
1.820320 -4.330709 1.701877,
1.820320 -1.181102 1.701877,
1.810373 -4.330709 1.767876,
1.810373 -1.181102 1.767876,
1.797148 -4.330709 1.833296,
1.797148 -1.181102 1.833296,
1.780678 -4.330709 1.897975,
1.780678 -1.181102 1.897975,
1.761005 -4.330709 1.961754,
1.761005 -1.181102 1.961754,
1.738177 -4.330709 2.024472,
1.738177 -1.181102 2.024472,
1.712252 -4.330709 2.085975,
1.712252 -1.181102 2.085975,
1.683293 -4.330709 2.146109,
1.683293 -1.181102 2.146109,
1.651373 -4.330709 2.204724,
1.651373 -1.181102 2.204724,
1.616570 -4.330709 2.261676,
1.616570 -1.181102 2.261676,
1.578972 -4.330709 2.316822,
1.578972 -1.181102 2.316822,
1.538672 -4.330709 2.370026,
1.538672 -1.181102 2.370026,
1.495770 -4.330709 2.421154,
1.495770 -1.181102 2.421154,
1.450373 -4.330709 2.470081,
1.450373 -1.181102 2.470081,
1.402593 -4.330709 2.516684,
1.402593 -1.181102 2.516684,
1.352550 -4.330709 2.560847,
1.352550 -1.181102 2.560847,
1.300368 -4.330709 2.602461,
1.300368 -1.181102 2.602461,
1.246176 -4.330709 2.641422,
1.246176 -1.181102 2.641422,
1.190110 -4.330709 2.677633,
1.190110 -1.181102 2.677633,
1.132308 -1.181102 2.711005,
1.132308 -4.330709 2.711005,
1.072915 -4.330709 2.741454,
1.072915 -1.181102 2.741454,
1.012078 -4.330709 2.768905,
1.012078 -1.181102 2.768905,
0.949948 -4.330709 2.793289,
0.949948 -1.181102 2.793289,
0.886680 -4.330709 2.814546,
0.886680 -1.181102 2.814546,
0.822431 -4.330709 2.832623,
0.822431 -1.181102 2.832623,
0.757361 -4.330709 2.847475,
0.757361 -1.181102 2.847475,
0.691631 -4.330709 2.859065,
0.691631 -1.181102 2.859065,
0.625406 -4.330709 2.867364,
0.625406 -1.181102 2.867364,
0.558849 -4.330709 2.872352,
0.558849 -1.181102 2.872352,
0.492126 -4.330709 2.874016,
0.492126 -1.181102 2.874016,
0.425403 -4.330709 2.872352,
0.425403 -1.181102 2.872352,
0.358846 -4.330709 2.867364,
0.358846 -1.181102 2.867364,
0.292621 -4.330709 2.859065,
0.292621 -1.181102 2.859065,
0.226891 -4.330709 2.847475,
0.226891 -1.181102 2.847475,
0.161821 -4.330709 2.832623,
0.161821 -1.181102 2.832623,
0.097572 -4.330709 2.814546,
0.097572 -1.181102 2.814546,
0.034304 -4.330709 2.793289,
0.034304 -1.181102 2.793289,
-0.027826 -4.330709 2.768905,
-0.027826 -1.181102 2.768905,
-0.088663 -4.330709 2.741454,
-0.088663 -1.181102 2.741454,
-0.148057 -4.330709 2.711005,
-0.148057 -1.181102 2.711005,
-0.205858 -4.330709 2.677633,
-0.205858 -1.181102 2.677633,
-0.261924 -4.330709 2.641422,
-0.261924 -1.181102 2.641422,
-0.316116 -4.330709 2.602461,
-0.316116 -1.181102 2.602461,
-0.368298 -4.330709 2.560847,
-0.368298 -1.181102 2.560847,
-0.418341 -4.330709 2.516684,
-0.418341 -1.181102 2.516684,
-0.466121 -4.330709 2.470081,
-0.466121 -1.181102 2.470081,
-0.511518 -4.330709 2.421154,
-0.511518 -1.181102 2.421154,
-0.554420 -4.330709 2.370026,
-0.554420 -1.181102 2.370026,
-0.594720 -4.330709 2.316822,
-0.594720 -1.181102 2.316822,
-0.632318 -4.330709 2.261676,
-0.632318 -1.181102 2.261676,
-0.667121 -4.330709 2.204724,
-0.667121 -1.181102 2.204724,
-0.699041 -4.330709 2.146109,
-0.699041 -1.181102 2.146109,
-0.728000 -4.330709 2.085975,
-0.728000 -1.181102 2.085975,
-0.753925 -4.330709 2.024472,
-0.753925 -1.181102 2.024472,
-0.776753 -4.330709 1.961754,
-0.776753 -1.181102 1.961754,
-0.796426 -4.330709 1.897975,
-0.796426 -1.181102 1.897975,
-0.812896 -4.330709 1.833296,
-0.812896 -1.181102 1.833296,
-0.826121 -4.330709 1.767876,
-0.826121 -1.181102 1.767876,
-0.836068 -4.330709 1.701877,
-0.836068 -1.181102 1.701877,
-0.842714 -4.330709 1.635465,
-0.842714 -1.181102 1.635465,
-0.846041 -4.330709 1.568805,
-0.846041 -1.181102 1.568805,
-0.846041 -4.330709 1.502061,
-0.846041 -1.181102 1.502061,
-0.842714 -4.330709 1.435401,
-0.842714 -1.181102 1.435401,
-0.836068 -4.330709 1.368989,
-0.836068 -1.181102 1.368989,
-0.826121 -4.330709 1.302991,
-0.826121 -1.181102 1.302991,
-0.812896 -4.330709 1.237570,
-0.812896 -1.181102 1.237570,
-0.796426 -4.330709 1.172891,
-0.796426 -1.181102 1.172891,
-0.776753 -4.330709 1.109112,
-0.776753 -1.181102 1.109112,
-0.753925 -4.330709 1.046394,
-0.753925 -1.181102 1.046394,
-0.728000 -4.330709 0.984891,
-0.728000 -1.181102 0.984891,
-0.699041 -4.330709 0.924757,
-0.699041 -1.181102 0.924757,
-0.667121 -4.330709 0.866142,
-0.667121 -1.181102 0.866142,
-0.632318 -4.330709 0.809190,
-0.632318 -1.181102 0.809190,
-0.594720 -4.330709 0.754044,
-0.594720 -1.181102 0.754044,
-0.554420 -4.330709 0.700840,
-0.554420 -1.181102 0.700840,
-0.511518 -4.330709 0.649712,
-0.511518 -1.181102 0.649712,
-0.466121 -4.330709 0.600785,
-0.466121 -1.181102 0.600785,
-0.418341 -4.330709 0.554183,
-0.418341 -1.181102 0.554183,
-0.368298 -4.330709 0.510019,
-0.368298 -1.181102 0.510019,
-0.316116 -4.330709 0.468405,
-0.316116 -1.181102 0.468405,
-0.261924 -4.330709 0.429444,
-0.261924 -1.181102 0.429444,
-0.205858 -4.330709 0.393233,
-0.205858 -1.181102 0.393233,
-0.148057 -4.330709 0.359861,
-0.148057 -1.181102 0.359861,
-0.088663 -4.330709 0.329412,
-0.088663 -1.181102 0.329412,
-0.027826 -4.330709 0.301961,
-0.027826 -1.181102 0.301961,
0.034304 -4.330709 0.277577,
0.034304 -1.181102 0.277577,
0.097572 -4.330709 0.256320,
0.097572 -1.181102 0.256320,
0.161821 -4.330709 0.238243,
0.161821 -1.181102 0.238243,
0.226891 -4.330709 0.223391,
0.226891 -1.181102 0.223391,
0.292621 -4.330709 0.211801,
0.292621 -1.181102 0.211801,
0.358846 -4.330709 0.203502,
0.358846 -1.181102 0.203502,
0.425403 -4.330709 0.198514,
0.425403 -1.181102 0.198514 ] } coordIndex [ 0 1 2 -1,
0 2 3 -1,
4 3 5 -1,
4 0 3 -1,
6 5 7 -1,
6 4 5 -1,
8 7 9 -1,
8 6 7 -1,
10 9 11 -1,
10 8 9 -1,
12 11 13 -1,
12 13 14 -1,
12 10 11 -1,
15 12 14 -1,
16 14 17 -1,
16 15 14 -1,
18 17 19 -1,
18 16 17 -1,
20 19 21 -1,
20 21 22 -1,
20 18 19 -1,
23 20 22 -1,
24 23 22 -1,
24 22 25 -1,
26 24 25 -1,
26 25 27 -1,
28 26 27 -1,
28 27 29 -1,
30 28 29 -1,
30 29 31 -1,
32 30 31 -1,
32 31 33 -1,
34 32 33 -1,
34 33 35 -1,
34 35 36 -1,
37 34 36 -1,
38 37 36 -1,
38 36 39 -1,
40 38 39 -1,
40 39 41 -1,
40 41 42 -1,
43 40 42 -1,
43 42 44 -1,
45 43 44 -1,
46 44 47 -1,
46 45 44 -1,
48 47 49 -1,
48 46 47 -1,
50 49 51 -1,
50 48 49 -1,
52 51 53 -1,
52 50 51 -1,
54 53 55 -1,
54 52 53 -1,
56 55 57 -1,
56 54 55 -1,
58 57 59 -1,
58 56 57 -1,
60 59 61 -1,
60 58 59 -1,
62 61 63 -1,
62 60 61 -1,
64 63 65 -1,
64 65 66 -1,
64 62 63 -1,
67 64 66 -1,
68 66 69 -1,
68 67 66 -1,
70 69 71 -1,
70 68 69 -1,
72 71 73 -1,
72 70 71 -1,
74 72 73 -1,
74 73 75 -1,
76 74 75 -1,
76 75 77 -1,
78 76 77 -1,
78 77 79 -1,
80 78 79 -1,
80 79 81 -1,
82 80 81 -1,
82 81 83 -1,
84 82 83 -1,
84 83 85 -1,
86 84 85 -1,
86 85 87 -1,
88 86 87 -1,
88 87 89 -1,
90 88 89 -1,
90 89 91 -1,
92 90 91 -1,
92 91 93 -1,
94 92 93 -1,
94 93 95 -1,
96 94 95 -1,
96 95 97 -1,
98 96 97 -1,
98 97 99 -1,
100 98 99 -1,
100 99 101 -1,
102 100 101 -1,
102 101 103 -1,
104 102 103 -1,
104 103 105 -1,
104 105 106 -1,
107 104 106 -1,
108 107 106 -1,
108 106 109 -1,
110 108 109 -1,
110 109 111 -1,
112 110 111 -1,
112 111 113 -1,
114 112 113 -1,
114 113 115 -1,
116 115 117 -1,
116 114 115 -1,
118 117 119 -1,
118 116 117 -1,
120 119 121 -1,
120 118 119 -1,
122 121 123 -1,
122 120 121 -1,
124 122 123 -1,
124 123 125 -1,
126 124 125 -1,
126 125 127 -1,
128 126 127 -1,
128 127 129 -1,
130 128 129 -1,
130 129 131 -1,
132 130 131 -1,
132 131 133 -1,
134 132 133 -1,
134 133 135 -1,
136 134 135 -1,
136 135 137 -1,
138 136 137 -1,
138 137 139 -1,
140 138 139 -1,
140 139 141 -1,
142 140 141 -1,
142 141 143 -1,
144 142 143 -1,
144 143 145 -1,
146 144 145 -1,
146 145 147 -1,
148 146 147 -1,
148 147 149 -1,
150 149 151 -1,
150 148 149 -1,
152 151 153 -1,
152 150 151 -1,
154 153 155 -1,
154 152 153 -1,
156 155 157 -1,
156 154 155 -1,
158 157 159 -1,
158 156 157 -1,
160 159 161 -1,
160 158 159 -1,
162 161 163 -1,
162 160 161 -1,
164 163 165 -1,
164 162 163 -1,
166 165 167 -1,
166 164 165 -1,
168 167 169 -1,
168 166 167 -1,
170 169 171 -1,
170 168 169 -1,
172 171 173 -1,
172 170 171 -1,
174 173 175 -1,
174 172 173 -1,
176 174 175 -1,
176 175 177 -1,
178 176 177 -1,
178 177 179 -1,
180 178 179 -1,
180 179 181 -1,
182 180 181 -1,
182 181 183 -1,
184 183 185 -1,
184 182 183 -1,
186 185 187 -1,
186 184 185 -1,
188 187 189 -1,
188 186 187 -1,
190 189 191 -1,
190 188 189 -1,
192 191 193 -1,
192 190 191 -1,
194 193 195 -1,
194 192 193 -1,
196 195 197 -1,
196 194 195 -1,
198 197 199 -1,
198 196 197 -1,
200 199 201 -1,
200 198 199 -1,
202 201 203 -1,
202 200 201 -1,
204 203 205 -1,
204 202 203 -1,
206 205 207 -1,
206 204 205 -1,
208 207 209 -1,
208 206 207 -1,
210 209 211 -1,
210 208 209 -1,
212 211 213 -1,
212 210 211 -1,
214 213 215 -1,
214 212 213 -1,
216 215 217 -1,
216 214 215 -1,
218 217 219 -1,
218 216 217 -1,
220 219 221 -1,
220 218 219 -1,
222 221 223 -1,
222 220 221 -1,
224 222 223 -1,
224 223 225 -1,
226 224 225 -1,
226 225 227 -1,
228 226 227 -1,
228 227 229 -1,
230 228 229 -1,
230 229 231 -1,
232 230 231 -1,
232 231 233 -1,
234 232 233 -1,
234 233 235 -1,
236 234 235 -1,
236 235 237 -1,
238 236 237 -1,
238 237 239 -1,
240 238 239 -1,
240 239 241 -1,
242 240 241 -1,
242 241 243 -1,
244 242 243 -1,
244 243 245 -1,
246 244 245 -1,
246 245 247 -1,
248 246 247 -1,
248 247 249 -1,
250 249 251 -1,
250 248 249 -1,
1 251 2 -1,
1 250 251 -1,
154 156 158 -1,
150 152 154 -1,
170 162 164 -1,
170 164 166 -1,
170 166 168 -1,
144 146 148 -1,
176 172 174 -1,
136 138 140 -1,
136 140 142 -1,
136 142 144 -1,
180 172 176 -1,
180 170 172 -1,
180 176 178 -1,
186 180 182 -1,
186 182 184 -1,
126 128 130 -1,
126 130 132 -1,
126 132 134 -1,
126 134 136 -1,
122 144 148 -1,
122 136 144 -1,
122 124 126 -1,
122 126 136 -1,
196 190 192 -1,
196 192 194 -1,
200 196 198 -1,
114 116 118 -1,
114 118 120 -1,
114 120 122 -1,
202 190 196 -1,
202 196 200 -1,
206 202 204 -1,
206 190 202 -1,
107 108 110 -1,
107 110 112 -1,
107 112 114 -1,
212 206 208 -1,
212 208 210 -1,
102 104 107 -1,
214 206 212 -1,
100 102 107 -1,
216 206 214 -1,
218 206 216 -1,
96 100 107 -1,
96 98 100 -1,
220 190 206 -1,
220 154 158 -1,
220 206 218 -1,
220 162 170 -1,
220 170 180 -1,
220 180 186 -1,
220 158 160 -1,
220 160 162 -1,
220 186 188 -1,
220 188 190 -1,
90 92 94 -1,
90 94 96 -1,
88 90 96 -1,
88 96 107 -1,
228 220 222 -1,
228 222 224 -1,
228 224 226 -1,
86 88 107 -1,
84 107 114 -1,
84 114 122 -1,
84 86 107 -1,
84 148 150 -1,
84 122 148 -1,
232 228 230 -1,
232 220 228 -1,
78 80 82 -1,
78 82 84 -1,
238 234 236 -1,
240 232 234 -1,
240 234 238 -1,
74 76 78 -1,
72 74 78 -1,
70 72 78 -1,
246 240 242 -1,
246 242 244 -1,
246 232 240 -1,
67 68 70 -1,
58 60 62 -1,
6 1 0 -1,
6 0 4 -1,
6 248 250 -1,
6 250 1 -1,
8 248 6 -1,
8 232 246 -1,
8 246 248 -1,
8 220 232 -1,
54 58 62 -1,
54 56 58 -1,
54 62 64 -1,
52 67 70 -1,
52 64 67 -1,
52 54 64 -1,
15 8 10 -1,
15 10 12 -1,
48 50 52 -1,
46 48 52 -1,
18 15 16 -1,
18 220 8 -1,
18 8 15 -1,
20 220 18 -1,
43 45 46 -1,
37 38 40 -1,
37 40 43 -1,
37 46 52 -1,
37 43 46 -1,
32 70 78 -1,
32 20 23 -1,
32 23 24 -1,
32 24 26 -1,
32 26 28 -1,
32 28 30 -1,
32 52 70 -1,
32 34 37 -1,
32 154 220 -1,
32 150 154 -1,
32 37 52 -1,
32 220 20 -1,
32 84 150 -1,
32 78 84 -1,
157 155 159 -1,
153 151 155 -1,
163 171 165 -1,
165 171 167 -1,
167 171 169 -1,
147 145 149 -1,
173 177 175 -1,
139 137 141 -1,
141 137 143 -1,
143 137 145 -1,
173 181 177 -1,
171 181 173 -1,
177 181 179 -1,
181 187 183 -1,
183 187 185 -1,
129 127 131 -1,
131 127 133 -1,
133 127 135 -1,
135 127 137 -1,
145 123 149 -1,
137 123 145 -1,
125 123 127 -1,
127 123 137 -1,
191 197 193 -1,
193 197 195 -1,
197 201 199 -1,
117 115 119 -1,
119 115 121 -1,
121 115 123 -1,
191 203 197 -1,
197 203 201 -1,
203 207 205 -1,
191 207 203 -1,
109 106 111 -1,
111 106 113 -1,
113 106 115 -1,
207 213 209 -1,
209 213 211 -1,
105 103 106 -1,
207 215 213 -1,
103 101 106 -1,
207 217 215 -1,
207 219 217 -1,
101 97 106 -1,
99 97 101 -1,
191 221 207 -1,
155 221 159 -1,
207 221 219 -1,
163 221 171 -1,
171 221 181 -1,
181 221 187 -1,
159 221 161 -1,
161 221 163 -1,
187 221 189 -1,
189 221 191 -1,
93 91 95 -1,
95 91 97 -1,
91 89 97 -1,
97 89 106 -1,
221 229 223 -1,
223 229 225 -1,
225 229 227 -1,
89 87 106 -1,
106 85 115 -1,
115 85 123 -1,
87 85 106 -1,
149 85 151 -1,
123 85 149 -1,
229 233 231 -1,
221 233 229 -1,
81 79 83 -1,
83 79 85 -1,
235 239 237 -1,
233 241 235 -1,
235 241 239 -1,
77 75 79 -1,
75 73 79 -1,
73 71 79 -1,
241 247 243 -1,
243 247 245 -1,
233 247 241 -1,
69 66 71 -1,
61 59 63 -1,
2 7 3 -1,
3 7 5 -1,
249 7 251 -1,
251 7 2 -1,
249 9 7 -1,
233 9 247 -1,
247 9 249 -1,
221 9 233 -1,
59 55 63 -1,
57 55 59 -1,
63 55 65 -1,
66 53 71 -1,
65 53 66 -1,
55 53 65 -1,
9 14 11 -1,
11 14 13 -1,
51 49 53 -1,
49 47 53 -1,
14 19 17 -1,
221 19 9 -1,
9 19 14 -1,
221 21 19 -1,
44 42 47 -1,
39 36 41 -1,
41 36 42 -1,
47 36 53 -1,
42 36 47 -1,
71 33 79 -1,
21 33 22 -1,
22 33 25 -1,
25 33 27 -1,
27 33 29 -1,
29 33 31 -1,
53 33 71 -1,
35 33 36 -1,
155 33 221 -1,
151 33 155 -1,
36 33 53 -1,
221 33 21 -1,
85 33 151 -1,
79 33 85 -1 ] } }
Shape { appearance Appearance { material Material { diffuseColor 0.87 0.89 0.88 } } geometry IndexedFaceSet { solid FALSE coord Coordinate { point [ 1.614173 -4.291339 0.794718,
1.614173 -1.181102 0.794718,
1.648849 -1.181102 0.850129,
1.648849 -4.291339 0.850129,
1.680790 -1.181102 0.907160,
1.680790 -4.291339 0.907160,
1.709921 -1.181102 0.965676,
1.709921 -4.291339 0.965676,
1.736174 -1.181102 1.025539,
1.736174 -4.291339 1.025539,
1.759487 -1.181102 1.086607,
1.759487 -4.291339 1.086607,
1.779804 -1.181102 1.148736,
1.779804 -4.291339 1.148736,
1.797077 -1.181102 1.211779,
1.797077 -4.291339 1.211779,
1.811265 -1.181102 1.275587,
1.811265 -4.291339 1.275587,
1.822336 -1.181102 1.340009,
1.822336 -4.291339 1.340009,
1.830262 -1.181102 1.404893,
1.830262 -4.291339 1.404893,
1.835025 -1.181102 1.470086,
1.835025 -4.291339 1.470086,
1.836614 -1.181102 1.535433,
1.836614 -4.291339 1.535433,
1.835025 -1.181102 1.600780,
1.835025 -4.291339 1.600780,
1.830262 -1.181102 1.665973,
1.830262 -4.291339 1.665973,
1.822336 -1.181102 1.730857,
1.822336 -4.291339 1.730857,
1.811265 -1.181102 1.795279,
1.811265 -4.291339 1.795279,
1.797077 -4.291339 1.859087,
1.797077 -1.181102 1.859087,
1.779804 -4.291339 1.922130,
1.779804 -1.181102 1.922130,
1.759487 -4.291339 1.984259,
1.759487 -1.181102 1.984259,
1.736174 -4.291339 2.045327,
1.736174 -1.181102 2.045327,
1.709921 -4.291339 2.105190,
1.709921 -1.181102 2.105190,
1.680790 -4.291339 2.163706,
1.680790 -1.181102 2.163706,
1.648849 -4.291339 2.220737,
1.648849 -1.181102 2.220737,
1.614173 -4.291339 2.276148,
1.614173 -1.181102 2.276148 ] } coordIndex [ 0 1 2 -1,
3 2 4 -1,
3 0 2 -1,
5 4 6 -1,
5 3 4 -1,
7 6 8 -1,
7 5 6 -1,
9 8 10 -1,
9 7 8 -1,
11 10 12 -1,
11 9 10 -1,
13 12 14 -1,
13 11 12 -1,
15 14 16 -1,
15 13 14 -1,
17 16 18 -1,
17 15 16 -1,
19 18 20 -1,
19 17 18 -1,
21 20 22 -1,
21 19 20 -1,
23 22 24 -1,
23 21 22 -1,
25 23 24 -1,
25 24 26 -1,
27 25 26 -1,
27 26 28 -1,
29 27 28 -1,
29 28 30 -1,
31 29 30 -1,
31 30 32 -1,
33 31 32 -1,
34 33 32 -1,
34 32 35 -1,
36 34 35 -1,
36 35 37 -1,
38 36 37 -1,
38 37 39 -1,
40 38 39 -1,
40 39 41 -1,
42 40 41 -1,
42 41 43 -1,
44 42 43 -1,
44 43 45 -1,
46 44 45 -1,
46 45 47 -1,
48 47 49 -1,
48 46 47 -1,
42 44 46 -1,
42 46 48 -1,
38 40 42 -1,
36 38 42 -1,
17 19 21 -1,
17 21 23 -1,
9 11 13 -1,
7 9 13 -1,
3 5 7 -1,
3 13 15 -1,
3 15 17 -1,
3 23 25 -1,
3 25 27 -1,
3 27 29 -1,
3 29 31 -1,
3 31 33 -1,
3 33 34 -1,
3 34 36 -1,
3 17 23 -1,
3 7 13 -1,
0 42 48 -1,
0 36 42 -1,
0 3 36 -1,
1 0 49 -1,
0 48 49 -1,
45 43 47 -1,
37 35 39 -1,
18 16 20 -1,
20 16 22 -1,
22 16 24 -1,
10 8 12 -1,
12 8 14 -1,
14 8 16 -1,
6 4 8 -1,
24 4 26 -1,
26 4 28 -1,
28 4 30 -1,
30 4 32 -1,
32 4 35 -1,
39 4 41 -1,
41 4 43 -1,
43 4 47 -1,
35 4 39 -1,
8 4 16 -1,
16 4 24 -1,
47 2 49 -1,
4 2 47 -1,
2 1 49 -1 ] } }
Shape { appearance Appearance { material Material { diffuseColor 0.32 0.32 0.32 } } geometry IndexedFaceSet { solid FALSE coord Coordinate { point [ 0.098425 -3.543307 0.000000,
0.098425 -3.543307 0.196850,
0.098425 -1.574803 0.000000,
0.098425 -1.574803 0.196850,
0.885827 -3.543307 0.196850,
0.885827 -3.543307 0.000000,
0.885827 -1.574803 0.000000,
0.885827 -1.574803 0.196850 ] } coordIndex [ 0 1 2 -1,
2 1 3 -1,
4 5 6 -1,
4 6 7 -1,
5 4 0 -1,
0 4 1 -1,
7 6 2 -1,
7 2 3 -1,
2 6 0 -1,
0 6 5 -1,
7 3 1 -1,
7 1 4 -1 ] } }
Shape { appearance Appearance { material Material { diffuseColor 0.7 0.72 0.74 } } geometry IndexedFaceSet { solid FALSE coord Coordinate { point [ 0.088473 0.004415 1.535433,
0.088583 -0.000000 1.535433,
0.088583 -0.000000 -0.984252,
0.088473 0.004415 -0.984252,
0.088142 0.008820 1.535433,
0.088142 0.008820 -0.984252,
0.087593 0.013203 1.535433,
0.087593 0.013203 -0.984252,
0.086826 0.017552 -0.984252,
0.086826 0.017552 1.535433,
0.085843 0.021858 1.535433,
0.085843 0.021858 -0.984252,
0.084647 0.026110 1.535433,
0.084647 0.026110 -0.984252,
0.083240 0.030297 1.535433,
0.083240 0.030297 -0.984252,
0.081627 0.034409 -0.984252,
0.081627 0.034409 1.535433,
0.079810 0.038435 1.535433,
0.079810 0.038435 -0.984252,
0.077795 0.042365 1.535433,
0.077795 0.042365 -0.984252,
0.075587 0.046190 1.535433,
0.075587 0.046190 -0.984252,
0.073190 0.049900 1.535433,
0.073190 0.049900 -0.984252,
0.070612 0.053487 1.535433,
0.070612 0.053487 -0.984252,
0.067858 0.056940 -0.984252,
0.067858 0.056940 1.535433,
0.064936 0.060252 1.535433,
0.064936 0.060252 -0.984252,
0.061852 0.063413 -0.984252,
0.061852 0.063413 1.535433,
0.058614 0.066418 1.535433,
0.058614 0.066418 -0.984252,
0.055230 0.069257 1.535433,
0.055230 0.069257 -0.984252,
0.051710 0.071924 1.535433,
0.051710 0.071924 -0.984252,
0.048060 0.074412 1.535433,
0.048060 0.074412 -0.984252,
0.044291 0.076715 -0.984252,
0.044291 0.076715 1.535433,
0.040412 0.078827 1.535433,
0.040412 0.078827 -0.984252,
0.036433 0.080744 1.535433,
0.036433 0.080744 -0.984252,
0.032363 0.082459 -0.984252,
0.032363 0.082459 1.535433,
0.028212 0.083970 1.535433,
0.028212 0.083970 -0.984252,
0.023992 0.085272 1.535433,
0.023992 0.085272 -0.984252,
0.019712 0.086362 1.535433,
0.019712 0.086362 -0.984252,
0.015382 0.087237 1.535433,
0.015382 0.087237 -0.984252,
0.011015 0.087895 1.535433,
0.011015 0.087895 -0.984252,
0.006620 0.088335 1.535433,
0.006620 0.088335 -0.984252,
0.002208 0.088555 1.535433,
0.002208 0.088555 -0.984252,
-0.002208 0.088555 -0.984252,
-0.002208 0.088555 1.535433,
-0.006620 0.088335 -0.984252,
-0.006620 0.088335 1.535433,
-0.011015 0.087895 1.535433,
-0.011015 0.087895 -0.984252,
-0.015382 0.087237 1.535433,
-0.015382 0.087237 -0.984252,
-0.019712 0.086362 1.535433,
-0.019712 0.086362 -0.984252,
-0.023992 0.085272 -0.984252,
-0.023992 0.085272 1.535433,
-0.028212 0.083970 1.535433,
-0.028212 0.083970 -0.984252,
-0.032363 0.082459 1.535433,
-0.032363 0.082459 -0.984252,
-0.036433 0.080744 1.535433,
-0.036433 0.080744 -0.984252,
-0.040412 0.078827 -0.984252,
-0.040412 0.078827 1.535433,
-0.044291 0.076715 -0.984252,
-0.044291 0.076715 1.535433,
-0.048060 0.074412 1.535433,
-0.048060 0.074412 -0.984252,
-0.051710 0.071924 -0.984252,
-0.051710 0.071924 1.535433,
-0.055230 0.069257 -0.984252,
-0.055230 0.069257 1.535433,
-0.058614 0.066418 1.535433,
-0.058614 0.066418 -0.984252,
-0.061852 0.063413 1.535433,
-0.061852 0.063413 -0.984252,
-0.064936 0.060252 1.535433,
-0.064936 0.060252 -0.984252,
-0.067858 0.056940 -0.984252,
-0.067858 0.056940 1.535433,
-0.070612 0.053487 1.535433,
-0.070612 0.053487 -0.984252,
-0.073190 0.049900 1.535433,
-0.073190 0.049900 -0.984252,
-0.075587 0.046190 1.535433,
-0.075587 0.046190 -0.984252,
-0.077795 0.042365 -0.984252,
-0.077795 0.042365 1.535433,
-0.079810 0.038435 1.535433,
-0.079810 0.038435 -0.984252,
-0.081627 0.034409 1.535433,
-0.081627 0.034409 -0.984252,
-0.083240 0.030297 1.535433,
-0.083240 0.030297 -0.984252,
-0.084647 0.026110 -0.984252,
-0.084647 0.026110 1.535433,
-0.085843 0.021858 1.535433,
-0.085843 0.021858 -0.984252,
-0.086826 0.017552 1.535433,
-0.086826 0.017552 -0.984252,
-0.087593 0.013203 -0.984252,
-0.087593 0.013203 1.535433,
-0.088142 0.008820 1.535433,
-0.088142 0.008820 -0.984252,
-0.088473 0.004415 1.535433,
-0.088473 0.004415 -0.984252,
-0.088583 -0.000000 -0.984252,
-0.088583 -0.000000 1.535433,
-0.088473 -0.004415 1.535433,
-0.088473 -0.004415 -0.984252,
-0.088142 -0.008820 -0.984252,
-0.088142 -0.008820 1.535433,
-0.087593 -0.013203 1.535433,
-0.087593 -0.013203 -0.984252,
-0.086826 -0.017552 1.535433,
-0.086826 -0.017552 -0.984252,
-0.085843 -0.021858 1.535433,
-0.085843 -0.021858 -0.984252,
-0.084647 -0.026110 -0.984252,
-0.084647 -0.026110 1.535433,
-0.083240 -0.030297 1.535433,
-0.083240 -0.030297 -0.984252,
-0.081627 -0.034409 1.535433,
-0.081627 -0.034409 -0.984252,
-0.079810 -0.038435 -0.984252,
-0.079810 -0.038435 1.535433,
-0.077795 -0.042365 -0.984252,
-0.077795 -0.042365 1.535433,
-0.075587 -0.046190 1.535433,
-0.075587 -0.046190 -0.984252,
-0.073190 -0.049900 -0.984252,
-0.073190 -0.049900 1.535433,
-0.070612 -0.053487 1.535433,
-0.070612 -0.053487 -0.984252,
-0.067858 -0.056940 -0.984252,
-0.067858 -0.056940 1.535433,
-0.064936 -0.060252 1.535433,
-0.064936 -0.060252 -0.984252,
-0.061852 -0.063413 -0.984252,
-0.061852 -0.063413 1.535433,
-0.058614 -0.066418 1.535433,
-0.058614 -0.066418 -0.984252,
-0.055230 -0.069257 1.535433,
-0.055230 -0.069257 -0.984252,
-0.051710 -0.071924 1.535433,
-0.051710 -0.071924 -0.984252,
-0.048060 -0.074412 1.535433,
-0.048060 -0.074412 -0.984252,
-0.044291 -0.076715 1.535433,
-0.044291 -0.076715 -0.984252,
-0.040412 -0.078827 1.535433,
-0.040412 -0.078827 -0.984252,
-0.036433 -0.080744 1.535433,
-0.036433 -0.080744 -0.984252,
-0.032363 -0.082459 1.535433,
-0.032363 -0.082459 -0.984252,
-0.028212 -0.083970 1.535433,
-0.028212 -0.083970 -0.984252,
-0.023992 -0.085272 1.535433,
-0.023992 -0.085272 -0.984252,
-0.019712 -0.086362 1.535433,
-0.019712 -0.086362 -0.984252,
-0.015382 -0.087237 1.535433,
-0.015382 -0.087237 -0.984252,
-0.011015 -0.087895 1.535433,
-0.011015 -0.087895 -0.984252,
-0.006620 -0.088335 1.535433,
-0.006620 -0.088335 -0.984252,
-0.002208 -0.088555 1.535433,
-0.002208 -0.088555 -0.984252,
0.002208 -0.088555 1.535433,
0.002208 -0.088555 -0.984252,
0.006620 -0.088335 1.535433,
0.006620 -0.088335 -0.984252,
0.011015 -0.087895 1.535433,
0.011015 -0.087895 -0.984252,
0.015382 -0.087237 1.535433,
0.015382 -0.087237 -0.984252,
0.019712 -0.086362 1.535433,
0.019712 -0.086362 -0.984252,
0.023992 -0.085272 1.535433,
0.023992 -0.085272 -0.984252,
0.028212 -0.083970 1.535433,
0.028212 -0.083970 -0.984252,
0.032363 -0.082459 1.535433,
0.032363 -0.082459 -0.984252,
0.036433 -0.080744 1.535433,
0.036433 -0.080744 -0.984252,
0.040412 -0.078827 1.535433,
0.040412 -0.078827 -0.984252,
0.044291 -0.076715 1.535433,
0.044291 -0.076715 -0.984252,
0.048060 -0.074412 1.535433,
0.048060 -0.074412 -0.984252,
0.051710 -0.071924 1.535433,
0.051710 -0.071924 -0.984252,
0.055230 -0.069257 1.535433,
0.055230 -0.069257 -0.984252,
0.058614 -0.066418 1.535433,
0.058614 -0.066418 -0.984252,
0.061852 -0.063413 1.535433,
0.061852 -0.063413 -0.984252,
0.064936 -0.060252 1.535433,
0.064936 -0.060252 -0.984252,
0.067858 -0.056940 1.535433,
0.067858 -0.056940 -0.984252,
0.070612 -0.053487 1.535433,
0.070612 -0.053487 -0.984252,
0.073190 -0.049900 1.535433,
0.073190 -0.049900 -0.984252,
0.075587 -0.046190 -0.984252,
0.075587 -0.046190 1.535433,
0.077795 -0.042365 1.535433,
0.077795 -0.042365 -0.984252,
0.079810 -0.038435 1.535433,
0.079810 -0.038435 -0.984252,
0.081627 -0.034409 1.535433,
0.081627 -0.034409 -0.984252,
0.083240 -0.030297 -0.984252,
0.083240 -0.030297 1.535433,
0.084647 -0.026110 1.535433,
0.084647 -0.026110 -0.984252,
0.085843 -0.021858 1.535433,
0.085843 -0.021858 -0.984252,
0.086826 -0.017552 -0.984252,
0.086826 -0.017552 1.535433,
0.087593 -0.013203 1.535433,
0.087593 -0.013203 -0.984252,
0.088142 -0.008820 1.535433,
0.088142 -0.008820 -0.984252,
0.088473 -0.004415 -0.984252,
0.088473 -0.004415 1.535433 ] } coordIndex [ 0 1 2 -1,
0 2 3 -1,
4 3 5 -1,
4 0 3 -1,
6 5 7 -1,
6 7 8 -1,
6 4 5 -1,
9 6 8 -1,
10 8 11 -1,
10 9 8 -1,
12 11 13 -1,
12 10 11 -1,
14 13 15 -1,
14 15 16 -1,
14 12 13 -1,
17 14 16 -1,
18 16 19 -1,
18 17 16 -1,
20 19 21 -1,
20 18 19 -1,
22 20 21 -1,
22 21 23 -1,
24 22 23 -1,
24 23 25 -1,
26 24 25 -1,
26 25 27 -1,
26 27 28 -1,
29 26 28 -1,
30 29 28 -1,
30 28 31 -1,
30 31 32 -1,
33 30 32 -1,
34 33 32 -1,
34 32 35 -1,
36 34 35 -1,
36 35 37 -1,
38 36 37 -1,
38 37 39 -1,
40 38 39 -1,
40 39 41 -1,
40 41 42 -1,
43 40 42 -1,
44 43 42 -1,
44 42 45 -1,
46 45 47 -1,
46 44 45 -1,
46 47 48 -1,
49 46 48 -1,
50 48 51 -1,
50 49 48 -1,
52 51 53 -1,
52 50 51 -1,
54 53 55 -1,
54 52 53 -1,
56 55 57 -1,
56 54 55 -1,
58 57 59 -1,
58 56 57 -1,
60 59 61 -1,
60 58 59 -1,
62 61 63 -1,
62 63 64 -1,
62 60 61 -1,
65 64 66 -1,
65 62 64 -1,
67 65 66 -1,
68 66 69 -1,
68 67 66 -1,
70 69 71 -1,
70 68 69 -1,
72 71 73 -1,
72 73 74 -1,
72 70 71 -1,
75 72 74 -1,
76 75 74 -1,
76 74 77 -1,
78 76 77 -1,
78 77 79 -1,
80 78 79 -1,
80 79 81 -1,
80 81 82 -1,
83 80 82 -1,
83 82 84 -1,
85 83 84 -1,
86 85 84 -1,
86 84 87 -1,
86 87 88 -1,
89 86 88 -1,
89 88 90 -1,
91 89 90 -1,
92 91 90 -1,
92 90 93 -1,
94 92 93 -1,
94 93 95 -1,
96 94 95 -1,
96 95 97 -1,
96 97 98 -1,
99 96 98 -1,
100 99 98 -1,
100 98 101 -1,
102 100 101 -1,
102 101 103 -1,
104 102 103 -1,
104 103 105 -1,
104 105 106 -1,
107 104 106 -1,
108 107 106 -1,
108 106 109 -1,
110 108 109 -1,
110 109 111 -1,
112 110 111 -1,
112 111 113 -1,
112 113 114 -1,
115 112 114 -1,
116 114 117 -1,
116 115 114 -1,
118 117 119 -1,
118 119 120 -1,
118 116 117 -1,
121 118 120 -1,
122 120 123 -1,
122 121 120 -1,
124 122 123 -1,
124 123 125 -1,
124 125 126 -1,
127 124 126 -1,
128 127 126 -1,
128 126 129 -1,
128 129 130 -1,
131 128 130 -1,
132 131 130 -1,
132 130 133 -1,
134 132 133 -1,
134 133 135 -1,
136 134 135 -1,
136 135 137 -1,
136 137 138 -1,
139 136 138 -1,
140 139 138 -1,
140 138 141 -1,
142 140 141 -1,
142 141 143 -1,
142 143 144 -1,
145 142 144 -1,
145 144 146 -1,
147 145 146 -1,
148 149 150 -1,
148 147 146 -1,
148 146 149 -1,
151 148 150 -1,
152 150 153 -1,
152 153 154 -1,
152 151 150 -1,
155 152 154 -1,
156 154 157 -1,
156 157 158 -1,
156 155 154 -1,
159 156 158 -1,
160 158 161 -1,
160 159 158 -1,
162 161 163 -1,
162 160 161 -1,
164 163 165 -1,
164 162 163 -1,
166 165 167 -1,
166 164 165 -1,
168 167 169 -1,
168 166 167 -1,
170 169 171 -1,
170 168 169 -1,
172 171 173 -1,
172 170 171 -1,
174 173 175 -1,
174 172 173 -1,
176 174 175 -1,
176 175 177 -1,
178 176 177 -1,
178 177 179 -1,
180 178 179 -1,
180 179 181 -1,
182 180 181 -1,
182 181 183 -1,
184 183 185 -1,
184 182 183 -1,
186 185 187 -1,
186 184 185 -1,
188 187 189 -1,
188 186 187 -1,
190 189 191 -1,
190 188 189 -1,
192 191 193 -1,
192 190 191 -1,
194 193 195 -1,
194 192 193 -1,
196 195 197 -1,
196 194 195 -1,
198 197 199 -1,
198 196 197 -1,
200 199 201 -1,
200 198 199 -1,
202 201 203 -1,
202 200 201 -1,
204 203 205 -1,
204 202 203 -1,
206 205 207 -1,
206 204 205 -1,
208 207 209 -1,
208 206 207 -1,
210 209 211 -1,
210 208 209 -1,
212 211 213 -1,
212 210 211 -1,
214 213 215 -1,
214 212 213 -1,
216 215 217 -1,
216 214 215 -1,
218 217 219 -1,
218 216 217 -1,
220 219 221 -1,
220 218 219 -1,
222 221 223 -1,
222 220 221 -1,
224 222 223 -1,
224 223 225 -1,
226 224 225 -1,
226 225 227 -1,
228 226 227 -1,
228 227 229 -1,
228 229 230 -1,
231 228 230 -1,
232 231 230 -1,
232 230 233 -1,
234 232 233 -1,
234 233 235 -1,
236 234 235 -1,
236 235 237 -1,
236 237 238 -1,
239 236 238 -1,
240 239 238 -1,
240 238 241 -1,
242 240 241 -1,
242 241 243 -1,
242 243 244 -1,
245 242 244 -1,
246 245 244 -1,
246 244 247 -1,
248 246 247 -1,
248 247 249 -1,
248 249 250 -1,
251 248 250 -1,
1 250 2 -1,
1 251 250 -1,
206 200 202 -1,
206 202 204 -1,
104 107 108 -1,
96 99 100 -1,
222 218 220 -1,
91 92 94 -1,
89 91 94 -1,
228 216 218 -1,
228 222 224 -1,
228 224 226 -1,
228 218 222 -1,
232 228 231 -1,
80 83 85 -1,
236 232 234 -1,
75 76 78 -1,
245 240 242 -1,
1 245 246 -1,
1 246 248 -1,
1 248 251 -1,
4 1 0 -1,
10 6 9 -1,
14 10 12 -1,
17 10 14 -1,
46 49 50 -1,
46 50 52 -1,
46 52 54 -1,
20 17 18 -1,
40 43 44 -1,
40 44 46 -1,
24 20 22 -1,
38 40 46 -1,
29 24 26 -1,
29 20 24 -1,
34 36 38 -1,
33 4 6 -1,
33 206 208 -1,
33 20 29 -1,
33 208 210 -1,
33 34 38 -1,
33 210 212 -1,
33 212 214 -1,
33 17 20 -1,
33 214 216 -1,
33 46 54 -1,
33 29 30 -1,
33 236 239 -1,
33 239 240 -1,
33 200 206 -1,
33 38 46 -1,
33 54 56 -1,
33 56 58 -1,
33 58 60 -1,
33 60 62 -1,
33 62 65 -1,
33 65 67 -1,
33 67 68 -1,
33 6 10 -1,
33 68 70 -1,
33 70 72 -1,
33 72 75 -1,
33 78 80 -1,
33 85 86 -1,
33 245 1 -1,
33 86 89 -1,
33 94 96 -1,
33 100 102 -1,
33 102 104 -1,
33 104 108 -1,
33 108 110 -1,
33 110 112 -1,
33 112 115 -1,
33 115 116 -1,
33 116 118 -1,
33 118 121 -1,
33 121 122 -1,
33 96 100 -1,
33 122 124 -1,
33 124 127 -1,
33 127 128 -1,
33 128 131 -1,
33 232 236 -1,
33 131 132 -1,
33 132 134 -1,
33 134 136 -1,
33 136 139 -1,
33 139 140 -1,
33 140 142 -1,
33 142 145 -1,
33 145 147 -1,
33 147 148 -1,
33 148 151 -1,
33 151 152 -1,
33 152 155 -1,
33 155 156 -1,
33 156 159 -1,
33 159 160 -1,
33 80 85 -1,
33 160 162 -1,
33 162 164 -1,
33 164 166 -1,
33 166 168 -1,
33 168 170 -1,
33 1 4 -1,
33 170 172 -1,
33 10 17 -1,
33 216 228 -1,
33 172 174 -1,
33 174 176 -1,
33 176 178 -1,
33 89 94 -1,
33 178 180 -1,
33 180 182 -1,
33 75 78 -1,
33 182 184 -1,
33 184 186 -1,
33 186 188 -1,
33 188 190 -1,
33 240 245 -1,
33 190 192 -1,
33 192 194 -1,
33 228 232 -1,
33 194 196 -1,
33 196 198 -1,
33 198 200 -1,
201 207 203 -1,
203 207 205 -1,
106 105 109 -1,
98 97 101 -1,
219 223 221 -1,
93 90 95 -1,
90 88 95 -1,
217 229 219 -1,
223 229 225 -1,
225 229 227 -1,
219 229 223 -1,
229 233 230 -1,
82 81 84 -1,
233 237 235 -1,
77 74 79 -1,
241 244 243 -1,
244 2 247 -1,
247 2 249 -1,
249 2 250 -1,
2 5 3 -1,
7 11 8 -1,
11 15 13 -1,
11 16 15 -1,
48 47 51 -1,
51 47 53 -1,
53 47 55 -1,
16 21 19 -1,
42 41 45 -1,
45 41 47 -1,
21 25 23 -1,
41 39 47 -1,
25 28 27 -1,
21 28 25 -1,
37 35 39 -1,
5 32 7 -1,
207 32 209 -1,
21 32 28 -1,
209 32 211 -1,
35 32 39 -1,
211 32 213 -1,
213 32 215 -1,
16 32 21 -1,
215 32 217 -1,
47 32 55 -1,
28 32 31 -1,
237 32 238 -1,
238 32 241 -1,
201 32 207 -1,
39 32 47 -1,
55 32 57 -1,
57 32 59 -1,
59 32 61 -1,
61 32 63 -1,
63 32 64 -1,
64 32 66 -1,
66 32 69 -1,
7 32 11 -1,
69 32 71 -1,
71 32 73 -1,
73 32 74 -1,
79 32 81 -1,
84 32 87 -1,
244 32 2 -1,
87 32 88 -1,
95 32 97 -1,
101 32 103 -1,
103 32 105 -1,
105 32 109 -1,
109 32 111 -1,
111 32 113 -1,
113 32 114 -1,
114 32 117 -1,
117 32 119 -1,
119 32 120 -1,
120 32 123 -1,
97 32 101 -1,
123 32 125 -1,
125 32 126 -1,
126 32 129 -1,
129 32 130 -1,
233 32 237 -1,
130 32 133 -1,
133 32 135 -1,
135 32 137 -1,
137 32 138 -1,
138 32 141 -1,
141 32 143 -1,
143 32 144 -1,
144 32 146 -1,
146 32 149 -1,
149 32 150 -1,
150 32 153 -1,
153 32 154 -1,
154 32 157 -1,
157 32 158 -1,
158 32 161 -1,
81 32 84 -1,
161 32 163 -1,
163 32 165 -1,
165 32 167 -1,
167 32 169 -1,
169 32 171 -1,
2 32 5 -1,
171 32 173 -1,
11 32 16 -1,
217 32 229 -1,
173 32 175 -1,
175 32 177 -1,
177 32 179 -1,
88 32 95 -1,
179 32 181 -1,
181 32 183 -1,
74 32 79 -1,
183 32 185 -1,
185 32 187 -1,
187 32 189 -1,
189 32 191 -1,
241 32 244 -1,
191 32 193 -1,
193 32 195 -1,
229 32 233 -1,
195 32 197 -1,
197 32 199 -1,
199 32 201 -1 ] } }
Shape { appearance Appearance { material Material { diffuseColor 0.7 0.72 0.74 } } geometry IndexedFaceSet { solid FALSE coord Coordinate { point [ 0.004415 -1.181102 1.446961,
-0.000000 -1.181102 1.446850,
-0.000000 0.000000 1.446850,
0.004415 0.000000 1.446961,
0.008820 -1.181102 1.447291,
0.008820 0.000000 1.447291,
0.013203 0.000000 1.447840,
0.013203 -1.181102 1.447840,
0.017552 -1.181102 1.448607,
0.017552 0.000000 1.448607,
0.021858 0.000000 1.449590,
0.021858 -1.181102 1.449590,
0.026110 0.000000 1.450786,
0.026110 -1.181102 1.450786,
0.030297 -1.181102 1.452193,
0.030297 0.000000 1.452193,
0.034409 -1.181102 1.453806,
0.034409 0.000000 1.453806,
0.038435 0.000000 1.455623,
0.038435 -1.181102 1.455623,
0.042365 -1.181102 1.457638,
0.042365 0.000000 1.457638,
0.046190 -1.181102 1.459846,
0.046190 0.000000 1.459846,
0.049900 -1.181102 1.462243,
0.049900 0.000000 1.462243,
0.053487 -1.181102 1.464821,
0.053487 0.000000 1.464821,
0.056940 -1.181102 1.467575,
0.056940 0.000000 1.467575,
0.060252 -1.181102 1.470497,
0.060252 0.000000 1.470497,
0.063413 -1.181102 1.473581,
0.063413 0.000000 1.473581,
0.066418 -1.181102 1.476819,
0.066418 0.000000 1.476819,
0.069257 -1.181102 1.480203,
0.069257 0.000000 1.480203,
0.071924 -1.181102 1.483723,
0.071924 0.000000 1.483723,
0.074412 -1.181102 1.487373,
0.074412 0.000000 1.487373,
0.076715 0.000000 1.491142,
0.076715 -1.181102 1.491142,
0.078827 -1.181102 1.495021,
0.078827 0.000000 1.495021,
0.080744 0.000000 1.499000,
0.080744 -1.181102 1.499000,
0.082459 -1.181102 1.503070,
0.082459 0.000000 1.503070,
0.083970 0.000000 1.507221,
0.083970 -1.181102 1.507221,
0.085272 -1.181102 1.511441,
0.085272 0.000000 1.511441,
0.086362 -1.181102 1.515722,
0.086362 0.000000 1.515722,
0.087237 0.000000 1.520051,
0.087237 -1.181102 1.520051,
0.087895 0.000000 1.524418,
0.087895 -1.181102 1.524418,
0.088335 -1.181102 1.528813,
0.088335 0.000000 1.528813,
0.088555 0.000000 1.533225,
0.088555 -1.181102 1.533225,
0.088555 -1.181102 1.537641,
0.088555 0.000000 1.537641,
0.088335 0.000000 1.542053,
0.088335 -1.181102 1.542053,
0.087895 -1.181102 1.546448,
0.087895 0.000000 1.546448,
0.087237 0.000000 1.550815,
0.087237 -1.181102 1.550815,
0.086362 -1.181102 1.555145,
0.086362 0.000000 1.555145,
0.085272 -1.181102 1.559425,
0.085272 0.000000 1.559425,
0.083970 -1.181102 1.563645,
0.083970 0.000000 1.563645,
0.082459 -1.181102 1.567796,
0.082459 0.000000 1.567796,
0.080744 -1.181102 1.571866,
0.080744 0.000000 1.571866,
0.078827 0.000000 1.575845,
0.078827 -1.181102 1.575845,
0.076715 -1.181102 1.579724,
0.076715 0.000000 1.579724,
0.074412 -1.181102 1.583493,
0.074412 0.000000 1.583493,
0.071924 -1.181102 1.587143,
0.071924 0.000000 1.587143,
0.069257 -1.181102 1.590663,
0.069257 0.000000 1.590663,
0.066418 -1.181102 1.594047,
0.066418 0.000000 1.594047,
0.063413 -1.181102 1.597285,
0.063413 0.000000 1.597285,
0.060252 -1.181102 1.600369,
0.060252 0.000000 1.600369,
0.056940 -1.181102 1.603291,
0.056940 0.000000 1.603291,
0.053487 -1.181102 1.606045,
0.053487 0.000000 1.606045,
0.049900 -1.181102 1.608624,
0.049900 0.000000 1.608624,
0.046190 -1.181102 1.611020,
0.046190 0.000000 1.611020,
0.042365 -1.181102 1.613228,
0.042365 0.000000 1.613228,
0.038435 -1.181102 1.615243,
0.038435 0.000000 1.615243,
0.034409 -1.181102 1.617060,
0.034409 0.000000 1.617060,
0.030297 -1.181102 1.618674,
0.030297 0.000000 1.618674,
0.026110 -1.181102 1.620080,
0.026110 0.000000 1.620080,
0.021858 -1.181102 1.621277,
0.021858 0.000000 1.621277,
0.017552 -1.181102 1.622259,
0.017552 0.000000 1.622259,
0.013203 -1.181102 1.623026,
0.013203 0.000000 1.623026,
0.008820 -1.181102 1.623576,
0.008820 0.000000 1.623576,
0.004415 -1.181102 1.623906,
0.004415 0.000000 1.623906,
-0.000000 -1.181102 1.624016,
-0.000000 0.000000 1.624016,
-0.004415 -1.181102 1.623906,
-0.004415 0.000000 1.623906,
-0.008820 -1.181102 1.623576,
-0.008820 0.000000 1.623576,
-0.013203 -1.181102 1.623026,
-0.013203 0.000000 1.623026,
-0.017552 -1.181102 1.622259,
-0.017552 0.000000 1.622259,
-0.021858 -1.181102 1.621277,
-0.021858 0.000000 1.621277,
-0.026110 -1.181102 1.620080,
-0.026110 0.000000 1.620080,
-0.030297 -1.181102 1.618674,
-0.030297 0.000000 1.618674,
-0.034409 -1.181102 1.617060,
-0.034409 0.000000 1.617060,
-0.038435 -1.181102 1.615243,
-0.038435 0.000000 1.615243,
-0.042365 -1.181102 1.613228,
-0.042365 0.000000 1.613228,
-0.046190 -1.181102 1.611020,
-0.046190 0.000000 1.611020,
-0.049900 -1.181102 1.608624,
-0.049900 0.000000 1.608624,
-0.053487 -1.181102 1.606045,
-0.053487 0.000000 1.606045,
-0.056940 -1.181102 1.603291,
-0.056940 0.000000 1.603291,
-0.060252 -1.181102 1.600369,
-0.060252 0.000000 1.600369,
-0.063413 -1.181102 1.597285,
-0.063413 0.000000 1.597285,
-0.066418 -1.181102 1.594047,
-0.066418 0.000000 1.594047,
-0.069257 -1.181102 1.590663,
-0.069257 0.000000 1.590663,
-0.071924 -1.181102 1.587143,
-0.071924 0.000000 1.587143,
-0.074412 -1.181102 1.583493,
-0.074412 0.000000 1.583493,
-0.076715 -1.181102 1.579724,
-0.076715 0.000000 1.579724,
-0.078827 -1.181102 1.575845,
-0.078827 0.000000 1.575845,
-0.080744 -1.181102 1.571866,
-0.080744 0.000000 1.571866,
-0.082459 -1.181102 1.567796,
-0.082459 0.000000 1.567796,
-0.083970 -1.181102 1.563645,
-0.083970 0.000000 1.563645,
-0.085272 -1.181102 1.559425,
-0.085272 0.000000 1.559425,
-0.086362 -1.181102 1.555145,
-0.086362 0.000000 1.555145,
-0.087237 -1.181102 1.550815,
-0.087237 0.000000 1.550815,
-0.087895 -1.181102 1.546448,
-0.087895 0.000000 1.546448,
-0.088335 -1.181102 1.542053,
-0.088335 0.000000 1.542053,
-0.088555 0.000000 1.537641,
-0.088555 -1.181102 1.537641,
-0.088555 -1.181102 1.533225,
-0.088555 0.000000 1.533225,
-0.088335 -1.181102 1.528813,
-0.088335 0.000000 1.528813,
-0.087895 -1.181102 1.524418,
-0.087895 0.000000 1.524418,
-0.087237 -1.181102 1.520051,
-0.087237 0.000000 1.520051,
-0.086362 -1.181102 1.515722,
-0.086362 0.000000 1.515722,
-0.085272 0.000000 1.511441,
-0.085272 -1.181102 1.511441,
-0.083970 -1.181102 1.507221,
-0.083970 0.000000 1.507221,
-0.082459 -1.181102 1.503070,
-0.082459 0.000000 1.503070,
-0.080744 -1.181102 1.499000,
-0.080744 0.000000 1.499000,
-0.078827 0.000000 1.495021,
-0.078827 -1.181102 1.495021,
-0.076715 -1.181102 1.491142,
-0.076715 0.000000 1.491142,
-0.074412 -1.181102 1.487373,
-0.074412 0.000000 1.487373,
-0.071924 -1.181102 1.483723,
-0.071924 0.000000 1.483723,
-0.069257 0.000000 1.480203,
-0.069257 -1.181102 1.480203,
-0.066418 -1.181102 1.476819,
-0.066418 0.000000 1.476819,
-0.063413 0.000000 1.473581,
-0.063413 -1.181102 1.473581,
-0.060252 -1.181102 1.470497,
-0.060252 0.000000 1.470497,
-0.056940 -1.181102 1.467575,
-0.056940 0.000000 1.467575,
-0.053487 -1.181102 1.464821,
-0.053487 0.000000 1.464821,
-0.049900 -1.181102 1.462243,
-0.049900 0.000000 1.462243,
-0.046190 -1.181102 1.459846,
-0.046190 0.000000 1.459846,
-0.042365 -1.181102 1.457638,
-0.042365 0.000000 1.457638,
-0.038435 -1.181102 1.455623,
-0.038435 0.000000 1.455623,
-0.034409 -1.181102 1.453806,
-0.034409 0.000000 1.453806,
-0.030297 -1.181102 1.452193,
-0.030297 0.000000 1.452193,
-0.026110 -1.181102 1.450786,
-0.026110 0.000000 1.450786,
-0.021858 -1.181102 1.449590,
-0.021858 0.000000 1.449590,
-0.017552 -1.181102 1.448607,
-0.017552 0.000000 1.448607,
-0.013203 -1.181102 1.447840,
-0.013203 0.000000 1.447840,
-0.008820 -1.181102 1.447291,
-0.008820 0.000000 1.447291,
-0.004415 -1.181102 1.446961,
-0.004415 0.000000 1.446961 ] } coordIndex [ 0 1 2 -1,
0 2 3 -1,
4 3 5 -1,
4 5 6 -1,
4 0 3 -1,
7 4 6 -1,
8 6 9 -1,
8 9 10 -1,
8 7 6 -1,
11 10 12 -1,
11 8 10 -1,
13 11 12 -1,
14 12 15 -1,
14 13 12 -1,
16 15 17 -1,
16 17 18 -1,
16 14 15 -1,
19 16 18 -1,
20 18 21 -1,
20 19 18 -1,
22 20 21 -1,
22 21 23 -1,
24 22 23 -1,
24 23 25 -1,
26 24 25 -1,
26 25 27 -1,
28 26 27 -1,
28 27 29 -1,
30 28 29 -1,
30 29 31 -1,
32 30 31 -1,
32 31 33 -1,
34 32 33 -1,
34 33 35 -1,
36 34 35 -1,
36 35 37 -1,
38 36 37 -1,
38 37 39 -1,
40 38 39 -1,
40 39 41 -1,
40 41 42 -1,
43 40 42 -1,
44 43 42 -1,
44 42 45 -1,
44 45 46 -1,
47 44 46 -1,
48 46 49 -1,
48 49 50 -1,
48 47 46 -1,
51 48 50 -1,
52 50 53 -1,
52 51 50 -1,
54 53 55 -1,
54 55 56 -1,
54 52 53 -1,
57 56 58 -1,
57 54 56 -1,
59 57 58 -1,
60 58 61 -1,
60 61 62 -1,
60 59 58 -1,
63 60 62 -1,
64 62 65 -1,
64 65 66 -1,
64 63 62 -1,
67 64 66 -1,
68 66 69 -1,
68 69 70 -1,
68 67 66 -1,
71 68 70 -1,
72 71 70 -1,
72 70 73 -1,
74 72 73 -1,
74 73 75 -1,
76 74 75 -1,
76 75 77 -1,
78 76 77 -1,
78 77 79 -1,
80 78 79 -1,
80 79 81 -1,
80 81 82 -1,
83 80 82 -1,
84 83 82 -1,
84 82 85 -1,
86 84 85 -1,
86 85 87 -1,
88 86 87 -1,
88 87 89 -1,
90 88 89 -1,
90 89 91 -1,
92 90 91 -1,
92 91 93 -1,
94 92 93 -1,
94 93 95 -1,
96 94 95 -1,
96 95 97 -1,
98 96 97 -1,
98 97 99 -1,
100 98 99 -1,
100 99 101 -1,
102 100 101 -1,
102 101 103 -1,
104 102 103 -1,
104 103 105 -1,
106 104 105 -1,
106 105 107 -1,
108 106 107 -1,
108 107 109 -1,
110 108 109 -1,
110 109 111 -1,
112 110 111 -1,
112 111 113 -1,
114 112 113 -1,
114 113 115 -1,
116 115 117 -1,
116 114 115 -1,
118 117 119 -1,
118 116 117 -1,
120 119 121 -1,
120 118 119 -1,
122 121 123 -1,
122 120 121 -1,
124 122 123 -1,
124 123 125 -1,
126 124 125 -1,
126 125 127 -1,
128 126 127 -1,
128 127 129 -1,
130 128 129 -1,
130 129 131 -1,
132 130 131 -1,
132 131 133 -1,
134 132 133 -1,
134 133 135 -1,
136 134 135 -1,
136 135 137 -1,
138 136 137 -1,
138 137 139 -1,
140 138 139 -1,
140 139 141 -1,
142 140 141 -1,
142 141 143 -1,
144 142 143 -1,
144 143 145 -1,
146 144 145 -1,
146 145 147 -1,
148 146 147 -1,
148 147 149 -1,
150 149 151 -1,
150 148 149 -1,
152 151 153 -1,
152 150 151 -1,
154 153 155 -1,
154 152 153 -1,
156 155 157 -1,
156 154 155 -1,
158 157 159 -1,
158 156 157 -1,
160 159 161 -1,
160 158 159 -1,
162 161 163 -1,
162 160 161 -1,
164 163 165 -1,
164 162 163 -1,
166 165 167 -1,
166 164 165 -1,
168 167 169 -1,
168 166 167 -1,
170 169 171 -1,
170 168 169 -1,
172 171 173 -1,
172 170 171 -1,
174 173 175 -1,
174 172 173 -1,
176 174 175 -1,
176 175 177 -1,
178 176 177 -1,
178 177 179 -1,
180 178 179 -1,
180 179 181 -1,
182 180 181 -1,
182 181 183 -1,
184 183 185 -1,
184 182 183 -1,
186 185 187 -1,
186 187 188 -1,
186 184 185 -1,
189 186 188 -1,
190 188 191 -1,
190 189 188 -1,
192 191 193 -1,
192 190 191 -1,
194 193 195 -1,
194 192 193 -1,
196 195 197 -1,
196 194 195 -1,
198 197 199 -1,
198 199 200 -1,
198 196 197 -1,
201 198 200 -1,
202 200 203 -1,
202 201 200 -1,
204 203 205 -1,
204 202 203 -1,
206 205 207 -1,
206 207 208 -1,
206 204 205 -1,
209 206 208 -1,
210 208 211 -1,
210 209 208 -1,
212 211 213 -1,
212 210 211 -1,
214 213 215 -1,
214 215 216 -1,
214 212 213 -1,
217 214 216 -1,
218 216 219 -1,
218 219 220 -1,
218 217 216 -1,
221 218 220 -1,
222 220 223 -1,
222 221 220 -1,
224 222 223 -1,
224 223 225 -1,
226 224 225 -1,
226 225 227 -1,
228 226 227 -1,
228 227 229 -1,
230 228 229 -1,
230 229 231 -1,
232 230 231 -1,
232 231 233 -1,
234 232 233 -1,
234 233 235 -1,
236 234 235 -1,
236 235 237 -1,
238 236 237 -1,
238 237 239 -1,
240 238 239 -1,
240 239 241 -1,
242 240 241 -1,
242 241 243 -1,
244 242 243 -1,
244 243 245 -1,
246 244 245 -1,
246 245 247 -1,
248 247 249 -1,
248 246 247 -1,
250 248 249 -1,
250 249 251 -1,
1 251 2 -1,
1 250 251 -1,
104 106 108 -1,
214 209 210 -1,
214 210 212 -1,
92 94 96 -1,
92 96 98 -1,
224 218 221 -1,
224 221 222 -1,
88 90 92 -1,
86 88 92 -1,
230 226 228 -1,
80 83 84 -1,
236 224 226 -1,
236 230 232 -1,
236 232 234 -1,
236 226 230 -1,
244 240 242 -1,
71 72 74 -1,
71 74 76 -1,
248 244 246 -1,
4 1 0 -1,
8 4 7 -1,
11 4 8 -1,
13 4 11 -1,
19 13 14 -1,
19 14 16 -1,
44 47 48 -1,
43 44 48 -1,
24 20 22 -1,
28 19 20 -1,
28 24 26 -1,
28 20 24 -1,
34 36 38 -1,
34 38 40 -1,
34 40 43 -1,
32 1 4 -1,
32 201 202 -1,
32 202 204 -1,
32 204 206 -1,
32 206 209 -1,
32 244 248 -1,
32 214 217 -1,
32 217 218 -1,
32 28 30 -1,
32 236 238 -1,
32 238 240 -1,
32 248 250 -1,
32 250 1 -1,
32 48 51 -1,
32 34 43 -1,
32 51 52 -1,
32 52 54 -1,
32 54 57 -1,
32 57 59 -1,
32 240 244 -1,
32 59 60 -1,
32 104 108 -1,
32 60 63 -1,
32 63 64 -1,
32 64 67 -1,
32 67 68 -1,
32 68 71 -1,
32 209 214 -1,
32 76 78 -1,
32 78 80 -1,
32 4 13 -1,
32 84 86 -1,
32 218 224 -1,
32 80 84 -1,
32 98 100 -1,
32 13 19 -1,
32 100 102 -1,
32 102 104 -1,
32 43 48 -1,
32 108 110 -1,
32 110 112 -1,
32 112 114 -1,
32 114 116 -1,
32 116 118 -1,
32 118 120 -1,
32 120 122 -1,
32 122 124 -1,
32 124 126 -1,
32 126 128 -1,
32 128 130 -1,
32 224 236 -1,
32 130 132 -1,
32 132 134 -1,
32 134 136 -1,
32 86 92 -1,
32 136 138 -1,
32 138 140 -1,
32 140 142 -1,
32 142 144 -1,
32 144 146 -1,
32 146 148 -1,
32 148 150 -1,
32 150 152 -1,
32 152 154 -1,
32 154 156 -1,
32 156 158 -1,
32 158 160 -1,
32 19 28 -1,
32 160 162 -1,
32 162 164 -1,
32 164 166 -1,
32 166 168 -1,
32 168 170 -1,
32 170 172 -1,
32 172 174 -1,
32 174 176 -1,
32 176 178 -1,
32 178 180 -1,
32 180 182 -1,
32 71 76 -1,
32 182 184 -1,
32 184 186 -1,
32 186 189 -1,
32 189 190 -1,
32 190 192 -1,
32 192 194 -1,
32 194 196 -1,
32 196 198 -1,
32 92 98 -1,
32 198 201 -1,
107 105 109 -1,
208 215 211 -1,
211 215 213 -1,
95 93 97 -1,
97 93 99 -1,
219 225 220 -1,
220 225 223 -1,
91 89 93 -1,
89 87 93 -1,
227 231 229 -1,
82 81 85 -1,
225 237 227 -1,
231 237 233 -1,
233 237 235 -1,
227 237 231 -1,
241 245 243 -1,
73 70 75 -1,
75 70 77 -1,
245 249 247 -1,
2 5 3 -1,
5 9 6 -1,
5 10 9 -1,
5 12 10 -1,
12 18 15 -1,
15 18 17 -1,
46 45 49 -1,
45 42 49 -1,
21 25 23 -1,
18 29 21 -1,
25 29 27 -1,
21 29 25 -1,
37 35 39 -1,
39 35 41 -1,
41 35 42 -1,
2 33 5 -1,
200 33 203 -1,
203 33 205 -1,
205 33 207 -1,
207 33 208 -1,
245 33 249 -1,
215 33 216 -1,
216 33 219 -1,
29 33 31 -1,
237 33 239 -1,
239 33 241 -1,
249 33 251 -1,
251 33 2 -1,
49 33 50 -1,
35 33 42 -1,
50 33 53 -1,
53 33 55 -1,
55 33 56 -1,
56 33 58 -1,
241 33 245 -1,
58 33 61 -1,
105 33 109 -1,
61 33 62 -1,
62 33 65 -1,
65 33 66 -1,
66 33 69 -1,
69 33 70 -1,
208 33 215 -1,
77 33 79 -1,
79 33 81 -1,
5 33 12 -1,
85 33 87 -1,
219 33 225 -1,
81 33 85 -1,
99 33 101 -1,
12 33 18 -1,
101 33 103 -1,
103 33 105 -1,
42 33 49 -1,
109 33 111 -1,
111 33 113 -1,
113 33 115 -1,
115 33 117 -1,
117 33 119 -1,
119 33 121 -1,
121 33 123 -1,
123 33 125 -1,
125 33 127 -1,
127 33 129 -1,
129 33 131 -1,
225 33 237 -1,
131 33 133 -1,
133 33 135 -1,
135 33 137 -1,
87 33 93 -1,
137 33 139 -1,
139 33 141 -1,
141 33 143 -1,
143 33 145 -1,
145 33 147 -1,
147 33 149 -1,
149 33 151 -1,
151 33 153 -1,
153 33 155 -1,
155 33 157 -1,
157 33 159 -1,
159 33 161 -1,
18 33 29 -1,
161 33 163 -1,
163 33 165 -1,
165 33 167 -1,
167 33 169 -1,
169 33 171 -1,
171 33 173 -1,
173 33 175 -1,
175 33 177 -1,
177 33 179 -1,
179 33 181 -1,
181 33 183 -1,
70 33 77 -1,
183 33 185 -1,
185 33 187 -1,
187 33 188 -1,
188 33 191 -1,
191 33 193 -1,
193 33 195 -1,
195 33 197 -1,
197 33 199 -1,
93 33 99 -1,
199 33 200 -1 ] } }
Shape { appearance Appearance { material Material { diffuseColor 0.7 0.72 0.74 } } geometry IndexedFaceSet { solid FALSE coord Coordinate { point [ 1.072725 0.004415 1.535433,
1.072835 -0.000000 1.535433,
1.072835 -0.000000 -0.984252,
1.072725 0.004415 -0.984252,
1.072394 0.008820 1.535433,
1.072394 0.008820 -0.984252,
1.071845 0.013203 1.535433,
1.071845 0.013203 -0.984252,
1.071078 0.017552 -0.984252,
1.071078 0.017552 1.535433,
1.070095 0.021858 1.535433,
1.070095 0.021858 -0.984252,
1.068899 0.026110 1.535433,
1.068899 0.026110 -0.984252,
1.067492 0.030297 1.535433,
1.067492 0.030297 -0.984252,
1.065879 0.034409 -0.984252,
1.065879 0.034409 1.535433,
1.064062 0.038435 1.535433,
1.064062 0.038435 -0.984252,
1.062047 0.042365 1.535433,
1.062047 0.042365 -0.984252,
1.059839 0.046190 1.535433,
1.059839 0.046190 -0.984252,
1.057442 0.049900 1.535433,
1.057442 0.049900 -0.984252,
1.054864 0.053487 1.535433,
1.054864 0.053487 -0.984252,
1.052110 0.056940 -0.984252,
1.052110 0.056940 1.535433,
1.049188 0.060252 1.535433,
1.049188 0.060252 -0.984252,
1.046104 0.063413 -0.984252,
1.046104 0.063413 1.535433,
1.042866 0.066418 1.535433,
1.042866 0.066418 -0.984252,
1.039482 0.069257 1.535433,
1.039482 0.069257 -0.984252,
1.035962 0.071924 1.535433,
1.035962 0.071924 -0.984252,
1.032312 0.074412 1.535433,
1.032312 0.074412 -0.984252,
1.028543 0.076715 -0.984252,
1.028543 0.076715 1.535433,
1.024664 0.078827 1.535433,
1.024664 0.078827 -0.984252,
1.020685 0.080744 1.535433,
1.020685 0.080744 -0.984252,
1.016615 0.082459 -0.984252,
1.016615 0.082459 1.535433,
1.012464 0.083970 1.535433,
1.012464 0.083970 -0.984252,
1.008244 0.085272 1.535433,
1.008244 0.085272 -0.984252,
1.003963 0.086362 1.535433,
1.003963 0.086362 -0.984252,
0.999634 0.087237 1.535433,
0.999634 0.087237 -0.984252,
0.995267 0.087895 1.535433,
0.995267 0.087895 -0.984252,
0.990872 0.088335 1.535433,
0.990872 0.088335 -0.984252,
0.986460 0.088555 1.535433,
0.986460 0.088555 -0.984252,
0.982044 0.088555 -0.984252,
0.982044 0.088555 1.535433,
0.977632 0.088335 -0.984252,
0.977632 0.088335 1.535433,
0.973237 0.087895 1.535433,
0.973237 0.087895 -0.984252,
0.968870 0.087237 1.535433,
0.968870 0.087237 -0.984252,
0.964540 0.086362 1.535433,
0.964540 0.086362 -0.984252,
0.960260 0.085272 -0.984252,
0.960260 0.085272 1.535433,
0.956040 0.083970 1.535433,
0.956040 0.083970 -0.984252,
0.951889 0.082459 1.535433,
0.951889 0.082459 -0.984252,
0.947819 0.080744 1.535433,
0.947819 0.080744 -0.984252,
0.943840 0.078827 -0.984252,
0.943840 0.078827 1.535433,
0.939961 0.076715 -0.984252,
0.939961 0.076715 1.535433,
0.936192 0.074412 1.535433,
0.936192 0.074412 -0.984252,
0.932542 0.071924 -0.984252,
0.932542 0.071924 1.535433,
0.929022 0.069257 -0.984252,
0.929022 0.069257 1.535433,
0.925638 0.066418 1.535433,
0.925638 0.066418 -0.984252,
0.922400 0.063413 1.535433,
0.922400 0.063413 -0.984252,
0.919316 0.060252 1.535433,
0.919316 0.060252 -0.984252,
0.916394 0.056940 -0.984252,
0.916394 0.056940 1.535433,
0.913640 0.053487 1.535433,
0.913640 0.053487 -0.984252,
0.911062 0.049900 1.535433,
0.911062 0.049900 -0.984252,
0.908665 0.046190 1.535433,
0.908665 0.046190 -0.984252,
0.906457 0.042365 -0.984252,
0.906457 0.042365 1.535433,
0.904442 0.038435 1.535433,
0.904442 0.038435 -0.984252,
0.902625 0.034409 1.535433,
0.902625 0.034409 -0.984252,
0.901011 0.030297 1.535433,
0.901011 0.030297 -0.984252,
0.899605 0.026110 -0.984252,
0.899605 0.026110 1.535433,
0.898409 0.021858 1.535433,
0.898409 0.021858 -0.984252,
0.897426 0.017552 1.535433,
0.897426 0.017552 -0.984252,
0.896659 0.013203 -0.984252,
0.896659 0.013203 1.535433,
0.896109 0.008820 1.535433,
0.896109 0.008820 -0.984252,
0.895779 0.004415 1.535433,
0.895779 0.004415 -0.984252,
0.895669 -0.000000 -0.984252,
0.895669 -0.000000 1.535433,
0.895779 -0.004415 1.535433,
0.895779 -0.004415 -0.984252,
0.896109 -0.008820 -0.984252,
0.896109 -0.008820 1.535433,
0.896659 -0.013203 1.535433,
0.896659 -0.013203 -0.984252,
0.897426 -0.017552 1.535433,
0.897426 -0.017552 -0.984252,
0.898409 -0.021858 1.535433,
0.898409 -0.021858 -0.984252,
0.899605 -0.026110 -0.984252,
0.899605 -0.026110 1.535433,
0.901011 -0.030297 1.535433,
0.901011 -0.030297 -0.984252,
0.902625 -0.034409 1.535433,
0.902625 -0.034409 -0.984252,
0.904442 -0.038435 -0.984252,
0.904442 -0.038435 1.535433,
0.906457 -0.042365 -0.984252,
0.906457 -0.042365 1.535433,
0.908665 -0.046190 1.535433,
0.908665 -0.046190 -0.984252,
0.911062 -0.049900 -0.984252,
0.911062 -0.049900 1.535433,
0.913640 -0.053487 1.535433,
0.913640 -0.053487 -0.984252,
0.916394 -0.056940 -0.984252,
0.916394 -0.056940 1.535433,
0.919316 -0.060252 1.535433,
0.919316 -0.060252 -0.984252,
0.922400 -0.063413 -0.984252,
0.922400 -0.063413 1.535433,
0.925638 -0.066418 1.535433,
0.925638 -0.066418 -0.984252,
0.929022 -0.069257 1.535433,
0.929022 -0.069257 -0.984252,
0.932542 -0.071924 1.535433,
0.932542 -0.071924 -0.984252,
0.936192 -0.074412 1.535433,
0.936192 -0.074412 -0.984252,
0.939961 -0.076715 1.535433,
0.939961 -0.076715 -0.984252,
0.943840 -0.078827 1.535433,
0.943840 -0.078827 -0.984252,
0.947819 -0.080744 1.535433,
0.947819 -0.080744 -0.984252,
0.951889 -0.082459 1.535433,
0.951889 -0.082459 -0.984252,
0.956040 -0.083970 1.535433,
0.956040 -0.083970 -0.984252,
0.960260 -0.085272 1.535433,
0.960260 -0.085272 -0.984252,
0.964540 -0.086362 1.535433,
0.964540 -0.086362 -0.984252,
0.968870 -0.087237 1.535433,
0.968870 -0.087237 -0.984252,
0.973237 -0.087895 1.535433,
0.973237 -0.087895 -0.984252,
0.977632 -0.088335 1.535433,
0.977632 -0.088335 -0.984252,
0.982044 -0.088555 1.535433,
0.982044 -0.088555 -0.984252,
0.986460 -0.088555 1.535433,
0.986460 -0.088555 -0.984252,
0.990872 -0.088335 1.535433,
0.990872 -0.088335 -0.984252,
0.995267 -0.087895 1.535433,
0.995267 -0.087895 -0.984252,
0.999634 -0.087237 1.535433,
0.999634 -0.087237 -0.984252,
1.003963 -0.086362 1.535433,
1.003963 -0.086362 -0.984252,
1.008244 -0.085272 1.535433,
1.008244 -0.085272 -0.984252,
1.012464 -0.083970 1.535433,
1.012464 -0.083970 -0.984252,
1.016615 -0.082459 1.535433,
1.016615 -0.082459 -0.984252,
1.020685 -0.080744 1.535433,
1.020685 -0.080744 -0.984252,
1.024664 -0.078827 1.535433,
1.024664 -0.078827 -0.984252,
1.028543 -0.076715 1.535433,
1.028543 -0.076715 -0.984252,
1.032312 -0.074412 1.535433,
1.032312 -0.074412 -0.984252,
1.035962 -0.071924 1.535433,
1.035962 -0.071924 -0.984252,
1.039482 -0.069257 1.535433,
1.039482 -0.069257 -0.984252,
1.042866 -0.066418 1.535433,
1.042866 -0.066418 -0.984252,
1.046104 -0.063413 1.535433,
1.046104 -0.063413 -0.984252,
1.049188 -0.060252 1.535433,
1.049188 -0.060252 -0.984252,
1.052110 -0.056940 1.535433,
1.052110 -0.056940 -0.984252,
1.054864 -0.053487 1.535433,
1.054864 -0.053487 -0.984252,
1.057442 -0.049900 1.535433,
1.057442 -0.049900 -0.984252,
1.059839 -0.046190 -0.984252,
1.059839 -0.046190 1.535433,
1.062047 -0.042365 1.535433,
1.062047 -0.042365 -0.984252,
1.064062 -0.038435 1.535433,
1.064062 -0.038435 -0.984252,
1.065879 -0.034409 1.535433,
1.065879 -0.034409 -0.984252,
1.067492 -0.030297 -0.984252,
1.067492 -0.030297 1.535433,
1.068899 -0.026110 1.535433,
1.068899 -0.026110 -0.984252,
1.070095 -0.021858 1.535433,
1.070095 -0.021858 -0.984252,
1.071078 -0.017552 -0.984252,
1.071078 -0.017552 1.535433,
1.071845 -0.013203 1.535433,
1.071845 -0.013203 -0.984252,
1.072394 -0.008820 1.535433,
1.072394 -0.008820 -0.984252,
1.072725 -0.004415 -0.984252,
1.072725 -0.004415 1.535433 ] } coordIndex [ 0 1 2 -1,
0 2 3 -1,
4 3 5 -1,
4 0 3 -1,
6 5 7 -1,
6 7 8 -1,
6 4 5 -1,
9 6 8 -1,
10 8 11 -1,
10 9 8 -1,
12 11 13 -1,
12 10 11 -1,
14 13 15 -1,
14 15 16 -1,
14 12 13 -1,
17 14 16 -1,
18 16 19 -1,
18 17 16 -1,
20 19 21 -1,
20 18 19 -1,
22 20 21 -1,
22 21 23 -1,
24 22 23 -1,
24 23 25 -1,
26 24 25 -1,
26 25 27 -1,
26 27 28 -1,
29 26 28 -1,
30 29 28 -1,
30 28 31 -1,
30 31 32 -1,
33 30 32 -1,
34 33 32 -1,
34 32 35 -1,
36 34 35 -1,
36 35 37 -1,
38 36 37 -1,
38 37 39 -1,
40 38 39 -1,
40 39 41 -1,
40 41 42 -1,
43 40 42 -1,
44 43 42 -1,
44 42 45 -1,
46 45 47 -1,
46 44 45 -1,
46 47 48 -1,
49 46 48 -1,
50 48 51 -1,
50 49 48 -1,
52 51 53 -1,
52 50 51 -1,
54 53 55 -1,
54 52 53 -1,
56 55 57 -1,
56 54 55 -1,
58 57 59 -1,
58 56 57 -1,
60 59 61 -1,
60 58 59 -1,
62 61 63 -1,
62 63 64 -1,
62 60 61 -1,
65 64 66 -1,
65 62 64 -1,
67 65 66 -1,
68 66 69 -1,
68 67 66 -1,
70 69 71 -1,
70 68 69 -1,
72 71 73 -1,
72 73 74 -1,
72 70 71 -1,
75 72 74 -1,
76 75 74 -1,
76 74 77 -1,
78 76 77 -1,
78 77 79 -1,
80 78 79 -1,
80 79 81 -1,
80 81 82 -1,
83 80 82 -1,
83 82 84 -1,
85 83 84 -1,
86 85 84 -1,
86 84 87 -1,
86 87 88 -1,
89 86 88 -1,
89 88 90 -1,
91 89 90 -1,
92 91 90 -1,
92 90 93 -1,
94 92 93 -1,
94 93 95 -1,
96 94 95 -1,
96 95 97 -1,
96 97 98 -1,
99 96 98 -1,
100 99 98 -1,
100 98 101 -1,
102 100 101 -1,
102 101 103 -1,
104 102 103 -1,
104 103 105 -1,
104 105 106 -1,
107 104 106 -1,
108 107 106 -1,
108 106 109 -1,
110 108 109 -1,
110 109 111 -1,
112 110 111 -1,
112 111 113 -1,
112 113 114 -1,
115 112 114 -1,
116 114 117 -1,
116 115 114 -1,
118 117 119 -1,
118 119 120 -1,
118 116 117 -1,
121 118 120 -1,
122 120 123 -1,
122 121 120 -1,
124 122 123 -1,
124 123 125 -1,
124 125 126 -1,
127 124 126 -1,
128 127 126 -1,
128 126 129 -1,
128 129 130 -1,
131 128 130 -1,
132 131 130 -1,
132 130 133 -1,
134 132 133 -1,
134 133 135 -1,
136 134 135 -1,
136 135 137 -1,
136 137 138 -1,
139 136 138 -1,
140 139 138 -1,
140 138 141 -1,
142 140 141 -1,
142 141 143 -1,
142 143 144 -1,
145 142 144 -1,
145 144 146 -1,
147 145 146 -1,
148 149 150 -1,
148 147 146 -1,
148 146 149 -1,
151 148 150 -1,
152 150 153 -1,
152 153 154 -1,
152 151 150 -1,
155 152 154 -1,
156 154 157 -1,
156 157 158 -1,
156 155 154 -1,
159 156 158 -1,
160 158 161 -1,
160 159 158 -1,
162 161 163 -1,
162 160 161 -1,
164 163 165 -1,
164 162 163 -1,
166 165 167 -1,
166 164 165 -1,
168 167 169 -1,
168 166 167 -1,
170 169 171 -1,
170 168 169 -1,
172 171 173 -1,
172 170 171 -1,
174 173 175 -1,
174 172 173 -1,
176 174 175 -1,
176 175 177 -1,
178 176 177 -1,
178 177 179 -1,
180 178 179 -1,
180 179 181 -1,
182 180 181 -1,
182 181 183 -1,
184 183 185 -1,
184 182 183 -1,
186 185 187 -1,
186 184 185 -1,
188 187 189 -1,
188 186 187 -1,
190 189 191 -1,
190 188 189 -1,
192 191 193 -1,
192 190 191 -1,
194 193 195 -1,
194 192 193 -1,
196 195 197 -1,
196 194 195 -1,
198 197 199 -1,
198 196 197 -1,
200 199 201 -1,
200 198 199 -1,
202 201 203 -1,
202 200 201 -1,
204 203 205 -1,
204 202 203 -1,
206 205 207 -1,
206 204 205 -1,
208 207 209 -1,
208 206 207 -1,
210 209 211 -1,
210 208 209 -1,
212 211 213 -1,
212 210 211 -1,
214 213 215 -1,
214 212 213 -1,
216 215 217 -1,
216 214 215 -1,
218 217 219 -1,
218 216 217 -1,
220 219 221 -1,
220 218 219 -1,
222 221 223 -1,
222 220 221 -1,
224 222 223 -1,
224 223 225 -1,
226 224 225 -1,
226 225 227 -1,
228 226 227 -1,
228 227 229 -1,
228 229 230 -1,
231 228 230 -1,
232 231 230 -1,
232 230 233 -1,
234 232 233 -1,
234 233 235 -1,
236 234 235 -1,
236 235 237 -1,
236 237 238 -1,
239 236 238 -1,
240 239 238 -1,
240 238 241 -1,
242 240 241 -1,
242 241 243 -1,
242 243 244 -1,
245 242 244 -1,
246 245 244 -1,
246 244 247 -1,
248 246 247 -1,
248 247 249 -1,
248 249 250 -1,
251 248 250 -1,
1 250 2 -1,
1 251 250 -1,
104 107 108 -1,
214 208 210 -1,
214 210 212 -1,
92 94 96 -1,
92 96 99 -1,
224 218 220 -1,
224 220 222 -1,
89 91 92 -1,
86 89 92 -1,
231 226 228 -1,
80 83 85 -1,
236 224 226 -1,
236 231 232 -1,
236 232 234 -1,
236 226 231 -1,
245 240 242 -1,
70 72 75 -1,
70 75 76 -1,
248 245 246 -1,
4 1 0 -1,
9 4 6 -1,
10 4 9 -1,
12 4 10 -1,
18 12 14 -1,
18 14 17 -1,
44 46 49 -1,
43 44 49 -1,
24 20 22 -1,
29 18 20 -1,
29 24 26 -1,
29 20 24 -1,
34 36 38 -1,
34 38 40 -1,
34 40 43 -1,
33 1 4 -1,
33 200 202 -1,
33 202 204 -1,
33 204 206 -1,
33 206 208 -1,
33 245 248 -1,
33 214 216 -1,
33 216 218 -1,
33 29 30 -1,
33 236 239 -1,
33 239 240 -1,
33 248 251 -1,
33 251 1 -1,
33 49 50 -1,
33 34 43 -1,
33 50 52 -1,
33 52 54 -1,
33 54 56 -1,
33 56 58 -1,
33 240 245 -1,
33 58 60 -1,
33 104 108 -1,
33 60 62 -1,
33 62 65 -1,
33 65 67 -1,
33 67 68 -1,
33 68 70 -1,
33 208 214 -1,
33 76 78 -1,
33 78 80 -1,
33 4 12 -1,
33 85 86 -1,
33 218 224 -1,
33 80 85 -1,
33 99 100 -1,
33 12 18 -1,
33 100 102 -1,
33 102 104 -1,
33 43 49 -1,
33 108 110 -1,
33 110 112 -1,
33 112 115 -1,
33 115 116 -1,
33 116 118 -1,
33 118 121 -1,
33 121 122 -1,
33 122 124 -1,
33 124 127 -1,
33 127 128 -1,
33 128 131 -1,
33 224 236 -1,
33 131 132 -1,
33 132 134 -1,
33 134 136 -1,
33 86 92 -1,
33 136 139 -1,
33 139 140 -1,
33 140 142 -1,
33 142 145 -1,
33 145 147 -1,
33 147 148 -1,
33 148 151 -1,
33 151 152 -1,
33 152 155 -1,
33 155 156 -1,
33 156 159 -1,
33 159 160 -1,
33 18 29 -1,
33 160 162 -1,
33 162 164 -1,
33 164 166 -1,
33 166 168 -1,
33 168 170 -1,
33 170 172 -1,
33 172 174 -1,
33 174 176 -1,
33 176 178 -1,
33 178 180 -1,
33 180 182 -1,
33 70 76 -1,
33 182 184 -1,
33 184 186 -1,
33 186 188 -1,
33 188 190 -1,
33 190 192 -1,
33 192 194 -1,
33 194 196 -1,
33 196 198 -1,
33 92 99 -1,
33 198 200 -1,
106 105 109 -1,
209 215 211 -1,
211 215 213 -1,
95 93 97 -1,
97 93 98 -1,
219 225 221 -1,
221 225 223 -1,
90 88 93 -1,
88 87 93 -1,
227 230 229 -1,
82 81 84 -1,
225 237 227 -1,
230 237 233 -1,
233 237 235 -1,
227 237 230 -1,
241 244 243 -1,
73 71 74 -1,
74 71 77 -1,
244 249 247 -1,
2 5 3 -1,
5 8 7 -1,
5 11 8 -1,
5 13 11 -1,
13 19 15 -1,
15 19 16 -1,
47 45 48 -1,
45 42 48 -1,
21 25 23 -1,
19 28 21 -1,
25 28 27 -1,
21 28 25 -1,
37 35 39 -1,
39 35 41 -1,
41 35 42 -1,
2 32 5 -1,
201 32 203 -1,
203 32 205 -1,
205 32 207 -1,
207 32 209 -1,
244 32 249 -1,
215 32 217 -1,
217 32 219 -1,
28 32 31 -1,
237 32 238 -1,
238 32 241 -1,
249 32 250 -1,
250 32 2 -1,
48 32 51 -1,
35 32 42 -1,
51 32 53 -1,
53 32 55 -1,
55 32 57 -1,
57 32 59 -1,
241 32 244 -1,
59 32 61 -1,
105 32 109 -1,
61 32 63 -1,
63 32 64 -1,
64 32 66 -1,
66 32 69 -1,
69 32 71 -1,
209 32 215 -1,
77 32 79 -1,
79 32 81 -1,
5 32 13 -1,
84 32 87 -1,
219 32 225 -1,
81 32 84 -1,
98 32 101 -1,
13 32 19 -1,
101 32 103 -1,
103 32 105 -1,
42 32 48 -1,
109 32 111 -1,
111 32 113 -1,
113 32 114 -1,
114 32 117 -1,
117 32 119 -1,
119 32 120 -1,
120 32 123 -1,
123 32 125 -1,
125 32 126 -1,
126 32 129 -1,
129 32 130 -1,
225 32 237 -1,
130 32 133 -1,
133 32 135 -1,
135 32 137 -1,
87 32 93 -1,
137 32 138 -1,
138 32 141 -1,
141 32 143 -1,
143 32 144 -1,
144 32 146 -1,
146 32 149 -1,
149 32 150 -1,
150 32 153 -1,
153 32 154 -1,
154 32 157 -1,
157 32 158 -1,
158 32 161 -1,
19 32 28 -1,
161 32 163 -1,
163 32 165 -1,
165 32 167 -1,
167 32 169 -1,
169 32 171 -1,
171 32 173 -1,
173 32 175 -1,
175 32 177 -1,
177 32 179 -1,
179 32 181 -1,
181 32 183 -1,
71 32 77 -1,
183 32 185 -1,
185 32 187 -1,
187 32 189 -1,
189 32 191 -1,
191 32 193 -1,
193 32 195 -1,
195 32 197 -1,
197 32 199 -1,
93 32 98 -1,
199 32 201 -1 ] } }
Shape { appearance Appearance { material Material { diffuseColor 0.7 0.72 0.74 } } geometry IndexedFaceSet { solid FALSE coord Coordinate { point [ 0.988667 -1.181102 1.446961,
0.984252 -1.181102 1.446850,
0.984252 0.000000 1.446850,
0.988667 0.000000 1.446961,
0.993072 -1.181102 1.447291,
0.993072 0.000000 1.447291,
0.997455 0.000000 1.447840,
0.997455 -1.181102 1.447840,
1.001804 -1.181102 1.448607,
1.001804 0.000000 1.448607,
1.006110 0.000000 1.449590,
1.006110 -1.181102 1.449590,
1.010362 0.000000 1.450786,
1.010362 -1.181102 1.450786,
1.014549 -1.181102 1.452193,
1.014549 0.000000 1.452193,
1.018661 -1.181102 1.453806,
1.018661 0.000000 1.453806,
1.022687 0.000000 1.455623,
1.022687 -1.181102 1.455623,
1.026617 -1.181102 1.457638,
1.026617 0.000000 1.457638,
1.030442 -1.181102 1.459846,
1.030442 0.000000 1.459846,
1.034152 -1.181102 1.462243,
1.034152 0.000000 1.462243,
1.037739 -1.181102 1.464821,
1.037739 0.000000 1.464821,
1.041192 -1.181102 1.467575,
1.041192 0.000000 1.467575,
1.044503 -1.181102 1.470497,
1.044503 0.000000 1.470497,
1.047665 -1.181102 1.473581,
1.047665 0.000000 1.473581,
1.050670 -1.181102 1.476819,
1.050670 0.000000 1.476819,
1.053509 -1.181102 1.480203,
1.053509 0.000000 1.480203,
1.056176 -1.181102 1.483723,
1.056176 0.000000 1.483723,
1.058664 -1.181102 1.487373,
1.058664 0.000000 1.487373,
1.060967 0.000000 1.491142,
1.060967 -1.181102 1.491142,
1.063079 -1.181102 1.495021,
1.063079 0.000000 1.495021,
1.064996 0.000000 1.499000,
1.064996 -1.181102 1.499000,
1.066711 -1.181102 1.503070,
1.066711 0.000000 1.503070,
1.068222 0.000000 1.507221,
1.068222 -1.181102 1.507221,
1.069524 -1.181102 1.511441,
1.069524 0.000000 1.511441,
1.070614 -1.181102 1.515722,
1.070614 0.000000 1.515722,
1.071489 0.000000 1.520051,
1.071489 -1.181102 1.520051,
1.072147 0.000000 1.524418,
1.072147 -1.181102 1.524418,
1.072587 -1.181102 1.528813,
1.072587 0.000000 1.528813,
1.072807 0.000000 1.533225,
1.072807 -1.181102 1.533225,
1.072807 -1.181102 1.537641,
1.072807 0.000000 1.537641,
1.072587 0.000000 1.542053,
1.072587 -1.181102 1.542053,
1.072147 -1.181102 1.546448,
1.072147 0.000000 1.546448,
1.071489 0.000000 1.550815,
1.071489 -1.181102 1.550815,
1.070614 -1.181102 1.555145,
1.070614 0.000000 1.555145,
1.069524 -1.181102 1.559425,
1.069524 0.000000 1.559425,
1.068222 -1.181102 1.563645,
1.068222 0.000000 1.563645,
1.066711 -1.181102 1.567796,
1.066711 0.000000 1.567796,
1.064996 -1.181102 1.571866,
1.064996 0.000000 1.571866,
1.063079 0.000000 1.575845,
1.063079 -1.181102 1.575845,
1.060967 -1.181102 1.579724,
1.060967 0.000000 1.579724,
1.058664 -1.181102 1.583493,
1.058664 0.000000 1.583493,
1.056176 -1.181102 1.587143,
1.056176 0.000000 1.587143,
1.053509 -1.181102 1.590663,
1.053509 0.000000 1.590663,
1.050670 -1.181102 1.594047,
1.050670 0.000000 1.594047,
1.047665 -1.181102 1.597285,
1.047665 0.000000 1.597285,
1.044503 -1.181102 1.600369,
1.044503 0.000000 1.600369,
1.041192 -1.181102 1.603291,
1.041192 0.000000 1.603291,
1.037739 -1.181102 1.606045,
1.037739 0.000000 1.606045,
1.034152 -1.181102 1.608624,
1.034152 0.000000 1.608624,
1.030442 -1.181102 1.611020,
1.030442 0.000000 1.611020,
1.026617 -1.181102 1.613228,
1.026617 0.000000 1.613228,
1.022687 -1.181102 1.615243,
1.022687 0.000000 1.615243,
1.018661 -1.181102 1.617060,
1.018661 0.000000 1.617060,
1.014549 -1.181102 1.618674,
1.014549 0.000000 1.618674,
1.010362 -1.181102 1.620080,
1.010362 0.000000 1.620080,
1.006110 -1.181102 1.621277,
1.006110 0.000000 1.621277,
1.001804 -1.181102 1.622259,
1.001804 0.000000 1.622259,
0.997455 -1.181102 1.623026,
0.997455 0.000000 1.623026,
0.993072 -1.181102 1.623576,
0.993072 0.000000 1.623576,
0.988667 -1.181102 1.623906,
0.988667 0.000000 1.623906,
0.984252 -1.181102 1.624016,
0.984252 0.000000 1.624016,
0.979836 -1.181102 1.623906,
0.979836 0.000000 1.623906,
0.975432 -1.181102 1.623576,
0.975432 0.000000 1.623576,
0.971049 -1.181102 1.623026,
0.971049 0.000000 1.623026,
0.966700 -1.181102 1.622259,
0.966700 0.000000 1.622259,
0.962394 -1.181102 1.621277,
0.962394 0.000000 1.621277,
0.958142 -1.181102 1.620080,
0.958142 0.000000 1.620080,
0.953955 -1.181102 1.618674,
0.953955 0.000000 1.618674,
0.949843 -1.181102 1.617060,
0.949843 0.000000 1.617060,
0.945817 -1.181102 1.615243,
0.945817 0.000000 1.615243,
0.941887 -1.181102 1.613228,
0.941887 0.000000 1.613228,
0.938062 -1.181102 1.611020,
0.938062 0.000000 1.611020,
0.934352 -1.181102 1.608624,
0.934352 0.000000 1.608624,
0.930765 -1.181102 1.606045,
0.930765 0.000000 1.606045,
0.927312 -1.181102 1.603291,
0.927312 0.000000 1.603291,
0.924000 -1.181102 1.600369,
0.924000 0.000000 1.600369,
0.920839 -1.181102 1.597285,
0.920839 0.000000 1.597285,
0.917834 -1.181102 1.594047,
0.917834 0.000000 1.594047,
0.914995 -1.181102 1.590663,
0.914995 0.000000 1.590663,
0.912328 -1.181102 1.587143,
0.912328 0.000000 1.587143,
0.909840 -1.181102 1.583493,
0.909840 0.000000 1.583493,
0.907537 -1.181102 1.579724,
0.907537 0.000000 1.579724,
0.905425 -1.181102 1.575845,
0.905425 0.000000 1.575845,
0.903508 -1.181102 1.571866,
0.903508 0.000000 1.571866,
0.901793 -1.181102 1.567796,
0.901793 0.000000 1.567796,
0.900282 -1.181102 1.563645,
0.900282 0.000000 1.563645,
0.898980 -1.181102 1.559425,
0.898980 0.000000 1.559425,
0.897890 -1.181102 1.555145,
0.897890 0.000000 1.555145,
0.897015 -1.181102 1.550815,
0.897015 0.000000 1.550815,
0.896357 -1.181102 1.546448,
0.896357 0.000000 1.546448,
0.895917 -1.181102 1.542053,
0.895917 0.000000 1.542053,
0.895697 0.000000 1.537641,
0.895697 -1.181102 1.537641,
0.895697 -1.181102 1.533225,
0.895697 0.000000 1.533225,
0.895917 -1.181102 1.528813,
0.895917 0.000000 1.528813,
0.896357 -1.181102 1.524418,
0.896357 0.000000 1.524418,
0.897015 -1.181102 1.520051,
0.897015 0.000000 1.520051,
0.897890 -1.181102 1.515722,
0.897890 0.000000 1.515722,
0.898980 0.000000 1.511441,
0.898980 -1.181102 1.511441,
0.900282 -1.181102 1.507221,
0.900282 0.000000 1.507221,
0.901793 -1.181102 1.503070,
0.901793 0.000000 1.503070,
0.903508 -1.181102 1.499000,
0.903508 0.000000 1.499000,
0.905425 0.000000 1.495021,
0.905425 -1.181102 1.495021,
0.907537 -1.181102 1.491142,
0.907537 0.000000 1.491142,
0.909840 -1.181102 1.487373,
0.909840 0.000000 1.487373,
0.912328 -1.181102 1.483723,
0.912328 0.000000 1.483723,
0.914995 0.000000 1.480203,
0.914995 -1.181102 1.480203,
0.917834 -1.181102 1.476819,
0.917834 0.000000 1.476819,
0.920839 0.000000 1.473581,
0.920839 -1.181102 1.473581,
0.924000 -1.181102 1.470497,
0.924000 0.000000 1.470497,
0.927312 -1.181102 1.467575,
0.927312 0.000000 1.467575,
0.930765 -1.181102 1.464821,
0.930765 0.000000 1.464821,
0.934352 -1.181102 1.462243,
0.934352 0.000000 1.462243,
0.938062 -1.181102 1.459846,
0.938062 0.000000 1.459846,
0.941887 -1.181102 1.457638,
0.941887 0.000000 1.457638,
0.945817 -1.181102 1.455623,
0.945817 0.000000 1.455623,
0.949843 -1.181102 1.453806,
0.949843 0.000000 1.453806,
0.953955 -1.181102 1.452193,
0.953955 0.000000 1.452193,
0.958142 -1.181102 1.450786,
0.958142 0.000000 1.450786,
0.962394 -1.181102 1.449590,
0.962394 0.000000 1.449590,
0.966700 -1.181102 1.448607,
0.966700 0.000000 1.448607,
0.971049 -1.181102 1.447840,
0.971049 0.000000 1.447840,
0.975432 -1.181102 1.447291,
0.975432 0.000000 1.447291,
0.979836 -1.181102 1.446961,
0.979836 0.000000 1.446961 ] } coordIndex [ 0 1 2 -1,
0 2 3 -1,
4 3 5 -1,
4 5 6 -1,
4 0 3 -1,
7 4 6 -1,
8 6 9 -1,
8 9 10 -1,
8 7 6 -1,
11 10 12 -1,
11 8 10 -1,
13 11 12 -1,
14 12 15 -1,
14 13 12 -1,
16 15 17 -1,
16 17 18 -1,
16 14 15 -1,
19 16 18 -1,
20 18 21 -1,
20 19 18 -1,
22 20 21 -1,
22 21 23 -1,
24 22 23 -1,
24 23 25 -1,
26 24 25 -1,
26 25 27 -1,
28 26 27 -1,
28 27 29 -1,
30 28 29 -1,
30 29 31 -1,
32 30 31 -1,
32 31 33 -1,
34 32 33 -1,
34 33 35 -1,
36 34 35 -1,
36 35 37 -1,
38 36 37 -1,
38 37 39 -1,
40 38 39 -1,
40 39 41 -1,
40 41 42 -1,
43 40 42 -1,
44 43 42 -1,
44 42 45 -1,
44 45 46 -1,
47 44 46 -1,
48 46 49 -1,
48 49 50 -1,
48 47 46 -1,
51 48 50 -1,
52 50 53 -1,
52 51 50 -1,
54 53 55 -1,
54 55 56 -1,
54 52 53 -1,
57 56 58 -1,
57 54 56 -1,
59 57 58 -1,
60 58 61 -1,
60 61 62 -1,
60 59 58 -1,
63 60 62 -1,
64 62 65 -1,
64 65 66 -1,
64 63 62 -1,
67 64 66 -1,
68 66 69 -1,
68 69 70 -1,
68 67 66 -1,
71 68 70 -1,
72 71 70 -1,
72 70 73 -1,
74 72 73 -1,
74 73 75 -1,
76 74 75 -1,
76 75 77 -1,
78 76 77 -1,
78 77 79 -1,
80 78 79 -1,
80 79 81 -1,
80 81 82 -1,
83 80 82 -1,
84 83 82 -1,
84 82 85 -1,
86 84 85 -1,
86 85 87 -1,
88 86 87 -1,
88 87 89 -1,
90 88 89 -1,
90 89 91 -1,
92 90 91 -1,
92 91 93 -1,
94 92 93 -1,
94 93 95 -1,
96 94 95 -1,
96 95 97 -1,
98 96 97 -1,
98 97 99 -1,
100 98 99 -1,
100 99 101 -1,
102 100 101 -1,
102 101 103 -1,
104 102 103 -1,
104 103 105 -1,
106 104 105 -1,
106 105 107 -1,
108 106 107 -1,
108 107 109 -1,
110 108 109 -1,
110 109 111 -1,
112 110 111 -1,
112 111 113 -1,
114 112 113 -1,
114 113 115 -1,
116 115 117 -1,
116 114 115 -1,
118 117 119 -1,
118 116 117 -1,
120 119 121 -1,
120 118 119 -1,
122 121 123 -1,
122 120 121 -1,
124 122 123 -1,
124 123 125 -1,
126 124 125 -1,
126 125 127 -1,
128 126 127 -1,
128 127 129 -1,
130 128 129 -1,
130 129 131 -1,
132 130 131 -1,
132 131 133 -1,
134 132 133 -1,
134 133 135 -1,
136 134 135 -1,
136 135 137 -1,
138 136 137 -1,
138 137 139 -1,
140 138 139 -1,
140 139 141 -1,
142 140 141 -1,
142 141 143 -1,
144 142 143 -1,
144 143 145 -1,
146 144 145 -1,
146 145 147 -1,
148 146 147 -1,
148 147 149 -1,
150 149 151 -1,
150 148 149 -1,
152 151 153 -1,
152 150 151 -1,
154 153 155 -1,
154 152 153 -1,
156 155 157 -1,
156 154 155 -1,
158 157 159 -1,
158 156 157 -1,
160 159 161 -1,
160 158 159 -1,
162 161 163 -1,
162 160 161 -1,
164 163 165 -1,
164 162 163 -1,
166 165 167 -1,
166 164 165 -1,
168 167 169 -1,
168 166 167 -1,
170 169 171 -1,
170 168 169 -1,
172 171 173 -1,
172 170 171 -1,
174 173 175 -1,
174 172 173 -1,
176 174 175 -1,
176 175 177 -1,
178 176 177 -1,
178 177 179 -1,
180 178 179 -1,
180 179 181 -1,
182 180 181 -1,
182 181 183 -1,
184 183 185 -1,
184 182 183 -1,
186 185 187 -1,
186 187 188 -1,
186 184 185 -1,
189 186 188 -1,
190 188 191 -1,
190 189 188 -1,
192 191 193 -1,
192 190 191 -1,
194 193 195 -1,
194 192 193 -1,
196 195 197 -1,
196 194 195 -1,
198 197 199 -1,
198 199 200 -1,
198 196 197 -1,
201 198 200 -1,
202 200 203 -1,
202 201 200 -1,
204 203 205 -1,
204 202 203 -1,
206 205 207 -1,
206 207 208 -1,
206 204 205 -1,
209 206 208 -1,
210 208 211 -1,
210 209 208 -1,
212 211 213 -1,
212 210 211 -1,
214 213 215 -1,
214 215 216 -1,
214 212 213 -1,
217 214 216 -1,
218 216 219 -1,
218 219 220 -1,
218 217 216 -1,
221 218 220 -1,
222 220 223 -1,
222 221 220 -1,
224 222 223 -1,
224 223 225 -1,
226 224 225 -1,
226 225 227 -1,
228 226 227 -1,
228 227 229 -1,
230 228 229 -1,
230 229 231 -1,
232 230 231 -1,
232 231 233 -1,
234 232 233 -1,
234 233 235 -1,
236 234 235 -1,
236 235 237 -1,
238 236 237 -1,
238 237 239 -1,
240 238 239 -1,
240 239 241 -1,
242 240 241 -1,
242 241 243 -1,
244 242 243 -1,
244 243 245 -1,
246 244 245 -1,
246 245 247 -1,
248 247 249 -1,
248 246 247 -1,
250 248 249 -1,
250 249 251 -1,
1 251 2 -1,
1 250 251 -1,
47 48 51 -1,
22 19 20 -1,
24 16 19 -1,
24 19 22 -1,
38 40 43 -1,
38 43 44 -1,
202 198 201 -1,
206 202 204 -1,
32 206 209 -1,
32 7 8 -1,
32 209 210 -1,
32 8 11 -1,
32 210 212 -1,
32 11 13 -1,
32 212 214 -1,
32 13 14 -1,
32 214 217 -1,
32 14 16 -1,
32 217 218 -1,
32 24 26 -1,
32 26 28 -1,
32 238 246 -1,
32 28 30 -1,
32 38 44 -1,
32 198 202 -1,
32 34 36 -1,
32 202 206 -1,
32 36 38 -1,
32 59 63 -1,
32 246 248 -1,
32 44 47 -1,
32 248 250 -1,
32 250 1 -1,
32 96 102 -1,
32 51 52 -1,
32 1 7 -1,
32 57 59 -1,
32 63 64 -1,
32 64 67 -1,
32 67 68 -1,
32 68 71 -1,
32 76 78 -1,
32 78 80 -1,
32 47 51 -1,
32 80 83 -1,
32 83 84 -1,
32 84 86 -1,
32 86 88 -1,
32 88 90 -1,
32 90 92 -1,
32 92 94 -1,
32 94 96 -1,
32 102 104 -1,
32 104 106 -1,
32 106 108 -1,
32 108 110 -1,
32 110 112 -1,
32 112 114 -1,
32 114 116 -1,
32 116 118 -1,
32 118 120 -1,
32 120 122 -1,
32 122 124 -1,
32 124 126 -1,
32 126 128 -1,
32 128 130 -1,
32 52 57 -1,
32 130 132 -1,
32 218 228 -1,
32 132 134 -1,
32 134 136 -1,
32 136 138 -1,
32 138 140 -1,
32 140 142 -1,
32 142 144 -1,
32 144 146 -1,
32 146 148 -1,
32 148 150 -1,
32 150 152 -1,
32 152 154 -1,
32 154 156 -1,
32 156 158 -1,
32 158 160 -1,
32 160 162 -1,
32 162 164 -1,
32 164 166 -1,
32 166 168 -1,
32 168 170 -1,
32 170 172 -1,
32 71 76 -1,
32 228 238 -1,
32 172 174 -1,
32 174 176 -1,
32 176 178 -1,
32 178 180 -1,
32 180 182 -1,
32 16 24 -1,
32 182 184 -1,
32 184 186 -1,
32 186 189 -1,
32 189 190 -1,
32 190 192 -1,
32 192 194 -1,
32 194 196 -1,
32 196 198 -1,
98 100 102 -1,
96 98 102 -1,
224 221 222 -1,
226 221 224 -1,
228 218 221 -1,
228 221 226 -1,
236 230 232 -1,
236 232 234 -1,
238 228 230 -1,
238 230 236 -1,
244 240 242 -1,
71 72 74 -1,
71 74 76 -1,
246 238 240 -1,
246 240 244 -1,
4 1 0 -1,
59 60 63 -1,
7 1 4 -1,
52 54 57 -1,
49 46 50 -1,
18 23 21 -1,
17 25 18 -1,
18 25 23 -1,
41 39 42 -1,
42 39 45 -1,
199 203 200 -1,
203 207 205 -1,
207 33 208 -1,
6 33 9 -1,
208 33 211 -1,
9 33 10 -1,
211 33 213 -1,
10 33 12 -1,
213 33 215 -1,
12 33 15 -1,
215 33 216 -1,
15 33 17 -1,
216 33 219 -1,
25 33 27 -1,
27 33 29 -1,
239 33 247 -1,
29 33 31 -1,
39 33 45 -1,
199 33 203 -1,
35 33 37 -1,
203 33 207 -1,
37 33 39 -1,
58 33 62 -1,
247 33 249 -1,
45 33 46 -1,
249 33 251 -1,
251 33 2 -1,
97 33 103 -1,
50 33 53 -1,
2 33 6 -1,
56 33 58 -1,
62 33 65 -1,
65 33 66 -1,
66 33 69 -1,
69 33 70 -1,
77 33 79 -1,
79 33 81 -1,
46 33 50 -1,
81 33 82 -1,
82 33 85 -1,
85 33 87 -1,
87 33 89 -1,
89 33 91 -1,
91 33 93 -1,
93 33 95 -1,
95 33 97 -1,
103 33 105 -1,
105 33 107 -1,
107 33 109 -1,
109 33 111 -1,
111 33 113 -1,
113 33 115 -1,
115 33 117 -1,
117 33 119 -1,
119 33 121 -1,
121 33 123 -1,
123 33 125 -1,
125 33 127 -1,
127 33 129 -1,
129 33 131 -1,
53 33 56 -1,
131 33 133 -1,
219 33 229 -1,
133 33 135 -1,
135 33 137 -1,
137 33 139 -1,
139 33 141 -1,
141 33 143 -1,
143 33 145 -1,
145 33 147 -1,
147 33 149 -1,
149 33 151 -1,
151 33 153 -1,
153 33 155 -1,
155 33 157 -1,
157 33 159 -1,
159 33 161 -1,
161 33 163 -1,
163 33 165 -1,
165 33 167 -1,
167 33 169 -1,
169 33 171 -1,
171 33 173 -1,
70 33 77 -1,
229 33 239 -1,
173 33 175 -1,
175 33 177 -1,
177 33 179 -1,
179 33 181 -1,
181 33 183 -1,
17 33 25 -1,
183 33 185 -1,
185 33 187 -1,
187 33 188 -1,
188 33 191 -1,
191 33 193 -1,
193 33 195 -1,
195 33 197 -1,
197 33 199 -1,
101 99 103 -1,
99 97 103 -1,
220 225 223 -1,
220 227 225 -1,
219 229 220 -1,
220 229 227 -1,
231 237 233 -1,
233 237 235 -1,
229 239 231 -1,
231 239 237 -1,
241 245 243 -1,
73 70 75 -1,
75 70 77 -1,
239 247 241 -1,
241 247 245 -1,
2 5 3 -1,
61 58 62 -1,
2 6 5 -1,
55 53 56 -1 ] } }
