#VRML V2.0 utf8
# Project-owned nominal model; units 0.1 inch for KiCad.
Shape { appearance Appearance { material Material { diffuseColor 0.025 0.12 0.34 } } geometry IndexedFaceSet { solid FALSE coord Coordinate { point [ 1.376729 0.049061 4.527559,
1.377953 -0.000000 4.527559,
1.377953 -0.000000 0.196850,
1.376729 0.049061 0.196850,
1.373062 0.098000 4.527559,
1.373062 0.098000 0.196850,
1.366959 0.146695 4.527559,
1.366959 0.146695 0.196850,
1.358437 0.195026 0.196850,
1.358437 0.195026 4.527559,
1.347517 0.242871 4.527559,
1.347517 0.242871 0.196850,
1.334225 0.290113 4.527559,
1.334225 0.290113 0.196850,
1.318595 0.336634 0.196850,
1.318595 0.336634 4.527559,
1.300666 0.382318 4.527559,
1.300666 0.382318 0.196850,
1.280481 0.427051 4.527559,
1.280481 0.427051 0.196850,
1.258092 0.470722 0.196850,
1.258092 0.470722 4.527559,
1.233554 0.513224 0.196850,
1.233554 0.513224 4.527559,
1.206928 0.554449 0.196850,
1.206928 0.554449 4.527559,
1.178280 0.594296 4.527559,
1.178280 0.594296 0.196850,
1.147682 0.632665 0.196850,
1.147682 0.632665 4.527559,
1.115209 0.669461 4.527559,
1.115209 0.669461 0.196850,
1.080942 0.704593 4.527559,
1.080942 0.704593 0.196850,
1.044966 0.737974 4.527559,
1.044966 0.737974 0.196850,
1.007372 0.769519 0.196850,
1.007372 0.769519 4.527559,
0.968252 0.799152 4.527559,
0.968252 0.799152 0.196850,
0.927703 0.826797 0.196850,
0.927703 0.826797 4.527559,
0.885827 0.852387 4.527559,
0.885827 0.852387 0.196850,
0.842727 0.875858 0.196850,
0.842727 0.875858 4.527559,
0.798511 0.897151 4.527559,
0.798511 0.897151 0.196850,
0.753288 0.916214 4.527559,
0.753288 0.916214 0.196850,
0.707172 0.932999 4.527559,
0.707172 0.932999 0.196850,
0.660276 0.947465 4.527559,
0.660276 0.947465 0.196850,
0.612717 0.959575 4.527559,
0.612717 0.959575 0.196850,
0.564614 0.969299 4.527559,
0.564614 0.969299 0.196850,
0.516086 0.976613 0.196850,
0.516086 0.976613 4.527559,
0.467254 0.981500 4.527559,
0.467254 0.981500 0.196850,
0.418239 0.983946 4.527559,
0.418239 0.983946 0.196850,
0.369163 0.983946 0.196850,
0.369163 0.983946 4.527559,
0.320148 0.981500 0.196850,
0.320148 0.981500 4.527559,
0.271315 0.976613 4.527559,
0.271315 0.976613 0.196850,
0.222787 0.969299 4.527559,
0.222787 0.969299 0.196850,
0.174684 0.959575 4.527559,
0.174684 0.959575 0.196850,
0.127126 0.947465 4.527559,
0.127126 0.947465 0.196850,
0.080230 0.932999 0.196850,
0.080230 0.932999 4.527559,
0.034113 0.916214 0.196850,
0.034113 0.916214 4.527559,
-0.011109 0.897151 4.527559,
-0.011109 0.897151 0.196850,
-0.055325 0.875858 4.527559,
-0.055325 0.875858 0.196850,
-0.098425 0.852387 0.196850,
-0.098425 0.852387 4.527559,
-0.140301 0.826797 0.196850,
-0.140301 0.826797 4.527559,
-0.180850 0.799152 4.527559,
-0.180850 0.799152 0.196850,
-0.219970 0.769519 0.196850,
-0.219970 0.769519 4.527559,
-0.257565 0.737974 0.196850,
-0.257565 0.737974 4.527559,
-0.293540 0.704593 4.527559,
-0.293540 0.704593 0.196850,
-0.327807 0.669461 0.196850,
-0.327807 0.669461 4.527559,
-0.360280 0.632665 4.527559,
-0.360280 0.632665 0.196850,
-0.390878 0.594296 0.196850,
-0.390878 0.594296 4.527559,
-0.419526 0.554449 4.527559,
-0.419526 0.554449 0.196850,
-0.446152 0.513224 4.527559,
-0.446152 0.513224 0.196850,
-0.470691 0.470722 4.527559,
-0.470691 0.470722 0.196850,
-0.493080 0.427051 0.196850,
-0.493080 0.427051 4.527559,
-0.513264 0.382318 4.527559,
-0.513264 0.382318 0.196850,
-0.531194 0.336634 4.527559,
-0.531194 0.336634 0.196850,
-0.546824 0.290113 4.527559,
-0.546824 0.290113 0.196850,
-0.560115 0.242871 4.527559,
-0.560115 0.242871 0.196850,
-0.571036 0.195026 4.527559,
-0.571036 0.195026 0.196850,
-0.579558 0.146695 4.527559,
-0.579558 0.146695 0.196850,
-0.585660 0.098000 4.527559,
-0.585660 0.098000 0.196850,
-0.589328 0.049061 4.527559,
-0.589328 0.049061 0.196850,
-0.590551 -0.000000 4.527559,
-0.590551 -0.000000 0.196850,
-0.589328 -0.049061 4.527559,
-0.589328 -0.049061 0.196850,
-0.585660 -0.098000 4.527559,
-0.585660 -0.098000 0.196850,
-0.579558 -0.146695 4.527559,
-0.579558 -0.146695 0.196850,
-0.571036 -0.195026 0.196850,
-0.571036 -0.195026 4.527559,
-0.560115 -0.242871 4.527559,
-0.560115 -0.242871 0.196850,
-0.546824 -0.290113 0.196850,
-0.546824 -0.290113 4.527559,
-0.531194 -0.336634 4.527559,
-0.531194 -0.336634 0.196850,
-0.513264 -0.382318 0.196850,
-0.513264 -0.382318 4.527559,
-0.493080 -0.427051 4.527559,
-0.493080 -0.427051 0.196850,
-0.470691 -0.470722 4.527559,
-0.470691 -0.470722 0.196850,
-0.446152 -0.513224 4.527559,
-0.446152 -0.513224 0.196850,
-0.419526 -0.554449 0.196850,
-0.419526 -0.554449 4.527559,
-0.390878 -0.594296 4.527559,
-0.390878 -0.594296 0.196850,
-0.360280 -0.632665 4.527559,
-0.360280 -0.632665 0.196850,
-0.327807 -0.669461 0.196850,
-0.327807 -0.669461 4.527559,
-0.293540 -0.704593 4.527559,
-0.293540 -0.704593 0.196850,
-0.257565 -0.737974 4.527559,
-0.257565 -0.737974 0.196850,
-0.219970 -0.769519 4.527559,
-0.219970 -0.769519 0.196850,
-0.180850 -0.799152 0.196850,
-0.180850 -0.799152 4.527559,
-0.140301 -0.826797 4.527559,
-0.140301 -0.826797 0.196850,
-0.098425 -0.852387 0.196850,
-0.098425 -0.852387 4.527559,
-0.055325 -0.875858 4.527559,
-0.055325 -0.875858 0.196850,
-0.011109 -0.897151 4.527559,
-0.011109 -0.897151 0.196850,
0.034113 -0.916214 4.527559,
0.034113 -0.916214 0.196850,
0.080230 -0.932999 0.196850,
0.080230 -0.932999 4.527559,
0.127126 -0.947465 4.527559,
0.127126 -0.947465 0.196850,
0.174684 -0.959575 4.527559,
0.174684 -0.959575 0.196850,
0.222787 -0.969299 4.527559,
0.222787 -0.969299 0.196850,
0.271315 -0.976613 0.196850,
0.271315 -0.976613 4.527559,
0.320148 -0.981500 0.196850,
0.320148 -0.981500 4.527559,
0.369163 -0.983946 0.196850,
0.369163 -0.983946 4.527559,
0.418239 -0.983946 4.527559,
0.418239 -0.983946 0.196850,
0.467254 -0.981500 4.527559,
0.467254 -0.981500 0.196850,
0.516086 -0.976613 4.527559,
0.516086 -0.976613 0.196850,
0.564614 -0.969299 4.527559,
0.564614 -0.969299 0.196850,
0.612717 -0.959575 4.527559,
0.612717 -0.959575 0.196850,
0.660276 -0.947465 4.527559,
0.660276 -0.947465 0.196850,
0.707172 -0.932999 0.196850,
0.707172 -0.932999 4.527559,
0.753288 -0.916214 4.527559,
0.753288 -0.916214 0.196850,
0.798511 -0.897151 4.527559,
0.798511 -0.897151 0.196850,
0.842727 -0.875858 0.196850,
0.842727 -0.875858 4.527559,
0.885827 -0.852387 4.527559,
0.885827 -0.852387 0.196850,
0.927703 -0.826797 0.196850,
0.927703 -0.826797 4.527559,
0.968252 -0.799152 4.527559,
0.968252 -0.799152 0.196850,
1.007372 -0.769519 0.196850,
1.007372 -0.769519 4.527559,
1.044966 -0.737974 4.527559,
1.044966 -0.737974 0.196850,
1.080942 -0.704593 4.527559,
1.080942 -0.704593 0.196850,
1.115209 -0.669461 4.527559,
1.115209 -0.669461 0.196850,
1.147682 -0.632665 4.527559,
1.147682 -0.632665 0.196850,
1.178280 -0.594296 4.527559,
1.178280 -0.594296 0.196850,
1.206928 -0.554449 4.527559,
1.206928 -0.554449 0.196850,
1.233554 -0.513224 0.196850,
1.233554 -0.513224 4.527559,
1.258092 -0.470722 0.196850,
1.258092 -0.470722 4.527559,
1.280481 -0.427051 4.527559,
1.280481 -0.427051 0.196850,
1.300666 -0.382318 4.527559,
1.300666 -0.382318 0.196850,
1.318595 -0.336634 0.196850,
1.318595 -0.336634 4.527559,
1.334225 -0.290113 4.527559,
1.334225 -0.290113 0.196850,
1.347517 -0.242871 4.527559,
1.347517 -0.242871 0.196850,
1.358437 -0.195026 4.527559,
1.358437 -0.195026 0.196850,
1.366959 -0.146695 0.196850,
1.366959 -0.146695 4.527559,
1.373062 -0.098000 4.527559,
1.373062 -0.098000 0.196850,
1.376729 -0.049061 4.527559,
1.376729 -0.049061 0.196850 ] } coordIndex [ 0 1 2 -1,
0 2 3 -1,
4 3 5 -1,
4 0 3 -1,
6 5 7 -1,
6 7 8 -1,
6 4 5 -1,
9 6 8 -1,
10 8 11 -1,
10 9 8 -1,
12 11 13 -1,
12 13 14 -1,
12 10 11 -1,
15 12 14 -1,
16 14 17 -1,
16 15 14 -1,
18 17 19 -1,
18 19 20 -1,
18 16 17 -1,
21 20 22 -1,
21 18 20 -1,
23 21 22 -1,
23 22 24 -1,
25 23 24 -1,
26 25 24 -1,
26 24 27 -1,
26 27 28 -1,
29 26 28 -1,
30 29 28 -1,
30 28 31 -1,
32 30 31 -1,
32 31 33 -1,
34 32 33 -1,
34 33 35 -1,
34 35 36 -1,
37 34 36 -1,
38 37 36 -1,
38 36 39 -1,
38 39 40 -1,
41 38 40 -1,
42 41 40 -1,
42 40 43 -1,
42 43 44 -1,
45 42 44 -1,
46 44 47 -1,
46 45 44 -1,
48 47 49 -1,
48 46 47 -1,
50 49 51 -1,
50 48 49 -1,
52 51 53 -1,
52 50 51 -1,
54 53 55 -1,
54 52 53 -1,
56 55 57 -1,
56 57 58 -1,
56 54 55 -1,
59 56 58 -1,
60 58 61 -1,
60 59 58 -1,
62 61 63 -1,
62 63 64 -1,
62 60 61 -1,
65 64 66 -1,
65 62 64 -1,
67 65 66 -1,
68 66 69 -1,
68 67 66 -1,
70 69 71 -1,
70 68 69 -1,
72 71 73 -1,
72 70 71 -1,
74 72 73 -1,
74 73 75 -1,
74 75 76 -1,
77 74 76 -1,
77 76 78 -1,
79 77 78 -1,
80 79 78 -1,
80 78 81 -1,
82 80 81 -1,
82 81 83 -1,
82 83 84 -1,
85 82 84 -1,
85 84 86 -1,
87 85 86 -1,
88 87 86 -1,
88 86 89 -1,
88 89 90 -1,
91 88 90 -1,
91 90 92 -1,
93 91 92 -1,
94 93 92 -1,
94 92 95 -1,
94 95 96 -1,
97 94 96 -1,
98 97 96 -1,
98 96 99 -1,
98 99 100 -1,
101 98 100 -1,
102 101 100 -1,
102 100 103 -1,
104 102 103 -1,
104 103 105 -1,
106 104 105 -1,
106 105 107 -1,
106 107 108 -1,
109 106 108 -1,
110 109 108 -1,
110 108 111 -1,
112 110 111 -1,
112 111 113 -1,
114 112 113 -1,
114 113 115 -1,
116 115 117 -1,
116 114 115 -1,
118 117 119 -1,
118 116 117 -1,
120 119 121 -1,
120 118 119 -1,
122 121 123 -1,
122 120 121 -1,
124 122 123 -1,
124 123 125 -1,
126 124 125 -1,
126 125 127 -1,
128 126 127 -1,
128 127 129 -1,
130 128 129 -1,
130 129 131 -1,
132 130 131 -1,
132 131 133 -1,
132 133 134 -1,
135 132 134 -1,
136 135 134 -1,
136 134 137 -1,
136 137 138 -1,
139 136 138 -1,
140 139 138 -1,
140 138 141 -1,
140 141 142 -1,
143 140 142 -1,
144 143 142 -1,
144 142 145 -1,
146 144 145 -1,
146 145 147 -1,
148 149 150 -1,
148 146 147 -1,
148 147 149 -1,
151 148 150 -1,
152 150 153 -1,
152 151 150 -1,
154 153 155 -1,
154 155 156 -1,
154 152 153 -1,
157 154 156 -1,
158 156 159 -1,
158 157 156 -1,
160 159 161 -1,
160 158 159 -1,
162 161 163 -1,
162 163 164 -1,
162 160 161 -1,
165 162 164 -1,
166 164 167 -1,
166 167 168 -1,
166 165 164 -1,
169 166 168 -1,
170 168 171 -1,
170 169 168 -1,
172 171 173 -1,
172 170 171 -1,
174 173 175 -1,
174 175 176 -1,
174 172 173 -1,
177 174 176 -1,
178 177 176 -1,
178 176 179 -1,
180 178 179 -1,
180 179 181 -1,
182 180 181 -1,
182 181 183 -1,
182 183 184 -1,
185 182 184 -1,
185 184 186 -1,
187 186 188 -1,
187 185 186 -1,
189 187 188 -1,
190 188 191 -1,
190 189 188 -1,
192 191 193 -1,
192 190 191 -1,
194 193 195 -1,
194 192 193 -1,
196 195 197 -1,
196 194 195 -1,
198 197 199 -1,
198 196 197 -1,
200 199 201 -1,
200 201 202 -1,
200 198 199 -1,
203 200 202 -1,
204 202 205 -1,
204 203 202 -1,
206 205 207 -1,
206 207 208 -1,
206 204 205 -1,
209 206 208 -1,
210 208 211 -1,
210 211 212 -1,
210 209 208 -1,
213 210 212 -1,
214 212 215 -1,
214 215 216 -1,
214 213 212 -1,
217 214 216 -1,
218 216 219 -1,
218 217 216 -1,
220 219 221 -1,
220 218 219 -1,
222 221 223 -1,
222 220 221 -1,
224 222 223 -1,
224 223 225 -1,
226 224 225 -1,
226 225 227 -1,
228 226 227 -1,
228 227 229 -1,
228 229 230 -1,
231 228 230 -1,
231 230 232 -1,
233 231 232 -1,
234 233 232 -1,
234 232 235 -1,
236 234 235 -1,
236 235 237 -1,
236 237 238 -1,
239 236 238 -1,
240 239 238 -1,
240 238 241 -1,
242 240 241 -1,
242 241 243 -1,
244 242 243 -1,
244 243 245 -1,
244 245 246 -1,
247 244 246 -1,
248 246 249 -1,
248 247 246 -1,
250 249 251 -1,
250 248 249 -1,
1 251 2 -1,
1 250 251 -1,
162 154 157 -1,
162 157 158 -1,
162 158 160 -1,
166 162 165 -1,
148 151 152 -1,
148 152 154 -1,
172 166 169 -1,
172 169 170 -1,
143 144 146 -1,
143 146 148 -1,
136 139 140 -1,
180 172 174 -1,
180 174 177 -1,
180 177 178 -1,
132 135 136 -1,
132 140 143 -1,
132 136 140 -1,
187 182 185 -1,
128 130 132 -1,
189 182 187 -1,
124 126 128 -1,
194 190 192 -1,
196 190 194 -1,
116 118 120 -1,
116 120 122 -1,
116 122 124 -1,
200 189 190 -1,
200 190 196 -1,
200 196 198 -1,
114 116 124 -1,
206 200 203 -1,
206 203 204 -1,
206 189 200 -1,
109 110 112 -1,
106 109 112 -1,
106 112 114 -1,
210 206 209 -1,
104 106 114 -1,
102 104 114 -1,
214 210 213 -1,
214 206 210 -1,
101 102 114 -1,
218 214 217 -1,
218 189 206 -1,
218 206 214 -1,
218 182 189 -1,
218 180 182 -1,
94 97 98 -1,
222 218 220 -1,
224 218 222 -1,
91 93 94 -1,
228 224 226 -1,
231 224 228 -1,
85 87 88 -1,
85 88 91 -1,
85 98 101 -1,
85 91 94 -1,
85 94 98 -1,
233 224 231 -1,
234 218 224 -1,
234 224 233 -1,
236 218 234 -1,
79 80 82 -1,
239 218 236 -1,
240 218 239 -1,
74 77 79 -1,
242 218 240 -1,
72 74 79 -1,
72 79 82 -1,
70 82 85 -1,
70 72 82 -1,
247 242 244 -1,
68 70 85 -1,
250 247 248 -1,
65 67 68 -1,
1 247 250 -1,
0 247 1 -1,
0 180 218 -1,
0 166 172 -1,
0 172 180 -1,
0 218 242 -1,
0 242 247 -1,
6 0 4 -1,
56 59 60 -1,
56 60 62 -1,
56 62 65 -1,
10 6 9 -1,
10 0 6 -1,
50 52 54 -1,
50 56 65 -1,
50 54 56 -1,
15 10 12 -1,
15 0 10 -1,
46 48 50 -1,
41 42 45 -1,
41 45 46 -1,
25 15 16 -1,
25 16 18 -1,
25 18 21 -1,
25 21 23 -1,
38 41 46 -1,
26 15 25 -1,
29 0 15 -1,
29 15 26 -1,
34 37 38 -1,
34 46 50 -1,
34 38 46 -1,
32 65 68 -1,
32 68 85 -1,
32 29 30 -1,
32 34 50 -1,
32 50 65 -1,
32 154 162 -1,
32 101 114 -1,
32 148 154 -1,
32 162 166 -1,
32 0 29 -1,
32 85 101 -1,
32 143 148 -1,
32 132 143 -1,
32 114 124 -1,
32 166 0 -1,
32 128 132 -1,
32 124 128 -1,
155 163 156 -1,
156 163 159 -1,
159 163 161 -1,
163 167 164 -1,
150 149 153 -1,
153 149 155 -1,
167 173 168 -1,
168 173 171 -1,
145 142 147 -1,
147 142 149 -1,
138 137 141 -1,
173 181 175 -1,
175 181 176 -1,
176 181 179 -1,
134 133 137 -1,
141 133 142 -1,
137 133 141 -1,
183 186 184 -1,
131 129 133 -1,
183 188 186 -1,
127 125 129 -1,
191 195 193 -1,
191 197 195 -1,
119 117 121 -1,
121 117 123 -1,
123 117 125 -1,
188 201 191 -1,
191 201 197 -1,
197 201 199 -1,
117 115 125 -1,
201 207 202 -1,
202 207 205 -1,
188 207 201 -1,
111 108 113 -1,
108 107 113 -1,
113 107 115 -1,
207 211 208 -1,
107 105 115 -1,
105 103 115 -1,
211 215 212 -1,
207 215 211 -1,
103 100 115 -1,
215 219 216 -1,
188 219 207 -1,
207 219 215 -1,
183 219 188 -1,
181 219 183 -1,
96 95 99 -1,
219 223 221 -1,
219 225 223 -1,
92 90 95 -1,
225 229 227 -1,
225 230 229 -1,
86 84 89 -1,
89 84 90 -1,
99 84 100 -1,
90 84 95 -1,
95 84 99 -1,
225 232 230 -1,
219 235 225 -1,
225 235 232 -1,
219 237 235 -1,
81 78 83 -1,
219 238 237 -1,
219 241 238 -1,
76 75 78 -1,
219 243 241 -1,
75 73 78 -1,
78 73 83 -1,
83 71 84 -1,
73 71 83 -1,
243 246 245 -1,
71 69 84 -1,
246 251 249 -1,
66 64 69 -1,
246 2 251 -1,
246 3 2 -1,
181 3 219 -1,
167 3 173 -1,
173 3 181 -1,
219 3 243 -1,
243 3 246 -1,
3 7 5 -1,
58 57 61 -1,
61 57 63 -1,
63 57 64 -1,
7 11 8 -1,
3 11 7 -1,
53 51 55 -1,
57 51 64 -1,
55 51 57 -1,
11 14 13 -1,
3 14 11 -1,
49 47 51 -1,
43 40 44 -1,
44 40 47 -1,
14 24 17 -1,
17 24 19 -1,
19 24 20 -1,
20 24 22 -1,
40 39 47 -1,
14 27 24 -1,
3 28 14 -1,
14 28 27 -1,
36 35 39 -1,
47 35 51 -1,
39 35 47 -1,
64 33 69 -1,
69 33 84 -1,
28 33 31 -1,
35 33 51 -1,
51 33 64 -1,
155 33 163 -1,
100 33 115 -1,
149 33 155 -1,
163 33 167 -1,
3 33 28 -1,
84 33 100 -1,
142 33 149 -1,
133 33 142 -1,
115 33 125 -1,
167 33 3 -1,
129 33 133 -1,
125 33 129 -1 ] } }
Shape { appearance Appearance { material Material { diffuseColor 0.7 0.72 0.74 } } geometry IndexedFaceSet { solid FALSE coord Coordinate { point [ 1.278426 0.044155 4.547244,
1.279528 -0.000000 4.547244,
1.279528 -0.000000 4.527559,
1.278426 0.044155 4.527559,
1.275126 0.088200 4.547244,
1.275126 0.088200 4.527559,
1.269634 0.132026 4.547244,
1.269634 0.132026 4.527559,
1.261964 0.175523 4.547244,
1.261964 0.175523 4.527559,
1.252135 0.218584 4.547244,
1.252135 0.218584 4.527559,
1.240173 0.261102 4.547244,
1.240173 0.261102 4.527559,
1.226106 0.302971 4.547244,
1.226106 0.302971 4.527559,
1.209969 0.344086 4.547244,
1.209969 0.344086 4.527559,
1.191803 0.384346 4.547244,
1.191803 0.384346 4.527559,
1.171653 0.423650 4.547244,
1.171653 0.423650 4.527559,
1.149569 0.461901 4.547244,
1.149569 0.461901 4.527559,
1.125605 0.499004 4.547244,
1.125605 0.499004 4.527559,
1.099822 0.534866 4.547244,
1.099822 0.534866 4.527559,
1.072283 0.569398 4.547244,
1.072283 0.569398 4.527559,
1.043058 0.602515 4.547244,
1.043058 0.602515 4.527559,
1.012218 0.634134 4.547244,
1.012218 0.634134 4.527559,
0.979840 0.664176 4.547244,
0.979840 0.664176 4.527559,
0.946005 0.692567 4.547244,
0.946005 0.692567 4.527559,
0.910797 0.719236 4.547244,
0.910797 0.719236 4.527559,
0.874303 0.744117 4.527559,
0.874303 0.744117 4.547244,
0.836614 0.767148 4.547244,
0.836614 0.767148 4.527559,
0.797824 0.788272 4.547244,
0.797824 0.788272 4.527559,
0.758030 0.807436 4.547244,
0.758030 0.807436 4.527559,
0.717330 0.824593 4.547244,
0.717330 0.824593 4.527559,
0.675825 0.839699 4.547244,
0.675825 0.839699 4.527559,
0.633619 0.852718 4.547244,
0.633619 0.852718 4.527559,
0.590816 0.863617 4.547244,
0.590816 0.863617 4.527559,
0.547523 0.872369 4.547244,
0.547523 0.872369 4.527559,
0.503848 0.878952 4.547244,
0.503848 0.878952 4.527559,
0.459899 0.883350 4.547244,
0.459899 0.883350 4.527559,
0.415785 0.885551 4.547244,
0.415785 0.885551 4.527559,
0.371617 0.885551 4.527559,
0.371617 0.885551 4.547244,
0.327503 0.883350 4.547244,
0.327503 0.883350 4.527559,
0.283554 0.878952 4.547244,
0.283554 0.878952 4.527559,
0.239879 0.872369 4.547244,
0.239879 0.872369 4.527559,
0.196586 0.863617 4.547244,
0.196586 0.863617 4.527559,
0.153783 0.852718 4.527559,
0.153783 0.852718 4.547244,
0.111577 0.839699 4.527559,
0.111577 0.839699 4.547244,
0.070072 0.824593 4.547244,
0.070072 0.824593 4.527559,
0.029372 0.807436 4.547244,
0.029372 0.807436 4.527559,
-0.010423 0.788272 4.547244,
-0.010423 0.788272 4.527559,
-0.049213 0.767148 4.527559,
-0.049213 0.767148 4.547244,
-0.086901 0.744117 4.547244,
-0.086901 0.744117 4.527559,
-0.123395 0.719236 4.547244,
-0.123395 0.719236 4.527559,
-0.158603 0.692567 4.547244,
-0.158603 0.692567 4.527559,
-0.192438 0.664176 4.547244,
-0.192438 0.664176 4.527559,
-0.224816 0.634134 4.547244,
-0.224816 0.634134 4.527559,
-0.255656 0.602515 4.547244,
-0.255656 0.602515 4.527559,
-0.284882 0.569398 4.547244,
-0.284882 0.569398 4.527559,
-0.312421 0.534866 4.547244,
-0.312421 0.534866 4.527559,
-0.338204 0.499004 4.547244,
-0.338204 0.499004 4.527559,
-0.362167 0.461901 4.547244,
-0.362167 0.461901 4.527559,
-0.384251 0.423650 4.527559,
-0.384251 0.423650 4.547244,
-0.404402 0.384346 4.547244,
-0.404402 0.384346 4.527559,
-0.422568 0.344086 4.527559,
-0.422568 0.344086 4.547244,
-0.438704 0.302971 4.547244,
-0.438704 0.302971 4.527559,
-0.452771 0.261102 4.547244,
-0.452771 0.261102 4.527559,
-0.464734 0.218584 4.547244,
-0.464734 0.218584 4.527559,
-0.474562 0.175523 4.547244,
-0.474562 0.175523 4.527559,
-0.482232 0.132026 4.547244,
-0.482232 0.132026 4.527559,
-0.487724 0.088200 4.527559,
-0.487724 0.088200 4.547244,
-0.491025 0.044155 4.547244,
-0.491025 0.044155 4.527559,
-0.492126 -0.000000 4.527559,
-0.492126 -0.000000 4.547244,
-0.491025 -0.044155 4.547244,
-0.491025 -0.044155 4.527559,
-0.487724 -0.088200 4.547244,
-0.487724 -0.088200 4.527559,
-0.482232 -0.132026 4.547244,
-0.482232 -0.132026 4.527559,
-0.474562 -0.175523 4.527559,
-0.474562 -0.175523 4.547244,
-0.464734 -0.218584 4.547244,
-0.464734 -0.218584 4.527559,
-0.452771 -0.261102 4.527559,
-0.452771 -0.261102 4.547244,
-0.438704 -0.302971 4.547244,
-0.438704 -0.302971 4.527559,
-0.422568 -0.344086 4.547244,
-0.422568 -0.344086 4.527559,
-0.404402 -0.384346 4.547244,
-0.404402 -0.384346 4.527559,
-0.384251 -0.423650 4.527559,
-0.384251 -0.423650 4.547244,
-0.362167 -0.461901 4.547244,
-0.362167 -0.461901 4.527559,
-0.338204 -0.499004 4.527559,
-0.338204 -0.499004 4.547244,
-0.312421 -0.534866 4.547244,
-0.312421 -0.534866 4.527559,
-0.284882 -0.569398 4.527559,
-0.284882 -0.569398 4.547244,
-0.255656 -0.602515 4.547244,
-0.255656 -0.602515 4.527559,
-0.224816 -0.634134 4.547244,
-0.224816 -0.634134 4.527559,
-0.192438 -0.664176 4.547244,
-0.192438 -0.664176 4.527559,
-0.158603 -0.692567 4.547244,
-0.158603 -0.692567 4.527559,
-0.123395 -0.719236 4.547244,
-0.123395 -0.719236 4.527559,
-0.086901 -0.744117 4.547244,
-0.086901 -0.744117 4.527559,
-0.049213 -0.767148 4.547244,
-0.049213 -0.767148 4.527559,
-0.010423 -0.788272 4.547244,
-0.010423 -0.788272 4.527559,
0.029372 -0.807436 4.547244,
0.029372 -0.807436 4.527559,
0.070072 -0.824593 4.547244,
0.070072 -0.824593 4.527559,
0.111577 -0.839699 4.547244,
0.111577 -0.839699 4.527559,
0.153783 -0.852718 4.547244,
0.153783 -0.852718 4.527559,
0.196586 -0.863617 4.547244,
0.196586 -0.863617 4.527559,
0.239879 -0.872369 4.547244,
0.239879 -0.872369 4.527559,
0.283554 -0.878952 4.547244,
0.283554 -0.878952 4.527559,
0.327503 -0.883350 4.547244,
0.327503 -0.883350 4.527559,
0.371617 -0.885551 4.547244,
0.371617 -0.885551 4.527559,
0.415785 -0.885551 4.547244,
0.415785 -0.885551 4.527559,
0.459899 -0.883350 4.547244,
0.459899 -0.883350 4.527559,
0.503848 -0.878952 4.547244,
0.503848 -0.878952 4.527559,
0.547523 -0.872369 4.547244,
0.547523 -0.872369 4.527559,
0.590816 -0.863617 4.547244,
0.590816 -0.863617 4.527559,
0.633619 -0.852718 4.547244,
0.633619 -0.852718 4.527559,
0.675825 -0.839699 4.547244,
0.675825 -0.839699 4.527559,
0.717330 -0.824593 4.547244,
0.717330 -0.824593 4.527559,
0.758030 -0.807436 4.547244,
0.758030 -0.807436 4.527559,
0.797824 -0.788272 4.547244,
0.797824 -0.788272 4.527559,
0.836614 -0.767148 4.547244,
0.836614 -0.767148 4.527559,
0.874303 -0.744117 4.547244,
0.874303 -0.744117 4.527559,
0.910797 -0.719236 4.547244,
0.910797 -0.719236 4.527559,
0.946005 -0.692567 4.547244,
0.946005 -0.692567 4.527559,
0.979840 -0.664176 4.547244,
0.979840 -0.664176 4.527559,
1.012218 -0.634134 4.547244,
1.012218 -0.634134 4.527559,
1.043058 -0.602515 4.547244,
1.043058 -0.602515 4.527559,
1.072283 -0.569398 4.547244,
1.072283 -0.569398 4.527559,
1.099822 -0.534866 4.547244,
1.099822 -0.534866 4.527559,
1.125605 -0.499004 4.547244,
1.125605 -0.499004 4.527559,
1.149569 -0.461901 4.527559,
1.149569 -0.461901 4.547244,
1.171653 -0.423650 4.547244,
1.171653 -0.423650 4.527559,
1.191803 -0.384346 4.547244,
1.191803 -0.384346 4.527559,
1.209969 -0.344086 4.527559,
1.209969 -0.344086 4.547244,
1.226106 -0.302971 4.527559,
1.226106 -0.302971 4.547244,
1.240173 -0.261102 4.547244,
1.240173 -0.261102 4.527559,
1.252135 -0.218584 4.547244,
1.252135 -0.218584 4.527559,
1.261964 -0.175523 4.547244,
1.261964 -0.175523 4.527559,
1.269634 -0.132026 4.547244,
1.269634 -0.132026 4.527559,
1.275126 -0.088200 4.547244,
1.275126 -0.088200 4.527559,
1.278426 -0.044155 4.527559,
1.278426 -0.044155 4.547244 ] } coordIndex [ 0 1 2 -1,
0 2 3 -1,
4 3 5 -1,
4 0 3 -1,
6 5 7 -1,
6 4 5 -1,
8 7 9 -1,
8 6 7 -1,
10 9 11 -1,
10 8 9 -1,
12 11 13 -1,
12 10 11 -1,
14 13 15 -1,
14 12 13 -1,
16 15 17 -1,
16 14 15 -1,
18 17 19 -1,
18 16 17 -1,
20 19 21 -1,
20 18 19 -1,
22 20 21 -1,
22 21 23 -1,
24 22 23 -1,
24 23 25 -1,
26 24 25 -1,
26 25 27 -1,
28 26 27 -1,
28 27 29 -1,
30 28 29 -1,
30 29 31 -1,
32 30 31 -1,
32 31 33 -1,
34 32 33 -1,
34 33 35 -1,
36 34 35 -1,
36 35 37 -1,
38 36 37 -1,
38 37 39 -1,
38 39 40 -1,
41 38 40 -1,
42 41 40 -1,
42 40 43 -1,
44 42 43 -1,
44 43 45 -1,
46 45 47 -1,
46 44 45 -1,
48 47 49 -1,
48 46 47 -1,
50 49 51 -1,
50 48 49 -1,
52 51 53 -1,
52 50 51 -1,
54 53 55 -1,
54 52 53 -1,
56 55 57 -1,
56 54 55 -1,
58 57 59 -1,
58 56 57 -1,
60 59 61 -1,
60 58 59 -1,
62 61 63 -1,
62 63 64 -1,
62 60 61 -1,
65 62 64 -1,
66 64 67 -1,
66 65 64 -1,
68 67 69 -1,
68 66 67 -1,
70 69 71 -1,
70 68 69 -1,
72 71 73 -1,
72 73 74 -1,
72 70 71 -1,
75 72 74 -1,
75 74 76 -1,
77 75 76 -1,
78 77 76 -1,
78 76 79 -1,
80 78 79 -1,
80 79 81 -1,
82 80 81 -1,
82 81 83 -1,
82 83 84 -1,
85 82 84 -1,
86 85 84 -1,
86 84 87 -1,
88 86 87 -1,
88 87 89 -1,
90 88 89 -1,
90 89 91 -1,
92 90 91 -1,
92 91 93 -1,
94 92 93 -1,
94 93 95 -1,
96 94 95 -1,
96 95 97 -1,
98 96 97 -1,
98 97 99 -1,
100 98 99 -1,
100 99 101 -1,
102 100 101 -1,
102 101 103 -1,
104 102 103 -1,
104 103 105 -1,
104 105 106 -1,
107 104 106 -1,
108 107 106 -1,
108 106 109 -1,
108 109 110 -1,
111 108 110 -1,
112 111 110 -1,
112 110 113 -1,
114 112 113 -1,
114 113 115 -1,
116 115 117 -1,
116 114 115 -1,
118 117 119 -1,
118 116 117 -1,
120 119 121 -1,
120 121 122 -1,
120 118 119 -1,
123 120 122 -1,
124 123 122 -1,
124 122 125 -1,
124 125 126 -1,
127 124 126 -1,
128 127 126 -1,
128 126 129 -1,
130 128 129 -1,
130 129 131 -1,
132 130 131 -1,
132 131 133 -1,
132 133 134 -1,
135 132 134 -1,
136 135 134 -1,
136 134 137 -1,
136 137 138 -1,
139 136 138 -1,
140 139 138 -1,
140 138 141 -1,
142 140 141 -1,
142 141 143 -1,
144 142 143 -1,
144 143 145 -1,
144 145 146 -1,
147 144 146 -1,
148 149 150 -1,
148 147 146 -1,
148 146 149 -1,
151 148 150 -1,
152 150 153 -1,
152 153 154 -1,
152 151 150 -1,
155 152 154 -1,
156 154 157 -1,
156 155 154 -1,
158 157 159 -1,
158 156 157 -1,
160 159 161 -1,
160 158 159 -1,
162 161 163 -1,
162 160 161 -1,
164 163 165 -1,
164 162 163 -1,
166 165 167 -1,
166 164 165 -1,
168 167 169 -1,
168 166 167 -1,
170 169 171 -1,
170 168 169 -1,
172 171 173 -1,
172 170 171 -1,
174 173 175 -1,
174 172 173 -1,
176 174 175 -1,
176 175 177 -1,
178 176 177 -1,
178 177 179 -1,
180 178 179 -1,
180 179 181 -1,
182 180 181 -1,
182 181 183 -1,
184 183 185 -1,
184 182 183 -1,
186 185 187 -1,
186 184 185 -1,
188 187 189 -1,
188 186 187 -1,
190 189 191 -1,
190 188 189 -1,
192 191 193 -1,
192 190 191 -1,
194 193 195 -1,
194 192 193 -1,
196 195 197 -1,
196 194 195 -1,
198 197 199 -1,
198 196 197 -1,
200 199 201 -1,
200 198 199 -1,
202 201 203 -1,
202 200 201 -1,
204 203 205 -1,
204 202 203 -1,
206 205 207 -1,
206 204 205 -1,
208 207 209 -1,
208 206 207 -1,
210 209 211 -1,
210 208 209 -1,
212 211 213 -1,
212 210 211 -1,
214 213 215 -1,
214 212 213 -1,
216 215 217 -1,
216 214 215 -1,
218 217 219 -1,
218 216 217 -1,
220 219 221 -1,
220 218 219 -1,
222 221 223 -1,
222 220 221 -1,
224 222 223 -1,
224 223 225 -1,
226 224 225 -1,
226 225 227 -1,
228 226 227 -1,
228 227 229 -1,
228 229 230 -1,
231 228 230 -1,
232 231 230 -1,
232 230 233 -1,
234 232 233 -1,
234 233 235 -1,
234 235 236 -1,
237 234 236 -1,
237 236 238 -1,
239 237 238 -1,
240 239 238 -1,
240 238 241 -1,
242 240 241 -1,
242 241 243 -1,
244 242 243 -1,
244 243 245 -1,
246 244 245 -1,
246 245 247 -1,
248 246 247 -1,
248 247 249 -1,
248 249 250 -1,
251 248 250 -1,
1 250 2 -1,
1 251 250 -1,
166 158 160 -1,
166 160 162 -1,
166 162 164 -1,
170 166 168 -1,
178 172 174 -1,
178 174 176 -1,
182 178 180 -1,
130 132 135 -1,
130 135 136 -1,
130 136 139 -1,
130 139 140 -1,
130 140 142 -1,
130 142 144 -1,
130 144 147 -1,
130 147 148 -1,
188 172 178 -1,
188 178 182 -1,
188 182 184 -1,
188 184 186 -1,
194 190 192 -1,
120 123 124 -1,
120 124 127 -1,
198 190 194 -1,
198 188 190 -1,
198 194 196 -1,
116 118 120 -1,
116 127 128 -1,
116 128 130 -1,
116 148 151 -1,
116 130 148 -1,
116 151 152 -1,
116 152 155 -1,
116 120 127 -1,
114 116 155 -1,
202 198 200 -1,
206 202 204 -1,
108 111 112 -1,
108 112 114 -1,
208 202 206 -1,
208 198 202 -1,
104 108 114 -1,
104 107 108 -1,
212 208 210 -1,
212 198 208 -1,
100 102 104 -1,
218 212 214 -1,
218 214 216 -1,
96 100 104 -1,
96 98 100 -1,
220 212 218 -1,
222 212 220 -1,
224 212 222 -1,
224 198 212 -1,
90 92 94 -1,
90 94 96 -1,
88 90 96 -1,
88 96 104 -1,
231 226 228 -1,
85 86 88 -1,
232 224 226 -1,
232 226 231 -1,
232 198 224 -1,
82 88 104 -1,
82 85 88 -1,
239 232 234 -1,
239 234 237 -1,
239 198 232 -1,
77 78 80 -1,
77 80 82 -1,
72 75 77 -1,
244 240 242 -1,
70 72 77 -1,
68 77 82 -1,
68 82 104 -1,
68 70 77 -1,
251 244 246 -1,
251 246 248 -1,
251 240 244 -1,
65 66 68 -1,
0 251 1 -1,
60 104 114 -1,
60 65 68 -1,
60 62 65 -1,
60 68 104 -1,
4 251 0 -1,
6 251 4 -1,
56 58 60 -1,
54 56 60 -1,
10 6 8 -1,
10 251 6 -1,
10 240 251 -1,
10 239 240 -1,
14 10 12 -1,
48 60 114 -1,
48 114 155 -1,
48 50 52 -1,
48 52 54 -1,
48 54 60 -1,
16 188 198 -1,
16 10 14 -1,
16 239 10 -1,
16 158 166 -1,
16 166 170 -1,
16 172 188 -1,
16 155 156 -1,
16 156 158 -1,
16 170 172 -1,
16 198 239 -1,
18 155 16 -1,
42 44 46 -1,
22 18 20 -1,
38 41 42 -1,
26 22 24 -1,
26 18 22 -1,
36 38 42 -1,
32 26 28 -1,
32 28 30 -1,
32 34 36 -1,
32 46 48 -1,
32 155 18 -1,
32 48 155 -1,
32 18 26 -1,
32 42 46 -1,
32 36 42 -1,
159 167 161 -1,
161 167 163 -1,
163 167 165 -1,
167 171 169 -1,
173 179 175 -1,
175 179 177 -1,
179 183 181 -1,
133 131 134 -1,
134 131 137 -1,
137 131 138 -1,
138 131 141 -1,
141 131 143 -1,
143 131 145 -1,
145 131 146 -1,
146 131 149 -1,
173 189 179 -1,
179 189 183 -1,
183 189 185 -1,
185 189 187 -1,
191 195 193 -1,
122 121 125 -1,
125 121 126 -1,
191 199 195 -1,
189 199 191 -1,
195 199 197 -1,
119 117 121 -1,
126 117 129 -1,
129 117 131 -1,
149 117 150 -1,
131 117 149 -1,
150 117 153 -1,
153 117 154 -1,
121 117 126 -1,
117 115 154 -1,
199 203 201 -1,
203 207 205 -1,
110 109 113 -1,
113 109 115 -1,
203 209 207 -1,
199 209 203 -1,
109 105 115 -1,
106 105 109 -1,
209 213 211 -1,
199 213 209 -1,
103 101 105 -1,
213 219 215 -1,
215 219 217 -1,
101 97 105 -1,
99 97 101 -1,
213 221 219 -1,
213 223 221 -1,
213 225 223 -1,
199 225 213 -1,
93 91 95 -1,
95 91 97 -1,
91 89 97 -1,
97 89 105 -1,
227 230 229 -1,
87 84 89 -1,
225 233 227 -1,
227 233 230 -1,
199 233 225 -1,
89 83 105 -1,
84 83 89 -1,
233 238 235 -1,
235 238 236 -1,
199 238 233 -1,
79 76 81 -1,
81 76 83 -1,
74 73 76 -1,
241 245 243 -1,
73 71 76 -1,
76 69 83 -1,
83 69 105 -1,
71 69 76 -1,
245 250 247 -1,
247 250 249 -1,
241 250 245 -1,
67 64 69 -1,
250 3 2 -1,
105 61 115 -1,
64 61 69 -1,
63 61 64 -1,
69 61 105 -1,
250 5 3 -1,
250 7 5 -1,
59 57 61 -1,
57 55 61 -1,
7 11 9 -1,
250 11 7 -1,
241 11 250 -1,
238 11 241 -1,
11 15 13 -1,
61 49 115 -1,
115 49 154 -1,
51 49 53 -1,
53 49 55 -1,
55 49 61 -1,
189 17 199 -1,
11 17 15 -1,
238 17 11 -1,
159 17 167 -1,
167 17 171 -1,
173 17 189 -1,
154 17 157 -1,
157 17 159 -1,
171 17 173 -1,
199 17 238 -1,
154 19 17 -1,
45 43 47 -1,
19 23 21 -1,
40 39 43 -1,
23 27 25 -1,
19 27 23 -1,
39 37 43 -1,
27 33 29 -1,
29 33 31 -1,
35 33 37 -1,
47 33 49 -1,
154 33 19 -1,
49 33 154 -1,
19 33 27 -1,
43 33 47 -1,
37 33 43 -1 ] } }
Shape { appearance Appearance { material Material { diffuseColor 0.87 0.89 0.88 } } geometry IndexedFaceSet { solid FALSE coord Coordinate { point [ 1.122047 -0.670763 4.488189,
1.122047 -0.670763 0.196850,
1.154419 -0.633814 0.196850,
1.154419 -0.633814 4.488189,
1.184918 -0.595304 0.196850,
1.184918 -0.595304 4.488189,
1.213470 -0.555329 0.196850,
1.213470 -0.555329 4.488189,
1.240004 -0.513988 0.196850,
1.240004 -0.513988 4.488189,
1.264455 -0.471381 0.196850,
1.264455 -0.471381 4.488189,
1.286762 -0.427614 0.196850,
1.286762 -0.427614 4.488189,
1.306871 -0.382794 0.196850,
1.306871 -0.382794 4.488189,
1.324733 -0.337032 0.196850,
1.324733 -0.337032 4.488189,
1.340303 -0.290441 0.196850,
1.340303 -0.290441 4.488189,
1.353543 -0.243134 0.196850,
1.353543 -0.243134 4.488189,
1.364421 -0.195229 0.196850,
1.364421 -0.195229 4.488189,
1.372909 -0.146844 0.196850,
1.372909 -0.146844 4.488189,
1.378987 -0.098097 0.196850,
1.378987 -0.098097 4.488189,
1.382640 -0.049109 0.196850,
1.382640 -0.049109 4.488189,
1.383858 -0.000000 0.196850,
1.383858 -0.000000 4.488189,
1.382640 0.049109 4.488189,
1.382640 0.049109 0.196850,
1.378987 0.098097 4.488189,
1.378987 0.098097 0.196850,
1.372909 0.146844 4.488189,
1.372909 0.146844 0.196850,
1.364421 0.195229 4.488189,
1.364421 0.195229 0.196850,
1.353543 0.243134 4.488189,
1.353543 0.243134 0.196850,
1.340303 0.290441 4.488189,
1.340303 0.290441 0.196850,
1.324733 0.337032 4.488189,
1.324733 0.337032 0.196850,
1.306871 0.382794 4.488189,
1.306871 0.382794 0.196850,
1.286762 0.427614 4.488189,
1.286762 0.427614 0.196850,
1.264455 0.471381 4.488189,
1.264455 0.471381 0.196850,
1.240004 0.513988 4.488189,
1.240004 0.513988 0.196850,
1.213470 0.555329 4.488189,
1.213470 0.555329 0.196850,
1.184918 0.595304 4.488189,
1.184918 0.595304 0.196850,
1.154419 0.633814 4.488189,
1.154419 0.633814 0.196850,
1.122047 0.670763 4.488189,
1.122047 0.670763 0.196850 ] } coordIndex [ 0 1 2 -1,
3 2 4 -1,
3 0 2 -1,
5 4 6 -1,
5 3 4 -1,
7 6 8 -1,
7 5 6 -1,
9 8 10 -1,
9 7 8 -1,
11 10 12 -1,
11 9 10 -1,
13 12 14 -1,
13 11 12 -1,
15 14 16 -1,
15 13 14 -1,
17 16 18 -1,
17 15 16 -1,
19 18 20 -1,
19 17 18 -1,
21 20 22 -1,
21 19 20 -1,
23 22 24 -1,
23 21 22 -1,
25 24 26 -1,
25 23 24 -1,
27 26 28 -1,
27 25 26 -1,
29 28 30 -1,
29 27 28 -1,
31 29 30 -1,
32 31 30 -1,
32 30 33 -1,
34 33 35 -1,
34 32 33 -1,
36 35 37 -1,
36 34 35 -1,
38 37 39 -1,
38 36 37 -1,
40 39 41 -1,
40 38 39 -1,
42 41 43 -1,
42 40 41 -1,
44 43 45 -1,
44 42 43 -1,
46 45 47 -1,
46 44 45 -1,
48 47 49 -1,
48 46 47 -1,
50 49 51 -1,
50 48 49 -1,
52 51 53 -1,
52 50 51 -1,
54 53 55 -1,
54 52 53 -1,
56 55 57 -1,
56 54 55 -1,
58 57 59 -1,
58 56 57 -1,
60 59 61 -1,
60 58 59 -1,
4 8 6 -1,
4 10 8 -1,
2 16 4 -1,
10 16 12 -1,
12 16 14 -1,
4 16 10 -1,
18 24 20 -1,
20 24 22 -1,
24 30 26 -1,
26 30 28 -1,
24 33 30 -1,
33 39 35 -1,
35 39 37 -1,
33 41 39 -1,
41 45 43 -1,
33 45 41 -1,
45 49 47 -1,
49 53 51 -1,
16 55 18 -1,
18 55 24 -1,
24 55 33 -1,
45 55 49 -1,
49 55 53 -1,
33 55 45 -1,
55 59 57 -1,
2 59 16 -1,
16 59 55 -1,
1 61 2 -1,
2 61 59 -1,
1 0 61 -1,
61 0 60 -1,
5 0 3 -1,
11 5 7 -1,
11 7 9 -1,
23 19 21 -1,
29 25 27 -1,
34 23 25 -1,
34 29 31 -1,
34 31 32 -1,
34 25 29 -1,
38 34 36 -1,
40 34 38 -1,
42 17 19 -1,
42 19 23 -1,
42 23 34 -1,
42 34 40 -1,
46 42 44 -1,
50 46 48 -1,
50 42 46 -1,
54 50 52 -1,
56 50 54 -1,
58 50 56 -1,
60 11 13 -1,
60 13 15 -1,
60 15 17 -1,
60 0 5 -1,
60 5 11 -1,
60 17 42 -1,
60 42 50 -1,
60 50 58 -1 ] } }
Shape { appearance Appearance { material Material { diffuseColor 0.7 0.72 0.74 } } geometry IndexedFaceSet { solid FALSE coord Coordinate { point [ 0.098303 0.004906 0.236220,
0.098425 -0.000000 0.236220,
0.098425 -0.000000 -0.984252,
0.098303 0.004906 -0.984252,
0.097936 0.009800 0.236220,
0.097936 0.009800 -0.984252,
0.097326 0.014670 0.236220,
0.097326 0.014670 -0.984252,
0.096474 0.019503 0.236220,
0.096474 0.019503 -0.984252,
0.095382 0.024287 -0.984252,
0.095382 0.024287 0.236220,
0.094052 0.029011 0.236220,
0.094052 0.029011 -0.984252,
0.092489 0.033663 0.236220,
0.092489 0.033663 -0.984252,
0.090696 0.038232 0.236220,
0.090696 0.038232 -0.984252,
0.088678 0.042705 -0.984252,
0.088678 0.042705 0.236220,
0.086439 0.047072 0.236220,
0.086439 0.047072 -0.984252,
0.083985 0.051322 0.236220,
0.083985 0.051322 -0.984252,
0.081323 0.055445 -0.984252,
0.081323 0.055445 0.236220,
0.078458 0.059430 -0.984252,
0.078458 0.059430 0.236220,
0.075398 0.063266 0.236220,
0.075398 0.063266 -0.984252,
0.072151 0.066946 -0.984252,
0.072151 0.066946 0.236220,
0.068724 0.070459 -0.984252,
0.068724 0.070459 0.236220,
0.065127 0.073797 0.236220,
0.065127 0.073797 -0.984252,
0.061367 0.076952 0.236220,
0.061367 0.076952 -0.984252,
0.057455 0.079915 0.236220,
0.057455 0.079915 -0.984252,
0.053400 0.082680 -0.984252,
0.053400 0.082680 0.236220,
0.049213 0.085239 0.236220,
0.049213 0.085239 -0.984252,
0.044903 0.087586 -0.984252,
0.044903 0.087586 0.236220,
0.040481 0.089715 -0.984252,
0.040481 0.089715 0.236220,
0.035959 0.091621 0.236220,
0.035959 0.091621 -0.984252,
0.031347 0.093300 0.236220,
0.031347 0.093300 -0.984252,
0.026658 0.094746 -0.984252,
0.026658 0.094746 0.236220,
0.021902 0.095957 -0.984252,
0.021902 0.095957 0.236220,
0.017091 0.096930 0.236220,
0.017091 0.096930 -0.984252,
0.012239 0.097661 -0.984252,
0.012239 0.097661 0.236220,
0.007355 0.098150 -0.984252,
0.007355 0.098150 0.236220,
0.002454 0.098395 0.236220,
0.002454 0.098395 -0.984252,
-0.002454 0.098395 0.236220,
-0.002454 0.098395 -0.984252,
-0.007355 0.098150 0.236220,
-0.007355 0.098150 -0.984252,
-0.012239 0.097661 0.236220,
-0.012239 0.097661 -0.984252,
-0.017091 0.096930 0.236220,
-0.017091 0.096930 -0.984252,
-0.021902 0.095957 0.236220,
-0.021902 0.095957 -0.984252,
-0.026658 0.094746 0.236220,
-0.026658 0.094746 -0.984252,
-0.031347 0.093300 0.236220,
-0.031347 0.093300 -0.984252,
-0.035959 0.091621 0.236220,
-0.035959 0.091621 -0.984252,
-0.040481 0.089715 0.236220,
-0.040481 0.089715 -0.984252,
-0.044903 0.087586 0.236220,
-0.044903 0.087586 -0.984252,
-0.049213 0.085239 0.236220,
-0.049213 0.085239 -0.984252,
-0.053400 0.082680 0.236220,
-0.053400 0.082680 -0.984252,
-0.057455 0.079915 0.236220,
-0.057455 0.079915 -0.984252,
-0.061367 0.076952 -0.984252,
-0.061367 0.076952 0.236220,
-0.065127 0.073797 -0.984252,
-0.065127 0.073797 0.236220,
-0.068724 0.070459 0.236220,
-0.068724 0.070459 -0.984252,
-0.072151 0.066946 -0.984252,
-0.072151 0.066946 0.236220,
-0.075398 0.063266 0.236220,
-0.075398 0.063266 -0.984252,
-0.078458 0.059430 -0.984252,
-0.078458 0.059430 0.236220,
-0.081323 0.055445 0.236220,
-0.081323 0.055445 -0.984252,
-0.083985 0.051322 0.236220,
-0.083985 0.051322 -0.984252,
-0.086439 0.047072 -0.984252,
-0.086439 0.047072 0.236220,
-0.088678 0.042705 0.236220,
-0.088678 0.042705 -0.984252,
-0.090696 0.038232 -0.984252,
-0.090696 0.038232 0.236220,
-0.092489 0.033663 0.236220,
-0.092489 0.033663 -0.984252,
-0.094052 0.029011 0.236220,
-0.094052 0.029011 -0.984252,
-0.095382 0.024287 0.236220,
-0.095382 0.024287 -0.984252,
-0.096474 0.019503 0.236220,
-0.096474 0.019503 -0.984252,
-0.097326 0.014670 0.236220,
-0.097326 0.014670 -0.984252,
-0.097936 0.009800 0.236220,
-0.097936 0.009800 -0.984252,
-0.098303 0.004906 0.236220,
-0.098303 0.004906 -0.984252,
-0.098425 -0.000000 0.236220,
-0.098425 -0.000000 -0.984252,
-0.098303 -0.004906 0.236220,
-0.098303 -0.004906 -0.984252,
-0.097936 -0.009800 0.236220,
-0.097936 -0.009800 -0.984252,
-0.097326 -0.014670 0.236220,
-0.097326 -0.014670 -0.984252,
-0.096474 -0.019503 0.236220,
-0.096474 -0.019503 -0.984252,
-0.095382 -0.024287 0.236220,
-0.095382 -0.024287 -0.984252,
-0.094052 -0.029011 0.236220,
-0.094052 -0.029011 -0.984252,
-0.092489 -0.033663 0.236220,
-0.092489 -0.033663 -0.984252,
-0.090696 -0.038232 0.236220,
-0.090696 -0.038232 -0.984252,
-0.088678 -0.042705 0.236220,
-0.088678 -0.042705 -0.984252,
-0.086439 -0.047072 0.236220,
-0.086439 -0.047072 -0.984252,
-0.083985 -0.051322 0.236220,
-0.083985 -0.051322 -0.984252,
-0.081323 -0.055445 0.236220,
-0.081323 -0.055445 -0.984252,
-0.078458 -0.059430 0.236220,
-0.078458 -0.059430 -0.984252,
-0.075398 -0.063266 -0.984252,
-0.075398 -0.063266 0.236220,
-0.072151 -0.066946 0.236220,
-0.072151 -0.066946 -0.984252,
-0.068724 -0.070459 0.236220,
-0.068724 -0.070459 -0.984252,
-0.065127 -0.073797 0.236220,
-0.065127 -0.073797 -0.984252,
-0.061367 -0.076952 -0.984252,
-0.061367 -0.076952 0.236220,
-0.057455 -0.079915 0.236220,
-0.057455 -0.079915 -0.984252,
-0.053400 -0.082680 0.236220,
-0.053400 -0.082680 -0.984252,
-0.049213 -0.085239 0.236220,
-0.049213 -0.085239 -0.984252,
-0.044903 -0.087586 0.236220,
-0.044903 -0.087586 -0.984252,
-0.040481 -0.089715 0.236220,
-0.040481 -0.089715 -0.984252,
-0.035959 -0.091621 0.236220,
-0.035959 -0.091621 -0.984252,
-0.031347 -0.093300 0.236220,
-0.031347 -0.093300 -0.984252,
-0.026658 -0.094746 0.236220,
-0.026658 -0.094746 -0.984252,
-0.021902 -0.095957 0.236220,
-0.021902 -0.095957 -0.984252,
-0.017091 -0.096930 0.236220,
-0.017091 -0.096930 -0.984252,
-0.012239 -0.097661 0.236220,
-0.012239 -0.097661 -0.984252,
-0.007355 -0.098150 0.236220,
-0.007355 -0.098150 -0.984252,
-0.002454 -0.098395 0.236220,
-0.002454 -0.098395 -0.984252,
0.002454 -0.098395 -0.984252,
0.002454 -0.098395 0.236220,
0.007355 -0.098150 0.236220,
0.007355 -0.098150 -0.984252,
0.012239 -0.097661 0.236220,
0.012239 -0.097661 -0.984252,
0.017091 -0.096930 0.236220,
0.017091 -0.096930 -0.984252,
0.021902 -0.095957 -0.984252,
0.021902 -0.095957 0.236220,
0.026658 -0.094746 0.236220,
0.026658 -0.094746 -0.984252,
0.031347 -0.093300 -0.984252,
0.031347 -0.093300 0.236220,
0.035959 -0.091621 0.236220,
0.035959 -0.091621 -0.984252,
0.040481 -0.089715 0.236220,
0.040481 -0.089715 -0.984252,
0.044903 -0.087586 0.236220,
0.044903 -0.087586 -0.984252,
0.049213 -0.085239 0.236220,
0.049213 -0.085239 -0.984252,
0.053400 -0.082680 -0.984252,
0.053400 -0.082680 0.236220,
0.057455 -0.079915 -0.984252,
0.057455 -0.079915 0.236220,
0.061367 -0.076952 0.236220,
0.061367 -0.076952 -0.984252,
0.065127 -0.073797 -0.984252,
0.065127 -0.073797 0.236220,
0.068724 -0.070459 0.236220,
0.068724 -0.070459 -0.984252,
0.072151 -0.066946 -0.984252,
0.072151 -0.066946 0.236220,
0.075398 -0.063266 0.236220,
0.075398 -0.063266 -0.984252,
0.078458 -0.059430 0.236220,
0.078458 -0.059430 -0.984252,
0.081323 -0.055445 -0.984252,
0.081323 -0.055445 0.236220,
0.083985 -0.051322 0.236220,
0.083985 -0.051322 -0.984252,
0.086439 -0.047072 0.236220,
0.086439 -0.047072 -0.984252,
0.088678 -0.042705 0.236220,
0.088678 -0.042705 -0.984252,
0.090696 -0.038232 -0.984252,
0.090696 -0.038232 0.236220,
0.092489 -0.033663 0.236220,
0.092489 -0.033663 -0.984252,
0.094052 -0.029011 0.236220,
0.094052 -0.029011 -0.984252,
0.095382 -0.024287 0.236220,
0.095382 -0.024287 -0.984252,
0.096474 -0.019503 0.236220,
0.096474 -0.019503 -0.984252,
0.097326 -0.014670 0.236220,
0.097326 -0.014670 -0.984252,
0.097936 -0.009800 -0.984252,
0.097936 -0.009800 0.236220,
0.098303 -0.004906 0.236220,
0.098303 -0.004906 -0.984252 ] } coordIndex [ 0 1 2 -1,
0 2 3 -1,
4 3 5 -1,
4 0 3 -1,
6 5 7 -1,
6 4 5 -1,
8 7 9 -1,
8 9 10 -1,
8 6 7 -1,
11 8 10 -1,
12 10 13 -1,
12 11 10 -1,
14 13 15 -1,
14 12 13 -1,
16 15 17 -1,
16 17 18 -1,
16 14 15 -1,
19 16 18 -1,
20 18 21 -1,
20 19 18 -1,
22 20 21 -1,
22 21 23 -1,
22 23 24 -1,
25 22 24 -1,
25 24 26 -1,
27 25 26 -1,
28 27 26 -1,
28 26 29 -1,
28 29 30 -1,
31 28 30 -1,
31 30 32 -1,
33 31 32 -1,
34 33 32 -1,
34 32 35 -1,
36 34 35 -1,
36 35 37 -1,
38 36 37 -1,
38 37 39 -1,
38 39 40 -1,
41 38 40 -1,
42 41 40 -1,
42 40 43 -1,
42 43 44 -1,
45 42 44 -1,
45 44 46 -1,
47 45 46 -1,
48 46 49 -1,
48 47 46 -1,
50 49 51 -1,
50 51 52 -1,
50 48 49 -1,
53 52 54 -1,
53 50 52 -1,
55 53 54 -1,
56 54 57 -1,
56 57 58 -1,
56 55 54 -1,
59 58 60 -1,
59 56 58 -1,
61 59 60 -1,
62 60 63 -1,
62 61 60 -1,
64 63 65 -1,
64 62 63 -1,
66 65 67 -1,
66 64 65 -1,
68 67 69 -1,
68 66 67 -1,
70 69 71 -1,
70 68 69 -1,
72 71 73 -1,
72 70 71 -1,
74 72 73 -1,
74 73 75 -1,
76 74 75 -1,
76 75 77 -1,
78 76 77 -1,
78 77 79 -1,
80 78 79 -1,
80 79 81 -1,
82 80 81 -1,
82 81 83 -1,
84 82 83 -1,
84 83 85 -1,
86 84 85 -1,
86 85 87 -1,
88 86 87 -1,
88 87 89 -1,
88 89 90 -1,
91 88 90 -1,
91 90 92 -1,
93 91 92 -1,
94 93 92 -1,
94 92 95 -1,
94 95 96 -1,
97 94 96 -1,
98 97 96 -1,
98 96 99 -1,
98 99 100 -1,
101 98 100 -1,
102 101 100 -1,
102 100 103 -1,
104 102 103 -1,
104 103 105 -1,
104 105 106 -1,
107 104 106 -1,
108 107 106 -1,
108 106 109 -1,
108 109 110 -1,
111 108 110 -1,
112 111 110 -1,
112 110 113 -1,
114 112 113 -1,
114 113 115 -1,
116 115 117 -1,
116 114 115 -1,
118 117 119 -1,
118 116 117 -1,
120 119 121 -1,
120 118 119 -1,
122 121 123 -1,
122 120 121 -1,
124 122 123 -1,
124 123 125 -1,
126 124 125 -1,
126 125 127 -1,
128 126 127 -1,
128 127 129 -1,
130 128 129 -1,
130 129 131 -1,
132 130 131 -1,
132 131 133 -1,
134 132 133 -1,
134 133 135 -1,
136 134 135 -1,
136 135 137 -1,
138 136 137 -1,
138 137 139 -1,
140 138 139 -1,
140 139 141 -1,
142 140 141 -1,
142 141 143 -1,
144 142 143 -1,
144 143 145 -1,
146 144 145 -1,
146 145 147 -1,
148 146 147 -1,
148 147 149 -1,
150 149 151 -1,
150 148 149 -1,
152 151 153 -1,
152 153 154 -1,
152 150 151 -1,
155 152 154 -1,
156 154 157 -1,
156 155 154 -1,
158 157 159 -1,
158 156 157 -1,
160 159 161 -1,
160 161 162 -1,
160 158 159 -1,
163 160 162 -1,
164 162 165 -1,
164 163 162 -1,
166 165 167 -1,
166 164 165 -1,
168 167 169 -1,
168 166 167 -1,
170 169 171 -1,
170 168 169 -1,
172 171 173 -1,
172 170 171 -1,
174 173 175 -1,
174 172 173 -1,
176 174 175 -1,
176 175 177 -1,
178 176 177 -1,
178 177 179 -1,
180 178 179 -1,
180 179 181 -1,
182 180 181 -1,
182 181 183 -1,
184 183 185 -1,
184 182 183 -1,
186 185 187 -1,
186 184 185 -1,
188 187 189 -1,
188 189 190 -1,
188 186 187 -1,
191 188 190 -1,
192 190 193 -1,
192 191 190 -1,
194 193 195 -1,
194 192 193 -1,
196 195 197 -1,
196 197 198 -1,
196 194 195 -1,
199 196 198 -1,
200 198 201 -1,
200 201 202 -1,
200 199 198 -1,
203 200 202 -1,
204 202 205 -1,
204 203 202 -1,
206 205 207 -1,
206 204 205 -1,
208 207 209 -1,
208 206 207 -1,
210 209 211 -1,
210 211 212 -1,
210 208 209 -1,
213 212 214 -1,
213 210 212 -1,
215 213 214 -1,
216 214 217 -1,
216 217 218 -1,
216 215 214 -1,
219 216 218 -1,
220 218 221 -1,
220 221 222 -1,
220 219 218 -1,
223 220 222 -1,
224 223 222 -1,
224 222 225 -1,
226 224 225 -1,
226 225 227 -1,
226 227 228 -1,
229 226 228 -1,
230 229 228 -1,
230 228 231 -1,
232 230 231 -1,
232 231 233 -1,
234 232 233 -1,
234 233 235 -1,
234 235 236 -1,
237 234 236 -1,
238 237 236 -1,
238 236 239 -1,
240 238 239 -1,
240 239 241 -1,
242 240 241 -1,
242 241 243 -1,
244 242 243 -1,
244 243 245 -1,
246 244 245 -1,
246 245 247 -1,
246 247 248 -1,
249 246 248 -1,
250 248 251 -1,
250 251 2 -1,
250 249 248 -1,
1 250 2 -1,
208 204 206 -1,
210 204 208 -1,
215 210 213 -1,
216 210 215 -1,
224 216 219 -1,
224 219 220 -1,
224 220 223 -1,
88 91 93 -1,
232 229 230 -1,
80 82 84 -1,
237 232 234 -1,
238 232 237 -1,
242 238 240 -1,
244 232 238 -1,
244 238 242 -1,
249 244 246 -1,
0 249 250 -1,
0 250 1 -1,
53 55 56 -1,
12 8 11 -1,
16 12 14 -1,
47 48 50 -1,
19 6 8 -1,
19 8 12 -1,
19 12 16 -1,
25 20 22 -1,
38 41 42 -1,
38 42 45 -1,
31 25 27 -1,
31 27 28 -1,
33 25 31 -1,
33 200 203 -1,
33 203 204 -1,
33 0 4 -1,
33 4 6 -1,
33 204 210 -1,
33 19 20 -1,
33 224 226 -1,
33 226 229 -1,
33 34 36 -1,
33 36 38 -1,
33 45 47 -1,
33 210 216 -1,
33 50 53 -1,
33 56 59 -1,
33 59 61 -1,
33 61 62 -1,
33 62 64 -1,
33 64 66 -1,
33 66 68 -1,
33 68 70 -1,
33 70 72 -1,
33 72 74 -1,
33 74 76 -1,
33 76 78 -1,
33 78 80 -1,
33 84 86 -1,
33 86 88 -1,
33 38 45 -1,
33 6 19 -1,
33 93 94 -1,
33 94 97 -1,
33 97 98 -1,
33 98 101 -1,
33 101 102 -1,
33 102 104 -1,
33 104 107 -1,
33 107 108 -1,
33 88 93 -1,
33 108 111 -1,
33 111 112 -1,
33 112 114 -1,
33 114 116 -1,
33 216 224 -1,
33 116 118 -1,
33 118 120 -1,
33 120 122 -1,
33 122 124 -1,
33 124 126 -1,
33 126 128 -1,
33 244 249 -1,
33 128 130 -1,
33 130 132 -1,
33 132 134 -1,
33 134 136 -1,
33 229 232 -1,
33 136 138 -1,
33 138 140 -1,
33 140 142 -1,
33 142 144 -1,
33 144 146 -1,
33 80 84 -1,
33 146 148 -1,
33 148 150 -1,
33 150 152 -1,
33 152 155 -1,
33 155 156 -1,
33 156 158 -1,
33 158 160 -1,
33 232 244 -1,
33 160 163 -1,
33 163 164 -1,
33 164 166 -1,
33 47 50 -1,
33 166 168 -1,
33 168 170 -1,
33 170 172 -1,
33 53 56 -1,
33 249 0 -1,
33 172 174 -1,
33 174 176 -1,
33 176 178 -1,
33 178 180 -1,
33 180 182 -1,
33 182 184 -1,
33 184 186 -1,
33 186 188 -1,
33 188 191 -1,
33 20 25 -1,
33 191 192 -1,
33 192 194 -1,
33 194 196 -1,
33 196 199 -1,
33 199 200 -1,
205 209 207 -1,
205 211 209 -1,
211 214 212 -1,
211 217 214 -1,
217 225 218 -1,
218 225 221 -1,
221 225 222 -1,
90 89 92 -1,
228 233 231 -1,
83 81 85 -1,
233 236 235 -1,
233 239 236 -1,
239 243 241 -1,
233 245 239 -1,
239 245 243 -1,
245 248 247 -1,
248 3 251 -1,
251 3 2 -1,
54 52 57 -1,
9 13 10 -1,
13 17 15 -1,
49 46 51 -1,
7 18 9 -1,
9 18 13 -1,
13 18 17 -1,
21 24 23 -1,
40 39 43 -1,
43 39 44 -1,
24 30 26 -1,
26 30 29 -1,
24 32 30 -1,
201 32 202 -1,
202 32 205 -1,
3 32 5 -1,
5 32 7 -1,
205 32 211 -1,
18 32 21 -1,
225 32 227 -1,
227 32 228 -1,
35 32 37 -1,
37 32 39 -1,
44 32 46 -1,
211 32 217 -1,
51 32 52 -1,
57 32 58 -1,
58 32 60 -1,
60 32 63 -1,
63 32 65 -1,
65 32 67 -1,
67 32 69 -1,
69 32 71 -1,
71 32 73 -1,
73 32 75 -1,
75 32 77 -1,
77 32 79 -1,
79 32 81 -1,
85 32 87 -1,
87 32 89 -1,
39 32 44 -1,
7 32 18 -1,
92 32 95 -1,
95 32 96 -1,
96 32 99 -1,
99 32 100 -1,
100 32 103 -1,
103 32 105 -1,
105 32 106 -1,
106 32 109 -1,
89 32 92 -1,
109 32 110 -1,
110 32 113 -1,
113 32 115 -1,
115 32 117 -1,
217 32 225 -1,
117 32 119 -1,
119 32 121 -1,
121 32 123 -1,
123 32 125 -1,
125 32 127 -1,
127 32 129 -1,
245 32 248 -1,
129 32 131 -1,
131 32 133 -1,
133 32 135 -1,
135 32 137 -1,
228 32 233 -1,
137 32 139 -1,
139 32 141 -1,
141 32 143 -1,
143 32 145 -1,
145 32 147 -1,
81 32 85 -1,
147 32 149 -1,
149 32 151 -1,
151 32 153 -1,
153 32 154 -1,
154 32 157 -1,
157 32 159 -1,
159 32 161 -1,
233 32 245 -1,
161 32 162 -1,
162 32 165 -1,
165 32 167 -1,
46 32 51 -1,
167 32 169 -1,
169 32 171 -1,
171 32 173 -1,
52 32 57 -1,
248 32 3 -1,
173 32 175 -1,
175 32 177 -1,
177 32 179 -1,
179 32 181 -1,
181 32 183 -1,
183 32 185 -1,
185 32 187 -1,
187 32 189 -1,
189 32 190 -1,
21 32 24 -1,
190 32 193 -1,
193 32 195 -1,
195 32 197 -1,
197 32 198 -1,
198 32 201 -1 ] } }
Shape { appearance Appearance { material Material { diffuseColor 0.7 0.72 0.74 } } geometry IndexedFaceSet { solid FALSE coord Coordinate { point [ 0.885704 0.004906 0.236220,
0.885827 -0.000000 0.236220,
0.885827 -0.000000 -0.984252,
0.885704 0.004906 -0.984252,
0.885338 0.009800 0.236220,
0.885338 0.009800 -0.984252,
0.884727 0.014670 0.236220,
0.884727 0.014670 -0.984252,
0.883875 0.019503 0.236220,
0.883875 0.019503 -0.984252,
0.882783 0.024287 -0.984252,
0.882783 0.024287 0.236220,
0.881454 0.029011 0.236220,
0.881454 0.029011 -0.984252,
0.879891 0.033663 0.236220,
0.879891 0.033663 -0.984252,
0.878098 0.038232 0.236220,
0.878098 0.038232 -0.984252,
0.876080 0.042705 -0.984252,
0.876080 0.042705 0.236220,
0.873841 0.047072 0.236220,
0.873841 0.047072 -0.984252,
0.871387 0.051322 0.236220,
0.871387 0.051322 -0.984252,
0.868724 0.055445 -0.984252,
0.868724 0.055445 0.236220,
0.865859 0.059430 -0.984252,
0.865859 0.059430 0.236220,
0.862800 0.063266 0.236220,
0.862800 0.063266 -0.984252,
0.859552 0.066946 -0.984252,
0.859552 0.066946 0.236220,
0.856126 0.070459 -0.984252,
0.856126 0.070459 0.236220,
0.852528 0.073797 0.236220,
0.852528 0.073797 -0.984252,
0.848769 0.076952 0.236220,
0.848769 0.076952 -0.984252,
0.844857 0.079915 0.236220,
0.844857 0.079915 -0.984252,
0.840802 0.082680 -0.984252,
0.840802 0.082680 0.236220,
0.836614 0.085239 0.236220,
0.836614 0.085239 -0.984252,
0.832304 0.087586 -0.984252,
0.832304 0.087586 0.236220,
0.827883 0.089715 -0.984252,
0.827883 0.089715 0.236220,
0.823360 0.091621 0.236220,
0.823360 0.091621 -0.984252,
0.818749 0.093300 0.236220,
0.818749 0.093300 -0.984252,
0.814059 0.094746 -0.984252,
0.814059 0.094746 0.236220,
0.809303 0.095957 -0.984252,
0.809303 0.095957 0.236220,
0.804493 0.096930 0.236220,
0.804493 0.096930 -0.984252,
0.799640 0.097661 -0.984252,
0.799640 0.097661 0.236220,
0.794757 0.098150 -0.984252,
0.794757 0.098150 0.236220,
0.789855 0.098395 0.236220,
0.789855 0.098395 -0.984252,
0.784948 0.098395 0.236220,
0.784948 0.098395 -0.984252,
0.780046 0.098150 0.236220,
0.780046 0.098150 -0.984252,
0.775163 0.097661 0.236220,
0.775163 0.097661 -0.984252,
0.770310 0.096930 0.236220,
0.770310 0.096930 -0.984252,
0.765500 0.095957 0.236220,
0.765500 0.095957 -0.984252,
0.760744 0.094746 0.236220,
0.760744 0.094746 -0.984252,
0.756054 0.093300 0.236220,
0.756054 0.093300 -0.984252,
0.751443 0.091621 0.236220,
0.751443 0.091621 -0.984252,
0.746921 0.089715 0.236220,
0.746921 0.089715 -0.984252,
0.742499 0.087586 0.236220,
0.742499 0.087586 -0.984252,
0.738189 0.085239 0.236220,
0.738189 0.085239 -0.984252,
0.734001 0.082680 0.236220,
0.734001 0.082680 -0.984252,
0.729946 0.079915 0.236220,
0.729946 0.079915 -0.984252,
0.726034 0.076952 -0.984252,
0.726034 0.076952 0.236220,
0.722275 0.073797 -0.984252,
0.722275 0.073797 0.236220,
0.718677 0.070459 0.236220,
0.718677 0.070459 -0.984252,
0.715251 0.066946 -0.984252,
0.715251 0.066946 0.236220,
0.712003 0.063266 0.236220,
0.712003 0.063266 -0.984252,
0.708944 0.059430 -0.984252,
0.708944 0.059430 0.236220,
0.706079 0.055445 0.236220,
0.706079 0.055445 -0.984252,
0.703416 0.051322 0.236220,
0.703416 0.051322 -0.984252,
0.700962 0.047072 -0.984252,
0.700962 0.047072 0.236220,
0.698724 0.042705 0.236220,
0.698724 0.042705 -0.984252,
0.696705 0.038232 -0.984252,
0.696705 0.038232 0.236220,
0.694912 0.033663 0.236220,
0.694912 0.033663 -0.984252,
0.693349 0.029011 0.236220,
0.693349 0.029011 -0.984252,
0.692020 0.024287 0.236220,
0.692020 0.024287 -0.984252,
0.690928 0.019503 0.236220,
0.690928 0.019503 -0.984252,
0.690076 0.014670 0.236220,
0.690076 0.014670 -0.984252,
0.689465 0.009800 0.236220,
0.689465 0.009800 -0.984252,
0.689099 0.004906 0.236220,
0.689099 0.004906 -0.984252,
0.688976 -0.000000 0.236220,
0.688976 -0.000000 -0.984252,
0.689099 -0.004906 0.236220,
0.689099 -0.004906 -0.984252,
0.689465 -0.009800 0.236220,
0.689465 -0.009800 -0.984252,
0.690076 -0.014670 0.236220,
0.690076 -0.014670 -0.984252,
0.690928 -0.019503 0.236220,
0.690928 -0.019503 -0.984252,
0.692020 -0.024287 0.236220,
0.692020 -0.024287 -0.984252,
0.693349 -0.029011 0.236220,
0.693349 -0.029011 -0.984252,
0.694912 -0.033663 0.236220,
0.694912 -0.033663 -0.984252,
0.696705 -0.038232 0.236220,
0.696705 -0.038232 -0.984252,
0.698724 -0.042705 0.236220,
0.698724 -0.042705 -0.984252,
0.700962 -0.047072 0.236220,
0.700962 -0.047072 -0.984252,
0.703416 -0.051322 0.236220,
0.703416 -0.051322 -0.984252,
0.706079 -0.055445 0.236220,
0.706079 -0.055445 -0.984252,
0.708944 -0.059430 0.236220,
0.708944 -0.059430 -0.984252,
0.712003 -0.063266 -0.984252,
0.712003 -0.063266 0.236220,
0.715251 -0.066946 0.236220,
0.715251 -0.066946 -0.984252,
0.718677 -0.070459 0.236220,
0.718677 -0.070459 -0.984252,
0.722275 -0.073797 0.236220,
0.722275 -0.073797 -0.984252,
0.726034 -0.076952 -0.984252,
0.726034 -0.076952 0.236220,
0.729946 -0.079915 0.236220,
0.729946 -0.079915 -0.984252,
0.734001 -0.082680 0.236220,
0.734001 -0.082680 -0.984252,
0.738189 -0.085239 0.236220,
0.738189 -0.085239 -0.984252,
0.742499 -0.087586 0.236220,
0.742499 -0.087586 -0.984252,
0.746921 -0.089715 0.236220,
0.746921 -0.089715 -0.984252,
0.751443 -0.091621 0.236220,
0.751443 -0.091621 -0.984252,
0.756054 -0.093300 0.236220,
0.756054 -0.093300 -0.984252,
0.760744 -0.094746 0.236220,
0.760744 -0.094746 -0.984252,
0.765500 -0.095957 0.236220,
0.765500 -0.095957 -0.984252,
0.770310 -0.096930 0.236220,
0.770310 -0.096930 -0.984252,
0.775163 -0.097661 0.236220,
0.775163 -0.097661 -0.984252,
0.780046 -0.098150 0.236220,
0.780046 -0.098150 -0.984252,
0.784948 -0.098395 0.236220,
0.784948 -0.098395 -0.984252,
0.789855 -0.098395 -0.984252,
0.789855 -0.098395 0.236220,
0.794757 -0.098150 0.236220,
0.794757 -0.098150 -0.984252,
0.799640 -0.097661 0.236220,
0.799640 -0.097661 -0.984252,
0.804493 -0.096930 0.236220,
0.804493 -0.096930 -0.984252,
0.809303 -0.095957 -0.984252,
0.809303 -0.095957 0.236220,
0.814059 -0.094746 0.236220,
0.814059 -0.094746 -0.984252,
0.818749 -0.093300 -0.984252,
0.818749 -0.093300 0.236220,
0.823360 -0.091621 0.236220,
0.823360 -0.091621 -0.984252,
0.827883 -0.089715 0.236220,
0.827883 -0.089715 -0.984252,
0.832304 -0.087586 0.236220,
0.832304 -0.087586 -0.984252,
0.836614 -0.085239 0.236220,
0.836614 -0.085239 -0.984252,
0.840802 -0.082680 -0.984252,
0.840802 -0.082680 0.236220,
0.844857 -0.079915 -0.984252,
0.844857 -0.079915 0.236220,
0.848769 -0.076952 0.236220,
0.848769 -0.076952 -0.984252,
0.852528 -0.073797 -0.984252,
0.852528 -0.073797 0.236220,
0.856126 -0.070459 0.236220,
0.856126 -0.070459 -0.984252,
0.859552 -0.066946 -0.984252,
0.859552 -0.066946 0.236220,
0.862800 -0.063266 0.236220,
0.862800 -0.063266 -0.984252,
0.865859 -0.059430 0.236220,
0.865859 -0.059430 -0.984252,
0.868724 -0.055445 -0.984252,
0.868724 -0.055445 0.236220,
0.871387 -0.051322 0.236220,
0.871387 -0.051322 -0.984252,
0.873841 -0.047072 0.236220,
0.873841 -0.047072 -0.984252,
0.876080 -0.042705 0.236220,
0.876080 -0.042705 -0.984252,
0.878098 -0.038232 -0.984252,
0.878098 -0.038232 0.236220,
0.879891 -0.033663 0.236220,
0.879891 -0.033663 -0.984252,
0.881454 -0.029011 0.236220,
0.881454 -0.029011 -0.984252,
0.882783 -0.024287 0.236220,
0.882783 -0.024287 -0.984252,
0.883875 -0.019503 0.236220,
0.883875 -0.019503 -0.984252,
0.884727 -0.014670 0.236220,
0.884727 -0.014670 -0.984252,
0.885338 -0.009800 -0.984252,
0.885338 -0.009800 0.236220,
0.885704 -0.004906 0.236220,
0.885704 -0.004906 -0.984252 ] } coordIndex [ 0 1 2 -1,
0 2 3 -1,
4 3 5 -1,
4 0 3 -1,
6 5 7 -1,
6 4 5 -1,
8 7 9 -1,
8 9 10 -1,
8 6 7 -1,
11 8 10 -1,
12 10 13 -1,
12 11 10 -1,
14 13 15 -1,
14 12 13 -1,
16 15 17 -1,
16 17 18 -1,
16 14 15 -1,
19 16 18 -1,
20 18 21 -1,
20 19 18 -1,
22 20 21 -1,
22 21 23 -1,
22 23 24 -1,
25 22 24 -1,
25 24 26 -1,
27 25 26 -1,
28 27 26 -1,
28 26 29 -1,
28 29 30 -1,
31 28 30 -1,
31 30 32 -1,
33 31 32 -1,
34 33 32 -1,
34 32 35 -1,
36 34 35 -1,
36 35 37 -1,
38 36 37 -1,
38 37 39 -1,
38 39 40 -1,
41 38 40 -1,
42 41 40 -1,
42 40 43 -1,
42 43 44 -1,
45 42 44 -1,
45 44 46 -1,
47 45 46 -1,
48 46 49 -1,
48 47 46 -1,
50 49 51 -1,
50 51 52 -1,
50 48 49 -1,
53 52 54 -1,
53 50 52 -1,
55 53 54 -1,
56 54 57 -1,
56 57 58 -1,
56 55 54 -1,
59 58 60 -1,
59 56 58 -1,
61 59 60 -1,
62 60 63 -1,
62 61 60 -1,
64 63 65 -1,
64 62 63 -1,
66 65 67 -1,
66 64 65 -1,
68 67 69 -1,
68 66 67 -1,
70 69 71 -1,
70 68 69 -1,
72 71 73 -1,
72 70 71 -1,
74 72 73 -1,
74 73 75 -1,
76 74 75 -1,
76 75 77 -1,
78 76 77 -1,
78 77 79 -1,
80 78 79 -1,
80 79 81 -1,
82 80 81 -1,
82 81 83 -1,
84 82 83 -1,
84 83 85 -1,
86 84 85 -1,
86 85 87 -1,
88 86 87 -1,
88 87 89 -1,
88 89 90 -1,
91 88 90 -1,
91 90 92 -1,
93 91 92 -1,
94 93 92 -1,
94 92 95 -1,
94 95 96 -1,
97 94 96 -1,
98 97 96 -1,
98 96 99 -1,
98 99 100 -1,
101 98 100 -1,
102 101 100 -1,
102 100 103 -1,
104 102 103 -1,
104 103 105 -1,
104 105 106 -1,
107 104 106 -1,
108 107 106 -1,
108 106 109 -1,
108 109 110 -1,
111 108 110 -1,
112 111 110 -1,
112 110 113 -1,
114 112 113 -1,
114 113 115 -1,
116 115 117 -1,
116 114 115 -1,
118 117 119 -1,
118 116 117 -1,
120 119 121 -1,
120 118 119 -1,
122 121 123 -1,
122 120 121 -1,
124 122 123 -1,
124 123 125 -1,
126 124 125 -1,
126 125 127 -1,
128 126 127 -1,
128 127 129 -1,
130 128 129 -1,
130 129 131 -1,
132 130 131 -1,
132 131 133 -1,
134 132 133 -1,
134 133 135 -1,
136 134 135 -1,
136 135 137 -1,
138 136 137 -1,
138 137 139 -1,
140 138 139 -1,
140 139 141 -1,
142 140 141 -1,
142 141 143 -1,
144 142 143 -1,
144 143 145 -1,
146 144 145 -1,
146 145 147 -1,
148 146 147 -1,
148 147 149 -1,
150 149 151 -1,
150 148 149 -1,
152 151 153 -1,
152 153 154 -1,
152 150 151 -1,
155 152 154 -1,
156 154 157 -1,
156 155 154 -1,
158 157 159 -1,
158 156 157 -1,
160 159 161 -1,
160 161 162 -1,
160 158 159 -1,
163 160 162 -1,
164 162 165 -1,
164 163 162 -1,
166 165 167 -1,
166 164 165 -1,
168 167 169 -1,
168 166 167 -1,
170 169 171 -1,
170 168 169 -1,
172 171 173 -1,
172 170 171 -1,
174 173 175 -1,
174 172 173 -1,
176 174 175 -1,
176 175 177 -1,
178 176 177 -1,
178 177 179 -1,
180 178 179 -1,
180 179 181 -1,
182 180 181 -1,
182 181 183 -1,
184 183 185 -1,
184 182 183 -1,
186 185 187 -1,
186 184 185 -1,
188 187 189 -1,
188 189 190 -1,
188 186 187 -1,
191 188 190 -1,
192 190 193 -1,
192 191 190 -1,
194 193 195 -1,
194 192 193 -1,
196 195 197 -1,
196 197 198 -1,
196 194 195 -1,
199 196 198 -1,
200 198 201 -1,
200 201 202 -1,
200 199 198 -1,
203 200 202 -1,
204 202 205 -1,
204 203 202 -1,
206 205 207 -1,
206 204 205 -1,
208 207 209 -1,
208 206 207 -1,
210 209 211 -1,
210 211 212 -1,
210 208 209 -1,
213 212 214 -1,
213 210 212 -1,
215 213 214 -1,
216 214 217 -1,
216 217 218 -1,
216 215 214 -1,
219 216 218 -1,
220 218 221 -1,
220 221 222 -1,
220 219 218 -1,
223 220 222 -1,
224 223 222 -1,
224 222 225 -1,
226 224 225 -1,
226 225 227 -1,
226 227 228 -1,
229 226 228 -1,
230 229 228 -1,
230 228 231 -1,
232 230 231 -1,
232 231 233 -1,
234 232 233 -1,
234 233 235 -1,
234 235 236 -1,
237 234 236 -1,
238 237 236 -1,
238 236 239 -1,
240 238 239 -1,
240 239 241 -1,
242 240 241 -1,
242 241 243 -1,
244 242 243 -1,
244 243 245 -1,
246 244 245 -1,
246 245 247 -1,
246 247 248 -1,
249 246 248 -1,
250 248 251 -1,
250 251 2 -1,
250 249 248 -1,
1 250 2 -1,
200 196 199 -1,
206 203 204 -1,
104 107 108 -1,
213 208 210 -1,
223 219 220 -1,
226 223 224 -1,
88 91 93 -1,
230 226 229 -1,
234 230 232 -1,
234 226 230 -1,
80 82 84 -1,
237 226 234 -1,
242 237 238 -1,
242 238 240 -1,
246 242 244 -1,
68 70 72 -1,
250 246 249 -1,
0 250 1 -1,
4 250 0 -1,
59 61 62 -1,
12 6 8 -1,
12 8 11 -1,
19 14 16 -1,
20 14 19 -1,
42 45 47 -1,
42 47 48 -1,
42 48 50 -1,
36 38 41 -1,
36 41 42 -1,
28 25 27 -1,
31 25 28 -1,
33 200 203 -1,
33 4 6 -1,
33 206 208 -1,
33 25 31 -1,
33 246 250 -1,
33 213 215 -1,
33 12 14 -1,
33 215 216 -1,
33 216 219 -1,
33 20 22 -1,
33 203 206 -1,
33 36 42 -1,
33 22 25 -1,
33 196 200 -1,
33 6 12 -1,
33 250 4 -1,
33 34 36 -1,
33 104 108 -1,
33 223 226 -1,
33 68 72 -1,
33 50 53 -1,
33 53 55 -1,
33 55 56 -1,
33 56 59 -1,
33 62 64 -1,
33 64 66 -1,
33 66 68 -1,
33 208 213 -1,
33 72 74 -1,
33 74 76 -1,
33 76 78 -1,
33 78 80 -1,
33 219 223 -1,
33 84 86 -1,
33 86 88 -1,
33 42 50 -1,
33 93 94 -1,
33 94 97 -1,
33 97 98 -1,
33 226 237 -1,
33 98 101 -1,
33 101 102 -1,
33 102 104 -1,
33 108 111 -1,
33 111 112 -1,
33 112 114 -1,
33 114 116 -1,
33 116 118 -1,
33 118 120 -1,
33 120 122 -1,
33 122 124 -1,
33 124 126 -1,
33 126 128 -1,
33 128 130 -1,
33 237 242 -1,
33 130 132 -1,
33 14 20 -1,
33 132 134 -1,
33 134 136 -1,
33 136 138 -1,
33 138 140 -1,
33 140 142 -1,
33 142 144 -1,
33 144 146 -1,
33 146 148 -1,
33 148 150 -1,
33 150 152 -1,
33 152 155 -1,
33 155 156 -1,
33 156 158 -1,
33 158 160 -1,
33 80 84 -1,
33 160 163 -1,
33 163 164 -1,
33 164 166 -1,
33 166 168 -1,
33 168 170 -1,
33 170 172 -1,
33 242 246 -1,
33 172 174 -1,
33 174 176 -1,
33 176 178 -1,
33 178 180 -1,
33 180 182 -1,
33 182 184 -1,
33 184 186 -1,
33 186 188 -1,
33 88 93 -1,
33 188 191 -1,
33 191 192 -1,
33 192 194 -1,
33 59 62 -1,
33 194 196 -1,
197 201 198 -1,
202 207 205 -1,
106 105 109 -1,
209 212 211 -1,
218 222 221 -1,
222 227 225 -1,
90 89 92 -1,
227 231 228 -1,
231 235 233 -1,
227 235 231 -1,
83 81 85 -1,
227 236 235 -1,
236 243 239 -1,
239 243 241 -1,
243 247 245 -1,
71 69 73 -1,
247 251 248 -1,
251 3 2 -1,
251 5 3 -1,
60 58 63 -1,
7 13 9 -1,
9 13 10 -1,
15 18 17 -1,
15 21 18 -1,
44 43 46 -1,
46 43 49 -1,
49 43 51 -1,
39 37 40 -1,
40 37 43 -1,
24 29 26 -1,
24 30 29 -1,
201 32 202 -1,
5 32 7 -1,
207 32 209 -1,
24 32 30 -1,
247 32 251 -1,
212 32 214 -1,
13 32 15 -1,
214 32 217 -1,
217 32 218 -1,
21 32 23 -1,
202 32 207 -1,
37 32 43 -1,
23 32 24 -1,
197 32 201 -1,
7 32 13 -1,
251 32 5 -1,
35 32 37 -1,
105 32 109 -1,
222 32 227 -1,
69 32 73 -1,
51 32 52 -1,
52 32 54 -1,
54 32 57 -1,
57 32 58 -1,
63 32 65 -1,
65 32 67 -1,
67 32 69 -1,
209 32 212 -1,
73 32 75 -1,
75 32 77 -1,
77 32 79 -1,
79 32 81 -1,
218 32 222 -1,
85 32 87 -1,
87 32 89 -1,
43 32 51 -1,
92 32 95 -1,
95 32 96 -1,
96 32 99 -1,
227 32 236 -1,
99 32 100 -1,
100 32 103 -1,
103 32 105 -1,
109 32 110 -1,
110 32 113 -1,
113 32 115 -1,
115 32 117 -1,
117 32 119 -1,
119 32 121 -1,
121 32 123 -1,
123 32 125 -1,
125 32 127 -1,
127 32 129 -1,
129 32 131 -1,
236 32 243 -1,
131 32 133 -1,
15 32 21 -1,
133 32 135 -1,
135 32 137 -1,
137 32 139 -1,
139 32 141 -1,
141 32 143 -1,
143 32 145 -1,
145 32 147 -1,
147 32 149 -1,
149 32 151 -1,
151 32 153 -1,
153 32 154 -1,
154 32 157 -1,
157 32 159 -1,
159 32 161 -1,
81 32 85 -1,
161 32 162 -1,
162 32 165 -1,
165 32 167 -1,
167 32 169 -1,
169 32 171 -1,
171 32 173 -1,
243 32 247 -1,
173 32 175 -1,
175 32 177 -1,
177 32 179 -1,
179 32 181 -1,
181 32 183 -1,
183 32 185 -1,
185 32 187 -1,
187 32 189 -1,
89 32 92 -1,
189 32 190 -1,
190 32 193 -1,
193 32 195 -1,
58 32 63 -1,
195 32 197 -1 ] } }
