#VRML V2.0 utf8
# Project-owned nominal model; units 0.1 inch for KiCad.
Shape { appearance Appearance { material Material { diffuseColor 0.055 0.06 0.065 } } geometry IndexedFaceSet { solid FALSE coord Coordinate { point [ -0.500000 -7.600394 0.000000,
-0.500000 -7.600394 3.346457,
-0.500000 0.600394 0.000000,
-0.500000 0.600394 3.346457,
0.500000 -7.600394 0.000000,
0.500000 -7.600394 3.346457,
0.157480 -7.157480 3.346457,
-0.157480 -7.157480 3.346457,
-0.157480 -6.842520 3.346457,
0.157480 -6.842520 3.346457,
-0.157480 -6.157480 3.346457,
0.157480 -6.157480 3.346457,
-0.157480 -5.842520 3.346457,
0.157480 -5.842520 3.346457,
0.157480 -5.157480 3.346457,
-0.157480 -5.157480 3.346457,
0.157480 -4.157480 3.346457,
-0.157480 -4.842520 3.346457,
0.157480 -4.842520 3.346457,
-0.157480 -4.157480 3.346457,
0.157480 -3.157480 3.346457,
-0.157480 -3.842520 3.346457,
0.157480 -3.842520 3.346457,
-0.157480 -3.157480 3.346457,
0.157480 -2.157480 3.346457,
-0.157480 -2.842520 3.346457,
0.157480 -2.842520 3.346457,
-0.157480 -2.157480 3.346457,
0.157480 -1.157480 3.346457,
-0.157480 -1.842520 3.346457,
0.157480 -1.842520 3.346457,
-0.157480 -1.157480 3.346457,
0.157480 -0.157480 3.346457,
-0.157480 -0.842520 3.346457,
0.157480 -0.842520 3.346457,
-0.157480 -0.157480 3.346457,
-0.157480 0.157480 3.346457,
0.500000 0.600394 3.346457,
0.157480 0.157480 3.346457,
0.500000 0.600394 0.000000,
0.157480 -7.157480 2.952756,
-0.157480 -7.157480 2.952756,
0.157480 -6.842520 2.952756,
-0.157480 -6.842520 2.952756,
0.157480 -6.157480 2.952756,
-0.157480 -6.157480 2.952756,
0.157480 -5.842520 2.952756,
-0.157480 -5.842520 2.952756,
0.157480 -5.157480 2.952756,
-0.157480 -5.157480 2.952756,
0.157480 -4.842520 2.952756,
-0.157480 -4.842520 2.952756,
0.157480 -4.157480 2.952756,
-0.157480 -4.157480 2.952756,
0.157480 -3.842520 2.952756,
-0.157480 -3.842520 2.952756,
0.157480 -3.157480 2.952756,
-0.157480 -3.157480 2.952756,
0.157480 -2.842520 2.952756,
-0.157480 -2.842520 2.952756,
0.157480 -2.157480 2.952756,
-0.157480 -2.157480 2.952756,
0.157480 -1.842520 2.952756,
-0.157480 -1.842520 2.952756,
0.157480 -1.157480 2.952756,
-0.157480 -1.157480 2.952756,
0.157480 -0.842520 2.952756,
-0.157480 -0.842520 2.952756,
0.157480 -0.157480 2.952756,
-0.157480 -0.157480 2.952756,
0.157480 0.157480 2.952756,
-0.157480 0.157480 2.952756 ] } coordIndex [ 0 1 2 -1,
2 1 3 -1,
4 5 0 -1,
0 5 1 -1,
6 1 5 -1,
6 7 1 -1,
8 1 7 -1,
9 6 5 -1,
10 8 9 -1,
10 1 8 -1,
11 10 9 -1,
11 9 5 -1,
12 1 10 -1,
13 11 5 -1,
14 12 13 -1,
14 15 12 -1,
16 17 18 -1,
16 19 17 -1,
20 21 22 -1,
20 23 21 -1,
24 25 26 -1,
24 27 25 -1,
28 29 30 -1,
28 31 29 -1,
32 33 34 -1,
32 35 33 -1,
3 31 33 -1,
3 35 36 -1,
3 29 31 -1,
3 33 35 -1,
37 32 34 -1,
37 3 36 -1,
37 34 28 -1,
37 36 38 -1,
37 38 32 -1,
37 28 30 -1,
3 1 12 -1,
3 12 15 -1,
3 15 17 -1,
3 17 19 -1,
3 19 21 -1,
3 21 23 -1,
3 23 25 -1,
3 25 27 -1,
3 27 29 -1,
5 37 30 -1,
5 30 24 -1,
5 24 26 -1,
5 26 20 -1,
5 20 22 -1,
5 22 16 -1,
5 16 18 -1,
5 18 14 -1,
5 14 13 -1,
37 39 2 -1,
37 2 3 -1,
2 39 0 -1,
0 39 4 -1,
5 4 39 -1,
5 39 37 -1,
6 40 41 -1,
6 41 7 -1,
40 6 42 -1,
42 6 9 -1,
42 9 43 -1,
43 9 8 -1,
7 41 43 -1,
7 43 8 -1,
11 44 45 -1,
11 45 10 -1,
44 11 46 -1,
46 11 13 -1,
10 45 47 -1,
10 47 12 -1,
46 13 47 -1,
47 13 12 -1,
14 48 49 -1,
14 49 15 -1,
48 14 50 -1,
50 14 18 -1,
15 49 51 -1,
15 51 17 -1,
50 18 51 -1,
51 18 17 -1,
16 52 53 -1,
16 53 19 -1,
52 16 54 -1,
54 16 22 -1,
19 53 55 -1,
19 55 21 -1,
54 22 55 -1,
55 22 21 -1,
20 56 57 -1,
20 57 23 -1,
56 20 58 -1,
58 20 26 -1,
23 57 59 -1,
23 59 25 -1,
58 26 59 -1,
59 26 25 -1,
24 60 61 -1,
24 61 27 -1,
60 24 62 -1,
62 24 30 -1,
27 61 63 -1,
27 63 29 -1,
62 30 63 -1,
63 30 29 -1,
28 64 65 -1,
28 65 31 -1,
64 28 66 -1,
66 28 34 -1,
31 65 67 -1,
31 67 33 -1,
66 34 67 -1,
67 34 33 -1,
32 68 69 -1,
32 69 35 -1,
68 32 70 -1,
70 32 38 -1,
35 69 71 -1,
35 71 36 -1,
70 38 71 -1,
71 38 36 -1,
42 43 41 -1,
42 41 40 -1,
46 47 45 -1,
46 45 44 -1,
50 51 49 -1,
50 49 48 -1,
54 55 53 -1,
54 53 52 -1,
58 59 57 -1,
58 57 56 -1,
62 63 61 -1,
62 61 60 -1,
66 67 65 -1,
66 65 64 -1,
70 71 69 -1,
70 69 68 -1 ] } }
Shape { appearance Appearance { material Material { diffuseColor 0.7 0.72 0.74 } } geometry IndexedFaceSet { solid FALSE coord Coordinate { point [ -0.125984 -0.125984 -0.984252,
-0.125984 -0.125984 0.000000,
-0.125984 0.125984 -0.984252,
-0.125984 0.125984 0.000000,
0.125984 -0.125984 0.000000,
0.125984 -0.125984 -0.984252,
0.125984 0.125984 -0.984252,
0.125984 0.125984 0.000000 ] } coordIndex [ 0 1 2 -1,
2 1 3 -1,
4 5 6 -1,
4 6 7 -1,
5 4 0 -1,
0 4 1 -1,
7 6 2 -1,
7 2 3 -1,
2 6 0 -1,
0 6 5 -1,
7 3 1 -1,
7 1 4 -1 ] } }
Shape { appearance Appearance { material Material { diffuseColor 0.7 0.72 0.74 } } geometry IndexedFaceSet { solid FALSE coord Coordinate { point [ -0.125984 -1.125984 -0.984252,
-0.125984 -1.125984 0.000000,
-0.125984 -0.874016 -0.984252,
-0.125984 -0.874016 0.000000,
0.125984 -1.125984 0.000000,
0.125984 -1.125984 -0.984252,
0.125984 -0.874016 -0.984252,
0.125984 -0.874016 0.000000 ] } coordIndex [ 0 1 2 -1,
2 1 3 -1,
4 5 6 -1,
4 6 7 -1,
5 4 0 -1,
0 4 1 -1,
7 6 2 -1,
7 2 3 -1,
2 6 0 -1,
0 6 5 -1,
7 3 1 -1,
7 1 4 -1 ] } }
Shape { appearance Appearance { material Material { diffuseColor 0.7 0.72 0.74 } } geometry IndexedFaceSet { solid FALSE coord Coordinate { point [ -0.125984 -2.125984 -0.984252,
-0.125984 -2.125984 0.000000,
-0.125984 -1.874016 -0.984252,
-0.125984 -1.874016 0.000000,
0.125984 -2.125984 0.000000,
0.125984 -2.125984 -0.984252,
0.125984 -1.874016 -0.984252,
0.125984 -1.874016 0.000000 ] } coordIndex [ 0 1 2 -1,
2 1 3 -1,
4 5 6 -1,
4 6 7 -1,
5 4 0 -1,
0 4 1 -1,
7 6 2 -1,
7 2 3 -1,
2 6 0 -1,
0 6 5 -1,
7 3 1 -1,
7 1 4 -1 ] } }
Shape { appearance Appearance { material Material { diffuseColor 0.7 0.72 0.74 } } geometry IndexedFaceSet { solid FALSE coord Coordinate { point [ -0.125984 -3.125984 -0.984252,
-0.125984 -3.125984 0.000000,
-0.125984 -2.874016 -0.984252,
-0.125984 -2.874016 0.000000,
0.125984 -3.125984 0.000000,
0.125984 -3.125984 -0.984252,
0.125984 -2.874016 -0.984252,
0.125984 -2.874016 0.000000 ] } coordIndex [ 0 1 2 -1,
2 1 3 -1,
4 5 6 -1,
4 6 7 -1,
5 4 0 -1,
0 4 1 -1,
7 6 2 -1,
7 2 3 -1,
2 6 0 -1,
0 6 5 -1,
7 3 1 -1,
7 1 4 -1 ] } }
Shape { appearance Appearance { material Material { diffuseColor 0.7 0.72 0.74 } } geometry IndexedFaceSet { solid FALSE coord Coordinate { point [ -0.125984 -4.125984 -0.984252,
-0.125984 -4.125984 0.000000,
-0.125984 -3.874016 -0.984252,
-0.125984 -3.874016 0.000000,
0.125984 -4.125984 0.000000,
0.125984 -4.125984 -0.984252,
0.125984 -3.874016 -0.984252,
0.125984 -3.874016 0.000000 ] } coordIndex [ 0 1 2 -1,
2 1 3 -1,
4 5 6 -1,
4 6 7 -1,
5 4 0 -1,
0 4 1 -1,
7 6 2 -1,
7 2 3 -1,
2 6 0 -1,
0 6 5 -1,
7 3 1 -1,
7 1 4 -1 ] } }
Shape { appearance Appearance { material Material { diffuseColor 0.7 0.72 0.74 } } geometry IndexedFaceSet { solid FALSE coord Coordinate { point [ -0.125984 -5.125984 -0.984252,
-0.125984 -5.125984 0.000000,
-0.125984 -4.874016 -0.984252,
-0.125984 -4.874016 0.000000,
0.125984 -5.125984 0.000000,
0.125984 -5.125984 -0.984252,
0.125984 -4.874016 -0.984252,
0.125984 -4.874016 0.000000 ] } coordIndex [ 0 1 2 -1,
2 1 3 -1,
4 5 6 -1,
4 6 7 -1,
5 4 0 -1,
0 4 1 -1,
7 6 2 -1,
7 2 3 -1,
2 6 0 -1,
0 6 5 -1,
7 3 1 -1,
7 1 4 -1 ] } }
Shape { appearance Appearance { material Material { diffuseColor 0.7 0.72 0.74 } } geometry IndexedFaceSet { solid FALSE coord Coordinate { point [ -0.125984 -6.125984 -0.984252,
-0.125984 -6.125984 0.000000,
-0.125984 -5.874016 -0.984252,
-0.125984 -5.874016 0.000000,
0.125984 -6.125984 0.000000,
0.125984 -6.125984 -0.984252,
0.125984 -5.874016 -0.984252,
0.125984 -5.874016 0.000000 ] } coordIndex [ 0 1 2 -1,
2 1 3 -1,
4 5 6 -1,
4 6 7 -1,
5 4 0 -1,
0 4 1 -1,
7 6 2 -1,
7 2 3 -1,
2 6 0 -1,
0 6 5 -1,
7 3 1 -1,
7 1 4 -1 ] } }
Shape { appearance Appearance { material Material { diffuseColor 0.7 0.72 0.74 } } geometry IndexedFaceSet { solid FALSE coord Coordinate { point [ -0.125984 -7.125984 -0.984252,
-0.125984 -7.125984 0.000000,
-0.125984 -6.874016 -0.984252,
-0.125984 -6.874016 0.000000,
0.125984 -7.125984 0.000000,
0.125984 -7.125984 -0.984252,
0.125984 -6.874016 -0.984252,
0.125984 -6.874016 0.000000 ] } coordIndex [ 0 1 2 -1,
2 1 3 -1,
4 5 6 -1,
4 6 7 -1,
5 4 0 -1,
0 4 1 -1,
7 6 2 -1,
7 2 3 -1,
2 6 0 -1,
0 6 5 -1,
7 3 1 -1,
7 1 4 -1 ] } }
Shape { appearance Appearance { material Material { diffuseColor 0.055 0.06 0.065 } } geometry IndexedFaceSet { solid FALSE coord Coordinate { point [ -0.500000 -7.500000 3.346457,
-0.500000 -7.500000 4.346457,
-0.500000 0.500000 3.346457,
-0.500000 0.500000 4.346457,
0.500000 -7.500000 4.346457,
0.500000 -7.500000 3.346457,
0.500000 0.500000 3.346457,
0.500000 0.500000 4.346457 ] } coordIndex [ 0 1 2 -1,
2 1 3 -1,
4 5 6 -1,
4 6 7 -1,
5 4 0 -1,
0 4 1 -1,
7 6 2 -1,
7 2 3 -1,
2 6 0 -1,
0 6 5 -1,
7 3 1 -1,
7 1 4 -1 ] } }
Shape { appearance Appearance { material Material { diffuseColor 0.82 0.61 0.18 } } geometry IndexedFaceSet { solid FALSE coord Coordinate { point [ -0.125984 -0.125984 1.181102,
-0.125984 -0.125984 4.724409,
-0.125984 0.125984 1.181102,
-0.125984 0.125984 4.724409,
0.125984 -0.125984 4.724409,
0.125984 -0.125984 1.181102,
0.125984 0.125984 1.181102,
0.125984 0.125984 4.724409 ] } coordIndex [ 0 1 2 -1,
2 1 3 -1,
4 5 6 -1,
4 6 7 -1,
5 4 0 -1,
0 4 1 -1,
7 6 2 -1,
7 2 3 -1,
2 6 0 -1,
0 6 5 -1,
7 3 1 -1,
7 1 4 -1 ] } }
Shape { appearance Appearance { material Material { diffuseColor 0.82 0.61 0.18 } } geometry IndexedFaceSet { solid FALSE coord Coordinate { point [ -0.125984 -1.125984 1.181102,
-0.125984 -1.125984 4.724409,
-0.125984 -0.874016 1.181102,
-0.125984 -0.874016 4.724409,
0.125984 -1.125984 4.724409,
0.125984 -1.125984 1.181102,
0.125984 -0.874016 1.181102,
0.125984 -0.874016 4.724409 ] } coordIndex [ 0 1 2 -1,
2 1 3 -1,
4 5 6 -1,
4 6 7 -1,
5 4 0 -1,
0 4 1 -1,
7 6 2 -1,
7 2 3 -1,
2 6 0 -1,
0 6 5 -1,
7 3 1 -1,
7 1 4 -1 ] } }
Shape { appearance Appearance { material Material { diffuseColor 0.82 0.61 0.18 } } geometry IndexedFaceSet { solid FALSE coord Coordinate { point [ -0.125984 -2.125984 1.181102,
-0.125984 -2.125984 4.724409,
-0.125984 -1.874016 1.181102,
-0.125984 -1.874016 4.724409,
0.125984 -2.125984 4.724409,
0.125984 -2.125984 1.181102,
0.125984 -1.874016 1.181102,
0.125984 -1.874016 4.724409 ] } coordIndex [ 0 1 2 -1,
2 1 3 -1,
4 5 6 -1,
4 6 7 -1,
5 4 0 -1,
0 4 1 -1,
7 6 2 -1,
7 2 3 -1,
2 6 0 -1,
0 6 5 -1,
7 3 1 -1,
7 1 4 -1 ] } }
Shape { appearance Appearance { material Material { diffuseColor 0.82 0.61 0.18 } } geometry IndexedFaceSet { solid FALSE coord Coordinate { point [ -0.125984 -3.125984 1.181102,
-0.125984 -3.125984 4.724409,
-0.125984 -2.874016 1.181102,
-0.125984 -2.874016 4.724409,
0.125984 -3.125984 4.724409,
0.125984 -3.125984 1.181102,
0.125984 -2.874016 1.181102,
0.125984 -2.874016 4.724409 ] } coordIndex [ 0 1 2 -1,
2 1 3 -1,
4 5 6 -1,
4 6 7 -1,
5 4 0 -1,
0 4 1 -1,
7 6 2 -1,
7 2 3 -1,
2 6 0 -1,
0 6 5 -1,
7 3 1 -1,
7 1 4 -1 ] } }
Shape { appearance Appearance { material Material { diffuseColor 0.82 0.61 0.18 } } geometry IndexedFaceSet { solid FALSE coord Coordinate { point [ -0.125984 -4.125984 1.181102,
-0.125984 -4.125984 4.724409,
-0.125984 -3.874016 1.181102,
-0.125984 -3.874016 4.724409,
0.125984 -4.125984 4.724409,
0.125984 -4.125984 1.181102,
0.125984 -3.874016 1.181102,
0.125984 -3.874016 4.724409 ] } coordIndex [ 0 1 2 -1,
2 1 3 -1,
4 5 6 -1,
4 6 7 -1,
5 4 0 -1,
0 4 1 -1,
7 6 2 -1,
7 2 3 -1,
2 6 0 -1,
0 6 5 -1,
7 3 1 -1,
7 1 4 -1 ] } }
Shape { appearance Appearance { material Material { diffuseColor 0.82 0.61 0.18 } } geometry IndexedFaceSet { solid FALSE coord Coordinate { point [ -0.125984 -5.125984 1.181102,
-0.125984 -5.125984 4.724409,
-0.125984 -4.874016 1.181102,
-0.125984 -4.874016 4.724409,
0.125984 -5.125984 4.724409,
0.125984 -5.125984 1.181102,
0.125984 -4.874016 1.181102,
0.125984 -4.874016 4.724409 ] } coordIndex [ 0 1 2 -1,
2 1 3 -1,
4 5 6 -1,
4 6 7 -1,
5 4 0 -1,
0 4 1 -1,
7 6 2 -1,
7 2 3 -1,
2 6 0 -1,
0 6 5 -1,
7 3 1 -1,
7 1 4 -1 ] } }
Shape { appearance Appearance { material Material { diffuseColor 0.82 0.61 0.18 } } geometry IndexedFaceSet { solid FALSE coord Coordinate { point [ -0.125984 -6.125984 1.181102,
-0.125984 -6.125984 4.724409,
-0.125984 -5.874016 1.181102,
-0.125984 -5.874016 4.724409,
0.125984 -6.125984 4.724409,
0.125984 -6.125984 1.181102,
0.125984 -5.874016 1.181102,
0.125984 -5.874016 4.724409 ] } coordIndex [ 0 1 2 -1,
2 1 3 -1,
4 5 6 -1,
4 6 7 -1,
5 4 0 -1,
0 4 1 -1,
7 6 2 -1,
7 2 3 -1,
2 6 0 -1,
0 6 5 -1,
7 3 1 -1,
7 1 4 -1 ] } }
Shape { appearance Appearance { material Material { diffuseColor 0.82 0.61 0.18 } } geometry IndexedFaceSet { solid FALSE coord Coordinate { point [ -0.125984 -7.125984 1.181102,
-0.125984 -7.125984 4.724409,
-0.125984 -6.874016 1.181102,
-0.125984 -6.874016 4.724409,
0.125984 -7.125984 4.724409,
0.125984 -7.125984 1.181102,
0.125984 -6.874016 1.181102,
0.125984 -6.874016 4.724409 ] } coordIndex [ 0 1 2 -1,
2 1 3 -1,
4 5 6 -1,
4 6 7 -1,
5 4 0 -1,
0 4 1 -1,
7 6 2 -1,
7 2 3 -1,
2 6 0 -1,
0 6 5 -1,
7 3 1 -1,
7 1 4 -1 ] } }
Shape { appearance Appearance { material Material { diffuseColor 0.035 0.16 0.13 } } geometry IndexedFaceSet { solid FALSE coord Coordinate { point [ -18.110236 -9.602362 4.346457,
-18.110236 -9.602362 4.818898,
-18.110236 2.602362 4.346457,
-18.110236 2.602362 4.818898,
0.787402 -9.602362 4.818898,
0.787402 -9.602362 4.346457,
0.787402 2.602362 4.346457,
0.787402 2.602362 4.818898 ] } coordIndex [ 0 1 2 -1,
2 1 3 -1,
4 5 6 -1,
4 6 7 -1,
5 4 0 -1,
0 4 1 -1,
7 6 2 -1,
7 2 3 -1,
2 6 0 -1,
0 6 5 -1,
7 3 1 -1,
7 1 4 -1 ] } }
Shape { appearance Appearance { material Material { diffuseColor 0.055 0.06 0.065 } } geometry IndexedFaceSet { solid FALSE coord Coordinate { point [ -16.929134 -8.818898 4.818898,
-16.929134 -8.818898 5.409449,
-16.929134 1.811024 4.818898,
-16.929134 1.811024 5.409449,
-0.393701 -8.818898 5.409449,
-0.393701 -8.818898 4.818898,
-0.393701 1.811024 4.818898,
-0.393701 1.811024 5.409449 ] } coordIndex [ 0 1 2 -1,
2 1 3 -1,
4 5 6 -1,
4 6 7 -1,
0 5 1 -1,
5 4 1 -1,
6 2 3 -1,
7 6 3 -1,
2 5 0 -1,
2 6 5 -1,
4 3 1 -1,
7 3 4 -1 ] } }
Shape { appearance Appearance { material Material { diffuseColor 0.045 0.065 0.08 } } geometry IndexedFaceSet { solid FALSE coord Coordinate { point [ -14.566929 -8.964567 5.409449,
-14.566929 -8.964567 5.488189,
-14.566929 1.948819 5.409449,
-14.566929 1.948819 5.488189,
-1.834646 -8.964567 5.488189,
-1.834646 -8.964567 5.409449,
-1.834646 1.948819 5.409449,
-1.834646 1.948819 5.488189 ] } coordIndex [ 0 1 2 -1,
2 1 3 -1,
4 5 6 -1,
4 6 7 -1,
5 4 0 -1,
0 4 1 -1,
7 6 2 -1,
7 2 3 -1,
2 6 0 -1,
0 6 5 -1,
7 3 1 -1,
7 1 4 -1 ] } }
