M48
; DRILL file KiCad 10.0.6 date 2026-09-11T13:47:29
; FORMAT={-:-/ absolute / metric / decimal}
; #@! TF.CreationDate,2026-09-11T13:47:29-05:00
; #@! TF.GenerationSoftware,Kicad,Pcbnew,10.0.6
; #@! TF.FileFunction,Plated,1,2,PTH
FMAT,2
METRIC
; #@! TA.AperFunction,Plated,PTH,ViaDrill
T1C0.300
; #@! TA.AperFunction,Plated,PTH,ViaDrill
T2C0.400
; #@! TA.AperFunction,Plated,PTH,ViaDrill
T3C0.500
; #@! TA.AperFunction,Plated,PTH,ComponentDrill
T4C0.750
; #@! TA.AperFunction,Plated,PTH,ComponentDrill
T5C0.800
; #@! TA.AperFunction,Plated,PTH,ComponentDrill
T6C0.900
; #@! TA.AperFunction,Plated,PTH,ComponentDrill
T7C0.950
; #@! TA.AperFunction,Plated,PTH,ComponentDrill
T8C1.000
; #@! TA.AperFunction,Plated,PTH,ComponentDrill
T9C1.050
; #@! TA.AperFunction,Plated,PTH,ComponentDrill
T10C1.100
%
G90
G05
T1
X12.418Y-21.732
X13.0Y-47.8
X14.4Y-71.8
X19.0Y-65.4
X19.906Y-42.605
X22.415Y-38.793
X22.877Y-36.27
X23.907Y-13.807
X24.652Y-18.003
X25.471Y-22.661
X26.169Y-55.431
X26.691Y-11.744
X28.05Y-54.354
X28.248Y-29.727
X29.0Y-72.4
X29.0Y-78.2
X31.2Y-97.0
X31.8Y-56.4
X32.0Y-92.4
X32.0Y-96.8
X32.6Y-99.0
X32.8Y-97.0
X34.6Y-61.6
X41.0Y-82.2
X41.471Y-21.024
X41.6Y-104.4
X42.0Y-87.0
X43.0Y-93.2
X44.4Y-94.6
X44.801Y-18.153
X46.581Y-18.408
X46.8Y-82.2
X48.6Y-101.4
X51.088Y-45.014
X55.504Y-12.252
X56.8Y-17.42
X56.8Y-47.4
X57.428Y-14.733
X60.793Y-20.182
X61.4Y-55.2
X61.433Y-18.606
X70.8Y-44.2
X71.4Y-43.6
X72.8Y-53.6
X73.976Y-22.31
T2
X35.867Y-31.867
X39.461Y-28.523
T3
X18.962Y-67.919
X21.6Y-94.4
X66.0Y-30.4
X66.0Y-37.6
X68.6Y-30.4
X73.8Y-35.4
T4
X26.2Y-41.0
X26.2Y-43.0
X74.45Y-37.0
X74.45Y-39.0
T5
X3.0Y-8.92
X3.0Y-19.08
X5.0Y-31.5
X5.0Y-33.5
X5.5Y-53.42
X5.5Y-63.58
X9.0Y-54.42
X9.0Y-64.58
X10.19Y-18.49
X10.19Y-21.03
X10.19Y-23.57
X10.19Y-26.11
X10.19Y-28.65
X10.19Y-31.19
X10.19Y-33.73
X10.19Y-36.27
X10.19Y-38.81
X10.19Y-41.35
X10.19Y-43.89
X10.19Y-46.43
X10.19Y-48.97
X10.19Y-51.51
X10.92Y-101.0
X10.92Y-111.0
X11.0Y-84.92
X11.0Y-95.08
X11.92Y-55.0
X13.92Y-73.5
X13.92Y-77.0
X13.92Y-80.5
X13.92Y-84.0
X14.5Y-12.0
X15.92Y-15.0
X17.0Y-3.0
X17.0Y-5.0
X17.81Y-18.49
X17.81Y-21.03
X17.81Y-23.57
X17.81Y-26.11
X17.81Y-28.65
X17.81Y-31.19
X17.81Y-33.73
X17.81Y-36.27
X17.81Y-38.81
X17.81Y-41.35
X17.81Y-43.89
X17.81Y-46.43
X17.81Y-48.97
X17.81Y-51.51
X20.96Y-4.86
X21.0Y-24.5
X21.08Y-101.0
X21.08Y-111.0
X21.42Y-26.5
X21.5Y-31.0
X22.08Y-55.0
X22.42Y-60.5
X23.5Y-4.86
X23.5Y-31.0
X24.08Y-73.5
X24.08Y-77.0
X24.08Y-80.5
X24.08Y-84.0
X25.0Y-46.92
X25.0Y-57.08
X25.46Y-20.14
X25.92Y-69.0
X26.04Y-4.86
X26.08Y-15.0
X27.0Y-84.92
X27.0Y-95.08
X28.0Y-12.5
X28.0Y-20.14
X28.5Y-7.0
X29.42Y-35.0
X29.5Y-48.5
X30.54Y-20.14
X30.64Y-52.46
X30.64Y-55.0
X30.64Y-57.54
X31.5Y-48.5
X31.58Y-26.5
X32.11Y-102.19
X32.11Y-109.81
X32.42Y-72.5
X32.5Y-5.0
X32.5Y-7.0
X32.58Y-60.5
X32.92Y-21.0
X33.92Y-24.5
X33.92Y-28.0
X33.92Y-31.5
X34.0Y-18.5
X34.65Y-102.19
X34.65Y-109.81
X35.19Y-40.19
X35.19Y-42.73
X35.19Y-45.27
X35.19Y-47.81
X35.5Y-55.92
X35.5Y-66.08
X35.96Y-16.14
X36.08Y-69.0
X36.92Y-4.0
X37.19Y-102.19
X37.19Y-109.81
X38.0Y-77.42
X38.0Y-87.58
X38.42Y-64.0
X38.5Y-16.14
X38.92Y-7.5
X39.58Y-35.0
X39.73Y-102.19
X39.73Y-109.81
X40.92Y-67.5
X41.0Y-35.0
X41.04Y-16.14
X41.5Y-75.42
X41.5Y-85.58
X42.27Y-102.19
X42.27Y-109.81
X42.58Y-72.5
X42.81Y-40.19
X42.81Y-42.73
X42.81Y-45.27
X42.81Y-47.81
X43.0Y-50.92
X43.0Y-61.08
X43.08Y-21.0
X43.42Y-14.5
X44.08Y-24.5
X44.08Y-28.0
X44.08Y-31.5
X44.81Y-102.19
X44.81Y-109.81
X45.92Y-48.5
X45.92Y-57.5
X46.0Y-56.0
X47.0Y-22.42
X47.0Y-32.58
X47.08Y-4.0
X47.14Y-34.96
X47.14Y-37.5
X47.14Y-40.04
X47.35Y-102.19
X47.35Y-109.81
X47.5Y-43.0
X47.5Y-45.0
X48.58Y-64.0
X49.08Y-7.5
X49.89Y-102.19
X49.89Y-109.81
X51.0Y-17.42
X51.0Y-27.58
X51.0Y-62.5
X51.08Y-67.5
X52.5Y-8.5
X52.92Y-104.0
X53.0Y-11.5
X53.0Y-17.0
X53.5Y-26.5
X53.58Y-14.5
X54.0Y-60.42
X54.0Y-70.58
X54.5Y-27.42
X54.5Y-37.58
X55.5Y-9.0
X55.92Y-74.0
X56.08Y-48.5
X56.08Y-57.5
X57.46Y-36.64
X58.5Y-71.0
X59.5Y-42.5
X60.0Y-36.64
X60.0Y-49.0
X60.5Y-23.5
X61.0Y-29.0
X61.5Y-42.5
X62.54Y-36.64
X63.08Y-104.0
X64.0Y-57.5
X64.0Y-59.5
X66.0Y-25.0
X66.0Y-28.0
X66.0Y-68.0
X66.08Y-74.0
X69.0Y-22.0
X69.0Y-100.92
X69.0Y-111.08
X70.0Y-57.5
X70.0Y-59.5
X70.0Y-63.5
X70.0Y-65.5
X71.0Y-24.0
X71.5Y-28.5
X72.5Y-42.5
X76.0Y-52.5
X77.0Y-8.92
X77.0Y-19.08
X77.0Y-21.42
X77.0Y-31.58
T6
X4.73Y-22.5
X5.0Y-25.73
X5.0Y-28.27
X6.725Y-12.0
X7.27Y-22.5
X9.265Y-12.0
X12.0Y-4.73
X12.0Y-7.27
X21.5Y-20.73
X21.5Y-23.27
X29.73Y-38.5
X31.5Y-41.73
X31.5Y-44.27
X32.27Y-38.5
X32.5Y-14.23
X32.5Y-16.77
X35.5Y-50.73
X35.5Y-53.27
X39.5Y-55.73
X39.5Y-58.27
X43.0Y-34.73
X43.0Y-37.27
X46.5Y-51.73
X46.5Y-54.27
X51.23Y-54.0
X53.23Y-100.0
X53.73Y-45.0
X53.77Y-54.0
X55.77Y-100.0
X56.27Y-45.0
X59.0Y-51.73
X59.0Y-54.27
X69.5Y-44.73
X69.5Y-47.27
X73.23Y-43.5
X75.77Y-43.5
T7
X64.25Y-52.525
X66.75Y-52.525
X69.25Y-52.525
X71.75Y-52.525
T8
X3.0Y-76.75
X3.0Y-81.25
X11.0Y-76.75
X11.0Y-81.25
X15.0Y-64.75
X15.0Y-69.25
X15.0Y-88.75
X15.0Y-93.25
X23.0Y-64.75
X23.0Y-69.25
X23.0Y-88.75
X23.0Y-93.25
X27.0Y-76.75
X27.0Y-81.25
X35.0Y-76.75
X35.0Y-81.25
X36.0Y-91.75
X36.0Y-96.25
X44.0Y-91.75
X44.0Y-96.25
X45.0Y-76.75
X45.0Y-81.25
X53.0Y-76.75
X53.0Y-81.25
X57.0Y-64.75
X57.0Y-69.25
X57.0Y-88.75
X57.0Y-93.25
X58.38Y-8.34
X58.38Y-10.88
X58.38Y-13.42
X58.38Y-15.96
X58.38Y-18.5
X58.38Y-21.0
X58.38Y-23.58
X58.38Y-26.12
X58.38Y-28.66
X65.0Y-64.75
X65.0Y-69.25
X65.0Y-88.75
X65.0Y-93.25
X69.0Y-76.75
X69.0Y-81.25
X73.62Y-8.34
X73.62Y-10.88
X73.62Y-13.42
X73.62Y-15.96
X73.62Y-18.5
X73.62Y-21.04
X73.62Y-23.58
X73.62Y-26.12
X73.62Y-28.66
X77.0Y-76.75
X77.0Y-81.25
T9
X5.0Y-37.65
X5.0Y-40.19
X5.0Y-42.73
X5.0Y-45.27
X5.0Y-47.81
X5.0Y-50.35
X30.11Y-11.0
X32.65Y-11.0
X35.19Y-11.0
X37.73Y-11.0
X40.27Y-11.0
X42.81Y-11.0
X45.35Y-11.0
X47.89Y-11.0
X69.0Y-33.94
X69.0Y-36.48
X69.0Y-39.02
X69.0Y-41.56
T10
X15.47Y-11.0
X18.01Y-11.0
X20.55Y-11.0
X65.5Y-33.42
X65.5Y-43.58
M30
