%TF.GenerationSoftware,KiCad,Pcbnew,10.0.6*%
%TF.CreationDate,2026-09-11T13:47:28-05:00*%
%TF.ProjectId,KK_main_module,4b4b5f6d-6169-46e5-9f6d-6f64756c652e,C.4 top RGB / populated 3D*%
%TF.SameCoordinates,Original*%
%TF.FileFunction,Legend,Top*%
%TF.FilePolarity,Positive*%
%FSLAX46Y46*%
G04 Gerber Fmt 4.6, Leading zero omitted, Abs format (unit mm)*
G04 Created by KiCad (PCBNEW 10.0.6) date 2026-09-11 13:47:28*
%MOMM*%
%LPD*%
G01*
G04 APERTURE LIST*
G04 Aperture macros list*
%AMRoundRect*
0 Rectangle with rounded corners*
0 $1 Rounding radius*
0 $2 $3 $4 $5 $6 $7 $8 $9 X,Y pos of 4 corners*
0 Add a 4 corners polygon primitive as box body*
4,1,4,$2,$3,$4,$5,$6,$7,$8,$9,$2,$3,0*
0 Add four circle primitives for the rounded corners*
1,1,$1+$1,$2,$3*
1,1,$1+$1,$4,$5*
1,1,$1+$1,$6,$7*
1,1,$1+$1,$8,$9*
0 Add four rect primitives between the rounded corners*
20,1,$1+$1,$2,$3,$4,$5,0*
20,1,$1+$1,$4,$5,$6,$7,0*
20,1,$1+$1,$6,$7,$8,$9,0*
20,1,$1+$1,$8,$9,$2,$3,0*%
G04 Aperture macros list end*
%ADD10C,0.150000*%
%ADD11C,0.127000*%
%ADD12C,0.200000*%
%ADD13C,0.120000*%
%ADD14C,2.000000*%
%ADD15C,1.712000*%
%ADD16RoundRect,0.102000X0.754000X0.754000X-0.754000X0.754000X-0.754000X-0.754000X0.754000X-0.754000X0*%
%ADD17R,1.900000X1.900000*%
%ADD18C,1.900000*%
%ADD19R,1.800000X1.800000*%
%ADD20C,1.800000*%
%ADD21R,1.850000X1.850000*%
%ADD22C,1.850000*%
%ADD23C,1.600000*%
%ADD24R,1.700000X1.700000*%
%ADD25C,1.700000*%
%ADD26R,1.500000X1.500000*%
%ADD27C,1.500000*%
%ADD28RoundRect,0.250000X0.550000X0.550000X-0.550000X0.550000X-0.550000X-0.550000X0.550000X-0.550000X0*%
%ADD29RoundRect,0.250000X0.625000X-0.350000X0.625000X0.350000X-0.625000X0.350000X-0.625000X-0.350000X0*%
%ADD30O,1.750000X1.200000*%
%ADD31RoundRect,0.250000X0.550000X-0.550000X0.550000X0.550000X-0.550000X0.550000X-0.550000X-0.550000X0*%
%ADD32RoundRect,0.250000X-0.950000X-0.550000X0.950000X-0.550000X0.950000X0.550000X-0.950000X0.550000X0*%
%ADD33O,2.400000X1.600000*%
%ADD34RoundRect,0.250000X-0.600000X-0.725000X0.600000X-0.725000X0.600000X0.725000X-0.600000X0.725000X0*%
%ADD35O,1.700000X1.950000*%
%ADD36RoundRect,0.249999X0.850001X-0.850001X0.850001X0.850001X-0.850001X0.850001X-0.850001X-0.850001X0*%
%ADD37C,2.200000*%
%ADD38RoundRect,0.250000X-0.550000X0.550000X-0.550000X-0.550000X0.550000X-0.550000X0.550000X0.550000X0*%
%ADD39RoundRect,0.250000X-0.550000X-0.550000X0.550000X-0.550000X0.550000X0.550000X-0.550000X0.550000X0*%
%ADD40RoundRect,0.250000X0.550000X-0.950000X0.550000X0.950000X-0.550000X0.950000X-0.550000X-0.950000X0*%
%ADD41O,1.600000X2.400000*%
G04 APERTURE END LIST*
D10*
X3507143Y-38058557D02*
X2992857Y-38058557D01*
X3250000Y-38058557D02*
X3250000Y-37158557D01*
X3250000Y-37158557D02*
X3164286Y-37287128D01*
X3164286Y-37287128D02*
X3078571Y-37372842D01*
X3078571Y-37372842D02*
X2992857Y-37415700D01*
X4239285Y-14408557D02*
X4239285Y-13508557D01*
X4753571Y-14408557D02*
X4367857Y-13894271D01*
X4753571Y-13508557D02*
X4239285Y-14022842D01*
X6435714Y-16908557D02*
X6435714Y-16008557D01*
X7378571Y-16908557D02*
X7078571Y-16479985D01*
X6864285Y-16908557D02*
X6864285Y-16008557D01*
X6864285Y-16008557D02*
X7207142Y-16008557D01*
X7207142Y-16008557D02*
X7292857Y-16051414D01*
X7292857Y-16051414D02*
X7335714Y-16094271D01*
X7335714Y-16094271D02*
X7378571Y-16179985D01*
X7378571Y-16179985D02*
X7378571Y-16308557D01*
X7378571Y-16308557D02*
X7335714Y-16394271D01*
X7335714Y-16394271D02*
X7292857Y-16437128D01*
X7292857Y-16437128D02*
X7207142Y-16479985D01*
X7207142Y-16479985D02*
X6864285Y-16479985D01*
X8321428Y-16008557D02*
X8835714Y-16008557D01*
X8578571Y-16908557D02*
X8578571Y-16008557D01*
X9049999Y-16008557D02*
X9649999Y-16908557D01*
X9649999Y-16008557D02*
X9049999Y-16908557D01*
X11685714Y-104408557D02*
X11685714Y-103508557D01*
X11685714Y-103508557D02*
X11900000Y-103508557D01*
X11900000Y-103508557D02*
X12028571Y-103551414D01*
X12028571Y-103551414D02*
X12114286Y-103637128D01*
X12114286Y-103637128D02*
X12157143Y-103722842D01*
X12157143Y-103722842D02*
X12200000Y-103894271D01*
X12200000Y-103894271D02*
X12200000Y-104022842D01*
X12200000Y-104022842D02*
X12157143Y-104194271D01*
X12157143Y-104194271D02*
X12114286Y-104279985D01*
X12114286Y-104279985D02*
X12028571Y-104365700D01*
X12028571Y-104365700D02*
X11900000Y-104408557D01*
X11900000Y-104408557D02*
X11685714Y-104408557D01*
X12500000Y-103508557D02*
X13057143Y-103508557D01*
X13057143Y-103508557D02*
X12757143Y-103851414D01*
X12757143Y-103851414D02*
X12885714Y-103851414D01*
X12885714Y-103851414D02*
X12971429Y-103894271D01*
X12971429Y-103894271D02*
X13014286Y-103937128D01*
X13014286Y-103937128D02*
X13057143Y-104022842D01*
X13057143Y-104022842D02*
X13057143Y-104237128D01*
X13057143Y-104237128D02*
X13014286Y-104322842D01*
X13014286Y-104322842D02*
X12971429Y-104365700D01*
X12971429Y-104365700D02*
X12885714Y-104408557D01*
X12885714Y-104408557D02*
X12628571Y-104408557D01*
X12628571Y-104408557D02*
X12542857Y-104365700D01*
X12542857Y-104365700D02*
X12500000Y-104322842D01*
X14085714Y-104365700D02*
X14214286Y-104408557D01*
X14214286Y-104408557D02*
X14428571Y-104408557D01*
X14428571Y-104408557D02*
X14514286Y-104365700D01*
X14514286Y-104365700D02*
X14557143Y-104322842D01*
X14557143Y-104322842D02*
X14600000Y-104237128D01*
X14600000Y-104237128D02*
X14600000Y-104151414D01*
X14600000Y-104151414D02*
X14557143Y-104065700D01*
X14557143Y-104065700D02*
X14514286Y-104022842D01*
X14514286Y-104022842D02*
X14428571Y-103979985D01*
X14428571Y-103979985D02*
X14257143Y-103937128D01*
X14257143Y-103937128D02*
X14171428Y-103894271D01*
X14171428Y-103894271D02*
X14128571Y-103851414D01*
X14128571Y-103851414D02*
X14085714Y-103765700D01*
X14085714Y-103765700D02*
X14085714Y-103679985D01*
X14085714Y-103679985D02*
X14128571Y-103594271D01*
X14128571Y-103594271D02*
X14171428Y-103551414D01*
X14171428Y-103551414D02*
X14257143Y-103508557D01*
X14257143Y-103508557D02*
X14471428Y-103508557D01*
X14471428Y-103508557D02*
X14600000Y-103551414D01*
X15157143Y-103508557D02*
X15328571Y-103508557D01*
X15328571Y-103508557D02*
X15414286Y-103551414D01*
X15414286Y-103551414D02*
X15500000Y-103637128D01*
X15500000Y-103637128D02*
X15542857Y-103808557D01*
X15542857Y-103808557D02*
X15542857Y-104108557D01*
X15542857Y-104108557D02*
X15500000Y-104279985D01*
X15500000Y-104279985D02*
X15414286Y-104365700D01*
X15414286Y-104365700D02*
X15328571Y-104408557D01*
X15328571Y-104408557D02*
X15157143Y-104408557D01*
X15157143Y-104408557D02*
X15071429Y-104365700D01*
X15071429Y-104365700D02*
X14985714Y-104279985D01*
X14985714Y-104279985D02*
X14942857Y-104108557D01*
X14942857Y-104108557D02*
X14942857Y-103808557D01*
X14942857Y-103808557D02*
X14985714Y-103637128D01*
X14985714Y-103637128D02*
X15071429Y-103551414D01*
X15071429Y-103551414D02*
X15157143Y-103508557D01*
X16442857Y-104322842D02*
X16400000Y-104365700D01*
X16400000Y-104365700D02*
X16271428Y-104408557D01*
X16271428Y-104408557D02*
X16185714Y-104408557D01*
X16185714Y-104408557D02*
X16057143Y-104365700D01*
X16057143Y-104365700D02*
X15971428Y-104279985D01*
X15971428Y-104279985D02*
X15928571Y-104194271D01*
X15928571Y-104194271D02*
X15885714Y-104022842D01*
X15885714Y-104022842D02*
X15885714Y-103894271D01*
X15885714Y-103894271D02*
X15928571Y-103722842D01*
X15928571Y-103722842D02*
X15971428Y-103637128D01*
X15971428Y-103637128D02*
X16057143Y-103551414D01*
X16057143Y-103551414D02*
X16185714Y-103508557D01*
X16185714Y-103508557D02*
X16271428Y-103508557D01*
X16271428Y-103508557D02*
X16400000Y-103551414D01*
X16400000Y-103551414D02*
X16442857Y-103594271D01*
X16828571Y-104408557D02*
X16828571Y-103508557D01*
X17342857Y-104408557D02*
X16957143Y-103894271D01*
X17342857Y-103508557D02*
X16828571Y-104022842D01*
X17728571Y-103937128D02*
X18028571Y-103937128D01*
X18157143Y-104408557D02*
X17728571Y-104408557D01*
X17728571Y-104408557D02*
X17728571Y-103508557D01*
X17728571Y-103508557D02*
X18157143Y-103508557D01*
X18414286Y-103508557D02*
X18928572Y-103508557D01*
X18671429Y-104408557D02*
X18671429Y-103508557D01*
X19228571Y-104322842D02*
X19271428Y-104365700D01*
X19271428Y-104365700D02*
X19228571Y-104408557D01*
X19228571Y-104408557D02*
X19185714Y-104365700D01*
X19185714Y-104365700D02*
X19228571Y-104322842D01*
X19228571Y-104322842D02*
X19228571Y-104408557D01*
X19228571Y-103851414D02*
X19271428Y-103894271D01*
X19271428Y-103894271D02*
X19228571Y-103937128D01*
X19228571Y-103937128D02*
X19185714Y-103894271D01*
X19185714Y-103894271D02*
X19228571Y-103851414D01*
X19228571Y-103851414D02*
X19228571Y-103937128D01*
X20642856Y-103937128D02*
X20342856Y-103937128D01*
X20342856Y-104408557D02*
X20342856Y-103508557D01*
X20342856Y-103508557D02*
X20771428Y-103508557D01*
X21285714Y-103508557D02*
X21457142Y-103508557D01*
X21457142Y-103508557D02*
X21542857Y-103551414D01*
X21542857Y-103551414D02*
X21628571Y-103637128D01*
X21628571Y-103637128D02*
X21671428Y-103808557D01*
X21671428Y-103808557D02*
X21671428Y-104108557D01*
X21671428Y-104108557D02*
X21628571Y-104279985D01*
X21628571Y-104279985D02*
X21542857Y-104365700D01*
X21542857Y-104365700D02*
X21457142Y-104408557D01*
X21457142Y-104408557D02*
X21285714Y-104408557D01*
X21285714Y-104408557D02*
X21200000Y-104365700D01*
X21200000Y-104365700D02*
X21114285Y-104279985D01*
X21114285Y-104279985D02*
X21071428Y-104108557D01*
X21071428Y-104108557D02*
X21071428Y-103808557D01*
X21071428Y-103808557D02*
X21114285Y-103637128D01*
X21114285Y-103637128D02*
X21200000Y-103551414D01*
X21200000Y-103551414D02*
X21285714Y-103508557D01*
X22571428Y-104408557D02*
X22271428Y-103979985D01*
X22057142Y-104408557D02*
X22057142Y-103508557D01*
X22057142Y-103508557D02*
X22399999Y-103508557D01*
X22399999Y-103508557D02*
X22485714Y-103551414D01*
X22485714Y-103551414D02*
X22528571Y-103594271D01*
X22528571Y-103594271D02*
X22571428Y-103679985D01*
X22571428Y-103679985D02*
X22571428Y-103808557D01*
X22571428Y-103808557D02*
X22528571Y-103894271D01*
X22528571Y-103894271D02*
X22485714Y-103937128D01*
X22485714Y-103937128D02*
X22399999Y-103979985D01*
X22399999Y-103979985D02*
X22057142Y-103979985D01*
X22957142Y-104408557D02*
X22957142Y-103508557D01*
X22957142Y-103508557D02*
X23257142Y-104151414D01*
X23257142Y-104151414D02*
X23557142Y-103508557D01*
X23557142Y-103508557D02*
X23557142Y-104408557D01*
X25099999Y-104408557D02*
X24671427Y-104408557D01*
X24671427Y-104408557D02*
X24671427Y-103508557D01*
X25399998Y-103937128D02*
X25699998Y-103937128D01*
X25828570Y-104408557D02*
X25399998Y-104408557D01*
X25399998Y-104408557D02*
X25399998Y-103508557D01*
X25399998Y-103508557D02*
X25828570Y-103508557D01*
X26171427Y-104151414D02*
X26599999Y-104151414D01*
X26085713Y-104408557D02*
X26385713Y-103508557D01*
X26385713Y-103508557D02*
X26685713Y-104408557D01*
X26985713Y-104408557D02*
X26985713Y-103508557D01*
X26985713Y-103508557D02*
X27199999Y-103508557D01*
X27199999Y-103508557D02*
X27328570Y-103551414D01*
X27328570Y-103551414D02*
X27414285Y-103637128D01*
X27414285Y-103637128D02*
X27457142Y-103722842D01*
X27457142Y-103722842D02*
X27499999Y-103894271D01*
X27499999Y-103894271D02*
X27499999Y-104022842D01*
X27499999Y-104022842D02*
X27457142Y-104194271D01*
X27457142Y-104194271D02*
X27414285Y-104279985D01*
X27414285Y-104279985D02*
X27328570Y-104365700D01*
X27328570Y-104365700D02*
X27199999Y-104408557D01*
X27199999Y-104408557D02*
X26985713Y-104408557D01*
X27842856Y-104365700D02*
X27971428Y-104408557D01*
X27971428Y-104408557D02*
X28185713Y-104408557D01*
X28185713Y-104408557D02*
X28271428Y-104365700D01*
X28271428Y-104365700D02*
X28314285Y-104322842D01*
X28314285Y-104322842D02*
X28357142Y-104237128D01*
X28357142Y-104237128D02*
X28357142Y-104151414D01*
X28357142Y-104151414D02*
X28314285Y-104065700D01*
X28314285Y-104065700D02*
X28271428Y-104022842D01*
X28271428Y-104022842D02*
X28185713Y-103979985D01*
X28185713Y-103979985D02*
X28014285Y-103937128D01*
X28014285Y-103937128D02*
X27928570Y-103894271D01*
X27928570Y-103894271D02*
X27885713Y-103851414D01*
X27885713Y-103851414D02*
X27842856Y-103765700D01*
X27842856Y-103765700D02*
X27842856Y-103679985D01*
X27842856Y-103679985D02*
X27885713Y-103594271D01*
X27885713Y-103594271D02*
X27928570Y-103551414D01*
X27928570Y-103551414D02*
X28014285Y-103508557D01*
X28014285Y-103508557D02*
X28228570Y-103508557D01*
X28228570Y-103508557D02*
X28357142Y-103551414D01*
X18578571Y-3408557D02*
X18578571Y-2508557D01*
X19521428Y-3408557D02*
X19221428Y-2979985D01*
X19007142Y-3408557D02*
X19007142Y-2508557D01*
X19007142Y-2508557D02*
X19349999Y-2508557D01*
X19349999Y-2508557D02*
X19435714Y-2551414D01*
X19435714Y-2551414D02*
X19478571Y-2594271D01*
X19478571Y-2594271D02*
X19521428Y-2679985D01*
X19521428Y-2679985D02*
X19521428Y-2808557D01*
X19521428Y-2808557D02*
X19478571Y-2894271D01*
X19478571Y-2894271D02*
X19435714Y-2937128D01*
X19435714Y-2937128D02*
X19349999Y-2979985D01*
X19349999Y-2979985D02*
X19007142Y-2979985D01*
X21107142Y-3408557D02*
X20807142Y-2979985D01*
X20592856Y-3408557D02*
X20592856Y-2508557D01*
X20592856Y-2508557D02*
X20935713Y-2508557D01*
X20935713Y-2508557D02*
X21021428Y-2551414D01*
X21021428Y-2551414D02*
X21064285Y-2594271D01*
X21064285Y-2594271D02*
X21107142Y-2679985D01*
X21107142Y-2679985D02*
X21107142Y-2808557D01*
X21107142Y-2808557D02*
X21064285Y-2894271D01*
X21064285Y-2894271D02*
X21021428Y-2937128D01*
X21021428Y-2937128D02*
X20935713Y-2979985D01*
X20935713Y-2979985D02*
X20592856Y-2979985D01*
X21407142Y-2508557D02*
X22007142Y-3408557D01*
X22007142Y-2508557D02*
X21407142Y-3408557D01*
X22557143Y-11408557D02*
X22042857Y-11408557D01*
X22300000Y-11408557D02*
X22300000Y-10508557D01*
X22300000Y-10508557D02*
X22214286Y-10637128D01*
X22214286Y-10637128D02*
X22128571Y-10722842D01*
X22128571Y-10722842D02*
X22042857Y-10765700D01*
X22685714Y-24758557D02*
X23200000Y-24758557D01*
X22942857Y-25658557D02*
X22942857Y-24758557D01*
X23499999Y-25658557D02*
X23499999Y-24758557D01*
X23499999Y-24758557D02*
X23842856Y-24758557D01*
X23842856Y-24758557D02*
X23928571Y-24801414D01*
X23928571Y-24801414D02*
X23971428Y-24844271D01*
X23971428Y-24844271D02*
X24014285Y-24929985D01*
X24014285Y-24929985D02*
X24014285Y-25058557D01*
X24014285Y-25058557D02*
X23971428Y-25144271D01*
X23971428Y-25144271D02*
X23928571Y-25187128D01*
X23928571Y-25187128D02*
X23842856Y-25229985D01*
X23842856Y-25229985D02*
X23499999Y-25229985D01*
X24314285Y-24758557D02*
X24871428Y-24758557D01*
X24871428Y-24758557D02*
X24571428Y-25101414D01*
X24571428Y-25101414D02*
X24699999Y-25101414D01*
X24699999Y-25101414D02*
X24785714Y-25144271D01*
X24785714Y-25144271D02*
X24828571Y-25187128D01*
X24828571Y-25187128D02*
X24871428Y-25272842D01*
X24871428Y-25272842D02*
X24871428Y-25487128D01*
X24871428Y-25487128D02*
X24828571Y-25572842D01*
X24828571Y-25572842D02*
X24785714Y-25615700D01*
X24785714Y-25615700D02*
X24699999Y-25658557D01*
X24699999Y-25658557D02*
X24442856Y-25658557D01*
X24442856Y-25658557D02*
X24357142Y-25615700D01*
X24357142Y-25615700D02*
X24314285Y-25572842D01*
X25171428Y-24758557D02*
X25728571Y-24758557D01*
X25728571Y-24758557D02*
X25428571Y-25101414D01*
X25428571Y-25101414D02*
X25557142Y-25101414D01*
X25557142Y-25101414D02*
X25642857Y-25144271D01*
X25642857Y-25144271D02*
X25685714Y-25187128D01*
X25685714Y-25187128D02*
X25728571Y-25272842D01*
X25728571Y-25272842D02*
X25728571Y-25487128D01*
X25728571Y-25487128D02*
X25685714Y-25572842D01*
X25685714Y-25572842D02*
X25642857Y-25615700D01*
X25642857Y-25615700D02*
X25557142Y-25658557D01*
X25557142Y-25658557D02*
X25299999Y-25658557D01*
X25299999Y-25658557D02*
X25214285Y-25615700D01*
X25214285Y-25615700D02*
X25171428Y-25572842D01*
X28617143Y-10658557D02*
X28102857Y-10658557D01*
X28360000Y-10658557D02*
X28360000Y-9758557D01*
X28360000Y-9758557D02*
X28274286Y-9887128D01*
X28274286Y-9887128D02*
X28188571Y-9972842D01*
X28188571Y-9972842D02*
X28102857Y-10015700D01*
X34364286Y-20258557D02*
X34878572Y-20258557D01*
X34621429Y-21158557D02*
X34621429Y-20258557D01*
X35178571Y-21158557D02*
X35178571Y-20258557D01*
X35178571Y-20258557D02*
X35521428Y-20258557D01*
X35521428Y-20258557D02*
X35607143Y-20301414D01*
X35607143Y-20301414D02*
X35650000Y-20344271D01*
X35650000Y-20344271D02*
X35692857Y-20429985D01*
X35692857Y-20429985D02*
X35692857Y-20558557D01*
X35692857Y-20558557D02*
X35650000Y-20644271D01*
X35650000Y-20644271D02*
X35607143Y-20687128D01*
X35607143Y-20687128D02*
X35521428Y-20729985D01*
X35521428Y-20729985D02*
X35178571Y-20729985D01*
X36121428Y-21158557D02*
X36292857Y-21158557D01*
X36292857Y-21158557D02*
X36378571Y-21115700D01*
X36378571Y-21115700D02*
X36421428Y-21072842D01*
X36421428Y-21072842D02*
X36507143Y-20944271D01*
X36507143Y-20944271D02*
X36550000Y-20772842D01*
X36550000Y-20772842D02*
X36550000Y-20429985D01*
X36550000Y-20429985D02*
X36507143Y-20344271D01*
X36507143Y-20344271D02*
X36464286Y-20301414D01*
X36464286Y-20301414D02*
X36378571Y-20258557D01*
X36378571Y-20258557D02*
X36207143Y-20258557D01*
X36207143Y-20258557D02*
X36121428Y-20301414D01*
X36121428Y-20301414D02*
X36078571Y-20344271D01*
X36078571Y-20344271D02*
X36035714Y-20429985D01*
X36035714Y-20429985D02*
X36035714Y-20644271D01*
X36035714Y-20644271D02*
X36078571Y-20729985D01*
X36078571Y-20729985D02*
X36121428Y-20772842D01*
X36121428Y-20772842D02*
X36207143Y-20815700D01*
X36207143Y-20815700D02*
X36378571Y-20815700D01*
X36378571Y-20815700D02*
X36464286Y-20772842D01*
X36464286Y-20772842D02*
X36507143Y-20729985D01*
X36507143Y-20729985D02*
X36550000Y-20644271D01*
X39864286Y-32258557D02*
X40378572Y-32258557D01*
X40121429Y-33158557D02*
X40121429Y-32258557D01*
X40678571Y-33158557D02*
X40678571Y-32258557D01*
X40678571Y-32258557D02*
X41021428Y-32258557D01*
X41021428Y-32258557D02*
X41107143Y-32301414D01*
X41107143Y-32301414D02*
X41150000Y-32344271D01*
X41150000Y-32344271D02*
X41192857Y-32429985D01*
X41192857Y-32429985D02*
X41192857Y-32558557D01*
X41192857Y-32558557D02*
X41150000Y-32644271D01*
X41150000Y-32644271D02*
X41107143Y-32687128D01*
X41107143Y-32687128D02*
X41021428Y-32729985D01*
X41021428Y-32729985D02*
X40678571Y-32729985D01*
X41964286Y-32258557D02*
X41792857Y-32258557D01*
X41792857Y-32258557D02*
X41707143Y-32301414D01*
X41707143Y-32301414D02*
X41664286Y-32344271D01*
X41664286Y-32344271D02*
X41578571Y-32472842D01*
X41578571Y-32472842D02*
X41535714Y-32644271D01*
X41535714Y-32644271D02*
X41535714Y-32987128D01*
X41535714Y-32987128D02*
X41578571Y-33072842D01*
X41578571Y-33072842D02*
X41621428Y-33115700D01*
X41621428Y-33115700D02*
X41707143Y-33158557D01*
X41707143Y-33158557D02*
X41878571Y-33158557D01*
X41878571Y-33158557D02*
X41964286Y-33115700D01*
X41964286Y-33115700D02*
X42007143Y-33072842D01*
X42007143Y-33072842D02*
X42050000Y-32987128D01*
X42050000Y-32987128D02*
X42050000Y-32772842D01*
X42050000Y-32772842D02*
X42007143Y-32687128D01*
X42007143Y-32687128D02*
X41964286Y-32644271D01*
X41964286Y-32644271D02*
X41878571Y-32601414D01*
X41878571Y-32601414D02*
X41707143Y-32601414D01*
X41707143Y-32601414D02*
X41621428Y-32644271D01*
X41621428Y-32644271D02*
X41578571Y-32687128D01*
X41578571Y-32687128D02*
X41535714Y-32772842D01*
X41185714Y-55508557D02*
X41700000Y-55508557D01*
X41442857Y-56408557D02*
X41442857Y-55508557D01*
X41999999Y-56408557D02*
X41999999Y-55508557D01*
X41999999Y-55508557D02*
X42342856Y-55508557D01*
X42342856Y-55508557D02*
X42428571Y-55551414D01*
X42428571Y-55551414D02*
X42471428Y-55594271D01*
X42471428Y-55594271D02*
X42514285Y-55679985D01*
X42514285Y-55679985D02*
X42514285Y-55808557D01*
X42514285Y-55808557D02*
X42471428Y-55894271D01*
X42471428Y-55894271D02*
X42428571Y-55937128D01*
X42428571Y-55937128D02*
X42342856Y-55979985D01*
X42342856Y-55979985D02*
X41999999Y-55979985D01*
X42857142Y-55594271D02*
X42899999Y-55551414D01*
X42899999Y-55551414D02*
X42985714Y-55508557D01*
X42985714Y-55508557D02*
X43199999Y-55508557D01*
X43199999Y-55508557D02*
X43285714Y-55551414D01*
X43285714Y-55551414D02*
X43328571Y-55594271D01*
X43328571Y-55594271D02*
X43371428Y-55679985D01*
X43371428Y-55679985D02*
X43371428Y-55765700D01*
X43371428Y-55765700D02*
X43328571Y-55894271D01*
X43328571Y-55894271D02*
X42814285Y-56408557D01*
X42814285Y-56408557D02*
X43371428Y-56408557D01*
X43671428Y-55508557D02*
X44228571Y-55508557D01*
X44228571Y-55508557D02*
X43928571Y-55851414D01*
X43928571Y-55851414D02*
X44057142Y-55851414D01*
X44057142Y-55851414D02*
X44142857Y-55894271D01*
X44142857Y-55894271D02*
X44185714Y-55937128D01*
X44185714Y-55937128D02*
X44228571Y-56022842D01*
X44228571Y-56022842D02*
X44228571Y-56237128D01*
X44228571Y-56237128D02*
X44185714Y-56322842D01*
X44185714Y-56322842D02*
X44142857Y-56365700D01*
X44142857Y-56365700D02*
X44057142Y-56408557D01*
X44057142Y-56408557D02*
X43799999Y-56408557D01*
X43799999Y-56408557D02*
X43714285Y-56365700D01*
X43714285Y-56365700D02*
X43671428Y-56322842D01*
X49185714Y-13258557D02*
X49700000Y-13258557D01*
X49442857Y-14158557D02*
X49442857Y-13258557D01*
X49999999Y-14158557D02*
X49999999Y-13258557D01*
X49999999Y-13258557D02*
X50342856Y-13258557D01*
X50342856Y-13258557D02*
X50428571Y-13301414D01*
X50428571Y-13301414D02*
X50471428Y-13344271D01*
X50471428Y-13344271D02*
X50514285Y-13429985D01*
X50514285Y-13429985D02*
X50514285Y-13558557D01*
X50514285Y-13558557D02*
X50471428Y-13644271D01*
X50471428Y-13644271D02*
X50428571Y-13687128D01*
X50428571Y-13687128D02*
X50342856Y-13729985D01*
X50342856Y-13729985D02*
X49999999Y-13729985D01*
X51371428Y-14158557D02*
X50857142Y-14158557D01*
X51114285Y-14158557D02*
X51114285Y-13258557D01*
X51114285Y-13258557D02*
X51028571Y-13387128D01*
X51028571Y-13387128D02*
X50942856Y-13472842D01*
X50942856Y-13472842D02*
X50857142Y-13515700D01*
X51671428Y-13258557D02*
X52228571Y-13258557D01*
X52228571Y-13258557D02*
X51928571Y-13601414D01*
X51928571Y-13601414D02*
X52057142Y-13601414D01*
X52057142Y-13601414D02*
X52142857Y-13644271D01*
X52142857Y-13644271D02*
X52185714Y-13687128D01*
X52185714Y-13687128D02*
X52228571Y-13772842D01*
X52228571Y-13772842D02*
X52228571Y-13987128D01*
X52228571Y-13987128D02*
X52185714Y-14072842D01*
X52185714Y-14072842D02*
X52142857Y-14115700D01*
X52142857Y-14115700D02*
X52057142Y-14158557D01*
X52057142Y-14158557D02*
X51799999Y-14158557D01*
X51799999Y-14158557D02*
X51714285Y-14115700D01*
X51714285Y-14115700D02*
X51671428Y-14072842D01*
X49435714Y-59758557D02*
X49950000Y-59758557D01*
X49692857Y-60658557D02*
X49692857Y-59758557D01*
X50249999Y-60658557D02*
X50249999Y-59758557D01*
X50249999Y-59758557D02*
X50592856Y-59758557D01*
X50592856Y-59758557D02*
X50678571Y-59801414D01*
X50678571Y-59801414D02*
X50721428Y-59844271D01*
X50721428Y-59844271D02*
X50764285Y-59929985D01*
X50764285Y-59929985D02*
X50764285Y-60058557D01*
X50764285Y-60058557D02*
X50721428Y-60144271D01*
X50721428Y-60144271D02*
X50678571Y-60187128D01*
X50678571Y-60187128D02*
X50592856Y-60229985D01*
X50592856Y-60229985D02*
X50249999Y-60229985D01*
X51107142Y-59844271D02*
X51149999Y-59801414D01*
X51149999Y-59801414D02*
X51235714Y-59758557D01*
X51235714Y-59758557D02*
X51449999Y-59758557D01*
X51449999Y-59758557D02*
X51535714Y-59801414D01*
X51535714Y-59801414D02*
X51578571Y-59844271D01*
X51578571Y-59844271D02*
X51621428Y-59929985D01*
X51621428Y-59929985D02*
X51621428Y-60015700D01*
X51621428Y-60015700D02*
X51578571Y-60144271D01*
X51578571Y-60144271D02*
X51064285Y-60658557D01*
X51064285Y-60658557D02*
X51621428Y-60658557D01*
X52478571Y-60658557D02*
X51964285Y-60658557D01*
X52221428Y-60658557D02*
X52221428Y-59758557D01*
X52221428Y-59758557D02*
X52135714Y-59887128D01*
X52135714Y-59887128D02*
X52049999Y-59972842D01*
X52049999Y-59972842D02*
X51964285Y-60015700D01*
X51435714Y-18758557D02*
X51950000Y-18758557D01*
X51692857Y-19658557D02*
X51692857Y-18758557D01*
X52249999Y-19658557D02*
X52249999Y-18758557D01*
X52249999Y-18758557D02*
X52592856Y-18758557D01*
X52592856Y-18758557D02*
X52678571Y-18801414D01*
X52678571Y-18801414D02*
X52721428Y-18844271D01*
X52721428Y-18844271D02*
X52764285Y-18929985D01*
X52764285Y-18929985D02*
X52764285Y-19058557D01*
X52764285Y-19058557D02*
X52721428Y-19144271D01*
X52721428Y-19144271D02*
X52678571Y-19187128D01*
X52678571Y-19187128D02*
X52592856Y-19229985D01*
X52592856Y-19229985D02*
X52249999Y-19229985D01*
X53621428Y-19658557D02*
X53107142Y-19658557D01*
X53364285Y-19658557D02*
X53364285Y-18758557D01*
X53364285Y-18758557D02*
X53278571Y-18887128D01*
X53278571Y-18887128D02*
X53192856Y-18972842D01*
X53192856Y-18972842D02*
X53107142Y-19015700D01*
X54392857Y-18758557D02*
X54221428Y-18758557D01*
X54221428Y-18758557D02*
X54135714Y-18801414D01*
X54135714Y-18801414D02*
X54092857Y-18844271D01*
X54092857Y-18844271D02*
X54007142Y-18972842D01*
X54007142Y-18972842D02*
X53964285Y-19144271D01*
X53964285Y-19144271D02*
X53964285Y-19487128D01*
X53964285Y-19487128D02*
X54007142Y-19572842D01*
X54007142Y-19572842D02*
X54049999Y-19615700D01*
X54049999Y-19615700D02*
X54135714Y-19658557D01*
X54135714Y-19658557D02*
X54307142Y-19658557D01*
X54307142Y-19658557D02*
X54392857Y-19615700D01*
X54392857Y-19615700D02*
X54435714Y-19572842D01*
X54435714Y-19572842D02*
X54478571Y-19487128D01*
X54478571Y-19487128D02*
X54478571Y-19272842D01*
X54478571Y-19272842D02*
X54435714Y-19187128D01*
X54435714Y-19187128D02*
X54392857Y-19144271D01*
X54392857Y-19144271D02*
X54307142Y-19101414D01*
X54307142Y-19101414D02*
X54135714Y-19101414D01*
X54135714Y-19101414D02*
X54049999Y-19144271D01*
X54049999Y-19144271D02*
X54007142Y-19187128D01*
X54007142Y-19187128D02*
X53964285Y-19272842D01*
X51935714Y-23758557D02*
X52450000Y-23758557D01*
X52192857Y-24658557D02*
X52192857Y-23758557D01*
X52749999Y-24658557D02*
X52749999Y-23758557D01*
X52749999Y-23758557D02*
X53092856Y-23758557D01*
X53092856Y-23758557D02*
X53178571Y-23801414D01*
X53178571Y-23801414D02*
X53221428Y-23844271D01*
X53221428Y-23844271D02*
X53264285Y-23929985D01*
X53264285Y-23929985D02*
X53264285Y-24058557D01*
X53264285Y-24058557D02*
X53221428Y-24144271D01*
X53221428Y-24144271D02*
X53178571Y-24187128D01*
X53178571Y-24187128D02*
X53092856Y-24229985D01*
X53092856Y-24229985D02*
X52749999Y-24229985D01*
X53607142Y-23844271D02*
X53649999Y-23801414D01*
X53649999Y-23801414D02*
X53735714Y-23758557D01*
X53735714Y-23758557D02*
X53949999Y-23758557D01*
X53949999Y-23758557D02*
X54035714Y-23801414D01*
X54035714Y-23801414D02*
X54078571Y-23844271D01*
X54078571Y-23844271D02*
X54121428Y-23929985D01*
X54121428Y-23929985D02*
X54121428Y-24015700D01*
X54121428Y-24015700D02*
X54078571Y-24144271D01*
X54078571Y-24144271D02*
X53564285Y-24658557D01*
X53564285Y-24658557D02*
X54121428Y-24658557D01*
X54464285Y-23844271D02*
X54507142Y-23801414D01*
X54507142Y-23801414D02*
X54592857Y-23758557D01*
X54592857Y-23758557D02*
X54807142Y-23758557D01*
X54807142Y-23758557D02*
X54892857Y-23801414D01*
X54892857Y-23801414D02*
X54935714Y-23844271D01*
X54935714Y-23844271D02*
X54978571Y-23929985D01*
X54978571Y-23929985D02*
X54978571Y-24015700D01*
X54978571Y-24015700D02*
X54935714Y-24144271D01*
X54935714Y-24144271D02*
X54421428Y-24658557D01*
X54421428Y-24658557D02*
X54978571Y-24658557D01*
X58864286Y-46258557D02*
X59378572Y-46258557D01*
X59121429Y-47158557D02*
X59121429Y-46258557D01*
X59678571Y-47158557D02*
X59678571Y-46258557D01*
X59678571Y-46258557D02*
X60021428Y-46258557D01*
X60021428Y-46258557D02*
X60107143Y-46301414D01*
X60107143Y-46301414D02*
X60150000Y-46344271D01*
X60150000Y-46344271D02*
X60192857Y-46429985D01*
X60192857Y-46429985D02*
X60192857Y-46558557D01*
X60192857Y-46558557D02*
X60150000Y-46644271D01*
X60150000Y-46644271D02*
X60107143Y-46687128D01*
X60107143Y-46687128D02*
X60021428Y-46729985D01*
X60021428Y-46729985D02*
X59678571Y-46729985D01*
X61050000Y-47158557D02*
X60535714Y-47158557D01*
X60792857Y-47158557D02*
X60792857Y-46258557D01*
X60792857Y-46258557D02*
X60707143Y-46387128D01*
X60707143Y-46387128D02*
X60621428Y-46472842D01*
X60621428Y-46472842D02*
X60535714Y-46515700D01*
X58192857Y-32508557D02*
X58192857Y-33237128D01*
X58192857Y-33237128D02*
X58235714Y-33322842D01*
X58235714Y-33322842D02*
X58278572Y-33365700D01*
X58278572Y-33365700D02*
X58364286Y-33408557D01*
X58364286Y-33408557D02*
X58535714Y-33408557D01*
X58535714Y-33408557D02*
X58621429Y-33365700D01*
X58621429Y-33365700D02*
X58664286Y-33322842D01*
X58664286Y-33322842D02*
X58707143Y-33237128D01*
X58707143Y-33237128D02*
X58707143Y-32508557D01*
X59092857Y-33365700D02*
X59221429Y-33408557D01*
X59221429Y-33408557D02*
X59435714Y-33408557D01*
X59435714Y-33408557D02*
X59521429Y-33365700D01*
X59521429Y-33365700D02*
X59564286Y-33322842D01*
X59564286Y-33322842D02*
X59607143Y-33237128D01*
X59607143Y-33237128D02*
X59607143Y-33151414D01*
X59607143Y-33151414D02*
X59564286Y-33065700D01*
X59564286Y-33065700D02*
X59521429Y-33022842D01*
X59521429Y-33022842D02*
X59435714Y-32979985D01*
X59435714Y-32979985D02*
X59264286Y-32937128D01*
X59264286Y-32937128D02*
X59178571Y-32894271D01*
X59178571Y-32894271D02*
X59135714Y-32851414D01*
X59135714Y-32851414D02*
X59092857Y-32765700D01*
X59092857Y-32765700D02*
X59092857Y-32679985D01*
X59092857Y-32679985D02*
X59135714Y-32594271D01*
X59135714Y-32594271D02*
X59178571Y-32551414D01*
X59178571Y-32551414D02*
X59264286Y-32508557D01*
X59264286Y-32508557D02*
X59478571Y-32508557D01*
X59478571Y-32508557D02*
X59607143Y-32551414D01*
X60292857Y-32937128D02*
X60421429Y-32979985D01*
X60421429Y-32979985D02*
X60464286Y-33022842D01*
X60464286Y-33022842D02*
X60507143Y-33108557D01*
X60507143Y-33108557D02*
X60507143Y-33237128D01*
X60507143Y-33237128D02*
X60464286Y-33322842D01*
X60464286Y-33322842D02*
X60421429Y-33365700D01*
X60421429Y-33365700D02*
X60335714Y-33408557D01*
X60335714Y-33408557D02*
X59992857Y-33408557D01*
X59992857Y-33408557D02*
X59992857Y-32508557D01*
X59992857Y-32508557D02*
X60292857Y-32508557D01*
X60292857Y-32508557D02*
X60378572Y-32551414D01*
X60378572Y-32551414D02*
X60421429Y-32594271D01*
X60421429Y-32594271D02*
X60464286Y-32679985D01*
X60464286Y-32679985D02*
X60464286Y-32765700D01*
X60464286Y-32765700D02*
X60421429Y-32851414D01*
X60421429Y-32851414D02*
X60378572Y-32894271D01*
X60378572Y-32894271D02*
X60292857Y-32937128D01*
X60292857Y-32937128D02*
X59992857Y-32937128D01*
X61578571Y-32937128D02*
X61878571Y-32937128D01*
X62007143Y-33408557D02*
X61578571Y-33408557D01*
X61578571Y-33408557D02*
X61578571Y-32508557D01*
X61578571Y-32508557D02*
X62007143Y-32508557D01*
X62392857Y-33408557D02*
X62392857Y-32508557D01*
X62392857Y-32508557D02*
X62907143Y-33408557D01*
X62907143Y-33408557D02*
X62907143Y-32508557D01*
X63335714Y-33408557D02*
X63335714Y-32508557D01*
X63335714Y-32508557D02*
X63550000Y-32508557D01*
X63550000Y-32508557D02*
X63678571Y-32551414D01*
X63678571Y-32551414D02*
X63764286Y-32637128D01*
X63764286Y-32637128D02*
X63807143Y-32722842D01*
X63807143Y-32722842D02*
X63850000Y-32894271D01*
X63850000Y-32894271D02*
X63850000Y-33022842D01*
X63850000Y-33022842D02*
X63807143Y-33194271D01*
X63807143Y-33194271D02*
X63764286Y-33279985D01*
X63764286Y-33279985D02*
X63678571Y-33365700D01*
X63678571Y-33365700D02*
X63550000Y-33408557D01*
X63550000Y-33408557D02*
X63335714Y-33408557D01*
X54700001Y-111894271D02*
X54614286Y-111851414D01*
X54614286Y-111851414D02*
X54571429Y-111808557D01*
X54571429Y-111808557D02*
X54528572Y-111722842D01*
X54528572Y-111722842D02*
X54528572Y-111679985D01*
X54528572Y-111679985D02*
X54571429Y-111594271D01*
X54571429Y-111594271D02*
X54614286Y-111551414D01*
X54614286Y-111551414D02*
X54700001Y-111508557D01*
X54700001Y-111508557D02*
X54871429Y-111508557D01*
X54871429Y-111508557D02*
X54957144Y-111551414D01*
X54957144Y-111551414D02*
X55000001Y-111594271D01*
X55000001Y-111594271D02*
X55042858Y-111679985D01*
X55042858Y-111679985D02*
X55042858Y-111722842D01*
X55042858Y-111722842D02*
X55000001Y-111808557D01*
X55000001Y-111808557D02*
X54957144Y-111851414D01*
X54957144Y-111851414D02*
X54871429Y-111894271D01*
X54871429Y-111894271D02*
X54700001Y-111894271D01*
X54700001Y-111894271D02*
X54614286Y-111937128D01*
X54614286Y-111937128D02*
X54571429Y-111979985D01*
X54571429Y-111979985D02*
X54528572Y-112065700D01*
X54528572Y-112065700D02*
X54528572Y-112237128D01*
X54528572Y-112237128D02*
X54571429Y-112322842D01*
X54571429Y-112322842D02*
X54614286Y-112365700D01*
X54614286Y-112365700D02*
X54700001Y-112408557D01*
X54700001Y-112408557D02*
X54871429Y-112408557D01*
X54871429Y-112408557D02*
X54957144Y-112365700D01*
X54957144Y-112365700D02*
X55000001Y-112322842D01*
X55000001Y-112322842D02*
X55042858Y-112237128D01*
X55042858Y-112237128D02*
X55042858Y-112065700D01*
X55042858Y-112065700D02*
X55000001Y-111979985D01*
X55000001Y-111979985D02*
X54957144Y-111937128D01*
X54957144Y-111937128D02*
X54871429Y-111894271D01*
X55600001Y-111508557D02*
X55685715Y-111508557D01*
X55685715Y-111508557D02*
X55771429Y-111551414D01*
X55771429Y-111551414D02*
X55814287Y-111594271D01*
X55814287Y-111594271D02*
X55857144Y-111679985D01*
X55857144Y-111679985D02*
X55900001Y-111851414D01*
X55900001Y-111851414D02*
X55900001Y-112065700D01*
X55900001Y-112065700D02*
X55857144Y-112237128D01*
X55857144Y-112237128D02*
X55814287Y-112322842D01*
X55814287Y-112322842D02*
X55771429Y-112365700D01*
X55771429Y-112365700D02*
X55685715Y-112408557D01*
X55685715Y-112408557D02*
X55600001Y-112408557D01*
X55600001Y-112408557D02*
X55514287Y-112365700D01*
X55514287Y-112365700D02*
X55471429Y-112322842D01*
X55471429Y-112322842D02*
X55428572Y-112237128D01*
X55428572Y-112237128D02*
X55385715Y-112065700D01*
X55385715Y-112065700D02*
X55385715Y-111851414D01*
X55385715Y-111851414D02*
X55428572Y-111679985D01*
X55428572Y-111679985D02*
X55471429Y-111594271D01*
X55471429Y-111594271D02*
X55514287Y-111551414D01*
X55514287Y-111551414D02*
X55600001Y-111508557D01*
X56885715Y-112408557D02*
X57357144Y-111808557D01*
X56885715Y-111808557D02*
X57357144Y-112408557D01*
X58857143Y-112408557D02*
X58342857Y-112408557D01*
X58600000Y-112408557D02*
X58600000Y-111508557D01*
X58600000Y-111508557D02*
X58514286Y-111637128D01*
X58514286Y-111637128D02*
X58428571Y-111722842D01*
X58428571Y-111722842D02*
X58342857Y-111765700D01*
X59714286Y-112408557D02*
X59200000Y-112408557D01*
X59457143Y-112408557D02*
X59457143Y-111508557D01*
X59457143Y-111508557D02*
X59371429Y-111637128D01*
X59371429Y-111637128D02*
X59285714Y-111722842D01*
X59285714Y-111722842D02*
X59200000Y-111765700D01*
X60528572Y-111508557D02*
X60100000Y-111508557D01*
X60100000Y-111508557D02*
X60057143Y-111937128D01*
X60057143Y-111937128D02*
X60100000Y-111894271D01*
X60100000Y-111894271D02*
X60185715Y-111851414D01*
X60185715Y-111851414D02*
X60400000Y-111851414D01*
X60400000Y-111851414D02*
X60485715Y-111894271D01*
X60485715Y-111894271D02*
X60528572Y-111937128D01*
X60528572Y-111937128D02*
X60571429Y-112022842D01*
X60571429Y-112022842D02*
X60571429Y-112237128D01*
X60571429Y-112237128D02*
X60528572Y-112322842D01*
X60528572Y-112322842D02*
X60485715Y-112365700D01*
X60485715Y-112365700D02*
X60400000Y-112408557D01*
X60400000Y-112408557D02*
X60185715Y-112408557D01*
X60185715Y-112408557D02*
X60100000Y-112365700D01*
X60100000Y-112365700D02*
X60057143Y-112322842D01*
X60957143Y-112408557D02*
X60957143Y-111808557D01*
X60957143Y-111894271D02*
X61000000Y-111851414D01*
X61000000Y-111851414D02*
X61085715Y-111808557D01*
X61085715Y-111808557D02*
X61214286Y-111808557D01*
X61214286Y-111808557D02*
X61300000Y-111851414D01*
X61300000Y-111851414D02*
X61342858Y-111937128D01*
X61342858Y-111937128D02*
X61342858Y-112408557D01*
X61342858Y-111937128D02*
X61385715Y-111851414D01*
X61385715Y-111851414D02*
X61471429Y-111808557D01*
X61471429Y-111808557D02*
X61600000Y-111808557D01*
X61600000Y-111808557D02*
X61685715Y-111851414D01*
X61685715Y-111851414D02*
X61728572Y-111937128D01*
X61728572Y-111937128D02*
X61728572Y-112408557D01*
X62157143Y-112408557D02*
X62157143Y-111808557D01*
X62157143Y-111894271D02*
X62200000Y-111851414D01*
X62200000Y-111851414D02*
X62285715Y-111808557D01*
X62285715Y-111808557D02*
X62414286Y-111808557D01*
X62414286Y-111808557D02*
X62500000Y-111851414D01*
X62500000Y-111851414D02*
X62542858Y-111937128D01*
X62542858Y-111937128D02*
X62542858Y-112408557D01*
X62542858Y-111937128D02*
X62585715Y-111851414D01*
X62585715Y-111851414D02*
X62671429Y-111808557D01*
X62671429Y-111808557D02*
X62800000Y-111808557D01*
X62800000Y-111808557D02*
X62885715Y-111851414D01*
X62885715Y-111851414D02*
X62928572Y-111937128D01*
X62928572Y-111937128D02*
X62928572Y-112408557D01*
X64685714Y-111465700D02*
X63914286Y-112622842D01*
X66185714Y-112322842D02*
X66142857Y-112365700D01*
X66142857Y-112365700D02*
X66014285Y-112408557D01*
X66014285Y-112408557D02*
X65928571Y-112408557D01*
X65928571Y-112408557D02*
X65800000Y-112365700D01*
X65800000Y-112365700D02*
X65714285Y-112279985D01*
X65714285Y-112279985D02*
X65671428Y-112194271D01*
X65671428Y-112194271D02*
X65628571Y-112022842D01*
X65628571Y-112022842D02*
X65628571Y-111894271D01*
X65628571Y-111894271D02*
X65671428Y-111722842D01*
X65671428Y-111722842D02*
X65714285Y-111637128D01*
X65714285Y-111637128D02*
X65800000Y-111551414D01*
X65800000Y-111551414D02*
X65928571Y-111508557D01*
X65928571Y-111508557D02*
X66014285Y-111508557D01*
X66014285Y-111508557D02*
X66142857Y-111551414D01*
X66142857Y-111551414D02*
X66185714Y-111594271D01*
X66571428Y-112322842D02*
X66614285Y-112365700D01*
X66614285Y-112365700D02*
X66571428Y-112408557D01*
X66571428Y-112408557D02*
X66528571Y-112365700D01*
X66528571Y-112365700D02*
X66571428Y-112322842D01*
X66571428Y-112322842D02*
X66571428Y-112408557D01*
X67385714Y-111808557D02*
X67385714Y-112408557D01*
X67171428Y-111465700D02*
X66957142Y-112108557D01*
X66957142Y-112108557D02*
X67514285Y-112108557D01*
X66757143Y-41718557D02*
X66242857Y-41718557D01*
X66500000Y-41718557D02*
X66500000Y-40818557D01*
X66500000Y-40818557D02*
X66414286Y-40947128D01*
X66414286Y-40947128D02*
X66328571Y-41032842D01*
X66328571Y-41032842D02*
X66242857Y-41075700D01*
X61649999Y-49658557D02*
X61649999Y-48758557D01*
X61649999Y-48758557D02*
X61864285Y-48758557D01*
X61864285Y-48758557D02*
X61992856Y-48801414D01*
X61992856Y-48801414D02*
X62078571Y-48887128D01*
X62078571Y-48887128D02*
X62121428Y-48972842D01*
X62121428Y-48972842D02*
X62164285Y-49144271D01*
X62164285Y-49144271D02*
X62164285Y-49272842D01*
X62164285Y-49272842D02*
X62121428Y-49444271D01*
X62121428Y-49444271D02*
X62078571Y-49529985D01*
X62078571Y-49529985D02*
X61992856Y-49615700D01*
X61992856Y-49615700D02*
X61864285Y-49658557D01*
X61864285Y-49658557D02*
X61649999Y-49658557D01*
X62464285Y-48758557D02*
X63021428Y-48758557D01*
X63021428Y-48758557D02*
X62721428Y-49101414D01*
X62721428Y-49101414D02*
X62849999Y-49101414D01*
X62849999Y-49101414D02*
X62935714Y-49144271D01*
X62935714Y-49144271D02*
X62978571Y-49187128D01*
X62978571Y-49187128D02*
X63021428Y-49272842D01*
X63021428Y-49272842D02*
X63021428Y-49487128D01*
X63021428Y-49487128D02*
X62978571Y-49572842D01*
X62978571Y-49572842D02*
X62935714Y-49615700D01*
X62935714Y-49615700D02*
X62849999Y-49658557D01*
X62849999Y-49658557D02*
X62592856Y-49658557D01*
X62592856Y-49658557D02*
X62507142Y-49615700D01*
X62507142Y-49615700D02*
X62464285Y-49572842D01*
X63407142Y-49572842D02*
X63449999Y-49615700D01*
X63449999Y-49615700D02*
X63407142Y-49658557D01*
X63407142Y-49658557D02*
X63364285Y-49615700D01*
X63364285Y-49615700D02*
X63407142Y-49572842D01*
X63407142Y-49572842D02*
X63407142Y-49658557D01*
X63407142Y-49101414D02*
X63449999Y-49144271D01*
X63449999Y-49144271D02*
X63407142Y-49187128D01*
X63407142Y-49187128D02*
X63364285Y-49144271D01*
X63364285Y-49144271D02*
X63407142Y-49101414D01*
X63407142Y-49101414D02*
X63407142Y-49187128D01*
X64992856Y-49658557D02*
X64478570Y-49658557D01*
X64735713Y-49658557D02*
X64735713Y-48758557D01*
X64735713Y-48758557D02*
X64649999Y-48887128D01*
X64649999Y-48887128D02*
X64564284Y-48972842D01*
X64564284Y-48972842D02*
X64478570Y-49015700D01*
X65378570Y-49187128D02*
X66064285Y-49187128D01*
X66064285Y-49444271D02*
X65378570Y-49444271D01*
X67007142Y-49658557D02*
X66707142Y-49229985D01*
X66492856Y-49658557D02*
X66492856Y-48758557D01*
X66492856Y-48758557D02*
X66835713Y-48758557D01*
X66835713Y-48758557D02*
X66921428Y-48801414D01*
X66921428Y-48801414D02*
X66964285Y-48844271D01*
X66964285Y-48844271D02*
X67007142Y-48929985D01*
X67007142Y-48929985D02*
X67007142Y-49058557D01*
X67007142Y-49058557D02*
X66964285Y-49144271D01*
X66964285Y-49144271D02*
X66921428Y-49187128D01*
X66921428Y-49187128D02*
X66835713Y-49229985D01*
X66835713Y-49229985D02*
X66492856Y-49229985D01*
X68035713Y-48844271D02*
X68078570Y-48801414D01*
X68078570Y-48801414D02*
X68164285Y-48758557D01*
X68164285Y-48758557D02*
X68378570Y-48758557D01*
X68378570Y-48758557D02*
X68464285Y-48801414D01*
X68464285Y-48801414D02*
X68507142Y-48844271D01*
X68507142Y-48844271D02*
X68549999Y-48929985D01*
X68549999Y-48929985D02*
X68549999Y-49015700D01*
X68549999Y-49015700D02*
X68507142Y-49144271D01*
X68507142Y-49144271D02*
X67992856Y-49658557D01*
X67992856Y-49658557D02*
X68549999Y-49658557D01*
X68935713Y-49187128D02*
X69621428Y-49187128D01*
X69621428Y-49444271D02*
X68935713Y-49444271D01*
X70049999Y-49315700D02*
X70735714Y-49315700D01*
X70392856Y-49658557D02*
X70392856Y-48972842D01*
X71764285Y-48758557D02*
X72321428Y-48758557D01*
X72321428Y-48758557D02*
X72021428Y-49101414D01*
X72021428Y-49101414D02*
X72149999Y-49101414D01*
X72149999Y-49101414D02*
X72235714Y-49144271D01*
X72235714Y-49144271D02*
X72278571Y-49187128D01*
X72278571Y-49187128D02*
X72321428Y-49272842D01*
X72321428Y-49272842D02*
X72321428Y-49487128D01*
X72321428Y-49487128D02*
X72278571Y-49572842D01*
X72278571Y-49572842D02*
X72235714Y-49615700D01*
X72235714Y-49615700D02*
X72149999Y-49658557D01*
X72149999Y-49658557D02*
X71892856Y-49658557D01*
X71892856Y-49658557D02*
X71807142Y-49615700D01*
X71807142Y-49615700D02*
X71764285Y-49572842D01*
X72707142Y-49187128D02*
X73392857Y-49187128D01*
X73392857Y-49444271D02*
X72707142Y-49444271D01*
X74121428Y-49187128D02*
X74250000Y-49229985D01*
X74250000Y-49229985D02*
X74292857Y-49272842D01*
X74292857Y-49272842D02*
X74335714Y-49358557D01*
X74335714Y-49358557D02*
X74335714Y-49487128D01*
X74335714Y-49487128D02*
X74292857Y-49572842D01*
X74292857Y-49572842D02*
X74250000Y-49615700D01*
X74250000Y-49615700D02*
X74164285Y-49658557D01*
X74164285Y-49658557D02*
X73821428Y-49658557D01*
X73821428Y-49658557D02*
X73821428Y-48758557D01*
X73821428Y-48758557D02*
X74121428Y-48758557D01*
X74121428Y-48758557D02*
X74207143Y-48801414D01*
X74207143Y-48801414D02*
X74250000Y-48844271D01*
X74250000Y-48844271D02*
X74292857Y-48929985D01*
X74292857Y-48929985D02*
X74292857Y-49015700D01*
X74292857Y-49015700D02*
X74250000Y-49101414D01*
X74250000Y-49101414D02*
X74207143Y-49144271D01*
X74207143Y-49144271D02*
X74121428Y-49187128D01*
X74121428Y-49187128D02*
X73821428Y-49187128D01*
X75792857Y-49058557D02*
X75792857Y-49658557D01*
X75578571Y-48715700D02*
X75364285Y-49358557D01*
X75364285Y-49358557D02*
X75921428Y-49358557D01*
X76264285Y-49187128D02*
X76950000Y-49187128D01*
X76950000Y-49444271D02*
X76264285Y-49444271D01*
X77850000Y-48801414D02*
X77764286Y-48758557D01*
X77764286Y-48758557D02*
X77635714Y-48758557D01*
X77635714Y-48758557D02*
X77507143Y-48801414D01*
X77507143Y-48801414D02*
X77421428Y-48887128D01*
X77421428Y-48887128D02*
X77378571Y-48972842D01*
X77378571Y-48972842D02*
X77335714Y-49144271D01*
X77335714Y-49144271D02*
X77335714Y-49272842D01*
X77335714Y-49272842D02*
X77378571Y-49444271D01*
X77378571Y-49444271D02*
X77421428Y-49529985D01*
X77421428Y-49529985D02*
X77507143Y-49615700D01*
X77507143Y-49615700D02*
X77635714Y-49658557D01*
X77635714Y-49658557D02*
X77721428Y-49658557D01*
X77721428Y-49658557D02*
X77850000Y-49615700D01*
X77850000Y-49615700D02*
X77892857Y-49572842D01*
X77892857Y-49572842D02*
X77892857Y-49272842D01*
X77892857Y-49272842D02*
X77721428Y-49272842D01*
X71628572Y-45908557D02*
X71328572Y-45479985D01*
X71114286Y-45908557D02*
X71114286Y-45008557D01*
X71114286Y-45008557D02*
X71457143Y-45008557D01*
X71457143Y-45008557D02*
X71542858Y-45051414D01*
X71542858Y-45051414D02*
X71585715Y-45094271D01*
X71585715Y-45094271D02*
X71628572Y-45179985D01*
X71628572Y-45179985D02*
X71628572Y-45308557D01*
X71628572Y-45308557D02*
X71585715Y-45394271D01*
X71585715Y-45394271D02*
X71542858Y-45437128D01*
X71542858Y-45437128D02*
X71457143Y-45479985D01*
X71457143Y-45479985D02*
X71114286Y-45479985D01*
X72485715Y-45051414D02*
X72400001Y-45008557D01*
X72400001Y-45008557D02*
X72271429Y-45008557D01*
X72271429Y-45008557D02*
X72142858Y-45051414D01*
X72142858Y-45051414D02*
X72057143Y-45137128D01*
X72057143Y-45137128D02*
X72014286Y-45222842D01*
X72014286Y-45222842D02*
X71971429Y-45394271D01*
X71971429Y-45394271D02*
X71971429Y-45522842D01*
X71971429Y-45522842D02*
X72014286Y-45694271D01*
X72014286Y-45694271D02*
X72057143Y-45779985D01*
X72057143Y-45779985D02*
X72142858Y-45865700D01*
X72142858Y-45865700D02*
X72271429Y-45908557D01*
X72271429Y-45908557D02*
X72357143Y-45908557D01*
X72357143Y-45908557D02*
X72485715Y-45865700D01*
X72485715Y-45865700D02*
X72528572Y-45822842D01*
X72528572Y-45822842D02*
X72528572Y-45522842D01*
X72528572Y-45522842D02*
X72357143Y-45522842D01*
X73214286Y-45437128D02*
X73342858Y-45479985D01*
X73342858Y-45479985D02*
X73385715Y-45522842D01*
X73385715Y-45522842D02*
X73428572Y-45608557D01*
X73428572Y-45608557D02*
X73428572Y-45737128D01*
X73428572Y-45737128D02*
X73385715Y-45822842D01*
X73385715Y-45822842D02*
X73342858Y-45865700D01*
X73342858Y-45865700D02*
X73257143Y-45908557D01*
X73257143Y-45908557D02*
X72914286Y-45908557D01*
X72914286Y-45908557D02*
X72914286Y-45008557D01*
X72914286Y-45008557D02*
X73214286Y-45008557D01*
X73214286Y-45008557D02*
X73300001Y-45051414D01*
X73300001Y-45051414D02*
X73342858Y-45094271D01*
X73342858Y-45094271D02*
X73385715Y-45179985D01*
X73385715Y-45179985D02*
X73385715Y-45265700D01*
X73385715Y-45265700D02*
X73342858Y-45351414D01*
X73342858Y-45351414D02*
X73300001Y-45394271D01*
X73300001Y-45394271D02*
X73214286Y-45437128D01*
X73214286Y-45437128D02*
X72914286Y-45437128D01*
X74500000Y-45908557D02*
X74500000Y-45008557D01*
X74500000Y-45008557D02*
X74800000Y-45651414D01*
X74800000Y-45651414D02*
X75100000Y-45008557D01*
X75100000Y-45008557D02*
X75100000Y-45908557D01*
X75700000Y-45008557D02*
X75871428Y-45008557D01*
X75871428Y-45008557D02*
X75957143Y-45051414D01*
X75957143Y-45051414D02*
X76042857Y-45137128D01*
X76042857Y-45137128D02*
X76085714Y-45308557D01*
X76085714Y-45308557D02*
X76085714Y-45608557D01*
X76085714Y-45608557D02*
X76042857Y-45779985D01*
X76042857Y-45779985D02*
X75957143Y-45865700D01*
X75957143Y-45865700D02*
X75871428Y-45908557D01*
X75871428Y-45908557D02*
X75700000Y-45908557D01*
X75700000Y-45908557D02*
X75614286Y-45865700D01*
X75614286Y-45865700D02*
X75528571Y-45779985D01*
X75528571Y-45779985D02*
X75485714Y-45608557D01*
X75485714Y-45608557D02*
X75485714Y-45308557D01*
X75485714Y-45308557D02*
X75528571Y-45137128D01*
X75528571Y-45137128D02*
X75614286Y-45051414D01*
X75614286Y-45051414D02*
X75700000Y-45008557D01*
X76642857Y-45008557D02*
X76814285Y-45008557D01*
X76814285Y-45008557D02*
X76900000Y-45051414D01*
X76900000Y-45051414D02*
X76985714Y-45137128D01*
X76985714Y-45137128D02*
X77028571Y-45308557D01*
X77028571Y-45308557D02*
X77028571Y-45608557D01*
X77028571Y-45608557D02*
X76985714Y-45779985D01*
X76985714Y-45779985D02*
X76900000Y-45865700D01*
X76900000Y-45865700D02*
X76814285Y-45908557D01*
X76814285Y-45908557D02*
X76642857Y-45908557D01*
X76642857Y-45908557D02*
X76557143Y-45865700D01*
X76557143Y-45865700D02*
X76471428Y-45779985D01*
X76471428Y-45779985D02*
X76428571Y-45608557D01*
X76428571Y-45608557D02*
X76428571Y-45308557D01*
X76428571Y-45308557D02*
X76471428Y-45137128D01*
X76471428Y-45137128D02*
X76557143Y-45051414D01*
X76557143Y-45051414D02*
X76642857Y-45008557D01*
X77414285Y-45908557D02*
X77414285Y-45008557D01*
X77414285Y-45008557D02*
X77628571Y-45008557D01*
X77628571Y-45008557D02*
X77757142Y-45051414D01*
X77757142Y-45051414D02*
X77842857Y-45137128D01*
X77842857Y-45137128D02*
X77885714Y-45222842D01*
X77885714Y-45222842D02*
X77928571Y-45394271D01*
X77928571Y-45394271D02*
X77928571Y-45522842D01*
X77928571Y-45522842D02*
X77885714Y-45694271D01*
X77885714Y-45694271D02*
X77842857Y-45779985D01*
X77842857Y-45779985D02*
X77757142Y-45865700D01*
X77757142Y-45865700D02*
X77628571Y-45908557D01*
X77628571Y-45908557D02*
X77414285Y-45908557D01*
X74185714Y-41008557D02*
X74700000Y-41008557D01*
X74442857Y-41908557D02*
X74442857Y-41008557D01*
X74999999Y-41908557D02*
X74999999Y-41008557D01*
X74999999Y-41008557D02*
X75342856Y-41008557D01*
X75342856Y-41008557D02*
X75428571Y-41051414D01*
X75428571Y-41051414D02*
X75471428Y-41094271D01*
X75471428Y-41094271D02*
X75514285Y-41179985D01*
X75514285Y-41179985D02*
X75514285Y-41308557D01*
X75514285Y-41308557D02*
X75471428Y-41394271D01*
X75471428Y-41394271D02*
X75428571Y-41437128D01*
X75428571Y-41437128D02*
X75342856Y-41479985D01*
X75342856Y-41479985D02*
X74999999Y-41479985D01*
X75857142Y-41094271D02*
X75899999Y-41051414D01*
X75899999Y-41051414D02*
X75985714Y-41008557D01*
X75985714Y-41008557D02*
X76199999Y-41008557D01*
X76199999Y-41008557D02*
X76285714Y-41051414D01*
X76285714Y-41051414D02*
X76328571Y-41094271D01*
X76328571Y-41094271D02*
X76371428Y-41179985D01*
X76371428Y-41179985D02*
X76371428Y-41265700D01*
X76371428Y-41265700D02*
X76328571Y-41394271D01*
X76328571Y-41394271D02*
X75814285Y-41908557D01*
X75814285Y-41908557D02*
X76371428Y-41908557D01*
X76799999Y-41908557D02*
X76971428Y-41908557D01*
X76971428Y-41908557D02*
X77057142Y-41865700D01*
X77057142Y-41865700D02*
X77099999Y-41822842D01*
X77099999Y-41822842D02*
X77185714Y-41694271D01*
X77185714Y-41694271D02*
X77228571Y-41522842D01*
X77228571Y-41522842D02*
X77228571Y-41179985D01*
X77228571Y-41179985D02*
X77185714Y-41094271D01*
X77185714Y-41094271D02*
X77142857Y-41051414D01*
X77142857Y-41051414D02*
X77057142Y-41008557D01*
X77057142Y-41008557D02*
X76885714Y-41008557D01*
X76885714Y-41008557D02*
X76799999Y-41051414D01*
X76799999Y-41051414D02*
X76757142Y-41094271D01*
X76757142Y-41094271D02*
X76714285Y-41179985D01*
X76714285Y-41179985D02*
X76714285Y-41394271D01*
X76714285Y-41394271D02*
X76757142Y-41479985D01*
X76757142Y-41479985D02*
X76799999Y-41522842D01*
X76799999Y-41522842D02*
X76885714Y-41565700D01*
X76885714Y-41565700D02*
X77057142Y-41565700D01*
X77057142Y-41565700D02*
X77142857Y-41522842D01*
X77142857Y-41522842D02*
X77185714Y-41479985D01*
X77185714Y-41479985D02*
X77228571Y-41394271D01*
X28142857Y-83954819D02*
X28142857Y-82954819D01*
X28714285Y-83954819D02*
X28285714Y-83383390D01*
X28714285Y-82954819D02*
X28142857Y-83526247D01*
X29142857Y-83954819D02*
X29142857Y-82954819D01*
X29714285Y-83954819D02*
X29285714Y-83383390D01*
X29714285Y-82954819D02*
X29142857Y-83526247D01*
X30904762Y-83954819D02*
X30904762Y-82954819D01*
X30904762Y-82954819D02*
X31238095Y-83669104D01*
X31238095Y-83669104D02*
X31571428Y-82954819D01*
X31571428Y-82954819D02*
X31571428Y-83954819D01*
X32000000Y-83669104D02*
X32476190Y-83669104D01*
X31904762Y-83954819D02*
X32238095Y-82954819D01*
X32238095Y-82954819D02*
X32571428Y-83954819D01*
X32904762Y-83954819D02*
X32904762Y-82954819D01*
X33380952Y-83954819D02*
X33380952Y-82954819D01*
X33380952Y-82954819D02*
X33952380Y-83954819D01*
X33952380Y-83954819D02*
X33952380Y-82954819D01*
X35761904Y-83859580D02*
X35714285Y-83907200D01*
X35714285Y-83907200D02*
X35571428Y-83954819D01*
X35571428Y-83954819D02*
X35476190Y-83954819D01*
X35476190Y-83954819D02*
X35333333Y-83907200D01*
X35333333Y-83907200D02*
X35238095Y-83811961D01*
X35238095Y-83811961D02*
X35190476Y-83716723D01*
X35190476Y-83716723D02*
X35142857Y-83526247D01*
X35142857Y-83526247D02*
X35142857Y-83383390D01*
X35142857Y-83383390D02*
X35190476Y-83192914D01*
X35190476Y-83192914D02*
X35238095Y-83097676D01*
X35238095Y-83097676D02*
X35333333Y-83002438D01*
X35333333Y-83002438D02*
X35476190Y-82954819D01*
X35476190Y-82954819D02*
X35571428Y-82954819D01*
X35571428Y-82954819D02*
X35714285Y-83002438D01*
X35714285Y-83002438D02*
X35761904Y-83050057D01*
X36190476Y-83859580D02*
X36238095Y-83907200D01*
X36238095Y-83907200D02*
X36190476Y-83954819D01*
X36190476Y-83954819D02*
X36142857Y-83907200D01*
X36142857Y-83907200D02*
X36190476Y-83859580D01*
X36190476Y-83859580D02*
X36190476Y-83954819D01*
X37095237Y-83288152D02*
X37095237Y-83954819D01*
X36857142Y-82907200D02*
X36619047Y-83621485D01*
X36619047Y-83621485D02*
X37238094Y-83621485D01*
X39095237Y-82907200D02*
X38238095Y-84192914D01*
X40761904Y-83954819D02*
X40428571Y-83478628D01*
X40190476Y-83954819D02*
X40190476Y-82954819D01*
X40190476Y-82954819D02*
X40571428Y-82954819D01*
X40571428Y-82954819D02*
X40666666Y-83002438D01*
X40666666Y-83002438D02*
X40714285Y-83050057D01*
X40714285Y-83050057D02*
X40761904Y-83145295D01*
X40761904Y-83145295D02*
X40761904Y-83288152D01*
X40761904Y-83288152D02*
X40714285Y-83383390D01*
X40714285Y-83383390D02*
X40666666Y-83431009D01*
X40666666Y-83431009D02*
X40571428Y-83478628D01*
X40571428Y-83478628D02*
X40190476Y-83478628D01*
X41714285Y-83002438D02*
X41619047Y-82954819D01*
X41619047Y-82954819D02*
X41476190Y-82954819D01*
X41476190Y-82954819D02*
X41333333Y-83002438D01*
X41333333Y-83002438D02*
X41238095Y-83097676D01*
X41238095Y-83097676D02*
X41190476Y-83192914D01*
X41190476Y-83192914D02*
X41142857Y-83383390D01*
X41142857Y-83383390D02*
X41142857Y-83526247D01*
X41142857Y-83526247D02*
X41190476Y-83716723D01*
X41190476Y-83716723D02*
X41238095Y-83811961D01*
X41238095Y-83811961D02*
X41333333Y-83907200D01*
X41333333Y-83907200D02*
X41476190Y-83954819D01*
X41476190Y-83954819D02*
X41571428Y-83954819D01*
X41571428Y-83954819D02*
X41714285Y-83907200D01*
X41714285Y-83907200D02*
X41761904Y-83859580D01*
X41761904Y-83859580D02*
X41761904Y-83526247D01*
X41761904Y-83526247D02*
X41571428Y-83526247D01*
X42523809Y-83431009D02*
X42666666Y-83478628D01*
X42666666Y-83478628D02*
X42714285Y-83526247D01*
X42714285Y-83526247D02*
X42761904Y-83621485D01*
X42761904Y-83621485D02*
X42761904Y-83764342D01*
X42761904Y-83764342D02*
X42714285Y-83859580D01*
X42714285Y-83859580D02*
X42666666Y-83907200D01*
X42666666Y-83907200D02*
X42571428Y-83954819D01*
X42571428Y-83954819D02*
X42190476Y-83954819D01*
X42190476Y-83954819D02*
X42190476Y-82954819D01*
X42190476Y-82954819D02*
X42523809Y-82954819D01*
X42523809Y-82954819D02*
X42619047Y-83002438D01*
X42619047Y-83002438D02*
X42666666Y-83050057D01*
X42666666Y-83050057D02*
X42714285Y-83145295D01*
X42714285Y-83145295D02*
X42714285Y-83240533D01*
X42714285Y-83240533D02*
X42666666Y-83335771D01*
X42666666Y-83335771D02*
X42619047Y-83383390D01*
X42619047Y-83383390D02*
X42523809Y-83431009D01*
X42523809Y-83431009D02*
X42190476Y-83431009D01*
X43952381Y-83954819D02*
X43952381Y-82954819D01*
X43952381Y-82954819D02*
X44333333Y-82954819D01*
X44333333Y-82954819D02*
X44428571Y-83002438D01*
X44428571Y-83002438D02*
X44476190Y-83050057D01*
X44476190Y-83050057D02*
X44523809Y-83145295D01*
X44523809Y-83145295D02*
X44523809Y-83288152D01*
X44523809Y-83288152D02*
X44476190Y-83383390D01*
X44476190Y-83383390D02*
X44428571Y-83431009D01*
X44428571Y-83431009D02*
X44333333Y-83478628D01*
X44333333Y-83478628D02*
X43952381Y-83478628D01*
X45523809Y-83954819D02*
X45190476Y-83478628D01*
X44952381Y-83954819D02*
X44952381Y-82954819D01*
X44952381Y-82954819D02*
X45333333Y-82954819D01*
X45333333Y-82954819D02*
X45428571Y-83002438D01*
X45428571Y-83002438D02*
X45476190Y-83050057D01*
X45476190Y-83050057D02*
X45523809Y-83145295D01*
X45523809Y-83145295D02*
X45523809Y-83288152D01*
X45523809Y-83288152D02*
X45476190Y-83383390D01*
X45476190Y-83383390D02*
X45428571Y-83431009D01*
X45428571Y-83431009D02*
X45333333Y-83478628D01*
X45333333Y-83478628D02*
X44952381Y-83478628D01*
X46142857Y-82954819D02*
X46333333Y-82954819D01*
X46333333Y-82954819D02*
X46428571Y-83002438D01*
X46428571Y-83002438D02*
X46523809Y-83097676D01*
X46523809Y-83097676D02*
X46571428Y-83288152D01*
X46571428Y-83288152D02*
X46571428Y-83621485D01*
X46571428Y-83621485D02*
X46523809Y-83811961D01*
X46523809Y-83811961D02*
X46428571Y-83907200D01*
X46428571Y-83907200D02*
X46333333Y-83954819D01*
X46333333Y-83954819D02*
X46142857Y-83954819D01*
X46142857Y-83954819D02*
X46047619Y-83907200D01*
X46047619Y-83907200D02*
X45952381Y-83811961D01*
X45952381Y-83811961D02*
X45904762Y-83621485D01*
X45904762Y-83621485D02*
X45904762Y-83288152D01*
X45904762Y-83288152D02*
X45952381Y-83097676D01*
X45952381Y-83097676D02*
X46047619Y-83002438D01*
X46047619Y-83002438D02*
X46142857Y-82954819D01*
X46857143Y-82954819D02*
X47428571Y-82954819D01*
X47142857Y-83954819D02*
X47142857Y-82954819D01*
X47952381Y-82954819D02*
X48142857Y-82954819D01*
X48142857Y-82954819D02*
X48238095Y-83002438D01*
X48238095Y-83002438D02*
X48333333Y-83097676D01*
X48333333Y-83097676D02*
X48380952Y-83288152D01*
X48380952Y-83288152D02*
X48380952Y-83621485D01*
X48380952Y-83621485D02*
X48333333Y-83811961D01*
X48333333Y-83811961D02*
X48238095Y-83907200D01*
X48238095Y-83907200D02*
X48142857Y-83954819D01*
X48142857Y-83954819D02*
X47952381Y-83954819D01*
X47952381Y-83954819D02*
X47857143Y-83907200D01*
X47857143Y-83907200D02*
X47761905Y-83811961D01*
X47761905Y-83811961D02*
X47714286Y-83621485D01*
X47714286Y-83621485D02*
X47714286Y-83288152D01*
X47714286Y-83288152D02*
X47761905Y-83097676D01*
X47761905Y-83097676D02*
X47857143Y-83002438D01*
X47857143Y-83002438D02*
X47952381Y-82954819D01*
X48666667Y-82954819D02*
X49238095Y-82954819D01*
X48952381Y-83954819D02*
X48952381Y-82954819D01*
X49761905Y-83478628D02*
X49761905Y-83954819D01*
X49428572Y-82954819D02*
X49761905Y-83478628D01*
X49761905Y-83478628D02*
X50095238Y-82954819D01*
X50428572Y-83954819D02*
X50428572Y-82954819D01*
X50428572Y-82954819D02*
X50809524Y-82954819D01*
X50809524Y-82954819D02*
X50904762Y-83002438D01*
X50904762Y-83002438D02*
X50952381Y-83050057D01*
X50952381Y-83050057D02*
X51000000Y-83145295D01*
X51000000Y-83145295D02*
X51000000Y-83288152D01*
X51000000Y-83288152D02*
X50952381Y-83383390D01*
X50952381Y-83383390D02*
X50904762Y-83431009D01*
X50904762Y-83431009D02*
X50809524Y-83478628D01*
X50809524Y-83478628D02*
X50428572Y-83478628D01*
X51428572Y-83431009D02*
X51761905Y-83431009D01*
X51904762Y-83954819D02*
X51428572Y-83954819D01*
X51428572Y-83954819D02*
X51428572Y-82954819D01*
X51428572Y-82954819D02*
X51904762Y-82954819D01*
X64166667Y-18954819D02*
X64166667Y-17954819D01*
X64166667Y-17954819D02*
X64500000Y-18669104D01*
X64500000Y-18669104D02*
X64833333Y-17954819D01*
X64833333Y-17954819D02*
X64833333Y-18954819D01*
X65500000Y-17954819D02*
X65690476Y-17954819D01*
X65690476Y-17954819D02*
X65785714Y-18002438D01*
X65785714Y-18002438D02*
X65880952Y-18097676D01*
X65880952Y-18097676D02*
X65928571Y-18288152D01*
X65928571Y-18288152D02*
X65928571Y-18621485D01*
X65928571Y-18621485D02*
X65880952Y-18811961D01*
X65880952Y-18811961D02*
X65785714Y-18907200D01*
X65785714Y-18907200D02*
X65690476Y-18954819D01*
X65690476Y-18954819D02*
X65500000Y-18954819D01*
X65500000Y-18954819D02*
X65404762Y-18907200D01*
X65404762Y-18907200D02*
X65309524Y-18811961D01*
X65309524Y-18811961D02*
X65261905Y-18621485D01*
X65261905Y-18621485D02*
X65261905Y-18288152D01*
X65261905Y-18288152D02*
X65309524Y-18097676D01*
X65309524Y-18097676D02*
X65404762Y-18002438D01*
X65404762Y-18002438D02*
X65500000Y-17954819D01*
X66357143Y-18954819D02*
X66357143Y-17954819D01*
X66357143Y-17954819D02*
X66595238Y-17954819D01*
X66595238Y-17954819D02*
X66738095Y-18002438D01*
X66738095Y-18002438D02*
X66833333Y-18097676D01*
X66833333Y-18097676D02*
X66880952Y-18192914D01*
X66880952Y-18192914D02*
X66928571Y-18383390D01*
X66928571Y-18383390D02*
X66928571Y-18526247D01*
X66928571Y-18526247D02*
X66880952Y-18716723D01*
X66880952Y-18716723D02*
X66833333Y-18811961D01*
X66833333Y-18811961D02*
X66738095Y-18907200D01*
X66738095Y-18907200D02*
X66595238Y-18954819D01*
X66595238Y-18954819D02*
X66357143Y-18954819D01*
X67880952Y-18954819D02*
X67309524Y-18954819D01*
X67595238Y-18954819D02*
X67595238Y-17954819D01*
X67595238Y-17954819D02*
X67500000Y-18097676D01*
X67500000Y-18097676D02*
X67404762Y-18192914D01*
X67404762Y-18192914D02*
X67309524Y-18240533D01*
X71666667Y-76407200D02*
X71809524Y-76454819D01*
X71809524Y-76454819D02*
X72047619Y-76454819D01*
X72047619Y-76454819D02*
X72142857Y-76407200D01*
X72142857Y-76407200D02*
X72190476Y-76359580D01*
X72190476Y-76359580D02*
X72238095Y-76264342D01*
X72238095Y-76264342D02*
X72238095Y-76169104D01*
X72238095Y-76169104D02*
X72190476Y-76073866D01*
X72190476Y-76073866D02*
X72142857Y-76026247D01*
X72142857Y-76026247D02*
X72047619Y-75978628D01*
X72047619Y-75978628D02*
X71857143Y-75931009D01*
X71857143Y-75931009D02*
X71761905Y-75883390D01*
X71761905Y-75883390D02*
X71714286Y-75835771D01*
X71714286Y-75835771D02*
X71666667Y-75740533D01*
X71666667Y-75740533D02*
X71666667Y-75645295D01*
X71666667Y-75645295D02*
X71714286Y-75550057D01*
X71714286Y-75550057D02*
X71761905Y-75502438D01*
X71761905Y-75502438D02*
X71857143Y-75454819D01*
X71857143Y-75454819D02*
X72095238Y-75454819D01*
X72095238Y-75454819D02*
X72238095Y-75502438D01*
X72571429Y-75454819D02*
X72809524Y-76454819D01*
X72809524Y-76454819D02*
X73000000Y-75740533D01*
X73000000Y-75740533D02*
X73190476Y-76454819D01*
X73190476Y-76454819D02*
X73428572Y-75454819D01*
X74285714Y-75454819D02*
X73809524Y-75454819D01*
X73809524Y-75454819D02*
X73761905Y-75931009D01*
X73761905Y-75931009D02*
X73809524Y-75883390D01*
X73809524Y-75883390D02*
X73904762Y-75835771D01*
X73904762Y-75835771D02*
X74142857Y-75835771D01*
X74142857Y-75835771D02*
X74238095Y-75883390D01*
X74238095Y-75883390D02*
X74285714Y-75931009D01*
X74285714Y-75931009D02*
X74333333Y-76026247D01*
X74333333Y-76026247D02*
X74333333Y-76264342D01*
X74333333Y-76264342D02*
X74285714Y-76359580D01*
X74285714Y-76359580D02*
X74238095Y-76407200D01*
X74238095Y-76407200D02*
X74142857Y-76454819D01*
X74142857Y-76454819D02*
X73904762Y-76454819D01*
X73904762Y-76454819D02*
X73809524Y-76407200D01*
X73809524Y-76407200D02*
X73761905Y-76359580D01*
X5666667Y-76407200D02*
X5809524Y-76454819D01*
X5809524Y-76454819D02*
X6047619Y-76454819D01*
X6047619Y-76454819D02*
X6142857Y-76407200D01*
X6142857Y-76407200D02*
X6190476Y-76359580D01*
X6190476Y-76359580D02*
X6238095Y-76264342D01*
X6238095Y-76264342D02*
X6238095Y-76169104D01*
X6238095Y-76169104D02*
X6190476Y-76073866D01*
X6190476Y-76073866D02*
X6142857Y-76026247D01*
X6142857Y-76026247D02*
X6047619Y-75978628D01*
X6047619Y-75978628D02*
X5857143Y-75931009D01*
X5857143Y-75931009D02*
X5761905Y-75883390D01*
X5761905Y-75883390D02*
X5714286Y-75835771D01*
X5714286Y-75835771D02*
X5666667Y-75740533D01*
X5666667Y-75740533D02*
X5666667Y-75645295D01*
X5666667Y-75645295D02*
X5714286Y-75550057D01*
X5714286Y-75550057D02*
X5761905Y-75502438D01*
X5761905Y-75502438D02*
X5857143Y-75454819D01*
X5857143Y-75454819D02*
X6095238Y-75454819D01*
X6095238Y-75454819D02*
X6238095Y-75502438D01*
X6571429Y-75454819D02*
X6809524Y-76454819D01*
X6809524Y-76454819D02*
X7000000Y-75740533D01*
X7000000Y-75740533D02*
X7190476Y-76454819D01*
X7190476Y-76454819D02*
X7428572Y-75454819D01*
X7714286Y-75454819D02*
X8333333Y-75454819D01*
X8333333Y-75454819D02*
X8000000Y-75835771D01*
X8000000Y-75835771D02*
X8142857Y-75835771D01*
X8142857Y-75835771D02*
X8238095Y-75883390D01*
X8238095Y-75883390D02*
X8285714Y-75931009D01*
X8285714Y-75931009D02*
X8333333Y-76026247D01*
X8333333Y-76026247D02*
X8333333Y-76264342D01*
X8333333Y-76264342D02*
X8285714Y-76359580D01*
X8285714Y-76359580D02*
X8238095Y-76407200D01*
X8238095Y-76407200D02*
X8142857Y-76454819D01*
X8142857Y-76454819D02*
X7857143Y-76454819D01*
X7857143Y-76454819D02*
X7761905Y-76407200D01*
X7761905Y-76407200D02*
X7714286Y-76359580D01*
X47666667Y-76407200D02*
X47809524Y-76454819D01*
X47809524Y-76454819D02*
X48047619Y-76454819D01*
X48047619Y-76454819D02*
X48142857Y-76407200D01*
X48142857Y-76407200D02*
X48190476Y-76359580D01*
X48190476Y-76359580D02*
X48238095Y-76264342D01*
X48238095Y-76264342D02*
X48238095Y-76169104D01*
X48238095Y-76169104D02*
X48190476Y-76073866D01*
X48190476Y-76073866D02*
X48142857Y-76026247D01*
X48142857Y-76026247D02*
X48047619Y-75978628D01*
X48047619Y-75978628D02*
X47857143Y-75931009D01*
X47857143Y-75931009D02*
X47761905Y-75883390D01*
X47761905Y-75883390D02*
X47714286Y-75835771D01*
X47714286Y-75835771D02*
X47666667Y-75740533D01*
X47666667Y-75740533D02*
X47666667Y-75645295D01*
X47666667Y-75645295D02*
X47714286Y-75550057D01*
X47714286Y-75550057D02*
X47761905Y-75502438D01*
X47761905Y-75502438D02*
X47857143Y-75454819D01*
X47857143Y-75454819D02*
X48095238Y-75454819D01*
X48095238Y-75454819D02*
X48238095Y-75502438D01*
X48571429Y-75454819D02*
X48809524Y-76454819D01*
X48809524Y-76454819D02*
X49000000Y-75740533D01*
X49000000Y-75740533D02*
X49190476Y-76454819D01*
X49190476Y-76454819D02*
X49428572Y-75454819D01*
X49952381Y-75883390D02*
X49857143Y-75835771D01*
X49857143Y-75835771D02*
X49809524Y-75788152D01*
X49809524Y-75788152D02*
X49761905Y-75692914D01*
X49761905Y-75692914D02*
X49761905Y-75645295D01*
X49761905Y-75645295D02*
X49809524Y-75550057D01*
X49809524Y-75550057D02*
X49857143Y-75502438D01*
X49857143Y-75502438D02*
X49952381Y-75454819D01*
X49952381Y-75454819D02*
X50142857Y-75454819D01*
X50142857Y-75454819D02*
X50238095Y-75502438D01*
X50238095Y-75502438D02*
X50285714Y-75550057D01*
X50285714Y-75550057D02*
X50333333Y-75645295D01*
X50333333Y-75645295D02*
X50333333Y-75692914D01*
X50333333Y-75692914D02*
X50285714Y-75788152D01*
X50285714Y-75788152D02*
X50238095Y-75835771D01*
X50238095Y-75835771D02*
X50142857Y-75883390D01*
X50142857Y-75883390D02*
X49952381Y-75883390D01*
X49952381Y-75883390D02*
X49857143Y-75931009D01*
X49857143Y-75931009D02*
X49809524Y-75978628D01*
X49809524Y-75978628D02*
X49761905Y-76073866D01*
X49761905Y-76073866D02*
X49761905Y-76264342D01*
X49761905Y-76264342D02*
X49809524Y-76359580D01*
X49809524Y-76359580D02*
X49857143Y-76407200D01*
X49857143Y-76407200D02*
X49952381Y-76454819D01*
X49952381Y-76454819D02*
X50142857Y-76454819D01*
X50142857Y-76454819D02*
X50238095Y-76407200D01*
X50238095Y-76407200D02*
X50285714Y-76359580D01*
X50285714Y-76359580D02*
X50333333Y-76264342D01*
X50333333Y-76264342D02*
X50333333Y-76073866D01*
X50333333Y-76073866D02*
X50285714Y-75978628D01*
X50285714Y-75978628D02*
X50238095Y-75931009D01*
X50238095Y-75931009D02*
X50142857Y-75883390D01*
X59666667Y-64407200D02*
X59809524Y-64454819D01*
X59809524Y-64454819D02*
X60047619Y-64454819D01*
X60047619Y-64454819D02*
X60142857Y-64407200D01*
X60142857Y-64407200D02*
X60190476Y-64359580D01*
X60190476Y-64359580D02*
X60238095Y-64264342D01*
X60238095Y-64264342D02*
X60238095Y-64169104D01*
X60238095Y-64169104D02*
X60190476Y-64073866D01*
X60190476Y-64073866D02*
X60142857Y-64026247D01*
X60142857Y-64026247D02*
X60047619Y-63978628D01*
X60047619Y-63978628D02*
X59857143Y-63931009D01*
X59857143Y-63931009D02*
X59761905Y-63883390D01*
X59761905Y-63883390D02*
X59714286Y-63835771D01*
X59714286Y-63835771D02*
X59666667Y-63740533D01*
X59666667Y-63740533D02*
X59666667Y-63645295D01*
X59666667Y-63645295D02*
X59714286Y-63550057D01*
X59714286Y-63550057D02*
X59761905Y-63502438D01*
X59761905Y-63502438D02*
X59857143Y-63454819D01*
X59857143Y-63454819D02*
X60095238Y-63454819D01*
X60095238Y-63454819D02*
X60238095Y-63502438D01*
X60571429Y-63454819D02*
X60809524Y-64454819D01*
X60809524Y-64454819D02*
X61000000Y-63740533D01*
X61000000Y-63740533D02*
X61190476Y-64454819D01*
X61190476Y-64454819D02*
X61428572Y-63454819D01*
X61714286Y-63454819D02*
X62380952Y-63454819D01*
X62380952Y-63454819D02*
X61952381Y-64454819D01*
X17248094Y-7954819D02*
X17248094Y-8764342D01*
X17248094Y-8764342D02*
X17295713Y-8859580D01*
X17295713Y-8859580D02*
X17343332Y-8907200D01*
X17343332Y-8907200D02*
X17438570Y-8954819D01*
X17438570Y-8954819D02*
X17629046Y-8954819D01*
X17629046Y-8954819D02*
X17724284Y-8907200D01*
X17724284Y-8907200D02*
X17771903Y-8859580D01*
X17771903Y-8859580D02*
X17819522Y-8764342D01*
X17819522Y-8764342D02*
X17819522Y-7954819D01*
X18248094Y-8050057D02*
X18295713Y-8002438D01*
X18295713Y-8002438D02*
X18390951Y-7954819D01*
X18390951Y-7954819D02*
X18629046Y-7954819D01*
X18629046Y-7954819D02*
X18724284Y-8002438D01*
X18724284Y-8002438D02*
X18771903Y-8050057D01*
X18771903Y-8050057D02*
X18819522Y-8145295D01*
X18819522Y-8145295D02*
X18819522Y-8240533D01*
X18819522Y-8240533D02*
X18771903Y-8383390D01*
X18771903Y-8383390D02*
X18200475Y-8954819D01*
X18200475Y-8954819D02*
X18819522Y-8954819D01*
X3256904Y-12454819D02*
X3256904Y-11454819D01*
X3256904Y-11454819D02*
X3494999Y-11454819D01*
X3494999Y-11454819D02*
X3637856Y-11502438D01*
X3637856Y-11502438D02*
X3733094Y-11597676D01*
X3733094Y-11597676D02*
X3780713Y-11692914D01*
X3780713Y-11692914D02*
X3828332Y-11883390D01*
X3828332Y-11883390D02*
X3828332Y-12026247D01*
X3828332Y-12026247D02*
X3780713Y-12216723D01*
X3780713Y-12216723D02*
X3733094Y-12311961D01*
X3733094Y-12311961D02*
X3637856Y-12407200D01*
X3637856Y-12407200D02*
X3494999Y-12454819D01*
X3494999Y-12454819D02*
X3256904Y-12454819D01*
X4780713Y-12454819D02*
X4209285Y-12454819D01*
X4494999Y-12454819D02*
X4494999Y-11454819D01*
X4494999Y-11454819D02*
X4399761Y-11597676D01*
X4399761Y-11597676D02*
X4304523Y-11692914D01*
X4304523Y-11692914D02*
X4209285Y-11740533D01*
X71585714Y-37408557D02*
X71585714Y-36508557D01*
X71585714Y-36508557D02*
X71800000Y-36508557D01*
X71800000Y-36508557D02*
X71928571Y-36551414D01*
X71928571Y-36551414D02*
X72014286Y-36637128D01*
X72014286Y-36637128D02*
X72057143Y-36722842D01*
X72057143Y-36722842D02*
X72100000Y-36894271D01*
X72100000Y-36894271D02*
X72100000Y-37022842D01*
X72100000Y-37022842D02*
X72057143Y-37194271D01*
X72057143Y-37194271D02*
X72014286Y-37279985D01*
X72014286Y-37279985D02*
X71928571Y-37365700D01*
X71928571Y-37365700D02*
X71800000Y-37408557D01*
X71800000Y-37408557D02*
X71585714Y-37408557D01*
X72400000Y-36508557D02*
X72957143Y-36508557D01*
X72957143Y-36508557D02*
X72657143Y-36851414D01*
X72657143Y-36851414D02*
X72785714Y-36851414D01*
X72785714Y-36851414D02*
X72871429Y-36894271D01*
X72871429Y-36894271D02*
X72914286Y-36937128D01*
X72914286Y-36937128D02*
X72957143Y-37022842D01*
X72957143Y-37022842D02*
X72957143Y-37237128D01*
X72957143Y-37237128D02*
X72914286Y-37322842D01*
X72914286Y-37322842D02*
X72871429Y-37365700D01*
X72871429Y-37365700D02*
X72785714Y-37408557D01*
X72785714Y-37408557D02*
X72528571Y-37408557D01*
X72528571Y-37408557D02*
X72442857Y-37365700D01*
X72442857Y-37365700D02*
X72400000Y-37322842D01*
X38666666Y-12954819D02*
X38666666Y-13669104D01*
X38666666Y-13669104D02*
X38619047Y-13811961D01*
X38619047Y-13811961D02*
X38523809Y-13907200D01*
X38523809Y-13907200D02*
X38380952Y-13954819D01*
X38380952Y-13954819D02*
X38285714Y-13954819D01*
X39095238Y-13050057D02*
X39142857Y-13002438D01*
X39142857Y-13002438D02*
X39238095Y-12954819D01*
X39238095Y-12954819D02*
X39476190Y-12954819D01*
X39476190Y-12954819D02*
X39571428Y-13002438D01*
X39571428Y-13002438D02*
X39619047Y-13050057D01*
X39619047Y-13050057D02*
X39666666Y-13145295D01*
X39666666Y-13145295D02*
X39666666Y-13240533D01*
X39666666Y-13240533D02*
X39619047Y-13383390D01*
X39619047Y-13383390D02*
X39047619Y-13954819D01*
X39047619Y-13954819D02*
X39666666Y-13954819D01*
X29666667Y-76407200D02*
X29809524Y-76454819D01*
X29809524Y-76454819D02*
X30047619Y-76454819D01*
X30047619Y-76454819D02*
X30142857Y-76407200D01*
X30142857Y-76407200D02*
X30190476Y-76359580D01*
X30190476Y-76359580D02*
X30238095Y-76264342D01*
X30238095Y-76264342D02*
X30238095Y-76169104D01*
X30238095Y-76169104D02*
X30190476Y-76073866D01*
X30190476Y-76073866D02*
X30142857Y-76026247D01*
X30142857Y-76026247D02*
X30047619Y-75978628D01*
X30047619Y-75978628D02*
X29857143Y-75931009D01*
X29857143Y-75931009D02*
X29761905Y-75883390D01*
X29761905Y-75883390D02*
X29714286Y-75835771D01*
X29714286Y-75835771D02*
X29666667Y-75740533D01*
X29666667Y-75740533D02*
X29666667Y-75645295D01*
X29666667Y-75645295D02*
X29714286Y-75550057D01*
X29714286Y-75550057D02*
X29761905Y-75502438D01*
X29761905Y-75502438D02*
X29857143Y-75454819D01*
X29857143Y-75454819D02*
X30095238Y-75454819D01*
X30095238Y-75454819D02*
X30238095Y-75502438D01*
X30571429Y-75454819D02*
X30809524Y-76454819D01*
X30809524Y-76454819D02*
X31000000Y-75740533D01*
X31000000Y-75740533D02*
X31190476Y-76454819D01*
X31190476Y-76454819D02*
X31428572Y-75454819D01*
X32238095Y-75788152D02*
X32238095Y-76454819D01*
X32000000Y-75407200D02*
X31761905Y-76121485D01*
X31761905Y-76121485D02*
X32380952Y-76121485D01*
X17666667Y-88407200D02*
X17809524Y-88454819D01*
X17809524Y-88454819D02*
X18047619Y-88454819D01*
X18047619Y-88454819D02*
X18142857Y-88407200D01*
X18142857Y-88407200D02*
X18190476Y-88359580D01*
X18190476Y-88359580D02*
X18238095Y-88264342D01*
X18238095Y-88264342D02*
X18238095Y-88169104D01*
X18238095Y-88169104D02*
X18190476Y-88073866D01*
X18190476Y-88073866D02*
X18142857Y-88026247D01*
X18142857Y-88026247D02*
X18047619Y-87978628D01*
X18047619Y-87978628D02*
X17857143Y-87931009D01*
X17857143Y-87931009D02*
X17761905Y-87883390D01*
X17761905Y-87883390D02*
X17714286Y-87835771D01*
X17714286Y-87835771D02*
X17666667Y-87740533D01*
X17666667Y-87740533D02*
X17666667Y-87645295D01*
X17666667Y-87645295D02*
X17714286Y-87550057D01*
X17714286Y-87550057D02*
X17761905Y-87502438D01*
X17761905Y-87502438D02*
X17857143Y-87454819D01*
X17857143Y-87454819D02*
X18095238Y-87454819D01*
X18095238Y-87454819D02*
X18238095Y-87502438D01*
X18571429Y-87454819D02*
X18809524Y-88454819D01*
X18809524Y-88454819D02*
X19000000Y-87740533D01*
X19000000Y-87740533D02*
X19190476Y-88454819D01*
X19190476Y-88454819D02*
X19428572Y-87454819D01*
X19761905Y-87550057D02*
X19809524Y-87502438D01*
X19809524Y-87502438D02*
X19904762Y-87454819D01*
X19904762Y-87454819D02*
X20142857Y-87454819D01*
X20142857Y-87454819D02*
X20238095Y-87502438D01*
X20238095Y-87502438D02*
X20285714Y-87550057D01*
X20285714Y-87550057D02*
X20333333Y-87645295D01*
X20333333Y-87645295D02*
X20333333Y-87740533D01*
X20333333Y-87740533D02*
X20285714Y-87883390D01*
X20285714Y-87883390D02*
X19714286Y-88454819D01*
X19714286Y-88454819D02*
X20333333Y-88454819D01*
X38666667Y-91407200D02*
X38809524Y-91454819D01*
X38809524Y-91454819D02*
X39047619Y-91454819D01*
X39047619Y-91454819D02*
X39142857Y-91407200D01*
X39142857Y-91407200D02*
X39190476Y-91359580D01*
X39190476Y-91359580D02*
X39238095Y-91264342D01*
X39238095Y-91264342D02*
X39238095Y-91169104D01*
X39238095Y-91169104D02*
X39190476Y-91073866D01*
X39190476Y-91073866D02*
X39142857Y-91026247D01*
X39142857Y-91026247D02*
X39047619Y-90978628D01*
X39047619Y-90978628D02*
X38857143Y-90931009D01*
X38857143Y-90931009D02*
X38761905Y-90883390D01*
X38761905Y-90883390D02*
X38714286Y-90835771D01*
X38714286Y-90835771D02*
X38666667Y-90740533D01*
X38666667Y-90740533D02*
X38666667Y-90645295D01*
X38666667Y-90645295D02*
X38714286Y-90550057D01*
X38714286Y-90550057D02*
X38761905Y-90502438D01*
X38761905Y-90502438D02*
X38857143Y-90454819D01*
X38857143Y-90454819D02*
X39095238Y-90454819D01*
X39095238Y-90454819D02*
X39238095Y-90502438D01*
X39571429Y-90454819D02*
X39809524Y-91454819D01*
X39809524Y-91454819D02*
X40000000Y-90740533D01*
X40000000Y-90740533D02*
X40190476Y-91454819D01*
X40190476Y-91454819D02*
X40428572Y-90454819D01*
X40857143Y-91454819D02*
X41047619Y-91454819D01*
X41047619Y-91454819D02*
X41142857Y-91407200D01*
X41142857Y-91407200D02*
X41190476Y-91359580D01*
X41190476Y-91359580D02*
X41285714Y-91216723D01*
X41285714Y-91216723D02*
X41333333Y-91026247D01*
X41333333Y-91026247D02*
X41333333Y-90645295D01*
X41333333Y-90645295D02*
X41285714Y-90550057D01*
X41285714Y-90550057D02*
X41238095Y-90502438D01*
X41238095Y-90502438D02*
X41142857Y-90454819D01*
X41142857Y-90454819D02*
X40952381Y-90454819D01*
X40952381Y-90454819D02*
X40857143Y-90502438D01*
X40857143Y-90502438D02*
X40809524Y-90550057D01*
X40809524Y-90550057D02*
X40761905Y-90645295D01*
X40761905Y-90645295D02*
X40761905Y-90883390D01*
X40761905Y-90883390D02*
X40809524Y-90978628D01*
X40809524Y-90978628D02*
X40857143Y-91026247D01*
X40857143Y-91026247D02*
X40952381Y-91073866D01*
X40952381Y-91073866D02*
X41142857Y-91073866D01*
X41142857Y-91073866D02*
X41238095Y-91026247D01*
X41238095Y-91026247D02*
X41285714Y-90978628D01*
X41285714Y-90978628D02*
X41333333Y-90883390D01*
X59666667Y-88407200D02*
X59809524Y-88454819D01*
X59809524Y-88454819D02*
X60047619Y-88454819D01*
X60047619Y-88454819D02*
X60142857Y-88407200D01*
X60142857Y-88407200D02*
X60190476Y-88359580D01*
X60190476Y-88359580D02*
X60238095Y-88264342D01*
X60238095Y-88264342D02*
X60238095Y-88169104D01*
X60238095Y-88169104D02*
X60190476Y-88073866D01*
X60190476Y-88073866D02*
X60142857Y-88026247D01*
X60142857Y-88026247D02*
X60047619Y-87978628D01*
X60047619Y-87978628D02*
X59857143Y-87931009D01*
X59857143Y-87931009D02*
X59761905Y-87883390D01*
X59761905Y-87883390D02*
X59714286Y-87835771D01*
X59714286Y-87835771D02*
X59666667Y-87740533D01*
X59666667Y-87740533D02*
X59666667Y-87645295D01*
X59666667Y-87645295D02*
X59714286Y-87550057D01*
X59714286Y-87550057D02*
X59761905Y-87502438D01*
X59761905Y-87502438D02*
X59857143Y-87454819D01*
X59857143Y-87454819D02*
X60095238Y-87454819D01*
X60095238Y-87454819D02*
X60238095Y-87502438D01*
X60571429Y-87454819D02*
X60809524Y-88454819D01*
X60809524Y-88454819D02*
X61000000Y-87740533D01*
X61000000Y-87740533D02*
X61190476Y-88454819D01*
X61190476Y-88454819D02*
X61428572Y-87454819D01*
X62238095Y-87454819D02*
X62047619Y-87454819D01*
X62047619Y-87454819D02*
X61952381Y-87502438D01*
X61952381Y-87502438D02*
X61904762Y-87550057D01*
X61904762Y-87550057D02*
X61809524Y-87692914D01*
X61809524Y-87692914D02*
X61761905Y-87883390D01*
X61761905Y-87883390D02*
X61761905Y-88264342D01*
X61761905Y-88264342D02*
X61809524Y-88359580D01*
X61809524Y-88359580D02*
X61857143Y-88407200D01*
X61857143Y-88407200D02*
X61952381Y-88454819D01*
X61952381Y-88454819D02*
X62142857Y-88454819D01*
X62142857Y-88454819D02*
X62238095Y-88407200D01*
X62238095Y-88407200D02*
X62285714Y-88359580D01*
X62285714Y-88359580D02*
X62333333Y-88264342D01*
X62333333Y-88264342D02*
X62333333Y-88026247D01*
X62333333Y-88026247D02*
X62285714Y-87931009D01*
X62285714Y-87931009D02*
X62238095Y-87883390D01*
X62238095Y-87883390D02*
X62142857Y-87835771D01*
X62142857Y-87835771D02*
X61952381Y-87835771D01*
X61952381Y-87835771D02*
X61857143Y-87883390D01*
X61857143Y-87883390D02*
X61809524Y-87931009D01*
X61809524Y-87931009D02*
X61761905Y-88026247D01*
X2166666Y-43454819D02*
X2166666Y-44169104D01*
X2166666Y-44169104D02*
X2119047Y-44311961D01*
X2119047Y-44311961D02*
X2023809Y-44407200D01*
X2023809Y-44407200D02*
X1880952Y-44454819D01*
X1880952Y-44454819D02*
X1785714Y-44454819D01*
X2547619Y-43454819D02*
X3166666Y-43454819D01*
X3166666Y-43454819D02*
X2833333Y-43835771D01*
X2833333Y-43835771D02*
X2976190Y-43835771D01*
X2976190Y-43835771D02*
X3071428Y-43883390D01*
X3071428Y-43883390D02*
X3119047Y-43931009D01*
X3119047Y-43931009D02*
X3166666Y-44026247D01*
X3166666Y-44026247D02*
X3166666Y-44264342D01*
X3166666Y-44264342D02*
X3119047Y-44359580D01*
X3119047Y-44359580D02*
X3071428Y-44407200D01*
X3071428Y-44407200D02*
X2976190Y-44454819D01*
X2976190Y-44454819D02*
X2690476Y-44454819D01*
X2690476Y-44454819D02*
X2595238Y-44407200D01*
X2595238Y-44407200D02*
X2547619Y-44359580D01*
X17666667Y-64407200D02*
X17809524Y-64454819D01*
X17809524Y-64454819D02*
X18047619Y-64454819D01*
X18047619Y-64454819D02*
X18142857Y-64407200D01*
X18142857Y-64407200D02*
X18190476Y-64359580D01*
X18190476Y-64359580D02*
X18238095Y-64264342D01*
X18238095Y-64264342D02*
X18238095Y-64169104D01*
X18238095Y-64169104D02*
X18190476Y-64073866D01*
X18190476Y-64073866D02*
X18142857Y-64026247D01*
X18142857Y-64026247D02*
X18047619Y-63978628D01*
X18047619Y-63978628D02*
X17857143Y-63931009D01*
X17857143Y-63931009D02*
X17761905Y-63883390D01*
X17761905Y-63883390D02*
X17714286Y-63835771D01*
X17714286Y-63835771D02*
X17666667Y-63740533D01*
X17666667Y-63740533D02*
X17666667Y-63645295D01*
X17666667Y-63645295D02*
X17714286Y-63550057D01*
X17714286Y-63550057D02*
X17761905Y-63502438D01*
X17761905Y-63502438D02*
X17857143Y-63454819D01*
X17857143Y-63454819D02*
X18095238Y-63454819D01*
X18095238Y-63454819D02*
X18238095Y-63502438D01*
X18571429Y-63454819D02*
X18809524Y-64454819D01*
X18809524Y-64454819D02*
X19000000Y-63740533D01*
X19000000Y-63740533D02*
X19190476Y-64454819D01*
X19190476Y-64454819D02*
X19428572Y-63454819D01*
X20333333Y-64454819D02*
X19761905Y-64454819D01*
X20047619Y-64454819D02*
X20047619Y-63454819D01*
X20047619Y-63454819D02*
X19952381Y-63597676D01*
X19952381Y-63597676D02*
X19857143Y-63692914D01*
X19857143Y-63692914D02*
X19761905Y-63740533D01*
%TO.C,MOD1*%
D11*
X57000000Y-29250000D02*
X57000000Y-7750000D01*
X58000000Y-6750000D02*
X74000000Y-6750000D01*
X61670000Y-30250000D02*
X58000000Y-30250000D01*
X70610000Y-30250000D02*
X61670000Y-30250000D01*
X74000000Y-30250000D02*
X70610000Y-30250000D01*
X75000000Y-7750000D02*
X75000000Y-29250000D01*
X57000000Y-7750000D02*
G75*
G02*
X58000000Y-6750000I1000000J0D01*
G01*
X58000000Y-30250000D02*
G75*
G02*
X57000000Y-29250000I0J1000000D01*
G01*
X74000000Y-6750000D02*
G75*
G02*
X75000000Y-7750000I1J-999999D01*
G01*
X75000000Y-29250000D02*
G75*
G02*
X74000000Y-30250000I-999999J-1D01*
G01*
D12*
X75850000Y-28660000D02*
G75*
G02*
X75650000Y-28660000I-100000J0D01*
G01*
X75650000Y-28660000D02*
G75*
G02*
X75850000Y-28660000I100000J0D01*
G01*
%TO.C,SW5*%
D10*
X74750000Y-79000000D02*
G75*
G02*
X71250000Y-79000000I-1750000J0D01*
G01*
X71250000Y-79000000D02*
G75*
G02*
X74750000Y-79000000I1750000J0D01*
G01*
%TO.C,SW3*%
X8750000Y-79000000D02*
G75*
G02*
X5250000Y-79000000I-1750000J0D01*
G01*
X5250000Y-79000000D02*
G75*
G02*
X8750000Y-79000000I1750000J0D01*
G01*
%TO.C,SW8*%
X50750000Y-79000000D02*
G75*
G02*
X47250000Y-79000000I-1750000J0D01*
G01*
X47250000Y-79000000D02*
G75*
G02*
X50750000Y-79000000I1750000J0D01*
G01*
%TO.C,SW7*%
X62750000Y-67000000D02*
G75*
G02*
X59250000Y-67000000I-1750000J0D01*
G01*
X59250000Y-67000000D02*
G75*
G02*
X62750000Y-67000000I1750000J0D01*
G01*
%TO.C,D1*%
D13*
X5435000Y-10455000D02*
X5435000Y-13545000D01*
X5435000Y-10455170D02*
G75*
G02*
X10985000Y-12000000I2560000J-1544830D01*
G01*
X10985000Y-12000000D02*
G75*
G02*
X5435000Y-13544830I-2990000J0D01*
G01*
X10495000Y-12000000D02*
G75*
G02*
X5495000Y-12000000I-2500000J0D01*
G01*
X5495000Y-12000000D02*
G75*
G02*
X10495000Y-12000000I2500000J0D01*
G01*
%TO.C,D3*%
D10*
X67500000Y-32415000D02*
X70500000Y-32415000D01*
X67500000Y-43085000D02*
X67500000Y-32415000D01*
X67500000Y-43085000D02*
X70500000Y-43085000D01*
X70500000Y-32415000D02*
X70500000Y-43085000D01*
%TO.C,SW4*%
X32750000Y-79000000D02*
G75*
G02*
X29250000Y-79000000I-1750000J0D01*
G01*
X29250000Y-79000000D02*
G75*
G02*
X32750000Y-79000000I1750000J0D01*
G01*
%TO.C,SW2*%
X20750000Y-91000000D02*
G75*
G02*
X17250000Y-91000000I-1750000J0D01*
G01*
X17250000Y-91000000D02*
G75*
G02*
X20750000Y-91000000I1750000J0D01*
G01*
%TO.C,SW9*%
X41750000Y-94000000D02*
G75*
G02*
X38250000Y-94000000I-1750000J0D01*
G01*
X38250000Y-94000000D02*
G75*
G02*
X41750000Y-94000000I1750000J0D01*
G01*
%TO.C,SW6*%
X62750000Y-91000000D02*
G75*
G02*
X59250000Y-91000000I-1750000J0D01*
G01*
X59250000Y-91000000D02*
G75*
G02*
X62750000Y-91000000I1750000J0D01*
G01*
%TO.C,SW1*%
X20750000Y-67000000D02*
G75*
G02*
X17250000Y-67000000I-1750000J0D01*
G01*
X17250000Y-67000000D02*
G75*
G02*
X20750000Y-67000000I1750000J0D01*
G01*
%TD*%
%LPC*%
D14*
%TO.C,TP6*%
X41000000Y-35000000D03*
%TD*%
D15*
%TO.C,MOD1*%
X73620000Y-23580000D03*
X73620000Y-21040000D03*
X73620000Y-18500000D03*
X58380000Y-23580000D03*
X73620000Y-15960000D03*
X73620000Y-13420000D03*
D16*
X58380000Y-28660000D03*
D15*
X73620000Y-10880000D03*
X73620000Y-8340000D03*
X58380000Y-8340000D03*
X58380000Y-10880000D03*
X58380000Y-13420000D03*
X58380000Y-15960000D03*
X58380000Y-18500000D03*
X58380000Y-21000000D03*
X58380000Y-26120000D03*
X73620000Y-26120000D03*
X73620000Y-28660000D03*
%TD*%
D17*
%TO.C,SW5*%
X69000000Y-76750000D03*
D18*
X77000000Y-76750000D03*
X69000000Y-81250000D03*
X77000000Y-81250000D03*
%TD*%
D17*
%TO.C,SW3*%
X3000000Y-76750000D03*
D18*
X11000000Y-76750000D03*
X3000000Y-81250000D03*
X11000000Y-81250000D03*
%TD*%
D17*
%TO.C,SW8*%
X45000000Y-76750000D03*
D18*
X53000000Y-76750000D03*
X45000000Y-81250000D03*
X53000000Y-81250000D03*
%TD*%
D17*
%TO.C,SW7*%
X57000000Y-64750000D03*
D18*
X65000000Y-64750000D03*
X57000000Y-69250000D03*
X65000000Y-69250000D03*
%TD*%
D17*
%TO.C,U2*%
X20550000Y-11000000D03*
D18*
X18010000Y-11000000D03*
X15470000Y-11000000D03*
%TD*%
D14*
%TO.C,TP22*%
X53500000Y-26500000D03*
%TD*%
D19*
%TO.C,D1*%
X6725000Y-12000000D03*
D20*
X9265000Y-12000000D03*
%TD*%
D21*
%TO.C,D3*%
X69000000Y-41560000D03*
D22*
X69000000Y-39020000D03*
X69000000Y-36480000D03*
X69000000Y-33940000D03*
%TD*%
D21*
%TO.C,J2*%
X30110000Y-11000000D03*
D22*
X32650000Y-11000000D03*
X35190000Y-11000000D03*
X37730000Y-11000000D03*
X40270000Y-11000000D03*
X42810000Y-11000000D03*
X45350000Y-11000000D03*
X47890000Y-11000000D03*
%TD*%
D17*
%TO.C,SW4*%
X27000000Y-76750000D03*
D18*
X35000000Y-76750000D03*
X27000000Y-81250000D03*
X35000000Y-81250000D03*
%TD*%
D14*
%TO.C,TP33*%
X21000000Y-24500000D03*
%TD*%
%TO.C,TP1*%
X60000000Y-49000000D03*
%TD*%
D17*
%TO.C,SW2*%
X15000000Y-88750000D03*
D18*
X23000000Y-88750000D03*
X15000000Y-93250000D03*
X23000000Y-93250000D03*
%TD*%
D17*
%TO.C,SW9*%
X36000000Y-91750000D03*
D18*
X44000000Y-91750000D03*
X36000000Y-96250000D03*
X44000000Y-96250000D03*
%TD*%
D14*
%TO.C,TP29*%
X72500000Y-42500000D03*
%TD*%
%TO.C,TP9*%
X34000000Y-18500000D03*
%TD*%
%TO.C,TP13*%
X53000000Y-11500000D03*
%TD*%
%TO.C,TP21*%
X51000000Y-62500000D03*
%TD*%
%TO.C,TP16*%
X53000000Y-17000000D03*
%TD*%
D17*
%TO.C,SW6*%
X57000000Y-88750000D03*
D18*
X65000000Y-88750000D03*
X57000000Y-93250000D03*
X65000000Y-93250000D03*
%TD*%
D21*
%TO.C,J3*%
X5000000Y-37650000D03*
D22*
X5000000Y-40190000D03*
X5000000Y-42730000D03*
X5000000Y-45270000D03*
X5000000Y-47810000D03*
X5000000Y-50350000D03*
%TD*%
D17*
%TO.C,SW1*%
X15000000Y-64750000D03*
D18*
X23000000Y-64750000D03*
X15000000Y-69250000D03*
X23000000Y-69250000D03*
%TD*%
D14*
%TO.C,TP23*%
X46000000Y-56000000D03*
%TD*%
%TO.C,TP17*%
X71500000Y-28500000D03*
%TD*%
D23*
%TO.C,R43*%
X10920000Y-111000000D03*
X21080000Y-111000000D03*
%TD*%
%TO.C,R38*%
X33920000Y-31500000D03*
X44080000Y-31500000D03*
%TD*%
D24*
%TO.C,C2*%
X59000000Y-54270000D03*
D25*
X59000000Y-51730000D03*
%TD*%
D14*
%TO.C,TP32*%
X14500000Y-12000000D03*
%TD*%
D26*
%TO.C,Q2*%
X35960000Y-16140000D03*
D27*
X38500000Y-16140000D03*
X41040000Y-16140000D03*
%TD*%
D14*
%TO.C,TP31*%
X52500000Y-8500000D03*
%TD*%
%TO.C,TP2*%
X58500000Y-71000000D03*
%TD*%
D28*
%TO.C,C17*%
X61500000Y-42500000D03*
D23*
X59500000Y-42500000D03*
%TD*%
D24*
%TO.C,C22*%
X43000000Y-37270000D03*
D25*
X43000000Y-34730000D03*
%TD*%
D29*
%TO.C,J5*%
X26200000Y-43000000D03*
D30*
X26200000Y-41000000D03*
%TD*%
D23*
%TO.C,R22*%
X36080000Y-69000000D03*
X25920000Y-69000000D03*
%TD*%
D14*
%TO.C,TP12*%
X71000000Y-24000000D03*
%TD*%
D26*
%TO.C,Q4*%
X57460000Y-36640000D03*
D27*
X60000000Y-36640000D03*
X62540000Y-36640000D03*
%TD*%
D31*
%TO.C,C21*%
X47500000Y-45000000D03*
D23*
X47500000Y-43000000D03*
%TD*%
D24*
%TO.C,C18*%
X53770000Y-54000000D03*
D25*
X51230000Y-54000000D03*
%TD*%
D14*
%TO.C,TP18*%
X66000000Y-25000000D03*
%TD*%
D23*
%TO.C,R36*%
X21420000Y-26500000D03*
X31580000Y-26500000D03*
%TD*%
%TO.C,R30*%
X54500000Y-27420000D03*
X54500000Y-37580000D03*
%TD*%
D24*
%TO.C,C8*%
X7270000Y-22500000D03*
D25*
X4730000Y-22500000D03*
%TD*%
D23*
%TO.C,R10*%
X22080000Y-55000000D03*
X11920000Y-55000000D03*
%TD*%
D26*
%TO.C,Q6*%
X30640000Y-57540000D03*
D27*
X30640000Y-55000000D03*
X30640000Y-52460000D03*
%TD*%
D23*
%TO.C,R35*%
X29420000Y-35000000D03*
X39580000Y-35000000D03*
%TD*%
D31*
%TO.C,C15*%
X17000000Y-5000000D03*
D23*
X17000000Y-3000000D03*
%TD*%
%TO.C,R7*%
X11000000Y-95080000D03*
X11000000Y-84920000D03*
%TD*%
%TO.C,R5*%
X13920000Y-84000000D03*
X24080000Y-84000000D03*
%TD*%
%TO.C,R8*%
X41500000Y-85580000D03*
X41500000Y-75420000D03*
%TD*%
%TO.C,R33*%
X45920000Y-48500000D03*
X56080000Y-48500000D03*
%TD*%
D32*
%TO.C,U3*%
X35190000Y-47810000D03*
D33*
X35190000Y-45270000D03*
X35190000Y-42730000D03*
X35190000Y-40190000D03*
X42810000Y-40190000D03*
X42810000Y-42730000D03*
X42810000Y-45270000D03*
X42810000Y-47810000D03*
%TD*%
D23*
%TO.C,R26*%
X54000000Y-70580000D03*
X54000000Y-60420000D03*
%TD*%
%TO.C,R39*%
X44080000Y-28000000D03*
X33920000Y-28000000D03*
%TD*%
D34*
%TO.C,J1*%
X64250000Y-52525000D03*
D35*
X66750000Y-52525000D03*
X69250000Y-52525000D03*
X71750000Y-52525000D03*
%TD*%
D23*
%TO.C,R40*%
X52920000Y-104000000D03*
X63080000Y-104000000D03*
%TD*%
D26*
%TO.C,Q1*%
X26040000Y-4860000D03*
D27*
X23500000Y-4860000D03*
X20960000Y-4860000D03*
%TD*%
D23*
%TO.C,R41*%
X69000000Y-111080000D03*
X69000000Y-100920000D03*
%TD*%
%TO.C,R16*%
X49080000Y-7500000D03*
X38920000Y-7500000D03*
%TD*%
D14*
%TO.C,TP11*%
X69000000Y-22000000D03*
%TD*%
D24*
%TO.C,C27*%
X53230000Y-100000000D03*
D25*
X55770000Y-100000000D03*
%TD*%
D28*
%TO.C,C25*%
X31500000Y-48500000D03*
D23*
X29500000Y-48500000D03*
%TD*%
%TO.C,R4*%
X24080000Y-80500000D03*
X13920000Y-80500000D03*
%TD*%
D36*
%TO.C,D2*%
X65500000Y-43580000D03*
D37*
X65500000Y-33420000D03*
%TD*%
D24*
%TO.C,C10*%
X5000000Y-28270000D03*
D25*
X5000000Y-25730000D03*
%TD*%
D24*
%TO.C,C16*%
X75770000Y-43500000D03*
D25*
X73230000Y-43500000D03*
%TD*%
D23*
%TO.C,R28*%
X32920000Y-21000000D03*
X43080000Y-21000000D03*
%TD*%
D24*
%TO.C,C7*%
X21500000Y-23270000D03*
D25*
X21500000Y-20730000D03*
%TD*%
D24*
%TO.C,C23*%
X35500000Y-50730000D03*
D25*
X35500000Y-53270000D03*
%TD*%
D23*
%TO.C,R14*%
X53580000Y-14500000D03*
X43420000Y-14500000D03*
%TD*%
D29*
%TO.C,J4*%
X74450000Y-39000000D03*
D30*
X74450000Y-37000000D03*
%TD*%
D14*
%TO.C,TP14*%
X28500000Y-7000000D03*
%TD*%
D23*
%TO.C,R18*%
X5500000Y-63580000D03*
X5500000Y-53420000D03*
%TD*%
D31*
%TO.C,C13*%
X32500000Y-7000000D03*
D23*
X32500000Y-5000000D03*
%TD*%
D14*
%TO.C,TP10*%
X60500000Y-23500000D03*
%TD*%
D31*
%TO.C,C11*%
X5000000Y-33500000D03*
D23*
X5000000Y-31500000D03*
%TD*%
D24*
%TO.C,C6*%
X53730000Y-45000000D03*
D25*
X56270000Y-45000000D03*
%TD*%
D14*
%TO.C,TP8*%
X61000000Y-29000000D03*
%TD*%
D23*
%TO.C,R42*%
X10920000Y-101000000D03*
X21080000Y-101000000D03*
%TD*%
%TO.C,R24*%
X24080000Y-73500000D03*
X13920000Y-73500000D03*
%TD*%
D24*
%TO.C,C14*%
X12000000Y-7270000D03*
D25*
X12000000Y-4730000D03*
%TD*%
D23*
%TO.C,R6*%
X27000000Y-95080000D03*
X27000000Y-84920000D03*
%TD*%
%TO.C,R20*%
X77000000Y-21420000D03*
X77000000Y-31580000D03*
%TD*%
%TO.C,R32*%
X43000000Y-61080000D03*
X43000000Y-50920000D03*
%TD*%
%TO.C,R2*%
X25000000Y-57080000D03*
X25000000Y-46920000D03*
%TD*%
D38*
%TO.C,C3*%
X70000000Y-57500000D03*
D23*
X70000000Y-59500000D03*
%TD*%
D14*
%TO.C,TP3*%
X76000000Y-52500000D03*
%TD*%
D38*
%TO.C,C5*%
X70000000Y-63500000D03*
D23*
X70000000Y-65500000D03*
%TD*%
%TO.C,R17*%
X47080000Y-4000000D03*
X36920000Y-4000000D03*
%TD*%
D24*
%TO.C,C19*%
X46500000Y-54270000D03*
D25*
X46500000Y-51730000D03*
%TD*%
D23*
%TO.C,R3*%
X24080000Y-77000000D03*
X13920000Y-77000000D03*
%TD*%
D24*
%TO.C,C24*%
X32270000Y-38500000D03*
D25*
X29730000Y-38500000D03*
%TD*%
D23*
%TO.C,R1*%
X3000000Y-8920000D03*
X3000000Y-19080000D03*
%TD*%
D14*
%TO.C,TP30*%
X66000000Y-28000000D03*
%TD*%
D23*
%TO.C,R9*%
X55920000Y-74000000D03*
X66080000Y-74000000D03*
%TD*%
D14*
%TO.C,TP19*%
X28000000Y-12500000D03*
%TD*%
D23*
%TO.C,R12*%
X32420000Y-72500000D03*
X42580000Y-72500000D03*
%TD*%
D32*
%TO.C,U1*%
X10190000Y-51510000D03*
D33*
X10190000Y-48970000D03*
X10190000Y-46430000D03*
X10190000Y-43890000D03*
X10190000Y-41350000D03*
X10190000Y-38810000D03*
X10190000Y-36270000D03*
X10190000Y-33730000D03*
X10190000Y-31190000D03*
X10190000Y-28650000D03*
X10190000Y-26110000D03*
X10190000Y-23570000D03*
X10190000Y-21030000D03*
X10190000Y-18490000D03*
X17810000Y-18490000D03*
X17810000Y-21030000D03*
X17810000Y-23570000D03*
X17810000Y-26110000D03*
X17810000Y-28650000D03*
X17810000Y-31190000D03*
X17810000Y-33730000D03*
X17810000Y-36270000D03*
X17810000Y-38810000D03*
X17810000Y-41350000D03*
X17810000Y-43890000D03*
X17810000Y-46430000D03*
X17810000Y-48970000D03*
X17810000Y-51510000D03*
%TD*%
D23*
%TO.C,R11*%
X9000000Y-64580000D03*
X9000000Y-54420000D03*
%TD*%
D38*
%TO.C,C1*%
X64000000Y-57500000D03*
D23*
X64000000Y-59500000D03*
%TD*%
D26*
%TO.C,Q5*%
X47140000Y-40040000D03*
D27*
X47140000Y-37500000D03*
X47140000Y-34960000D03*
%TD*%
D14*
%TO.C,TP4*%
X66000000Y-68000000D03*
%TD*%
D23*
%TO.C,R13*%
X38000000Y-77420000D03*
X38000000Y-87580000D03*
%TD*%
D39*
%TO.C,C9*%
X21500000Y-31000000D03*
D23*
X23500000Y-31000000D03*
%TD*%
%TO.C,R31*%
X56080000Y-57500000D03*
X45920000Y-57500000D03*
%TD*%
%TO.C,R15*%
X51000000Y-27580000D03*
X51000000Y-17420000D03*
%TD*%
D24*
%TO.C,C12*%
X32500000Y-14230000D03*
D25*
X32500000Y-16770000D03*
%TD*%
D40*
%TO.C,U4*%
X49890000Y-109810000D03*
D41*
X47350000Y-109810000D03*
X44810000Y-109810000D03*
X42270000Y-109810000D03*
X39730000Y-109810000D03*
X37190000Y-109810000D03*
X34650000Y-109810000D03*
X32110000Y-109810000D03*
X32110000Y-102190000D03*
X34650000Y-102190000D03*
X37190000Y-102190000D03*
X39730000Y-102190000D03*
X42270000Y-102190000D03*
X44810000Y-102190000D03*
X47350000Y-102190000D03*
X49890000Y-102190000D03*
%TD*%
D26*
%TO.C,Q3*%
X25460000Y-20140000D03*
D27*
X28000000Y-20140000D03*
X30540000Y-20140000D03*
%TD*%
D24*
%TO.C,C26*%
X31500000Y-44270000D03*
D25*
X31500000Y-41730000D03*
%TD*%
D24*
%TO.C,C20*%
X39500000Y-55730000D03*
D25*
X39500000Y-58270000D03*
%TD*%
D23*
%TO.C,R27*%
X26080000Y-15000000D03*
X15920000Y-15000000D03*
%TD*%
%TO.C,R29*%
X47000000Y-22420000D03*
X47000000Y-32580000D03*
%TD*%
%TO.C,R21*%
X22420000Y-60500000D03*
X32580000Y-60500000D03*
%TD*%
%TO.C,R25*%
X51080000Y-67500000D03*
X40920000Y-67500000D03*
%TD*%
D14*
%TO.C,TP20*%
X55500000Y-9000000D03*
%TD*%
D23*
%TO.C,R37*%
X33920000Y-24500000D03*
X44080000Y-24500000D03*
%TD*%
%TO.C,R19*%
X77000000Y-8920000D03*
X77000000Y-19080000D03*
%TD*%
%TO.C,R23*%
X38420000Y-64000000D03*
X48580000Y-64000000D03*
%TD*%
%TO.C,R34*%
X35500000Y-55920000D03*
X35500000Y-66080000D03*
%TD*%
D24*
%TO.C,C4*%
X69500000Y-47270000D03*
D25*
X69500000Y-44730000D03*
%TD*%
%LPD*%
M02*
