%TF.GenerationSoftware,KiCad,Pcbnew,10.0.6*%
%TF.CreationDate,2026-09-11T02:13:48-05:00*%
%TF.ProjectId,KK_main_module,4b4b5f6d-6169-46e5-9f6d-6f64756c652e,C.3 RGB*%
%TF.SameCoordinates,Original*%
%TF.FileFunction,Soldermask,Bot*%
%TF.FilePolarity,Negative*%
%FSLAX46Y46*%
G04 Gerber Fmt 4.6, Leading zero omitted, Abs format (unit mm)*
G04 Created by KiCad (PCBNEW 10.0.6) date 2026-09-11 02:13:48*
%MOMM*%
%LPD*%
G01*
G04 APERTURE LIST*
G04 Aperture macros list*
%AMRoundRect*
0 Rectangle with rounded corners*
0 $1 Rounding radius*
0 $2 $3 $4 $5 $6 $7 $8 $9 X,Y pos of 4 corners*
0 Add a 4 corners polygon primitive as box body*
4,1,4,$2,$3,$4,$5,$6,$7,$8,$9,$2,$3,0*
0 Add four circle primitives for the rounded corners*
1,1,$1+$1,$2,$3*
1,1,$1+$1,$4,$5*
1,1,$1+$1,$6,$7*
1,1,$1+$1,$8,$9*
0 Add four rect primitives between the rounded corners*
20,1,$1+$1,$2,$3,$4,$5,0*
20,1,$1+$1,$4,$5,$6,$7,0*
20,1,$1+$1,$6,$7,$8,$9,0*
20,1,$1+$1,$8,$9,$2,$3,0*%
G04 Aperture macros list end*
%ADD10C,2.000000*%
%ADD11C,1.712000*%
%ADD12RoundRect,0.102000X0.754000X0.754000X-0.754000X0.754000X-0.754000X-0.754000X0.754000X-0.754000X0*%
%ADD13R,1.900000X1.900000*%
%ADD14C,1.900000*%
%ADD15R,1.800000X1.800000*%
%ADD16C,1.800000*%
%ADD17R,1.600000X1.600000*%
%ADD18C,1.600000*%
%ADD19R,1.850000X1.850000*%
%ADD20C,1.850000*%
%ADD21R,1.700000X1.700000*%
%ADD22C,1.700000*%
%ADD23R,1.500000X1.500000*%
%ADD24C,1.500000*%
%ADD25RoundRect,0.250000X0.550000X0.550000X-0.550000X0.550000X-0.550000X-0.550000X0.550000X-0.550000X0*%
%ADD26RoundRect,0.250000X0.625000X-0.350000X0.625000X0.350000X-0.625000X0.350000X-0.625000X-0.350000X0*%
%ADD27O,1.750000X1.200000*%
%ADD28RoundRect,0.250000X0.550000X-0.550000X0.550000X0.550000X-0.550000X0.550000X-0.550000X-0.550000X0*%
%ADD29RoundRect,0.250000X-0.950000X-0.550000X0.950000X-0.550000X0.950000X0.550000X-0.950000X0.550000X0*%
%ADD30O,2.400000X1.600000*%
%ADD31RoundRect,0.250000X-0.600000X-0.725000X0.600000X-0.725000X0.600000X0.725000X-0.600000X0.725000X0*%
%ADD32O,1.700000X1.950000*%
%ADD33RoundRect,0.249999X0.850001X-0.850001X0.850001X0.850001X-0.850001X0.850001X-0.850001X-0.850001X0*%
%ADD34C,2.200000*%
%ADD35RoundRect,0.250000X-0.550000X0.550000X-0.550000X-0.550000X0.550000X-0.550000X0.550000X0.550000X0*%
%ADD36RoundRect,0.250000X-0.550000X-0.550000X0.550000X-0.550000X0.550000X0.550000X-0.550000X0.550000X0*%
%ADD37RoundRect,0.250000X0.550000X-0.950000X0.550000X0.950000X-0.550000X0.950000X-0.550000X-0.950000X0*%
%ADD38O,1.600000X2.400000*%
G04 APERTURE END LIST*
D10*
%TO.C,TP6*%
X41000000Y-35000000D03*
%TD*%
D11*
%TO.C,MOD1*%
X73620000Y-23580000D03*
X73620000Y-21040000D03*
X73620000Y-18500000D03*
X58380000Y-23580000D03*
X73620000Y-15960000D03*
X73620000Y-13420000D03*
D12*
X58380000Y-28660000D03*
D11*
X73620000Y-10880000D03*
X73620000Y-8340000D03*
X58380000Y-8340000D03*
X58380000Y-10880000D03*
X58380000Y-13420000D03*
X58380000Y-15960000D03*
X58380000Y-18500000D03*
X58380000Y-21000000D03*
X58380000Y-26120000D03*
X73620000Y-26120000D03*
X73620000Y-28660000D03*
%TD*%
D13*
%TO.C,SW5*%
X69000000Y-76750000D03*
D14*
X77000000Y-76750000D03*
X69000000Y-81250000D03*
X77000000Y-81250000D03*
%TD*%
D13*
%TO.C,SW3*%
X3000000Y-76750000D03*
D14*
X11000000Y-76750000D03*
X3000000Y-81250000D03*
X11000000Y-81250000D03*
%TD*%
D13*
%TO.C,SW8*%
X45000000Y-76750000D03*
D14*
X53000000Y-76750000D03*
X45000000Y-81250000D03*
X53000000Y-81250000D03*
%TD*%
D13*
%TO.C,SW7*%
X57000000Y-64750000D03*
D14*
X65000000Y-64750000D03*
X57000000Y-69250000D03*
X65000000Y-69250000D03*
%TD*%
D13*
%TO.C,U2*%
X20550000Y-11000000D03*
D14*
X18010000Y-11000000D03*
X15470000Y-11000000D03*
%TD*%
D10*
%TO.C,TP22*%
X53500000Y-26500000D03*
%TD*%
D15*
%TO.C,D1*%
X6725000Y-12000000D03*
D16*
X9265000Y-12000000D03*
%TD*%
D17*
%TO.C,D3*%
X12190000Y-106000000D03*
D18*
X14730000Y-106000000D03*
X17270000Y-106000000D03*
X19810000Y-106000000D03*
%TD*%
D19*
%TO.C,J2*%
X30110000Y-11000000D03*
D20*
X32650000Y-11000000D03*
X35190000Y-11000000D03*
X37730000Y-11000000D03*
X40270000Y-11000000D03*
X42810000Y-11000000D03*
X45350000Y-11000000D03*
X47890000Y-11000000D03*
%TD*%
D13*
%TO.C,SW4*%
X27000000Y-76750000D03*
D14*
X35000000Y-76750000D03*
X27000000Y-81250000D03*
X35000000Y-81250000D03*
%TD*%
D10*
%TO.C,TP33*%
X21000000Y-24500000D03*
%TD*%
%TO.C,TP1*%
X60000000Y-49000000D03*
%TD*%
D13*
%TO.C,SW2*%
X15000000Y-88750000D03*
D14*
X23000000Y-88750000D03*
X15000000Y-93250000D03*
X23000000Y-93250000D03*
%TD*%
D13*
%TO.C,SW9*%
X36000000Y-91750000D03*
D14*
X44000000Y-91750000D03*
X36000000Y-96250000D03*
X44000000Y-96250000D03*
%TD*%
D10*
%TO.C,TP29*%
X72500000Y-42500000D03*
%TD*%
%TO.C,TP9*%
X34000000Y-18500000D03*
%TD*%
%TO.C,TP13*%
X53000000Y-11500000D03*
%TD*%
%TO.C,TP21*%
X51000000Y-62500000D03*
%TD*%
%TO.C,TP16*%
X53000000Y-17000000D03*
%TD*%
D13*
%TO.C,SW6*%
X57000000Y-88750000D03*
D14*
X65000000Y-88750000D03*
X57000000Y-93250000D03*
X65000000Y-93250000D03*
%TD*%
D19*
%TO.C,J3*%
X5000000Y-37650000D03*
D20*
X5000000Y-40190000D03*
X5000000Y-42730000D03*
X5000000Y-45270000D03*
X5000000Y-47810000D03*
X5000000Y-50350000D03*
%TD*%
D13*
%TO.C,SW1*%
X15000000Y-64750000D03*
D14*
X23000000Y-64750000D03*
X15000000Y-69250000D03*
X23000000Y-69250000D03*
%TD*%
D10*
%TO.C,TP23*%
X46000000Y-56000000D03*
%TD*%
%TO.C,TP17*%
X71500000Y-28500000D03*
%TD*%
D18*
%TO.C,R43*%
X10920000Y-111000000D03*
X21080000Y-111000000D03*
%TD*%
%TO.C,R38*%
X33920000Y-31500000D03*
X44080000Y-31500000D03*
%TD*%
D21*
%TO.C,C2*%
X59000000Y-54270000D03*
D22*
X59000000Y-51730000D03*
%TD*%
D10*
%TO.C,TP32*%
X14500000Y-12000000D03*
%TD*%
D23*
%TO.C,Q2*%
X35960000Y-16140000D03*
D24*
X38500000Y-16140000D03*
X41040000Y-16140000D03*
%TD*%
D10*
%TO.C,TP31*%
X52500000Y-8500000D03*
%TD*%
%TO.C,TP2*%
X58500000Y-71000000D03*
%TD*%
D25*
%TO.C,C17*%
X61500000Y-42500000D03*
D18*
X59500000Y-42500000D03*
%TD*%
D21*
%TO.C,C22*%
X43000000Y-37270000D03*
D22*
X43000000Y-34730000D03*
%TD*%
D26*
%TO.C,J5*%
X26200000Y-43000000D03*
D27*
X26200000Y-41000000D03*
%TD*%
D18*
%TO.C,R22*%
X36080000Y-69000000D03*
X25920000Y-69000000D03*
%TD*%
D10*
%TO.C,TP12*%
X71000000Y-24000000D03*
%TD*%
D23*
%TO.C,Q4*%
X57460000Y-36640000D03*
D24*
X60000000Y-36640000D03*
X62540000Y-36640000D03*
%TD*%
D28*
%TO.C,C21*%
X47500000Y-45000000D03*
D18*
X47500000Y-43000000D03*
%TD*%
D21*
%TO.C,C18*%
X53770000Y-54000000D03*
D22*
X51230000Y-54000000D03*
%TD*%
D10*
%TO.C,TP18*%
X66000000Y-25000000D03*
%TD*%
D18*
%TO.C,R36*%
X21420000Y-26500000D03*
X31580000Y-26500000D03*
%TD*%
%TO.C,R30*%
X54500000Y-27420000D03*
X54500000Y-37580000D03*
%TD*%
D21*
%TO.C,C8*%
X7270000Y-22500000D03*
D22*
X4730000Y-22500000D03*
%TD*%
D18*
%TO.C,R10*%
X22080000Y-55000000D03*
X11920000Y-55000000D03*
%TD*%
D23*
%TO.C,Q6*%
X30640000Y-57540000D03*
D24*
X30640000Y-55000000D03*
X30640000Y-52460000D03*
%TD*%
D18*
%TO.C,R35*%
X29420000Y-35000000D03*
X39580000Y-35000000D03*
%TD*%
D28*
%TO.C,C15*%
X17000000Y-5000000D03*
D18*
X17000000Y-3000000D03*
%TD*%
%TO.C,R7*%
X11000000Y-95080000D03*
X11000000Y-84920000D03*
%TD*%
%TO.C,R5*%
X13920000Y-84000000D03*
X24080000Y-84000000D03*
%TD*%
%TO.C,R8*%
X41500000Y-85580000D03*
X41500000Y-75420000D03*
%TD*%
%TO.C,R33*%
X45920000Y-48500000D03*
X56080000Y-48500000D03*
%TD*%
D29*
%TO.C,U3*%
X35190000Y-47810000D03*
D30*
X35190000Y-45270000D03*
X35190000Y-42730000D03*
X35190000Y-40190000D03*
X42810000Y-40190000D03*
X42810000Y-42730000D03*
X42810000Y-45270000D03*
X42810000Y-47810000D03*
%TD*%
D18*
%TO.C,R26*%
X54000000Y-70580000D03*
X54000000Y-60420000D03*
%TD*%
%TO.C,R39*%
X44080000Y-28000000D03*
X33920000Y-28000000D03*
%TD*%
D31*
%TO.C,J1*%
X64250000Y-52525000D03*
D32*
X66750000Y-52525000D03*
X69250000Y-52525000D03*
X71750000Y-52525000D03*
%TD*%
D18*
%TO.C,R40*%
X52920000Y-104000000D03*
X63080000Y-104000000D03*
%TD*%
D23*
%TO.C,Q1*%
X26040000Y-4860000D03*
D24*
X23500000Y-4860000D03*
X20960000Y-4860000D03*
%TD*%
D18*
%TO.C,R41*%
X69000000Y-111080000D03*
X69000000Y-100920000D03*
%TD*%
%TO.C,R16*%
X49080000Y-7500000D03*
X38920000Y-7500000D03*
%TD*%
D10*
%TO.C,TP11*%
X69000000Y-22000000D03*
%TD*%
D21*
%TO.C,C27*%
X53230000Y-100000000D03*
D22*
X55770000Y-100000000D03*
%TD*%
D25*
%TO.C,C25*%
X31500000Y-48500000D03*
D18*
X29500000Y-48500000D03*
%TD*%
%TO.C,R4*%
X24080000Y-80500000D03*
X13920000Y-80500000D03*
%TD*%
D33*
%TO.C,D2*%
X65500000Y-43580000D03*
D34*
X65500000Y-33420000D03*
%TD*%
D21*
%TO.C,C10*%
X5000000Y-28270000D03*
D22*
X5000000Y-25730000D03*
%TD*%
D21*
%TO.C,C16*%
X75770000Y-43500000D03*
D22*
X73230000Y-43500000D03*
%TD*%
D18*
%TO.C,R28*%
X32920000Y-21000000D03*
X43080000Y-21000000D03*
%TD*%
D21*
%TO.C,C7*%
X21500000Y-23270000D03*
D22*
X21500000Y-20730000D03*
%TD*%
D21*
%TO.C,C23*%
X35500000Y-50730000D03*
D22*
X35500000Y-53270000D03*
%TD*%
D18*
%TO.C,R14*%
X53580000Y-14500000D03*
X43420000Y-14500000D03*
%TD*%
D26*
%TO.C,J4*%
X74450000Y-39000000D03*
D27*
X74450000Y-37000000D03*
%TD*%
D10*
%TO.C,TP14*%
X28500000Y-7000000D03*
%TD*%
D18*
%TO.C,R18*%
X5500000Y-63580000D03*
X5500000Y-53420000D03*
%TD*%
D28*
%TO.C,C13*%
X32500000Y-7000000D03*
D18*
X32500000Y-5000000D03*
%TD*%
D10*
%TO.C,TP10*%
X60500000Y-23500000D03*
%TD*%
D28*
%TO.C,C11*%
X5000000Y-33500000D03*
D18*
X5000000Y-31500000D03*
%TD*%
D21*
%TO.C,C6*%
X53730000Y-45000000D03*
D22*
X56270000Y-45000000D03*
%TD*%
D10*
%TO.C,TP8*%
X61000000Y-29000000D03*
%TD*%
D18*
%TO.C,R42*%
X10920000Y-101000000D03*
X21080000Y-101000000D03*
%TD*%
%TO.C,R24*%
X24080000Y-73500000D03*
X13920000Y-73500000D03*
%TD*%
D21*
%TO.C,C14*%
X12000000Y-7270000D03*
D22*
X12000000Y-4730000D03*
%TD*%
D18*
%TO.C,R6*%
X27000000Y-95080000D03*
X27000000Y-84920000D03*
%TD*%
%TO.C,R20*%
X77000000Y-21420000D03*
X77000000Y-31580000D03*
%TD*%
%TO.C,R32*%
X43000000Y-61080000D03*
X43000000Y-50920000D03*
%TD*%
%TO.C,R2*%
X25000000Y-57080000D03*
X25000000Y-46920000D03*
%TD*%
D35*
%TO.C,C3*%
X70000000Y-57500000D03*
D18*
X70000000Y-59500000D03*
%TD*%
D10*
%TO.C,TP3*%
X76000000Y-52500000D03*
%TD*%
D35*
%TO.C,C5*%
X70000000Y-63500000D03*
D18*
X70000000Y-65500000D03*
%TD*%
%TO.C,R17*%
X47080000Y-4000000D03*
X36920000Y-4000000D03*
%TD*%
D21*
%TO.C,C19*%
X46500000Y-54270000D03*
D22*
X46500000Y-51730000D03*
%TD*%
D18*
%TO.C,R3*%
X24080000Y-77000000D03*
X13920000Y-77000000D03*
%TD*%
D21*
%TO.C,C24*%
X32270000Y-38500000D03*
D22*
X29730000Y-38500000D03*
%TD*%
D18*
%TO.C,R1*%
X3000000Y-8920000D03*
X3000000Y-19080000D03*
%TD*%
D10*
%TO.C,TP30*%
X66000000Y-28000000D03*
%TD*%
D18*
%TO.C,R9*%
X55920000Y-74000000D03*
X66080000Y-74000000D03*
%TD*%
D10*
%TO.C,TP19*%
X28000000Y-12500000D03*
%TD*%
D18*
%TO.C,R12*%
X32420000Y-72500000D03*
X42580000Y-72500000D03*
%TD*%
D29*
%TO.C,U1*%
X10190000Y-51510000D03*
D30*
X10190000Y-48970000D03*
X10190000Y-46430000D03*
X10190000Y-43890000D03*
X10190000Y-41350000D03*
X10190000Y-38810000D03*
X10190000Y-36270000D03*
X10190000Y-33730000D03*
X10190000Y-31190000D03*
X10190000Y-28650000D03*
X10190000Y-26110000D03*
X10190000Y-23570000D03*
X10190000Y-21030000D03*
X10190000Y-18490000D03*
X17810000Y-18490000D03*
X17810000Y-21030000D03*
X17810000Y-23570000D03*
X17810000Y-26110000D03*
X17810000Y-28650000D03*
X17810000Y-31190000D03*
X17810000Y-33730000D03*
X17810000Y-36270000D03*
X17810000Y-38810000D03*
X17810000Y-41350000D03*
X17810000Y-43890000D03*
X17810000Y-46430000D03*
X17810000Y-48970000D03*
X17810000Y-51510000D03*
%TD*%
D18*
%TO.C,R11*%
X9000000Y-64580000D03*
X9000000Y-54420000D03*
%TD*%
D35*
%TO.C,C1*%
X64000000Y-57500000D03*
D18*
X64000000Y-59500000D03*
%TD*%
D23*
%TO.C,Q5*%
X47140000Y-40040000D03*
D24*
X47140000Y-37500000D03*
X47140000Y-34960000D03*
%TD*%
D10*
%TO.C,TP4*%
X66000000Y-68000000D03*
%TD*%
D18*
%TO.C,R13*%
X38000000Y-77420000D03*
X38000000Y-87580000D03*
%TD*%
D36*
%TO.C,C9*%
X21500000Y-31000000D03*
D18*
X23500000Y-31000000D03*
%TD*%
%TO.C,R31*%
X56080000Y-57500000D03*
X45920000Y-57500000D03*
%TD*%
%TO.C,R15*%
X51000000Y-27580000D03*
X51000000Y-17420000D03*
%TD*%
D21*
%TO.C,C12*%
X32500000Y-14230000D03*
D22*
X32500000Y-16770000D03*
%TD*%
D37*
%TO.C,U4*%
X49890000Y-109810000D03*
D38*
X47350000Y-109810000D03*
X44810000Y-109810000D03*
X42270000Y-109810000D03*
X39730000Y-109810000D03*
X37190000Y-109810000D03*
X34650000Y-109810000D03*
X32110000Y-109810000D03*
X32110000Y-102190000D03*
X34650000Y-102190000D03*
X37190000Y-102190000D03*
X39730000Y-102190000D03*
X42270000Y-102190000D03*
X44810000Y-102190000D03*
X47350000Y-102190000D03*
X49890000Y-102190000D03*
%TD*%
D23*
%TO.C,Q3*%
X25460000Y-20140000D03*
D24*
X28000000Y-20140000D03*
X30540000Y-20140000D03*
%TD*%
D21*
%TO.C,C26*%
X31500000Y-44270000D03*
D22*
X31500000Y-41730000D03*
%TD*%
D21*
%TO.C,C20*%
X39500000Y-55730000D03*
D22*
X39500000Y-58270000D03*
%TD*%
D18*
%TO.C,R27*%
X26080000Y-15000000D03*
X15920000Y-15000000D03*
%TD*%
%TO.C,R29*%
X47000000Y-22420000D03*
X47000000Y-32580000D03*
%TD*%
%TO.C,R21*%
X22420000Y-60500000D03*
X32580000Y-60500000D03*
%TD*%
%TO.C,R25*%
X51080000Y-67500000D03*
X40920000Y-67500000D03*
%TD*%
D10*
%TO.C,TP20*%
X55500000Y-9000000D03*
%TD*%
D18*
%TO.C,R37*%
X33920000Y-24500000D03*
X44080000Y-24500000D03*
%TD*%
%TO.C,R19*%
X77000000Y-8920000D03*
X77000000Y-19080000D03*
%TD*%
%TO.C,R23*%
X38420000Y-64000000D03*
X48580000Y-64000000D03*
%TD*%
%TO.C,R34*%
X35500000Y-55920000D03*
X35500000Y-66080000D03*
%TD*%
D21*
%TO.C,C4*%
X69500000Y-47270000D03*
D22*
X69500000Y-44730000D03*
%TD*%
M02*
