%TF.GenerationSoftware,KiCad,Pcbnew,10.0.6*%
%TF.CreationDate,2026-09-11T02:13:48-05:00*%
%TF.ProjectId,KK_main_module,4b4b5f6d-6169-46e5-9f6d-6f64756c652e,C.3 RGB*%
%TF.SameCoordinates,Original*%
%TF.FileFunction,Legend,Top*%
%TF.FilePolarity,Positive*%
%FSLAX46Y46*%
G04 Gerber Fmt 4.6, Leading zero omitted, Abs format (unit mm)*
G04 Created by KiCad (PCBNEW 10.0.6) date 2026-09-11 02:13:48*
%MOMM*%
%LPD*%
G01*
G04 APERTURE LIST*
G04 Aperture macros list*
%AMRoundRect*
0 Rectangle with rounded corners*
0 $1 Rounding radius*
0 $2 $3 $4 $5 $6 $7 $8 $9 X,Y pos of 4 corners*
0 Add a 4 corners polygon primitive as box body*
4,1,4,$2,$3,$4,$5,$6,$7,$8,$9,$2,$3,0*
0 Add four circle primitives for the rounded corners*
1,1,$1+$1,$2,$3*
1,1,$1+$1,$4,$5*
1,1,$1+$1,$6,$7*
1,1,$1+$1,$8,$9*
0 Add four rect primitives between the rounded corners*
20,1,$1+$1,$2,$3,$4,$5,0*
20,1,$1+$1,$4,$5,$6,$7,0*
20,1,$1+$1,$6,$7,$8,$9,0*
20,1,$1+$1,$8,$9,$2,$3,0*%
G04 Aperture macros list end*
%ADD10C,0.150000*%
%ADD11C,0.127000*%
%ADD12C,0.200000*%
%ADD13C,0.120000*%
%ADD14C,2.000000*%
%ADD15C,1.712000*%
%ADD16RoundRect,0.102000X0.754000X0.754000X-0.754000X0.754000X-0.754000X-0.754000X0.754000X-0.754000X0*%
%ADD17R,1.900000X1.900000*%
%ADD18C,1.900000*%
%ADD19R,1.800000X1.800000*%
%ADD20C,1.800000*%
%ADD21R,1.600000X1.600000*%
%ADD22C,1.600000*%
%ADD23R,1.850000X1.850000*%
%ADD24C,1.850000*%
%ADD25R,1.700000X1.700000*%
%ADD26C,1.700000*%
%ADD27R,1.500000X1.500000*%
%ADD28C,1.500000*%
%ADD29RoundRect,0.250000X0.550000X0.550000X-0.550000X0.550000X-0.550000X-0.550000X0.550000X-0.550000X0*%
%ADD30RoundRect,0.250000X0.625000X-0.350000X0.625000X0.350000X-0.625000X0.350000X-0.625000X-0.350000X0*%
%ADD31O,1.750000X1.200000*%
%ADD32RoundRect,0.250000X0.550000X-0.550000X0.550000X0.550000X-0.550000X0.550000X-0.550000X-0.550000X0*%
%ADD33RoundRect,0.250000X-0.950000X-0.550000X0.950000X-0.550000X0.950000X0.550000X-0.950000X0.550000X0*%
%ADD34O,2.400000X1.600000*%
%ADD35RoundRect,0.250000X-0.600000X-0.725000X0.600000X-0.725000X0.600000X0.725000X-0.600000X0.725000X0*%
%ADD36O,1.700000X1.950000*%
%ADD37RoundRect,0.249999X0.850001X-0.850001X0.850001X0.850001X-0.850001X0.850001X-0.850001X-0.850001X0*%
%ADD38C,2.200000*%
%ADD39RoundRect,0.250000X-0.550000X0.550000X-0.550000X-0.550000X0.550000X-0.550000X0.550000X0.550000X0*%
%ADD40RoundRect,0.250000X-0.550000X-0.550000X0.550000X-0.550000X0.550000X0.550000X-0.550000X0.550000X0*%
%ADD41RoundRect,0.250000X0.550000X-0.950000X0.550000X0.950000X-0.550000X0.950000X-0.550000X-0.950000X0*%
%ADD42O,1.600000X2.400000*%
G04 APERTURE END LIST*
D10*
X3507143Y-38058557D02*
X2992857Y-38058557D01*
X3250000Y-38058557D02*
X3250000Y-37158557D01*
X3250000Y-37158557D02*
X3164286Y-37287128D01*
X3164286Y-37287128D02*
X3078571Y-37372842D01*
X3078571Y-37372842D02*
X2992857Y-37415700D01*
X4239285Y-14408557D02*
X4239285Y-13508557D01*
X4753571Y-14408557D02*
X4367857Y-13894271D01*
X4753571Y-13508557D02*
X4239285Y-14022842D01*
X6435714Y-16908557D02*
X6435714Y-16008557D01*
X7378571Y-16908557D02*
X7078571Y-16479985D01*
X6864285Y-16908557D02*
X6864285Y-16008557D01*
X6864285Y-16008557D02*
X7207142Y-16008557D01*
X7207142Y-16008557D02*
X7292857Y-16051414D01*
X7292857Y-16051414D02*
X7335714Y-16094271D01*
X7335714Y-16094271D02*
X7378571Y-16179985D01*
X7378571Y-16179985D02*
X7378571Y-16308557D01*
X7378571Y-16308557D02*
X7335714Y-16394271D01*
X7335714Y-16394271D02*
X7292857Y-16437128D01*
X7292857Y-16437128D02*
X7207142Y-16479985D01*
X7207142Y-16479985D02*
X6864285Y-16479985D01*
X8321428Y-16008557D02*
X8835714Y-16008557D01*
X8578571Y-16908557D02*
X8578571Y-16008557D01*
X9049999Y-16008557D02*
X9649999Y-16908557D01*
X9649999Y-16008557D02*
X9049999Y-16908557D01*
X10697143Y-106408557D02*
X10182857Y-106408557D01*
X10440000Y-106408557D02*
X10440000Y-105508557D01*
X10440000Y-105508557D02*
X10354286Y-105637128D01*
X10354286Y-105637128D02*
X10268571Y-105722842D01*
X10268571Y-105722842D02*
X10182857Y-105765700D01*
X13128572Y-111408557D02*
X12828572Y-110979985D01*
X12614286Y-111408557D02*
X12614286Y-110508557D01*
X12614286Y-110508557D02*
X12957143Y-110508557D01*
X12957143Y-110508557D02*
X13042858Y-110551414D01*
X13042858Y-110551414D02*
X13085715Y-110594271D01*
X13085715Y-110594271D02*
X13128572Y-110679985D01*
X13128572Y-110679985D02*
X13128572Y-110808557D01*
X13128572Y-110808557D02*
X13085715Y-110894271D01*
X13085715Y-110894271D02*
X13042858Y-110937128D01*
X13042858Y-110937128D02*
X12957143Y-110979985D01*
X12957143Y-110979985D02*
X12614286Y-110979985D01*
X13985715Y-110551414D02*
X13900001Y-110508557D01*
X13900001Y-110508557D02*
X13771429Y-110508557D01*
X13771429Y-110508557D02*
X13642858Y-110551414D01*
X13642858Y-110551414D02*
X13557143Y-110637128D01*
X13557143Y-110637128D02*
X13514286Y-110722842D01*
X13514286Y-110722842D02*
X13471429Y-110894271D01*
X13471429Y-110894271D02*
X13471429Y-111022842D01*
X13471429Y-111022842D02*
X13514286Y-111194271D01*
X13514286Y-111194271D02*
X13557143Y-111279985D01*
X13557143Y-111279985D02*
X13642858Y-111365700D01*
X13642858Y-111365700D02*
X13771429Y-111408557D01*
X13771429Y-111408557D02*
X13857143Y-111408557D01*
X13857143Y-111408557D02*
X13985715Y-111365700D01*
X13985715Y-111365700D02*
X14028572Y-111322842D01*
X14028572Y-111322842D02*
X14028572Y-111022842D01*
X14028572Y-111022842D02*
X13857143Y-111022842D01*
X14714286Y-110937128D02*
X14842858Y-110979985D01*
X14842858Y-110979985D02*
X14885715Y-111022842D01*
X14885715Y-111022842D02*
X14928572Y-111108557D01*
X14928572Y-111108557D02*
X14928572Y-111237128D01*
X14928572Y-111237128D02*
X14885715Y-111322842D01*
X14885715Y-111322842D02*
X14842858Y-111365700D01*
X14842858Y-111365700D02*
X14757143Y-111408557D01*
X14757143Y-111408557D02*
X14414286Y-111408557D01*
X14414286Y-111408557D02*
X14414286Y-110508557D01*
X14414286Y-110508557D02*
X14714286Y-110508557D01*
X14714286Y-110508557D02*
X14800001Y-110551414D01*
X14800001Y-110551414D02*
X14842858Y-110594271D01*
X14842858Y-110594271D02*
X14885715Y-110679985D01*
X14885715Y-110679985D02*
X14885715Y-110765700D01*
X14885715Y-110765700D02*
X14842858Y-110851414D01*
X14842858Y-110851414D02*
X14800001Y-110894271D01*
X14800001Y-110894271D02*
X14714286Y-110937128D01*
X14714286Y-110937128D02*
X14414286Y-110937128D01*
X16000000Y-111408557D02*
X16000000Y-110508557D01*
X16000000Y-110508557D02*
X16300000Y-111151414D01*
X16300000Y-111151414D02*
X16600000Y-110508557D01*
X16600000Y-110508557D02*
X16600000Y-111408557D01*
X17200000Y-110508557D02*
X17371428Y-110508557D01*
X17371428Y-110508557D02*
X17457143Y-110551414D01*
X17457143Y-110551414D02*
X17542857Y-110637128D01*
X17542857Y-110637128D02*
X17585714Y-110808557D01*
X17585714Y-110808557D02*
X17585714Y-111108557D01*
X17585714Y-111108557D02*
X17542857Y-111279985D01*
X17542857Y-111279985D02*
X17457143Y-111365700D01*
X17457143Y-111365700D02*
X17371428Y-111408557D01*
X17371428Y-111408557D02*
X17200000Y-111408557D01*
X17200000Y-111408557D02*
X17114286Y-111365700D01*
X17114286Y-111365700D02*
X17028571Y-111279985D01*
X17028571Y-111279985D02*
X16985714Y-111108557D01*
X16985714Y-111108557D02*
X16985714Y-110808557D01*
X16985714Y-110808557D02*
X17028571Y-110637128D01*
X17028571Y-110637128D02*
X17114286Y-110551414D01*
X17114286Y-110551414D02*
X17200000Y-110508557D01*
X18142857Y-110508557D02*
X18314285Y-110508557D01*
X18314285Y-110508557D02*
X18400000Y-110551414D01*
X18400000Y-110551414D02*
X18485714Y-110637128D01*
X18485714Y-110637128D02*
X18528571Y-110808557D01*
X18528571Y-110808557D02*
X18528571Y-111108557D01*
X18528571Y-111108557D02*
X18485714Y-111279985D01*
X18485714Y-111279985D02*
X18400000Y-111365700D01*
X18400000Y-111365700D02*
X18314285Y-111408557D01*
X18314285Y-111408557D02*
X18142857Y-111408557D01*
X18142857Y-111408557D02*
X18057143Y-111365700D01*
X18057143Y-111365700D02*
X17971428Y-111279985D01*
X17971428Y-111279985D02*
X17928571Y-111108557D01*
X17928571Y-111108557D02*
X17928571Y-110808557D01*
X17928571Y-110808557D02*
X17971428Y-110637128D01*
X17971428Y-110637128D02*
X18057143Y-110551414D01*
X18057143Y-110551414D02*
X18142857Y-110508557D01*
X18914285Y-111408557D02*
X18914285Y-110508557D01*
X18914285Y-110508557D02*
X19128571Y-110508557D01*
X19128571Y-110508557D02*
X19257142Y-110551414D01*
X19257142Y-110551414D02*
X19342857Y-110637128D01*
X19342857Y-110637128D02*
X19385714Y-110722842D01*
X19385714Y-110722842D02*
X19428571Y-110894271D01*
X19428571Y-110894271D02*
X19428571Y-111022842D01*
X19428571Y-111022842D02*
X19385714Y-111194271D01*
X19385714Y-111194271D02*
X19342857Y-111279985D01*
X19342857Y-111279985D02*
X19257142Y-111365700D01*
X19257142Y-111365700D02*
X19128571Y-111408557D01*
X19128571Y-111408557D02*
X18914285Y-111408557D01*
X8899999Y-99408557D02*
X8899999Y-98508557D01*
X8899999Y-98508557D02*
X9114285Y-98508557D01*
X9114285Y-98508557D02*
X9242856Y-98551414D01*
X9242856Y-98551414D02*
X9328571Y-98637128D01*
X9328571Y-98637128D02*
X9371428Y-98722842D01*
X9371428Y-98722842D02*
X9414285Y-98894271D01*
X9414285Y-98894271D02*
X9414285Y-99022842D01*
X9414285Y-99022842D02*
X9371428Y-99194271D01*
X9371428Y-99194271D02*
X9328571Y-99279985D01*
X9328571Y-99279985D02*
X9242856Y-99365700D01*
X9242856Y-99365700D02*
X9114285Y-99408557D01*
X9114285Y-99408557D02*
X8899999Y-99408557D01*
X9714285Y-98508557D02*
X10271428Y-98508557D01*
X10271428Y-98508557D02*
X9971428Y-98851414D01*
X9971428Y-98851414D02*
X10099999Y-98851414D01*
X10099999Y-98851414D02*
X10185714Y-98894271D01*
X10185714Y-98894271D02*
X10228571Y-98937128D01*
X10228571Y-98937128D02*
X10271428Y-99022842D01*
X10271428Y-99022842D02*
X10271428Y-99237128D01*
X10271428Y-99237128D02*
X10228571Y-99322842D01*
X10228571Y-99322842D02*
X10185714Y-99365700D01*
X10185714Y-99365700D02*
X10099999Y-99408557D01*
X10099999Y-99408557D02*
X9842856Y-99408557D01*
X9842856Y-99408557D02*
X9757142Y-99365700D01*
X9757142Y-99365700D02*
X9714285Y-99322842D01*
X10657142Y-99322842D02*
X10699999Y-99365700D01*
X10699999Y-99365700D02*
X10657142Y-99408557D01*
X10657142Y-99408557D02*
X10614285Y-99365700D01*
X10614285Y-99365700D02*
X10657142Y-99322842D01*
X10657142Y-99322842D02*
X10657142Y-99408557D01*
X10657142Y-98851414D02*
X10699999Y-98894271D01*
X10699999Y-98894271D02*
X10657142Y-98937128D01*
X10657142Y-98937128D02*
X10614285Y-98894271D01*
X10614285Y-98894271D02*
X10657142Y-98851414D01*
X10657142Y-98851414D02*
X10657142Y-98937128D01*
X12242856Y-99408557D02*
X11728570Y-99408557D01*
X11985713Y-99408557D02*
X11985713Y-98508557D01*
X11985713Y-98508557D02*
X11899999Y-98637128D01*
X11899999Y-98637128D02*
X11814284Y-98722842D01*
X11814284Y-98722842D02*
X11728570Y-98765700D01*
X12628570Y-98937128D02*
X13314285Y-98937128D01*
X13314285Y-99194271D02*
X12628570Y-99194271D01*
X14257142Y-99408557D02*
X13957142Y-98979985D01*
X13742856Y-99408557D02*
X13742856Y-98508557D01*
X13742856Y-98508557D02*
X14085713Y-98508557D01*
X14085713Y-98508557D02*
X14171428Y-98551414D01*
X14171428Y-98551414D02*
X14214285Y-98594271D01*
X14214285Y-98594271D02*
X14257142Y-98679985D01*
X14257142Y-98679985D02*
X14257142Y-98808557D01*
X14257142Y-98808557D02*
X14214285Y-98894271D01*
X14214285Y-98894271D02*
X14171428Y-98937128D01*
X14171428Y-98937128D02*
X14085713Y-98979985D01*
X14085713Y-98979985D02*
X13742856Y-98979985D01*
X15285713Y-98594271D02*
X15328570Y-98551414D01*
X15328570Y-98551414D02*
X15414285Y-98508557D01*
X15414285Y-98508557D02*
X15628570Y-98508557D01*
X15628570Y-98508557D02*
X15714285Y-98551414D01*
X15714285Y-98551414D02*
X15757142Y-98594271D01*
X15757142Y-98594271D02*
X15799999Y-98679985D01*
X15799999Y-98679985D02*
X15799999Y-98765700D01*
X15799999Y-98765700D02*
X15757142Y-98894271D01*
X15757142Y-98894271D02*
X15242856Y-99408557D01*
X15242856Y-99408557D02*
X15799999Y-99408557D01*
X16185713Y-98937128D02*
X16871428Y-98937128D01*
X16871428Y-99194271D02*
X16185713Y-99194271D01*
X17299999Y-99065700D02*
X17985714Y-99065700D01*
X17642856Y-99408557D02*
X17642856Y-98722842D01*
X19014285Y-98508557D02*
X19571428Y-98508557D01*
X19571428Y-98508557D02*
X19271428Y-98851414D01*
X19271428Y-98851414D02*
X19399999Y-98851414D01*
X19399999Y-98851414D02*
X19485714Y-98894271D01*
X19485714Y-98894271D02*
X19528571Y-98937128D01*
X19528571Y-98937128D02*
X19571428Y-99022842D01*
X19571428Y-99022842D02*
X19571428Y-99237128D01*
X19571428Y-99237128D02*
X19528571Y-99322842D01*
X19528571Y-99322842D02*
X19485714Y-99365700D01*
X19485714Y-99365700D02*
X19399999Y-99408557D01*
X19399999Y-99408557D02*
X19142856Y-99408557D01*
X19142856Y-99408557D02*
X19057142Y-99365700D01*
X19057142Y-99365700D02*
X19014285Y-99322842D01*
X19957142Y-98937128D02*
X20642857Y-98937128D01*
X20642857Y-99194271D02*
X19957142Y-99194271D01*
X21371428Y-98937128D02*
X21500000Y-98979985D01*
X21500000Y-98979985D02*
X21542857Y-99022842D01*
X21542857Y-99022842D02*
X21585714Y-99108557D01*
X21585714Y-99108557D02*
X21585714Y-99237128D01*
X21585714Y-99237128D02*
X21542857Y-99322842D01*
X21542857Y-99322842D02*
X21500000Y-99365700D01*
X21500000Y-99365700D02*
X21414285Y-99408557D01*
X21414285Y-99408557D02*
X21071428Y-99408557D01*
X21071428Y-99408557D02*
X21071428Y-98508557D01*
X21071428Y-98508557D02*
X21371428Y-98508557D01*
X21371428Y-98508557D02*
X21457143Y-98551414D01*
X21457143Y-98551414D02*
X21500000Y-98594271D01*
X21500000Y-98594271D02*
X21542857Y-98679985D01*
X21542857Y-98679985D02*
X21542857Y-98765700D01*
X21542857Y-98765700D02*
X21500000Y-98851414D01*
X21500000Y-98851414D02*
X21457143Y-98894271D01*
X21457143Y-98894271D02*
X21371428Y-98937128D01*
X21371428Y-98937128D02*
X21071428Y-98937128D01*
X23042857Y-98808557D02*
X23042857Y-99408557D01*
X22828571Y-98465700D02*
X22614285Y-99108557D01*
X22614285Y-99108557D02*
X23171428Y-99108557D01*
X23514285Y-98937128D02*
X24200000Y-98937128D01*
X24200000Y-99194271D02*
X23514285Y-99194271D01*
X25100000Y-98551414D02*
X25014286Y-98508557D01*
X25014286Y-98508557D02*
X24885714Y-98508557D01*
X24885714Y-98508557D02*
X24757143Y-98551414D01*
X24757143Y-98551414D02*
X24671428Y-98637128D01*
X24671428Y-98637128D02*
X24628571Y-98722842D01*
X24628571Y-98722842D02*
X24585714Y-98894271D01*
X24585714Y-98894271D02*
X24585714Y-99022842D01*
X24585714Y-99022842D02*
X24628571Y-99194271D01*
X24628571Y-99194271D02*
X24671428Y-99279985D01*
X24671428Y-99279985D02*
X24757143Y-99365700D01*
X24757143Y-99365700D02*
X24885714Y-99408557D01*
X24885714Y-99408557D02*
X24971428Y-99408557D01*
X24971428Y-99408557D02*
X25100000Y-99365700D01*
X25100000Y-99365700D02*
X25142857Y-99322842D01*
X25142857Y-99322842D02*
X25142857Y-99022842D01*
X25142857Y-99022842D02*
X24971428Y-99022842D01*
X10114286Y-96937128D02*
X9814286Y-96937128D01*
X9814286Y-97408557D02*
X9814286Y-96508557D01*
X9814286Y-96508557D02*
X10242858Y-96508557D01*
X10757144Y-96508557D02*
X10928572Y-96508557D01*
X10928572Y-96508557D02*
X11014287Y-96551414D01*
X11014287Y-96551414D02*
X11100001Y-96637128D01*
X11100001Y-96637128D02*
X11142858Y-96808557D01*
X11142858Y-96808557D02*
X11142858Y-97108557D01*
X11142858Y-97108557D02*
X11100001Y-97279985D01*
X11100001Y-97279985D02*
X11014287Y-97365700D01*
X11014287Y-97365700D02*
X10928572Y-97408557D01*
X10928572Y-97408557D02*
X10757144Y-97408557D01*
X10757144Y-97408557D02*
X10671430Y-97365700D01*
X10671430Y-97365700D02*
X10585715Y-97279985D01*
X10585715Y-97279985D02*
X10542858Y-97108557D01*
X10542858Y-97108557D02*
X10542858Y-96808557D01*
X10542858Y-96808557D02*
X10585715Y-96637128D01*
X10585715Y-96637128D02*
X10671430Y-96551414D01*
X10671430Y-96551414D02*
X10757144Y-96508557D01*
X12042858Y-97408557D02*
X11742858Y-96979985D01*
X11528572Y-97408557D02*
X11528572Y-96508557D01*
X11528572Y-96508557D02*
X11871429Y-96508557D01*
X11871429Y-96508557D02*
X11957144Y-96551414D01*
X11957144Y-96551414D02*
X12000001Y-96594271D01*
X12000001Y-96594271D02*
X12042858Y-96679985D01*
X12042858Y-96679985D02*
X12042858Y-96808557D01*
X12042858Y-96808557D02*
X12000001Y-96894271D01*
X12000001Y-96894271D02*
X11957144Y-96937128D01*
X11957144Y-96937128D02*
X11871429Y-96979985D01*
X11871429Y-96979985D02*
X11528572Y-96979985D01*
X12428572Y-97408557D02*
X12428572Y-96508557D01*
X12428572Y-96508557D02*
X12728572Y-97151414D01*
X12728572Y-97151414D02*
X13028572Y-96508557D01*
X13028572Y-96508557D02*
X13028572Y-97408557D01*
X14571429Y-97408557D02*
X14142857Y-97408557D01*
X14142857Y-97408557D02*
X14142857Y-96508557D01*
X14871428Y-96937128D02*
X15171428Y-96937128D01*
X15300000Y-97408557D02*
X14871428Y-97408557D01*
X14871428Y-97408557D02*
X14871428Y-96508557D01*
X14871428Y-96508557D02*
X15300000Y-96508557D01*
X15642857Y-97151414D02*
X16071429Y-97151414D01*
X15557143Y-97408557D02*
X15857143Y-96508557D01*
X15857143Y-96508557D02*
X16157143Y-97408557D01*
X16457143Y-97408557D02*
X16457143Y-96508557D01*
X16457143Y-96508557D02*
X16671429Y-96508557D01*
X16671429Y-96508557D02*
X16800000Y-96551414D01*
X16800000Y-96551414D02*
X16885715Y-96637128D01*
X16885715Y-96637128D02*
X16928572Y-96722842D01*
X16928572Y-96722842D02*
X16971429Y-96894271D01*
X16971429Y-96894271D02*
X16971429Y-97022842D01*
X16971429Y-97022842D02*
X16928572Y-97194271D01*
X16928572Y-97194271D02*
X16885715Y-97279985D01*
X16885715Y-97279985D02*
X16800000Y-97365700D01*
X16800000Y-97365700D02*
X16671429Y-97408557D01*
X16671429Y-97408557D02*
X16457143Y-97408557D01*
X17314286Y-97365700D02*
X17442858Y-97408557D01*
X17442858Y-97408557D02*
X17657143Y-97408557D01*
X17657143Y-97408557D02*
X17742858Y-97365700D01*
X17742858Y-97365700D02*
X17785715Y-97322842D01*
X17785715Y-97322842D02*
X17828572Y-97237128D01*
X17828572Y-97237128D02*
X17828572Y-97151414D01*
X17828572Y-97151414D02*
X17785715Y-97065700D01*
X17785715Y-97065700D02*
X17742858Y-97022842D01*
X17742858Y-97022842D02*
X17657143Y-96979985D01*
X17657143Y-96979985D02*
X17485715Y-96937128D01*
X17485715Y-96937128D02*
X17400000Y-96894271D01*
X17400000Y-96894271D02*
X17357143Y-96851414D01*
X17357143Y-96851414D02*
X17314286Y-96765700D01*
X17314286Y-96765700D02*
X17314286Y-96679985D01*
X17314286Y-96679985D02*
X17357143Y-96594271D01*
X17357143Y-96594271D02*
X17400000Y-96551414D01*
X17400000Y-96551414D02*
X17485715Y-96508557D01*
X17485715Y-96508557D02*
X17700000Y-96508557D01*
X17700000Y-96508557D02*
X17828572Y-96551414D01*
X18771429Y-96508557D02*
X19285715Y-96508557D01*
X19028572Y-97408557D02*
X19028572Y-96508557D01*
X19757143Y-96508557D02*
X19928571Y-96508557D01*
X19928571Y-96508557D02*
X20014286Y-96551414D01*
X20014286Y-96551414D02*
X20100000Y-96637128D01*
X20100000Y-96637128D02*
X20142857Y-96808557D01*
X20142857Y-96808557D02*
X20142857Y-97108557D01*
X20142857Y-97108557D02*
X20100000Y-97279985D01*
X20100000Y-97279985D02*
X20014286Y-97365700D01*
X20014286Y-97365700D02*
X19928571Y-97408557D01*
X19928571Y-97408557D02*
X19757143Y-97408557D01*
X19757143Y-97408557D02*
X19671429Y-97365700D01*
X19671429Y-97365700D02*
X19585714Y-97279985D01*
X19585714Y-97279985D02*
X19542857Y-97108557D01*
X19542857Y-97108557D02*
X19542857Y-96808557D01*
X19542857Y-96808557D02*
X19585714Y-96637128D01*
X19585714Y-96637128D02*
X19671429Y-96551414D01*
X19671429Y-96551414D02*
X19757143Y-96508557D01*
X21171428Y-96594271D02*
X21214285Y-96551414D01*
X21214285Y-96551414D02*
X21300000Y-96508557D01*
X21300000Y-96508557D02*
X21514285Y-96508557D01*
X21514285Y-96508557D02*
X21600000Y-96551414D01*
X21600000Y-96551414D02*
X21642857Y-96594271D01*
X21642857Y-96594271D02*
X21685714Y-96679985D01*
X21685714Y-96679985D02*
X21685714Y-96765700D01*
X21685714Y-96765700D02*
X21642857Y-96894271D01*
X21642857Y-96894271D02*
X21128571Y-97408557D01*
X21128571Y-97408557D02*
X21685714Y-97408557D01*
X22071428Y-97322842D02*
X22114285Y-97365700D01*
X22114285Y-97365700D02*
X22071428Y-97408557D01*
X22071428Y-97408557D02*
X22028571Y-97365700D01*
X22028571Y-97365700D02*
X22071428Y-97322842D01*
X22071428Y-97322842D02*
X22071428Y-97408557D01*
X22928571Y-96508557D02*
X22499999Y-96508557D01*
X22499999Y-96508557D02*
X22457142Y-96937128D01*
X22457142Y-96937128D02*
X22499999Y-96894271D01*
X22499999Y-96894271D02*
X22585714Y-96851414D01*
X22585714Y-96851414D02*
X22799999Y-96851414D01*
X22799999Y-96851414D02*
X22885714Y-96894271D01*
X22885714Y-96894271D02*
X22928571Y-96937128D01*
X22928571Y-96937128D02*
X22971428Y-97022842D01*
X22971428Y-97022842D02*
X22971428Y-97237128D01*
X22971428Y-97237128D02*
X22928571Y-97322842D01*
X22928571Y-97322842D02*
X22885714Y-97365700D01*
X22885714Y-97365700D02*
X22799999Y-97408557D01*
X22799999Y-97408557D02*
X22585714Y-97408557D01*
X22585714Y-97408557D02*
X22499999Y-97365700D01*
X22499999Y-97365700D02*
X22457142Y-97322842D01*
X23742857Y-96808557D02*
X23742857Y-97408557D01*
X23528571Y-96465700D02*
X23314285Y-97108557D01*
X23314285Y-97108557D02*
X23871428Y-97108557D01*
X24214285Y-97408557D02*
X24214285Y-96808557D01*
X24214285Y-96894271D02*
X24257142Y-96851414D01*
X24257142Y-96851414D02*
X24342857Y-96808557D01*
X24342857Y-96808557D02*
X24471428Y-96808557D01*
X24471428Y-96808557D02*
X24557142Y-96851414D01*
X24557142Y-96851414D02*
X24600000Y-96937128D01*
X24600000Y-96937128D02*
X24600000Y-97408557D01*
X24600000Y-96937128D02*
X24642857Y-96851414D01*
X24642857Y-96851414D02*
X24728571Y-96808557D01*
X24728571Y-96808557D02*
X24857142Y-96808557D01*
X24857142Y-96808557D02*
X24942857Y-96851414D01*
X24942857Y-96851414D02*
X24985714Y-96937128D01*
X24985714Y-96937128D02*
X24985714Y-97408557D01*
X25414285Y-97408557D02*
X25414285Y-96808557D01*
X25414285Y-96894271D02*
X25457142Y-96851414D01*
X25457142Y-96851414D02*
X25542857Y-96808557D01*
X25542857Y-96808557D02*
X25671428Y-96808557D01*
X25671428Y-96808557D02*
X25757142Y-96851414D01*
X25757142Y-96851414D02*
X25800000Y-96937128D01*
X25800000Y-96937128D02*
X25800000Y-97408557D01*
X25800000Y-96937128D02*
X25842857Y-96851414D01*
X25842857Y-96851414D02*
X25928571Y-96808557D01*
X25928571Y-96808557D02*
X26057142Y-96808557D01*
X26057142Y-96808557D02*
X26142857Y-96851414D01*
X26142857Y-96851414D02*
X26185714Y-96937128D01*
X26185714Y-96937128D02*
X26185714Y-97408557D01*
X18578571Y-3408557D02*
X18578571Y-2508557D01*
X19521428Y-3408557D02*
X19221428Y-2979985D01*
X19007142Y-3408557D02*
X19007142Y-2508557D01*
X19007142Y-2508557D02*
X19349999Y-2508557D01*
X19349999Y-2508557D02*
X19435714Y-2551414D01*
X19435714Y-2551414D02*
X19478571Y-2594271D01*
X19478571Y-2594271D02*
X19521428Y-2679985D01*
X19521428Y-2679985D02*
X19521428Y-2808557D01*
X19521428Y-2808557D02*
X19478571Y-2894271D01*
X19478571Y-2894271D02*
X19435714Y-2937128D01*
X19435714Y-2937128D02*
X19349999Y-2979985D01*
X19349999Y-2979985D02*
X19007142Y-2979985D01*
X21107142Y-3408557D02*
X20807142Y-2979985D01*
X20592856Y-3408557D02*
X20592856Y-2508557D01*
X20592856Y-2508557D02*
X20935713Y-2508557D01*
X20935713Y-2508557D02*
X21021428Y-2551414D01*
X21021428Y-2551414D02*
X21064285Y-2594271D01*
X21064285Y-2594271D02*
X21107142Y-2679985D01*
X21107142Y-2679985D02*
X21107142Y-2808557D01*
X21107142Y-2808557D02*
X21064285Y-2894271D01*
X21064285Y-2894271D02*
X21021428Y-2937128D01*
X21021428Y-2937128D02*
X20935713Y-2979985D01*
X20935713Y-2979985D02*
X20592856Y-2979985D01*
X21407142Y-2508557D02*
X22007142Y-3408557D01*
X22007142Y-2508557D02*
X21407142Y-3408557D01*
X22557143Y-11408557D02*
X22042857Y-11408557D01*
X22300000Y-11408557D02*
X22300000Y-10508557D01*
X22300000Y-10508557D02*
X22214286Y-10637128D01*
X22214286Y-10637128D02*
X22128571Y-10722842D01*
X22128571Y-10722842D02*
X22042857Y-10765700D01*
X22685714Y-24758557D02*
X23200000Y-24758557D01*
X22942857Y-25658557D02*
X22942857Y-24758557D01*
X23499999Y-25658557D02*
X23499999Y-24758557D01*
X23499999Y-24758557D02*
X23842856Y-24758557D01*
X23842856Y-24758557D02*
X23928571Y-24801414D01*
X23928571Y-24801414D02*
X23971428Y-24844271D01*
X23971428Y-24844271D02*
X24014285Y-24929985D01*
X24014285Y-24929985D02*
X24014285Y-25058557D01*
X24014285Y-25058557D02*
X23971428Y-25144271D01*
X23971428Y-25144271D02*
X23928571Y-25187128D01*
X23928571Y-25187128D02*
X23842856Y-25229985D01*
X23842856Y-25229985D02*
X23499999Y-25229985D01*
X24314285Y-24758557D02*
X24871428Y-24758557D01*
X24871428Y-24758557D02*
X24571428Y-25101414D01*
X24571428Y-25101414D02*
X24699999Y-25101414D01*
X24699999Y-25101414D02*
X24785714Y-25144271D01*
X24785714Y-25144271D02*
X24828571Y-25187128D01*
X24828571Y-25187128D02*
X24871428Y-25272842D01*
X24871428Y-25272842D02*
X24871428Y-25487128D01*
X24871428Y-25487128D02*
X24828571Y-25572842D01*
X24828571Y-25572842D02*
X24785714Y-25615700D01*
X24785714Y-25615700D02*
X24699999Y-25658557D01*
X24699999Y-25658557D02*
X24442856Y-25658557D01*
X24442856Y-25658557D02*
X24357142Y-25615700D01*
X24357142Y-25615700D02*
X24314285Y-25572842D01*
X25171428Y-24758557D02*
X25728571Y-24758557D01*
X25728571Y-24758557D02*
X25428571Y-25101414D01*
X25428571Y-25101414D02*
X25557142Y-25101414D01*
X25557142Y-25101414D02*
X25642857Y-25144271D01*
X25642857Y-25144271D02*
X25685714Y-25187128D01*
X25685714Y-25187128D02*
X25728571Y-25272842D01*
X25728571Y-25272842D02*
X25728571Y-25487128D01*
X25728571Y-25487128D02*
X25685714Y-25572842D01*
X25685714Y-25572842D02*
X25642857Y-25615700D01*
X25642857Y-25615700D02*
X25557142Y-25658557D01*
X25557142Y-25658557D02*
X25299999Y-25658557D01*
X25299999Y-25658557D02*
X25214285Y-25615700D01*
X25214285Y-25615700D02*
X25171428Y-25572842D01*
X28617143Y-10658557D02*
X28102857Y-10658557D01*
X28360000Y-10658557D02*
X28360000Y-9758557D01*
X28360000Y-9758557D02*
X28274286Y-9887128D01*
X28274286Y-9887128D02*
X28188571Y-9972842D01*
X28188571Y-9972842D02*
X28102857Y-10015700D01*
X34364286Y-20258557D02*
X34878572Y-20258557D01*
X34621429Y-21158557D02*
X34621429Y-20258557D01*
X35178571Y-21158557D02*
X35178571Y-20258557D01*
X35178571Y-20258557D02*
X35521428Y-20258557D01*
X35521428Y-20258557D02*
X35607143Y-20301414D01*
X35607143Y-20301414D02*
X35650000Y-20344271D01*
X35650000Y-20344271D02*
X35692857Y-20429985D01*
X35692857Y-20429985D02*
X35692857Y-20558557D01*
X35692857Y-20558557D02*
X35650000Y-20644271D01*
X35650000Y-20644271D02*
X35607143Y-20687128D01*
X35607143Y-20687128D02*
X35521428Y-20729985D01*
X35521428Y-20729985D02*
X35178571Y-20729985D01*
X36121428Y-21158557D02*
X36292857Y-21158557D01*
X36292857Y-21158557D02*
X36378571Y-21115700D01*
X36378571Y-21115700D02*
X36421428Y-21072842D01*
X36421428Y-21072842D02*
X36507143Y-20944271D01*
X36507143Y-20944271D02*
X36550000Y-20772842D01*
X36550000Y-20772842D02*
X36550000Y-20429985D01*
X36550000Y-20429985D02*
X36507143Y-20344271D01*
X36507143Y-20344271D02*
X36464286Y-20301414D01*
X36464286Y-20301414D02*
X36378571Y-20258557D01*
X36378571Y-20258557D02*
X36207143Y-20258557D01*
X36207143Y-20258557D02*
X36121428Y-20301414D01*
X36121428Y-20301414D02*
X36078571Y-20344271D01*
X36078571Y-20344271D02*
X36035714Y-20429985D01*
X36035714Y-20429985D02*
X36035714Y-20644271D01*
X36035714Y-20644271D02*
X36078571Y-20729985D01*
X36078571Y-20729985D02*
X36121428Y-20772842D01*
X36121428Y-20772842D02*
X36207143Y-20815700D01*
X36207143Y-20815700D02*
X36378571Y-20815700D01*
X36378571Y-20815700D02*
X36464286Y-20772842D01*
X36464286Y-20772842D02*
X36507143Y-20729985D01*
X36507143Y-20729985D02*
X36550000Y-20644271D01*
X39864286Y-32258557D02*
X40378572Y-32258557D01*
X40121429Y-33158557D02*
X40121429Y-32258557D01*
X40678571Y-33158557D02*
X40678571Y-32258557D01*
X40678571Y-32258557D02*
X41021428Y-32258557D01*
X41021428Y-32258557D02*
X41107143Y-32301414D01*
X41107143Y-32301414D02*
X41150000Y-32344271D01*
X41150000Y-32344271D02*
X41192857Y-32429985D01*
X41192857Y-32429985D02*
X41192857Y-32558557D01*
X41192857Y-32558557D02*
X41150000Y-32644271D01*
X41150000Y-32644271D02*
X41107143Y-32687128D01*
X41107143Y-32687128D02*
X41021428Y-32729985D01*
X41021428Y-32729985D02*
X40678571Y-32729985D01*
X41964286Y-32258557D02*
X41792857Y-32258557D01*
X41792857Y-32258557D02*
X41707143Y-32301414D01*
X41707143Y-32301414D02*
X41664286Y-32344271D01*
X41664286Y-32344271D02*
X41578571Y-32472842D01*
X41578571Y-32472842D02*
X41535714Y-32644271D01*
X41535714Y-32644271D02*
X41535714Y-32987128D01*
X41535714Y-32987128D02*
X41578571Y-33072842D01*
X41578571Y-33072842D02*
X41621428Y-33115700D01*
X41621428Y-33115700D02*
X41707143Y-33158557D01*
X41707143Y-33158557D02*
X41878571Y-33158557D01*
X41878571Y-33158557D02*
X41964286Y-33115700D01*
X41964286Y-33115700D02*
X42007143Y-33072842D01*
X42007143Y-33072842D02*
X42050000Y-32987128D01*
X42050000Y-32987128D02*
X42050000Y-32772842D01*
X42050000Y-32772842D02*
X42007143Y-32687128D01*
X42007143Y-32687128D02*
X41964286Y-32644271D01*
X41964286Y-32644271D02*
X41878571Y-32601414D01*
X41878571Y-32601414D02*
X41707143Y-32601414D01*
X41707143Y-32601414D02*
X41621428Y-32644271D01*
X41621428Y-32644271D02*
X41578571Y-32687128D01*
X41578571Y-32687128D02*
X41535714Y-32772842D01*
X41185714Y-55508557D02*
X41700000Y-55508557D01*
X41442857Y-56408557D02*
X41442857Y-55508557D01*
X41999999Y-56408557D02*
X41999999Y-55508557D01*
X41999999Y-55508557D02*
X42342856Y-55508557D01*
X42342856Y-55508557D02*
X42428571Y-55551414D01*
X42428571Y-55551414D02*
X42471428Y-55594271D01*
X42471428Y-55594271D02*
X42514285Y-55679985D01*
X42514285Y-55679985D02*
X42514285Y-55808557D01*
X42514285Y-55808557D02*
X42471428Y-55894271D01*
X42471428Y-55894271D02*
X42428571Y-55937128D01*
X42428571Y-55937128D02*
X42342856Y-55979985D01*
X42342856Y-55979985D02*
X41999999Y-55979985D01*
X42857142Y-55594271D02*
X42899999Y-55551414D01*
X42899999Y-55551414D02*
X42985714Y-55508557D01*
X42985714Y-55508557D02*
X43199999Y-55508557D01*
X43199999Y-55508557D02*
X43285714Y-55551414D01*
X43285714Y-55551414D02*
X43328571Y-55594271D01*
X43328571Y-55594271D02*
X43371428Y-55679985D01*
X43371428Y-55679985D02*
X43371428Y-55765700D01*
X43371428Y-55765700D02*
X43328571Y-55894271D01*
X43328571Y-55894271D02*
X42814285Y-56408557D01*
X42814285Y-56408557D02*
X43371428Y-56408557D01*
X43671428Y-55508557D02*
X44228571Y-55508557D01*
X44228571Y-55508557D02*
X43928571Y-55851414D01*
X43928571Y-55851414D02*
X44057142Y-55851414D01*
X44057142Y-55851414D02*
X44142857Y-55894271D01*
X44142857Y-55894271D02*
X44185714Y-55937128D01*
X44185714Y-55937128D02*
X44228571Y-56022842D01*
X44228571Y-56022842D02*
X44228571Y-56237128D01*
X44228571Y-56237128D02*
X44185714Y-56322842D01*
X44185714Y-56322842D02*
X44142857Y-56365700D01*
X44142857Y-56365700D02*
X44057142Y-56408557D01*
X44057142Y-56408557D02*
X43799999Y-56408557D01*
X43799999Y-56408557D02*
X43714285Y-56365700D01*
X43714285Y-56365700D02*
X43671428Y-56322842D01*
X49185714Y-13258557D02*
X49700000Y-13258557D01*
X49442857Y-14158557D02*
X49442857Y-13258557D01*
X49999999Y-14158557D02*
X49999999Y-13258557D01*
X49999999Y-13258557D02*
X50342856Y-13258557D01*
X50342856Y-13258557D02*
X50428571Y-13301414D01*
X50428571Y-13301414D02*
X50471428Y-13344271D01*
X50471428Y-13344271D02*
X50514285Y-13429985D01*
X50514285Y-13429985D02*
X50514285Y-13558557D01*
X50514285Y-13558557D02*
X50471428Y-13644271D01*
X50471428Y-13644271D02*
X50428571Y-13687128D01*
X50428571Y-13687128D02*
X50342856Y-13729985D01*
X50342856Y-13729985D02*
X49999999Y-13729985D01*
X51371428Y-14158557D02*
X50857142Y-14158557D01*
X51114285Y-14158557D02*
X51114285Y-13258557D01*
X51114285Y-13258557D02*
X51028571Y-13387128D01*
X51028571Y-13387128D02*
X50942856Y-13472842D01*
X50942856Y-13472842D02*
X50857142Y-13515700D01*
X51671428Y-13258557D02*
X52228571Y-13258557D01*
X52228571Y-13258557D02*
X51928571Y-13601414D01*
X51928571Y-13601414D02*
X52057142Y-13601414D01*
X52057142Y-13601414D02*
X52142857Y-13644271D01*
X52142857Y-13644271D02*
X52185714Y-13687128D01*
X52185714Y-13687128D02*
X52228571Y-13772842D01*
X52228571Y-13772842D02*
X52228571Y-13987128D01*
X52228571Y-13987128D02*
X52185714Y-14072842D01*
X52185714Y-14072842D02*
X52142857Y-14115700D01*
X52142857Y-14115700D02*
X52057142Y-14158557D01*
X52057142Y-14158557D02*
X51799999Y-14158557D01*
X51799999Y-14158557D02*
X51714285Y-14115700D01*
X51714285Y-14115700D02*
X51671428Y-14072842D01*
X49435714Y-59758557D02*
X49950000Y-59758557D01*
X49692857Y-60658557D02*
X49692857Y-59758557D01*
X50249999Y-60658557D02*
X50249999Y-59758557D01*
X50249999Y-59758557D02*
X50592856Y-59758557D01*
X50592856Y-59758557D02*
X50678571Y-59801414D01*
X50678571Y-59801414D02*
X50721428Y-59844271D01*
X50721428Y-59844271D02*
X50764285Y-59929985D01*
X50764285Y-59929985D02*
X50764285Y-60058557D01*
X50764285Y-60058557D02*
X50721428Y-60144271D01*
X50721428Y-60144271D02*
X50678571Y-60187128D01*
X50678571Y-60187128D02*
X50592856Y-60229985D01*
X50592856Y-60229985D02*
X50249999Y-60229985D01*
X51107142Y-59844271D02*
X51149999Y-59801414D01*
X51149999Y-59801414D02*
X51235714Y-59758557D01*
X51235714Y-59758557D02*
X51449999Y-59758557D01*
X51449999Y-59758557D02*
X51535714Y-59801414D01*
X51535714Y-59801414D02*
X51578571Y-59844271D01*
X51578571Y-59844271D02*
X51621428Y-59929985D01*
X51621428Y-59929985D02*
X51621428Y-60015700D01*
X51621428Y-60015700D02*
X51578571Y-60144271D01*
X51578571Y-60144271D02*
X51064285Y-60658557D01*
X51064285Y-60658557D02*
X51621428Y-60658557D01*
X52478571Y-60658557D02*
X51964285Y-60658557D01*
X52221428Y-60658557D02*
X52221428Y-59758557D01*
X52221428Y-59758557D02*
X52135714Y-59887128D01*
X52135714Y-59887128D02*
X52049999Y-59972842D01*
X52049999Y-59972842D02*
X51964285Y-60015700D01*
X51435714Y-18758557D02*
X51950000Y-18758557D01*
X51692857Y-19658557D02*
X51692857Y-18758557D01*
X52249999Y-19658557D02*
X52249999Y-18758557D01*
X52249999Y-18758557D02*
X52592856Y-18758557D01*
X52592856Y-18758557D02*
X52678571Y-18801414D01*
X52678571Y-18801414D02*
X52721428Y-18844271D01*
X52721428Y-18844271D02*
X52764285Y-18929985D01*
X52764285Y-18929985D02*
X52764285Y-19058557D01*
X52764285Y-19058557D02*
X52721428Y-19144271D01*
X52721428Y-19144271D02*
X52678571Y-19187128D01*
X52678571Y-19187128D02*
X52592856Y-19229985D01*
X52592856Y-19229985D02*
X52249999Y-19229985D01*
X53621428Y-19658557D02*
X53107142Y-19658557D01*
X53364285Y-19658557D02*
X53364285Y-18758557D01*
X53364285Y-18758557D02*
X53278571Y-18887128D01*
X53278571Y-18887128D02*
X53192856Y-18972842D01*
X53192856Y-18972842D02*
X53107142Y-19015700D01*
X54392857Y-18758557D02*
X54221428Y-18758557D01*
X54221428Y-18758557D02*
X54135714Y-18801414D01*
X54135714Y-18801414D02*
X54092857Y-18844271D01*
X54092857Y-18844271D02*
X54007142Y-18972842D01*
X54007142Y-18972842D02*
X53964285Y-19144271D01*
X53964285Y-19144271D02*
X53964285Y-19487128D01*
X53964285Y-19487128D02*
X54007142Y-19572842D01*
X54007142Y-19572842D02*
X54049999Y-19615700D01*
X54049999Y-19615700D02*
X54135714Y-19658557D01*
X54135714Y-19658557D02*
X54307142Y-19658557D01*
X54307142Y-19658557D02*
X54392857Y-19615700D01*
X54392857Y-19615700D02*
X54435714Y-19572842D01*
X54435714Y-19572842D02*
X54478571Y-19487128D01*
X54478571Y-19487128D02*
X54478571Y-19272842D01*
X54478571Y-19272842D02*
X54435714Y-19187128D01*
X54435714Y-19187128D02*
X54392857Y-19144271D01*
X54392857Y-19144271D02*
X54307142Y-19101414D01*
X54307142Y-19101414D02*
X54135714Y-19101414D01*
X54135714Y-19101414D02*
X54049999Y-19144271D01*
X54049999Y-19144271D02*
X54007142Y-19187128D01*
X54007142Y-19187128D02*
X53964285Y-19272842D01*
X51935714Y-23758557D02*
X52450000Y-23758557D01*
X52192857Y-24658557D02*
X52192857Y-23758557D01*
X52749999Y-24658557D02*
X52749999Y-23758557D01*
X52749999Y-23758557D02*
X53092856Y-23758557D01*
X53092856Y-23758557D02*
X53178571Y-23801414D01*
X53178571Y-23801414D02*
X53221428Y-23844271D01*
X53221428Y-23844271D02*
X53264285Y-23929985D01*
X53264285Y-23929985D02*
X53264285Y-24058557D01*
X53264285Y-24058557D02*
X53221428Y-24144271D01*
X53221428Y-24144271D02*
X53178571Y-24187128D01*
X53178571Y-24187128D02*
X53092856Y-24229985D01*
X53092856Y-24229985D02*
X52749999Y-24229985D01*
X53607142Y-23844271D02*
X53649999Y-23801414D01*
X53649999Y-23801414D02*
X53735714Y-23758557D01*
X53735714Y-23758557D02*
X53949999Y-23758557D01*
X53949999Y-23758557D02*
X54035714Y-23801414D01*
X54035714Y-23801414D02*
X54078571Y-23844271D01*
X54078571Y-23844271D02*
X54121428Y-23929985D01*
X54121428Y-23929985D02*
X54121428Y-24015700D01*
X54121428Y-24015700D02*
X54078571Y-24144271D01*
X54078571Y-24144271D02*
X53564285Y-24658557D01*
X53564285Y-24658557D02*
X54121428Y-24658557D01*
X54464285Y-23844271D02*
X54507142Y-23801414D01*
X54507142Y-23801414D02*
X54592857Y-23758557D01*
X54592857Y-23758557D02*
X54807142Y-23758557D01*
X54807142Y-23758557D02*
X54892857Y-23801414D01*
X54892857Y-23801414D02*
X54935714Y-23844271D01*
X54935714Y-23844271D02*
X54978571Y-23929985D01*
X54978571Y-23929985D02*
X54978571Y-24015700D01*
X54978571Y-24015700D02*
X54935714Y-24144271D01*
X54935714Y-24144271D02*
X54421428Y-24658557D01*
X54421428Y-24658557D02*
X54978571Y-24658557D01*
X58864286Y-46258557D02*
X59378572Y-46258557D01*
X59121429Y-47158557D02*
X59121429Y-46258557D01*
X59678571Y-47158557D02*
X59678571Y-46258557D01*
X59678571Y-46258557D02*
X60021428Y-46258557D01*
X60021428Y-46258557D02*
X60107143Y-46301414D01*
X60107143Y-46301414D02*
X60150000Y-46344271D01*
X60150000Y-46344271D02*
X60192857Y-46429985D01*
X60192857Y-46429985D02*
X60192857Y-46558557D01*
X60192857Y-46558557D02*
X60150000Y-46644271D01*
X60150000Y-46644271D02*
X60107143Y-46687128D01*
X60107143Y-46687128D02*
X60021428Y-46729985D01*
X60021428Y-46729985D02*
X59678571Y-46729985D01*
X61050000Y-47158557D02*
X60535714Y-47158557D01*
X60792857Y-47158557D02*
X60792857Y-46258557D01*
X60792857Y-46258557D02*
X60707143Y-46387128D01*
X60707143Y-46387128D02*
X60621428Y-46472842D01*
X60621428Y-46472842D02*
X60535714Y-46515700D01*
X54700001Y-111894271D02*
X54614286Y-111851414D01*
X54614286Y-111851414D02*
X54571429Y-111808557D01*
X54571429Y-111808557D02*
X54528572Y-111722842D01*
X54528572Y-111722842D02*
X54528572Y-111679985D01*
X54528572Y-111679985D02*
X54571429Y-111594271D01*
X54571429Y-111594271D02*
X54614286Y-111551414D01*
X54614286Y-111551414D02*
X54700001Y-111508557D01*
X54700001Y-111508557D02*
X54871429Y-111508557D01*
X54871429Y-111508557D02*
X54957144Y-111551414D01*
X54957144Y-111551414D02*
X55000001Y-111594271D01*
X55000001Y-111594271D02*
X55042858Y-111679985D01*
X55042858Y-111679985D02*
X55042858Y-111722842D01*
X55042858Y-111722842D02*
X55000001Y-111808557D01*
X55000001Y-111808557D02*
X54957144Y-111851414D01*
X54957144Y-111851414D02*
X54871429Y-111894271D01*
X54871429Y-111894271D02*
X54700001Y-111894271D01*
X54700001Y-111894271D02*
X54614286Y-111937128D01*
X54614286Y-111937128D02*
X54571429Y-111979985D01*
X54571429Y-111979985D02*
X54528572Y-112065700D01*
X54528572Y-112065700D02*
X54528572Y-112237128D01*
X54528572Y-112237128D02*
X54571429Y-112322842D01*
X54571429Y-112322842D02*
X54614286Y-112365700D01*
X54614286Y-112365700D02*
X54700001Y-112408557D01*
X54700001Y-112408557D02*
X54871429Y-112408557D01*
X54871429Y-112408557D02*
X54957144Y-112365700D01*
X54957144Y-112365700D02*
X55000001Y-112322842D01*
X55000001Y-112322842D02*
X55042858Y-112237128D01*
X55042858Y-112237128D02*
X55042858Y-112065700D01*
X55042858Y-112065700D02*
X55000001Y-111979985D01*
X55000001Y-111979985D02*
X54957144Y-111937128D01*
X54957144Y-111937128D02*
X54871429Y-111894271D01*
X55600001Y-111508557D02*
X55685715Y-111508557D01*
X55685715Y-111508557D02*
X55771429Y-111551414D01*
X55771429Y-111551414D02*
X55814287Y-111594271D01*
X55814287Y-111594271D02*
X55857144Y-111679985D01*
X55857144Y-111679985D02*
X55900001Y-111851414D01*
X55900001Y-111851414D02*
X55900001Y-112065700D01*
X55900001Y-112065700D02*
X55857144Y-112237128D01*
X55857144Y-112237128D02*
X55814287Y-112322842D01*
X55814287Y-112322842D02*
X55771429Y-112365700D01*
X55771429Y-112365700D02*
X55685715Y-112408557D01*
X55685715Y-112408557D02*
X55600001Y-112408557D01*
X55600001Y-112408557D02*
X55514287Y-112365700D01*
X55514287Y-112365700D02*
X55471429Y-112322842D01*
X55471429Y-112322842D02*
X55428572Y-112237128D01*
X55428572Y-112237128D02*
X55385715Y-112065700D01*
X55385715Y-112065700D02*
X55385715Y-111851414D01*
X55385715Y-111851414D02*
X55428572Y-111679985D01*
X55428572Y-111679985D02*
X55471429Y-111594271D01*
X55471429Y-111594271D02*
X55514287Y-111551414D01*
X55514287Y-111551414D02*
X55600001Y-111508557D01*
X56885715Y-112408557D02*
X57357144Y-111808557D01*
X56885715Y-111808557D02*
X57357144Y-112408557D01*
X58857143Y-112408557D02*
X58342857Y-112408557D01*
X58600000Y-112408557D02*
X58600000Y-111508557D01*
X58600000Y-111508557D02*
X58514286Y-111637128D01*
X58514286Y-111637128D02*
X58428571Y-111722842D01*
X58428571Y-111722842D02*
X58342857Y-111765700D01*
X59714286Y-112408557D02*
X59200000Y-112408557D01*
X59457143Y-112408557D02*
X59457143Y-111508557D01*
X59457143Y-111508557D02*
X59371429Y-111637128D01*
X59371429Y-111637128D02*
X59285714Y-111722842D01*
X59285714Y-111722842D02*
X59200000Y-111765700D01*
X60528572Y-111508557D02*
X60100000Y-111508557D01*
X60100000Y-111508557D02*
X60057143Y-111937128D01*
X60057143Y-111937128D02*
X60100000Y-111894271D01*
X60100000Y-111894271D02*
X60185715Y-111851414D01*
X60185715Y-111851414D02*
X60400000Y-111851414D01*
X60400000Y-111851414D02*
X60485715Y-111894271D01*
X60485715Y-111894271D02*
X60528572Y-111937128D01*
X60528572Y-111937128D02*
X60571429Y-112022842D01*
X60571429Y-112022842D02*
X60571429Y-112237128D01*
X60571429Y-112237128D02*
X60528572Y-112322842D01*
X60528572Y-112322842D02*
X60485715Y-112365700D01*
X60485715Y-112365700D02*
X60400000Y-112408557D01*
X60400000Y-112408557D02*
X60185715Y-112408557D01*
X60185715Y-112408557D02*
X60100000Y-112365700D01*
X60100000Y-112365700D02*
X60057143Y-112322842D01*
X60957143Y-112408557D02*
X60957143Y-111808557D01*
X60957143Y-111894271D02*
X61000000Y-111851414D01*
X61000000Y-111851414D02*
X61085715Y-111808557D01*
X61085715Y-111808557D02*
X61214286Y-111808557D01*
X61214286Y-111808557D02*
X61300000Y-111851414D01*
X61300000Y-111851414D02*
X61342858Y-111937128D01*
X61342858Y-111937128D02*
X61342858Y-112408557D01*
X61342858Y-111937128D02*
X61385715Y-111851414D01*
X61385715Y-111851414D02*
X61471429Y-111808557D01*
X61471429Y-111808557D02*
X61600000Y-111808557D01*
X61600000Y-111808557D02*
X61685715Y-111851414D01*
X61685715Y-111851414D02*
X61728572Y-111937128D01*
X61728572Y-111937128D02*
X61728572Y-112408557D01*
X62157143Y-112408557D02*
X62157143Y-111808557D01*
X62157143Y-111894271D02*
X62200000Y-111851414D01*
X62200000Y-111851414D02*
X62285715Y-111808557D01*
X62285715Y-111808557D02*
X62414286Y-111808557D01*
X62414286Y-111808557D02*
X62500000Y-111851414D01*
X62500000Y-111851414D02*
X62542858Y-111937128D01*
X62542858Y-111937128D02*
X62542858Y-112408557D01*
X62542858Y-111937128D02*
X62585715Y-111851414D01*
X62585715Y-111851414D02*
X62671429Y-111808557D01*
X62671429Y-111808557D02*
X62800000Y-111808557D01*
X62800000Y-111808557D02*
X62885715Y-111851414D01*
X62885715Y-111851414D02*
X62928572Y-111937128D01*
X62928572Y-111937128D02*
X62928572Y-112408557D01*
X64685714Y-111465700D02*
X63914286Y-112622842D01*
X66185714Y-112322842D02*
X66142857Y-112365700D01*
X66142857Y-112365700D02*
X66014285Y-112408557D01*
X66014285Y-112408557D02*
X65928571Y-112408557D01*
X65928571Y-112408557D02*
X65800000Y-112365700D01*
X65800000Y-112365700D02*
X65714285Y-112279985D01*
X65714285Y-112279985D02*
X65671428Y-112194271D01*
X65671428Y-112194271D02*
X65628571Y-112022842D01*
X65628571Y-112022842D02*
X65628571Y-111894271D01*
X65628571Y-111894271D02*
X65671428Y-111722842D01*
X65671428Y-111722842D02*
X65714285Y-111637128D01*
X65714285Y-111637128D02*
X65800000Y-111551414D01*
X65800000Y-111551414D02*
X65928571Y-111508557D01*
X65928571Y-111508557D02*
X66014285Y-111508557D01*
X66014285Y-111508557D02*
X66142857Y-111551414D01*
X66142857Y-111551414D02*
X66185714Y-111594271D01*
X66571428Y-112322842D02*
X66614285Y-112365700D01*
X66614285Y-112365700D02*
X66571428Y-112408557D01*
X66571428Y-112408557D02*
X66528571Y-112365700D01*
X66528571Y-112365700D02*
X66571428Y-112322842D01*
X66571428Y-112322842D02*
X66571428Y-112408557D01*
X66914285Y-111508557D02*
X67471428Y-111508557D01*
X67471428Y-111508557D02*
X67171428Y-111851414D01*
X67171428Y-111851414D02*
X67299999Y-111851414D01*
X67299999Y-111851414D02*
X67385714Y-111894271D01*
X67385714Y-111894271D02*
X67428571Y-111937128D01*
X67428571Y-111937128D02*
X67471428Y-112022842D01*
X67471428Y-112022842D02*
X67471428Y-112237128D01*
X67471428Y-112237128D02*
X67428571Y-112322842D01*
X67428571Y-112322842D02*
X67385714Y-112365700D01*
X67385714Y-112365700D02*
X67299999Y-112408557D01*
X67299999Y-112408557D02*
X67042856Y-112408557D01*
X67042856Y-112408557D02*
X66957142Y-112365700D01*
X66957142Y-112365700D02*
X66914285Y-112322842D01*
X63942857Y-35258557D02*
X63942857Y-35987128D01*
X63942857Y-35987128D02*
X63985714Y-36072842D01*
X63985714Y-36072842D02*
X64028572Y-36115700D01*
X64028572Y-36115700D02*
X64114286Y-36158557D01*
X64114286Y-36158557D02*
X64285714Y-36158557D01*
X64285714Y-36158557D02*
X64371429Y-36115700D01*
X64371429Y-36115700D02*
X64414286Y-36072842D01*
X64414286Y-36072842D02*
X64457143Y-35987128D01*
X64457143Y-35987128D02*
X64457143Y-35258557D01*
X64842857Y-36115700D02*
X64971429Y-36158557D01*
X64971429Y-36158557D02*
X65185714Y-36158557D01*
X65185714Y-36158557D02*
X65271429Y-36115700D01*
X65271429Y-36115700D02*
X65314286Y-36072842D01*
X65314286Y-36072842D02*
X65357143Y-35987128D01*
X65357143Y-35987128D02*
X65357143Y-35901414D01*
X65357143Y-35901414D02*
X65314286Y-35815700D01*
X65314286Y-35815700D02*
X65271429Y-35772842D01*
X65271429Y-35772842D02*
X65185714Y-35729985D01*
X65185714Y-35729985D02*
X65014286Y-35687128D01*
X65014286Y-35687128D02*
X64928571Y-35644271D01*
X64928571Y-35644271D02*
X64885714Y-35601414D01*
X64885714Y-35601414D02*
X64842857Y-35515700D01*
X64842857Y-35515700D02*
X64842857Y-35429985D01*
X64842857Y-35429985D02*
X64885714Y-35344271D01*
X64885714Y-35344271D02*
X64928571Y-35301414D01*
X64928571Y-35301414D02*
X65014286Y-35258557D01*
X65014286Y-35258557D02*
X65228571Y-35258557D01*
X65228571Y-35258557D02*
X65357143Y-35301414D01*
X66042857Y-35687128D02*
X66171429Y-35729985D01*
X66171429Y-35729985D02*
X66214286Y-35772842D01*
X66214286Y-35772842D02*
X66257143Y-35858557D01*
X66257143Y-35858557D02*
X66257143Y-35987128D01*
X66257143Y-35987128D02*
X66214286Y-36072842D01*
X66214286Y-36072842D02*
X66171429Y-36115700D01*
X66171429Y-36115700D02*
X66085714Y-36158557D01*
X66085714Y-36158557D02*
X65742857Y-36158557D01*
X65742857Y-36158557D02*
X65742857Y-35258557D01*
X65742857Y-35258557D02*
X66042857Y-35258557D01*
X66042857Y-35258557D02*
X66128572Y-35301414D01*
X66128572Y-35301414D02*
X66171429Y-35344271D01*
X66171429Y-35344271D02*
X66214286Y-35429985D01*
X66214286Y-35429985D02*
X66214286Y-35515700D01*
X66214286Y-35515700D02*
X66171429Y-35601414D01*
X66171429Y-35601414D02*
X66128572Y-35644271D01*
X66128572Y-35644271D02*
X66042857Y-35687128D01*
X66042857Y-35687128D02*
X65742857Y-35687128D01*
X67328571Y-35687128D02*
X67628571Y-35687128D01*
X67757143Y-36158557D02*
X67328571Y-36158557D01*
X67328571Y-36158557D02*
X67328571Y-35258557D01*
X67328571Y-35258557D02*
X67757143Y-35258557D01*
X68142857Y-36158557D02*
X68142857Y-35258557D01*
X68142857Y-35258557D02*
X68657143Y-36158557D01*
X68657143Y-36158557D02*
X68657143Y-35258557D01*
X69085714Y-36158557D02*
X69085714Y-35258557D01*
X69085714Y-35258557D02*
X69300000Y-35258557D01*
X69300000Y-35258557D02*
X69428571Y-35301414D01*
X69428571Y-35301414D02*
X69514286Y-35387128D01*
X69514286Y-35387128D02*
X69557143Y-35472842D01*
X69557143Y-35472842D02*
X69600000Y-35644271D01*
X69600000Y-35644271D02*
X69600000Y-35772842D01*
X69600000Y-35772842D02*
X69557143Y-35944271D01*
X69557143Y-35944271D02*
X69514286Y-36029985D01*
X69514286Y-36029985D02*
X69428571Y-36115700D01*
X69428571Y-36115700D02*
X69300000Y-36158557D01*
X69300000Y-36158557D02*
X69085714Y-36158557D01*
X69935714Y-39758557D02*
X70450000Y-39758557D01*
X70192857Y-40658557D02*
X70192857Y-39758557D01*
X70749999Y-40658557D02*
X70749999Y-39758557D01*
X70749999Y-39758557D02*
X71092856Y-39758557D01*
X71092856Y-39758557D02*
X71178571Y-39801414D01*
X71178571Y-39801414D02*
X71221428Y-39844271D01*
X71221428Y-39844271D02*
X71264285Y-39929985D01*
X71264285Y-39929985D02*
X71264285Y-40058557D01*
X71264285Y-40058557D02*
X71221428Y-40144271D01*
X71221428Y-40144271D02*
X71178571Y-40187128D01*
X71178571Y-40187128D02*
X71092856Y-40229985D01*
X71092856Y-40229985D02*
X70749999Y-40229985D01*
X71607142Y-39844271D02*
X71649999Y-39801414D01*
X71649999Y-39801414D02*
X71735714Y-39758557D01*
X71735714Y-39758557D02*
X71949999Y-39758557D01*
X71949999Y-39758557D02*
X72035714Y-39801414D01*
X72035714Y-39801414D02*
X72078571Y-39844271D01*
X72078571Y-39844271D02*
X72121428Y-39929985D01*
X72121428Y-39929985D02*
X72121428Y-40015700D01*
X72121428Y-40015700D02*
X72078571Y-40144271D01*
X72078571Y-40144271D02*
X71564285Y-40658557D01*
X71564285Y-40658557D02*
X72121428Y-40658557D01*
X72549999Y-40658557D02*
X72721428Y-40658557D01*
X72721428Y-40658557D02*
X72807142Y-40615700D01*
X72807142Y-40615700D02*
X72849999Y-40572842D01*
X72849999Y-40572842D02*
X72935714Y-40444271D01*
X72935714Y-40444271D02*
X72978571Y-40272842D01*
X72978571Y-40272842D02*
X72978571Y-39929985D01*
X72978571Y-39929985D02*
X72935714Y-39844271D01*
X72935714Y-39844271D02*
X72892857Y-39801414D01*
X72892857Y-39801414D02*
X72807142Y-39758557D01*
X72807142Y-39758557D02*
X72635714Y-39758557D01*
X72635714Y-39758557D02*
X72549999Y-39801414D01*
X72549999Y-39801414D02*
X72507142Y-39844271D01*
X72507142Y-39844271D02*
X72464285Y-39929985D01*
X72464285Y-39929985D02*
X72464285Y-40144271D01*
X72464285Y-40144271D02*
X72507142Y-40229985D01*
X72507142Y-40229985D02*
X72549999Y-40272842D01*
X72549999Y-40272842D02*
X72635714Y-40315700D01*
X72635714Y-40315700D02*
X72807142Y-40315700D01*
X72807142Y-40315700D02*
X72892857Y-40272842D01*
X72892857Y-40272842D02*
X72935714Y-40229985D01*
X72935714Y-40229985D02*
X72978571Y-40144271D01*
X28142857Y-83954819D02*
X28142857Y-82954819D01*
X28714285Y-83954819D02*
X28285714Y-83383390D01*
X28714285Y-82954819D02*
X28142857Y-83526247D01*
X29142857Y-83954819D02*
X29142857Y-82954819D01*
X29714285Y-83954819D02*
X29285714Y-83383390D01*
X29714285Y-82954819D02*
X29142857Y-83526247D01*
X30904762Y-83954819D02*
X30904762Y-82954819D01*
X30904762Y-82954819D02*
X31238095Y-83669104D01*
X31238095Y-83669104D02*
X31571428Y-82954819D01*
X31571428Y-82954819D02*
X31571428Y-83954819D01*
X32000000Y-83669104D02*
X32476190Y-83669104D01*
X31904762Y-83954819D02*
X32238095Y-82954819D01*
X32238095Y-82954819D02*
X32571428Y-83954819D01*
X32904762Y-83954819D02*
X32904762Y-82954819D01*
X33380952Y-83954819D02*
X33380952Y-82954819D01*
X33380952Y-82954819D02*
X33952380Y-83954819D01*
X33952380Y-83954819D02*
X33952380Y-82954819D01*
X35761904Y-83859580D02*
X35714285Y-83907200D01*
X35714285Y-83907200D02*
X35571428Y-83954819D01*
X35571428Y-83954819D02*
X35476190Y-83954819D01*
X35476190Y-83954819D02*
X35333333Y-83907200D01*
X35333333Y-83907200D02*
X35238095Y-83811961D01*
X35238095Y-83811961D02*
X35190476Y-83716723D01*
X35190476Y-83716723D02*
X35142857Y-83526247D01*
X35142857Y-83526247D02*
X35142857Y-83383390D01*
X35142857Y-83383390D02*
X35190476Y-83192914D01*
X35190476Y-83192914D02*
X35238095Y-83097676D01*
X35238095Y-83097676D02*
X35333333Y-83002438D01*
X35333333Y-83002438D02*
X35476190Y-82954819D01*
X35476190Y-82954819D02*
X35571428Y-82954819D01*
X35571428Y-82954819D02*
X35714285Y-83002438D01*
X35714285Y-83002438D02*
X35761904Y-83050057D01*
X36190476Y-83859580D02*
X36238095Y-83907200D01*
X36238095Y-83907200D02*
X36190476Y-83954819D01*
X36190476Y-83954819D02*
X36142857Y-83907200D01*
X36142857Y-83907200D02*
X36190476Y-83859580D01*
X36190476Y-83859580D02*
X36190476Y-83954819D01*
X36571428Y-82954819D02*
X37190475Y-82954819D01*
X37190475Y-82954819D02*
X36857142Y-83335771D01*
X36857142Y-83335771D02*
X36999999Y-83335771D01*
X36999999Y-83335771D02*
X37095237Y-83383390D01*
X37095237Y-83383390D02*
X37142856Y-83431009D01*
X37142856Y-83431009D02*
X37190475Y-83526247D01*
X37190475Y-83526247D02*
X37190475Y-83764342D01*
X37190475Y-83764342D02*
X37142856Y-83859580D01*
X37142856Y-83859580D02*
X37095237Y-83907200D01*
X37095237Y-83907200D02*
X36999999Y-83954819D01*
X36999999Y-83954819D02*
X36714285Y-83954819D01*
X36714285Y-83954819D02*
X36619047Y-83907200D01*
X36619047Y-83907200D02*
X36571428Y-83859580D01*
X39095237Y-82907200D02*
X38238095Y-84192914D01*
X40761904Y-83954819D02*
X40428571Y-83478628D01*
X40190476Y-83954819D02*
X40190476Y-82954819D01*
X40190476Y-82954819D02*
X40571428Y-82954819D01*
X40571428Y-82954819D02*
X40666666Y-83002438D01*
X40666666Y-83002438D02*
X40714285Y-83050057D01*
X40714285Y-83050057D02*
X40761904Y-83145295D01*
X40761904Y-83145295D02*
X40761904Y-83288152D01*
X40761904Y-83288152D02*
X40714285Y-83383390D01*
X40714285Y-83383390D02*
X40666666Y-83431009D01*
X40666666Y-83431009D02*
X40571428Y-83478628D01*
X40571428Y-83478628D02*
X40190476Y-83478628D01*
X41714285Y-83002438D02*
X41619047Y-82954819D01*
X41619047Y-82954819D02*
X41476190Y-82954819D01*
X41476190Y-82954819D02*
X41333333Y-83002438D01*
X41333333Y-83002438D02*
X41238095Y-83097676D01*
X41238095Y-83097676D02*
X41190476Y-83192914D01*
X41190476Y-83192914D02*
X41142857Y-83383390D01*
X41142857Y-83383390D02*
X41142857Y-83526247D01*
X41142857Y-83526247D02*
X41190476Y-83716723D01*
X41190476Y-83716723D02*
X41238095Y-83811961D01*
X41238095Y-83811961D02*
X41333333Y-83907200D01*
X41333333Y-83907200D02*
X41476190Y-83954819D01*
X41476190Y-83954819D02*
X41571428Y-83954819D01*
X41571428Y-83954819D02*
X41714285Y-83907200D01*
X41714285Y-83907200D02*
X41761904Y-83859580D01*
X41761904Y-83859580D02*
X41761904Y-83526247D01*
X41761904Y-83526247D02*
X41571428Y-83526247D01*
X42523809Y-83431009D02*
X42666666Y-83478628D01*
X42666666Y-83478628D02*
X42714285Y-83526247D01*
X42714285Y-83526247D02*
X42761904Y-83621485D01*
X42761904Y-83621485D02*
X42761904Y-83764342D01*
X42761904Y-83764342D02*
X42714285Y-83859580D01*
X42714285Y-83859580D02*
X42666666Y-83907200D01*
X42666666Y-83907200D02*
X42571428Y-83954819D01*
X42571428Y-83954819D02*
X42190476Y-83954819D01*
X42190476Y-83954819D02*
X42190476Y-82954819D01*
X42190476Y-82954819D02*
X42523809Y-82954819D01*
X42523809Y-82954819D02*
X42619047Y-83002438D01*
X42619047Y-83002438D02*
X42666666Y-83050057D01*
X42666666Y-83050057D02*
X42714285Y-83145295D01*
X42714285Y-83145295D02*
X42714285Y-83240533D01*
X42714285Y-83240533D02*
X42666666Y-83335771D01*
X42666666Y-83335771D02*
X42619047Y-83383390D01*
X42619047Y-83383390D02*
X42523809Y-83431009D01*
X42523809Y-83431009D02*
X42190476Y-83431009D01*
X43952381Y-83954819D02*
X43952381Y-82954819D01*
X43952381Y-82954819D02*
X44333333Y-82954819D01*
X44333333Y-82954819D02*
X44428571Y-83002438D01*
X44428571Y-83002438D02*
X44476190Y-83050057D01*
X44476190Y-83050057D02*
X44523809Y-83145295D01*
X44523809Y-83145295D02*
X44523809Y-83288152D01*
X44523809Y-83288152D02*
X44476190Y-83383390D01*
X44476190Y-83383390D02*
X44428571Y-83431009D01*
X44428571Y-83431009D02*
X44333333Y-83478628D01*
X44333333Y-83478628D02*
X43952381Y-83478628D01*
X45523809Y-83954819D02*
X45190476Y-83478628D01*
X44952381Y-83954819D02*
X44952381Y-82954819D01*
X44952381Y-82954819D02*
X45333333Y-82954819D01*
X45333333Y-82954819D02*
X45428571Y-83002438D01*
X45428571Y-83002438D02*
X45476190Y-83050057D01*
X45476190Y-83050057D02*
X45523809Y-83145295D01*
X45523809Y-83145295D02*
X45523809Y-83288152D01*
X45523809Y-83288152D02*
X45476190Y-83383390D01*
X45476190Y-83383390D02*
X45428571Y-83431009D01*
X45428571Y-83431009D02*
X45333333Y-83478628D01*
X45333333Y-83478628D02*
X44952381Y-83478628D01*
X46142857Y-82954819D02*
X46333333Y-82954819D01*
X46333333Y-82954819D02*
X46428571Y-83002438D01*
X46428571Y-83002438D02*
X46523809Y-83097676D01*
X46523809Y-83097676D02*
X46571428Y-83288152D01*
X46571428Y-83288152D02*
X46571428Y-83621485D01*
X46571428Y-83621485D02*
X46523809Y-83811961D01*
X46523809Y-83811961D02*
X46428571Y-83907200D01*
X46428571Y-83907200D02*
X46333333Y-83954819D01*
X46333333Y-83954819D02*
X46142857Y-83954819D01*
X46142857Y-83954819D02*
X46047619Y-83907200D01*
X46047619Y-83907200D02*
X45952381Y-83811961D01*
X45952381Y-83811961D02*
X45904762Y-83621485D01*
X45904762Y-83621485D02*
X45904762Y-83288152D01*
X45904762Y-83288152D02*
X45952381Y-83097676D01*
X45952381Y-83097676D02*
X46047619Y-83002438D01*
X46047619Y-83002438D02*
X46142857Y-82954819D01*
X46857143Y-82954819D02*
X47428571Y-82954819D01*
X47142857Y-83954819D02*
X47142857Y-82954819D01*
X47952381Y-82954819D02*
X48142857Y-82954819D01*
X48142857Y-82954819D02*
X48238095Y-83002438D01*
X48238095Y-83002438D02*
X48333333Y-83097676D01*
X48333333Y-83097676D02*
X48380952Y-83288152D01*
X48380952Y-83288152D02*
X48380952Y-83621485D01*
X48380952Y-83621485D02*
X48333333Y-83811961D01*
X48333333Y-83811961D02*
X48238095Y-83907200D01*
X48238095Y-83907200D02*
X48142857Y-83954819D01*
X48142857Y-83954819D02*
X47952381Y-83954819D01*
X47952381Y-83954819D02*
X47857143Y-83907200D01*
X47857143Y-83907200D02*
X47761905Y-83811961D01*
X47761905Y-83811961D02*
X47714286Y-83621485D01*
X47714286Y-83621485D02*
X47714286Y-83288152D01*
X47714286Y-83288152D02*
X47761905Y-83097676D01*
X47761905Y-83097676D02*
X47857143Y-83002438D01*
X47857143Y-83002438D02*
X47952381Y-82954819D01*
X48666667Y-82954819D02*
X49238095Y-82954819D01*
X48952381Y-83954819D02*
X48952381Y-82954819D01*
X49761905Y-83478628D02*
X49761905Y-83954819D01*
X49428572Y-82954819D02*
X49761905Y-83478628D01*
X49761905Y-83478628D02*
X50095238Y-82954819D01*
X50428572Y-83954819D02*
X50428572Y-82954819D01*
X50428572Y-82954819D02*
X50809524Y-82954819D01*
X50809524Y-82954819D02*
X50904762Y-83002438D01*
X50904762Y-83002438D02*
X50952381Y-83050057D01*
X50952381Y-83050057D02*
X51000000Y-83145295D01*
X51000000Y-83145295D02*
X51000000Y-83288152D01*
X51000000Y-83288152D02*
X50952381Y-83383390D01*
X50952381Y-83383390D02*
X50904762Y-83431009D01*
X50904762Y-83431009D02*
X50809524Y-83478628D01*
X50809524Y-83478628D02*
X50428572Y-83478628D01*
X51428572Y-83431009D02*
X51761905Y-83431009D01*
X51904762Y-83954819D02*
X51428572Y-83954819D01*
X51428572Y-83954819D02*
X51428572Y-82954819D01*
X51428572Y-82954819D02*
X51904762Y-82954819D01*
X64166667Y-18954819D02*
X64166667Y-17954819D01*
X64166667Y-17954819D02*
X64500000Y-18669104D01*
X64500000Y-18669104D02*
X64833333Y-17954819D01*
X64833333Y-17954819D02*
X64833333Y-18954819D01*
X65500000Y-17954819D02*
X65690476Y-17954819D01*
X65690476Y-17954819D02*
X65785714Y-18002438D01*
X65785714Y-18002438D02*
X65880952Y-18097676D01*
X65880952Y-18097676D02*
X65928571Y-18288152D01*
X65928571Y-18288152D02*
X65928571Y-18621485D01*
X65928571Y-18621485D02*
X65880952Y-18811961D01*
X65880952Y-18811961D02*
X65785714Y-18907200D01*
X65785714Y-18907200D02*
X65690476Y-18954819D01*
X65690476Y-18954819D02*
X65500000Y-18954819D01*
X65500000Y-18954819D02*
X65404762Y-18907200D01*
X65404762Y-18907200D02*
X65309524Y-18811961D01*
X65309524Y-18811961D02*
X65261905Y-18621485D01*
X65261905Y-18621485D02*
X65261905Y-18288152D01*
X65261905Y-18288152D02*
X65309524Y-18097676D01*
X65309524Y-18097676D02*
X65404762Y-18002438D01*
X65404762Y-18002438D02*
X65500000Y-17954819D01*
X66357143Y-18954819D02*
X66357143Y-17954819D01*
X66357143Y-17954819D02*
X66595238Y-17954819D01*
X66595238Y-17954819D02*
X66738095Y-18002438D01*
X66738095Y-18002438D02*
X66833333Y-18097676D01*
X66833333Y-18097676D02*
X66880952Y-18192914D01*
X66880952Y-18192914D02*
X66928571Y-18383390D01*
X66928571Y-18383390D02*
X66928571Y-18526247D01*
X66928571Y-18526247D02*
X66880952Y-18716723D01*
X66880952Y-18716723D02*
X66833333Y-18811961D01*
X66833333Y-18811961D02*
X66738095Y-18907200D01*
X66738095Y-18907200D02*
X66595238Y-18954819D01*
X66595238Y-18954819D02*
X66357143Y-18954819D01*
X67880952Y-18954819D02*
X67309524Y-18954819D01*
X67595238Y-18954819D02*
X67595238Y-17954819D01*
X67595238Y-17954819D02*
X67500000Y-18097676D01*
X67500000Y-18097676D02*
X67404762Y-18192914D01*
X67404762Y-18192914D02*
X67309524Y-18240533D01*
X71666667Y-76407200D02*
X71809524Y-76454819D01*
X71809524Y-76454819D02*
X72047619Y-76454819D01*
X72047619Y-76454819D02*
X72142857Y-76407200D01*
X72142857Y-76407200D02*
X72190476Y-76359580D01*
X72190476Y-76359580D02*
X72238095Y-76264342D01*
X72238095Y-76264342D02*
X72238095Y-76169104D01*
X72238095Y-76169104D02*
X72190476Y-76073866D01*
X72190476Y-76073866D02*
X72142857Y-76026247D01*
X72142857Y-76026247D02*
X72047619Y-75978628D01*
X72047619Y-75978628D02*
X71857143Y-75931009D01*
X71857143Y-75931009D02*
X71761905Y-75883390D01*
X71761905Y-75883390D02*
X71714286Y-75835771D01*
X71714286Y-75835771D02*
X71666667Y-75740533D01*
X71666667Y-75740533D02*
X71666667Y-75645295D01*
X71666667Y-75645295D02*
X71714286Y-75550057D01*
X71714286Y-75550057D02*
X71761905Y-75502438D01*
X71761905Y-75502438D02*
X71857143Y-75454819D01*
X71857143Y-75454819D02*
X72095238Y-75454819D01*
X72095238Y-75454819D02*
X72238095Y-75502438D01*
X72571429Y-75454819D02*
X72809524Y-76454819D01*
X72809524Y-76454819D02*
X73000000Y-75740533D01*
X73000000Y-75740533D02*
X73190476Y-76454819D01*
X73190476Y-76454819D02*
X73428572Y-75454819D01*
X74285714Y-75454819D02*
X73809524Y-75454819D01*
X73809524Y-75454819D02*
X73761905Y-75931009D01*
X73761905Y-75931009D02*
X73809524Y-75883390D01*
X73809524Y-75883390D02*
X73904762Y-75835771D01*
X73904762Y-75835771D02*
X74142857Y-75835771D01*
X74142857Y-75835771D02*
X74238095Y-75883390D01*
X74238095Y-75883390D02*
X74285714Y-75931009D01*
X74285714Y-75931009D02*
X74333333Y-76026247D01*
X74333333Y-76026247D02*
X74333333Y-76264342D01*
X74333333Y-76264342D02*
X74285714Y-76359580D01*
X74285714Y-76359580D02*
X74238095Y-76407200D01*
X74238095Y-76407200D02*
X74142857Y-76454819D01*
X74142857Y-76454819D02*
X73904762Y-76454819D01*
X73904762Y-76454819D02*
X73809524Y-76407200D01*
X73809524Y-76407200D02*
X73761905Y-76359580D01*
X5666667Y-76407200D02*
X5809524Y-76454819D01*
X5809524Y-76454819D02*
X6047619Y-76454819D01*
X6047619Y-76454819D02*
X6142857Y-76407200D01*
X6142857Y-76407200D02*
X6190476Y-76359580D01*
X6190476Y-76359580D02*
X6238095Y-76264342D01*
X6238095Y-76264342D02*
X6238095Y-76169104D01*
X6238095Y-76169104D02*
X6190476Y-76073866D01*
X6190476Y-76073866D02*
X6142857Y-76026247D01*
X6142857Y-76026247D02*
X6047619Y-75978628D01*
X6047619Y-75978628D02*
X5857143Y-75931009D01*
X5857143Y-75931009D02*
X5761905Y-75883390D01*
X5761905Y-75883390D02*
X5714286Y-75835771D01*
X5714286Y-75835771D02*
X5666667Y-75740533D01*
X5666667Y-75740533D02*
X5666667Y-75645295D01*
X5666667Y-75645295D02*
X5714286Y-75550057D01*
X5714286Y-75550057D02*
X5761905Y-75502438D01*
X5761905Y-75502438D02*
X5857143Y-75454819D01*
X5857143Y-75454819D02*
X6095238Y-75454819D01*
X6095238Y-75454819D02*
X6238095Y-75502438D01*
X6571429Y-75454819D02*
X6809524Y-76454819D01*
X6809524Y-76454819D02*
X7000000Y-75740533D01*
X7000000Y-75740533D02*
X7190476Y-76454819D01*
X7190476Y-76454819D02*
X7428572Y-75454819D01*
X7714286Y-75454819D02*
X8333333Y-75454819D01*
X8333333Y-75454819D02*
X8000000Y-75835771D01*
X8000000Y-75835771D02*
X8142857Y-75835771D01*
X8142857Y-75835771D02*
X8238095Y-75883390D01*
X8238095Y-75883390D02*
X8285714Y-75931009D01*
X8285714Y-75931009D02*
X8333333Y-76026247D01*
X8333333Y-76026247D02*
X8333333Y-76264342D01*
X8333333Y-76264342D02*
X8285714Y-76359580D01*
X8285714Y-76359580D02*
X8238095Y-76407200D01*
X8238095Y-76407200D02*
X8142857Y-76454819D01*
X8142857Y-76454819D02*
X7857143Y-76454819D01*
X7857143Y-76454819D02*
X7761905Y-76407200D01*
X7761905Y-76407200D02*
X7714286Y-76359580D01*
X47666667Y-76407200D02*
X47809524Y-76454819D01*
X47809524Y-76454819D02*
X48047619Y-76454819D01*
X48047619Y-76454819D02*
X48142857Y-76407200D01*
X48142857Y-76407200D02*
X48190476Y-76359580D01*
X48190476Y-76359580D02*
X48238095Y-76264342D01*
X48238095Y-76264342D02*
X48238095Y-76169104D01*
X48238095Y-76169104D02*
X48190476Y-76073866D01*
X48190476Y-76073866D02*
X48142857Y-76026247D01*
X48142857Y-76026247D02*
X48047619Y-75978628D01*
X48047619Y-75978628D02*
X47857143Y-75931009D01*
X47857143Y-75931009D02*
X47761905Y-75883390D01*
X47761905Y-75883390D02*
X47714286Y-75835771D01*
X47714286Y-75835771D02*
X47666667Y-75740533D01*
X47666667Y-75740533D02*
X47666667Y-75645295D01*
X47666667Y-75645295D02*
X47714286Y-75550057D01*
X47714286Y-75550057D02*
X47761905Y-75502438D01*
X47761905Y-75502438D02*
X47857143Y-75454819D01*
X47857143Y-75454819D02*
X48095238Y-75454819D01*
X48095238Y-75454819D02*
X48238095Y-75502438D01*
X48571429Y-75454819D02*
X48809524Y-76454819D01*
X48809524Y-76454819D02*
X49000000Y-75740533D01*
X49000000Y-75740533D02*
X49190476Y-76454819D01*
X49190476Y-76454819D02*
X49428572Y-75454819D01*
X49952381Y-75883390D02*
X49857143Y-75835771D01*
X49857143Y-75835771D02*
X49809524Y-75788152D01*
X49809524Y-75788152D02*
X49761905Y-75692914D01*
X49761905Y-75692914D02*
X49761905Y-75645295D01*
X49761905Y-75645295D02*
X49809524Y-75550057D01*
X49809524Y-75550057D02*
X49857143Y-75502438D01*
X49857143Y-75502438D02*
X49952381Y-75454819D01*
X49952381Y-75454819D02*
X50142857Y-75454819D01*
X50142857Y-75454819D02*
X50238095Y-75502438D01*
X50238095Y-75502438D02*
X50285714Y-75550057D01*
X50285714Y-75550057D02*
X50333333Y-75645295D01*
X50333333Y-75645295D02*
X50333333Y-75692914D01*
X50333333Y-75692914D02*
X50285714Y-75788152D01*
X50285714Y-75788152D02*
X50238095Y-75835771D01*
X50238095Y-75835771D02*
X50142857Y-75883390D01*
X50142857Y-75883390D02*
X49952381Y-75883390D01*
X49952381Y-75883390D02*
X49857143Y-75931009D01*
X49857143Y-75931009D02*
X49809524Y-75978628D01*
X49809524Y-75978628D02*
X49761905Y-76073866D01*
X49761905Y-76073866D02*
X49761905Y-76264342D01*
X49761905Y-76264342D02*
X49809524Y-76359580D01*
X49809524Y-76359580D02*
X49857143Y-76407200D01*
X49857143Y-76407200D02*
X49952381Y-76454819D01*
X49952381Y-76454819D02*
X50142857Y-76454819D01*
X50142857Y-76454819D02*
X50238095Y-76407200D01*
X50238095Y-76407200D02*
X50285714Y-76359580D01*
X50285714Y-76359580D02*
X50333333Y-76264342D01*
X50333333Y-76264342D02*
X50333333Y-76073866D01*
X50333333Y-76073866D02*
X50285714Y-75978628D01*
X50285714Y-75978628D02*
X50238095Y-75931009D01*
X50238095Y-75931009D02*
X50142857Y-75883390D01*
X59666667Y-64407200D02*
X59809524Y-64454819D01*
X59809524Y-64454819D02*
X60047619Y-64454819D01*
X60047619Y-64454819D02*
X60142857Y-64407200D01*
X60142857Y-64407200D02*
X60190476Y-64359580D01*
X60190476Y-64359580D02*
X60238095Y-64264342D01*
X60238095Y-64264342D02*
X60238095Y-64169104D01*
X60238095Y-64169104D02*
X60190476Y-64073866D01*
X60190476Y-64073866D02*
X60142857Y-64026247D01*
X60142857Y-64026247D02*
X60047619Y-63978628D01*
X60047619Y-63978628D02*
X59857143Y-63931009D01*
X59857143Y-63931009D02*
X59761905Y-63883390D01*
X59761905Y-63883390D02*
X59714286Y-63835771D01*
X59714286Y-63835771D02*
X59666667Y-63740533D01*
X59666667Y-63740533D02*
X59666667Y-63645295D01*
X59666667Y-63645295D02*
X59714286Y-63550057D01*
X59714286Y-63550057D02*
X59761905Y-63502438D01*
X59761905Y-63502438D02*
X59857143Y-63454819D01*
X59857143Y-63454819D02*
X60095238Y-63454819D01*
X60095238Y-63454819D02*
X60238095Y-63502438D01*
X60571429Y-63454819D02*
X60809524Y-64454819D01*
X60809524Y-64454819D02*
X61000000Y-63740533D01*
X61000000Y-63740533D02*
X61190476Y-64454819D01*
X61190476Y-64454819D02*
X61428572Y-63454819D01*
X61714286Y-63454819D02*
X62380952Y-63454819D01*
X62380952Y-63454819D02*
X61952381Y-64454819D01*
X17248094Y-7954819D02*
X17248094Y-8764342D01*
X17248094Y-8764342D02*
X17295713Y-8859580D01*
X17295713Y-8859580D02*
X17343332Y-8907200D01*
X17343332Y-8907200D02*
X17438570Y-8954819D01*
X17438570Y-8954819D02*
X17629046Y-8954819D01*
X17629046Y-8954819D02*
X17724284Y-8907200D01*
X17724284Y-8907200D02*
X17771903Y-8859580D01*
X17771903Y-8859580D02*
X17819522Y-8764342D01*
X17819522Y-8764342D02*
X17819522Y-7954819D01*
X18248094Y-8050057D02*
X18295713Y-8002438D01*
X18295713Y-8002438D02*
X18390951Y-7954819D01*
X18390951Y-7954819D02*
X18629046Y-7954819D01*
X18629046Y-7954819D02*
X18724284Y-8002438D01*
X18724284Y-8002438D02*
X18771903Y-8050057D01*
X18771903Y-8050057D02*
X18819522Y-8145295D01*
X18819522Y-8145295D02*
X18819522Y-8240533D01*
X18819522Y-8240533D02*
X18771903Y-8383390D01*
X18771903Y-8383390D02*
X18200475Y-8954819D01*
X18200475Y-8954819D02*
X18819522Y-8954819D01*
X3256904Y-12454819D02*
X3256904Y-11454819D01*
X3256904Y-11454819D02*
X3494999Y-11454819D01*
X3494999Y-11454819D02*
X3637856Y-11502438D01*
X3637856Y-11502438D02*
X3733094Y-11597676D01*
X3733094Y-11597676D02*
X3780713Y-11692914D01*
X3780713Y-11692914D02*
X3828332Y-11883390D01*
X3828332Y-11883390D02*
X3828332Y-12026247D01*
X3828332Y-12026247D02*
X3780713Y-12216723D01*
X3780713Y-12216723D02*
X3733094Y-12311961D01*
X3733094Y-12311961D02*
X3637856Y-12407200D01*
X3637856Y-12407200D02*
X3494999Y-12454819D01*
X3494999Y-12454819D02*
X3256904Y-12454819D01*
X4780713Y-12454819D02*
X4209285Y-12454819D01*
X4494999Y-12454819D02*
X4494999Y-11454819D01*
X4494999Y-11454819D02*
X4399761Y-11597676D01*
X4399761Y-11597676D02*
X4304523Y-11692914D01*
X4304523Y-11692914D02*
X4209285Y-11740533D01*
X15261905Y-102454819D02*
X15261905Y-101454819D01*
X15261905Y-101454819D02*
X15500000Y-101454819D01*
X15500000Y-101454819D02*
X15642857Y-101502438D01*
X15642857Y-101502438D02*
X15738095Y-101597676D01*
X15738095Y-101597676D02*
X15785714Y-101692914D01*
X15785714Y-101692914D02*
X15833333Y-101883390D01*
X15833333Y-101883390D02*
X15833333Y-102026247D01*
X15833333Y-102026247D02*
X15785714Y-102216723D01*
X15785714Y-102216723D02*
X15738095Y-102311961D01*
X15738095Y-102311961D02*
X15642857Y-102407200D01*
X15642857Y-102407200D02*
X15500000Y-102454819D01*
X15500000Y-102454819D02*
X15261905Y-102454819D01*
X16166667Y-101454819D02*
X16785714Y-101454819D01*
X16785714Y-101454819D02*
X16452381Y-101835771D01*
X16452381Y-101835771D02*
X16595238Y-101835771D01*
X16595238Y-101835771D02*
X16690476Y-101883390D01*
X16690476Y-101883390D02*
X16738095Y-101931009D01*
X16738095Y-101931009D02*
X16785714Y-102026247D01*
X16785714Y-102026247D02*
X16785714Y-102264342D01*
X16785714Y-102264342D02*
X16738095Y-102359580D01*
X16738095Y-102359580D02*
X16690476Y-102407200D01*
X16690476Y-102407200D02*
X16595238Y-102454819D01*
X16595238Y-102454819D02*
X16309524Y-102454819D01*
X16309524Y-102454819D02*
X16214286Y-102407200D01*
X16214286Y-102407200D02*
X16166667Y-102359580D01*
X38666666Y-12954819D02*
X38666666Y-13669104D01*
X38666666Y-13669104D02*
X38619047Y-13811961D01*
X38619047Y-13811961D02*
X38523809Y-13907200D01*
X38523809Y-13907200D02*
X38380952Y-13954819D01*
X38380952Y-13954819D02*
X38285714Y-13954819D01*
X39095238Y-13050057D02*
X39142857Y-13002438D01*
X39142857Y-13002438D02*
X39238095Y-12954819D01*
X39238095Y-12954819D02*
X39476190Y-12954819D01*
X39476190Y-12954819D02*
X39571428Y-13002438D01*
X39571428Y-13002438D02*
X39619047Y-13050057D01*
X39619047Y-13050057D02*
X39666666Y-13145295D01*
X39666666Y-13145295D02*
X39666666Y-13240533D01*
X39666666Y-13240533D02*
X39619047Y-13383390D01*
X39619047Y-13383390D02*
X39047619Y-13954819D01*
X39047619Y-13954819D02*
X39666666Y-13954819D01*
X29666667Y-76407200D02*
X29809524Y-76454819D01*
X29809524Y-76454819D02*
X30047619Y-76454819D01*
X30047619Y-76454819D02*
X30142857Y-76407200D01*
X30142857Y-76407200D02*
X30190476Y-76359580D01*
X30190476Y-76359580D02*
X30238095Y-76264342D01*
X30238095Y-76264342D02*
X30238095Y-76169104D01*
X30238095Y-76169104D02*
X30190476Y-76073866D01*
X30190476Y-76073866D02*
X30142857Y-76026247D01*
X30142857Y-76026247D02*
X30047619Y-75978628D01*
X30047619Y-75978628D02*
X29857143Y-75931009D01*
X29857143Y-75931009D02*
X29761905Y-75883390D01*
X29761905Y-75883390D02*
X29714286Y-75835771D01*
X29714286Y-75835771D02*
X29666667Y-75740533D01*
X29666667Y-75740533D02*
X29666667Y-75645295D01*
X29666667Y-75645295D02*
X29714286Y-75550057D01*
X29714286Y-75550057D02*
X29761905Y-75502438D01*
X29761905Y-75502438D02*
X29857143Y-75454819D01*
X29857143Y-75454819D02*
X30095238Y-75454819D01*
X30095238Y-75454819D02*
X30238095Y-75502438D01*
X30571429Y-75454819D02*
X30809524Y-76454819D01*
X30809524Y-76454819D02*
X31000000Y-75740533D01*
X31000000Y-75740533D02*
X31190476Y-76454819D01*
X31190476Y-76454819D02*
X31428572Y-75454819D01*
X32238095Y-75788152D02*
X32238095Y-76454819D01*
X32000000Y-75407200D02*
X31761905Y-76121485D01*
X31761905Y-76121485D02*
X32380952Y-76121485D01*
X17666667Y-88407200D02*
X17809524Y-88454819D01*
X17809524Y-88454819D02*
X18047619Y-88454819D01*
X18047619Y-88454819D02*
X18142857Y-88407200D01*
X18142857Y-88407200D02*
X18190476Y-88359580D01*
X18190476Y-88359580D02*
X18238095Y-88264342D01*
X18238095Y-88264342D02*
X18238095Y-88169104D01*
X18238095Y-88169104D02*
X18190476Y-88073866D01*
X18190476Y-88073866D02*
X18142857Y-88026247D01*
X18142857Y-88026247D02*
X18047619Y-87978628D01*
X18047619Y-87978628D02*
X17857143Y-87931009D01*
X17857143Y-87931009D02*
X17761905Y-87883390D01*
X17761905Y-87883390D02*
X17714286Y-87835771D01*
X17714286Y-87835771D02*
X17666667Y-87740533D01*
X17666667Y-87740533D02*
X17666667Y-87645295D01*
X17666667Y-87645295D02*
X17714286Y-87550057D01*
X17714286Y-87550057D02*
X17761905Y-87502438D01*
X17761905Y-87502438D02*
X17857143Y-87454819D01*
X17857143Y-87454819D02*
X18095238Y-87454819D01*
X18095238Y-87454819D02*
X18238095Y-87502438D01*
X18571429Y-87454819D02*
X18809524Y-88454819D01*
X18809524Y-88454819D02*
X19000000Y-87740533D01*
X19000000Y-87740533D02*
X19190476Y-88454819D01*
X19190476Y-88454819D02*
X19428572Y-87454819D01*
X19761905Y-87550057D02*
X19809524Y-87502438D01*
X19809524Y-87502438D02*
X19904762Y-87454819D01*
X19904762Y-87454819D02*
X20142857Y-87454819D01*
X20142857Y-87454819D02*
X20238095Y-87502438D01*
X20238095Y-87502438D02*
X20285714Y-87550057D01*
X20285714Y-87550057D02*
X20333333Y-87645295D01*
X20333333Y-87645295D02*
X20333333Y-87740533D01*
X20333333Y-87740533D02*
X20285714Y-87883390D01*
X20285714Y-87883390D02*
X19714286Y-88454819D01*
X19714286Y-88454819D02*
X20333333Y-88454819D01*
X38666667Y-91407200D02*
X38809524Y-91454819D01*
X38809524Y-91454819D02*
X39047619Y-91454819D01*
X39047619Y-91454819D02*
X39142857Y-91407200D01*
X39142857Y-91407200D02*
X39190476Y-91359580D01*
X39190476Y-91359580D02*
X39238095Y-91264342D01*
X39238095Y-91264342D02*
X39238095Y-91169104D01*
X39238095Y-91169104D02*
X39190476Y-91073866D01*
X39190476Y-91073866D02*
X39142857Y-91026247D01*
X39142857Y-91026247D02*
X39047619Y-90978628D01*
X39047619Y-90978628D02*
X38857143Y-90931009D01*
X38857143Y-90931009D02*
X38761905Y-90883390D01*
X38761905Y-90883390D02*
X38714286Y-90835771D01*
X38714286Y-90835771D02*
X38666667Y-90740533D01*
X38666667Y-90740533D02*
X38666667Y-90645295D01*
X38666667Y-90645295D02*
X38714286Y-90550057D01*
X38714286Y-90550057D02*
X38761905Y-90502438D01*
X38761905Y-90502438D02*
X38857143Y-90454819D01*
X38857143Y-90454819D02*
X39095238Y-90454819D01*
X39095238Y-90454819D02*
X39238095Y-90502438D01*
X39571429Y-90454819D02*
X39809524Y-91454819D01*
X39809524Y-91454819D02*
X40000000Y-90740533D01*
X40000000Y-90740533D02*
X40190476Y-91454819D01*
X40190476Y-91454819D02*
X40428572Y-90454819D01*
X40857143Y-91454819D02*
X41047619Y-91454819D01*
X41047619Y-91454819D02*
X41142857Y-91407200D01*
X41142857Y-91407200D02*
X41190476Y-91359580D01*
X41190476Y-91359580D02*
X41285714Y-91216723D01*
X41285714Y-91216723D02*
X41333333Y-91026247D01*
X41333333Y-91026247D02*
X41333333Y-90645295D01*
X41333333Y-90645295D02*
X41285714Y-90550057D01*
X41285714Y-90550057D02*
X41238095Y-90502438D01*
X41238095Y-90502438D02*
X41142857Y-90454819D01*
X41142857Y-90454819D02*
X40952381Y-90454819D01*
X40952381Y-90454819D02*
X40857143Y-90502438D01*
X40857143Y-90502438D02*
X40809524Y-90550057D01*
X40809524Y-90550057D02*
X40761905Y-90645295D01*
X40761905Y-90645295D02*
X40761905Y-90883390D01*
X40761905Y-90883390D02*
X40809524Y-90978628D01*
X40809524Y-90978628D02*
X40857143Y-91026247D01*
X40857143Y-91026247D02*
X40952381Y-91073866D01*
X40952381Y-91073866D02*
X41142857Y-91073866D01*
X41142857Y-91073866D02*
X41238095Y-91026247D01*
X41238095Y-91026247D02*
X41285714Y-90978628D01*
X41285714Y-90978628D02*
X41333333Y-90883390D01*
X59666667Y-88407200D02*
X59809524Y-88454819D01*
X59809524Y-88454819D02*
X60047619Y-88454819D01*
X60047619Y-88454819D02*
X60142857Y-88407200D01*
X60142857Y-88407200D02*
X60190476Y-88359580D01*
X60190476Y-88359580D02*
X60238095Y-88264342D01*
X60238095Y-88264342D02*
X60238095Y-88169104D01*
X60238095Y-88169104D02*
X60190476Y-88073866D01*
X60190476Y-88073866D02*
X60142857Y-88026247D01*
X60142857Y-88026247D02*
X60047619Y-87978628D01*
X60047619Y-87978628D02*
X59857143Y-87931009D01*
X59857143Y-87931009D02*
X59761905Y-87883390D01*
X59761905Y-87883390D02*
X59714286Y-87835771D01*
X59714286Y-87835771D02*
X59666667Y-87740533D01*
X59666667Y-87740533D02*
X59666667Y-87645295D01*
X59666667Y-87645295D02*
X59714286Y-87550057D01*
X59714286Y-87550057D02*
X59761905Y-87502438D01*
X59761905Y-87502438D02*
X59857143Y-87454819D01*
X59857143Y-87454819D02*
X60095238Y-87454819D01*
X60095238Y-87454819D02*
X60238095Y-87502438D01*
X60571429Y-87454819D02*
X60809524Y-88454819D01*
X60809524Y-88454819D02*
X61000000Y-87740533D01*
X61000000Y-87740533D02*
X61190476Y-88454819D01*
X61190476Y-88454819D02*
X61428572Y-87454819D01*
X62238095Y-87454819D02*
X62047619Y-87454819D01*
X62047619Y-87454819D02*
X61952381Y-87502438D01*
X61952381Y-87502438D02*
X61904762Y-87550057D01*
X61904762Y-87550057D02*
X61809524Y-87692914D01*
X61809524Y-87692914D02*
X61761905Y-87883390D01*
X61761905Y-87883390D02*
X61761905Y-88264342D01*
X61761905Y-88264342D02*
X61809524Y-88359580D01*
X61809524Y-88359580D02*
X61857143Y-88407200D01*
X61857143Y-88407200D02*
X61952381Y-88454819D01*
X61952381Y-88454819D02*
X62142857Y-88454819D01*
X62142857Y-88454819D02*
X62238095Y-88407200D01*
X62238095Y-88407200D02*
X62285714Y-88359580D01*
X62285714Y-88359580D02*
X62333333Y-88264342D01*
X62333333Y-88264342D02*
X62333333Y-88026247D01*
X62333333Y-88026247D02*
X62285714Y-87931009D01*
X62285714Y-87931009D02*
X62238095Y-87883390D01*
X62238095Y-87883390D02*
X62142857Y-87835771D01*
X62142857Y-87835771D02*
X61952381Y-87835771D01*
X61952381Y-87835771D02*
X61857143Y-87883390D01*
X61857143Y-87883390D02*
X61809524Y-87931009D01*
X61809524Y-87931009D02*
X61761905Y-88026247D01*
X2166666Y-43454819D02*
X2166666Y-44169104D01*
X2166666Y-44169104D02*
X2119047Y-44311961D01*
X2119047Y-44311961D02*
X2023809Y-44407200D01*
X2023809Y-44407200D02*
X1880952Y-44454819D01*
X1880952Y-44454819D02*
X1785714Y-44454819D01*
X2547619Y-43454819D02*
X3166666Y-43454819D01*
X3166666Y-43454819D02*
X2833333Y-43835771D01*
X2833333Y-43835771D02*
X2976190Y-43835771D01*
X2976190Y-43835771D02*
X3071428Y-43883390D01*
X3071428Y-43883390D02*
X3119047Y-43931009D01*
X3119047Y-43931009D02*
X3166666Y-44026247D01*
X3166666Y-44026247D02*
X3166666Y-44264342D01*
X3166666Y-44264342D02*
X3119047Y-44359580D01*
X3119047Y-44359580D02*
X3071428Y-44407200D01*
X3071428Y-44407200D02*
X2976190Y-44454819D01*
X2976190Y-44454819D02*
X2690476Y-44454819D01*
X2690476Y-44454819D02*
X2595238Y-44407200D01*
X2595238Y-44407200D02*
X2547619Y-44359580D01*
X17666667Y-64407200D02*
X17809524Y-64454819D01*
X17809524Y-64454819D02*
X18047619Y-64454819D01*
X18047619Y-64454819D02*
X18142857Y-64407200D01*
X18142857Y-64407200D02*
X18190476Y-64359580D01*
X18190476Y-64359580D02*
X18238095Y-64264342D01*
X18238095Y-64264342D02*
X18238095Y-64169104D01*
X18238095Y-64169104D02*
X18190476Y-64073866D01*
X18190476Y-64073866D02*
X18142857Y-64026247D01*
X18142857Y-64026247D02*
X18047619Y-63978628D01*
X18047619Y-63978628D02*
X17857143Y-63931009D01*
X17857143Y-63931009D02*
X17761905Y-63883390D01*
X17761905Y-63883390D02*
X17714286Y-63835771D01*
X17714286Y-63835771D02*
X17666667Y-63740533D01*
X17666667Y-63740533D02*
X17666667Y-63645295D01*
X17666667Y-63645295D02*
X17714286Y-63550057D01*
X17714286Y-63550057D02*
X17761905Y-63502438D01*
X17761905Y-63502438D02*
X17857143Y-63454819D01*
X17857143Y-63454819D02*
X18095238Y-63454819D01*
X18095238Y-63454819D02*
X18238095Y-63502438D01*
X18571429Y-63454819D02*
X18809524Y-64454819D01*
X18809524Y-64454819D02*
X19000000Y-63740533D01*
X19000000Y-63740533D02*
X19190476Y-64454819D01*
X19190476Y-64454819D02*
X19428572Y-63454819D01*
X20333333Y-64454819D02*
X19761905Y-64454819D01*
X20047619Y-64454819D02*
X20047619Y-63454819D01*
X20047619Y-63454819D02*
X19952381Y-63597676D01*
X19952381Y-63597676D02*
X19857143Y-63692914D01*
X19857143Y-63692914D02*
X19761905Y-63740533D01*
%TO.C,MOD1*%
D11*
X57000000Y-29250000D02*
X57000000Y-7750000D01*
X58000000Y-6750000D02*
X74000000Y-6750000D01*
X61670000Y-30250000D02*
X58000000Y-30250000D01*
X70610000Y-30250000D02*
X61670000Y-30250000D01*
X74000000Y-30250000D02*
X70610000Y-30250000D01*
X75000000Y-7750000D02*
X75000000Y-29250000D01*
X57000000Y-7750000D02*
G75*
G02*
X58000000Y-6750000I1000000J0D01*
G01*
X58000000Y-30250000D02*
G75*
G02*
X57000000Y-29250000I0J1000000D01*
G01*
X74000000Y-6750000D02*
G75*
G02*
X75000000Y-7750000I1J-999999D01*
G01*
X75000000Y-29250000D02*
G75*
G02*
X74000000Y-30250000I-999999J-1D01*
G01*
D12*
X75850000Y-28660000D02*
G75*
G02*
X75650000Y-28660000I-100000J0D01*
G01*
X75650000Y-28660000D02*
G75*
G02*
X75850000Y-28660000I100000J0D01*
G01*
%TO.C,SW5*%
D10*
X74750000Y-79000000D02*
G75*
G02*
X71250000Y-79000000I-1750000J0D01*
G01*
X71250000Y-79000000D02*
G75*
G02*
X74750000Y-79000000I1750000J0D01*
G01*
%TO.C,SW3*%
X8750000Y-79000000D02*
G75*
G02*
X5250000Y-79000000I-1750000J0D01*
G01*
X5250000Y-79000000D02*
G75*
G02*
X8750000Y-79000000I1750000J0D01*
G01*
%TO.C,SW8*%
X50750000Y-79000000D02*
G75*
G02*
X47250000Y-79000000I-1750000J0D01*
G01*
X47250000Y-79000000D02*
G75*
G02*
X50750000Y-79000000I1750000J0D01*
G01*
%TO.C,SW7*%
X62750000Y-67000000D02*
G75*
G02*
X59250000Y-67000000I-1750000J0D01*
G01*
X59250000Y-67000000D02*
G75*
G02*
X62750000Y-67000000I1750000J0D01*
G01*
%TO.C,D1*%
D13*
X5435000Y-10455000D02*
X5435000Y-13545000D01*
X5435000Y-10455170D02*
G75*
G02*
X10985000Y-12000000I2560000J-1544830D01*
G01*
X10985000Y-12000000D02*
G75*
G02*
X5435000Y-13544830I-2990000J0D01*
G01*
X10495000Y-12000000D02*
G75*
G02*
X5495000Y-12000000I-2500000J0D01*
G01*
X5495000Y-12000000D02*
G75*
G02*
X10495000Y-12000000I2500000J0D01*
G01*
%TO.C,D3*%
D10*
X13290000Y-103600000D02*
X13290000Y-108400000D01*
X13290000Y-103600000D02*
X18690000Y-103600000D01*
X18690000Y-103600000D02*
X18690000Y-108400000D01*
X18690000Y-108400000D02*
X13290000Y-108400000D01*
%TO.C,SW4*%
X32750000Y-79000000D02*
G75*
G02*
X29250000Y-79000000I-1750000J0D01*
G01*
X29250000Y-79000000D02*
G75*
G02*
X32750000Y-79000000I1750000J0D01*
G01*
%TO.C,SW2*%
X20750000Y-91000000D02*
G75*
G02*
X17250000Y-91000000I-1750000J0D01*
G01*
X17250000Y-91000000D02*
G75*
G02*
X20750000Y-91000000I1750000J0D01*
G01*
%TO.C,SW9*%
X41750000Y-94000000D02*
G75*
G02*
X38250000Y-94000000I-1750000J0D01*
G01*
X38250000Y-94000000D02*
G75*
G02*
X41750000Y-94000000I1750000J0D01*
G01*
%TO.C,SW6*%
X62750000Y-91000000D02*
G75*
G02*
X59250000Y-91000000I-1750000J0D01*
G01*
X59250000Y-91000000D02*
G75*
G02*
X62750000Y-91000000I1750000J0D01*
G01*
%TO.C,SW1*%
X20750000Y-67000000D02*
G75*
G02*
X17250000Y-67000000I-1750000J0D01*
G01*
X17250000Y-67000000D02*
G75*
G02*
X20750000Y-67000000I1750000J0D01*
G01*
%TD*%
%LPC*%
D14*
%TO.C,TP6*%
X41000000Y-35000000D03*
%TD*%
D15*
%TO.C,MOD1*%
X73620000Y-23580000D03*
X73620000Y-21040000D03*
X73620000Y-18500000D03*
X58380000Y-23580000D03*
X73620000Y-15960000D03*
X73620000Y-13420000D03*
D16*
X58380000Y-28660000D03*
D15*
X73620000Y-10880000D03*
X73620000Y-8340000D03*
X58380000Y-8340000D03*
X58380000Y-10880000D03*
X58380000Y-13420000D03*
X58380000Y-15960000D03*
X58380000Y-18500000D03*
X58380000Y-21000000D03*
X58380000Y-26120000D03*
X73620000Y-26120000D03*
X73620000Y-28660000D03*
%TD*%
D17*
%TO.C,SW5*%
X69000000Y-76750000D03*
D18*
X77000000Y-76750000D03*
X69000000Y-81250000D03*
X77000000Y-81250000D03*
%TD*%
D17*
%TO.C,SW3*%
X3000000Y-76750000D03*
D18*
X11000000Y-76750000D03*
X3000000Y-81250000D03*
X11000000Y-81250000D03*
%TD*%
D17*
%TO.C,SW8*%
X45000000Y-76750000D03*
D18*
X53000000Y-76750000D03*
X45000000Y-81250000D03*
X53000000Y-81250000D03*
%TD*%
D17*
%TO.C,SW7*%
X57000000Y-64750000D03*
D18*
X65000000Y-64750000D03*
X57000000Y-69250000D03*
X65000000Y-69250000D03*
%TD*%
D17*
%TO.C,U2*%
X20550000Y-11000000D03*
D18*
X18010000Y-11000000D03*
X15470000Y-11000000D03*
%TD*%
D14*
%TO.C,TP22*%
X53500000Y-26500000D03*
%TD*%
D19*
%TO.C,D1*%
X6725000Y-12000000D03*
D20*
X9265000Y-12000000D03*
%TD*%
D21*
%TO.C,D3*%
X12190000Y-106000000D03*
D22*
X14730000Y-106000000D03*
X17270000Y-106000000D03*
X19810000Y-106000000D03*
%TD*%
D23*
%TO.C,J2*%
X30110000Y-11000000D03*
D24*
X32650000Y-11000000D03*
X35190000Y-11000000D03*
X37730000Y-11000000D03*
X40270000Y-11000000D03*
X42810000Y-11000000D03*
X45350000Y-11000000D03*
X47890000Y-11000000D03*
%TD*%
D17*
%TO.C,SW4*%
X27000000Y-76750000D03*
D18*
X35000000Y-76750000D03*
X27000000Y-81250000D03*
X35000000Y-81250000D03*
%TD*%
D14*
%TO.C,TP33*%
X21000000Y-24500000D03*
%TD*%
%TO.C,TP1*%
X60000000Y-49000000D03*
%TD*%
D17*
%TO.C,SW2*%
X15000000Y-88750000D03*
D18*
X23000000Y-88750000D03*
X15000000Y-93250000D03*
X23000000Y-93250000D03*
%TD*%
D17*
%TO.C,SW9*%
X36000000Y-91750000D03*
D18*
X44000000Y-91750000D03*
X36000000Y-96250000D03*
X44000000Y-96250000D03*
%TD*%
D14*
%TO.C,TP29*%
X72500000Y-42500000D03*
%TD*%
%TO.C,TP9*%
X34000000Y-18500000D03*
%TD*%
%TO.C,TP13*%
X53000000Y-11500000D03*
%TD*%
%TO.C,TP21*%
X51000000Y-62500000D03*
%TD*%
%TO.C,TP16*%
X53000000Y-17000000D03*
%TD*%
D17*
%TO.C,SW6*%
X57000000Y-88750000D03*
D18*
X65000000Y-88750000D03*
X57000000Y-93250000D03*
X65000000Y-93250000D03*
%TD*%
D23*
%TO.C,J3*%
X5000000Y-37650000D03*
D24*
X5000000Y-40190000D03*
X5000000Y-42730000D03*
X5000000Y-45270000D03*
X5000000Y-47810000D03*
X5000000Y-50350000D03*
%TD*%
D17*
%TO.C,SW1*%
X15000000Y-64750000D03*
D18*
X23000000Y-64750000D03*
X15000000Y-69250000D03*
X23000000Y-69250000D03*
%TD*%
D14*
%TO.C,TP23*%
X46000000Y-56000000D03*
%TD*%
%TO.C,TP17*%
X71500000Y-28500000D03*
%TD*%
D22*
%TO.C,R43*%
X10920000Y-111000000D03*
X21080000Y-111000000D03*
%TD*%
%TO.C,R38*%
X33920000Y-31500000D03*
X44080000Y-31500000D03*
%TD*%
D25*
%TO.C,C2*%
X59000000Y-54270000D03*
D26*
X59000000Y-51730000D03*
%TD*%
D14*
%TO.C,TP32*%
X14500000Y-12000000D03*
%TD*%
D27*
%TO.C,Q2*%
X35960000Y-16140000D03*
D28*
X38500000Y-16140000D03*
X41040000Y-16140000D03*
%TD*%
D14*
%TO.C,TP31*%
X52500000Y-8500000D03*
%TD*%
%TO.C,TP2*%
X58500000Y-71000000D03*
%TD*%
D29*
%TO.C,C17*%
X61500000Y-42500000D03*
D22*
X59500000Y-42500000D03*
%TD*%
D25*
%TO.C,C22*%
X43000000Y-37270000D03*
D26*
X43000000Y-34730000D03*
%TD*%
D30*
%TO.C,J5*%
X26200000Y-43000000D03*
D31*
X26200000Y-41000000D03*
%TD*%
D22*
%TO.C,R22*%
X36080000Y-69000000D03*
X25920000Y-69000000D03*
%TD*%
D14*
%TO.C,TP12*%
X71000000Y-24000000D03*
%TD*%
D27*
%TO.C,Q4*%
X57460000Y-36640000D03*
D28*
X60000000Y-36640000D03*
X62540000Y-36640000D03*
%TD*%
D32*
%TO.C,C21*%
X47500000Y-45000000D03*
D22*
X47500000Y-43000000D03*
%TD*%
D25*
%TO.C,C18*%
X53770000Y-54000000D03*
D26*
X51230000Y-54000000D03*
%TD*%
D14*
%TO.C,TP18*%
X66000000Y-25000000D03*
%TD*%
D22*
%TO.C,R36*%
X21420000Y-26500000D03*
X31580000Y-26500000D03*
%TD*%
%TO.C,R30*%
X54500000Y-27420000D03*
X54500000Y-37580000D03*
%TD*%
D25*
%TO.C,C8*%
X7270000Y-22500000D03*
D26*
X4730000Y-22500000D03*
%TD*%
D22*
%TO.C,R10*%
X22080000Y-55000000D03*
X11920000Y-55000000D03*
%TD*%
D27*
%TO.C,Q6*%
X30640000Y-57540000D03*
D28*
X30640000Y-55000000D03*
X30640000Y-52460000D03*
%TD*%
D22*
%TO.C,R35*%
X29420000Y-35000000D03*
X39580000Y-35000000D03*
%TD*%
D32*
%TO.C,C15*%
X17000000Y-5000000D03*
D22*
X17000000Y-3000000D03*
%TD*%
%TO.C,R7*%
X11000000Y-95080000D03*
X11000000Y-84920000D03*
%TD*%
%TO.C,R5*%
X13920000Y-84000000D03*
X24080000Y-84000000D03*
%TD*%
%TO.C,R8*%
X41500000Y-85580000D03*
X41500000Y-75420000D03*
%TD*%
%TO.C,R33*%
X45920000Y-48500000D03*
X56080000Y-48500000D03*
%TD*%
D33*
%TO.C,U3*%
X35190000Y-47810000D03*
D34*
X35190000Y-45270000D03*
X35190000Y-42730000D03*
X35190000Y-40190000D03*
X42810000Y-40190000D03*
X42810000Y-42730000D03*
X42810000Y-45270000D03*
X42810000Y-47810000D03*
%TD*%
D22*
%TO.C,R26*%
X54000000Y-70580000D03*
X54000000Y-60420000D03*
%TD*%
%TO.C,R39*%
X44080000Y-28000000D03*
X33920000Y-28000000D03*
%TD*%
D35*
%TO.C,J1*%
X64250000Y-52525000D03*
D36*
X66750000Y-52525000D03*
X69250000Y-52525000D03*
X71750000Y-52525000D03*
%TD*%
D22*
%TO.C,R40*%
X52920000Y-104000000D03*
X63080000Y-104000000D03*
%TD*%
D27*
%TO.C,Q1*%
X26040000Y-4860000D03*
D28*
X23500000Y-4860000D03*
X20960000Y-4860000D03*
%TD*%
D22*
%TO.C,R41*%
X69000000Y-111080000D03*
X69000000Y-100920000D03*
%TD*%
%TO.C,R16*%
X49080000Y-7500000D03*
X38920000Y-7500000D03*
%TD*%
D14*
%TO.C,TP11*%
X69000000Y-22000000D03*
%TD*%
D25*
%TO.C,C27*%
X53230000Y-100000000D03*
D26*
X55770000Y-100000000D03*
%TD*%
D29*
%TO.C,C25*%
X31500000Y-48500000D03*
D22*
X29500000Y-48500000D03*
%TD*%
%TO.C,R4*%
X24080000Y-80500000D03*
X13920000Y-80500000D03*
%TD*%
D37*
%TO.C,D2*%
X65500000Y-43580000D03*
D38*
X65500000Y-33420000D03*
%TD*%
D25*
%TO.C,C10*%
X5000000Y-28270000D03*
D26*
X5000000Y-25730000D03*
%TD*%
D25*
%TO.C,C16*%
X75770000Y-43500000D03*
D26*
X73230000Y-43500000D03*
%TD*%
D22*
%TO.C,R28*%
X32920000Y-21000000D03*
X43080000Y-21000000D03*
%TD*%
D25*
%TO.C,C7*%
X21500000Y-23270000D03*
D26*
X21500000Y-20730000D03*
%TD*%
D25*
%TO.C,C23*%
X35500000Y-50730000D03*
D26*
X35500000Y-53270000D03*
%TD*%
D22*
%TO.C,R14*%
X53580000Y-14500000D03*
X43420000Y-14500000D03*
%TD*%
D30*
%TO.C,J4*%
X74450000Y-39000000D03*
D31*
X74450000Y-37000000D03*
%TD*%
D14*
%TO.C,TP14*%
X28500000Y-7000000D03*
%TD*%
D22*
%TO.C,R18*%
X5500000Y-63580000D03*
X5500000Y-53420000D03*
%TD*%
D32*
%TO.C,C13*%
X32500000Y-7000000D03*
D22*
X32500000Y-5000000D03*
%TD*%
D14*
%TO.C,TP10*%
X60500000Y-23500000D03*
%TD*%
D32*
%TO.C,C11*%
X5000000Y-33500000D03*
D22*
X5000000Y-31500000D03*
%TD*%
D25*
%TO.C,C6*%
X53730000Y-45000000D03*
D26*
X56270000Y-45000000D03*
%TD*%
D14*
%TO.C,TP8*%
X61000000Y-29000000D03*
%TD*%
D22*
%TO.C,R42*%
X10920000Y-101000000D03*
X21080000Y-101000000D03*
%TD*%
%TO.C,R24*%
X24080000Y-73500000D03*
X13920000Y-73500000D03*
%TD*%
D25*
%TO.C,C14*%
X12000000Y-7270000D03*
D26*
X12000000Y-4730000D03*
%TD*%
D22*
%TO.C,R6*%
X27000000Y-95080000D03*
X27000000Y-84920000D03*
%TD*%
%TO.C,R20*%
X77000000Y-21420000D03*
X77000000Y-31580000D03*
%TD*%
%TO.C,R32*%
X43000000Y-61080000D03*
X43000000Y-50920000D03*
%TD*%
%TO.C,R2*%
X25000000Y-57080000D03*
X25000000Y-46920000D03*
%TD*%
D39*
%TO.C,C3*%
X70000000Y-57500000D03*
D22*
X70000000Y-59500000D03*
%TD*%
D14*
%TO.C,TP3*%
X76000000Y-52500000D03*
%TD*%
D39*
%TO.C,C5*%
X70000000Y-63500000D03*
D22*
X70000000Y-65500000D03*
%TD*%
%TO.C,R17*%
X47080000Y-4000000D03*
X36920000Y-4000000D03*
%TD*%
D25*
%TO.C,C19*%
X46500000Y-54270000D03*
D26*
X46500000Y-51730000D03*
%TD*%
D22*
%TO.C,R3*%
X24080000Y-77000000D03*
X13920000Y-77000000D03*
%TD*%
D25*
%TO.C,C24*%
X32270000Y-38500000D03*
D26*
X29730000Y-38500000D03*
%TD*%
D22*
%TO.C,R1*%
X3000000Y-8920000D03*
X3000000Y-19080000D03*
%TD*%
D14*
%TO.C,TP30*%
X66000000Y-28000000D03*
%TD*%
D22*
%TO.C,R9*%
X55920000Y-74000000D03*
X66080000Y-74000000D03*
%TD*%
D14*
%TO.C,TP19*%
X28000000Y-12500000D03*
%TD*%
D22*
%TO.C,R12*%
X32420000Y-72500000D03*
X42580000Y-72500000D03*
%TD*%
D33*
%TO.C,U1*%
X10190000Y-51510000D03*
D34*
X10190000Y-48970000D03*
X10190000Y-46430000D03*
X10190000Y-43890000D03*
X10190000Y-41350000D03*
X10190000Y-38810000D03*
X10190000Y-36270000D03*
X10190000Y-33730000D03*
X10190000Y-31190000D03*
X10190000Y-28650000D03*
X10190000Y-26110000D03*
X10190000Y-23570000D03*
X10190000Y-21030000D03*
X10190000Y-18490000D03*
X17810000Y-18490000D03*
X17810000Y-21030000D03*
X17810000Y-23570000D03*
X17810000Y-26110000D03*
X17810000Y-28650000D03*
X17810000Y-31190000D03*
X17810000Y-33730000D03*
X17810000Y-36270000D03*
X17810000Y-38810000D03*
X17810000Y-41350000D03*
X17810000Y-43890000D03*
X17810000Y-46430000D03*
X17810000Y-48970000D03*
X17810000Y-51510000D03*
%TD*%
D22*
%TO.C,R11*%
X9000000Y-64580000D03*
X9000000Y-54420000D03*
%TD*%
D39*
%TO.C,C1*%
X64000000Y-57500000D03*
D22*
X64000000Y-59500000D03*
%TD*%
D27*
%TO.C,Q5*%
X47140000Y-40040000D03*
D28*
X47140000Y-37500000D03*
X47140000Y-34960000D03*
%TD*%
D14*
%TO.C,TP4*%
X66000000Y-68000000D03*
%TD*%
D22*
%TO.C,R13*%
X38000000Y-77420000D03*
X38000000Y-87580000D03*
%TD*%
D40*
%TO.C,C9*%
X21500000Y-31000000D03*
D22*
X23500000Y-31000000D03*
%TD*%
%TO.C,R31*%
X56080000Y-57500000D03*
X45920000Y-57500000D03*
%TD*%
%TO.C,R15*%
X51000000Y-27580000D03*
X51000000Y-17420000D03*
%TD*%
D25*
%TO.C,C12*%
X32500000Y-14230000D03*
D26*
X32500000Y-16770000D03*
%TD*%
D41*
%TO.C,U4*%
X49890000Y-109810000D03*
D42*
X47350000Y-109810000D03*
X44810000Y-109810000D03*
X42270000Y-109810000D03*
X39730000Y-109810000D03*
X37190000Y-109810000D03*
X34650000Y-109810000D03*
X32110000Y-109810000D03*
X32110000Y-102190000D03*
X34650000Y-102190000D03*
X37190000Y-102190000D03*
X39730000Y-102190000D03*
X42270000Y-102190000D03*
X44810000Y-102190000D03*
X47350000Y-102190000D03*
X49890000Y-102190000D03*
%TD*%
D27*
%TO.C,Q3*%
X25460000Y-20140000D03*
D28*
X28000000Y-20140000D03*
X30540000Y-20140000D03*
%TD*%
D25*
%TO.C,C26*%
X31500000Y-44270000D03*
D26*
X31500000Y-41730000D03*
%TD*%
D25*
%TO.C,C20*%
X39500000Y-55730000D03*
D26*
X39500000Y-58270000D03*
%TD*%
D22*
%TO.C,R27*%
X26080000Y-15000000D03*
X15920000Y-15000000D03*
%TD*%
%TO.C,R29*%
X47000000Y-22420000D03*
X47000000Y-32580000D03*
%TD*%
%TO.C,R21*%
X22420000Y-60500000D03*
X32580000Y-60500000D03*
%TD*%
%TO.C,R25*%
X51080000Y-67500000D03*
X40920000Y-67500000D03*
%TD*%
D14*
%TO.C,TP20*%
X55500000Y-9000000D03*
%TD*%
D22*
%TO.C,R37*%
X33920000Y-24500000D03*
X44080000Y-24500000D03*
%TD*%
%TO.C,R19*%
X77000000Y-8920000D03*
X77000000Y-19080000D03*
%TD*%
%TO.C,R23*%
X38420000Y-64000000D03*
X48580000Y-64000000D03*
%TD*%
%TO.C,R34*%
X35500000Y-55920000D03*
X35500000Y-66080000D03*
%TD*%
D25*
%TO.C,C4*%
X69500000Y-47270000D03*
D26*
X69500000Y-44730000D03*
%TD*%
%LPD*%
M02*
