#VRML V2.0 utf8
# Project-owned nominal model; units 0.1 inch for KiCad.
Shape { appearance Appearance { material Material { diffuseColor 0.055 0.06 0.065 } } geometry IndexedFaceSet { solid FALSE coord Coordinate { point [ -0.610236 -0.610236 0.019685,
-0.610236 -0.610236 0.413386,
-0.610236 0.610236 0.019685,
-0.610236 0.610236 0.413386,
0.610236 -0.610236 0.413386,
0.610236 -0.610236 0.019685,
0.610236 0.610236 0.019685,
0.610236 0.610236 0.413386 ] } coordIndex [ 0 1 2 -1,
2 1 3 -1,
4 5 6 -1,
4 6 7 -1,
5 4 0 -1,
0 4 1 -1,
7 6 2 -1,
7 2 3 -1,
2 6 0 -1,
0 6 5 -1,
7 3 1 -1,
7 1 4 -1 ] } }
Shape { appearance Appearance { material Material { diffuseColor 0.45 0.47 0.48 } } geometry IndexedFaceSet { solid FALSE coord Coordinate { point [ -0.472537 0.514557 0.417323,
-0.472441 0.511811 0.417323,
-0.472441 0.511811 0.413386,
-0.472537 0.514557 0.413386,
-0.472824 0.517290 0.417323,
-0.472824 0.517290 0.413386,
-0.473301 0.519997 0.417323,
-0.473301 0.519997 0.413386,
-0.473966 0.522663 0.417323,
-0.473966 0.522663 0.413386,
-0.474815 0.525276 0.417323,
-0.474815 0.525276 0.413386,
-0.475845 0.527824 0.417323,
-0.475845 0.527824 0.413386,
-0.477049 0.530294 0.417323,
-0.477049 0.530294 0.413386,
-0.478423 0.532674 0.417323,
-0.478423 0.532674 0.413386,
-0.479960 0.534952 0.417323,
-0.479960 0.534952 0.413386,
-0.481652 0.537118 0.417323,
-0.481652 0.537118 0.413386,
-0.483491 0.539160 0.417323,
-0.483491 0.539160 0.413386,
-0.485467 0.541069 0.417323,
-0.485467 0.541069 0.413386,
-0.487572 0.542835 0.417323,
-0.487572 0.542835 0.413386,
-0.489796 0.544450 0.417323,
-0.489796 0.544450 0.413386,
-0.492126 0.545907 0.417323,
-0.492126 0.545907 0.413386,
-0.494552 0.547197 0.417323,
-0.494552 0.547197 0.413386,
-0.497063 0.548314 0.417323,
-0.497063 0.548314 0.413386,
-0.499645 0.549254 0.417323,
-0.499645 0.549254 0.413386,
-0.502287 0.550012 0.417323,
-0.502287 0.550012 0.413386,
-0.504974 0.550583 0.417323,
-0.504974 0.550583 0.413386,
-0.507696 0.550965 0.417323,
-0.507696 0.550965 0.413386,
-0.510437 0.551157 0.417323,
-0.510437 0.551157 0.413386,
-0.513185 0.551157 0.417323,
-0.513185 0.551157 0.413386,
-0.515926 0.550965 0.417323,
-0.515926 0.550965 0.413386,
-0.518648 0.550583 0.417323,
-0.518648 0.550583 0.413386,
-0.521336 0.550012 0.417323,
-0.521336 0.550012 0.413386,
-0.523977 0.549254 0.417323,
-0.523977 0.549254 0.413386,
-0.526559 0.548314 0.417323,
-0.526559 0.548314 0.413386,
-0.529070 0.547197 0.417323,
-0.529070 0.547197 0.413386,
-0.531496 0.545907 0.417323,
-0.531496 0.545907 0.413386,
-0.533826 0.544450 0.417323,
-0.533826 0.544450 0.413386,
-0.536050 0.542835 0.417323,
-0.536050 0.542835 0.413386,
-0.538155 0.541069 0.417323,
-0.538155 0.541069 0.413386,
-0.540131 0.539160 0.417323,
-0.540131 0.539160 0.413386,
-0.541970 0.537118 0.417323,
-0.541970 0.537118 0.413386,
-0.543662 0.534952 0.417323,
-0.543662 0.534952 0.413386,
-0.545199 0.532674 0.417323,
-0.545199 0.532674 0.413386,
-0.546573 0.530294 0.417323,
-0.546573 0.530294 0.413386,
-0.547777 0.527824 0.417323,
-0.547777 0.527824 0.413386,
-0.548807 0.525276 0.417323,
-0.548807 0.525276 0.413386,
-0.549656 0.522663 0.417323,
-0.549656 0.522663 0.413386,
-0.550321 0.519997 0.413386,
-0.550321 0.519997 0.417323,
-0.550798 0.517290 0.417323,
-0.550798 0.517290 0.413386,
-0.551085 0.514557 0.417323,
-0.551085 0.514557 0.413386,
-0.551181 0.511811 0.417323,
-0.551181 0.511811 0.413386,
-0.551085 0.509065 0.417323,
-0.551085 0.509065 0.413386,
-0.550798 0.506332 0.417323,
-0.550798 0.506332 0.413386,
-0.550321 0.503626 0.417323,
-0.550321 0.503626 0.413386,
-0.549656 0.500959 0.417323,
-0.549656 0.500959 0.413386,
-0.548807 0.498346 0.417323,
-0.548807 0.498346 0.413386,
-0.547777 0.495798 0.417323,
-0.547777 0.495798 0.413386,
-0.546573 0.493328 0.417323,
-0.546573 0.493328 0.413386,
-0.545199 0.490948 0.413386,
-0.545199 0.490948 0.417323,
-0.543662 0.488670 0.417323,
-0.543662 0.488670 0.413386,
-0.541970 0.486504 0.417323,
-0.541970 0.486504 0.413386,
-0.540131 0.484462 0.417323,
-0.540131 0.484462 0.413386,
-0.538155 0.482553 0.417323,
-0.538155 0.482553 0.413386,
-0.536050 0.480787 0.417323,
-0.536050 0.480787 0.413386,
-0.533826 0.479172 0.417323,
-0.533826 0.479172 0.413386,
-0.531496 0.477716 0.417323,
-0.531496 0.477716 0.413386,
-0.529070 0.476425 0.413386,
-0.529070 0.476425 0.417323,
-0.526559 0.475308 0.417323,
-0.526559 0.475308 0.413386,
-0.523977 0.474368 0.417323,
-0.523977 0.474368 0.413386,
-0.521336 0.473610 0.417323,
-0.521336 0.473610 0.413386,
-0.518648 0.473039 0.417323,
-0.518648 0.473039 0.413386,
-0.515926 0.472657 0.413386,
-0.515926 0.472657 0.417323,
-0.513185 0.472465 0.413386,
-0.513185 0.472465 0.417323,
-0.510437 0.472465 0.417323,
-0.510437 0.472465 0.413386,
-0.507696 0.472657 0.417323,
-0.507696 0.472657 0.413386,
-0.504974 0.473039 0.413386,
-0.504974 0.473039 0.417323,
-0.502287 0.473610 0.417323,
-0.502287 0.473610 0.413386,
-0.499645 0.474368 0.417323,
-0.499645 0.474368 0.413386,
-0.497063 0.475308 0.417323,
-0.497063 0.475308 0.413386,
-0.494552 0.476425 0.417323,
-0.494552 0.476425 0.413386,
-0.492126 0.477716 0.413386,
-0.492126 0.477716 0.417323,
-0.489796 0.479172 0.417323,
-0.489796 0.479172 0.413386,
-0.487572 0.480787 0.417323,
-0.487572 0.480787 0.413386,
-0.485467 0.482553 0.417323,
-0.485467 0.482553 0.413386,
-0.483491 0.484462 0.413386,
-0.483491 0.484462 0.417323,
-0.481652 0.486504 0.417323,
-0.481652 0.486504 0.413386,
-0.479960 0.488670 0.417323,
-0.479960 0.488670 0.413386,
-0.478423 0.490948 0.413386,
-0.478423 0.490948 0.417323,
-0.477049 0.493328 0.417323,
-0.477049 0.493328 0.413386,
-0.475845 0.495798 0.417323,
-0.475845 0.495798 0.413386,
-0.474815 0.498346 0.413386,
-0.474815 0.498346 0.417323,
-0.473966 0.500959 0.417323,
-0.473966 0.500959 0.413386,
-0.473301 0.503626 0.417323,
-0.473301 0.503626 0.413386,
-0.472824 0.506332 0.417323,
-0.472824 0.506332 0.413386,
-0.472537 0.509065 0.413386,
-0.472537 0.509065 0.417323 ] } coordIndex [ 0 1 2 -1,
0 2 3 -1,
4 3 5 -1,
4 0 3 -1,
6 5 7 -1,
6 4 5 -1,
8 7 9 -1,
8 6 7 -1,
10 8 9 -1,
10 9 11 -1,
12 10 11 -1,
12 11 13 -1,
14 12 13 -1,
14 13 15 -1,
16 14 15 -1,
16 15 17 -1,
18 16 17 -1,
18 17 19 -1,
20 19 21 -1,
20 18 19 -1,
22 21 23 -1,
22 20 21 -1,
24 23 25 -1,
24 22 23 -1,
26 25 27 -1,
26 24 25 -1,
28 27 29 -1,
28 26 27 -1,
30 29 31 -1,
30 28 29 -1,
32 31 33 -1,
32 30 31 -1,
34 33 35 -1,
34 32 33 -1,
36 35 37 -1,
36 34 35 -1,
38 37 39 -1,
38 36 37 -1,
40 39 41 -1,
40 38 39 -1,
42 41 43 -1,
42 40 41 -1,
44 43 45 -1,
44 42 43 -1,
46 45 47 -1,
46 44 45 -1,
48 47 49 -1,
48 46 47 -1,
50 49 51 -1,
50 48 49 -1,
52 51 53 -1,
52 50 51 -1,
54 53 55 -1,
54 52 53 -1,
56 55 57 -1,
56 54 55 -1,
58 57 59 -1,
58 56 57 -1,
60 58 59 -1,
60 59 61 -1,
62 60 61 -1,
62 61 63 -1,
64 62 63 -1,
64 63 65 -1,
66 64 65 -1,
66 65 67 -1,
68 66 67 -1,
68 67 69 -1,
70 69 71 -1,
70 68 69 -1,
72 71 73 -1,
72 70 71 -1,
74 73 75 -1,
74 72 73 -1,
76 75 77 -1,
76 74 75 -1,
78 77 79 -1,
78 76 77 -1,
80 79 81 -1,
80 78 79 -1,
82 81 83 -1,
82 83 84 -1,
82 80 81 -1,
85 82 84 -1,
86 84 87 -1,
86 85 84 -1,
88 87 89 -1,
88 86 87 -1,
90 89 91 -1,
90 88 89 -1,
92 91 93 -1,
92 90 91 -1,
94 93 95 -1,
94 92 93 -1,
96 95 97 -1,
96 94 95 -1,
98 97 99 -1,
98 96 97 -1,
100 99 101 -1,
100 98 99 -1,
102 101 103 -1,
102 100 101 -1,
104 103 105 -1,
104 105 106 -1,
104 102 103 -1,
107 104 106 -1,
108 106 109 -1,
108 107 106 -1,
110 108 109 -1,
110 109 111 -1,
112 110 111 -1,
112 111 113 -1,
114 112 113 -1,
114 113 115 -1,
116 114 115 -1,
116 115 117 -1,
118 116 117 -1,
118 117 119 -1,
120 118 119 -1,
120 119 121 -1,
120 121 122 -1,
123 120 122 -1,
124 123 122 -1,
124 122 125 -1,
126 124 125 -1,
126 125 127 -1,
128 126 127 -1,
128 127 129 -1,
130 128 129 -1,
130 129 131 -1,
130 131 132 -1,
133 130 132 -1,
133 132 134 -1,
135 133 134 -1,
136 135 134 -1,
136 134 137 -1,
138 136 137 -1,
138 137 139 -1,
138 139 140 -1,
141 138 140 -1,
142 140 143 -1,
142 141 140 -1,
144 143 145 -1,
144 142 143 -1,
146 145 147 -1,
146 144 145 -1,
148 147 149 -1,
148 149 150 -1,
148 146 147 -1,
151 148 150 -1,
152 150 153 -1,
152 151 150 -1,
154 153 155 -1,
154 152 153 -1,
156 155 157 -1,
156 157 158 -1,
156 154 155 -1,
159 156 158 -1,
160 159 158 -1,
160 158 161 -1,
162 160 161 -1,
162 161 163 -1,
162 163 164 -1,
165 162 164 -1,
166 165 164 -1,
166 164 167 -1,
168 166 167 -1,
168 167 169 -1,
168 169 170 -1,
171 168 170 -1,
172 171 170 -1,
172 170 173 -1,
174 172 173 -1,
174 173 175 -1,
176 174 175 -1,
176 175 177 -1,
176 177 178 -1,
179 176 178 -1,
1 179 178 -1,
1 178 2 -1,
156 152 154 -1,
176 172 174 -1,
1 176 179 -1,
6 0 4 -1,
20 16 18 -1,
22 1 0 -1,
22 6 8 -1,
22 8 10 -1,
22 10 12 -1,
22 12 14 -1,
22 14 16 -1,
22 176 1 -1,
22 24 26 -1,
22 26 28 -1,
22 28 30 -1,
22 30 32 -1,
22 32 34 -1,
22 172 176 -1,
22 34 36 -1,
22 36 38 -1,
22 38 40 -1,
22 40 42 -1,
22 42 44 -1,
22 44 46 -1,
22 46 48 -1,
22 48 50 -1,
22 50 52 -1,
22 52 54 -1,
22 54 56 -1,
22 56 58 -1,
22 58 60 -1,
22 60 62 -1,
22 16 20 -1,
22 62 64 -1,
22 64 66 -1,
22 66 68 -1,
22 68 70 -1,
22 70 72 -1,
22 72 74 -1,
22 74 76 -1,
22 76 78 -1,
22 78 80 -1,
22 80 82 -1,
22 82 85 -1,
22 85 86 -1,
22 86 88 -1,
22 88 90 -1,
22 90 92 -1,
22 92 94 -1,
22 94 96 -1,
22 96 98 -1,
22 98 100 -1,
22 100 102 -1,
22 102 104 -1,
22 104 107 -1,
22 107 108 -1,
22 108 110 -1,
22 110 112 -1,
22 112 114 -1,
22 114 116 -1,
22 116 118 -1,
22 118 120 -1,
22 120 123 -1,
22 123 124 -1,
22 124 126 -1,
22 126 128 -1,
22 128 130 -1,
22 130 133 -1,
22 133 135 -1,
22 135 136 -1,
22 136 138 -1,
22 138 141 -1,
22 141 142 -1,
22 142 144 -1,
22 144 146 -1,
22 146 148 -1,
22 148 151 -1,
22 151 152 -1,
22 156 159 -1,
22 159 160 -1,
22 152 156 -1,
22 160 162 -1,
22 162 165 -1,
22 165 166 -1,
22 166 168 -1,
22 0 6 -1,
22 168 171 -1,
22 171 172 -1,
153 157 155 -1,
173 177 175 -1,
177 2 178 -1,
3 7 5 -1,
17 21 19 -1,
2 23 3 -1,
7 23 9 -1,
9 23 11 -1,
11 23 13 -1,
13 23 15 -1,
15 23 17 -1,
177 23 2 -1,
25 23 27 -1,
27 23 29 -1,
29 23 31 -1,
31 23 33 -1,
33 23 35 -1,
173 23 177 -1,
35 23 37 -1,
37 23 39 -1,
39 23 41 -1,
41 23 43 -1,
43 23 45 -1,
45 23 47 -1,
47 23 49 -1,
49 23 51 -1,
51 23 53 -1,
53 23 55 -1,
55 23 57 -1,
57 23 59 -1,
59 23 61 -1,
61 23 63 -1,
17 23 21 -1,
63 23 65 -1,
65 23 67 -1,
67 23 69 -1,
69 23 71 -1,
71 23 73 -1,
73 23 75 -1,
75 23 77 -1,
77 23 79 -1,
79 23 81 -1,
81 23 83 -1,
83 23 84 -1,
84 23 87 -1,
87 23 89 -1,
89 23 91 -1,
91 23 93 -1,
93 23 95 -1,
95 23 97 -1,
97 23 99 -1,
99 23 101 -1,
101 23 103 -1,
103 23 105 -1,
105 23 106 -1,
106 23 109 -1,
109 23 111 -1,
111 23 113 -1,
113 23 115 -1,
115 23 117 -1,
117 23 119 -1,
119 23 121 -1,
121 23 122 -1,
122 23 125 -1,
125 23 127 -1,
127 23 129 -1,
129 23 131 -1,
131 23 132 -1,
132 23 134 -1,
134 23 137 -1,
137 23 139 -1,
139 23 140 -1,
140 23 143 -1,
143 23 145 -1,
145 23 147 -1,
147 23 149 -1,
149 23 150 -1,
150 23 153 -1,
157 23 158 -1,
158 23 161 -1,
153 23 157 -1,
161 23 163 -1,
163 23 164 -1,
164 23 167 -1,
167 23 169 -1,
3 23 7 -1,
169 23 170 -1,
170 23 173 -1 ] } }
