%TF.GenerationSoftware,KiCad,Pcbnew,10.0.6*%
%TF.CreationDate,2026-09-10T20:00:41-05:00*%
%TF.ProjectId,KK_main_module,4b4b5f6d-6169-46e5-9f6d-6f64756c652e,rev?*%
%TF.SameCoordinates,Original*%
%TF.FileFunction,Legend,Top*%
%TF.FilePolarity,Positive*%
%FSLAX46Y46*%
G04 Gerber Fmt 4.6, Leading zero omitted, Abs format (unit mm)*
G04 Created by KiCad (PCBNEW 10.0.6) date 2026-09-10 20:00:41*
%MOMM*%
%LPD*%
G01*
G04 APERTURE LIST*
G04 Aperture macros list*
%AMRoundRect*
0 Rectangle with rounded corners*
0 $1 Rounding radius*
0 $2 $3 $4 $5 $6 $7 $8 $9 X,Y pos of 4 corners*
0 Add a 4 corners polygon primitive as box body*
4,1,4,$2,$3,$4,$5,$6,$7,$8,$9,$2,$3,0*
0 Add four circle primitives for the rounded corners*
1,1,$1+$1,$2,$3*
1,1,$1+$1,$4,$5*
1,1,$1+$1,$6,$7*
1,1,$1+$1,$8,$9*
0 Add four rect primitives between the rounded corners*
20,1,$1+$1,$2,$3,$4,$5,0*
20,1,$1+$1,$4,$5,$6,$7,0*
20,1,$1+$1,$6,$7,$8,$9,0*
20,1,$1+$1,$8,$9,$2,$3,0*%
G04 Aperture macros list end*
%ADD10C,0.150000*%
%ADD11C,0.127000*%
%ADD12C,0.200000*%
%ADD13C,0.120000*%
%ADD14C,1.712000*%
%ADD15RoundRect,0.102000X0.754000X0.754000X-0.754000X0.754000X-0.754000X-0.754000X0.754000X-0.754000X0*%
%ADD16R,1.900000X1.900000*%
%ADD17C,1.900000*%
%ADD18R,1.800000X1.800000*%
%ADD19C,1.800000*%
%ADD20R,1.850000X1.850000*%
%ADD21C,1.850000*%
%ADD22C,1.600000*%
%ADD23R,1.700000X1.700000*%
%ADD24C,1.700000*%
%ADD25R,1.500000X1.500000*%
%ADD26C,1.500000*%
%ADD27RoundRect,0.250000X0.550000X0.550000X-0.550000X0.550000X-0.550000X-0.550000X0.550000X-0.550000X0*%
%ADD28RoundRect,0.250000X0.550000X-0.550000X0.550000X0.550000X-0.550000X0.550000X-0.550000X-0.550000X0*%
%ADD29RoundRect,0.250000X-0.950000X-0.550000X0.950000X-0.550000X0.950000X0.550000X-0.950000X0.550000X0*%
%ADD30O,2.400000X1.600000*%
%ADD31RoundRect,0.250000X-0.600000X-0.725000X0.600000X-0.725000X0.600000X0.725000X-0.600000X0.725000X0*%
%ADD32O,1.700000X1.950000*%
%ADD33RoundRect,0.250000X0.625000X-0.350000X0.625000X0.350000X-0.625000X0.350000X-0.625000X-0.350000X0*%
%ADD34O,1.750000X1.200000*%
%ADD35RoundRect,0.249999X0.850001X-0.850001X0.850001X0.850001X-0.850001X0.850001X-0.850001X-0.850001X0*%
%ADD36C,2.200000*%
%ADD37RoundRect,0.250000X-0.550000X0.550000X-0.550000X-0.550000X0.550000X-0.550000X0.550000X0.550000X0*%
%ADD38RoundRect,0.250000X-0.550000X-0.550000X0.550000X-0.550000X0.550000X0.550000X-0.550000X0.550000X0*%
G04 APERTURE END LIST*
D10*
X30023809Y-83954819D02*
X30023809Y-82954819D01*
X30595237Y-83954819D02*
X30166666Y-83383390D01*
X30595237Y-82954819D02*
X30023809Y-83526247D01*
X31023809Y-83954819D02*
X31023809Y-82954819D01*
X31595237Y-83954819D02*
X31166666Y-83383390D01*
X31595237Y-82954819D02*
X31023809Y-83526247D01*
X32785714Y-83954819D02*
X32785714Y-82954819D01*
X32785714Y-82954819D02*
X33119047Y-83669104D01*
X33119047Y-83669104D02*
X33452380Y-82954819D01*
X33452380Y-82954819D02*
X33452380Y-83954819D01*
X33880952Y-83669104D02*
X34357142Y-83669104D01*
X33785714Y-83954819D02*
X34119047Y-82954819D01*
X34119047Y-82954819D02*
X34452380Y-83954819D01*
X34785714Y-83954819D02*
X34785714Y-82954819D01*
X35261904Y-83954819D02*
X35261904Y-82954819D01*
X35261904Y-82954819D02*
X35833332Y-83954819D01*
X35833332Y-83954819D02*
X35833332Y-82954819D01*
X37642856Y-83859580D02*
X37595237Y-83907200D01*
X37595237Y-83907200D02*
X37452380Y-83954819D01*
X37452380Y-83954819D02*
X37357142Y-83954819D01*
X37357142Y-83954819D02*
X37214285Y-83907200D01*
X37214285Y-83907200D02*
X37119047Y-83811961D01*
X37119047Y-83811961D02*
X37071428Y-83716723D01*
X37071428Y-83716723D02*
X37023809Y-83526247D01*
X37023809Y-83526247D02*
X37023809Y-83383390D01*
X37023809Y-83383390D02*
X37071428Y-83192914D01*
X37071428Y-83192914D02*
X37119047Y-83097676D01*
X37119047Y-83097676D02*
X37214285Y-83002438D01*
X37214285Y-83002438D02*
X37357142Y-82954819D01*
X37357142Y-82954819D02*
X37452380Y-82954819D01*
X37452380Y-82954819D02*
X37595237Y-83002438D01*
X37595237Y-83002438D02*
X37642856Y-83050057D01*
X38071428Y-83859580D02*
X38119047Y-83907200D01*
X38119047Y-83907200D02*
X38071428Y-83954819D01*
X38071428Y-83954819D02*
X38023809Y-83907200D01*
X38023809Y-83907200D02*
X38071428Y-83859580D01*
X38071428Y-83859580D02*
X38071428Y-83954819D01*
X38499999Y-83050057D02*
X38547618Y-83002438D01*
X38547618Y-83002438D02*
X38642856Y-82954819D01*
X38642856Y-82954819D02*
X38880951Y-82954819D01*
X38880951Y-82954819D02*
X38976189Y-83002438D01*
X38976189Y-83002438D02*
X39023808Y-83050057D01*
X39023808Y-83050057D02*
X39071427Y-83145295D01*
X39071427Y-83145295D02*
X39071427Y-83240533D01*
X39071427Y-83240533D02*
X39023808Y-83383390D01*
X39023808Y-83383390D02*
X38452380Y-83954819D01*
X38452380Y-83954819D02*
X39071427Y-83954819D01*
X40976189Y-82907200D02*
X40119047Y-84192914D01*
X42071428Y-83954819D02*
X42071428Y-82954819D01*
X42071428Y-82954819D02*
X42452380Y-82954819D01*
X42452380Y-82954819D02*
X42547618Y-83002438D01*
X42547618Y-83002438D02*
X42595237Y-83050057D01*
X42595237Y-83050057D02*
X42642856Y-83145295D01*
X42642856Y-83145295D02*
X42642856Y-83288152D01*
X42642856Y-83288152D02*
X42595237Y-83383390D01*
X42595237Y-83383390D02*
X42547618Y-83431009D01*
X42547618Y-83431009D02*
X42452380Y-83478628D01*
X42452380Y-83478628D02*
X42071428Y-83478628D01*
X43642856Y-83954819D02*
X43309523Y-83478628D01*
X43071428Y-83954819D02*
X43071428Y-82954819D01*
X43071428Y-82954819D02*
X43452380Y-82954819D01*
X43452380Y-82954819D02*
X43547618Y-83002438D01*
X43547618Y-83002438D02*
X43595237Y-83050057D01*
X43595237Y-83050057D02*
X43642856Y-83145295D01*
X43642856Y-83145295D02*
X43642856Y-83288152D01*
X43642856Y-83288152D02*
X43595237Y-83383390D01*
X43595237Y-83383390D02*
X43547618Y-83431009D01*
X43547618Y-83431009D02*
X43452380Y-83478628D01*
X43452380Y-83478628D02*
X43071428Y-83478628D01*
X44261904Y-82954819D02*
X44452380Y-82954819D01*
X44452380Y-82954819D02*
X44547618Y-83002438D01*
X44547618Y-83002438D02*
X44642856Y-83097676D01*
X44642856Y-83097676D02*
X44690475Y-83288152D01*
X44690475Y-83288152D02*
X44690475Y-83621485D01*
X44690475Y-83621485D02*
X44642856Y-83811961D01*
X44642856Y-83811961D02*
X44547618Y-83907200D01*
X44547618Y-83907200D02*
X44452380Y-83954819D01*
X44452380Y-83954819D02*
X44261904Y-83954819D01*
X44261904Y-83954819D02*
X44166666Y-83907200D01*
X44166666Y-83907200D02*
X44071428Y-83811961D01*
X44071428Y-83811961D02*
X44023809Y-83621485D01*
X44023809Y-83621485D02*
X44023809Y-83288152D01*
X44023809Y-83288152D02*
X44071428Y-83097676D01*
X44071428Y-83097676D02*
X44166666Y-83002438D01*
X44166666Y-83002438D02*
X44261904Y-82954819D01*
X44976190Y-82954819D02*
X45547618Y-82954819D01*
X45261904Y-83954819D02*
X45261904Y-82954819D01*
X46071428Y-82954819D02*
X46261904Y-82954819D01*
X46261904Y-82954819D02*
X46357142Y-83002438D01*
X46357142Y-83002438D02*
X46452380Y-83097676D01*
X46452380Y-83097676D02*
X46499999Y-83288152D01*
X46499999Y-83288152D02*
X46499999Y-83621485D01*
X46499999Y-83621485D02*
X46452380Y-83811961D01*
X46452380Y-83811961D02*
X46357142Y-83907200D01*
X46357142Y-83907200D02*
X46261904Y-83954819D01*
X46261904Y-83954819D02*
X46071428Y-83954819D01*
X46071428Y-83954819D02*
X45976190Y-83907200D01*
X45976190Y-83907200D02*
X45880952Y-83811961D01*
X45880952Y-83811961D02*
X45833333Y-83621485D01*
X45833333Y-83621485D02*
X45833333Y-83288152D01*
X45833333Y-83288152D02*
X45880952Y-83097676D01*
X45880952Y-83097676D02*
X45976190Y-83002438D01*
X45976190Y-83002438D02*
X46071428Y-82954819D01*
X46785714Y-82954819D02*
X47357142Y-82954819D01*
X47071428Y-83954819D02*
X47071428Y-82954819D01*
X47880952Y-83478628D02*
X47880952Y-83954819D01*
X47547619Y-82954819D02*
X47880952Y-83478628D01*
X47880952Y-83478628D02*
X48214285Y-82954819D01*
X48547619Y-83954819D02*
X48547619Y-82954819D01*
X48547619Y-82954819D02*
X48928571Y-82954819D01*
X48928571Y-82954819D02*
X49023809Y-83002438D01*
X49023809Y-83002438D02*
X49071428Y-83050057D01*
X49071428Y-83050057D02*
X49119047Y-83145295D01*
X49119047Y-83145295D02*
X49119047Y-83288152D01*
X49119047Y-83288152D02*
X49071428Y-83383390D01*
X49071428Y-83383390D02*
X49023809Y-83431009D01*
X49023809Y-83431009D02*
X48928571Y-83478628D01*
X48928571Y-83478628D02*
X48547619Y-83478628D01*
X49547619Y-83431009D02*
X49880952Y-83431009D01*
X50023809Y-83954819D02*
X49547619Y-83954819D01*
X49547619Y-83954819D02*
X49547619Y-82954819D01*
X49547619Y-82954819D02*
X50023809Y-82954819D01*
X64166667Y-18954819D02*
X64166667Y-17954819D01*
X64166667Y-17954819D02*
X64500000Y-18669104D01*
X64500000Y-18669104D02*
X64833333Y-17954819D01*
X64833333Y-17954819D02*
X64833333Y-18954819D01*
X65500000Y-17954819D02*
X65690476Y-17954819D01*
X65690476Y-17954819D02*
X65785714Y-18002438D01*
X65785714Y-18002438D02*
X65880952Y-18097676D01*
X65880952Y-18097676D02*
X65928571Y-18288152D01*
X65928571Y-18288152D02*
X65928571Y-18621485D01*
X65928571Y-18621485D02*
X65880952Y-18811961D01*
X65880952Y-18811961D02*
X65785714Y-18907200D01*
X65785714Y-18907200D02*
X65690476Y-18954819D01*
X65690476Y-18954819D02*
X65500000Y-18954819D01*
X65500000Y-18954819D02*
X65404762Y-18907200D01*
X65404762Y-18907200D02*
X65309524Y-18811961D01*
X65309524Y-18811961D02*
X65261905Y-18621485D01*
X65261905Y-18621485D02*
X65261905Y-18288152D01*
X65261905Y-18288152D02*
X65309524Y-18097676D01*
X65309524Y-18097676D02*
X65404762Y-18002438D01*
X65404762Y-18002438D02*
X65500000Y-17954819D01*
X66357143Y-18954819D02*
X66357143Y-17954819D01*
X66357143Y-17954819D02*
X66595238Y-17954819D01*
X66595238Y-17954819D02*
X66738095Y-18002438D01*
X66738095Y-18002438D02*
X66833333Y-18097676D01*
X66833333Y-18097676D02*
X66880952Y-18192914D01*
X66880952Y-18192914D02*
X66928571Y-18383390D01*
X66928571Y-18383390D02*
X66928571Y-18526247D01*
X66928571Y-18526247D02*
X66880952Y-18716723D01*
X66880952Y-18716723D02*
X66833333Y-18811961D01*
X66833333Y-18811961D02*
X66738095Y-18907200D01*
X66738095Y-18907200D02*
X66595238Y-18954819D01*
X66595238Y-18954819D02*
X66357143Y-18954819D01*
X67880952Y-18954819D02*
X67309524Y-18954819D01*
X67595238Y-18954819D02*
X67595238Y-17954819D01*
X67595238Y-17954819D02*
X67500000Y-18097676D01*
X67500000Y-18097676D02*
X67404762Y-18192914D01*
X67404762Y-18192914D02*
X67309524Y-18240533D01*
X71666667Y-76407200D02*
X71809524Y-76454819D01*
X71809524Y-76454819D02*
X72047619Y-76454819D01*
X72047619Y-76454819D02*
X72142857Y-76407200D01*
X72142857Y-76407200D02*
X72190476Y-76359580D01*
X72190476Y-76359580D02*
X72238095Y-76264342D01*
X72238095Y-76264342D02*
X72238095Y-76169104D01*
X72238095Y-76169104D02*
X72190476Y-76073866D01*
X72190476Y-76073866D02*
X72142857Y-76026247D01*
X72142857Y-76026247D02*
X72047619Y-75978628D01*
X72047619Y-75978628D02*
X71857143Y-75931009D01*
X71857143Y-75931009D02*
X71761905Y-75883390D01*
X71761905Y-75883390D02*
X71714286Y-75835771D01*
X71714286Y-75835771D02*
X71666667Y-75740533D01*
X71666667Y-75740533D02*
X71666667Y-75645295D01*
X71666667Y-75645295D02*
X71714286Y-75550057D01*
X71714286Y-75550057D02*
X71761905Y-75502438D01*
X71761905Y-75502438D02*
X71857143Y-75454819D01*
X71857143Y-75454819D02*
X72095238Y-75454819D01*
X72095238Y-75454819D02*
X72238095Y-75502438D01*
X72571429Y-75454819D02*
X72809524Y-76454819D01*
X72809524Y-76454819D02*
X73000000Y-75740533D01*
X73000000Y-75740533D02*
X73190476Y-76454819D01*
X73190476Y-76454819D02*
X73428572Y-75454819D01*
X74285714Y-75454819D02*
X73809524Y-75454819D01*
X73809524Y-75454819D02*
X73761905Y-75931009D01*
X73761905Y-75931009D02*
X73809524Y-75883390D01*
X73809524Y-75883390D02*
X73904762Y-75835771D01*
X73904762Y-75835771D02*
X74142857Y-75835771D01*
X74142857Y-75835771D02*
X74238095Y-75883390D01*
X74238095Y-75883390D02*
X74285714Y-75931009D01*
X74285714Y-75931009D02*
X74333333Y-76026247D01*
X74333333Y-76026247D02*
X74333333Y-76264342D01*
X74333333Y-76264342D02*
X74285714Y-76359580D01*
X74285714Y-76359580D02*
X74238095Y-76407200D01*
X74238095Y-76407200D02*
X74142857Y-76454819D01*
X74142857Y-76454819D02*
X73904762Y-76454819D01*
X73904762Y-76454819D02*
X73809524Y-76407200D01*
X73809524Y-76407200D02*
X73761905Y-76359580D01*
X5666667Y-76407200D02*
X5809524Y-76454819D01*
X5809524Y-76454819D02*
X6047619Y-76454819D01*
X6047619Y-76454819D02*
X6142857Y-76407200D01*
X6142857Y-76407200D02*
X6190476Y-76359580D01*
X6190476Y-76359580D02*
X6238095Y-76264342D01*
X6238095Y-76264342D02*
X6238095Y-76169104D01*
X6238095Y-76169104D02*
X6190476Y-76073866D01*
X6190476Y-76073866D02*
X6142857Y-76026247D01*
X6142857Y-76026247D02*
X6047619Y-75978628D01*
X6047619Y-75978628D02*
X5857143Y-75931009D01*
X5857143Y-75931009D02*
X5761905Y-75883390D01*
X5761905Y-75883390D02*
X5714286Y-75835771D01*
X5714286Y-75835771D02*
X5666667Y-75740533D01*
X5666667Y-75740533D02*
X5666667Y-75645295D01*
X5666667Y-75645295D02*
X5714286Y-75550057D01*
X5714286Y-75550057D02*
X5761905Y-75502438D01*
X5761905Y-75502438D02*
X5857143Y-75454819D01*
X5857143Y-75454819D02*
X6095238Y-75454819D01*
X6095238Y-75454819D02*
X6238095Y-75502438D01*
X6571429Y-75454819D02*
X6809524Y-76454819D01*
X6809524Y-76454819D02*
X7000000Y-75740533D01*
X7000000Y-75740533D02*
X7190476Y-76454819D01*
X7190476Y-76454819D02*
X7428572Y-75454819D01*
X7714286Y-75454819D02*
X8333333Y-75454819D01*
X8333333Y-75454819D02*
X8000000Y-75835771D01*
X8000000Y-75835771D02*
X8142857Y-75835771D01*
X8142857Y-75835771D02*
X8238095Y-75883390D01*
X8238095Y-75883390D02*
X8285714Y-75931009D01*
X8285714Y-75931009D02*
X8333333Y-76026247D01*
X8333333Y-76026247D02*
X8333333Y-76264342D01*
X8333333Y-76264342D02*
X8285714Y-76359580D01*
X8285714Y-76359580D02*
X8238095Y-76407200D01*
X8238095Y-76407200D02*
X8142857Y-76454819D01*
X8142857Y-76454819D02*
X7857143Y-76454819D01*
X7857143Y-76454819D02*
X7761905Y-76407200D01*
X7761905Y-76407200D02*
X7714286Y-76359580D01*
X47666667Y-76407200D02*
X47809524Y-76454819D01*
X47809524Y-76454819D02*
X48047619Y-76454819D01*
X48047619Y-76454819D02*
X48142857Y-76407200D01*
X48142857Y-76407200D02*
X48190476Y-76359580D01*
X48190476Y-76359580D02*
X48238095Y-76264342D01*
X48238095Y-76264342D02*
X48238095Y-76169104D01*
X48238095Y-76169104D02*
X48190476Y-76073866D01*
X48190476Y-76073866D02*
X48142857Y-76026247D01*
X48142857Y-76026247D02*
X48047619Y-75978628D01*
X48047619Y-75978628D02*
X47857143Y-75931009D01*
X47857143Y-75931009D02*
X47761905Y-75883390D01*
X47761905Y-75883390D02*
X47714286Y-75835771D01*
X47714286Y-75835771D02*
X47666667Y-75740533D01*
X47666667Y-75740533D02*
X47666667Y-75645295D01*
X47666667Y-75645295D02*
X47714286Y-75550057D01*
X47714286Y-75550057D02*
X47761905Y-75502438D01*
X47761905Y-75502438D02*
X47857143Y-75454819D01*
X47857143Y-75454819D02*
X48095238Y-75454819D01*
X48095238Y-75454819D02*
X48238095Y-75502438D01*
X48571429Y-75454819D02*
X48809524Y-76454819D01*
X48809524Y-76454819D02*
X49000000Y-75740533D01*
X49000000Y-75740533D02*
X49190476Y-76454819D01*
X49190476Y-76454819D02*
X49428572Y-75454819D01*
X49952381Y-75883390D02*
X49857143Y-75835771D01*
X49857143Y-75835771D02*
X49809524Y-75788152D01*
X49809524Y-75788152D02*
X49761905Y-75692914D01*
X49761905Y-75692914D02*
X49761905Y-75645295D01*
X49761905Y-75645295D02*
X49809524Y-75550057D01*
X49809524Y-75550057D02*
X49857143Y-75502438D01*
X49857143Y-75502438D02*
X49952381Y-75454819D01*
X49952381Y-75454819D02*
X50142857Y-75454819D01*
X50142857Y-75454819D02*
X50238095Y-75502438D01*
X50238095Y-75502438D02*
X50285714Y-75550057D01*
X50285714Y-75550057D02*
X50333333Y-75645295D01*
X50333333Y-75645295D02*
X50333333Y-75692914D01*
X50333333Y-75692914D02*
X50285714Y-75788152D01*
X50285714Y-75788152D02*
X50238095Y-75835771D01*
X50238095Y-75835771D02*
X50142857Y-75883390D01*
X50142857Y-75883390D02*
X49952381Y-75883390D01*
X49952381Y-75883390D02*
X49857143Y-75931009D01*
X49857143Y-75931009D02*
X49809524Y-75978628D01*
X49809524Y-75978628D02*
X49761905Y-76073866D01*
X49761905Y-76073866D02*
X49761905Y-76264342D01*
X49761905Y-76264342D02*
X49809524Y-76359580D01*
X49809524Y-76359580D02*
X49857143Y-76407200D01*
X49857143Y-76407200D02*
X49952381Y-76454819D01*
X49952381Y-76454819D02*
X50142857Y-76454819D01*
X50142857Y-76454819D02*
X50238095Y-76407200D01*
X50238095Y-76407200D02*
X50285714Y-76359580D01*
X50285714Y-76359580D02*
X50333333Y-76264342D01*
X50333333Y-76264342D02*
X50333333Y-76073866D01*
X50333333Y-76073866D02*
X50285714Y-75978628D01*
X50285714Y-75978628D02*
X50238095Y-75931009D01*
X50238095Y-75931009D02*
X50142857Y-75883390D01*
X59666667Y-64407200D02*
X59809524Y-64454819D01*
X59809524Y-64454819D02*
X60047619Y-64454819D01*
X60047619Y-64454819D02*
X60142857Y-64407200D01*
X60142857Y-64407200D02*
X60190476Y-64359580D01*
X60190476Y-64359580D02*
X60238095Y-64264342D01*
X60238095Y-64264342D02*
X60238095Y-64169104D01*
X60238095Y-64169104D02*
X60190476Y-64073866D01*
X60190476Y-64073866D02*
X60142857Y-64026247D01*
X60142857Y-64026247D02*
X60047619Y-63978628D01*
X60047619Y-63978628D02*
X59857143Y-63931009D01*
X59857143Y-63931009D02*
X59761905Y-63883390D01*
X59761905Y-63883390D02*
X59714286Y-63835771D01*
X59714286Y-63835771D02*
X59666667Y-63740533D01*
X59666667Y-63740533D02*
X59666667Y-63645295D01*
X59666667Y-63645295D02*
X59714286Y-63550057D01*
X59714286Y-63550057D02*
X59761905Y-63502438D01*
X59761905Y-63502438D02*
X59857143Y-63454819D01*
X59857143Y-63454819D02*
X60095238Y-63454819D01*
X60095238Y-63454819D02*
X60238095Y-63502438D01*
X60571429Y-63454819D02*
X60809524Y-64454819D01*
X60809524Y-64454819D02*
X61000000Y-63740533D01*
X61000000Y-63740533D02*
X61190476Y-64454819D01*
X61190476Y-64454819D02*
X61428572Y-63454819D01*
X61714286Y-63454819D02*
X62380952Y-63454819D01*
X62380952Y-63454819D02*
X61952381Y-64454819D01*
X17248094Y-7954819D02*
X17248094Y-8764342D01*
X17248094Y-8764342D02*
X17295713Y-8859580D01*
X17295713Y-8859580D02*
X17343332Y-8907200D01*
X17343332Y-8907200D02*
X17438570Y-8954819D01*
X17438570Y-8954819D02*
X17629046Y-8954819D01*
X17629046Y-8954819D02*
X17724284Y-8907200D01*
X17724284Y-8907200D02*
X17771903Y-8859580D01*
X17771903Y-8859580D02*
X17819522Y-8764342D01*
X17819522Y-8764342D02*
X17819522Y-7954819D01*
X18248094Y-8050057D02*
X18295713Y-8002438D01*
X18295713Y-8002438D02*
X18390951Y-7954819D01*
X18390951Y-7954819D02*
X18629046Y-7954819D01*
X18629046Y-7954819D02*
X18724284Y-8002438D01*
X18724284Y-8002438D02*
X18771903Y-8050057D01*
X18771903Y-8050057D02*
X18819522Y-8145295D01*
X18819522Y-8145295D02*
X18819522Y-8240533D01*
X18819522Y-8240533D02*
X18771903Y-8383390D01*
X18771903Y-8383390D02*
X18200475Y-8954819D01*
X18200475Y-8954819D02*
X18819522Y-8954819D01*
X3256904Y-12454819D02*
X3256904Y-11454819D01*
X3256904Y-11454819D02*
X3494999Y-11454819D01*
X3494999Y-11454819D02*
X3637856Y-11502438D01*
X3637856Y-11502438D02*
X3733094Y-11597676D01*
X3733094Y-11597676D02*
X3780713Y-11692914D01*
X3780713Y-11692914D02*
X3828332Y-11883390D01*
X3828332Y-11883390D02*
X3828332Y-12026247D01*
X3828332Y-12026247D02*
X3780713Y-12216723D01*
X3780713Y-12216723D02*
X3733094Y-12311961D01*
X3733094Y-12311961D02*
X3637856Y-12407200D01*
X3637856Y-12407200D02*
X3494999Y-12454819D01*
X3494999Y-12454819D02*
X3256904Y-12454819D01*
X4780713Y-12454819D02*
X4209285Y-12454819D01*
X4494999Y-12454819D02*
X4494999Y-11454819D01*
X4494999Y-11454819D02*
X4399761Y-11597676D01*
X4399761Y-11597676D02*
X4304523Y-11692914D01*
X4304523Y-11692914D02*
X4209285Y-11740533D01*
X38666666Y-12954819D02*
X38666666Y-13669104D01*
X38666666Y-13669104D02*
X38619047Y-13811961D01*
X38619047Y-13811961D02*
X38523809Y-13907200D01*
X38523809Y-13907200D02*
X38380952Y-13954819D01*
X38380952Y-13954819D02*
X38285714Y-13954819D01*
X39095238Y-13050057D02*
X39142857Y-13002438D01*
X39142857Y-13002438D02*
X39238095Y-12954819D01*
X39238095Y-12954819D02*
X39476190Y-12954819D01*
X39476190Y-12954819D02*
X39571428Y-13002438D01*
X39571428Y-13002438D02*
X39619047Y-13050057D01*
X39619047Y-13050057D02*
X39666666Y-13145295D01*
X39666666Y-13145295D02*
X39666666Y-13240533D01*
X39666666Y-13240533D02*
X39619047Y-13383390D01*
X39619047Y-13383390D02*
X39047619Y-13954819D01*
X39047619Y-13954819D02*
X39666666Y-13954819D01*
X29666667Y-76407200D02*
X29809524Y-76454819D01*
X29809524Y-76454819D02*
X30047619Y-76454819D01*
X30047619Y-76454819D02*
X30142857Y-76407200D01*
X30142857Y-76407200D02*
X30190476Y-76359580D01*
X30190476Y-76359580D02*
X30238095Y-76264342D01*
X30238095Y-76264342D02*
X30238095Y-76169104D01*
X30238095Y-76169104D02*
X30190476Y-76073866D01*
X30190476Y-76073866D02*
X30142857Y-76026247D01*
X30142857Y-76026247D02*
X30047619Y-75978628D01*
X30047619Y-75978628D02*
X29857143Y-75931009D01*
X29857143Y-75931009D02*
X29761905Y-75883390D01*
X29761905Y-75883390D02*
X29714286Y-75835771D01*
X29714286Y-75835771D02*
X29666667Y-75740533D01*
X29666667Y-75740533D02*
X29666667Y-75645295D01*
X29666667Y-75645295D02*
X29714286Y-75550057D01*
X29714286Y-75550057D02*
X29761905Y-75502438D01*
X29761905Y-75502438D02*
X29857143Y-75454819D01*
X29857143Y-75454819D02*
X30095238Y-75454819D01*
X30095238Y-75454819D02*
X30238095Y-75502438D01*
X30571429Y-75454819D02*
X30809524Y-76454819D01*
X30809524Y-76454819D02*
X31000000Y-75740533D01*
X31000000Y-75740533D02*
X31190476Y-76454819D01*
X31190476Y-76454819D02*
X31428572Y-75454819D01*
X32238095Y-75788152D02*
X32238095Y-76454819D01*
X32000000Y-75407200D02*
X31761905Y-76121485D01*
X31761905Y-76121485D02*
X32380952Y-76121485D01*
X17666667Y-88407200D02*
X17809524Y-88454819D01*
X17809524Y-88454819D02*
X18047619Y-88454819D01*
X18047619Y-88454819D02*
X18142857Y-88407200D01*
X18142857Y-88407200D02*
X18190476Y-88359580D01*
X18190476Y-88359580D02*
X18238095Y-88264342D01*
X18238095Y-88264342D02*
X18238095Y-88169104D01*
X18238095Y-88169104D02*
X18190476Y-88073866D01*
X18190476Y-88073866D02*
X18142857Y-88026247D01*
X18142857Y-88026247D02*
X18047619Y-87978628D01*
X18047619Y-87978628D02*
X17857143Y-87931009D01*
X17857143Y-87931009D02*
X17761905Y-87883390D01*
X17761905Y-87883390D02*
X17714286Y-87835771D01*
X17714286Y-87835771D02*
X17666667Y-87740533D01*
X17666667Y-87740533D02*
X17666667Y-87645295D01*
X17666667Y-87645295D02*
X17714286Y-87550057D01*
X17714286Y-87550057D02*
X17761905Y-87502438D01*
X17761905Y-87502438D02*
X17857143Y-87454819D01*
X17857143Y-87454819D02*
X18095238Y-87454819D01*
X18095238Y-87454819D02*
X18238095Y-87502438D01*
X18571429Y-87454819D02*
X18809524Y-88454819D01*
X18809524Y-88454819D02*
X19000000Y-87740533D01*
X19000000Y-87740533D02*
X19190476Y-88454819D01*
X19190476Y-88454819D02*
X19428572Y-87454819D01*
X19761905Y-87550057D02*
X19809524Y-87502438D01*
X19809524Y-87502438D02*
X19904762Y-87454819D01*
X19904762Y-87454819D02*
X20142857Y-87454819D01*
X20142857Y-87454819D02*
X20238095Y-87502438D01*
X20238095Y-87502438D02*
X20285714Y-87550057D01*
X20285714Y-87550057D02*
X20333333Y-87645295D01*
X20333333Y-87645295D02*
X20333333Y-87740533D01*
X20333333Y-87740533D02*
X20285714Y-87883390D01*
X20285714Y-87883390D02*
X19714286Y-88454819D01*
X19714286Y-88454819D02*
X20333333Y-88454819D01*
X38666667Y-91407200D02*
X38809524Y-91454819D01*
X38809524Y-91454819D02*
X39047619Y-91454819D01*
X39047619Y-91454819D02*
X39142857Y-91407200D01*
X39142857Y-91407200D02*
X39190476Y-91359580D01*
X39190476Y-91359580D02*
X39238095Y-91264342D01*
X39238095Y-91264342D02*
X39238095Y-91169104D01*
X39238095Y-91169104D02*
X39190476Y-91073866D01*
X39190476Y-91073866D02*
X39142857Y-91026247D01*
X39142857Y-91026247D02*
X39047619Y-90978628D01*
X39047619Y-90978628D02*
X38857143Y-90931009D01*
X38857143Y-90931009D02*
X38761905Y-90883390D01*
X38761905Y-90883390D02*
X38714286Y-90835771D01*
X38714286Y-90835771D02*
X38666667Y-90740533D01*
X38666667Y-90740533D02*
X38666667Y-90645295D01*
X38666667Y-90645295D02*
X38714286Y-90550057D01*
X38714286Y-90550057D02*
X38761905Y-90502438D01*
X38761905Y-90502438D02*
X38857143Y-90454819D01*
X38857143Y-90454819D02*
X39095238Y-90454819D01*
X39095238Y-90454819D02*
X39238095Y-90502438D01*
X39571429Y-90454819D02*
X39809524Y-91454819D01*
X39809524Y-91454819D02*
X40000000Y-90740533D01*
X40000000Y-90740533D02*
X40190476Y-91454819D01*
X40190476Y-91454819D02*
X40428572Y-90454819D01*
X40857143Y-91454819D02*
X41047619Y-91454819D01*
X41047619Y-91454819D02*
X41142857Y-91407200D01*
X41142857Y-91407200D02*
X41190476Y-91359580D01*
X41190476Y-91359580D02*
X41285714Y-91216723D01*
X41285714Y-91216723D02*
X41333333Y-91026247D01*
X41333333Y-91026247D02*
X41333333Y-90645295D01*
X41333333Y-90645295D02*
X41285714Y-90550057D01*
X41285714Y-90550057D02*
X41238095Y-90502438D01*
X41238095Y-90502438D02*
X41142857Y-90454819D01*
X41142857Y-90454819D02*
X40952381Y-90454819D01*
X40952381Y-90454819D02*
X40857143Y-90502438D01*
X40857143Y-90502438D02*
X40809524Y-90550057D01*
X40809524Y-90550057D02*
X40761905Y-90645295D01*
X40761905Y-90645295D02*
X40761905Y-90883390D01*
X40761905Y-90883390D02*
X40809524Y-90978628D01*
X40809524Y-90978628D02*
X40857143Y-91026247D01*
X40857143Y-91026247D02*
X40952381Y-91073866D01*
X40952381Y-91073866D02*
X41142857Y-91073866D01*
X41142857Y-91073866D02*
X41238095Y-91026247D01*
X41238095Y-91026247D02*
X41285714Y-90978628D01*
X41285714Y-90978628D02*
X41333333Y-90883390D01*
X59666667Y-88407200D02*
X59809524Y-88454819D01*
X59809524Y-88454819D02*
X60047619Y-88454819D01*
X60047619Y-88454819D02*
X60142857Y-88407200D01*
X60142857Y-88407200D02*
X60190476Y-88359580D01*
X60190476Y-88359580D02*
X60238095Y-88264342D01*
X60238095Y-88264342D02*
X60238095Y-88169104D01*
X60238095Y-88169104D02*
X60190476Y-88073866D01*
X60190476Y-88073866D02*
X60142857Y-88026247D01*
X60142857Y-88026247D02*
X60047619Y-87978628D01*
X60047619Y-87978628D02*
X59857143Y-87931009D01*
X59857143Y-87931009D02*
X59761905Y-87883390D01*
X59761905Y-87883390D02*
X59714286Y-87835771D01*
X59714286Y-87835771D02*
X59666667Y-87740533D01*
X59666667Y-87740533D02*
X59666667Y-87645295D01*
X59666667Y-87645295D02*
X59714286Y-87550057D01*
X59714286Y-87550057D02*
X59761905Y-87502438D01*
X59761905Y-87502438D02*
X59857143Y-87454819D01*
X59857143Y-87454819D02*
X60095238Y-87454819D01*
X60095238Y-87454819D02*
X60238095Y-87502438D01*
X60571429Y-87454819D02*
X60809524Y-88454819D01*
X60809524Y-88454819D02*
X61000000Y-87740533D01*
X61000000Y-87740533D02*
X61190476Y-88454819D01*
X61190476Y-88454819D02*
X61428572Y-87454819D01*
X62238095Y-87454819D02*
X62047619Y-87454819D01*
X62047619Y-87454819D02*
X61952381Y-87502438D01*
X61952381Y-87502438D02*
X61904762Y-87550057D01*
X61904762Y-87550057D02*
X61809524Y-87692914D01*
X61809524Y-87692914D02*
X61761905Y-87883390D01*
X61761905Y-87883390D02*
X61761905Y-88264342D01*
X61761905Y-88264342D02*
X61809524Y-88359580D01*
X61809524Y-88359580D02*
X61857143Y-88407200D01*
X61857143Y-88407200D02*
X61952381Y-88454819D01*
X61952381Y-88454819D02*
X62142857Y-88454819D01*
X62142857Y-88454819D02*
X62238095Y-88407200D01*
X62238095Y-88407200D02*
X62285714Y-88359580D01*
X62285714Y-88359580D02*
X62333333Y-88264342D01*
X62333333Y-88264342D02*
X62333333Y-88026247D01*
X62333333Y-88026247D02*
X62285714Y-87931009D01*
X62285714Y-87931009D02*
X62238095Y-87883390D01*
X62238095Y-87883390D02*
X62142857Y-87835771D01*
X62142857Y-87835771D02*
X61952381Y-87835771D01*
X61952381Y-87835771D02*
X61857143Y-87883390D01*
X61857143Y-87883390D02*
X61809524Y-87931009D01*
X61809524Y-87931009D02*
X61761905Y-88026247D01*
X2166666Y-43454819D02*
X2166666Y-44169104D01*
X2166666Y-44169104D02*
X2119047Y-44311961D01*
X2119047Y-44311961D02*
X2023809Y-44407200D01*
X2023809Y-44407200D02*
X1880952Y-44454819D01*
X1880952Y-44454819D02*
X1785714Y-44454819D01*
X2547619Y-43454819D02*
X3166666Y-43454819D01*
X3166666Y-43454819D02*
X2833333Y-43835771D01*
X2833333Y-43835771D02*
X2976190Y-43835771D01*
X2976190Y-43835771D02*
X3071428Y-43883390D01*
X3071428Y-43883390D02*
X3119047Y-43931009D01*
X3119047Y-43931009D02*
X3166666Y-44026247D01*
X3166666Y-44026247D02*
X3166666Y-44264342D01*
X3166666Y-44264342D02*
X3119047Y-44359580D01*
X3119047Y-44359580D02*
X3071428Y-44407200D01*
X3071428Y-44407200D02*
X2976190Y-44454819D01*
X2976190Y-44454819D02*
X2690476Y-44454819D01*
X2690476Y-44454819D02*
X2595238Y-44407200D01*
X2595238Y-44407200D02*
X2547619Y-44359580D01*
X17666667Y-64407200D02*
X17809524Y-64454819D01*
X17809524Y-64454819D02*
X18047619Y-64454819D01*
X18047619Y-64454819D02*
X18142857Y-64407200D01*
X18142857Y-64407200D02*
X18190476Y-64359580D01*
X18190476Y-64359580D02*
X18238095Y-64264342D01*
X18238095Y-64264342D02*
X18238095Y-64169104D01*
X18238095Y-64169104D02*
X18190476Y-64073866D01*
X18190476Y-64073866D02*
X18142857Y-64026247D01*
X18142857Y-64026247D02*
X18047619Y-63978628D01*
X18047619Y-63978628D02*
X17857143Y-63931009D01*
X17857143Y-63931009D02*
X17761905Y-63883390D01*
X17761905Y-63883390D02*
X17714286Y-63835771D01*
X17714286Y-63835771D02*
X17666667Y-63740533D01*
X17666667Y-63740533D02*
X17666667Y-63645295D01*
X17666667Y-63645295D02*
X17714286Y-63550057D01*
X17714286Y-63550057D02*
X17761905Y-63502438D01*
X17761905Y-63502438D02*
X17857143Y-63454819D01*
X17857143Y-63454819D02*
X18095238Y-63454819D01*
X18095238Y-63454819D02*
X18238095Y-63502438D01*
X18571429Y-63454819D02*
X18809524Y-64454819D01*
X18809524Y-64454819D02*
X19000000Y-63740533D01*
X19000000Y-63740533D02*
X19190476Y-64454819D01*
X19190476Y-64454819D02*
X19428572Y-63454819D01*
X20333333Y-64454819D02*
X19761905Y-64454819D01*
X20047619Y-64454819D02*
X20047619Y-63454819D01*
X20047619Y-63454819D02*
X19952381Y-63597676D01*
X19952381Y-63597676D02*
X19857143Y-63692914D01*
X19857143Y-63692914D02*
X19761905Y-63740533D01*
%TO.C,MOD1*%
D11*
X57000000Y-29250000D02*
X57000000Y-7750000D01*
X58000000Y-6750000D02*
X74000000Y-6750000D01*
X61670000Y-30250000D02*
X58000000Y-30250000D01*
X70610000Y-30250000D02*
X61670000Y-30250000D01*
X74000000Y-30250000D02*
X70610000Y-30250000D01*
X75000000Y-7750000D02*
X75000000Y-29250000D01*
X57000000Y-7750000D02*
G75*
G02*
X58000000Y-6750000I1000000J0D01*
G01*
X58000000Y-30250000D02*
G75*
G02*
X57000000Y-29250000I0J1000000D01*
G01*
X74000000Y-6750000D02*
G75*
G02*
X75000000Y-7750000I1J-999999D01*
G01*
X75000000Y-29250000D02*
G75*
G02*
X74000000Y-30250000I-999999J-1D01*
G01*
D12*
X75850000Y-28660000D02*
G75*
G02*
X75650000Y-28660000I-100000J0D01*
G01*
X75650000Y-28660000D02*
G75*
G02*
X75850000Y-28660000I100000J0D01*
G01*
%TO.C,SW5*%
D10*
X74750000Y-79000000D02*
G75*
G02*
X71250000Y-79000000I-1750000J0D01*
G01*
X71250000Y-79000000D02*
G75*
G02*
X74750000Y-79000000I1750000J0D01*
G01*
%TO.C,SW3*%
X8750000Y-79000000D02*
G75*
G02*
X5250000Y-79000000I-1750000J0D01*
G01*
X5250000Y-79000000D02*
G75*
G02*
X8750000Y-79000000I1750000J0D01*
G01*
%TO.C,SW8*%
X50750000Y-79000000D02*
G75*
G02*
X47250000Y-79000000I-1750000J0D01*
G01*
X47250000Y-79000000D02*
G75*
G02*
X50750000Y-79000000I1750000J0D01*
G01*
%TO.C,SW7*%
X62750000Y-67000000D02*
G75*
G02*
X59250000Y-67000000I-1750000J0D01*
G01*
X59250000Y-67000000D02*
G75*
G02*
X62750000Y-67000000I1750000J0D01*
G01*
%TO.C,D1*%
D13*
X5435000Y-10455000D02*
X5435000Y-13545000D01*
X5435000Y-10455170D02*
G75*
G02*
X10985000Y-12000000I2560000J-1544830D01*
G01*
X10985000Y-12000000D02*
G75*
G02*
X5435000Y-13544830I-2990000J0D01*
G01*
X10495000Y-12000000D02*
G75*
G02*
X5495000Y-12000000I-2500000J0D01*
G01*
X5495000Y-12000000D02*
G75*
G02*
X10495000Y-12000000I2500000J0D01*
G01*
%TO.C,SW4*%
D10*
X32750000Y-79000000D02*
G75*
G02*
X29250000Y-79000000I-1750000J0D01*
G01*
X29250000Y-79000000D02*
G75*
G02*
X32750000Y-79000000I1750000J0D01*
G01*
%TO.C,SW2*%
X20750000Y-91000000D02*
G75*
G02*
X17250000Y-91000000I-1750000J0D01*
G01*
X17250000Y-91000000D02*
G75*
G02*
X20750000Y-91000000I1750000J0D01*
G01*
%TO.C,SW9*%
X41750000Y-94000000D02*
G75*
G02*
X38250000Y-94000000I-1750000J0D01*
G01*
X38250000Y-94000000D02*
G75*
G02*
X41750000Y-94000000I1750000J0D01*
G01*
%TO.C,SW6*%
X62750000Y-91000000D02*
G75*
G02*
X59250000Y-91000000I-1750000J0D01*
G01*
X59250000Y-91000000D02*
G75*
G02*
X62750000Y-91000000I1750000J0D01*
G01*
%TO.C,SW1*%
X20750000Y-67000000D02*
G75*
G02*
X17250000Y-67000000I-1750000J0D01*
G01*
X17250000Y-67000000D02*
G75*
G02*
X20750000Y-67000000I1750000J0D01*
G01*
%TD*%
%LPC*%
D14*
%TO.C,MOD1*%
X73620000Y-23580000D03*
X73620000Y-21040000D03*
X73620000Y-18500000D03*
X58380000Y-23580000D03*
X73620000Y-15960000D03*
X73620000Y-13420000D03*
D15*
X58380000Y-28660000D03*
D14*
X73620000Y-10880000D03*
X73620000Y-8340000D03*
X58380000Y-8340000D03*
X58380000Y-10880000D03*
X58380000Y-13420000D03*
X58380000Y-15960000D03*
X58380000Y-18500000D03*
X58380000Y-21000000D03*
X58380000Y-26120000D03*
X73620000Y-26120000D03*
X73620000Y-28660000D03*
%TD*%
D16*
%TO.C,SW5*%
X69000000Y-76750000D03*
D17*
X77000000Y-76750000D03*
X69000000Y-81250000D03*
X77000000Y-81250000D03*
%TD*%
D16*
%TO.C,SW3*%
X3000000Y-76750000D03*
D17*
X11000000Y-76750000D03*
X3000000Y-81250000D03*
X11000000Y-81250000D03*
%TD*%
D16*
%TO.C,SW8*%
X45000000Y-76750000D03*
D17*
X53000000Y-76750000D03*
X45000000Y-81250000D03*
X53000000Y-81250000D03*
%TD*%
D16*
%TO.C,SW7*%
X57000000Y-64750000D03*
D17*
X65000000Y-64750000D03*
X57000000Y-69250000D03*
X65000000Y-69250000D03*
%TD*%
D16*
%TO.C,U2*%
X20550000Y-11000000D03*
D17*
X18010000Y-11000000D03*
X15470000Y-11000000D03*
%TD*%
D18*
%TO.C,D1*%
X6725000Y-12000000D03*
D19*
X9265000Y-12000000D03*
%TD*%
D20*
%TO.C,J2*%
X30110000Y-11000000D03*
D21*
X32650000Y-11000000D03*
X35190000Y-11000000D03*
X37730000Y-11000000D03*
X40270000Y-11000000D03*
X42810000Y-11000000D03*
X45350000Y-11000000D03*
X47890000Y-11000000D03*
%TD*%
D16*
%TO.C,SW4*%
X27000000Y-76750000D03*
D17*
X35000000Y-76750000D03*
X27000000Y-81250000D03*
X35000000Y-81250000D03*
%TD*%
D16*
%TO.C,SW2*%
X15000000Y-88750000D03*
D17*
X23000000Y-88750000D03*
X15000000Y-93250000D03*
X23000000Y-93250000D03*
%TD*%
D16*
%TO.C,SW9*%
X36000000Y-91750000D03*
D17*
X44000000Y-91750000D03*
X36000000Y-96250000D03*
X44000000Y-96250000D03*
%TD*%
D16*
%TO.C,SW6*%
X57000000Y-88750000D03*
D17*
X65000000Y-88750000D03*
X57000000Y-93250000D03*
X65000000Y-93250000D03*
%TD*%
D20*
%TO.C,J3*%
X5000000Y-37650000D03*
D21*
X5000000Y-40190000D03*
X5000000Y-42730000D03*
X5000000Y-45270000D03*
X5000000Y-47810000D03*
X5000000Y-50350000D03*
%TD*%
D16*
%TO.C,SW1*%
X15000000Y-64750000D03*
D17*
X23000000Y-64750000D03*
X15000000Y-69250000D03*
X23000000Y-69250000D03*
%TD*%
D22*
%TO.C,R38*%
X33920000Y-31500000D03*
X44080000Y-31500000D03*
%TD*%
D23*
%TO.C,C2*%
X59000000Y-54270000D03*
D24*
X59000000Y-51730000D03*
%TD*%
D25*
%TO.C,Q2*%
X35960000Y-16140000D03*
D26*
X38500000Y-16140000D03*
X41040000Y-16140000D03*
%TD*%
D27*
%TO.C,C17*%
X61500000Y-42500000D03*
D22*
X59500000Y-42500000D03*
%TD*%
D23*
%TO.C,C22*%
X43000000Y-37270000D03*
D24*
X43000000Y-34730000D03*
%TD*%
D22*
%TO.C,R22*%
X36080000Y-69000000D03*
X25920000Y-69000000D03*
%TD*%
D25*
%TO.C,Q4*%
X57460000Y-36640000D03*
D26*
X60000000Y-36640000D03*
X62540000Y-36640000D03*
%TD*%
D28*
%TO.C,C21*%
X47500000Y-45000000D03*
D22*
X47500000Y-43000000D03*
%TD*%
D23*
%TO.C,C18*%
X53770000Y-54000000D03*
D24*
X51230000Y-54000000D03*
%TD*%
D22*
%TO.C,R36*%
X21420000Y-26500000D03*
X31580000Y-26500000D03*
%TD*%
%TO.C,R30*%
X54500000Y-27420000D03*
X54500000Y-37580000D03*
%TD*%
D23*
%TO.C,C8*%
X7270000Y-22500000D03*
D24*
X4730000Y-22500000D03*
%TD*%
D22*
%TO.C,R10*%
X22080000Y-55000000D03*
X11920000Y-55000000D03*
%TD*%
D25*
%TO.C,Q6*%
X30640000Y-57540000D03*
D26*
X30640000Y-55000000D03*
X30640000Y-52460000D03*
%TD*%
D22*
%TO.C,R35*%
X29420000Y-35000000D03*
X39580000Y-35000000D03*
%TD*%
D28*
%TO.C,C15*%
X17000000Y-5000000D03*
D22*
X17000000Y-3000000D03*
%TD*%
%TO.C,R7*%
X11000000Y-95080000D03*
X11000000Y-84920000D03*
%TD*%
%TO.C,R5*%
X13920000Y-84000000D03*
X24080000Y-84000000D03*
%TD*%
%TO.C,R8*%
X41500000Y-85580000D03*
X41500000Y-75420000D03*
%TD*%
%TO.C,R33*%
X45920000Y-48500000D03*
X56080000Y-48500000D03*
%TD*%
D29*
%TO.C,U3*%
X35190000Y-47810000D03*
D30*
X35190000Y-45270000D03*
X35190000Y-42730000D03*
X35190000Y-40190000D03*
X42810000Y-40190000D03*
X42810000Y-42730000D03*
X42810000Y-45270000D03*
X42810000Y-47810000D03*
%TD*%
D22*
%TO.C,R26*%
X54000000Y-70580000D03*
X54000000Y-60420000D03*
%TD*%
%TO.C,R39*%
X44080000Y-28000000D03*
X33920000Y-28000000D03*
%TD*%
D31*
%TO.C,J1*%
X64250000Y-52525000D03*
D32*
X66750000Y-52525000D03*
X69250000Y-52525000D03*
X71750000Y-52525000D03*
%TD*%
D25*
%TO.C,Q1*%
X26040000Y-4860000D03*
D26*
X23500000Y-4860000D03*
X20960000Y-4860000D03*
%TD*%
D22*
%TO.C,R16*%
X49080000Y-7500000D03*
X38920000Y-7500000D03*
%TD*%
D33*
%TO.C,J4*%
X74450000Y-39000000D03*
D34*
X74450000Y-37000000D03*
%TD*%
D27*
%TO.C,C25*%
X31500000Y-48500000D03*
D22*
X29500000Y-48500000D03*
%TD*%
%TO.C,R4*%
X24080000Y-80500000D03*
X13920000Y-80500000D03*
%TD*%
D35*
%TO.C,D2*%
X65500000Y-43580000D03*
D36*
X65500000Y-33420000D03*
%TD*%
D23*
%TO.C,C10*%
X5000000Y-28270000D03*
D24*
X5000000Y-25730000D03*
%TD*%
D23*
%TO.C,C16*%
X75770000Y-43500000D03*
D24*
X73230000Y-43500000D03*
%TD*%
D22*
%TO.C,R28*%
X32920000Y-21000000D03*
X43080000Y-21000000D03*
%TD*%
D23*
%TO.C,C7*%
X21500000Y-23270000D03*
D24*
X21500000Y-20730000D03*
%TD*%
D23*
%TO.C,C23*%
X35500000Y-50730000D03*
D24*
X35500000Y-53270000D03*
%TD*%
D22*
%TO.C,R14*%
X53580000Y-14500000D03*
X43420000Y-14500000D03*
%TD*%
%TO.C,R18*%
X5500000Y-63580000D03*
X5500000Y-53420000D03*
%TD*%
D28*
%TO.C,C13*%
X32500000Y-7000000D03*
D22*
X32500000Y-5000000D03*
%TD*%
D28*
%TO.C,C11*%
X5000000Y-33500000D03*
D22*
X5000000Y-31500000D03*
%TD*%
D23*
%TO.C,C6*%
X53730000Y-45000000D03*
D24*
X56270000Y-45000000D03*
%TD*%
D22*
%TO.C,R24*%
X24080000Y-73500000D03*
X13920000Y-73500000D03*
%TD*%
D23*
%TO.C,C14*%
X12000000Y-7270000D03*
D24*
X12000000Y-4730000D03*
%TD*%
D22*
%TO.C,R6*%
X27000000Y-95080000D03*
X27000000Y-84920000D03*
%TD*%
%TO.C,R20*%
X77000000Y-21420000D03*
X77000000Y-31580000D03*
%TD*%
%TO.C,R32*%
X43000000Y-61080000D03*
X43000000Y-50920000D03*
%TD*%
%TO.C,R2*%
X25000000Y-57080000D03*
X25000000Y-46920000D03*
%TD*%
D37*
%TO.C,C3*%
X70000000Y-57500000D03*
D22*
X70000000Y-59500000D03*
%TD*%
D37*
%TO.C,C5*%
X70000000Y-63500000D03*
D22*
X70000000Y-65500000D03*
%TD*%
%TO.C,R17*%
X47080000Y-4000000D03*
X36920000Y-4000000D03*
%TD*%
D23*
%TO.C,C19*%
X46500000Y-54270000D03*
D24*
X46500000Y-51730000D03*
%TD*%
D22*
%TO.C,R3*%
X24080000Y-77000000D03*
X13920000Y-77000000D03*
%TD*%
D23*
%TO.C,C24*%
X32270000Y-38500000D03*
D24*
X29730000Y-38500000D03*
%TD*%
D22*
%TO.C,R1*%
X3000000Y-8920000D03*
X3000000Y-19080000D03*
%TD*%
%TO.C,R9*%
X55920000Y-74000000D03*
X66080000Y-74000000D03*
%TD*%
%TO.C,R12*%
X32420000Y-72500000D03*
X42580000Y-72500000D03*
%TD*%
D29*
%TO.C,U1*%
X10190000Y-51510000D03*
D30*
X10190000Y-48970000D03*
X10190000Y-46430000D03*
X10190000Y-43890000D03*
X10190000Y-41350000D03*
X10190000Y-38810000D03*
X10190000Y-36270000D03*
X10190000Y-33730000D03*
X10190000Y-31190000D03*
X10190000Y-28650000D03*
X10190000Y-26110000D03*
X10190000Y-23570000D03*
X10190000Y-21030000D03*
X10190000Y-18490000D03*
X17810000Y-18490000D03*
X17810000Y-21030000D03*
X17810000Y-23570000D03*
X17810000Y-26110000D03*
X17810000Y-28650000D03*
X17810000Y-31190000D03*
X17810000Y-33730000D03*
X17810000Y-36270000D03*
X17810000Y-38810000D03*
X17810000Y-41350000D03*
X17810000Y-43890000D03*
X17810000Y-46430000D03*
X17810000Y-48970000D03*
X17810000Y-51510000D03*
%TD*%
D22*
%TO.C,R11*%
X9000000Y-64580000D03*
X9000000Y-54420000D03*
%TD*%
D37*
%TO.C,C1*%
X64000000Y-57500000D03*
D22*
X64000000Y-59500000D03*
%TD*%
D25*
%TO.C,Q5*%
X47140000Y-40040000D03*
D26*
X47140000Y-37500000D03*
X47140000Y-34960000D03*
%TD*%
D22*
%TO.C,R13*%
X38000000Y-77420000D03*
X38000000Y-87580000D03*
%TD*%
D38*
%TO.C,C9*%
X21500000Y-31000000D03*
D22*
X23500000Y-31000000D03*
%TD*%
%TO.C,R31*%
X56080000Y-57500000D03*
X45920000Y-57500000D03*
%TD*%
%TO.C,R15*%
X51000000Y-27580000D03*
X51000000Y-17420000D03*
%TD*%
D23*
%TO.C,C12*%
X32500000Y-14230000D03*
D24*
X32500000Y-16770000D03*
%TD*%
D25*
%TO.C,Q3*%
X25460000Y-20140000D03*
D26*
X28000000Y-20140000D03*
X30540000Y-20140000D03*
%TD*%
D23*
%TO.C,C26*%
X31500000Y-44270000D03*
D24*
X31500000Y-41730000D03*
%TD*%
D23*
%TO.C,C20*%
X39500000Y-55730000D03*
D24*
X39500000Y-58270000D03*
%TD*%
D22*
%TO.C,R27*%
X26080000Y-15000000D03*
X15920000Y-15000000D03*
%TD*%
%TO.C,R29*%
X47000000Y-22420000D03*
X47000000Y-32580000D03*
%TD*%
D33*
%TO.C,J5*%
X26450000Y-43000000D03*
D34*
X26450000Y-41000000D03*
%TD*%
D22*
%TO.C,R21*%
X22420000Y-60500000D03*
X32580000Y-60500000D03*
%TD*%
%TO.C,R25*%
X51080000Y-67500000D03*
X40920000Y-67500000D03*
%TD*%
%TO.C,R37*%
X33920000Y-24500000D03*
X44080000Y-24500000D03*
%TD*%
%TO.C,R19*%
X77000000Y-8920000D03*
X77000000Y-19080000D03*
%TD*%
%TO.C,R23*%
X38420000Y-64000000D03*
X48580000Y-64000000D03*
%TD*%
%TO.C,R34*%
X35500000Y-55920000D03*
X35500000Y-66080000D03*
%TD*%
D23*
%TO.C,C4*%
X69500000Y-47270000D03*
D24*
X69500000Y-44730000D03*
%TD*%
%LPD*%
M02*
