%TF.GenerationSoftware,KiCad,Pcbnew,10.0.6*%
%TF.CreationDate,2026-09-11T22:39:02-05:00*%
%TF.ProjectId,KK_power_module,4b4b5f70-6f77-4657-925f-6d6f64756c65,rev?*%
%TF.SameCoordinates,Original*%
%TF.FileFunction,Copper,L3,Inr*%
%TF.FilePolarity,Positive*%
%FSLAX46Y46*%
G04 Gerber Fmt 4.6, Leading zero omitted, Abs format (unit mm)*
G04 Created by KiCad (PCBNEW 10.0.6) date 2026-09-11 22:39:02*
%MOMM*%
%LPD*%
G01*
G04 APERTURE LIST*
G04 Aperture macros list*
%AMRoundRect*
0 Rectangle with rounded corners*
0 $1 Rounding radius*
0 $2 $3 $4 $5 $6 $7 $8 $9 X,Y pos of 4 corners*
0 Add a 4 corners polygon primitive as box body*
4,1,4,$2,$3,$4,$5,$6,$7,$8,$9,$2,$3,0*
0 Add four circle primitives for the rounded corners*
1,1,$1+$1,$2,$3*
1,1,$1+$1,$4,$5*
1,1,$1+$1,$6,$7*
1,1,$1+$1,$8,$9*
0 Add four rect primitives between the rounded corners*
20,1,$1+$1,$2,$3,$4,$5,0*
20,1,$1+$1,$4,$5,$6,$7,0*
20,1,$1+$1,$6,$7,$8,$9,0*
20,1,$1+$1,$8,$9,$2,$3,0*%
G04 Aperture macros list end*
%TA.AperFunction,ComponentPad*%
%ADD10RoundRect,0.250000X0.350000X0.625000X-0.350000X0.625000X-0.350000X-0.625000X0.350000X-0.625000X0*%
%TD*%
%TA.AperFunction,ComponentPad*%
%ADD11O,1.200000X1.750000*%
%TD*%
%TA.AperFunction,ComponentPad*%
%ADD12O,1.000000X2.100000*%
%TD*%
%TA.AperFunction,ComponentPad*%
%ADD13O,1.000000X1.600000*%
%TD*%
%TA.AperFunction,ComponentPad*%
%ADD14RoundRect,0.250001X1.099999X1.099999X-1.099999X1.099999X-1.099999X-1.099999X1.099999X-1.099999X0*%
%TD*%
%TA.AperFunction,ComponentPad*%
%ADD15C,2.700000*%
%TD*%
%TA.AperFunction,ComponentPad*%
%ADD16RoundRect,0.250000X0.600000X0.725000X-0.600000X0.725000X-0.600000X-0.725000X0.600000X-0.725000X0*%
%TD*%
%TA.AperFunction,ComponentPad*%
%ADD17O,1.700000X1.950000*%
%TD*%
%TA.AperFunction,ViaPad*%
%ADD18C,0.500000*%
%TD*%
%TA.AperFunction,ViaPad*%
%ADD19C,0.600000*%
%TD*%
%TA.AperFunction,Conductor*%
%ADD20C,0.150000*%
%TD*%
%TA.AperFunction,Conductor*%
%ADD21C,1.500000*%
%TD*%
%TA.AperFunction,Conductor*%
%ADD22C,1.200000*%
%TD*%
G04 APERTURE END LIST*
D10*
%TO.N,/NTC*%
%TO.C,J4*%
X23000000Y-44550000D03*
D11*
%TO.N,/GND*%
X21000000Y-44550000D03*
%TD*%
D12*
%TO.N,/GND*%
%TO.C,J1*%
X16320000Y-6445000D03*
D13*
X16320000Y-2265000D03*
D12*
X7680000Y-6445000D03*
D13*
X7680000Y-2265000D03*
%TD*%
D14*
%TO.N,/CELL_PLUS*%
%TO.C,J2*%
X12480000Y-43050000D03*
D15*
%TO.N,/BAT_NEG*%
X8520000Y-43050000D03*
%TD*%
D16*
%TO.N,/MCU_5V*%
%TO.C,J3*%
X39250000Y-44525000D03*
D17*
%TO.N,/GND*%
X36750000Y-44525000D03*
%TO.N,/LOGIC_3V3*%
X34250000Y-44525000D03*
%TO.N,/ACT_3V2*%
X31750000Y-44525000D03*
%TD*%
D18*
%TO.N,/VOLTAGES_OK*%
X17000000Y-39000000D03*
X38500000Y-37500000D03*
%TO.N,/GND*%
X17299999Y-9599999D03*
D19*
X43600000Y-18350000D03*
D18*
X27699999Y-36899999D03*
X3945000Y-36450000D03*
X37225000Y-27600000D03*
X23400000Y-23000000D03*
X7225000Y-27600000D03*
D19*
X41400000Y-18350000D03*
D18*
X11500000Y-26875000D03*
X37325000Y-29200000D03*
X37599999Y-30999999D03*
X8944999Y-36450000D03*
X41600000Y-30200000D03*
X29899999Y-35299999D03*
X9545000Y-36450000D03*
X7600000Y-23000000D03*
X17999999Y-32199999D03*
X40400000Y-31400000D03*
X14545000Y-36450000D03*
D19*
X15800000Y-18350000D03*
D18*
X31099999Y-29499999D03*
D19*
X30800000Y-18350000D03*
D18*
X36000000Y-11000000D03*
D19*
X28600000Y-18350000D03*
X4250000Y-9000000D03*
D18*
X22999999Y-9799999D03*
X22800000Y-6000000D03*
X12099999Y-13299999D03*
X27000000Y-33000000D03*
D19*
X31699999Y-22500000D03*
D18*
X13944999Y-36450000D03*
D19*
X16700000Y-20000000D03*
D18*
X27600000Y-7000000D03*
D19*
X1550000Y-20000000D03*
D18*
X40800000Y-36950000D03*
D19*
X45800000Y-18350000D03*
D18*
X26500000Y-26875000D03*
X37600000Y-23000000D03*
X22600000Y-23000000D03*
X40400000Y-30200000D03*
X4545000Y-36450000D03*
X23799999Y-35699999D03*
X38400000Y-23000000D03*
D19*
X11400000Y-18350000D03*
X16700000Y-22500000D03*
D18*
X33399999Y-12999999D03*
D19*
X1550000Y-22500000D03*
X26400000Y-18350000D03*
D18*
X28400000Y-7000000D03*
X20999999Y-32899999D03*
X41500000Y-26875000D03*
X39299999Y-35699999D03*
X22225000Y-27600000D03*
D19*
X3250000Y-9000000D03*
D18*
X41299999Y-9700000D03*
X41600000Y-31400000D03*
D19*
X31699999Y-20000000D03*
D18*
X16149999Y-25825000D03*
X46150000Y-25825000D03*
X21600000Y-9750000D03*
X10999999Y-10399999D03*
X29799999Y-4099999D03*
X31150000Y-25825000D03*
D19*
X13600000Y-18350000D03*
D18*
X25999999Y-11200000D03*
X8400000Y-23000000D03*
%TO.N,/RAILS_EN*%
X30600000Y-35900000D03*
X31100000Y-33500000D03*
X44400000Y-36300000D03*
X31100000Y-36000000D03*
X29200000Y-31500000D03*
X24400000Y-33600000D03*
X43600000Y-36700000D03*
%TO.N,/REG_3V3*%
X38700000Y-29200000D03*
X25900000Y-32100000D03*
X24900000Y-32100000D03*
X27000000Y-33700000D03*
X28300000Y-27300000D03*
X30800000Y-22800000D03*
X44200000Y-33700000D03*
X18900000Y-34300000D03*
%TO.N,/REG_3V2*%
X17500000Y-33900000D03*
X35500000Y-42400000D03*
X45800000Y-22800000D03*
X46500000Y-35300000D03*
X43300000Y-27300000D03*
D19*
X44800000Y-22200000D03*
D18*
X40100000Y-22500000D03*
D19*
X34500000Y-27900000D03*
D18*
X35000000Y-27600000D03*
X18500000Y-34900000D03*
%TO.N,/CC_3V3*%
X10200000Y-13200000D03*
X10100000Y-13700000D03*
X14300000Y-9200000D03*
X10800000Y-9400000D03*
X16700000Y-9100000D03*
%TO.N,/CC_DEFAULT_N*%
X31900000Y-31400000D03*
X15000000Y-13100000D03*
D19*
%TO.N,/SYS_SW*%
X4700000Y-18800000D03*
X38200000Y-14000000D03*
X34700000Y-18800000D03*
X4700000Y-17800000D03*
X19700000Y-18800000D03*
D18*
X35100000Y-25200000D03*
X34200000Y-22900000D03*
D19*
X39200000Y-13000000D03*
X38200000Y-13000000D03*
X19700000Y-17800000D03*
X39200000Y-14000000D03*
D18*
X20900000Y-24500000D03*
D19*
X34700000Y-17800000D03*
D18*
X35700000Y-28200000D03*
%TO.N,/REG_ENABLE*%
X19200000Y-23600000D03*
X35300000Y-23600000D03*
X37500000Y-20500000D03*
X37600000Y-15600000D03*
X24200000Y-24600000D03*
X34200000Y-23600000D03*
X21400000Y-23100000D03*
X37800000Y-5700000D03*
X6600000Y-23100000D03*
X16800000Y-20800000D03*
%TO.N,/PG_ALL*%
X35800000Y-30700000D03*
X38000000Y-25900000D03*
X39400000Y-27700000D03*
X26100000Y-30100000D03*
X19200000Y-30200000D03*
X21100000Y-28600000D03*
X34500000Y-30700000D03*
%TO.N,/RUN_CTL*%
X34600000Y-14100000D03*
X35900000Y-6600000D03*
X39300000Y-28900000D03*
X34700000Y-15300000D03*
X38200000Y-30100000D03*
X37900000Y-27900000D03*
X36300000Y-24800000D03*
%TO.N,/USB_HIGH_CURRENT*%
X39300000Y-5200000D03*
X20600000Y-12600000D03*
X28700000Y-12900000D03*
X27500000Y-11200000D03*
X20500000Y-13800000D03*
X27000000Y-9100000D03*
X27500000Y-9300000D03*
%TO.N,/BAT_NEG*%
X12600000Y-31000000D03*
X4545000Y-34550000D03*
X14545000Y-34550000D03*
X13944999Y-34550000D03*
X11100000Y-29200000D03*
X3945000Y-34550000D03*
X8944999Y-34550000D03*
X9545000Y-34550000D03*
D19*
%TO.N,/CELL_PLUS*%
X11650000Y-30200000D03*
X11049999Y-30800000D03*
X11650000Y-30800000D03*
X11049999Y-30200000D03*
D18*
%TO.N,/VBAT*%
X25450000Y-6250000D03*
D19*
X14450000Y-30800000D03*
X13850000Y-30200000D03*
X13850000Y-30800000D03*
D18*
X24800000Y-9450000D03*
X24200000Y-9450000D03*
D19*
X14450000Y-30200000D03*
D18*
X25700000Y-7000000D03*
%TO.N,/NTC*%
X22000000Y-41000000D03*
X24450000Y-6600000D03*
X35000000Y-2300000D03*
D19*
%TO.N,/VBUS*%
X3250000Y-13000000D03*
X9600000Y-8199999D03*
D18*
X22000000Y-4500000D03*
X18400000Y-8100000D03*
D19*
X4250000Y-13000000D03*
D18*
X16800000Y-11000000D03*
D19*
X14400000Y-8199999D03*
D18*
%TO.N,/VBUS_DET*%
X10800000Y-12400000D03*
X15500000Y-11100000D03*
%TO.N,/USB_PORT_ILIM*%
X20000000Y-12300000D03*
X18700000Y-4800000D03*
X35300000Y-24300000D03*
X42600000Y-32500000D03*
X19200000Y-11400000D03*
%TO.N,/SYS_RAW*%
X42300000Y-28000000D03*
X37100000Y-16100000D03*
X42300000Y-23600000D03*
X32700000Y-12000000D03*
X34250000Y-11500000D03*
X30900000Y-14700000D03*
X43800000Y-30500000D03*
X31200000Y-7950000D03*
X31800000Y-7950000D03*
X34600000Y-12200000D03*
%TO.N,/PROTECT_CS*%
X7300000Y-29300000D03*
X7000000Y-31300000D03*
%TO.N,/REG_5V*%
X16300000Y-24200000D03*
X13300000Y-27300000D03*
X15800000Y-22800000D03*
%TO.N,/SENSE_5V*%
X40000000Y-34000000D03*
X42250000Y-34000000D03*
%TO.N,/EF_ILIM*%
X36300000Y-16100000D03*
X39400000Y-10300000D03*
X35800000Y-20700000D03*
%TO.N,/SENSE_3V3*%
X38600000Y-35700000D03*
X43800000Y-31400000D03*
X41500000Y-33800000D03*
X45700000Y-29500000D03*
%TO.N,/USB_CHG*%
X24900000Y-10400000D03*
X27750000Y-3500000D03*
X24400000Y-4500000D03*
X26800000Y-11100000D03*
D19*
X25200000Y-4500000D03*
D18*
X28350000Y-3500000D03*
X36600000Y-32100000D03*
%TO.N,/LOGIC_3V3*%
X19500000Y-30800000D03*
X19500000Y-32000000D03*
X28200000Y-30900000D03*
X19800000Y-33500000D03*
%TO.N,/U9_QOD*%
X28200000Y-38600000D03*
X28500000Y-34700000D03*
X25100000Y-38800000D03*
X28200000Y-33200000D03*
%TO.N,/LED1_K*%
X30600000Y-15700000D03*
X30700000Y-12100000D03*
%TO.N,/PGOOD_N*%
X6100000Y-37800000D03*
X27400000Y-13200000D03*
X29000000Y-12300000D03*
%TO.N,/ACT_3V2*%
X30300000Y-45700000D03*
D19*
X33400000Y-40800000D03*
D18*
X31500000Y-40300000D03*
%TO.N,/U10_QOD*%
X33000000Y-34600000D03*
X31400000Y-38200000D03*
%TO.N,/USB_LIMIT_FAULT_N*%
X25100000Y-3500000D03*
X43000000Y-25000000D03*
%TO.N,/U8_CT*%
X23800000Y-34900000D03*
X26100000Y-37400000D03*
%TO.N,/SENSE_3V2*%
X40750000Y-34000000D03*
X36300000Y-31200000D03*
X45700000Y-34000000D03*
%TO.N,/U10_CT*%
X30300000Y-36700000D03*
X32900000Y-33500000D03*
%TO.N,/EF_SLEW*%
X32900000Y-11000000D03*
X36500000Y-9700000D03*
%TO.N,/EF_UVLO*%
X33300000Y-23600000D03*
%TO.N,/EF_FAULT_N*%
X37500000Y-11300000D03*
X35100000Y-13400000D03*
X44000000Y-40000000D03*
D19*
%TO.N,/MCU_5V*%
X24600000Y-32800000D03*
D18*
X21900000Y-35000000D03*
X22600000Y-37000000D03*
X21700000Y-31400000D03*
%TO.N,/PROTECT_VCC*%
X10100000Y-31900000D03*
X15000000Y-31900000D03*
%TO.N,/CHARGE_N*%
X30100000Y-22500000D03*
X30500000Y-11300000D03*
X17800000Y-35000000D03*
X22000000Y-30300000D03*
%TO.N,/CHG_ILIM*%
X28400000Y-11200000D03*
X29400000Y-6200000D03*
%TO.N,/LED2_K*%
X24000000Y-13100000D03*
X31500000Y-4800000D03*
%TD*%
%TO.N,/VOLTAGES_OK*%
D20*
X20500000Y-40300000D02*
X20400000Y-40300000D01*
X24900000Y-40300000D02*
X24800000Y-40400000D01*
X19600000Y-40000000D02*
X19500000Y-39900000D01*
X19300000Y-39800000D02*
X19100000Y-39800000D01*
X24200000Y-40600000D02*
X24100000Y-40700000D01*
X19800000Y-40000000D02*
X19600000Y-40000000D01*
X22800000Y-41100000D02*
X22700000Y-41200000D01*
X24500000Y-40500000D02*
X24400000Y-40600000D01*
X24400000Y-40600000D02*
X24200000Y-40600000D01*
X17100000Y-39000000D02*
X17000000Y-39000000D01*
X25000000Y-40300000D02*
X24900000Y-40300000D01*
X23800000Y-40800000D02*
X23600000Y-40800000D01*
X18200000Y-39400000D02*
X18000000Y-39400000D01*
X23500000Y-40900000D02*
X23400000Y-40900000D01*
X20200000Y-40200000D02*
X20100000Y-40100000D01*
X17400000Y-39100000D02*
X17200000Y-39100000D01*
X18000000Y-39400000D02*
X17900000Y-39300000D01*
X20400000Y-40300000D02*
X20300000Y-40200000D01*
X19900000Y-40100000D02*
X19800000Y-40000000D01*
X17700000Y-39300000D02*
X17600000Y-39200000D01*
X24100000Y-40700000D02*
X23900000Y-40700000D01*
X38500000Y-37500000D02*
X27800000Y-37500000D01*
X20300000Y-40200000D02*
X20200000Y-40200000D01*
X18500000Y-39600000D02*
X18400000Y-39500000D01*
X21700000Y-41500000D02*
X20500000Y-40300000D01*
X18300000Y-39500000D02*
X18200000Y-39400000D01*
X19500000Y-39900000D02*
X19400000Y-39900000D01*
X18800000Y-39700000D02*
X18700000Y-39600000D01*
X23100000Y-41000000D02*
X23000000Y-41100000D01*
X18400000Y-39500000D02*
X18300000Y-39500000D01*
X24700000Y-40400000D02*
X24600000Y-40500000D01*
X24800000Y-40400000D02*
X24700000Y-40400000D01*
X18700000Y-39600000D02*
X18500000Y-39600000D01*
X20100000Y-40100000D02*
X19900000Y-40100000D01*
X24600000Y-40500000D02*
X24500000Y-40500000D01*
X27800000Y-37500000D02*
X25000000Y-40300000D01*
X22300000Y-41500000D02*
X21700000Y-41500000D01*
X19400000Y-39900000D02*
X19300000Y-39800000D01*
X17900000Y-39300000D02*
X17700000Y-39300000D01*
X17600000Y-39200000D02*
X17500000Y-39200000D01*
X19100000Y-39800000D02*
X19000000Y-39700000D01*
X23400000Y-40900000D02*
X23300000Y-41000000D01*
X23900000Y-40700000D02*
X23800000Y-40800000D01*
X22700000Y-41200000D02*
X22600000Y-41200000D01*
X19000000Y-39700000D02*
X18800000Y-39700000D01*
X23300000Y-41000000D02*
X23100000Y-41000000D01*
X23000000Y-41100000D02*
X22800000Y-41100000D01*
X22600000Y-41200000D02*
X22300000Y-41500000D01*
X17500000Y-39200000D02*
X17400000Y-39100000D01*
X23600000Y-40800000D02*
X23500000Y-40900000D01*
X17200000Y-39100000D02*
X17100000Y-39000000D01*
%TO.N,/REG_3V3*%
X21200000Y-33800000D02*
X21300000Y-33700000D01*
X22300000Y-33400000D02*
X22400000Y-33300000D01*
X23600000Y-32900000D02*
X24200000Y-32300000D01*
X20600000Y-34000000D02*
X20700000Y-33900000D01*
X24200000Y-32300000D02*
X24300000Y-32300000D01*
X24400000Y-32200000D02*
X24800000Y-32200000D01*
X21700000Y-33600000D02*
X21800000Y-33500000D01*
X20400000Y-34100000D02*
X20500000Y-34000000D01*
X20100000Y-34200000D02*
X20200000Y-34100000D01*
X21500000Y-33700000D02*
X21600000Y-33600000D01*
X22900000Y-33100000D02*
X23100000Y-33100000D01*
X22400000Y-33300000D02*
X22600000Y-33300000D01*
X23400000Y-33000000D02*
X23500000Y-32900000D01*
X20700000Y-33900000D02*
X20900000Y-33900000D01*
X21800000Y-33500000D02*
X22000000Y-33500000D01*
X22100000Y-33400000D02*
X22300000Y-33400000D01*
X22800000Y-33200000D02*
X22900000Y-33100000D01*
X22700000Y-33200000D02*
X22800000Y-33200000D01*
X21000000Y-33800000D02*
X21200000Y-33800000D01*
X21300000Y-33700000D02*
X21500000Y-33700000D01*
X24300000Y-32300000D02*
X24400000Y-32200000D01*
X19800000Y-34300000D02*
X19900000Y-34200000D01*
X19900000Y-34200000D02*
X20100000Y-34200000D01*
X22000000Y-33500000D02*
X22100000Y-33400000D01*
X21600000Y-33600000D02*
X21700000Y-33600000D01*
X18900000Y-34300000D02*
X19800000Y-34300000D01*
X20500000Y-34000000D02*
X20600000Y-34000000D01*
X23500000Y-32900000D02*
X23600000Y-32900000D01*
X23200000Y-33000000D02*
X23400000Y-33000000D01*
X23100000Y-33100000D02*
X23200000Y-33000000D01*
X24800000Y-32200000D02*
X24900000Y-32100000D01*
X22600000Y-33300000D02*
X22700000Y-33200000D01*
X20200000Y-34100000D02*
X20400000Y-34100000D01*
X20900000Y-33900000D02*
X21000000Y-33800000D01*
%TO.N,/CC_DEFAULT_N*%
X22100000Y-19400000D02*
X22100000Y-19500000D01*
X22700000Y-20400000D02*
X22700000Y-20500000D01*
X23200000Y-21200000D02*
X23200000Y-21300000D01*
X19100000Y-17200000D02*
X19900000Y-17200000D01*
X15000000Y-13100000D02*
X19100000Y-17200000D01*
X22900000Y-20800000D02*
X23000000Y-20900000D01*
X20100000Y-17300000D02*
X22000000Y-19200000D01*
X23000000Y-20900000D02*
X23000000Y-21000000D01*
X22600000Y-20300000D02*
X22700000Y-20400000D01*
X23300000Y-21500000D02*
X28800000Y-27000000D01*
X22000000Y-19200000D02*
X22000000Y-19300000D01*
X28800000Y-27000000D02*
X28800000Y-28300000D01*
X19900000Y-17200000D02*
X20000000Y-17300000D01*
X22700000Y-20500000D02*
X22900000Y-20700000D01*
X22300000Y-19700000D02*
X22300000Y-19800000D01*
X22300000Y-19800000D02*
X22400000Y-19900000D01*
X28800000Y-28300000D02*
X31900000Y-31400000D01*
X22600000Y-20200000D02*
X22600000Y-20300000D01*
X23300000Y-21400000D02*
X23300000Y-21500000D01*
X22400000Y-20000000D02*
X22600000Y-20200000D01*
X22100000Y-19500000D02*
X22300000Y-19700000D01*
X23000000Y-21000000D02*
X23200000Y-21200000D01*
X22900000Y-20700000D02*
X22900000Y-20800000D01*
X22000000Y-19300000D02*
X22100000Y-19400000D01*
X20000000Y-17300000D02*
X20100000Y-17300000D01*
X22400000Y-19900000D02*
X22400000Y-20000000D01*
X23200000Y-21300000D02*
X23300000Y-21400000D01*
%TO.N,/SYS_SW*%
X35600000Y-27600000D02*
X35600000Y-27400000D01*
X35500000Y-27300000D02*
X35500000Y-27000000D01*
X35500000Y-27000000D02*
X35400000Y-26900000D01*
X35200000Y-26100000D02*
X35200000Y-25700000D01*
X35100000Y-25600000D02*
X35100000Y-25200000D01*
X35700000Y-28200000D02*
X35700000Y-27700000D01*
X35200000Y-25700000D02*
X35100000Y-25600000D01*
X35700000Y-27700000D02*
X35600000Y-27600000D01*
X35600000Y-27400000D02*
X35500000Y-27300000D01*
X35300000Y-26600000D02*
X35300000Y-26200000D01*
X35400000Y-26700000D02*
X35300000Y-26600000D01*
X35400000Y-26900000D02*
X35400000Y-26700000D01*
X35300000Y-26200000D02*
X35200000Y-26100000D01*
%TO.N,/REG_ENABLE*%
X22100000Y-23400000D02*
X22000000Y-23300000D01*
X22800000Y-23600000D02*
X22700000Y-23600000D01*
X38000000Y-12300000D02*
X37700000Y-12600000D01*
X36500000Y-21700000D02*
X36000000Y-22200000D01*
X23100000Y-23700000D02*
X22900000Y-23700000D01*
X37600000Y-12800000D02*
X37600000Y-15600000D01*
X21900000Y-23300000D02*
X21400000Y-23100000D01*
X22700000Y-23600000D02*
X22600000Y-23500000D01*
X22200000Y-23400000D02*
X22100000Y-23400000D01*
X37400000Y-20700000D02*
X36500000Y-21600000D01*
X22600000Y-23500000D02*
X22300000Y-23500000D01*
X22900000Y-23700000D02*
X22800000Y-23600000D01*
X37700000Y-12700000D02*
X37600000Y-12800000D01*
X36000000Y-22900000D02*
X35300000Y-23600000D01*
X35300000Y-23600000D02*
X34200000Y-23600000D01*
X36000000Y-22200000D02*
X36000000Y-22900000D01*
X37700000Y-12600000D02*
X37700000Y-12700000D01*
X37400000Y-20600000D02*
X37400000Y-20700000D01*
X37800000Y-5700000D02*
X37800000Y-10800000D01*
X23400000Y-23800000D02*
X23200000Y-23800000D01*
X38000000Y-11000000D02*
X38000000Y-12300000D01*
X37500000Y-20500000D02*
X37400000Y-20600000D01*
X22300000Y-23500000D02*
X22200000Y-23400000D01*
X37800000Y-10800000D02*
X38000000Y-11000000D01*
X36500000Y-21600000D02*
X36500000Y-21700000D01*
X24200000Y-24600000D02*
X23400000Y-23800000D01*
X23200000Y-23800000D02*
X23100000Y-23700000D01*
X22000000Y-23300000D02*
X21900000Y-23300000D01*
%TO.N,/PG_ALL*%
X35800000Y-30700000D02*
X36700000Y-29800000D01*
X36700000Y-29800000D02*
X36700000Y-27300000D01*
X37700000Y-26300000D02*
X37700000Y-26200000D01*
X36700000Y-27300000D02*
X37700000Y-26300000D01*
X37700000Y-26200000D02*
X38000000Y-25900000D01*
%TO.N,/CELL_PLUS*%
D21*
X11350000Y-30500000D02*
X11350000Y-38000000D01*
X11350000Y-38000000D02*
X12480000Y-39130000D01*
X12480000Y-39130000D02*
X12480000Y-43050000D01*
D22*
X11049999Y-30500000D02*
X11650000Y-30500000D01*
%TO.N,/VBAT*%
X13850000Y-30500000D02*
X14450000Y-30500000D01*
%TO.N,/NTC*%
D20*
X28000000Y-22400000D02*
X28100000Y-22500000D01*
X25900000Y-13900000D02*
X25900000Y-14100000D01*
X25300000Y-10000000D02*
X25400000Y-10100000D01*
X27600000Y-36400000D02*
X27400000Y-36400000D01*
X28100000Y-23000000D02*
X28200000Y-23100000D01*
X24500000Y-40100000D02*
X24400000Y-40100000D01*
X28600000Y-26200000D02*
X31600000Y-29200000D01*
X27300000Y-18800000D02*
X27300000Y-19100000D01*
X25600000Y-38700000D02*
X25600000Y-39100000D01*
X23500000Y-40400000D02*
X23400000Y-40500000D01*
X26400000Y-15700000D02*
X26500000Y-15800000D01*
X26400000Y-15500000D02*
X26400000Y-15700000D01*
X25200000Y-8900000D02*
X25200000Y-9000000D01*
X28500000Y-25800000D02*
X28600000Y-25900000D01*
X27500000Y-19900000D02*
X27600000Y-20000000D01*
X25200000Y-9000000D02*
X25300000Y-9100000D01*
X23400000Y-40500000D02*
X23300000Y-40500000D01*
X26000000Y-14200000D02*
X26000000Y-14400000D01*
X27400000Y-36400000D02*
X26600000Y-37200000D01*
X26500000Y-16000000D02*
X26600000Y-16100000D01*
X25700000Y-13200000D02*
X25700000Y-13500000D01*
X26700000Y-16700000D02*
X26800000Y-16800000D01*
X26600000Y-37700000D02*
X25600000Y-38700000D01*
X22700000Y-40700000D02*
X22600000Y-40800000D01*
X26100000Y-14700000D02*
X26200000Y-14800000D01*
X28300000Y-24200000D02*
X28400000Y-24300000D01*
X25400000Y-12600000D02*
X25500000Y-12700000D01*
X29000000Y-34800000D02*
X29000000Y-35000000D01*
X32400000Y-31100000D02*
X32400000Y-31700000D01*
X22400000Y-40900000D02*
X22200000Y-40900000D01*
X26500000Y-15800000D02*
X26500000Y-16000000D01*
X25000000Y-8400000D02*
X25000000Y-8500000D01*
X25600000Y-39100000D02*
X24700000Y-40000000D01*
X27400000Y-19500000D02*
X27500000Y-19600000D01*
X27600000Y-20400000D02*
X27700000Y-20500000D01*
X24800000Y-7900000D02*
X24800000Y-8000000D01*
X26700000Y-16500000D02*
X26700000Y-16700000D01*
X25900000Y-14100000D02*
X26000000Y-14200000D01*
X25700000Y-13500000D02*
X25800000Y-13600000D01*
X23700000Y-40400000D02*
X23500000Y-40400000D01*
X24600000Y-7400000D02*
X24600000Y-7500000D01*
X24000000Y-40300000D02*
X23800000Y-40300000D01*
X24700000Y-7600000D02*
X24700000Y-7800000D01*
X24700000Y-7800000D02*
X24800000Y-7900000D01*
X25600000Y-13000000D02*
X25600000Y-13100000D01*
X26600000Y-37200000D02*
X26600000Y-37700000D01*
X25800000Y-13600000D02*
X25800000Y-13800000D01*
X24500000Y-7100000D02*
X24500000Y-7300000D01*
X23800000Y-40300000D02*
X23700000Y-40400000D01*
X31100000Y-33000000D02*
X30800000Y-33000000D01*
X27700000Y-20500000D02*
X27700000Y-20900000D01*
X30800000Y-33000000D02*
X29000000Y-34800000D01*
X28200000Y-23600000D02*
X28300000Y-23700000D01*
X28500000Y-25100000D02*
X28500000Y-25800000D01*
X24800000Y-8000000D02*
X24900000Y-8100000D01*
X28600000Y-25900000D02*
X28600000Y-26200000D01*
X31600000Y-29200000D02*
X31600000Y-30300000D01*
X32400000Y-31700000D02*
X31100000Y-33000000D01*
X28200000Y-23100000D02*
X28200000Y-23600000D01*
X27600000Y-20000000D02*
X27600000Y-20400000D01*
X26900000Y-17200000D02*
X26900000Y-17500000D01*
X24400000Y-40100000D02*
X24300000Y-40200000D01*
X24600000Y-7500000D02*
X24700000Y-7600000D01*
X25800000Y-13800000D02*
X25900000Y-13900000D01*
X23200000Y-40600000D02*
X23000000Y-40600000D01*
X27000000Y-17900000D02*
X27100000Y-18000000D01*
X26800000Y-17100000D02*
X26900000Y-17200000D01*
X27800000Y-21000000D02*
X27800000Y-21400000D01*
X24300000Y-40200000D02*
X24100000Y-40200000D01*
X25500000Y-12900000D02*
X25600000Y-13000000D01*
X27400000Y-19200000D02*
X27400000Y-19500000D01*
X22200000Y-40900000D02*
X22100000Y-41000000D01*
X24450000Y-6600000D02*
X24500000Y-7100000D01*
X23000000Y-40600000D02*
X22900000Y-40700000D01*
X24600000Y-40000000D02*
X24500000Y-40100000D01*
X27100000Y-18300000D02*
X27200000Y-18400000D01*
X22900000Y-40700000D02*
X22700000Y-40700000D01*
X24900000Y-8300000D02*
X25000000Y-8400000D01*
X28300000Y-23700000D02*
X28300000Y-24200000D01*
X27900000Y-21500000D02*
X27900000Y-21900000D01*
X26100000Y-14500000D02*
X26100000Y-14700000D01*
X29000000Y-35000000D02*
X27600000Y-36400000D01*
X25100000Y-8800000D02*
X25200000Y-8900000D01*
X25100000Y-8600000D02*
X25100000Y-8800000D01*
X26900000Y-17500000D02*
X27000000Y-17600000D01*
X25400000Y-10100000D02*
X25400000Y-12600000D01*
X27100000Y-18000000D02*
X27100000Y-18300000D01*
X23300000Y-40500000D02*
X23200000Y-40600000D01*
X27700000Y-20900000D02*
X27800000Y-21000000D01*
X26600000Y-16100000D02*
X26600000Y-16400000D01*
X22600000Y-40800000D02*
X22500000Y-40800000D01*
X26200000Y-15000000D02*
X26300000Y-15100000D01*
X28000000Y-22000000D02*
X28000000Y-22400000D01*
X28400000Y-25000000D02*
X28500000Y-25100000D01*
X31600000Y-30300000D02*
X32400000Y-31100000D01*
X27500000Y-19600000D02*
X27500000Y-19900000D01*
X27200000Y-18400000D02*
X27200000Y-18700000D01*
X26300000Y-15100000D02*
X26300000Y-15400000D01*
X25000000Y-8500000D02*
X25100000Y-8600000D01*
X28400000Y-24300000D02*
X28400000Y-25000000D01*
X25600000Y-13100000D02*
X25700000Y-13200000D01*
X24900000Y-8100000D02*
X24900000Y-8300000D01*
X28100000Y-22500000D02*
X28100000Y-23000000D01*
X27200000Y-18700000D02*
X27300000Y-18800000D01*
X25300000Y-9100000D02*
X25300000Y-10000000D01*
X26600000Y-16400000D02*
X26700000Y-16500000D01*
X26300000Y-15400000D02*
X26400000Y-15500000D01*
X24500000Y-7300000D02*
X24600000Y-7400000D01*
X22100000Y-41000000D02*
X22000000Y-41000000D01*
X27000000Y-17600000D02*
X27000000Y-17900000D01*
X26800000Y-16800000D02*
X26800000Y-17100000D01*
X22500000Y-40800000D02*
X22400000Y-40900000D01*
X26000000Y-14400000D02*
X26100000Y-14500000D01*
X24100000Y-40200000D02*
X24000000Y-40300000D01*
X24700000Y-40000000D02*
X24600000Y-40000000D01*
X26200000Y-14800000D02*
X26200000Y-15000000D01*
X27900000Y-21900000D02*
X28000000Y-22000000D01*
X25500000Y-12700000D02*
X25500000Y-12900000D01*
X27300000Y-19100000D02*
X27400000Y-19200000D01*
X27800000Y-21400000D02*
X27900000Y-21500000D01*
%TO.N,/USB_PORT_ILIM*%
X42100000Y-32000000D02*
X42600000Y-32500000D01*
X41000000Y-28600000D02*
X41100000Y-28700000D01*
X18700000Y-7600000D02*
X18900000Y-7800000D01*
X37600000Y-25200000D02*
X37800000Y-25400000D01*
X41100000Y-28700000D02*
X41100000Y-28900000D01*
X40700000Y-28100000D02*
X40800000Y-28200000D01*
X19000000Y-11100000D02*
X19100000Y-11200000D01*
X19100000Y-11200000D02*
X19100000Y-11300000D01*
X18900000Y-7800000D02*
X18900000Y-10800000D01*
X38500000Y-25600000D02*
X38500000Y-25800000D01*
X41100000Y-28900000D02*
X42100000Y-29900000D01*
X18700000Y-4800000D02*
X18700000Y-7600000D01*
X40800000Y-28200000D02*
X40800000Y-28300000D01*
X35300000Y-24300000D02*
X36600000Y-24300000D01*
X37800000Y-25400000D02*
X38300000Y-25400000D01*
X19100000Y-11300000D02*
X19200000Y-11400000D01*
X36600000Y-24300000D02*
X37500000Y-25200000D01*
X40800000Y-28300000D02*
X41000000Y-28500000D01*
X41000000Y-28500000D02*
X41000000Y-28600000D01*
X38300000Y-25400000D02*
X38500000Y-25600000D01*
X40700000Y-28000000D02*
X40700000Y-28100000D01*
X18900000Y-10800000D02*
X19000000Y-10900000D01*
X37500000Y-25200000D02*
X37600000Y-25200000D01*
X38500000Y-25800000D02*
X40700000Y-28000000D01*
X19000000Y-10900000D02*
X19000000Y-11100000D01*
X42100000Y-29900000D02*
X42100000Y-32000000D01*
%TO.N,/SENSE_3V3*%
X39700000Y-34500000D02*
X41100000Y-34500000D01*
X41300000Y-34300000D02*
X41500000Y-33800000D01*
X38800000Y-35400000D02*
X39700000Y-34500000D01*
X45700000Y-29500000D02*
X43800000Y-31400000D01*
X38600000Y-35700000D02*
X38800000Y-35500000D01*
X38800000Y-35500000D02*
X38800000Y-35400000D01*
X41100000Y-34500000D02*
X41300000Y-34300000D01*
%TO.N,/USB_CHG*%
X27000000Y-11500000D02*
X28200000Y-12700000D01*
X35300000Y-29600000D02*
X35300000Y-31000000D01*
X28200000Y-13200000D02*
X29700000Y-14700000D01*
X26800000Y-11100000D02*
X27000000Y-11300000D01*
X33900000Y-28100000D02*
X34000000Y-28200000D01*
X35300000Y-31000000D02*
X36400000Y-32100000D01*
X29600000Y-22800000D02*
X33900000Y-27100000D01*
X27000000Y-11300000D02*
X27000000Y-11500000D01*
X29700000Y-14700000D02*
X29700000Y-22100000D01*
X33900000Y-27100000D02*
X33900000Y-28100000D01*
X29700000Y-22100000D02*
X29600000Y-22200000D01*
X29600000Y-22200000D02*
X29600000Y-22800000D01*
X34000000Y-28300000D02*
X35300000Y-29600000D01*
X28200000Y-12700000D02*
X28200000Y-13200000D01*
X36400000Y-32100000D02*
X36600000Y-32100000D01*
X34000000Y-28200000D02*
X34000000Y-28300000D01*
%TO.N,/LED1_K*%
X31100000Y-15200000D02*
X31200000Y-15200000D01*
X31300000Y-13200000D02*
X31300000Y-12700000D01*
X31400000Y-13300000D02*
X31300000Y-13200000D01*
X31400000Y-15000000D02*
X31400000Y-13300000D01*
X30600000Y-15700000D02*
X31100000Y-15200000D01*
X31300000Y-12700000D02*
X30700000Y-12100000D01*
X31200000Y-15200000D02*
X31400000Y-15000000D01*
%TO.N,/ACT_3V2*%
X30300000Y-45700000D02*
X31300000Y-44700000D01*
X31300000Y-44700000D02*
X31750000Y-44525000D01*
%TO.N,/USB_LIMIT_FAULT_N*%
X34500000Y-14800000D02*
X35000000Y-14800000D01*
X35200000Y-15800000D02*
X35300000Y-15900000D01*
X32600000Y-12800000D02*
X32600000Y-12900000D01*
X26100000Y-4500000D02*
X26100000Y-5300000D01*
X40600000Y-22700000D02*
X42900000Y-25000000D01*
X25100000Y-3500000D02*
X26100000Y-4500000D01*
X32200000Y-12300000D02*
X32500000Y-12600000D01*
X40600000Y-22200000D02*
X40600000Y-22700000D01*
X30800000Y-10800000D02*
X32200000Y-12200000D01*
X42900000Y-25000000D02*
X43000000Y-25000000D01*
X30600000Y-10800000D02*
X30800000Y-10800000D01*
X35000000Y-14800000D02*
X35200000Y-15000000D01*
X32500000Y-12700000D02*
X32600000Y-12800000D01*
X26100000Y-5300000D02*
X27100000Y-6300000D01*
X27100000Y-6300000D02*
X27100000Y-7300000D01*
X32500000Y-12600000D02*
X32500000Y-12700000D01*
X32600000Y-12900000D02*
X34500000Y-14800000D01*
X32200000Y-12200000D02*
X32200000Y-12300000D01*
X35300000Y-15900000D02*
X35300000Y-16900000D01*
X35300000Y-16900000D02*
X40600000Y-22200000D01*
X27100000Y-7300000D02*
X30600000Y-10800000D01*
X35200000Y-15000000D02*
X35200000Y-15800000D01*
%TO.N,/SENSE_3V2*%
X41200000Y-33300000D02*
X41000000Y-33500000D01*
X41000000Y-33500000D02*
X40750000Y-34000000D01*
X41800000Y-33300000D02*
X41200000Y-33300000D01*
X44500000Y-34200000D02*
X43300000Y-34200000D01*
X43300000Y-34200000D02*
X42600000Y-33500000D01*
X42600000Y-33500000D02*
X42000000Y-33500000D01*
X42000000Y-33500000D02*
X41800000Y-33300000D01*
X45700000Y-34000000D02*
X44700000Y-34000000D01*
X44700000Y-34000000D02*
X44500000Y-34200000D01*
%TO.N,/EF_SLEW*%
X34200000Y-10600000D02*
X34300000Y-10500000D01*
X33600000Y-10800000D02*
X33700000Y-10700000D01*
X32900000Y-11000000D02*
X33100000Y-11000000D01*
X33500000Y-10800000D02*
X33600000Y-10800000D01*
X35700000Y-10500000D02*
X36500000Y-9700000D01*
X33700000Y-10700000D02*
X33900000Y-10700000D01*
X33200000Y-10900000D02*
X33400000Y-10900000D01*
X34300000Y-10500000D02*
X35700000Y-10500000D01*
X33400000Y-10900000D02*
X33500000Y-10800000D01*
X34000000Y-10600000D02*
X34200000Y-10600000D01*
X33100000Y-11000000D02*
X33200000Y-10900000D01*
X33900000Y-10700000D02*
X34000000Y-10600000D01*
%TO.N,/EF_FAULT_N*%
X35500000Y-14800000D02*
X35600000Y-14900000D01*
X45300000Y-36400000D02*
X45300000Y-36600000D01*
X44000000Y-39900000D02*
X44000000Y-40000000D01*
X35400000Y-14600000D02*
X35500000Y-14700000D01*
X37900000Y-18200000D02*
X41400000Y-21700000D01*
X43500000Y-26500000D02*
X46200000Y-29200000D01*
X44500000Y-38700000D02*
X44400000Y-38800000D01*
X44200000Y-39400000D02*
X44200000Y-39500000D01*
X35100000Y-13400000D02*
X35400000Y-13900000D01*
X44900000Y-37500000D02*
X44900000Y-37600000D01*
X36400000Y-16900000D02*
X37000000Y-17500000D01*
X35600000Y-15700000D02*
X35700000Y-15800000D01*
X45500000Y-36000000D02*
X45400000Y-36100000D01*
X44400000Y-39000000D02*
X44300000Y-39100000D01*
X45600000Y-35600000D02*
X45600000Y-35700000D01*
X46200000Y-34300000D02*
X46000000Y-34500000D01*
X35700000Y-16300000D02*
X36300000Y-16900000D01*
X45800000Y-35200000D02*
X45700000Y-35300000D01*
X44300000Y-39300000D02*
X44200000Y-39400000D01*
X45900000Y-34700000D02*
X45900000Y-34900000D01*
X37800000Y-18200000D02*
X37900000Y-18200000D01*
X44100000Y-39800000D02*
X44000000Y-39900000D01*
X45100000Y-36900000D02*
X45100000Y-37100000D01*
X44100000Y-39600000D02*
X44100000Y-39800000D01*
X35400000Y-13900000D02*
X35400000Y-14600000D01*
X44500000Y-38600000D02*
X44500000Y-38700000D01*
X42800000Y-24000000D02*
X43500000Y-24700000D01*
X44700000Y-38200000D02*
X44600000Y-38300000D01*
X37100000Y-17500000D02*
X37800000Y-18200000D01*
X45800000Y-35000000D02*
X45800000Y-35200000D01*
X44300000Y-39100000D02*
X44300000Y-39300000D01*
X44400000Y-38800000D02*
X44400000Y-39000000D01*
X45200000Y-36700000D02*
X45200000Y-36800000D01*
X37000000Y-17500000D02*
X37100000Y-17500000D01*
X45400000Y-36100000D02*
X45400000Y-36300000D01*
X44600000Y-38300000D02*
X44600000Y-38500000D01*
X42800000Y-23200000D02*
X42800000Y-24000000D01*
X45500000Y-35800000D02*
X45500000Y-36000000D01*
X41400000Y-21700000D02*
X41400000Y-21800000D01*
X44800000Y-37700000D02*
X44800000Y-37900000D01*
X45000000Y-37200000D02*
X45000000Y-37400000D01*
X44600000Y-38500000D02*
X44500000Y-38600000D01*
X45900000Y-34900000D02*
X45800000Y-35000000D01*
X46000000Y-34600000D02*
X45900000Y-34700000D01*
X46200000Y-29200000D02*
X46200000Y-34300000D01*
X44700000Y-38000000D02*
X44700000Y-38200000D01*
X44200000Y-39500000D02*
X44100000Y-39600000D01*
X45000000Y-37400000D02*
X44900000Y-37500000D01*
X45700000Y-35300000D02*
X45700000Y-35500000D01*
X43500000Y-24700000D02*
X43500000Y-26500000D01*
X35700000Y-15800000D02*
X35700000Y-16300000D01*
X45300000Y-36600000D02*
X45200000Y-36700000D01*
X44900000Y-37600000D02*
X44800000Y-37700000D01*
X45400000Y-36300000D02*
X45300000Y-36400000D01*
X36300000Y-16900000D02*
X36400000Y-16900000D01*
X46000000Y-34500000D02*
X46000000Y-34600000D01*
X45700000Y-35500000D02*
X45600000Y-35600000D01*
X44800000Y-37900000D02*
X44700000Y-38000000D01*
X45200000Y-36800000D02*
X45100000Y-36900000D01*
X35500000Y-14700000D02*
X35500000Y-14800000D01*
X35600000Y-14900000D02*
X35600000Y-15700000D01*
X41400000Y-21800000D02*
X42800000Y-23200000D01*
X45100000Y-37100000D02*
X45000000Y-37200000D01*
X45600000Y-35700000D02*
X45500000Y-35800000D01*
%TO.N,/CHARGE_N*%
X17800000Y-35000000D02*
X17800000Y-34500000D01*
X30100000Y-22500000D02*
X30100000Y-11700000D01*
X17800000Y-34500000D02*
X22000000Y-30300000D01*
X30100000Y-11700000D02*
X30500000Y-11300000D01*
%TD*%
%TA.AperFunction,Conductor*%
%TO.N,/SYS_SW*%
G36*
X2714070Y-9018907D02*
G01*
X2750034Y-9068407D01*
X2751501Y-9073362D01*
X2771635Y-9148500D01*
X2783609Y-9193190D01*
X2849496Y-9307309D01*
X2849498Y-9307311D01*
X2849500Y-9307314D01*
X2942686Y-9400500D01*
X2942688Y-9400501D01*
X2942690Y-9400503D01*
X3056810Y-9466390D01*
X3056808Y-9466390D01*
X3056812Y-9466391D01*
X3056814Y-9466392D01*
X3184108Y-9500500D01*
X3184110Y-9500500D01*
X3315890Y-9500500D01*
X3315892Y-9500500D01*
X3443186Y-9466392D01*
X3443188Y-9466390D01*
X3443190Y-9466390D01*
X3557309Y-9400503D01*
X3557309Y-9400502D01*
X3557314Y-9400500D01*
X3650500Y-9307314D01*
X3664264Y-9283474D01*
X3709733Y-9242534D01*
X3770583Y-9236138D01*
X3823571Y-9266731D01*
X3835734Y-9283471D01*
X3849500Y-9307314D01*
X3942686Y-9400500D01*
X3942688Y-9400501D01*
X3942690Y-9400503D01*
X4056810Y-9466390D01*
X4056808Y-9466390D01*
X4056812Y-9466391D01*
X4056814Y-9466392D01*
X4184108Y-9500500D01*
X4184110Y-9500500D01*
X4315890Y-9500500D01*
X4315892Y-9500500D01*
X4443186Y-9466392D01*
X4443188Y-9466390D01*
X4443190Y-9466390D01*
X4557309Y-9400503D01*
X4557309Y-9400502D01*
X4557314Y-9400500D01*
X4650500Y-9307314D01*
X4650503Y-9307309D01*
X4716390Y-9193190D01*
X4716390Y-9193188D01*
X4716392Y-9193186D01*
X4748494Y-9073375D01*
X4781818Y-9022063D01*
X4838940Y-9000136D01*
X4844121Y-9000000D01*
X10339275Y-9000000D01*
X10397466Y-9018907D01*
X10433430Y-9068407D01*
X10433430Y-9129593D01*
X10425011Y-9148500D01*
X10380202Y-9226109D01*
X10371307Y-9259307D01*
X10349500Y-9340691D01*
X10349500Y-9459309D01*
X10369885Y-9535387D01*
X10380202Y-9573890D01*
X10439507Y-9676608D01*
X10439509Y-9676610D01*
X10439511Y-9676613D01*
X10523387Y-9760489D01*
X10523389Y-9760490D01*
X10523391Y-9760492D01*
X10626110Y-9819797D01*
X10626108Y-9819797D01*
X10626112Y-9819798D01*
X10626114Y-9819799D01*
X10721611Y-9845387D01*
X10772923Y-9878710D01*
X10794850Y-9935831D01*
X10779015Y-9994932D01*
X10745488Y-10026748D01*
X10723390Y-10039506D01*
X10639506Y-10123390D01*
X10580201Y-10226108D01*
X10563036Y-10290168D01*
X10549499Y-10340690D01*
X10549499Y-10459308D01*
X10554558Y-10478188D01*
X10580201Y-10573889D01*
X10639506Y-10676607D01*
X10639508Y-10676609D01*
X10639510Y-10676612D01*
X10723386Y-10760488D01*
X10723388Y-10760489D01*
X10723390Y-10760491D01*
X10826109Y-10819796D01*
X10826110Y-10819796D01*
X10826113Y-10819798D01*
X10940690Y-10850499D01*
X10940692Y-10850499D01*
X11059306Y-10850499D01*
X11059308Y-10850499D01*
X11173885Y-10819798D01*
X11173887Y-10819796D01*
X11173889Y-10819796D01*
X11276607Y-10760491D01*
X11276607Y-10760490D01*
X11276612Y-10760488D01*
X11360488Y-10676612D01*
X11369797Y-10660489D01*
X11419796Y-10573889D01*
X11419797Y-10573886D01*
X11419798Y-10573885D01*
X11450499Y-10459308D01*
X11450499Y-10340690D01*
X11419798Y-10226113D01*
X11419796Y-10226109D01*
X11419796Y-10226108D01*
X11360491Y-10123390D01*
X11360489Y-10123388D01*
X11360488Y-10123386D01*
X11276612Y-10039510D01*
X11276609Y-10039508D01*
X11276607Y-10039506D01*
X11173888Y-9980201D01*
X11173889Y-9980201D01*
X11100319Y-9960488D01*
X11078388Y-9954611D01*
X11027074Y-9921287D01*
X11005148Y-9864166D01*
X11020984Y-9805065D01*
X11054514Y-9773248D01*
X11076608Y-9760492D01*
X11076608Y-9760491D01*
X11076613Y-9760489D01*
X11160489Y-9676613D01*
X11170481Y-9659306D01*
X11219797Y-9573890D01*
X11219797Y-9573888D01*
X11219799Y-9573886D01*
X11250500Y-9459309D01*
X11250500Y-9340691D01*
X11219799Y-9226114D01*
X11219797Y-9226111D01*
X11219797Y-9226109D01*
X11174989Y-9148500D01*
X11162267Y-9088652D01*
X11187153Y-9032756D01*
X11240141Y-9002163D01*
X11260725Y-9000000D01*
X13758179Y-9000000D01*
X13816370Y-9018907D01*
X13852334Y-9068407D01*
X13853805Y-9124621D01*
X13849500Y-9140691D01*
X13849500Y-9259309D01*
X13876295Y-9359307D01*
X13880202Y-9373890D01*
X13939507Y-9476608D01*
X13939509Y-9476610D01*
X13939511Y-9476613D01*
X14023387Y-9560489D01*
X14023389Y-9560490D01*
X14023391Y-9560492D01*
X14126110Y-9619797D01*
X14126111Y-9619797D01*
X14126114Y-9619799D01*
X14240691Y-9650500D01*
X14240693Y-9650500D01*
X14359307Y-9650500D01*
X14359309Y-9650500D01*
X14473886Y-9619799D01*
X14473888Y-9619797D01*
X14473890Y-9619797D01*
X14576608Y-9560492D01*
X14576608Y-9560491D01*
X14576613Y-9560489D01*
X14660489Y-9476613D01*
X14662061Y-9473890D01*
X14719797Y-9373890D01*
X14719797Y-9373888D01*
X14719799Y-9373886D01*
X14750500Y-9259309D01*
X14750500Y-9140691D01*
X14746194Y-9124621D01*
X14749396Y-9063522D01*
X14787901Y-9015972D01*
X14841821Y-9000000D01*
X16150500Y-9000000D01*
X16208691Y-9018907D01*
X16244655Y-9068407D01*
X16249500Y-9099000D01*
X16249500Y-9159309D01*
X16270989Y-9239506D01*
X16280202Y-9273890D01*
X16339507Y-9376608D01*
X16339509Y-9376610D01*
X16339511Y-9376613D01*
X16423387Y-9460489D01*
X16423389Y-9460490D01*
X16423391Y-9460492D01*
X16526110Y-9519797D01*
X16526111Y-9519797D01*
X16526114Y-9519799D01*
X16640691Y-9550500D01*
X16640693Y-9550500D01*
X16750499Y-9550500D01*
X16808690Y-9569407D01*
X16844654Y-9618907D01*
X16849499Y-9649500D01*
X16849499Y-9659308D01*
X16871305Y-9740690D01*
X16880201Y-9773889D01*
X16939506Y-9876607D01*
X16939508Y-9876609D01*
X16939510Y-9876612D01*
X17023386Y-9960488D01*
X17023388Y-9960489D01*
X17023390Y-9960491D01*
X17126109Y-10019796D01*
X17126110Y-10019796D01*
X17126113Y-10019798D01*
X17240690Y-10050499D01*
X17240692Y-10050499D01*
X17359306Y-10050499D01*
X17359308Y-10050499D01*
X17473885Y-10019798D01*
X17473887Y-10019796D01*
X17473889Y-10019796D01*
X17576607Y-9960491D01*
X17576607Y-9960490D01*
X17576612Y-9960488D01*
X17660488Y-9876612D01*
X17689960Y-9825566D01*
X17719796Y-9773889D01*
X17719796Y-9773887D01*
X17719798Y-9773885D01*
X17750499Y-9659308D01*
X17750499Y-9540690D01*
X17719798Y-9426113D01*
X17719796Y-9426110D01*
X17719796Y-9426108D01*
X17660491Y-9323390D01*
X17660489Y-9323388D01*
X17660488Y-9323386D01*
X17576612Y-9239510D01*
X17576609Y-9239508D01*
X17576607Y-9239506D01*
X17481743Y-9184736D01*
X17440802Y-9139266D01*
X17434406Y-9078416D01*
X17464999Y-9025428D01*
X17520895Y-9000542D01*
X17531243Y-9000000D01*
X18525500Y-9000000D01*
X18583691Y-9018907D01*
X18619655Y-9068407D01*
X18624500Y-9099000D01*
X18624500Y-10854800D01*
X18663727Y-10949500D01*
X18666443Y-10956058D01*
X18695505Y-10985120D01*
X18723281Y-11039635D01*
X18724500Y-11055122D01*
X18724500Y-11154800D01*
X18736620Y-11184059D01*
X18757064Y-11233415D01*
X18761865Y-11294412D01*
X18761227Y-11296923D01*
X18749500Y-11340691D01*
X18749500Y-11459309D01*
X18772178Y-11543943D01*
X18780202Y-11573890D01*
X18839507Y-11676608D01*
X18839509Y-11676610D01*
X18839511Y-11676613D01*
X18923387Y-11760489D01*
X18923389Y-11760490D01*
X18923391Y-11760492D01*
X19026110Y-11819797D01*
X19026111Y-11819797D01*
X19026114Y-11819799D01*
X19140691Y-11850500D01*
X19140693Y-11850500D01*
X19259307Y-11850500D01*
X19259309Y-11850500D01*
X19373886Y-11819799D01*
X19373888Y-11819797D01*
X19373890Y-11819797D01*
X19476608Y-11760492D01*
X19476608Y-11760491D01*
X19476613Y-11760489D01*
X19560489Y-11676613D01*
X19562061Y-11673890D01*
X19619797Y-11573890D01*
X19619797Y-11573888D01*
X19619799Y-11573886D01*
X19650500Y-11459309D01*
X19650500Y-11340691D01*
X19619799Y-11226114D01*
X19619797Y-11226111D01*
X19619797Y-11226109D01*
X19560492Y-11123391D01*
X19560490Y-11123389D01*
X19560489Y-11123387D01*
X19476613Y-11039511D01*
X19476610Y-11039509D01*
X19476608Y-11039507D01*
X19373889Y-10980202D01*
X19373886Y-10980201D01*
X19368068Y-10978642D01*
X19348873Y-10973498D01*
X19297560Y-10940172D01*
X19275635Y-10883049D01*
X19275500Y-10877872D01*
X19275500Y-10845200D01*
X19238055Y-10754799D01*
X19233558Y-10743943D01*
X19233557Y-10743942D01*
X19233557Y-10743941D01*
X19204495Y-10714879D01*
X19176719Y-10660362D01*
X19175500Y-10644876D01*
X19175500Y-9690691D01*
X21149500Y-9690691D01*
X21149500Y-9809309D01*
X21166805Y-9873890D01*
X21180202Y-9923890D01*
X21239507Y-10026608D01*
X21239509Y-10026610D01*
X21239511Y-10026613D01*
X21323387Y-10110489D01*
X21323389Y-10110490D01*
X21323391Y-10110492D01*
X21426110Y-10169797D01*
X21426111Y-10169797D01*
X21426114Y-10169799D01*
X21540691Y-10200500D01*
X21540693Y-10200500D01*
X21659307Y-10200500D01*
X21659309Y-10200500D01*
X21773886Y-10169799D01*
X21773888Y-10169797D01*
X21773890Y-10169797D01*
X21876608Y-10110492D01*
X21876608Y-10110491D01*
X21876613Y-10110489D01*
X21960489Y-10026613D01*
X21990605Y-9974451D01*
X22019797Y-9923890D01*
X22019797Y-9923888D01*
X22019799Y-9923886D01*
X22050500Y-9809309D01*
X22050500Y-9740690D01*
X22549499Y-9740690D01*
X22549499Y-9859308D01*
X22572177Y-9943943D01*
X22580201Y-9973889D01*
X22639506Y-10076607D01*
X22639508Y-10076609D01*
X22639510Y-10076612D01*
X22723386Y-10160488D01*
X22723388Y-10160489D01*
X22723390Y-10160491D01*
X22826109Y-10219796D01*
X22826110Y-10219796D01*
X22826113Y-10219798D01*
X22940690Y-10250499D01*
X22940692Y-10250499D01*
X23059306Y-10250499D01*
X23059308Y-10250499D01*
X23173885Y-10219798D01*
X23173887Y-10219796D01*
X23173889Y-10219796D01*
X23276607Y-10160491D01*
X23276607Y-10160490D01*
X23276612Y-10160488D01*
X23360488Y-10076612D01*
X23369797Y-10060489D01*
X23419796Y-9973889D01*
X23419796Y-9973887D01*
X23419798Y-9973885D01*
X23450499Y-9859308D01*
X23450499Y-9740690D01*
X23419798Y-9626113D01*
X23419796Y-9626110D01*
X23419796Y-9626108D01*
X23360491Y-9523390D01*
X23360489Y-9523388D01*
X23360488Y-9523386D01*
X23276612Y-9439510D01*
X23276609Y-9439508D01*
X23276607Y-9439506D01*
X23173888Y-9380201D01*
X23173889Y-9380201D01*
X23150321Y-9373886D01*
X23059308Y-9349499D01*
X22940690Y-9349499D01*
X22870566Y-9368288D01*
X22826108Y-9380201D01*
X22723390Y-9439506D01*
X22639506Y-9523390D01*
X22580201Y-9626108D01*
X22573933Y-9649500D01*
X22549499Y-9740690D01*
X22050500Y-9740690D01*
X22050500Y-9690691D01*
X22019799Y-9576114D01*
X22019797Y-9576111D01*
X22019797Y-9576109D01*
X21960492Y-9473391D01*
X21960490Y-9473389D01*
X21960489Y-9473387D01*
X21876613Y-9389511D01*
X21876610Y-9389509D01*
X21876608Y-9389507D01*
X21773889Y-9330202D01*
X21773890Y-9330202D01*
X21748452Y-9323386D01*
X21659309Y-9299500D01*
X21540691Y-9299500D01*
X21470567Y-9318289D01*
X21426109Y-9330202D01*
X21323391Y-9389507D01*
X21239507Y-9473391D01*
X21180202Y-9576109D01*
X21167400Y-9623886D01*
X21149500Y-9690691D01*
X19175500Y-9690691D01*
X19175500Y-9099000D01*
X19194407Y-9040809D01*
X19243907Y-9004845D01*
X19274500Y-9000000D01*
X23773891Y-9000000D01*
X23832082Y-9018907D01*
X23868046Y-9068407D01*
X23868046Y-9129593D01*
X23843896Y-9169001D01*
X23839511Y-9173387D01*
X23839508Y-9173390D01*
X23839507Y-9173391D01*
X23780202Y-9276109D01*
X23771842Y-9307309D01*
X23749500Y-9390691D01*
X23749500Y-9509309D01*
X23767533Y-9576608D01*
X23780202Y-9623890D01*
X23839507Y-9726608D01*
X23839509Y-9726610D01*
X23839511Y-9726613D01*
X23923387Y-9810489D01*
X23923389Y-9810490D01*
X23923391Y-9810492D01*
X24026110Y-9869797D01*
X24026111Y-9869797D01*
X24026114Y-9869799D01*
X24140691Y-9900500D01*
X24140693Y-9900500D01*
X24259307Y-9900500D01*
X24259309Y-9900500D01*
X24373886Y-9869799D01*
X24450499Y-9825565D01*
X24510348Y-9812844D01*
X24549500Y-9825566D01*
X24623224Y-9868131D01*
X24664165Y-9913600D01*
X24670561Y-9974451D01*
X24639968Y-10027439D01*
X24623975Y-10039059D01*
X24623390Y-10039508D01*
X24539507Y-10123391D01*
X24480202Y-10226109D01*
X24480201Y-10226114D01*
X24449500Y-10340691D01*
X24449500Y-10459309D01*
X24473667Y-10549500D01*
X24480202Y-10573890D01*
X24539507Y-10676608D01*
X24539509Y-10676610D01*
X24539511Y-10676613D01*
X24623387Y-10760489D01*
X24623389Y-10760490D01*
X24623391Y-10760492D01*
X24726110Y-10819797D01*
X24726111Y-10819797D01*
X24726114Y-10819799D01*
X24840691Y-10850500D01*
X24840693Y-10850500D01*
X24959308Y-10850500D01*
X24959309Y-10850500D01*
X24999876Y-10839630D01*
X25060978Y-10842831D01*
X25108528Y-10881336D01*
X25124500Y-10935256D01*
X25124500Y-12654800D01*
X25140194Y-12692688D01*
X25163727Y-12749500D01*
X25163730Y-12749507D01*
X25165921Y-12754799D01*
X25166443Y-12756058D01*
X25195505Y-12785120D01*
X25223281Y-12839635D01*
X25224500Y-12855122D01*
X25224500Y-12954800D01*
X25259589Y-13039511D01*
X25264141Y-13050500D01*
X25264142Y-13050504D01*
X25266440Y-13056054D01*
X25266442Y-13056056D01*
X25266443Y-13056058D01*
X25295505Y-13085120D01*
X25323281Y-13139635D01*
X25324458Y-13154590D01*
X25324499Y-13154797D01*
X25324500Y-13154799D01*
X25324500Y-13154800D01*
X25340402Y-13193190D01*
X25363727Y-13249500D01*
X25363730Y-13249507D01*
X25365921Y-13254799D01*
X25366443Y-13256058D01*
X25395505Y-13285120D01*
X25423281Y-13339635D01*
X25424500Y-13355122D01*
X25424500Y-13554800D01*
X25433533Y-13576607D01*
X25449639Y-13615490D01*
X25466441Y-13656055D01*
X25466442Y-13656056D01*
X25466443Y-13656058D01*
X25495505Y-13685120D01*
X25523281Y-13739635D01*
X25524500Y-13755122D01*
X25524500Y-13854799D01*
X25549639Y-13915490D01*
X25566441Y-13956055D01*
X25566442Y-13956056D01*
X25566443Y-13956058D01*
X25595505Y-13985120D01*
X25623281Y-14039635D01*
X25624500Y-14055122D01*
X25624500Y-14154800D01*
X25626858Y-14160492D01*
X25647471Y-14210256D01*
X25666441Y-14256055D01*
X25666442Y-14256056D01*
X25666443Y-14256058D01*
X25695505Y-14285120D01*
X25723281Y-14339635D01*
X25724500Y-14355122D01*
X25724500Y-14454800D01*
X25737376Y-14485884D01*
X25764141Y-14550500D01*
X25764142Y-14550504D01*
X25766440Y-14556054D01*
X25766442Y-14556056D01*
X25766443Y-14556058D01*
X25795505Y-14585120D01*
X25823281Y-14639635D01*
X25824500Y-14655122D01*
X25824500Y-14754800D01*
X25863727Y-14849500D01*
X25866443Y-14856058D01*
X25895505Y-14885120D01*
X25923281Y-14939635D01*
X25924500Y-14955122D01*
X25924500Y-15054800D01*
X25963727Y-15149500D01*
X25966443Y-15156058D01*
X25995505Y-15185120D01*
X26023281Y-15239635D01*
X26024500Y-15255122D01*
X26024500Y-15454800D01*
X26039270Y-15490457D01*
X26054040Y-15526115D01*
X26066441Y-15556055D01*
X26066442Y-15556056D01*
X26066443Y-15556058D01*
X26095505Y-15585120D01*
X26123281Y-15639635D01*
X26124500Y-15655122D01*
X26124500Y-15754800D01*
X26161811Y-15844876D01*
X26165922Y-15854800D01*
X26165925Y-15854809D01*
X26166440Y-15856054D01*
X26166442Y-15856056D01*
X26166443Y-15856058D01*
X26195505Y-15885120D01*
X26223281Y-15939635D01*
X26224500Y-15955122D01*
X26224500Y-16054800D01*
X26257123Y-16133557D01*
X26266443Y-16156058D01*
X26295505Y-16185120D01*
X26323281Y-16239635D01*
X26324500Y-16255122D01*
X26324500Y-16454799D01*
X26351424Y-16519799D01*
X26351424Y-16519800D01*
X26366441Y-16556055D01*
X26366442Y-16556056D01*
X26366443Y-16556058D01*
X26395505Y-16585120D01*
X26423281Y-16639635D01*
X26424500Y-16655122D01*
X26424500Y-16754799D01*
X26465922Y-16854800D01*
X26465925Y-16854809D01*
X26466440Y-16856054D01*
X26466442Y-16856056D01*
X26466443Y-16856058D01*
X26495505Y-16885120D01*
X26523281Y-16939635D01*
X26524500Y-16955122D01*
X26524500Y-17154800D01*
X26549201Y-17214433D01*
X26565922Y-17254800D01*
X26565925Y-17254809D01*
X26566440Y-17256054D01*
X26566442Y-17256056D01*
X26566443Y-17256058D01*
X26595505Y-17285120D01*
X26623281Y-17339635D01*
X26624500Y-17355122D01*
X26624500Y-17554800D01*
X26633863Y-17577403D01*
X26665922Y-17654800D01*
X26665925Y-17654809D01*
X26666440Y-17656054D01*
X26666442Y-17656056D01*
X26666443Y-17656058D01*
X26695505Y-17685120D01*
X26723281Y-17739635D01*
X26724500Y-17755122D01*
X26724500Y-17789836D01*
X26705593Y-17848027D01*
X26656093Y-17883991D01*
X26599802Y-17883991D01*
X26599454Y-17885288D01*
X26593187Y-17883608D01*
X26593186Y-17883608D01*
X26465892Y-17849500D01*
X26334108Y-17849500D01*
X26256200Y-17870375D01*
X26206809Y-17883609D01*
X26092690Y-17949496D01*
X25999496Y-18042690D01*
X25933609Y-18156809D01*
X25933608Y-18156814D01*
X25899500Y-18284108D01*
X25899500Y-18415892D01*
X25907525Y-18445841D01*
X25933609Y-18543190D01*
X25999496Y-18657309D01*
X25999498Y-18657311D01*
X25999500Y-18657314D01*
X26092686Y-18750500D01*
X26092688Y-18750501D01*
X26092690Y-18750503D01*
X26206810Y-18816390D01*
X26206808Y-18816390D01*
X26206812Y-18816391D01*
X26206814Y-18816392D01*
X26334108Y-18850500D01*
X26334110Y-18850500D01*
X26465890Y-18850500D01*
X26465892Y-18850500D01*
X26593186Y-18816392D01*
X26593188Y-18816390D01*
X26593190Y-18816390D01*
X26707309Y-18750503D01*
X26707309Y-18750502D01*
X26707314Y-18750500D01*
X26756787Y-18701026D01*
X26811301Y-18673250D01*
X26871733Y-18682821D01*
X26914998Y-18726085D01*
X26923886Y-18751714D01*
X26924499Y-18754798D01*
X26964141Y-18850500D01*
X26964142Y-18850504D01*
X26966440Y-18856054D01*
X26966442Y-18856056D01*
X26966443Y-18856058D01*
X26995505Y-18885120D01*
X27023281Y-18939635D01*
X27024500Y-18955122D01*
X27024500Y-19154799D01*
X27065922Y-19254800D01*
X27065925Y-19254809D01*
X27066440Y-19256054D01*
X27066442Y-19256056D01*
X27066443Y-19256058D01*
X27095505Y-19285120D01*
X27123281Y-19339635D01*
X27124500Y-19355122D01*
X27124500Y-19554800D01*
X27163727Y-19649500D01*
X27166443Y-19656058D01*
X27195505Y-19685120D01*
X27223281Y-19739635D01*
X27224500Y-19755122D01*
X27224500Y-19954800D01*
X27263727Y-20049500D01*
X27266443Y-20056058D01*
X27295505Y-20085120D01*
X27323281Y-20139635D01*
X27324500Y-20155122D01*
X27324500Y-20454800D01*
X27352910Y-20523387D01*
X27365922Y-20554800D01*
X27365925Y-20554809D01*
X27366440Y-20556054D01*
X27366442Y-20556056D01*
X27366443Y-20556058D01*
X27395505Y-20585120D01*
X27423281Y-20639635D01*
X27424500Y-20655122D01*
X27424500Y-20954800D01*
X27457123Y-21033557D01*
X27466443Y-21056058D01*
X27495505Y-21085120D01*
X27523281Y-21139635D01*
X27524500Y-21155122D01*
X27524500Y-21454800D01*
X27561946Y-21545202D01*
X27565922Y-21554800D01*
X27565925Y-21554809D01*
X27566440Y-21556054D01*
X27566442Y-21556056D01*
X27566443Y-21556058D01*
X27595505Y-21585120D01*
X27623281Y-21639635D01*
X27624500Y-21655122D01*
X27624500Y-21954800D01*
X27663727Y-22049500D01*
X27666443Y-22056058D01*
X27695505Y-22085120D01*
X27723281Y-22139635D01*
X27724500Y-22155122D01*
X27724500Y-22454800D01*
X27763727Y-22549500D01*
X27766443Y-22556058D01*
X27795505Y-22585120D01*
X27823281Y-22639635D01*
X27824500Y-22655122D01*
X27824500Y-23054800D01*
X27863727Y-23149500D01*
X27866443Y-23156058D01*
X27895505Y-23185120D01*
X27923281Y-23239635D01*
X27924500Y-23255122D01*
X27924500Y-23654800D01*
X27963727Y-23749500D01*
X27966443Y-23756058D01*
X27995505Y-23785120D01*
X28023281Y-23839635D01*
X28024500Y-23855122D01*
X28024500Y-24254799D01*
X28052909Y-24323385D01*
X28058514Y-24336916D01*
X28066443Y-24356058D01*
X28095505Y-24385120D01*
X28123281Y-24439635D01*
X28124500Y-24455122D01*
X28124500Y-25054800D01*
X28153371Y-25124500D01*
X28165922Y-25154800D01*
X28165925Y-25154809D01*
X28166440Y-25156054D01*
X28166442Y-25156056D01*
X28166443Y-25156058D01*
X28195505Y-25185120D01*
X28223281Y-25239635D01*
X28224500Y-25255122D01*
X28224500Y-25795876D01*
X28205593Y-25854067D01*
X28156093Y-25890031D01*
X28094907Y-25890031D01*
X28055496Y-25865880D01*
X23604496Y-21414880D01*
X23576719Y-21360363D01*
X23575542Y-21345412D01*
X23575500Y-21345204D01*
X23575500Y-21345200D01*
X23538055Y-21254800D01*
X23533557Y-21243941D01*
X23504495Y-21214879D01*
X23476719Y-21160362D01*
X23475541Y-21145408D01*
X23475500Y-21145198D01*
X23466927Y-21124502D01*
X23466926Y-21124500D01*
X23433558Y-21043942D01*
X23304496Y-20914879D01*
X23276719Y-20860363D01*
X23275542Y-20845410D01*
X23275500Y-20845202D01*
X23275500Y-20845200D01*
X23240390Y-20760438D01*
X23239922Y-20759309D01*
X23233557Y-20743941D01*
X23204496Y-20714880D01*
X23176719Y-20660363D01*
X23175541Y-20645408D01*
X23175500Y-20645198D01*
X23166927Y-20624502D01*
X23166926Y-20624500D01*
X23133558Y-20543942D01*
X23004496Y-20414879D01*
X22976719Y-20360363D01*
X22975542Y-20345412D01*
X22975500Y-20345204D01*
X22975500Y-20345200D01*
X22938055Y-20254800D01*
X22933557Y-20243941D01*
X22904495Y-20214879D01*
X22876719Y-20160362D01*
X22875541Y-20145408D01*
X22875500Y-20145198D01*
X22866927Y-20124502D01*
X22866926Y-20124500D01*
X22833558Y-20043942D01*
X22704496Y-19914879D01*
X22676719Y-19860363D01*
X22675542Y-19845410D01*
X22675500Y-19845202D01*
X22675500Y-19845200D01*
X22640358Y-19760362D01*
X22633557Y-19743942D01*
X22633557Y-19743941D01*
X22629251Y-19739635D01*
X22604496Y-19714879D01*
X22576719Y-19660362D01*
X22575541Y-19645408D01*
X22575500Y-19645198D01*
X22566927Y-19624502D01*
X22566926Y-19624500D01*
X22533558Y-19543942D01*
X22404496Y-19414879D01*
X22376719Y-19360363D01*
X22375542Y-19345410D01*
X22375500Y-19345202D01*
X22375500Y-19345200D01*
X22333557Y-19243942D01*
X22333557Y-19243941D01*
X22333556Y-19243940D01*
X22304496Y-19214879D01*
X22276719Y-19160362D01*
X22275541Y-19145408D01*
X22275500Y-19145200D01*
X22246629Y-19075499D01*
X22233558Y-19043942D01*
X20256058Y-17066443D01*
X20154800Y-17024500D01*
X20154799Y-17024500D01*
X20154797Y-17024499D01*
X20145235Y-17022597D01*
X20145479Y-17021366D01*
X20096932Y-17005593D01*
X20085120Y-16995505D01*
X20075499Y-16985884D01*
X20056058Y-16966443D01*
X19954800Y-16924500D01*
X19954799Y-16924500D01*
X19255124Y-16924500D01*
X19196933Y-16905593D01*
X19185120Y-16895504D01*
X16030307Y-13740691D01*
X20049500Y-13740691D01*
X20049500Y-13859309D01*
X20070894Y-13939153D01*
X20080202Y-13973890D01*
X20139507Y-14076608D01*
X20139509Y-14076610D01*
X20139511Y-14076613D01*
X20223387Y-14160489D01*
X20223389Y-14160490D01*
X20223391Y-14160492D01*
X20326110Y-14219797D01*
X20326111Y-14219797D01*
X20326114Y-14219799D01*
X20440691Y-14250500D01*
X20440693Y-14250500D01*
X20559307Y-14250500D01*
X20559309Y-14250500D01*
X20673886Y-14219799D01*
X20673888Y-14219797D01*
X20673890Y-14219797D01*
X20776608Y-14160492D01*
X20776608Y-14160491D01*
X20776613Y-14160489D01*
X20860489Y-14076613D01*
X20879352Y-14043942D01*
X20919797Y-13973890D01*
X20919797Y-13973888D01*
X20919799Y-13973886D01*
X20950500Y-13859309D01*
X20950500Y-13740691D01*
X20919799Y-13626114D01*
X20919797Y-13626111D01*
X20919797Y-13626109D01*
X20860492Y-13523391D01*
X20860490Y-13523389D01*
X20860489Y-13523387D01*
X20776613Y-13439511D01*
X20776610Y-13439509D01*
X20776608Y-13439507D01*
X20673889Y-13380202D01*
X20673890Y-13380202D01*
X20650318Y-13373886D01*
X20559309Y-13349500D01*
X20440691Y-13349500D01*
X20370567Y-13368289D01*
X20326109Y-13380202D01*
X20223391Y-13439507D01*
X20139507Y-13523391D01*
X20080202Y-13626109D01*
X20068452Y-13669961D01*
X20049500Y-13740691D01*
X16030307Y-13740691D01*
X15479496Y-13189880D01*
X15451719Y-13135363D01*
X15450500Y-13119876D01*
X15450500Y-13040692D01*
X15450184Y-13039511D01*
X15419799Y-12926114D01*
X15419797Y-12926111D01*
X15419797Y-12926109D01*
X15360492Y-12823391D01*
X15360490Y-12823389D01*
X15360489Y-12823387D01*
X15276613Y-12739511D01*
X15276610Y-12739509D01*
X15276608Y-12739507D01*
X15173889Y-12680202D01*
X15173890Y-12680202D01*
X15146347Y-12672822D01*
X15059309Y-12649500D01*
X14940691Y-12649500D01*
X14899669Y-12660492D01*
X14826109Y-12680202D01*
X14723391Y-12739507D01*
X14639507Y-12823391D01*
X14580202Y-12926109D01*
X14572428Y-12955122D01*
X14549500Y-13040691D01*
X14549500Y-13159309D01*
X14571306Y-13240690D01*
X14580202Y-13273890D01*
X14639507Y-13376608D01*
X14639509Y-13376610D01*
X14639511Y-13376613D01*
X14723387Y-13460489D01*
X14723389Y-13460490D01*
X14723391Y-13460492D01*
X14826110Y-13519797D01*
X14826111Y-13519797D01*
X14826114Y-13519799D01*
X14940691Y-13550500D01*
X14940693Y-13550500D01*
X15019877Y-13550500D01*
X15078068Y-13569407D01*
X15089880Y-13579495D01*
X18943942Y-17433558D01*
X18943943Y-17433558D01*
X18943944Y-17433559D01*
X19045198Y-17475500D01*
X19045200Y-17475500D01*
X19154800Y-17475500D01*
X19744876Y-17475500D01*
X19803067Y-17494407D01*
X19814879Y-17504495D01*
X19843941Y-17533557D01*
X19872048Y-17545199D01*
X19872049Y-17545200D01*
X19893474Y-17554074D01*
X19945200Y-17575500D01*
X19945205Y-17575500D01*
X19954766Y-17577403D01*
X19954521Y-17578633D01*
X20003068Y-17594407D01*
X20014881Y-17604496D01*
X21695504Y-19285119D01*
X21723281Y-19339636D01*
X21724458Y-19354590D01*
X21724499Y-19354797D01*
X21724500Y-19354799D01*
X21724500Y-19354800D01*
X21737376Y-19385884D01*
X21765922Y-19454800D01*
X21765925Y-19454809D01*
X21766440Y-19456054D01*
X21766442Y-19456056D01*
X21766443Y-19456058D01*
X21795505Y-19485120D01*
X21823281Y-19539635D01*
X21824458Y-19554590D01*
X21824499Y-19554797D01*
X21824500Y-19554799D01*
X21824500Y-19554800D01*
X21863727Y-19649500D01*
X21866443Y-19656058D01*
X21995505Y-19785120D01*
X22023281Y-19839635D01*
X22024458Y-19854590D01*
X22024499Y-19854797D01*
X22024500Y-19854799D01*
X22024500Y-19854800D01*
X22037376Y-19885884D01*
X22065529Y-19953851D01*
X22065529Y-19953853D01*
X22065530Y-19953853D01*
X22065531Y-19953856D01*
X22066443Y-19956058D01*
X22095505Y-19985120D01*
X22123281Y-20039635D01*
X22124458Y-20054590D01*
X22124499Y-20054797D01*
X22124500Y-20054799D01*
X22124500Y-20054800D01*
X22166443Y-20156058D01*
X22295505Y-20285120D01*
X22323281Y-20339635D01*
X22324458Y-20354590D01*
X22324499Y-20354797D01*
X22324500Y-20354799D01*
X22324500Y-20354800D01*
X22362885Y-20447469D01*
X22365922Y-20454800D01*
X22365925Y-20454809D01*
X22366440Y-20456054D01*
X22366442Y-20456056D01*
X22366443Y-20456058D01*
X22395505Y-20485120D01*
X22423281Y-20539635D01*
X22424458Y-20554590D01*
X22424499Y-20554797D01*
X22424500Y-20554799D01*
X22424500Y-20554800D01*
X22461992Y-20645313D01*
X22465922Y-20654800D01*
X22465925Y-20654809D01*
X22466440Y-20656054D01*
X22466442Y-20656056D01*
X22466443Y-20656058D01*
X22595505Y-20785120D01*
X22623281Y-20839635D01*
X22624458Y-20854590D01*
X22624499Y-20854797D01*
X22624500Y-20854799D01*
X22624500Y-20854800D01*
X22637376Y-20885884D01*
X22664141Y-20950500D01*
X22664142Y-20950504D01*
X22666440Y-20956054D01*
X22666442Y-20956056D01*
X22666443Y-20956058D01*
X22695505Y-20985120D01*
X22723281Y-21039635D01*
X22724458Y-21054590D01*
X22724499Y-21054797D01*
X22724500Y-21054799D01*
X22724500Y-21054800D01*
X22761945Y-21145198D01*
X22764141Y-21150500D01*
X22764142Y-21150504D01*
X22766440Y-21156054D01*
X22766442Y-21156056D01*
X22766443Y-21156058D01*
X22895505Y-21285120D01*
X22923281Y-21339635D01*
X22924458Y-21354590D01*
X22924499Y-21354797D01*
X22924500Y-21354799D01*
X22924500Y-21354800D01*
X22965922Y-21454799D01*
X22965922Y-21454800D01*
X22965925Y-21454809D01*
X22966440Y-21456054D01*
X22966442Y-21456056D01*
X22966443Y-21456058D01*
X22995505Y-21485120D01*
X23023281Y-21539635D01*
X23024458Y-21554590D01*
X23024499Y-21554797D01*
X23024500Y-21554799D01*
X23024500Y-21554800D01*
X23061946Y-21645202D01*
X23065922Y-21654800D01*
X23065925Y-21654809D01*
X23066440Y-21656054D01*
X23066442Y-21656056D01*
X23066443Y-21656058D01*
X26874891Y-25464507D01*
X28139153Y-26728769D01*
X28166930Y-26783286D01*
X28157359Y-26843718D01*
X28118650Y-26884509D01*
X28023389Y-26939509D01*
X27939507Y-27023391D01*
X27880202Y-27126109D01*
X27869996Y-27164198D01*
X27849500Y-27240691D01*
X27849500Y-27359309D01*
X27869859Y-27435288D01*
X27880202Y-27473890D01*
X27939507Y-27576608D01*
X27939509Y-27576610D01*
X27939511Y-27576613D01*
X28023387Y-27660489D01*
X28023389Y-27660490D01*
X28023391Y-27660492D01*
X28126110Y-27719797D01*
X28126111Y-27719797D01*
X28126114Y-27719799D01*
X28240691Y-27750500D01*
X28240693Y-27750500D01*
X28359308Y-27750500D01*
X28359309Y-27750500D01*
X28399876Y-27739630D01*
X28460978Y-27742831D01*
X28508528Y-27781336D01*
X28524500Y-27835256D01*
X28524500Y-28354800D01*
X28553372Y-28424502D01*
X28563727Y-28449500D01*
X28563730Y-28449507D01*
X28566442Y-28456057D01*
X28941381Y-28830997D01*
X28969158Y-28885513D01*
X28959587Y-28945945D01*
X28916322Y-28989210D01*
X28871377Y-29000000D01*
X21560725Y-29000000D01*
X21502534Y-28981093D01*
X21466570Y-28931593D01*
X21466570Y-28870407D01*
X21474989Y-28851500D01*
X21519797Y-28773890D01*
X21519797Y-28773888D01*
X21519799Y-28773886D01*
X21550500Y-28659309D01*
X21550500Y-28540691D01*
X21519799Y-28426114D01*
X21519797Y-28426111D01*
X21519797Y-28426109D01*
X21460492Y-28323391D01*
X21460490Y-28323389D01*
X21460489Y-28323387D01*
X21376613Y-28239511D01*
X21376610Y-28239509D01*
X21376608Y-28239507D01*
X21273889Y-28180202D01*
X21273890Y-28180202D01*
X21250318Y-28173886D01*
X21159309Y-28149500D01*
X21040691Y-28149500D01*
X20970567Y-28168289D01*
X20926109Y-28180202D01*
X20823391Y-28239507D01*
X20739507Y-28323391D01*
X20680202Y-28426109D01*
X20673933Y-28449507D01*
X20649500Y-28540691D01*
X20649500Y-28659309D01*
X20668629Y-28730700D01*
X20680202Y-28773890D01*
X20725011Y-28851500D01*
X20737733Y-28911348D01*
X20712847Y-28967244D01*
X20659859Y-28997837D01*
X20639275Y-29000000D01*
X11561879Y-29000000D01*
X11503688Y-28981093D01*
X11476142Y-28950499D01*
X11469796Y-28939508D01*
X11460489Y-28923387D01*
X11376613Y-28839511D01*
X11376610Y-28839509D01*
X11376608Y-28839507D01*
X11273889Y-28780202D01*
X11273890Y-28780202D01*
X11250318Y-28773886D01*
X11159309Y-28749500D01*
X11040691Y-28749500D01*
X10970567Y-28768289D01*
X10926109Y-28780202D01*
X10823391Y-28839507D01*
X10739509Y-28923389D01*
X10723858Y-28950499D01*
X10678389Y-28991441D01*
X10638121Y-29000000D01*
X7678110Y-29000000D01*
X7619919Y-28981093D01*
X7608107Y-28971005D01*
X7596293Y-28959191D01*
X7576613Y-28939511D01*
X7576610Y-28939509D01*
X7576609Y-28939508D01*
X7576608Y-28939507D01*
X7473889Y-28880202D01*
X7473890Y-28880202D01*
X7460351Y-28876574D01*
X7359309Y-28849500D01*
X7240691Y-28849500D01*
X7170567Y-28868289D01*
X7126109Y-28880202D01*
X7023391Y-28939507D01*
X6991893Y-28971005D01*
X6937376Y-28998781D01*
X6921890Y-29000000D01*
X1099000Y-29000000D01*
X1040809Y-28981093D01*
X1004845Y-28931593D01*
X1000000Y-28901000D01*
X1000000Y-27540691D01*
X6774500Y-27540691D01*
X6774500Y-27659309D01*
X6796022Y-27739630D01*
X6805202Y-27773890D01*
X6864507Y-27876608D01*
X6864509Y-27876610D01*
X6864511Y-27876613D01*
X6948387Y-27960489D01*
X6948389Y-27960490D01*
X6948391Y-27960492D01*
X7051110Y-28019797D01*
X7051111Y-28019797D01*
X7051114Y-28019799D01*
X7165691Y-28050500D01*
X7165693Y-28050500D01*
X7284307Y-28050500D01*
X7284309Y-28050500D01*
X7398886Y-28019799D01*
X7398888Y-28019797D01*
X7398890Y-28019797D01*
X7501608Y-27960492D01*
X7501608Y-27960491D01*
X7501613Y-27960489D01*
X7585489Y-27876613D01*
X7587061Y-27873890D01*
X7644797Y-27773890D01*
X7644797Y-27773888D01*
X7644799Y-27773886D01*
X7675500Y-27659309D01*
X7675500Y-27540691D01*
X7644799Y-27426114D01*
X7644797Y-27426111D01*
X7644797Y-27426109D01*
X7585492Y-27323391D01*
X7585490Y-27323389D01*
X7585489Y-27323387D01*
X7501613Y-27239511D01*
X7501610Y-27239509D01*
X7501608Y-27239507D01*
X7398889Y-27180202D01*
X7398890Y-27180202D01*
X7379700Y-27175060D01*
X7284309Y-27149500D01*
X7165691Y-27149500D01*
X7110838Y-27164198D01*
X7051109Y-27180202D01*
X6948391Y-27239507D01*
X6864507Y-27323391D01*
X6805202Y-27426109D01*
X6793720Y-27468960D01*
X6774500Y-27540691D01*
X1000000Y-27540691D01*
X1000000Y-26815691D01*
X11049500Y-26815691D01*
X11049500Y-26934309D01*
X11056956Y-26962135D01*
X11080202Y-27048890D01*
X11139507Y-27151608D01*
X11139509Y-27151610D01*
X11139511Y-27151613D01*
X11223387Y-27235489D01*
X11223389Y-27235490D01*
X11223391Y-27235492D01*
X11326110Y-27294797D01*
X11326111Y-27294797D01*
X11326114Y-27294799D01*
X11440691Y-27325500D01*
X11440693Y-27325500D01*
X11559307Y-27325500D01*
X11559309Y-27325500D01*
X11673886Y-27294799D01*
X11673888Y-27294797D01*
X11673890Y-27294797D01*
X11767603Y-27240691D01*
X12849500Y-27240691D01*
X12849500Y-27359309D01*
X12869859Y-27435288D01*
X12880202Y-27473890D01*
X12939507Y-27576608D01*
X12939509Y-27576610D01*
X12939511Y-27576613D01*
X13023387Y-27660489D01*
X13023389Y-27660490D01*
X13023391Y-27660492D01*
X13126110Y-27719797D01*
X13126111Y-27719797D01*
X13126114Y-27719799D01*
X13240691Y-27750500D01*
X13240693Y-27750500D01*
X13359307Y-27750500D01*
X13359309Y-27750500D01*
X13473886Y-27719799D01*
X13473888Y-27719797D01*
X13473890Y-27719797D01*
X13576608Y-27660492D01*
X13576608Y-27660491D01*
X13576613Y-27660489D01*
X13660489Y-27576613D01*
X13676143Y-27549500D01*
X13681229Y-27540691D01*
X21774500Y-27540691D01*
X21774500Y-27659309D01*
X21796022Y-27739630D01*
X21805202Y-27773890D01*
X21864507Y-27876608D01*
X21864509Y-27876610D01*
X21864511Y-27876613D01*
X21948387Y-27960489D01*
X21948389Y-27960490D01*
X21948391Y-27960492D01*
X22051110Y-28019797D01*
X22051111Y-28019797D01*
X22051114Y-28019799D01*
X22165691Y-28050500D01*
X22165693Y-28050500D01*
X22284307Y-28050500D01*
X22284309Y-28050500D01*
X22398886Y-28019799D01*
X22398888Y-28019797D01*
X22398890Y-28019797D01*
X22501608Y-27960492D01*
X22501608Y-27960491D01*
X22501613Y-27960489D01*
X22585489Y-27876613D01*
X22587061Y-27873890D01*
X22644797Y-27773890D01*
X22644797Y-27773888D01*
X22644799Y-27773886D01*
X22675500Y-27659309D01*
X22675500Y-27540691D01*
X22644799Y-27426114D01*
X22644797Y-27426111D01*
X22644797Y-27426109D01*
X22585492Y-27323391D01*
X22585490Y-27323389D01*
X22585489Y-27323387D01*
X22501613Y-27239511D01*
X22501610Y-27239509D01*
X22501608Y-27239507D01*
X22398889Y-27180202D01*
X22398890Y-27180202D01*
X22379700Y-27175060D01*
X22284309Y-27149500D01*
X22165691Y-27149500D01*
X22110838Y-27164198D01*
X22051109Y-27180202D01*
X21948391Y-27239507D01*
X21864507Y-27323391D01*
X21805202Y-27426109D01*
X21793720Y-27468960D01*
X21774500Y-27540691D01*
X13681229Y-27540691D01*
X13713555Y-27484702D01*
X13713555Y-27484701D01*
X13716153Y-27480201D01*
X13719799Y-27473886D01*
X13750500Y-27359309D01*
X13750500Y-27240691D01*
X13719799Y-27126114D01*
X13719797Y-27126111D01*
X13719797Y-27126109D01*
X13660492Y-27023391D01*
X13660490Y-27023389D01*
X13660489Y-27023387D01*
X13576613Y-26939511D01*
X13576610Y-26939509D01*
X13576608Y-26939507D01*
X13499412Y-26894938D01*
X13499411Y-26894938D01*
X13473888Y-26880202D01*
X13473887Y-26880201D01*
X13473886Y-26880201D01*
X13359309Y-26849500D01*
X13240691Y-26849500D01*
X13170567Y-26868289D01*
X13126109Y-26880202D01*
X13023391Y-26939507D01*
X12939507Y-27023391D01*
X12880202Y-27126109D01*
X12869996Y-27164198D01*
X12849500Y-27240691D01*
X11767603Y-27240691D01*
X11776608Y-27235492D01*
X11776608Y-27235491D01*
X11776613Y-27235489D01*
X11860489Y-27151613D01*
X11900654Y-27082046D01*
X11919797Y-27048890D01*
X11919797Y-27048888D01*
X11919799Y-27048886D01*
X11950500Y-26934309D01*
X11950500Y-26815691D01*
X26049500Y-26815691D01*
X26049500Y-26934309D01*
X26056956Y-26962135D01*
X26080202Y-27048890D01*
X26139507Y-27151608D01*
X26139509Y-27151610D01*
X26139511Y-27151613D01*
X26223387Y-27235489D01*
X26223389Y-27235490D01*
X26223391Y-27235492D01*
X26326110Y-27294797D01*
X26326111Y-27294797D01*
X26326114Y-27294799D01*
X26440691Y-27325500D01*
X26440693Y-27325500D01*
X26559307Y-27325500D01*
X26559309Y-27325500D01*
X26673886Y-27294799D01*
X26673888Y-27294797D01*
X26673890Y-27294797D01*
X26776608Y-27235492D01*
X26776608Y-27235491D01*
X26776613Y-27235489D01*
X26860489Y-27151613D01*
X26900654Y-27082046D01*
X26919797Y-27048890D01*
X26919797Y-27048888D01*
X26919799Y-27048886D01*
X26950500Y-26934309D01*
X26950500Y-26815691D01*
X26919799Y-26701114D01*
X26919797Y-26701111D01*
X26919797Y-26701109D01*
X26860492Y-26598391D01*
X26860490Y-26598389D01*
X26860489Y-26598387D01*
X26776613Y-26514511D01*
X26776610Y-26514509D01*
X26776608Y-26514507D01*
X26673889Y-26455202D01*
X26673890Y-26455202D01*
X26660351Y-26451574D01*
X26559309Y-26424500D01*
X26440691Y-26424500D01*
X26370567Y-26443289D01*
X26326109Y-26455202D01*
X26223391Y-26514507D01*
X26139507Y-26598391D01*
X26080202Y-26701109D01*
X26080201Y-26701114D01*
X26049500Y-26815691D01*
X11950500Y-26815691D01*
X11919799Y-26701114D01*
X11919797Y-26701111D01*
X11919797Y-26701109D01*
X11860492Y-26598391D01*
X11860490Y-26598389D01*
X11860489Y-26598387D01*
X11776613Y-26514511D01*
X11776610Y-26514509D01*
X11776608Y-26514507D01*
X11673889Y-26455202D01*
X11673890Y-26455202D01*
X11660351Y-26451574D01*
X11559309Y-26424500D01*
X11440691Y-26424500D01*
X11370567Y-26443289D01*
X11326109Y-26455202D01*
X11223391Y-26514507D01*
X11139507Y-26598391D01*
X11080202Y-26701109D01*
X11080201Y-26701114D01*
X11049500Y-26815691D01*
X1000000Y-26815691D01*
X1000000Y-25765691D01*
X15699499Y-25765691D01*
X15699499Y-25884309D01*
X15714304Y-25939562D01*
X15730201Y-25998890D01*
X15789506Y-26101608D01*
X15789508Y-26101610D01*
X15789510Y-26101613D01*
X15873386Y-26185489D01*
X15873388Y-26185490D01*
X15873390Y-26185492D01*
X15976109Y-26244797D01*
X15976110Y-26244797D01*
X15976113Y-26244799D01*
X16090690Y-26275500D01*
X16090692Y-26275500D01*
X16209306Y-26275500D01*
X16209308Y-26275500D01*
X16323885Y-26244799D01*
X16323887Y-26244797D01*
X16323889Y-26244797D01*
X16426607Y-26185492D01*
X16426607Y-26185491D01*
X16426612Y-26185489D01*
X16510488Y-26101613D01*
X16534304Y-26060363D01*
X16569796Y-25998890D01*
X16569796Y-25998888D01*
X16569798Y-25998886D01*
X16600499Y-25884309D01*
X16600499Y-25765691D01*
X16569798Y-25651114D01*
X16569796Y-25651111D01*
X16569796Y-25651109D01*
X16510491Y-25548391D01*
X16510489Y-25548389D01*
X16510488Y-25548387D01*
X16426612Y-25464511D01*
X16426609Y-25464509D01*
X16426607Y-25464507D01*
X16323888Y-25405202D01*
X16323889Y-25405202D01*
X16310350Y-25401574D01*
X16209308Y-25374500D01*
X16090690Y-25374500D01*
X16030694Y-25390576D01*
X15976108Y-25405202D01*
X15873390Y-25464507D01*
X15789506Y-25548391D01*
X15730201Y-25651109D01*
X15730200Y-25651114D01*
X15699499Y-25765691D01*
X1000000Y-25765691D01*
X1000000Y-24140691D01*
X15849500Y-24140691D01*
X15849500Y-24259309D01*
X15866669Y-24323385D01*
X15880202Y-24373890D01*
X15939507Y-24476608D01*
X15939509Y-24476610D01*
X15939511Y-24476613D01*
X16023387Y-24560489D01*
X16023389Y-24560490D01*
X16023391Y-24560492D01*
X16126110Y-24619797D01*
X16126111Y-24619797D01*
X16126114Y-24619799D01*
X16240691Y-24650500D01*
X16240693Y-24650500D01*
X16359307Y-24650500D01*
X16359309Y-24650500D01*
X16473886Y-24619799D01*
X16473888Y-24619797D01*
X16473890Y-24619797D01*
X16576608Y-24560492D01*
X16576608Y-24560491D01*
X16576613Y-24560489D01*
X16660489Y-24476613D01*
X16662061Y-24473890D01*
X16719797Y-24373890D01*
X16719797Y-24373888D01*
X16719799Y-24373886D01*
X16750500Y-24259309D01*
X16750500Y-24140691D01*
X16719799Y-24026114D01*
X16719797Y-24026111D01*
X16719797Y-24026109D01*
X16660492Y-23923391D01*
X16660490Y-23923389D01*
X16660489Y-23923387D01*
X16576613Y-23839511D01*
X16576610Y-23839509D01*
X16576608Y-23839507D01*
X16473889Y-23780202D01*
X16473890Y-23780202D01*
X16450318Y-23773886D01*
X16359309Y-23749500D01*
X16240691Y-23749500D01*
X16170567Y-23768289D01*
X16126109Y-23780202D01*
X16023391Y-23839507D01*
X15939507Y-23923391D01*
X15880202Y-24026109D01*
X15871245Y-24059539D01*
X15849500Y-24140691D01*
X1000000Y-24140691D01*
X1000000Y-23040691D01*
X6149500Y-23040691D01*
X6149500Y-23159309D01*
X6172914Y-23246692D01*
X6180202Y-23273890D01*
X6239507Y-23376608D01*
X6239509Y-23376610D01*
X6239511Y-23376613D01*
X6323387Y-23460489D01*
X6323389Y-23460490D01*
X6323391Y-23460492D01*
X6426110Y-23519797D01*
X6426111Y-23519797D01*
X6426114Y-23519799D01*
X6540691Y-23550500D01*
X6540693Y-23550500D01*
X6659307Y-23550500D01*
X6659309Y-23550500D01*
X6695916Y-23540691D01*
X18749500Y-23540691D01*
X18749500Y-23659309D01*
X18754678Y-23678633D01*
X18780202Y-23773890D01*
X18839507Y-23876608D01*
X18839509Y-23876610D01*
X18839511Y-23876613D01*
X18923387Y-23960489D01*
X18923389Y-23960490D01*
X18923391Y-23960492D01*
X19026110Y-24019797D01*
X19026111Y-24019797D01*
X19026114Y-24019799D01*
X19140691Y-24050500D01*
X19140693Y-24050500D01*
X19259307Y-24050500D01*
X19259309Y-24050500D01*
X19373886Y-24019799D01*
X19373888Y-24019797D01*
X19373890Y-24019797D01*
X19476608Y-23960492D01*
X19476608Y-23960491D01*
X19476613Y-23960489D01*
X19560489Y-23876613D01*
X19578813Y-23844876D01*
X19619797Y-23773890D01*
X19619797Y-23773888D01*
X19619799Y-23773886D01*
X19650500Y-23659309D01*
X19650500Y-23540691D01*
X19619799Y-23426114D01*
X19619797Y-23426111D01*
X19619797Y-23426109D01*
X19560492Y-23323391D01*
X19560490Y-23323389D01*
X19560489Y-23323387D01*
X19476613Y-23239511D01*
X19476610Y-23239509D01*
X19476608Y-23239507D01*
X19373889Y-23180202D01*
X19373890Y-23180202D01*
X19330930Y-23168691D01*
X19259309Y-23149500D01*
X19140691Y-23149500D01*
X19070567Y-23168289D01*
X19026109Y-23180202D01*
X18923391Y-23239507D01*
X18839507Y-23323391D01*
X18780202Y-23426109D01*
X18769395Y-23466443D01*
X18749500Y-23540691D01*
X6695916Y-23540691D01*
X6773886Y-23519799D01*
X6773888Y-23519797D01*
X6773890Y-23519797D01*
X6876608Y-23460492D01*
X6876608Y-23460491D01*
X6876613Y-23460489D01*
X6960489Y-23376613D01*
X7019799Y-23273886D01*
X7027086Y-23246690D01*
X7060408Y-23195377D01*
X7117529Y-23173449D01*
X7176630Y-23189284D01*
X7208448Y-23222812D01*
X7237938Y-23273889D01*
X7239511Y-23276613D01*
X7323387Y-23360489D01*
X7323389Y-23360490D01*
X7323391Y-23360492D01*
X7426110Y-23419797D01*
X7426111Y-23419797D01*
X7426114Y-23419799D01*
X7540691Y-23450500D01*
X7540693Y-23450500D01*
X7659307Y-23450500D01*
X7659309Y-23450500D01*
X7773886Y-23419799D01*
X7773888Y-23419797D01*
X7773890Y-23419797D01*
X7876608Y-23360492D01*
X7876608Y-23360491D01*
X7876613Y-23360489D01*
X7929998Y-23307103D01*
X7984513Y-23279328D01*
X8044945Y-23288899D01*
X8070000Y-23307102D01*
X8123387Y-23360489D01*
X8123389Y-23360490D01*
X8123391Y-23360492D01*
X8226110Y-23419797D01*
X8226111Y-23419797D01*
X8226114Y-23419799D01*
X8340691Y-23450500D01*
X8340693Y-23450500D01*
X8459307Y-23450500D01*
X8459309Y-23450500D01*
X8573886Y-23419799D01*
X8573888Y-23419797D01*
X8573890Y-23419797D01*
X8676608Y-23360492D01*
X8676608Y-23360491D01*
X8676613Y-23360489D01*
X8760489Y-23276613D01*
X8762062Y-23273888D01*
X8819797Y-23173890D01*
X8819797Y-23173888D01*
X8819799Y-23173886D01*
X8850500Y-23059309D01*
X8850500Y-22940691D01*
X8819799Y-22826114D01*
X8819797Y-22826110D01*
X8819797Y-22826109D01*
X8795313Y-22783702D01*
X8770480Y-22740691D01*
X15349500Y-22740691D01*
X15349500Y-22859309D01*
X15372944Y-22946801D01*
X15380202Y-22973890D01*
X15439507Y-23076608D01*
X15439509Y-23076610D01*
X15439511Y-23076613D01*
X15523387Y-23160489D01*
X15523389Y-23160490D01*
X15523391Y-23160492D01*
X15626110Y-23219797D01*
X15626111Y-23219797D01*
X15626114Y-23219799D01*
X15740691Y-23250500D01*
X15740693Y-23250500D01*
X15859307Y-23250500D01*
X15859309Y-23250500D01*
X15973886Y-23219799D01*
X15973888Y-23219797D01*
X15973890Y-23219797D01*
X16076608Y-23160492D01*
X16076608Y-23160491D01*
X16076613Y-23160489D01*
X16160489Y-23076613D01*
X16181229Y-23040691D01*
X20949500Y-23040691D01*
X20949500Y-23159309D01*
X20972914Y-23246692D01*
X20980202Y-23273890D01*
X21039507Y-23376608D01*
X21039509Y-23376610D01*
X21039511Y-23376613D01*
X21123387Y-23460489D01*
X21123389Y-23460490D01*
X21123391Y-23460492D01*
X21226110Y-23519797D01*
X21226111Y-23519797D01*
X21226114Y-23519799D01*
X21340691Y-23550500D01*
X21340693Y-23550500D01*
X21459307Y-23550500D01*
X21459309Y-23550500D01*
X21573886Y-23519799D01*
X21587015Y-23512218D01*
X21646861Y-23499496D01*
X21673280Y-23506034D01*
X21759925Y-23540692D01*
X21795557Y-23554945D01*
X21796675Y-23555400D01*
X21845294Y-23575539D01*
X21846288Y-23575724D01*
X21847481Y-23575954D01*
X21853209Y-23577093D01*
X21854070Y-23577173D01*
X21858146Y-23577932D01*
X21857695Y-23580352D01*
X21902772Y-23594391D01*
X21915568Y-23605184D01*
X21943941Y-23633557D01*
X21958439Y-23639562D01*
X22045200Y-23675500D01*
X22045202Y-23675500D01*
X22054765Y-23677403D01*
X22054520Y-23678633D01*
X22103067Y-23694407D01*
X22114879Y-23704495D01*
X22143941Y-23733557D01*
X22172048Y-23745199D01*
X22172049Y-23745200D01*
X22193474Y-23754074D01*
X22245200Y-23775500D01*
X22444876Y-23775500D01*
X22503067Y-23794407D01*
X22514879Y-23804495D01*
X22543941Y-23833557D01*
X22558316Y-23839511D01*
X22645200Y-23875500D01*
X22645202Y-23875500D01*
X22654765Y-23877403D01*
X22654520Y-23878633D01*
X22703067Y-23894407D01*
X22714879Y-23904495D01*
X22743941Y-23933557D01*
X22758316Y-23939511D01*
X22845200Y-23975500D01*
X22944876Y-23975500D01*
X23003067Y-23994407D01*
X23014879Y-24004495D01*
X23043941Y-24033557D01*
X23069009Y-24043940D01*
X23069011Y-24043942D01*
X23069012Y-24043942D01*
X23084845Y-24050500D01*
X23145200Y-24075500D01*
X23244877Y-24075500D01*
X23303068Y-24094407D01*
X23314881Y-24104496D01*
X23720504Y-24510119D01*
X23748281Y-24564636D01*
X23749500Y-24580123D01*
X23749500Y-24659309D01*
X23771306Y-24740688D01*
X23780202Y-24773890D01*
X23839507Y-24876608D01*
X23839509Y-24876610D01*
X23839511Y-24876613D01*
X23923387Y-24960489D01*
X23923389Y-24960490D01*
X23923391Y-24960492D01*
X24026110Y-25019797D01*
X24026111Y-25019797D01*
X24026114Y-25019799D01*
X24140691Y-25050500D01*
X24140693Y-25050500D01*
X24259307Y-25050500D01*
X24259309Y-25050500D01*
X24373886Y-25019799D01*
X24373888Y-25019797D01*
X24373890Y-25019797D01*
X24476608Y-24960492D01*
X24476608Y-24960491D01*
X24476613Y-24960489D01*
X24560489Y-24876613D01*
X24578813Y-24844876D01*
X24619797Y-24773890D01*
X24619797Y-24773888D01*
X24619799Y-24773886D01*
X24650500Y-24659309D01*
X24650500Y-24540691D01*
X24619799Y-24426114D01*
X24619797Y-24426111D01*
X24619797Y-24426109D01*
X24560492Y-24323391D01*
X24560490Y-24323389D01*
X24560489Y-24323387D01*
X24476613Y-24239511D01*
X24476610Y-24239509D01*
X24476608Y-24239507D01*
X24373889Y-24180202D01*
X24373890Y-24180202D01*
X24360351Y-24176574D01*
X24259309Y-24149500D01*
X24180123Y-24149500D01*
X24121932Y-24130593D01*
X24110119Y-24120504D01*
X23842944Y-23853329D01*
X23560843Y-23571228D01*
X23533068Y-23516714D01*
X23542639Y-23456282D01*
X23581349Y-23415491D01*
X23676608Y-23360492D01*
X23676608Y-23360491D01*
X23676613Y-23360489D01*
X23760489Y-23276613D01*
X23762062Y-23273888D01*
X23819797Y-23173890D01*
X23819797Y-23173888D01*
X23819799Y-23173886D01*
X23850500Y-23059309D01*
X23850500Y-22940691D01*
X23819799Y-22826114D01*
X23819797Y-22826110D01*
X23819797Y-22826109D01*
X23760492Y-22723391D01*
X23760490Y-22723389D01*
X23760489Y-22723387D01*
X23676613Y-22639511D01*
X23676610Y-22639509D01*
X23676608Y-22639507D01*
X23573889Y-22580202D01*
X23573890Y-22580202D01*
X23520484Y-22565892D01*
X23459309Y-22549500D01*
X23340691Y-22549500D01*
X23279523Y-22565890D01*
X23226109Y-22580202D01*
X23123391Y-22639507D01*
X23123390Y-22639508D01*
X23123387Y-22639510D01*
X23123387Y-22639511D01*
X23070001Y-22692896D01*
X23015487Y-22720672D01*
X22955055Y-22711101D01*
X22929999Y-22692897D01*
X22876613Y-22639511D01*
X22876610Y-22639509D01*
X22876608Y-22639507D01*
X22773889Y-22580202D01*
X22773890Y-22580202D01*
X22720484Y-22565892D01*
X22659309Y-22549500D01*
X22540691Y-22549500D01*
X22479523Y-22565890D01*
X22426109Y-22580202D01*
X22323391Y-22639507D01*
X22239507Y-22723391D01*
X22180202Y-22826109D01*
X22171307Y-22859307D01*
X22153408Y-22926109D01*
X22147821Y-22946959D01*
X22145963Y-22946461D01*
X22123461Y-22993644D01*
X22069692Y-23022841D01*
X22051646Y-23024500D01*
X21972122Y-23024500D01*
X21935355Y-23017419D01*
X21879357Y-22995020D01*
X21832350Y-22955854D01*
X21820498Y-22928723D01*
X21819799Y-22926114D01*
X21819796Y-22926108D01*
X21760492Y-22823391D01*
X21760490Y-22823389D01*
X21760489Y-22823387D01*
X21676613Y-22739511D01*
X21676610Y-22739509D01*
X21676608Y-22739507D01*
X21573889Y-22680202D01*
X21573890Y-22680202D01*
X21522350Y-22666392D01*
X21459309Y-22649500D01*
X21340691Y-22649500D01*
X21277657Y-22666390D01*
X21226109Y-22680202D01*
X21123391Y-22739507D01*
X21039507Y-22823391D01*
X20980202Y-22926109D01*
X20972232Y-22955854D01*
X20949500Y-23040691D01*
X16181229Y-23040691D01*
X16219799Y-22973886D01*
X16227462Y-22945285D01*
X16260784Y-22893973D01*
X16317904Y-22872045D01*
X16377005Y-22887879D01*
X16390882Y-22899115D01*
X16392690Y-22900503D01*
X16506810Y-22966390D01*
X16506808Y-22966390D01*
X16506812Y-22966391D01*
X16506814Y-22966392D01*
X16634108Y-23000500D01*
X16634110Y-23000500D01*
X16765890Y-23000500D01*
X16765892Y-23000500D01*
X16893186Y-22966392D01*
X16893188Y-22966390D01*
X16893190Y-22966390D01*
X16924236Y-22948466D01*
X17007309Y-22900503D01*
X17007309Y-22900502D01*
X17007314Y-22900500D01*
X17100500Y-22807314D01*
X17112873Y-22785884D01*
X17166390Y-22693190D01*
X17166390Y-22693188D01*
X17166392Y-22693186D01*
X17200500Y-22565892D01*
X17200500Y-22434108D01*
X17166392Y-22306814D01*
X17166390Y-22306810D01*
X17166390Y-22306809D01*
X17100503Y-22192690D01*
X17100501Y-22192688D01*
X17100500Y-22192686D01*
X17007314Y-22099500D01*
X17007311Y-22099498D01*
X17007309Y-22099496D01*
X16893189Y-22033609D01*
X16893191Y-22033609D01*
X16823291Y-22014880D01*
X16765892Y-21999500D01*
X16634108Y-21999500D01*
X16576709Y-22014880D01*
X16506809Y-22033609D01*
X16392690Y-22099496D01*
X16299496Y-22192690D01*
X16233610Y-22306808D01*
X16233608Y-22306812D01*
X16233608Y-22306814D01*
X16220664Y-22355122D01*
X16215175Y-22375608D01*
X16181850Y-22426922D01*
X16124729Y-22448848D01*
X16070048Y-22435720D01*
X15973889Y-22380202D01*
X15973890Y-22380202D01*
X15953599Y-22374765D01*
X15859309Y-22349500D01*
X15740691Y-22349500D01*
X15670567Y-22368289D01*
X15626109Y-22380202D01*
X15523391Y-22439507D01*
X15439507Y-22523391D01*
X15380202Y-22626109D01*
X15372428Y-22655122D01*
X15349500Y-22740691D01*
X8770480Y-22740691D01*
X8760492Y-22723391D01*
X8760490Y-22723389D01*
X8760489Y-22723387D01*
X8676613Y-22639511D01*
X8676610Y-22639509D01*
X8676608Y-22639507D01*
X8573889Y-22580202D01*
X8573890Y-22580202D01*
X8520484Y-22565892D01*
X8459309Y-22549500D01*
X8340691Y-22549500D01*
X8279523Y-22565890D01*
X8226109Y-22580202D01*
X8123391Y-22639507D01*
X8123390Y-22639508D01*
X8123387Y-22639510D01*
X8123387Y-22639511D01*
X8070001Y-22692896D01*
X8015487Y-22720672D01*
X7955055Y-22711101D01*
X7929999Y-22692897D01*
X7876613Y-22639511D01*
X7876610Y-22639509D01*
X7876608Y-22639507D01*
X7773889Y-22580202D01*
X7773890Y-22580202D01*
X7720484Y-22565892D01*
X7659309Y-22549500D01*
X7540691Y-22549500D01*
X7479523Y-22565890D01*
X7426109Y-22580202D01*
X7323391Y-22639507D01*
X7239507Y-22723391D01*
X7180202Y-22826110D01*
X7180201Y-22826112D01*
X7172913Y-22853311D01*
X7139588Y-22904625D01*
X7082467Y-22926550D01*
X7023366Y-22910713D01*
X6991551Y-22877186D01*
X6960492Y-22823391D01*
X6960490Y-22823389D01*
X6960489Y-22823387D01*
X6876613Y-22739511D01*
X6876610Y-22739509D01*
X6876608Y-22739507D01*
X6773889Y-22680202D01*
X6773890Y-22680202D01*
X6722350Y-22666392D01*
X6659309Y-22649500D01*
X6540691Y-22649500D01*
X6477657Y-22666390D01*
X6426109Y-22680202D01*
X6323391Y-22739507D01*
X6239507Y-22823391D01*
X6180202Y-22926109D01*
X6172232Y-22955854D01*
X6149500Y-23040691D01*
X1000000Y-23040691D01*
X1000000Y-22896821D01*
X1018907Y-22838630D01*
X1068407Y-22802666D01*
X1129593Y-22802666D01*
X1169001Y-22826815D01*
X1242686Y-22900500D01*
X1242688Y-22900501D01*
X1242690Y-22900503D01*
X1356810Y-22966390D01*
X1356808Y-22966390D01*
X1356812Y-22966391D01*
X1356814Y-22966392D01*
X1484108Y-23000500D01*
X1484110Y-23000500D01*
X1615890Y-23000500D01*
X1615892Y-23000500D01*
X1743186Y-22966392D01*
X1743188Y-22966390D01*
X1743190Y-22966390D01*
X1774236Y-22948466D01*
X1857309Y-22900503D01*
X1857309Y-22900502D01*
X1857314Y-22900500D01*
X1950500Y-22807314D01*
X1962873Y-22785884D01*
X2016390Y-22693190D01*
X2016390Y-22693188D01*
X2016392Y-22693186D01*
X2050500Y-22565892D01*
X2050500Y-22434108D01*
X2016392Y-22306814D01*
X2016390Y-22306810D01*
X2016390Y-22306809D01*
X1950503Y-22192690D01*
X1950501Y-22192688D01*
X1950500Y-22192686D01*
X1857314Y-22099500D01*
X1857311Y-22099498D01*
X1857309Y-22099496D01*
X1743189Y-22033609D01*
X1743191Y-22033609D01*
X1673291Y-22014880D01*
X1615892Y-21999500D01*
X1484108Y-21999500D01*
X1426709Y-22014880D01*
X1356809Y-22033609D01*
X1242690Y-22099496D01*
X1242689Y-22099497D01*
X1242686Y-22099499D01*
X1242686Y-22099500D01*
X1169001Y-22173184D01*
X1114487Y-22200960D01*
X1054055Y-22191389D01*
X1010790Y-22148124D01*
X1000000Y-22103179D01*
X1000000Y-20396821D01*
X1018907Y-20338630D01*
X1068407Y-20302666D01*
X1129593Y-20302666D01*
X1169001Y-20326815D01*
X1242686Y-20400500D01*
X1242688Y-20400501D01*
X1242690Y-20400503D01*
X1356810Y-20466390D01*
X1356808Y-20466390D01*
X1356812Y-20466391D01*
X1356814Y-20466392D01*
X1484108Y-20500500D01*
X1484110Y-20500500D01*
X1615890Y-20500500D01*
X1615892Y-20500500D01*
X1743186Y-20466392D01*
X1743188Y-20466390D01*
X1743190Y-20466390D01*
X1857309Y-20400503D01*
X1857309Y-20400502D01*
X1857314Y-20400500D01*
X1950500Y-20307314D01*
X1986549Y-20244876D01*
X2016390Y-20193190D01*
X2016390Y-20193188D01*
X2016392Y-20193186D01*
X2050500Y-20065892D01*
X2050500Y-19934108D01*
X16199500Y-19934108D01*
X16199500Y-20065892D01*
X16223660Y-20156058D01*
X16233609Y-20193190D01*
X16299496Y-20307309D01*
X16299498Y-20307311D01*
X16299500Y-20307314D01*
X16392686Y-20400500D01*
X16395281Y-20401998D01*
X16396717Y-20403593D01*
X16397835Y-20404451D01*
X16397676Y-20404658D01*
X16436221Y-20447469D01*
X16442615Y-20508319D01*
X16431516Y-20537234D01*
X16380201Y-20626112D01*
X16359733Y-20702498D01*
X16349500Y-20740691D01*
X16349500Y-20859309D01*
X16372515Y-20945200D01*
X16380202Y-20973890D01*
X16439507Y-21076608D01*
X16439509Y-21076610D01*
X16439511Y-21076613D01*
X16523387Y-21160489D01*
X16523389Y-21160490D01*
X16523391Y-21160492D01*
X16626110Y-21219797D01*
X16626111Y-21219797D01*
X16626114Y-21219799D01*
X16740691Y-21250500D01*
X16740693Y-21250500D01*
X16859307Y-21250500D01*
X16859309Y-21250500D01*
X16973886Y-21219799D01*
X16973888Y-21219797D01*
X16973890Y-21219797D01*
X17076608Y-21160492D01*
X17076608Y-21160491D01*
X17076613Y-21160489D01*
X17160489Y-21076613D01*
X17179352Y-21043942D01*
X17219797Y-20973890D01*
X17219797Y-20973888D01*
X17219799Y-20973886D01*
X17250500Y-20859309D01*
X17250500Y-20740691D01*
X17219799Y-20626114D01*
X17219797Y-20626111D01*
X17219797Y-20626109D01*
X17160492Y-20523391D01*
X17160490Y-20523389D01*
X17160489Y-20523387D01*
X17092459Y-20455357D01*
X17064684Y-20400843D01*
X17074255Y-20340411D01*
X17092464Y-20315350D01*
X17093699Y-20314115D01*
X17100500Y-20307314D01*
X17166392Y-20193186D01*
X17200500Y-20065892D01*
X17200500Y-19934108D01*
X17166392Y-19806814D01*
X17166390Y-19806811D01*
X17166390Y-19806809D01*
X17100503Y-19692690D01*
X17100501Y-19692688D01*
X17100500Y-19692686D01*
X17007314Y-19599500D01*
X17007311Y-19599498D01*
X17007309Y-19599496D01*
X16893189Y-19533609D01*
X16893191Y-19533609D01*
X16820436Y-19514115D01*
X16765892Y-19499500D01*
X16634108Y-19499500D01*
X16579564Y-19514115D01*
X16506809Y-19533609D01*
X16392690Y-19599496D01*
X16299496Y-19692690D01*
X16233609Y-19806809D01*
X16220751Y-19854797D01*
X16199500Y-19934108D01*
X2050500Y-19934108D01*
X2016392Y-19806814D01*
X2016390Y-19806811D01*
X2016390Y-19806809D01*
X1950503Y-19692690D01*
X1950501Y-19692688D01*
X1950500Y-19692686D01*
X1857314Y-19599500D01*
X1857311Y-19599498D01*
X1857309Y-19599496D01*
X1743189Y-19533609D01*
X1743191Y-19533609D01*
X1670436Y-19514115D01*
X1615892Y-19499500D01*
X1484108Y-19499500D01*
X1429564Y-19514115D01*
X1356809Y-19533609D01*
X1242690Y-19599496D01*
X1242689Y-19599497D01*
X1242686Y-19599499D01*
X1242686Y-19599500D01*
X1169001Y-19673184D01*
X1114487Y-19700960D01*
X1054055Y-19691389D01*
X1010790Y-19648124D01*
X1000000Y-19603179D01*
X1000000Y-18284108D01*
X10899500Y-18284108D01*
X10899500Y-18415892D01*
X10907525Y-18445841D01*
X10933609Y-18543190D01*
X10999496Y-18657309D01*
X10999498Y-18657311D01*
X10999500Y-18657314D01*
X11092686Y-18750500D01*
X11092688Y-18750501D01*
X11092690Y-18750503D01*
X11206810Y-18816390D01*
X11206808Y-18816390D01*
X11206812Y-18816391D01*
X11206814Y-18816392D01*
X11334108Y-18850500D01*
X11334110Y-18850500D01*
X11465890Y-18850500D01*
X11465892Y-18850500D01*
X11593186Y-18816392D01*
X11593188Y-18816390D01*
X11593190Y-18816390D01*
X11707309Y-18750503D01*
X11707309Y-18750502D01*
X11707314Y-18750500D01*
X11800500Y-18657314D01*
X11841740Y-18585884D01*
X11866390Y-18543190D01*
X11866390Y-18543188D01*
X11866392Y-18543186D01*
X11900500Y-18415892D01*
X11900500Y-18284108D01*
X13099500Y-18284108D01*
X13099500Y-18415892D01*
X13107525Y-18445841D01*
X13133609Y-18543190D01*
X13199496Y-18657309D01*
X13199498Y-18657311D01*
X13199500Y-18657314D01*
X13292686Y-18750500D01*
X13292688Y-18750501D01*
X13292690Y-18750503D01*
X13406810Y-18816390D01*
X13406808Y-18816390D01*
X13406812Y-18816391D01*
X13406814Y-18816392D01*
X13534108Y-18850500D01*
X13534110Y-18850500D01*
X13665890Y-18850500D01*
X13665892Y-18850500D01*
X13793186Y-18816392D01*
X13793188Y-18816390D01*
X13793190Y-18816390D01*
X13907309Y-18750503D01*
X13907309Y-18750502D01*
X13907314Y-18750500D01*
X14000500Y-18657314D01*
X14041740Y-18585884D01*
X14066390Y-18543190D01*
X14066390Y-18543188D01*
X14066392Y-18543186D01*
X14100500Y-18415892D01*
X14100500Y-18284108D01*
X15299500Y-18284108D01*
X15299500Y-18415892D01*
X15307525Y-18445841D01*
X15333609Y-18543190D01*
X15399496Y-18657309D01*
X15399498Y-18657311D01*
X15399500Y-18657314D01*
X15492686Y-18750500D01*
X15492688Y-18750501D01*
X15492690Y-18750503D01*
X15606810Y-18816390D01*
X15606808Y-18816390D01*
X15606812Y-18816391D01*
X15606814Y-18816392D01*
X15734108Y-18850500D01*
X15734110Y-18850500D01*
X15865890Y-18850500D01*
X15865892Y-18850500D01*
X15993186Y-18816392D01*
X15993188Y-18816390D01*
X15993190Y-18816390D01*
X16107309Y-18750503D01*
X16107309Y-18750502D01*
X16107314Y-18750500D01*
X16200500Y-18657314D01*
X16241740Y-18585884D01*
X16266390Y-18543190D01*
X16266390Y-18543188D01*
X16266392Y-18543186D01*
X16300500Y-18415892D01*
X16300500Y-18284108D01*
X16266392Y-18156814D01*
X16266390Y-18156811D01*
X16266390Y-18156809D01*
X16200503Y-18042690D01*
X16200501Y-18042688D01*
X16200500Y-18042686D01*
X16107314Y-17949500D01*
X16107311Y-17949498D01*
X16107309Y-17949496D01*
X15993189Y-17883609D01*
X15993191Y-17883609D01*
X15943799Y-17870375D01*
X15865892Y-17849500D01*
X15734108Y-17849500D01*
X15656200Y-17870375D01*
X15606809Y-17883609D01*
X15492690Y-17949496D01*
X15399496Y-18042690D01*
X15333609Y-18156809D01*
X15333608Y-18156814D01*
X15299500Y-18284108D01*
X14100500Y-18284108D01*
X14066392Y-18156814D01*
X14066390Y-18156811D01*
X14066390Y-18156809D01*
X14000503Y-18042690D01*
X14000501Y-18042688D01*
X14000500Y-18042686D01*
X13907314Y-17949500D01*
X13907311Y-17949498D01*
X13907309Y-17949496D01*
X13793189Y-17883609D01*
X13793191Y-17883609D01*
X13743799Y-17870375D01*
X13665892Y-17849500D01*
X13534108Y-17849500D01*
X13456200Y-17870375D01*
X13406809Y-17883609D01*
X13292690Y-17949496D01*
X13199496Y-18042690D01*
X13133609Y-18156809D01*
X13133608Y-18156814D01*
X13099500Y-18284108D01*
X11900500Y-18284108D01*
X11866392Y-18156814D01*
X11866390Y-18156811D01*
X11866390Y-18156809D01*
X11800503Y-18042690D01*
X11800501Y-18042688D01*
X11800500Y-18042686D01*
X11707314Y-17949500D01*
X11707311Y-17949498D01*
X11707309Y-17949496D01*
X11593189Y-17883609D01*
X11593191Y-17883609D01*
X11543799Y-17870375D01*
X11465892Y-17849500D01*
X11334108Y-17849500D01*
X11256200Y-17870375D01*
X11206809Y-17883609D01*
X11092690Y-17949496D01*
X10999496Y-18042690D01*
X10933609Y-18156809D01*
X10933608Y-18156814D01*
X10899500Y-18284108D01*
X1000000Y-18284108D01*
X1000000Y-13640691D01*
X9649500Y-13640691D01*
X9649500Y-13759309D01*
X9666710Y-13823538D01*
X9680202Y-13873890D01*
X9739507Y-13976608D01*
X9739509Y-13976610D01*
X9739511Y-13976613D01*
X9823387Y-14060489D01*
X9823389Y-14060490D01*
X9823391Y-14060492D01*
X9926110Y-14119797D01*
X9926111Y-14119797D01*
X9926114Y-14119799D01*
X10040691Y-14150500D01*
X10040693Y-14150500D01*
X10159307Y-14150500D01*
X10159309Y-14150500D01*
X10273886Y-14119799D01*
X10273888Y-14119797D01*
X10273890Y-14119797D01*
X10376608Y-14060492D01*
X10376608Y-14060491D01*
X10376613Y-14060489D01*
X10460489Y-13976613D01*
X10462061Y-13973890D01*
X10519797Y-13873890D01*
X10519797Y-13873888D01*
X10519799Y-13873886D01*
X10550500Y-13759309D01*
X10550500Y-13640691D01*
X10532730Y-13574373D01*
X10535931Y-13513274D01*
X10558359Y-13478742D01*
X10560489Y-13476613D01*
X10570347Y-13459539D01*
X10619797Y-13373890D01*
X10619797Y-13373888D01*
X10619799Y-13373886D01*
X10650500Y-13259309D01*
X10650500Y-13240690D01*
X11649499Y-13240690D01*
X11649499Y-13359308D01*
X11675172Y-13455122D01*
X11680201Y-13473889D01*
X11739506Y-13576607D01*
X11739508Y-13576609D01*
X11739510Y-13576612D01*
X11823386Y-13660488D01*
X11823388Y-13660489D01*
X11823390Y-13660491D01*
X11926109Y-13719796D01*
X11926110Y-13719796D01*
X11926113Y-13719798D01*
X12040690Y-13750499D01*
X12040692Y-13750499D01*
X12159306Y-13750499D01*
X12159308Y-13750499D01*
X12273885Y-13719798D01*
X12273887Y-13719796D01*
X12273889Y-13719796D01*
X12376607Y-13660491D01*
X12376607Y-13660490D01*
X12376612Y-13660488D01*
X12460488Y-13576612D01*
X12464648Y-13569407D01*
X12519796Y-13473889D01*
X12519796Y-13473887D01*
X12519798Y-13473885D01*
X12550499Y-13359308D01*
X12550499Y-13240690D01*
X12519798Y-13126113D01*
X12519796Y-13126110D01*
X12519796Y-13126108D01*
X12460491Y-13023390D01*
X12460489Y-13023388D01*
X12460488Y-13023386D01*
X12376612Y-12939510D01*
X12376609Y-12939508D01*
X12376607Y-12939506D01*
X12273888Y-12880201D01*
X12273889Y-12880201D01*
X12260350Y-12876573D01*
X12159308Y-12849499D01*
X12040690Y-12849499D01*
X11970566Y-12868288D01*
X11926108Y-12880201D01*
X11823390Y-12939506D01*
X11739506Y-13023390D01*
X11680201Y-13126108D01*
X11671305Y-13159309D01*
X11649499Y-13240690D01*
X10650500Y-13240690D01*
X10650500Y-13140691D01*
X10619799Y-13026114D01*
X10597230Y-12987025D01*
X10584509Y-12927178D01*
X10609395Y-12871282D01*
X10662382Y-12840689D01*
X10708587Y-12841897D01*
X10740691Y-12850500D01*
X10740693Y-12850500D01*
X10859307Y-12850500D01*
X10859309Y-12850500D01*
X10973886Y-12819799D01*
X10973888Y-12819797D01*
X10973890Y-12819797D01*
X11076608Y-12760492D01*
X11076608Y-12760491D01*
X11076613Y-12760489D01*
X11160489Y-12676613D01*
X11173083Y-12654800D01*
X11219797Y-12573890D01*
X11219797Y-12573888D01*
X11219799Y-12573886D01*
X11250500Y-12459309D01*
X11250500Y-12340691D01*
X11223705Y-12240691D01*
X19549500Y-12240691D01*
X19549500Y-12359309D01*
X19572178Y-12443943D01*
X19580202Y-12473890D01*
X19639507Y-12576608D01*
X19639509Y-12576610D01*
X19639511Y-12576613D01*
X19723387Y-12660489D01*
X19723389Y-12660490D01*
X19723391Y-12660492D01*
X19826110Y-12719797D01*
X19826111Y-12719797D01*
X19826114Y-12719799D01*
X19940691Y-12750500D01*
X19940693Y-12750500D01*
X20059310Y-12750500D01*
X20059310Y-12750499D01*
X20070469Y-12747509D01*
X20078933Y-12745242D01*
X20140035Y-12748443D01*
X20187585Y-12786948D01*
X20190293Y-12791367D01*
X20227643Y-12856058D01*
X20239511Y-12876613D01*
X20323387Y-12960489D01*
X20323389Y-12960490D01*
X20323391Y-12960492D01*
X20426110Y-13019797D01*
X20426111Y-13019797D01*
X20426114Y-13019799D01*
X20540691Y-13050500D01*
X20540693Y-13050500D01*
X20659307Y-13050500D01*
X20659309Y-13050500D01*
X20695916Y-13040691D01*
X23549500Y-13040691D01*
X23549500Y-13159309D01*
X23571306Y-13240690D01*
X23580202Y-13273890D01*
X23639507Y-13376608D01*
X23639509Y-13376610D01*
X23639511Y-13376613D01*
X23723387Y-13460489D01*
X23723389Y-13460490D01*
X23723391Y-13460492D01*
X23826110Y-13519797D01*
X23826111Y-13519797D01*
X23826114Y-13519799D01*
X23940691Y-13550500D01*
X23940693Y-13550500D01*
X24059307Y-13550500D01*
X24059309Y-13550500D01*
X24173886Y-13519799D01*
X24173888Y-13519797D01*
X24173890Y-13519797D01*
X24276608Y-13460492D01*
X24276608Y-13460491D01*
X24276613Y-13460489D01*
X24360489Y-13376613D01*
X24362061Y-13373890D01*
X24419797Y-13273890D01*
X24419797Y-13273888D01*
X24419799Y-13273886D01*
X24450500Y-13159309D01*
X24450500Y-13040691D01*
X24419799Y-12926114D01*
X24419797Y-12926111D01*
X24419797Y-12926109D01*
X24360492Y-12823391D01*
X24360490Y-12823389D01*
X24360489Y-12823387D01*
X24276613Y-12739511D01*
X24276610Y-12739509D01*
X24276608Y-12739507D01*
X24173889Y-12680202D01*
X24173890Y-12680202D01*
X24146347Y-12672822D01*
X24059309Y-12649500D01*
X23940691Y-12649500D01*
X23899669Y-12660492D01*
X23826109Y-12680202D01*
X23723391Y-12739507D01*
X23639507Y-12823391D01*
X23580202Y-12926109D01*
X23572428Y-12955122D01*
X23549500Y-13040691D01*
X20695916Y-13040691D01*
X20773886Y-13019799D01*
X20773888Y-13019797D01*
X20773890Y-13019797D01*
X20876608Y-12960492D01*
X20876608Y-12960491D01*
X20876613Y-12960489D01*
X20960489Y-12876613D01*
X20973083Y-12854800D01*
X21019797Y-12773890D01*
X21019797Y-12773888D01*
X21019799Y-12773886D01*
X21050500Y-12659309D01*
X21050500Y-12540691D01*
X21019799Y-12426114D01*
X21019797Y-12426111D01*
X21019797Y-12426109D01*
X20960492Y-12323391D01*
X20960490Y-12323389D01*
X20960489Y-12323387D01*
X20876613Y-12239511D01*
X20876610Y-12239509D01*
X20876608Y-12239507D01*
X20773889Y-12180202D01*
X20773890Y-12180202D01*
X20750318Y-12173886D01*
X20659309Y-12149500D01*
X20540691Y-12149500D01*
X20540690Y-12149500D01*
X20521061Y-12154759D01*
X20459959Y-12151554D01*
X20412411Y-12113046D01*
X20409706Y-12108631D01*
X20360492Y-12023391D01*
X20360490Y-12023389D01*
X20360489Y-12023387D01*
X20276613Y-11939511D01*
X20276610Y-11939509D01*
X20276608Y-11939507D01*
X20173889Y-11880202D01*
X20173890Y-11880202D01*
X20160351Y-11876574D01*
X20059309Y-11849500D01*
X19940691Y-11849500D01*
X19899669Y-11860492D01*
X19826109Y-11880202D01*
X19723391Y-11939507D01*
X19639507Y-12023391D01*
X19580202Y-12126109D01*
X19567400Y-12173886D01*
X19549500Y-12240691D01*
X11223705Y-12240691D01*
X11219799Y-12226114D01*
X11213314Y-12214881D01*
X11160492Y-12123391D01*
X11160490Y-12123389D01*
X11160489Y-12123387D01*
X11076613Y-12039511D01*
X11076610Y-12039509D01*
X11076608Y-12039507D01*
X10973889Y-11980202D01*
X10973890Y-11980202D01*
X10960351Y-11976574D01*
X10859309Y-11949500D01*
X10740691Y-11949500D01*
X10670567Y-11968289D01*
X10626109Y-11980202D01*
X10523391Y-12039507D01*
X10439507Y-12123391D01*
X10380202Y-12226109D01*
X10380201Y-12226114D01*
X10349500Y-12340691D01*
X10349500Y-12459309D01*
X10379001Y-12569407D01*
X10380202Y-12573888D01*
X10402768Y-12612973D01*
X10415490Y-12672822D01*
X10390604Y-12728717D01*
X10337616Y-12759310D01*
X10291410Y-12758101D01*
X10259309Y-12749500D01*
X10140691Y-12749500D01*
X10070567Y-12768289D01*
X10026109Y-12780202D01*
X9923391Y-12839507D01*
X9839507Y-12923391D01*
X9780202Y-13026109D01*
X9771024Y-13060363D01*
X9755078Y-13119876D01*
X9749500Y-13140692D01*
X9749500Y-13259308D01*
X9767269Y-13325626D01*
X9764066Y-13386727D01*
X9741651Y-13421246D01*
X9739512Y-13423384D01*
X9680202Y-13526111D01*
X9680201Y-13526113D01*
X9680201Y-13526114D01*
X9649500Y-13640691D01*
X1000000Y-13640691D01*
X1000000Y-12934108D01*
X2749500Y-12934108D01*
X2749500Y-13065892D01*
X2770413Y-13143941D01*
X2783609Y-13193190D01*
X2849496Y-13307309D01*
X2849498Y-13307311D01*
X2849500Y-13307314D01*
X2942686Y-13400500D01*
X2942688Y-13400501D01*
X2942690Y-13400503D01*
X3056810Y-13466390D01*
X3056808Y-13466390D01*
X3056812Y-13466391D01*
X3056814Y-13466392D01*
X3184108Y-13500500D01*
X3184110Y-13500500D01*
X3315890Y-13500500D01*
X3315892Y-13500500D01*
X3443186Y-13466392D01*
X3443188Y-13466390D01*
X3443190Y-13466390D01*
X3557309Y-13400503D01*
X3557309Y-13400502D01*
X3557314Y-13400500D01*
X3650500Y-13307314D01*
X3664264Y-13283474D01*
X3709733Y-13242534D01*
X3770583Y-13236138D01*
X3823571Y-13266731D01*
X3835734Y-13283471D01*
X3849500Y-13307314D01*
X3942686Y-13400500D01*
X3942688Y-13400501D01*
X3942690Y-13400503D01*
X4056810Y-13466390D01*
X4056808Y-13466390D01*
X4056812Y-13466391D01*
X4056814Y-13466392D01*
X4184108Y-13500500D01*
X4184110Y-13500500D01*
X4315890Y-13500500D01*
X4315892Y-13500500D01*
X4443186Y-13466392D01*
X4443188Y-13466390D01*
X4443190Y-13466390D01*
X4557309Y-13400503D01*
X4557309Y-13400502D01*
X4557314Y-13400500D01*
X4650500Y-13307314D01*
X4663315Y-13285118D01*
X4716390Y-13193190D01*
X4716390Y-13193188D01*
X4716392Y-13193186D01*
X4750500Y-13065892D01*
X4750500Y-12934108D01*
X4716392Y-12806814D01*
X4716390Y-12806811D01*
X4716390Y-12806809D01*
X4650503Y-12692690D01*
X4650501Y-12692688D01*
X4650500Y-12692686D01*
X4557314Y-12599500D01*
X4557311Y-12599498D01*
X4557309Y-12599496D01*
X4443189Y-12533609D01*
X4443191Y-12533609D01*
X4363095Y-12512148D01*
X4315892Y-12499500D01*
X4184108Y-12499500D01*
X4136905Y-12512148D01*
X4056809Y-12533609D01*
X3942690Y-12599496D01*
X3849498Y-12692688D01*
X3835736Y-12716525D01*
X3790266Y-12757465D01*
X3729416Y-12763860D01*
X3676428Y-12733267D01*
X3664264Y-12716525D01*
X3650501Y-12692688D01*
X3650500Y-12692686D01*
X3557314Y-12599500D01*
X3557311Y-12599498D01*
X3557309Y-12599496D01*
X3443189Y-12533609D01*
X3443191Y-12533609D01*
X3363095Y-12512148D01*
X3315892Y-12499500D01*
X3184108Y-12499500D01*
X3136905Y-12512148D01*
X3056809Y-12533609D01*
X2942690Y-12599496D01*
X2849496Y-12692690D01*
X2783609Y-12806809D01*
X2770750Y-12854800D01*
X2749500Y-12934108D01*
X1000000Y-12934108D01*
X1000000Y-11040691D01*
X15049500Y-11040691D01*
X15049500Y-11159309D01*
X15069357Y-11233415D01*
X15080202Y-11273890D01*
X15139507Y-11376608D01*
X15139509Y-11376610D01*
X15139511Y-11376613D01*
X15223387Y-11460489D01*
X15223389Y-11460490D01*
X15223391Y-11460492D01*
X15326110Y-11519797D01*
X15326111Y-11519797D01*
X15326114Y-11519799D01*
X15440691Y-11550500D01*
X15440693Y-11550500D01*
X15559307Y-11550500D01*
X15559309Y-11550500D01*
X15673886Y-11519799D01*
X15673888Y-11519797D01*
X15673890Y-11519797D01*
X15776608Y-11460492D01*
X15776608Y-11460491D01*
X15776613Y-11460489D01*
X15860489Y-11376613D01*
X15862061Y-11373890D01*
X15919797Y-11273890D01*
X15919797Y-11273888D01*
X15919799Y-11273886D01*
X15950500Y-11159309D01*
X15950500Y-11040691D01*
X15923705Y-10940691D01*
X16349500Y-10940691D01*
X16349500Y-11059309D01*
X16369394Y-11133555D01*
X16380202Y-11173890D01*
X16439507Y-11276608D01*
X16439509Y-11276610D01*
X16439511Y-11276613D01*
X16523387Y-11360489D01*
X16523389Y-11360490D01*
X16523391Y-11360492D01*
X16626110Y-11419797D01*
X16626111Y-11419797D01*
X16626114Y-11419799D01*
X16740691Y-11450500D01*
X16740693Y-11450500D01*
X16859307Y-11450500D01*
X16859309Y-11450500D01*
X16973886Y-11419799D01*
X16973888Y-11419797D01*
X16973890Y-11419797D01*
X17076608Y-11360492D01*
X17076608Y-11360491D01*
X17076613Y-11360489D01*
X17160489Y-11276613D01*
X17162061Y-11273890D01*
X17219797Y-11173890D01*
X17219797Y-11173888D01*
X17219799Y-11173886D01*
X17250500Y-11059309D01*
X17250500Y-10940691D01*
X17219799Y-10826114D01*
X17219797Y-10826111D01*
X17219797Y-10826109D01*
X17160492Y-10723391D01*
X17160490Y-10723389D01*
X17160489Y-10723387D01*
X17076613Y-10639511D01*
X17076610Y-10639509D01*
X17076608Y-10639507D01*
X16973889Y-10580202D01*
X16973890Y-10580202D01*
X16950318Y-10573886D01*
X16859309Y-10549500D01*
X16740691Y-10549500D01*
X16677459Y-10566443D01*
X16626109Y-10580202D01*
X16523391Y-10639507D01*
X16439507Y-10723391D01*
X16380202Y-10826109D01*
X16367508Y-10873484D01*
X16349500Y-10940691D01*
X15923705Y-10940691D01*
X15919799Y-10926114D01*
X15913664Y-10915488D01*
X15860492Y-10823391D01*
X15860490Y-10823389D01*
X15860489Y-10823387D01*
X15776613Y-10739511D01*
X15776610Y-10739509D01*
X15776608Y-10739507D01*
X15673889Y-10680202D01*
X15673890Y-10680202D01*
X15660351Y-10676574D01*
X15559309Y-10649500D01*
X15440691Y-10649500D01*
X15399669Y-10660492D01*
X15326109Y-10680202D01*
X15223391Y-10739507D01*
X15139507Y-10823391D01*
X15080202Y-10926109D01*
X15068210Y-10970865D01*
X15049500Y-11040691D01*
X1000000Y-11040691D01*
X1000000Y-9099000D01*
X1018907Y-9040809D01*
X1068407Y-9004845D01*
X1099000Y-9000000D01*
X2655879Y-9000000D01*
X2714070Y-9018907D01*
G37*
%TD.AperFunction*%
%TA.AperFunction,Conductor*%
G36*
X31071230Y-11460845D02*
G01*
X31895504Y-12285119D01*
X31923281Y-12339636D01*
X31924458Y-12354590D01*
X31924499Y-12354797D01*
X31924500Y-12354799D01*
X31924500Y-12354800D01*
X31929323Y-12366443D01*
X31954040Y-12426115D01*
X31966441Y-12456055D01*
X31966442Y-12456056D01*
X31966443Y-12456058D01*
X32195505Y-12685120D01*
X32223281Y-12739635D01*
X32224457Y-12754588D01*
X32224500Y-12754799D01*
X32224500Y-12754800D01*
X32235022Y-12780201D01*
X32263725Y-12849498D01*
X32266441Y-12856055D01*
X32266442Y-12856056D01*
X32266443Y-12856058D01*
X32295505Y-12885120D01*
X32323281Y-12939635D01*
X32324458Y-12954590D01*
X32324499Y-12954797D01*
X32324500Y-12954799D01*
X32324500Y-12954800D01*
X32354038Y-13026109D01*
X32364141Y-13050500D01*
X32364142Y-13050504D01*
X32366440Y-13056054D01*
X32366441Y-13056055D01*
X32366442Y-13056056D01*
X32366443Y-13056058D01*
X33325264Y-14014879D01*
X34283694Y-14973309D01*
X34311471Y-15027826D01*
X34301900Y-15088258D01*
X34299427Y-15092812D01*
X34280202Y-15126110D01*
X34273935Y-15149500D01*
X34249500Y-15240691D01*
X34249500Y-15359309D01*
X34269395Y-15433556D01*
X34280202Y-15473890D01*
X34339507Y-15576608D01*
X34339509Y-15576610D01*
X34339511Y-15576613D01*
X34423387Y-15660489D01*
X34423389Y-15660490D01*
X34423391Y-15660492D01*
X34526110Y-15719797D01*
X34526111Y-15719797D01*
X34526114Y-15719799D01*
X34640691Y-15750500D01*
X34640693Y-15750500D01*
X34759308Y-15750500D01*
X34759309Y-15750500D01*
X34799876Y-15739630D01*
X34860978Y-15742831D01*
X34908528Y-15781336D01*
X34924500Y-15835256D01*
X34924500Y-15854800D01*
X34949386Y-15914879D01*
X34965922Y-15954800D01*
X34965925Y-15954809D01*
X34966440Y-15956054D01*
X34966442Y-15956056D01*
X34966443Y-15956058D01*
X34995505Y-15985120D01*
X35023281Y-16039635D01*
X35024500Y-16055122D01*
X35024500Y-16954800D01*
X35066443Y-17056058D01*
X37509885Y-19499500D01*
X39939154Y-21928769D01*
X39966931Y-21983286D01*
X39957360Y-22043718D01*
X39918651Y-22084509D01*
X39823389Y-22139509D01*
X39739507Y-22223391D01*
X39680202Y-22326109D01*
X39672428Y-22355122D01*
X39649500Y-22440691D01*
X39649500Y-22559309D01*
X39673390Y-22648466D01*
X39680202Y-22673890D01*
X39739507Y-22776608D01*
X39739509Y-22776610D01*
X39739511Y-22776613D01*
X39823387Y-22860489D01*
X39823389Y-22860490D01*
X39823391Y-22860492D01*
X39926110Y-22919797D01*
X39926111Y-22919797D01*
X39926114Y-22919799D01*
X40040691Y-22950500D01*
X40040693Y-22950500D01*
X40159307Y-22950500D01*
X40159309Y-22950500D01*
X40273886Y-22919799D01*
X40296950Y-22906482D01*
X40307184Y-22900574D01*
X40367032Y-22887851D01*
X40422928Y-22912736D01*
X40426690Y-22916305D01*
X42523352Y-25012967D01*
X42548975Y-25057348D01*
X42549500Y-25059307D01*
X42549500Y-25059309D01*
X42561902Y-25105593D01*
X42580202Y-25173890D01*
X42639507Y-25276608D01*
X42639509Y-25276610D01*
X42639511Y-25276613D01*
X42723387Y-25360489D01*
X42723389Y-25360490D01*
X42723391Y-25360492D01*
X42826110Y-25419797D01*
X42826111Y-25419797D01*
X42826114Y-25419799D01*
X42940691Y-25450500D01*
X42940693Y-25450500D01*
X43059308Y-25450500D01*
X43059309Y-25450500D01*
X43099876Y-25439630D01*
X43160978Y-25442831D01*
X43208528Y-25481336D01*
X43224500Y-25535256D01*
X43224500Y-26554799D01*
X43242555Y-26598388D01*
X43266441Y-26656055D01*
X43266442Y-26656056D01*
X43266443Y-26656058D01*
X43292433Y-26682048D01*
X43320209Y-26736563D01*
X43310638Y-26796995D01*
X43267373Y-26840260D01*
X43246657Y-26846694D01*
X43246959Y-26847821D01*
X43240693Y-26849500D01*
X43240691Y-26849500D01*
X43174107Y-26867341D01*
X43126109Y-26880202D01*
X43023391Y-26939507D01*
X42939507Y-27023391D01*
X42880202Y-27126109D01*
X42869996Y-27164198D01*
X42849500Y-27240691D01*
X42849500Y-27359309D01*
X42869859Y-27435288D01*
X42880202Y-27473890D01*
X42939507Y-27576608D01*
X42939509Y-27576610D01*
X42939511Y-27576613D01*
X43023387Y-27660489D01*
X43023389Y-27660490D01*
X43023391Y-27660492D01*
X43126110Y-27719797D01*
X43126111Y-27719797D01*
X43126114Y-27719799D01*
X43240691Y-27750500D01*
X43240693Y-27750500D01*
X43359307Y-27750500D01*
X43359309Y-27750500D01*
X43473886Y-27719799D01*
X43473888Y-27719797D01*
X43473890Y-27719797D01*
X43576608Y-27660492D01*
X43576608Y-27660491D01*
X43576613Y-27660489D01*
X43660489Y-27576613D01*
X43681910Y-27539511D01*
X43719797Y-27473890D01*
X43719797Y-27473888D01*
X43719799Y-27473886D01*
X43750500Y-27359309D01*
X43750500Y-27359306D01*
X43752179Y-27353041D01*
X43754987Y-27353793D01*
X43776090Y-27309474D01*
X43829841Y-27280242D01*
X43890508Y-27288187D01*
X43917952Y-27307567D01*
X44679927Y-28069543D01*
X45441380Y-28830996D01*
X45469157Y-28885513D01*
X45459586Y-28945945D01*
X45416321Y-28989210D01*
X45371376Y-29000000D01*
X41630624Y-29000000D01*
X41572433Y-28981093D01*
X41560620Y-28971004D01*
X41404496Y-28814880D01*
X41376719Y-28760363D01*
X41375500Y-28744876D01*
X41375500Y-28645200D01*
X41339886Y-28559222D01*
X41339886Y-28559221D01*
X41333557Y-28543942D01*
X41333557Y-28543941D01*
X41327379Y-28537763D01*
X41304496Y-28514879D01*
X41276719Y-28460362D01*
X41275541Y-28445408D01*
X41275500Y-28445198D01*
X41266927Y-28424502D01*
X41266926Y-28424500D01*
X41233558Y-28343942D01*
X41104496Y-28214879D01*
X41076719Y-28160363D01*
X41075542Y-28145410D01*
X41075500Y-28145202D01*
X41075500Y-28145200D01*
X41040411Y-28060489D01*
X41033557Y-28043941D01*
X41004495Y-28014879D01*
X40976719Y-27960362D01*
X40975542Y-27945410D01*
X40975500Y-27945202D01*
X40975500Y-27945200D01*
X40973632Y-27940691D01*
X41849500Y-27940691D01*
X41849500Y-28059309D01*
X41868055Y-28128557D01*
X41880202Y-28173890D01*
X41939507Y-28276608D01*
X41939509Y-28276610D01*
X41939511Y-28276613D01*
X42023387Y-28360489D01*
X42023389Y-28360490D01*
X42023391Y-28360492D01*
X42126110Y-28419797D01*
X42126111Y-28419797D01*
X42126114Y-28419799D01*
X42240691Y-28450500D01*
X42240693Y-28450500D01*
X42359307Y-28450500D01*
X42359309Y-28450500D01*
X42473886Y-28419799D01*
X42473888Y-28419797D01*
X42473890Y-28419797D01*
X42576608Y-28360492D01*
X42576608Y-28360491D01*
X42576613Y-28360489D01*
X42660489Y-28276613D01*
X42675563Y-28250504D01*
X42719797Y-28173890D01*
X42719797Y-28173888D01*
X42719799Y-28173886D01*
X42750500Y-28059309D01*
X42750500Y-27940691D01*
X42719799Y-27826114D01*
X42719797Y-27826111D01*
X42719797Y-27826109D01*
X42660492Y-27723391D01*
X42660490Y-27723389D01*
X42660489Y-27723387D01*
X42576613Y-27639511D01*
X42576610Y-27639509D01*
X42576608Y-27639507D01*
X42473889Y-27580202D01*
X42473890Y-27580202D01*
X42460351Y-27576574D01*
X42359309Y-27549500D01*
X42240691Y-27549500D01*
X42170567Y-27568289D01*
X42126109Y-27580202D01*
X42023391Y-27639507D01*
X41939507Y-27723391D01*
X41880202Y-27826109D01*
X41867400Y-27873886D01*
X41849500Y-27940691D01*
X40973632Y-27940691D01*
X40933557Y-27843942D01*
X40915724Y-27826109D01*
X40856058Y-27766442D01*
X40856058Y-27766443D01*
X39905306Y-26815691D01*
X41049500Y-26815691D01*
X41049500Y-26934309D01*
X41056956Y-26962135D01*
X41080202Y-27048890D01*
X41139507Y-27151608D01*
X41139509Y-27151610D01*
X41139511Y-27151613D01*
X41223387Y-27235489D01*
X41223389Y-27235490D01*
X41223391Y-27235492D01*
X41326110Y-27294797D01*
X41326111Y-27294797D01*
X41326114Y-27294799D01*
X41440691Y-27325500D01*
X41440693Y-27325500D01*
X41559307Y-27325500D01*
X41559309Y-27325500D01*
X41673886Y-27294799D01*
X41673888Y-27294797D01*
X41673890Y-27294797D01*
X41776608Y-27235492D01*
X41776608Y-27235491D01*
X41776613Y-27235489D01*
X41860489Y-27151613D01*
X41900654Y-27082046D01*
X41919797Y-27048890D01*
X41919797Y-27048888D01*
X41919799Y-27048886D01*
X41950500Y-26934309D01*
X41950500Y-26815691D01*
X41919799Y-26701114D01*
X41919797Y-26701111D01*
X41919797Y-26701109D01*
X41860492Y-26598391D01*
X41860490Y-26598389D01*
X41860489Y-26598387D01*
X41776613Y-26514511D01*
X41776610Y-26514509D01*
X41776608Y-26514507D01*
X41673889Y-26455202D01*
X41673890Y-26455202D01*
X41660351Y-26451574D01*
X41559309Y-26424500D01*
X41440691Y-26424500D01*
X41370567Y-26443289D01*
X41326109Y-26455202D01*
X41223391Y-26514507D01*
X41139507Y-26598391D01*
X41080202Y-26701109D01*
X41080201Y-26701114D01*
X41049500Y-26815691D01*
X39905306Y-26815691D01*
X38804496Y-25714881D01*
X38776719Y-25660364D01*
X38775500Y-25644877D01*
X38775500Y-25545198D01*
X38766927Y-25524502D01*
X38766926Y-25524500D01*
X38733558Y-25443942D01*
X38456061Y-25166446D01*
X38456058Y-25166443D01*
X38441684Y-25160489D01*
X38441681Y-25160487D01*
X38385517Y-25137223D01*
X38354800Y-25124500D01*
X38354799Y-25124500D01*
X37955123Y-25124500D01*
X37896932Y-25105593D01*
X37885120Y-25095504D01*
X37756061Y-24966446D01*
X37756058Y-24966443D01*
X37741684Y-24960489D01*
X37741681Y-24960487D01*
X37675880Y-24933231D01*
X37654800Y-24924500D01*
X37654799Y-24924500D01*
X37654797Y-24924499D01*
X37645235Y-24922597D01*
X37645479Y-24921366D01*
X37596933Y-24905593D01*
X37585121Y-24895504D01*
X36756058Y-24066443D01*
X36756056Y-24066441D01*
X36739393Y-24059539D01*
X36739393Y-24059540D01*
X36654800Y-24024500D01*
X36654799Y-24024500D01*
X35746580Y-24024500D01*
X35688389Y-24005593D01*
X35652425Y-23956093D01*
X35652425Y-23894907D01*
X35660844Y-23876000D01*
X35719797Y-23773890D01*
X35719797Y-23773888D01*
X35719799Y-23773886D01*
X35750500Y-23659309D01*
X35750500Y-23580122D01*
X35769407Y-23521931D01*
X35779497Y-23510118D01*
X35984022Y-23305593D01*
X36233557Y-23056059D01*
X36245841Y-23026400D01*
X36275500Y-22954800D01*
X36275500Y-22940691D01*
X37149500Y-22940691D01*
X37149500Y-23059309D01*
X37154137Y-23076613D01*
X37180202Y-23173890D01*
X37239507Y-23276608D01*
X37239509Y-23276610D01*
X37239511Y-23276613D01*
X37323387Y-23360489D01*
X37323389Y-23360490D01*
X37323391Y-23360492D01*
X37426110Y-23419797D01*
X37426111Y-23419797D01*
X37426114Y-23419799D01*
X37540691Y-23450500D01*
X37540693Y-23450500D01*
X37659307Y-23450500D01*
X37659309Y-23450500D01*
X37773886Y-23419799D01*
X37773888Y-23419797D01*
X37773890Y-23419797D01*
X37876608Y-23360492D01*
X37876608Y-23360491D01*
X37876613Y-23360489D01*
X37929998Y-23307103D01*
X37984513Y-23279328D01*
X38044945Y-23288899D01*
X38070000Y-23307102D01*
X38123387Y-23360489D01*
X38123389Y-23360490D01*
X38123391Y-23360492D01*
X38226110Y-23419797D01*
X38226111Y-23419797D01*
X38226114Y-23419799D01*
X38340691Y-23450500D01*
X38340693Y-23450500D01*
X38459307Y-23450500D01*
X38459309Y-23450500D01*
X38573886Y-23419799D01*
X38573888Y-23419797D01*
X38573890Y-23419797D01*
X38676608Y-23360492D01*
X38676608Y-23360491D01*
X38676613Y-23360489D01*
X38760489Y-23276613D01*
X38762062Y-23273888D01*
X38819797Y-23173890D01*
X38819797Y-23173888D01*
X38819799Y-23173886D01*
X38850500Y-23059309D01*
X38850500Y-22940691D01*
X38819799Y-22826114D01*
X38819797Y-22826110D01*
X38819797Y-22826109D01*
X38760492Y-22723391D01*
X38760490Y-22723389D01*
X38760489Y-22723387D01*
X38676613Y-22639511D01*
X38676610Y-22639509D01*
X38676608Y-22639507D01*
X38573889Y-22580202D01*
X38573890Y-22580202D01*
X38520484Y-22565892D01*
X38459309Y-22549500D01*
X38340691Y-22549500D01*
X38279523Y-22565890D01*
X38226109Y-22580202D01*
X38123391Y-22639507D01*
X38123390Y-22639508D01*
X38123387Y-22639510D01*
X38123387Y-22639511D01*
X38070001Y-22692896D01*
X38015487Y-22720672D01*
X37955055Y-22711101D01*
X37929999Y-22692897D01*
X37876613Y-22639511D01*
X37876610Y-22639509D01*
X37876608Y-22639507D01*
X37773889Y-22580202D01*
X37773890Y-22580202D01*
X37720484Y-22565892D01*
X37659309Y-22549500D01*
X37540691Y-22549500D01*
X37479523Y-22565890D01*
X37426109Y-22580202D01*
X37323391Y-22639507D01*
X37239507Y-22723391D01*
X37180202Y-22826109D01*
X37171307Y-22859307D01*
X37149500Y-22940691D01*
X36275500Y-22940691D01*
X36275500Y-22355122D01*
X36294407Y-22296931D01*
X36304497Y-22285118D01*
X36504497Y-22085118D01*
X36733558Y-21856058D01*
X36734079Y-21854800D01*
X36775500Y-21754801D01*
X36777402Y-21745239D01*
X36778631Y-21745483D01*
X36794407Y-21696932D01*
X36804496Y-21685119D01*
X37149980Y-21339635D01*
X37512970Y-20976645D01*
X37557349Y-20951024D01*
X37559305Y-20950500D01*
X37559309Y-20950500D01*
X37673886Y-20919799D01*
X37673888Y-20919797D01*
X37673890Y-20919797D01*
X37776608Y-20860492D01*
X37776608Y-20860491D01*
X37776613Y-20860489D01*
X37860489Y-20776613D01*
X37878813Y-20744876D01*
X37919797Y-20673890D01*
X37919797Y-20673888D01*
X37919799Y-20673886D01*
X37950500Y-20559309D01*
X37950500Y-20440691D01*
X37919799Y-20326114D01*
X37919797Y-20326111D01*
X37919797Y-20326109D01*
X37860492Y-20223391D01*
X37860490Y-20223389D01*
X37860489Y-20223387D01*
X37776613Y-20139511D01*
X37776610Y-20139509D01*
X37776608Y-20139507D01*
X37673889Y-20080202D01*
X37673890Y-20080202D01*
X37620484Y-20065892D01*
X37559309Y-20049500D01*
X37440691Y-20049500D01*
X37379523Y-20065890D01*
X37326109Y-20080202D01*
X37223391Y-20139507D01*
X37139507Y-20223391D01*
X37080202Y-20326109D01*
X37071024Y-20360363D01*
X37049500Y-20440691D01*
X37049500Y-20559309D01*
X37053214Y-20573171D01*
X37056172Y-20584211D01*
X37052967Y-20645313D01*
X37030548Y-20679834D01*
X36343942Y-21366442D01*
X36266446Y-21443938D01*
X36266444Y-21443940D01*
X36266443Y-21443942D01*
X36249387Y-21485118D01*
X36224499Y-21545202D01*
X36222597Y-21554765D01*
X36221366Y-21554520D01*
X36205593Y-21603068D01*
X36195509Y-21614874D01*
X35843942Y-21966443D01*
X35843941Y-21966442D01*
X35766446Y-22043938D01*
X35766444Y-22043940D01*
X35766443Y-22043942D01*
X35726805Y-22139635D01*
X35724500Y-22145200D01*
X35724500Y-22744876D01*
X35705593Y-22803067D01*
X35695504Y-22814879D01*
X35389878Y-23120504D01*
X35335363Y-23148281D01*
X35319876Y-23149500D01*
X35240691Y-23149500D01*
X35170567Y-23168289D01*
X35126109Y-23180202D01*
X35023391Y-23239507D01*
X35023390Y-23239508D01*
X35023387Y-23239510D01*
X35023387Y-23239511D01*
X34967392Y-23295505D01*
X34912878Y-23323281D01*
X34897391Y-23324500D01*
X34602609Y-23324500D01*
X34544418Y-23305593D01*
X34532611Y-23295509D01*
X34476613Y-23239511D01*
X34476610Y-23239509D01*
X34476608Y-23239507D01*
X34373889Y-23180202D01*
X34373890Y-23180202D01*
X34330930Y-23168691D01*
X34259309Y-23149500D01*
X34140691Y-23149500D01*
X34070567Y-23168289D01*
X34026109Y-23180202D01*
X33923391Y-23239507D01*
X33839509Y-23323389D01*
X33835736Y-23329925D01*
X33790266Y-23370865D01*
X33729416Y-23377260D01*
X33676428Y-23346667D01*
X33664264Y-23329925D01*
X33660490Y-23323389D01*
X33660489Y-23323387D01*
X33576613Y-23239511D01*
X33576610Y-23239509D01*
X33576608Y-23239507D01*
X33473889Y-23180202D01*
X33473890Y-23180202D01*
X33430930Y-23168691D01*
X33359309Y-23149500D01*
X33240691Y-23149500D01*
X33170567Y-23168289D01*
X33126109Y-23180202D01*
X33023391Y-23239507D01*
X32939507Y-23323391D01*
X32880202Y-23426109D01*
X32869395Y-23466443D01*
X32849500Y-23540691D01*
X32849500Y-23659309D01*
X32854678Y-23678633D01*
X32880202Y-23773890D01*
X32939507Y-23876608D01*
X32939509Y-23876610D01*
X32939511Y-23876613D01*
X33023387Y-23960489D01*
X33023389Y-23960490D01*
X33023391Y-23960492D01*
X33126110Y-24019797D01*
X33126111Y-24019797D01*
X33126114Y-24019799D01*
X33240691Y-24050500D01*
X33240693Y-24050500D01*
X33359307Y-24050500D01*
X33359309Y-24050500D01*
X33473886Y-24019799D01*
X33473888Y-24019797D01*
X33473890Y-24019797D01*
X33576608Y-23960492D01*
X33576608Y-23960491D01*
X33576613Y-23960489D01*
X33660489Y-23876613D01*
X33664263Y-23870075D01*
X33709731Y-23829135D01*
X33770581Y-23822738D01*
X33823570Y-23853329D01*
X33835735Y-23870073D01*
X33839511Y-23876613D01*
X33923387Y-23960489D01*
X33923389Y-23960490D01*
X33923391Y-23960492D01*
X34026110Y-24019797D01*
X34026111Y-24019797D01*
X34026114Y-24019799D01*
X34140691Y-24050500D01*
X34140693Y-24050500D01*
X34259307Y-24050500D01*
X34259309Y-24050500D01*
X34373886Y-24019799D01*
X34373888Y-24019797D01*
X34373890Y-24019797D01*
X34476608Y-23960492D01*
X34476608Y-23960491D01*
X34476613Y-23960489D01*
X34532607Y-23904494D01*
X34587122Y-23876719D01*
X34602609Y-23875500D01*
X34853420Y-23875500D01*
X34911611Y-23894407D01*
X34947575Y-23943907D01*
X34947575Y-24005093D01*
X34939156Y-24024000D01*
X34880202Y-24126109D01*
X34873845Y-24149833D01*
X34849500Y-24240691D01*
X34849500Y-24359309D01*
X34875173Y-24455122D01*
X34880202Y-24473890D01*
X34939507Y-24576608D01*
X34939509Y-24576610D01*
X34939511Y-24576613D01*
X35023387Y-24660489D01*
X35023389Y-24660490D01*
X35023391Y-24660492D01*
X35126110Y-24719797D01*
X35126111Y-24719797D01*
X35126114Y-24719799D01*
X35240691Y-24750500D01*
X35240693Y-24750500D01*
X35359307Y-24750500D01*
X35359309Y-24750500D01*
X35473886Y-24719799D01*
X35473888Y-24719797D01*
X35473890Y-24719797D01*
X35576608Y-24660492D01*
X35576608Y-24660491D01*
X35576613Y-24660489D01*
X35632607Y-24604494D01*
X35687122Y-24576719D01*
X35702609Y-24575500D01*
X35764744Y-24575500D01*
X35822935Y-24594407D01*
X35858899Y-24643907D01*
X35860370Y-24700124D01*
X35849500Y-24740688D01*
X35849500Y-24740691D01*
X35849500Y-24859309D01*
X35876574Y-24960351D01*
X35880202Y-24973890D01*
X35939507Y-25076608D01*
X35939509Y-25076610D01*
X35939511Y-25076613D01*
X36023387Y-25160489D01*
X36023389Y-25160490D01*
X36023391Y-25160492D01*
X36126110Y-25219797D01*
X36126111Y-25219797D01*
X36126114Y-25219799D01*
X36240691Y-25250500D01*
X36240693Y-25250500D01*
X36359307Y-25250500D01*
X36359309Y-25250500D01*
X36473886Y-25219799D01*
X36473888Y-25219797D01*
X36473890Y-25219797D01*
X36576608Y-25160492D01*
X36576608Y-25160491D01*
X36576613Y-25160489D01*
X36660489Y-25076613D01*
X36715491Y-24981346D01*
X36760959Y-24940408D01*
X36821809Y-24934012D01*
X36871229Y-24960844D01*
X37343941Y-25433557D01*
X37369009Y-25443940D01*
X37369011Y-25443942D01*
X37369012Y-25443942D01*
X37384843Y-25450499D01*
X37445200Y-25475500D01*
X37445205Y-25475500D01*
X37454766Y-25477403D01*
X37454521Y-25478633D01*
X37503068Y-25494407D01*
X37514881Y-25504496D01*
X37583694Y-25573309D01*
X37611471Y-25627826D01*
X37601900Y-25688258D01*
X37599427Y-25692812D01*
X37580202Y-25726110D01*
X37575424Y-25743941D01*
X37561184Y-25797088D01*
X37549500Y-25840692D01*
X37549500Y-25919877D01*
X37530593Y-25978068D01*
X37520504Y-25989880D01*
X37466446Y-26043938D01*
X37466444Y-26043940D01*
X37466443Y-26043942D01*
X37459641Y-26060363D01*
X37424499Y-26145202D01*
X37422597Y-26154765D01*
X37421366Y-26154520D01*
X37405593Y-26203067D01*
X37395504Y-26214880D01*
X36543942Y-27066443D01*
X36543941Y-27066442D01*
X36466446Y-27143938D01*
X36466444Y-27143940D01*
X36466443Y-27143942D01*
X36426805Y-27239635D01*
X36424500Y-27245200D01*
X36424500Y-28901000D01*
X36405593Y-28959191D01*
X36356093Y-28995155D01*
X36325500Y-29000000D01*
X35130624Y-29000000D01*
X35072433Y-28981093D01*
X35060621Y-28971004D01*
X34627379Y-28537763D01*
X34599601Y-28483246D01*
X34609172Y-28422814D01*
X34652437Y-28379549D01*
X34671757Y-28372133D01*
X34693186Y-28366392D01*
X34807314Y-28300500D01*
X34900500Y-28207314D01*
X34912873Y-28185884D01*
X34962459Y-28100000D01*
X35007928Y-28059059D01*
X35048195Y-28050500D01*
X35059307Y-28050500D01*
X35059309Y-28050500D01*
X35173886Y-28019799D01*
X35173888Y-28019797D01*
X35173890Y-28019797D01*
X35276608Y-27960492D01*
X35276608Y-27960491D01*
X35276613Y-27960489D01*
X35360489Y-27876613D01*
X35362061Y-27873890D01*
X35419797Y-27773890D01*
X35419797Y-27773888D01*
X35419799Y-27773886D01*
X35450500Y-27659309D01*
X35450500Y-27540691D01*
X35419799Y-27426114D01*
X35419797Y-27426111D01*
X35419797Y-27426109D01*
X35360492Y-27323391D01*
X35360490Y-27323389D01*
X35360489Y-27323387D01*
X35276613Y-27239511D01*
X35276610Y-27239509D01*
X35276608Y-27239507D01*
X35173889Y-27180202D01*
X35173890Y-27180202D01*
X35154700Y-27175060D01*
X35059309Y-27149500D01*
X34940691Y-27149500D01*
X34885838Y-27164198D01*
X34826109Y-27180202D01*
X34723391Y-27239507D01*
X34639509Y-27323389D01*
X34624145Y-27350001D01*
X34578675Y-27390941D01*
X34538409Y-27399500D01*
X34434108Y-27399500D01*
X34306814Y-27433608D01*
X34306812Y-27433608D01*
X34300546Y-27435288D01*
X34299746Y-27432302D01*
X34251348Y-27436091D01*
X34199192Y-27404099D01*
X34175802Y-27347561D01*
X34175500Y-27339836D01*
X34175500Y-27045200D01*
X34141093Y-26962135D01*
X34133557Y-26943942D01*
X34133557Y-26943941D01*
X30591352Y-23401737D01*
X30563576Y-23347221D01*
X30573147Y-23286789D01*
X30616412Y-23243524D01*
X30676844Y-23233953D01*
X30686974Y-23236106D01*
X30740691Y-23250500D01*
X30740692Y-23250500D01*
X30859307Y-23250500D01*
X30859309Y-23250500D01*
X30973886Y-23219799D01*
X30973888Y-23219797D01*
X30973890Y-23219797D01*
X31076608Y-23160492D01*
X31076608Y-23160491D01*
X31076613Y-23160489D01*
X31160489Y-23076613D01*
X31219799Y-22973886D01*
X31227462Y-22945285D01*
X31260784Y-22893974D01*
X31317905Y-22872046D01*
X31377006Y-22887881D01*
X31390876Y-22899111D01*
X31392689Y-22900503D01*
X31506809Y-22966390D01*
X31506807Y-22966390D01*
X31506811Y-22966391D01*
X31506813Y-22966392D01*
X31634107Y-23000500D01*
X31634109Y-23000500D01*
X31765889Y-23000500D01*
X31765891Y-23000500D01*
X31893185Y-22966392D01*
X31893187Y-22966390D01*
X31893189Y-22966390D01*
X32007308Y-22900503D01*
X32007308Y-22900502D01*
X32007313Y-22900500D01*
X32100499Y-22807314D01*
X32112872Y-22785884D01*
X32166389Y-22693190D01*
X32166389Y-22693188D01*
X32166391Y-22693186D01*
X32200499Y-22565892D01*
X32200499Y-22434108D01*
X32166391Y-22306814D01*
X32166389Y-22306810D01*
X32166389Y-22306809D01*
X32100502Y-22192690D01*
X32100500Y-22192688D01*
X32100499Y-22192686D01*
X32007313Y-22099500D01*
X32007310Y-22099498D01*
X32007308Y-22099496D01*
X31893188Y-22033609D01*
X31893190Y-22033609D01*
X31823290Y-22014880D01*
X31765891Y-21999500D01*
X31634107Y-21999500D01*
X31576708Y-22014880D01*
X31506808Y-22033609D01*
X31392689Y-22099496D01*
X31299495Y-22192690D01*
X31233608Y-22306810D01*
X31233606Y-22306814D01*
X31215173Y-22375607D01*
X31181849Y-22426921D01*
X31124727Y-22448847D01*
X31070047Y-22435719D01*
X30973889Y-22380202D01*
X30973890Y-22380202D01*
X30953599Y-22374765D01*
X30859309Y-22349500D01*
X30740691Y-22349500D01*
X30659562Y-22371238D01*
X30634447Y-22377968D01*
X30573345Y-22374765D01*
X30525795Y-22336260D01*
X30523340Y-22331561D01*
X30523044Y-22331733D01*
X30460492Y-22223391D01*
X30460490Y-22223389D01*
X30460489Y-22223387D01*
X30404494Y-22167392D01*
X30376719Y-22112878D01*
X30375500Y-22097391D01*
X30375500Y-20640691D01*
X35349500Y-20640691D01*
X35349500Y-20759309D01*
X35372177Y-20843941D01*
X35380202Y-20873890D01*
X35439507Y-20976608D01*
X35439509Y-20976610D01*
X35439511Y-20976613D01*
X35523387Y-21060489D01*
X35523389Y-21060490D01*
X35523391Y-21060492D01*
X35626110Y-21119797D01*
X35626111Y-21119797D01*
X35626114Y-21119799D01*
X35740691Y-21150500D01*
X35740693Y-21150500D01*
X35859307Y-21150500D01*
X35859309Y-21150500D01*
X35973886Y-21119799D01*
X35973888Y-21119797D01*
X35973890Y-21119797D01*
X36076608Y-21060492D01*
X36076608Y-21060491D01*
X36076613Y-21060489D01*
X36160489Y-20976613D01*
X36162061Y-20973890D01*
X36219797Y-20873890D01*
X36219797Y-20873888D01*
X36219799Y-20873886D01*
X36250500Y-20759309D01*
X36250500Y-20640691D01*
X36219799Y-20526114D01*
X36219797Y-20526111D01*
X36219797Y-20526109D01*
X36160492Y-20423391D01*
X36160490Y-20423389D01*
X36160489Y-20423387D01*
X36076613Y-20339511D01*
X36076610Y-20339509D01*
X36076608Y-20339507D01*
X35973889Y-20280202D01*
X35973890Y-20280202D01*
X35960351Y-20276574D01*
X35859309Y-20249500D01*
X35740691Y-20249500D01*
X35670567Y-20268289D01*
X35626109Y-20280202D01*
X35523391Y-20339507D01*
X35439507Y-20423391D01*
X35380202Y-20526109D01*
X35372177Y-20556058D01*
X35349500Y-20640691D01*
X30375500Y-20640691D01*
X30375500Y-19934108D01*
X31199499Y-19934108D01*
X31199499Y-20065892D01*
X31223659Y-20156058D01*
X31233608Y-20193190D01*
X31299495Y-20307309D01*
X31299497Y-20307311D01*
X31299499Y-20307314D01*
X31392685Y-20400500D01*
X31392687Y-20400501D01*
X31392689Y-20400503D01*
X31506809Y-20466390D01*
X31506807Y-20466390D01*
X31506811Y-20466391D01*
X31506813Y-20466392D01*
X31634107Y-20500500D01*
X31634109Y-20500500D01*
X31765889Y-20500500D01*
X31765891Y-20500500D01*
X31893185Y-20466392D01*
X31893187Y-20466390D01*
X31893189Y-20466390D01*
X32007308Y-20400503D01*
X32007308Y-20400502D01*
X32007313Y-20400500D01*
X32100499Y-20307314D01*
X32136548Y-20244876D01*
X32166389Y-20193190D01*
X32166389Y-20193188D01*
X32166391Y-20193186D01*
X32200499Y-20065892D01*
X32200499Y-19934108D01*
X32166391Y-19806814D01*
X32166389Y-19806811D01*
X32166389Y-19806809D01*
X32100502Y-19692690D01*
X32100500Y-19692688D01*
X32100499Y-19692686D01*
X32007313Y-19599500D01*
X32007310Y-19599498D01*
X32007308Y-19599496D01*
X31893188Y-19533609D01*
X31893190Y-19533609D01*
X31820435Y-19514115D01*
X31765891Y-19499500D01*
X31634107Y-19499500D01*
X31579563Y-19514115D01*
X31506808Y-19533609D01*
X31392689Y-19599496D01*
X31299495Y-19692690D01*
X31233608Y-19806809D01*
X31220750Y-19854797D01*
X31199499Y-19934108D01*
X30375500Y-19934108D01*
X30375500Y-18854315D01*
X30394407Y-18796124D01*
X30443907Y-18760160D01*
X30505093Y-18760160D01*
X30523995Y-18768576D01*
X30606814Y-18816392D01*
X30734108Y-18850500D01*
X30734110Y-18850500D01*
X30865890Y-18850500D01*
X30865892Y-18850500D01*
X30993186Y-18816392D01*
X30993188Y-18816390D01*
X30993190Y-18816390D01*
X31107309Y-18750503D01*
X31107309Y-18750502D01*
X31107314Y-18750500D01*
X31200500Y-18657314D01*
X31241740Y-18585884D01*
X31266390Y-18543190D01*
X31266390Y-18543188D01*
X31266392Y-18543186D01*
X31300500Y-18415892D01*
X31300500Y-18284108D01*
X31266392Y-18156814D01*
X31266390Y-18156811D01*
X31266390Y-18156809D01*
X31200503Y-18042690D01*
X31200501Y-18042688D01*
X31200500Y-18042686D01*
X31107314Y-17949500D01*
X31107311Y-17949498D01*
X31107309Y-17949496D01*
X30993189Y-17883609D01*
X30993191Y-17883609D01*
X30943799Y-17870375D01*
X30865892Y-17849500D01*
X30734108Y-17849500D01*
X30656200Y-17870375D01*
X30606809Y-17883609D01*
X30524000Y-17931420D01*
X30464152Y-17944142D01*
X30408256Y-17919255D01*
X30377663Y-17866267D01*
X30375500Y-17845684D01*
X30375500Y-16235256D01*
X30394407Y-16177065D01*
X30443907Y-16141101D01*
X30500124Y-16139630D01*
X30540691Y-16150500D01*
X30540692Y-16150500D01*
X30659307Y-16150500D01*
X30659309Y-16150500D01*
X30773886Y-16119799D01*
X30773888Y-16119797D01*
X30773890Y-16119797D01*
X30876608Y-16060492D01*
X30876608Y-16060491D01*
X30876613Y-16060489D01*
X30960489Y-15976613D01*
X30979352Y-15943942D01*
X31019797Y-15873890D01*
X31019797Y-15873888D01*
X31019799Y-15873886D01*
X31050500Y-15759309D01*
X31050500Y-15680122D01*
X31069407Y-15621931D01*
X31079497Y-15610118D01*
X31185120Y-15504496D01*
X31239636Y-15476719D01*
X31254590Y-15475541D01*
X31254797Y-15475500D01*
X31254800Y-15475500D01*
X31356058Y-15433557D01*
X31433557Y-15356058D01*
X31433556Y-15356058D01*
X31633558Y-15156058D01*
X31633559Y-15156056D01*
X31675500Y-15054801D01*
X31675500Y-13245200D01*
X31640018Y-13159540D01*
X31640018Y-13159539D01*
X31633557Y-13143941D01*
X31604496Y-13114880D01*
X31576719Y-13060363D01*
X31575500Y-13044876D01*
X31575500Y-12645200D01*
X31540390Y-12560438D01*
X31540390Y-12560437D01*
X31533557Y-12543941D01*
X31179496Y-12189880D01*
X31151719Y-12135363D01*
X31150500Y-12119876D01*
X31150500Y-12040692D01*
X31150184Y-12039511D01*
X31119799Y-11926114D01*
X31119797Y-11926111D01*
X31119797Y-11926109D01*
X31060492Y-11823391D01*
X31060490Y-11823389D01*
X31060489Y-11823387D01*
X30976613Y-11739511D01*
X30976610Y-11739509D01*
X30904719Y-11698002D01*
X30863779Y-11652532D01*
X30857384Y-11591682D01*
X30868481Y-11562769D01*
X30915491Y-11481346D01*
X30960959Y-11440408D01*
X31021809Y-11434012D01*
X31071230Y-11460845D01*
G37*
%TD.AperFunction*%
%TA.AperFunction,Conductor*%
G36*
X48959191Y-9018907D02*
G01*
X48995155Y-9068407D01*
X49000000Y-9099000D01*
X49000000Y-28901000D01*
X48981093Y-28959191D01*
X48931593Y-28995155D01*
X48901000Y-29000000D01*
X46430624Y-29000000D01*
X46372433Y-28981093D01*
X46360620Y-28971004D01*
X43804496Y-26414880D01*
X43776719Y-26360363D01*
X43775500Y-26344876D01*
X43775500Y-25765691D01*
X45699500Y-25765691D01*
X45699500Y-25884309D01*
X45714305Y-25939562D01*
X45730202Y-25998890D01*
X45789507Y-26101608D01*
X45789509Y-26101610D01*
X45789511Y-26101613D01*
X45873387Y-26185489D01*
X45873389Y-26185490D01*
X45873391Y-26185492D01*
X45976110Y-26244797D01*
X45976111Y-26244797D01*
X45976114Y-26244799D01*
X46090691Y-26275500D01*
X46090693Y-26275500D01*
X46209307Y-26275500D01*
X46209309Y-26275500D01*
X46323886Y-26244799D01*
X46323888Y-26244797D01*
X46323890Y-26244797D01*
X46426608Y-26185492D01*
X46426608Y-26185491D01*
X46426613Y-26185489D01*
X46510489Y-26101613D01*
X46534305Y-26060363D01*
X46569797Y-25998890D01*
X46569797Y-25998888D01*
X46569799Y-25998886D01*
X46600500Y-25884309D01*
X46600500Y-25765691D01*
X46569799Y-25651114D01*
X46569797Y-25651111D01*
X46569797Y-25651109D01*
X46510492Y-25548391D01*
X46510490Y-25548389D01*
X46510489Y-25548387D01*
X46426613Y-25464511D01*
X46426610Y-25464509D01*
X46426608Y-25464507D01*
X46323889Y-25405202D01*
X46323890Y-25405202D01*
X46310351Y-25401574D01*
X46209309Y-25374500D01*
X46090691Y-25374500D01*
X46030695Y-25390576D01*
X45976109Y-25405202D01*
X45873391Y-25464507D01*
X45789507Y-25548391D01*
X45730202Y-25651109D01*
X45730201Y-25651114D01*
X45699500Y-25765691D01*
X43775500Y-25765691D01*
X43775500Y-24645200D01*
X43740018Y-24559540D01*
X43740018Y-24559539D01*
X43733557Y-24543941D01*
X43104496Y-23914880D01*
X43076719Y-23860363D01*
X43075500Y-23844876D01*
X43075500Y-23145200D01*
X43064237Y-23118010D01*
X43033557Y-23043942D01*
X43007034Y-23017419D01*
X42956058Y-22966442D01*
X42956058Y-22966443D01*
X42730306Y-22740691D01*
X45349500Y-22740691D01*
X45349500Y-22859309D01*
X45372944Y-22946801D01*
X45380202Y-22973890D01*
X45439507Y-23076608D01*
X45439509Y-23076610D01*
X45439511Y-23076613D01*
X45523387Y-23160489D01*
X45523389Y-23160490D01*
X45523391Y-23160492D01*
X45626110Y-23219797D01*
X45626111Y-23219797D01*
X45626114Y-23219799D01*
X45740691Y-23250500D01*
X45740693Y-23250500D01*
X45859307Y-23250500D01*
X45859309Y-23250500D01*
X45973886Y-23219799D01*
X45973888Y-23219797D01*
X45973890Y-23219797D01*
X46076608Y-23160492D01*
X46076608Y-23160491D01*
X46076613Y-23160489D01*
X46160489Y-23076613D01*
X46173083Y-23054800D01*
X46219797Y-22973890D01*
X46219797Y-22973888D01*
X46219799Y-22973886D01*
X46250500Y-22859309D01*
X46250500Y-22740691D01*
X46219799Y-22626114D01*
X46219797Y-22626111D01*
X46219797Y-22626109D01*
X46160492Y-22523391D01*
X46160490Y-22523389D01*
X46160489Y-22523387D01*
X46076613Y-22439511D01*
X46076610Y-22439509D01*
X46076608Y-22439507D01*
X45973889Y-22380202D01*
X45973890Y-22380202D01*
X45953599Y-22374765D01*
X45859309Y-22349500D01*
X45740691Y-22349500D01*
X45670567Y-22368289D01*
X45626109Y-22380202D01*
X45523391Y-22439507D01*
X45439507Y-22523391D01*
X45380202Y-22626109D01*
X45372428Y-22655122D01*
X45349500Y-22740691D01*
X42730306Y-22740691D01*
X42123723Y-22134108D01*
X44299500Y-22134108D01*
X44299500Y-22265892D01*
X44323660Y-22356058D01*
X44333609Y-22393190D01*
X44399496Y-22507309D01*
X44399498Y-22507311D01*
X44399500Y-22507314D01*
X44492686Y-22600500D01*
X44492688Y-22600501D01*
X44492690Y-22600503D01*
X44606810Y-22666390D01*
X44606808Y-22666390D01*
X44606812Y-22666391D01*
X44606814Y-22666392D01*
X44734108Y-22700500D01*
X44734110Y-22700500D01*
X44865890Y-22700500D01*
X44865892Y-22700500D01*
X44993186Y-22666392D01*
X44993188Y-22666390D01*
X44993190Y-22666390D01*
X45024236Y-22648466D01*
X45107309Y-22600503D01*
X45107309Y-22600502D01*
X45107314Y-22600500D01*
X45200500Y-22507314D01*
X45230820Y-22454799D01*
X45266390Y-22393190D01*
X45266390Y-22393188D01*
X45266392Y-22393186D01*
X45300500Y-22265892D01*
X45300500Y-22134108D01*
X45266392Y-22006814D01*
X45266390Y-22006811D01*
X45266390Y-22006809D01*
X45200503Y-21892690D01*
X45200501Y-21892688D01*
X45200500Y-21892686D01*
X45107314Y-21799500D01*
X45107311Y-21799498D01*
X45107309Y-21799496D01*
X44993189Y-21733609D01*
X44993191Y-21733609D01*
X44920436Y-21714115D01*
X44865892Y-21699500D01*
X44734108Y-21699500D01*
X44679564Y-21714115D01*
X44606809Y-21733609D01*
X44492690Y-21799496D01*
X44399496Y-21892690D01*
X44333609Y-22006809D01*
X44320414Y-22056056D01*
X44299500Y-22134108D01*
X42123723Y-22134108D01*
X41704496Y-21714881D01*
X41676719Y-21660364D01*
X41675541Y-21645409D01*
X41675500Y-21645202D01*
X41675500Y-21645200D01*
X41633557Y-21543942D01*
X41633557Y-21543941D01*
X38373723Y-18284108D01*
X40899500Y-18284108D01*
X40899500Y-18415892D01*
X40907525Y-18445841D01*
X40933609Y-18543190D01*
X40999496Y-18657309D01*
X40999498Y-18657311D01*
X40999500Y-18657314D01*
X41092686Y-18750500D01*
X41092688Y-18750501D01*
X41092690Y-18750503D01*
X41206810Y-18816390D01*
X41206808Y-18816390D01*
X41206812Y-18816391D01*
X41206814Y-18816392D01*
X41334108Y-18850500D01*
X41334110Y-18850500D01*
X41465890Y-18850500D01*
X41465892Y-18850500D01*
X41593186Y-18816392D01*
X41593188Y-18816390D01*
X41593190Y-18816390D01*
X41707309Y-18750503D01*
X41707309Y-18750502D01*
X41707314Y-18750500D01*
X41800500Y-18657314D01*
X41841740Y-18585884D01*
X41866390Y-18543190D01*
X41866390Y-18543188D01*
X41866392Y-18543186D01*
X41900500Y-18415892D01*
X41900500Y-18284108D01*
X43099500Y-18284108D01*
X43099500Y-18415892D01*
X43107525Y-18445841D01*
X43133609Y-18543190D01*
X43199496Y-18657309D01*
X43199498Y-18657311D01*
X43199500Y-18657314D01*
X43292686Y-18750500D01*
X43292688Y-18750501D01*
X43292690Y-18750503D01*
X43406810Y-18816390D01*
X43406808Y-18816390D01*
X43406812Y-18816391D01*
X43406814Y-18816392D01*
X43534108Y-18850500D01*
X43534110Y-18850500D01*
X43665890Y-18850500D01*
X43665892Y-18850500D01*
X43793186Y-18816392D01*
X43793188Y-18816390D01*
X43793190Y-18816390D01*
X43907309Y-18750503D01*
X43907309Y-18750502D01*
X43907314Y-18750500D01*
X44000500Y-18657314D01*
X44041740Y-18585884D01*
X44066390Y-18543190D01*
X44066390Y-18543188D01*
X44066392Y-18543186D01*
X44100500Y-18415892D01*
X44100500Y-18284108D01*
X45299500Y-18284108D01*
X45299500Y-18415892D01*
X45307525Y-18445841D01*
X45333609Y-18543190D01*
X45399496Y-18657309D01*
X45399498Y-18657311D01*
X45399500Y-18657314D01*
X45492686Y-18750500D01*
X45492688Y-18750501D01*
X45492690Y-18750503D01*
X45606810Y-18816390D01*
X45606808Y-18816390D01*
X45606812Y-18816391D01*
X45606814Y-18816392D01*
X45734108Y-18850500D01*
X45734110Y-18850500D01*
X45865890Y-18850500D01*
X45865892Y-18850500D01*
X45993186Y-18816392D01*
X45993188Y-18816390D01*
X45993190Y-18816390D01*
X46107309Y-18750503D01*
X46107309Y-18750502D01*
X46107314Y-18750500D01*
X46200500Y-18657314D01*
X46241740Y-18585884D01*
X46266390Y-18543190D01*
X46266390Y-18543188D01*
X46266392Y-18543186D01*
X46300500Y-18415892D01*
X46300500Y-18284108D01*
X46266392Y-18156814D01*
X46266390Y-18156811D01*
X46266390Y-18156809D01*
X46200503Y-18042690D01*
X46200501Y-18042688D01*
X46200500Y-18042686D01*
X46107314Y-17949500D01*
X46107311Y-17949498D01*
X46107309Y-17949496D01*
X45993189Y-17883609D01*
X45993191Y-17883609D01*
X45943799Y-17870375D01*
X45865892Y-17849500D01*
X45734108Y-17849500D01*
X45656200Y-17870375D01*
X45606809Y-17883609D01*
X45492690Y-17949496D01*
X45399496Y-18042690D01*
X45333609Y-18156809D01*
X45333608Y-18156814D01*
X45299500Y-18284108D01*
X44100500Y-18284108D01*
X44066392Y-18156814D01*
X44066390Y-18156811D01*
X44066390Y-18156809D01*
X44000503Y-18042690D01*
X44000501Y-18042688D01*
X44000500Y-18042686D01*
X43907314Y-17949500D01*
X43907311Y-17949498D01*
X43907309Y-17949496D01*
X43793189Y-17883609D01*
X43793191Y-17883609D01*
X43743799Y-17870375D01*
X43665892Y-17849500D01*
X43534108Y-17849500D01*
X43456200Y-17870375D01*
X43406809Y-17883609D01*
X43292690Y-17949496D01*
X43199496Y-18042690D01*
X43133609Y-18156809D01*
X43133608Y-18156814D01*
X43099500Y-18284108D01*
X41900500Y-18284108D01*
X41866392Y-18156814D01*
X41866390Y-18156811D01*
X41866390Y-18156809D01*
X41800503Y-18042690D01*
X41800501Y-18042688D01*
X41800500Y-18042686D01*
X41707314Y-17949500D01*
X41707311Y-17949498D01*
X41707309Y-17949496D01*
X41593189Y-17883609D01*
X41593191Y-17883609D01*
X41543799Y-17870375D01*
X41465892Y-17849500D01*
X41334108Y-17849500D01*
X41256200Y-17870375D01*
X41206809Y-17883609D01*
X41092690Y-17949496D01*
X40999496Y-18042690D01*
X40933609Y-18156809D01*
X40933608Y-18156814D01*
X40899500Y-18284108D01*
X38373723Y-18284108D01*
X38056058Y-17966443D01*
X37954800Y-17924500D01*
X37954799Y-17924500D01*
X37954797Y-17924499D01*
X37945235Y-17922597D01*
X37945479Y-17921366D01*
X37896933Y-17905593D01*
X37885121Y-17895504D01*
X37256061Y-17266446D01*
X37256058Y-17266443D01*
X37154800Y-17224500D01*
X37154799Y-17224500D01*
X37154797Y-17224499D01*
X37145235Y-17222597D01*
X37145479Y-17221366D01*
X37096933Y-17205593D01*
X37085121Y-17195504D01*
X36556061Y-16666446D01*
X36556058Y-16666443D01*
X36545787Y-16662188D01*
X36499263Y-16622451D01*
X36484981Y-16562956D01*
X36508398Y-16506429D01*
X36534174Y-16484991D01*
X36576613Y-16460489D01*
X36629998Y-16407103D01*
X36684513Y-16379328D01*
X36744945Y-16388899D01*
X36770000Y-16407102D01*
X36823387Y-16460489D01*
X36823389Y-16460490D01*
X36823391Y-16460492D01*
X36926110Y-16519797D01*
X36926111Y-16519797D01*
X36926114Y-16519799D01*
X37040691Y-16550500D01*
X37040693Y-16550500D01*
X37159307Y-16550500D01*
X37159309Y-16550500D01*
X37273886Y-16519799D01*
X37273888Y-16519797D01*
X37273890Y-16519797D01*
X37376608Y-16460492D01*
X37376608Y-16460491D01*
X37376613Y-16460489D01*
X37460489Y-16376613D01*
X37479352Y-16343942D01*
X37519797Y-16273890D01*
X37519797Y-16273888D01*
X37519799Y-16273886D01*
X37550500Y-16159309D01*
X37550500Y-16149500D01*
X37569407Y-16091309D01*
X37618907Y-16055345D01*
X37649500Y-16050500D01*
X37659307Y-16050500D01*
X37659309Y-16050500D01*
X37773886Y-16019799D01*
X37773888Y-16019797D01*
X37773890Y-16019797D01*
X37876608Y-15960492D01*
X37876608Y-15960491D01*
X37876613Y-15960489D01*
X37960489Y-15876613D01*
X37962061Y-15873890D01*
X38019797Y-15773890D01*
X38019797Y-15773888D01*
X38019799Y-15773886D01*
X38050500Y-15659309D01*
X38050500Y-15540691D01*
X38019799Y-15426114D01*
X38019797Y-15426111D01*
X38019797Y-15426109D01*
X37960492Y-15323391D01*
X37960490Y-15323389D01*
X37960489Y-15323387D01*
X37904494Y-15267392D01*
X37876719Y-15212878D01*
X37875500Y-15197391D01*
X37875500Y-14335931D01*
X45474500Y-14335931D01*
X45474500Y-14464069D01*
X45498731Y-14585884D01*
X45499499Y-14589742D01*
X45499500Y-14589747D01*
X45548534Y-14708125D01*
X45548538Y-14708133D01*
X45587499Y-14766441D01*
X45619724Y-14814669D01*
X45710331Y-14905276D01*
X45761753Y-14939635D01*
X45816866Y-14976461D01*
X45816870Y-14976463D01*
X45816873Y-14976465D01*
X45935256Y-15025501D01*
X46060931Y-15050500D01*
X46060932Y-15050500D01*
X46189068Y-15050500D01*
X46189069Y-15050500D01*
X46314744Y-15025501D01*
X46433127Y-14976465D01*
X46539669Y-14905276D01*
X46630276Y-14814669D01*
X46701465Y-14708127D01*
X46750501Y-14589744D01*
X46775500Y-14464069D01*
X46775500Y-14335931D01*
X46750501Y-14210256D01*
X46701465Y-14091873D01*
X46701463Y-14091870D01*
X46701461Y-14091866D01*
X46672717Y-14048848D01*
X46630276Y-13985331D01*
X46539669Y-13894724D01*
X46486664Y-13859307D01*
X46433133Y-13823538D01*
X46433125Y-13823534D01*
X46314747Y-13774500D01*
X46314745Y-13774499D01*
X46314744Y-13774499D01*
X46189069Y-13749500D01*
X46060931Y-13749500D01*
X46060930Y-13749500D01*
X46005943Y-13760438D01*
X45935256Y-13774499D01*
X45935255Y-13774499D01*
X45935252Y-13774500D01*
X45816874Y-13823534D01*
X45816866Y-13823538D01*
X45710331Y-13894724D01*
X45710327Y-13894727D01*
X45619727Y-13985327D01*
X45619724Y-13985331D01*
X45548538Y-14091866D01*
X45548534Y-14091874D01*
X45499500Y-14210252D01*
X45499499Y-14210256D01*
X45478688Y-14314879D01*
X45474500Y-14335931D01*
X37875500Y-14335931D01*
X37875500Y-12955122D01*
X37894407Y-12896931D01*
X37904488Y-12885127D01*
X37933557Y-12856059D01*
X37945961Y-12826113D01*
X37947089Y-12823391D01*
X37960353Y-12791367D01*
X37975500Y-12754800D01*
X37975500Y-12754793D01*
X37977403Y-12745234D01*
X37978633Y-12745478D01*
X37994407Y-12696931D01*
X38004497Y-12685118D01*
X38109415Y-12580201D01*
X38233557Y-12456059D01*
X38241689Y-12436426D01*
X38245960Y-12426115D01*
X38270677Y-12366443D01*
X38275500Y-12354800D01*
X38275500Y-10945200D01*
X38263193Y-10915489D01*
X38246629Y-10875500D01*
X38233558Y-10843942D01*
X38104496Y-10714879D01*
X38076719Y-10660363D01*
X38075500Y-10644876D01*
X38075500Y-10240691D01*
X38949500Y-10240691D01*
X38949500Y-10359309D01*
X38966968Y-10424500D01*
X38980202Y-10473890D01*
X39039507Y-10576608D01*
X39039509Y-10576610D01*
X39039511Y-10576613D01*
X39123387Y-10660489D01*
X39123389Y-10660490D01*
X39123391Y-10660492D01*
X39226110Y-10719797D01*
X39226111Y-10719797D01*
X39226114Y-10719799D01*
X39340691Y-10750500D01*
X39340693Y-10750500D01*
X39459307Y-10750500D01*
X39459309Y-10750500D01*
X39573886Y-10719799D01*
X39573888Y-10719797D01*
X39573890Y-10719797D01*
X39676608Y-10660492D01*
X39676608Y-10660491D01*
X39676613Y-10660489D01*
X39760489Y-10576613D01*
X39762062Y-10573889D01*
X39819797Y-10473890D01*
X39819797Y-10473888D01*
X39819799Y-10473886D01*
X39850500Y-10359309D01*
X39850500Y-10240691D01*
X39819799Y-10126114D01*
X39819797Y-10126111D01*
X39819797Y-10126109D01*
X39760492Y-10023391D01*
X39760490Y-10023389D01*
X39760489Y-10023387D01*
X39676613Y-9939511D01*
X39676610Y-9939509D01*
X39676608Y-9939507D01*
X39573889Y-9880202D01*
X39573890Y-9880202D01*
X39535065Y-9869799D01*
X39459309Y-9849500D01*
X39340691Y-9849500D01*
X39271160Y-9868131D01*
X39226109Y-9880202D01*
X39123391Y-9939507D01*
X39039507Y-10023391D01*
X38980202Y-10126109D01*
X38965897Y-10179496D01*
X38949500Y-10240691D01*
X38075500Y-10240691D01*
X38075500Y-9640691D01*
X40849499Y-9640691D01*
X40849499Y-9759309D01*
X40867253Y-9825566D01*
X40880201Y-9873890D01*
X40939506Y-9976608D01*
X40939508Y-9976610D01*
X40939510Y-9976613D01*
X41023386Y-10060489D01*
X41023388Y-10060490D01*
X41023390Y-10060492D01*
X41126109Y-10119797D01*
X41126110Y-10119797D01*
X41126113Y-10119799D01*
X41240690Y-10150500D01*
X41240692Y-10150500D01*
X41359306Y-10150500D01*
X41359308Y-10150500D01*
X41473885Y-10119799D01*
X41473887Y-10119797D01*
X41473889Y-10119797D01*
X41576607Y-10060492D01*
X41576607Y-10060491D01*
X41576612Y-10060489D01*
X41660488Y-9976613D01*
X41669798Y-9960488D01*
X41719796Y-9873890D01*
X41719796Y-9873888D01*
X41719798Y-9873886D01*
X41750499Y-9759309D01*
X41750499Y-9640691D01*
X41719798Y-9526114D01*
X41719796Y-9526111D01*
X41719796Y-9526109D01*
X41660491Y-9423391D01*
X41660489Y-9423389D01*
X41660488Y-9423387D01*
X41576612Y-9339511D01*
X41576609Y-9339509D01*
X41576607Y-9339507D01*
X41473888Y-9280202D01*
X41473889Y-9280202D01*
X41450317Y-9273886D01*
X41359308Y-9249500D01*
X41240690Y-9249500D01*
X41170566Y-9268289D01*
X41126108Y-9280202D01*
X41023390Y-9339507D01*
X40939506Y-9423391D01*
X40880201Y-9526109D01*
X40867399Y-9573886D01*
X40849499Y-9640691D01*
X38075500Y-9640691D01*
X38075500Y-9099000D01*
X38094407Y-9040809D01*
X38143907Y-9004845D01*
X38174500Y-9000000D01*
X48901000Y-9000000D01*
X48959191Y-9018907D01*
G37*
%TD.AperFunction*%
%TD*%
M02*
