#VRML V2.0 utf8
# Project-owned nominal model; units 0.1 inch for KiCad.
Shape { appearance Appearance { material Material { diffuseColor 0.7 0.72 0.74 } } geometry IndexedFaceSet { solid FALSE coord Coordinate { point [ -1.789370 -1.476378 0.000000,
-1.789370 -1.476378 1.322835,
-1.789370 1.476378 0.000000,
-1.789370 1.476378 1.322835,
-1.456693 -1.476378 1.102362,
-1.456693 -1.476378 0.177165,
1.789370 -1.476378 0.000000,
1.456693 -1.476378 0.177165,
1.456693 -1.476378 1.102362,
1.789370 -1.476378 1.322835,
1.789370 1.476378 1.322835,
1.789370 1.476378 0.000000,
-1.456693 1.082677 1.102362,
1.456693 1.082677 1.102362,
1.456693 1.082677 0.177165,
-1.456693 1.082677 0.177165 ] } coordIndex [ 0 1 2 -1,
2 1 3 -1,
0 4 1 -1,
5 4 0 -1,
5 6 7 -1,
0 6 5 -1,
6 8 7 -1,
8 9 4 -1,
4 9 1 -1,
6 9 8 -1,
10 3 1 -1,
10 1 9 -1,
10 11 2 -1,
10 2 3 -1,
2 11 0 -1,
0 11 6 -1,
9 6 11 -1,
9 11 10 -1,
12 13 4 -1,
4 13 8 -1,
7 8 14 -1,
14 8 13 -1,
14 15 5 -1,
14 5 7 -1,
4 5 15 -1,
4 15 12 -1,
14 13 15 -1,
15 13 12 -1 ] } }
Shape { appearance Appearance { material Material { diffuseColor 0.055 0.06 0.065 } } geometry IndexedFaceSet { solid FALSE coord Coordinate { point [ -1.279528 -1.377953 0.511811,
-1.279528 -1.377953 0.787402,
-1.279528 0.866142 0.511811,
-1.279528 0.866142 0.787402,
1.279528 -1.377953 0.787402,
1.279528 -1.377953 0.511811,
1.279528 0.866142 0.511811,
1.279528 0.866142 0.787402 ] } coordIndex [ 0 1 2 -1,
2 1 3 -1,
4 5 6 -1,
4 6 7 -1,
5 4 0 -1,
0 4 1 -1,
7 6 2 -1,
7 2 3 -1,
2 6 0 -1,
0 6 5 -1,
7 3 1 -1,
7 1 4 -1 ] } }
Shape { appearance Appearance { material Material { diffuseColor 0.7 0.72 0.74 } } geometry IndexedFaceSet { solid FALSE coord Coordinate { point [ -1.771654 0.944882 -0.984252,
-1.771654 0.944882 0.039370,
-1.771654 1.220472 -0.984252,
-1.771654 1.220472 0.039370,
-1.629921 0.944882 0.039370,
-1.629921 0.944882 -0.984252,
-1.629921 1.220472 -0.984252,
-1.629921 1.220472 0.039370 ] } coordIndex [ 0 1 2 -1,
2 1 3 -1,
4 5 6 -1,
4 6 7 -1,
5 4 0 -1,
0 4 1 -1,
7 6 2 -1,
7 2 3 -1,
2 6 0 -1,
0 6 5 -1,
7 3 1 -1,
7 1 4 -1 ] } }
Shape { appearance Appearance { material Material { diffuseColor 0.7 0.72 0.74 } } geometry IndexedFaceSet { solid FALSE coord Coordinate { point [ -1.771654 -0.700787 -0.984252,
-1.771654 -0.700787 0.039370,
-1.771654 -0.425197 -0.984252,
-1.771654 -0.425197 0.039370,
-1.629921 -0.700787 0.039370,
-1.629921 -0.700787 -0.984252,
-1.629921 -0.425197 -0.984252,
-1.629921 -0.425197 0.039370 ] } coordIndex [ 0 1 2 -1,
2 1 3 -1,
4 5 6 -1,
4 6 7 -1,
5 4 0 -1,
0 4 1 -1,
7 6 2 -1,
7 2 3 -1,
2 6 0 -1,
0 6 5 -1,
7 3 1 -1,
7 1 4 -1 ] } }
Shape { appearance Appearance { material Material { diffuseColor 0.7 0.72 0.74 } } geometry IndexedFaceSet { solid FALSE coord Coordinate { point [ 1.629921 0.944882 -0.984252,
1.629921 0.944882 0.039370,
1.629921 1.220472 -0.984252,
1.629921 1.220472 0.039370,
1.771654 0.944882 0.039370,
1.771654 0.944882 -0.984252,
1.771654 1.220472 -0.984252,
1.771654 1.220472 0.039370 ] } coordIndex [ 0 1 2 -1,
2 1 3 -1,
4 5 6 -1,
4 6 7 -1,
5 4 0 -1,
0 4 1 -1,
7 6 2 -1,
7 2 3 -1,
2 6 0 -1,
0 6 5 -1,
7 3 1 -1,
7 1 4 -1 ] } }
Shape { appearance Appearance { material Material { diffuseColor 0.7 0.72 0.74 } } geometry IndexedFaceSet { solid FALSE coord Coordinate { point [ 1.629921 -0.700787 -0.984252,
1.629921 -0.700787 0.039370,
1.629921 -0.425197 -0.984252,
1.629921 -0.425197 0.039370,
1.771654 -0.700787 0.039370,
1.771654 -0.700787 -0.984252,
1.771654 -0.425197 -0.984252,
1.771654 -0.425197 0.039370 ] } coordIndex [ 0 1 2 -1,
2 1 3 -1,
4 5 6 -1,
4 6 7 -1,
5 4 0 -1,
0 4 1 -1,
7 6 2 -1,
7 2 3 -1,
2 6 0 -1,
0 6 5 -1,
7 3 1 -1,
7 1 4 -1 ] } }
