M48
; DRILL file KiCad 10.0.6 date 2026-09-12T03:45:27
; FORMAT={-:-/ absolute / metric / decimal}
; #@! TF.CreationDate,2026-09-12T03:45:27-05:00
; #@! TF.GenerationSoftware,Kicad,Pcbnew,10.0.6
; #@! TF.FileFunction,Plated,1,4,PTH
FMAT,2
METRIC
; #@! TA.AperFunction,Plated,PTH,ViaDrill
T1C0.200
; #@! TA.AperFunction,Plated,PTH,ViaDrill
T2C0.300
; #@! TA.AperFunction,Plated,PTH,ComponentDrill
T3C0.600
; #@! TA.AperFunction,Plated,PTH,ComponentDrill
T4C0.750
; #@! TA.AperFunction,Plated,PTH,ComponentDrill
T5C0.950
; #@! TA.AperFunction,Plated,PTH,ComponentDrill
T6C1.700
%
G90
G05
T1
X4.5Y-68.7
X4.85Y-78.175
X5.2Y-81.2
X5.3Y-70.0
X5.3Y-74.5
X6.6Y-67.7
X6.8Y-70.3
X7.0Y-64.0
X7.2Y-72.6
X7.2Y-73.5
X7.4Y-67.3
X7.7Y-76.7
X8.0Y-79.0
X8.4Y-71.5
X8.7Y-76.0
X8.7Y-80.4
X8.75Y-70.0
X9.4Y-72.6
X9.4Y-73.8
X9.5Y-70.2
X9.5Y-77.125
X9.7Y-94.3
X10.2Y-67.05
X10.25Y-70.0
X10.6Y-72.6
X10.6Y-73.8
X10.9Y-81.5
X11.0Y-70.0
X11.6Y-76.3
X11.6Y-93.7
X11.7Y-75.1
X11.7Y-98.8
X11.7Y-68.3
X12.3Y-74.8
X12.4Y-68.3
X12.5Y-66.5
X12.6Y-81.0
X12.8Y-73.9
X13.0Y-78.1
X13.1Y-76.1
X13.2Y-98.3
X13.4Y-81.0
X13.4Y-88.4
X13.4Y-73.0
X13.5Y-83.5
X13.5Y-92.7
X13.675Y-74.8
X13.775Y-76.4
X13.9Y-87.9
X14.4Y-71.9
X14.5Y-94.3
X14.7Y-72.8
X14.7Y-79.2
X14.7Y-87.9
X15.0Y-93.0
X15.1Y-97.4
X15.2Y-73.3
X15.2Y-83.3
X15.3Y-75.8
X15.5Y-61.6
X15.7Y-79.7
X15.7Y-80.4
X15.9Y-78.8
X15.9Y-90.6
X16.0Y-76.4
X16.0Y-101.7
X16.3Y-88.7
X16.4Y-89.9
X16.4Y-91.8
X16.5Y-73.3
X16.75Y-92.5
X16.8Y-80.4
X16.8Y-81.1
X17.6Y-91.0
X17.7Y-80.4
X18.0Y-69.4
X18.1Y-70.5
X18.1Y-93.0
X18.3Y-92.0
X19.1Y-72.6
X19.2Y-96.05
X19.5Y-63.7
X19.5Y-99.2
X19.6Y-65.8
X19.8Y-96.05
X19.85Y-78.175
X19.9Y-68.0
X19.9Y-70.5
X19.9Y-74.5
X20.1Y-89.3
X20.2Y-81.2
X20.3Y-91.9
X20.4Y-68.1
X20.4Y-88.3
X20.5Y-92.7
X20.7Y-58.3
X20.7Y-67.3
X20.9Y-81.5
X21.1Y-68.7
X21.2Y-99.9
X21.6Y-97.8
X21.8Y-72.5
X22.0Y-91.7
X22.3Y-91.1
X22.5Y-69.3
X22.6Y-92.8
X22.6Y-97.0
X22.65Y-100.5
X22.7Y-76.7
X22.8Y-65.4
X22.8Y-70.8
X22.8Y-73.1
X23.25Y-100.5
X23.3Y-67.1
X23.4Y-97.0
X23.5Y-92.8
X23.5Y-94.7
X23.6Y-90.8
X24.0Y-70.3
X24.0Y-71.0
X24.0Y-94.9
X24.2Y-92.9
X24.5Y-77.125
X24.9Y-66.6
X24.9Y-73.9
X25.0Y-92.8
X25.1Y-71.9
X25.3Y-97.0
X25.55Y-97.75
X25.9Y-65.2
X25.9Y-100.5
X26.1Y-71.9
X26.1Y-93.6
X26.2Y-94.55
X26.55Y-97.4
X26.6Y-70.4
X26.6Y-99.5
X26.8Y-79.4
X26.8Y-94.55
X27.0Y-90.9
X27.2Y-69.1
X27.2Y-68.3
X27.6Y-81.0
X28.0Y-94.2
X28.2Y-98.0
X28.4Y-67.0
X28.4Y-81.0
X28.775Y-76.4
X29.0Y-63.0
X29.0Y-73.7
X29.0Y-99.5
X29.1Y-69.0
X29.3Y-72.6
X29.4Y-94.25
X29.6Y-80.9
X29.9Y-75.4
X30.0Y-71.1
X30.1Y-79.5
X30.4Y-91.4
X30.5Y-90.2
X31.0Y-91.7
X31.2Y-70.5
X31.5Y-72.0
X31.5Y-73.2
X31.8Y-73.8
X31.8Y-80.4
X31.8Y-92.6
X32.1Y-69.7
X32.3Y-99.2
X32.5Y-69.1
X32.6Y-95.9
X33.0Y-71.8
X33.2Y-69.0
X33.5Y-70.1
X33.7Y-94.4
X34.0Y-65.0
X34.2Y-83.2
X34.2Y-93.0
X34.3Y-94.9
X34.7Y-79.8
X34.85Y-78.175
X35.2Y-81.2
X35.5Y-92.9
X36.0Y-72.1
X36.0Y-90.9
X36.455Y-67.55
X36.455Y-69.45
X36.7Y-94.8
X37.055Y-67.55
X37.055Y-69.45
X37.7Y-76.7
X38.4Y-73.0
X38.9Y-90.7
X39.5Y-77.125
X39.9Y-74.8
X40.0Y-93.6
X40.2Y-91.6
X40.2Y-94.6
X40.8Y-90.8
X40.9Y-72.1
X40.9Y-90.3
X41.455Y-67.55
X41.455Y-69.45
X42.055Y-67.55
X42.055Y-69.45
X42.6Y-81.0
X43.4Y-81.0
X43.7Y-74.7
X43.775Y-76.4
X44.0Y-72.7
X44.4Y-80.9
X44.9Y-66.2
X46.455Y-67.55
X46.455Y-69.45
X47.055Y-67.55
X47.055Y-69.45
T2
X5.2Y-85.65
X6.2Y-81.8
X7.4Y-85.65
X9.6Y-85.65
X11.8Y-90.0
X11.8Y-91.0
X12.8Y-90.0
X12.8Y-91.0
X16.3Y-85.2
X16.3Y-86.2
X16.5Y-76.1
X17.6Y-63.2
X19.3Y-81.5
X19.3Y-84.0
X20.2Y-85.65
X22.4Y-85.65
X24.6Y-85.65
X25.8Y-99.5
X26.4Y-71.2
X31.3Y-85.2
X31.3Y-86.2
X34.3Y-81.5
X34.3Y-84.0
X35.2Y-85.65
X36.55Y-73.2
X36.55Y-73.8
X36.6Y-95.8
X37.15Y-73.2
X37.15Y-73.8
X37.4Y-85.65
X39.35Y-73.2
X39.35Y-73.8
X39.6Y-85.65
X39.95Y-73.2
X39.95Y-73.8
X41.4Y-95.8
X46.3Y-85.2
X46.3Y-86.2
X46.75Y-91.0
X46.75Y-95.0
X47.75Y-91.0
X47.75Y-95.0
X49.45Y-81.5
X49.45Y-84.0
T4
X28.0Y-59.45
X30.0Y-59.45
T5
X11.75Y-59.475
X14.25Y-59.475
X16.75Y-59.475
X19.25Y-59.475
T6
X38.52Y-60.95
X42.48Y-60.95
T3
X34.68Y-97.005G85X34.68Y-98.105
G05
X34.68Y-101.435G85X34.68Y-102.035
G05
X43.32Y-97.005G85X43.32Y-98.105
G05
X43.32Y-101.435G85X43.32Y-102.035
G05
M30
