%TF.GenerationSoftware,KiCad,Pcbnew,10.0.6*%
%TF.CreationDate,2026-09-12T03:45:26-05:00*%
%TF.ProjectId,KK_power_module,4b4b5f70-6f77-4657-925f-6d6f64756c65,P.3 flat stack engineering*%
%TF.SameCoordinates,Original*%
%TF.FileFunction,Copper,L3,Inr*%
%TF.FilePolarity,Positive*%
%FSLAX46Y46*%
G04 Gerber Fmt 4.6, Leading zero omitted, Abs format (unit mm)*
G04 Created by KiCad (PCBNEW 10.0.6) date 2026-09-12 03:45:26*
%MOMM*%
%LPD*%
G01*
G04 APERTURE LIST*
G04 Aperture macros list*
%AMRoundRect*
0 Rectangle with rounded corners*
0 $1 Rounding radius*
0 $2 $3 $4 $5 $6 $7 $8 $9 X,Y pos of 4 corners*
0 Add a 4 corners polygon primitive as box body*
4,1,4,$2,$3,$4,$5,$6,$7,$8,$9,$2,$3,0*
0 Add four circle primitives for the rounded corners*
1,1,$1+$1,$2,$3*
1,1,$1+$1,$4,$5*
1,1,$1+$1,$6,$7*
1,1,$1+$1,$8,$9*
0 Add four rect primitives between the rounded corners*
20,1,$1+$1,$2,$3,$4,$5,0*
20,1,$1+$1,$4,$5,$6,$7,0*
20,1,$1+$1,$6,$7,$8,$9,0*
20,1,$1+$1,$8,$9,$2,$3,0*%
G04 Aperture macros list end*
%TA.AperFunction,ComponentPad*%
%ADD10RoundRect,0.250000X-0.350000X-0.625000X0.350000X-0.625000X0.350000X0.625000X-0.350000X0.625000X0*%
%TD*%
%TA.AperFunction,ComponentPad*%
%ADD11O,1.200000X1.750000*%
%TD*%
%TA.AperFunction,ComponentPad*%
%ADD12O,1.000000X2.100000*%
%TD*%
%TA.AperFunction,ComponentPad*%
%ADD13O,1.000000X1.600000*%
%TD*%
%TA.AperFunction,ComponentPad*%
%ADD14RoundRect,0.250001X-1.099999X-1.099999X1.099999X-1.099999X1.099999X1.099999X-1.099999X1.099999X0*%
%TD*%
%TA.AperFunction,ComponentPad*%
%ADD15C,2.700000*%
%TD*%
%TA.AperFunction,ComponentPad*%
%ADD16RoundRect,0.250000X-0.600000X-0.725000X0.600000X-0.725000X0.600000X0.725000X-0.600000X0.725000X0*%
%TD*%
%TA.AperFunction,ComponentPad*%
%ADD17O,1.700000X1.950000*%
%TD*%
%TA.AperFunction,ViaPad*%
%ADD18C,0.500000*%
%TD*%
%TA.AperFunction,ViaPad*%
%ADD19C,0.600000*%
%TD*%
%TA.AperFunction,Conductor*%
%ADD20C,0.150000*%
%TD*%
%TA.AperFunction,Conductor*%
%ADD21C,1.500000*%
%TD*%
%TA.AperFunction,Conductor*%
%ADD22C,1.200000*%
%TD*%
G04 APERTURE END LIST*
D10*
%TO.N,/NTC*%
%TO.C,J4*%
X28000000Y-59450000D03*
D11*
%TO.N,/GND*%
X30000000Y-59450000D03*
%TD*%
D12*
%TO.N,/GND*%
%TO.C,J1*%
X34680000Y-97555000D03*
D13*
X34680000Y-101735000D03*
D12*
X43320000Y-97555000D03*
D13*
X43320000Y-101735000D03*
%TD*%
D14*
%TO.N,/CELL_PLUS*%
%TO.C,J2*%
X38520000Y-60950000D03*
D15*
%TO.N,/BAT_NEG*%
X42480000Y-60950000D03*
%TD*%
D16*
%TO.N,/MCU_5V*%
%TO.C,J3*%
X11750000Y-59475000D03*
D17*
%TO.N,/GND*%
X14250000Y-59475000D03*
%TO.N,/LOGIC_3V3*%
X16750000Y-59475000D03*
%TO.N,/ACT_3V2*%
X19250000Y-59475000D03*
%TD*%
D18*
%TO.N,/VOLTAGES_OK*%
X34000000Y-65000000D03*
X12500000Y-66500000D03*
%TO.N,/GND*%
X33700001Y-94400001D03*
D19*
X7400000Y-85650000D03*
D18*
X23300001Y-67100001D03*
X47055000Y-67550000D03*
X13775000Y-76400000D03*
X27600000Y-81000000D03*
X43775000Y-76400000D03*
D19*
X9600000Y-85650000D03*
D18*
X39500000Y-77125000D03*
X13675000Y-74800000D03*
X13400001Y-73000001D03*
X42055001Y-67550000D03*
X9400000Y-73800000D03*
X21100001Y-68700001D03*
X41455000Y-67550000D03*
X43400000Y-81000000D03*
X33000001Y-71800001D03*
X10600000Y-72600000D03*
X36455000Y-67550000D03*
D19*
X35200000Y-85650000D03*
D18*
X19900001Y-74500001D03*
D19*
X20200000Y-85650000D03*
D18*
X15000000Y-93000000D03*
D19*
X22400000Y-85650000D03*
X46750000Y-95000000D03*
D18*
X28000001Y-94200001D03*
X28200000Y-98000000D03*
X38900001Y-90700001D03*
X24000000Y-71000000D03*
D19*
X19300001Y-81500000D03*
D18*
X37055001Y-67550000D03*
D19*
X34300000Y-84000000D03*
D18*
X23400000Y-97000000D03*
D19*
X49450000Y-84000000D03*
D18*
X10200000Y-67050000D03*
D19*
X5200000Y-85650000D03*
D18*
X24500000Y-77125000D03*
X13400000Y-81000000D03*
X28400000Y-81000000D03*
X10600000Y-73800000D03*
X46455000Y-67550000D03*
X27200001Y-68300001D03*
X12600000Y-81000000D03*
D19*
X39600000Y-85650000D03*
X34300000Y-81500000D03*
D18*
X17600001Y-91000001D03*
D19*
X49450000Y-81500000D03*
X24600000Y-85650000D03*
D18*
X22600000Y-97000000D03*
X30000001Y-71100001D03*
X9500000Y-77125000D03*
X11700001Y-68300001D03*
X28775000Y-76400000D03*
D19*
X47750000Y-95000000D03*
D18*
X9700001Y-94300000D03*
X9400000Y-72600000D03*
D19*
X19300001Y-84000000D03*
D18*
X34850001Y-78175000D03*
X4850000Y-78175000D03*
X29400000Y-94250000D03*
X40000001Y-93600001D03*
X21200001Y-99900001D03*
X19850000Y-78175000D03*
D19*
X37400000Y-85650000D03*
D18*
X25000001Y-92800000D03*
X42600000Y-81000000D03*
%TO.N,/RAILS_EN*%
X20400000Y-68100000D03*
X19900000Y-70500000D03*
X6600000Y-67700000D03*
X19900000Y-68000000D03*
X21800000Y-72500000D03*
X26600000Y-70400000D03*
X7400000Y-67300000D03*
%TO.N,/REG_3V3*%
X12300000Y-74800000D03*
X25100000Y-71900000D03*
X26100000Y-71900000D03*
X24000000Y-70300000D03*
X22700000Y-76700000D03*
X20200000Y-81200000D03*
X6800000Y-70300000D03*
X32100000Y-69700000D03*
%TO.N,/REG_3V2*%
X33500000Y-70100000D03*
X15500000Y-61600000D03*
X5200000Y-81200000D03*
X4500000Y-68700000D03*
X7700000Y-76700000D03*
D19*
X6200000Y-81800000D03*
D18*
X10900000Y-81500000D03*
D19*
X16500000Y-76100000D03*
D18*
X16000000Y-76400000D03*
X32500000Y-69100000D03*
%TO.N,/CC_3V3*%
X40800000Y-90800000D03*
X40900000Y-90300000D03*
X36700000Y-94800000D03*
X40200000Y-94600000D03*
X34300000Y-94900000D03*
%TO.N,/CC_DEFAULT_N*%
X19100000Y-72600000D03*
X36000000Y-90900000D03*
D19*
%TO.N,/SYS_SW*%
X46300000Y-85200000D03*
X12800000Y-90000000D03*
X16300000Y-85200000D03*
X46300000Y-86200000D03*
X31300000Y-85200000D03*
D18*
X15900000Y-78800000D03*
X16800000Y-81100000D03*
D19*
X11800000Y-91000000D03*
X12800000Y-91000000D03*
X31300000Y-86200000D03*
X11800000Y-90000000D03*
D18*
X30100000Y-79500000D03*
D19*
X16300000Y-86200000D03*
D18*
X15300000Y-75800000D03*
%TO.N,/REG_ENABLE*%
X31800000Y-80400000D03*
X15700000Y-80400000D03*
X13500000Y-83500000D03*
X13400000Y-88400000D03*
X26800000Y-79400000D03*
X16800000Y-80400000D03*
X29600000Y-80900000D03*
X13200000Y-98300000D03*
X44400000Y-80900000D03*
X34200000Y-83200000D03*
%TO.N,/PG_ALL*%
X15200000Y-73300000D03*
X13000000Y-78100000D03*
X11600000Y-76300000D03*
X24900000Y-73900000D03*
X31800000Y-73800000D03*
X29900000Y-75400000D03*
X16500000Y-73300000D03*
%TO.N,/RUN_CTL*%
X16400000Y-89900000D03*
X15100000Y-97400000D03*
X11700000Y-75100000D03*
X16300000Y-88700000D03*
X12800000Y-73900000D03*
X13100000Y-76100000D03*
X14700000Y-79200000D03*
%TO.N,/USB_HIGH_CURRENT*%
X11700000Y-98800000D03*
X30400000Y-91400000D03*
X22300000Y-91100000D03*
X23500000Y-92800000D03*
X30500000Y-90200000D03*
X24000000Y-94900000D03*
X23500000Y-94700000D03*
%TO.N,/BAT_NEG*%
X38400000Y-73000000D03*
X46455000Y-69450000D03*
X36455000Y-69450000D03*
X37055001Y-69450000D03*
X39900000Y-74800000D03*
X47055000Y-69450000D03*
X42055001Y-69450000D03*
X41455000Y-69450000D03*
D19*
%TO.N,/CELL_PLUS*%
X39350000Y-73800000D03*
X39950001Y-73200000D03*
X39350000Y-73200000D03*
X39950001Y-73800000D03*
D18*
%TO.N,/VBAT*%
X25550000Y-97750000D03*
D19*
X36550000Y-73200000D03*
X37150000Y-73800000D03*
X37150000Y-73200000D03*
D18*
X26200000Y-94550000D03*
X26800000Y-94550000D03*
D19*
X36550000Y-73800000D03*
D18*
X25300000Y-97000000D03*
%TO.N,/NTC*%
X29000000Y-63000000D03*
X26550000Y-97400000D03*
X16000000Y-101700000D03*
D19*
%TO.N,/VBUS*%
X47750000Y-91000000D03*
X41400000Y-95800001D03*
D18*
X29000000Y-99500000D03*
X32600000Y-95900000D03*
D19*
X46750000Y-91000000D03*
D18*
X34200000Y-93000000D03*
D19*
X36600000Y-95800001D03*
D18*
%TO.N,/VBUS_DET*%
X40200000Y-91600000D03*
X35500000Y-92900000D03*
%TO.N,/USB_PORT_ILIM*%
X31000000Y-91700000D03*
X32300000Y-99200000D03*
X15700000Y-79700000D03*
X8400000Y-71500000D03*
X31800000Y-92600000D03*
%TO.N,/SYS_RAW*%
X8700000Y-76000000D03*
X13900000Y-87900000D03*
X8700000Y-80400000D03*
X18300000Y-92000000D03*
X16750000Y-92500000D03*
X20100000Y-89300000D03*
X7200000Y-73500000D03*
X19800000Y-96050000D03*
X19200000Y-96050000D03*
X16400000Y-91800000D03*
%TO.N,/PROTECT_CS*%
X43700000Y-74700000D03*
X44000000Y-72700000D03*
%TO.N,/REG_5V*%
X34700000Y-79800000D03*
X37700000Y-76700000D03*
X35200000Y-81200000D03*
%TO.N,/SENSE_5V*%
X11000000Y-70000000D03*
X8750000Y-70000000D03*
%TO.N,/EF_ILIM*%
X14700000Y-87900000D03*
X11600000Y-93700000D03*
X15200000Y-83300000D03*
%TO.N,/SENSE_3V3*%
X12400000Y-68300000D03*
X7200000Y-72600000D03*
X9500000Y-70200000D03*
X5300000Y-74500000D03*
%TO.N,/USB_CHG*%
X26100000Y-93600000D03*
X23250000Y-100500000D03*
X26600000Y-99500000D03*
X24200000Y-92900000D03*
D19*
X25800000Y-99500000D03*
D18*
X22650000Y-100500000D03*
X14400000Y-71900000D03*
%TO.N,/LOGIC_3V3*%
X31500000Y-73200000D03*
X31500000Y-72000000D03*
X22800000Y-73100000D03*
X31200000Y-70500000D03*
%TO.N,/U9_QOD*%
X22800000Y-65400000D03*
X22500000Y-69300000D03*
X25900000Y-65200000D03*
X22800000Y-70800000D03*
%TO.N,/LED1_K*%
X20400000Y-88300000D03*
X20300000Y-91900000D03*
%TO.N,/PGOOD_N*%
X44900000Y-66200000D03*
X23600000Y-90800000D03*
X22000000Y-91700000D03*
%TO.N,/ACT_3V2*%
X20700000Y-58300000D03*
D19*
X17600000Y-63200000D03*
D18*
X19500000Y-63700000D03*
%TO.N,/U10_QOD*%
X18000000Y-69400000D03*
X19600000Y-65800000D03*
%TO.N,/USB_LIMIT_FAULT_N*%
X25900000Y-100500000D03*
X8000000Y-79000000D03*
%TO.N,/U8_CT*%
X27200000Y-69100000D03*
X24900000Y-66600000D03*
%TO.N,/SENSE_3V2*%
X10250000Y-70000000D03*
X14700000Y-72800000D03*
X5300000Y-70000000D03*
%TO.N,/U10_CT*%
X20700000Y-67300000D03*
X18100000Y-70500000D03*
%TO.N,/EF_SLEW*%
X18100000Y-93000000D03*
X14500000Y-94300000D03*
%TO.N,/EF_UVLO*%
X17700000Y-80400000D03*
%TO.N,/EF_FAULT_N*%
X13500000Y-92700000D03*
X15900000Y-90600000D03*
X7000000Y-64000000D03*
D19*
%TO.N,/MCU_5V*%
X26400000Y-71200000D03*
D18*
X29100000Y-69000000D03*
X28400000Y-67000000D03*
X29300000Y-72600000D03*
%TO.N,/PROTECT_VCC*%
X40900000Y-72100000D03*
X36000000Y-72100000D03*
%TO.N,/CHARGE_N*%
X20900000Y-81500000D03*
X20500000Y-92700000D03*
X33200000Y-69000000D03*
X29000000Y-73700000D03*
%TO.N,/CHG_ILIM*%
X22600000Y-92800000D03*
X21600000Y-97800000D03*
%TO.N,/LED2_K*%
X27000000Y-90900000D03*
X19500000Y-99200000D03*
%TD*%
%TO.N,/VOLTAGES_OK*%
D20*
X30500000Y-63700000D02*
X30600000Y-63700000D01*
X26100000Y-63700000D02*
X26200000Y-63600000D01*
X31400000Y-64000000D02*
X31500000Y-64100000D01*
X31700000Y-64200000D02*
X31900000Y-64200000D01*
X26800000Y-63400000D02*
X26900000Y-63300000D01*
X31200000Y-64000000D02*
X31400000Y-64000000D01*
X28200000Y-62900000D02*
X28300000Y-62800000D01*
X26500000Y-63500000D02*
X26600000Y-63400000D01*
X26600000Y-63400000D02*
X26800000Y-63400000D01*
X33900000Y-65000000D02*
X34000000Y-65000000D01*
X26000000Y-63700000D02*
X26100000Y-63700000D01*
X27200000Y-63200000D02*
X27400000Y-63200000D01*
X32800000Y-64600000D02*
X33000000Y-64600000D01*
X27500000Y-63100000D02*
X27600000Y-63100000D01*
X30800000Y-63800000D02*
X30900000Y-63900000D01*
X33600000Y-64900000D02*
X33800000Y-64900000D01*
X33000000Y-64600000D02*
X33100000Y-64700000D01*
X30600000Y-63700000D02*
X30700000Y-63800000D01*
X31100000Y-63900000D02*
X31200000Y-64000000D01*
X33300000Y-64700000D02*
X33400000Y-64800000D01*
X26900000Y-63300000D02*
X27100000Y-63300000D01*
X12500000Y-66500000D02*
X23200000Y-66500000D01*
X30700000Y-63800000D02*
X30800000Y-63800000D01*
X32500000Y-64400000D02*
X32600000Y-64500000D01*
X29300000Y-62500000D02*
X30500000Y-63700000D01*
X32700000Y-64500000D02*
X32800000Y-64600000D01*
X31500000Y-64100000D02*
X31600000Y-64100000D01*
X32200000Y-64300000D02*
X32300000Y-64400000D01*
X27900000Y-63000000D02*
X28000000Y-62900000D01*
X32600000Y-64500000D02*
X32700000Y-64500000D01*
X26300000Y-63600000D02*
X26400000Y-63500000D01*
X26200000Y-63600000D02*
X26300000Y-63600000D01*
X32300000Y-64400000D02*
X32500000Y-64400000D01*
X30900000Y-63900000D02*
X31100000Y-63900000D01*
X26400000Y-63500000D02*
X26500000Y-63500000D01*
X23200000Y-66500000D02*
X26000000Y-63700000D01*
X28700000Y-62500000D02*
X29300000Y-62500000D01*
X31600000Y-64100000D02*
X31700000Y-64200000D01*
X33100000Y-64700000D02*
X33300000Y-64700000D01*
X33400000Y-64800000D02*
X33500000Y-64800000D01*
X31900000Y-64200000D02*
X32000000Y-64300000D01*
X27600000Y-63100000D02*
X27700000Y-63000000D01*
X27100000Y-63300000D02*
X27200000Y-63200000D01*
X28300000Y-62800000D02*
X28400000Y-62800000D01*
X32000000Y-64300000D02*
X32200000Y-64300000D01*
X27700000Y-63000000D02*
X27900000Y-63000000D01*
X28000000Y-62900000D02*
X28200000Y-62900000D01*
X28400000Y-62800000D02*
X28700000Y-62500000D01*
X33500000Y-64800000D02*
X33600000Y-64900000D01*
X27400000Y-63200000D02*
X27500000Y-63100000D01*
X33800000Y-64900000D02*
X33900000Y-65000000D01*
%TO.N,/REG_3V3*%
X29800000Y-70200000D02*
X29700000Y-70300000D01*
X28700000Y-70600000D02*
X28600000Y-70700000D01*
X27400000Y-71100000D02*
X26800000Y-71700000D01*
X30400000Y-70000000D02*
X30300000Y-70100000D01*
X26800000Y-71700000D02*
X26700000Y-71700000D01*
X26600000Y-71800000D02*
X26200000Y-71800000D01*
X29300000Y-70400000D02*
X29200000Y-70500000D01*
X30600000Y-69900000D02*
X30500000Y-70000000D01*
X30900000Y-69800000D02*
X30800000Y-69900000D01*
X29500000Y-70300000D02*
X29400000Y-70400000D01*
X28100000Y-70900000D02*
X27900000Y-70900000D01*
X28600000Y-70700000D02*
X28400000Y-70700000D01*
X27600000Y-71000000D02*
X27500000Y-71100000D01*
X30300000Y-70100000D02*
X30100000Y-70100000D01*
X29200000Y-70500000D02*
X29000000Y-70500000D01*
X28900000Y-70600000D02*
X28700000Y-70600000D01*
X28200000Y-70800000D02*
X28100000Y-70900000D01*
X28300000Y-70800000D02*
X28200000Y-70800000D01*
X30000000Y-70200000D02*
X29800000Y-70200000D01*
X29700000Y-70300000D02*
X29500000Y-70300000D01*
X26700000Y-71700000D02*
X26600000Y-71800000D01*
X31200000Y-69700000D02*
X31100000Y-69800000D01*
X31100000Y-69800000D02*
X30900000Y-69800000D01*
X29000000Y-70500000D02*
X28900000Y-70600000D01*
X29400000Y-70400000D02*
X29300000Y-70400000D01*
X32100000Y-69700000D02*
X31200000Y-69700000D01*
X30500000Y-70000000D02*
X30400000Y-70000000D01*
X27500000Y-71100000D02*
X27400000Y-71100000D01*
X27800000Y-71000000D02*
X27600000Y-71000000D01*
X27900000Y-70900000D02*
X27800000Y-71000000D01*
X26200000Y-71800000D02*
X26100000Y-71900000D01*
X28400000Y-70700000D02*
X28300000Y-70800000D01*
X30800000Y-69900000D02*
X30600000Y-69900000D01*
X30100000Y-70100000D02*
X30000000Y-70200000D01*
%TO.N,/CC_DEFAULT_N*%
X28900000Y-84600000D02*
X28900000Y-84500000D01*
X28300000Y-83600000D02*
X28300000Y-83500000D01*
X27800000Y-82800000D02*
X27800000Y-82700000D01*
X31900000Y-86800000D02*
X31100000Y-86800000D01*
X36000000Y-90900000D02*
X31900000Y-86800000D01*
X28100000Y-83200000D02*
X28000000Y-83100000D01*
X30900000Y-86700000D02*
X29000000Y-84800000D01*
X28000000Y-83100000D02*
X28000000Y-83000000D01*
X28400000Y-83700000D02*
X28300000Y-83600000D01*
X27700000Y-82500000D02*
X22200000Y-77000000D01*
X29000000Y-84800000D02*
X29000000Y-84700000D01*
X22200000Y-77000000D02*
X22200000Y-75700000D01*
X31100000Y-86800000D02*
X31000000Y-86700000D01*
X28300000Y-83500000D02*
X28100000Y-83300000D01*
X28700000Y-84300000D02*
X28700000Y-84200000D01*
X28700000Y-84200000D02*
X28600000Y-84100000D01*
X22200000Y-75700000D02*
X19100000Y-72600000D01*
X28400000Y-83800000D02*
X28400000Y-83700000D01*
X27700000Y-82600000D02*
X27700000Y-82500000D01*
X28600000Y-84000000D02*
X28400000Y-83800000D01*
X28900000Y-84500000D02*
X28700000Y-84300000D01*
X28000000Y-83000000D02*
X27800000Y-82800000D01*
X28100000Y-83300000D02*
X28100000Y-83200000D01*
X29000000Y-84700000D02*
X28900000Y-84600000D01*
X31000000Y-86700000D02*
X30900000Y-86700000D01*
X28600000Y-84100000D02*
X28600000Y-84000000D01*
X27800000Y-82700000D02*
X27700000Y-82600000D01*
%TO.N,/SYS_SW*%
X15400000Y-76400000D02*
X15400000Y-76600000D01*
X15500000Y-76700000D02*
X15500000Y-77000000D01*
X15500000Y-77000000D02*
X15600000Y-77100000D01*
X15800000Y-77900000D02*
X15800000Y-78300000D01*
X15900000Y-78400000D02*
X15900000Y-78800000D01*
X15300000Y-75800000D02*
X15300000Y-76300000D01*
X15800000Y-78300000D02*
X15900000Y-78400000D01*
X15300000Y-76300000D02*
X15400000Y-76400000D01*
X15400000Y-76600000D02*
X15500000Y-76700000D01*
X15700000Y-77400000D02*
X15700000Y-77800000D01*
X15600000Y-77300000D02*
X15700000Y-77400000D01*
X15600000Y-77100000D02*
X15600000Y-77300000D01*
X15700000Y-77800000D02*
X15800000Y-77900000D01*
%TO.N,/REG_ENABLE*%
X28900000Y-80600000D02*
X29000000Y-80700000D01*
X28200000Y-80400000D02*
X28300000Y-80400000D01*
X13000000Y-91700000D02*
X13300000Y-91400000D01*
X14500000Y-82300000D02*
X15000000Y-81800000D01*
X27900000Y-80300000D02*
X28100000Y-80300000D01*
X13400000Y-91200000D02*
X13400000Y-88400000D01*
X29100000Y-80700000D02*
X29600000Y-80900000D01*
X28300000Y-80400000D02*
X28400000Y-80500000D01*
X28800000Y-80600000D02*
X28900000Y-80600000D01*
X13600000Y-83300000D02*
X14500000Y-82400000D01*
X28400000Y-80500000D02*
X28700000Y-80500000D01*
X28100000Y-80300000D02*
X28200000Y-80400000D01*
X13300000Y-91300000D02*
X13400000Y-91200000D01*
X15000000Y-81100000D02*
X15700000Y-80400000D01*
X15700000Y-80400000D02*
X16800000Y-80400000D01*
X15000000Y-81800000D02*
X15000000Y-81100000D01*
X13300000Y-91400000D02*
X13300000Y-91300000D01*
X13600000Y-83400000D02*
X13600000Y-83300000D01*
X13200000Y-98300000D02*
X13200000Y-93200000D01*
X27600000Y-80200000D02*
X27800000Y-80200000D01*
X13000000Y-93000000D02*
X13000000Y-91700000D01*
X13500000Y-83500000D02*
X13600000Y-83400000D01*
X28700000Y-80500000D02*
X28800000Y-80600000D01*
X13200000Y-93200000D02*
X13000000Y-93000000D01*
X14500000Y-82400000D02*
X14500000Y-82300000D01*
X26800000Y-79400000D02*
X27600000Y-80200000D01*
X27800000Y-80200000D02*
X27900000Y-80300000D01*
X29000000Y-80700000D02*
X29100000Y-80700000D01*
%TO.N,/PG_ALL*%
X15200000Y-73300000D02*
X14300000Y-74200000D01*
X14300000Y-74200000D02*
X14300000Y-76700000D01*
X13300000Y-77700000D02*
X13300000Y-77800000D01*
X14300000Y-76700000D02*
X13300000Y-77700000D01*
X13300000Y-77800000D02*
X13000000Y-78100000D01*
%TO.N,/CELL_PLUS*%
D21*
X39650000Y-73500000D02*
X39650000Y-66000000D01*
X39650000Y-66000000D02*
X38520000Y-64870000D01*
X38520000Y-64870000D02*
X38520000Y-60950000D01*
D22*
X39950001Y-73500000D02*
X39350000Y-73500000D01*
%TO.N,/VBAT*%
X37150000Y-73500000D02*
X36550000Y-73500000D01*
%TO.N,/NTC*%
D20*
X23000000Y-81600000D02*
X22900000Y-81500000D01*
X25100000Y-90100000D02*
X25100000Y-89900000D01*
X25700000Y-94000000D02*
X25600000Y-93900000D01*
X23400000Y-67600000D02*
X23600000Y-67600000D01*
X22900000Y-81000000D02*
X22800000Y-80900000D01*
X26500000Y-63900000D02*
X26600000Y-63900000D01*
X22400000Y-77800000D02*
X19400000Y-74800000D01*
X23700000Y-85200000D02*
X23700000Y-84900000D01*
X25400000Y-65300000D02*
X25400000Y-64900000D01*
X27500000Y-63600000D02*
X27600000Y-63500000D01*
X24600000Y-88300000D02*
X24500000Y-88200000D01*
X24600000Y-88500000D02*
X24600000Y-88300000D01*
X25800000Y-95100000D02*
X25800000Y-95000000D01*
X22500000Y-78200000D02*
X22400000Y-78100000D01*
X23500000Y-84100000D02*
X23400000Y-84000000D01*
X25800000Y-95000000D02*
X25700000Y-94900000D01*
X27600000Y-63500000D02*
X27700000Y-63500000D01*
X25000000Y-89800000D02*
X25000000Y-89600000D01*
X23600000Y-67600000D02*
X24400000Y-66800000D01*
X24500000Y-88000000D02*
X24400000Y-87900000D01*
X25300000Y-90800000D02*
X25300000Y-90500000D01*
X24300000Y-87300000D02*
X24200000Y-87200000D01*
X24400000Y-66300000D02*
X25400000Y-65300000D01*
X28300000Y-63300000D02*
X28400000Y-63200000D01*
X24900000Y-89300000D02*
X24800000Y-89200000D01*
X22700000Y-79800000D02*
X22600000Y-79700000D01*
X25600000Y-91400000D02*
X25500000Y-91300000D01*
X22000000Y-69200000D02*
X22000000Y-69000000D01*
X18600000Y-72900000D02*
X18600000Y-72300000D01*
X28600000Y-63100000D02*
X28800000Y-63100000D01*
X24500000Y-88200000D02*
X24500000Y-88000000D01*
X26000000Y-95600000D02*
X26000000Y-95500000D01*
X25400000Y-64900000D02*
X26300000Y-64000000D01*
X23600000Y-84500000D02*
X23500000Y-84400000D01*
X23400000Y-83600000D02*
X23300000Y-83500000D01*
X26200000Y-96100000D02*
X26200000Y-96000000D01*
X24300000Y-87500000D02*
X24300000Y-87300000D01*
X25100000Y-89900000D02*
X25000000Y-89800000D01*
X25300000Y-90500000D02*
X25200000Y-90400000D01*
X27300000Y-63600000D02*
X27500000Y-63600000D01*
X26400000Y-96600000D02*
X26400000Y-96500000D01*
X27000000Y-63700000D02*
X27200000Y-63700000D01*
X26300000Y-96400000D02*
X26300000Y-96200000D01*
X26300000Y-96200000D02*
X26200000Y-96100000D01*
X25400000Y-91000000D02*
X25400000Y-90900000D01*
X24400000Y-66800000D02*
X24400000Y-66300000D01*
X25200000Y-90400000D02*
X25200000Y-90200000D01*
X26500000Y-96900000D02*
X26500000Y-96700000D01*
X27200000Y-63700000D02*
X27300000Y-63600000D01*
X19900000Y-71000000D02*
X20200000Y-71000000D01*
X23300000Y-83500000D02*
X23300000Y-83100000D01*
X20200000Y-71000000D02*
X22000000Y-69200000D01*
X22800000Y-80400000D02*
X22700000Y-80300000D01*
X22500000Y-78900000D02*
X22500000Y-78200000D01*
X26200000Y-96000000D02*
X26100000Y-95900000D01*
X22400000Y-78100000D02*
X22400000Y-77800000D01*
X19400000Y-74800000D02*
X19400000Y-73700000D01*
X18600000Y-72300000D02*
X19900000Y-71000000D01*
X22800000Y-80900000D02*
X22800000Y-80400000D01*
X23400000Y-84000000D02*
X23400000Y-83600000D01*
X24100000Y-86800000D02*
X24100000Y-86500000D01*
X26600000Y-63900000D02*
X26700000Y-63800000D01*
X26400000Y-96500000D02*
X26300000Y-96400000D01*
X25200000Y-90200000D02*
X25100000Y-90100000D01*
X27800000Y-63400000D02*
X28000000Y-63400000D01*
X24000000Y-86100000D02*
X23900000Y-86000000D01*
X24200000Y-86900000D02*
X24100000Y-86800000D01*
X23200000Y-83000000D02*
X23200000Y-82600000D01*
X26700000Y-63800000D02*
X26900000Y-63800000D01*
X25500000Y-91100000D02*
X25400000Y-91000000D01*
X23600000Y-84800000D02*
X23600000Y-84500000D01*
X28800000Y-63100000D02*
X28900000Y-63000000D01*
X26550000Y-97400000D02*
X26500000Y-96900000D01*
X28000000Y-63400000D02*
X28100000Y-63300000D01*
X26400000Y-64000000D02*
X26500000Y-63900000D01*
X23900000Y-85700000D02*
X23800000Y-85600000D01*
X28100000Y-63300000D02*
X28300000Y-63300000D01*
X26100000Y-95700000D02*
X26000000Y-95600000D01*
X22700000Y-80300000D02*
X22700000Y-79800000D01*
X23100000Y-82500000D02*
X23100000Y-82100000D01*
X24900000Y-89500000D02*
X24900000Y-89300000D01*
X22000000Y-69000000D02*
X23400000Y-67600000D01*
X25900000Y-95200000D02*
X25800000Y-95100000D01*
X25900000Y-95400000D02*
X25900000Y-95200000D01*
X24100000Y-86500000D02*
X24000000Y-86400000D01*
X25600000Y-93900000D02*
X25600000Y-91400000D01*
X23900000Y-86000000D02*
X23900000Y-85700000D01*
X27700000Y-63500000D02*
X27800000Y-63400000D01*
X23300000Y-83100000D02*
X23200000Y-83000000D01*
X24400000Y-87900000D02*
X24400000Y-87600000D01*
X28400000Y-63200000D02*
X28500000Y-63200000D01*
X24800000Y-89000000D02*
X24700000Y-88900000D01*
X23000000Y-82000000D02*
X23000000Y-81600000D01*
X22600000Y-79000000D02*
X22500000Y-78900000D01*
X19400000Y-73700000D02*
X18600000Y-72900000D01*
X23500000Y-84400000D02*
X23500000Y-84100000D01*
X23800000Y-85600000D02*
X23800000Y-85300000D01*
X24700000Y-88900000D02*
X24700000Y-88600000D01*
X26000000Y-95500000D02*
X25900000Y-95400000D01*
X22600000Y-79700000D02*
X22600000Y-79000000D01*
X25400000Y-90900000D02*
X25300000Y-90800000D01*
X26100000Y-95900000D02*
X26100000Y-95700000D01*
X22900000Y-81500000D02*
X22900000Y-81000000D01*
X23800000Y-85300000D02*
X23700000Y-85200000D01*
X25700000Y-94900000D02*
X25700000Y-94000000D01*
X24400000Y-87600000D02*
X24300000Y-87500000D01*
X24700000Y-88600000D02*
X24600000Y-88500000D01*
X26500000Y-96700000D02*
X26400000Y-96600000D01*
X28900000Y-63000000D02*
X29000000Y-63000000D01*
X24000000Y-86400000D02*
X24000000Y-86100000D01*
X24200000Y-87200000D02*
X24200000Y-86900000D01*
X28500000Y-63200000D02*
X28600000Y-63100000D01*
X25000000Y-89600000D02*
X24900000Y-89500000D01*
X26900000Y-63800000D02*
X27000000Y-63700000D01*
X26300000Y-64000000D02*
X26400000Y-64000000D01*
X24800000Y-89200000D02*
X24800000Y-89000000D01*
X23100000Y-82100000D02*
X23000000Y-82000000D01*
X25500000Y-91300000D02*
X25500000Y-91100000D01*
X23700000Y-84900000D02*
X23600000Y-84800000D01*
X23200000Y-82600000D02*
X23100000Y-82500000D01*
%TO.N,/USB_PORT_ILIM*%
X8900000Y-72000000D02*
X8400000Y-71500000D01*
X10000000Y-75400000D02*
X9900000Y-75300000D01*
X32300000Y-96400000D02*
X32100000Y-96200000D01*
X13400000Y-78800000D02*
X13200000Y-78600000D01*
X9900000Y-75300000D02*
X9900000Y-75100000D01*
X10300000Y-75900000D02*
X10200000Y-75800000D01*
X32000000Y-92900000D02*
X31900000Y-92800000D01*
X31900000Y-92800000D02*
X31900000Y-92700000D01*
X32100000Y-96200000D02*
X32100000Y-93200000D01*
X12500000Y-78400000D02*
X12500000Y-78200000D01*
X9900000Y-75100000D02*
X8900000Y-74100000D01*
X32300000Y-99200000D02*
X32300000Y-96400000D01*
X10200000Y-75800000D02*
X10200000Y-75700000D01*
X15700000Y-79700000D02*
X14400000Y-79700000D01*
X13200000Y-78600000D02*
X12700000Y-78600000D01*
X31900000Y-92700000D02*
X31800000Y-92600000D01*
X14400000Y-79700000D02*
X13500000Y-78800000D01*
X10200000Y-75700000D02*
X10000000Y-75500000D01*
X10000000Y-75500000D02*
X10000000Y-75400000D01*
X12700000Y-78600000D02*
X12500000Y-78400000D01*
X10300000Y-76000000D02*
X10300000Y-75900000D01*
X32100000Y-93200000D02*
X32000000Y-93100000D01*
X13500000Y-78800000D02*
X13400000Y-78800000D01*
X12500000Y-78200000D02*
X10300000Y-76000000D01*
X32000000Y-93100000D02*
X32000000Y-92900000D01*
X8900000Y-74100000D02*
X8900000Y-72000000D01*
%TO.N,/SENSE_3V3*%
X11300000Y-69500000D02*
X9900000Y-69500000D01*
X9700000Y-69700000D02*
X9500000Y-70200000D01*
X12200000Y-68600000D02*
X11300000Y-69500000D01*
X5300000Y-74500000D02*
X7200000Y-72600000D01*
X12400000Y-68300000D02*
X12200000Y-68500000D01*
X12200000Y-68500000D02*
X12200000Y-68600000D01*
X9900000Y-69500000D02*
X9700000Y-69700000D01*
%TO.N,/USB_CHG*%
X24000000Y-92500000D02*
X22800000Y-91300000D01*
X15700000Y-74400000D02*
X15700000Y-73000000D01*
X22800000Y-90800000D02*
X21300000Y-89300000D01*
X24200000Y-92900000D02*
X24000000Y-92700000D01*
X17100000Y-75900000D02*
X17000000Y-75800000D01*
X15700000Y-73000000D02*
X14600000Y-71900000D01*
X21400000Y-81200000D02*
X17100000Y-76900000D01*
X24000000Y-92700000D02*
X24000000Y-92500000D01*
X21300000Y-89300000D02*
X21300000Y-81900000D01*
X17100000Y-76900000D02*
X17100000Y-75900000D01*
X21300000Y-81900000D02*
X21400000Y-81800000D01*
X21400000Y-81800000D02*
X21400000Y-81200000D01*
X17000000Y-75700000D02*
X15700000Y-74400000D01*
X22800000Y-91300000D02*
X22800000Y-90800000D01*
X14600000Y-71900000D02*
X14400000Y-71900000D01*
X17000000Y-75800000D02*
X17000000Y-75700000D01*
%TO.N,/LED1_K*%
X19900000Y-88800000D02*
X19800000Y-88800000D01*
X19700000Y-90800000D02*
X19700000Y-91300000D01*
X19600000Y-90700000D02*
X19700000Y-90800000D01*
X19600000Y-89000000D02*
X19600000Y-90700000D01*
X20400000Y-88300000D02*
X19900000Y-88800000D01*
X19700000Y-91300000D02*
X20300000Y-91900000D01*
X19800000Y-88800000D02*
X19600000Y-89000000D01*
%TO.N,/ACT_3V2*%
X20700000Y-58300000D02*
X19700000Y-59300000D01*
X19700000Y-59300000D02*
X19250000Y-59475000D01*
%TO.N,/USB_LIMIT_FAULT_N*%
X16500000Y-89200000D02*
X16000000Y-89200000D01*
X15800000Y-88200000D02*
X15700000Y-88100000D01*
X18400000Y-91200000D02*
X18400000Y-91100000D01*
X24900000Y-99500000D02*
X24900000Y-98700000D01*
X10400000Y-81300000D02*
X8100000Y-79000000D01*
X25900000Y-100500000D02*
X24900000Y-99500000D01*
X18800000Y-91700000D02*
X18500000Y-91400000D01*
X10400000Y-81800000D02*
X10400000Y-81300000D01*
X20200000Y-93200000D02*
X18800000Y-91800000D01*
X8100000Y-79000000D02*
X8000000Y-79000000D01*
X20400000Y-93200000D02*
X20200000Y-93200000D01*
X16000000Y-89200000D02*
X15800000Y-89000000D01*
X18500000Y-91300000D02*
X18400000Y-91200000D01*
X24900000Y-98700000D02*
X23900000Y-97700000D01*
X23900000Y-97700000D02*
X23900000Y-96700000D01*
X18500000Y-91400000D02*
X18500000Y-91300000D01*
X18400000Y-91100000D02*
X16500000Y-89200000D01*
X18800000Y-91800000D02*
X18800000Y-91700000D01*
X15700000Y-88100000D02*
X15700000Y-87100000D01*
X15700000Y-87100000D02*
X10400000Y-81800000D01*
X23900000Y-96700000D02*
X20400000Y-93200000D01*
X15800000Y-89000000D02*
X15800000Y-88200000D01*
%TO.N,/SENSE_3V2*%
X9800000Y-70700000D02*
X10000000Y-70500000D01*
X10000000Y-70500000D02*
X10250000Y-70000000D01*
X9200000Y-70700000D02*
X9800000Y-70700000D01*
X6500000Y-69800000D02*
X7700000Y-69800000D01*
X7700000Y-69800000D02*
X8400000Y-70500000D01*
X8400000Y-70500000D02*
X9000000Y-70500000D01*
X9000000Y-70500000D02*
X9200000Y-70700000D01*
X5300000Y-70000000D02*
X6300000Y-70000000D01*
X6300000Y-70000000D02*
X6500000Y-69800000D01*
%TO.N,/EF_SLEW*%
X16800000Y-93400000D02*
X16700000Y-93500000D01*
X17400000Y-93200000D02*
X17300000Y-93300000D01*
X18100000Y-93000000D02*
X17900000Y-93000000D01*
X17500000Y-93200000D02*
X17400000Y-93200000D01*
X15300000Y-93500000D02*
X14500000Y-94300000D01*
X17300000Y-93300000D02*
X17100000Y-93300000D01*
X17800000Y-93100000D02*
X17600000Y-93100000D01*
X16700000Y-93500000D02*
X15300000Y-93500000D01*
X17600000Y-93100000D02*
X17500000Y-93200000D01*
X17000000Y-93400000D02*
X16800000Y-93400000D01*
X17900000Y-93000000D02*
X17800000Y-93100000D01*
X17100000Y-93300000D02*
X17000000Y-93400000D01*
%TO.N,/EF_FAULT_N*%
X15500000Y-89200000D02*
X15400000Y-89100000D01*
X5700000Y-67600000D02*
X5700000Y-67400000D01*
X7000000Y-64100000D02*
X7000000Y-64000000D01*
X15600000Y-89400000D02*
X15500000Y-89300000D01*
X13100000Y-85800000D02*
X9600000Y-82300000D01*
X7500000Y-77500000D02*
X4800000Y-74800000D01*
X6500000Y-65300000D02*
X6600000Y-65200000D01*
X6800000Y-64600000D02*
X6800000Y-64500000D01*
X15900000Y-90600000D02*
X15600000Y-90100000D01*
X6100000Y-66500000D02*
X6100000Y-66400000D01*
X14600000Y-87100000D02*
X14000000Y-86500000D01*
X15400000Y-88300000D02*
X15300000Y-88200000D01*
X5500000Y-68000000D02*
X5600000Y-67900000D01*
X6600000Y-65000000D02*
X6700000Y-64900000D01*
X5400000Y-68400000D02*
X5400000Y-68300000D01*
X4800000Y-69700000D02*
X5000000Y-69500000D01*
X15300000Y-87700000D02*
X14700000Y-87100000D01*
X5200000Y-68800000D02*
X5300000Y-68700000D01*
X6700000Y-64700000D02*
X6800000Y-64600000D01*
X5100000Y-69300000D02*
X5100000Y-69100000D01*
X13200000Y-85800000D02*
X13100000Y-85800000D01*
X6900000Y-64200000D02*
X7000000Y-64100000D01*
X5900000Y-67100000D02*
X5900000Y-66900000D01*
X6900000Y-64400000D02*
X6900000Y-64200000D01*
X15600000Y-90100000D02*
X15600000Y-89400000D01*
X6500000Y-65400000D02*
X6500000Y-65300000D01*
X8200000Y-80000000D02*
X7500000Y-79300000D01*
X6300000Y-65800000D02*
X6400000Y-65700000D01*
X13900000Y-86500000D02*
X13200000Y-85800000D01*
X5200000Y-69000000D02*
X5200000Y-68800000D01*
X6700000Y-64900000D02*
X6700000Y-64700000D01*
X6600000Y-65200000D02*
X6600000Y-65000000D01*
X5800000Y-67300000D02*
X5800000Y-67200000D01*
X14000000Y-86500000D02*
X13900000Y-86500000D01*
X5600000Y-67900000D02*
X5600000Y-67700000D01*
X6400000Y-65700000D02*
X6400000Y-65500000D01*
X8200000Y-80800000D02*
X8200000Y-80000000D01*
X5500000Y-68200000D02*
X5500000Y-68000000D01*
X9600000Y-82300000D02*
X9600000Y-82200000D01*
X6200000Y-66300000D02*
X6200000Y-66100000D01*
X6000000Y-66800000D02*
X6000000Y-66600000D01*
X6400000Y-65500000D02*
X6500000Y-65400000D01*
X5100000Y-69100000D02*
X5200000Y-69000000D01*
X5000000Y-69400000D02*
X5100000Y-69300000D01*
X4800000Y-74800000D02*
X4800000Y-69700000D01*
X6300000Y-66000000D02*
X6300000Y-65800000D01*
X6800000Y-64500000D02*
X6900000Y-64400000D01*
X6000000Y-66600000D02*
X6100000Y-66500000D01*
X5300000Y-68700000D02*
X5300000Y-68500000D01*
X7500000Y-79300000D02*
X7500000Y-77500000D01*
X15300000Y-88200000D02*
X15300000Y-87700000D01*
X5700000Y-67400000D02*
X5800000Y-67300000D01*
X6100000Y-66400000D02*
X6200000Y-66300000D01*
X5600000Y-67700000D02*
X5700000Y-67600000D01*
X14700000Y-87100000D02*
X14600000Y-87100000D01*
X5000000Y-69500000D02*
X5000000Y-69400000D01*
X5300000Y-68500000D02*
X5400000Y-68400000D01*
X6200000Y-66100000D02*
X6300000Y-66000000D01*
X5800000Y-67200000D02*
X5900000Y-67100000D01*
X15500000Y-89300000D02*
X15500000Y-89200000D01*
X15400000Y-89100000D02*
X15400000Y-88300000D01*
X9600000Y-82200000D02*
X8200000Y-80800000D01*
X5900000Y-66900000D02*
X6000000Y-66800000D01*
X5400000Y-68300000D02*
X5500000Y-68200000D01*
%TO.N,/CHARGE_N*%
X33200000Y-69000000D02*
X33200000Y-69500000D01*
X20900000Y-81500000D02*
X20900000Y-92300000D01*
X33200000Y-69500000D02*
X29000000Y-73700000D01*
X20900000Y-92300000D02*
X20500000Y-92700000D01*
%TD*%
%TA.AperFunction,Conductor*%
%TO.N,/SYS_SW*%
G36*
X4627568Y-75018907D02*
G01*
X4639381Y-75028996D01*
X7195504Y-77585119D01*
X7223281Y-77639636D01*
X7224500Y-77655123D01*
X7224500Y-79354800D01*
X7251456Y-79419877D01*
X7259589Y-79439511D01*
X7259589Y-79439512D01*
X7266441Y-79456055D01*
X7266442Y-79456056D01*
X7266443Y-79456058D01*
X7895505Y-80085120D01*
X7923281Y-80139635D01*
X7924500Y-80155122D01*
X7924500Y-80854800D01*
X7961425Y-80943943D01*
X7964528Y-80951434D01*
X7964528Y-80951438D01*
X7966442Y-80956057D01*
X9295504Y-82285119D01*
X9323281Y-82339636D01*
X9324458Y-82354590D01*
X9324499Y-82354797D01*
X9324500Y-82354799D01*
X9324500Y-82354800D01*
X9361947Y-82445203D01*
X9365922Y-82454800D01*
X9365925Y-82454809D01*
X9366440Y-82456054D01*
X9366442Y-82456056D01*
X9366443Y-82456058D01*
X12943941Y-86033557D01*
X12972048Y-86045199D01*
X12972049Y-86045200D01*
X12984845Y-86050500D01*
X13045200Y-86075500D01*
X13045205Y-86075500D01*
X13054766Y-86077403D01*
X13054521Y-86078633D01*
X13103068Y-86094407D01*
X13114880Y-86104495D01*
X13743941Y-86733557D01*
X13769011Y-86743941D01*
X13845200Y-86775500D01*
X13845202Y-86775500D01*
X13854765Y-86777403D01*
X13854520Y-86778633D01*
X13903068Y-86794407D01*
X13914880Y-86804495D01*
X14443941Y-87333557D01*
X14454206Y-87337808D01*
X14500731Y-87377542D01*
X14515017Y-87437036D01*
X14491605Y-87493565D01*
X14465824Y-87515008D01*
X14423391Y-87539507D01*
X14423390Y-87539508D01*
X14423387Y-87539510D01*
X14423387Y-87539511D01*
X14370001Y-87592896D01*
X14315487Y-87620672D01*
X14255055Y-87611101D01*
X14229999Y-87592897D01*
X14176613Y-87539511D01*
X14176610Y-87539509D01*
X14176608Y-87539507D01*
X14073889Y-87480202D01*
X14073890Y-87480202D01*
X14060351Y-87476574D01*
X13959309Y-87449500D01*
X13840691Y-87449500D01*
X13770567Y-87468289D01*
X13726109Y-87480202D01*
X13623391Y-87539507D01*
X13539507Y-87623391D01*
X13480202Y-87726109D01*
X13449500Y-87840692D01*
X13449500Y-87850500D01*
X13430593Y-87908691D01*
X13381093Y-87944655D01*
X13350500Y-87949500D01*
X13340691Y-87949500D01*
X13270567Y-87968289D01*
X13226109Y-87980202D01*
X13123391Y-88039507D01*
X13039507Y-88123391D01*
X12980202Y-88226109D01*
X12970989Y-88260492D01*
X12949500Y-88340691D01*
X12949500Y-88459309D01*
X12972515Y-88545200D01*
X12980202Y-88573890D01*
X13039507Y-88676608D01*
X13039509Y-88676610D01*
X13039511Y-88676613D01*
X13095505Y-88732607D01*
X13123281Y-88787122D01*
X13124500Y-88802609D01*
X13124500Y-91044877D01*
X13105593Y-91103068D01*
X13095505Y-91114880D01*
X13066443Y-91143942D01*
X13049387Y-91185118D01*
X13024499Y-91245202D01*
X13022597Y-91254765D01*
X13021366Y-91254520D01*
X13005593Y-91303068D01*
X12995508Y-91314875D01*
X12843942Y-91466443D01*
X12843941Y-91466442D01*
X12766446Y-91543938D01*
X12766444Y-91543940D01*
X12766443Y-91543942D01*
X12724500Y-91645200D01*
X12724500Y-93054800D01*
X12754206Y-93126515D01*
X12763727Y-93149500D01*
X12763730Y-93149507D01*
X12765921Y-93154799D01*
X12766443Y-93156058D01*
X12895505Y-93285120D01*
X12923281Y-93339635D01*
X12924500Y-93355122D01*
X12924500Y-94901000D01*
X12905593Y-94959191D01*
X12856093Y-94995155D01*
X12825500Y-95000000D01*
X2099000Y-95000000D01*
X2040809Y-94981093D01*
X2004845Y-94931593D01*
X2000000Y-94901000D01*
X2000000Y-94240691D01*
X9249501Y-94240691D01*
X9249501Y-94359309D01*
X9268602Y-94430593D01*
X9280203Y-94473890D01*
X9339508Y-94576608D01*
X9339510Y-94576610D01*
X9339512Y-94576613D01*
X9423388Y-94660489D01*
X9423390Y-94660490D01*
X9423392Y-94660492D01*
X9526111Y-94719797D01*
X9526112Y-94719797D01*
X9526115Y-94719799D01*
X9640692Y-94750500D01*
X9640694Y-94750500D01*
X9759308Y-94750500D01*
X9759310Y-94750500D01*
X9873887Y-94719799D01*
X9873889Y-94719797D01*
X9873891Y-94719797D01*
X9976609Y-94660492D01*
X9976609Y-94660491D01*
X9976614Y-94660489D01*
X10060490Y-94576613D01*
X10081911Y-94539511D01*
X10119798Y-94473890D01*
X10119798Y-94473888D01*
X10119800Y-94473886D01*
X10150501Y-94359309D01*
X10150501Y-94240691D01*
X10119800Y-94126114D01*
X10119798Y-94126111D01*
X10119798Y-94126109D01*
X10060493Y-94023391D01*
X10060491Y-94023389D01*
X10060490Y-94023387D01*
X9976614Y-93939511D01*
X9976611Y-93939509D01*
X9976609Y-93939507D01*
X9873890Y-93880202D01*
X9873891Y-93880202D01*
X9850319Y-93873886D01*
X9759310Y-93849500D01*
X9640692Y-93849500D01*
X9570568Y-93868289D01*
X9526110Y-93880202D01*
X9423392Y-93939507D01*
X9339508Y-94023391D01*
X9280203Y-94126109D01*
X9272429Y-94155122D01*
X9249501Y-94240691D01*
X2000000Y-94240691D01*
X2000000Y-93640691D01*
X11149500Y-93640691D01*
X11149500Y-93759309D01*
X11173340Y-93848281D01*
X11180202Y-93873890D01*
X11239507Y-93976608D01*
X11239509Y-93976610D01*
X11239511Y-93976613D01*
X11323387Y-94060489D01*
X11323389Y-94060490D01*
X11323391Y-94060492D01*
X11426110Y-94119797D01*
X11426111Y-94119797D01*
X11426114Y-94119799D01*
X11540691Y-94150500D01*
X11540693Y-94150500D01*
X11659307Y-94150500D01*
X11659309Y-94150500D01*
X11773886Y-94119799D01*
X11773888Y-94119797D01*
X11773890Y-94119797D01*
X11876608Y-94060492D01*
X11876608Y-94060491D01*
X11876613Y-94060489D01*
X11960489Y-93976613D01*
X11962431Y-93973249D01*
X12019797Y-93873890D01*
X12019797Y-93873888D01*
X12019799Y-93873886D01*
X12050500Y-93759309D01*
X12050500Y-93640691D01*
X12019799Y-93526114D01*
X12019797Y-93526111D01*
X12019797Y-93526109D01*
X11960492Y-93423391D01*
X11960490Y-93423389D01*
X11960489Y-93423387D01*
X11876613Y-93339511D01*
X11876610Y-93339509D01*
X11876608Y-93339507D01*
X11773889Y-93280202D01*
X11773890Y-93280202D01*
X11760351Y-93276574D01*
X11659309Y-93249500D01*
X11540691Y-93249500D01*
X11499669Y-93260492D01*
X11426109Y-93280202D01*
X11323391Y-93339507D01*
X11239507Y-93423391D01*
X11180202Y-93526109D01*
X11168112Y-93571229D01*
X11149500Y-93640691D01*
X2000000Y-93640691D01*
X2000000Y-89535931D01*
X4224500Y-89535931D01*
X4224500Y-89664069D01*
X4242798Y-89756058D01*
X4249499Y-89789742D01*
X4249500Y-89789747D01*
X4298534Y-89908125D01*
X4298538Y-89908133D01*
X4333437Y-89960362D01*
X4369724Y-90014669D01*
X4460331Y-90105276D01*
X4513335Y-90140692D01*
X4566866Y-90176461D01*
X4566870Y-90176463D01*
X4566873Y-90176465D01*
X4685256Y-90225501D01*
X4810931Y-90250500D01*
X4810932Y-90250500D01*
X4939068Y-90250500D01*
X4939069Y-90250500D01*
X5064744Y-90225501D01*
X5183127Y-90176465D01*
X5289669Y-90105276D01*
X5380276Y-90014669D01*
X5451465Y-89908127D01*
X5500501Y-89789744D01*
X5525500Y-89664069D01*
X5525500Y-89535931D01*
X5500501Y-89410256D01*
X5451465Y-89291873D01*
X5451463Y-89291870D01*
X5451461Y-89291866D01*
X5417266Y-89240691D01*
X5380276Y-89185331D01*
X5289669Y-89094724D01*
X5238243Y-89060362D01*
X5183133Y-89023538D01*
X5183125Y-89023534D01*
X5064747Y-88974500D01*
X5064745Y-88974499D01*
X5064744Y-88974499D01*
X4939069Y-88949500D01*
X4810931Y-88949500D01*
X4810930Y-88949500D01*
X4748093Y-88961999D01*
X4685256Y-88974499D01*
X4685255Y-88974499D01*
X4685252Y-88974500D01*
X4566874Y-89023534D01*
X4566866Y-89023538D01*
X4460331Y-89094724D01*
X4460327Y-89094727D01*
X4369727Y-89185327D01*
X4369724Y-89185331D01*
X4298538Y-89291866D01*
X4298534Y-89291874D01*
X4249500Y-89410252D01*
X4249499Y-89410255D01*
X4249499Y-89410256D01*
X4242798Y-89443943D01*
X4228840Y-89514115D01*
X4224500Y-89535931D01*
X2000000Y-89535931D01*
X2000000Y-85584108D01*
X4699500Y-85584108D01*
X4699500Y-85715892D01*
X4718049Y-85785118D01*
X4733609Y-85843190D01*
X4799496Y-85957309D01*
X4799498Y-85957311D01*
X4799500Y-85957314D01*
X4892686Y-86050500D01*
X4892688Y-86050501D01*
X4892690Y-86050503D01*
X5006810Y-86116390D01*
X5006808Y-86116390D01*
X5006812Y-86116391D01*
X5006814Y-86116392D01*
X5134108Y-86150500D01*
X5134110Y-86150500D01*
X5265890Y-86150500D01*
X5265892Y-86150500D01*
X5393186Y-86116392D01*
X5393188Y-86116390D01*
X5393190Y-86116390D01*
X5507309Y-86050503D01*
X5507309Y-86050502D01*
X5507314Y-86050500D01*
X5600500Y-85957314D01*
X5666392Y-85843186D01*
X5700500Y-85715892D01*
X5700500Y-85584108D01*
X6899500Y-85584108D01*
X6899500Y-85715892D01*
X6918049Y-85785118D01*
X6933609Y-85843190D01*
X6999496Y-85957309D01*
X6999498Y-85957311D01*
X6999500Y-85957314D01*
X7092686Y-86050500D01*
X7092688Y-86050501D01*
X7092690Y-86050503D01*
X7206810Y-86116390D01*
X7206808Y-86116390D01*
X7206812Y-86116391D01*
X7206814Y-86116392D01*
X7334108Y-86150500D01*
X7334110Y-86150500D01*
X7465890Y-86150500D01*
X7465892Y-86150500D01*
X7593186Y-86116392D01*
X7593188Y-86116390D01*
X7593190Y-86116390D01*
X7707309Y-86050503D01*
X7707309Y-86050502D01*
X7707314Y-86050500D01*
X7800500Y-85957314D01*
X7866392Y-85843186D01*
X7900500Y-85715892D01*
X7900500Y-85584108D01*
X9099500Y-85584108D01*
X9099500Y-85715892D01*
X9118049Y-85785118D01*
X9133609Y-85843190D01*
X9199496Y-85957309D01*
X9199498Y-85957311D01*
X9199500Y-85957314D01*
X9292686Y-86050500D01*
X9292688Y-86050501D01*
X9292690Y-86050503D01*
X9406810Y-86116390D01*
X9406808Y-86116390D01*
X9406812Y-86116391D01*
X9406814Y-86116392D01*
X9534108Y-86150500D01*
X9534110Y-86150500D01*
X9665890Y-86150500D01*
X9665892Y-86150500D01*
X9793186Y-86116392D01*
X9793188Y-86116390D01*
X9793190Y-86116390D01*
X9907309Y-86050503D01*
X9907309Y-86050502D01*
X9907314Y-86050500D01*
X10000500Y-85957314D01*
X10066392Y-85843186D01*
X10100500Y-85715892D01*
X10100500Y-85584108D01*
X10066392Y-85456814D01*
X10066390Y-85456811D01*
X10066390Y-85456809D01*
X10000503Y-85342690D01*
X10000501Y-85342688D01*
X10000500Y-85342686D01*
X9907314Y-85249500D01*
X9907311Y-85249498D01*
X9907309Y-85249496D01*
X9793189Y-85183609D01*
X9793191Y-85183609D01*
X9743799Y-85170375D01*
X9665892Y-85149500D01*
X9534108Y-85149500D01*
X9456200Y-85170375D01*
X9406809Y-85183609D01*
X9292690Y-85249496D01*
X9199496Y-85342690D01*
X9133609Y-85456809D01*
X9115982Y-85522597D01*
X9099500Y-85584108D01*
X7900500Y-85584108D01*
X7866392Y-85456814D01*
X7866390Y-85456811D01*
X7866390Y-85456809D01*
X7800503Y-85342690D01*
X7800501Y-85342688D01*
X7800500Y-85342686D01*
X7707314Y-85249500D01*
X7707311Y-85249498D01*
X7707309Y-85249496D01*
X7593189Y-85183609D01*
X7593191Y-85183609D01*
X7543799Y-85170375D01*
X7465892Y-85149500D01*
X7334108Y-85149500D01*
X7256200Y-85170375D01*
X7206809Y-85183609D01*
X7092690Y-85249496D01*
X6999496Y-85342690D01*
X6933609Y-85456809D01*
X6915982Y-85522597D01*
X6899500Y-85584108D01*
X5700500Y-85584108D01*
X5666392Y-85456814D01*
X5666390Y-85456811D01*
X5666390Y-85456809D01*
X5600503Y-85342690D01*
X5600501Y-85342688D01*
X5600500Y-85342686D01*
X5507314Y-85249500D01*
X5507311Y-85249498D01*
X5507309Y-85249496D01*
X5393189Y-85183609D01*
X5393191Y-85183609D01*
X5343799Y-85170375D01*
X5265892Y-85149500D01*
X5134108Y-85149500D01*
X5056200Y-85170375D01*
X5006809Y-85183609D01*
X4892690Y-85249496D01*
X4799496Y-85342690D01*
X4733609Y-85456809D01*
X4715982Y-85522597D01*
X4699500Y-85584108D01*
X2000000Y-85584108D01*
X2000000Y-81734108D01*
X5699500Y-81734108D01*
X5699500Y-81865892D01*
X5726428Y-81966390D01*
X5733609Y-81993190D01*
X5799496Y-82107309D01*
X5799498Y-82107311D01*
X5799500Y-82107314D01*
X5892686Y-82200500D01*
X5892688Y-82200501D01*
X5892690Y-82200503D01*
X6006810Y-82266390D01*
X6006808Y-82266390D01*
X6006812Y-82266391D01*
X6006814Y-82266392D01*
X6134108Y-82300500D01*
X6134110Y-82300500D01*
X6265890Y-82300500D01*
X6265892Y-82300500D01*
X6393186Y-82266392D01*
X6393188Y-82266390D01*
X6393190Y-82266390D01*
X6507309Y-82200503D01*
X6507309Y-82200502D01*
X6507314Y-82200500D01*
X6600500Y-82107314D01*
X6636362Y-82045200D01*
X6666390Y-81993190D01*
X6666390Y-81993188D01*
X6666392Y-81993186D01*
X6700500Y-81865892D01*
X6700500Y-81734108D01*
X6666392Y-81606814D01*
X6666390Y-81606811D01*
X6666390Y-81606809D01*
X6600503Y-81492690D01*
X6600501Y-81492688D01*
X6600500Y-81492686D01*
X6507314Y-81399500D01*
X6507311Y-81399498D01*
X6507309Y-81399496D01*
X6393189Y-81333609D01*
X6393191Y-81333609D01*
X6341642Y-81319797D01*
X6265892Y-81299500D01*
X6134108Y-81299500D01*
X6058358Y-81319797D01*
X6006809Y-81333609D01*
X5892690Y-81399496D01*
X5799496Y-81492690D01*
X5733609Y-81606809D01*
X5723409Y-81644877D01*
X5699500Y-81734108D01*
X2000000Y-81734108D01*
X2000000Y-81140691D01*
X4749500Y-81140691D01*
X4749500Y-81259309D01*
X4769409Y-81333609D01*
X4780202Y-81373890D01*
X4839507Y-81476608D01*
X4839509Y-81476610D01*
X4839511Y-81476613D01*
X4923387Y-81560489D01*
X4923389Y-81560490D01*
X4923391Y-81560492D01*
X5026110Y-81619797D01*
X5026111Y-81619797D01*
X5026114Y-81619799D01*
X5140691Y-81650500D01*
X5140693Y-81650500D01*
X5259307Y-81650500D01*
X5259309Y-81650500D01*
X5373886Y-81619799D01*
X5373888Y-81619797D01*
X5373890Y-81619797D01*
X5476608Y-81560492D01*
X5476608Y-81560491D01*
X5476613Y-81560489D01*
X5560489Y-81476613D01*
X5560492Y-81476608D01*
X5619797Y-81373890D01*
X5619797Y-81373888D01*
X5619799Y-81373886D01*
X5650500Y-81259309D01*
X5650500Y-81140691D01*
X5619799Y-81026114D01*
X5619797Y-81026110D01*
X5619797Y-81026109D01*
X5560492Y-80923391D01*
X5560490Y-80923389D01*
X5560489Y-80923387D01*
X5476613Y-80839511D01*
X5476610Y-80839509D01*
X5476608Y-80839507D01*
X5373889Y-80780202D01*
X5373890Y-80780202D01*
X5321055Y-80766045D01*
X5259309Y-80749500D01*
X5140691Y-80749500D01*
X5078945Y-80766045D01*
X5026109Y-80780202D01*
X4923391Y-80839507D01*
X4839507Y-80923391D01*
X4780202Y-81026109D01*
X4767400Y-81073886D01*
X4749500Y-81140691D01*
X2000000Y-81140691D01*
X2000000Y-78115691D01*
X4399500Y-78115691D01*
X4399500Y-78234309D01*
X4419027Y-78307184D01*
X4430202Y-78348890D01*
X4489507Y-78451608D01*
X4489509Y-78451610D01*
X4489511Y-78451613D01*
X4573387Y-78535489D01*
X4573389Y-78535490D01*
X4573391Y-78535492D01*
X4676110Y-78594797D01*
X4676111Y-78594797D01*
X4676114Y-78594799D01*
X4790691Y-78625500D01*
X4790693Y-78625500D01*
X4909307Y-78625500D01*
X4909309Y-78625500D01*
X5023886Y-78594799D01*
X5023888Y-78594797D01*
X5023890Y-78594797D01*
X5126608Y-78535492D01*
X5126608Y-78535491D01*
X5126613Y-78535489D01*
X5210489Y-78451613D01*
X5210492Y-78451608D01*
X5269797Y-78348890D01*
X5269797Y-78348888D01*
X5269799Y-78348886D01*
X5300500Y-78234309D01*
X5300500Y-78115691D01*
X5269799Y-78001114D01*
X5269797Y-78001111D01*
X5269797Y-78001109D01*
X5210492Y-77898391D01*
X5210490Y-77898389D01*
X5210489Y-77898387D01*
X5126613Y-77814511D01*
X5126610Y-77814509D01*
X5126608Y-77814507D01*
X5023889Y-77755202D01*
X5023890Y-77755202D01*
X4965330Y-77739511D01*
X4909309Y-77724500D01*
X4790691Y-77724500D01*
X4734681Y-77739508D01*
X4676109Y-77755202D01*
X4573391Y-77814507D01*
X4489507Y-77898391D01*
X4430202Y-78001109D01*
X4430201Y-78001114D01*
X4399500Y-78115691D01*
X2000000Y-78115691D01*
X2000000Y-75099000D01*
X2018907Y-75040809D01*
X2068407Y-75004845D01*
X2099000Y-75000000D01*
X4569377Y-75000000D01*
X4627568Y-75018907D01*
G37*
%TD.AperFunction*%
%TA.AperFunction,Conductor*%
G36*
X29497466Y-75018907D02*
G01*
X29533430Y-75068407D01*
X29533430Y-75129593D01*
X29525011Y-75148500D01*
X29480202Y-75226109D01*
X29473667Y-75250500D01*
X29449500Y-75340691D01*
X29449500Y-75459309D01*
X29472178Y-75543943D01*
X29480202Y-75573890D01*
X29539507Y-75676608D01*
X29539509Y-75676610D01*
X29539511Y-75676613D01*
X29623387Y-75760489D01*
X29623389Y-75760490D01*
X29623391Y-75760492D01*
X29726110Y-75819797D01*
X29726111Y-75819797D01*
X29726114Y-75819799D01*
X29840691Y-75850500D01*
X29840693Y-75850500D01*
X29959307Y-75850500D01*
X29959309Y-75850500D01*
X30073886Y-75819799D01*
X30073888Y-75819797D01*
X30073890Y-75819797D01*
X30176608Y-75760492D01*
X30176608Y-75760491D01*
X30176613Y-75760489D01*
X30260489Y-75676613D01*
X30276143Y-75649500D01*
X30319797Y-75573890D01*
X30319797Y-75573888D01*
X30319799Y-75573886D01*
X30350500Y-75459309D01*
X30350500Y-75340691D01*
X30319799Y-75226114D01*
X30319797Y-75226111D01*
X30319797Y-75226109D01*
X30274989Y-75148500D01*
X30262267Y-75088652D01*
X30287153Y-75032756D01*
X30340141Y-75002163D01*
X30360725Y-75000000D01*
X39438121Y-75000000D01*
X39496312Y-75018907D01*
X39523857Y-75049500D01*
X39539511Y-75076613D01*
X39623387Y-75160489D01*
X39623389Y-75160490D01*
X39623391Y-75160492D01*
X39726110Y-75219797D01*
X39726111Y-75219797D01*
X39726114Y-75219799D01*
X39840691Y-75250500D01*
X39840693Y-75250500D01*
X39959307Y-75250500D01*
X39959309Y-75250500D01*
X40073886Y-75219799D01*
X40073888Y-75219797D01*
X40073890Y-75219797D01*
X40176608Y-75160492D01*
X40176608Y-75160491D01*
X40176613Y-75160489D01*
X40260489Y-75076613D01*
X40276142Y-75049500D01*
X40321611Y-75008559D01*
X40361879Y-75000000D01*
X43321890Y-75000000D01*
X43380081Y-75018907D01*
X43391893Y-75028995D01*
X43423387Y-75060489D01*
X43423389Y-75060490D01*
X43423390Y-75060491D01*
X43423391Y-75060492D01*
X43526110Y-75119797D01*
X43526111Y-75119797D01*
X43526114Y-75119799D01*
X43640691Y-75150500D01*
X43640693Y-75150500D01*
X43759307Y-75150500D01*
X43759309Y-75150500D01*
X43873886Y-75119799D01*
X43873888Y-75119797D01*
X43873890Y-75119797D01*
X43976608Y-75060492D01*
X43976608Y-75060491D01*
X43976613Y-75060489D01*
X44008107Y-75028995D01*
X44062624Y-75001219D01*
X44078110Y-75000000D01*
X49901000Y-75000000D01*
X49959191Y-75018907D01*
X49995155Y-75068407D01*
X50000000Y-75099000D01*
X50000000Y-81103179D01*
X49981093Y-81161370D01*
X49931593Y-81197334D01*
X49870407Y-81197334D01*
X49830998Y-81173184D01*
X49757314Y-81099500D01*
X49757311Y-81099498D01*
X49757309Y-81099496D01*
X49643189Y-81033609D01*
X49643191Y-81033609D01*
X49593799Y-81020375D01*
X49515892Y-80999500D01*
X49384108Y-80999500D01*
X49306200Y-81020375D01*
X49256809Y-81033609D01*
X49142690Y-81099496D01*
X49049496Y-81192690D01*
X48983609Y-81306809D01*
X48976428Y-81333609D01*
X48949500Y-81434108D01*
X48949500Y-81565892D01*
X48973659Y-81656055D01*
X48983609Y-81693190D01*
X49049496Y-81807309D01*
X49049498Y-81807311D01*
X49049500Y-81807314D01*
X49142686Y-81900500D01*
X49142688Y-81900501D01*
X49142690Y-81900503D01*
X49256810Y-81966390D01*
X49256808Y-81966390D01*
X49256812Y-81966391D01*
X49256814Y-81966392D01*
X49384108Y-82000500D01*
X49384110Y-82000500D01*
X49515890Y-82000500D01*
X49515892Y-82000500D01*
X49643186Y-81966392D01*
X49643188Y-81966390D01*
X49643190Y-81966390D01*
X49757309Y-81900503D01*
X49757309Y-81900502D01*
X49757314Y-81900500D01*
X49830998Y-81826815D01*
X49885513Y-81799040D01*
X49945945Y-81808611D01*
X49989210Y-81851876D01*
X50000000Y-81896821D01*
X50000000Y-83603179D01*
X49981093Y-83661370D01*
X49931593Y-83697334D01*
X49870407Y-83697334D01*
X49830998Y-83673184D01*
X49757314Y-83599500D01*
X49757311Y-83599498D01*
X49757309Y-83599496D01*
X49643189Y-83533609D01*
X49643191Y-83533609D01*
X49593799Y-83520375D01*
X49515892Y-83499500D01*
X49384108Y-83499500D01*
X49306200Y-83520375D01*
X49256809Y-83533609D01*
X49142690Y-83599496D01*
X49049496Y-83692690D01*
X48983609Y-83806809D01*
X48970751Y-83854797D01*
X48949500Y-83934108D01*
X48949500Y-84065892D01*
X48954652Y-84085118D01*
X48983609Y-84193190D01*
X49049496Y-84307309D01*
X49049498Y-84307311D01*
X49049500Y-84307314D01*
X49142686Y-84400500D01*
X49142688Y-84400501D01*
X49142690Y-84400503D01*
X49256810Y-84466390D01*
X49256808Y-84466390D01*
X49256812Y-84466391D01*
X49256814Y-84466392D01*
X49384108Y-84500500D01*
X49384110Y-84500500D01*
X49515890Y-84500500D01*
X49515892Y-84500500D01*
X49643186Y-84466392D01*
X49643188Y-84466390D01*
X49643190Y-84466390D01*
X49757309Y-84400503D01*
X49757309Y-84400502D01*
X49757314Y-84400500D01*
X49830998Y-84326815D01*
X49885513Y-84299040D01*
X49945945Y-84308611D01*
X49989210Y-84351876D01*
X50000000Y-84396821D01*
X50000000Y-94901000D01*
X49981093Y-94959191D01*
X49931593Y-94995155D01*
X49901000Y-95000000D01*
X48344121Y-95000000D01*
X48285930Y-94981093D01*
X48249966Y-94931593D01*
X48248494Y-94926623D01*
X48247144Y-94921584D01*
X48216392Y-94806814D01*
X48216390Y-94806811D01*
X48216390Y-94806809D01*
X48150503Y-94692690D01*
X48150501Y-94692688D01*
X48150500Y-94692686D01*
X48057314Y-94599500D01*
X48057311Y-94599498D01*
X48057309Y-94599496D01*
X47943189Y-94533609D01*
X47943191Y-94533609D01*
X47893799Y-94520375D01*
X47815892Y-94499500D01*
X47684108Y-94499500D01*
X47606200Y-94520375D01*
X47556809Y-94533609D01*
X47442690Y-94599496D01*
X47349498Y-94692688D01*
X47335736Y-94716525D01*
X47290266Y-94757465D01*
X47229416Y-94763860D01*
X47176428Y-94733267D01*
X47164264Y-94716525D01*
X47150501Y-94692688D01*
X47150500Y-94692686D01*
X47057314Y-94599500D01*
X47057311Y-94599498D01*
X47057309Y-94599496D01*
X46943189Y-94533609D01*
X46943191Y-94533609D01*
X46893799Y-94520375D01*
X46815892Y-94499500D01*
X46684108Y-94499500D01*
X46606200Y-94520375D01*
X46556809Y-94533609D01*
X46442690Y-94599496D01*
X46349496Y-94692690D01*
X46283609Y-94806809D01*
X46269543Y-94859307D01*
X46255599Y-94911348D01*
X46251506Y-94926623D01*
X46218182Y-94977937D01*
X46161060Y-94999864D01*
X46155879Y-95000000D01*
X40660725Y-95000000D01*
X40602534Y-94981093D01*
X40566570Y-94931593D01*
X40566570Y-94870407D01*
X40574989Y-94851500D01*
X40619797Y-94773890D01*
X40619797Y-94773888D01*
X40619799Y-94773886D01*
X40650500Y-94659309D01*
X40650500Y-94540691D01*
X40619799Y-94426114D01*
X40619797Y-94426111D01*
X40619797Y-94426109D01*
X40560492Y-94323391D01*
X40560490Y-94323389D01*
X40560489Y-94323387D01*
X40476613Y-94239511D01*
X40476610Y-94239509D01*
X40476608Y-94239507D01*
X40373889Y-94180202D01*
X40373890Y-94180202D01*
X40351213Y-94174125D01*
X40278389Y-94154612D01*
X40227075Y-94121288D01*
X40205149Y-94064167D01*
X40220985Y-94005066D01*
X40254515Y-93973249D01*
X40276609Y-93960493D01*
X40276609Y-93960492D01*
X40276614Y-93960490D01*
X40360490Y-93876614D01*
X40360493Y-93876609D01*
X40419798Y-93773891D01*
X40419798Y-93773889D01*
X40419800Y-93773887D01*
X40450501Y-93659310D01*
X40450501Y-93540692D01*
X40419800Y-93426115D01*
X40419798Y-93426112D01*
X40419798Y-93426110D01*
X40360493Y-93323392D01*
X40360491Y-93323390D01*
X40360490Y-93323388D01*
X40276614Y-93239512D01*
X40276611Y-93239510D01*
X40276609Y-93239508D01*
X40173890Y-93180203D01*
X40173891Y-93180203D01*
X40150330Y-93173890D01*
X40059310Y-93149501D01*
X39940692Y-93149501D01*
X39877464Y-93166443D01*
X39826110Y-93180203D01*
X39723392Y-93239508D01*
X39639508Y-93323392D01*
X39580203Y-93426110D01*
X39566969Y-93475500D01*
X39549501Y-93540692D01*
X39549501Y-93659310D01*
X39569395Y-93733555D01*
X39580203Y-93773891D01*
X39639508Y-93876609D01*
X39639510Y-93876611D01*
X39639512Y-93876614D01*
X39723388Y-93960490D01*
X39723390Y-93960491D01*
X39723392Y-93960493D01*
X39826111Y-94019798D01*
X39826109Y-94019798D01*
X39826113Y-94019799D01*
X39826115Y-94019800D01*
X39921612Y-94045388D01*
X39972924Y-94078711D01*
X39994851Y-94135832D01*
X39979016Y-94194933D01*
X39945489Y-94226749D01*
X39923391Y-94239507D01*
X39839507Y-94323391D01*
X39780202Y-94426109D01*
X39771306Y-94459310D01*
X39749500Y-94540691D01*
X39749500Y-94659309D01*
X39769317Y-94733267D01*
X39780202Y-94773890D01*
X39825011Y-94851500D01*
X39837733Y-94911348D01*
X39812847Y-94967244D01*
X39759859Y-94997837D01*
X39739275Y-95000000D01*
X37241821Y-95000000D01*
X37183630Y-94981093D01*
X37147666Y-94931593D01*
X37146194Y-94875378D01*
X37150500Y-94859309D01*
X37150500Y-94740691D01*
X37119799Y-94626114D01*
X37119797Y-94626111D01*
X37119797Y-94626109D01*
X37060492Y-94523391D01*
X37060490Y-94523389D01*
X37060489Y-94523387D01*
X36976613Y-94439511D01*
X36976610Y-94439509D01*
X36976608Y-94439507D01*
X36873889Y-94380202D01*
X36873890Y-94380202D01*
X36850322Y-94373887D01*
X36759309Y-94349500D01*
X36640691Y-94349500D01*
X36604084Y-94359309D01*
X36526109Y-94380202D01*
X36423391Y-94439507D01*
X36339507Y-94523391D01*
X36280202Y-94626109D01*
X36266671Y-94676609D01*
X36249500Y-94740691D01*
X36249500Y-94859309D01*
X36253805Y-94875378D01*
X36250604Y-94936478D01*
X36212099Y-94984028D01*
X36158179Y-95000000D01*
X34849500Y-95000000D01*
X34791309Y-94981093D01*
X34755345Y-94931593D01*
X34750500Y-94901000D01*
X34750500Y-94840692D01*
X34747902Y-94830996D01*
X34719799Y-94726114D01*
X34719797Y-94726111D01*
X34719797Y-94726109D01*
X34660492Y-94623391D01*
X34660490Y-94623389D01*
X34660489Y-94623387D01*
X34576613Y-94539511D01*
X34576610Y-94539509D01*
X34576608Y-94539507D01*
X34473889Y-94480202D01*
X34473890Y-94480202D01*
X34415707Y-94464612D01*
X34359309Y-94449500D01*
X34249501Y-94449500D01*
X34191310Y-94430593D01*
X34155346Y-94381093D01*
X34150501Y-94350500D01*
X34150501Y-94340693D01*
X34150501Y-94340692D01*
X34119800Y-94226115D01*
X34119798Y-94226112D01*
X34119798Y-94226110D01*
X34060493Y-94123392D01*
X34060491Y-94123390D01*
X34060490Y-94123388D01*
X33976614Y-94039512D01*
X33976611Y-94039510D01*
X33976609Y-94039508D01*
X33873890Y-93980203D01*
X33873891Y-93980203D01*
X33847938Y-93973249D01*
X33759310Y-93949501D01*
X33640692Y-93949501D01*
X33570568Y-93968290D01*
X33526110Y-93980203D01*
X33423392Y-94039508D01*
X33339508Y-94123392D01*
X33280203Y-94226110D01*
X33276296Y-94240691D01*
X33249501Y-94340692D01*
X33249501Y-94459310D01*
X33270990Y-94539507D01*
X33280203Y-94573891D01*
X33339508Y-94676609D01*
X33339510Y-94676611D01*
X33339512Y-94676614D01*
X33423388Y-94760490D01*
X33423390Y-94760491D01*
X33423392Y-94760493D01*
X33518257Y-94815264D01*
X33559198Y-94860734D01*
X33565594Y-94921584D01*
X33535001Y-94974572D01*
X33479105Y-94999458D01*
X33468757Y-95000000D01*
X32474500Y-95000000D01*
X32416309Y-94981093D01*
X32380345Y-94931593D01*
X32375500Y-94901000D01*
X32375500Y-93145200D01*
X32352695Y-93090145D01*
X32340411Y-93060489D01*
X32333557Y-93043941D01*
X32304495Y-93014879D01*
X32276719Y-92960362D01*
X32275500Y-92944876D01*
X32275500Y-92940691D01*
X33749500Y-92940691D01*
X33749500Y-93059309D01*
X33774915Y-93154157D01*
X33780202Y-93173890D01*
X33839507Y-93276608D01*
X33839509Y-93276610D01*
X33839511Y-93276613D01*
X33923387Y-93360489D01*
X33923389Y-93360490D01*
X33923391Y-93360492D01*
X34026110Y-93419797D01*
X34026111Y-93419797D01*
X34026114Y-93419799D01*
X34140691Y-93450500D01*
X34140693Y-93450500D01*
X34259307Y-93450500D01*
X34259309Y-93450500D01*
X34373886Y-93419799D01*
X34373888Y-93419797D01*
X34373890Y-93419797D01*
X34476608Y-93360492D01*
X34476608Y-93360491D01*
X34476613Y-93360489D01*
X34560489Y-93276613D01*
X34572358Y-93256056D01*
X34619797Y-93173890D01*
X34619797Y-93173888D01*
X34619799Y-93173886D01*
X34650500Y-93059309D01*
X34650500Y-92940691D01*
X34623705Y-92840691D01*
X35049500Y-92840691D01*
X35049500Y-92959309D01*
X35066968Y-93024500D01*
X35080202Y-93073890D01*
X35139507Y-93176608D01*
X35139509Y-93176610D01*
X35139511Y-93176613D01*
X35223387Y-93260489D01*
X35223389Y-93260490D01*
X35223391Y-93260492D01*
X35326110Y-93319797D01*
X35326111Y-93319797D01*
X35326114Y-93319799D01*
X35440691Y-93350500D01*
X35440693Y-93350500D01*
X35559307Y-93350500D01*
X35559309Y-93350500D01*
X35673886Y-93319799D01*
X35673888Y-93319797D01*
X35673890Y-93319797D01*
X35776608Y-93260492D01*
X35776608Y-93260491D01*
X35776613Y-93260489D01*
X35860489Y-93176613D01*
X35862061Y-93173890D01*
X35919797Y-93073890D01*
X35919797Y-93073888D01*
X35919799Y-93073886D01*
X35950500Y-92959309D01*
X35950500Y-92840691D01*
X35919799Y-92726114D01*
X35919797Y-92726111D01*
X35919797Y-92726109D01*
X35860492Y-92623391D01*
X35860490Y-92623389D01*
X35860489Y-92623387D01*
X35776613Y-92539511D01*
X35776610Y-92539509D01*
X35776608Y-92539507D01*
X35673889Y-92480202D01*
X35673890Y-92480202D01*
X35660351Y-92476574D01*
X35559309Y-92449500D01*
X35440691Y-92449500D01*
X35373727Y-92467443D01*
X35326109Y-92480202D01*
X35223391Y-92539507D01*
X35139507Y-92623391D01*
X35080202Y-92726109D01*
X35067400Y-92773886D01*
X35049500Y-92840691D01*
X34623705Y-92840691D01*
X34619799Y-92826114D01*
X34613926Y-92815941D01*
X34560492Y-92723391D01*
X34560490Y-92723389D01*
X34560489Y-92723387D01*
X34476613Y-92639511D01*
X34476610Y-92639509D01*
X34476608Y-92639507D01*
X34373889Y-92580202D01*
X34373890Y-92580202D01*
X34345093Y-92572486D01*
X34259309Y-92549500D01*
X34140691Y-92549500D01*
X34079161Y-92565987D01*
X34026109Y-92580202D01*
X33923391Y-92639507D01*
X33839507Y-92723391D01*
X33780202Y-92826109D01*
X33772328Y-92855496D01*
X33749500Y-92940691D01*
X32275500Y-92940691D01*
X32275500Y-92845200D01*
X32242935Y-92766582D01*
X32238134Y-92705585D01*
X32238763Y-92703110D01*
X32250500Y-92659309D01*
X32250500Y-92540691D01*
X32219799Y-92426114D01*
X32219797Y-92426111D01*
X32219797Y-92426109D01*
X32160492Y-92323391D01*
X32160490Y-92323389D01*
X32160489Y-92323387D01*
X32076613Y-92239511D01*
X32076610Y-92239509D01*
X32076608Y-92239507D01*
X31973889Y-92180202D01*
X31973890Y-92180202D01*
X31950318Y-92173886D01*
X31859309Y-92149500D01*
X31740691Y-92149500D01*
X31699669Y-92160492D01*
X31626109Y-92180202D01*
X31523391Y-92239507D01*
X31439507Y-92323391D01*
X31380202Y-92426109D01*
X31373667Y-92450500D01*
X31349500Y-92540691D01*
X31349500Y-92659309D01*
X31370806Y-92738824D01*
X31380202Y-92773890D01*
X31439507Y-92876608D01*
X31439509Y-92876610D01*
X31439511Y-92876613D01*
X31523387Y-92960489D01*
X31523389Y-92960490D01*
X31523391Y-92960492D01*
X31626110Y-93019797D01*
X31626111Y-93019798D01*
X31626113Y-93019798D01*
X31626114Y-93019799D01*
X31651122Y-93026499D01*
X31702436Y-93059822D01*
X31724364Y-93116943D01*
X31724500Y-93122126D01*
X31724500Y-93154800D01*
X31763727Y-93249500D01*
X31766443Y-93256058D01*
X31795505Y-93285120D01*
X31823281Y-93339635D01*
X31824500Y-93355122D01*
X31824500Y-94901000D01*
X31805593Y-94959191D01*
X31756093Y-94995155D01*
X31725500Y-95000000D01*
X27226109Y-95000000D01*
X27167918Y-94981093D01*
X27131954Y-94931593D01*
X27131954Y-94870407D01*
X27156103Y-94830998D01*
X27160489Y-94826613D01*
X27164423Y-94819800D01*
X27219797Y-94723890D01*
X27219797Y-94723888D01*
X27219799Y-94723886D01*
X27250500Y-94609309D01*
X27250500Y-94490691D01*
X27219799Y-94376114D01*
X27219797Y-94376111D01*
X27219797Y-94376109D01*
X27160492Y-94273391D01*
X27160490Y-94273389D01*
X27160489Y-94273387D01*
X27076613Y-94189511D01*
X27076610Y-94189509D01*
X27076608Y-94189507D01*
X26992058Y-94140692D01*
X27549501Y-94140692D01*
X27549501Y-94259310D01*
X27573935Y-94350500D01*
X27580203Y-94373891D01*
X27639508Y-94476609D01*
X27639510Y-94476611D01*
X27639512Y-94476614D01*
X27723388Y-94560490D01*
X27723390Y-94560491D01*
X27723392Y-94560493D01*
X27826111Y-94619798D01*
X27826112Y-94619798D01*
X27826115Y-94619800D01*
X27940692Y-94650501D01*
X27940694Y-94650501D01*
X28059308Y-94650501D01*
X28059310Y-94650501D01*
X28173887Y-94619800D01*
X28173889Y-94619798D01*
X28173891Y-94619798D01*
X28276609Y-94560493D01*
X28276609Y-94560492D01*
X28276614Y-94560490D01*
X28360490Y-94476614D01*
X28362065Y-94473886D01*
X28419798Y-94373891D01*
X28419798Y-94373889D01*
X28419800Y-94373887D01*
X28450501Y-94259310D01*
X28450501Y-94190691D01*
X28949500Y-94190691D01*
X28949500Y-94309309D01*
X28968496Y-94380201D01*
X28980202Y-94423890D01*
X29039507Y-94526608D01*
X29039509Y-94526610D01*
X29039511Y-94526613D01*
X29123387Y-94610489D01*
X29123389Y-94610490D01*
X29123391Y-94610492D01*
X29226110Y-94669797D01*
X29226111Y-94669797D01*
X29226114Y-94669799D01*
X29340691Y-94700500D01*
X29340693Y-94700500D01*
X29459307Y-94700500D01*
X29459309Y-94700500D01*
X29573886Y-94669799D01*
X29573888Y-94669797D01*
X29573890Y-94669797D01*
X29676608Y-94610492D01*
X29676608Y-94610491D01*
X29676613Y-94610489D01*
X29760489Y-94526613D01*
X29789359Y-94476609D01*
X29819797Y-94423890D01*
X29819797Y-94423888D01*
X29819799Y-94423886D01*
X29850500Y-94309309D01*
X29850500Y-94190691D01*
X29819799Y-94076114D01*
X29819797Y-94076111D01*
X29819797Y-94076109D01*
X29760492Y-93973391D01*
X29760490Y-93973389D01*
X29760489Y-93973387D01*
X29676613Y-93889511D01*
X29676610Y-93889509D01*
X29676608Y-93889507D01*
X29573889Y-93830202D01*
X29573890Y-93830202D01*
X29560351Y-93826574D01*
X29459309Y-93799500D01*
X29340691Y-93799500D01*
X29270567Y-93818289D01*
X29226109Y-93830202D01*
X29123391Y-93889507D01*
X29039507Y-93973391D01*
X28980202Y-94076109D01*
X28963180Y-94139635D01*
X28949500Y-94190691D01*
X28450501Y-94190691D01*
X28450501Y-94140692D01*
X28419800Y-94026115D01*
X28419798Y-94026112D01*
X28419798Y-94026110D01*
X28360493Y-93923392D01*
X28360491Y-93923390D01*
X28360490Y-93923388D01*
X28276614Y-93839512D01*
X28276611Y-93839510D01*
X28276609Y-93839508D01*
X28173890Y-93780203D01*
X28173891Y-93780203D01*
X28150319Y-93773887D01*
X28059310Y-93749501D01*
X27940692Y-93749501D01*
X27870568Y-93768290D01*
X27826110Y-93780203D01*
X27723392Y-93839508D01*
X27639508Y-93923392D01*
X27580203Y-94026110D01*
X27570006Y-94064167D01*
X27549501Y-94140692D01*
X26992058Y-94140692D01*
X26973889Y-94130202D01*
X26973890Y-94130202D01*
X26958615Y-94126109D01*
X26859309Y-94099500D01*
X26740691Y-94099500D01*
X26683402Y-94114850D01*
X26626112Y-94130201D01*
X26549500Y-94174434D01*
X26489651Y-94187155D01*
X26450500Y-94174434D01*
X26376775Y-94131869D01*
X26335834Y-94086399D01*
X26329438Y-94025549D01*
X26360031Y-93972561D01*
X26376017Y-93960946D01*
X26376607Y-93960492D01*
X26376613Y-93960489D01*
X26460489Y-93876613D01*
X26462061Y-93873890D01*
X26519797Y-93773890D01*
X26519798Y-93773887D01*
X26519799Y-93773886D01*
X26550500Y-93659309D01*
X26550500Y-93540691D01*
X26519799Y-93426114D01*
X26519797Y-93426110D01*
X26519797Y-93426109D01*
X26460492Y-93323391D01*
X26460490Y-93323389D01*
X26460489Y-93323387D01*
X26376613Y-93239511D01*
X26376610Y-93239509D01*
X26376608Y-93239507D01*
X26273889Y-93180202D01*
X26273890Y-93180202D01*
X26250277Y-93173875D01*
X26159309Y-93149500D01*
X26040691Y-93149500D01*
X26031809Y-93151880D01*
X26000122Y-93160370D01*
X25939020Y-93157167D01*
X25891471Y-93118661D01*
X25875500Y-93064743D01*
X25875500Y-91345200D01*
X25838055Y-91254799D01*
X25833558Y-91243943D01*
X25833557Y-91243942D01*
X25833557Y-91243941D01*
X25804495Y-91214879D01*
X25776719Y-91160362D01*
X25775500Y-91144876D01*
X25775500Y-91045200D01*
X25743924Y-90968970D01*
X25740411Y-90960489D01*
X25733557Y-90943941D01*
X25704495Y-90914879D01*
X25676719Y-90860362D01*
X25675542Y-90845410D01*
X25675500Y-90845202D01*
X25675500Y-90845200D01*
X25673632Y-90840691D01*
X26549500Y-90840691D01*
X26549500Y-90959309D01*
X26571306Y-91040691D01*
X26580202Y-91073890D01*
X26639507Y-91176608D01*
X26639509Y-91176610D01*
X26639511Y-91176613D01*
X26723387Y-91260489D01*
X26723389Y-91260490D01*
X26723391Y-91260492D01*
X26826110Y-91319797D01*
X26826111Y-91319797D01*
X26826114Y-91319799D01*
X26940691Y-91350500D01*
X26940693Y-91350500D01*
X27059307Y-91350500D01*
X27059309Y-91350500D01*
X27095916Y-91340691D01*
X29949500Y-91340691D01*
X29949500Y-91459309D01*
X29972178Y-91543943D01*
X29980202Y-91573890D01*
X30039507Y-91676608D01*
X30039509Y-91676610D01*
X30039511Y-91676613D01*
X30123387Y-91760489D01*
X30123389Y-91760490D01*
X30123391Y-91760492D01*
X30226110Y-91819797D01*
X30226111Y-91819797D01*
X30226114Y-91819799D01*
X30340691Y-91850500D01*
X30340693Y-91850500D01*
X30459310Y-91850500D01*
X30459310Y-91850499D01*
X30470469Y-91847509D01*
X30478933Y-91845242D01*
X30540035Y-91848443D01*
X30587585Y-91886948D01*
X30590293Y-91891367D01*
X30637939Y-91973890D01*
X30639511Y-91976613D01*
X30723387Y-92060489D01*
X30723389Y-92060490D01*
X30723391Y-92060492D01*
X30826110Y-92119797D01*
X30826111Y-92119797D01*
X30826114Y-92119799D01*
X30940691Y-92150500D01*
X30940693Y-92150500D01*
X31059307Y-92150500D01*
X31059309Y-92150500D01*
X31173886Y-92119799D01*
X31173888Y-92119797D01*
X31173890Y-92119797D01*
X31276608Y-92060492D01*
X31276608Y-92060491D01*
X31276613Y-92060489D01*
X31360489Y-91976613D01*
X31362061Y-91973890D01*
X31419797Y-91873890D01*
X31419797Y-91873888D01*
X31419799Y-91873886D01*
X31450500Y-91759309D01*
X31450500Y-91640691D01*
X31423705Y-91540691D01*
X39749500Y-91540691D01*
X39749500Y-91659309D01*
X39754137Y-91676613D01*
X39780202Y-91773890D01*
X39839507Y-91876608D01*
X39839509Y-91876610D01*
X39839511Y-91876613D01*
X39923387Y-91960489D01*
X39923389Y-91960490D01*
X39923391Y-91960492D01*
X40026110Y-92019797D01*
X40026111Y-92019797D01*
X40026114Y-92019799D01*
X40140691Y-92050500D01*
X40140693Y-92050500D01*
X40259307Y-92050500D01*
X40259309Y-92050500D01*
X40373886Y-92019799D01*
X40373888Y-92019797D01*
X40373890Y-92019797D01*
X40476608Y-91960492D01*
X40476608Y-91960491D01*
X40476613Y-91960489D01*
X40560489Y-91876613D01*
X40562061Y-91873890D01*
X40619797Y-91773890D01*
X40619797Y-91773888D01*
X40619799Y-91773886D01*
X40650500Y-91659309D01*
X40650500Y-91540691D01*
X40619799Y-91426114D01*
X40597230Y-91387025D01*
X40584509Y-91327178D01*
X40609395Y-91271282D01*
X40662382Y-91240689D01*
X40708587Y-91241897D01*
X40740691Y-91250500D01*
X40740693Y-91250500D01*
X40859307Y-91250500D01*
X40859309Y-91250500D01*
X40973886Y-91219799D01*
X40973888Y-91219797D01*
X40973890Y-91219797D01*
X41076608Y-91160492D01*
X41076608Y-91160491D01*
X41076613Y-91160489D01*
X41160489Y-91076613D01*
X41162061Y-91073890D01*
X41219797Y-90973890D01*
X41219797Y-90973888D01*
X41219799Y-90973886D01*
X41230458Y-90934108D01*
X46249500Y-90934108D01*
X46249500Y-91065892D01*
X46271904Y-91149507D01*
X46283609Y-91193190D01*
X46349496Y-91307309D01*
X46349498Y-91307311D01*
X46349500Y-91307314D01*
X46442686Y-91400500D01*
X46442688Y-91400501D01*
X46442690Y-91400503D01*
X46556810Y-91466390D01*
X46556808Y-91466390D01*
X46556812Y-91466391D01*
X46556814Y-91466392D01*
X46684108Y-91500500D01*
X46684110Y-91500500D01*
X46815890Y-91500500D01*
X46815892Y-91500500D01*
X46943186Y-91466392D01*
X46943188Y-91466390D01*
X46943190Y-91466390D01*
X47057309Y-91400503D01*
X47057309Y-91400502D01*
X47057314Y-91400500D01*
X47150500Y-91307314D01*
X47164264Y-91283474D01*
X47209733Y-91242534D01*
X47270583Y-91236138D01*
X47323571Y-91266731D01*
X47335734Y-91283471D01*
X47349500Y-91307314D01*
X47442686Y-91400500D01*
X47442688Y-91400501D01*
X47442690Y-91400503D01*
X47556810Y-91466390D01*
X47556808Y-91466390D01*
X47556812Y-91466391D01*
X47556814Y-91466392D01*
X47684108Y-91500500D01*
X47684110Y-91500500D01*
X47815890Y-91500500D01*
X47815892Y-91500500D01*
X47943186Y-91466392D01*
X47943188Y-91466390D01*
X47943190Y-91466390D01*
X48057309Y-91400503D01*
X48057309Y-91400502D01*
X48057314Y-91400500D01*
X48150500Y-91307314D01*
X48150503Y-91307309D01*
X48216390Y-91193190D01*
X48216390Y-91193188D01*
X48216392Y-91193186D01*
X48250500Y-91065892D01*
X48250500Y-90934108D01*
X48216392Y-90806814D01*
X48216390Y-90806811D01*
X48216390Y-90806809D01*
X48150503Y-90692690D01*
X48150501Y-90692688D01*
X48150500Y-90692686D01*
X48057314Y-90599500D01*
X48057311Y-90599498D01*
X48057309Y-90599496D01*
X47943189Y-90533609D01*
X47943191Y-90533609D01*
X47891989Y-90519890D01*
X47815892Y-90499500D01*
X47684108Y-90499500D01*
X47608011Y-90519890D01*
X47556809Y-90533609D01*
X47442690Y-90599496D01*
X47349498Y-90692688D01*
X47335736Y-90716525D01*
X47290266Y-90757465D01*
X47229416Y-90763860D01*
X47176428Y-90733267D01*
X47164264Y-90716525D01*
X47150501Y-90692688D01*
X47150500Y-90692686D01*
X47057314Y-90599500D01*
X47057311Y-90599498D01*
X47057309Y-90599496D01*
X46943189Y-90533609D01*
X46943191Y-90533609D01*
X46891989Y-90519890D01*
X46815892Y-90499500D01*
X46684108Y-90499500D01*
X46608011Y-90519890D01*
X46556809Y-90533609D01*
X46442690Y-90599496D01*
X46349496Y-90692690D01*
X46283609Y-90806809D01*
X46270750Y-90854800D01*
X46249500Y-90934108D01*
X41230458Y-90934108D01*
X41250500Y-90859309D01*
X41250500Y-90740691D01*
X41232730Y-90674373D01*
X41235931Y-90613274D01*
X41258359Y-90578742D01*
X41260489Y-90576613D01*
X41281229Y-90540691D01*
X41319797Y-90473890D01*
X41319797Y-90473888D01*
X41319799Y-90473886D01*
X41350500Y-90359309D01*
X41350500Y-90240691D01*
X41319799Y-90126114D01*
X41319797Y-90126111D01*
X41319797Y-90126109D01*
X41260492Y-90023391D01*
X41260490Y-90023389D01*
X41260489Y-90023387D01*
X41176613Y-89939511D01*
X41176610Y-89939509D01*
X41176608Y-89939507D01*
X41073889Y-89880202D01*
X41073890Y-89880202D01*
X41060351Y-89876574D01*
X40959309Y-89849500D01*
X40840691Y-89849500D01*
X40770567Y-89868289D01*
X40726109Y-89880202D01*
X40623391Y-89939507D01*
X40539507Y-90023391D01*
X40480202Y-90126109D01*
X40470361Y-90162837D01*
X40453571Y-90225500D01*
X40449500Y-90240692D01*
X40449500Y-90359308D01*
X40467269Y-90425626D01*
X40464066Y-90486727D01*
X40441651Y-90521246D01*
X40439512Y-90523384D01*
X40380202Y-90626111D01*
X40380201Y-90626113D01*
X40380201Y-90626114D01*
X40349500Y-90740691D01*
X40349500Y-90859309D01*
X40378884Y-90968970D01*
X40380202Y-90973888D01*
X40402768Y-91012973D01*
X40415490Y-91072822D01*
X40390604Y-91128717D01*
X40337616Y-91159310D01*
X40291410Y-91158101D01*
X40259309Y-91149500D01*
X40140691Y-91149500D01*
X40070567Y-91168289D01*
X40026109Y-91180202D01*
X39923391Y-91239507D01*
X39839507Y-91323391D01*
X39780202Y-91426109D01*
X39772178Y-91456055D01*
X39749500Y-91540691D01*
X31423705Y-91540691D01*
X31419799Y-91526114D01*
X31414136Y-91516305D01*
X31360492Y-91423391D01*
X31360490Y-91423389D01*
X31360489Y-91423387D01*
X31276613Y-91339511D01*
X31276610Y-91339509D01*
X31276608Y-91339507D01*
X31173889Y-91280202D01*
X31173890Y-91280202D01*
X31156700Y-91275596D01*
X31059309Y-91249500D01*
X30940691Y-91249500D01*
X30940690Y-91249500D01*
X30921061Y-91254759D01*
X30859959Y-91251554D01*
X30812411Y-91213046D01*
X30809706Y-91208631D01*
X30760492Y-91123391D01*
X30760490Y-91123389D01*
X30760489Y-91123387D01*
X30676613Y-91039511D01*
X30676610Y-91039509D01*
X30676608Y-91039507D01*
X30573889Y-90980202D01*
X30573890Y-90980202D01*
X30550318Y-90973886D01*
X30459309Y-90949500D01*
X30340691Y-90949500D01*
X30299669Y-90960492D01*
X30226109Y-90980202D01*
X30123391Y-91039507D01*
X30039507Y-91123391D01*
X29980202Y-91226109D01*
X29971024Y-91260363D01*
X29949500Y-91340691D01*
X27095916Y-91340691D01*
X27173886Y-91319799D01*
X27173888Y-91319797D01*
X27173890Y-91319797D01*
X27276608Y-91260492D01*
X27276608Y-91260491D01*
X27276613Y-91260489D01*
X27360489Y-91176613D01*
X27362063Y-91173887D01*
X27419797Y-91073890D01*
X27419797Y-91073888D01*
X27419799Y-91073886D01*
X27450500Y-90959309D01*
X27450500Y-90840691D01*
X27419799Y-90726114D01*
X27419797Y-90726111D01*
X27419797Y-90726109D01*
X27360492Y-90623391D01*
X27360490Y-90623389D01*
X27360489Y-90623387D01*
X27276613Y-90539511D01*
X27276610Y-90539509D01*
X27276608Y-90539507D01*
X27173889Y-90480202D01*
X27173890Y-90480202D01*
X27150318Y-90473886D01*
X27059309Y-90449500D01*
X26940691Y-90449500D01*
X26881449Y-90465374D01*
X26826109Y-90480202D01*
X26723391Y-90539507D01*
X26639507Y-90623391D01*
X26580202Y-90726109D01*
X26571306Y-90759310D01*
X26549500Y-90840691D01*
X25673632Y-90840691D01*
X25640390Y-90760438D01*
X25638054Y-90754799D01*
X25633557Y-90743941D01*
X25604496Y-90714880D01*
X25576719Y-90660363D01*
X25575500Y-90644876D01*
X25575500Y-90445200D01*
X25540018Y-90359540D01*
X25540015Y-90359532D01*
X25533557Y-90343941D01*
X25504496Y-90314880D01*
X25476719Y-90260363D01*
X25475500Y-90244876D01*
X25475500Y-90145200D01*
X25473632Y-90140691D01*
X30049500Y-90140691D01*
X30049500Y-90259309D01*
X30072177Y-90343941D01*
X30080202Y-90373890D01*
X30139507Y-90476608D01*
X30139509Y-90476610D01*
X30139511Y-90476613D01*
X30223387Y-90560489D01*
X30223389Y-90560490D01*
X30223391Y-90560492D01*
X30326110Y-90619797D01*
X30326111Y-90619797D01*
X30326114Y-90619799D01*
X30440691Y-90650500D01*
X30440693Y-90650500D01*
X30559307Y-90650500D01*
X30559309Y-90650500D01*
X30673886Y-90619799D01*
X30673888Y-90619797D01*
X30673890Y-90619797D01*
X30776608Y-90560492D01*
X30776608Y-90560491D01*
X30776613Y-90560489D01*
X30860489Y-90476613D01*
X30862061Y-90473890D01*
X30919797Y-90373890D01*
X30919797Y-90373888D01*
X30919799Y-90373886D01*
X30950500Y-90259309D01*
X30950500Y-90140691D01*
X30919799Y-90026114D01*
X30919797Y-90026111D01*
X30919797Y-90026109D01*
X30860492Y-89923391D01*
X30860490Y-89923389D01*
X30860489Y-89923387D01*
X30776613Y-89839511D01*
X30776610Y-89839509D01*
X30776608Y-89839507D01*
X30673889Y-89780202D01*
X30673890Y-89780202D01*
X30660351Y-89776574D01*
X30559309Y-89749500D01*
X30440691Y-89749500D01*
X30370567Y-89768289D01*
X30326109Y-89780202D01*
X30223391Y-89839507D01*
X30139507Y-89923391D01*
X30080202Y-90026109D01*
X30069491Y-90066085D01*
X30049500Y-90140691D01*
X25473632Y-90140691D01*
X25433557Y-90043942D01*
X25433557Y-90043941D01*
X25433556Y-90043940D01*
X25404496Y-90014879D01*
X25376719Y-89960362D01*
X25375500Y-89944876D01*
X25375500Y-89845200D01*
X25338576Y-89756057D01*
X25333558Y-89743943D01*
X25333557Y-89743942D01*
X25333557Y-89743941D01*
X25304495Y-89714879D01*
X25276719Y-89660362D01*
X25275500Y-89644876D01*
X25275500Y-89545200D01*
X25238055Y-89454799D01*
X25233558Y-89443943D01*
X25233557Y-89443942D01*
X25233557Y-89443941D01*
X25204495Y-89414879D01*
X25176719Y-89360362D01*
X25175500Y-89344876D01*
X25175500Y-89245200D01*
X25138055Y-89154799D01*
X25133558Y-89143943D01*
X25133557Y-89143942D01*
X25133557Y-89143941D01*
X25104495Y-89114879D01*
X25076719Y-89060362D01*
X25075500Y-89044876D01*
X25075500Y-88945200D01*
X25038055Y-88854799D01*
X25033558Y-88843943D01*
X25033557Y-88843942D01*
X25033557Y-88843941D01*
X25004495Y-88814879D01*
X24976719Y-88760362D01*
X24975500Y-88744876D01*
X24975500Y-88545200D01*
X24940018Y-88459540D01*
X24940018Y-88459539D01*
X24933557Y-88443941D01*
X24904496Y-88414880D01*
X24876719Y-88360363D01*
X24875500Y-88344876D01*
X24875500Y-88245200D01*
X24841093Y-88162135D01*
X24833557Y-88143942D01*
X24833557Y-88143941D01*
X24829251Y-88139635D01*
X24804496Y-88114879D01*
X24776719Y-88060362D01*
X24775500Y-88044876D01*
X24775500Y-87945200D01*
X24738576Y-87856057D01*
X24733558Y-87843943D01*
X24733557Y-87843942D01*
X24733557Y-87843941D01*
X24704495Y-87814879D01*
X24676719Y-87760362D01*
X24675500Y-87744876D01*
X24675500Y-87545200D01*
X24638576Y-87456057D01*
X24633558Y-87443943D01*
X24633557Y-87443942D01*
X24633557Y-87443941D01*
X24604495Y-87414879D01*
X24576719Y-87360362D01*
X24575500Y-87344876D01*
X24575500Y-87245200D01*
X24533557Y-87143942D01*
X24533557Y-87143941D01*
X24533556Y-87143940D01*
X24504496Y-87114879D01*
X24476719Y-87060362D01*
X24475500Y-87044876D01*
X24475500Y-86845200D01*
X24433557Y-86743942D01*
X24433557Y-86743941D01*
X24433556Y-86743940D01*
X24404496Y-86714879D01*
X24376719Y-86660362D01*
X24375500Y-86644876D01*
X24375500Y-86445200D01*
X24333557Y-86343942D01*
X24333557Y-86343941D01*
X24333556Y-86343940D01*
X24304496Y-86314879D01*
X24276719Y-86260362D01*
X24275500Y-86244876D01*
X24275500Y-86210163D01*
X24294407Y-86151972D01*
X24343907Y-86116008D01*
X24400199Y-86116008D01*
X24400546Y-86114712D01*
X24406812Y-86116391D01*
X24406814Y-86116392D01*
X24534108Y-86150500D01*
X24534110Y-86150500D01*
X24665890Y-86150500D01*
X24665892Y-86150500D01*
X24793186Y-86116392D01*
X24793188Y-86116390D01*
X24793190Y-86116390D01*
X24907309Y-86050503D01*
X24907309Y-86050502D01*
X24907314Y-86050500D01*
X25000500Y-85957314D01*
X25066392Y-85843186D01*
X25100500Y-85715892D01*
X25100500Y-85584108D01*
X25066392Y-85456814D01*
X25066390Y-85456811D01*
X25066390Y-85456809D01*
X25000503Y-85342690D01*
X25000501Y-85342688D01*
X25000500Y-85342686D01*
X24907314Y-85249500D01*
X24907311Y-85249498D01*
X24907309Y-85249496D01*
X24793189Y-85183609D01*
X24793191Y-85183609D01*
X24743799Y-85170375D01*
X24665892Y-85149500D01*
X24534108Y-85149500D01*
X24456200Y-85170375D01*
X24406809Y-85183609D01*
X24292690Y-85249496D01*
X24292684Y-85249500D01*
X24243213Y-85298972D01*
X24188696Y-85326749D01*
X24128264Y-85317177D01*
X24085000Y-85273912D01*
X24076112Y-85248279D01*
X24075500Y-85245204D01*
X24075500Y-85245200D01*
X24058126Y-85203257D01*
X24045841Y-85173598D01*
X24045841Y-85173597D01*
X24033558Y-85143944D01*
X24033557Y-85143941D01*
X24004495Y-85114879D01*
X23976719Y-85060362D01*
X23975500Y-85044876D01*
X23975500Y-84845200D01*
X23933557Y-84743942D01*
X23933557Y-84743941D01*
X23933556Y-84743940D01*
X23904496Y-84714879D01*
X23876719Y-84660362D01*
X23875500Y-84644876D01*
X23875500Y-84445200D01*
X23838055Y-84354799D01*
X23833558Y-84343943D01*
X23833557Y-84343942D01*
X23833557Y-84343941D01*
X23804495Y-84314879D01*
X23776719Y-84260362D01*
X23775500Y-84244876D01*
X23775500Y-84045200D01*
X23737665Y-83953858D01*
X23737665Y-83953859D01*
X23737664Y-83953856D01*
X23733557Y-83943941D01*
X23704495Y-83914879D01*
X23676719Y-83860362D01*
X23675500Y-83844876D01*
X23675500Y-83545200D01*
X23638408Y-83455653D01*
X23633557Y-83443942D01*
X23633557Y-83443941D01*
X23630304Y-83440688D01*
X23604496Y-83414879D01*
X23576719Y-83360362D01*
X23575500Y-83344876D01*
X23575500Y-83045200D01*
X23541093Y-82962135D01*
X23533557Y-82943942D01*
X23533557Y-82943941D01*
X23529123Y-82939507D01*
X23504496Y-82914879D01*
X23476719Y-82860362D01*
X23475500Y-82844876D01*
X23475500Y-82545200D01*
X23441093Y-82462135D01*
X23434166Y-82445413D01*
X23433557Y-82443942D01*
X23433557Y-82443941D01*
X23433556Y-82443940D01*
X23404496Y-82414879D01*
X23376719Y-82360362D01*
X23375500Y-82344876D01*
X23375500Y-82045200D01*
X23338055Y-81954799D01*
X23333558Y-81943943D01*
X23333557Y-81943942D01*
X23333557Y-81943941D01*
X23304495Y-81914879D01*
X23276719Y-81860362D01*
X23275500Y-81844876D01*
X23275500Y-81545200D01*
X23237665Y-81453858D01*
X23237665Y-81453859D01*
X23237664Y-81453856D01*
X23233557Y-81443941D01*
X23204495Y-81414879D01*
X23176719Y-81360362D01*
X23175500Y-81344876D01*
X23175500Y-80945200D01*
X23140390Y-80860438D01*
X23140390Y-80860437D01*
X23133557Y-80843941D01*
X23104496Y-80814880D01*
X23076719Y-80760363D01*
X23075500Y-80744876D01*
X23075500Y-80345200D01*
X23038055Y-80254799D01*
X23033558Y-80243943D01*
X23033557Y-80243942D01*
X23033557Y-80243941D01*
X23004495Y-80214879D01*
X22976719Y-80160362D01*
X22975500Y-80144876D01*
X22975500Y-79745200D01*
X22940390Y-79660438D01*
X22940390Y-79660437D01*
X22933557Y-79643941D01*
X22904496Y-79614880D01*
X22876719Y-79560363D01*
X22875500Y-79544876D01*
X22875500Y-78945200D01*
X22833557Y-78843942D01*
X22833557Y-78843941D01*
X22833556Y-78843940D01*
X22804496Y-78814879D01*
X22776719Y-78760362D01*
X22775500Y-78744876D01*
X22775500Y-78204123D01*
X22794407Y-78145932D01*
X22843907Y-78109968D01*
X22905093Y-78109968D01*
X22944504Y-78134119D01*
X27395504Y-82585119D01*
X27423281Y-82639636D01*
X27424458Y-82654590D01*
X27424499Y-82654797D01*
X27424500Y-82654799D01*
X27424500Y-82654800D01*
X27463727Y-82749500D01*
X27466443Y-82756058D01*
X27495505Y-82785120D01*
X27523281Y-82839635D01*
X27524458Y-82854590D01*
X27524499Y-82854797D01*
X27524500Y-82854799D01*
X27524500Y-82854800D01*
X27566443Y-82956058D01*
X27695505Y-83085120D01*
X27723281Y-83139635D01*
X27724458Y-83154590D01*
X27724499Y-83154797D01*
X27724500Y-83154799D01*
X27724500Y-83154800D01*
X27749386Y-83214879D01*
X27765922Y-83254800D01*
X27765925Y-83254809D01*
X27766440Y-83256054D01*
X27766442Y-83256056D01*
X27766443Y-83256058D01*
X27795505Y-83285120D01*
X27823281Y-83339635D01*
X27824458Y-83354590D01*
X27824499Y-83354797D01*
X27824500Y-83354799D01*
X27824500Y-83354800D01*
X27861947Y-83445203D01*
X27865922Y-83454800D01*
X27865925Y-83454809D01*
X27866440Y-83456054D01*
X27866442Y-83456056D01*
X27866443Y-83456058D01*
X27995505Y-83585120D01*
X28023281Y-83639635D01*
X28024458Y-83654590D01*
X28024499Y-83654797D01*
X28024500Y-83654799D01*
X28024500Y-83654800D01*
X28064141Y-83750500D01*
X28064142Y-83750504D01*
X28066440Y-83756054D01*
X28066442Y-83756056D01*
X28066443Y-83756058D01*
X28095505Y-83785120D01*
X28123281Y-83839635D01*
X28124458Y-83854590D01*
X28124499Y-83854797D01*
X28124500Y-83854799D01*
X28124500Y-83854800D01*
X28161424Y-83943940D01*
X28164141Y-83950500D01*
X28164142Y-83950504D01*
X28166440Y-83956054D01*
X28166442Y-83956056D01*
X28166443Y-83956058D01*
X28295505Y-84085120D01*
X28323281Y-84139635D01*
X28324458Y-84154590D01*
X28324499Y-84154797D01*
X28324500Y-84154799D01*
X28324500Y-84154800D01*
X28349386Y-84214879D01*
X28365922Y-84254800D01*
X28365925Y-84254809D01*
X28366440Y-84256054D01*
X28366442Y-84256056D01*
X28366443Y-84256058D01*
X28395505Y-84285120D01*
X28423281Y-84339635D01*
X28424458Y-84354590D01*
X28424499Y-84354797D01*
X28424500Y-84354799D01*
X28424500Y-84354800D01*
X28462032Y-84445408D01*
X28465922Y-84454800D01*
X28465925Y-84454809D01*
X28466440Y-84456054D01*
X28466442Y-84456056D01*
X28466443Y-84456058D01*
X28595505Y-84585120D01*
X28623281Y-84639635D01*
X28624458Y-84654590D01*
X28624499Y-84654797D01*
X28624500Y-84654799D01*
X28624500Y-84654800D01*
X28637376Y-84685884D01*
X28665922Y-84754800D01*
X28665925Y-84754809D01*
X28666440Y-84756054D01*
X28666442Y-84756056D01*
X28666443Y-84756058D01*
X28695505Y-84785120D01*
X28723281Y-84839635D01*
X28724458Y-84854590D01*
X28724499Y-84854797D01*
X28724500Y-84854799D01*
X28724500Y-84854800D01*
X28757123Y-84933557D01*
X28766443Y-84956058D01*
X30743942Y-86933558D01*
X30743943Y-86933558D01*
X30743944Y-86933559D01*
X30845198Y-86975500D01*
X30854761Y-86977402D01*
X30854516Y-86978632D01*
X30903067Y-86994407D01*
X30914879Y-87004495D01*
X30943941Y-87033557D01*
X30969009Y-87043940D01*
X30969011Y-87043942D01*
X30969012Y-87043942D01*
X30991327Y-87053184D01*
X31045200Y-87075500D01*
X31744877Y-87075500D01*
X31803068Y-87094407D01*
X31814880Y-87104495D01*
X35520505Y-90810121D01*
X35548281Y-90864636D01*
X35549500Y-90880123D01*
X35549500Y-90959309D01*
X35571306Y-91040691D01*
X35580202Y-91073890D01*
X35639507Y-91176608D01*
X35639509Y-91176610D01*
X35639511Y-91176613D01*
X35723387Y-91260489D01*
X35723389Y-91260490D01*
X35723391Y-91260492D01*
X35826110Y-91319797D01*
X35826111Y-91319797D01*
X35826114Y-91319799D01*
X35940691Y-91350500D01*
X35940693Y-91350500D01*
X36059307Y-91350500D01*
X36059309Y-91350500D01*
X36173886Y-91319799D01*
X36173888Y-91319797D01*
X36173890Y-91319797D01*
X36276608Y-91260492D01*
X36276608Y-91260491D01*
X36276613Y-91260489D01*
X36360489Y-91176613D01*
X36362063Y-91173887D01*
X36419797Y-91073890D01*
X36419797Y-91073888D01*
X36419799Y-91073886D01*
X36450500Y-90959309D01*
X36450500Y-90840691D01*
X36419799Y-90726114D01*
X36419796Y-90726109D01*
X36395313Y-90683703D01*
X36395312Y-90683701D01*
X36370480Y-90640692D01*
X38449501Y-90640692D01*
X38449501Y-90759310D01*
X38470974Y-90839448D01*
X38480203Y-90873891D01*
X38539508Y-90976609D01*
X38539510Y-90976611D01*
X38539512Y-90976614D01*
X38623388Y-91060490D01*
X38623390Y-91060491D01*
X38623392Y-91060493D01*
X38726111Y-91119798D01*
X38726112Y-91119798D01*
X38726115Y-91119800D01*
X38840692Y-91150501D01*
X38840694Y-91150501D01*
X38959308Y-91150501D01*
X38959310Y-91150501D01*
X39073887Y-91119800D01*
X39073889Y-91119798D01*
X39073891Y-91119798D01*
X39176609Y-91060493D01*
X39176609Y-91060492D01*
X39176614Y-91060490D01*
X39260490Y-90976614D01*
X39272899Y-90955122D01*
X39319798Y-90873891D01*
X39319798Y-90873889D01*
X39319800Y-90873887D01*
X39350501Y-90759310D01*
X39350501Y-90640692D01*
X39319800Y-90526115D01*
X39319798Y-90526112D01*
X39319798Y-90526110D01*
X39260493Y-90423392D01*
X39260491Y-90423390D01*
X39260490Y-90423388D01*
X39176614Y-90339512D01*
X39176611Y-90339510D01*
X39176609Y-90339508D01*
X39073890Y-90280203D01*
X39073891Y-90280203D01*
X39038884Y-90270823D01*
X38959310Y-90249501D01*
X38840692Y-90249501D01*
X38770568Y-90268290D01*
X38726110Y-90280203D01*
X38623392Y-90339508D01*
X38539508Y-90423392D01*
X38480203Y-90526110D01*
X38469360Y-90566577D01*
X38449501Y-90640692D01*
X36370480Y-90640692D01*
X36362062Y-90626111D01*
X36360489Y-90623387D01*
X36276613Y-90539511D01*
X36276610Y-90539509D01*
X36276608Y-90539507D01*
X36173889Y-90480202D01*
X36173890Y-90480202D01*
X36150318Y-90473886D01*
X36059309Y-90449500D01*
X35980124Y-90449500D01*
X35921933Y-90430593D01*
X35910120Y-90420504D01*
X34963502Y-89473886D01*
X32056058Y-86566443D01*
X31954800Y-86524500D01*
X31954799Y-86524500D01*
X31255123Y-86524500D01*
X31196932Y-86505593D01*
X31185120Y-86495505D01*
X31156058Y-86466443D01*
X31054800Y-86424500D01*
X31054799Y-86424500D01*
X31054797Y-86424499D01*
X31045235Y-86422597D01*
X31045479Y-86421366D01*
X30996933Y-86405593D01*
X30985120Y-86395504D01*
X30173724Y-85584108D01*
X34699500Y-85584108D01*
X34699500Y-85715892D01*
X34718049Y-85785118D01*
X34733609Y-85843190D01*
X34799496Y-85957309D01*
X34799498Y-85957311D01*
X34799500Y-85957314D01*
X34892686Y-86050500D01*
X34892688Y-86050501D01*
X34892690Y-86050503D01*
X35006810Y-86116390D01*
X35006808Y-86116390D01*
X35006812Y-86116391D01*
X35006814Y-86116392D01*
X35134108Y-86150500D01*
X35134110Y-86150500D01*
X35265890Y-86150500D01*
X35265892Y-86150500D01*
X35393186Y-86116392D01*
X35393188Y-86116390D01*
X35393190Y-86116390D01*
X35507309Y-86050503D01*
X35507309Y-86050502D01*
X35507314Y-86050500D01*
X35600500Y-85957314D01*
X35666392Y-85843186D01*
X35700500Y-85715892D01*
X35700500Y-85584108D01*
X36899500Y-85584108D01*
X36899500Y-85715892D01*
X36918049Y-85785118D01*
X36933609Y-85843190D01*
X36999496Y-85957309D01*
X36999498Y-85957311D01*
X36999500Y-85957314D01*
X37092686Y-86050500D01*
X37092688Y-86050501D01*
X37092690Y-86050503D01*
X37206810Y-86116390D01*
X37206808Y-86116390D01*
X37206812Y-86116391D01*
X37206814Y-86116392D01*
X37334108Y-86150500D01*
X37334110Y-86150500D01*
X37465890Y-86150500D01*
X37465892Y-86150500D01*
X37593186Y-86116392D01*
X37593188Y-86116390D01*
X37593190Y-86116390D01*
X37707309Y-86050503D01*
X37707309Y-86050502D01*
X37707314Y-86050500D01*
X37800500Y-85957314D01*
X37866392Y-85843186D01*
X37900500Y-85715892D01*
X37900500Y-85584108D01*
X39099500Y-85584108D01*
X39099500Y-85715892D01*
X39118049Y-85785118D01*
X39133609Y-85843190D01*
X39199496Y-85957309D01*
X39199498Y-85957311D01*
X39199500Y-85957314D01*
X39292686Y-86050500D01*
X39292688Y-86050501D01*
X39292690Y-86050503D01*
X39406810Y-86116390D01*
X39406808Y-86116390D01*
X39406812Y-86116391D01*
X39406814Y-86116392D01*
X39534108Y-86150500D01*
X39534110Y-86150500D01*
X39665890Y-86150500D01*
X39665892Y-86150500D01*
X39793186Y-86116392D01*
X39793188Y-86116390D01*
X39793190Y-86116390D01*
X39907309Y-86050503D01*
X39907309Y-86050502D01*
X39907314Y-86050500D01*
X40000500Y-85957314D01*
X40066392Y-85843186D01*
X40100500Y-85715892D01*
X40100500Y-85584108D01*
X40066392Y-85456814D01*
X40066390Y-85456811D01*
X40066390Y-85456809D01*
X40000503Y-85342690D01*
X40000501Y-85342688D01*
X40000500Y-85342686D01*
X39907314Y-85249500D01*
X39907311Y-85249498D01*
X39907309Y-85249496D01*
X39793189Y-85183609D01*
X39793191Y-85183609D01*
X39743799Y-85170375D01*
X39665892Y-85149500D01*
X39534108Y-85149500D01*
X39456200Y-85170375D01*
X39406809Y-85183609D01*
X39292690Y-85249496D01*
X39199496Y-85342690D01*
X39133609Y-85456809D01*
X39115982Y-85522597D01*
X39099500Y-85584108D01*
X37900500Y-85584108D01*
X37866392Y-85456814D01*
X37866390Y-85456811D01*
X37866390Y-85456809D01*
X37800503Y-85342690D01*
X37800501Y-85342688D01*
X37800500Y-85342686D01*
X37707314Y-85249500D01*
X37707311Y-85249498D01*
X37707309Y-85249496D01*
X37593189Y-85183609D01*
X37593191Y-85183609D01*
X37543799Y-85170375D01*
X37465892Y-85149500D01*
X37334108Y-85149500D01*
X37256200Y-85170375D01*
X37206809Y-85183609D01*
X37092690Y-85249496D01*
X36999496Y-85342690D01*
X36933609Y-85456809D01*
X36915982Y-85522597D01*
X36899500Y-85584108D01*
X35700500Y-85584108D01*
X35666392Y-85456814D01*
X35666390Y-85456811D01*
X35666390Y-85456809D01*
X35600503Y-85342690D01*
X35600501Y-85342688D01*
X35600500Y-85342686D01*
X35507314Y-85249500D01*
X35507311Y-85249498D01*
X35507309Y-85249496D01*
X35393189Y-85183609D01*
X35393191Y-85183609D01*
X35343799Y-85170375D01*
X35265892Y-85149500D01*
X35134108Y-85149500D01*
X35056200Y-85170375D01*
X35006809Y-85183609D01*
X34892690Y-85249496D01*
X34799496Y-85342690D01*
X34733609Y-85456809D01*
X34715982Y-85522597D01*
X34699500Y-85584108D01*
X30173724Y-85584108D01*
X29304496Y-84714880D01*
X29276719Y-84660363D01*
X29275542Y-84645410D01*
X29275500Y-84645202D01*
X29275500Y-84645200D01*
X29233557Y-84543942D01*
X29233557Y-84543941D01*
X29233556Y-84543940D01*
X29204496Y-84514879D01*
X29176719Y-84460362D01*
X29175541Y-84445408D01*
X29175500Y-84445198D01*
X29166927Y-84424502D01*
X29166926Y-84424500D01*
X29133558Y-84343942D01*
X29004496Y-84214879D01*
X28976719Y-84160363D01*
X28975542Y-84145410D01*
X28975500Y-84145202D01*
X28975500Y-84145200D01*
X28933557Y-84043942D01*
X28933557Y-84043941D01*
X28933556Y-84043940D01*
X28904496Y-84014879D01*
X28876719Y-83960362D01*
X28875542Y-83945413D01*
X28875500Y-83945203D01*
X28875500Y-83945200D01*
X28874979Y-83943942D01*
X28833558Y-83843942D01*
X28774734Y-83785118D01*
X28704496Y-83714879D01*
X28676719Y-83660363D01*
X28675542Y-83645410D01*
X28675500Y-83645202D01*
X28675500Y-83645200D01*
X28640411Y-83560489D01*
X28639922Y-83559309D01*
X28633558Y-83543944D01*
X28633557Y-83543941D01*
X28604495Y-83514879D01*
X28576719Y-83460362D01*
X28575542Y-83445413D01*
X28575500Y-83445203D01*
X28575500Y-83445200D01*
X28574979Y-83443942D01*
X28533558Y-83343942D01*
X28474734Y-83285118D01*
X28404496Y-83214879D01*
X28401395Y-83208794D01*
X28395781Y-83204911D01*
X28388626Y-83183733D01*
X28376719Y-83160363D01*
X28375527Y-83147176D01*
X28375500Y-83146037D01*
X28375500Y-83145200D01*
X28373632Y-83140691D01*
X33749500Y-83140691D01*
X33749500Y-83259309D01*
X33772428Y-83344876D01*
X33780202Y-83373890D01*
X33839507Y-83476608D01*
X33839509Y-83476610D01*
X33839511Y-83476613D01*
X33907539Y-83544641D01*
X33935315Y-83599156D01*
X33925744Y-83659588D01*
X33907543Y-83684641D01*
X33899500Y-83692684D01*
X33833609Y-83806809D01*
X33820751Y-83854797D01*
X33799500Y-83934108D01*
X33799500Y-84065892D01*
X33804652Y-84085118D01*
X33833609Y-84193190D01*
X33899496Y-84307309D01*
X33899498Y-84307311D01*
X33899500Y-84307314D01*
X33992686Y-84400500D01*
X33992688Y-84400501D01*
X33992690Y-84400503D01*
X34106810Y-84466390D01*
X34106808Y-84466390D01*
X34106812Y-84466391D01*
X34106814Y-84466392D01*
X34234108Y-84500500D01*
X34234110Y-84500500D01*
X34365890Y-84500500D01*
X34365892Y-84500500D01*
X34493186Y-84466392D01*
X34493188Y-84466390D01*
X34493190Y-84466390D01*
X34607309Y-84400503D01*
X34607309Y-84400502D01*
X34607314Y-84400500D01*
X34700500Y-84307314D01*
X34766392Y-84193186D01*
X34800500Y-84065892D01*
X34800500Y-83934108D01*
X34766392Y-83806814D01*
X34766390Y-83806811D01*
X34766390Y-83806809D01*
X34700503Y-83692690D01*
X34700501Y-83692688D01*
X34700500Y-83692686D01*
X34607314Y-83599500D01*
X34607311Y-83599498D01*
X34604715Y-83597999D01*
X34603278Y-83596403D01*
X34602165Y-83595549D01*
X34602323Y-83595342D01*
X34563777Y-83552527D01*
X34557385Y-83491676D01*
X34568482Y-83462768D01*
X34619799Y-83373886D01*
X34650500Y-83259309D01*
X34650500Y-83140691D01*
X34619799Y-83026114D01*
X34619797Y-83026111D01*
X34619797Y-83026109D01*
X34560492Y-82923391D01*
X34560490Y-82923389D01*
X34560489Y-82923387D01*
X34476613Y-82839511D01*
X34476610Y-82839509D01*
X34476608Y-82839507D01*
X34373889Y-82780202D01*
X34373890Y-82780202D01*
X34360351Y-82776574D01*
X34259309Y-82749500D01*
X34140691Y-82749500D01*
X34070567Y-82768289D01*
X34026109Y-82780202D01*
X33923391Y-82839507D01*
X33839507Y-82923391D01*
X33780202Y-83026109D01*
X33765708Y-83080201D01*
X33749500Y-83140691D01*
X28373632Y-83140691D01*
X28338055Y-83054800D01*
X28333557Y-83043941D01*
X28304495Y-83014879D01*
X28276719Y-82960362D01*
X28275542Y-82945413D01*
X28275500Y-82945203D01*
X28275500Y-82945200D01*
X28274979Y-82943942D01*
X28233558Y-82843942D01*
X28169817Y-82780201D01*
X28104496Y-82714879D01*
X28076719Y-82660363D01*
X28075542Y-82645410D01*
X28075500Y-82645202D01*
X28075500Y-82645200D01*
X28033557Y-82543942D01*
X28033557Y-82543941D01*
X28033556Y-82543940D01*
X28004496Y-82514879D01*
X27976719Y-82460362D01*
X27975542Y-82445413D01*
X27975500Y-82445203D01*
X27975500Y-82445200D01*
X27974979Y-82443942D01*
X27940359Y-82360362D01*
X27933559Y-82343944D01*
X27933558Y-82343943D01*
X27933558Y-82343942D01*
X24930306Y-79340691D01*
X26349500Y-79340691D01*
X26349500Y-79459309D01*
X26372428Y-79544876D01*
X26380202Y-79573890D01*
X26439507Y-79676608D01*
X26439509Y-79676610D01*
X26439511Y-79676613D01*
X26523387Y-79760489D01*
X26523389Y-79760490D01*
X26523391Y-79760492D01*
X26626110Y-79819797D01*
X26626111Y-79819797D01*
X26626114Y-79819799D01*
X26740691Y-79850500D01*
X26740693Y-79850500D01*
X26819877Y-79850500D01*
X26878068Y-79869407D01*
X26889881Y-79879496D01*
X27439155Y-80428770D01*
X27466931Y-80483285D01*
X27457360Y-80543717D01*
X27418651Y-80584508D01*
X27323389Y-80639509D01*
X27239507Y-80723391D01*
X27180202Y-80826109D01*
X27171004Y-80860437D01*
X27149500Y-80940691D01*
X27149500Y-81059309D01*
X27171306Y-81140691D01*
X27180202Y-81173890D01*
X27239507Y-81276608D01*
X27239509Y-81276610D01*
X27239511Y-81276613D01*
X27323387Y-81360489D01*
X27323389Y-81360490D01*
X27323391Y-81360492D01*
X27426110Y-81419797D01*
X27426111Y-81419797D01*
X27426114Y-81419799D01*
X27540691Y-81450500D01*
X27540693Y-81450500D01*
X27659307Y-81450500D01*
X27659309Y-81450500D01*
X27773886Y-81419799D01*
X27773888Y-81419797D01*
X27773890Y-81419797D01*
X27876608Y-81360492D01*
X27876608Y-81360491D01*
X27876613Y-81360489D01*
X27929998Y-81307103D01*
X27984513Y-81279328D01*
X28044945Y-81288899D01*
X28070000Y-81307102D01*
X28123387Y-81360489D01*
X28123389Y-81360490D01*
X28123391Y-81360492D01*
X28226110Y-81419797D01*
X28226111Y-81419797D01*
X28226114Y-81419799D01*
X28340691Y-81450500D01*
X28340693Y-81450500D01*
X28459307Y-81450500D01*
X28459309Y-81450500D01*
X28520484Y-81434108D01*
X33799500Y-81434108D01*
X33799500Y-81565892D01*
X33823659Y-81656055D01*
X33833609Y-81693190D01*
X33899496Y-81807309D01*
X33899498Y-81807311D01*
X33899500Y-81807314D01*
X33992686Y-81900500D01*
X33992688Y-81900501D01*
X33992690Y-81900503D01*
X34106810Y-81966390D01*
X34106808Y-81966390D01*
X34106812Y-81966391D01*
X34106814Y-81966392D01*
X34234108Y-82000500D01*
X34234110Y-82000500D01*
X34365890Y-82000500D01*
X34365892Y-82000500D01*
X34493186Y-81966392D01*
X34493188Y-81966390D01*
X34493190Y-81966390D01*
X34607309Y-81900503D01*
X34607309Y-81900502D01*
X34607314Y-81900500D01*
X34700500Y-81807314D01*
X34766392Y-81693186D01*
X34784825Y-81624390D01*
X34818148Y-81573078D01*
X34875269Y-81551151D01*
X34929950Y-81564278D01*
X35026114Y-81619799D01*
X35140691Y-81650500D01*
X35140693Y-81650500D01*
X35259307Y-81650500D01*
X35259309Y-81650500D01*
X35373886Y-81619799D01*
X35373888Y-81619797D01*
X35373890Y-81619797D01*
X35476608Y-81560492D01*
X35476608Y-81560491D01*
X35476613Y-81560489D01*
X35560489Y-81476613D01*
X35560492Y-81476608D01*
X35619797Y-81373890D01*
X35619797Y-81373888D01*
X35619799Y-81373886D01*
X35650500Y-81259309D01*
X35650500Y-81140691D01*
X35619799Y-81026114D01*
X35619797Y-81026110D01*
X35619797Y-81026109D01*
X35595313Y-80983702D01*
X35570480Y-80940691D01*
X42149500Y-80940691D01*
X42149500Y-81059309D01*
X42171306Y-81140691D01*
X42180202Y-81173890D01*
X42239507Y-81276608D01*
X42239509Y-81276610D01*
X42239511Y-81276613D01*
X42323387Y-81360489D01*
X42323389Y-81360490D01*
X42323391Y-81360492D01*
X42426110Y-81419797D01*
X42426111Y-81419797D01*
X42426114Y-81419799D01*
X42540691Y-81450500D01*
X42540693Y-81450500D01*
X42659307Y-81450500D01*
X42659309Y-81450500D01*
X42773886Y-81419799D01*
X42773888Y-81419797D01*
X42773890Y-81419797D01*
X42876608Y-81360492D01*
X42876608Y-81360491D01*
X42876613Y-81360489D01*
X42929998Y-81307103D01*
X42984513Y-81279328D01*
X43044945Y-81288899D01*
X43070000Y-81307102D01*
X43123387Y-81360489D01*
X43123389Y-81360490D01*
X43123391Y-81360492D01*
X43226110Y-81419797D01*
X43226111Y-81419797D01*
X43226114Y-81419799D01*
X43340691Y-81450500D01*
X43340693Y-81450500D01*
X43459307Y-81450500D01*
X43459309Y-81450500D01*
X43573886Y-81419799D01*
X43573888Y-81419797D01*
X43573890Y-81419797D01*
X43676608Y-81360492D01*
X43676608Y-81360491D01*
X43676613Y-81360489D01*
X43760489Y-81276613D01*
X43819799Y-81173886D01*
X43827086Y-81146690D01*
X43860408Y-81095377D01*
X43917529Y-81073449D01*
X43976630Y-81089284D01*
X44008448Y-81122812D01*
X44037938Y-81173889D01*
X44039511Y-81176613D01*
X44123387Y-81260489D01*
X44123389Y-81260490D01*
X44123391Y-81260492D01*
X44226110Y-81319797D01*
X44226111Y-81319797D01*
X44226114Y-81319799D01*
X44340691Y-81350500D01*
X44340693Y-81350500D01*
X44459307Y-81350500D01*
X44459309Y-81350500D01*
X44573886Y-81319799D01*
X44573888Y-81319797D01*
X44573890Y-81319797D01*
X44676608Y-81260492D01*
X44676608Y-81260491D01*
X44676613Y-81260489D01*
X44760489Y-81176613D01*
X44762062Y-81173888D01*
X44819797Y-81073890D01*
X44819798Y-81073887D01*
X44819799Y-81073886D01*
X44850500Y-80959309D01*
X44850500Y-80840691D01*
X44819799Y-80726114D01*
X44819797Y-80726110D01*
X44819797Y-80726109D01*
X44760492Y-80623391D01*
X44760490Y-80623389D01*
X44760489Y-80623387D01*
X44676613Y-80539511D01*
X44676610Y-80539509D01*
X44676608Y-80539507D01*
X44573889Y-80480202D01*
X44573890Y-80480202D01*
X44556342Y-80475500D01*
X44459309Y-80449500D01*
X44340691Y-80449500D01*
X44297120Y-80461175D01*
X44226109Y-80480202D01*
X44123391Y-80539507D01*
X44039507Y-80623391D01*
X43980202Y-80726110D01*
X43980201Y-80726112D01*
X43972913Y-80753311D01*
X43939588Y-80804625D01*
X43882467Y-80826550D01*
X43823366Y-80810713D01*
X43791551Y-80777186D01*
X43760492Y-80723391D01*
X43760490Y-80723389D01*
X43760489Y-80723387D01*
X43676613Y-80639511D01*
X43676610Y-80639509D01*
X43676608Y-80639507D01*
X43573889Y-80580202D01*
X43573890Y-80580202D01*
X43550318Y-80573886D01*
X43459309Y-80549500D01*
X43340691Y-80549500D01*
X43270567Y-80568289D01*
X43226109Y-80580202D01*
X43123391Y-80639507D01*
X43123390Y-80639508D01*
X43123387Y-80639510D01*
X43123387Y-80639511D01*
X43070001Y-80692896D01*
X43015487Y-80720672D01*
X42955055Y-80711101D01*
X42929999Y-80692897D01*
X42876613Y-80639511D01*
X42876610Y-80639509D01*
X42876608Y-80639507D01*
X42773889Y-80580202D01*
X42773890Y-80580202D01*
X42750318Y-80573886D01*
X42659309Y-80549500D01*
X42540691Y-80549500D01*
X42470567Y-80568289D01*
X42426109Y-80580202D01*
X42323391Y-80639507D01*
X42239507Y-80723391D01*
X42180202Y-80826109D01*
X42171004Y-80860437D01*
X42149500Y-80940691D01*
X35570480Y-80940691D01*
X35560492Y-80923391D01*
X35560490Y-80923389D01*
X35560489Y-80923387D01*
X35476613Y-80839511D01*
X35476610Y-80839509D01*
X35476608Y-80839507D01*
X35373889Y-80780202D01*
X35373890Y-80780202D01*
X35321055Y-80766045D01*
X35259309Y-80749500D01*
X35140691Y-80749500D01*
X35078945Y-80766045D01*
X35026109Y-80780202D01*
X34923391Y-80839507D01*
X34839507Y-80923391D01*
X34780202Y-81026110D01*
X34780200Y-81026114D01*
X34772537Y-81054714D01*
X34739213Y-81106028D01*
X34682091Y-81127954D01*
X34622991Y-81112118D01*
X34609120Y-81100886D01*
X34607309Y-81099496D01*
X34493189Y-81033609D01*
X34493191Y-81033609D01*
X34443799Y-81020375D01*
X34365892Y-80999500D01*
X34234108Y-80999500D01*
X34156200Y-81020375D01*
X34106809Y-81033609D01*
X33992690Y-81099496D01*
X33899496Y-81192690D01*
X33833609Y-81306809D01*
X33826428Y-81333609D01*
X33799500Y-81434108D01*
X28520484Y-81434108D01*
X28573886Y-81419799D01*
X28573888Y-81419797D01*
X28573890Y-81419797D01*
X28676608Y-81360492D01*
X28676608Y-81360491D01*
X28676613Y-81360489D01*
X28760489Y-81276613D01*
X28770481Y-81259307D01*
X28819797Y-81173890D01*
X28819797Y-81173888D01*
X28819799Y-81173886D01*
X28850500Y-81059309D01*
X28850500Y-81059306D01*
X28852179Y-81053041D01*
X28854036Y-81053538D01*
X28876539Y-81006356D01*
X28930308Y-80977159D01*
X28948354Y-80975500D01*
X29027880Y-80975500D01*
X29064641Y-80982578D01*
X29120644Y-81004979D01*
X29167648Y-81044144D01*
X29179500Y-81071270D01*
X29180201Y-81073887D01*
X29180202Y-81073889D01*
X29239507Y-81176608D01*
X29239509Y-81176610D01*
X29239511Y-81176613D01*
X29323387Y-81260489D01*
X29323389Y-81260490D01*
X29323391Y-81260492D01*
X29426110Y-81319797D01*
X29426111Y-81319797D01*
X29426114Y-81319799D01*
X29540691Y-81350500D01*
X29540693Y-81350500D01*
X29659307Y-81350500D01*
X29659309Y-81350500D01*
X29773886Y-81319799D01*
X29773888Y-81319797D01*
X29773890Y-81319797D01*
X29876608Y-81260492D01*
X29876608Y-81260491D01*
X29876613Y-81260489D01*
X29960489Y-81176613D01*
X29962062Y-81173888D01*
X30019797Y-81073890D01*
X30019798Y-81073887D01*
X30019799Y-81073886D01*
X30050500Y-80959309D01*
X30050500Y-80840691D01*
X30019799Y-80726114D01*
X30019797Y-80726110D01*
X30019797Y-80726109D01*
X29960492Y-80623391D01*
X29960490Y-80623389D01*
X29960489Y-80623387D01*
X29876613Y-80539511D01*
X29876610Y-80539509D01*
X29876608Y-80539507D01*
X29773889Y-80480202D01*
X29773890Y-80480202D01*
X29756342Y-80475500D01*
X29659309Y-80449500D01*
X29540691Y-80449500D01*
X29497120Y-80461175D01*
X29426109Y-80480202D01*
X29412981Y-80487782D01*
X29399304Y-80490688D01*
X29387448Y-80498100D01*
X29370017Y-80496912D01*
X29353133Y-80500501D01*
X29326975Y-80493980D01*
X29326716Y-80493963D01*
X29204379Y-80445028D01*
X29203262Y-80444573D01*
X29157619Y-80425667D01*
X29157617Y-80425667D01*
X29154704Y-80424460D01*
X29153687Y-80424271D01*
X29152512Y-80424044D01*
X29146784Y-80422905D01*
X29145929Y-80422826D01*
X29141854Y-80422067D01*
X29142304Y-80419649D01*
X29097211Y-80405597D01*
X29084428Y-80394813D01*
X29056058Y-80366443D01*
X28993888Y-80340691D01*
X31349500Y-80340691D01*
X31349500Y-80459309D01*
X31371231Y-80540408D01*
X31380202Y-80573890D01*
X31439507Y-80676608D01*
X31439509Y-80676610D01*
X31439511Y-80676613D01*
X31523387Y-80760489D01*
X31523389Y-80760490D01*
X31523391Y-80760492D01*
X31626110Y-80819797D01*
X31626111Y-80819797D01*
X31626114Y-80819799D01*
X31740691Y-80850500D01*
X31740693Y-80850500D01*
X31859307Y-80850500D01*
X31859309Y-80850500D01*
X31973886Y-80819799D01*
X31973888Y-80819797D01*
X31973890Y-80819797D01*
X32076608Y-80760492D01*
X32076608Y-80760491D01*
X32076613Y-80760489D01*
X32160489Y-80676613D01*
X32181912Y-80639508D01*
X32219797Y-80573890D01*
X32219797Y-80573888D01*
X32219799Y-80573886D01*
X32250500Y-80459309D01*
X32250500Y-80340691D01*
X32219799Y-80226114D01*
X32219797Y-80226111D01*
X32219797Y-80226109D01*
X32160492Y-80123391D01*
X32160490Y-80123389D01*
X32160489Y-80123387D01*
X32076613Y-80039511D01*
X32076610Y-80039509D01*
X32076608Y-80039507D01*
X31973889Y-79980202D01*
X31973890Y-79980202D01*
X31922544Y-79966444D01*
X31859309Y-79949500D01*
X31740691Y-79949500D01*
X31677459Y-79966443D01*
X31626109Y-79980202D01*
X31523391Y-80039507D01*
X31439507Y-80123391D01*
X31380202Y-80226109D01*
X31363037Y-80290169D01*
X31349500Y-80340691D01*
X28993888Y-80340691D01*
X28954800Y-80324500D01*
X28954799Y-80324500D01*
X28954797Y-80324499D01*
X28945235Y-80322597D01*
X28945479Y-80321366D01*
X28896932Y-80305593D01*
X28885120Y-80295505D01*
X28856058Y-80266443D01*
X28754800Y-80224500D01*
X28754799Y-80224500D01*
X28555123Y-80224500D01*
X28496932Y-80205593D01*
X28485120Y-80195505D01*
X28475499Y-80185884D01*
X28456058Y-80166443D01*
X28456056Y-80166442D01*
X28456055Y-80166441D01*
X28456056Y-80166441D01*
X28439393Y-80159539D01*
X28439393Y-80159540D01*
X28354800Y-80124500D01*
X28354799Y-80124500D01*
X28354797Y-80124499D01*
X28345235Y-80122597D01*
X28345479Y-80121366D01*
X28296932Y-80105593D01*
X28285120Y-80095505D01*
X28274733Y-80085118D01*
X28256058Y-80066443D01*
X28241684Y-80060489D01*
X28241681Y-80060487D01*
X28185517Y-80037223D01*
X28154800Y-80024500D01*
X28154799Y-80024500D01*
X28055123Y-80024500D01*
X27996932Y-80005593D01*
X27985120Y-79995505D01*
X27984022Y-79994407D01*
X27956058Y-79966443D01*
X27854800Y-79924500D01*
X27854799Y-79924500D01*
X27755123Y-79924500D01*
X27747525Y-79922031D01*
X27739636Y-79923281D01*
X27718980Y-79912756D01*
X27696932Y-79905593D01*
X27685119Y-79895504D01*
X27530306Y-79740691D01*
X34249500Y-79740691D01*
X34249500Y-79859309D01*
X34271245Y-79940461D01*
X34280202Y-79973890D01*
X34339507Y-80076608D01*
X34339509Y-80076610D01*
X34339511Y-80076613D01*
X34423387Y-80160489D01*
X34423389Y-80160490D01*
X34423391Y-80160492D01*
X34526110Y-80219797D01*
X34526111Y-80219797D01*
X34526114Y-80219799D01*
X34640691Y-80250500D01*
X34640693Y-80250500D01*
X34759307Y-80250500D01*
X34759309Y-80250500D01*
X34873886Y-80219799D01*
X34873888Y-80219797D01*
X34873890Y-80219797D01*
X34976608Y-80160492D01*
X34976608Y-80160491D01*
X34976613Y-80160489D01*
X35060489Y-80076613D01*
X35069799Y-80060488D01*
X35119797Y-79973890D01*
X35119797Y-79973888D01*
X35119799Y-79973886D01*
X35150500Y-79859309D01*
X35150500Y-79740691D01*
X35119799Y-79626114D01*
X35119797Y-79626111D01*
X35119797Y-79626109D01*
X35060492Y-79523391D01*
X35060490Y-79523389D01*
X35060489Y-79523387D01*
X34976613Y-79439511D01*
X34976610Y-79439509D01*
X34976608Y-79439507D01*
X34873889Y-79380202D01*
X34873890Y-79380202D01*
X34850318Y-79373886D01*
X34759309Y-79349500D01*
X34640691Y-79349500D01*
X34570567Y-79368289D01*
X34526109Y-79380202D01*
X34423391Y-79439507D01*
X34339507Y-79523391D01*
X34280202Y-79626109D01*
X34280201Y-79626114D01*
X34249500Y-79740691D01*
X27530306Y-79740691D01*
X27279496Y-79489881D01*
X27251719Y-79435364D01*
X27250500Y-79419877D01*
X27250500Y-79340692D01*
X27250183Y-79339508D01*
X27219799Y-79226114D01*
X27219797Y-79226111D01*
X27219797Y-79226109D01*
X27160492Y-79123391D01*
X27160490Y-79123389D01*
X27160489Y-79123387D01*
X27076613Y-79039511D01*
X27076610Y-79039509D01*
X27076608Y-79039507D01*
X26973889Y-78980202D01*
X26973890Y-78980202D01*
X26960351Y-78976574D01*
X26859309Y-78949500D01*
X26740691Y-78949500D01*
X26698206Y-78960884D01*
X26626109Y-78980202D01*
X26523391Y-79039507D01*
X26439507Y-79123391D01*
X26380202Y-79226109D01*
X26371306Y-79259309D01*
X26349500Y-79340691D01*
X24930306Y-79340691D01*
X23705306Y-78115691D01*
X34399501Y-78115691D01*
X34399501Y-78234309D01*
X34419028Y-78307184D01*
X34430203Y-78348890D01*
X34489508Y-78451608D01*
X34489510Y-78451610D01*
X34489512Y-78451613D01*
X34573388Y-78535489D01*
X34573390Y-78535490D01*
X34573392Y-78535492D01*
X34676111Y-78594797D01*
X34676112Y-78594797D01*
X34676115Y-78594799D01*
X34790692Y-78625500D01*
X34790694Y-78625500D01*
X34909308Y-78625500D01*
X34909310Y-78625500D01*
X35023887Y-78594799D01*
X35023889Y-78594797D01*
X35023891Y-78594797D01*
X35126609Y-78535492D01*
X35126609Y-78535491D01*
X35126614Y-78535489D01*
X35210490Y-78451613D01*
X35210493Y-78451608D01*
X35269798Y-78348890D01*
X35269798Y-78348888D01*
X35269800Y-78348886D01*
X35300501Y-78234309D01*
X35300501Y-78115691D01*
X35269800Y-78001114D01*
X35269798Y-78001111D01*
X35269798Y-78001109D01*
X35210493Y-77898391D01*
X35210491Y-77898389D01*
X35210490Y-77898387D01*
X35126614Y-77814511D01*
X35126611Y-77814509D01*
X35126609Y-77814507D01*
X35023890Y-77755202D01*
X35023891Y-77755202D01*
X34965331Y-77739511D01*
X34909310Y-77724500D01*
X34790692Y-77724500D01*
X34734682Y-77739508D01*
X34676110Y-77755202D01*
X34573392Y-77814507D01*
X34489508Y-77898391D01*
X34430203Y-78001109D01*
X34430202Y-78001114D01*
X34399501Y-78115691D01*
X23705306Y-78115691D01*
X22860844Y-77271229D01*
X22833068Y-77216713D01*
X22842639Y-77156281D01*
X22881346Y-77115491D01*
X22967603Y-77065691D01*
X24049500Y-77065691D01*
X24049500Y-77184309D01*
X24058183Y-77216713D01*
X24080202Y-77298890D01*
X24139507Y-77401608D01*
X24139509Y-77401610D01*
X24139511Y-77401613D01*
X24223387Y-77485489D01*
X24223389Y-77485490D01*
X24223391Y-77485492D01*
X24326110Y-77544797D01*
X24326111Y-77544797D01*
X24326114Y-77544799D01*
X24440691Y-77575500D01*
X24440693Y-77575500D01*
X24559307Y-77575500D01*
X24559309Y-77575500D01*
X24673886Y-77544799D01*
X24673888Y-77544797D01*
X24673890Y-77544797D01*
X24776608Y-77485492D01*
X24776608Y-77485491D01*
X24776613Y-77485489D01*
X24860489Y-77401613D01*
X24919799Y-77298886D01*
X24950500Y-77184309D01*
X24950500Y-77065691D01*
X24919799Y-76951114D01*
X24919797Y-76951111D01*
X24919797Y-76951109D01*
X24860492Y-76848391D01*
X24860490Y-76848389D01*
X24860489Y-76848387D01*
X24776613Y-76764511D01*
X24776610Y-76764509D01*
X24776608Y-76764507D01*
X24673889Y-76705202D01*
X24673890Y-76705202D01*
X24660351Y-76701574D01*
X24559309Y-76674500D01*
X24440691Y-76674500D01*
X24380613Y-76690598D01*
X24326109Y-76705202D01*
X24223391Y-76764507D01*
X24139507Y-76848391D01*
X24080202Y-76951109D01*
X24072445Y-76980060D01*
X24049500Y-77065691D01*
X22967603Y-77065691D01*
X22976613Y-77060489D01*
X23060489Y-76976613D01*
X23073083Y-76954800D01*
X23119797Y-76873890D01*
X23119797Y-76873888D01*
X23119799Y-76873886D01*
X23150500Y-76759309D01*
X23150500Y-76640691D01*
X23119799Y-76526114D01*
X23119797Y-76526111D01*
X23119797Y-76526109D01*
X23060492Y-76423391D01*
X23060490Y-76423389D01*
X23060489Y-76423387D01*
X22977793Y-76340691D01*
X28324500Y-76340691D01*
X28324500Y-76459309D01*
X28342862Y-76527837D01*
X28355202Y-76573890D01*
X28414507Y-76676608D01*
X28414509Y-76676610D01*
X28414511Y-76676613D01*
X28498387Y-76760489D01*
X28498389Y-76760490D01*
X28498391Y-76760492D01*
X28601110Y-76819797D01*
X28601111Y-76819797D01*
X28601114Y-76819799D01*
X28715691Y-76850500D01*
X28715693Y-76850500D01*
X28834307Y-76850500D01*
X28834309Y-76850500D01*
X28948886Y-76819799D01*
X28948888Y-76819797D01*
X28948890Y-76819797D01*
X29051608Y-76760492D01*
X29051608Y-76760491D01*
X29051613Y-76760489D01*
X29135489Y-76676613D01*
X29144798Y-76660489D01*
X29156229Y-76640691D01*
X37249500Y-76640691D01*
X37249500Y-76759309D01*
X37273369Y-76848387D01*
X37280202Y-76873890D01*
X37339507Y-76976608D01*
X37339509Y-76976610D01*
X37339511Y-76976613D01*
X37423387Y-77060489D01*
X37423389Y-77060490D01*
X37423391Y-77060492D01*
X37526110Y-77119797D01*
X37526111Y-77119797D01*
X37526114Y-77119799D01*
X37640691Y-77150500D01*
X37640693Y-77150500D01*
X37759307Y-77150500D01*
X37759309Y-77150500D01*
X37873886Y-77119799D01*
X37873888Y-77119797D01*
X37873890Y-77119797D01*
X37967603Y-77065691D01*
X39049500Y-77065691D01*
X39049500Y-77184309D01*
X39058183Y-77216713D01*
X39080202Y-77298890D01*
X39139507Y-77401608D01*
X39139509Y-77401610D01*
X39139511Y-77401613D01*
X39223387Y-77485489D01*
X39223389Y-77485490D01*
X39223391Y-77485492D01*
X39326110Y-77544797D01*
X39326111Y-77544797D01*
X39326114Y-77544799D01*
X39440691Y-77575500D01*
X39440693Y-77575500D01*
X39559307Y-77575500D01*
X39559309Y-77575500D01*
X39673886Y-77544799D01*
X39673888Y-77544797D01*
X39673890Y-77544797D01*
X39776608Y-77485492D01*
X39776608Y-77485491D01*
X39776613Y-77485489D01*
X39860489Y-77401613D01*
X39919799Y-77298886D01*
X39950500Y-77184309D01*
X39950500Y-77065691D01*
X39919799Y-76951114D01*
X39919797Y-76951111D01*
X39919797Y-76951109D01*
X39860492Y-76848391D01*
X39860490Y-76848389D01*
X39860489Y-76848387D01*
X39776613Y-76764511D01*
X39776610Y-76764509D01*
X39776608Y-76764507D01*
X39673889Y-76705202D01*
X39673890Y-76705202D01*
X39660351Y-76701574D01*
X39559309Y-76674500D01*
X39440691Y-76674500D01*
X39380613Y-76690598D01*
X39326109Y-76705202D01*
X39223391Y-76764507D01*
X39139507Y-76848391D01*
X39080202Y-76951109D01*
X39072445Y-76980060D01*
X39049500Y-77065691D01*
X37967603Y-77065691D01*
X37976608Y-77060492D01*
X37976608Y-77060491D01*
X37976613Y-77060489D01*
X38060489Y-76976613D01*
X38073083Y-76954800D01*
X38119797Y-76873890D01*
X38119797Y-76873888D01*
X38119799Y-76873886D01*
X38150500Y-76759309D01*
X38150500Y-76640691D01*
X38119799Y-76526114D01*
X38119797Y-76526111D01*
X38119797Y-76526109D01*
X38060492Y-76423391D01*
X38060490Y-76423389D01*
X38060489Y-76423387D01*
X37977793Y-76340691D01*
X43324500Y-76340691D01*
X43324500Y-76459309D01*
X43342862Y-76527837D01*
X43355202Y-76573890D01*
X43414507Y-76676608D01*
X43414509Y-76676610D01*
X43414511Y-76676613D01*
X43498387Y-76760489D01*
X43498389Y-76760490D01*
X43498391Y-76760492D01*
X43601110Y-76819797D01*
X43601111Y-76819797D01*
X43601114Y-76819799D01*
X43715691Y-76850500D01*
X43715693Y-76850500D01*
X43834307Y-76850500D01*
X43834309Y-76850500D01*
X43948886Y-76819799D01*
X43948888Y-76819797D01*
X43948890Y-76819797D01*
X44051608Y-76760492D01*
X44051608Y-76760491D01*
X44051613Y-76760489D01*
X44135489Y-76676613D01*
X44144798Y-76660489D01*
X44194797Y-76573890D01*
X44194797Y-76573888D01*
X44194799Y-76573886D01*
X44225500Y-76459309D01*
X44225500Y-76340691D01*
X44194799Y-76226114D01*
X44194797Y-76226111D01*
X44194797Y-76226109D01*
X44135492Y-76123391D01*
X44135490Y-76123389D01*
X44135489Y-76123387D01*
X44051613Y-76039511D01*
X44051610Y-76039509D01*
X44051608Y-76039507D01*
X43948889Y-75980202D01*
X43948890Y-75980202D01*
X43906934Y-75968960D01*
X43834309Y-75949500D01*
X43715691Y-75949500D01*
X43655617Y-75965597D01*
X43601109Y-75980202D01*
X43498391Y-76039507D01*
X43414507Y-76123391D01*
X43355202Y-76226109D01*
X43346880Y-76257167D01*
X43324500Y-76340691D01*
X37977793Y-76340691D01*
X37976613Y-76339511D01*
X37976610Y-76339509D01*
X37976608Y-76339507D01*
X37873889Y-76280202D01*
X37873890Y-76280202D01*
X37850318Y-76273886D01*
X37759309Y-76249500D01*
X37640691Y-76249500D01*
X37570567Y-76268289D01*
X37526109Y-76280202D01*
X37423391Y-76339507D01*
X37339507Y-76423391D01*
X37280202Y-76526109D01*
X37269408Y-76566392D01*
X37249500Y-76640691D01*
X29156229Y-76640691D01*
X29188555Y-76584702D01*
X29188555Y-76584701D01*
X29189214Y-76583558D01*
X29194799Y-76573886D01*
X29225500Y-76459309D01*
X29225500Y-76340691D01*
X29194799Y-76226114D01*
X29194797Y-76226111D01*
X29194797Y-76226109D01*
X29135492Y-76123391D01*
X29135490Y-76123389D01*
X29135489Y-76123387D01*
X29051613Y-76039511D01*
X29051610Y-76039509D01*
X29051608Y-76039507D01*
X28948889Y-75980202D01*
X28948890Y-75980202D01*
X28906934Y-75968960D01*
X28834309Y-75949500D01*
X28715691Y-75949500D01*
X28655617Y-75965597D01*
X28601109Y-75980202D01*
X28498391Y-76039507D01*
X28414507Y-76123391D01*
X28355202Y-76226109D01*
X28346880Y-76257167D01*
X28324500Y-76340691D01*
X22977793Y-76340691D01*
X22976613Y-76339511D01*
X22976610Y-76339509D01*
X22976608Y-76339507D01*
X22873889Y-76280202D01*
X22873890Y-76280202D01*
X22850318Y-76273886D01*
X22759309Y-76249500D01*
X22640691Y-76249500D01*
X22626470Y-76253310D01*
X22600122Y-76260370D01*
X22539020Y-76257167D01*
X22491471Y-76218661D01*
X22475500Y-76164743D01*
X22475500Y-75645200D01*
X22475499Y-75645198D01*
X22433557Y-75543942D01*
X22403730Y-75514115D01*
X22356058Y-75466442D01*
X22356058Y-75466443D01*
X22058619Y-75169004D01*
X22030842Y-75114487D01*
X22040413Y-75054055D01*
X22083678Y-75010790D01*
X22128623Y-75000000D01*
X29439275Y-75000000D01*
X29497466Y-75018907D01*
G37*
%TD.AperFunction*%
%TA.AperFunction,Conductor*%
G36*
X9427568Y-75018907D02*
G01*
X9439381Y-75028996D01*
X9595504Y-75185119D01*
X9623281Y-75239636D01*
X9624500Y-75255123D01*
X9624500Y-75354800D01*
X9637376Y-75385884D01*
X9665922Y-75454800D01*
X9665925Y-75454809D01*
X9666440Y-75456054D01*
X9666442Y-75456056D01*
X9666443Y-75456058D01*
X9695505Y-75485120D01*
X9723281Y-75539635D01*
X9724458Y-75554590D01*
X9724499Y-75554797D01*
X9724500Y-75554799D01*
X9724500Y-75554800D01*
X9763727Y-75649500D01*
X9766443Y-75656058D01*
X9895505Y-75785120D01*
X9923281Y-75839635D01*
X9924458Y-75854590D01*
X9924499Y-75854797D01*
X9924500Y-75854799D01*
X9924500Y-75854800D01*
X9963727Y-75949500D01*
X9966443Y-75956058D01*
X9995505Y-75985120D01*
X10023281Y-76039635D01*
X10024458Y-76054590D01*
X10024499Y-76054797D01*
X10024500Y-76054799D01*
X10024500Y-76054800D01*
X10066443Y-76156058D01*
X12195505Y-78285120D01*
X12223281Y-78339635D01*
X12224500Y-78355122D01*
X12224500Y-78454800D01*
X12257923Y-78535489D01*
X12263727Y-78549500D01*
X12263730Y-78549507D01*
X12266442Y-78556057D01*
X12543943Y-78833559D01*
X12645198Y-78875500D01*
X12645200Y-78875500D01*
X12754800Y-78875500D01*
X13044878Y-78875500D01*
X13103069Y-78894407D01*
X13114880Y-78904495D01*
X13190585Y-78980201D01*
X13243943Y-79033559D01*
X13345198Y-79075500D01*
X13354761Y-79077402D01*
X13354516Y-79078631D01*
X13403068Y-79094407D01*
X13414880Y-79104495D01*
X14243941Y-79933557D01*
X14260607Y-79940460D01*
X14345200Y-79975500D01*
X15253420Y-79975500D01*
X15311611Y-79994407D01*
X15347575Y-80043907D01*
X15347575Y-80105093D01*
X15339156Y-80124000D01*
X15280202Y-80226109D01*
X15263037Y-80290169D01*
X15250001Y-80338824D01*
X15249500Y-80340692D01*
X15249500Y-80419876D01*
X15230593Y-80478067D01*
X15220504Y-80489879D01*
X14843942Y-80866442D01*
X14766446Y-80943938D01*
X14766444Y-80943940D01*
X14766443Y-80943942D01*
X14732407Y-81026112D01*
X14724500Y-81045200D01*
X14724500Y-81644877D01*
X14705593Y-81703068D01*
X14695509Y-81714874D01*
X14343942Y-82066443D01*
X14343941Y-82066442D01*
X14266446Y-82143938D01*
X14266444Y-82143940D01*
X14266443Y-82143942D01*
X14259641Y-82160363D01*
X14224499Y-82245202D01*
X14222597Y-82254765D01*
X14221366Y-82254520D01*
X14205593Y-82303067D01*
X14195504Y-82314880D01*
X13487032Y-83023352D01*
X13442651Y-83048975D01*
X13440692Y-83049500D01*
X13440691Y-83049500D01*
X13401768Y-83059929D01*
X13326109Y-83080202D01*
X13223391Y-83139507D01*
X13139507Y-83223391D01*
X13080202Y-83326109D01*
X13071307Y-83359307D01*
X13049500Y-83440691D01*
X13049500Y-83559309D01*
X13072515Y-83645200D01*
X13080202Y-83673890D01*
X13139507Y-83776608D01*
X13139509Y-83776610D01*
X13139511Y-83776613D01*
X13223387Y-83860489D01*
X13223389Y-83860490D01*
X13223391Y-83860492D01*
X13326110Y-83919797D01*
X13326111Y-83919797D01*
X13326114Y-83919799D01*
X13440691Y-83950500D01*
X13440693Y-83950500D01*
X13559307Y-83950500D01*
X13559309Y-83950500D01*
X13620484Y-83934108D01*
X18799501Y-83934108D01*
X18799501Y-84065892D01*
X18804653Y-84085118D01*
X18833610Y-84193190D01*
X18899497Y-84307309D01*
X18899499Y-84307311D01*
X18899501Y-84307314D01*
X18992687Y-84400500D01*
X18992689Y-84400501D01*
X18992691Y-84400503D01*
X19106811Y-84466390D01*
X19106809Y-84466390D01*
X19106813Y-84466391D01*
X19106815Y-84466392D01*
X19234109Y-84500500D01*
X19234111Y-84500500D01*
X19365891Y-84500500D01*
X19365893Y-84500500D01*
X19493187Y-84466392D01*
X19493189Y-84466390D01*
X19493191Y-84466390D01*
X19607310Y-84400503D01*
X19607310Y-84400502D01*
X19607315Y-84400500D01*
X19700501Y-84307314D01*
X19766393Y-84193186D01*
X19800501Y-84065892D01*
X19800501Y-83934108D01*
X19766393Y-83806814D01*
X19766391Y-83806811D01*
X19766391Y-83806809D01*
X19700504Y-83692690D01*
X19700502Y-83692688D01*
X19700501Y-83692686D01*
X19607315Y-83599500D01*
X19607312Y-83599498D01*
X19607310Y-83599496D01*
X19493190Y-83533609D01*
X19493192Y-83533609D01*
X19443800Y-83520375D01*
X19365893Y-83499500D01*
X19234109Y-83499500D01*
X19156201Y-83520375D01*
X19106810Y-83533609D01*
X18992691Y-83599496D01*
X18899497Y-83692690D01*
X18833610Y-83806809D01*
X18820752Y-83854797D01*
X18799501Y-83934108D01*
X13620484Y-83934108D01*
X13673886Y-83919799D01*
X13673888Y-83919797D01*
X13673890Y-83919797D01*
X13776608Y-83860492D01*
X13776608Y-83860491D01*
X13776613Y-83860489D01*
X13860489Y-83776613D01*
X13875563Y-83750504D01*
X13919797Y-83673890D01*
X13919797Y-83673888D01*
X13919799Y-83673886D01*
X13950500Y-83559309D01*
X13950500Y-83440691D01*
X13943828Y-83415790D01*
X13947029Y-83354688D01*
X13969448Y-83320165D01*
X14048922Y-83240691D01*
X14749500Y-83240691D01*
X14749500Y-83359309D01*
X14772178Y-83443943D01*
X14780202Y-83473890D01*
X14839507Y-83576608D01*
X14839509Y-83576610D01*
X14839511Y-83576613D01*
X14923387Y-83660489D01*
X14923389Y-83660490D01*
X14923391Y-83660492D01*
X15026110Y-83719797D01*
X15026111Y-83719797D01*
X15026114Y-83719799D01*
X15140691Y-83750500D01*
X15140693Y-83750500D01*
X15259307Y-83750500D01*
X15259309Y-83750500D01*
X15373886Y-83719799D01*
X15373888Y-83719797D01*
X15373890Y-83719797D01*
X15476608Y-83660492D01*
X15476608Y-83660491D01*
X15476613Y-83660489D01*
X15560489Y-83576613D01*
X15573083Y-83554800D01*
X15619797Y-83473890D01*
X15619797Y-83473888D01*
X15619799Y-83473886D01*
X15650500Y-83359309D01*
X15650500Y-83240691D01*
X15619799Y-83126114D01*
X15619797Y-83126111D01*
X15619797Y-83126109D01*
X15560492Y-83023391D01*
X15560490Y-83023389D01*
X15560489Y-83023387D01*
X15476613Y-82939511D01*
X15476610Y-82939509D01*
X15476608Y-82939507D01*
X15373889Y-82880202D01*
X15373890Y-82880202D01*
X15360351Y-82876574D01*
X15259309Y-82849500D01*
X15140691Y-82849500D01*
X15070567Y-82868289D01*
X15026109Y-82880202D01*
X14923391Y-82939507D01*
X14839507Y-83023391D01*
X14780202Y-83126109D01*
X14772177Y-83156058D01*
X14749500Y-83240691D01*
X14048922Y-83240691D01*
X14733557Y-82556059D01*
X14745841Y-82526400D01*
X14775500Y-82454800D01*
X14775500Y-82454797D01*
X14777403Y-82445235D01*
X14778632Y-82445479D01*
X14794407Y-82396931D01*
X14804497Y-82385118D01*
X15004497Y-82185118D01*
X15233558Y-81956058D01*
X15234079Y-81954800D01*
X15275500Y-81854801D01*
X15275500Y-81255123D01*
X15294407Y-81196932D01*
X15304496Y-81185119D01*
X15610119Y-80879496D01*
X15664636Y-80851719D01*
X15680123Y-80850500D01*
X15759307Y-80850500D01*
X15759309Y-80850500D01*
X15873886Y-80819799D01*
X15873888Y-80819797D01*
X15873890Y-80819797D01*
X15976608Y-80760492D01*
X15976608Y-80760491D01*
X15976613Y-80760489D01*
X16032607Y-80704494D01*
X16087122Y-80676719D01*
X16102609Y-80675500D01*
X16397391Y-80675500D01*
X16455582Y-80694407D01*
X16467388Y-80704490D01*
X16523387Y-80760489D01*
X16523389Y-80760490D01*
X16523391Y-80760492D01*
X16626110Y-80819797D01*
X16626111Y-80819797D01*
X16626114Y-80819799D01*
X16740691Y-80850500D01*
X16740693Y-80850500D01*
X16859307Y-80850500D01*
X16859309Y-80850500D01*
X16973886Y-80819799D01*
X16973888Y-80819797D01*
X16973890Y-80819797D01*
X17076608Y-80760492D01*
X17076608Y-80760491D01*
X17076613Y-80760489D01*
X17160489Y-80676613D01*
X17164263Y-80670075D01*
X17209731Y-80629135D01*
X17270581Y-80622738D01*
X17323570Y-80653329D01*
X17335735Y-80670073D01*
X17339511Y-80676613D01*
X17423387Y-80760489D01*
X17423389Y-80760490D01*
X17423391Y-80760492D01*
X17526110Y-80819797D01*
X17526111Y-80819797D01*
X17526114Y-80819799D01*
X17640691Y-80850500D01*
X17640693Y-80850500D01*
X17759307Y-80850500D01*
X17759309Y-80850500D01*
X17873886Y-80819799D01*
X17873888Y-80819797D01*
X17873890Y-80819797D01*
X17976608Y-80760492D01*
X17976608Y-80760491D01*
X17976613Y-80760489D01*
X18060489Y-80676613D01*
X18081912Y-80639508D01*
X18119797Y-80573890D01*
X18119797Y-80573888D01*
X18119799Y-80573886D01*
X18150500Y-80459309D01*
X18150500Y-80340691D01*
X18119799Y-80226114D01*
X18119797Y-80226111D01*
X18119797Y-80226109D01*
X18060492Y-80123391D01*
X18060490Y-80123389D01*
X18060489Y-80123387D01*
X17976613Y-80039511D01*
X17976610Y-80039509D01*
X17976608Y-80039507D01*
X17873889Y-79980202D01*
X17873890Y-79980202D01*
X17822544Y-79966444D01*
X17759309Y-79949500D01*
X17640691Y-79949500D01*
X17577459Y-79966443D01*
X17526109Y-79980202D01*
X17423391Y-80039507D01*
X17339509Y-80123389D01*
X17335736Y-80129925D01*
X17290266Y-80170865D01*
X17229416Y-80177260D01*
X17176428Y-80146667D01*
X17164264Y-80129925D01*
X17160490Y-80123389D01*
X17160489Y-80123387D01*
X17076613Y-80039511D01*
X17076610Y-80039509D01*
X17076608Y-80039507D01*
X16973889Y-79980202D01*
X16973890Y-79980202D01*
X16922544Y-79966444D01*
X16859309Y-79949500D01*
X16740691Y-79949500D01*
X16677459Y-79966443D01*
X16626109Y-79980202D01*
X16523391Y-80039507D01*
X16523390Y-80039508D01*
X16523387Y-80039510D01*
X16523387Y-80039511D01*
X16467392Y-80095505D01*
X16412878Y-80123281D01*
X16397391Y-80124500D01*
X16146580Y-80124500D01*
X16088389Y-80105593D01*
X16052425Y-80056093D01*
X16052425Y-79994907D01*
X16060844Y-79976000D01*
X16119797Y-79873890D01*
X16119797Y-79873888D01*
X16119799Y-79873886D01*
X16150500Y-79759309D01*
X16150500Y-79640691D01*
X16119799Y-79526114D01*
X16119797Y-79526111D01*
X16119797Y-79526109D01*
X16060492Y-79423391D01*
X16060490Y-79423389D01*
X16060489Y-79423387D01*
X15976613Y-79339511D01*
X15976610Y-79339509D01*
X15976608Y-79339507D01*
X15873889Y-79280202D01*
X15873890Y-79280202D01*
X15860351Y-79276574D01*
X15759309Y-79249500D01*
X15640691Y-79249500D01*
X15570567Y-79268289D01*
X15526109Y-79280202D01*
X15423391Y-79339507D01*
X15423390Y-79339508D01*
X15423387Y-79339510D01*
X15423387Y-79339511D01*
X15367392Y-79395505D01*
X15312878Y-79423281D01*
X15297391Y-79424500D01*
X15235256Y-79424500D01*
X15177065Y-79405593D01*
X15141101Y-79356093D01*
X15139630Y-79299876D01*
X15150500Y-79259309D01*
X15150500Y-79140691D01*
X15119799Y-79026114D01*
X15119797Y-79026111D01*
X15119797Y-79026109D01*
X15060492Y-78923391D01*
X15060490Y-78923389D01*
X15060489Y-78923387D01*
X14976613Y-78839511D01*
X14976610Y-78839509D01*
X14976608Y-78839507D01*
X14873889Y-78780202D01*
X14873890Y-78780202D01*
X14860351Y-78776574D01*
X14759309Y-78749500D01*
X14640691Y-78749500D01*
X14570567Y-78768289D01*
X14526109Y-78780202D01*
X14423391Y-78839507D01*
X14339509Y-78923389D01*
X14284509Y-79018650D01*
X14239039Y-79059591D01*
X14178188Y-79065985D01*
X14128770Y-79039153D01*
X13656061Y-78566446D01*
X13656058Y-78566443D01*
X13554800Y-78524500D01*
X13554799Y-78524500D01*
X13554797Y-78524499D01*
X13545235Y-78522597D01*
X13545479Y-78521366D01*
X13496932Y-78505593D01*
X13485124Y-78495508D01*
X13416304Y-78426689D01*
X13388528Y-78372173D01*
X13398099Y-78311741D01*
X13400574Y-78307184D01*
X13419797Y-78273889D01*
X13419796Y-78273889D01*
X13419799Y-78273886D01*
X13450500Y-78159309D01*
X13450500Y-78080122D01*
X13469407Y-78021931D01*
X13479497Y-78010118D01*
X13488506Y-78001109D01*
X13533557Y-77956059D01*
X13550931Y-77914115D01*
X13558857Y-77894980D01*
X13558857Y-77894979D01*
X13562941Y-77885119D01*
X13575500Y-77854800D01*
X13575500Y-77854797D01*
X13577403Y-77845235D01*
X13578633Y-77845479D01*
X13594407Y-77796932D01*
X13604496Y-77785119D01*
X14045673Y-77343942D01*
X14533558Y-76856058D01*
X14550614Y-76814880D01*
X14575500Y-76754801D01*
X14575500Y-75099000D01*
X14594407Y-75040809D01*
X14643907Y-75004845D01*
X14674500Y-75000000D01*
X15869377Y-75000000D01*
X15927568Y-75018907D01*
X15939381Y-75028997D01*
X16372620Y-75462237D01*
X16400397Y-75516753D01*
X16390826Y-75577185D01*
X16347561Y-75620450D01*
X16328241Y-75627866D01*
X16306813Y-75633608D01*
X16306810Y-75633609D01*
X16192690Y-75699496D01*
X16099496Y-75792690D01*
X16037541Y-75900000D01*
X15992072Y-75940941D01*
X15951805Y-75949500D01*
X15940691Y-75949500D01*
X15880617Y-75965597D01*
X15826109Y-75980202D01*
X15723391Y-76039507D01*
X15639507Y-76123391D01*
X15580202Y-76226109D01*
X15571880Y-76257167D01*
X15549500Y-76340691D01*
X15549500Y-76459309D01*
X15567862Y-76527837D01*
X15580202Y-76573890D01*
X15639507Y-76676608D01*
X15639509Y-76676610D01*
X15639511Y-76676613D01*
X15723387Y-76760489D01*
X15723389Y-76760490D01*
X15723391Y-76760492D01*
X15826110Y-76819797D01*
X15826111Y-76819797D01*
X15826114Y-76819799D01*
X15940691Y-76850500D01*
X15940693Y-76850500D01*
X16059307Y-76850500D01*
X16059309Y-76850500D01*
X16173886Y-76819799D01*
X16173888Y-76819797D01*
X16173890Y-76819797D01*
X16276608Y-76760492D01*
X16276608Y-76760491D01*
X16276613Y-76760489D01*
X16360489Y-76676613D01*
X16375854Y-76649998D01*
X16421323Y-76609059D01*
X16461590Y-76600500D01*
X16565890Y-76600500D01*
X16565892Y-76600500D01*
X16693186Y-76566392D01*
X16693187Y-76566391D01*
X16699454Y-76564712D01*
X16700263Y-76567731D01*
X16748458Y-76563862D01*
X16800678Y-76595748D01*
X16824182Y-76652239D01*
X16824500Y-76660163D01*
X16824500Y-76954800D01*
X16865922Y-77054800D01*
X16865925Y-77054809D01*
X16866440Y-77056054D01*
X16866442Y-77056056D01*
X16866443Y-77056058D01*
X20408645Y-80598261D01*
X20436422Y-80652777D01*
X20426851Y-80713209D01*
X20383586Y-80756474D01*
X20323154Y-80766045D01*
X20313019Y-80763891D01*
X20273532Y-80753311D01*
X20259309Y-80749500D01*
X20140691Y-80749500D01*
X20078945Y-80766045D01*
X20026109Y-80780202D01*
X19923391Y-80839507D01*
X19839507Y-80923391D01*
X19780202Y-81026110D01*
X19780201Y-81026112D01*
X19772537Y-81054714D01*
X19739212Y-81106028D01*
X19682090Y-81127953D01*
X19622990Y-81112116D01*
X19609126Y-81100890D01*
X19607310Y-81099496D01*
X19493190Y-81033609D01*
X19493192Y-81033609D01*
X19443800Y-81020375D01*
X19365893Y-80999500D01*
X19234109Y-80999500D01*
X19156201Y-81020375D01*
X19106810Y-81033609D01*
X18992691Y-81099496D01*
X18899497Y-81192690D01*
X18833610Y-81306809D01*
X18826429Y-81333609D01*
X18799501Y-81434108D01*
X18799501Y-81565892D01*
X18823660Y-81656055D01*
X18833610Y-81693190D01*
X18899497Y-81807309D01*
X18899499Y-81807311D01*
X18899501Y-81807314D01*
X18992687Y-81900500D01*
X18992689Y-81900501D01*
X18992691Y-81900503D01*
X19106811Y-81966390D01*
X19106809Y-81966390D01*
X19106813Y-81966391D01*
X19106815Y-81966392D01*
X19234109Y-82000500D01*
X19234111Y-82000500D01*
X19365891Y-82000500D01*
X19365893Y-82000500D01*
X19493187Y-81966392D01*
X19493189Y-81966390D01*
X19493191Y-81966390D01*
X19607310Y-81900503D01*
X19607310Y-81900502D01*
X19607315Y-81900500D01*
X19700501Y-81807314D01*
X19766393Y-81693186D01*
X19784825Y-81624392D01*
X19818149Y-81573079D01*
X19875270Y-81551152D01*
X19929952Y-81564280D01*
X20026110Y-81619797D01*
X20026111Y-81619797D01*
X20026114Y-81619799D01*
X20140691Y-81650500D01*
X20140693Y-81650500D01*
X20259308Y-81650500D01*
X20259309Y-81650500D01*
X20365552Y-81622032D01*
X20426653Y-81625233D01*
X20474203Y-81663738D01*
X20476669Y-81668432D01*
X20476956Y-81668267D01*
X20539507Y-81776608D01*
X20539509Y-81776610D01*
X20539511Y-81776613D01*
X20595505Y-81832607D01*
X20623281Y-81887122D01*
X20624500Y-81902609D01*
X20624500Y-85145684D01*
X20605593Y-85203875D01*
X20556093Y-85239839D01*
X20494907Y-85239839D01*
X20476000Y-85231420D01*
X20393189Y-85183609D01*
X20393191Y-85183609D01*
X20343799Y-85170375D01*
X20265892Y-85149500D01*
X20134108Y-85149500D01*
X20056200Y-85170375D01*
X20006809Y-85183609D01*
X19892690Y-85249496D01*
X19799496Y-85342690D01*
X19733609Y-85456809D01*
X19715982Y-85522597D01*
X19699500Y-85584108D01*
X19699500Y-85715892D01*
X19718049Y-85785118D01*
X19733609Y-85843190D01*
X19799496Y-85957309D01*
X19799498Y-85957311D01*
X19799500Y-85957314D01*
X19892686Y-86050500D01*
X19892688Y-86050501D01*
X19892690Y-86050503D01*
X20006810Y-86116390D01*
X20006808Y-86116390D01*
X20006812Y-86116391D01*
X20006814Y-86116392D01*
X20134108Y-86150500D01*
X20134110Y-86150500D01*
X20265890Y-86150500D01*
X20265892Y-86150500D01*
X20393186Y-86116392D01*
X20476001Y-86068578D01*
X20535847Y-86055857D01*
X20591743Y-86080743D01*
X20622336Y-86133731D01*
X20624500Y-86154315D01*
X20624500Y-87764743D01*
X20605593Y-87822934D01*
X20556093Y-87858898D01*
X20499878Y-87860370D01*
X20473529Y-87853310D01*
X20459309Y-87849500D01*
X20340691Y-87849500D01*
X20270567Y-87868289D01*
X20226109Y-87880202D01*
X20123391Y-87939507D01*
X20039507Y-88023391D01*
X19980202Y-88126109D01*
X19975424Y-88143941D01*
X19957027Y-88212602D01*
X19949500Y-88240692D01*
X19949500Y-88319876D01*
X19930593Y-88378067D01*
X19920504Y-88389879D01*
X19814882Y-88495503D01*
X19760366Y-88523281D01*
X19745407Y-88524458D01*
X19745198Y-88524499D01*
X19643944Y-88566440D01*
X19643942Y-88566441D01*
X19643942Y-88566442D01*
X19443942Y-88766443D01*
X19443941Y-88766442D01*
X19366446Y-88843938D01*
X19366444Y-88843940D01*
X19366443Y-88843942D01*
X19324500Y-88945200D01*
X19324500Y-90754800D01*
X19365922Y-90854799D01*
X19365922Y-90854800D01*
X19365925Y-90854809D01*
X19366440Y-90856054D01*
X19366442Y-90856056D01*
X19366443Y-90856058D01*
X19395505Y-90885120D01*
X19423281Y-90939635D01*
X19424500Y-90955122D01*
X19424500Y-91354800D01*
X19435022Y-91380201D01*
X19452909Y-91423385D01*
X19455895Y-91430593D01*
X19466443Y-91456058D01*
X19820505Y-91810121D01*
X19848281Y-91864635D01*
X19849500Y-91880122D01*
X19849500Y-91959309D01*
X19870949Y-92039357D01*
X19880202Y-92073890D01*
X19939507Y-92176608D01*
X19939509Y-92176610D01*
X19939511Y-92176613D01*
X20023387Y-92260489D01*
X20023389Y-92260490D01*
X20023391Y-92260492D01*
X20095279Y-92301997D01*
X20136220Y-92347466D01*
X20142616Y-92408317D01*
X20131516Y-92437233D01*
X20084510Y-92518650D01*
X20039040Y-92559591D01*
X19978190Y-92565987D01*
X19928769Y-92539154D01*
X19104496Y-91714881D01*
X19076719Y-91660364D01*
X19075542Y-91645412D01*
X19075500Y-91645204D01*
X19075500Y-91645200D01*
X19038577Y-91556060D01*
X19038576Y-91556057D01*
X19033557Y-91543941D01*
X18804496Y-91314879D01*
X18776719Y-91260363D01*
X18775542Y-91245410D01*
X18775500Y-91245202D01*
X18775500Y-91245200D01*
X18740018Y-91159540D01*
X18739922Y-91159309D01*
X18733557Y-91143941D01*
X18704496Y-91114880D01*
X18676719Y-91060363D01*
X18675541Y-91045408D01*
X18675500Y-91045198D01*
X18666927Y-91024502D01*
X18666926Y-91024500D01*
X18633559Y-90943944D01*
X18633558Y-90943943D01*
X18633558Y-90943942D01*
X16716304Y-89026689D01*
X16688528Y-88972173D01*
X16698099Y-88911741D01*
X16700574Y-88907184D01*
X16719797Y-88873889D01*
X16719796Y-88873889D01*
X16719799Y-88873886D01*
X16750500Y-88759309D01*
X16750500Y-88640691D01*
X16719799Y-88526114D01*
X16719797Y-88526111D01*
X16719797Y-88526109D01*
X16660492Y-88423391D01*
X16660490Y-88423389D01*
X16660489Y-88423387D01*
X16576613Y-88339511D01*
X16576610Y-88339509D01*
X16576608Y-88339507D01*
X16473889Y-88280202D01*
X16473890Y-88280202D01*
X16460351Y-88276574D01*
X16359309Y-88249500D01*
X16240691Y-88249500D01*
X16226470Y-88253310D01*
X16200122Y-88260370D01*
X16139020Y-88257167D01*
X16091471Y-88218661D01*
X16075500Y-88164743D01*
X16075500Y-88145200D01*
X16033557Y-88043942D01*
X16033557Y-88043941D01*
X16033556Y-88043940D01*
X16004496Y-88014879D01*
X15976719Y-87960362D01*
X15975500Y-87944876D01*
X15975500Y-87045200D01*
X15973195Y-87039635D01*
X15933557Y-86943942D01*
X15923172Y-86933557D01*
X15856058Y-86866442D01*
X15856058Y-86866443D01*
X11060845Y-82071230D01*
X11033068Y-82016713D01*
X11042639Y-81956281D01*
X11081346Y-81915491D01*
X11176613Y-81860489D01*
X11260489Y-81776613D01*
X11272897Y-81755122D01*
X11319797Y-81673890D01*
X11319797Y-81673888D01*
X11319799Y-81673886D01*
X11350500Y-81559309D01*
X11350500Y-81440691D01*
X11319799Y-81326114D01*
X11319797Y-81326111D01*
X11319797Y-81326109D01*
X11260492Y-81223391D01*
X11260490Y-81223389D01*
X11260489Y-81223387D01*
X11176613Y-81139511D01*
X11176610Y-81139509D01*
X11176608Y-81139507D01*
X11073889Y-81080202D01*
X11073890Y-81080202D01*
X11040555Y-81071270D01*
X10959309Y-81049500D01*
X10840691Y-81049500D01*
X10804084Y-81059309D01*
X10726109Y-81080202D01*
X10692814Y-81099426D01*
X10690171Y-81099987D01*
X10688259Y-81101900D01*
X10660475Y-81106300D01*
X10632966Y-81112148D01*
X10630496Y-81111048D01*
X10627827Y-81111471D01*
X10602760Y-81098699D01*
X10577070Y-81087261D01*
X10573310Y-81083694D01*
X10430307Y-80940691D01*
X12149500Y-80940691D01*
X12149500Y-81059309D01*
X12171306Y-81140691D01*
X12180202Y-81173890D01*
X12239507Y-81276608D01*
X12239509Y-81276610D01*
X12239511Y-81276613D01*
X12323387Y-81360489D01*
X12323389Y-81360490D01*
X12323391Y-81360492D01*
X12426110Y-81419797D01*
X12426111Y-81419797D01*
X12426114Y-81419799D01*
X12540691Y-81450500D01*
X12540693Y-81450500D01*
X12659307Y-81450500D01*
X12659309Y-81450500D01*
X12773886Y-81419799D01*
X12773888Y-81419797D01*
X12773890Y-81419797D01*
X12876608Y-81360492D01*
X12876608Y-81360491D01*
X12876613Y-81360489D01*
X12929998Y-81307103D01*
X12984513Y-81279328D01*
X13044945Y-81288899D01*
X13070000Y-81307102D01*
X13123387Y-81360489D01*
X13123389Y-81360490D01*
X13123391Y-81360492D01*
X13226110Y-81419797D01*
X13226111Y-81419797D01*
X13226114Y-81419799D01*
X13340691Y-81450500D01*
X13340693Y-81450500D01*
X13459307Y-81450500D01*
X13459309Y-81450500D01*
X13573886Y-81419799D01*
X13573888Y-81419797D01*
X13573890Y-81419797D01*
X13676608Y-81360492D01*
X13676608Y-81360491D01*
X13676613Y-81360489D01*
X13760489Y-81276613D01*
X13770481Y-81259307D01*
X13819797Y-81173890D01*
X13819797Y-81173888D01*
X13819799Y-81173886D01*
X13850500Y-81059309D01*
X13850500Y-80940691D01*
X13819799Y-80826114D01*
X13819797Y-80826111D01*
X13819797Y-80826109D01*
X13760492Y-80723391D01*
X13760490Y-80723389D01*
X13760489Y-80723387D01*
X13676613Y-80639511D01*
X13676610Y-80639509D01*
X13676608Y-80639507D01*
X13573889Y-80580202D01*
X13573890Y-80580202D01*
X13550318Y-80573886D01*
X13459309Y-80549500D01*
X13340691Y-80549500D01*
X13270567Y-80568289D01*
X13226109Y-80580202D01*
X13123391Y-80639507D01*
X13123390Y-80639508D01*
X13123387Y-80639510D01*
X13123387Y-80639511D01*
X13070001Y-80692896D01*
X13015487Y-80720672D01*
X12955055Y-80711101D01*
X12929999Y-80692897D01*
X12876613Y-80639511D01*
X12876610Y-80639509D01*
X12876608Y-80639507D01*
X12773889Y-80580202D01*
X12773890Y-80580202D01*
X12750318Y-80573886D01*
X12659309Y-80549500D01*
X12540691Y-80549500D01*
X12470567Y-80568289D01*
X12426109Y-80580202D01*
X12323391Y-80639507D01*
X12239507Y-80723391D01*
X12180202Y-80826109D01*
X12171004Y-80860437D01*
X12149500Y-80940691D01*
X10430307Y-80940691D01*
X8476647Y-78987031D01*
X8451024Y-78942650D01*
X8450500Y-78940694D01*
X8450500Y-78940691D01*
X8419799Y-78826114D01*
X8419797Y-78826111D01*
X8419797Y-78826109D01*
X8360492Y-78723391D01*
X8360490Y-78723389D01*
X8360489Y-78723387D01*
X8276613Y-78639511D01*
X8276610Y-78639509D01*
X8276608Y-78639507D01*
X8173889Y-78580202D01*
X8173890Y-78580202D01*
X8160351Y-78576574D01*
X8059309Y-78549500D01*
X7940691Y-78549500D01*
X7926470Y-78553310D01*
X7900122Y-78560370D01*
X7839020Y-78557167D01*
X7791471Y-78518661D01*
X7775500Y-78464743D01*
X7775500Y-77445200D01*
X7758857Y-77405021D01*
X7758857Y-77405020D01*
X7733558Y-77343942D01*
X7707569Y-77317953D01*
X7679792Y-77263436D01*
X7689363Y-77203004D01*
X7732628Y-77159739D01*
X7753344Y-77153313D01*
X7753041Y-77152179D01*
X7759307Y-77150500D01*
X7759309Y-77150500D01*
X7873886Y-77119799D01*
X7873888Y-77119797D01*
X7873890Y-77119797D01*
X7967603Y-77065691D01*
X9049500Y-77065691D01*
X9049500Y-77184309D01*
X9058183Y-77216713D01*
X9080202Y-77298890D01*
X9139507Y-77401608D01*
X9139509Y-77401610D01*
X9139511Y-77401613D01*
X9223387Y-77485489D01*
X9223389Y-77485490D01*
X9223391Y-77485492D01*
X9326110Y-77544797D01*
X9326111Y-77544797D01*
X9326114Y-77544799D01*
X9440691Y-77575500D01*
X9440693Y-77575500D01*
X9559307Y-77575500D01*
X9559309Y-77575500D01*
X9673886Y-77544799D01*
X9673888Y-77544797D01*
X9673890Y-77544797D01*
X9776608Y-77485492D01*
X9776608Y-77485491D01*
X9776613Y-77485489D01*
X9860489Y-77401613D01*
X9919799Y-77298886D01*
X9950500Y-77184309D01*
X9950500Y-77065691D01*
X9919799Y-76951114D01*
X9919797Y-76951111D01*
X9919797Y-76951109D01*
X9860492Y-76848391D01*
X9860490Y-76848389D01*
X9860489Y-76848387D01*
X9776613Y-76764511D01*
X9776610Y-76764509D01*
X9776608Y-76764507D01*
X9673889Y-76705202D01*
X9673890Y-76705202D01*
X9660351Y-76701574D01*
X9559309Y-76674500D01*
X9440691Y-76674500D01*
X9380613Y-76690598D01*
X9326109Y-76705202D01*
X9223391Y-76764507D01*
X9139507Y-76848391D01*
X9080202Y-76951109D01*
X9072445Y-76980060D01*
X9049500Y-77065691D01*
X7967603Y-77065691D01*
X7976608Y-77060492D01*
X7976608Y-77060491D01*
X7976613Y-77060489D01*
X8060489Y-76976613D01*
X8073083Y-76954800D01*
X8119797Y-76873890D01*
X8119797Y-76873888D01*
X8119799Y-76873886D01*
X8150500Y-76759309D01*
X8150500Y-76640691D01*
X8119799Y-76526114D01*
X8119797Y-76526111D01*
X8119797Y-76526109D01*
X8060492Y-76423391D01*
X8060490Y-76423389D01*
X8060489Y-76423387D01*
X7976613Y-76339511D01*
X7976610Y-76339509D01*
X7976608Y-76339507D01*
X7873889Y-76280202D01*
X7873890Y-76280202D01*
X7850318Y-76273886D01*
X7759309Y-76249500D01*
X7640691Y-76249500D01*
X7570567Y-76268289D01*
X7526109Y-76280202D01*
X7423391Y-76339507D01*
X7339507Y-76423391D01*
X7280202Y-76526109D01*
X7247821Y-76646959D01*
X7245029Y-76646211D01*
X7223840Y-76690598D01*
X7170059Y-76719775D01*
X7109400Y-76711769D01*
X7082046Y-76692431D01*
X6330306Y-75940691D01*
X8249500Y-75940691D01*
X8249500Y-76059309D01*
X8275423Y-76156056D01*
X8280202Y-76173890D01*
X8339507Y-76276608D01*
X8339509Y-76276610D01*
X8339511Y-76276613D01*
X8423387Y-76360489D01*
X8423389Y-76360490D01*
X8423391Y-76360492D01*
X8526110Y-76419797D01*
X8526111Y-76419797D01*
X8526114Y-76419799D01*
X8640691Y-76450500D01*
X8640693Y-76450500D01*
X8759307Y-76450500D01*
X8759309Y-76450500D01*
X8873886Y-76419799D01*
X8873888Y-76419797D01*
X8873890Y-76419797D01*
X8976608Y-76360492D01*
X8976608Y-76360491D01*
X8976613Y-76360489D01*
X9060489Y-76276613D01*
X9062061Y-76273890D01*
X9119797Y-76173890D01*
X9119797Y-76173888D01*
X9119799Y-76173886D01*
X9150500Y-76059309D01*
X9150500Y-75940691D01*
X9119799Y-75826114D01*
X9119797Y-75826111D01*
X9119797Y-75826109D01*
X9060492Y-75723391D01*
X9060490Y-75723389D01*
X9060489Y-75723387D01*
X8976613Y-75639511D01*
X8976610Y-75639509D01*
X8976608Y-75639507D01*
X8873889Y-75580202D01*
X8873890Y-75580202D01*
X8850318Y-75573886D01*
X8759309Y-75549500D01*
X8640691Y-75549500D01*
X8570567Y-75568289D01*
X8526109Y-75580202D01*
X8423391Y-75639507D01*
X8339507Y-75723391D01*
X8280202Y-75826109D01*
X8272428Y-75855123D01*
X8249500Y-75940691D01*
X6330306Y-75940691D01*
X5558619Y-75169004D01*
X5530842Y-75114487D01*
X5540413Y-75054055D01*
X5583678Y-75010790D01*
X5628623Y-75000000D01*
X9369377Y-75000000D01*
X9427568Y-75018907D01*
G37*
%TD.AperFunction*%
%TD*%
M02*
