%TF.GenerationSoftware,KiCad,Pcbnew,10.0.6*%
%TF.CreationDate,2026-09-12T03:45:26-05:00*%
%TF.ProjectId,KK_power_module,4b4b5f70-6f77-4657-925f-6d6f64756c65,P.3 flat stack engineering*%
%TF.SameCoordinates,Original*%
%TF.FileFunction,Soldermask,Bot*%
%TF.FilePolarity,Negative*%
%FSLAX46Y46*%
G04 Gerber Fmt 4.6, Leading zero omitted, Abs format (unit mm)*
G04 Created by KiCad (PCBNEW 10.0.6) date 2026-09-12 03:45:26*
%MOMM*%
%LPD*%
G01*
G04 APERTURE LIST*
G04 Aperture macros list*
%AMRoundRect*
0 Rectangle with rounded corners*
0 $1 Rounding radius*
0 $2 $3 $4 $5 $6 $7 $8 $9 X,Y pos of 4 corners*
0 Add a 4 corners polygon primitive as box body*
4,1,4,$2,$3,$4,$5,$6,$7,$8,$9,$2,$3,0*
0 Add four circle primitives for the rounded corners*
1,1,$1+$1,$2,$3*
1,1,$1+$1,$4,$5*
1,1,$1+$1,$6,$7*
1,1,$1+$1,$8,$9*
0 Add four rect primitives between the rounded corners*
20,1,$1+$1,$2,$3,$4,$5,0*
20,1,$1+$1,$4,$5,$6,$7,0*
20,1,$1+$1,$6,$7,$8,$9,0*
20,1,$1+$1,$8,$9,$2,$3,0*%
G04 Aperture macros list end*
%ADD10RoundRect,0.250000X-0.350000X-0.625000X0.350000X-0.625000X0.350000X0.625000X-0.350000X0.625000X0*%
%ADD11O,1.200000X1.750000*%
%ADD12C,2.200000*%
%ADD13C,0.900000*%
%ADD14C,0.650000*%
%ADD15O,1.000000X2.100000*%
%ADD16O,1.000000X1.600000*%
%ADD17RoundRect,0.250001X-1.099999X-1.099999X1.099999X-1.099999X1.099999X1.099999X-1.099999X1.099999X0*%
%ADD18C,2.700000*%
%ADD19RoundRect,0.250000X-0.600000X-0.725000X0.600000X-0.725000X0.600000X0.725000X-0.600000X0.725000X0*%
%ADD20O,1.700000X1.950000*%
%ADD21C,1.500000*%
G04 APERTURE END LIST*
D10*
%TO.C,J4*%
X28000000Y-59450000D03*
D11*
X30000000Y-59450000D03*
%TD*%
D12*
%TO.C,H3*%
X4000000Y-101000000D03*
%TD*%
D13*
%TO.C,SW1*%
X4875000Y-89600000D03*
X4875000Y-96400000D03*
%TD*%
D12*
%TO.C,H4*%
X92000000Y-101000000D03*
%TD*%
D14*
%TO.C,J1*%
X36110000Y-98055000D03*
X41890000Y-98055000D03*
D15*
X34680000Y-97555000D03*
D16*
X34680000Y-101735000D03*
D15*
X43320000Y-97555000D03*
D16*
X43320000Y-101735000D03*
%TD*%
D17*
%TO.C,J2*%
X38520000Y-60950000D03*
D18*
X42480000Y-60950000D03*
%TD*%
D12*
%TO.C,H2*%
X92000000Y-4000000D03*
%TD*%
%TO.C,H1*%
X4000000Y-4000000D03*
%TD*%
D19*
%TO.C,J3*%
X11750000Y-59475000D03*
D20*
X14250000Y-59475000D03*
X16750000Y-59475000D03*
X19250000Y-59475000D03*
%TD*%
D21*
%TO.C,TP17*%
X31500000Y-71500000D03*
%TD*%
%TO.C,TP6*%
X28000000Y-75000000D03*
%TD*%
%TO.C,TP18*%
X22000000Y-57000000D03*
%TD*%
%TO.C,TP24*%
X6500000Y-71500000D03*
%TD*%
%TO.C,TP14*%
X42500000Y-71500000D03*
%TD*%
%TO.C,TP26*%
X43000000Y-65000000D03*
%TD*%
%TO.C,TP13*%
X46000000Y-71500000D03*
%TD*%
%TO.C,TP9*%
X17000000Y-75000000D03*
%TD*%
%TO.C,TP1*%
X46000000Y-75000000D03*
%TD*%
%TO.C,TP27*%
X37000000Y-65000000D03*
%TD*%
%TO.C,TP5*%
X31000000Y-75000000D03*
%TD*%
%TO.C,TP10*%
X7000000Y-64000000D03*
%TD*%
%TO.C,TP25*%
X46000000Y-65000000D03*
%TD*%
%TO.C,TP21*%
X17000000Y-71500000D03*
%TD*%
%TO.C,TP2*%
X42500000Y-75000000D03*
%TD*%
%TO.C,TP23*%
X10000000Y-71500000D03*
%TD*%
%TO.C,TP22*%
X13500000Y-71500000D03*
%TD*%
%TO.C,TP7*%
X24500000Y-75000000D03*
%TD*%
%TO.C,TP11*%
X10000000Y-75000000D03*
%TD*%
%TO.C,TP16*%
X35000000Y-71500000D03*
%TD*%
%TO.C,TP20*%
X21000000Y-71500000D03*
%TD*%
%TO.C,TP4*%
X35200000Y-75500000D03*
%TD*%
%TO.C,TP28*%
X34000000Y-65000000D03*
%TD*%
%TO.C,TP8*%
X21000000Y-75000000D03*
%TD*%
%TO.C,TP19*%
X29000000Y-63000000D03*
%TD*%
%TO.C,TP3*%
X39000000Y-75000000D03*
%TD*%
%TO.C,TP15*%
X39000000Y-71500000D03*
%TD*%
%TO.C,TP12*%
X6500000Y-75000000D03*
%TD*%
M02*
