M48
; DRILL file KiCad 10.0.6 date 2026-09-11T15:05:44
; FORMAT={-:-/ absolute / metric / decimal}
; #@! TF.CreationDate,2026-09-11T15:05:44-05:00
; #@! TF.GenerationSoftware,Kicad,Pcbnew,10.0.6
; #@! TF.FileFunction,Plated,1,2,PTH
FMAT,2
METRIC
; #@! TA.AperFunction,Plated,PTH,ViaDrill
T1C0.300
; #@! TA.AperFunction,Plated,PTH,ViaDrill
T2C0.400
; #@! TA.AperFunction,Plated,PTH,ViaDrill
T3C0.500
; #@! TA.AperFunction,Plated,PTH,ComponentDrill
T4C0.750
; #@! TA.AperFunction,Plated,PTH,ComponentDrill
T5C0.800
; #@! TA.AperFunction,Plated,PTH,ComponentDrill
T6C0.900
; #@! TA.AperFunction,Plated,PTH,ComponentDrill
T7C0.950
; #@! TA.AperFunction,Plated,PTH,ComponentDrill
T8C1.000
; #@! TA.AperFunction,Plated,PTH,ComponentDrill
T9C1.050
; #@! TA.AperFunction,Plated,PTH,ComponentDrill
T10C1.100
%
G90
G05
T1
X9.854Y-48.806
X18.096Y-46.685
X18.6Y-44.442
X21.585Y-67.445
X23.118Y-53.44
X24.5Y-14.7
X25.202Y-12.787
X30.804Y-28.657
X31.596Y-16.646
X34.16Y-33.872
X35.496Y-32.11
X36.283Y-34.495
X39.097Y-28.678
X43.1Y-24.1
X44.285Y-41.999
X45.0Y-28.0
X46.377Y-62.777
X47.9Y-28.0
X47.9Y-38.6
X49.418Y-31.048
X49.768Y-62.849
X50.0Y-43.4
X51.4Y-26.6
X51.895Y-27.248
X51.9Y-49.2
X51.916Y-43.527
X52.3Y-44.3
X53.185Y-20.415
X53.989Y-20.17
X54.183Y-33.872
X55.847Y-38.306
X56.5Y-43.9
X58.097Y-38.856
X61.0Y-43.1
X61.373Y-33.172
X62.011Y-27.248
X64.235Y-32.984
X64.728Y-32.308
X69.5Y-26.437
X70.8Y-36.5
T2
X31.797Y-24.86
X31.797Y-32.146
X32.4Y-18.5
X40.3Y-22.0
X62.78Y-37.528
X62.8Y-24.4
T3
X54.889Y-15.991
X54.889Y-18.15
X79.746Y-10.992
T4
X11.0Y-90.55
X13.0Y-90.55
X31.0Y-90.55
X33.0Y-90.55
T5
X2.92Y-58.5
X2.92Y-63.5
X2.96Y-9.14
X4.0Y-13.42
X4.0Y-23.58
X4.0Y-38.505
X4.0Y-41.045
X4.0Y-44.005
X4.0Y-46.545
X4.0Y-49.505
X4.0Y-52.045
X5.5Y-9.14
X7.455Y-14.0
X7.69Y-20.49
X7.69Y-23.03
X7.69Y-25.57
X7.69Y-28.11
X7.69Y-30.65
X7.69Y-33.19
X7.69Y-35.73
X7.69Y-38.27
X7.69Y-40.81
X7.69Y-43.35
X7.69Y-45.89
X7.69Y-48.43
X7.69Y-50.97
X7.69Y-53.51
X8.0Y-76.5
X8.04Y-9.14
X9.995Y-14.0
X12.5Y-77.0
X12.92Y-16.0
X13.08Y-58.5
X13.08Y-63.5
X15.31Y-20.49
X15.31Y-23.03
X15.31Y-25.57
X15.31Y-28.11
X15.31Y-30.65
X15.31Y-33.19
X15.31Y-35.73
X15.31Y-38.27
X15.31Y-40.81
X15.31Y-43.35
X15.31Y-45.89
X15.31Y-48.43
X15.31Y-50.97
X15.31Y-53.51
X16.5Y-73.5
X16.96Y-90.36
X17.505Y-66.5
X18.42Y-19.5
X18.455Y-70.0
X18.5Y-10.455
X18.5Y-12.995
X18.505Y-53.5
X19.5Y-90.36
X20.045Y-66.5
X20.5Y-45.505
X20.5Y-48.045
X20.5Y-73.5
X20.995Y-70.0
X21.045Y-53.5
X22.04Y-90.36
X23.0Y-10.5
X23.0Y-12.5
X23.08Y-16.0
X24.0Y-23.0
X24.0Y-33.5
X24.0Y-44.5
X24.0Y-71.455
X24.0Y-73.995
X24.5Y-49.005
X24.5Y-51.545
X25.0Y-88.505
X25.0Y-91.045
X25.46Y-27.14
X26.0Y-33.5
X26.0Y-44.5
X26.505Y-62.0
X27.5Y-84.0
X27.955Y-23.0
X28.0Y-27.14
X28.14Y-11.46
X28.14Y-14.0
X28.14Y-16.54
X28.5Y-79.0
X28.58Y-19.5
X29.0Y-48.92
X29.0Y-59.08
X29.045Y-62.0
X29.5Y-31.42
X29.5Y-41.58
X29.5Y-84.0
X30.0Y-45.5
X30.495Y-23.0
X30.54Y-27.14
X32.42Y-34.0
X32.5Y-51.5
X32.955Y-37.5
X33.64Y-55.96
X33.64Y-58.5
X33.64Y-61.04
X34.5Y-51.5
X34.5Y-76.5
X34.5Y-81.0
X34.5Y-85.0
X35.495Y-37.5
X37.96Y-38.14
X38.0Y-72.955
X38.0Y-75.495
X38.19Y-43.19
X38.19Y-45.73
X38.19Y-48.27
X38.19Y-50.81
X38.5Y-59.42
X38.5Y-69.58
X40.0Y-90.5
X40.5Y-38.14
X42.0Y-90.5
X42.5Y-53.92
X42.5Y-64.08
X42.58Y-34.0
X43.04Y-38.14
X43.455Y-72.5
X45.81Y-43.19
X45.81Y-45.73
X45.81Y-48.27
X45.81Y-50.81
X45.995Y-72.5
X46.0Y-53.92
X46.0Y-64.08
X46.5Y-38.0
X47.005Y-32.5
X48.92Y-51.5
X49.545Y-32.5
X50.5Y-46.0
X50.5Y-48.0
X50.5Y-79.0
X53.0Y-16.505
X53.0Y-19.045
X53.0Y-22.005
X53.0Y-24.545
X53.0Y-28.42
X53.0Y-38.58
X53.955Y-59.5
X54.0Y-9.0
X54.0Y-13.0
X54.0Y-63.0
X54.5Y-42.0
X55.5Y-48.0
X55.5Y-78.5
X55.5Y-80.5
X55.92Y-34.5
X56.495Y-59.5
X56.5Y-19.92
X56.5Y-30.08
X56.5Y-55.0
X58.11Y-9.19
X58.11Y-16.81
X59.0Y-3.455
X59.0Y-5.995
X59.08Y-51.5
X59.5Y-38.0
X59.5Y-42.5
X60.0Y-19.92
X60.0Y-30.08
X60.0Y-90.5
X60.455Y-66.5
X60.5Y-70.0
X60.65Y-9.19
X60.65Y-16.81
X61.92Y-5.5
X62.0Y-90.5
X62.995Y-66.5
X63.19Y-9.19
X63.19Y-16.81
X63.5Y-19.92
X63.5Y-30.08
X65.73Y-9.19
X65.73Y-16.81
X66.08Y-34.5
X67.0Y-27.5
X67.005Y-24.0
X67.505Y-20.5
X68.27Y-9.19
X68.27Y-16.81
X69.5Y-31.5
X69.545Y-24.0
X70.045Y-20.5
X70.81Y-9.19
X70.81Y-16.81
X71.5Y-58.0
X72.08Y-5.5
X73.35Y-9.19
X73.35Y-16.81
X73.5Y-58.0
X75.89Y-9.19
X75.89Y-16.81
X78.0Y-20.5
X78.0Y-24.5
T6
X4.0Y-27.73
X4.0Y-30.27
X4.0Y-33.23
X4.0Y-35.77
X10.73Y-85.0
X11.725Y-8.0
X13.27Y-85.0
X14.265Y-8.0
X23.23Y-39.5
X25.77Y-39.5
X27.23Y-7.5
X29.77Y-7.5
X32.73Y-41.5
X34.5Y-44.73
X34.5Y-47.27
X35.27Y-41.5
X38.5Y-54.23
X38.5Y-56.77
X42.5Y-66.73
X42.5Y-69.27
X48.73Y-42.0
X49.23Y-55.5
X50.0Y-58.73
X50.0Y-61.27
X50.5Y-82.23
X50.5Y-84.77
X51.27Y-42.0
X51.77Y-55.5
X53.73Y-84.5
X56.27Y-84.5
X59.5Y-45.73
X59.5Y-48.27
X66.0Y-87.73
X66.0Y-90.27
X75.5Y-3.73
X75.5Y-6.27
T7
X47.25Y-90.525
X49.75Y-90.525
X52.25Y-90.525
X54.75Y-90.525
T8
X5.0Y-67.75
X5.0Y-72.25
X13.0Y-67.75
X13.0Y-72.25
X16.0Y-57.75
X16.0Y-62.25
X16.0Y-77.75
X16.0Y-82.25
X24.0Y-57.75
X24.0Y-62.25
X24.0Y-77.75
X24.0Y-82.25
X27.0Y-67.75
X27.0Y-72.25
X34.38Y-7.24
X34.38Y-9.78
X34.38Y-12.32
X34.38Y-14.86
X34.38Y-17.4
X34.38Y-19.94
X34.38Y-22.48
X34.38Y-25.02
X34.38Y-27.56
X35.0Y-67.75
X35.0Y-72.25
X38.0Y-79.25
X38.0Y-83.75
X46.0Y-79.25
X46.0Y-83.75
X49.0Y-67.75
X49.0Y-72.25
X49.62Y-7.24
X49.62Y-9.78
X49.62Y-12.32
X49.62Y-14.86
X49.62Y-17.4
X49.62Y-19.9
X49.62Y-22.48
X49.62Y-25.02
X49.62Y-27.56
X57.0Y-67.75
X57.0Y-72.25
X60.0Y-57.75
X60.0Y-62.25
X60.0Y-77.75
X60.0Y-82.25
X68.0Y-57.75
X68.0Y-62.25
X68.0Y-77.75
X68.0Y-82.25
X71.0Y-67.75
X71.0Y-72.25
X79.0Y-67.75
X79.0Y-72.25
T9
X20.0Y-24.61
X20.0Y-27.15
X20.0Y-29.69
X20.0Y-32.23
X20.0Y-34.77
X20.0Y-37.31
X20.0Y-39.85
X20.0Y-42.39
X63.5Y-39.3
X63.5Y-41.84
X63.5Y-44.38
X63.5Y-46.92
X63.5Y-49.46
X63.5Y-52.0
X74.0Y-23.19
X74.0Y-25.73
X74.0Y-28.27
X74.0Y-30.81
T10
X2.92Y-81.0
X13.08Y-81.0
X19.45Y-6.5
X21.99Y-6.5
X24.53Y-6.5
M30
