%TF.GenerationSoftware,KiCad,Pcbnew,10.0.6*%
%TF.CreationDate,2026-09-09T22:40:34-05:00*%
%TF.ProjectId,KK_power_module,4b4b5f70-6f77-4657-925f-6d6f64756c65,0.2-LR1*%
%TF.SameCoordinates,Original*%
%TF.FileFunction,Copper,L2,Bot*%
%TF.FilePolarity,Positive*%
%FSLAX46Y46*%
G04 Gerber Fmt 4.6, Leading zero omitted, Abs format (unit mm)*
G04 Created by KiCad (PCBNEW 10.0.6) date 2026-09-09 22:40:34*
%MOMM*%
%LPD*%
G01*
G04 APERTURE LIST*
G04 Aperture macros list*
%AMRoundRect*
0 Rectangle with rounded corners*
0 $1 Rounding radius*
0 $2 $3 $4 $5 $6 $7 $8 $9 X,Y pos of 4 corners*
0 Add a 4 corners polygon primitive as box body*
4,1,4,$2,$3,$4,$5,$6,$7,$8,$9,$2,$3,0*
0 Add four circle primitives for the rounded corners*
1,1,$1+$1,$2,$3*
1,1,$1+$1,$4,$5*
1,1,$1+$1,$6,$7*
1,1,$1+$1,$8,$9*
0 Add four rect primitives between the rounded corners*
20,1,$1+$1,$2,$3,$4,$5,0*
20,1,$1+$1,$4,$5,$6,$7,0*
20,1,$1+$1,$6,$7,$8,$9,0*
20,1,$1+$1,$8,$9,$2,$3,0*%
G04 Aperture macros list end*
%TA.AperFunction,ComponentPad*%
%ADD10RoundRect,0.250000X0.350000X0.625000X-0.350000X0.625000X-0.350000X-0.625000X0.350000X-0.625000X0*%
%TD*%
%TA.AperFunction,ComponentPad*%
%ADD11O,1.200000X1.750000*%
%TD*%
%TA.AperFunction,ComponentPad*%
%ADD12R,1.700000X1.700000*%
%TD*%
%TA.AperFunction,ComponentPad*%
%ADD13C,1.700000*%
%TD*%
%TA.AperFunction,ComponentPad*%
%ADD14O,1.000000X2.100000*%
%TD*%
%TA.AperFunction,ComponentPad*%
%ADD15O,1.000000X1.600000*%
%TD*%
%TA.AperFunction,ComponentPad*%
%ADD16RoundRect,0.250000X-0.625000X0.350000X-0.625000X-0.350000X0.625000X-0.350000X0.625000X0.350000X0*%
%TD*%
%TA.AperFunction,ComponentPad*%
%ADD17O,1.750000X1.200000*%
%TD*%
%TA.AperFunction,ViaPad*%
%ADD18C,0.600000*%
%TD*%
%TA.AperFunction,ViaPad*%
%ADD19C,0.500000*%
%TD*%
%TA.AperFunction,Conductor*%
%ADD20C,0.200000*%
%TD*%
%ADD21C,0.300000*%
%ADD22C,0.350000*%
%ADD23O,0.600000X1.700000*%
%ADD24O,0.600000X1.200000*%
G04 APERTURE END LIST*
D10*
%TO.P,J3,1,Pin_1_1*%
%TO.N,/SYS_OUT*%
X218730000Y-48810000D03*
D11*
%TO.P,J3,2,Pin_2_2*%
%TO.N,GND*%
X216730000Y-48810000D03*
%TD*%
D12*
%TO.P,J5,1,Pin_1_1*%
%TO.N,/PG*%
X201260000Y-45960000D03*
D13*
%TO.P,J5,2,Pin_2_2*%
%TO.N,/STAT1{slash}LBO*%
X203800000Y-45960000D03*
%TO.P,J5,3,Pin_3_3*%
%TO.N,/STAT2*%
X206340000Y-45960000D03*
%TO.P,J5,4,Pin_4_4*%
%TO.N,GND*%
X208880000Y-45960000D03*
%TO.P,J5,5,Pin_5_5*%
%TO.N,/VBAT*%
X211420000Y-45960000D03*
%TD*%
D12*
%TO.P,J4,1,Pin_1_1*%
%TO.N,/THERM*%
X204250000Y-68280000D03*
D13*
%TO.P,J4,2,Pin_2_2*%
%TO.N,GND*%
X201710000Y-68280000D03*
%TD*%
D14*
%TO.P,J1,SH,SHIELD_SH*%
%TO.N,GND*%
X215660000Y-75045000D03*
D15*
X215660000Y-79225000D03*
D14*
X224300000Y-75045000D03*
D15*
X224300000Y-79225000D03*
%TD*%
D12*
%TO.P,JP1,1,A_1*%
%TO.N,/THERM*%
X204230000Y-64670000D03*
D13*
%TO.P,JP1,2,B_2*%
%TO.N,Net-(JP1-B)*%
X201690000Y-64670000D03*
%TD*%
D16*
%TO.P,J2,1,Pin_1_1*%
%TO.N,/VBAT*%
X200380000Y-73020000D03*
D17*
%TO.P,J2,2,Pin_2_2*%
%TO.N,/BAT_NEG*%
X200380000Y-75020000D03*
%TD*%
D18*
%TO.N,/SYS*%
X207449300Y-64767400D03*
X203505200Y-56125200D03*
%TO.N,GND*%
X215033000Y-64985000D03*
D19*
X209180000Y-57810000D03*
X208067000Y-48488000D03*
D18*
X210494000Y-58541000D03*
X211700000Y-64510000D03*
X204559000Y-57819000D03*
X211700000Y-61160000D03*
%TO.N,/SYS_OUT*%
X210954800Y-72399700D03*
%TO.N,/BAT_NEG*%
X223744200Y-69697400D03*
X219743400Y-68443700D03*
X212812300Y-49303500D03*
X212043700Y-69911300D03*
%TO.N,/OC*%
X227167500Y-75271200D03*
X211712300Y-55043200D03*
%TO.N,/OD*%
X220964300Y-63481100D03*
X208873600Y-62648600D03*
X208464300Y-51678100D03*
X223746700Y-68698900D03*
%TO.N,Net-(JP1-B)*%
X213562000Y-63051200D03*
X217367300Y-54679000D03*
%TO.N,/STAT1{slash}LBO*%
X224177600Y-57582600D03*
X206801600Y-60440300D03*
%TO.N,Net-(LED2-K)*%
X224377800Y-61082700D03*
X220908400Y-70681800D03*
%TO.N,/PG*%
X205585200Y-61920300D03*
X220113800Y-49389900D03*
X220993700Y-56403600D03*
%TO.N,/STAT2*%
X206335900Y-61272600D03*
%TO.N,/VBAT*%
X207609400Y-63143400D03*
X207717400Y-55276500D03*
%TO.N,Net-(U2-VCC)*%
X214605600Y-53708300D03*
X214023800Y-63785200D03*
X219920300Y-50230300D03*
%TO.N,Net-(U1-VPCC)*%
X227563000Y-66656700D03*
X202295200Y-56874300D03*
%TO.N,Net-(J1-CC2)*%
X219189700Y-64726000D03*
X219191300Y-78141100D03*
%TO.N,Net-(U1-PROG1)*%
X210397000Y-56763800D03*
X211273600Y-59068500D03*
%TO.N,Net-(LED1-K)*%
X218073800Y-70573800D03*
X221922600Y-58817400D03*
%TO.N,Net-(LED3-K)*%
X214586700Y-49469100D03*
X223921400Y-70730800D03*
%TO.N,Net-(J1-CC1)*%
X218404900Y-75931300D03*
X217030000Y-65031100D03*
%TD*%
%TO.N,/SYS*%
D20*
X203505200Y-60823300D02*
X207449300Y-64767400D01*
X203505200Y-56125200D02*
X203505200Y-60823300D01*
%TO.N,/SYS_OUT*%
X211071300Y-56406700D02*
X212558600Y-57894000D01*
X211071300Y-54825300D02*
X211071300Y-56406700D01*
X212812800Y-54328600D02*
X211568000Y-54328600D01*
X211568000Y-54328600D02*
X211071300Y-54825300D01*
X212676900Y-70677600D02*
X210954800Y-72399700D01*
X213466800Y-54484300D02*
X212968500Y-54484300D01*
X212558600Y-57894000D02*
X212558600Y-63466600D01*
X214356500Y-53106600D02*
X214003900Y-53459200D01*
X212968500Y-54484300D02*
X212812800Y-54328600D01*
X218730000Y-49221100D02*
X214844500Y-53106600D01*
X212676900Y-63584900D02*
X212676900Y-70677600D01*
X214844500Y-53106600D02*
X214356500Y-53106600D01*
X214003900Y-53459200D02*
X214003900Y-53947200D01*
X212558600Y-63466600D02*
X212676900Y-63584900D01*
X214003900Y-53947200D02*
X213466800Y-54484300D01*
X218730000Y-48810000D02*
X218730000Y-49221100D01*
%TO.N,/BAT_NEG*%
X205467600Y-74118300D02*
X209743000Y-69842900D01*
X212043700Y-69911300D02*
X209811400Y-69911300D01*
X219743400Y-68443700D02*
X219743400Y-71063100D01*
X219743400Y-71063100D02*
X220427900Y-71747600D01*
X209811400Y-69911300D02*
X209743000Y-69842900D01*
X200380000Y-74118300D02*
X205467600Y-74118300D01*
X209743000Y-69842900D02*
X209743000Y-52372800D01*
X200380000Y-75020000D02*
X200380000Y-74118300D01*
X209743000Y-52372800D02*
X212812300Y-49303500D01*
X220427900Y-71747600D02*
X221694000Y-71747600D01*
X221694000Y-71747600D02*
X223744200Y-69697400D01*
%TO.N,/OC*%
X212960300Y-63300300D02*
X213100100Y-63440100D01*
X213100100Y-63440100D02*
X213100100Y-74246600D01*
X224720800Y-77717900D02*
X227167500Y-75271200D01*
X211712300Y-55043200D02*
X212960300Y-56291200D01*
X212960300Y-56291200D02*
X212960300Y-63300300D01*
X220495700Y-77717900D02*
X224720800Y-77717900D01*
X213100100Y-74246600D02*
X217596400Y-78742900D01*
X219470700Y-78742900D02*
X220495700Y-77717900D01*
X217596400Y-78742900D02*
X219470700Y-78742900D01*
%TO.N,/OD*%
X220297100Y-68740900D02*
X220964300Y-68073700D01*
X208464300Y-51678100D02*
X208464300Y-62239300D01*
X208464300Y-62239300D02*
X208873600Y-62648600D01*
X221117500Y-71328100D02*
X220601400Y-71328100D01*
X220964300Y-68073700D02*
X220964300Y-63481100D01*
X220297100Y-71023800D02*
X220297100Y-68740900D01*
X223746700Y-68698900D02*
X221117500Y-71328100D01*
X220601400Y-71328100D02*
X220297100Y-71023800D01*
%TO.N,Net-(JP1-B)*%
X217367300Y-59245900D02*
X213562000Y-63051200D01*
X217367300Y-54679000D02*
X217367300Y-59245900D01*
%TO.N,/STAT1{slash}LBO*%
X207517000Y-44787600D02*
X217115500Y-44787600D01*
X206801600Y-49532300D02*
X207517000Y-48816900D01*
X203800000Y-45960000D02*
X204972400Y-44787600D01*
X207517000Y-48816900D02*
X207517000Y-44787600D01*
X224177600Y-51849700D02*
X224177600Y-57582600D01*
X206801600Y-60440300D02*
X206801600Y-49532300D01*
X217115500Y-44787600D02*
X224177600Y-51849700D01*
X204972400Y-44787600D02*
X207517000Y-44787600D01*
%TO.N,Net-(LED2-K)*%
X224377800Y-67212400D02*
X220908400Y-70681800D01*
X224377800Y-61082700D02*
X224377800Y-67212400D01*
%TO.N,/PG*%
X220113800Y-49389900D02*
X220993700Y-50269800D01*
X201260000Y-45960000D02*
X201260000Y-47111700D01*
X201260000Y-47111700D02*
X205585200Y-51436900D01*
X220993700Y-50269800D02*
X220993700Y-56403600D01*
X205585200Y-51436900D02*
X205585200Y-61920300D01*
%TO.N,/STAT2*%
X206335900Y-61272600D02*
X206186200Y-61122900D01*
X206186200Y-46113800D02*
X206340000Y-45960000D01*
X206186200Y-61122900D02*
X206186200Y-46113800D01*
%TO.N,/VBAT*%
X208051000Y-63585000D02*
X207609400Y-63143400D01*
X207717400Y-49662600D02*
X211420000Y-45960000D01*
X201640400Y-73020000D02*
X208051000Y-66609400D01*
X207609400Y-63143400D02*
X207609400Y-55384500D01*
X200380000Y-73020000D02*
X201640400Y-73020000D01*
X208051000Y-66609400D02*
X208051000Y-63585000D01*
X207609400Y-55384500D02*
X207717400Y-55276500D01*
X207717400Y-55276500D02*
X207717400Y-49662600D01*
%TO.N,Net-(U2-VCC)*%
X217977400Y-59831600D02*
X217977400Y-53708300D01*
X214605600Y-53708300D02*
X217977400Y-53708300D01*
X214023800Y-63785200D02*
X217977400Y-59831600D01*
X219920300Y-51765400D02*
X219920300Y-50230300D01*
X217977400Y-53708300D02*
X219920300Y-51765400D01*
%TO.N,/THERM*%
X204250000Y-68280000D02*
X204250000Y-67128300D01*
X204230000Y-64670000D02*
X204230000Y-67108300D01*
X204230000Y-67108300D02*
X204250000Y-67128300D01*
%TO.N,Net-(U1-VPCC)*%
X217280600Y-44357000D02*
X200726600Y-44357000D01*
X227563000Y-54639400D02*
X217280600Y-44357000D01*
X200108300Y-54687400D02*
X202295200Y-56874300D01*
X227563000Y-66656700D02*
X227563000Y-54639400D01*
X200726600Y-44357000D02*
X200108300Y-44975300D01*
X200108300Y-44975300D02*
X200108300Y-54687400D01*
%TO.N,Net-(J1-CC2)*%
X219189700Y-64726000D02*
X219141700Y-64774000D01*
X219141700Y-64774000D02*
X219141700Y-78091500D01*
X219141700Y-78091500D02*
X219191300Y-78141100D01*
%TO.N,Net-(U1-PROG1)*%
X211273600Y-59068500D02*
X211273600Y-57640400D01*
X211273600Y-57640400D02*
X210397000Y-56763800D01*
%TO.N,Net-(LED1-K)*%
X218073800Y-62666200D02*
X221922600Y-58817400D01*
X218073800Y-70573800D02*
X218073800Y-62666200D01*
%TO.N,Net-(LED3-K)*%
X219359100Y-47632300D02*
X216301700Y-47632300D01*
X222727200Y-51000400D02*
X219359100Y-47632300D01*
X222727200Y-58561800D02*
X222727200Y-51000400D01*
X216301700Y-47632300D02*
X214586700Y-49347300D01*
X223921400Y-70730800D02*
X224987400Y-69664800D01*
X214586700Y-49347300D02*
X214586700Y-49469100D01*
X224987400Y-69664800D02*
X224987400Y-60822000D01*
X224987400Y-60822000D02*
X222727200Y-58561800D01*
%TO.N,Net-(J1-CC1)*%
X218404900Y-75931300D02*
X218404900Y-72055700D01*
X218404900Y-72055700D02*
X217030000Y-70680800D01*
X217030000Y-70680800D02*
X217030000Y-65031100D01*
%TD*%
%TA.AperFunction,Conductor*%
%TO.N,GND*%
G36*
X223282903Y-51451131D02*
G01*
X223289381Y-51457163D01*
X223790781Y-51958563D01*
X223824266Y-52019886D01*
X223827100Y-52046244D01*
X223827100Y-57103214D01*
X223807415Y-57170253D01*
X223790781Y-57190895D01*
X223737093Y-57244582D01*
X223737088Y-57244588D01*
X223664617Y-57370111D01*
X223664616Y-57370115D01*
X223627100Y-57510125D01*
X223627100Y-57655075D01*
X223630259Y-57666863D01*
X223664617Y-57795088D01*
X223737088Y-57920611D01*
X223737090Y-57920613D01*
X223737091Y-57920615D01*
X223839585Y-58023109D01*
X223839586Y-58023110D01*
X223839588Y-58023111D01*
X223965111Y-58095582D01*
X223965112Y-58095582D01*
X223965115Y-58095584D01*
X224105125Y-58133100D01*
X224105128Y-58133100D01*
X224250072Y-58133100D01*
X224250075Y-58133100D01*
X224390085Y-58095584D01*
X224515615Y-58023109D01*
X224618109Y-57920615D01*
X224690584Y-57795085D01*
X224728100Y-57655075D01*
X224728100Y-57510125D01*
X224690584Y-57370115D01*
X224669724Y-57333985D01*
X224618111Y-57244588D01*
X224618106Y-57244582D01*
X224564419Y-57190895D01*
X224530934Y-57129572D01*
X224528100Y-57103214D01*
X224528100Y-52399544D01*
X224547785Y-52332505D01*
X224600589Y-52286750D01*
X224669747Y-52276806D01*
X224733303Y-52305831D01*
X224739781Y-52311863D01*
X227176181Y-54748263D01*
X227209666Y-54809586D01*
X227212500Y-54835944D01*
X227212500Y-66177314D01*
X227192815Y-66244353D01*
X227176181Y-66264995D01*
X227122493Y-66318682D01*
X227122488Y-66318688D01*
X227050017Y-66444211D01*
X227050016Y-66444215D01*
X227012500Y-66584225D01*
X227012500Y-66729175D01*
X227050016Y-66869185D01*
X227050017Y-66869188D01*
X227122488Y-66994711D01*
X227122490Y-66994713D01*
X227122491Y-66994715D01*
X227224985Y-67097209D01*
X227224986Y-67097210D01*
X227224988Y-67097211D01*
X227350511Y-67169682D01*
X227350512Y-67169682D01*
X227350515Y-67169684D01*
X227490525Y-67207200D01*
X227490528Y-67207200D01*
X227635472Y-67207200D01*
X227635475Y-67207200D01*
X227775485Y-67169684D01*
X227901015Y-67097209D01*
X227981331Y-67016892D01*
X228042650Y-66983410D01*
X228112342Y-66988394D01*
X228168276Y-67030265D01*
X228192693Y-67095729D01*
X228193009Y-67104615D01*
X228189522Y-78255984D01*
X228189500Y-78256334D01*
X228189500Y-78326948D01*
X228189351Y-78333033D01*
X228172947Y-78666928D01*
X228171754Y-78679037D01*
X228123151Y-79006694D01*
X228120777Y-79018630D01*
X228040292Y-79339944D01*
X228036759Y-79351588D01*
X227925170Y-79663459D01*
X227920514Y-79674702D01*
X227778885Y-79974151D01*
X227773148Y-79984883D01*
X227602862Y-80268988D01*
X227596102Y-80279106D01*
X227398775Y-80545170D01*
X227391055Y-80554576D01*
X227168611Y-80800006D01*
X227160006Y-80808611D01*
X226914576Y-81031055D01*
X226905170Y-81038775D01*
X226639106Y-81236102D01*
X226628988Y-81242862D01*
X226344883Y-81413148D01*
X226334151Y-81418885D01*
X226034702Y-81560514D01*
X226023459Y-81565170D01*
X225711588Y-81676759D01*
X225699944Y-81680292D01*
X225378630Y-81760777D01*
X225366695Y-81763151D01*
X225039039Y-81811754D01*
X225026929Y-81812947D01*
X224718142Y-81828116D01*
X224693021Y-81829351D01*
X224686939Y-81829500D01*
X224616700Y-81829500D01*
X224615680Y-81829566D01*
X202703099Y-81849496D01*
X202696902Y-81849347D01*
X202363071Y-81832947D01*
X202350960Y-81831754D01*
X202023304Y-81783151D01*
X202011369Y-81780777D01*
X201690055Y-81700292D01*
X201678411Y-81696759D01*
X201366540Y-81585170D01*
X201355301Y-81580515D01*
X201055844Y-81438883D01*
X201045121Y-81433150D01*
X200761011Y-81262862D01*
X200750893Y-81256102D01*
X200484829Y-81058775D01*
X200475423Y-81051055D01*
X200436475Y-81015755D01*
X200229986Y-80828604D01*
X200221395Y-80820013D01*
X199998944Y-80574576D01*
X199991224Y-80565170D01*
X199793897Y-80299106D01*
X199787137Y-80288988D01*
X199778284Y-80274218D01*
X199616844Y-80004871D01*
X199611120Y-79994163D01*
X199469479Y-79694688D01*
X199464829Y-79683459D01*
X199459727Y-79669201D01*
X199369782Y-79417819D01*
X199353240Y-79371588D01*
X199349707Y-79359944D01*
X199346177Y-79345851D01*
X199269219Y-79038617D01*
X199266848Y-79026694D01*
X199266355Y-79023372D01*
X199218245Y-78699037D01*
X199217052Y-78686927D01*
X199216887Y-78683578D01*
X199214294Y-78630775D01*
X199213024Y-78604925D01*
X199212964Y-78603713D01*
X200479500Y-78603713D01*
X200479500Y-78816286D01*
X200512753Y-79026239D01*
X200512753Y-79026241D01*
X200512754Y-79026243D01*
X200534574Y-79093399D01*
X200578444Y-79228414D01*
X200674951Y-79417820D01*
X200799890Y-79589786D01*
X200950213Y-79740109D01*
X201122179Y-79865048D01*
X201122181Y-79865049D01*
X201122184Y-79865051D01*
X201311588Y-79961557D01*
X201513757Y-80027246D01*
X201723713Y-80060500D01*
X201723714Y-80060500D01*
X201936286Y-80060500D01*
X201936287Y-80060500D01*
X202146243Y-80027246D01*
X202348412Y-79961557D01*
X202537816Y-79865051D01*
X202675443Y-79765060D01*
X202709786Y-79740109D01*
X202709788Y-79740106D01*
X202709792Y-79740104D01*
X202860104Y-79589792D01*
X202860106Y-79589788D01*
X202860109Y-79589786D01*
X202914899Y-79514371D01*
X202985051Y-79417816D01*
X203081557Y-79228412D01*
X203147246Y-79026243D01*
X203174982Y-78851126D01*
X214910000Y-78851126D01*
X214910000Y-79075000D01*
X215360000Y-79075000D01*
X215360000Y-79375000D01*
X214910000Y-79375000D01*
X214910000Y-79598873D01*
X214938820Y-79743759D01*
X214938822Y-79743767D01*
X214995357Y-79880254D01*
X214995362Y-79880264D01*
X215077436Y-80003096D01*
X215077439Y-80003100D01*
X215181899Y-80107560D01*
X215181903Y-80107563D01*
X215304735Y-80189637D01*
X215304745Y-80189642D01*
X215441230Y-80246176D01*
X215441240Y-80246179D01*
X215509999Y-80259856D01*
X215510000Y-80259856D01*
X215510000Y-79784808D01*
X215544204Y-79804556D01*
X215620504Y-79825000D01*
X215699496Y-79825000D01*
X215775796Y-79804556D01*
X215810000Y-79784808D01*
X215810000Y-80259856D01*
X215878759Y-80246179D01*
X215878769Y-80246176D01*
X216015254Y-80189642D01*
X216015264Y-80189637D01*
X216138096Y-80107563D01*
X216138100Y-80107560D01*
X216242560Y-80003100D01*
X216242563Y-80003096D01*
X216324637Y-79880264D01*
X216324642Y-79880254D01*
X216381177Y-79743767D01*
X216381179Y-79743759D01*
X216409999Y-79598873D01*
X216410000Y-79598871D01*
X216410000Y-79375000D01*
X215960000Y-79375000D01*
X215960000Y-79075000D01*
X216410000Y-79075000D01*
X216410000Y-78851128D01*
X216409999Y-78851126D01*
X216381179Y-78706240D01*
X216381177Y-78706232D01*
X216324642Y-78569745D01*
X216324637Y-78569735D01*
X216242563Y-78446903D01*
X216242560Y-78446899D01*
X216138100Y-78342439D01*
X216138096Y-78342436D01*
X216015264Y-78260362D01*
X216015254Y-78260357D01*
X215878767Y-78203822D01*
X215878761Y-78203820D01*
X215810000Y-78190142D01*
X215810000Y-78665191D01*
X215775796Y-78645444D01*
X215699496Y-78625000D01*
X215620504Y-78625000D01*
X215544204Y-78645444D01*
X215510000Y-78665191D01*
X215510000Y-78190143D01*
X215509999Y-78190142D01*
X215441238Y-78203820D01*
X215441232Y-78203822D01*
X215304745Y-78260357D01*
X215304735Y-78260362D01*
X215181903Y-78342436D01*
X215181899Y-78342439D01*
X215077439Y-78446899D01*
X215077436Y-78446903D01*
X214995362Y-78569735D01*
X214995357Y-78569745D01*
X214938822Y-78706232D01*
X214938820Y-78706240D01*
X214910000Y-78851126D01*
X203174982Y-78851126D01*
X203180500Y-78816287D01*
X203180500Y-78603713D01*
X203147246Y-78393757D01*
X203081557Y-78191588D01*
X203024188Y-78078995D01*
X205489499Y-78078995D01*
X205516418Y-78214322D01*
X205516421Y-78214332D01*
X205569221Y-78341804D01*
X205569228Y-78341817D01*
X205645885Y-78456541D01*
X205645888Y-78456545D01*
X205743454Y-78554111D01*
X205743458Y-78554114D01*
X205858182Y-78630771D01*
X205858195Y-78630778D01*
X205945470Y-78666928D01*
X205985672Y-78683580D01*
X205985676Y-78683580D01*
X205985677Y-78683581D01*
X206121004Y-78710500D01*
X206121007Y-78710500D01*
X206258995Y-78710500D01*
X206350041Y-78692389D01*
X206394328Y-78683580D01*
X206521811Y-78630775D01*
X206636542Y-78554114D01*
X206734114Y-78456542D01*
X206810775Y-78341811D01*
X206863580Y-78214328D01*
X206885383Y-78104719D01*
X206890500Y-78078995D01*
X212289499Y-78078995D01*
X212316418Y-78214322D01*
X212316421Y-78214332D01*
X212369221Y-78341804D01*
X212369228Y-78341817D01*
X212445885Y-78456541D01*
X212445888Y-78456545D01*
X212543454Y-78554111D01*
X212543458Y-78554114D01*
X212658182Y-78630771D01*
X212658195Y-78630778D01*
X212745470Y-78666928D01*
X212785672Y-78683580D01*
X212785676Y-78683580D01*
X212785677Y-78683581D01*
X212921004Y-78710500D01*
X212921007Y-78710500D01*
X213058995Y-78710500D01*
X213150041Y-78692389D01*
X213194328Y-78683580D01*
X213321811Y-78630775D01*
X213436542Y-78554114D01*
X213534114Y-78456542D01*
X213610775Y-78341811D01*
X213663580Y-78214328D01*
X213685383Y-78104719D01*
X213690500Y-78078995D01*
X213690500Y-77941004D01*
X213663581Y-77805677D01*
X213663580Y-77805676D01*
X213663580Y-77805672D01*
X213662510Y-77803088D01*
X213610778Y-77678195D01*
X213610771Y-77678182D01*
X213534114Y-77563458D01*
X213534111Y-77563454D01*
X213436545Y-77465888D01*
X213436541Y-77465885D01*
X213321817Y-77389228D01*
X213321804Y-77389221D01*
X213194332Y-77336421D01*
X213194322Y-77336418D01*
X213058995Y-77309500D01*
X213058993Y-77309500D01*
X212921007Y-77309500D01*
X212921005Y-77309500D01*
X212785677Y-77336418D01*
X212785667Y-77336421D01*
X212658195Y-77389221D01*
X212658182Y-77389228D01*
X212543458Y-77465885D01*
X212543454Y-77465888D01*
X212445888Y-77563454D01*
X212445885Y-77563458D01*
X212369228Y-77678182D01*
X212369221Y-77678195D01*
X212316421Y-77805667D01*
X212316418Y-77805677D01*
X212289500Y-77941004D01*
X212289500Y-77941007D01*
X212289500Y-78078993D01*
X212289500Y-78078995D01*
X212289499Y-78078995D01*
X206890500Y-78078995D01*
X206890500Y-77941004D01*
X206863581Y-77805677D01*
X206863580Y-77805676D01*
X206863580Y-77805672D01*
X206862510Y-77803088D01*
X206810778Y-77678195D01*
X206810771Y-77678182D01*
X206734114Y-77563458D01*
X206734111Y-77563454D01*
X206636545Y-77465888D01*
X206636541Y-77465885D01*
X206521817Y-77389228D01*
X206521804Y-77389221D01*
X206394332Y-77336421D01*
X206394322Y-77336418D01*
X206258995Y-77309500D01*
X206258993Y-77309500D01*
X206121007Y-77309500D01*
X206121005Y-77309500D01*
X205985677Y-77336418D01*
X205985667Y-77336421D01*
X205858195Y-77389221D01*
X205858182Y-77389228D01*
X205743458Y-77465885D01*
X205743454Y-77465888D01*
X205645888Y-77563454D01*
X205645885Y-77563458D01*
X205569228Y-77678182D01*
X205569221Y-77678195D01*
X205516421Y-77805667D01*
X205516418Y-77805677D01*
X205489500Y-77941004D01*
X205489500Y-77941007D01*
X205489500Y-78078993D01*
X205489500Y-78078995D01*
X205489499Y-78078995D01*
X203024188Y-78078995D01*
X202985051Y-78002184D01*
X202985049Y-78002181D01*
X202985048Y-78002179D01*
X202860109Y-77830213D01*
X202709786Y-77679890D01*
X202537820Y-77554951D01*
X202348414Y-77458444D01*
X202348413Y-77458443D01*
X202348412Y-77458443D01*
X202146243Y-77392754D01*
X202146241Y-77392753D01*
X202146240Y-77392753D01*
X201968272Y-77364566D01*
X201936287Y-77359500D01*
X201723713Y-77359500D01*
X201691728Y-77364566D01*
X201513760Y-77392753D01*
X201311585Y-77458444D01*
X201122179Y-77554951D01*
X200950213Y-77679890D01*
X200799890Y-77830213D01*
X200674951Y-78002179D01*
X200578444Y-78191585D01*
X200578443Y-78191587D01*
X200578443Y-78191588D01*
X200556097Y-78260362D01*
X200512753Y-78393760D01*
X200479500Y-78603713D01*
X199212964Y-78603713D01*
X199200649Y-78353033D01*
X199200500Y-78346948D01*
X199200500Y-75605952D01*
X199220185Y-75538913D01*
X199272989Y-75493158D01*
X199342147Y-75483214D01*
X199405703Y-75512239D01*
X199427601Y-75537060D01*
X199429295Y-75539595D01*
X199444375Y-75562164D01*
X199562837Y-75680626D01*
X199655494Y-75742537D01*
X199702137Y-75773703D01*
X199856918Y-75837816D01*
X200021228Y-75870499D01*
X200021232Y-75870500D01*
X200021233Y-75870500D01*
X200738768Y-75870500D01*
X200738769Y-75870499D01*
X200903082Y-75837816D01*
X201057863Y-75773703D01*
X201197162Y-75680626D01*
X201315626Y-75562162D01*
X201408703Y-75422863D01*
X201472816Y-75268082D01*
X201505500Y-75103767D01*
X201505500Y-74936233D01*
X201472816Y-74771918D01*
X201418277Y-74640252D01*
X201410809Y-74570784D01*
X201442084Y-74508304D01*
X201502173Y-74472652D01*
X201532839Y-74468800D01*
X205513742Y-74468800D01*
X205513744Y-74468800D01*
X205602888Y-74444914D01*
X205682812Y-74398770D01*
X209783463Y-70298119D01*
X209844786Y-70264634D01*
X209871144Y-70261800D01*
X211564314Y-70261800D01*
X211631353Y-70281485D01*
X211651995Y-70298119D01*
X211705685Y-70351809D01*
X211705686Y-70351810D01*
X211705688Y-70351811D01*
X211831211Y-70424282D01*
X211831212Y-70424282D01*
X211831215Y-70424284D01*
X211971225Y-70461800D01*
X211971228Y-70461800D01*
X212097656Y-70461800D01*
X212164695Y-70481485D01*
X212210450Y-70534289D01*
X212220394Y-70603447D01*
X212191369Y-70667003D01*
X212185337Y-70673481D01*
X211045937Y-71812881D01*
X210984614Y-71846366D01*
X210958256Y-71849200D01*
X210882325Y-71849200D01*
X210753793Y-71883640D01*
X210742311Y-71886717D01*
X210616788Y-71959188D01*
X210616782Y-71959193D01*
X210514293Y-72061682D01*
X210514288Y-72061688D01*
X210441817Y-72187211D01*
X210441816Y-72187215D01*
X210404300Y-72327225D01*
X210404300Y-72472175D01*
X210441816Y-72612185D01*
X210441817Y-72612188D01*
X210514288Y-72737711D01*
X210514290Y-72737713D01*
X210514291Y-72737715D01*
X210616785Y-72840209D01*
X210616786Y-72840210D01*
X210616788Y-72840211D01*
X210742311Y-72912682D01*
X210742312Y-72912682D01*
X210742315Y-72912684D01*
X210882325Y-72950200D01*
X210882328Y-72950200D01*
X211027272Y-72950200D01*
X211027275Y-72950200D01*
X211167285Y-72912684D01*
X211292815Y-72840209D01*
X211395309Y-72737715D01*
X211467784Y-72612185D01*
X211505300Y-72472175D01*
X211505300Y-72396244D01*
X211524985Y-72329205D01*
X211541619Y-72308563D01*
X212537919Y-71312263D01*
X212599242Y-71278778D01*
X212668934Y-71283762D01*
X212724867Y-71325634D01*
X212749284Y-71391098D01*
X212749600Y-71399944D01*
X212749600Y-74292744D01*
X212767454Y-74359374D01*
X212773486Y-74381887D01*
X212773487Y-74381890D01*
X212819627Y-74461808D01*
X212819629Y-74461811D01*
X212819630Y-74461812D01*
X217381187Y-79023369D01*
X217397379Y-79032717D01*
X217397381Y-79032719D01*
X217397382Y-79032719D01*
X217461108Y-79069512D01*
X217461112Y-79069514D01*
X217550256Y-79093400D01*
X217550258Y-79093400D01*
X219516842Y-79093400D01*
X219516844Y-79093400D01*
X219605988Y-79069514D01*
X219685912Y-79023370D01*
X220604563Y-78104719D01*
X220665886Y-78071234D01*
X220692244Y-78068400D01*
X223823255Y-78068400D01*
X223890294Y-78088085D01*
X223936049Y-78140889D01*
X223945993Y-78210047D01*
X223916968Y-78273603D01*
X223892146Y-78295502D01*
X223821902Y-78342436D01*
X223717439Y-78446899D01*
X223717436Y-78446903D01*
X223635362Y-78569735D01*
X223635357Y-78569745D01*
X223578822Y-78706232D01*
X223578820Y-78706240D01*
X223550000Y-78851126D01*
X223550000Y-79075000D01*
X224000000Y-79075000D01*
X224000000Y-79375000D01*
X223550000Y-79375000D01*
X223550000Y-79598873D01*
X223578820Y-79743759D01*
X223578822Y-79743767D01*
X223635357Y-79880254D01*
X223635362Y-79880264D01*
X223717436Y-80003096D01*
X223717439Y-80003100D01*
X223821899Y-80107560D01*
X223821903Y-80107563D01*
X223944735Y-80189637D01*
X223944745Y-80189642D01*
X224081230Y-80246176D01*
X224081240Y-80246179D01*
X224149999Y-80259856D01*
X224150000Y-80259856D01*
X224150000Y-79784808D01*
X224184204Y-79804556D01*
X224260504Y-79825000D01*
X224339496Y-79825000D01*
X224415796Y-79804556D01*
X224450000Y-79784808D01*
X224450000Y-80259856D01*
X224518759Y-80246179D01*
X224518769Y-80246176D01*
X224655254Y-80189642D01*
X224655264Y-80189637D01*
X224778096Y-80107563D01*
X224778100Y-80107560D01*
X224882560Y-80003100D01*
X224882563Y-80003096D01*
X224964637Y-79880264D01*
X224964642Y-79880254D01*
X225021177Y-79743767D01*
X225021179Y-79743759D01*
X225049999Y-79598873D01*
X225050000Y-79598871D01*
X225050000Y-79375000D01*
X224600000Y-79375000D01*
X224600000Y-79075000D01*
X225050000Y-79075000D01*
X225050000Y-78851128D01*
X225049999Y-78851126D01*
X225021179Y-78706240D01*
X225021177Y-78706232D01*
X224964642Y-78569745D01*
X224964637Y-78569735D01*
X224882563Y-78446903D01*
X224882560Y-78446899D01*
X224778100Y-78342439D01*
X224778096Y-78342436D01*
X224707578Y-78295317D01*
X224662773Y-78241705D01*
X224654066Y-78172380D01*
X224684221Y-78109352D01*
X224743664Y-78072633D01*
X224760289Y-78069275D01*
X224766932Y-78068400D01*
X224766944Y-78068400D01*
X224856088Y-78044514D01*
X224864080Y-78039899D01*
X224893894Y-78022687D01*
X224893895Y-78022686D01*
X224936012Y-77998370D01*
X227076362Y-75858018D01*
X227137685Y-75824534D01*
X227164043Y-75821700D01*
X227239972Y-75821700D01*
X227239975Y-75821700D01*
X227379985Y-75784184D01*
X227505515Y-75711709D01*
X227608009Y-75609215D01*
X227680484Y-75483685D01*
X227718000Y-75343675D01*
X227718000Y-75198725D01*
X227680484Y-75058715D01*
X227608009Y-74933185D01*
X227505515Y-74830691D01*
X227505513Y-74830690D01*
X227505511Y-74830688D01*
X227379988Y-74758217D01*
X227379989Y-74758217D01*
X227368506Y-74755140D01*
X227239975Y-74720700D01*
X227095025Y-74720700D01*
X226966493Y-74755140D01*
X226955011Y-74758217D01*
X226829488Y-74830688D01*
X226829482Y-74830693D01*
X226726993Y-74933182D01*
X226726988Y-74933188D01*
X226654517Y-75058711D01*
X226654516Y-75058715D01*
X226617000Y-75198725D01*
X226617000Y-75198727D01*
X226617000Y-75274656D01*
X226597315Y-75341695D01*
X226580681Y-75362337D01*
X224611937Y-77331081D01*
X224550614Y-77364566D01*
X224524256Y-77367400D01*
X220449556Y-77367400D01*
X220368103Y-77389225D01*
X220368102Y-77389225D01*
X220360414Y-77391284D01*
X220360413Y-77391285D01*
X220280491Y-77437427D01*
X220280486Y-77437431D01*
X219849670Y-77868246D01*
X219788347Y-77901731D01*
X219718655Y-77896747D01*
X219662722Y-77854875D01*
X219654611Y-77842579D01*
X219631809Y-77803085D01*
X219529315Y-77700591D01*
X219529314Y-77700590D01*
X219528518Y-77699794D01*
X219495034Y-77638471D01*
X219492200Y-77612113D01*
X219492200Y-75469234D01*
X222294500Y-75469234D01*
X222294500Y-75620765D01*
X222333719Y-75767136D01*
X222342387Y-75782149D01*
X222409485Y-75898365D01*
X222516635Y-76005515D01*
X222647865Y-76081281D01*
X222794234Y-76120500D01*
X222794236Y-76120500D01*
X222945764Y-76120500D01*
X222945766Y-76120500D01*
X223092135Y-76081281D01*
X223223365Y-76005515D01*
X223330515Y-75898365D01*
X223369775Y-75830365D01*
X223420342Y-75782149D01*
X223488949Y-75768927D01*
X223553814Y-75794895D01*
X223591723Y-75844912D01*
X223635357Y-75950254D01*
X223635362Y-75950264D01*
X223717436Y-76073096D01*
X223717439Y-76073100D01*
X223821899Y-76177560D01*
X223821903Y-76177563D01*
X223944735Y-76259637D01*
X223944745Y-76259642D01*
X224081230Y-76316176D01*
X224081240Y-76316179D01*
X224149999Y-76329856D01*
X224150000Y-76329856D01*
X224150000Y-75854808D01*
X224184204Y-75874556D01*
X224260504Y-75895000D01*
X224339496Y-75895000D01*
X224415796Y-75874556D01*
X224450000Y-75854808D01*
X224450000Y-76329856D01*
X224518759Y-76316179D01*
X224518769Y-76316176D01*
X224655254Y-76259642D01*
X224655264Y-76259637D01*
X224778096Y-76177563D01*
X224778100Y-76177560D01*
X224882560Y-76073100D01*
X224882563Y-76073096D01*
X224964637Y-75950264D01*
X224964642Y-75950254D01*
X225021177Y-75813767D01*
X225021179Y-75813759D01*
X225049999Y-75668873D01*
X225050000Y-75668871D01*
X225050000Y-75195000D01*
X224600000Y-75195000D01*
X224600000Y-74895000D01*
X225050000Y-74895000D01*
X225050000Y-74421128D01*
X225049999Y-74421126D01*
X225021179Y-74276240D01*
X225021177Y-74276232D01*
X224964642Y-74139745D01*
X224964637Y-74139735D01*
X224882563Y-74016903D01*
X224882560Y-74016899D01*
X224778100Y-73912439D01*
X224778096Y-73912436D01*
X224655264Y-73830362D01*
X224655254Y-73830357D01*
X224518767Y-73773822D01*
X224518761Y-73773820D01*
X224450000Y-73760142D01*
X224450000Y-74235191D01*
X224415796Y-74215444D01*
X224339496Y-74195000D01*
X224260504Y-74195000D01*
X224184204Y-74215444D01*
X224150000Y-74235191D01*
X224150000Y-73760143D01*
X224149999Y-73760142D01*
X224081238Y-73773820D01*
X224081232Y-73773822D01*
X223944745Y-73830357D01*
X223944735Y-73830362D01*
X223821903Y-73912436D01*
X223821899Y-73912439D01*
X223717439Y-74016899D01*
X223717436Y-74016903D01*
X223635362Y-74139735D01*
X223635357Y-74139745D01*
X223578822Y-74276232D01*
X223578820Y-74276240D01*
X223550000Y-74421126D01*
X223550000Y-74895000D01*
X224000000Y-74895000D01*
X224000000Y-75195000D01*
X223550000Y-75195000D01*
X223526352Y-75218648D01*
X223465028Y-75252132D01*
X223395336Y-75247147D01*
X223339403Y-75205276D01*
X223331287Y-75192972D01*
X223331211Y-75192841D01*
X223330515Y-75191635D01*
X223223365Y-75084485D01*
X223157750Y-75046602D01*
X223092136Y-75008719D01*
X223018950Y-74989109D01*
X222945766Y-74969500D01*
X222794234Y-74969500D01*
X222647863Y-75008719D01*
X222516635Y-75084485D01*
X222516632Y-75084487D01*
X222409487Y-75191632D01*
X222409485Y-75191635D01*
X222333719Y-75322863D01*
X222294500Y-75469234D01*
X219492200Y-75469234D01*
X219492200Y-71606944D01*
X219511885Y-71539905D01*
X219564689Y-71494150D01*
X219633847Y-71484206D01*
X219697403Y-71513231D01*
X219703881Y-71519263D01*
X220212688Y-72028070D01*
X220292612Y-72074214D01*
X220381756Y-72098100D01*
X220381758Y-72098100D01*
X221740142Y-72098100D01*
X221740144Y-72098100D01*
X221829288Y-72074214D01*
X221909212Y-72028070D01*
X223168972Y-70768308D01*
X223230293Y-70734825D01*
X223299984Y-70739809D01*
X223355918Y-70781680D01*
X223376425Y-70823895D01*
X223399984Y-70911815D01*
X223408417Y-70943288D01*
X223480888Y-71068811D01*
X223480890Y-71068813D01*
X223480891Y-71068815D01*
X223583385Y-71171309D01*
X223583386Y-71171310D01*
X223583388Y-71171311D01*
X223708911Y-71243782D01*
X223708912Y-71243782D01*
X223708915Y-71243784D01*
X223848925Y-71281300D01*
X223848928Y-71281300D01*
X223993872Y-71281300D01*
X223993875Y-71281300D01*
X224133885Y-71243784D01*
X224259415Y-71171309D01*
X224361909Y-71068815D01*
X224434384Y-70943285D01*
X224471900Y-70803275D01*
X224471900Y-70727344D01*
X224491585Y-70660305D01*
X224508219Y-70639663D01*
X224886082Y-70261800D01*
X225267870Y-69880012D01*
X225314014Y-69800088D01*
X225320465Y-69776012D01*
X225322110Y-69769875D01*
X225325137Y-69758575D01*
X225337900Y-69710944D01*
X225337900Y-60775856D01*
X225314014Y-60686712D01*
X225311409Y-60682200D01*
X225267869Y-60606787D01*
X223114019Y-58452937D01*
X223080534Y-58391614D01*
X223077700Y-58365256D01*
X223077700Y-51544844D01*
X223097385Y-51477805D01*
X223150189Y-51432050D01*
X223219347Y-51422106D01*
X223282903Y-51451131D01*
G37*
%TD.AperFunction*%
%TA.AperFunction,Conductor*%
G36*
X221549403Y-50318731D02*
G01*
X221555881Y-50324763D01*
X222340381Y-51109263D01*
X222373866Y-51170586D01*
X222376700Y-51196944D01*
X222376700Y-58229138D01*
X222357015Y-58296177D01*
X222304211Y-58341932D01*
X222235053Y-58351876D01*
X222190700Y-58336525D01*
X222135088Y-58304417D01*
X222135089Y-58304417D01*
X222104337Y-58296177D01*
X221995075Y-58266900D01*
X221850125Y-58266900D01*
X221740863Y-58296177D01*
X221710111Y-58304417D01*
X221584588Y-58376888D01*
X221584582Y-58376893D01*
X221482093Y-58479382D01*
X221482088Y-58479388D01*
X221409617Y-58604911D01*
X221409616Y-58604915D01*
X221372100Y-58744925D01*
X221372100Y-58744927D01*
X221372100Y-58820856D01*
X221352415Y-58887895D01*
X221335781Y-58908537D01*
X217793331Y-62450986D01*
X217793327Y-62450991D01*
X217747187Y-62530909D01*
X217747186Y-62530912D01*
X217723300Y-62620056D01*
X217723300Y-64668157D01*
X217703615Y-64735196D01*
X217650811Y-64780951D01*
X217581653Y-64790895D01*
X217518097Y-64761870D01*
X217491913Y-64730158D01*
X217470509Y-64693085D01*
X217368015Y-64590591D01*
X217368013Y-64590590D01*
X217368011Y-64590588D01*
X217242488Y-64518117D01*
X217242489Y-64518117D01*
X217225299Y-64513511D01*
X217102475Y-64480600D01*
X216957525Y-64480600D01*
X216834701Y-64513511D01*
X216817511Y-64518117D01*
X216691988Y-64590588D01*
X216691982Y-64590593D01*
X216589493Y-64693082D01*
X216589488Y-64693088D01*
X216517017Y-64818611D01*
X216517016Y-64818615D01*
X216479500Y-64958625D01*
X216479500Y-65103575D01*
X216507456Y-65207906D01*
X216517017Y-65243588D01*
X216589488Y-65369111D01*
X216589493Y-65369117D01*
X216643181Y-65422805D01*
X216676666Y-65484128D01*
X216679500Y-65510486D01*
X216679500Y-70726945D01*
X216696130Y-70789010D01*
X216703385Y-70816085D01*
X216703387Y-70816090D01*
X216749527Y-70896008D01*
X216749531Y-70896013D01*
X218018081Y-72164563D01*
X218051566Y-72225886D01*
X218054400Y-72252244D01*
X218054400Y-75451914D01*
X218034715Y-75518953D01*
X218018081Y-75539595D01*
X217964393Y-75593282D01*
X217964391Y-75593285D01*
X217898794Y-75706899D01*
X217898792Y-75706905D01*
X217891916Y-75718815D01*
X217854400Y-75858825D01*
X217854400Y-76003775D01*
X217885677Y-76120500D01*
X217891917Y-76143788D01*
X217964388Y-76269311D01*
X217964390Y-76269313D01*
X217964391Y-76269315D01*
X218066885Y-76371809D01*
X218066886Y-76371810D01*
X218066888Y-76371811D01*
X218192411Y-76444282D01*
X218192412Y-76444282D01*
X218192415Y-76444284D01*
X218332425Y-76481800D01*
X218332428Y-76481800D01*
X218477372Y-76481800D01*
X218477375Y-76481800D01*
X218617385Y-76444284D01*
X218617396Y-76444277D01*
X218619744Y-76443306D01*
X218621896Y-76443074D01*
X218625235Y-76442180D01*
X218625374Y-76442700D01*
X218689213Y-76435836D01*
X218751693Y-76467109D01*
X218787347Y-76527197D01*
X218791200Y-76557866D01*
X218791200Y-77711314D01*
X218771515Y-77778353D01*
X218754881Y-77798995D01*
X218750793Y-77803082D01*
X218750788Y-77803088D01*
X218678317Y-77928611D01*
X218678316Y-77928615D01*
X218640800Y-78068625D01*
X218640800Y-78068627D01*
X218640800Y-78213576D01*
X218646891Y-78236308D01*
X218645228Y-78306158D01*
X218606064Y-78364020D01*
X218541836Y-78391523D01*
X218527116Y-78392400D01*
X217792944Y-78392400D01*
X217725905Y-78372715D01*
X217705263Y-78356081D01*
X214818416Y-75469234D01*
X216514500Y-75469234D01*
X216514500Y-75620765D01*
X216553719Y-75767136D01*
X216562387Y-75782149D01*
X216629485Y-75898365D01*
X216736635Y-76005515D01*
X216867865Y-76081281D01*
X217014234Y-76120500D01*
X217014236Y-76120500D01*
X217165764Y-76120500D01*
X217165766Y-76120500D01*
X217312135Y-76081281D01*
X217443365Y-76005515D01*
X217550515Y-75898365D01*
X217626281Y-75767135D01*
X217665500Y-75620766D01*
X217665500Y-75469234D01*
X217626281Y-75322865D01*
X217550515Y-75191635D01*
X217443365Y-75084485D01*
X217377750Y-75046602D01*
X217312136Y-75008719D01*
X217238950Y-74989109D01*
X217165766Y-74969500D01*
X217014234Y-74969500D01*
X216867863Y-75008719D01*
X216736635Y-75084485D01*
X216736632Y-75084487D01*
X216629487Y-75191632D01*
X216629485Y-75191635D01*
X216553719Y-75322863D01*
X216514500Y-75469234D01*
X214818416Y-75469234D01*
X213486919Y-74137737D01*
X213453434Y-74076414D01*
X213450600Y-74050056D01*
X213450600Y-64289886D01*
X213470285Y-64222847D01*
X213523089Y-64177092D01*
X213592247Y-64167148D01*
X213655803Y-64196173D01*
X213662281Y-64202205D01*
X213685785Y-64225709D01*
X213685786Y-64225710D01*
X213685788Y-64225711D01*
X213811311Y-64298182D01*
X213811312Y-64298182D01*
X213811315Y-64298184D01*
X213951325Y-64335700D01*
X213951328Y-64335700D01*
X214096272Y-64335700D01*
X214096275Y-64335700D01*
X214236285Y-64298184D01*
X214361815Y-64225709D01*
X214464309Y-64123215D01*
X214536784Y-63997685D01*
X214574300Y-63857675D01*
X214574300Y-63781744D01*
X214593985Y-63714705D01*
X214610619Y-63694063D01*
X216424621Y-61880061D01*
X218257870Y-60046812D01*
X218304014Y-59966888D01*
X218314617Y-59927316D01*
X218327900Y-59877744D01*
X218327900Y-53904844D01*
X218347585Y-53837805D01*
X218364219Y-53817163D01*
X219035263Y-53146119D01*
X220200770Y-51980612D01*
X220246914Y-51900688D01*
X220270800Y-51811543D01*
X220270800Y-51719256D01*
X220270800Y-50709686D01*
X220290485Y-50642647D01*
X220307119Y-50622005D01*
X220360809Y-50568315D01*
X220411813Y-50479974D01*
X220462380Y-50431758D01*
X220530987Y-50418536D01*
X220595852Y-50444504D01*
X220636380Y-50501418D01*
X220643200Y-50541974D01*
X220643200Y-55924214D01*
X220623515Y-55991253D01*
X220606881Y-56011895D01*
X220553193Y-56065582D01*
X220553188Y-56065588D01*
X220480717Y-56191111D01*
X220480716Y-56191115D01*
X220443200Y-56331125D01*
X220443200Y-56476075D01*
X220470572Y-56578228D01*
X220480717Y-56616088D01*
X220553188Y-56741611D01*
X220553190Y-56741613D01*
X220553191Y-56741615D01*
X220655685Y-56844109D01*
X220655686Y-56844110D01*
X220655688Y-56844111D01*
X220781211Y-56916582D01*
X220781212Y-56916582D01*
X220781215Y-56916584D01*
X220921225Y-56954100D01*
X220921228Y-56954100D01*
X221066172Y-56954100D01*
X221066175Y-56954100D01*
X221206185Y-56916584D01*
X221331715Y-56844109D01*
X221434209Y-56741615D01*
X221506684Y-56616085D01*
X221544200Y-56476075D01*
X221544200Y-56331125D01*
X221506684Y-56191115D01*
X221486359Y-56155912D01*
X221434211Y-56065588D01*
X221434206Y-56065582D01*
X221380519Y-56011895D01*
X221347034Y-55950572D01*
X221344200Y-55924214D01*
X221344200Y-50412444D01*
X221363885Y-50345405D01*
X221416689Y-50299650D01*
X221485847Y-50289706D01*
X221549403Y-50318731D01*
G37*
%TD.AperFunction*%
%TA.AperFunction,Conductor*%
G36*
X199702231Y-44844498D02*
G01*
X199747274Y-44897910D01*
X199757800Y-44947906D01*
X199757800Y-54733544D01*
X199770022Y-54779157D01*
X199770022Y-54779158D01*
X199781684Y-54822685D01*
X199781685Y-54822686D01*
X199827827Y-54902608D01*
X199827831Y-54902613D01*
X201708381Y-56783163D01*
X201741866Y-56844486D01*
X201744700Y-56870844D01*
X201744700Y-56946775D01*
X201782216Y-57086785D01*
X201782217Y-57086788D01*
X201854688Y-57212311D01*
X201854690Y-57212313D01*
X201854691Y-57212315D01*
X201957185Y-57314809D01*
X201957186Y-57314810D01*
X201957188Y-57314811D01*
X202082711Y-57387282D01*
X202082712Y-57387282D01*
X202082715Y-57387284D01*
X202222725Y-57424800D01*
X202222728Y-57424800D01*
X202367672Y-57424800D01*
X202367675Y-57424800D01*
X202507685Y-57387284D01*
X202633215Y-57314809D01*
X202735709Y-57212315D01*
X202808184Y-57086785D01*
X202845700Y-56946775D01*
X202845700Y-56801825D01*
X202808184Y-56661815D01*
X202781783Y-56616088D01*
X202735711Y-56536288D01*
X202735706Y-56536282D01*
X202633217Y-56433793D01*
X202633211Y-56433788D01*
X202507688Y-56361317D01*
X202507689Y-56361317D01*
X202496206Y-56358240D01*
X202367675Y-56323800D01*
X202367672Y-56323800D01*
X202291744Y-56323800D01*
X202224705Y-56304115D01*
X202204063Y-56287481D01*
X200495119Y-54578537D01*
X200461634Y-54517214D01*
X200458800Y-54490856D01*
X200458800Y-47184500D01*
X200478485Y-47117461D01*
X200531289Y-47071706D01*
X200582800Y-47060500D01*
X200788269Y-47060500D01*
X200855308Y-47080185D01*
X200901063Y-47132989D01*
X200908044Y-47152407D01*
X200909500Y-47157841D01*
X200909500Y-47157844D01*
X200933386Y-47246987D01*
X200933387Y-47246990D01*
X200979527Y-47326908D01*
X200979531Y-47326913D01*
X205198381Y-51545763D01*
X205231866Y-51607086D01*
X205234700Y-51633444D01*
X205234700Y-61440914D01*
X205215015Y-61507953D01*
X205198381Y-61528595D01*
X205144693Y-61582282D01*
X205144689Y-61582288D01*
X205084633Y-61686305D01*
X205034065Y-61734519D01*
X204965458Y-61747741D01*
X204900594Y-61721772D01*
X204889566Y-61711984D01*
X203892019Y-60714437D01*
X203858534Y-60653114D01*
X203855700Y-60626756D01*
X203855700Y-56604586D01*
X203875385Y-56537547D01*
X203892019Y-56516905D01*
X203945709Y-56463215D01*
X204018184Y-56337685D01*
X204055700Y-56197675D01*
X204055700Y-56052725D01*
X204018184Y-55912715D01*
X203945709Y-55787185D01*
X203843215Y-55684691D01*
X203843213Y-55684690D01*
X203843211Y-55684688D01*
X203717688Y-55612217D01*
X203717689Y-55612217D01*
X203706206Y-55609140D01*
X203577675Y-55574700D01*
X203432725Y-55574700D01*
X203304193Y-55609140D01*
X203292711Y-55612217D01*
X203167188Y-55684688D01*
X203167182Y-55684693D01*
X203064693Y-55787182D01*
X203064688Y-55787188D01*
X202992217Y-55912711D01*
X202992216Y-55912715D01*
X202954700Y-56052725D01*
X202954700Y-56197675D01*
X202990458Y-56331125D01*
X202992217Y-56337688D01*
X203064688Y-56463211D01*
X203064693Y-56463217D01*
X203118381Y-56516905D01*
X203151866Y-56578228D01*
X203154700Y-56604586D01*
X203154700Y-60869443D01*
X203176843Y-60952087D01*
X203176854Y-60952123D01*
X203178586Y-60958588D01*
X203224727Y-61038508D01*
X203224731Y-61038513D01*
X206862481Y-64676263D01*
X206895966Y-64737586D01*
X206898800Y-64763944D01*
X206898800Y-64839875D01*
X206930620Y-64958627D01*
X206936317Y-64979888D01*
X207008788Y-65105411D01*
X207008790Y-65105413D01*
X207008791Y-65105415D01*
X207111285Y-65207909D01*
X207111286Y-65207910D01*
X207111288Y-65207911D01*
X207236811Y-65280382D01*
X207236812Y-65280382D01*
X207236815Y-65280384D01*
X207376825Y-65317900D01*
X207376828Y-65317900D01*
X207521773Y-65317900D01*
X207521775Y-65317900D01*
X207544405Y-65311836D01*
X207614255Y-65313498D01*
X207672118Y-65352659D01*
X207699623Y-65416887D01*
X207700500Y-65431610D01*
X207700500Y-66412856D01*
X207680815Y-66479895D01*
X207664181Y-66500537D01*
X205562181Y-68602537D01*
X205500858Y-68636022D01*
X205431166Y-68631038D01*
X205375233Y-68589166D01*
X205350816Y-68523702D01*
X205350500Y-68514856D01*
X205350500Y-67405323D01*
X205350499Y-67405321D01*
X205335967Y-67332264D01*
X205335966Y-67332260D01*
X205280601Y-67249399D01*
X205197740Y-67194034D01*
X205197739Y-67194033D01*
X205197735Y-67194032D01*
X205124677Y-67179500D01*
X205124674Y-67179500D01*
X204721731Y-67179500D01*
X204654692Y-67159815D01*
X204608937Y-67107011D01*
X204601956Y-67087592D01*
X204584725Y-67023281D01*
X204580500Y-66991189D01*
X204580500Y-65894500D01*
X204600185Y-65827461D01*
X204652989Y-65781706D01*
X204704500Y-65770500D01*
X205104676Y-65770500D01*
X205104677Y-65770499D01*
X205177740Y-65755966D01*
X205260601Y-65700601D01*
X205315966Y-65617740D01*
X205330500Y-65544674D01*
X205330500Y-63795326D01*
X205330500Y-63795323D01*
X205330499Y-63795321D01*
X205315967Y-63722264D01*
X205315966Y-63722260D01*
X205309595Y-63712725D01*
X205260601Y-63639399D01*
X205204458Y-63601886D01*
X205177739Y-63584033D01*
X205177735Y-63584032D01*
X205104677Y-63569500D01*
X205104674Y-63569500D01*
X203355326Y-63569500D01*
X203355323Y-63569500D01*
X203282264Y-63584032D01*
X203282260Y-63584033D01*
X203199399Y-63639399D01*
X203144033Y-63722260D01*
X203144032Y-63722264D01*
X203129500Y-63795321D01*
X203129500Y-65544678D01*
X203144032Y-65617735D01*
X203144033Y-65617739D01*
X203144034Y-65617740D01*
X203199399Y-65700601D01*
X203282260Y-65755966D01*
X203282264Y-65755967D01*
X203355321Y-65770499D01*
X203355324Y-65770500D01*
X203355326Y-65770500D01*
X203755500Y-65770500D01*
X203822539Y-65790185D01*
X203868294Y-65842989D01*
X203879500Y-65894500D01*
X203879500Y-67055500D01*
X203859815Y-67122539D01*
X203807011Y-67168294D01*
X203755500Y-67179500D01*
X203375323Y-67179500D01*
X203302264Y-67194032D01*
X203302260Y-67194033D01*
X203219399Y-67249399D01*
X203164033Y-67332260D01*
X203164032Y-67332264D01*
X203149500Y-67405321D01*
X203149500Y-69154678D01*
X203164032Y-69227735D01*
X203164033Y-69227739D01*
X203164034Y-69227740D01*
X203219399Y-69310601D01*
X203302260Y-69365966D01*
X203302264Y-69365967D01*
X203375321Y-69380499D01*
X203375324Y-69380500D01*
X203375326Y-69380500D01*
X204484856Y-69380500D01*
X204551895Y-69400185D01*
X204597650Y-69452989D01*
X204607594Y-69522147D01*
X204578569Y-69585703D01*
X204572537Y-69592181D01*
X201663536Y-72501180D01*
X201602213Y-72534665D01*
X201532521Y-72529681D01*
X201476588Y-72487809D01*
X201459673Y-72456831D01*
X201448798Y-72427673D01*
X201448793Y-72427664D01*
X201362547Y-72312455D01*
X201362544Y-72312452D01*
X201247335Y-72226206D01*
X201247328Y-72226202D01*
X201112482Y-72175908D01*
X201112483Y-72175908D01*
X201052883Y-72169501D01*
X201052881Y-72169500D01*
X201052873Y-72169500D01*
X201052864Y-72169500D01*
X199707129Y-72169500D01*
X199707123Y-72169501D01*
X199647516Y-72175908D01*
X199512671Y-72226202D01*
X199512669Y-72226204D01*
X199398811Y-72311438D01*
X199333347Y-72335855D01*
X199265074Y-72321004D01*
X199215668Y-72271598D01*
X199200500Y-72212171D01*
X199200500Y-68193428D01*
X200610000Y-68193428D01*
X200610000Y-68366571D01*
X200637085Y-68537584D01*
X200690591Y-68702257D01*
X200769198Y-68856528D01*
X200833219Y-68944646D01*
X200833220Y-68944647D01*
X201266329Y-68511538D01*
X201309901Y-68587007D01*
X201402993Y-68680099D01*
X201478460Y-68723670D01*
X201045351Y-69156778D01*
X201045352Y-69156780D01*
X201133471Y-69220801D01*
X201287742Y-69299408D01*
X201452415Y-69352914D01*
X201623429Y-69380000D01*
X201796571Y-69380000D01*
X201967584Y-69352914D01*
X202132257Y-69299408D01*
X202286525Y-69220803D01*
X202374646Y-69156778D01*
X202374647Y-69156778D01*
X201941539Y-68723670D01*
X202017007Y-68680099D01*
X202110099Y-68587007D01*
X202153670Y-68511539D01*
X202586778Y-68944647D01*
X202586778Y-68944646D01*
X202650803Y-68856525D01*
X202729408Y-68702257D01*
X202782914Y-68537584D01*
X202810000Y-68366571D01*
X202810000Y-68193428D01*
X202782914Y-68022415D01*
X202729408Y-67857742D01*
X202650801Y-67703471D01*
X202586780Y-67615352D01*
X202586778Y-67615351D01*
X202153670Y-68048460D01*
X202110099Y-67972993D01*
X202017007Y-67879901D01*
X201941538Y-67836329D01*
X202374647Y-67403220D01*
X202374646Y-67403219D01*
X202286528Y-67339198D01*
X202132257Y-67260591D01*
X201967584Y-67207085D01*
X201796571Y-67180000D01*
X201623429Y-67180000D01*
X201452415Y-67207085D01*
X201287742Y-67260591D01*
X201133478Y-67339194D01*
X201045352Y-67403220D01*
X201478461Y-67836329D01*
X201402993Y-67879901D01*
X201309901Y-67972993D01*
X201266329Y-68048461D01*
X200833220Y-67615352D01*
X200769194Y-67703478D01*
X200690591Y-67857742D01*
X200637085Y-68022415D01*
X200610000Y-68193428D01*
X199200500Y-68193428D01*
X199200500Y-64583389D01*
X200589500Y-64583389D01*
X200589500Y-64756611D01*
X200616598Y-64927701D01*
X200660889Y-65064015D01*
X200670128Y-65092447D01*
X200707864Y-65166509D01*
X200748768Y-65246788D01*
X200850586Y-65386928D01*
X200973072Y-65509414D01*
X201113212Y-65611232D01*
X201267555Y-65689873D01*
X201432299Y-65743402D01*
X201603389Y-65770500D01*
X201603390Y-65770500D01*
X201776610Y-65770500D01*
X201776611Y-65770500D01*
X201947701Y-65743402D01*
X202112445Y-65689873D01*
X202266788Y-65611232D01*
X202406928Y-65509414D01*
X202529414Y-65386928D01*
X202631232Y-65246788D01*
X202709873Y-65092445D01*
X202763402Y-64927701D01*
X202790500Y-64756611D01*
X202790500Y-64583389D01*
X202763402Y-64412299D01*
X202709873Y-64247555D01*
X202631232Y-64093212D01*
X202529414Y-63953072D01*
X202406928Y-63830586D01*
X202266788Y-63728768D01*
X202112445Y-63650127D01*
X201947701Y-63596598D01*
X201947699Y-63596597D01*
X201947698Y-63596597D01*
X201816271Y-63575781D01*
X201776611Y-63569500D01*
X201603389Y-63569500D01*
X201563728Y-63575781D01*
X201432302Y-63596597D01*
X201267552Y-63650128D01*
X201113211Y-63728768D01*
X201076988Y-63755086D01*
X200973072Y-63830586D01*
X200973070Y-63830588D01*
X200973069Y-63830588D01*
X200850588Y-63953069D01*
X200850588Y-63953070D01*
X200850586Y-63953072D01*
X200806859Y-64013256D01*
X200748768Y-64093211D01*
X200670128Y-64247552D01*
X200616597Y-64412302D01*
X200600567Y-64513515D01*
X200589500Y-64583389D01*
X199200500Y-64583389D01*
X199200500Y-46353051D01*
X199200649Y-46346967D01*
X199206999Y-46217701D01*
X199217052Y-46013068D01*
X199218245Y-46000962D01*
X199253063Y-45766239D01*
X199266849Y-45673296D01*
X199269218Y-45661385D01*
X199349710Y-45340043D01*
X199353240Y-45328411D01*
X199374433Y-45269180D01*
X199464835Y-45016525D01*
X199469486Y-45005297D01*
X199521706Y-44894888D01*
X199568164Y-44842702D01*
X199635461Y-44823917D01*
X199702231Y-44844498D01*
G37*
%TD.AperFunction*%
%TA.AperFunction,Conductor*%
G36*
X210249577Y-57294217D02*
G01*
X210324525Y-57314300D01*
X210400456Y-57314300D01*
X210467495Y-57333985D01*
X210488137Y-57350619D01*
X210886781Y-57749263D01*
X210920266Y-57810586D01*
X210923100Y-57836944D01*
X210923100Y-58589114D01*
X210903415Y-58656153D01*
X210886781Y-58676795D01*
X210833093Y-58730482D01*
X210833088Y-58730488D01*
X210760617Y-58856011D01*
X210760616Y-58856015D01*
X210723100Y-58996025D01*
X210723100Y-59140975D01*
X210760616Y-59280985D01*
X210760617Y-59280988D01*
X210833088Y-59406511D01*
X210833090Y-59406513D01*
X210833091Y-59406515D01*
X210935585Y-59509009D01*
X210935586Y-59509010D01*
X210935588Y-59509011D01*
X211061111Y-59581482D01*
X211061112Y-59581482D01*
X211061115Y-59581484D01*
X211201125Y-59619000D01*
X211201128Y-59619000D01*
X211346072Y-59619000D01*
X211346075Y-59619000D01*
X211486085Y-59581484D01*
X211611615Y-59509009D01*
X211714109Y-59406515D01*
X211786584Y-59280985D01*
X211824100Y-59140975D01*
X211824100Y-58996025D01*
X211786584Y-58856015D01*
X211756196Y-58803382D01*
X211714111Y-58730488D01*
X211714106Y-58730482D01*
X211660419Y-58676795D01*
X211626934Y-58615472D01*
X211624100Y-58589114D01*
X211624100Y-57754544D01*
X211643785Y-57687505D01*
X211696589Y-57641750D01*
X211765747Y-57631806D01*
X211829303Y-57660831D01*
X211835781Y-57666863D01*
X212171781Y-58002863D01*
X212205266Y-58064186D01*
X212208100Y-58090544D01*
X212208100Y-63512745D01*
X212226326Y-63580767D01*
X212231985Y-63601886D01*
X212231987Y-63601891D01*
X212278127Y-63681808D01*
X212278131Y-63681813D01*
X212290081Y-63693763D01*
X212323566Y-63755086D01*
X212326400Y-63781444D01*
X212326400Y-69255530D01*
X212306715Y-69322569D01*
X212253911Y-69368324D01*
X212184753Y-69378268D01*
X212170313Y-69375306D01*
X212116175Y-69360800D01*
X211971225Y-69360800D01*
X211842693Y-69395240D01*
X211831211Y-69398317D01*
X211705688Y-69470788D01*
X211705682Y-69470793D01*
X211651995Y-69524481D01*
X211590672Y-69557966D01*
X211564314Y-69560800D01*
X210217500Y-69560800D01*
X210150461Y-69541115D01*
X210104706Y-69488311D01*
X210093500Y-69436800D01*
X210093500Y-57413996D01*
X210113185Y-57346957D01*
X210165989Y-57301202D01*
X210235147Y-57291258D01*
X210249577Y-57294217D01*
G37*
%TD.AperFunction*%
%TA.AperFunction,Conductor*%
G36*
X216985995Y-45157785D02*
G01*
X217006637Y-45174419D01*
X218902337Y-47070119D01*
X218935822Y-47131442D01*
X218930838Y-47201134D01*
X218888966Y-47257067D01*
X218823502Y-47281484D01*
X218814656Y-47281800D01*
X216255556Y-47281800D01*
X216166412Y-47305686D01*
X216166411Y-47305686D01*
X216166409Y-47305687D01*
X216166406Y-47305688D01*
X216086494Y-47351826D01*
X216086485Y-47351833D01*
X214545222Y-48893095D01*
X214489635Y-48925189D01*
X214374211Y-48956117D01*
X214248688Y-49028588D01*
X214248682Y-49028593D01*
X214146193Y-49131082D01*
X214146188Y-49131088D01*
X214073717Y-49256611D01*
X214073716Y-49256615D01*
X214036200Y-49396625D01*
X214036200Y-49541575D01*
X214073716Y-49681585D01*
X214073717Y-49681588D01*
X214146188Y-49807111D01*
X214146190Y-49807113D01*
X214146191Y-49807115D01*
X214248685Y-49909609D01*
X214248686Y-49909610D01*
X214248688Y-49909611D01*
X214374211Y-49982082D01*
X214374212Y-49982082D01*
X214374215Y-49982084D01*
X214514225Y-50019600D01*
X214514228Y-50019600D01*
X214659172Y-50019600D01*
X214659175Y-50019600D01*
X214799185Y-49982084D01*
X214924715Y-49909609D01*
X215027209Y-49807115D01*
X215099684Y-49681585D01*
X215137200Y-49541575D01*
X215137200Y-49396625D01*
X215133721Y-49383641D01*
X215135382Y-49313794D01*
X215165812Y-49263868D01*
X216410562Y-48019119D01*
X216471885Y-47985634D01*
X216498243Y-47982800D01*
X217758046Y-47982800D01*
X217825085Y-48002485D01*
X217870840Y-48055289D01*
X217881336Y-48120053D01*
X217879500Y-48137130D01*
X217879500Y-49482870D01*
X217879501Y-49482879D01*
X217882191Y-49507901D01*
X217869784Y-49576660D01*
X217846582Y-49608834D01*
X214735637Y-52719781D01*
X214674314Y-52753266D01*
X214647956Y-52756100D01*
X214310356Y-52756100D01*
X214221212Y-52779986D01*
X214221209Y-52779987D01*
X214141291Y-52826127D01*
X214141286Y-52826131D01*
X213723432Y-53243985D01*
X213723428Y-53243991D01*
X213686588Y-53307799D01*
X213686588Y-53307800D01*
X213677286Y-53323912D01*
X213677285Y-53323915D01*
X213653400Y-53413056D01*
X213653400Y-53750656D01*
X213633715Y-53817695D01*
X213617081Y-53838337D01*
X213357937Y-54097481D01*
X213296614Y-54130966D01*
X213270256Y-54133800D01*
X213165044Y-54133800D01*
X213098005Y-54114115D01*
X213077363Y-54097481D01*
X213028013Y-54048131D01*
X213028008Y-54048127D01*
X212948090Y-54001987D01*
X212948089Y-54001986D01*
X212948088Y-54001986D01*
X212858944Y-53978100D01*
X211521856Y-53978100D01*
X211432712Y-54001986D01*
X211432709Y-54001987D01*
X211352791Y-54048127D01*
X211352786Y-54048131D01*
X210790831Y-54610086D01*
X210790829Y-54610089D01*
X210772003Y-54642698D01*
X210772002Y-54642700D01*
X210744686Y-54690010D01*
X210720800Y-54779156D01*
X210720800Y-56119042D01*
X210701115Y-56186081D01*
X210648311Y-56231836D01*
X210579153Y-56241780D01*
X210564707Y-56238817D01*
X210497816Y-56220894D01*
X210469475Y-56213300D01*
X210324525Y-56213300D01*
X210249593Y-56233378D01*
X210179743Y-56231715D01*
X210121881Y-56192552D01*
X210094377Y-56128324D01*
X210093500Y-56113603D01*
X210093500Y-52569344D01*
X210113185Y-52502305D01*
X210129819Y-52481663D01*
X212721163Y-49890319D01*
X212782486Y-49856834D01*
X212808844Y-49854000D01*
X212884772Y-49854000D01*
X212884775Y-49854000D01*
X213024785Y-49816484D01*
X213150315Y-49744009D01*
X213252809Y-49641515D01*
X213325284Y-49515985D01*
X213362800Y-49375975D01*
X213362800Y-49231025D01*
X213325284Y-49091015D01*
X213302692Y-49051885D01*
X213252811Y-48965488D01*
X213252806Y-48965482D01*
X213150317Y-48862993D01*
X213150311Y-48862988D01*
X213024788Y-48790517D01*
X213024789Y-48790517D01*
X213013306Y-48787440D01*
X212884775Y-48753000D01*
X212739825Y-48753000D01*
X212611293Y-48787440D01*
X212599811Y-48790517D01*
X212474288Y-48862988D01*
X212474282Y-48862993D01*
X212371793Y-48965482D01*
X212371788Y-48965488D01*
X212299317Y-49091011D01*
X212299316Y-49091015D01*
X212261800Y-49231025D01*
X212261800Y-49231027D01*
X212261800Y-49306956D01*
X212242115Y-49373995D01*
X212225481Y-49394637D01*
X209462531Y-52157586D01*
X209462529Y-52157589D01*
X209437929Y-52200199D01*
X209437928Y-52200200D01*
X209416387Y-52237509D01*
X209416386Y-52237512D01*
X209392500Y-52326656D01*
X209392500Y-62097750D01*
X209372815Y-62164789D01*
X209320011Y-62210544D01*
X209250853Y-62220488D01*
X209206500Y-62205137D01*
X209086088Y-62135617D01*
X209086089Y-62135617D01*
X209074606Y-62132540D01*
X208946075Y-62098100D01*
X208946072Y-62098100D01*
X208938800Y-62098100D01*
X208871761Y-62078415D01*
X208826006Y-62025611D01*
X208814800Y-61974100D01*
X208814800Y-52157486D01*
X208834485Y-52090447D01*
X208851119Y-52069805D01*
X208874680Y-52046244D01*
X208904809Y-52016115D01*
X208977284Y-51890585D01*
X209014800Y-51750575D01*
X209014800Y-51605625D01*
X208977284Y-51465615D01*
X208972404Y-51457163D01*
X208904811Y-51340088D01*
X208904806Y-51340082D01*
X208802317Y-51237593D01*
X208802311Y-51237588D01*
X208676788Y-51165117D01*
X208676789Y-51165117D01*
X208648455Y-51157525D01*
X208536775Y-51127600D01*
X208391825Y-51127600D01*
X208293408Y-51153970D01*
X208251810Y-51165117D01*
X208244301Y-51168228D01*
X208243553Y-51166423D01*
X208185988Y-51180383D01*
X208119964Y-51157525D01*
X208076778Y-51102599D01*
X208067900Y-51056524D01*
X208067900Y-49859143D01*
X208087585Y-49792104D01*
X208104214Y-49771467D01*
X210867031Y-47008649D01*
X210928352Y-46975166D01*
X210993029Y-46978401D01*
X210997547Y-46979869D01*
X210997555Y-46979873D01*
X211162299Y-47033402D01*
X211333389Y-47060500D01*
X211333390Y-47060500D01*
X211506610Y-47060500D01*
X211506611Y-47060500D01*
X211677701Y-47033402D01*
X211842445Y-46979873D01*
X211996788Y-46901232D01*
X212136928Y-46799414D01*
X212259414Y-46676928D01*
X212361232Y-46536788D01*
X212439873Y-46382445D01*
X212493402Y-46217701D01*
X212520500Y-46046611D01*
X212520500Y-45873389D01*
X212493402Y-45702299D01*
X212439873Y-45537555D01*
X212361232Y-45383212D01*
X212361230Y-45383209D01*
X212361229Y-45383207D01*
X212326194Y-45334986D01*
X212302713Y-45269180D01*
X212318538Y-45201126D01*
X212368643Y-45152431D01*
X212426511Y-45138100D01*
X216918956Y-45138100D01*
X216985995Y-45157785D01*
G37*
%TD.AperFunction*%
%TA.AperFunction,Conductor*%
G36*
X210480528Y-45157785D02*
G01*
X210526283Y-45210589D01*
X210536227Y-45279747D01*
X210513806Y-45334986D01*
X210478770Y-45383207D01*
X210400128Y-45537552D01*
X210346597Y-45702302D01*
X210319500Y-45873389D01*
X210319500Y-46046610D01*
X210346597Y-46217698D01*
X210401597Y-46386970D01*
X210403592Y-46456811D01*
X210371347Y-46512969D01*
X208079181Y-48805136D01*
X208017858Y-48838621D01*
X207948166Y-48833637D01*
X207892233Y-48791765D01*
X207867816Y-48726301D01*
X207867500Y-48717455D01*
X207867500Y-45262100D01*
X207887185Y-45195061D01*
X207939989Y-45149306D01*
X207991500Y-45138100D01*
X210413489Y-45138100D01*
X210480528Y-45157785D01*
G37*
%TD.AperFunction*%
%TD*%
D21*
X207449300Y-64767400D03*
X203505200Y-56125200D03*
X215033000Y-64985000D03*
X209180000Y-57810000D03*
X208067000Y-48488000D03*
X210494000Y-58541000D03*
X211700000Y-64510000D03*
X204559000Y-57819000D03*
X211700000Y-61160000D03*
X210954800Y-72399700D03*
X223744200Y-69697400D03*
X219743400Y-68443700D03*
X212812300Y-49303500D03*
X212043700Y-69911300D03*
X227167500Y-75271200D03*
X211712300Y-55043200D03*
X220964300Y-63481100D03*
X208873600Y-62648600D03*
X208464300Y-51678100D03*
X223746700Y-68698900D03*
X213562000Y-63051200D03*
X217367300Y-54679000D03*
X224177600Y-57582600D03*
X206801600Y-60440300D03*
X224377800Y-61082700D03*
X220908400Y-70681800D03*
X205585200Y-61920300D03*
X220113800Y-49389900D03*
X220993700Y-56403600D03*
X206335900Y-61272600D03*
X207609400Y-63143400D03*
X207717400Y-55276500D03*
X214605600Y-53708300D03*
X214023800Y-63785200D03*
X219920300Y-50230300D03*
X227563000Y-66656700D03*
X202295200Y-56874300D03*
X219189700Y-64726000D03*
X219191300Y-78141100D03*
X210397000Y-56763800D03*
X211273600Y-59068500D03*
X218073800Y-70573800D03*
X221922600Y-58817400D03*
X214586700Y-49469100D03*
X223921400Y-70730800D03*
X218404900Y-75931300D03*
X217030000Y-65031100D03*
D22*
X218730000Y-48810000D03*
X216730000Y-48810000D03*
X201260000Y-45960000D03*
X203800000Y-45960000D03*
X206340000Y-45960000D03*
X208880000Y-45960000D03*
X211420000Y-45960000D03*
X201830000Y-78710000D03*
X204250000Y-68280000D03*
X201710000Y-68280000D03*
D23*
X215660000Y-75045000D03*
D24*
X215660000Y-79225000D03*
D23*
X224300000Y-75045000D03*
D24*
X224300000Y-79225000D03*
D22*
X204230000Y-64670000D03*
X201690000Y-64670000D03*
X225040000Y-45450000D03*
X206190000Y-78010000D03*
X212990000Y-78010000D03*
X200380000Y-73020000D03*
X200380000Y-75020000D03*
M02*
